<?xml version="1.0" standalone="no"?>
<!DOCTYPE svg PUBLIC "-//W3C//DTD SVG 1.1//EN" "http://www.w3.org/Graphics/SVG/1.1/DTD/svg11.dtd" >
<svg xmlns="http://www.w3.org/2000/svg">
<metadata>
Created by FontPrep 20130207 at Wed Nov  5 19:40:40 2014
 By Connary
Copyright (c) 2014 by Connary Fagen. All rights reserved.
</metadata>
<defs>
<font id="5553a5e8454005d6bad4ebe6a237c93c" horiz-adv-x='1024' >
  <font-face 
    font-family="ManifoldCF-DemiBold"
    font-weight="600"
    font-stretch="normal"
    units-per-em="2048"
    panose-1="0 0 7 0 0 0 0 0 0 0"
    ascent="1638"
    descent="-410"
    x-height="963"
    cap-height="1487"
    bbox="-411.684 -1044 2138 2165"
    underline-thickness="102"
    underline-position="-102"
    unicode-range="U+0020-FB02"
  />
<missing-glyph horiz-adv-x="1024" 
d="M102 1239v-1044l349 522zM164 102h696l-348 523zM573 717l349 -522v1044zM512 809l348 522h-696zM0 0v1434h1024v-1434h-1024z" />
    <glyph glyph-name="fi" unicode="fi" horiz-adv-x="1261" 
d="M936 1487h141q31 0 31 -31v-174q0 -31 -31 -31h-141q-31 0 -31 31v174q0 31 31 31zM406 965h663q31 0 31 -31v-903q0 -31 -31 -31h-123q-31 0 -31 31v749h-509v-749q0 -31 -31 -31h-123q-31 0 -31 31v749h-119q-31 0 -30 31v123q0 31 30 31h119v137q0 174 91 279t243 106
h135q31 0 31 -31v-123q0 -31 -31 -30h-135q-150 0 -149 -191v-147z" />
    <glyph glyph-name="fl" unicode="fl" horiz-adv-x="1263" 
d="M555 1487h514q31 0 31 -31v-1425q0 -31 -31 -31h-123q-31 0 -31 31v1272h-360q-150 0 -149 -191v-149h264q31 0 30 -31v-123q0 -31 -30 -31h-264v-747q0 -31 -31 -31h-123q-31 0 -31 31v747h-119q-31 0 -30 31v123q0 31 30 31h119v139q0 174 91 280t243 105z" />
    <glyph glyph-name="f_t.liga" unicode="ft" horiz-adv-x="1419" 
d="M1141 778v-434q0 -152 141 -156q33 0 33 -26l2 -133q0 -33 -27 -33q-141 -4 -237 66t-97 223v493h-550v-747q0 -31 -31 -31h-123q-31 0 -31 31v747h-119q-31 0 -30 31v123q0 31 30 31h119v139q0 174 91 279t243 106h135q31 0 31 -31v-123q0 -31 -31 -30h-135
q-150 0 -149 -191v-149h550v213q0 31 31 30h123q31 0 31 -30v-213h147q29 0 31 -27v-127q0 -31 -31 -31h-147z" />
    <glyph glyph-name=".notdef" horiz-adv-x="1024" 
d="M102 1239v-1044l349 522zM164 102h696l-348 523zM573 717l349 -522v1044zM512 809l348 522h-696zM0 0v1434h1024v-1434h-1024z" />
    <glyph glyph-name=".null" horiz-adv-x="0" 
 />
    <glyph glyph-name="nonmarkingreturn" horiz-adv-x="681" 
 />
    <glyph glyph-name="space" unicode=" " horiz-adv-x="645" 
 />
    <glyph glyph-name="exclam" unicode="!" horiz-adv-x="532" 
d="M156 31v162q0 31 30 30h142q31 0 30 -30v-162q0 -31 -30 -31h-142q-30 0 -30 31zM166 465v991q0 31 31 31h122q31 0 31 -31v-991q0 -31 -31 -31h-122q-31 0 -31 31z" />
    <glyph glyph-name="quotedbl" unicode="&#x22;" horiz-adv-x="913" 
d="M559 856v600q0 31 31 31h139q31 0 31 -31v-600q0 -31 -31 -31h-139q-31 0 -31 31zM154 856v600q0 31 30 31h140q31 0 30 -31v-600q0 -31 -30 -31h-140q-30 0 -30 31z" />
    <glyph glyph-name="numbersign" unicode="#" horiz-adv-x="1220" 
d="M729 901h-237v-315h237v315zM913 901v-315h134q31 0 30 -31v-123q0 -31 -30 -31h-134v-370q0 -31 -30 -31h-123q-31 0 -31 31v370h-237v-370q0 -31 -31 -31h-123q-31 0 -31 31v370h-133q-31 0 -31 31v123q0 31 31 31h133v315h-133q-31 0 -31 31v123q0 31 31 30h133v371
q0 31 31 31h123q31 0 31 -31v-371h237v371q0 31 31 31h123q31 0 30 -31v-371h134q31 0 30 -30v-123q0 -31 -30 -31h-134z" />
    <glyph glyph-name="dollar" unicode="$" horiz-adv-x="970" 
d="M715 818q0 58 -38 84t-120 36v-252q70 8 114 41t44 91zM260 1223q0 -55 37 -82t117 -39v252q-154 -10 -154 -131zM868 817q0 -115 -91 -193t-220 -94v-133q0 -31 -31 -30h-82q-31 0 -30 30v133q-117 14 -210 87t-102 180q0 31 31 30h96q29 0 33 -28q10 -94 152 -115v272
q-148 30 -228 92t-80 180t88 192t220 87v133q0 31 30 31h82q31 0 31 -31v-135q117 -16 205 -96t92 -195q0 -33 -29 -32h-94q-35 0 -35 26q-2 58 -41 94t-98 48v-271q151 -27 231 -87t80 -175z" />
    <glyph glyph-name="percent" unicode="%" horiz-adv-x="1259" 
d="M1071 195v10q0 59 -59 59h-13q-59 0 -59 -59v-10q0 -57 59 -58h13q59 1 59 58zM993 401h27q82 0 135 -54t53 -136v-23q0 -82 -53 -135t-135 -53h-27q-84 0 -136 53t-52 135v23q0 82 53 136t135 54zM348 1280v10q0 59 -59 60h-13q-59 0 -59 -60v-10q0 -57 59 -57h13
q59 0 59 57zM999 1487h148q39 0 20 -31l-827 -1425q-18 -31 -41 -31h-147q-39 0 -21 31l827 1425q18 31 41 31zM270 1487h27q82 0 135 -54t53 -137v-22q0 -82 -52 -135t-136 -54h-27q-82 -1 -135 53t-53 136v22q0 82 53 136t135 55z" />
    <glyph glyph-name="ampersand" unicode="&#x26;" horiz-adv-x="1478" 
d="M522 154h197q125 0 188 79l-444 406l-74 -37q-102 -53 -102 -166v-69q0 -93 62 -153t173 -60zM1348 0h-166q-16 0 -37 16l-103 93q-119 -139 -313 -140h-217q-176 0 -293 113t-117 285v90q0 180 193 291l29 16l-37 35q-78 71 -101 141t-22 166v39q0 147 109 257
q110 110 280 109h135q170 1 280 -109t109 -257v-39q0 -164 -112 -256l-66 -55q-20 -16 -49 -17h-129q-19 0 -27 14t6 25l52 33q59 40 100 106t41 140v49q0 82 -55 132t-160 50h-115q-103 0 -159 -50t-56 -132v-49q0 -78 26 -130t97 -118l483 -438v122q0 119 58 160l100 80
q27 18 37 19h145q20 -1 28 -13t-7 -24l-137 -109q-20 -16 -26 -32q-5 -15 -8 -23q-5 -13 -5 -45v-168q-1 -60 -17 -119l244 -221q14 -9 8 -23t-26 -14z" />
    <glyph glyph-name="quotesingle" unicode="'" horiz-adv-x="507" 
d="M154 856v600q0 31 30 31h140q31 0 30 -31v-600q0 -31 -30 -31h-140q-30 0 -30 31z" />
    <glyph glyph-name="parenleft" unicode="(" horiz-adv-x="714" 
d="M317 1204v-921q0 -125 44 -183t147 -59h43q31 0 31 -31v-123q0 -31 -31 -30h-84q-152 0 -243 105t-91 280v1003q0 173 91 279t243 106h84q31 0 31 -31v-122q0 -31 -31 -31h-43q-102 0 -147 -58q-44 -59 -44 -184z" />
    <glyph glyph-name="parenright" unicode=")" horiz-adv-x="714" 
d="M397 283v921q0 126 -44 184t-146 58h-43q-31 0 -31 31v122q0 31 31 31h84q152 0 242 -105t92 -280v-1003q0 -174 -92 -280t-242 -105h-84q-31 0 -31 30v123q0 31 31 31h43q102 1 146 59t44 183z" />
    <glyph glyph-name="asterisk" unicode="*" horiz-adv-x="782" 
d="M471 961q0 -29 -29 -29h-102q-27 0 -27 29v124l-92 -73q-25 -14 -39 8l-53 86q-16 25 10 39l123 65l-123 64q-25 14 -10 41l53 84q14 23 39 10l92 -76v127q0 27 27 27h102q29 0 29 -27v-127l90 76q27 14 39 -10l53 -84q14 -27 -10 -41l-121 -64l121 -65q27 -14 10 -39
l-53 -86q-12 -25 -39 -8l-90 73v-124z" />
    <glyph glyph-name="plus" unicode="+" horiz-adv-x="1052" 
d="M621 754h280q29 0 29 -31v-123q0 -31 -31 -31h-278v-303q0 -31 -31 -30h-123q-31 0 -31 30v303h-282q-31 0 -31 31v123q0 31 31 31h282v301q0 31 31 30h123q31 0 31 -30v-301z" />
    <glyph glyph-name="comma" unicode="," horiz-adv-x="464" 
d="M143 268h189q31 0 30 -30v-246q0 -215 -116 -348q-18 -20 -41 0l-66 59q-27 25 -8 43q63 59 72 146q2 30 2 88l16 20h-78q-31 0 -30 31v207q-1 30 30 30z" />
    <glyph glyph-name="hyphen" unicode="-" horiz-adv-x="888" 
d="M715 426h-541q-31 0 -31 31v123q0 31 31 30h541q31 0 30 -30v-123q1 -31 -30 -31z" />
    <glyph glyph-name="period" unicode="." horiz-adv-x="440" 
d="M102 31v182q0 31 31 31h174q31 0 31 -31v-182q0 -31 -31 -31h-174q-31 0 -31 31z" />
    <glyph glyph-name="slash" unicode="/" horiz-adv-x="866" 
d="M709 1487h135q33 0 20 -31l-622 -1425q-16 -31 -41 -31h-135q-37 0 -21 31l623 1425q12 31 41 31z" />
    <glyph glyph-name="zero" unicode="0" horiz-adv-x="1206" 
d="M553 164h100q109 0 177 85t69 212v567q0 127 -69 212t-177 85h-100q-109 0 -177 -85t-69 -212v-567q1 -127 69 -212t177 -85zM553 1509h100q176 0 303 -143t127 -346v-551q0 -203 -127 -346t-303 -143h-100q-176 0 -303 143t-127 346v551q0 203 127 346t303 143z" />
    <glyph glyph-name="one" unicode="1" horiz-adv-x="841" 
d="M401 1487h123q31 0 31 -31v-1425q0 -31 -31 -31h-123q-31 0 -30 31v1186l-88 -87q-18 -25 -43 0l-86 87q-20 20 0 43l221 217q13 10 26 10z" />
    <glyph glyph-name="two" unicode="2" horiz-adv-x="1159" 
d="M629 1503q172 0 300 -119q128 -120 128 -314t-80 -298t-270 -180l-232 -92q-110 -46 -141 -134t-31 -182h709q31 0 30 -30v-123q0 -31 -30 -31h-877q-31 0 -31 31q2 266 50 407q47 141 202 209l299 129q129 56 173 114t44 178t-68 186q-69 65 -175 65h-86
q-102 0 -170 -65t-68 -177v-35q0 -31 -31 -30h-124q-31 0 -31 30v35q0 186 127 304t297 122h86z" />
    <glyph glyph-name="three" unicode="3" horiz-adv-x="1148" 
d="M610 852q238 11 238 242q0 106 -66 170t-170 63h-88q-98 0 -167 -70t-68 -174v-39q0 -31 -31 -30h-125q-31 0 -31 30v39q0 185 129 307t293 121h88q170 1 295 -115t125 -268t-58 -238q-58 -85 -179 -134q252 -102 252 -377q0 -176 -129 -287t-306 -110h-86
q-168 0 -297 114t-127 295v39q0 31 31 31h125q31 0 31 -31v-39q0 -98 69 -162q70 -63 168 -63h86q111 0 181 61t69 162q0 254 -252 266h-149q-31 0 -31 31v135q0 31 31 31h149z" />
    <glyph glyph-name="four" unicode="4" horiz-adv-x="1128" 
d="M688 678v254q0 31 31 31h123q31 0 30 -31v-254h134q31 0 30 -31v-123q0 -31 -30 -30h-134v-463q0 -31 -30 -31h-123q-31 0 -31 31v463h-590q-25 0 -32 20l-19 55q-10 29 4 49l565 869q14 23 41 22h152q19 0 25 -11t-5 -28l-503 -792h362z" />
    <glyph glyph-name="five" unicode="5" horiz-adv-x="1163" 
d="M528 -18q-178 0 -302 114t-124 297v33q0 31 31 31h125q31 0 31 -31v-33q0 -111 63 -169t176 -58h86q250 0 258 252q6 168 -58 244q-65 76 -206 75h-47q-118 0 -177 -34t-77 -48h-153q-31 0 -31 31v39l20 731q0 31 31 31h787q31 0 30 -31v-123q0 -31 -30 -30h-633
l-17 -445q109 74 264 74h46q201 0 325 -130t115 -380q-8 -211 -136 -326t-311 -114h-86z" />
    <glyph glyph-name="six" unicode="6" horiz-adv-x="1163" 
d="M528 166h90q106 0 180 60t76 212t-51 229t-202 76h-56q-166 1 -222 -77t-42 -252q13 -128 75 -188t152 -60zM635 1511q178 1 301 -121t123 -309v-34q0 -31 -31 -31h-125q-31 0 -31 31v34q0 117 -66 182q-67 65 -171 64h-88q-97 0 -159 -58q-103 -97 -93 -411
q35 30 111 52t159 22h53q225 0 338 -130t105 -380q-8 -213 -134 -327t-309 -113h-90q-176 0 -286 114t-127 318q-31 330 8 682q18 180 130 296t292 119h90z" />
    <glyph glyph-name="seven" unicode="7" horiz-adv-x="1165" 
d="M1073 1456v-110q0 -12 -6 -25q-532 -631 -721 -1337q-6 -25 -43 -11l-127 33q-18 6 -10 43q178 688 668 1254h-711q-31 0 -31 30v123q0 31 31 31h919q31 0 31 -31z" />
    <glyph glyph-name="eight" unicode="8" horiz-adv-x="1173" 
d="M887 377v78q1 90 -63 153t-158 64h-158q-94 0 -158 -64t-63 -153v-78q0 -87 62 -149t159 -62h158q96 0 158 62t63 149zM313 1128v-59q-1 -88 55 -145t150 -58h137q93 0 149 58t56 145v59q0 82 -57 140t-152 59h-129q-94 -1 -152 -59t-57 -140zM1071 440v-80
q0 -156 -117 -268t-284 -110h-166q-168 0 -285 112t-117 266v80q0 102 50 192t137 136q-78 43 -120 129t-42 195v47q0 153 109 263t272 109h158q164 -1 272 -111t109 -261v-47q0 -109 -42 -195t-120 -129q86 -45 136 -135t50 -193z" />
    <glyph glyph-name="nine" unicode="9" horiz-adv-x="1165" 
d="M639 1327h-90q-106 0 -179 -60t-77 -192q-4 -172 49 -249t203 -76h55q168 0 224 78t42 228q-14 152 -75 212t-152 59zM530 -18q-178 0 -301 122t-123 308v34q0 31 31 31h125q31 0 31 -31v-34q1 -117 67 -182t170 -64h88q202 0 240 234q19 116 12 235q-36 -29 -110 -51
t-158 -21h-55q-225 0 -338 129t-105 379q8 213 134 327t311 113h90q176 1 285 -113t127 -319q31 -330 -9 -682q-18 -179 -130 -295t-291 -120h-91z" />
    <glyph glyph-name="colon" unicode=":" horiz-adv-x="542" 
d="M154 31v182q0 31 30 31h174q31 0 31 -31v-182q0 -31 -31 -31h-174q-30 0 -30 31zM154 750v182q0 31 30 31h174q31 0 31 -31v-182q0 -31 -31 -31h-174q-30 0 -30 31z" />
    <glyph glyph-name="semicolon" unicode=";" horiz-adv-x="544" 
d="M184 0q-31 0 -30 31v202q0 31 30 31h174q31 0 31 -31q2 -61 0 -238t-90 -286q-16 -20 -35 -8l-55 39q-33 14 -12 39q61 68 51 207l12 14h-76zM154 750v182q0 31 30 31h174q31 0 31 -31v-182q0 -31 -31 -31h-174q-30 0 -30 31z" />
    <glyph glyph-name="less" unicode="&#x3c;" horiz-adv-x="983" 
d="M860 907v-131q0 -37 -20 -49l-449 -244l449 -243q20 -8 20 -50v-131q0 -12 -9 -17t-24 1l-677 371q-27 16 -27 71t27 68l677 371q14 6 24 1q9 -6 9 -18z" />
    <glyph glyph-name="equal" unicode="=" horiz-adv-x="929" 
d="M776 389h-622q-31 0 -31 31v112q0 31 31 31h622q31 0 31 -31v-112q0 -31 -31 -31zM776 713h-622q-31 0 -31 30v113q0 31 31 31h622q31 0 31 -31v-113q0 -30 -31 -30z" />
    <glyph glyph-name="greater" unicode="&#x3e;" horiz-adv-x="983" 
d="M123 776v131q0 11 9 17t24 0l678 -371q26 -11 26 -67t-26 -72l-678 -371q-14 -6 -24 -1q-9 5 -9 17v131q0 41 20 50l449 243l-449 244q-20 12 -20 49z" />
    <glyph glyph-name="question" unicode="?" horiz-adv-x="1030" 
d="M358 31v162q0 31 31 30h141q31 0 31 -30v-162q0 -31 -31 -31h-141q-31 0 -31 31zM475 1513h86q170 1 289 -119t119 -301t-82 -263q-43 -42 -81 -64t-98 -46t-77 -32q-62 -29 -73 -60q-7 -19 -7 -50v-113q0 -31 -31 -31h-123q-31 0 -30 31v133q0 109 51 162q50 53 170 102
t158 92t38 141q0 99 -59 167t-164 67h-86q-97 0 -157 -71t-60 -177v-39q0 -31 -31 -30h-125q-31 0 -30 30v39q0 190 118 312q119 120 285 120z" />
    <glyph glyph-name="at" unicode="@" horiz-adv-x="1343" 
d="M623 451h20q129 0 176 112v94h-178q-125 0 -125 -104q0 -45 30 -73t77 -29zM926 168v-117q0 -27 -23 -37q-88 -41 -170 -41h-104q-217 -1 -361 137t-145 363v541q0 221 144 359t362 138h94q209 0 353 -136t145 -347v-555q0 -84 -39 -135t-113 -51h-65q-45 -1 -79 25
t-48 65q-31 -37 -99 -65t-137 -27h-20q-111 -1 -186 77t-75 195t74 191t215 73h170v15q0 168 -133 168h-35q-100 0 -178 -68q-29 -25 -45 0l-51 72q-16 23 -2 41q109 119 282 118h41q129 0 205 -87t76 -249v-331q0 -45 39 -45t39 45v512q1 158 -99 246t-256 90h-53
q-158 0 -260 -90t-102 -254v-519q0 -166 102 -257t260 -91h84q78 0 156 47q37 23 37 -16z" />
    <glyph glyph-name="A" unicode="A" horiz-adv-x="1232" 
d="M791 575l-170 570l-175 -570h345zM1114 0h-123q-31 0 -39 33l-106 358h-457l-108 -358q-8 -33 -37 -33h-125q-35 0 -23 33l430 1427q10 33 39 33h107q29 0 39 -33l428 -1427q8 -33 -25 -33z" />
    <glyph glyph-name="B" unicode="B" horiz-adv-x="1196" 
d="M317 184h342q125 0 183 52t57 175q0 121 -60 189t-177 68h-345v-484zM317 852h347q201 0 200 238q0 213 -213 213h-334v-451zM680 0h-510q-37 0 -37 37v1413q0 37 37 37h494q176 0 280 -99t105 -278q0 -260 -158 -346q193 -86 192 -377q0 -387 -403 -387z" />
    <glyph glyph-name="C" unicode="C" horiz-adv-x="1159" 
d="M903 481h123q31 0 31 -30q-2 -199 -126 -338.5t-300 -139.5h-94q-182 0 -308.5 141.5t-126.5 350.5v557q0 209 126 348t309 139h94q176 0 300 -137t126 -336q0 -31 -31 -30h-123q-33 0 -33 30q0 129 -66.5 209t-172.5 80h-94q-113 0 -181.5 -82t-68.5 -221v-557
q0 -141 68.5 -224t181.5 -83h94q106 0 173.5 82t65.5 211q0 30 33 30z" />
    <glyph glyph-name="D" unicode="D" horiz-adv-x="1187" 
d="M891 481v525q0 139 -71 218t-181 79h-326v-1119h326q111 0 181 79t71 218zM160 1487h489q168 1 297 -143t129 -338v-525q0 -195 -129 -338t-297 -143h-489q-31 0 -31 31v1425q0 31 31 31z" />
    <glyph glyph-name="E" unicode="E" horiz-adv-x="1134" 
d="M317 842h535q31 0 31 -31v-123q0 -31 -31 -31h-535v-473h668q31 0 31 -30v-123q0 -31 -31 -31h-821q-31 0 -31 31v1425q0 31 31 31h821q31 0 31 -31v-123q0 -31 -31 -30h-668v-461z" />
    <glyph glyph-name="F" unicode="F" horiz-adv-x="1114" 
d="M334 821h534q31 0 31 -30v-123q0 -31 -31 -31h-534v-606q0 -31 -31 -31h-123q-31 0 -30 31v1425q0 31 30 31h821q31 0 31 -31v-123q0 -31 -31 -30h-667v-482z" />
    <glyph glyph-name="G" unicode="G" horiz-adv-x="1175" 
d="M621 770h411q31 0 31 -31v-284q0 -203 -124 -342.5t-302 -139.5h-94q-184 0 -309 140.5t-125 349.5v559q0 209 125.5 348t308.5 139h94q176 0 300 -137t126 -336q0 -31 -31 -30h-123q-33 0 -32 30q0 129 -67 209t-173 80h-94q-113 0 -181.5 -82t-68.5 -221v-559
q0 -141 67.5 -223t182.5 -82h94q109 0 174.5 80.5t65.5 216.5v131h-256q-31 0 -31 30v123q0 31 31 31z" />
    <glyph glyph-name="H" unicode="H" horiz-adv-x="1220" 
d="M930 1487h123q31 0 30 -31v-1425q0 -31 -30 -31h-123q-31 0 -31 31v585h-575v-585q0 -31 -31 -31h-123q-31 0 -31 31v1425q0 31 31 31h123q31 0 31 -31v-655h575v655q0 31 31 31z" />
    <glyph glyph-name="I" unicode="I" horiz-adv-x="524" 
d="M170 31v1425q0 31 31 31h125q31 0 30 -31v-1425q0 -31 -30 -31h-125q-31 0 -31 31z" />
    <glyph glyph-name="J" unicode="J" horiz-adv-x="1118" 
d="M496 170h53q115 0 189 84t73 223v979q0 31 31 31h123q31 0 30 -31v-989q0 -213 -130 -347t-306 -134h-63q-127 0 -244 79t-166 203q-11 25 16 41l101 58q20 12 37 -19q90 -178 256 -178z" />
    <glyph glyph-name="K" unicode="K" horiz-adv-x="1208" 
d="M1104 0h-150q-29 0 -55 29l-520 612l-72 -82v-528q0 -31 -31 -31h-122q-31 0 -31 31v1425q0 31 31 31h122q31 0 31 -31v-657l531 659q20 29 39 29h161q16 0 20.5 -15.5t-11.5 -35.5l-529 -668l598 -719q12 -12 9 -30.5t-21 -18.5z" />
    <glyph glyph-name="L" unicode="L" horiz-adv-x="1138" 
d="M324 184h667q31 0 31 -30v-123q0 -31 -31 -31h-821q-31 0 -31 31v1425q0 31 31 31h123q31 0 31 -31v-1272z" />
    <glyph glyph-name="M" unicode="M" horiz-adv-x="1480" 
d="M1122 1487h185q31 0 30 -31v-1425q0 -31 -30 -31h-123q-31 0 -31 31v1097l-334 -1097q-8 -31 -39 -31h-84q-29 0 -39 31l-333 1097v-1097q0 -31 -31 -31h-123q-31 0 -31 31v1425q0 31 31 31h184q31 0 41 -31l342 -1126l344 1126q8 31 41 31z" />
    <glyph glyph-name="N" unicode="N" horiz-adv-x="1298" 
d="M1006 1487h122q31 0 31 -31v-1425q0 -31 -31 -31h-174q-25 0 -36 23l-601 1146v-1138q0 -31 -30 -31h-123q-31 0 -31 31v1425q0 31 31 31h174q27 0 37 -23l600 -1147v1139q0 31 31 31z" />
    <glyph glyph-name="O" unicode="O" horiz-adv-x="1206" 
d="M553 164h100q109 0 177 85t69 212v567q0 127 -69 212t-177 85h-100q-109 0 -177 -85t-69 -212v-567q1 -127 69 -212t177 -85zM553 1509h100q176 0 303 -143t127 -346v-551q0 -203 -127 -346t-303 -143h-100q-176 0 -303 143t-127 346v551q0 203 127 346t303 143z" />
    <glyph glyph-name="P" unicode="P" horiz-adv-x="1165" 
d="M322 821h323q111 1 168 57t57 185t-56 184t-169 56h-323v-482zM168 1487h487q184 0 292 -114q108 -115 108 -311t-109 -310t-291 -115h-333v-606q0 -31 -31 -31h-123q-31 0 -31 31v1425q0 31 31 31z" />
    <glyph glyph-name="Q" unicode="Q" horiz-adv-x="1202" 
d="M899 461v567q0 127 -69 212t-177 85h-100q-109 0 -177 -85t-69 -212v-567q0 -127 69 -212t177 -85h100q49 0 92 18l-98 99q-20 20 0 45l86 86q20 23 43 0l94 -95q29 63 29 144zM1083 1020v-551q0 -156 -79 -285l63 -63q23 -23 0 -45l-86 -86q-23 -23 -43 0l-61 61
q-104 -72 -224 -71h-100q-176 0 -303 143t-127 346v551q0 203 127 346t303 143h100q176 0 303 -143t127 -346z" />
    <glyph glyph-name="R" unicode="R" horiz-adv-x="1161" 
d="M313 821h324q111 0 168 56.5t57 185.5t-56 184.5t-169 55.5h-324v-482zM1055 31q0 -31 -31 -31h-123q-31 0 -31 31v319q0 125 -53 206t-168 81h-336v-606q0 -31 -30 -31h-123q-31 0 -31 31v1425q0 31 31 31h487q184 0 292 -113.5t107.5 -321.5t-131.5 -323
q139 -123 140 -342v-356z" />
    <glyph glyph-name="S" unicode="S" horiz-adv-x="1179" 
d="M524 1509h107q168 0 294 -122.5t126 -307.5v-37q0 -31 -31 -30h-125q-31 0 -31 30v37q0 111 -68.5 178.5t-164.5 67.5h-107q-98 0 -158.5 -61.5t-60.5 -162.5t56.5 -161.5t177.5 -83.5l114 -20q180 -33 297 -145.5t117 -297t-127 -302.5t-303 -118h-94q-170 0 -300 118
t-130 296v57q0 31 30 31h125q31 0 31 -31l2 -57q4 -104 73.5 -166.5t168.5 -62.5h94q104 0 175 64q71 66 71 176t-58.5 171.5t-177.5 81.5l-112 21q-188 35 -301 147.5t-113 289.5t115.5 288.5t287.5 111.5z" />
    <glyph glyph-name="T" unicode="T" horiz-adv-x="1134" 
d="M119 1487h899q31 0 31 -31v-123q0 -31 -31 -30h-356v-1272q0 -31 -31 -31h-123q-31 0 -31 31v1272h-358q-31 0 -31 30v123q0 31 31 31z" />
    <glyph glyph-name="U" unicode="U" horiz-adv-x="1181" 
d="M911 1487h123q31 0 31 -31v-1010q0 -200 -125 -330t-322 -130h-53q-197 0 -321 131t-125 329v1010q0 31 31 31h122q31 0 31 -31v-989q0 -129 67 -213t195 -84h53q129 0 196 84t67 213v989q-1 31 30 31z" />
    <glyph glyph-name="V" unicode="V" horiz-adv-x="1216" 
d="M117 1487h131q29 0 37 -33l323 -1135l326 1135q8 33 37 33h131q33 0 24 -33l-424 -1421q-10 -33 -38 -33h-109q-29 0 -39 33l-424 1421q-8 33 25 33z" />
    <glyph glyph-name="W" unicode="W" horiz-adv-x="1880" 
d="M1636 1487h133q33 0 27 -31l-328 -1425q-6 -31 -38 -31h-103q-29 0 -39 31l-348 1126l-348 -1126q-8 -31 -39 -31h-102q-33 0 -39 31l-328 1425q-6 31 25 31h133q31 0 37 -31l239 -1106l326 1106q8 31 39 31h114q31 0 39 -31l330 -1106l236 1106q5 31 34 31z" />
    <glyph glyph-name="X" unicode="X" horiz-adv-x="1134" 
d="M1008 0h-136q-25 0 -41 31l-264 520l-264 -520q-16 -31 -41 -31h-135q-37 0 -21 31l363 712l-363 713q-16 31 21 31h135q25 0 41 -31l264 -520l264 520q16 31 41 31h136q37 0 20 -31l-362 -713l362 -712q16 -31 -20 -31z" />
    <glyph glyph-name="Y" unicode="Y" horiz-adv-x="1159" 
d="M926 1487h141q39 0 20 -31l-417 -803v-622q0 -31 -31 -31h-123q-31 0 -31 31v622l-413 803q-14 31 20 31h141q25 0 41 -31l304 -604l307 604q16 31 41 31z" />
    <glyph glyph-name="Z" unicode="Z" horiz-adv-x="1107" 
d="M1006 1456v-76q0 -20 -7 -28l-651 -1168h627q31 0 31 -30v-123q0 -31 -31 -31h-842q-31 0 -31 31v75q0 20 7 29l651 1168h-627q-31 0 -31 30v123q0 31 31 31h842q31 0 31 -31z" />
    <glyph glyph-name="bracketleft" unicode="[" horiz-adv-x="657" 
d="M317 1446v-1405h177q31 0 30 -31v-123q0 -31 -30 -30h-330q-31 0 -31 30v1712q0 31 31 31h330q31 0 30 -31v-122q0 -31 -30 -31h-177z" />
    <glyph glyph-name="backslash" unicode="\" horiz-adv-x="866" 
d="M801 0h-135q-27 0 -41 31l-623 1425q-12 31 21 31h135q29 0 41 -31l622 -1425q14 -31 -20 -31z" />
    <glyph glyph-name="bracketright" unicode="]" horiz-adv-x="657" 
d="M164 1630h330q31 0 30 -31v-1712q0 -31 -30 -30h-330q-31 0 -31 30v123q0 31 31 31h176v1405h-176q-31 0 -31 31v122q0 31 31 31z" />
    <glyph glyph-name="asciicircum" unicode="^" horiz-adv-x="862" 
d="M737 932h-135q-29 0 -41 31l-129 280l-129 -280q-16 -31 -41 -31h-135q-37 0 -21 31l238 493q14 31 41 31h94q25 0 41 -31l238 -493q12 -31 -21 -31z" />
    <glyph glyph-name="underscore" unicode="_" horiz-adv-x="1212" 
d="M1063 0h-930q-31 0 -31 31v123q0 31 31 30h930q31 0 31 -30v-123q0 -31 -31 -31z" />
    <glyph glyph-name="grave" unicode="`" horiz-adv-x="573" 
d="M446 1186h-116q-23 0 -43 37l-178 379q-18 37 20 36h141q31 1 43 -36l154 -379q16 -37 -21 -37z" />
    <glyph glyph-name="a" unicode="a" horiz-adv-x="976" 
d="M387 182h105q104 2 178 88v144h-283q-55 0 -85 -31t-30 -82t34 -85t81 -34zM852 0h-147q-35 0 -35 49v31q-96 -82 -195 -82h-94q-113 -2 -202 87t-89 214t85 206t216 81h279v32q0 80 -41 123t-107 43h-100q-111 0 -174 -63q-23 -20 -47 4l-68 82q-20 20 -2 41
q106 119 307 119h97q127 -1 223 -101t96 -256v-561q0 -15 4 -32t-6 -17z" />
    <glyph glyph-name="b" unicode="b" horiz-adv-x="1011" 
d="M725 346v252q0 74 -44 127t-118 53h-74q-61 0 -110 -45t-51 -106v-355q30 -40 74 -64t87 -24h74q70 0 116 46t46 116zM489 963h76q141 0 243 -113t101 -254v-250q0 -138 -105 -242t-239 -104h-76q-80 0 -161 43v-12q0 -31 -31 -31h-123q-31 0 -31 31v1425q0 31 31 31h123
q31 0 31 -31v-536q81 43 161 43z" />
    <glyph glyph-name="c" unicode="c" horiz-adv-x="985" 
d="M864 641h-125q-31 0 -34 29q-4 47 -50.5 80.5t-103.5 33.5h-76q-72 0 -125 -54t-53 -132v-233q0 -76 53 -129.5t125 -53.5h82q88 0 180 111q23 27 47 4l88 -80q25 -18 7 -43q-143 -176 -328 -176h-74q-145 0 -254.5 109.5t-109.5 257.5v233q0 147 109.5 259t254.5 112h74
q123 0 231.5 -92.5t110.5 -200.5q0 -35 -29 -35z" />
    <glyph glyph-name="d" unicode="d" horiz-adv-x="1026" 
d="M537 778h-78q-72 0 -117 -53t-45 -127v-252q0 -70 47 -116t115 -46h78q43 0 87 24t74 64v355q-2 61 -51 106t-110 45zM729 1487h123q31 0 31 -31v-1425q0 -31 -31 -31h-123q-31 0 -31 31v12q-82 -43 -161 -43h-80q-133 0 -239 104q-105 104 -105 242v250q0 141 101 254
t243 113h80q80 0 161 -43v536q0 31 31 31z" />
    <glyph glyph-name="e" unicode="e" horiz-adv-x="1011" 
d="M725 586v24q0 74 -53.5 124t-112.5 50h-78q-70 0 -124 -52t-54 -122v-24h422zM483 969h78q129 0 238.5 -107.5t109.5 -261.5v-113q0 -61 -61 -61h-545v-61q0 -78 53.5 -130.5t124.5 -52.5h84q84 0 180 111q23 25 46 4l90 -80q23 -20 6 -43q-143 -176 -326 -176h-78
q-145 0 -254.5 109.5t-109.5 257.5v233q0 147 109.5 259t254.5 112z" />
    <glyph glyph-name="f" unicode="f" horiz-adv-x="751" 
d="M555 1487h135q31 0 31 -31v-123q0 -31 -31 -30h-135q-150 0 -149 -191v-149h264q31 0 30 -31v-123q0 -31 -30 -31h-264v-747q0 -31 -31 -31h-123q-31 0 -31 31v747h-119q-31 0 -30 31v123q0 31 30 31h119v139q0 174 91 280t243 105z" />
    <glyph glyph-name="g" unicode="g" horiz-adv-x="1001" 
d="M471 182h70q76 0 149 70v414q0 45 -49 82t-106 36h-74q-70 0 -122 -55t-52 -131v-233q0 -75 56 -129t128 -54zM756 963h92q31 0 31 -31v-1034q1 -115 -101 -211t-235 -97h-51q-106 0 -200 56t-147 149q-18 29 21 45l88 45q31 12 51 -10q70 -100 176 -100h62q53 0 100 36
t47 93v135q-76 -41 -155 -41h-64q-145 0 -257 112t-112 255v233q0 145 108 258t251 113h74q86 0 174 -68l12 27q12 35 35 35z" />
    <glyph glyph-name="h" unicode="h" horiz-adv-x="1042" 
d="M500 963h75q141 0 243 -113t102 -254v-565q0 -31 -31 -31h-123q-31 0 -31 31v567q0 76 -44 128t-113 52h-80q-62 0 -110 -43t-50 -100v-604q0 -31 -31 -31h-123q-31 0 -30 31v1425q0 31 30 31h123q31 0 31 -31v-536q82 43 162 43z" />
    <glyph glyph-name="i" unicode="i" horiz-adv-x="509" 
d="M164 31v903q0 31 31 31h122q31 0 31 -31v-903q0 -31 -31 -31h-122q-31 0 -31 31zM154 1282v174q0 31 30 31h142q31 0 30 -31v-174q0 -31 -30 -31h-142q-30 0 -30 31z" />
    <glyph glyph-name="j" unicode="j" horiz-adv-x="505" 
d="M158 -106v1040q0 31 30 31h123q31 0 31 -31v-1047q0 -113 -73 -207t-185 -129q-27 -8 -39 21l-49 117q-10 31 20 39q57 20 100 64q42 44 42 102zM150 1282v174q0 31 30 31h142q31 0 30 -31v-174q0 -31 -30 -31h-142q-30 0 -30 31z" />
    <glyph glyph-name="k" unicode="k" horiz-adv-x="1069" 
d="M174 1487h123q31 0 31 -31v-835l334 317q20 25 45 25h149q18 0 23.5 -21.5t-15.5 -44.5l-352 -352l422 -498q14 -14 11 -30.5t-23 -16.5h-131q-27 0 -56 29l-348 393l-59 -55v-336q0 -31 -31 -31h-123q-31 0 -31 31v1425q0 31 31 31z" />
    <glyph glyph-name="l" unicode="l" horiz-adv-x="512" 
d="M164 31v1425q0 31 31 31h122q31 0 31 -31v-1425q0 -31 -31 -31h-122q-31 0 -31 31z" />
    <glyph glyph-name="m" unicode="m" horiz-adv-x="1701" 
d="M1124 963h76q150 0 252 -112t102 -255v-565q0 -31 -30 -31h-123q-31 0 -31 31v565q0 78 -49 130t-121 52h-88q-58 0 -110 -39t-60 -96q4 -29 4 -47v-565q0 -31 -31 -31h-122q-31 0 -31 31v565q0 14 -4 39v2q-12 61 -56 101t-106 40h-88q-64 0 -116 -42t-54 -103v-602
q0 -31 -31 -31h-123q-31 0 -30 31v901q0 31 30 31h123q31 0 31 -31v-31q96 61 182 62h76q152 0 256 -119q114 119 272 119z" />
    <glyph glyph-name="n" unicode="n" horiz-adv-x="1046" 
d="M508 963h88q150 0 239 -107.5t89 -259.5v-565q0 -31 -31 -31h-123q-31 0 -31 31v565q0 74 -47 128t-117 54h-90q-61 0 -111 -45t-52 -100v-602q0 -31 -31 -31h-123q-31 0 -31 31v901q0 31 31 31h123q31 0 31 -31v-49q80 80 186 80z" />
    <glyph glyph-name="o" unicode="o" horiz-adv-x="1038" 
d="M741 375v213q0 80 -49 138t-131 58h-84q-82 0 -131 -57t-49 -139v-213q0 -80 49 -136t131 -57h84q82 0 131 56t49 137zM479 969h80q151 0 259 -113t108 -268v-213q0 -153 -106 -265t-261 -112h-80q-154 0 -260 112t-106 265v213q0 156 107 268t259 113z" />
    <glyph glyph-name="p" unicode="p" horiz-adv-x="1036" 
d="M729 346v252q0 74 -45 127t-117 53h-78q-61 0 -110 -45t-51 -106v-355q30 -40 74 -64t87 -24h78q68 0 115 46t47 116zM489 963h80q141 0 243 -113t101 -254v-250q0 -138 -105 -242t-239 -104h-80q-80 0 -161 43v-422q0 -31 -31 -31h-123q-31 0 -31 31v1311q0 31 31 31
h123q31 0 31 -31v-25q81 56 161 56z" />
    <glyph glyph-name="q" unicode="q" horiz-adv-x="1038" 
d="M469 184h80q43 0 88 25t74 63v375q-9 55 -57 93t-105 38h-80q-72 0 -117 -53t-45 -127v-252q0 -70 47 -116t115 -46zM741 963h123q31 0 31 -31v-1311q0 -31 -31 -31h-123q-31 0 -30 31v422q-82 -43 -162 -43h-82q-133 0 -239 104q-105 104 -105 242v250q0 141 101 254
t243 113h82q78 0 162 -54v23q-1 31 30 31z" />
    <glyph glyph-name="r" unicode="r" horiz-adv-x="858" 
d="M545 780h-64q-63 0 -113.5 -46t-50.5 -103v-600q0 -31 -30 -31h-123q-31 0 -31 31v901q0 31 31 31h123q31 0 30 -31v-49q33 33 85.5 57.5t101.5 24.5h80q119 0 211 -82q23 -22 0 -45l-88 -90q-18 -20 -43 -3q-51 35 -119 35z" />
    <glyph glyph-name="s" unicode="s" horiz-adv-x="968" 
d="M866 282.5q0 -133.5 -107.5 -213t-254.5 -79.5h-51q-127 0 -233.5 77.5t-117.5 190.5q-4 31 31 31h127q29 0 37 -27q10 -41 55 -64.5t97 -23.5h65q70 0 119 27.5t49 80t-41 74t-154 31.5q-190 18 -285.5 88t-95.5 207t100.5 213t254.5 76h41q133 0 240.5 -85t109.5 -210
q0 -33 -29 -33h-125q-33 0 -34 31q-2 51 -53.5 81.5t-112.5 30.5h-52q-156 0 -155 -104q0 -49 41.5 -73t154.5 -38q190 -20 284.5 -87.5t94.5 -201z" />
    <glyph glyph-name="t" unicode="t" horiz-adv-x="667" 
d="M389 778v-434q0 -152 141 -156q33 0 33 -26l2 -133q0 -33 -26 -33q-141 -4 -237.5 66.5t-96.5 222.5v493h-103q-31 0 -30 31v121q0 33 30 33h103v213q0 31 31 30h122q31 0 31 -30v-213h146q33 0 32 -31v-123q0 -31 -30 -31h-148z" />
    <glyph glyph-name="u" unicode="u" 
d="M920 932v-901q0 -31 -31 -31h-123q-31 0 -31 31v47q-84 -80 -186 -80h-84q-152 0 -242 106t-90 261v567q0 31 31 31h123q31 0 30 -31v-567q-1 -76 47 -128t121 -53h86q61 0 112 45q50 45 52 101v602q0 31 31 31h123q31 0 31 -31z" />
    <glyph glyph-name="v" unicode="v" horiz-adv-x="911" 
d="M98 963h127q25 0 37 -35l193 -652l196 652q10 35 37 35h127q35 0 25 -35l-293 -895q-10 -33 -39 -33h-105q-26 0 -38 33l-291 895q-12 35 24 35z" />
    <glyph glyph-name="w" unicode="w" horiz-adv-x="1400" 
d="M1178 963h127q35 0 24 -35l-242 -895q-10 -33 -38 -33h-107q-29 0 -39 33l-203 629l-200 -629q-10 -33 -39 -33h-107q-29 0 -39 33l-241 895q-10 35 24 35h127q27 0 37 -35l158 -649l190 649q10 35 37 35h109q25 0 37 -35l188 -649l160 649q10 35 37 35z" />
    <glyph glyph-name="x" unicode="x" horiz-adv-x="929" 
d="M821 0h-137q-27 0 -47 35l-172 280l-170 -280q-20 -35 -47 -35h-139q-18 0 -25 10q-6 10 4 27l274 448l-270 441q-10 16 -4 26t25 11h139q25 0 47 -35l168 -273l166 273q23 35 47 35h139q17 -1 23 -11t-4 -26l-269 -441l275 -448q18 -37 -23 -37z" />
    <glyph glyph-name="y" unicode="y" 
d="M834 963h135q33 0 18 -37l-545 -1301q-14 -35 -45 -35h-135q-35 0 -20 37l190 451l-356 848q-14 37 18 37h137q29 0 43 -35l258 -611l256 611q15 35 46 35z" />
    <glyph glyph-name="z" unicode="z" horiz-adv-x="905" 
d="M823 932v-96q0 -14 -10 -29l-471 -623h449q33 0 32 -30v-123q0 -31 -30 -31h-680q-31 0 -31 31v90q0 20 10 33l473 624h-452q-31 0 -31 31v121q0 33 31 33h678q32 0 32 -31z" />
    <glyph glyph-name="braceleft" unicode="{" horiz-adv-x="860" 
d="M432 592v-289q0 -262 191 -262h73q31 0 31 -31v-123q0 -31 -31 -30h-114q-152 0 -243 105t-91 280v329q0 20 -15 37l-92 113q-14 23 0 45l92 113q14 16 15 36v330q0 173 91 279t243 106h114q31 0 31 -31v-122q0 -31 -31 -31h-73q-190 0 -191 -262v-289q0 -20 -14 -37
l-88 -115l90 -114q12 -19 12 -37z" />
    <glyph glyph-name="bar" unicode="|" horiz-adv-x="512" 
d="M164 -379v1987q0 31 31 30h122q31 0 31 -30v-1987q0 -31 -31 -31h-122q-31 0 -31 31z" />
    <glyph glyph-name="braceright" unicode="}" horiz-adv-x="860" 
d="M428 303v289q0 18 12 37l90 114l-88 115q-14 16 -14 37v289q0 262 -190 262h-74q-31 0 -31 31v122q0 31 31 31h115q153 0 243 -105t90 -280v-330q0 -20 15 -36l92 -113q14 -23 0 -45l-92 -113q-14 -16 -15 -37v-329q0 -174 -91 -280t-242 -105h-115q-31 0 -31 30v123
q0 31 31 31h74q190 0 190 262z" />
    <glyph glyph-name="asciitilde" unicode="~" horiz-adv-x="1107" 
d="M954 811l50 -96q14 -23 -21 -45q-104 -74 -226 -80q-121 -6 -221 53t-179 56t-167 -64q-18 -12 -34 16l-50 97q-10 25 21 45q104 75 227 81q122 6 222 -54t177 -56t167 63q20 13 34 -16z" />
    <glyph glyph-name="exclamdown" unicode="&#xa1;" horiz-adv-x="509" 
d="M164 -379v991q0 31 31 31h122q31 0 31 -31v-991q0 -31 -31 -31h-122q-31 0 -31 31zM154 885v162q0 31 30 30h142q31 0 30 -30v-162q0 -31 -30 -31h-142q-30 0 -30 31z" />
    <glyph glyph-name="cent" unicode="&#xa2;" horiz-adv-x="985" 
d="M297 598v-233q0 -70 46 -121t112 -60v598q-66 -8 -112 -60t-46 -124zM578 -231q0 -31 -31 -31h-62q-31 0 -30 31v229q-139 10 -241 118q-101 108 -101 249v233q0 141 101 251t241 120v225q0 31 30 31h62q31 0 31 -31v-227q117 -9 215 -99t100 -192q0 -35 -29 -35h-125
q-31 0 -35 35q-4 34 -40 66q-37 32 -86 40v-598q76 10 159 109q22 27 47 4l88 -80q25 -18 7 -43q-137 -164 -301 -176v-229z" />
    <glyph glyph-name="sterling" unicode="&#xa3;" horiz-adv-x="1253" 
d="M651 1511h74q170 0 297 -138t129 -335q0 -31 -31 -30h-123q-33 0 -32 30q0 133 -70 211t-170 78h-74q-104 0 -175 -83t-48 -220q12 -72 55 -203h303q31 0 31 -30v-123q0 -31 -31 -31h-247q17 -117 -21 -261q-18 -73 -67 -157q78 29 131 25t143 -39t162 -32t178 48
q14 6 22 -4t9 -27v-129q0 -14 -6 -18t-25 -12q-109 -45 -196 -44t-193 44t-186 36q-79 -7 -191 -69q-14 -8 -50 36t-30 60q51 125 71 176q53 143 60 291q2 35 -4 76h-211q-31 0 -31 31v123q0 31 31 30h158q-41 111 -55 203q-29 201 102 344t311 143z" />
    <glyph glyph-name="currency" unicode="&#xa4;" horiz-adv-x="1175" 
d="M545 182h84q82 0 131 56t49 137v213q0 80 -49 138t-131 58h-84q-82 0 -131 -57t-49 -139v-213q0 -81 49 -137t131 -56zM627 -2h-80q-115 0 -209 68l-84 -86q-20 -20 -43 0l-88 88q-20 23 0 43l96 96q-39 78 -39 168v213q0 88 39 170l-96 94q-20 20 0 43l88 88q23 20 43 0
l84 -84q96 70 209 70h80q115 0 211 -70l84 84q20 20 43 0l88 -88q20 -23 0 -43l-99 -96q39 -82 39 -168v-213q0 -86 -39 -168l97 -96q23 -20 0 -43l-86 -88q-23 -20 -43 0l-86 86q-94 -68 -209 -68z" />
    <glyph glyph-name="yen" unicode="&#xa5;" horiz-adv-x="1159" 
d="M670 602h313q31 0 31 -31v-112q0 -31 -31 -31h-313v-94h313q31 0 31 -31v-113q0 -31 -31 -30h-313v-129q0 -31 -31 -31h-123q-31 0 -31 31v129h-276q-31 0 -31 30v113q0 31 31 31h276v94h-276q-31 0 -31 31v112q0 31 31 31h276v51l-413 803q-14 31 20 31h141q25 0 41 -31
l304 -604l307 604q16 31 41 31h141q39 0 20 -31l-417 -803v-51z" />
    <glyph glyph-name="brokenbar" unicode="&#xa6;" horiz-adv-x="512" 
d="M164 -236v662q0 31 31 31h122q31 0 31 -31v-662q0 -31 -31 -30h-122q-31 -1 -31 30zM164 803v661q0 31 31 31h122q31 0 31 -31v-661q0 -31 -31 -31h-122q-31 0 -31 31z" />
    <glyph glyph-name="section" unicode="&#xa7;" horiz-adv-x="1241" 
d="M913 440q0 227 -235 269l-113 20q-121 23 -213 76q-16 -43 -16 -88q0 -213 233 -254l115 -21q125 -23 215 -80q14 35 14 78zM1098 440q0 -119 -62 -209q61 -96 62 -223q0 -182 -127 -301t-303 -119h-95q-170 0 -300 119t-130 295v59q0 31 31 31h125q31 0 31 -31l2 -59
q4 -102 74 -166t167 -63h95q104 1 175 65t71 174t-59 168q-58 57 -177 78l-113 21q-186 33 -300 151t-113 291q0 119 59 215q-59 94 -59 217q0 176 116 290q117 114 287 113h107q168 0 294 -122t125 -308v-39q0 -31 -30 -30h-125q-31 0 -31 30v39q0 109 -69 179t-164 69
h-107q-99 0 -159 -62t-60 -164t56 -156q56 -56 177 -79l115 -20q178 -33 296 -152t118 -301z" />
    <glyph glyph-name="dieresis" unicode="&#xa8;" horiz-adv-x="1024" 
d="M666 1274v182q0 31 30 31h174q31 0 31 -31v-182q0 -31 -31 -31h-174q-30 0 -30 31zM123 1274v182q0 31 31 31h174q31 0 30 -31v-182q0 -31 -30 -31h-174q-31 0 -31 31z" />
    <glyph glyph-name="copyright" unicode="&#xa9;" horiz-adv-x="1312" 
d="M803 569h110q20 0 21 -28q-2 -135 -69 -202t-177 -67h-51q-109 0 -181 68t-71 199v407q0 131 72 199t180 67h51q112 0 178 -66t68 -200q0 -29 -21 -28h-110q-23 0 -23 18q0 119 -96 119h-45q-104 0 -104 -119v-387q0 -121 104 -121h45q45 0 72 33t24 90q0 18 23 18z
M584 147h145q125 1 211 93t86 225v555q0 133 -86 225t-211 92h-145q-125 0 -211 -92t-86 -225v-555q0 -133 86 -225t211 -93zM573 1511h166q183 0 317 -148t134 -351v-539q0 -203 -133 -351t-318 -149h-166q-184 1 -317 149t-133 351v539q0 203 133 351t317 148z" />
    <glyph glyph-name="ordfeminine" unicode="&#xaa;" horiz-adv-x="653" 
d="M293 1067h33q70 0 118 35v78h-151q-82 0 -82 -56t82 -57zM467 963q-18 0 -23 32q-53 -33 -120 -32h-31q-80 0 -135 42q-56 43 -56 117t52 118t139 44h151q0 98 -92 98h-43q-63 0 -125 -45q-18 -14 -30 0l-35 45q-12 14 0 27q74 78 196 78h50q80 1 131 -59t51 -148v-281
q0 -18 4 -27t-6 -9h-78z" />
    <glyph glyph-name="guillemotleft" unicode="&#xab;" horiz-adv-x="1202" 
d="M1090 707q0 -18 -37 -45l-203 -136l203 -135q37 -23 37 -45v-166q0 -16 -12 -20t-25 4l-385 266q-31 25 -31 47v98q0 28 31 48l385 266q14 10 25 5t12 -22v-165zM565 872v-165q0 -20 -37 -45l-202 -136l202 -135q37 -23 37 -45v-166q0 -16 -11 -20t-26 4l-385 266
q-31 25 -30 47v98q-1 28 30 48l385 266q14 10 26 5t11 -22z" />
    <glyph glyph-name="logicalnot" unicode="&#xac;" horiz-adv-x="1052" 
d="M154 723h745q31 0 31 -31v-403q0 -31 -31 -31h-123q-31 0 -31 31v250h-591q-31 0 -31 30v123q0 31 31 31z" />
    <glyph glyph-name="softhyphen" unicode="&#xad;" horiz-adv-x="888" 
d="M715 426h-541q-31 0 -31 31v123q0 31 31 30h541q31 0 30 -30v-123q1 -31 -30 -31z" />
    <glyph glyph-name="registered" unicode="&#xae;" horiz-adv-x="1312" 
d="M555 797h113q57 -1 80 31q22 32 22 103t-22 97t-80 27h-113v-258zM911 514v-180q0 -41 -34 -41h-74q-35 0 -35 41v170q0 147 -96 147h-115v-317q0 -41 -35 -41h-76q-35 0 -34 41v803q0 27 17 45t46 18h201q112 0 176 -71t64 -201t-89 -209q84 -72 84 -205zM584 147h145
q125 1 211 93t86 225v555q0 133 -86 225t-211 92h-145q-125 0 -211 -92t-86 -225v-555q0 -133 86 -225t211 -93zM573 1511h166q183 0 317 -148t134 -351v-539q0 -203 -133 -351t-318 -149h-166q-184 1 -317 149t-133 351v539q0 203 133 351t317 148z" />
    <glyph glyph-name="macron" unicode="&#xaf;" horiz-adv-x="1011" 
d="M838 1303h-664q-31 0 -31 30v123q0 31 31 31h664q31 0 30 -31v-123q1 -30 -30 -30z" />
    <glyph glyph-name="degree" unicode="&#xb0;" horiz-adv-x="923" 
d="M606 1169v17q0 68 -34 106t-97 37h-22q-66 0 -100 -38t-34 -105v-17q0 -65 34 -103t100 -38h22q63 0 97 38t34 103zM446 1487h31q127 0 205 -84t78 -215v-23q0 -131 -78 -215t-205 -84h-31q-130 0 -206 83t-76 216v23q0 133 76 216t206 83z" />
    <glyph glyph-name="plusminus" unicode="&#xb1;" horiz-adv-x="1052" 
d="M154 184h747q29 0 29 -30v-123q0 -31 -31 -31h-745q-31 0 -31 31v123q0 30 31 30zM621 774h280q29 0 29 -31v-122q0 -31 -31 -31h-278v-283q0 -31 -31 -31h-123q-31 0 -31 31v283h-282q-31 0 -31 31v122q0 31 31 31h282v281q0 31 31 30h123q31 0 31 -30v-281z" />
    <glyph glyph-name="twosuperior" unicode="&#xb2;" horiz-adv-x="655" 
d="M532 883q0 -31 -30 -31h-344q-31 0 -31 31v49q0 30 11 46t44 50l144 154q4 4 41 37t38 69q1 35 -23 59q-24 23 -58 23t-57 -19q-22 -19 -21 -46v-15q0 -31 -31 -30h-61q-31 0 -31 30v27q0 68 51 119t125 51h51q80 -1 130 -61t50 -126t-34 -114q-34 -49 -97 -113
l-104 -104l207 4q31 0 30 -31v-59z" />
    <glyph glyph-name="threesuperior" unicode="&#xb3;" horiz-adv-x="653" 
d="M340 854h-51q-74 0 -125 51t-51 119v27q0 31 30 30h62q31 0 31 -30v-15q0 -27 22 -46t56 -19t58 19t23 52q0 33 -22 55q-23 22 -56 21h-47q-31 0 -30 31v45q0 31 30 31h47q33 -1 56 21t23 54t-24 53q-24 19 -59 19t-57 -19t-20 -46v-15q0 -31 -31 -30h-62q-31 0 -30 30
v27q0 68 51 119t125 51h51q80 0 130 -56q50 -55 50 -127t-69 -135q69 -63 69 -134t-50 -127t-130 -56z" />
    <glyph glyph-name="acute" unicode="&#xb4;" horiz-adv-x="583" 
d="M455 1638q39 0 20 -36l-178 -379q-20 -37 -43 -37h-127q-37 0 -21 37l154 379q12 37 43 36h152z" />
    <glyph glyph-name="paragraph" unicode="&#xb6;" horiz-adv-x="1155" 
d="M842 1303h-109v-482h109v482zM549 821v482h-37q-113 1 -169 -55t-56 -185t57 -185t168 -57h37zM502 1487h493q31 0 31 -31v-1425q0 -31 -31 -31h-123q-31 0 -30 31v606h-109v-606q0 -31 -31 -31h-122q-31 0 -31 31v606h-47q-182 0 -291 115q-109 116 -109 312t108 310
t292 113z" />
    <glyph glyph-name="periodcentered" unicode="&#xb7;" horiz-adv-x="440" 
d="M102 532v183q0 31 31 30h174q31 0 31 -30v-183q0 -31 -31 -30h-174q-31 -1 -31 30z" />
    <glyph glyph-name="cedilla" unicode="&#xb8;" horiz-adv-x="741" 
d="M258 14h129q23 0 0 -34t-5 -45q20 -11 26 -12t36 -5q104 -12 150 -46t45 -130q0 -156 -190 -156h-125q-84 0 -131 47t-50 125q0 20 19 21h117q20 0 20 -17q0 -49 74 -49h35q45 0 60 5t15 29t-33 33t-97 16q-64 6 -94 11q-29 3 -51 21t-21 63t49 107q12 16 22 16z" />
    <glyph glyph-name="onesuperior" unicode="&#xb9;" horiz-adv-x="618" 
d="M246 885v571q0 31 30 31h66q31 0 31 -31v-571q0 -31 -31 -31h-66q-30 0 -30 31z" />
    <glyph glyph-name="ordmasculine" unicode="&#xba;" horiz-adv-x="663" 
d="M455 227v74q0 47 -30 79t-75 32h-35q-47 0 -75 -32t-29 -79v-74q0 -47 29 -81t75 -33h35q43 -1 74 33t31 81zM309 524h45q86 0 147 -65q60 -66 60 -152v-88q0 -91 -60 -155t-147 -64h-45q-86 0 -146 65t-61 154v88q0 89 60 153t147 64z" />
    <glyph glyph-name="guillemotright" unicode="&#xbb;" horiz-adv-x="1202" 
d="M1090 575v-98q0 -23 -31 -47l-385 -266q-14 -8 -26 -4q-11 4 -11 20v166q0 23 37 45l203 135l-203 136q-37 25 -37 45v165q0 16 11 22q12 5 26 -5l385 -266q31 -20 31 -48zM565 477q0 -23 -30 -47l-385 -266q-14 -8 -26 -4q-11 4 -11 20v166q0 23 37 45l202 135l-202 136
q-37 27 -37 45v165q0 16 11 22q12 5 26 -5l385 -266q31 -20 30 -48v-98z" />
    <glyph glyph-name="onequarter" unicode="&#xbc;" horiz-adv-x="1511" 
d="M1206 246v205l-104 -205h104zM1329 242h29q31 0 31 -31v-61q0 -31 -31 -31h-29v-88q0 -31 -31 -31h-61q-31 0 -31 31v88h-223q-29 0 -31 31l-6 59q0 8 8 24l217 388q8 14 29 14h98q31 0 31 -31v-362zM246 885v571q0 31 30 31h66q31 0 31 -31v-571q0 -31 -31 -31h-66
q-30 0 -30 31zM1081 1487h86q39 0 21 -31l-828 -1425q-18 -31 -41 -31h-86q-38 0 -20 31l827 1425q18 31 41 31z" />
    <glyph glyph-name="onehalf" unicode="&#xbd;" horiz-adv-x="1478" 
d="M1356 90v-59q0 -31 -31 -31h-344q-31 0 -31 31v49q0 46 56 96l143 154q4 4 42 37t38 69q0 35 -24 59q-25 23 -59 23t-56 -19t-21 -46v-15q0 -31 -31 -30h-61q-31 0 -31 30v27q0 68 51 119t125 51h52q80 -1 130 -61t50 -126t-34 -114q-34 -49 -97 -113l-105 -104l207 4
q31 0 31 -31zM246 885v571q0 31 30 31h66q31 0 31 -31v-571q0 -31 -31 -31h-66q-30 0 -30 31zM1081 1487h86q39 0 21 -31l-828 -1425q-18 -31 -41 -31h-86q-38 0 -20 31l827 1425q18 31 41 31z" />
    <glyph glyph-name="threequarters" unicode="&#xbe;" horiz-adv-x="1546" 
d="M1241 246v205l-104 -205h104zM1364 242h29q31 0 30 -31v-61q0 -31 -30 -31h-29v-88q0 -31 -31 -31h-61q-31 0 -31 31v88h-223q-27 0 -31 31l-6 59q0 8 8 24l217 388q6 14 29 14h98q31 0 31 -31v-362zM1116 1487h86q39 0 21 -31l-828 -1425q-18 -31 -41 -31h-86
q-38 0 -20 31l827 1425q18 31 41 31zM350 854h-51q-74 0 -125 51t-51 119v27q0 31 31 30h61q31 0 31 -30v-15q0 -27 22 -46t56 -19t58 19t24 52t-23 55t-55 21h-47q-31 0 -31 31v45q0 31 31 31h47q34 -1 56 21t22 54t-24 52t-58 20t-57 -19q-22 -19 -21 -46v-15
q0 -31 -31 -30h-61q-31 0 -31 30v27q0 68 51 119t125 51h51q80 0 130 -56q50 -55 50 -127t-69 -135q69 -63 69 -134t-50 -127t-130 -56z" />
    <glyph glyph-name="questiondown" unicode="&#xbf;" horiz-adv-x="1040" 
d="M565 -436h-86q-170 0 -289 120q-118 120 -118 302t81 262q69 68 170 108t128 58t33 36t5 50v112q0 31 31 31h123q31 0 31 -31v-133q0 -109 -51 -162t-170 -101t-158 -92t-39 -142t59 -166t164 -68h86q98 0 158 71q59 71 59 177v39q0 31 31 31h125q31 0 31 -31v-39
q2 -190 -117 -311t-287 -121zM684 1047v-162q0 -31 -31 -31h-141q-31 0 -31 31v162q0 31 31 30h141q31 1 31 -30z" />
    <glyph glyph-name="Agrave" unicode="&#xc0;" horiz-adv-x="1232" 
d="M791 575l-170 570l-175 -570h345zM1114 0h-123q-31 0 -39 33l-106 358h-457l-108 -358q-8 -33 -37 -33h-125q-35 0 -23 33l430 1427q10 33 39 33h107q29 0 39 -33l428 -1427q8 -33 -25 -33zM350 2163h142q31 0 43 -37l153 -379q16 -37 -20 -37h-117q-23 0 -43 37
l-178 379q-18 37 20 37z" />
    <glyph glyph-name="Aacute" unicode="&#xc1;" horiz-adv-x="1232" 
d="M791 575l-170 570l-175 -570h345zM1114 0h-123q-31 0 -39 33l-106 358h-457l-108 -358q-8 -33 -37 -33h-125q-35 0 -23 33l430 1427q10 33 39 33h107q29 0 39 -33l428 -1427q8 -33 -25 -33zM680 1710h-127q-37 0 -21 37l154 379q12 37 43 37h152q39 0 20 -37l-178 -379
q-20 -37 -43 -37z" />
    <glyph glyph-name="Acircumflex" unicode="&#xc2;" horiz-adv-x="1232" 
d="M791 575l-170 570l-175 -570h345zM1114 0h-123q-31 0 -39 33l-106 358h-457l-108 -358q-8 -33 -37 -33h-125q-35 0 -23 33l430 1427q10 33 39 33h107q29 0 39 -33l428 -1427q8 -33 -25 -33zM401 1724h-137q-16 0 -21 12t5 27l260 367q23 33 47 33h121q27 0 49 -33
l260 -367q10 -14 5 -26t-21 -13h-138q-20 0 -47 39l-168 238l-167 -238q-28 -39 -48 -39z" />
    <glyph glyph-name="Atilde" unicode="&#xc3;" horiz-adv-x="1232" 
d="M791 575l-170 570l-175 -570h345zM1114 0h-123q-31 0 -39 33l-106 358h-457l-108 -358q-8 -33 -37 -33h-125q-35 0 -23 33l430 1427q10 33 39 33h107q29 0 39 -33l428 -1427q8 -33 -25 -33zM285 1868l-49 96q-12 23 20 45q104 76 192 82t193 -59q96 -54 138 -52t132 64
q20 12 35 -16l49 -97q14 -23 -20 -45q-103 -74 -191 -80t-189 54t-143 56q-42 -3 -133 -65q-18 -12 -34 17z" />
    <glyph glyph-name="Adieresis" unicode="&#xc4;" horiz-adv-x="1232" 
d="M791 575l-170 570l-175 -570h345zM1114 0h-123q-31 0 -39 33l-106 358h-457l-108 -358q-8 -33 -37 -33h-125q-35 0 -23 33l430 1427q10 33 39 33h107q29 0 39 -33l428 -1427q8 -33 -25 -33zM975 1767h-174q-31 0 -31 31v182q0 31 31 31h174q31 0 31 -31v-182
q0 -31 -31 -31zM432 1767h-174q-31 0 -31 31v182q0 31 31 31h174q31 0 31 -31v-182q0 -31 -31 -31z" />
    <glyph glyph-name="Aring" unicode="&#xc5;" horiz-adv-x="1232" 
d="M791 575l-170 570l-175 -570h345zM1114 0h-123q-31 0 -39 33l-106 358h-457l-108 -358q-8 -33 -37 -33h-125q-35 0 -23 33l430 1427q10 33 39 33h107q29 0 39 -33l428 -1427q8 -33 -25 -33zM539 1970v-10q0 -74 71 -74h13q33 0 53 20t20 54v10q0 33 -20 52t-53 20h-13
q-33 0 -52 -20t-19 -52zM629 1763h-27q-82 1 -135 53t-53 136v22q0 82 53 136t135 55h27q82 -1 135 -55t53 -136v-22q0 -84 -52 -136t-136 -53z" />
    <glyph glyph-name="AE" unicode="&#xc6;" horiz-adv-x="1837" 
d="M838 575v555l-306 -555h306zM1022 1303v-461h534q31 0 31 -31v-123q0 -31 -31 -31h-534v-473h668q31 0 30 -30v-123q0 -31 -30 -31h-822q-31 0 -30 31v360h-408l-199 -360q-14 -31 -41 -31h-135q-35 0 -20 31l786 1425q18 31 41 31h828q31 0 30 -31v-123q0 -31 -30 -30
h-668z" />
    <glyph glyph-name="Ccedilla" unicode="&#xc7;" horiz-adv-x="1159" 
d="M901 -258q0 -156 -190 -156h-125q-84 0 -131 47.5t-49 124.5q0 20 18 21h117q20 0 20 -17q0 -49 74 -49h35q45 0 60 5.5t15 29.5q1 24 -25 30q-37 10 -131.5 20t-114 28t-27 56t33.5 95q-164 23 -271.5 159t-107.5 329v557q0 209 126 348t309 139h94q176 0 300 -137
t126 -336q0 -31 -31 -30h-123q-33 0 -33 30q0 129 -66.5 209t-172.5 80h-94q-113 0 -181.5 -82t-68.5 -221v-557q0 -141 68.5 -224t181.5 -83h94q106 0 173.5 82t65.5 211q0 30 33 30h123q31 0 31 -30q-2 -195 -121 -332t-289 -146q-18 -37 9 -46q15 -5 24 -5l27 -4
q104 -12 149 -46t45 -130z" />
    <glyph glyph-name="Egrave" unicode="&#xc8;" horiz-adv-x="1134" 
d="M317 842h535q31 0 31 -31v-123q0 -31 -31 -31h-535v-473h668q31 0 31 -30v-123q0 -31 -31 -31h-821q-31 0 -31 31v1425q0 31 31 31h821q31 0 31 -31v-123q0 -31 -31 -30h-668v-461zM643 1710h-117q-23 0 -43 37l-178 379q-18 37 21 37h141q31 0 43 -37l154 -379
q16 -37 -21 -37z" />
    <glyph glyph-name="Eacute" unicode="&#xc9;" horiz-adv-x="1134" 
d="M317 842h535q31 0 31 -31v-123q0 -31 -31 -31h-535v-473h668q31 0 31 -30v-123q0 -31 -31 -31h-821q-31 0 -31 31v1425q0 31 31 31h821q31 0 31 -31v-123q0 -31 -31 -30h-668v-461zM705 2163h151q39 0 21 -37l-179 -379q-20 -37 -43 -37h-127q-36 0 -20 37l154 379
q12 37 43 37z" />
    <glyph glyph-name="Ecircumflex" unicode="&#xca;" horiz-adv-x="1134" 
d="M317 842h535q31 0 31 -31v-123q0 -31 -31 -31h-535v-473h668q31 0 31 -30v-123q0 -31 -31 -31h-821q-31 0 -31 31v1425q0 31 31 31h821q31 0 31 -31v-123q0 -31 -31 -30h-668v-461zM532 2163h121q27 0 49 -33l261 -367q10 -14 5 -26.5t-22 -12.5h-137q-20 0 -47 39
l-168 238l-168 -238q-27 -39 -47 -39h-137q-16 0 -21.5 12.5t4.5 26.5l260 367q23 33 47 33z" />
    <glyph glyph-name="Edieresis" unicode="&#xcb;" horiz-adv-x="1134" 
d="M317 842h535q31 0 31 -31v-123q0 -31 -31 -31h-535v-473h668q31 0 31 -30v-123q0 -31 -31 -31h-821q-31 0 -31 31v1425q0 31 31 31h821q31 0 31 -31v-123q0 -31 -31 -30h-668v-461zM745 1798v182q0 31 31 31h174q31 0 31 -31v-182q0 -31 -31 -31h-174q-31 0 -31 31z
M203 1798v182q0 31 30 31h175q31 0 30 -31v-182q0 -31 -30 -31h-175q-30 0 -30 31z" />
    <glyph glyph-name="Igrave" unicode="&#xcc;" horiz-adv-x="524" 
d="M170 31v1425q0 31 31 31h125q31 0 30 -31v-1425q0 -31 -30 -31h-125q-31 0 -31 31zM313 1710h-116q-23 0 -43 37l-181 379q-18 37 21 37h143q31 0 43 -37l154 -379q16 -37 -21 -37z" />
    <glyph glyph-name="Iacute" unicode="&#xcd;" horiz-adv-x="524" 
d="M170 31v1425q0 31 31 31h125q31 0 30 -31v-1425q0 -31 -30 -31h-125q-31 0 -31 31zM375 2163h151q39 0 21 -37l-178 -379q-20 -37 -43 -37h-127q-37 0 -21 37l154 379q12 37 43 37z" />
    <glyph glyph-name="Icircumflex" unicode="&#xce;" horiz-adv-x="524" 
d="M170 31v1425q0 31 31 31h125q31 0 30 -31v-1425q0 -31 -30 -31h-125q-31 0 -31 31zM201 2163h121q27 0 49 -33l260 -367q10 -14 5 -26t-22 -13h-137q-20 0 -47 39l-168 238l-168 -238q-27 -39 -47 -39h-139q-14 0 -20 12t3 27l263 367q23 33 47 33z" />
    <glyph glyph-name="Idieresis" unicode="&#xcf;" horiz-adv-x="524" 
d="M170 31v1425q0 31 31 31h125q31 0 30 -31v-1425q0 -31 -30 -31h-125q-31 0 -31 31zM416 1798v182q0 31 30 31h175q31 0 30 -31v-182q0 -31 -30 -31h-175q-30 0 -30 31zM-127 1798v182q0 31 31 31h174q31 0 31 -31v-182q0 -31 -31 -31h-174q-31 0 -31 31z" />
    <glyph glyph-name="Eth" unicode="&#xd0;" horiz-adv-x="1314" 
d="M1018 481v525q0 139 -71 218t-181 79h-326v-449h260q31 0 31 -31v-123q0 -31 -31 -30h-260v-486h326q112 0 182 79t70 218zM287 1487h489q168 1 297 -143t129 -338v-525q0 -195 -129 -338t-297 -143h-489q-31 0 -31 31v639h-96q-31 0 -31 30v123q0 31 31 31h96v602
q0 31 31 31z" />
    <glyph glyph-name="Ntilde" unicode="&#xd1;" horiz-adv-x="1298" 
d="M1006 1487h122q31 0 31 -31v-1425q0 -31 -31 -31h-174q-25 0 -36 23l-601 1146v-1138q0 -31 -30 -31h-123q-31 0 -31 31v1425q0 31 31 31h174q27 0 37 -23l600 -1147v1139q0 31 31 31zM979 2028l49 -97q14 -23 -20 -45q-104 -74 -191.5 -80t-188.5 54t-143.5 56.5
t-132.5 -65.5q-18 -12 -35 17l-49 96q-12 23 21 45q104 76 192 82t193 -59q96 -55 138 -52.5t132 64.5q21 13 35 -16z" />
    <glyph glyph-name="Ograve" unicode="&#xd2;" horiz-adv-x="1206" 
d="M553 164h100q109 0 177 85t69 212v567q0 127 -69 212t-177 85h-100q-109 0 -177 -85t-69 -212v-567q1 -127 69 -212t177 -85zM553 1509h100q176 0 303 -143t127 -346v-551q0 -203 -127 -346t-303 -143h-100q-176 0 -303 143t-127 346v551q0 203 127 346t303 143z
M655 1710h-116q-23 0 -43 37l-179 379q-18 37 21 37h141q31 0 43 -37l154 -379q16 -37 -21 -37z" />
    <glyph glyph-name="Oacute" unicode="&#xd3;" horiz-adv-x="1206" 
d="M553 164h100q109 0 177 85t69 212v567q0 127 -69 212t-177 85h-100q-109 0 -177 -85t-69 -212v-567q1 -127 69 -212t177 -85zM553 1509h100q176 0 303 -143t127 -346v-551q0 -203 -127 -346t-303 -143h-100q-176 0 -303 143t-127 346v551q0 203 127 346t303 143z
M717 2163h151q39 0 21 -37l-178 -379q-20 -37 -43 -37h-127q-37 0 -21 37l154 379q12 37 43 37z" />
    <glyph glyph-name="Ocircumflex" unicode="&#xd4;" horiz-adv-x="1206" 
d="M553 164h100q109 0 177 85t69 212v567q0 127 -69 212t-177 85h-100q-109 0 -177 -85t-69 -212v-567q1 -127 69 -212t177 -85zM553 1509h100q176 0 303 -143t127 -346v-551q0 -203 -127 -346t-303 -143h-100q-176 0 -303 143t-127 346v551q0 203 127 346t303 143z
M543 2163h121q27 0 49 -33l260 -367q10 -14 5 -26t-22 -13h-137q-20 0 -47 39l-168 238l-168 -238q-27 -39 -47 -39h-137q-16 0 -21 12t5 27l260 367q23 33 47 33z" />
    <glyph glyph-name="Otilde" unicode="&#xd5;" horiz-adv-x="1206" 
d="M553 164h100q109 0 177 85t69 212v567q0 127 -69 212t-177 85h-100q-109 0 -177 -85t-69 -212v-567q1 -127 69 -212t177 -85zM553 1509h100q176 0 303 -143t127 -346v-551q0 -203 -127 -346t-303 -143h-100q-176 0 -303 143t-127 346v551q0 203 127 346t303 143z
M934 2028l49 -97q14 -23 -20 -45q-103 -74 -191 -80t-189 54t-143 56q-42 -3 -133 -65q-18 -12 -35 17l-49 96q-12 23 21 45q104 76 192 82t193 -59q96 -54 138 -52t132 64q21 13 35 -16z" />
    <glyph glyph-name="Odieresis" unicode="&#xd6;" horiz-adv-x="1206" 
d="M553 164h100q109 0 177 85t69 212v567q0 127 -69 212t-177 85h-100q-109 0 -177 -85t-69 -212v-567q1 -127 69 -212t177 -85zM553 1509h100q176 0 303 -143t127 -346v-551q0 -203 -127 -346t-303 -143h-100q-176 0 -303 143t-127 346v551q0 203 127 346t303 143z
M758 1798v182q0 31 30 31h175q31 0 30 -31v-182q0 -31 -30 -31h-175q-30 0 -30 31zM215 1798v182q0 31 31 31h174q31 0 31 -31v-182q0 -31 -31 -31h-174q-31 0 -31 31z" />
    <glyph glyph-name="multiply" unicode="&#xd7;" horiz-adv-x="899" 
d="M580 664l206 -207q20 -25 0 -45l-86 -86q-20 -23 -43 0l-206 206l-201 -198q-20 -23 -43 0l-86 86q-25 23 0 43l201 201l-207 204q-20 20 0 43l86 88q20 20 43 0l207 -206l198 198q20 20 41 -2l88 -86q20 -23 0 -43z" />
    <glyph glyph-name="Oslash" unicode="&#xd8;" horiz-adv-x="1206" 
d="M899 461v567q0 74 -25 131l-423 -971q45 -25 102 -24h100q109 0 177 85t69 212zM307 1028v-567q0 -59 17 -115l419 961q-39 18 -90 18h-100q-109 0 -177 -85t-69 -212zM1083 469q0 -203 -127 -346t-303 -143h-100q-94 0 -174 43q-16 -23 -37 -23h-135q-35 0 -21 31
l47 110q-111 141 -110 328v551q0 203 127 346t303 143h100q88 0 164 -36q12 14 33 14h135q33 0 21 -31l-43 -98q121 -141 120 -338v-551z" />
    <glyph glyph-name="Ugrave" unicode="&#xd9;" horiz-adv-x="1181" 
d="M911 1487h123q31 0 31 -31v-1010q0 -200 -125 -330t-322 -130h-53q-197 0 -321 131t-125 329v1010q0 31 31 31h122q31 0 31 -31v-989q0 -129 67 -213t195 -84h53q129 0 196 84t67 213v989q-1 31 30 31zM643 1710h-117q-23 0 -43 37l-178 379q-18 37 21 37h141
q31 0 43 -37l154 -379q16 -37 -21 -37z" />
    <glyph glyph-name="Uacute" unicode="&#xda;" horiz-adv-x="1181" 
d="M911 1487h123q31 0 31 -31v-1010q0 -200 -125 -330t-322 -130h-53q-197 0 -321 131t-125 329v1010q0 31 31 31h122q31 0 31 -31v-989q0 -129 67 -213t195 -84h53q129 0 196 84t67 213v989q-1 31 30 31zM705 2163h151q39 0 21 -37l-179 -379q-20 -37 -43 -37h-127
q-36 0 -20 37l154 379q12 37 43 37z" />
    <glyph glyph-name="Ucircumflex" unicode="&#xdb;" horiz-adv-x="1181" 
d="M911 1487h123q31 0 31 -31v-1010q0 -200 -125 -330t-322 -130h-53q-197 0 -321 131t-125 329v1010q0 31 31 31h122q31 0 31 -31v-989q0 -129 67 -213t195 -84h53q129 0 196 84t67 213v989q-1 31 30 31zM530 2163h121q27 0 49 -33l261 -367q10 -14 5 -26t-22 -13h-137
q-20 0 -47 39l-168 238l-168 -238q-27 -39 -47 -39h-137q-16 0 -22 12t5 27l260 367q23 33 47 33z" />
    <glyph glyph-name="Udieresis" unicode="&#xdc;" horiz-adv-x="1181" 
d="M911 1487h123q31 0 31 -31v-1010q0 -200 -125 -330t-322 -130h-53q-197 0 -321 131t-125 329v1010q0 31 31 31h122q31 0 31 -31v-989q0 -129 67 -213t195 -84h53q129 0 196 84t67 213v989q-1 31 30 31zM745 1798v182q0 31 31 31h174q31 0 31 -31v-182q0 -31 -31 -31h-174
q-31 0 -31 31zM203 1798v182q0 31 30 31h175q31 0 30 -31v-182q0 -31 -30 -31h-175q-30 0 -30 31z" />
    <glyph glyph-name="Yacute" unicode="&#xdd;" horiz-adv-x="1159" 
d="M926 1487h141q39 0 20 -31l-417 -803v-622q0 -31 -31 -31h-123q-31 0 -31 31v622l-413 803q-14 31 20 31h141q25 0 41 -31l304 -604l307 604q16 31 41 31zM688 2163h152q39 0 20 -37l-178 -379q-20 -37 -43 -37h-127q-36 0 -20 37l153 379q12 37 43 37z" />
    <glyph glyph-name="Thorn" unicode="&#xde;" horiz-adv-x="1153" 
d="M317 504h324q111 0 168 56t57 185t-56 185t-169 55h-324v-481zM317 1169h334q184 1 292 -113t108 -311t-109 -311t-291 -115h-334v-288q0 -31 -30 -31h-123q-31 0 -31 31v1425q0 31 31 31h123q31 0 30 -31v-287z" />
    <glyph glyph-name="germandbls" unicode="&#xdf;" horiz-adv-x="1067" 
d="M965 377q0 -165 -128 -271t-309 -106h-43q-31 0 -30 31v123q0 31 30 30h43q111 0 182 50t70 153v86q0 109 -71 171q-72 62 -170 63h-54q-31 0 -30 30v123q0 31 30 31h54q88 0 134 50t46 132v74q0 80 -45 124t-129 44h-70q-164 0 -164 -164l-2 -1120q0 -31 -30 -31h-123
q-31 0 -31 31l-2 1140q0 145 98 237t254 91h70q152 0 255 -95t103 -237v-84q0 -93 -42 -169t-124 -111q227 -98 228 -361v-65z" />
    <glyph glyph-name="agrave" unicode="&#xe0;" horiz-adv-x="976" 
d="M387 182h105q104 2 178 88v144h-283q-55 0 -85 -31t-30 -82t34 -85t81 -34zM852 0h-147q-35 0 -35 49v31q-96 -82 -195 -82h-94q-113 -2 -202 87t-89 214t85 206t216 81h279v32q0 80 -41 123t-107 43h-100q-111 0 -174 -63q-23 -20 -47 4l-68 82q-20 20 -2 41
q106 119 307 119h97q127 -1 223 -101t96 -256v-561q0 -15 4 -32t-6 -17zM360 1638q31 0 43 -36l154 -379q16 -37 -20 -37h-117q-23 0 -43 37l-178 379q-18 37 20 36h141z" />
    <glyph glyph-name="aacute" unicode="&#xe1;" horiz-adv-x="976" 
d="M387 182h105q104 2 178 88v144h-283q-55 0 -85 -31t-30 -82t34 -85t81 -34zM852 0h-147q-35 0 -35 49v31q-96 -82 -195 -82h-94q-113 -2 -202 87t-89 214t85 206t216 81h279v32q0 80 -41 123t-107 43h-100q-111 0 -174 -63q-23 -20 -47 4l-68 82q-20 20 -2 41
q106 119 307 119h97q127 -1 223 -101t96 -256v-561q0 -15 4 -32t-6 -17zM549 1186h-127q-37 0 -21 37l154 379q12 37 43 36h152q39 0 20 -36l-178 -379q-20 -37 -43 -37z" />
    <glyph glyph-name="acircumflex" unicode="&#xe2;" horiz-adv-x="976" 
d="M387 182h105q104 2 178 88v144h-283q-55 0 -85 -31t-30 -82t34 -85t81 -34zM854 610v-561q0 -13 4 -31t-6 -18h-147q-35 0 -35 49v31q-96 -82 -195 -82h-94q-113 -2 -202 87t-89 214t85 206t216 81h279v32q0 80 -41 123t-107 43h-100q-111 0 -174 -63q-23 -20 -47 4
l-68 82q-20 20 -2 41q106 119 307 119h97q127 -1 223 -101t96 -256zM272 1200h-137q-16 0 -21 12t5 27l260 367q23 33 47 32h121q27 0 49 -32l260 -367q10 -15 5 -27t-21 -12h-138q-20 0 -47 39l-168 238l-168 -238q-27 -39 -47 -39z" />
    <glyph glyph-name="atilde" unicode="&#xe3;" horiz-adv-x="976" 
d="M387 182h105q104 2 178 88v144h-283q-55 0 -85 -31t-30 -82t34 -85t81 -34zM854 610v-561q0 -13 4 -31t-6 -18h-147q-35 0 -35 49v31q-96 -82 -195 -82h-94q-113 -2 -202 87t-89 214t85 206t216 81h279v32q0 80 -41 123t-107 43h-100q-111 0 -174 -63q-23 -20 -47 4
l-68 82q-20 20 -2 41q106 119 307 119h97q127 -1 223 -101t96 -256zM154 1343l-50 97q-12 23 21 45q104 76 192 82t193 -60q96 -55 138 -52t132 65q20 12 35 -17l49 -96q14 -23 -20 -45q-104 -74 -192 -80t-188 53q-101 59 -143 57t-133 -65q-18 -13 -34 16z" />
    <glyph glyph-name="adieresis" unicode="&#xe4;" horiz-adv-x="976" 
d="M387 182h105q104 2 178 88v144h-283q-55 0 -85 -31t-30 -82t34 -85t81 -34zM854 610v-561q0 -13 4 -31t-6 -18h-147q-35 0 -35 49v31q-96 -82 -195 -82h-94q-113 -2 -202 87t-89 214t85 206t216 81h279v32q0 80 -41 123t-107 43h-100q-111 0 -174 -63q-23 -20 -47 4
l-68 82q-20 20 -2 41q106 119 307 119h97q127 -1 223 -101t96 -256zM670 1487h174q31 0 30 -31v-182q0 -31 -30 -31h-174q-31 0 -31 31v182q0 31 31 31zM301 1243h-174q-31 0 -31 31v182q0 31 31 31h174q31 0 31 -31v-182q0 -31 -31 -31z" />
    <glyph glyph-name="aring" unicode="&#xe5;" horiz-adv-x="976" 
d="M387 182h105q104 2 178 88v144h-283q-55 0 -85 -31t-30 -82t34 -85t81 -34zM852 0h-147q-35 0 -35 49v31q-96 -82 -195 -82h-94q-113 -2 -202 87t-89 214t85 206t216 81h279v32q0 80 -41 123t-107 43h-100q-111 0 -174 -63q-23 -20 -47 4l-68 82q-20 20 -2 41
q106 119 307 119h97q127 -1 223 -101t96 -256v-561q0 -15 4 -32t-6 -17zM408 1446v-10q0 -74 71 -74h13q33 0 53 19t20 55v10q0 33 -20 52t-53 20h-13q-33 0 -52 -20t-19 -52zM498 1239h-27q-82 0 -135 52t-53 136v23q0 82 53 136t135 54h27q82 0 135 -54t53 -136v-23
q0 -84 -52 -136t-136 -52z" />
    <glyph glyph-name="ae" unicode="&#xe6;" horiz-adv-x="1558" 
d="M659 401h-278q-53 0 -82 -27.5t-29 -77.5t33 -82t78 -32h84q119 2 194 92v127zM850 586h422v24q0 74 -53.5 124t-112.5 50h-78q-70 0 -124 -52t-54 -122v-24zM850 426v-61q0 -76 54 -129.5t126 -53.5h82q88 0 180 111q23 27 47 4l88 -80q25 -18 7 -43
q-143 -176 -326 -176h-78q-160 0 -270 125q-125 -125 -275 -125h-108q-113 -2 -202 85t-89 210t86 202.5t215 79.5h272v35q0 80 -40.5 126t-108.5 46h-78q-115 0 -186 -61q-25 -18 -43 2l-70 84q-18 23 -2 41q115 119 322 119h73q141 0 240 -119q111 121 264 121h78
q129 0 238.5 -107.5t109.5 -261.5v-113q0 -61 -61 -61h-545z" />
    <glyph glyph-name="ccedilla" unicode="&#xe7;" horiz-adv-x="985" 
d="M809 -258q0 -156 -191 -156h-124q-84 0 -131.5 47.5t-49.5 124.5q0 20 19 21h117q20 0 20 -17q0 -49 74 -49h35q45 0 60 5.5t15 29.5q1 24 -25 30q-37 10 -131 20t-117.5 29t-22.5 64.5t49 106.5l6 6q-125 25 -212 128.5t-87 232.5v233q0 147 109.5 259t254.5 112h74
q123 0 231.5 -92.5t110.5 -200.5q0 -35 -29 -35h-125q-31 0 -34 29q-4 47 -50.5 80.5t-103.5 33.5h-76q-72 0 -125 -54t-53 -132v-233q0 -76 53 -129.5t125 -53.5h82q88 0 180 111q22 27 47 4l88 -80q25 -18 7 -43q-141 -170 -310 -176q-18 -27 -23 -42t10.5 -23.5
t88.5 -17.5t118.5 -43t45.5 -130z" />
    <glyph glyph-name="egrave" unicode="&#xe8;" horiz-adv-x="1011" 
d="M725 586v24q0 74 -53.5 124t-112.5 50h-78q-70 0 -124 -52t-54 -122v-24h422zM483 969h78q129 0 238.5 -107.5t109.5 -261.5v-113q0 -61 -61 -61h-545v-61q0 -78 53.5 -130.5t124.5 -52.5h84q84 0 180 111q23 25 46 4l90 -80q23 -20 6 -43q-143 -176 -326 -176h-78
q-145 0 -254.5 109.5t-109.5 257.5v233q0 147 109.5 259t254.5 112zM557 1186h-117q-23 0 -43 37l-178 379q-18 37 21 36h141q31 1 43 -36l154 -379q16 -37 -21 -37z" />
    <glyph glyph-name="eacute" unicode="&#xe9;" horiz-adv-x="1011" 
d="M725 586v24q0 74 -53.5 124t-112.5 50h-78q-70 0 -124 -52t-54 -122v-24h422zM483 969h78q129 0 238.5 -107.5t109.5 -261.5v-113q0 -61 -61 -61h-545v-61q0 -78 53.5 -130.5t124.5 -52.5h84q84 0 180 111q23 25 46 4l90 -80q23 -20 6 -43q-143 -176 -326 -176h-78
q-145 0 -254.5 109.5t-109.5 257.5v233q0 147 109.5 259t254.5 112zM770 1638q39 0 21 -36l-179 -379q-20 -37 -43 -37h-127q-36 0 -20 37l153 379q12 37 43 36h152z" />
    <glyph glyph-name="ecircumflex" unicode="&#xea;" horiz-adv-x="1011" 
d="M725 586v24q0 74 -53.5 124t-112.5 50h-78q-70 0 -124 -52t-54 -122v-24h422zM483 969h78q129 0 238.5 -107.5t109.5 -261.5v-113q0 -61 -61 -61h-545v-61q0 -78 53.5 -130.5t124.5 -52.5h84q84 0 180 111q23 25 46 4l90 -80q23 -20 6 -43q-143 -176 -326 -176h-78
q-145 0 -254.5 109.5t-109.5 257.5v233q0 147 109.5 259t254.5 112zM565 1638q27 0 49 -32l260 -367q10 -14 5 -26.5t-21 -12.5h-137q-20 0 -47 39l-168 238l-168 -238q-27 -39 -47 -39h-137q-16 0 -21.5 12.5t4.5 26.5l260 367q23 33 47 32h121z" />
    <glyph glyph-name="edieresis" unicode="&#xeb;" horiz-adv-x="1011" 
d="M725 586v24q0 74 -53.5 124t-112.5 50h-78q-70 0 -124 -52t-54 -122v-24h422zM483 969h78q129 0 238.5 -107.5t109.5 -261.5v-113q0 -61 -61 -61h-545v-61q0 -78 53.5 -130.5t124.5 -52.5h84q84 0 180 111q23 25 46 4l90 -80q23 -20 6 -43q-143 -176 -326 -176h-78
q-145 0 -254.5 109.5t-109.5 257.5v233q0 147 109.5 259t254.5 112zM657 1274v182q0 31 31 31h174q31 0 31 -31v-182q0 -31 -31 -31h-174q-31 0 -31 31zM115 1274v182q0 31 30 31h174q31 0 31 -31v-182q0 -31 -31 -31h-174q-30 0 -30 31z" />
    <glyph glyph-name="igrave" unicode="&#xec;" horiz-adv-x="512" 
d="M164 31v903q0 31 31 31h122q31 0 31 -31v-903q0 -31 -31 -31h-122q-31 0 -31 31zM307 1186h-117q-23 0 -43 37l-180 379q-18 37 21 36h143q31 1 43 -36l154 -379q16 -37 -21 -37z" />
    <glyph glyph-name="iacute" unicode="&#xed;" horiz-adv-x="512" 
d="M164 31v903q0 31 31 31h122q31 0 31 -31v-903q0 -31 -31 -31h-122q-31 0 -31 31zM520 1638q39 0 21 -36l-179 -379q-20 -37 -43 -37h-126q-37 0 -21 37l154 379q12 37 43 36h151z" />
    <glyph glyph-name="icircumflex" unicode="&#xee;" horiz-adv-x="512" 
d="M164 31v903q0 31 31 31h122q31 0 31 -31v-903q0 -31 -31 -31h-122q-31 0 -31 31zM315 1638q27 0 50 -32l260 -367q10 -15 5 -27t-22 -12h-137q-20 0 -47 39l-168 238l-168 -238q-27 -39 -47 -39h-139q-14 0 -21 12q-6 13 4 27l262 367q23 33 48 32h120z" />
    <glyph glyph-name="idieresis" unicode="&#xef;" horiz-adv-x="512" 
d="M164 31v903q0 31 31 31h122q31 0 31 -31v-903q0 -31 -31 -31h-122q-31 0 -31 31zM410 1274v182q0 31 30 31h174q31 0 31 -31v-182q0 -31 -31 -31h-174q-30 0 -30 31zM-133 1274v182q0 31 31 31h174q31 0 30 -31v-182q0 -31 -30 -31h-174q-31 0 -31 31z" />
    <glyph glyph-name="eth" unicode="&#xf0;" horiz-adv-x="1112" 
d="M291 418q0 -254 215 -254h74q94 0 156 52t77 216q16 164 -47 227t-223 65t-206 -68q-46 -71 -46 -238zM836 1487h147q19 0 25 -10t-7 -27l-98 -127q63 -102 76 -227q39 -352 8 -682q-17 -203 -123 -319t-264 -115h-104q-172 0 -281 114t-113 348t98 355t313 121
q212 0 308 -78q6 80 -30 286l-9 39l-37 -49q-25 -35 -47 -35h-147q-19 1 -25 11t4 26l150 195q-49 16 -123 16h-49q-31 0 -31 31v123q0 31 31 30h49q129 0 227 -65l4 4q30 35 48 35z" />
    <glyph glyph-name="ntilde" unicode="&#xf1;" horiz-adv-x="1046" 
d="M508 963h88q150 0 239 -107.5t89 -259.5v-565q0 -31 -31 -31h-123q-31 0 -31 31v565q0 74 -47 128t-117 54h-90q-61 0 -111 -45t-52 -100v-602q0 -31 -31 -31h-123q-31 0 -31 31v901q0 31 31 31h123q31 0 31 -31v-49q80 80 186 80zM858 1503l49 -96q14 -23 -20 -45
q-104 -74 -191.5 -80t-188.5 53t-143 56.5t-133 -64.5q-18 -12 -34 16l-50 97q-12 23 21 45q104 76 192.5 82t192.5 -60q96 -55 138 -52t132 65q21 12 35 -17z" />
    <glyph glyph-name="ograve" unicode="&#xf2;" horiz-adv-x="1038" 
d="M741 375v213q0 80 -49 138t-131 58h-84q-82 0 -131 -57t-49 -139v-213q0 -80 49 -136t131 -57h84q82 0 131 56t49 137zM479 969h80q151 0 259 -113t108 -268v-213q0 -153 -106 -265t-261 -112h-80q-154 0 -260 112t-106 265v213q0 156 107 268t259 113zM571 1186h-116
q-23 0 -43 37l-179 379q-18 37 21 36h141q31 1 43 -36l154 -379q16 -37 -21 -37z" />
    <glyph glyph-name="oacute" unicode="&#xf3;" horiz-adv-x="1038" 
d="M741 375v213q0 80 -49 138t-131 58h-84q-82 0 -131 -57t-49 -139v-213q0 -80 49 -136t131 -57h84q82 0 131 56t49 137zM479 969h80q151 0 259 -113t108 -268v-213q0 -153 -106 -265t-261 -112h-80q-154 0 -260 112t-106 265v213q0 156 107 268t259 113zM784 1638
q39 0 21 -36l-178 -379q-20 -37 -43 -37h-127q-37 0 -21 37l154 379q12 37 43 36h151z" />
    <glyph glyph-name="ocircumflex" unicode="&#xf4;" horiz-adv-x="1038" 
d="M741 375v213q0 80 -49 138t-131 58h-84q-82 0 -131 -57t-49 -139v-213q0 -80 49 -136t131 -57h84q82 0 131 56t49 137zM479 969h80q151 0 259 -113t108 -268v-213q0 -153 -106 -265t-261 -112h-80q-154 0 -260 112t-106 265v213q0 156 107 268t259 113zM582 1638
q27 0 49 -32l260 -367q10 -15 5 -27t-22 -12h-137q-20 0 -47 39l-168 238l-168 -238q-27 -39 -47 -39h-137q-16 0 -22 12q-4 13 6 27l260 367q23 33 47 32h121z" />
    <glyph glyph-name="otilde" unicode="&#xf5;" horiz-adv-x="1038" 
d="M741 375v213q0 80 -49 138t-131 58h-84q-82 0 -131 -57t-49 -139v-213q0 -80 49 -136t131 -57h84q82 0 131 56t49 137zM479 969h80q151 0 259 -113t108 -268v-213q0 -153 -106 -265t-261 -112h-80q-154 0 -260 112t-106 265v213q0 156 107 268t259 113zM852 1503l49 -96
q14 -23 -20 -45q-103 -74 -191 -80t-189 53t-143 57t-133 -65q-18 -12 -35 16l-49 97q-12 23 21 45q104 76 192 82t193 -60q96 -55 138 -52t132 65q21 12 35 -17z" />
    <glyph glyph-name="odieresis" unicode="&#xf6;" horiz-adv-x="1038" 
d="M741 375v213q0 80 -49 138t-131 58h-84q-82 0 -131 -57t-49 -139v-213q0 -80 49 -136t131 -57h84q82 0 131 56t49 137zM479 969h80q151 0 259 -113t108 -268v-213q0 -153 -106 -265t-261 -112h-80q-154 0 -260 112t-106 265v213q0 156 107 268t259 113zM674 1274v182
q0 31 31 31h174q31 0 30 -31v-182q0 -31 -30 -31h-174q-31 0 -31 31zM131 1274v182q0 31 31 31h174q31 0 31 -31v-182q0 -31 -31 -31h-174q-31 0 -31 31z" />
    <glyph glyph-name="divide" unicode="&#xf7;" horiz-adv-x="1052" 
d="M420 238v161q0 31 31 31h153q31 0 31 -31v-161q0 -31 -31 -31h-153q-31 0 -31 31zM154 754h747q29 0 29 -31v-123q0 -31 -31 -31h-745q-31 0 -31 31v123q0 31 31 31zM420 924v161q0 31 31 31h153q31 0 31 -31v-161q0 -31 -31 -31h-153q-31 0 -31 31z" />
    <glyph glyph-name="oslash" unicode="&#xf8;" horiz-adv-x="1038" 
d="M741 375v213q0 61 -30 110l-226 -516h76q82 0 131 56t49 137zM297 588v-213q0 -61 29 -109l227 518h-76q-82 0 -131 -57t-49 -139zM926 588v-213q0 -153 -106 -265t-261 -112h-80q-45 0 -78 8q-8 -6 -22 -6h-135q-33 0 -21 31l23 53q-133 113 -133 291v213
q-1 156 107 268t259 113h80q27 0 80 -8q12 4 20 4h136q32 0 20 -31l-22 -53q133 -113 133 -293z" />
    <glyph glyph-name="ugrave" unicode="&#xf9;" 
d="M920 932v-901q0 -31 -31 -31h-123q-31 0 -31 31v47q-84 -80 -186 -80h-84q-152 0 -242 106t-90 261v567q0 31 31 31h123q31 0 30 -31v-567q-1 -76 47 -128t121 -53h86q61 0 112 45q50 45 52 101v602q0 31 31 31h123q31 0 31 -31zM582 1186h-117q-23 0 -43 37l-178 379
q-18 37 20 36h142q31 1 43 -36l153 -379q16 -37 -20 -37z" />
    <glyph glyph-name="uacute" unicode="&#xfa;" 
d="M920 932v-901q0 -31 -31 -31h-123q-31 0 -31 31v47q-84 -80 -186 -80h-84q-152 0 -242 106t-90 261v567q0 31 31 31h123q31 0 30 -31v-567q-1 -76 47 -128t121 -53h86q61 0 112 45q50 45 52 101v602q0 31 31 31h123q31 0 31 -31zM795 1638q39 0 20 -36l-178 -379
q-20 -37 -43 -37h-127q-37 0 -21 37l154 379q12 37 43 36h152z" />
    <glyph glyph-name="ucircumflex" unicode="&#xfb;" 
d="M920 932v-901q0 -31 -31 -31h-123q-31 0 -31 31v47q-84 -80 -186 -80h-84q-152 0 -242 106t-90 261v567q0 31 31 31h123q31 0 30 -31v-567q-1 -76 47 -128t121 -53h86q61 0 112 45q50 45 52 101v602q0 31 31 31h123q31 0 31 -31zM592 1638q27 0 49 -32l260 -367
q10 -15 5 -27t-21 -12h-137q-20 0 -48 39l-168 238l-167 -238q-27 -39 -48 -39h-137q-16 0 -21 12t5 27l260 367q23 33 47 32h121z" />
    <glyph glyph-name="udieresis" unicode="&#xfc;" 
d="M920 932v-901q0 -31 -31 -31h-123q-31 0 -31 31v47q-84 -80 -186 -80h-84q-152 0 -242 106t-90 261v567q0 31 31 31h123q31 0 30 -31v-567q-1 -76 47 -128t121 -53h86q61 0 112 45q50 45 52 101v602q0 31 31 31h123q31 0 31 -31zM684 1274v182q0 31 31 31h174
q31 0 31 -31v-182q0 -31 -31 -31h-174q-31 0 -31 31zM141 1274v182q0 31 31 31h174q31 0 31 -31v-182q0 -31 -31 -31h-174q-31 0 -31 31z" />
    <glyph glyph-name="yacute" unicode="&#xfd;" 
d="M834 963h135q33 0 18 -37l-545 -1301q-14 -35 -45 -35h-135q-35 0 -20 37l190 451l-356 848q-14 37 18 37h137q29 0 43 -35l258 -611l256 611q15 35 46 35zM596 1186h-127q-37 0 -20 37l153 379q12 37 43 36h152q39 0 20 -36l-178 -379q-20 -37 -43 -37z" />
    <glyph glyph-name="thorn" unicode="&#xfe;" horiz-adv-x="1038" 
d="M731 346v250q0 82 -40 132t-120 50h-82q-67 0 -113 -43t-48 -104v-363q57 -84 161 -84h82q74 0 117 45t43 117zM489 963h82q150 0 247 -109t97 -258v-250q0 -142 -102 -244t-242 -102h-82q-80 0 -161 43v-422q0 -31 -31 -31h-123q-31 0 -31 31v1835q0 31 31 31h123
q31 0 31 -31v-536q81 43 161 43z" />
    <glyph glyph-name="ydieresis" unicode="&#xff;" 
d="M834 963h135q33 0 18 -37l-545 -1301q-14 -35 -45 -35h-135q-35 0 -20 37l190 451l-356 848q-14 37 18 37h137q29 0 43 -35l258 -611l256 611q15 35 46 35zM891 1243h-174q-31 0 -31 31v182q0 31 31 31h174q31 0 31 -31v-182q0 -31 -31 -31zM348 1243h-174q-31 0 -31 31
v182q0 31 31 31h174q31 0 31 -31v-182q0 -31 -31 -31z" />
    <glyph glyph-name="Amacron" unicode="&#x100;" horiz-adv-x="1232" 
d="M791 575l-170 570l-175 -570h345zM1114 0h-123q-31 0 -39 33l-106 358h-457l-108 -358q-8 -33 -37 -33h-125q-35 0 -23 33l430 1427q10 33 39 33h107q29 0 39 -33l428 -1427q8 -33 -25 -33zM948 1827h-663q-31 0 -31 31v122q0 31 31 31h663q31 0 31 -31v-122
q0 -31 -31 -31z" />
    <glyph glyph-name="amacron" unicode="&#x101;" horiz-adv-x="976" 
d="M387 182h105q104 2 178 88v144h-283q-55 0 -85 -31t-30 -82t34 -85t81 -34zM852 0h-147q-35 0 -35 49v31q-96 -82 -195 -82h-94q-113 -2 -202 87t-89 214t85 206t216 81h279v32q0 80 -41 123t-107 43h-100q-111 0 -174 -63q-23 -20 -47 4l-68 82q-20 20 -2 41
q106 119 307 119h97q127 -1 223 -101t96 -256v-561q0 -15 4 -32t-6 -17zM817 1303h-663q-31 0 -31 30v123q0 31 31 31h663q31 0 31 -31v-123q0 -30 -31 -30z" />
    <glyph glyph-name="Abreve" unicode="&#x102;" horiz-adv-x="1232" 
d="M791 575l-170 570l-175 -570h345zM1114 0h-123q-31 0 -39 33l-106 358h-457l-108 -358q-8 -33 -37 -33h-125q-35 0 -23 33l430 1427q10 33 39 33h107q29 0 39 -33l428 -1427q8 -33 -25 -33zM666 1817h-101q-135 0 -214 85t-83 230q0 31 31 31h102q31 0 31 -31
q12 -152 143 -152h82q70 0 104 43t38 109q0 31 30 31h103q31 0 31 -31q-4 -145 -83 -230t-214 -85z" />
    <glyph glyph-name="abreve" unicode="&#x103;" horiz-adv-x="976" 
d="M387 182h105q104 2 178 88v144h-283q-55 0 -85 -31t-30 -82t34 -85t81 -34zM852 0h-147q-35 0 -35 49v31q-96 -82 -195 -82h-94q-113 -2 -202 87t-89 214t85 206t216 81h279v32q0 80 -41 123t-107 43h-100q-111 0 -174 -63q-23 -20 -47 4l-68 82q-20 20 -2 41
q106 119 307 119h97q127 -1 223 -101t96 -256v-561q0 -15 4 -32t-6 -17zM535 1292h-101q-135 0 -214 85t-83 231q0 31 31 30h102q31 0 31 -30q12 -152 143 -152h82q70 0 104 43t38 109q0 31 30 30h103q31 0 30 -30q-4 -145 -82 -231q-79 -85 -214 -85z" />
    <glyph glyph-name="Aogonek" unicode="&#x104;" horiz-adv-x="1232" 
d="M791 575l-170 570l-175 -570h345zM866 -385q-192 -1 -192 143q0 68 10 100q15 48 91 68q25 6 103 16t92 24q14 15 15 34q-25 2 -33 33l-106 358h-457l-108 -358q-8 -33 -37 -33h-125q-35 0 -23 33l430 1427q10 33 39 33h107q29 0 39 -33l428 -1427q2 -6 2 -15
q37 -176 -127 -190q-156 -18 -166 -18q-27 -2 -27 -33q-1 -17 13 -21t63 -4h231q20 0 21 -22v-95q0 -20 -21 -20h-262z" />
    <glyph glyph-name="aogonek" unicode="&#x105;" horiz-adv-x="976" 
d="M387 182h105q104 2 178 88v144h-283q-55 0 -85 -31t-30 -82t34 -85t81 -34zM582 -383q-193 -1 -193 143q0 68 10 100q15 48 91 68q24 6 102 16t94 23q14 14 14 33q-31 4 -30 49v31q-96 -82 -195 -82h-94q-113 -2 -202 87t-89 214t85 206t216 81h279v32q0 80 -41 123
t-107 43h-100q-111 0 -174 -63q-23 -20 -47 4l-68 82q-20 20 -2 41q106 119 307 119h97q127 -1 223 -101t96 -256v-561l4 -45q27 -160 -129 -174q-156 -18 -166 -18q-27 -2 -27 -26t14 -28q13 -4 62 -4h232q20 0 20 -22v-94q0 -20 -20 -21h-262z" />
    <glyph glyph-name="Cacute" unicode="&#x106;" horiz-adv-x="1159" 
d="M903 481h123q31 0 31 -30q-2 -199 -126 -338.5t-300 -139.5h-94q-182 0 -308.5 141.5t-126.5 350.5v557q0 209 126 348t309 139h94q176 0 300 -137t126 -336q0 -31 -31 -30h-123q-33 0 -33 30q0 129 -66.5 209t-172.5 80h-94q-113 0 -181.5 -82t-68.5 -221v-557
q0 -141 68.5 -224t181.5 -83h94q106 0 173.5 82t65.5 211q0 30 33 30zM711 2163h151q39 0 21 -37l-178 -379q-20 -37 -43 -37h-127q-37 0 -21 37l154 379q12 37 43 37z" />
    <glyph glyph-name="cacute" unicode="&#x107;" horiz-adv-x="985" 
d="M864 641h-125q-31 0 -34 29q-4 47 -50.5 80.5t-103.5 33.5h-76q-72 0 -125 -54t-53 -132v-233q0 -76 53 -129.5t125 -53.5h82q88 0 180 111q23 27 47 4l88 -80q25 -18 7 -43q-143 -176 -328 -176h-74q-145 0 -254.5 109.5t-109.5 257.5v233q0 147 109.5 259t254.5 112h74
q123 0 231.5 -92.5t110.5 -200.5q0 -35 -29 -35zM758 1638q39 0 20 -36l-178 -379q-20 -37 -43 -37h-127q-36 0 -20 37l153 379q12 37 43 36h152z" />
    <glyph glyph-name="Cdotaccent" unicode="&#x10a;" horiz-adv-x="1159" 
d="M903 481h123q31 0 31 -30q-2 -199 -126 -338.5t-300 -139.5h-94q-182 0 -308.5 141.5t-126.5 350.5v557q0 209 126 348t309 139h94q176 0 300 -137t126 -336q0 -31 -31 -30h-123q-33 0 -33 30q0 129 -66.5 209t-172.5 80h-94q-113 0 -181.5 -82t-68.5 -221v-557
q0 -141 68.5 -224t181.5 -83h94q106 0 173.5 82t65.5 211q0 30 33 30zM475 1792v186q0 33 33 33h182q31 0 31 -33v-186q0 -33 -31 -33h-182q-33 0 -33 33z" />
    <glyph glyph-name="cdotaccent" unicode="&#x10b;" horiz-adv-x="985" 
d="M864 641h-125q-31 0 -34 29q-4 47 -50.5 80.5t-103.5 33.5h-76q-72 0 -125 -54t-53 -132v-233q0 -76 53 -129.5t125 -53.5h82q88 0 180 111q23 27 47 4l88 -80q25 -18 7 -43q-143 -176 -328 -176h-74q-145 0 -254.5 109.5t-109.5 257.5v233q0 147 109.5 259t254.5 112h74
q123 0 231.5 -92.5t110.5 -200.5q0 -35 -29 -35zM371 1268v186q0 33 32 33h183q31 0 30 -33v-186q0 -33 -30 -33h-183q-32 0 -32 33z" />
    <glyph glyph-name="Ccaron" unicode="&#x10c;" horiz-adv-x="1159" 
d="M903 481h123q31 0 31 -30q-2 -199 -126 -338.5t-300 -139.5h-94q-182 0 -308.5 141.5t-126.5 350.5v557q0 209 126 348t309 139h94q176 0 300 -137t126 -336q0 -31 -31 -30h-123q-33 0 -33 30q0 129 -66.5 209t-172.5 80h-94q-113 0 -181.5 -82t-68.5 -221v-557
q0 -141 68.5 -224t181.5 -83h94q106 0 173.5 82t65.5 211q0 30 33 30zM246 2163h137q20 0 47 -39l168 -238l168 238q27 39 47 39h137q16 0 21.5 -12.5t-4.5 -26.5l-260 -367q-20 -33 -50 -33h-120q-25 0 -48 33l-260 367q-8 14 -4 26.5t21 12.5z" />
    <glyph glyph-name="ccaron" unicode="&#x10d;" horiz-adv-x="985" 
d="M864 641h-125q-31 0 -34 29q-4 47 -50.5 80.5t-103.5 33.5h-76q-72 0 -125 -54t-53 -132v-233q0 -76 53 -129.5t125 -53.5h82q88 0 180 111q23 27 47 4l88 -80q25 -18 7 -43q-143 -176 -328 -176h-74q-145 0 -254.5 109.5t-109.5 257.5v233q0 147 109.5 259t254.5 112h74
q123 0 231.5 -92.5t110.5 -200.5q0 -35 -29 -35zM141 1638h138q20 0 47 -39l168 -237l168 237q27 39 47 39h137q16 0 21 -12t-5 -27l-260 -366q-20 -33 -49 -33h-121q-24 0 -47 33l-260 366q-8 14 -4 26.5t20 12.5z" />
    <glyph glyph-name="Dcaron" unicode="&#x10e;" horiz-adv-x="1187" 
d="M891 481v525q0 139 -71 218t-181 79h-326v-1119h326q111 0 181 79t71 218zM160 1487h489q168 1 297 -143t129 -338v-525q0 -195 -129 -338t-297 -143h-489q-31 0 -31 31v1425q0 31 31 31zM362 2163q20 0 48 -39l168 -238l167 238q27 39 48 39h137q16 -1 21 -13t-5 -26
l-260 -367q-20 -33 -49 -33h-121q-24 0 -47 33l-260 367q-8 14 -4 26t20 13h137z" />
    <glyph glyph-name="dcaron" unicode="&#x10f;" horiz-adv-x="1398" 
d="M537 778h-78q-72 0 -117 -53t-45 -127v-252q0 -70 47 -116t115 -46h78q43 0 87 24t74 64v355q-2 61 -51 106t-110 45zM1036 1487h189q31 0 30 -31v-246q0 -215 -116 -348q-18 -20 -41 0l-66 60q-25 25 -8 43q63 60 72 146q2 30 2 87l16 21h-78q-31 0 -30 30v207
q-1 31 30 31zM729 1487h123q31 0 31 -31v-1425q0 -31 -31 -31h-123q-31 0 -31 31v12q-82 -43 -161 -43h-80q-133 0 -239 104q-105 104 -105 242v250q0 141 101 254t243 113h80q80 0 161 -43v536q0 31 31 31z" />
    <glyph glyph-name="Dcroat" unicode="&#x110;" horiz-adv-x="1314" 
d="M1018 481v525q0 139 -71 218t-181 79h-326v-449h260q31 0 31 -31v-123q0 -31 -31 -30h-260v-486h326q112 0 182 79t70 218zM287 1487h489q168 1 297 -143t129 -338v-525q0 -195 -129 -338t-297 -143h-489q-31 0 -31 31v639h-96q-31 0 -31 30v123q0 31 31 31h96v602
q0 31 31 31z" />
    <glyph glyph-name="dcroat" unicode="&#x111;" horiz-adv-x="1026" 
d="M537 778h-78q-72 0 -117 -53t-45 -127v-252q0 -70 47 -116t115 -46h78q43 0 87 24t74 64v355q-2 61 -51 106t-110 45zM883 1278h98q31 0 31 -31v-123q0 -31 -31 -30h-98v-1063q0 -31 -31 -31h-123q-31 0 -31 31v12q-82 -43 -161 -43h-80q-133 0 -239 104
q-105 104 -105 242v250q0 141 101 254t243 113h80q80 0 161 -43v174h-381q-31 0 -30 30v123q0 31 30 31h381v178q0 31 31 31h123q31 0 31 -31v-178z" />
    <glyph glyph-name="Emacron" unicode="&#x112;" horiz-adv-x="1134" 
d="M317 842h535q31 0 31 -31v-123q0 -31 -31 -31h-535v-473h668q31 0 31 -30v-123q0 -31 -31 -31h-821q-31 0 -31 31v1425q0 31 31 31h821q31 0 31 -31v-123q0 -31 -31 -30h-668v-461zM924 1827h-664q-31 0 -31 31v122q0 31 31 31h664q31 0 30 -31v-122q1 -31 -30 -31z" />
    <glyph glyph-name="emacron" unicode="&#x113;" horiz-adv-x="1011" 
d="M725 586v24q0 74 -53.5 124t-112.5 50h-78q-70 0 -124 -52t-54 -122v-24h422zM483 969h78q129 0 238.5 -107.5t109.5 -261.5v-113q0 -61 -61 -61h-545v-61q0 -78 53.5 -130.5t124.5 -52.5h84q84 0 180 111q23 25 46 4l90 -80q23 -20 6 -43q-143 -176 -326 -176h-78
q-145 0 -254.5 109.5t-109.5 257.5v233q0 147 109.5 259t254.5 112zM836 1303h-664q-31 0 -31 30v123q0 31 31 31h664q31 0 30 -31v-123q1 -30 -30 -30z" />
    <glyph glyph-name="Edotaccent" unicode="&#x116;" horiz-adv-x="1134" 
d="M317 842h535q31 0 31 -31v-123q0 -31 -31 -31h-535v-473h668q31 0 31 -30v-123q0 -31 -31 -31h-821q-31 0 -31 31v1425q0 31 31 31h821q31 0 31 -31v-123q0 -31 -31 -30h-668v-461zM469 1792v186q0 33 33 33h182q31 0 31 -33v-186q0 -33 -31 -33h-182q-33 0 -33 33z" />
    <glyph glyph-name="edotaccent" unicode="&#x117;" horiz-adv-x="1011" 
d="M725 586v24q0 74 -53.5 124t-112.5 50h-78q-70 0 -124 -52t-54 -122v-24h422zM483 969h78q129 0 238.5 -107.5t109.5 -261.5v-113q0 -61 -61 -61h-545v-61q0 -78 53.5 -130.5t124.5 -52.5h84q84 0 180 111q23 25 46 4l90 -80q23 -20 6 -43q-143 -176 -326 -176h-78
q-145 0 -254.5 109.5t-109.5 257.5v233q0 147 109.5 259t254.5 112zM383 1268v186q0 33 33 33h182q31 0 31 -33v-186q0 -33 -31 -33h-182q-33 0 -33 33z" />
    <glyph glyph-name="Eogonek" unicode="&#x118;" horiz-adv-x="1134" 
d="M748 -385q-193 -1 -193 143q0 68 10 99.5t46 51t131 31t109.5 26.5t14.5 34h-702q-31 0 -31 31v1425q0 31 31 31h821q31 0 31 -31v-123q0 -31 -31 -30h-668v-461h535q31 0 31 -31v-123q0 -31 -31 -31h-535v-473h668q31 0 31 -30v-119q4 -4 4 -8q43 -184 -125 -199
q-156 -18 -166 -18q-27 -2 -27 -33q0 -18 13.5 -21.5t62.5 -3.5h232q20 0 20 -22v-95q0 -20 -20 -20h-262z" />
    <glyph glyph-name="eogonek" unicode="&#x119;" horiz-adv-x="1011" 
d="M303 586h422v24q0 74 -53.5 124t-112.5 50h-78q-70 0 -124 -52t-54 -122v-24zM442 -385q-192 -1 -192 143q0 68 10 99.5t46 51t131 31t109.5 25.5t14.5 33h-78q-145 0 -254.5 109.5t-109.5 257.5v233q0 147 109.5 259t254.5 112h78q129 0 238.5 -107.5t109.5 -261.5v-113
q0 -61 -61 -61h-545v-61q0 -78 53.5 -130.5t124.5 -52.5h84q84 0 180 111q23 25 46 4l90 -80q23 -20 6 -43q-84 -102 -172 -145v-2q43 -184 -125 -199q-156 -18 -166 -18q-27 -2 -27 -33q0 -18 13.5 -21.5t62.5 -3.5h232q20 0 20 -22v-95q0 -20 -20 -20h-263z" />
    <glyph glyph-name="Ecaron" unicode="&#x11a;" horiz-adv-x="1134" 
d="M317 842h535q31 0 31 -31v-123q0 -31 -31 -31h-535v-473h668q31 0 31 -30v-123q0 -31 -31 -31h-821q-31 0 -31 31v1425q0 31 31 31h821q31 0 31 -31v-123q0 -31 -31 -30h-668v-461zM240 2163h137q20 0 47 -39l168 -238l168 238q27 39 47 39h137q16 0 21.5 -12.5
t-4.5 -26.5l-261 -367q-20 -33 -49 -33h-121q-24 0 -47 33l-260 367q-8 14 -4 26.5t21 12.5z" />
    <glyph glyph-name="ecaron" unicode="&#x11b;" horiz-adv-x="1011" 
d="M725 586v24q0 74 -53.5 124t-112.5 50h-78q-70 0 -124 -52t-54 -122v-24h422zM483 969h78q129 0 238.5 -107.5t109.5 -261.5v-113q0 -61 -61 -61h-545v-61q0 -78 53.5 -130.5t124.5 -52.5h84q84 0 180 111q23 25 46 4l90 -80q23 -20 6 -43q-143 -176 -326 -176h-78
q-145 0 -254.5 109.5t-109.5 257.5v233q0 147 109.5 259t254.5 112zM154 1638h137q20 0 47 -39l168 -237l168 237q27 39 47 39h137q16 0 21.5 -12t-5.5 -27l-260 -366q-20 -33 -49 -33h-121q-24 0 -47 33l-260 366q-8 14 -4 26.5t21 12.5z" />
    <glyph glyph-name="Gbreve" unicode="&#x11e;" horiz-adv-x="1175" 
d="M621 770h411q31 0 31 -31v-284q0 -203 -124 -342.5t-302 -139.5h-94q-184 0 -309 140.5t-125 349.5v559q0 209 125.5 348t308.5 139h94q176 0 300 -137t126 -336q0 -31 -31 -30h-123q-33 0 -32 30q0 129 -67 209t-173 80h-94q-113 0 -181.5 -82t-68.5 -221v-559
q0 -141 67.5 -223t182.5 -82h94q109 0 174.5 80.5t65.5 216.5v131h-256q-31 0 -31 30v123q0 31 31 31zM815 2163h103q31 0 30 -31q-4 -145 -83 -230t-214 -85h-100q-135 0 -214 85t-83 230q0 31 31 31h102q31 0 31 -31q12 -152 143 -152h82q70 0 103.5 43t37.5 109
q0 31 31 31z" />
    <glyph glyph-name="gbreve" unicode="&#x11f;" horiz-adv-x="1001" 
d="M471 182h70q76 0 149 70v414q0 45 -49 82t-106 36h-74q-70 0 -122 -55t-52 -131v-233q0 -75 56 -129t128 -54zM756 963h92q31 0 31 -31v-1034q1 -115 -101 -211t-235 -97h-51q-106 0 -200 56t-147 149q-18 29 21 45l88 45q31 12 51 -10q70 -100 176 -100h62q53 0 100 36
t47 93v135q-76 -41 -155 -41h-64q-145 0 -257 112t-112 255v233q0 145 108 258t251 113h74q86 0 174 -68l12 27q12 35 35 35zM715 1638h102q31 0 31 -30q-4 -144 -83 -230t-214 -86h-100q-135 0 -214 85t-83 231q0 31 30 30h103q31 0 30 -30q12 -152 144 -152h82
q69 0 103 43t38 109q0 30 31 30z" />
    <glyph glyph-name="Gdotaccent" unicode="&#x120;" horiz-adv-x="1175" 
d="M621 770h411q31 0 31 -31v-284q0 -203 -124 -342.5t-302 -139.5h-94q-184 0 -309 140.5t-125 349.5v559q0 209 125.5 348t308.5 139h94q176 0 300 -137t126 -336q0 -31 -31 -30h-123q-33 0 -32 30q0 129 -67 209t-173 80h-94q-113 0 -181.5 -82t-68.5 -221v-559
q0 -141 67.5 -223t182.5 -82h94q109 0 174.5 80.5t65.5 216.5v131h-256q-31 0 -31 30v123q0 31 31 31zM479 1792v186q0 33 33 33h182q31 0 31 -33v-186q0 -33 -31 -33h-182q-33 0 -33 33z" />
    <glyph glyph-name="gdotaccent" unicode="&#x121;" horiz-adv-x="1001" 
d="M471 182h70q76 0 149 70v414q0 45 -49 82t-106 36h-74q-70 0 -122 -55t-52 -131v-233q0 -75 56 -129t128 -54zM756 963h92q31 0 31 -31v-1034q1 -115 -101 -211t-235 -97h-51q-106 0 -200 56t-147 149q-18 29 21 45l88 45q31 12 51 -10q70 -100 176 -100h62q53 0 100 36
t47 93v135q-76 -41 -155 -41h-64q-145 0 -257 112t-112 255v233q0 145 108 258t251 113h74q86 0 174 -68l12 27q12 35 35 35zM379 1268v186q0 33 33 33h182q31 0 31 -33v-186q0 -33 -31 -33h-182q-33 0 -33 33z" />
    <glyph glyph-name="Gcommaaccent" unicode="&#x122;" horiz-adv-x="1175" 
d="M514 -369h188q31 0 31 -30v-246q0 -215 -117 -348q-18 -20 -41 0l-65 59q-27 25 -8 43q65 63 71 147q2 30 2 87l17 20h-78q-31 0 -31 31v207q0 30 31 30zM621 770h411q31 0 31 -31v-284q0 -203 -124 -342.5t-302 -139.5h-94q-184 0 -309 140.5t-125 349.5v559
q0 209 125.5 348t308.5 139h94q176 0 300 -137t126 -336q0 -31 -31 -30h-123q-33 0 -32 30q0 129 -67 209t-173 80h-94q-113 0 -181.5 -82t-68.5 -221v-559q0 -141 67.5 -223t182.5 -82h94q109 0 174.5 80.5t65.5 216.5v131h-256q-31 0 -31 30v123q0 31 31 31z" />
    <glyph glyph-name="gcommaaccent" unicode="&#x123;" horiz-adv-x="1001" 
d="M471 182h70q76 0 149 70v414q0 45 -49 82t-106 36h-74q-70 0 -122 -55t-52 -131v-233q0 -75 56 -129t128 -54zM756 963h92q31 0 31 -31v-1034q1 -115 -101 -211t-235 -97h-51q-106 0 -200 56t-147 149q-18 29 21 45l88 45q31 12 51 -10q70 -100 176 -100h62q53 0 100 36
t47 93v135q-76 -41 -155 -41h-64q-145 0 -257 112t-112 255v233q0 145 108 258t251 113h74q86 0 174 -68l12 27q12 35 35 35zM580 1219h-189q-31 0 -31 30v246q0 213 119 348q18 20 41 0l64 -59q27 -25 8 -43q-50 -47 -62 -99t-12 -135l-16 -20h78q31 0 30 -31v-207
q1 -30 -30 -30z" />
    <glyph glyph-name="Hbar" unicode="&#x126;" horiz-adv-x="1220" 
d="M324 801h575v291h-575v-291zM930 1487h123q31 0 30 -31v-1425q0 -31 -30 -31h-123q-31 0 -31 31v585h-575v-585q0 -31 -31 -31h-123q-31 0 -31 31v1425q0 31 31 31h123q31 0 31 -31v-182h575v182q0 31 31 31z" />
    <glyph glyph-name="hbar" unicode="&#x127;" horiz-adv-x="1196" 
d="M653 963h76q141 0 243 -113t101 -254v-565q0 -31 -31 -31h-122q-31 0 -31 31v567q0 76 -44 128t-114 52h-80q-61 0 -109 -43t-50 -100v-604q0 -31 -31 -31h-123q-31 0 -31 31v1081h-123q-31 0 -30 31v121q0 31 30 30h123v162q0 31 31 31h123q31 0 31 -31v-162h200
q31 0 31 -30v-121q0 -31 -31 -31h-200v-192q81 43 161 43z" />
    <glyph glyph-name="Imacron" unicode="&#x12a;" horiz-adv-x="524" 
d="M170 31v1425q0 31 31 31h125q31 0 30 -31v-1425q0 -31 -30 -31h-125q-31 0 -31 31zM594 1827h-664q-31 0 -30 31v122q0 31 30 31h664q31 0 31 -31v-122q0 -31 -31 -31z" />
    <glyph glyph-name="imacron" unicode="&#x12b;" horiz-adv-x="512" 
d="M164 31v903q0 31 31 31h122q31 0 31 -31v-903q0 -31 -31 -31h-122q-31 0 -31 31zM588 1303h-664q-31 0 -30 30v123q0 31 30 31h664q31 0 30 -31v-123q1 -30 -30 -30z" />
    <glyph glyph-name="Iogonek" unicode="&#x12e;" horiz-adv-x="524" 
d="M68 -385q-193 -1 -193 143q0 68 10 100q15 48 91 68q24 6 102 16t94 23q14 14 14 37q-16 6 -16 29v1425q0 31 31 31h125q30 0 30 -31v-1425q0 -20 -12 -27q29 -162 -129 -176q-156 -18 -166 -18q-27 -2 -27 -26t14 -28q13 -4 62 -4h232q20 0 20 -22v-95q0 -20 -20 -20
h-262z" />
    <glyph glyph-name="iogonek" unicode="&#x12f;" horiz-adv-x="512" 
d="M59 -385q-192 -1 -192 143q0 68 10 100q15 48 91 68q24 6 102 16t94 23q14 14 14 37q-14 6 -14 29v903q0 31 31 31h122q31 0 31 -31v-903q0 -20 -12 -27q29 -162 -129 -176q-156 -18 -166 -18q-27 -2 -27 -33q0 -17 14 -21t62 -4h232q20 0 20 -22v-95q0 -20 -20 -20h-263
zM166 1487h182q31 0 31 -33v-186q0 -33 -31 -33h-182q-33 0 -33 33v186q0 33 33 33z" />
    <glyph glyph-name="Idotaccent" unicode="&#x130;" horiz-adv-x="524" 
d="M170 31v1425q0 31 31 31h125q31 0 30 -31v-1425q0 -31 -30 -31h-125q-31 0 -31 31zM139 1792v186q0 33 33 33h182q31 0 31 -33v-186q0 -33 -31 -33h-182q-33 0 -33 33z" />
    <glyph glyph-name="dotlessi" unicode="&#x131;" horiz-adv-x="512" 
d="M164 31v903q0 31 31 31h122q31 0 31 -31v-903q0 -31 -31 -31h-122q-31 0 -31 31z" />
    <glyph glyph-name="IJ" unicode="&#x132;" horiz-adv-x="1642" 
d="M1020 170h53q115 0 189 84t73 223v979q0 31 31 31h123q31 0 31 -31v-989q0 -213 -130 -347t-307 -134h-63q-127 0 -244 79t-166 203q-10 25 17 41l100 58q20 12 37 -19q90 -178 256 -178zM170 31v1425q0 31 31 31h125q31 0 30 -31v-1425q0 -31 -30 -31h-125q-31 0 -31 31
z" />
    <glyph glyph-name="ij" unicode="&#x133;" horiz-adv-x="1015" 
d="M668 -106v1040q0 31 30 31h123q31 0 31 -31v-1047q0 -113 -73 -207t-185 -129q-27 -8 -39 21l-47 117q-12 29 18 39q57 20 100 64q42 44 42 102zM164 31v903q0 31 31 31h122q31 0 31 -31v-903q0 -31 -31 -31h-122q-31 0 -31 31zM659 1282v174q0 31 31 31h141q31 0 31 -31
v-174q0 -31 -31 -31h-141q-31 0 -31 31zM154 1282v174q0 31 30 31h142q31 0 30 -31v-174q0 -31 -30 -31h-142q-30 0 -30 31z" />
    <glyph glyph-name="Kcommaaccent" unicode="&#x136;" horiz-adv-x="1208" 
d="M502 -369h188q31 0 31 -30v-246q0 -215 -117 -348q-18 -20 -41 0l-65 59q-27 25 -9 43q35 33 52.5 75t19.5 71.5t2 87.5l17 20h-78q-31 0 -31 31v207q0 30 31 30zM1104 0h-150q-29 0 -55 29l-520 612l-72 -82v-528q0 -31 -31 -31h-122q-31 0 -31 31v1425q0 31 31 31h122
q31 0 31 -31v-657l531 659q20 29 39 29h161q16 0 20.5 -15.5t-11.5 -35.5l-529 -668l598 -719q12 -12 9 -30.5t-21 -18.5z" />
    <glyph glyph-name="kcommaaccent" unicode="&#x137;" horiz-adv-x="1069" 
d="M401 -369h189q31 0 31 -30v-246q0 -215 -117 -348q-18 -20 -41 0l-66 59q-27 25 -8 43q35 33 52.5 75t19.5 71.5t2 87.5l16 20h-78q-31 0 -30 31v207q-1 30 30 30zM174 1487h123q31 0 31 -31v-835l334 317q20 25 45 25h149q18 0 23.5 -21.5t-15.5 -44.5l-352 -352
l422 -498q14 -14 11 -30.5t-23 -16.5h-131q-27 0 -56 29l-348 393l-59 -55v-336q0 -31 -31 -31h-123q-31 0 -31 31v1425q0 31 31 31z" />
    <glyph glyph-name="Lacute" unicode="&#x139;" horiz-adv-x="1138" 
d="M324 184h667q31 0 31 -30v-123q0 -31 -31 -31h-821q-31 0 -31 31v1425q0 31 31 31h123q31 0 31 -31v-1272zM344 2163h152q39 0 20 -37l-178 -379q-20 -37 -43 -37h-127q-37 0 -21 37l154 379q12 37 43 37z" />
    <glyph glyph-name="lacute" unicode="&#x13a;" horiz-adv-x="512" 
d="M164 31v1425q0 31 31 31h122q31 0 31 -31v-1425q0 -31 -31 -31h-122q-31 0 -31 31zM369 2163h151q39 0 21 -37l-179 -379q-20 -37 -43 -37h-126q-37 0 -21 37l154 379q12 37 43 37z" />
    <glyph glyph-name="Lcommaaccent" unicode="&#x13b;" horiz-adv-x="1138" 
d="M489 -369h189q31 0 31 -30v-246q0 -215 -117 -348q-18 -20 -41 0l-66 59q-27 25 -8 43q35 33 52.5 75t19.5 71.5t2 87.5l16 20h-78q-31 0 -30 31v207q-1 30 30 30zM324 184h667q31 0 31 -30v-123q0 -31 -31 -31h-821q-31 0 -31 31v1425q0 31 31 31h123q31 0 31 -31v-1272
z" />
    <glyph glyph-name="lcommaaccent" unicode="&#x13c;" horiz-adv-x="512" 
d="M168 -369h188q31 0 31 -30v-246q0 -215 -117 -348q-18 -20 -41 0l-65 59q-27 25 -8 43q65 63 71 147q2 30 2 87l17 20h-78q-31 0 -31 31v207q0 30 31 30zM164 31v1425q0 31 31 31h122q31 0 31 -31v-1425q0 -31 -31 -31h-122q-31 0 -31 31z" />
    <glyph glyph-name="Lcaron" unicode="&#x13d;" horiz-adv-x="1138" 
d="M582 1487h188q31 0 31 -31v-246q0 -215 -117 -348q-18 -20 -41 0l-65 60q-25 25 -9 43q66 63 72 146q2 30 2 87l16 21h-77q-31 0 -31 30v207q0 31 31 31zM324 184h667q31 0 31 -30v-123q0 -31 -31 -31h-821q-31 0 -31 31v1425q0 31 31 31h123q31 0 31 -31v-1272z" />
    <glyph glyph-name="lcaron" unicode="&#x13e;" horiz-adv-x="917" 
d="M535 1487h188q31 0 31 -31v-246q0 -215 -117 -348q-18 -20 -41 0l-66 60q-27 25 -8 43q66 63 72 146q2 30 2 87l16 21h-77q-31 0 -31 30v207q0 31 31 31zM164 31v1425q0 31 31 31h122q31 0 31 -31v-1425q0 -31 -31 -31h-122q-31 0 -31 31z" />
    <glyph glyph-name="Ldot" unicode="&#x13f;" horiz-adv-x="1138" 
d="M567 752v182q0 31 31 31h174q31 0 31 -31v-182q0 -31 -31 -31h-174q-31 0 -31 31zM324 184h667q31 0 31 -30v-123q0 -31 -31 -31h-821q-31 0 -31 31v1425q0 31 31 31h123q31 0 31 -31v-1272z" />
    <glyph glyph-name="ldot" unicode="&#x140;" horiz-adv-x="913" 
d="M575 752v182q0 31 31 31h174q31 0 31 -31v-182q0 -31 -31 -31h-174q-31 0 -31 31zM164 31v1425q0 31 31 31h122q31 0 31 -31v-1425q0 -31 -31 -31h-122q-31 0 -31 31z" />
    <glyph glyph-name="Lslash" unicode="&#x141;" horiz-adv-x="1245" 
d="M461 184h667q31 0 31 -30v-123q0 -31 -31 -31h-821q-31 0 -31 31v256q-20 -25 -38 -25h-148q-18 0 -25.5 10.5t5.5 26.5l206 268v889q0 31 31 31h123q31 0 31 -31v-649l92 121q27 35 47 35h148q18 0 24 -10.5t-6 -26.5l-305 -400v-342z" />
    <glyph glyph-name="lslash" unicode="&#x142;" horiz-adv-x="813" 
d="M498 963h125q18 -1 24 -11t-6 -26l-143 -187v-708q0 -31 -31 -31h-123q-31 0 -31 31v526h-123q-18 0 -24 10t4 27l143 186v676q0 31 31 31h123q31 0 31 -31v-493z" />
    <glyph glyph-name="Nacute" unicode="&#x143;" horiz-adv-x="1298" 
d="M1006 1487h122q31 0 31 -31v-1425q0 -31 -31 -31h-174q-25 0 -36 23l-601 1146v-1138q0 -31 -30 -31h-123q-31 0 -31 31v1425q0 31 31 31h174q27 0 37 -23l600 -1147v1139q0 31 31 31zM760 2163h151q39 0 21 -37l-178 -379q-20 -37 -43 -37h-127q-37 0 -21 37l154 379
q12 37 43 37z" />
    <glyph glyph-name="nacute" unicode="&#x144;" horiz-adv-x="1046" 
d="M508 963h88q150 0 239 -107.5t89 -259.5v-565q0 -31 -31 -31h-123q-31 0 -31 31v565q0 74 -47 128t-117 54h-90q-61 0 -111 -45t-52 -100v-602q0 -31 -31 -31h-123q-31 0 -31 31v901q0 31 31 31h123q31 0 31 -31v-49q80 80 186 80zM793 1638q39 0 20 -36l-178 -379
q-20 -37 -43 -37h-127q-37 0 -21 37l154 379q12 37 43 36h152z" />
    <glyph glyph-name="Ncommaaccent" unicode="&#x145;" horiz-adv-x="1298" 
d="M559 -369h189q31 0 30 -30v-246q0 -215 -116 -348q-18 -20 -41 0l-66 59q-27 25 -8 43q63 61 71 147q2 30 3 87l16 20h-78q-31 0 -31 31v207q0 30 31 30zM1006 1487h122q31 0 31 -31v-1425q0 -31 -31 -31h-174q-25 0 -36 23l-601 1146v-1138q0 -31 -30 -31h-123
q-31 0 -31 31v1425q0 31 31 31h174q27 0 37 -23l600 -1147v1139q0 31 31 31z" />
    <glyph glyph-name="ncommaaccent" unicode="&#x146;" horiz-adv-x="1046" 
d="M438 -369h189q31 0 30 -30v-246q0 -215 -116 -348q-18 -20 -41 0l-66 59q-27 25 -8 43q35 33 52.5 75t19.5 71.5t2 87.5l16 20h-78q-31 0 -30 31v207q-1 30 30 30zM508 963h88q150 0 239 -107.5t89 -259.5v-565q0 -31 -31 -31h-123q-31 0 -31 31v565q0 74 -47 128
t-117 54h-90q-61 0 -111 -45t-52 -100v-602q0 -31 -31 -31h-123q-31 0 -31 31v901q0 31 31 31h123q31 0 31 -31v-49q80 80 186 80z" />
    <glyph glyph-name="Ncaron" unicode="&#x147;" horiz-adv-x="1298" 
d="M1006 1487h122q31 0 31 -31v-1425q0 -31 -31 -31h-174q-25 0 -36 23l-601 1146v-1138q0 -31 -30 -31h-123q-31 0 -31 31v1425q0 31 31 31h174q27 0 37 -23l600 -1147v1139q0 31 31 31zM295 2163h137q20 0 47 -39l168 -238l168 238q27 39 47 39h137q16 0 21.5 -12.5
t-4.5 -26.5l-260 -367q-20 -33 -49 -33h-121q-24 0 -47 33l-260 367q-8 14 -4 26.5t20 12.5z" />
    <glyph glyph-name="ncaron" unicode="&#x148;" horiz-adv-x="1046" 
d="M508 963h88q150 0 239 -107.5t89 -259.5v-565q0 -31 -31 -31h-123q-31 0 -31 31v565q0 74 -47 128t-117 54h-90q-61 0 -111 -45t-52 -100v-602q0 -31 -31 -31h-123q-31 0 -31 31v901q0 31 31 31h123q31 0 31 -31v-49q80 80 186 80zM176 1638h137q20 0 47 -39l168 -237
l168 237q27 39 47 39h138q16 0 21 -12t-5 -27l-260 -366q-20 -33 -49 -33h-121q-24 0 -47 33l-260 366q-8 14 -4 26.5t20 12.5z" />
    <glyph glyph-name="Eng" unicode="&#x14a;" horiz-adv-x="1253" 
d="M961 1487h122q31 0 31 -31v-1460q0 -213 -130 -347t-306 -134h-64q-102 0 -201 55t-153 143q-16 23 8 43l92 68q18 16 39 -10q90 -115 215 -115h54q114 0 188 84t74 225v19l-613 1142v-1138q0 -31 -30 -31h-123q-31 0 -31 31v1425q0 31 31 31h174q27 0 37 -23l555 -1046
v1038q0 31 31 31z" />
    <glyph glyph-name="eng" unicode="&#x14b;" horiz-adv-x="1077" 
d="M508 963h88q150 0 239 -107.5t89 -259.5v-623q0 -166 -100.5 -289.5t-243.5 -140.5q-27 -6 -33 27l-33 117q-6 27 25 32q82 10 141 85t59 178v614q0 74 -47 128t-117 54h-90q-61 0 -111 -45t-52 -100v-602q0 -31 -31 -31h-123q-31 0 -31 31v901q0 31 31 31h123
q31 0 31 -31v-49q80 80 186 80z" />
    <glyph glyph-name="Omacron" unicode="&#x14c;" horiz-adv-x="1206" 
d="M553 164h100q109 0 177 85t69 212v567q0 127 -69 212t-177 85h-100q-109 0 -177 -85t-69 -212v-567q1 -127 69 -212t177 -85zM553 1509h100q176 0 303 -143t127 -346v-551q0 -203 -127 -346t-303 -143h-100q-176 0 -303 143t-127 346v551q0 203 127 346t303 143z
M936 1827h-664q-31 0 -30 31v122q0 31 30 31h664q31 0 31 -31v-122q0 -31 -31 -31z" />
    <glyph glyph-name="omacron" unicode="&#x14d;" horiz-adv-x="1038" 
d="M741 375v213q0 80 -49 138t-131 58h-84q-82 0 -131 -57t-49 -139v-213q0 -80 49 -136t131 -57h84q82 0 131 56t49 137zM479 969h80q151 0 259 -113t108 -268v-213q0 -153 -106 -265t-261 -112h-80q-154 0 -260 112t-106 265v213q0 156 107 268t259 113zM852 1303h-664
q-31 0 -30 30v123q0 31 30 31h664q31 0 31 -31v-123q0 -30 -31 -30z" />
    <glyph glyph-name="Ohungarumlaut" unicode="&#x150;" horiz-adv-x="1206" 
d="M553 164h100q109 0 177 85t69 212v567q0 127 -69 212t-177 85h-100q-109 0 -177 -85t-69 -212v-567q1 -127 69 -212t177 -85zM553 1509h100q176 0 303 -143t127 -346v-551q0 -203 -127 -346t-303 -143h-100q-176 0 -303 143t-127 346v551q0 203 127 346t303 143z
M887 2163h151q39 0 21 -37l-178 -379q-20 -37 -43 -37h-127q-37 0 -21 37l154 379q12 37 43 37zM532 2163h152q39 0 21 -37l-179 -379q-20 -37 -43 -37h-127q-36 0 -20 37l153 379q12 37 43 37z" />
    <glyph glyph-name="ohungarumlaut" unicode="&#x151;" horiz-adv-x="1038" 
d="M741 375v213q0 80 -49 138t-131 58h-84q-82 0 -131 -57t-49 -139v-213q0 -80 49 -136t131 -57h84q82 0 131 56t49 137zM479 969h80q151 0 259 -113t108 -268v-213q0 -153 -106 -265t-261 -112h-80q-154 0 -260 112t-106 265v213q0 156 107 268t259 113zM954 1638
q39 0 21 -36l-178 -379q-20 -37 -43 -37h-127q-37 0 -21 37l154 379q12 37 43 36h151zM600 1638q39 0 21 -36l-179 -379q-20 -37 -43 -37h-127q-36 0 -20 37l154 379q12 37 43 36h151z" />
    <glyph glyph-name="OE" unicode="&#x152;" horiz-adv-x="1908" 
d="M899 461v567q0 127 -68.5 212t-177.5 85h-100q-109 0 -177.5 -85t-68.5 -212v-567q0 -127 68.5 -212t177.5 -85h100q109 0 177.5 85t68.5 212zM1094 1303v-461h534q31 0 31 -31v-123q0 -31 -31 -31h-534v-473h667q31 0 31 -30v-123q0 -31 -31 -31h-821q-31 0 -31 31v45
q-117 -96 -256 -96h-100q-176 0 -303 143t-127 346v551q0 203 127 346t303 143h100q139 0 256 -96v43q0 31 31 31h821q31 0 31 -31v-123q0 -31 -31 -30h-667z" />
    <glyph glyph-name="oe" unicode="&#x153;" horiz-adv-x="1640" 
d="M932 586h422v24q0 74 -53.5 124t-112.5 50h-78q-70 0 -124 -52t-54 -122v-24zM741 375v213q0 80 -49 138t-131 58h-84q-82 0 -131 -57t-49 -139v-213q0 -80 49 -136.5t131 -56.5h84q82 0 131 56.5t49 136.5zM932 426v-61q0 -78 53 -130.5t125 -52.5h84q84 0 180 111
q23 25 45 4l90 -80q23 -20 7 -43q-143 -176 -326 -176h-78q-164 0 -274 131q-111 -131 -279 -131h-80q-154 0 -260 111.5t-106 265.5v213q0 156 107.5 268.5t258.5 112.5h80q166 0 279 -133q113 133 274 133h78q129 0 238.5 -107.5t109.5 -261.5v-113q0 -61 -61 -61h-545z
" />
    <glyph glyph-name="Racute" unicode="&#x154;" horiz-adv-x="1161" 
d="M313 821h324q111 0 168 56.5t57 185.5t-56 184.5t-169 55.5h-324v-482zM1055 31q0 -31 -31 -31h-123q-31 0 -31 31v319q0 125 -53 206t-168 81h-336v-606q0 -31 -30 -31h-123q-31 0 -31 31v1425q0 31 31 31h487q184 0 292 -113.5t107.5 -321.5t-131.5 -323
q139 -123 140 -342v-356zM641 1710h-127q-37 0 -20 37l153 379q12 37 43 37h152q39 0 20 -37l-178 -379q-20 -37 -43 -37z" />
    <glyph glyph-name="racute" unicode="&#x155;" horiz-adv-x="858" 
d="M545 780h-64q-63 0 -113.5 -46t-50.5 -103v-600q0 -31 -30 -31h-123q-31 0 -31 31v901q0 31 31 31h123q31 0 30 -31v-49q33 33 85.5 57.5t101.5 24.5h80q119 0 211 -82q23 -22 0 -45l-88 -90q-18 -20 -43 -3q-51 35 -119 35zM735 1638q39 0 21 -36l-178 -379
q-20 -37 -43 -37h-127q-37 0 -21 37l154 379q12 37 43 36h151z" />
    <glyph glyph-name="Rcommaaccent" unicode="&#x156;" horiz-adv-x="1161" 
d="M487 -369h189q31 0 31 -30v-246q0 -215 -117 -348q-18 -20 -41 0l-66 59q-27 25 -8 43q35 33 52.5 75t19.5 71.5t2 87.5l16 20h-78q-31 0 -30 31v207q-1 30 30 30zM313 821h324q111 0 168 56.5t57 185.5t-56 184.5t-169 55.5h-324v-482zM1055 31q0 -31 -31 -31h-123
q-31 0 -31 31v319q0 125 -53 206t-168 81h-336v-606q0 -31 -30 -31h-123q-31 0 -31 31v1425q0 31 31 31h487q184 0 292 -113.5t107.5 -321.5t-131.5 -323q139 -123 140 -342v-356z" />
    <glyph glyph-name="rcommaaccent" unicode="&#x157;" horiz-adv-x="858" 
d="M131 -369h188q31 0 31 -30v-246q0 -215 -117 -348q-18 -20 -40 0l-66 59q-27 25 -8 43q63 61 71 147q2 30 3 87l16 20h-78q-31 0 -31 31v207q0 30 31 30zM545 780h-64q-63 0 -113.5 -46t-50.5 -103v-600q0 -31 -30 -31h-123q-31 0 -31 31v901q0 31 31 31h123q31 0 30 -31
v-49q33 33 85.5 57.5t101.5 24.5h80q119 0 211 -82q23 -22 0 -45l-88 -90q-18 -20 -43 -3q-51 35 -119 35z" />
    <glyph glyph-name="Rcaron" unicode="&#x158;" horiz-adv-x="1161" 
d="M313 821h324q111 0 168 56.5t57 185.5t-56 184.5t-169 55.5h-324v-482zM1055 31q0 -31 -31 -31h-123q-31 0 -31 31v319q0 125 -53 206t-168 81h-336v-606q0 -31 -30 -31h-123q-31 0 -31 31v1425q0 31 31 31h487q184 0 292 -113.5t107.5 -321.5t-131.5 -323
q139 -123 140 -342v-356zM225 2163h137q20 0 48 -39l168 -238l167 238q27 39 48 39h137q16 0 21 -12.5t-5 -26.5l-260 -367q-20 -33 -49 -33h-121q-24 0 -47 33l-260 367q-8 14 -4 26.5t20 12.5z" />
    <glyph glyph-name="rcaron" unicode="&#x159;" horiz-adv-x="858" 
d="M545 780h-64q-63 0 -113.5 -46t-50.5 -103v-600q0 -31 -30 -31h-123q-31 0 -31 31v901q0 31 31 31h123q31 0 30 -31v-49q33 33 85.5 57.5t101.5 24.5h80q119 0 211 -82q23 -22 0 -45l-88 -90q-18 -20 -43 -3q-51 35 -119 35zM119 1638h137q20 0 47 -39l168 -237l168 237
q27 39 47 39h137q16 0 21.5 -12t-4.5 -27l-260 -366q-20 -33 -50 -33h-120q-25 0 -48 33l-260 366q-8 14 -4 26.5t21 12.5z" />
    <glyph glyph-name="Sacute" unicode="&#x15a;" horiz-adv-x="1179" 
d="M524 1509h107q168 0 294 -122.5t126 -307.5v-37q0 -31 -31 -30h-125q-31 0 -31 30v37q0 111 -68.5 178.5t-164.5 67.5h-107q-98 0 -158.5 -61.5t-60.5 -162.5t56.5 -161.5t177.5 -83.5l114 -20q180 -33 297 -145.5t117 -297t-127 -302.5t-303 -118h-94q-170 0 -300 118
t-130 296v57q0 31 30 31h125q31 0 31 -31l2 -57q4 -104 73.5 -166.5t168.5 -62.5h94q104 0 175 64.5t71 175t-58.5 172t-177.5 81.5l-112 21q-188 35 -301 147.5t-113 289.5t115.5 288.5t287.5 111.5zM702 2163h152q39 0 20 -37l-178 -379q-20 -37 -43 -37h-127
q-36 0 -20 37l153 379q12 37 43 37z" />
    <glyph glyph-name="sacute" unicode="&#x15b;" horiz-adv-x="968" 
d="M866 282.5q0 -133.5 -107.5 -213t-254.5 -79.5h-51q-127 0 -233.5 77.5t-117.5 190.5q-4 31 31 31h127q29 0 37 -27q10 -41 55 -64.5t97 -23.5h65q70 0 119 27.5t49 80t-41 74t-154 31.5q-190 18 -285.5 88t-95.5 207t100.5 213t254.5 76h41q133 0 240.5 -85t109.5 -210
q0 -33 -29 -33h-125q-33 0 -34 31q-2 51 -53.5 81.5t-112.5 30.5h-52q-156 0 -155 -104q0 -49 41.5 -73t154.5 -38q190 -20 284.5 -87.5t94.5 -201zM750 1638q39 0 20 -36l-178 -379q-20 -37 -43 -37h-127q-37 0 -21 37l154 379q12 37 43 36h152z" />
    <glyph glyph-name="Scedilla" unicode="&#x15e;" horiz-adv-x="1179" 
d="M915 -258q0 -156 -190 -156h-125q-84 0 -131 47.5t-49 124.5q0 20 18 21h117q20 0 20 -17q0 -49 74 -49h35q45 0 60.5 5.5t15.5 29t-25.5 30.5t-83 14t-67 8t-24.5 3t-35 5t-38 19.5t-25 53.5t34 94q-158 18 -270.5 133t-112.5 279v57q0 31 30 31h125q31 0 31 -31l2 -57
q4 -104 73.5 -166.5t168.5 -62.5h94q104 0 175 64.5t71 175t-58.5 172t-177.5 81.5l-112 21q-188 35 -301 147.5t-113 289.5t115.5 288.5t287.5 111.5h107q168 0 294 -122.5t126 -307.5v-37q0 -31 -31 -30h-125q-31 0 -31 30v37q0 111 -68.5 178.5t-164.5 67.5h-107
q-98 0 -158.5 -61.5t-60.5 -162.5t56.5 -161.5t177.5 -83.5l114 -20q180 -33 297 -146t117 -294t-119 -296.5t-286 -126.5q-18 -37 9 -46q15 -5 23 -5l27 -4q104 -12 149 -46t45 -130z" />
    <glyph glyph-name="scedilla" unicode="&#x15f;" horiz-adv-x="968" 
d="M811 -258q0 -156 -190 -156h-125q-84 0 -131.5 47.5t-49.5 124.5q0 20 19 21h117q20 0 20 -17q0 -49 74 -49h35q45 0 60 5.5t15 29.5q1 24 -25 30q-37 10 -131 20t-117.5 28t-23.5 63t45 105q-115 14 -203.5 89t-97.5 175q-4 31 31 31h127q29 0 37 -27q10 -41 55 -64.5
t97 -23.5h65q70 0 119 27.5t49 80t-41 74t-154 31.5q-190 18 -285.5 88t-95.5 207t100.5 213t254.5 76h41q133 0 240.5 -85t109.5 -210q0 -33 -29 -33h-125q-33 0 -34 31q-2 51 -53.5 81.5t-112.5 30.5h-52q-156 0 -155 -104q0 -49 42 -72.5t154 -38.5q190 -20 284.5 -87.5
t94.5 -211.5q0 -109 -85 -184.5t-212 -93.5q-36 -50 -14 -60.5t93.5 -19t117 -42.5t45.5 -130z" />
    <glyph glyph-name="Scaron" unicode="&#x160;" horiz-adv-x="1179" 
d="M524 1509h107q168 0 294 -122.5t126 -307.5v-37q0 -31 -31 -30h-125q-31 0 -31 30v37q0 111 -68.5 178.5t-164.5 67.5h-107q-98 0 -158.5 -61.5t-60.5 -162.5t56.5 -161.5t177.5 -83.5l114 -20q180 -33 297 -145.5t117 -297t-127 -302.5t-303 -118h-94q-170 0 -300 118
t-130 296v57q0 31 30 31h125q31 0 31 -31l2 -57q4 -104 73.5 -166.5t168.5 -62.5h94q104 0 175 64.5t71 175t-58.5 172t-177.5 81.5l-112 21q-188 35 -301 147.5t-113 289.5t115.5 288.5t287.5 111.5zM238 2163h137q20 0 47 -39l168 -238l168 238q27 39 47 39h137
q16 0 21.5 -12.5t-5.5 -26.5l-260 -367q-20 -33 -49 -33h-121q-24 0 -47 33l-260 367q-8 14 -4 26.5t21 12.5z" />
    <glyph glyph-name="scaron" unicode="&#x161;" horiz-adv-x="968" 
d="M866 282.5q0 -133.5 -107.5 -213t-254.5 -79.5h-51q-127 0 -233.5 77.5t-117.5 190.5q-4 31 31 31h127q29 0 37 -27q10 -41 55 -64.5t97 -23.5h65q70 0 119 27.5t49 80t-41 74t-154 31.5q-190 18 -285.5 88t-95.5 207t100.5 213t254.5 76h41q133 0 240.5 -85t109.5 -210
q0 -33 -29 -33h-125q-33 0 -34 31q-2 51 -53.5 81.5t-112.5 30.5h-52q-156 0 -155 -104q0 -49 41.5 -73t154.5 -38q190 -20 284.5 -87.5t94.5 -201zM133 1638h137q20 0 47 -39l168 -237l168 237q27 39 47 39h138q16 0 21 -12t-5 -27l-260 -366q-20 -33 -49 -33h-121
q-24 0 -47 33l-260 366q-8 14 -4 26.5t20 12.5z" />
    <glyph glyph-name="Tcedilla" unicode="&#x162;" horiz-adv-x="1134" 
d="M119 1487h899q31 0 31 -31v-123q0 -31 -31 -30h-356v-1272q0 -8 -5 -21q6 -6 -6 -22q-30 -42 -10.5 -53t92.5 -20t118.5 -43t45.5 -130q0 -156 -190 -156h-125q-84 0 -131.5 47.5t-49.5 124.5q0 20 19 21h117q20 0 20 -17q0 -49 74 -49h35q45 0 60 5.5t15 29.5
q1 24 -25 30q-37 10 -131 20t-117.5 29t-22.5 64.5t49 106.5l2 4q-18 2 -19 29v1272h-358q-31 0 -31 30v123q0 31 31 31z" />
    <glyph glyph-name="tcedilla" unicode="&#x163;" horiz-adv-x="667" 
d="M795 -258q0 -156 -191 -156h-125q-84 0 -131 47.5t-49 124.5q0 20 18 21h117q20 0 21 -17q0 -49 73 -49h35q45 0 60.5 5.5t15.5 29.5q1 24 -25 30q-33 9 -129.5 19.5t-119.5 29.5t-22 64.5t48 106.5q6 10 12 12q-199 57 -198 275v493h-103q-31 0 -30 31v121q0 33 30 33
h103v213q0 31 31 30h122q31 0 31 -30v-213h146q33 0 32 -31v-123q0 -31 -30 -31h-148v-434q0 -152 141 -156q33 0 33 -26l2 -133q0 -11 -14 -34.5t-19.5 -38.5t10.5 -24t89 -17.5t118.5 -42.5t45.5 -130z" />
    <glyph glyph-name="Tcaron" unicode="&#x164;" horiz-adv-x="1134" 
d="M119 1487h899q31 0 31 -31v-123q0 -31 -31 -30h-356v-1272q0 -31 -31 -31h-123q-31 0 -31 31v1272h-358q-31 0 -31 30v123q0 31 31 31zM219 2163h137q20 0 47 -39l168 -238l168 238q27 39 47 39h138q16 0 21 -12.5t-5 -26.5l-260 -367q-20 -33 -49 -33h-121q-24 0 -47 33
l-260 367q-8 14 -4 26.5t20 12.5z" />
    <glyph glyph-name="tcaron" unicode="&#x165;" horiz-adv-x="872" 
d="M389 963h146q33 0 32 -31v-123q0 -31 -30 -31h-148v-434q0 -152 141 -156q33 0 33 -26l2 -133q0 -33 -26 -33q-141 -4 -237.5 66.5t-96.5 222.5v493h-103q-31 0 -30 31v121q0 33 30 33h103v213q0 31 31 30h122q31 0 31 -30v-213zM561 1636h189q31 0 30 -30v-246
q0 -215 -116 -348q-18 -20 -41 0l-66 59q-25 27 -8 43q63 60 71 146q2 30 3 88l16 20h-78q-31 0 -31 31v207q0 30 31 30z" />
    <glyph glyph-name="Tbar" unicode="&#x166;" horiz-adv-x="1134" 
d="M119 1487h899q31 0 31 -31v-123q0 -31 -31 -30h-356v-340h233q31 0 31 -31v-123q0 -31 -31 -31h-233v-747q0 -31 -31 -31h-123q-31 0 -31 31v747h-246q-31 0 -30 31v123q0 31 30 31h246v340h-358q-31 0 -31 30v123q0 31 31 31z" />
    <glyph glyph-name="tbar" unicode="&#x167;" horiz-adv-x="667" 
d="M389 778v-129h148q31 0 30 -31v-122q0 -31 -30 -31h-148v-121q0 -152 141 -156q33 0 33 -26l2 -133q0 -33 -26 -33q-141 -4 -237.5 66.5t-96.5 222.5v180h-103q-31 0 -30 31v122q0 31 30 31h103v129h-103q-31 0 -30 31v121q0 33 30 33h103v213q0 31 31 30h122
q31 0 31 -30v-213h146q33 0 32 -31v-123q0 -31 -30 -31h-148z" />
    <glyph glyph-name="Utilde" unicode="&#x168;" horiz-adv-x="1181" 
d="M911 1487h123q31 0 31 -31v-1010q0 -200 -125 -330t-322 -130h-53q-197 0 -321 131t-125 329v1010q0 31 31 31h122q31 0 31 -31v-989q0 -129 67 -213t195 -84h53q129 0 196 84t67 213v989q-1 31 30 31zM922 2028l49 -97q14 -23 -21 -45q-104 -74 -191 -80t-189 54
t-143 56q-42 -3 -132 -65q-18 -12 -35 17l-49 96q-12 23 20 45q105 76 193 82t192 -59q96 -54 138 -52t133 64q21 13 35 -16z" />
    <glyph glyph-name="utilde" unicode="&#x169;" 
d="M920 932v-901q0 -31 -31 -31h-123q-31 0 -31 31v47q-84 -80 -186 -80h-84q-152 0 -242 106t-90 261v567q0 31 31 31h123q31 0 30 -31v-567q-1 -76 47 -128t121 -53h86q61 0 112 45q50 45 52 101v602q0 31 31 31h123q31 0 31 -31zM862 1503l49 -96q14 -23 -20 -45
q-103 -74 -191 -80t-189 53t-143 57t-132 -65q-18 -12 -35 16l-49 97q-12 23 20 45q104 76 192 82t193 -60q96 -55 138 -52t132 65q21 12 35 -17z" />
    <glyph glyph-name="Umacron" unicode="&#x16a;" horiz-adv-x="1181" 
d="M911 1487h123q31 0 31 -31v-1010q0 -200 -125 -330t-322 -130h-53q-197 0 -321 131t-125 329v1010q0 31 31 31h122q31 0 31 -31v-989q0 -129 67 -213t195 -84h53q129 0 196 84t67 213v989q-1 31 30 31zM924 1827h-664q-31 0 -31 31v122q0 31 31 31h664q31 0 30 -31v-122
q1 -31 -30 -31z" />
    <glyph glyph-name="umacron" unicode="&#x16b;" 
d="M920 932v-901q0 -31 -31 -31h-123q-31 0 -31 31v47q-84 -80 -186 -80h-84q-152 0 -242 106t-90 261v567q0 31 31 31h123q31 0 30 -31v-567q-1 -76 47 -128t121 -53h86q61 0 112 45q50 45 52 101v602q0 31 31 31h123q31 0 31 -31zM862 1303h-663q-31 0 -31 30v123
q0 31 31 31h663q31 0 31 -31v-123q0 -30 -31 -30z" />
    <glyph glyph-name="Ubreve" unicode="&#x16c;" horiz-adv-x="1181" 
d="M911 1487h123q31 0 31 -31v-1010q0 -200 -125 -330t-322 -130h-53q-197 0 -321 131t-125 329v1010q0 31 31 31h122q31 0 31 -31v-989q0 -129 67 -213t195 -84h53q129 0 196 84t67 213v989q-1 31 30 31zM805 2163h102q31 0 31 -31q-4 -145 -83 -230t-214 -85h-100
q-135 0 -214 85t-83 230q0 31 30 31h103q31 0 31 -31q12 -152 143 -152h82q69 0 103 43t38 109q0 31 31 31z" />
    <glyph glyph-name="ubreve" unicode="&#x16d;" 
d="M920 932v-901q0 -31 -31 -31h-123q-31 0 -31 31v47q-84 -80 -186 -80h-84q-152 0 -242 106t-90 261v567q0 31 31 31h123q31 0 30 -31v-567q-1 -76 47 -128t121 -53h86q61 0 112 45q50 45 52 101v602q0 31 31 31h123q31 0 31 -31zM743 1638h103q31 0 31 -30
q-4 -144 -83 -230t-214 -86h-101q-135 0 -214 85t-83 231q0 31 31 30h102q31 0 31 -30q12 -152 143 -152h82q70 0 104 43t38 109q-1 30 30 30z" />
    <glyph glyph-name="Uring" unicode="&#x16e;" horiz-adv-x="1181" 
d="M911 1487h123q31 0 31 -31v-1010q0 -200 -125 -330t-322 -130h-53q-197 0 -321 131t-125 329v1010q0 31 31 31h122q31 0 31 -31v-989q0 -129 67 -213t195 -84h53q129 0 196 84t67 213v989q-1 31 30 31zM672 1960v10q0 33 -20 52t-54 20h-12q-33 0 -52 -20t-20 -52v-10
q0 -74 72 -74h12q34 0 54 20t20 54zM578 2165h26q82 -1 135 -55t54 -136v-22q-1 -84 -53 -136t-136 -53h-26q-82 1 -136 53t-53 136v22q-1 82 53 136t136 55z" />
    <glyph glyph-name="uring" unicode="&#x16f;" 
d="M920 932v-901q0 -31 -31 -31h-123q-31 0 -31 31v47q-84 -80 -186 -80h-84q-152 0 -242 106t-90 261v567q0 31 31 31h123q31 0 30 -31v-567q-1 -76 47 -128t121 -53h86q61 0 112 45q50 45 52 101v602q0 31 31 31h123q31 0 31 -31zM610 1436v10q0 33 -20 52t-53 20h-13
q-33 0 -52 -20t-19 -52v-10q0 -74 71 -74h13q33 0 53 20t20 54zM516 1640h27q82 0 135 -54t53 -136v-23q0 -84 -52 -136t-136 -52h-27q-82 0 -135 52t-53 136v23q0 82 53 136t135 54z" />
    <glyph glyph-name="Uhungarumlaut" unicode="&#x170;" horiz-adv-x="1181" 
d="M911 1487h123q31 0 31 -31v-1010q0 -200 -125 -330t-322 -130h-53q-197 0 -321 131t-125 329v1010q0 31 31 31h122q31 0 31 -31v-989q0 -129 67 -213t195 -84h53q129 0 196 84t67 213v989q-1 31 30 31zM874 2163h152q39 0 21 -37l-179 -379q-20 -37 -43 -37h-127
q-36 0 -20 37l153 379q12 37 43 37zM520 2163h152q39 0 20 -37l-178 -379q-20 -37 -43 -37h-127q-36 0 -20 37l153 379q12 37 43 37z" />
    <glyph glyph-name="uhungarumlaut" unicode="&#x171;" 
d="M920 932v-901q0 -31 -31 -31h-123q-31 0 -31 31v47q-84 -80 -186 -80h-84q-152 0 -242 106t-90 261v567q0 31 31 31h123q31 0 30 -31v-567q-1 -76 47 -128t121 -53h86q61 0 112 45q50 45 52 101v602q0 31 31 31h123q31 0 31 -31zM965 1638q39 0 20 -36l-178 -379
q-20 -37 -43 -37h-127q-37 0 -21 37l154 379q12 37 43 36h152zM610 1638q39 0 21 -36l-178 -379q-20 -37 -43 -37h-127q-37 0 -21 37l154 379q12 37 43 36h151z" />
    <glyph glyph-name="Uogonek" unicode="&#x172;" horiz-adv-x="1181" 
d="M565 -385q-192 -1 -192 143q0 68 10 100q15 48 91 68q24 6 102 16t92 22q14 11 16 26q-41 -4 -66 -4h-53q-197 0 -321 131t-125 329v1010q0 31 31 31h122q31 0 31 -31v-989q0 -129 67 -213t195 -84h53q129 0 196 84t67 213v989q-1 31 30 31h123q31 0 31 -31v-1010
q-1 -138 -63 -246t-171 -163q6 -6 7 -10q43 -184 -125 -199q-156 -18 -166 -18q-27 -2 -27 -33q0 -17 14 -21t62 -4h231q20 0 21 -22v-95q0 -20 -21 -20h-262z" />
    <glyph glyph-name="uogonek" unicode="&#x173;" 
d="M647 -385q-192 -1 -192 143q0 68 10 100q15 48 91 68q24 6 102 16t94 24q14 15 14 34q-31 0 -31 31v47q-84 -80 -186 -80h-84q-152 0 -242 106t-90 261v567q0 31 31 31h123q31 0 30 -31v-567q-1 -76 47 -128t121 -53h86q61 0 112 45q50 45 52 101v602q0 31 31 31h123
q31 0 31 -31v-905q43 -184 -125 -199q-156 -18 -166 -18q-27 -2 -27 -33q0 -18 13 -22q14 -3 63 -3h231q20 0 21 -22v-95q0 -20 -21 -20h-262z" />
    <glyph glyph-name="Wcircumflex" unicode="&#x174;" horiz-adv-x="1880" 
d="M1636 1487h133q33 0 27 -31l-328 -1425q-6 -31 -38 -31h-103q-29 0 -39 31l-348 1126l-348 -1126q-8 -31 -39 -31h-102q-33 0 -39 31l-328 1425q-6 31 25 31h133q31 0 37 -31l239 -1106l326 1106q8 31 39 31h114q31 0 39 -31l330 -1106l236 1106q5 31 34 31zM881 2163
h120q27 0 50 -33l260 -367q10 -14 5 -26t-22 -13h-137q-20 0 -47 39l-168 238l-168 -238q-27 -39 -47 -39h-137q-16 0 -22 12t5 27l261 367q23 33 47 33z" />
    <glyph glyph-name="wcircumflex" unicode="&#x175;" horiz-adv-x="1400" 
d="M1178 963h127q35 0 24 -35l-242 -895q-10 -33 -38 -33h-107q-29 0 -39 33l-203 629l-200 -629q-10 -33 -39 -33h-107q-29 0 -39 33l-241 895q-10 35 24 35h127q27 0 37 -35l158 -649l190 649q10 35 37 35h109q25 0 37 -35l188 -649l160 649q10 35 37 35zM762 1638
q27 0 49 -32l260 -367q10 -15 5 -27t-21 -12h-137q-20 0 -48 39l-168 238l-167 -238q-27 -39 -48 -39h-137q-16 0 -21 12t5 27l260 367q23 33 47 32h121z" />
    <glyph glyph-name="Ycircumflex" unicode="&#x176;" horiz-adv-x="1159" 
d="M926 1487h141q39 0 20 -31l-417 -803v-622q0 -31 -31 -31h-123q-31 0 -31 31v622l-413 803q-14 31 20 31h141q25 0 41 -31l304 -604l307 604q16 31 41 31zM514 2163h121q27 0 49 -33l260 -367q10 -14 5 -26t-21 -13h-137q-20 0 -48 39l-168 238l-167 -238
q-27 -39 -48 -39h-137q-16 0 -21 12t5 27l260 367q23 33 47 33z" />
    <glyph glyph-name="ycircumflex" unicode="&#x177;" 
d="M834 963h135q33 0 18 -37l-545 -1301q-14 -35 -45 -35h-135q-35 0 -20 37l190 451l-356 848q-14 37 18 37h137q29 0 43 -35l258 -611l256 611q15 35 46 35zM319 1200h-137q-16 0 -21 12t5 27l260 367q23 33 47 32h121q27 0 49 -32l260 -367q10 -15 5 -27t-21 -12h-137
q-20 0 -48 39l-167 238l-168 -238q-28 -39 -48 -39z" />
    <glyph glyph-name="Ydieresis" unicode="&#x178;" horiz-adv-x="1159" 
d="M926 1487h141q39 0 20 -31l-417 -803v-622q0 -31 -31 -31h-123q-31 0 -31 31v622l-413 803q-14 31 20 31h141q25 0 41 -31l304 -604l307 604q16 31 41 31zM729 1798v182q0 31 31 31h174q31 0 31 -31v-182q0 -31 -31 -31h-174q-31 0 -31 31zM186 1798v182q0 31 31 31h174
q31 0 31 -31v-182q0 -31 -31 -31h-174q-31 0 -31 31z" />
    <glyph glyph-name="Zacute" unicode="&#x179;" horiz-adv-x="1107" 
d="M1006 1456v-76q0 -20 -7 -28l-651 -1168h627q31 0 31 -30v-123q0 -31 -31 -31h-842q-31 0 -31 31v75q0 20 7 29l651 1168h-627q-31 0 -31 30v123q0 31 31 31h842q31 0 31 -31zM668 2163h151q39 0 21 -37l-178 -379q-20 -37 -44 -37h-126q-37 0 -21 37l154 379
q12 37 43 37z" />
    <glyph glyph-name="zacute" unicode="&#x17a;" horiz-adv-x="905" 
d="M823 932v-96q0 -14 -10 -29l-471 -623h449q33 0 32 -30v-123q0 -31 -30 -31h-680q-31 0 -31 31v90q0 20 10 33l473 624h-452q-31 0 -31 31v121q0 33 31 33h678q32 0 32 -31zM717 1638q39 0 20 -36l-178 -379q-20 -37 -43 -37h-127q-36 0 -20 37l153 379q12 37 43 36h152z
" />
    <glyph glyph-name="Zdotaccent" unicode="&#x17b;" horiz-adv-x="1107" 
d="M1006 1456v-76q0 -20 -7 -28l-651 -1168h627q31 0 31 -30v-123q0 -31 -31 -31h-842q-31 0 -31 31v75q0 20 7 29l651 1168h-627q-31 0 -31 30v123q0 31 31 31h842q31 0 31 -31zM432 1792v186q0 33 33 33h182q31 0 31 -33v-186q0 -33 -31 -33h-182q-33 0 -33 33z" />
    <glyph glyph-name="zdotaccent" unicode="&#x17c;" horiz-adv-x="905" 
d="M823 932v-96q0 -14 -10 -29l-471 -623h449q33 0 32 -30v-123q0 -31 -30 -31h-680q-31 0 -31 31v90q0 20 10 33l473 624h-452q-31 0 -31 31v121q0 33 31 33h678q32 0 32 -31zM330 1268v186q0 33 32 33h183q31 0 30 -33v-186q0 -33 -30 -33h-183q-32 0 -32 33z" />
    <glyph glyph-name="Zcaron" unicode="&#x17d;" horiz-adv-x="1107" 
d="M1006 1456v-76q0 -20 -7 -28l-651 -1168h627q31 0 31 -30v-123q0 -31 -31 -31h-842q-31 0 -31 31v75q0 20 7 29l651 1168h-627q-31 0 -31 30v123q0 31 31 31h842q31 0 31 -31zM340 2163q20 0 47 -39l168 -238l168 238q27 39 47 39h137q15 -1 21 -13t-4 -26l-260 -367
q-20 -33 -50 -33h-120q-25 0 -48 33l-260 367q-8 14 -4 26t21 13h137z" />
    <glyph glyph-name="zcaron" unicode="&#x17e;" horiz-adv-x="905" 
d="M823 932v-96q0 -14 -10 -29l-471 -623h449q33 0 32 -30v-123q0 -31 -30 -31h-680q-31 0 -31 31v90q0 20 10 33l473 624h-452q-31 0 -31 31v121q0 33 31 33h678q32 0 32 -31zM100 1638h138q20 0 47 -39l168 -237l168 237q27 39 47 39h137q16 0 21 -12t-5 -27l-260 -366
q-20 -33 -49 -33h-121q-24 0 -47 33l-260 366q-8 15 -4 27t20 12z" />
    <glyph glyph-name="florin" unicode="&#x192;" horiz-adv-x="806" 
d="M666 1487h79q31 0 31 -31v-123q0 -31 -31 -30h-18q-107 1 -159 -55t-52 -177v-1096q0 -174 -91 -279t-243 -106h-80q-31 0 -30 31v123q0 31 30 31h19q106 0 159 55q52 55 52 176v772h-105q-31 0 -30 31v123q0 31 30 31h105v139q0 174 91 280t243 105z" />
    <glyph glyph-name="Acaron" unicode="&#x1cd;" horiz-adv-x="1232" 
d="M791 575l-170 570l-175 -570h345zM1114 0h-123q-31 0 -39 33l-106 358h-457l-108 -358q-8 -33 -37 -33h-125q-35 0 -23 33l430 1427q10 33 39 33h107q29 0 39 -33l428 -1427q8 -33 -25 -33zM401 2163q20 0 48 -39l167 -238l168 238q27 39 47 39h138q16 -1 21 -13t-5 -26
l-260 -367q-20 -33 -49 -33h-121q-24 0 -47 33l-260 367q-8 14 -4 26t20 13h137z" />
    <glyph glyph-name="acaron" unicode="&#x1ce;" horiz-adv-x="976" 
d="M387 182h105q104 2 178 88v144h-283q-55 0 -85 -31t-30 -82t34 -85t81 -34zM854 610v-561q0 -13 4 -31t-6 -18h-147q-35 0 -35 49v31q-96 -82 -195 -82h-94q-113 -2 -202 87t-89 214t85 206t216 81h279v32q0 80 -41 123t-107 43h-100q-111 0 -174 -63q-23 -20 -47 4
l-68 82q-20 20 -2 41q106 119 307 119h97q127 -1 223 -101t96 -256zM133 1638h137q20 0 47 -39l168 -237l168 237q27 39 47 39h138q16 0 21 -12t-5 -27l-260 -366q-20 -33 -49 -33h-121q-24 0 -47 33l-260 366q-8 15 -4 27t20 12z" />
    <glyph glyph-name="Icaron" unicode="&#x1cf;" horiz-adv-x="524" 
d="M170 31v1425q0 31 31 31h125q31 0 30 -31v-1425q0 -31 -30 -31h-125q-31 0 -31 31zM47 2163q20 0 47 -39l168 -238l168 238q27 39 47 39h137q16 -1 22 -13t-5 -26l-260 -367q-20 -33 -49 -33h-121q-24 0 -47 33l-260 367q-10 14 -6 26q5 12 22 13h137z" />
    <glyph glyph-name="icaron" unicode="&#x1d0;" horiz-adv-x="512" 
d="M164 31v903q0 31 31 31h122q31 0 31 -31v-903q0 -31 -31 -31h-122q-31 0 -31 31zM-96 1638h137q20 0 47 -39l168 -237l168 237q27 39 47 39h137q16 0 22 -12t-5 -27l-260 -366q-20 -33 -50 -33h-120q-25 0 -48 33l-260 366q-10 15 -5 27t22 12z" />
    <glyph glyph-name="Ocaron" unicode="&#x1d1;" horiz-adv-x="1206" 
d="M553 164h100q109 0 177 85t69 212v567q0 127 -69 212t-177 85h-100q-109 0 -177 -85t-69 -212v-567q1 -127 69 -212t177 -85zM553 1509h100q176 0 303 -143t127 -346v-551q0 -203 -127 -346t-303 -143h-100q-176 0 -303 143t-127 346v551q0 203 127 346t303 143z
M389 2163q20 0 47 -39l168 -238l168 238q27 39 47 39h137q16 -1 22 -13t-5 -26l-260 -367q-20 -33 -49 -33h-121q-24 0 -47 33l-260 367q-8 14 -5 26q4 12 21 13h137z" />
    <glyph glyph-name="ocaron" unicode="&#x1d2;" horiz-adv-x="1038" 
d="M741 375v213q0 80 -49 138t-131 58h-84q-82 0 -131 -57t-49 -139v-213q0 -80 49 -136t131 -57h84q82 0 131 56t49 137zM479 969h80q151 0 259 -113t108 -268v-213q0 -153 -106 -265t-261 -112h-80q-154 0 -260 112t-106 265v213q0 156 107 268t259 113zM168 1638h137
q20 0 47 -39l168 -237l168 237q27 39 47 39h137q16 0 22 -12t-5 -27l-260 -366q-20 -33 -49 -33h-121q-24 0 -47 33l-260 366q-8 14 -5 27q4 12 21 12z" />
    <glyph glyph-name="ucaron" unicode="&#x1d4;" 
d="M920 932v-901q0 -31 -31 -31h-123q-31 0 -31 31v47q-84 -80 -186 -80h-84q-152 0 -242 106t-90 261v567q0 31 31 31h123q31 0 30 -31v-567q-1 -76 47 -128t121 -53h86q61 0 112 45q50 45 52 101v602q0 31 31 31h123q31 0 31 -31zM178 1638h137q20 0 47 -39l168 -237
l168 237q27 39 47 39h138q16 0 21 -12t-5 -27l-260 -366q-20 -33 -49 -33h-121q-24 0 -47 33l-260 366q-8 15 -4 27t20 12z" />
    <glyph glyph-name="Gcaron" unicode="&#x1e6;" horiz-adv-x="1175" 
d="M621 770h411q31 0 31 -31v-284q0 -203 -124 -342.5t-302 -139.5h-94q-184 0 -309 140.5t-125 349.5v559q0 209 125.5 348t308.5 139h94q176 0 300 -137t126 -336q0 -31 -31 -30h-123q-33 0 -32 30q0 129 -67 209t-173 80h-94q-113 0 -181.5 -82t-68.5 -221v-559
q0 -141 67.5 -223t182.5 -82h94q109 0 174.5 80.5t65.5 216.5v131h-256q-31 0 -31 30v123q0 31 31 31zM250 2163h137q20 0 47 -39l168 -238l168 238q27 39 47 39h137q16 0 21.5 -12.5t-4.5 -26.5l-260 -367q-20 -33 -49 -33h-121q-24 0 -47 33l-261 367q-8 14 -4 26.5
t21 12.5z" />
    <glyph glyph-name="gcaron" unicode="&#x1e7;" horiz-adv-x="1001" 
d="M471 182h70q76 0 149 70v414q0 45 -49 82t-106 36h-74q-70 0 -122 -55t-52 -131v-233q0 -75 56 -129t128 -54zM756 963h92q31 0 31 -31v-1034q1 -115 -101 -211t-235 -97h-51q-106 0 -200 56t-147 149q-18 29 21 45l88 45q31 12 51 -10q70 -100 176 -100h62q53 0 100 36
t47 93v135q-76 -41 -155 -41h-64q-145 0 -257 112t-112 255v233q0 145 108 258t251 113h74q86 0 174 -68l12 27q12 35 35 35zM150 1638h137q20 0 47 -39l168 -237l168 237q27 39 47 39h137q16 0 22 -12t-6 -27l-260 -366q-20 -33 -49 -33h-121q-24 0 -47 33l-260 366
q-8 15 -4 27t21 12z" />
    <glyph glyph-name="Scommaaccent" unicode="&#x218;" horiz-adv-x="1179" 
d="M502 -369h188q31 0 31 -30v-246q0 -215 -117 -348q-18 -20 -41 0l-65 59q-27 25 -9 43q35 33 52.5 75t19.5 71.5t2 87.5l17 20h-78q-31 0 -31 31v207q0 30 31 30zM524 1509h107q168 0 294 -122.5t126 -307.5v-37q0 -31 -31 -30h-125q-31 0 -31 30v37q0 111 -68.5 178.5
t-164.5 67.5h-107q-98 0 -158.5 -61.5t-60.5 -162.5t56.5 -161.5t177.5 -83.5l114 -20q180 -33 297 -145.5t117 -297t-127 -302.5t-303 -118h-94q-170 0 -300 118t-130 296v57q0 31 30 31h125q31 0 31 -31l2 -57q4 -104 73.5 -166.5t168.5 -62.5h94q104 0 175 64
q71 66 71 176t-58.5 171.5t-177.5 81.5l-112 21q-188 35 -301 147.5t-113 289.5t115.5 288.5t287.5 111.5z" />
    <glyph glyph-name="scommaaccent" unicode="&#x219;" horiz-adv-x="968" 
d="M397 -369h189q31 0 30 -30v-246q0 -215 -116 -348q-18 -20 -41 0l-66 59q-27 25 -8 43q35 33 52.5 75t19.5 71.5t2 87.5l16 20h-78q-31 0 -30 31v207q-1 30 30 30zM866 282.5q0 -133.5 -107.5 -213t-254.5 -79.5h-51q-127 0 -233.5 77.5t-117.5 190.5q-4 31 31 31h127
q29 0 37 -27q10 -41 55 -64.5t97 -23.5h65q70 0 119 27.5t49 80t-41 74t-154 31.5q-190 18 -285.5 88t-95.5 207t100.5 213t254.5 76h41q133 0 240.5 -85t109.5 -210q0 -33 -29 -33h-125q-33 0 -34 31q-2 51 -53.5 81.5t-112.5 30.5h-52q-156 0 -155 -104q0 -49 41.5 -73
t154.5 -38q190 -20 284.5 -87.5t94.5 -201z" />
    <glyph glyph-name="uni021A" unicode="&#x21a;" horiz-adv-x="1134" 
d="M481 -369h189q31 0 30 -30v-246q0 -215 -116 -348q-18 -20 -41 0l-66 59q-27 25 -8 43q35 33 52.5 75t19.5 71.5t2 87.5l16 20h-78q-31 0 -30 31v207q-1 30 30 30zM119 1487h899q31 0 31 -31v-123q0 -31 -31 -30h-356v-1272q0 -31 -31 -31h-123q-31 0 -31 31v1272h-358
q-31 0 -31 30v123q0 31 31 31z" />
    <glyph glyph-name="uni021B" unicode="&#x21b;" horiz-adv-x="667" 
d="M381 -369h188q31 0 31 -30v-246q0 -215 -117 -348q-18 -20 -41 0l-65 59q-27 25 -8 43q65 63 71 147q2 30 2 87l17 20h-78q-31 0 -31 31v207q0 30 31 30zM205 285v493h-103q-31 0 -30 31v121q0 33 30 33h103v213q0 31 31 30h122q31 0 31 -30v-213h146q33 0 32 -31v-123
q0 -31 -30 -31h-148v-434q0 -152 141 -156q33 0 33 -26l2 -133q1 -33 -26 -33q-141 -4 -237.5 66.5t-96.5 222.5z" />
    <glyph glyph-name="uni0228" unicode="&#x228;" horiz-adv-x="1134" 
d="M317 1303v-461h535q31 0 31 -31v-123q0 -31 -31 -31h-535v-473h668q31 0 31 -30v-123q0 -31 -31 -31h-305q-15 -15 -23 -37t8 -31t89 -17.5t118.5 -42.5t45.5 -130q0 -156 -191 -156h-125q-84 0 -131 47.5t-49 124.5q0 20 18 21h117q20 0 21 -17q0 -49 73 -49h35
q45 0 60.5 5.5t15.5 29t-26 30.5q-33 9 -129.5 20t-119 29.5t-21.5 64t48 106.5l2 2h-352q-31 0 -31 31v1425q0 31 31 31h821q31 0 31 -31v-123q0 -31 -31 -30h-668z" />
    <glyph glyph-name="uni0229" unicode="&#x229;" horiz-adv-x="1011" 
d="M303 586h422v24q0 74 -53.5 124t-112.5 50h-78q-70 0 -124 -52t-54 -122v-24zM303 426v-61q0 -78 53.5 -130.5t124.5 -52.5h84q84 0 180 111q23 25 46 4l90 -80q23 -20 6 -43q-63 -76 -131 -122t-164 -54q-18 -27 -23.5 -42t10.5 -24t89 -17.5t118 -42.5t45 -130
q0 -156 -190 -156h-125q-84 0 -131 47.5t-49 124.5q0 20 18 21h117q20 0 21 -17q0 -49 73 -49h35q45 0 60.5 5.5t15.5 29t-26 30.5q-33 9 -129.5 20t-119 29.5t-21.5 64t48 106.5l4 4q-129 20 -221 124.5t-92 238.5v233q0 147 109.5 259t254.5 112h78q129 0 238.5 -107.5
t109.5 -261.5v-113q0 -61 -61 -61h-545z" />
    <glyph glyph-name="dotlessj" unicode="&#x237;" horiz-adv-x="503" 
d="M158 -106v1040q0 31 30 31h123q31 0 31 -31v-1047q0 -113 -73 -207t-185 -129q-27 -8 -39 21l-49 117q-10 31 20 39q57 20 100 64q42 44 42 102z" />
    <glyph glyph-name="circumflex" unicode="&#x2c6;" horiz-adv-x="956" 
d="M539 1638q27 0 49 -32l260 -367q10 -15 5 -27t-22 -12h-137q-20 0 -47 39l-168 238l-168 -238q-27 -39 -47 -39h-137q-16 0 -22 12q-4 13 6 27l260 367q23 33 47 32h121z" />
    <glyph glyph-name="caron" unicode="&#x2c7;" horiz-adv-x="954" 
d="M125 1638h137q20 0 47 -39l168 -237l168 237q27 39 47 39h137q15 0 21 -12t-4 -27l-260 -366q-20 -33 -49 -33h-121q-24 0 -47 33l-260 366q-8 14 -5 27q4 12 21 12z" />
    <glyph glyph-name="breve" unicode="&#x2d8;" horiz-adv-x="899" 
d="M664 1638h102q31 0 31 -30q-4 -144 -83 -230t-214 -86h-101q-135 0 -214 85t-83 231q0 31 31 30h103q31 0 30 -30q12 -152 144 -152h82q70 0 104 43t37 109q0 30 31 30z" />
    <glyph glyph-name="dotaccent" unicode="&#x2d9;" horiz-adv-x="450" 
d="M102 1268v186q0 33 33 33h182q31 0 31 -33v-186q0 -33 -31 -33h-182q-33 0 -33 33z" />
    <glyph glyph-name="ring" unicode="&#x2da;" horiz-adv-x="608" 
d="M385 1436v10q0 33 -20 52t-54 20h-12q-33 0 -52 -20t-20 -52v-10q0 -74 72 -74h12q33 0 54 19q20 20 20 55zM291 1640h26q81 0 135 -54t54 -136v-23q0 -84 -52 -136t-137 -52h-26q-82 0 -135 52t-54 136v23q0 82 54 136t135 54z" />
    <glyph glyph-name="ogonek" unicode="&#x2db;" horiz-adv-x="659" 
d="M238 -414q-193 0 -193 144q0 68 10 99q14 46 91 69q24 6 102 15t96 27t13 42t2 28t18 4h108q20 0 25 -16q43 -184 -125 -199q-156 -18 -166 -18q-27 -3 -27 -27t14 -27q13 -3 62 -3h232q20 0 20 -23v-94q0 -20 -20 -21h-262z" />
    <glyph glyph-name="tilde" unicode="&#x2dc;" horiz-adv-x="970" 
d="M817 1503l49 -96q14 -23 -20 -45q-104 -74 -192 -80t-188 53q-101 59 -143 57t-133 -65q-18 -12 -34 16l-50 97q-12 23 21 45q104 76 192 82t193 -60q96 -55 138 -52t132 65q21 12 35 -17z" />
    <glyph glyph-name="hungarumlaut" unicode="&#x2dd;" horiz-adv-x="937" 
d="M809 1638q39 0 20 -36l-178 -379q-20 -37 -43 -37h-127q-36 0 -20 37l153 379q12 37 43 36h152zM455 1638q39 0 20 -36l-178 -379q-20 -37 -43 -37h-127q-37 0 -21 37l154 379q12 37 43 36h152z" />
    <glyph glyph-name="uni0326" unicode="&#x326;" horiz-adv-x="0" 
d="M143 -410h189q31 0 30 -30v-246q0 -215 -116 -348q-18 -20 -41 0l-66 59q-27 25 -8 43q35 33 52.5 75t19.5 71.5t2 87.5l16 20h-78q-31 0 -30 31v207q-1 30 30 30z" />
    <glyph glyph-name="Delta" unicode="&#x394;" horiz-adv-x="1253" 
d="M934 184l-303 1033l-312 -1033h615zM1135 0h-1016q-35 0 -23 33l441 1427q10 33 38 33h107q29 0 39 -33l438 -1427q8 -33 -24 -33z" />
    <glyph glyph-name="Omega" unicode="&#x3a9;" horiz-adv-x="1200" 
d="M1077 1022v-471q0 -207 -149 -367h116q31 0 31 -30v-123q0 -31 -31 -31h-364q-31 0 -31 31v184q0 31 31 31h6q90 0 149 87q58 87 58 208v481q0 145 -68 225t-178 80h-94q-111 0 -179 -80t-67 -225v-481q1 -121 59 -208t148 -87h6q31 0 31 -31v-184q0 -31 -31 -31h-364
q-31 0 -31 31v123q0 31 31 30h116q-150 160 -149 367v471q0 203 127 346t303 143h94q176 0 303 -143t127 -346z" />
    <glyph glyph-name="mu" unicode="&#x3bc;" 
d="M766 963h123q31 0 31 -31v-901q0 -31 -31 -31h-123q-31 0 -31 31v47q-84 -80 -186 -80h-84q-76 0 -146 33v-410q0 -31 -30 -31h-123q-31 0 -31 31v701q-2 14 -2 43v567q0 31 31 31h125q31 0 30 -31v-596q9 -66 55 -109t111 -43h86q61 0 112 45q50 45 52 101v602
q0 31 31 31z" />
    <glyph glyph-name="pi" unicode="&#x3c0;" horiz-adv-x="1165" 
d="M131 963h901q31 0 31 -31v-125q0 -29 -31 -29h-49v-747q0 -31 -31 -31h-123q-31 0 -30 31v747h-434v-747q0 -31 -31 -31h-123q-31 0 -31 31v747h-47q-31 0 -31 31v123q0 31 29 31z" />
    <glyph glyph-name="uni0401" unicode="&#x401;" horiz-adv-x="1134" 
d="M317 842h535q31 0 31 -31v-123q0 -31 -31 -31h-535v-473h668q31 0 31 -30v-123q0 -31 -31 -31h-821q-31 0 -31 31v1425q0 31 31 31h821q31 0 31 -31v-123q0 -31 -31 -30h-668v-461zM745 1798v182q0 31 31 31h174q31 0 31 -31v-182q0 -31 -31 -31h-174q-31 0 -31 31z
M203 1798v182q0 31 30 31h175q31 0 30 -31v-182q0 -31 -30 -31h-175q-30 0 -30 31z" />
    <glyph glyph-name="uni0403" unicode="&#x403;" horiz-adv-x="1148" 
d="M164 1487h821q31 0 31 -31v-123q0 -31 -31 -30h-668v-1272q0 -31 -30 -31h-123q-31 0 -31 31v1425q0 31 31 31zM639 1710h-127q-37 0 -20 37l153 379q12 37 43 37h152q39 0 20 -37l-178 -379q-20 -37 -43 -37z" />
    <glyph glyph-name="uni0404" unicode="&#x404;" horiz-adv-x="1159" 
d="M903 481h123q31 0 31 -30q-2 -199 -126 -338.5t-300 -139.5h-94q-182 0 -308.5 141.5t-126.5 350.5v557q0 209 126 348t309 139h94q176 0 300 -137t126 -336q0 -31 -31 -30h-123q-33 0 -33 30q0 129 -66.5 209t-172.5 80h-94q-113 0 -181.5 -82t-68.5 -221v-186h309
q31 0 31 -31v-123q0 -31 -31 -31h-309v-186q0 -141 68.5 -224t181.5 -83h94q106 0 173.5 82t65.5 211q0 30 33 30z" />
    <glyph glyph-name="uni0406" unicode="&#x406;" horiz-adv-x="524" 
d="M170 31v1425q0 31 31 31h125q31 0 30 -31v-1425q0 -31 -30 -31h-125q-31 0 -31 31z" />
    <glyph glyph-name="uni0407" unicode="&#x407;" horiz-adv-x="524" 
d="M170 31v1425q0 31 31 31h125q31 0 30 -31v-1425q0 -31 -30 -31h-125q-31 0 -31 31zM416 1798v182q0 31 30 31h175q31 0 30 -31v-182q0 -31 -30 -31h-175q-30 0 -30 31zM-127 1798v182q0 31 31 31h174q31 0 31 -31v-182q0 -31 -31 -31h-174q-31 0 -31 31z" />
    <glyph glyph-name="uni0408" unicode="&#x408;" horiz-adv-x="1118" 
d="M496 170h53q115 0 189 84t73 223v979q0 31 31 31h123q31 0 30 -31v-989q0 -213 -130 -347t-306 -134h-63q-127 0 -244 79t-166 203q-11 25 16 41l101 58q20 12 37 -19q90 -178 256 -178z" />
    <glyph glyph-name="uni040C" unicode="&#x40c;" horiz-adv-x="1208" 
d="M1104 0h-150q-29 0 -55 29l-520 612l-72 -82v-528q0 -31 -31 -31h-122q-31 0 -31 31v1425q0 31 31 31h122q31 0 31 -31v-657l531 659q20 29 39 29h161q16 0 20.5 -15.5t-11.5 -35.5l-529 -668l598 -719q12 -12 9 -30.5t-21 -18.5zM702 2163h152q39 0 20 -37l-178 -379
q-20 -37 -43 -37h-127q-36 0 -20 37l153 379q12 37 43 37z" />
    <glyph glyph-name="uni040D" unicode="&#x40d;" horiz-adv-x="1292" 
d="M164 1487h123q31 0 30 -31v-1139l601 1147q12 23 36 23h174q31 0 31 -31v-1425q0 -31 -31 -31h-122q-31 0 -31 31v1138l-600 -1146q-10 -23 -37 -23h-174q-31 0 -31 31v1425q0 31 31 31zM698 1710h-116q-23 0 -43 37l-179 379q-18 37 21 37h141q31 0 43 -37l154 -379
q16 -37 -21 -37z" />
    <glyph glyph-name="uni040E" unicode="&#x40e;" horiz-adv-x="1224" 
d="M965 1487h135q33 0 18 -37l-635 -1415q-14 -35 -45 -35h-135q-35 0 -20 37l235 524l-412 889q-18 37 19 37h137q29 0 43 -35l313 -670l302 670q14 35 45 35zM664 1817h-101q-135 0 -214 85t-83 230q0 31 31 31h102q31 0 31 -31q12 -152 143 -152h82q70 0 104 43t38 109
q0 31 30 31h103q31 0 31 -31q-4 -145 -83 -230t-214 -85z" />
    <glyph glyph-name="uni0410" unicode="&#x410;" horiz-adv-x="1232" 
d="M791 575l-170 570l-175 -570h345zM1114 0h-123q-31 0 -39 33l-106 358h-457l-108 -358q-8 -33 -37 -33h-125q-35 0 -23 33l430 1427q10 33 39 33h107q29 0 39 -33l428 -1427q8 -33 -25 -33z" />
    <glyph glyph-name="uni0411" unicode="&#x411;" horiz-adv-x="1183" 
d="M317 184h324q113 0 169 56t56 184q0 129 -57 185t-168 57h-324v-482zM317 850h334q182 0 291 -115t109 -311t-108 -310t-292 -114h-487q-31 0 -31 31v1425q0 31 31 31h743q31 0 31 -31v-123q0 -31 -31 -30h-590v-453z" />
    <glyph glyph-name="uni0412" unicode="&#x412;" horiz-adv-x="1196" 
d="M317 184h342q125 0 183 52t57 175q0 121 -60 189t-177 68h-345v-484zM317 852h347q201 0 200 238q0 213 -213 213h-334v-451zM680 0h-510q-37 0 -37 37v1413q0 37 37 37h494q176 0 280 -99t105 -278q0 -260 -158 -346q193 -86 192 -377q0 -387 -403 -387z" />
    <glyph glyph-name="uni0413" unicode="&#x413;" horiz-adv-x="1148" 
d="M164 1487h821q31 0 31 -31v-123q0 -31 -31 -30h-668v-1272q0 -31 -30 -31h-123q-31 0 -31 31v1425q0 31 31 31z" />
    <glyph glyph-name="uni0414" unicode="&#x414;" horiz-adv-x="1554" 
d="M1130 184v1119h-575v-611q0 -324 -80 -508h655zM1315 184h117q31 0 30 -30v-322q0 -31 -30 -31h-123q-31 0 -31 31v168h-1012v-168q0 -31 -30 -31h-123q-31 0 -31 31v322q0 31 31 30h96q46 0 85 81q74 148 77 476v715q0 31 30 31h883q31 0 31 -31v-1272z" />
    <glyph glyph-name="uni0415" unicode="&#x415;" horiz-adv-x="1134" 
d="M317 842h535q31 0 31 -31v-123q0 -31 -31 -31h-535v-473h668q31 0 31 -30v-123q0 -31 -31 -31h-821q-31 0 -31 31v1425q0 31 31 31h821q31 0 31 -31v-123q0 -31 -31 -30h-668v-461z" />
    <glyph glyph-name="uni0416" unicode="&#x416;" horiz-adv-x="1984" 
d="M1882 0h-151q-29 0 -56 29l-518 612l-72 -82v-528q0 -31 -30 -31h-123q-31 0 -31 31v528l-72 82l-520 -612q-27 -29 -55 -29h-150q-18 0 -21 18t9 31l598 719l-528 668q-16 20 -12 35t20 16h162q16 0 39 -29l530 -659v657q0 31 31 31h123q31 0 30 -31v-657l529 659
q25 29 39 29h164q16 1 19 -15t-11 -36l-531 -668l600 -719q16 -21 8 -35q-7 -14 -20 -14z" />
    <glyph glyph-name="uni0417" unicode="&#x417;" horiz-adv-x="1148" 
d="M610 852q238 11 238 242q0 106 -66 170t-170 63h-88q-98 0 -167 -70t-68 -174v-39q0 -31 -31 -30h-125q-31 0 -31 30v39q0 185 129 307t293 121h88q170 1 295 -115t125 -268t-58 -238q-58 -85 -179 -134q252 -102 252 -377q0 -176 -129 -287t-306 -110h-86
q-168 0 -297 114t-127 295v39q0 31 31 31h125q31 0 31 -31v-39q0 -98 69 -162q70 -63 168 -63h86q111 0 181 61t69 162q0 254 -252 266h-149q-31 0 -31 31v135q0 31 31 31h149z" />
    <glyph glyph-name="uni0418" unicode="&#x418;" horiz-adv-x="1292" 
d="M164 1487h123q31 0 30 -31v-1139l601 1147q12 23 36 23h174q31 0 31 -31v-1425q0 -31 -31 -31h-122q-31 0 -31 31v1138l-600 -1146q-10 -23 -37 -23h-174q-31 0 -31 31v1425q0 31 31 31z" />
    <glyph glyph-name="uni0419" unicode="&#x419;" horiz-adv-x="1292" 
d="M164 1487h123q31 0 30 -31v-1139l601 1147q12 23 36 23h174q31 0 31 -31v-1425q0 -31 -31 -31h-122q-31 0 -31 31v1138l-600 -1146q-10 -23 -37 -23h-174q-31 0 -31 31v1425q0 31 31 31zM860 2163h103q31 0 30 -31q-4 -145 -83 -230t-214 -85h-100q-135 0 -214 85
t-83 230q0 31 31 31h102q31 0 31 -31q12 -152 143 -152h82q70 0 103.5 43t37.5 109q0 31 31 31z" />
    <glyph glyph-name="uni041A" unicode="&#x41a;" horiz-adv-x="1208" 
d="M1104 0h-150q-29 0 -55 29l-520 612l-72 -82v-528q0 -31 -31 -31h-122q-31 0 -31 31v1425q0 31 31 31h122q31 0 31 -31v-657l531 659q20 29 39 29h161q16 0 20.5 -15.5t-11.5 -35.5l-529 -668l598 -719q12 -12 9 -30.5t-21 -18.5z" />
    <glyph glyph-name="uni041B" unicode="&#x41b;" horiz-adv-x="1345" 
d="M279 1487h903q31 0 30 -31v-1425q0 -31 -30 -31h-123q-31 0 -31 31v1272h-596v-1008q0 -157 -108 -231t-246 -68q-27 0 -27 33l2 133q0 27 33 26q162 6 162 177v1091q0 31 31 31z" />
    <glyph glyph-name="uni041C" unicode="&#x41c;" horiz-adv-x="1480" 
d="M1122 1487h185q31 0 30 -31v-1425q0 -31 -30 -31h-123q-31 0 -31 31v1097l-334 -1097q-8 -31 -39 -31h-84q-29 0 -39 31l-333 1097v-1097q0 -31 -31 -31h-123q-31 0 -31 31v1425q0 31 31 31h184q31 0 41 -31l342 -1126l344 1126q8 31 41 31z" />
    <glyph glyph-name="uni041D" unicode="&#x41d;" horiz-adv-x="1220" 
d="M930 1487h123q31 0 30 -31v-1425q0 -31 -30 -31h-123q-31 0 -31 31v585h-575v-585q0 -31 -31 -31h-123q-31 0 -31 31v1425q0 31 31 31h123q31 0 31 -31v-655h575v655q0 31 31 31z" />
    <glyph glyph-name="uni041E" unicode="&#x41e;" horiz-adv-x="1206" 
d="M553 164h100q109 0 177 85t69 212v567q0 127 -69 212t-177 85h-100q-109 0 -177 -85t-69 -212v-567q1 -127 69 -212t177 -85zM553 1509h100q176 0 303 -143t127 -346v-551q0 -203 -127 -346t-303 -143h-100q-176 0 -303 143t-127 346v551q0 203 127 346t303 143z" />
    <glyph glyph-name="uni041F" unicode="&#x41f;" horiz-adv-x="1251" 
d="M164 1487h923q31 0 31 -31v-1425q0 -31 -31 -31h-122q-31 0 -31 31v1272h-617v-1272q0 -31 -30 -31h-123q-31 0 -31 31v1425q0 31 31 31z" />
    <glyph glyph-name="uni0420" unicode="&#x420;" horiz-adv-x="1165" 
d="M322 821h323q111 1 168 57t57 185t-56 184t-169 56h-323v-482zM168 1487h487q184 0 292 -114q108 -115 108 -311t-109 -310t-291 -115h-333v-606q0 -31 -31 -31h-123q-31 0 -31 31v1425q0 31 31 31z" />
    <glyph glyph-name="uni0421" unicode="&#x421;" horiz-adv-x="1159" 
d="M903 481h123q31 0 31 -30q-2 -199 -126 -338.5t-300 -139.5h-94q-182 0 -308.5 141.5t-126.5 350.5v557q0 209 126 348t309 139h94q176 0 300 -137t126 -336q0 -31 -31 -30h-123q-33 0 -33 30q0 129 -66.5 209t-172.5 80h-94q-113 0 -181.5 -82t-68.5 -221v-557
q0 -141 68.5 -224t181.5 -83h94q106 0 173.5 82t65.5 211q0 30 33 30z" />
    <glyph glyph-name="uni0422" unicode="&#x422;" horiz-adv-x="1134" 
d="M119 1487h899q31 0 31 -31v-123q0 -31 -31 -30h-356v-1272q0 -31 -31 -31h-123q-31 0 -31 31v1272h-358q-31 0 -31 30v123q0 31 31 31z" />
    <glyph glyph-name="uni0423" unicode="&#x423;" horiz-adv-x="1224" 
d="M965 1487h135q33 0 18 -37l-635 -1415q-14 -35 -45 -35h-135q-35 0 -20 37l235 524l-412 889q-18 37 19 37h137q29 0 43 -35l313 -670l302 670q14 35 45 35z" />
    <glyph glyph-name="uni0424" unicode="&#x424;" horiz-adv-x="1785" 
d="M1489 645v197q0 139 -71 218t-181 79h-254v-791h254q111 0 181 79t71 218zM799 348v791h-250q-111 0 -181 -79t-71 -218v-197q0 -139 71 -218t181 -79h250zM983 1323h264q168 0 297 -143t129 -338v-197q0 -195 -129 -338t-297 -143h-264v-133q0 -31 -31 -31h-123
q-31 0 -30 31v133h-260q-168 0 -297 143t-129 338v197q0 195 129 338t297 143h260v133q0 31 30 31h123q31 0 31 -31v-133z" />
    <glyph glyph-name="uni0425" unicode="&#x425;" horiz-adv-x="1134" 
d="M1008 0h-136q-25 0 -41 31l-264 520l-264 -520q-16 -31 -41 -31h-135q-37 0 -21 31l363 712l-363 713q-16 31 21 31h135q25 0 41 -31l264 -520l264 520q16 31 41 31h136q37 0 20 -31l-362 -713l362 -712q16 -31 -20 -31z" />
    <glyph glyph-name="uni0426" unicode="&#x426;" horiz-adv-x="1419" 
d="M1118 184h178q31 0 31 -30v-365q0 -31 -31 -31h-122q-31 0 -31 31v211h-979q-31 0 -31 31v1425q0 31 31 31h123q31 0 30 -31v-1272h617v1272q0 31 31 31h122q31 0 31 -31v-1272z" />
    <glyph glyph-name="uni0427" unicode="&#x427;" horiz-adv-x="1144" 
d="M838 1487h123q31 0 30 -31v-1425q0 -31 -30 -31h-123q-31 0 -31 31v540q-90 -47 -172 -47h-178q-143 0 -249 113q-105 113 -106 254v565q0 31 31 31h123q31 0 31 -31v-567q0 -74 49 -127t121 -53h180q61 0 116 44q54 44 54 101v602q0 31 31 31z" />
    <glyph glyph-name="uni0428" unicode="&#x428;" horiz-adv-x="2052" 
d="M1765 1487h123q31 0 31 -31v-1425q0 -31 -31 -31h-1724q-31 0 -31 31v1425q0 31 31 31h123q31 0 30 -31v-1272h617v1272q0 31 31 31h122q31 0 31 -31v-1272h617v1272q-1 31 30 31z" />
    <glyph glyph-name="uni0429" unicode="&#x429;" horiz-adv-x="2220" 
d="M1919 184h178q31 0 31 -30v-365q0 -31 -31 -31h-123q-31 0 -30 31v211h-1780q-31 0 -31 31v1425q0 31 31 31h123q31 0 30 -31v-1272h617v1272q0 31 31 31h122q31 0 31 -31v-1272h617v1272q0 31 30 31h123q31 0 31 -31v-1272z" />
    <glyph glyph-name="uni042A" unicode="&#x42a;" horiz-adv-x="1456" 
d="M590 184h323q113 0 169 56t57 184q1 129 -57 185t-169 57h-323v-482zM590 850h334q182 0 290 -115t109 -311q0 -196 -108 -310t-291 -114h-488q-31 0 -30 31v1272h-283q-31 0 -31 30v123q0 31 31 31h436q31 0 31 -31v-606z" />
    <glyph glyph-name="uni042B" unicode="&#x42b;" horiz-adv-x="1708" 
d="M317 184h324q113 0 169 56t56 184q0 129 -57 185t-168 57h-324v-482zM1384 1487h125q31 0 31 -31v-1425q0 -31 -31 -31h-125q-31 0 -30 31v1425q-1 31 30 31zM317 850h334q182 0 291 -115t109 -311t-108 -310t-292 -114h-487q-31 0 -31 31v1425q0 31 31 31h123
q31 0 30 -31v-606z" />
    <glyph glyph-name="uni042C" unicode="&#x42c;" horiz-adv-x="1183" 
d="M317 184h324q113 0 169 56t56 184q0 129 -57 185t-168 57h-324v-482zM317 850h334q182 0 291 -115t109 -311t-108 -310t-292 -114h-487q-31 0 -31 31v1425q0 31 31 31h123q31 0 30 -31v-606z" />
    <glyph glyph-name="uni042D" unicode="&#x42d;" horiz-adv-x="1159" 
d="M528 1509h95q182 0 308 -139t126 -348v-557q0 -209 -126 -350.5t-308 -141.5h-95q-176 0 -300 139.5t-126 338.5q0 31 31 30h123q33 0 33 -30q-2 -129 65.5 -211t173.5 -82h95q113 0 181 83t68 224v186h-309q-31 0 -31 31v123q0 31 31 31h309v186q0 139 -68.5 221
t-180.5 82h-95q-106 0 -172.5 -80t-66.5 -209q0 -31 -33 -30h-123q-31 0 -31 30q2 199 126 336t300 137z" />
    <glyph glyph-name="uni042E" unicode="&#x42e;" horiz-adv-x="1677" 
d="M1370 461v567q0 127 -68 212q-69 85 -178 85h-100q-110 0 -178 -85t-68 -212v-567q0 -127 69 -212t177 -85h100q109 0 178 85q68 85 68 212zM1024 1509h100q176 0 303 -143t127 -346v-551q0 -203 -127 -346t-303 -143h-100q-176 0 -303 143t-127 346v139h-238v-577
q0 -31 -30 -31h-125q-31 0 -31 31v1425q0 31 31 31h125q31 0 30 -31v-663h238v227q0 203 127 346t303 143z" />
    <glyph glyph-name="uni042F" unicode="&#x42f;" horiz-adv-x="1191" 
d="M874 1303h-323q-113 1 -169 -55t-56 -185t57 -185t168 -57h323v482zM541 1487h487q31 0 31 -31v-1425q0 -31 -31 -31h-123q-31 0 -31 31v606h-335q-115 0 -168 -81t-54 -206v-319q0 -31 -30 -31h-123q-31 0 -31 31v356q0 219 139 342q-131 115 -131 323t108 322t292 113z
" />
    <glyph glyph-name="uni0430" unicode="&#x430;" horiz-adv-x="976" 
d="M387 182h105q104 2 178 88v144h-283q-55 0 -85 -31t-30 -82t34 -85t81 -34zM852 0h-147q-35 0 -35 49v31q-96 -82 -195 -82h-94q-113 -2 -202 87t-89 214t85 206t216 81h279v32q0 80 -41 123t-107 43h-100q-111 0 -174 -63q-23 -20 -47 4l-68 82q-20 20 -2 41
q106 119 307 119h97q127 -1 223 -101t96 -256v-561q0 -15 4 -32t-6 -17z" />
    <glyph glyph-name="uni0431" unicode="&#x431;" horiz-adv-x="1085" 
d="M575 782h-88q-61 0 -110 -34t-49 -80v-412q80 -72 153 -72h94q68 0 118 49t50 123v242q0 76 -48 130t-120 54zM487 967h86q145 0 249 -112t106 -257v-242q0 -143 -106 -251t-249 -107h-86q-74 0 -159 53v-20q0 -31 -31 -31h-123q-31 0 -31 31v790q0 147 11 330
q6 129 87 215t214 78q31 -2 81 -7t72 -6q62 -3 115 44q14 12 37 12h149q33 0 19 -39q-29 -78 -97 -134q-67 -56 -143 -58t-201 10q-141 12 -149 -183l-8 -157q76 41 157 41z" />
    <glyph glyph-name="uni0432" unicode="&#x432;" horiz-adv-x="1038" 
d="M338 180h237q68 0 98 20q29 20 29 84q0 66 -24 94t-88 28h-252v-226zM338 575h254q57 0 79 27t21 82q0 98 -112 98h-242v-207zM885 248q0 -248 -287 -248h-414q-31 0 -30 31v901q0 31 30 31h414q131 0 204 -65q72 -65 72 -197t-45 -177q-24 -25 -65 -37q121 -37 121 -239
z" />
    <glyph glyph-name="uni0433" unicode="&#x433;" horiz-adv-x="956" 
d="M184 963h588q31 0 31 -31v-123q0 -31 -31 -31h-434v-747q0 -31 -31 -31h-123q-31 0 -30 31v901q-1 31 30 31z" />
    <glyph glyph-name="uni0434" unicode="&#x434;" horiz-adv-x="1411" 
d="M967 184v594h-422v-147q0 -285 -84 -447h506zM1151 184h117q31 0 30 -30v-322q0 -31 -30 -31h-123q-31 0 -31 31v168h-817v-168q0 -31 -31 -31h-123q-31 0 -30 31v322q0 31 30 30h54q44 0 85 69q78 130 78 488v191q0 31 31 31h729q31 0 31 -31v-748z" />
    <glyph glyph-name="uni0435" unicode="&#x435;" horiz-adv-x="1011" 
d="M725 586v24q0 74 -53.5 124t-112.5 50h-78q-70 0 -124 -52t-54 -122v-24h422zM483 969h78q129 0 238.5 -107.5t109.5 -261.5v-113q0 -61 -61 -61h-545v-61q0 -78 53.5 -130.5t124.5 -52.5h84q84 0 180 111q23 25 46 4l90 -80q23 -20 6 -43q-143 -176 -326 -176h-78
q-145 0 -254.5 109.5t-109.5 257.5v233q0 147 109.5 259t254.5 112z" />
    <glyph glyph-name="uni0436" unicode="&#x436;" horiz-adv-x="1624" 
d="M1468 0h-176q-25 0 -55 29l-328 309v-307q0 -31 -30 -31h-131q-31 0 -31 31v307l-330 -309q-31 -29 -55 -29h-176q-28 0 -23 31q2 12 10 18l461 430l-432 432q-16 19 -12 35t20 17h174q20 0 45 -25l318 -322v316q0 31 31 31h131q31 0 30 -31v-316l316 322q25 25 45 25
h174q16 1 21 -15t-13 -37l-430 -432l459 -430q21 -16 10 -32q-10 -17 -23 -17z" />
    <glyph glyph-name="uni0437" unicode="&#x437;" horiz-adv-x="1056" 
d="M455 -16q-115 0 -208 78t-93 190q0 23 22 22h139q23 0 23 -30t38 -54q38 -23 99 -22h86q150 0 150 98q-1 63 -21 93t-82 34h-155q-23 0 -23 23v139q0 23 23 23h155q63 4 83 27q19 24 20 87q0 100 -150 101h-86q-61 0 -99 -27t-38 -72q0 -23 -23 -22h-139q-23 0 -22 22
q0 115 93 199t208 84h127q119 0 215 -77t96 -189q0 -61 -6 -95q-15 -86 -117 -129q78 -33 106 -94t27 -149q0 -119 -99 -190t-222 -70h-127z" />
    <glyph glyph-name="uni0438" unicode="&#x438;" horiz-adv-x="1140" 
d="M184 963h123q31 0 31 -31v-666l379 674q14 23 37 23h202q31 0 31 -31v-901q0 -31 -31 -31h-122q-31 0 -31 31v665l-389 -673q-12 -23 -37 -23h-193q-31 0 -30 31v901q-1 31 30 31z" />
    <glyph glyph-name="uni0439" unicode="&#x439;" horiz-adv-x="1140" 
d="M184 963h123q31 0 31 -31v-666l379 674q14 23 37 23h202q31 0 31 -31v-901q0 -31 -31 -31h-122q-31 0 -31 31v665l-389 -673q-12 -23 -37 -23h-193q-31 0 -30 31v901q-1 31 30 31zM784 1638h103q31 0 31 -30q-4 -144 -83 -230t-214 -86h-101q-135 0 -214 85t-83 231
q0 31 31 30h102q31 0 31 -30q12 -152 143 -152h82q70 0 104 43t38 109q-1 30 30 30z" />
    <glyph glyph-name="uni043A" unicode="&#x43a;" horiz-adv-x="1052" 
d="M897 0h-176q-25 0 -55 29l-340 313v-311q0 -31 -31 -31h-131q-31 0 -31 31v901q0 31 31 31h131q31 0 31 -31v-318l327 324q25 25 45 25h174q16 1 20 -15t-11 -37l-443 -432l471 -430q9 -6 11 -18q2 -11 -4 -21t-19 -10z" />
    <glyph glyph-name="uni043B" unicode="&#x43b;" horiz-adv-x="1150" 
d="M195 932q0 31 32 33h123q11 0 15 -2h602q31 0 30 -31v-901q0 -31 -30 -31h-123q-31 0 -31 31v747h-432v-393q0 -109 -42 -217t-108 -180q-16 -23 -43 0l-86 86q-18 18 0 45q94 109 95 276v400q-2 4 -2 14v123z" />
    <glyph glyph-name="uni043C" unicode="&#x43c;" horiz-adv-x="1386" 
d="M1018 963h184q31 0 31 -31v-901q0 -31 -31 -31h-123q-31 0 -30 31v665l-275 -606q-12 -23 -35 -22h-92q-25 0 -35 22l-274 606v-665q0 -31 -31 -31h-123q-31 0 -30 31v901q0 31 30 31h185q25 0 37 -23l288 -641l287 641q10 23 37 23z" />
    <glyph glyph-name="uni043D" unicode="&#x43d;" horiz-adv-x="1110" 
d="M803 963h123q31 0 30 -31v-901q0 -31 -30 -31h-123q-31 0 -31 31v358h-434v-358q0 -31 -31 -31h-123q-31 0 -30 31v901q0 31 30 31h123q31 0 31 -31v-359h434v359q0 31 31 31z" />
    <glyph glyph-name="uni043E" unicode="&#x43e;" horiz-adv-x="1038" 
d="M741 375v213q0 80 -49 138t-131 58h-84q-82 0 -131 -57t-49 -139v-213q0 -80 49 -136t131 -57h84q82 0 131 56t49 137zM479 969h80q151 0 259 -113t108 -268v-213q0 -153 -106 -265t-261 -112h-80q-154 0 -260 112t-106 265v213q0 156 107 268t259 113z" />
    <glyph glyph-name="uni043F" unicode="&#x43f;" horiz-adv-x="1110" 
d="M184 963h742q31 0 30 -31v-901q0 -31 -30 -31h-123q-31 0 -31 31v747h-434v-747q0 -31 -31 -31h-123q-31 0 -30 31v901q-1 31 30 31z" />
    <glyph glyph-name="uni0440" unicode="&#x440;" horiz-adv-x="1036" 
d="M729 346v252q0 74 -45 127t-117 53h-78q-61 0 -110 -45t-51 -106v-355q30 -40 74 -64t87 -24h78q68 0 115 46t47 116zM489 963h80q141 0 243 -113t101 -254v-250q0 -138 -105 -242t-239 -104h-80q-80 0 -161 43v-422q0 -31 -31 -31h-123q-31 0 -31 31v1311q0 31 31 31
h123q31 0 31 -31v-25q81 56 161 56z" />
    <glyph glyph-name="uni0441" unicode="&#x441;" horiz-adv-x="985" 
d="M864 641h-125q-31 0 -34 29q-4 47 -50.5 80.5t-103.5 33.5h-76q-72 0 -125 -54t-53 -132v-233q0 -76 53 -129.5t125 -53.5h82q88 0 180 111q23 27 47 4l88 -80q25 -18 7 -43q-143 -176 -328 -176h-74q-145 0 -254.5 109.5t-109.5 257.5v233q0 147 109.5 259t254.5 112h74
q123 0 231.5 -92.5t110.5 -200.5q0 -35 -29 -35z" />
    <glyph glyph-name="uni0442" unicode="&#x442;" horiz-adv-x="1079" 
d="M184 963h711q31 0 31 -31v-123q0 -31 -31 -31h-262v-747q0 -31 -31 -31h-123q-31 0 -30 31v747h-265q-31 0 -30 31v123q-1 31 30 31z" />
    <glyph glyph-name="uni0443" unicode="&#x443;" 
d="M834 963h135q33 0 18 -37l-545 -1301q-14 -35 -45 -35h-135q-35 0 -20 37l190 451l-356 848q-14 37 18 37h137q29 0 43 -35l258 -611l256 611q15 35 46 35z" />
    <glyph glyph-name="uni0444" unicode="&#x444;" horiz-adv-x="1595" 
d="M1288 346v252q0 74 -45 127t-117 53h-73q-57 0 -105 -38t-57 -93v-375q29 -40 74 -64t88 -24h73q68 0 115 46t47 116zM469 184h74q45 0 92 26t72 66v351q-1 61 -51 106t-113 45h-74q-72 0 -117 -53t-45 -127v-252q0 -70 47 -116t115 -46zM1053 963h75q140 0 242 -113
t103 -254v-250q1 -138 -105 -242t-240 -104h-75q-80 0 -162 43v-422q0 -31 -31 -31h-123q-31 0 -30 31v422q-82 -43 -164 -43h-76q-133 0 -239 104q-105 104 -105 242v250q0 141 101 254t243 113h76q82 0 164 -56v549q0 31 30 31h123q31 0 31 -31v-547q84 54 162 54z" />
    <glyph glyph-name="uni0445" unicode="&#x445;" horiz-adv-x="929" 
d="M821 0h-137q-27 0 -47 35l-172 280l-170 -280q-20 -35 -47 -35h-139q-18 0 -25 10q-6 10 4 27l274 448l-270 441q-10 16 -4 26t25 11h139q25 0 47 -35l168 -273l166 273q23 35 47 35h139q17 -1 23 -11t-4 -26l-269 -441l275 -448q18 -37 -23 -37z" />
    <glyph glyph-name="uni0446" unicode="&#x446;" horiz-adv-x="1257" 
d="M956 184h148q31 0 31 -30v-365q0 -31 -31 -31h-123q-31 0 -31 31v211h-766q-31 0 -30 31v901q0 31 30 31h123q31 0 31 -31v-748h434v748q0 31 31 31h123q31 0 30 -31v-748z" />
    <glyph glyph-name="uni0447" unicode="&#x447;" horiz-adv-x="1042" 
d="M735 963h123q31 0 31 -31v-901q0 -31 -31 -31h-123q-31 0 -30 31v258q-70 -51 -162 -51h-86q-141 0 -238 111q-96 112 -96 255v328q0 31 31 31h122q31 0 31 -31v-314q0 -88 42 -142t118 -54h76q69 0 115 45t47 115v350q-1 31 30 31z" />
    <glyph glyph-name="uni0448" unicode="&#x448;" horiz-adv-x="1728" 
d="M1421 963h123q31 0 31 -31v-901q0 -31 -31 -31h-1360q-31 0 -30 31v901q0 31 30 31h123q31 0 31 -31v-748h434v748q0 31 31 31h123q31 0 30 -31v-748h435v748q-1 31 30 31z" />
    <glyph glyph-name="uni0449" unicode="&#x449;" horiz-adv-x="1896" 
d="M1575 184h147q31 0 31 -30v-365q0 -31 -31 -31h-123q-31 0 -30 31v211h-1385q-31 0 -30 31v901q0 31 30 31h123q31 0 31 -31v-748h434v748q0 31 31 31h123q31 0 30 -31v-748h435v748q0 31 30 31h123q31 0 31 -31v-748z" />
    <glyph glyph-name="uni044A" unicode="&#x44a;" horiz-adv-x="1175" 
d="M432 184h242q94 0 139 30t45 103q0 133 -184 134h-242v-267zM432 635h248q176 0 269 -88t93 -236q0 -147 -91 -229t-271 -82h-401q-31 0 -31 31v747h-125q-31 0 -31 31v123q0 31 31 31h278q31 0 31 -31v-297z" />
    <glyph glyph-name="uni044B" unicode="&#x44b;" horiz-adv-x="1572" 
d="M317 184h242q94 0 139 30t45 103q0 133 -184 134h-242v-267zM317 635h248q175 0 269 -88t94 -236q0 -147 -91 -229t-272 -82h-401q-31 0 -31 31v901q0 31 31 31h123q31 0 30 -31v-297zM1255 965h123q31 0 31 -31v-903q0 -31 -31 -31h-123q-31 0 -30 31v903q-1 31 30 31z
" />
    <glyph glyph-name="uni044C" unicode="&#x44c;" horiz-adv-x="1060" 
d="M317 184h242q94 0 139 30t45 103q0 133 -184 134h-242v-267zM317 635h248q175 0 269 -88t94 -236q0 -147 -91 -229t-272 -82h-401q-31 0 -31 31v901q0 31 31 31h123q31 0 30 -31v-297z" />
    <glyph glyph-name="uni044D" unicode="&#x44d;" horiz-adv-x="985" 
d="M434 969h74q145 0 254.5 -112t109.5 -259v-233q0 -147 -109.5 -257t-254.5 -110h-74q-184 0 -328 176q-16 23 7 43l90 80q23 20 45 -4q96 -111 180 -111h82q72 0 125 52.5t53 130.5v24h-215q-31 0 -31 31v123q0 31 31 30h215v25q0 78 -53 132t-125 54h-76
q-57 0 -103 -34.5t-50 -79.5q-4 -29 -35 -29h-125q-29 0 -29 35q2 109 110.5 201t231.5 92z" />
    <glyph glyph-name="uni044E" unicode="&#x44e;" horiz-adv-x="1540" 
d="M1243 375v213q0 80 -49 138t-131 58h-84q-82 0 -131 -57t-49 -139v-213q0 -80 49 -136t131 -57h84q82 0 131 56t49 137zM981 969h80q151 0 259 -113t107 -268v-213q0 -153 -106 -265t-260 -112h-80q-154 0 -260 112t-107 265v14h-276v-358q0 -33 -31 -33h-123
q-31 0 -30 33v903q0 31 30 31h123q31 0 31 -31v-361h276v15q0 156 108 268t259 113z" />
    <glyph glyph-name="uni044F" unicode="&#x44f;" horiz-adv-x="1017" 
d="M680 778h-227q-127 0 -127 -108q0 -61 24 -92t88 -31h242v231zM285 0h-121q-31 0 -31 31v196q0 193 111 240q-77 33 -89 94t-12 131q0 131 74 201t203 70h414q31 0 30 -31v-901q0 -31 -30 -31h-123q-31 0 -31 31v331h-242q-74 0 -98 -44t-25 -132v-155q1 -31 -30 -31z
" />
    <glyph glyph-name="uni0451" unicode="&#x451;" horiz-adv-x="1011" 
d="M725 586v24q0 74 -53.5 124t-112.5 50h-78q-70 0 -124 -52t-54 -122v-24h422zM483 969h78q129 0 238.5 -107.5t109.5 -261.5v-113q0 -61 -61 -61h-545v-61q0 -78 53.5 -130.5t124.5 -52.5h84q84 0 180 111q23 25 46 4l90 -80q23 -20 6 -43q-143 -176 -326 -176h-78
q-145 0 -254.5 109.5t-109.5 257.5v233q0 147 109.5 259t254.5 112zM657 1274v182q0 31 31 31h174q31 0 31 -31v-182q0 -31 -31 -31h-174q-31 0 -31 31zM115 1274v182q0 31 30 31h174q31 0 31 -31v-182q0 -31 -31 -31h-174q-30 0 -30 31z" />
    <glyph glyph-name="uni0453" unicode="&#x453;" horiz-adv-x="956" 
d="M184 963h588q31 0 31 -31v-123q0 -31 -31 -31h-434v-747q0 -31 -31 -31h-123q-31 0 -30 31v901q-1 31 30 31zM543 1186h-127q-37 0 -21 37l154 379q12 37 43 36h151q39 0 21 -36l-178 -379q-20 -37 -43 -37z" />
    <glyph glyph-name="uni0454" unicode="&#x454;" horiz-adv-x="985" 
d="M551 -2h-74q-145 0 -254.5 109.5t-109.5 257.5v233q0 147 109.5 259t254.5 112h74q123 0 231.5 -92.5t110.5 -200.5q0 -35 -29 -35h-125q-31 0 -34 29q-4 47 -50.5 80.5t-103.5 33.5h-76q-72 0 -125 -54t-53 -132v-25h215q31 0 31 -30v-123q0 -31 -31 -31h-215v-24
q0 -76 53 -129.5t125 -53.5h82q88 0 180 111q22 27 47 4l88 -80q25 -18 7 -43q-143 -176 -328 -176z" />
    <glyph glyph-name="uni0456" unicode="&#x456;" horiz-adv-x="509" 
d="M164 31v903q0 31 31 31h122q31 0 31 -31v-903q0 -31 -31 -31h-122q-31 0 -31 31zM154 1282v174q0 31 30 31h142q31 0 30 -31v-174q0 -31 -30 -31h-142q-30 0 -30 31z" />
    <glyph glyph-name="uni0457" unicode="&#x457;" horiz-adv-x="512" 
d="M164 31v903q0 31 31 31h122q31 0 31 -31v-903q0 -31 -31 -31h-122q-31 0 -31 31zM410 1274v182q0 31 30 31h174q31 0 31 -31v-182q0 -31 -31 -31h-174q-30 0 -30 31zM-133 1274v182q0 31 31 31h174q31 0 30 -31v-182q0 -31 -30 -31h-174q-31 0 -31 31z" />
    <glyph glyph-name="uni0458" unicode="&#x458;" horiz-adv-x="505" 
d="M158 -106v1040q0 31 30 31h123q31 0 31 -31v-1047q0 -113 -73 -207t-185 -129q-27 -8 -39 21l-49 117q-10 31 20 39q57 20 100 64q42 44 42 102zM150 1282v174q0 31 30 31h142q31 0 30 -31v-174q0 -31 -30 -31h-142q-30 0 -30 31z" />
    <glyph glyph-name="uni045C" unicode="&#x45c;" horiz-adv-x="1052" 
d="M897 0h-176q-25 0 -55 29l-340 313v-311q0 -31 -31 -31h-131q-31 0 -31 31v901q0 31 31 31h131q31 0 31 -31v-318l327 324q25 25 45 25h174q16 1 20 -15t-11 -37l-443 -432l471 -430q9 -6 11 -18q2 -11 -4 -21t-19 -10zM590 1186h-127q-37 0 -21 37l154 379q12 37 43 36
h152q39 0 20 -36l-178 -379q-20 -37 -43 -37z" />
    <glyph glyph-name="uni045D" unicode="&#x45d;" horiz-adv-x="1140" 
d="M184 963h123q31 0 31 -31v-666l379 674q14 23 37 23h202q31 0 31 -31v-901q0 -31 -31 -31h-122q-31 0 -31 31v665l-389 -673q-12 -23 -37 -23h-193q-31 0 -30 31v901q-1 31 30 31zM623 1186h-117q-23 0 -43 37l-178 379q-18 37 20 36h141q31 1 43 -36l154 -379
q16 -37 -20 -37z" />
    <glyph glyph-name="uni045E" unicode="&#x45e;" 
d="M834 963h135q33 0 18 -37l-545 -1301q-14 -35 -45 -35h-135q-35 0 -20 37l190 451l-356 848q-14 37 18 37h137q29 0 43 -35l258 -611l256 611q15 35 46 35zM582 1292h-101q-135 0 -214 85t-83 231q0 31 31 30h102q31 0 31 -30q12 -152 144 -152h81q70 0 104 43t38 109
q0 31 30 30h103q31 0 31 -30q-4 -144 -83 -230t-214 -86z" />
    <glyph glyph-name="uni0490" unicode="&#x490;" horiz-adv-x="1148" 
d="M862 1671h123q31 0 31 -31v-307q0 -31 -31 -30h-668v-1272q0 -31 -30 -31h-123q-31 0 -31 31v1425q0 31 31 31h667v153q0 31 31 31z" />
    <glyph glyph-name="uni0491" unicode="&#x491;" horiz-adv-x="956" 
d="M649 1147h123q31 0 31 -31v-307q0 -31 -31 -31h-434v-747q0 -31 -31 -31h-123q-31 0 -30 31v901q0 31 30 31h434v153q0 31 31 31z" />
    <glyph glyph-name="uni04C0" unicode="&#x4c0;" horiz-adv-x="524" 
d="M170 31v1425q0 31 31 31h125q31 0 30 -31v-1425q0 -31 -30 -31h-125q-31 0 -31 31z" />
    <glyph glyph-name="uni04E2" unicode="&#x4e2;" horiz-adv-x="1292" 
d="M164 1487h123q31 0 30 -31v-1139l601 1147q12 23 36 23h174q31 0 31 -31v-1425q0 -31 -31 -31h-122q-31 0 -31 31v1138l-600 -1146q-10 -23 -37 -23h-174q-31 0 -31 31v1425q0 31 31 31zM979 1827h-664q-31 0 -30 31v122q0 31 30 31h664q31 0 31 -31v-122q0 -31 -31 -31z
" />
    <glyph glyph-name="uni04E3" unicode="&#x4e3;" horiz-adv-x="1140" 
d="M184 963h123q31 0 31 -31v-666l379 674q14 23 37 23h202q31 0 31 -31v-901q0 -31 -31 -31h-122q-31 0 -31 31v665l-389 -673q-12 -23 -37 -23h-193q-31 0 -30 31v901q-1 31 30 31zM903 1303h-663q-31 0 -31 30v123q0 31 31 31h663q31 0 31 -31v-123q0 -30 -31 -30z" />
    <glyph glyph-name="uni04E8" unicode="&#x4e8;" horiz-adv-x="1206" 
d="M553 164h100q109 0 177 85t69 212v190h-592v-190q1 -127 69 -212t177 -85zM653 1325h-100q-109 0 -177 -85t-69 -212v-192h592v192q-1 127 -69 212t-177 85zM553 1509h100q176 0 303 -143t127 -346v-551q0 -203 -127 -346t-303 -143h-100q-176 0 -303 143t-127 346v551
q0 203 127 346t303 143z" />
    <glyph glyph-name="uni04E9" unicode="&#x4e9;" horiz-adv-x="1038" 
d="M477 182h84q82 0 131 56t49 137v14h-444v-14q0 -81 49 -137t131 -56zM561 784h-84q-82 0 -131 -57t-49 -139v-15h444v15q0 80 -49 138t-131 58zM479 969h80q151 0 259 -113t108 -268v-213q0 -153 -106 -265t-261 -112h-80q-154 0 -260 112t-106 265v213q0 156 107 268
t259 113z" />
    <glyph glyph-name="uni04EC" unicode="&#x4ec;" horiz-adv-x="1159" 
d="M528 1509h95q182 0 308 -139t126 -348v-557q0 -209 -126 -350.5t-308 -141.5h-95q-176 0 -300 139.5t-126 338.5q0 31 31 30h123q33 0 33 -30q-2 -129 65.5 -211t173.5 -82h95q113 0 181 83t68 224v186h-309q-31 0 -31 31v123q0 31 31 31h309v186q0 139 -68.5 221
t-180.5 82h-95q-106 0 -172.5 -80t-66.5 -209q0 -31 -33 -30h-123q-31 0 -31 30q2 199 126 336t300 137zM922 1767h-174q-31 0 -31 31v182q0 31 31 31h174q31 0 30 -31v-182q1 -31 -30 -31zM379 1767h-174q-31 0 -31 31v182q0 31 31 31h174q31 0 31 -31v-182q0 -31 -31 -31z
" />
    <glyph glyph-name="uni04ED" unicode="&#x4ed;" horiz-adv-x="985" 
d="M434 969h74q145 0 254.5 -112t109.5 -259v-233q0 -147 -109.5 -257t-254.5 -110h-74q-184 0 -328 176q-16 23 7 43l90 80q23 20 45 -4q96 -111 180 -111h82q72 0 125 52.5t53 130.5v24h-215q-31 0 -31 31v123q0 31 31 30h215v25q0 78 -53 132t-125 54h-76
q-57 0 -103 -34.5t-50 -79.5q-4 -29 -35 -29h-125q-29 0 -29 35q2 109 110.5 201t231.5 92zM676 1487h174q31 0 31 -31v-182q0 -31 -31 -31h-174q-31 0 -31 31v182q0 31 31 31zM307 1243h-174q-31 0 -31 31v182q0 31 31 31h174q31 0 31 -31v-182q0 -31 -31 -31z" />
    <glyph glyph-name="uni04EE" unicode="&#x4ee;" horiz-adv-x="1224" 
d="M965 1487h135q33 0 18 -37l-635 -1415q-14 -35 -45 -35h-135q-35 0 -20 37l235 524l-412 889q-18 37 19 37h137q29 0 43 -35l313 -670l302 670q14 35 45 35zM946 1827h-663q-31 0 -31 31v122q0 31 31 31h663q31 0 31 -31v-122q0 -31 -31 -31z" />
    <glyph glyph-name="uni04EF" unicode="&#x4ef;" 
d="M834 963h135q33 0 18 -37l-545 -1301q-14 -35 -45 -35h-135q-35 0 -20 37l190 451l-356 848q-14 37 18 37h137q29 0 43 -35l258 -611l256 611q15 35 46 35zM864 1303h-663q-31 0 -31 30v123q0 31 31 31h663q31 0 31 -31v-123q0 -30 -31 -30z" />
    <glyph glyph-name="Macute" unicode="&#x1e3e;" horiz-adv-x="1480" 
d="M1122 1487h185q31 0 30 -31v-1425q0 -31 -30 -31h-123q-31 0 -31 31v1097l-334 -1097q-8 -31 -39 -31h-84q-29 0 -39 31l-333 1097v-1097q0 -31 -31 -31h-123q-31 0 -31 31v1425q0 31 31 31h184q31 0 41 -31l342 -1126l344 1126q8 31 41 31zM850 2163h151q39 0 21 -37
l-178 -379q-20 -37 -43 -37h-127q-37 0 -21 37l154 379q12 37 43 37z" />
    <glyph glyph-name="macute" unicode="&#x1e3f;" horiz-adv-x="1701" 
d="M1124 963h76q150 0 252 -112t102 -255v-565q0 -31 -30 -31h-123q-31 0 -31 31v565q0 78 -49 130t-121 52h-88q-58 0 -110 -39t-60 -96q4 -29 4 -47v-565q0 -31 -31 -31h-122q-31 0 -31 31v565q0 14 -4 39v2q-12 61 -56 101t-106 40h-88q-64 0 -116 -42t-54 -103v-602
q0 -31 -31 -31h-123q-31 0 -30 31v901q0 31 30 31h123q31 0 31 -31v-31q96 61 182 62h76q152 0 256 -119q114 119 272 119zM926 1186h-127q-37 0 -21 37l154 379q12 37 43 36h151q39 0 21 -36l-178 -379q-20 -37 -43 -37z" />
    <glyph glyph-name="Wgrave" unicode="&#x1e80;" horiz-adv-x="1880" 
d="M1636 1487h133q33 0 27 -31l-328 -1425q-6 -31 -38 -31h-103q-29 0 -39 31l-348 1126l-348 -1126q-8 -31 -39 -31h-102q-33 0 -39 31l-328 1425q-6 31 25 31h133q31 0 37 -31l239 -1106l326 1106q8 31 39 31h114q31 0 39 -31l330 -1106l236 1106q5 31 34 31zM991 1710
h-117q-23 0 -43 37l-178 379q-18 37 21 37h141q31 0 43 -37l154 -379q16 -37 -21 -37z" />
    <glyph glyph-name="wgrave" unicode="&#x1e81;" horiz-adv-x="1400" 
d="M1178 963h127q35 0 24 -35l-242 -895q-10 -33 -38 -33h-107q-29 0 -39 33l-203 629l-200 -629q-10 -33 -39 -33h-107q-29 0 -39 33l-241 895q-10 35 24 35h127q27 0 37 -35l158 -649l190 649q10 35 37 35h109q25 0 37 -35l188 -649l160 649q10 35 37 35zM752 1186h-117
q-23 0 -43 37l-178 379q-18 37 20 36h141q31 1 43 -36l154 -379q16 -37 -20 -37z" />
    <glyph glyph-name="Wacute" unicode="&#x1e82;" horiz-adv-x="1880" 
d="M1636 1487h133q33 0 27 -31l-328 -1425q-6 -31 -38 -31h-103q-29 0 -39 31l-348 1126l-348 -1126q-8 -31 -39 -31h-102q-33 0 -39 31l-328 1425q-6 31 25 31h133q31 0 37 -31l239 -1106l326 1106q8 31 39 31h114q31 0 39 -31l330 -1106l236 1106q5 31 34 31zM1053 2163
h151q39 0 21 -37l-178 -379q-20 -37 -43 -37h-127q-37 0 -21 37l154 379q12 37 43 37z" />
    <glyph glyph-name="wacute" unicode="&#x1e83;" horiz-adv-x="1400" 
d="M1178 963h127q35 0 24 -35l-242 -895q-10 -33 -38 -33h-107q-29 0 -39 33l-203 629l-200 -629q-10 -33 -39 -33h-107q-29 0 -39 33l-241 895q-10 35 24 35h127q27 0 37 -35l158 -649l190 649q10 35 37 35h109q25 0 37 -35l188 -649l160 649q10 35 37 35zM965 1638
q39 0 20 -36l-178 -379q-20 -37 -43 -37h-127q-37 0 -21 37l154 379q12 37 43 36h152z" />
    <glyph glyph-name="Wdieresis" unicode="&#x1e84;" horiz-adv-x="1880" 
d="M1636 1487h133q33 0 27 -31l-328 -1425q-6 -31 -38 -31h-103q-29 0 -39 31l-348 1126l-348 -1126q-8 -31 -39 -31h-102q-33 0 -39 31l-328 1425q-6 31 25 31h133q31 0 37 -31l239 -1106l326 1106q8 31 39 31h114q31 0 39 -31l330 -1106l236 1106q5 31 34 31zM1094 1798
v182q0 31 30 31h174q31 0 31 -31v-182q0 -31 -31 -31h-174q-30 0 -30 31zM551 1798v182q0 31 31 31h174q31 0 30 -31v-182q0 -31 -30 -31h-174q-31 0 -31 31z" />
    <glyph glyph-name="wdieresis" unicode="&#x1e85;" horiz-adv-x="1400" 
d="M1178 963h127q35 0 24 -35l-242 -895q-10 -33 -38 -33h-107q-29 0 -39 33l-203 629l-200 -629q-10 -33 -39 -33h-107q-29 0 -39 33l-241 895q-10 35 24 35h127q27 0 37 -35l158 -649l190 649q10 35 37 35h109q25 0 37 -35l188 -649l160 649q10 35 37 35zM854 1274v182
q0 31 31 31h174q31 0 31 -31v-182q0 -31 -31 -31h-174q-31 0 -31 31zM311 1274v182q0 31 31 31h174q31 0 31 -31v-182q0 -31 -31 -31h-174q-31 0 -31 31z" />
    <glyph glyph-name="Ygrave" unicode="&#x1ef2;" horiz-adv-x="1159" 
d="M926 1487h141q39 0 20 -31l-417 -803v-622q0 -31 -31 -31h-123q-31 0 -31 31v622l-413 803q-14 31 20 31h141q25 0 41 -31l304 -604l307 604q16 31 41 31zM627 1710h-117q-23 0 -43 37l-178 379q-18 37 20 37h142q31 0 43 -37l153 -379q16 -37 -20 -37z" />
    <glyph glyph-name="ygrave" unicode="&#x1ef3;" 
d="M834 963h135q33 0 18 -37l-545 -1301q-14 -35 -45 -35h-135q-35 0 -20 37l190 451l-356 848q-14 37 18 37h137q29 0 43 -35l258 -611l256 611q15 35 46 35zM408 1638q31 0 43 -36l153 -379q16 -37 -20 -37h-117q-23 0 -43 37l-178 379q-18 37 20 36h142z" />
    <glyph glyph-name="endash" unicode="&#x2013;" horiz-adv-x="1271" 
d="M1118 389h-964q-31 0 -31 31v123q0 31 31 30h964q31 0 31 -30v-123q0 -31 -31 -31z" />
    <glyph glyph-name="emdash" unicode="&#x2014;" horiz-adv-x="1423" 
d="M1270 389h-1116q-31 0 -31 31v123q0 31 31 30h1116q31 0 30 -30v-123q1 -31 -30 -31z" />
    <glyph glyph-name="quoteleft" unicode="&#x2018;" horiz-adv-x="464" 
d="M322 932h-189q-31 0 -31 31v245q0 213 119 348q18 20 41 0l64 -59q27 -25 8 -43q-50 -47 -62 -98t-12 -135l-16 -21h78q31 0 30 -31v-206q1 -31 -30 -31z" />
    <glyph glyph-name="quoteright" unicode="&#x2019;" horiz-adv-x="487" 
d="M156 1487h188q31 0 31 -31v-246q0 -213 -119 -348q-18 -20 -41 0l-63 60q-25 25 -9 43q49 49 62 100q12 51 12 133l16 21h-77q-31 0 -31 30v207q0 31 31 31z" />
    <glyph glyph-name="quotesinglbase" unicode="&#x201a;" horiz-adv-x="464" 
d="M143 268h189q31 0 30 -30v-246q0 -215 -116 -348q-18 -20 -41 0l-66 59q-27 25 -8 43q63 59 72 146q2 30 2 88l16 20h-78q-31 0 -30 31v207q-1 30 30 30z" />
    <glyph glyph-name="quotedblleft" unicode="&#x201c;" horiz-adv-x="868" 
d="M725 932h-188q-31 0 -31 31v245q0 213 119 348q18 20 41 0l63 -59q27 -25 8 -43q-49 -47 -61 -98t-12 -135l-17 -21h78q31 0 31 -31v-206q0 -31 -31 -31zM322 932h-189q-31 0 -31 31v245q0 213 119 348q18 20 41 0l64 -59q27 -25 8 -43q-50 -47 -62 -98t-12 -135l-16 -21
h78q31 0 30 -31v-206q1 -31 -30 -31z" />
    <glyph glyph-name="quotedblright" unicode="&#x201d;" horiz-adv-x="888" 
d="M557 1487h188q31 0 31 -31v-246q0 -215 -117 -348q-18 -20 -41 0l-65 60q-25 25 -8 43q65 62 71 146q2 30 2 87l17 21h-78q-31 0 -31 30v207q0 31 31 31zM154 1487h188q31 0 31 -31v-246q0 -215 -117 -348q-18 -20 -41 0l-65 60q-27 25 -9 43q66 63 72 146q2 30 2 87
l16 21h-77q-31 0 -31 30v207q0 31 31 31z" />
    <glyph glyph-name="quotedblbase" unicode="&#x201e;" horiz-adv-x="868" 
d="M547 268h188q31 0 31 -30v-246q0 -215 -117 -348q-18 -20 -41 0l-65 59q-27 25 -8 43q65 62 71 146q2 30 2 88l17 20h-78q-31 0 -31 31v207q0 30 31 30zM143 268h189q31 0 30 -30v-246q0 -215 -116 -348q-18 -20 -41 0l-66 59q-27 25 -8 43q63 59 72 146q2 30 2 88l16 20
h-78q-31 0 -30 31v207q-1 30 30 30z" />
    <glyph glyph-name="dagger" unicode="&#x2020;" horiz-adv-x="886" 
d="M537 963h237q31 0 31 -31v-123q0 -31 -31 -31h-237v-1014q0 -31 -31 -30h-123q-31 0 -31 30v1014h-239q-31 0 -31 31v123q0 31 31 31h239v501q0 31 31 31h123q31 0 31 -31v-501z" />
    <glyph glyph-name="daggerdbl" unicode="&#x2021;" horiz-adv-x="886" 
d="M537 778v-327h237q31 0 31 -31v-123q0 -31 -31 -31h-237v-502q0 -31 -31 -30h-123q-31 0 -31 30v502h-239q-31 0 -31 31v123q0 31 31 31h239v327h-239q-31 0 -31 31v123q0 31 31 31h239v501q0 31 31 31h123q31 0 31 -31v-501h237q31 0 31 -31v-123q0 -31 -31 -31h-237z
" />
    <glyph glyph-name="bullet" unicode="&#x2022;" horiz-adv-x="659" 
d="M164 618v187q0 68 65 67h197q70 0 70 -67v-187q0 -68 -70 -67h-197q-65 -1 -65 67z" />
    <glyph glyph-name="ellipsis" unicode="&#x2026;" horiz-adv-x="1368" 
d="M1040 31v162q0 31 31 30h164q31 0 31 -30v-162q0 -31 -31 -31h-164q-31 0 -31 31zM571 31v162q0 31 31 30h164q31 0 31 -30v-162q0 -31 -31 -31h-164q-31 0 -31 31zM102 31v162q0 31 31 30h164q31 0 31 -30v-162q0 -31 -31 -31h-164q-31 0 -31 31z" />
    <glyph glyph-name="perthousand" unicode="&#x2030;" horiz-adv-x="1884" 
d="M1702 195v10q0 59 -60 59h-12q-59 0 -59 -59v-10q0 -57 59 -58h12q60 1 60 58zM1071 195v10q0 59 -59 59h-13q-59 0 -59 -59v-10q0 -57 59 -58h13q59 1 59 58zM1624 401h27q82 0 135 -54t53 -136v-23q0 -82 -53 -135t-135 -53h-27q-84 0 -136 53t-52 135v23q0 82 53 136
t135 54zM993 401h27q82 0 135 -54t53 -136v-23q0 -82 -53 -135t-135 -53h-27q-84 0 -136 53t-52 135v23q0 82 53 136t135 54zM348 1280v10q0 59 -59 60h-13q-59 0 -59 -60v-10q0 -57 59 -57h13q59 0 59 57zM999 1487h148q39 0 20 -31l-827 -1425q-18 -31 -41 -31h-147
q-39 0 -21 31l827 1425q18 31 41 31zM270 1487h27q82 0 135 -54t53 -137v-22q0 -82 -52 -135t-136 -54h-27q-82 -1 -135 53t-53 136v22q0 82 53 136t135 55z" />
    <glyph glyph-name="guilsinglleft" unicode="&#x2039;" horiz-adv-x="677" 
d="M565 872v-165q0 -20 -37 -45l-202 -136l202 -135q37 -23 37 -45v-166q0 -16 -11 -20t-26 4l-385 266q-31 25 -30 47v98q-1 28 30 48l385 266q14 10 26 5t11 -22z" />
    <glyph glyph-name="guilsinglright" unicode="&#x203a;" horiz-adv-x="677" 
d="M565 477q0 -23 -30 -47l-385 -266q-14 -8 -26 -4q-11 4 -11 20v166q0 23 37 45l202 135l-202 136q-37 27 -37 45v165q0 16 11 22q12 5 26 -5l385 -266q31 -20 30 -48v-98z" />
    <glyph glyph-name="fraction" unicode="&#x2044;" horiz-adv-x="204" 
d="M463 1487h86q39 0 20 -31l-827 -1425q-18 -31 -41 -31h-86q-39 0 -21 31l828 1425q18 31 41 31z" />
    <glyph glyph-name="Euro" unicode="&#x20ac;" horiz-adv-x="1433" 
d="M1178 481h122q31 0 31 -30q-2 -199 -126 -338t-300 -140h-94q-182 -1 -308 141t-126 351v55h-244q-31 0 -31 31v113q0 31 31 30h244v94h-244q-31 0 -31 31v113q0 31 31 31h244v59q0 209 126 348t308 139h94q176 0 300 -137t126 -336q0 -31 -31 -30h-122q-33 0 -33 30
q0 129 -67 209t-173 80h-94q-113 0 -181 -82t-69 -221v-59h346q31 0 31 -31v-113q0 -31 -31 -31h-346v-94h346q31 0 31 -30v-113q0 -31 -31 -31h-346v-55q0 -141 69 -224t181 -83h94q106 0 174 82t66 211q0 30 33 30z" />
    <glyph glyph-name="hryvnia" unicode="&#x20b4;" horiz-adv-x="1179" 
d="M1036 788h-123q-72 -59 -176 -94h299q31 0 31 -30v-72q0 -31 -31 -31h-686q-53 -63 -53 -170t71 -171t175 -64h94q98 0 169 63t73 166l2 59q0 31 30 31h125q31 0 31 -31v-59q0 -176 -130 -295t-300 -119h-94q-176 0 -303 119t-127 301q0 96 30 170q-29 0 -28 31v72
q0 31 30 30h86q59 57 142 94h-228q-31 0 -30 31v72q0 31 30 31h656q73 60 73 170t-60 172t-159 63h-106q-96 0 -165 -70t-69 -178v-39q0 -31 -30 -30h-125q-31 0 -31 30v39q-2 185 126 309t294 123h106q170 1 287 -113t117 -292q0 -102 -41 -184h18q31 0 31 -31v-72
q0 -31 -31 -31z" />
    <glyph glyph-name="uni2116" unicode="&#x2116;" horiz-adv-x="2250" 
d="M1384 279v122q0 31 31 31h692q31 0 31 -31v-122q0 -31 -31 -31h-692q-31 0 -31 31zM1960 989v131q0 82 -46 137t-128 56h-51q-84 1 -129 -55t-45 -138v-131q0 -82 45 -137t129 -55h51q82 0 128 55t46 137zM1006 1487h122q31 0 31 -31v-1425q0 -31 -31 -31h-174
q-25 0 -36 23l-601 1146v-1138q0 -31 -30 -31h-123q-31 0 -31 31v1425q0 31 31 31h174q27 0 37 -23l600 -1147v1139q0 31 31 31zM1731 1491h59q146 0 246 -112t100 -255v-141q0 -143 -99 -255t-247 -112h-59q-150 0 -248 111t-99 256v141q0 145 98 256t249 111z" />
    <glyph glyph-name="uni2120" unicode="&#x2120;" horiz-adv-x="1572" 
d="M1337 1487h123q31 0 31 -31v-463q0 -31 -31 -30h-61q-31 0 -31 30v340l-201 -340q-18 -31 -39 -30h-43q-20 0 -38 30l-201 340v-340q0 -31 -31 -30h-61q-31 0 -31 30v463q0 31 31 31h123q25 0 41 -31l188 -338l190 338q18 31 41 31zM332 952q-120 0 -184 44
q-65 44 -66 112q0 16 18 16h82q18 0 19 -16q1 -39 109 -39t134 7t25 38q0 31 -23 40t-137 14q-227 10 -227 171q0 90 59 125t187 35q248 0 252 -164q0 -18 -15 -18h-82q-18 1 -19 23t-28 32q-28 10 -110 10t-105 -8t-23 -30t6 -32q13 -24 141 -30t183 -47q56 -41 56 -120
t-66 -121t-186 -42z" />
    <glyph glyph-name="trademark" unicode="&#x2122;" horiz-adv-x="1595" 
d="M1360 1487h123q31 0 30 -31v-463q0 -31 -30 -30h-62q-31 0 -30 30v340l-201 -340q-18 -31 -39 -30h-43q-20 0 -39 30l-201 340v-340q0 -31 -30 -30h-62q-31 0 -31 30v463q0 31 31 31h123q25 0 41 -31l188 -338l191 338q18 31 41 31zM113 1487h489q31 0 31 -31v-61
q0 -31 -31 -31h-182v-371q0 -31 -31 -30h-61q-31 0 -31 30v371h-184q-31 0 -31 31v61q0 31 31 31z" />
    <glyph glyph-name="oneeighth" unicode="&#x215b;" horiz-adv-x="1480" 
d="M1071 188q1 -33 23 -52t57 -19t59 19t23 52q0 33 -23 55t-55 21h-6q-33 0 -55 -22t-23 -54zM1149 371h6q33 -1 55 21t23 54q0 32 -24 52q-25 20 -59 20t-56 -19t-23 -53q1 -34 23 -54q22 -21 55 -21zM1358 183q0 -71 -50 -127t-130 -56h-52q-80 0 -130 56t-50 127t70 134
q-70 63 -70 135t50 127q50 56 130 56h52q80 0 130 -56q50 -55 50 -127t-70 -135q70 -63 70 -134zM246 885v571q0 31 30 31h66q31 0 31 -31v-571q0 -31 -31 -31h-66q-30 0 -30 31zM1081 1487h86q39 0 21 -31l-828 -1425q-18 -31 -41 -31h-86q-38 0 -20 31l827 1425
q18 31 41 31z" />
    <glyph glyph-name="threeeighths" unicode="&#x215c;" horiz-adv-x="1515" 
d="M1184 264q-33 0 -56 -22q-22 -22 -22 -54q0 -33 22 -52t58 -19q34 0 58 19t24 52t-23 55t-55 21h-6zM1184 371h6q34 -1 56 21t22 54t-24 52t-58 20t-58 -19q-22 -19 -22 -53t22 -54q22 -21 56 -21zM1393 183q-1 -71 -51 -127t-130 -56h-51q-80 0 -130 56t-50 127t70 134
q-70 63 -70 135t50 127q50 56 130 56h51q80 0 130 -56q50 -55 50 -127t-69 -135q70 -63 70 -134zM1116 1487h86q39 0 21 -31l-828 -1425q-18 -31 -41 -31h-86q-38 0 -20 31l827 1425q18 31 41 31zM350 854h-51q-74 0 -125 51t-51 119v27q0 31 31 30h61q31 0 31 -30v-15
q0 -27 22 -46t56 -19t58 19t24 52t-23 55t-55 21h-47q-31 0 -31 31v45q0 31 31 31h47q34 -1 56 21t22 54t-24 52t-58 20t-57 -19q-22 -19 -21 -46v-15q0 -31 -31 -30h-61q-31 0 -31 30v27q0 68 51 119t125 51h51q80 0 130 -56q50 -55 50 -127t-69 -135q69 -63 69 -134
t-50 -127t-130 -56z" />
    <glyph glyph-name="fiveeighths" unicode="&#x215d;" horiz-adv-x="1515" 
d="M1184 264q-33 0 -56 -22q-22 -22 -22 -54q0 -33 22 -52t58 -19q34 0 58 19t24 52t-23 55t-55 21h-6zM1184 371h6q34 -1 56 21t22 54t-24 52t-58 20t-58 -19q-22 -19 -22 -53t22 -54q22 -21 56 -21zM1393 183q-1 -71 -51 -127t-130 -56h-51q-80 0 -130 56t-50 127t70 134
q-70 63 -70 135t50 127q50 56 130 56h51q80 0 130 -56q50 -55 50 -127t-69 -135q70 -63 70 -134zM1116 1487h86q39 0 21 -31l-828 -1425q-18 -31 -41 -31h-86q-38 0 -20 31l827 1425q18 31 41 31zM530 1044q0 -78 -50 -135t-130 -57h-51q-74 0 -125 51t-51 119v27
q0 31 31 30h61q31 0 31 -30v-15q0 -27 22 -46t54 -19q80 0 84 86q6 128 -110 108q-36 -6 -56 -24h-86q-31 0 -31 30v287q0 31 31 31h325q31 0 31 -31v-57q0 -31 -31 -31h-237v-117q44 23 114 16q174 -17 174 -223z" />
    <glyph glyph-name="seveneighths" unicode="&#x215e;" horiz-adv-x="1495" 
d="M1085 188q1 -33 23 -52t57 -19t59 19t23 52q0 33 -22 55q-23 22 -56 21h-6q-33 0 -55 -22t-23 -54zM1163 371h6q33 -1 56 21t23 54t-24 53q-24 19 -59 19t-57 -19t-23 -53q1 -34 23 -54q22 -21 55 -21zM1192 0h-51q-80 0 -130 56t-50 127t69 134q-70 63 -70 135t51 127
q50 56 130 56h51q80 0 130 -56q50 -55 50 -127t-69 -135q69 -63 69 -134t-50 -127t-130 -56zM1096 1487h86q39 0 20 -31l-827 -1425q-18 -31 -41 -31h-86q-39 0 -21 31l828 1425q18 31 41 31zM510 1456v-59q0 -18 -8 -35l-221 -481q-16 -29 -33 -29h-86q-31 0 -19 29
l219 483h-208q-31 0 -31 31v61q0 31 31 31h325q31 0 31 -31z" />
    <glyph glyph-name="partialdiff" unicode="&#x2202;" horiz-adv-x="1165" 
d="M549 166h84q91 0 155 60t76 188q16 180 -45 255t-239 77t-235 -74q-56 -76 -53 -230t77 -216q74 -60 180 -60zM530 1509h91q179 -1 291 -117t130 -296q39 -352 9 -682q-18 -205 -130 -320t-288 -114h-84q-182 0 -309 114t-136 328q-8 252 113 379t345 127t308 -70
q10 313 -92 412q-61 59 -160 59h-88q-104 1 -171 -65t-66 -183v-34q0 -31 -31 -31h-125q-31 0 -31 31v34q0 186 123 307t301 121z" />
    <glyph glyph-name="emptyset" unicode="&#x2205;" horiz-adv-x="1206" 
d="M899 461v567q0 74 -25 131l-423 -971q45 -25 102 -24h100q109 0 177 85t69 212zM307 1028v-567q0 -59 17 -115l419 961q-39 18 -90 18h-100q-109 0 -177 -85t-69 -212zM1083 469q0 -203 -127 -346t-303 -143h-100q-94 0 -174 43q-16 -23 -37 -23h-135q-35 0 -21 31
l47 110q-111 141 -110 328v551q0 203 127 346t303 143h100q88 0 164 -36q12 14 33 14h135q33 0 21 -31l-43 -98q121 -141 120 -338v-551z" />
    <glyph glyph-name="product" unicode="&#x220f;" horiz-adv-x="1052" 
d="M154 963h747q29 0 29 -31v-901q0 -31 -31 -31h-123q-31 0 -31 31v747h-438v-747q0 -31 -31 -31h-122q-31 0 -31 31v901q0 31 31 31z" />
    <glyph glyph-name="summation" unicode="&#x2211;" horiz-adv-x="1120" 
d="M123 1350v106q0 31 31 31h813q31 0 30 -33v-121q0 -31 -30 -30h-576l412 -490q29 -33 28 -49v-43q0 -16 -28 -49l-412 -486l576 -2q31 0 30 -30l-2 -123q0 -31 -28 -31h-813q-31 0 -31 31v106q0 18 31 58l458 546l-458 551q-31 40 -31 58z" />
    <glyph glyph-name="minus" unicode="&#x2212;" horiz-adv-x="1052" 
d="M154 723h747q29 0 29 -31v-123q0 -31 -31 -30h-745q-31 0 -31 30v123q0 31 31 31z" />
    <glyph glyph-name="radical" unicode="&#x221a;" horiz-adv-x="1230" 
d="M131 688h133q23 0 37 -33l184 -407l437 1206q12 33 36 33h144q37 0 24 -33l-528 -1421q-12 -33 -39 -33h-135q-27 0 -39 33l-279 622q-14 33 25 33z" />
    <glyph glyph-name="infinity" unicode="&#x221e;" horiz-adv-x="1734" 
d="M1452 530v50q0 96 -53 147t-146 51h-69q-86 0 -144 -55t-57 -143v-50q0 -88 58 -143t143 -55h69q90 0 145 52q54 52 54 146zM752 530v50q0 90 -56 144t-145 54h-70q-86 0 -141 -52t-55 -146v-50q0 -94 55 -146t141 -52h70q89 0 145 55t56 143zM1184 963h76
q156 1 264 -101t108 -276v-62q0 -172 -108 -273t-264 -101h-76q-92 0 -177 57t-139 143q-51 -86 -137 -143t-180 -57h-76q-153 0 -263 102t-110 272v62q0 172 111 274t262 103h76q94 1 180 -57t137 -146q52 88 138 146t178 57z" />
    <glyph glyph-name="integral" unicode="&#x222b;" horiz-adv-x="909" 
d="M696 1487h80q31 0 31 -31v-123q0 -31 -31 -30h-18q-106 1 -158 -55t-53 -177v-1096q0 -174 -91 -279t-243 -106h-80q-31 0 -31 31v123q0 31 31 31h19q106 0 158 55t52 176v1096q0 174 91 280t243 105z" />
    <glyph glyph-name="approxequal" unicode="&#x2248;" horiz-adv-x="1107" 
d="M954 467l50 -96q12 -23 -21 -45q-102 -74 -225 -80q-122 -6 -222 53t-179 55t-167 -63q-20 -12 -34 16l-50 96q-12 23 21 46q104 73 227 79q122 6 222 -53t178 -56t166 64q18 13 34 -16zM954 811l50 -96q14 -23 -21 -45q-104 -74 -226 -80q-121 -6 -221 53t-179 56
t-167 -64q-18 -12 -34 16l-50 97q-10 25 21 45q104 75 227 81q122 6 222 -54t177 -56t167 63q20 13 34 -16z" />
    <glyph glyph-name="notequal" unicode="&#x2260;" horiz-adv-x="909" 
d="M709 1395h135q33 0 20 -31l-209 -477h111q31 0 31 -31v-113q0 -31 -31 -30h-186l-66 -150h252q31 0 31 -31v-112q0 -31 -31 -31h-328l-196 -450q-16 -31 -41 -31h-135q-37 0 -21 31l197 450h-99q-31 0 -30 31v112q0 31 30 31h174l66 150h-240q-31 0 -30 30v113
q0 31 30 31h316l209 477q12 31 41 31z" />
    <glyph glyph-name="lessequal" unicode="&#x2264;" horiz-adv-x="983" 
d="M156 184h673q31 0 31 -30v-123q0 -31 -31 -31h-671q-31 0 -31 31v123q0 30 29 30zM860 1153v-131q0 -37 -20 -49l-449 -244l449 -244q20 -8 20 -49v-131q0 -12 -9 -17t-24 1l-677 370q-27 15 -27 71t27 69l677 370q13 6 23 1t10 -17z" />
    <glyph glyph-name="greaterequal" unicode="&#x2265;" horiz-adv-x="983" 
d="M154 184h673q29 0 29 -30v-123q0 -31 -31 -31h-671q-31 0 -31 31v123q0 30 31 30zM123 1022v131q0 12 9 17t24 -1l678 -370q26 -11 26 -67t-26 -73l-678 -370q-14 -6 -24 -1q-9 5 -9 17v131q0 41 20 49l449 244l-449 244q-20 12 -20 49z" />
    <glyph glyph-name="lozenge" unicode="&#x25ca;" horiz-adv-x="931" 
d="M465 299l213 512q6 10 0 20l-211 510l-213 -510q-6 -12 0 -20zM498 0h-64q-27 0 -39 33l-311 774q-4 12 0 24l311 775q10 33 39 32h64q27 0 39 -32l311 -775q4 -12 0 -24l-311 -774q-10 -33 -39 -33z" />
    <glyph glyph-name="i.loclTRK" horiz-adv-x="512" 
d="M164 31v903q0 31 31 31h122q31 0 31 -31v-903q0 -31 -31 -31h-122q-31 0 -31 31zM133 1268v186q0 33 33 33h182q31 0 31 -33v-186q0 -33 -31 -33h-182q-33 0 -33 33z" />
    <glyph glyph-name="zero.lf" horiz-adv-x="1206" 
d="M553 164h100q109 0 177 85t69 212v567q0 127 -69 212t-177 85h-100q-109 0 -177 -85t-69 -212v-567q1 -127 69 -212t177 -85zM553 1509h100q176 0 303 -143t127 -346v-551q0 -203 -127 -346t-303 -143h-100q-176 0 -303 143t-127 346v551q0 203 127 346t303 143z" />
    <glyph glyph-name="one.lf" horiz-adv-x="841" 
d="M401 1487h123q31 0 31 -31v-1425q0 -31 -31 -31h-123q-31 0 -30 31v1186l-88 -87q-18 -25 -43 0l-86 87q-20 20 0 43l221 217q13 10 26 10z" />
    <glyph glyph-name="two.lf" horiz-adv-x="1159" 
d="M629 1503q172 0 300 -119q128 -120 128 -314t-80 -298t-270 -180l-232 -92q-110 -46 -141 -134t-31 -182h709q31 0 30 -30v-123q0 -31 -30 -31h-877q-31 0 -31 31q2 266 50 407q47 141 202 209l299 129q129 56 173 114t44 178t-68 186q-69 65 -175 65h-86
q-102 0 -170 -65t-68 -177v-35q0 -31 -31 -30h-124q-31 0 -31 30v35q0 186 127 304t297 122h86z" />
    <glyph glyph-name="three.lf" horiz-adv-x="1148" 
d="M610 852q238 11 238 242q0 106 -66 170t-170 63h-88q-98 0 -167 -70t-68 -174v-39q0 -31 -31 -30h-125q-31 0 -31 30v39q0 185 129 307t293 121h88q170 1 295 -115t125 -268t-58 -238q-58 -85 -179 -134q252 -102 252 -377q0 -176 -129 -287t-306 -110h-86
q-168 0 -297 114t-127 295v39q0 31 31 31h125q31 0 31 -31v-39q0 -98 69 -162q70 -63 168 -63h86q111 0 181 61t69 162q0 254 -252 266h-149q-31 0 -31 31v135q0 31 31 31h149z" />
    <glyph glyph-name="four.lf" horiz-adv-x="1128" 
d="M688 678v254q0 31 31 31h123q31 0 30 -31v-254h134q31 0 30 -31v-123q0 -31 -30 -30h-134v-463q0 -31 -30 -31h-123q-31 0 -31 31v463h-590q-25 0 -32 20l-19 55q-10 29 4 49l565 869q14 23 41 22h152q19 0 25 -11t-5 -28l-503 -792h362z" />
    <glyph glyph-name="five.lf" horiz-adv-x="1163" 
d="M528 -18q-178 0 -302 114t-124 297v33q0 31 31 31h125q31 0 31 -31v-33q0 -111 63 -169t176 -58h86q250 0 258 252q6 168 -58 244q-65 76 -206 75h-47q-118 0 -177 -34t-77 -48h-153q-31 0 -31 31v39l20 731q0 31 31 31h787q31 0 30 -31v-123q0 -31 -30 -30h-633
l-17 -445q109 74 264 74h46q201 0 325 -130t115 -380q-8 -211 -136 -326t-311 -114h-86z" />
    <glyph glyph-name="six.lf" horiz-adv-x="1163" 
d="M528 166h90q106 0 180 60t76 212t-51 229t-202 76h-56q-166 1 -222 -77t-42 -252q13 -128 75 -188t152 -60zM635 1511q178 1 301 -121t123 -309v-34q0 -31 -31 -31h-125q-31 0 -31 31v34q0 117 -66 182q-67 65 -171 64h-88q-97 0 -159 -58q-103 -97 -93 -411
q35 30 111 52t159 22h53q225 0 338 -130t105 -380q-8 -213 -134 -327t-309 -113h-90q-176 0 -286 114t-127 318q-31 330 8 682q18 180 130 296t292 119h90z" />
    <glyph glyph-name="seven.lf" horiz-adv-x="1165" 
d="M1073 1456v-110q0 -12 -6 -25q-532 -631 -721 -1337q-6 -25 -43 -11l-127 33q-18 6 -10 43q178 688 668 1254h-711q-31 0 -31 30v123q0 31 31 31h919q31 0 31 -31z" />
    <glyph glyph-name="eight.lf" horiz-adv-x="1173" 
d="M887 377v78q1 90 -63 153t-158 64h-158q-94 0 -158 -64t-63 -153v-78q0 -87 62 -149t159 -62h158q96 0 158 62t63 149zM313 1128v-59q-1 -88 55 -145t150 -58h137q93 0 149 58t56 145v59q0 82 -57 140t-152 59h-129q-94 -1 -152 -59t-57 -140zM1071 440v-80
q0 -156 -117 -268t-284 -110h-166q-168 0 -285 112t-117 266v80q0 102 50 192t137 136q-78 43 -120 129t-42 195v47q0 153 109 263t272 109h158q164 -1 272 -111t109 -261v-47q0 -109 -42 -195t-120 -129q86 -45 136 -135t50 -193z" />
    <glyph glyph-name="nine.lf" horiz-adv-x="1165" 
d="M639 1327h-90q-106 0 -179 -60t-77 -192q-4 -172 49 -249t203 -76h55q168 0 224 78t42 228q-14 152 -75 212t-152 59zM530 -18q-178 0 -301 122t-123 308v34q0 31 31 31h125q31 0 31 -31v-34q1 -117 67 -182t170 -64h88q202 0 240 234q19 116 12 235q-36 -29 -110 -51
t-158 -21h-55q-225 0 -338 129t-105 379q8 213 134 327t311 113h90q176 1 285 -113t127 -319q31 -330 -9 -682q-18 -179 -130 -295t-291 -120h-91z" />
    <glyph glyph-name="zero.osf" horiz-adv-x="1079" 
d="M782 377v209q0 82 -49 139t-131 57h-125q-82 0 -131 -57t-49 -139v-209q0 -80 49 -137t131 -58h125q82 0 131 58t49 137zM479 967h121q152 0 260 -112t107 -267v-213q-1 -153 -107 -265t-260 -112h-121q-154 0 -260 112t-106 265v213q0 156 107 268t259 111z" />
    <glyph glyph-name="one.osf" horiz-adv-x="763" 
d="M524 195h76q31 0 31 -31v-133q0 -31 -31 -31h-389q-31 0 -31 31v133q0 31 31 31h129v497l-88 -86q-18 -25 -43 0l-86 86q-20 20 0 43l221 217q13 10 27 11h123q31 0 30 -31v-737z" />
    <glyph glyph-name="two.osf" horiz-adv-x="1095" 
d="M979 620q0 -136 -66 -186t-274 -88l-188 -37q-131 -28 -129 -125h620q31 0 31 -30v-123q0 -31 -31 -31h-799q-31 0 -30 31q0 187 49 298q49 112 217 144l229 43q125 25 156 41q31 15 31 73q1 58 -53 103t-142 45h-90q-90 0 -143 -46t-54 -111v-21q0 -31 -30 -31h-125
q-31 0 -31 31v21q-1 135 111 239t268 107h88q152 -3 268 -107t117 -240z" />
    <glyph glyph-name="three.osf" horiz-adv-x="1148" 
d="M1047 -68q0 -148 -129 -251q-129 -102 -306 -103h-86q-166 0 -295 111t-129 278v39q0 31 31 31h125q31 0 31 -31v-39q-1 -88 71 -146t172 -59h80q111 0 181 56q69 56 69 151t-62 153t-190 64h-108q-31 0 -31 31v135q0 31 31 31h108q127 6 183 55q55 48 55 138t-66 147
t-170 57h-82q-96 0 -169 -62t-72 -151v-39q0 -31 -31 -30h-125q-31 0 -31 30v39q0 174 128 286t294 112h88q172 -1 296 -107t124 -268q0 -242 -233 -303q248 -68 248 -355z" />
    <glyph glyph-name="four.osf" horiz-adv-x="1128" 
d="M688 184v254q0 31 31 31h123q31 0 30 -31v-254h134q31 0 30 -30v-123q0 -31 -30 -31h-134v-379q0 -31 -30 -31h-123q-31 0 -31 31v379h-590q-25 0 -32 20l-19 56q-10 29 4 49l565 868q14 23 41 23h152q19 0 25 -11t-5 -28l-503 -793h362z" />
    <glyph glyph-name="five.osf" horiz-adv-x="1179" 
d="M621 -426h-86q-178 0 -303 114q-124 114 -123 298v32q0 31 30 31h125q31 0 31 -31v-32q0 -111 63 -169t177 -59h86q250 0 258 252q7 168 -57 242q-83 97 -302 76q-94 -9 -174 -60l-33 -20h-153q-31 0 -31 31v38l21 615q0 31 30 31h787q31 0 30 -31v-123q0 -31 -30 -31
h-635l-15 -327q111 75 311 73t324 -131t115 -379q-8 -212 -136 -326t-310 -114z" />
    <glyph glyph-name="six.osf" horiz-adv-x="1163" 
d="M528 166h90q106 0 180 60t76 212t-51 229t-202 76h-56q-166 1 -222 -77t-42 -252q13 -128 75 -188t152 -60zM635 1511q178 1 301 -121t123 -309v-34q0 -31 -31 -31h-125q-31 0 -31 31v34q0 117 -66 182q-67 65 -171 64h-88q-97 0 -159 -58q-103 -97 -93 -411
q35 30 111 52t159 22h53q225 0 338 -130t105 -380q-8 -213 -134 -327t-309 -113h-90q-176 0 -286 114t-127 318q-31 330 8 682q18 180 130 296t292 119h90z" />
    <glyph glyph-name="seven.osf" horiz-adv-x="1165" 
d="M354 -410h-135q-37 0 -26 35q190 614 641 1153h-711q-31 0 -31 31v123q0 31 31 31h919q31 0 31 -31v-111q0 -12 -6 -24q-467 -567 -678 -1182q-8 -25 -35 -25z" />
    <glyph glyph-name="eight.osf" horiz-adv-x="1173" 
d="M887 377v78q1 90 -63 153t-158 64h-158q-94 0 -158 -64t-63 -153v-78q0 -87 62 -149t159 -62h158q96 0 158 62t63 149zM313 1128v-59q-1 -88 55 -145t150 -58h137q93 0 149 58t56 145v59q0 82 -57 140t-152 59h-129q-94 -1 -152 -59t-57 -140zM1071 440v-80
q0 -156 -117 -268t-284 -110h-166q-168 0 -285 112t-117 266v80q0 102 50 192t137 136q-78 43 -120 129t-42 195v47q0 153 109 263t272 109h158q164 -1 272 -111t109 -261v-47q0 -109 -42 -195t-120 -129q86 -45 136 -135t50 -193z" />
    <glyph glyph-name="nine.osf" horiz-adv-x="1181" 
d="M637 780h-84q-106 0 -178 -58t-75 -190t57 -201q59 -69 229 -67t231 69t55 199t-70 190q-65 58 -165 58zM539 -424q-178 0 -301 111t-123 288v19q0 31 30 31h125q31 0 31 -31v-19q0 -94 69 -154t169 -61h90q211 0 240 206q15 108 10 192q-71 -76 -305 -76t-351 117
t-109 330t134 325q127 112 309 111h84q176 0 288 -113t130 -309q27 -285 -8 -582q-18 -171 -131 -277t-291 -108h-90z" />
    <glyph glyph-name="zero.tf" horiz-adv-x="1433" 
d="M670 164h100q110 0 178 85t68 212v567q0 127 -69 212t-177 85h-100q-110 0 -178 -85t-68 -212v-567q0 -127 68 -212t178 -85zM670 1509h100q176 0 303 -143t127 -346v-551q0 -203 -127 -346t-303 -143h-100q-176 0 -303 143t-127 346v551q0 203 127 346t303 143z" />
    <glyph glyph-name="one.tf" horiz-adv-x="1433" 
d="M664 1487h122q31 0 31 -31v-1425q0 -31 -31 -31h-122q-31 0 -31 31v1186l-86 -87q-20 -25 -45 0l-86 87q-18 18 2 43l225 223q13 4 21 4z" />
    <glyph glyph-name="two.tf" horiz-adv-x="1433" 
d="M766 1503q172 0 300 -119q128 -120 128 -314t-80 -298t-270 -180l-232 -92q-72 -29 -112 -86q-40 -56 -50 -108q-9 -52 -10 -122h709q31 0 31 -30v-123q0 -31 -31 -31h-877q-31 0 -30 31q2 266 49 407t203 209l299 129q129 56 173 114t44 178t-69 186q-69 65 -175 65h-86
q-102 0 -170 -65t-68 -177v-35q0 -31 -30 -30h-125q-31 0 -31 30v35q0 186 127 304t297 122h86z" />
    <glyph glyph-name="three.tf" horiz-adv-x="1433" 
d="M754 852q237 11 237 242q0 106 -65 170q-66 63 -170 63h-88q-98 0 -167 -70t-69 -174v-39q0 -31 -31 -30h-125q-31 0 -30 30v39q0 185 129 307t293 121h88q170 1 295 -115t125 -268t-58 -238q-58 -85 -180 -134q252 -102 252 -377q0 -176 -129 -287t-305 -110h-86
q-168 0 -297 114t-127 295v39q0 31 30 31h125q31 0 31 -31v-39q0 -97 70 -161t168 -64h86q110 0 180 61t70 162q0 254 -252 266h-150q-31 0 -31 31v135q0 31 31 31h150z" />
    <glyph glyph-name="four.tf" horiz-adv-x="1433" 
d="M856 678v254q0 31 31 31h123q31 0 30 -31v-254h134q31 0 30 -31v-123q0 -31 -30 -30h-134v-463q0 -31 -30 -31h-123q-31 0 -31 31v463h-590q-25 0 -33 20l-18 55q-10 29 4 49l565 869q14 23 41 22h152q20 0 25 -11t-5 -28l-503 -792h362z" />
    <glyph glyph-name="five.tf" horiz-adv-x="1433" 
d="M694 737q-143 0 -252 -82h-153q-31 0 -31 31v39l21 731q0 31 30 31h787q31 0 30 -31v-123q0 -31 -30 -30h-635l-15 -445q104 74 265 74h45q200 0 324 -130t116 -380q-8 -211 -136 -326t-310 -114h-86q-178 0 -303 113q-124 114 -123 298v33q0 31 30 31h125q31 0 31 -31
v-33q0 -111 63 -169t177 -58h86q250 0 258 252q6 168 -60 244t-205 75h-49z" />
    <glyph glyph-name="six.tf" horiz-adv-x="1433" 
d="M664 168h90q106 0 179 60t76 212t-51 229t-202 76h-56q-166 1 -222 -77t-42 -252q12 -128 74 -188t154 -60zM770 1513q178 1 301 -121t123 -309v-34q0 -31 -31 -31h-125q-31 0 -30 31v34q0 117 -67 182t-171 64h-88q-98 0 -160 -59q-103 -98 -92 -410q35 28 110 50
t160 22h54q225 0 338 -129q112 -129 104 -361t-134 -346q-126 -115 -308 -114h-90q-176 0 -286 114t-128 320q-31 330 8 682q18 180 130 296t292 119h90z" />
    <glyph glyph-name="seven.tf" horiz-adv-x="1433" 
d="M1206 1456v-110q0 -12 -6 -25q-532 -631 -721 -1337q-6 -25 -43 -11l-127 33q-18 6 -10 43q178 688 668 1254h-711q-31 0 -31 30v123q0 31 31 31h920q30 0 30 -31z" />
    <glyph glyph-name="eight.tf" horiz-adv-x="1433" 
d="M1016 377v78q0 90 -64 153t-157 64h-158q-93 0 -157 -64t-64 -153v-78q0 -87 62 -149t159 -62h158q97 0 159 62t62 149zM442 1128v-59q0 -88 56 -145t149 -58h137q94 0 150 58t55 145v59q0 82 -57 140t-152 59h-129q-93 -1 -151 -59t-58 -140zM1200 440v-80
q0 -156 -117 -268t-284 -110h-166q-168 0 -285 112t-117 266v80q1 102 51 192t136 136q-78 43 -120 129t-42 195v47q0 153 109 263t272 109h158q165 -1 273 -111t108 -261v-47q0 -109 -42 -195t-120 -129q86 -45 136 -135t50 -193z" />
    <glyph glyph-name="nine.tf" horiz-adv-x="1433" 
d="M772 1327h-90q-106 0 -179 -60t-77 -192q-4 -172 49 -249t203 -76h55q168 0 224 78t42 228q-14 152 -75 212t-152 59zM664 -18q-178 0 -302 121q-123 122 -122 309v34q0 31 30 31h125q31 0 31 -31v-34q0 -117 67 -182t171 -64h88q201 0 239 234q19 116 13 235
q-35 -29 -110 -51t-159 -21h-55q-225 0 -338 129q-112 128 -104 360t134 346t310 113h90q176 1 285 -113t127 -319q31 -330 -8 -682q-18 -179 -130 -295t-292 -120h-90z" />
    <glyph glyph-name="zero.tosf" horiz-adv-x="1433" 
d="M958 377v209q0 82 -49 139t-131 57h-125q-82 0 -131 -57t-49 -139v-209q0 -80 49 -137t131 -58h125q82 0 131 58t49 137zM655 967h121q152 0 260 -112t107 -267v-213q-1 -153 -107 -265t-260 -112h-121q-154 0 -260 112t-106 265v213q0 156 107 268t259 111z" />
    <glyph glyph-name="one.tosf" horiz-adv-x="1433" 
d="M836 195h75q31 0 31 -31v-133q0 -31 -31 -31h-389q-31 0 -30 31v133q0 31 30 31h129v497l-88 -86q-18 -25 -43 0l-86 86q-20 20 0 43l221 217q15 10 27 11h123q31 0 31 -31v-737z" />
    <glyph glyph-name="two.tosf" horiz-adv-x="1433" 
d="M1153 620q0 -136 -67 -186t-273 -88l-190 -37q-127 -29 -127 -125h620q31 0 31 -30v-123q0 -31 -31 -31h-799q-31 0 -30 31q0 187 49 298q49 112 217 144l229 43q125 25 156 41q31 15 31 73q1 58 -53 103t-144 45h-90q-90 0 -142 -46t-53 -111v-21q0 -31 -30 -31h-125
q-31 0 -31 31v21q-1 135 111 239t268 107h88q152 -3 268 -107t117 -240z" />
    <glyph glyph-name="three.tosf" horiz-adv-x="1433" 
d="M1190 -68q0 -148 -129 -251q-129 -102 -305 -103h-86q-166 0 -295 111t-129 278v39q0 31 30 31h125q31 0 31 -31v-39q0 -88 72 -146t172 -59h80q110 0 180 56t70 151t-62 153t-190 64h-109q-31 0 -31 31v135q0 31 31 31h109q127 6 182 55q55 48 55 138t-65 147
q-66 57 -170 57h-82q-96 0 -169 -62t-73 -151v-39q0 -31 -31 -30h-125q-31 0 -30 30v39q0 174 128 286t294 112h88q172 -1 296 -107t124 -268q-1 -242 -234 -303q248 -68 248 -355z" />
    <glyph glyph-name="four.tosf" horiz-adv-x="1433" 
d="M856 184v254q0 31 31 31h123q31 0 30 -31v-254h134q31 0 30 -30v-123q0 -31 -30 -31h-134v-379q0 -31 -30 -31h-123q-31 0 -31 31v379h-590q-27 0 -33 20l-18 56q-10 25 4 49l565 868q14 23 41 23h150q20 0 25 -11t-5 -28l-501 -793h362z" />
    <glyph glyph-name="five.tosf" horiz-adv-x="1433" 
d="M750 -426h-86q-178 0 -303 114q-124 114 -123 298v32q0 31 30 31h125q31 0 31 -31v-32q0 -111 63 -169t177 -59h86q250 0 258 252q6 168 -58 242q-83 97 -301 76q-94 -9 -174 -60l-33 -20h-153q-31 0 -31 31v38l21 615q0 31 30 31h787q31 0 30 -31v-123q0 -31 -30 -31
h-635l-15 -327q111 75 311 73q199 -2 323 -131t116 -379q-8 -212 -136 -326t-310 -114z" />
    <glyph glyph-name="six.tosf" horiz-adv-x="1433" 
d="M664 166h90q106 0 179 60t77 192q4 172 -49 249t-203 76h-56q-168 1 -224 -77t-42 -230t76 -210q62 -60 152 -60zM772 1511q178 1 301 -121t123 -309v-34q0 -31 -31 -31h-125q-31 0 -30 31v34q0 117 -67 182t-171 64h-88q-204 0 -240 -233q-18 -117 -12 -236
q35 30 110 52t158 22h56q225 0 338 -130q112 -130 104 -362t-134 -345q-126 -114 -310 -113h-90q-176 0 -285 114t-127 318q-31 330 8 682q18 180 130 296t292 119h90z" />
    <glyph glyph-name="seven.tosf" horiz-adv-x="1433" 
d="M487 -410h-135q-37 0 -26 35q190 614 641 1153h-711q-31 0 -31 31v123q0 31 31 31h920q31 0 30 -31v-111q0 -12 -6 -24q-467 -567 -678 -1182q-10 -25 -35 -25z" />
    <glyph glyph-name="eight.tosf" horiz-adv-x="1433" 
d="M1018 377v78q0 90 -64 153t-157 64h-158q-93 0 -157 -64t-64 -153v-78q0 -87 62 -149t159 -62h158q97 0 159 62t62 149zM444 1128v-59q0 -88 56 -145t149 -58h137q94 0 150 58t55 145v59q0 82 -57 140t-152 59h-129q-93 -1 -151 -59t-58 -140zM1202 440v-80
q0 -156 -117 -268t-284 -110h-166q-168 0 -285 112t-117 266v80q1 102 51 192t136 136q-78 43 -120 129t-42 195v47q0 153 109 263t272 109h158q165 -1 273 -111t108 -261v-47q0 -109 -42 -195t-120 -129q86 -45 136 -135t50 -193z" />
    <glyph glyph-name="nine.tosf" horiz-adv-x="1433" 
d="M764 780h-84q-106 0 -178 -58t-75 -190t57 -201t230 -67t230 69q61 67 55 199t-70 190q-65 58 -165 58zM666 -424q-178 0 -301 111t-123 288v19q0 31 30 31h125q31 0 31 -31v-19q0 -94 69 -154t169 -61h90q211 0 240 206q15 108 10 192q-72 -76 -306 -76t-350 117
q-118 117 -110 330t135 325t309 111h84q176 0 288 -113t130 -309q27 -285 -8 -582q-18 -171 -131 -277t-291 -108h-90z" />
    <glyph glyph-name="zero.dnom" horiz-adv-x="653" 
d="M406 186v263q0 31 -24 50t-58 19t-57 -19q-22 -19 -21 -50v-263q0 -31 22 -50t56 -19t58 19t24 50zM299 635h51q80 0 130 -53t50 -125v-279q0 -72 -50 -125t-130 -53h-51q-72 0 -124 54t-52 124v279q0 70 52 124t124 54z" />
    <glyph glyph-name="one.dnom" horiz-adv-x="618" 
d="M246 31v571q0 31 30 31h66q31 0 31 -31v-571q0 -31 -31 -31h-66q-30 0 -30 31z" />
    <glyph glyph-name="two.dnom" horiz-adv-x="655" 
d="M532 31q0 -31 -30 -31h-344q-31 0 -31 31v49q0 30 11 46t44 50l144 154q4 4 41 37t38 69q1 35 -23 59q-24 23 -58 23t-57 -19q-22 -19 -21 -46v-15q0 -31 -31 -30h-61q-31 0 -31 30v27q0 68 51 119t125 51h51q80 -1 130 -61t50 -126t-34 -114q-34 -49 -97 -113l-104 -104
l207 4q31 0 30 -31v-59z" />
    <glyph glyph-name="three.dnom" horiz-adv-x="653" 
d="M350 0h-51q-74 0 -125 51t-51 119v27q0 31 31 30h61q31 0 31 -30v-15q0 -27 22 -46t56 -19t58 19t24 52t-23 55t-55 21h-47q-31 0 -31 31v45q0 31 31 31h47q34 -1 56 21t22 54t-24 52t-58 20t-57 -19q-22 -19 -21 -46v-15q0 -31 -31 -30h-61q-31 0 -31 30v27q0 68 51 119
t125 51h51q80 0 130 -56q50 -55 50 -127t-69 -135q69 -63 69 -134t-50 -127t-130 -56z" />
    <glyph glyph-name="four.dnom" horiz-adv-x="688" 
d="M383 246v205l-104 -205h104zM506 242h29q31 0 30 -31v-61q0 -31 -30 -31h-29v-88q0 -31 -31 -31h-61q-31 0 -31 31v88h-223q-29 0 -31 31l-6 59q0 8 8 24l217 388q8 14 29 14h98q31 0 31 -31v-362z" />
    <glyph glyph-name="five.dnom" horiz-adv-x="653" 
d="M530 193q0 -77 -50 -135t-130 -58h-51q-74 0 -125 51t-51 119v27q0 31 31 30h61q31 0 31 -30v-15q0 -27 22 -46t54 -19q80 0 84 86q6 128 -110 108q-36 -6 -56 -24h-86q-31 0 -31 30v287q0 31 31 31h325q31 0 31 -31v-57q0 -31 -31 -31h-237v-117q44 23 114 16
q174 -17 174 -222z" />
    <glyph glyph-name="six.dnom" horiz-adv-x="653" 
d="M325 117q81 0 81 95t-81 95t-81 -95t81 -95zM530 193q0 -77 -50 -135t-130 -58h-51q-70 0 -113 48t-53 110t-10 194q0 209 113 260q133 61 264 -24q22 -16 12 -41l-12 -41q-8 -33 -41 -14q-68 45 -158 28q-55 -12 -59 -67l-2 -54q46 23 116 16q174 -17 174 -222z" />
    <glyph glyph-name="seven.dnom" horiz-adv-x="632" 
d="M510 604v-59q0 -18 -8 -35l-221 -481q-16 -29 -33 -29h-86q-31 0 -19 29l219 483h-208q-31 0 -31 31v61q0 31 31 31h325q31 0 31 -31z" />
    <glyph glyph-name="eight.dnom" horiz-adv-x="657" 
d="M326 264q-33 0 -56 -22q-22 -22 -22 -54q0 -33 22 -52t58 -19q34 0 58 19t24 52t-23 55t-55 21h-6zM326 371h6q34 -1 56 21t22 54t-24 52t-58 20t-58 -19q-22 -19 -22 -53t22 -54q22 -21 56 -21zM535 183q-1 -71 -51 -127t-130 -56h-51q-80 0 -130 56t-50 127t70 134
q-70 63 -70 135t50 127q50 56 130 56h51q80 0 130 -56q50 -55 50 -127t-69 -135q70 -63 70 -134z" />
    <glyph glyph-name="nine.dnom" horiz-adv-x="653" 
d="M329 518q-81 0 -81 -95t81 -95t81 95t-81 95zM123 442q0 78 50 136t130 57h51q70 0 113 -48q43 -47 53 -109t10 -195q0 -209 -112 -260q-133 -61 -264 24q-23 16 -13 41l13 41q8 33 41 14q68 -45 157 -28q55 12 60 67l2 54q-45 -23 -116 -16q-175 17 -175 222z" />
    <glyph glyph-name="zero.numr" horiz-adv-x="653" 
d="M406 1038v262q0 30 -24 50t-58 20t-57 -19q-22 -19 -21 -51v-262q0 -31 22 -50t56 -19t58 19t24 50zM299 1487h51q80 0 130 -53t50 -125v-279q0 -72 -50 -125t-130 -53h-51q-72 0 -124 54t-52 124v279q0 70 52 124t124 54z" />
    <glyph glyph-name="one.numr" horiz-adv-x="618" 
d="M246 885v571q0 31 30 31h66q31 0 31 -31v-571q0 -31 -31 -31h-66q-30 0 -30 31z" />
    <glyph glyph-name="two.numr" horiz-adv-x="655" 
d="M532 883q0 -31 -30 -31h-344q-31 0 -31 31v49q0 30 11 46t44 50l144 154q4 4 41 37t38 69q1 35 -23 59q-24 23 -58 23t-57 -19q-22 -19 -21 -46v-15q0 -31 -31 -30h-61q-31 0 -31 30v27q0 68 51 119t125 51h51q80 -1 130 -61t50 -126t-34 -114q-34 -49 -97 -113
l-104 -104l207 4q31 0 30 -31v-59z" />
    <glyph glyph-name="three.numr" horiz-adv-x="653" 
d="M350 854h-51q-74 0 -125 51t-51 119v27q0 31 31 30h61q31 0 31 -30v-15q0 -27 22 -46t56 -19t58 19t24 52t-23 55t-55 21h-47q-31 0 -31 31v45q0 31 31 31h47q34 -1 56 21t22 54t-24 52t-58 20t-57 -19q-22 -19 -21 -46v-15q0 -31 -31 -30h-61q-31 0 -31 30v27
q0 68 51 119t125 51h51q80 0 130 -56q50 -55 50 -127t-69 -135q69 -63 69 -134t-50 -127t-130 -56z" />
    <glyph glyph-name="four.numr" horiz-adv-x="688" 
d="M383 1098v205l-104 -205h104zM506 1094h29q31 0 30 -31v-62q0 -31 -30 -30h-29v-88q0 -31 -31 -31h-61q-31 0 -31 31v88h-223q-29 0 -31 30l-6 60q0 8 8 24l217 388q8 14 29 14h98q31 0 31 -31v-362z" />
    <glyph glyph-name="five.numr" horiz-adv-x="653" 
d="M530 1044q0 -78 -50 -135t-130 -57h-51q-74 0 -125 51t-51 119v27q0 31 31 30h61q31 0 31 -30v-15q0 -27 22 -46t54 -19q80 0 84 86q6 128 -110 108q-36 -6 -56 -24h-86q-31 0 -31 30v287q0 31 31 31h325q31 0 31 -31v-57q0 -31 -31 -31h-237v-117q44 23 114 16
q174 -17 174 -223z" />
    <glyph glyph-name="six.numr" horiz-adv-x="653" 
d="M325 969q81 0 81 95t-81 95t-81 -95t81 -95zM530 1044q0 -78 -50 -135t-130 -57h-51q-70 0 -113 48t-53 110t-10 194q0 209 113 260q133 61 264 -24q22 -16 12 -41l-12 -41q-8 -33 -41 -15q-68 45 -158 29q-55 -12 -59 -67l-2 -54q46 23 116 16q174 -17 174 -223z" />
    <glyph glyph-name="seven.numr" horiz-adv-x="632" 
d="M510 1456v-59q0 -18 -8 -35l-221 -481q-16 -29 -33 -29h-86q-31 0 -19 29l219 483h-208q-31 0 -31 31v61q0 31 31 31h325q31 0 31 -31z" />
    <glyph glyph-name="eight.numr" horiz-adv-x="657" 
d="M326 1116q-33 0 -56 -22q-22 -22 -22 -54q0 -33 22 -52t58 -19q34 0 58 19t24 52t-23 55t-55 21h-6zM326 1223h6q34 -1 56 21t22 54t-24 52t-58 20t-58 -19q-22 -19 -22 -53t22 -54q22 -21 56 -21zM535 1035q-1 -71 -51 -127t-130 -56h-51q-80 0 -130 56t-50 127t70 134
q-70 63 -70 134t50 127t130 57h51q80 0 130 -56q50 -55 50 -127t-69 -135q70 -63 70 -134z" />
    <glyph glyph-name="nine.numr" horiz-adv-x="653" 
d="M329 1372q-81 0 -81 -95t81 -95t81 95t-81 95zM123 1296q0 78 50 136t130 57h51q70 0 113 -48q43 -47 53 -109t10 -195q0 -209 -112 -260q-133 -61 -264 24q-23 16 -13 41l13 41q8 33 41 14q68 -45 157 -28q55 12 60 67l2 54q-45 -23 -116 -16q-175 17 -175 222z" />
    </font>
</defs>
</svg>
