<?xml version="1.0" standalone="no"?>
<!DOCTYPE svg PUBLIC "-//W3C//DTD SVG 1.1//EN" "http://www.w3.org/Graphics/SVG/1.1/DTD/svg11.dtd" >
<svg xmlns="http://www.w3.org/2000/svg">
<metadata>
Created by FontPrep 20130207 at Wed Nov  5 19:40:37 2014
 By Connary
Copyright (c) 2014 by Connary Fagen. All rights reserved.
</metadata>
<defs>
<font id="acc0ba8c9ddbb9b0f7d7f456b3ee5ad4" horiz-adv-x='1024' >
  <font-face 
    font-family="ManifoldCF-Bold"
    font-weight="700"
    font-stretch="normal"
    units-per-em="2048"
    panose-1="0 0 8 0 0 0 0 0 0 0"
    ascent="1638"
    descent="-410"
    x-height="963"
    cap-height="1487"
    bbox="-411.684 -1104 2226 2165"
    underline-thickness="102"
    underline-position="-102"
    unicode-range="U+0020-FB02"
  />
<missing-glyph horiz-adv-x="1024" 
d="M102 1239v-1044l349 522zM164 102h696l-348 523zM573 717l349 -522v1044zM512 809l348 522h-696zM0 0v1434h1024v-1434h-1024z" />
    <glyph glyph-name="fi" unicode="fi" horiz-adv-x="1325" 
d="M942 1487h193q31 0 30 -31v-237q0 -31 -30 -31h-193q-31 0 -31 31v237q0 31 31 31zM467 965h663q31 0 31 -31v-903q0 -31 -31 -31h-184q-31 0 -31 31v688h-448v-688q0 -31 -31 -31h-184q-31 0 -31 31v688h-119q-31 0 -30 31v184q0 31 30 31h119v137q0 174 91 279t243 106
h135q31 0 31 -31v-184q0 -31 -31 -31h-135q-88 0 -88 -119v-157z" />
    <glyph glyph-name="fl" unicode="fl" horiz-adv-x="1325" 
d="M555 1487h575q31 0 31 -31v-1425q0 -31 -31 -31h-184q-31 0 -31 31v1210h-360q-88 0 -88 -119v-159h203q31 0 30 -31v-184q0 -31 -30 -31h-203v-686q0 -31 -31 -31h-184q-31 0 -31 31v686h-119q-31 0 -30 31v184q0 31 30 31h119v139q0 174 91 280t243 105z" />
    <glyph glyph-name="f_t.liga" unicode="ft" horiz-adv-x="1462" 
d="M1370 748q0 -31 -31 -31h-143v-311q0 -78 25 -116t96 -40q33 0 33 -27l2 -194q0 -33 -27 -33q-172 -4 -273 68t-102 231v422h-483v-686q0 -31 -31 -31h-184q-31 0 -31 31v686h-119q-31 0 -30 31v184q0 31 30 31h119v139q0 174 91 279t243 106h135q31 0 31 -31v-184
q0 -31 -31 -31h-135q-88 0 -88 -119v-159h483v213q0 31 31 30h184q31 0 31 -30v-213h143q29 0 31 -27v-188z" />
    <glyph glyph-name=".notdef" horiz-adv-x="1024" 
d="M102 1239v-1044l349 522zM164 102h696l-348 523zM573 717l349 -522v1044zM512 809l348 522h-696zM0 0v1434h1024v-1434h-1024z" />
    <glyph glyph-name=".null" horiz-adv-x="0" 
 />
    <glyph glyph-name="nonmarkingreturn" horiz-adv-x="681" 
 />
    <glyph glyph-name="space" unicode=" " horiz-adv-x="645" 
 />
    <glyph glyph-name="exclam" unicode="!" horiz-adv-x="618" 
d="M158 31v248q0 31 30 30h205q31 0 31 -30v-248q0 -31 -31 -31h-205q-30 0 -30 31zM168 547v909q0 31 31 31h184q31 0 31 -31v-909q0 -31 -31 -31h-184q-31 0 -31 31z" />
    <glyph glyph-name="quotedbl" unicode="&#x22;" horiz-adv-x="1036" 
d="M621 856v600q0 31 30 31h201q31 0 31 -31v-600q0 -31 -31 -31h-201q-30 0 -30 31zM154 856v600q0 31 30 31h201q31 0 31 -31v-600q0 -31 -31 -31h-201q-30 0 -30 31z" />
    <glyph glyph-name="numbersign" unicode="#" horiz-adv-x="1220" 
d="M678 840h-135v-193h135v193zM924 840v-193h123q31 0 30 -31v-184q0 -31 -30 -31h-123v-370q0 -31 -31 -31h-184q-31 0 -31 31v370h-135v-370q0 -31 -31 -31h-184q-31 0 -31 31v370h-123q-31 0 -31 31v184q0 31 31 31h123v193h-123q-31 0 -31 30v185q0 31 31 30h123v371
q0 31 31 31h184q31 0 31 -31v-371h135v371q0 31 31 31h184q31 0 31 -31v-371h123q31 0 30 -30v-185q0 -31 -30 -30h-123z" />
    <glyph glyph-name="dollar" unicode="$" horiz-adv-x="970" 
d="M684 811q0 57 -28 81t-89 34v-209q117 20 117 94zM291 1223q-1 -47 25 -71t87 -38v209q-112 -12 -112 -100zM868 816q0 -114 -88 -190t-213 -94v-135q0 -31 -30 -30h-103q-31 0 -31 30v135q-117 14 -205 84t-96 181q0 31 31 30h127q29 0 33 -28q6 -72 110 -84v235
q-297 61 -297 273q0 121 85 195t212 87v135q0 31 31 31h103q31 0 30 -31v-137q115 -18 199 -94t88 -195q0 -33 -29 -32h-125q-35 0 -34 26q-2 90 -99 111v-234q145 -31 223 -93t78 -176z" />
    <glyph glyph-name="percent" unicode="%" horiz-adv-x="1228" 
d="M1044 197v6q0 37 -36 37h-9q-35 0 -34 -37v-6q0 -35 34 -35h9q36 0 36 35zM993 401h27q82 0 135 -54t53 -136v-23q0 -82 -53 -135t-135 -53h-27q-84 0 -136 53t-52 135v23q0 82 53 136t135 54zM322 1282v6q0 37 -37 37h-9q-35 0 -34 -37v-6q0 -35 34 -35h9q37 0 37 35z
M969 1487h209q39 0 20 -31l-827 -1425q-18 -31 -41 -31h-209q-39 0 -21 31l828 1425q18 31 41 31zM270 1487h27q82 0 135 -54t53 -137v-22q0 -82 -52 -135t-136 -54h-27q-82 -1 -135 53t-53 136v22q0 82 53 136t135 55z" />
    <glyph glyph-name="ampersand" unicode="&#x26;" horiz-adv-x="1478" 
d="M532 215h177q78 0 125 43l-353 342l-73 -37q-59 -31 -60 -127v-59q0 -59 47 -111t137 -51zM1348 0h-228q-16 0 -37 16l-71 70q-117 -117 -283 -117h-217q-176 0 -293 118t-117 290v100q0 180 193 291l8 4l-47 47q-38 38 -49 62q-11 23 -19 37t-12 34t-7 32q-5 19 -5 64
v97q0 147 109 257q110 110 280 109h135q170 1 280 -109t109 -257v-39q1 -61 -31 -128t-81 -108l-66 -55q-20 -16 -49 -16h-180q-20 0 -28 14q-7 14 7 25l51 32q56 36 94 96t37 119v60q0 63 -38 92q-39 29 -125 29h-95q-87 0 -125 -29t-38 -92v-60q0 -51 3 -75q9 -67 89 -142
l391 -376v61q0 115 68 160l100 80q27 18 37 18h196q20 0 28 -12t-7 -25l-137 -108q-39 -31 -39 -101v-168q-1 -66 -19 -125l246 -235q14 -13 8 -25t-26 -12z" />
    <glyph glyph-name="quotesingle" unicode="'" horiz-adv-x="569" 
d="M154 856v600q0 31 30 31h201q31 0 31 -31v-600q0 -31 -31 -31h-201q-30 0 -30 31z" />
    <glyph glyph-name="parenleft" unicode="(" horiz-adv-x="745" 
d="M379 1163v-839q0 -127 34 -174t136 -48h33q31 0 30 -30v-185q0 -31 -30 -30h-115q-152 0 -243 105t-91 280v1003q0 173 91 279t243 106h115q31 0 30 -31v-184q0 -31 -30 -31h-33q-102 0 -136 -47t-34 -174z" />
    <glyph glyph-name="parenright" unicode=")" horiz-adv-x="745" 
d="M367 324v839q0 127 -34 174t-136 47h-33q-31 0 -31 31v184q0 31 31 31h115q153 0 243 -105t90 -280v-1003q0 -174 -91 -280t-242 -105h-115q-31 0 -31 30v185q0 31 31 30h33q102 0 136 48t34 174z" />
    <glyph glyph-name="asterisk" unicode="*" horiz-adv-x="800" 
d="M500 963q0 -31 -31 -31h-137q-31 0 -31 31v88l-57 -56q-29 -16 -43 11l-72 114q-16 29 10 43l94 47l-94 45q-27 14 -10 43l72 115q14 27 43 10l57 -55v88q0 31 31 31h137q31 0 31 -31v-88l57 55q29 16 43 -10l72 -115q16 -29 -10 -43l-95 -45l95 -47q27 -14 10 -43
l-72 -114q-14 -27 -43 -11l-57 56v-88z" />
    <glyph glyph-name="plus" unicode="+" horiz-adv-x="1052" 
d="M651 784h250q29 0 29 -30v-185q0 -31 -31 -30h-248v-273q0 -31 -30 -30h-185q-31 0 -30 30v273h-252q-31 0 -31 30v185q0 31 31 30h252v271q0 31 30 30h185q31 0 30 -30v-271z" />
    <glyph glyph-name="comma" unicode="," horiz-adv-x="516" 
d="M133 309h250q31 0 31 -30v-287q0 -219 -129 -367q-18 -20 -41 0l-84 78q-27 25 -2 49t41 68q16 42 18 72t2 88l17 20h-103q-31 0 -31 31v248q0 30 31 30z" />
    <glyph glyph-name="hyphen" unicode="-" horiz-adv-x="888" 
d="M715 395h-541q-31 0 -31 31v184q0 31 31 31h541q31 0 30 -31v-184q1 -31 -30 -31z" />
    <glyph glyph-name="period" unicode="." horiz-adv-x="516" 
d="M102 31v248q0 31 31 30h250q31 0 31 -30v-248q0 -31 -31 -31h-250q-31 0 -31 31z" />
    <glyph glyph-name="slash" unicode="/" horiz-adv-x="929" 
d="M709 1487h196q33 0 21 -31l-623 -1425q-16 -31 -41 -31h-196q-37 0 -21 31l623 1425q12 31 41 31z" />
    <glyph glyph-name="zero" unicode="0" horiz-adv-x="1212" 
d="M553 219h106q86 0 136 66q49 66 49 161v590q0 96 -49 162t-136 66h-106q-86 0 -135 -66t-49 -162v-590q0 -96 49 -162t135 -65zM553 1509h106q175 0 303 -143t128 -346v-557q0 -203 -127 -346t-304 -144h-106q-176 -1 -303 143t-127 347v557q0 203 127 346t303 143z" />
    <glyph glyph-name="one" unicode="1" horiz-adv-x="927" 
d="M426 1487h184q31 0 31 -31v-1425q0 -31 -31 -31h-184q-31 0 -31 31v1099l-69 -69q-20 -25 -45 0l-129 131q-18 16 2 41l245 244q17 10 27 10z" />
    <glyph glyph-name="two" unicode="2" horiz-adv-x="1159" 
d="M629 1503q174 1 301 -115t127 -323q-1 -207 -63 -313t-238 -177l-232 -92q-104 -41 -132 -90t-27 -147h647q31 0 30 -31v-184q0 -31 -30 -31h-877q-31 0 -31 31q0 354 62 472t190 175l299 129q41 17 69 31t45 39t29 37t13 60v109q0 82 -46 128t-136 46h-86
q-84 0 -130 -47t-46 -133v-35q0 -31 -31 -30h-186q-31 0 -31 30v35q0 193 126 307t298 119h86z" />
    <glyph glyph-name="three" unicode="3" horiz-adv-x="1148" 
d="M1047 379q0 -176 -129 -287t-306 -110h-86q-168 0 -297 114t-127 295v39q0 31 31 31h186q31 0 31 -31v-39q0 -66 49 -115t127 -49h86q90 0 140 49q49 49 49 123q0 115 -40 167t-149 59h-151q-31 0 -31 30v197q0 31 31 31h151q106 6 141 56q34 50 33 163q0 66 -45 115
t-129 49h-88q-76 0 -125 -56t-49 -127v-39q0 -31 -31 -30h-186q-31 0 -31 30v39q0 185 129 307t293 121h88q170 1 295 -115t125 -276t-58 -246t-179 -118q252 -70 252 -377z" />
    <glyph glyph-name="four" unicode="4" horiz-adv-x="1128" 
d="M657 729v203q0 31 31 31h184q31 0 31 -31v-203h103q31 0 30 -31v-184q0 -31 -30 -31h-103v-452q0 -31 -31 -31h-184q-31 0 -31 31v452h-559q-27 0 -32 21l-19 65q-10 29 4 52l555 866q14 23 41 22h221q45 0 21 -41l-451 -739h219z" />
    <glyph glyph-name="five" unicode="5" horiz-adv-x="1163" 
d="M528 -18q-178 0 -302 114t-124 297v33q0 31 31 31h186q31 0 31 -31v-33q0 -84 42 -125t136 -41h86q96 0 145 44q48 44 54 169q6 124 -44 180t-161 56h-37q-156 0 -213 -51h-204q-31 0 -31 30v39l20 762q0 31 31 31h787q31 0 30 -31v-184q0 -31 -30 -31h-578l-10 -352
q45 43 209 43h39q201 0 325 -130t115 -380q-8 -211 -136 -326t-311 -114h-86z" />
    <glyph glyph-name="six" unicode="6" horiz-adv-x="1163" 
d="M532 227h84q186 0 195 191q6 154 -29 218t-153 64h-37q-154 0 -198 -61t-32 -225q8 -100 62 -144t108 -43zM635 1511q178 1 301 -121t123 -309v-34q0 -31 -31 -31h-186q-31 0 -31 31v34q0 93 -50 139t-126 46h-86q-68 0 -117 -42t-60 -129t-12 -186q59 33 232 33h33
q221 0 333 -136t104 -366q-9 -230 -135 -345q-126 -114 -311 -113h-84q-176 0 -288 114t-129 318q-31 330 8 682q18 180 130 296t292 119h90z" />
    <glyph glyph-name="seven" unicode="7" horiz-adv-x="1165" 
d="M123 1487h919q31 0 31 -31l-8 -178q-524 -655 -678 -1294q-4 -20 -43 -11l-188 43q-18 4 -11 43q76 332 215 610t381 572h-618q-31 0 -31 31v184q0 31 31 31z" />
    <glyph glyph-name="eight" unicode="8" horiz-adv-x="1173" 
d="M825 383v86q0 70 -43 118t-110 48h-170q-68 0 -111 -48t-43 -118v-86q0 -66 43 -111t111 -45h170q68 0 110 45t43 111zM375 1128v-81q0 -66 40 -106t107 -40h129q68 0 108 40t40 106v81q0 58 -42 98t-110 40h-121q-68 0 -110 -40t-41 -98zM1071 440v-90q0 -156 -112 -262
t-279 -106h-186q-168 0 -280 106t-112 262v90q0 106 46 196t131 128q-152 68 -152 328v57q0 152 103 257t268 105h178q164 0 267 -105t104 -257v-57q0 -260 -152 -328q84 -37 130 -127t46 -197z" />
    <glyph glyph-name="nine" unicode="9" horiz-adv-x="1165" 
d="M633 1266h-84q-186 0 -195 -191q-6 -155 29 -219t154 -63h36q154 0 198 61t32 225q-9 99 -63 143t-107 44zM530 -18q-178 0 -301 122t-123 308v34q0 31 31 31h187q31 0 30 -31v-34q0 -92 50 -138t126 -47h86q68 0 117 42t61 129t11 186q-59 -33 -232 -33h-32
q-221 0 -334 136q-113 137 -104 367t135 344t311 113h84q176 1 288 -113t130 -319q31 -330 -9 -682q-18 -179 -130 -295t-291 -120h-91z" />
    <glyph glyph-name="colon" unicode=":" horiz-adv-x="618" 
d="M154 31v248q0 31 30 30h250q31 0 31 -30v-248q0 -31 -31 -31h-250q-30 0 -30 31zM154 684v248q0 31 30 31h250q31 0 31 -31v-248q0 -31 -31 -31h-250q-30 0 -30 31z" />
    <glyph glyph-name="semicolon" unicode=";" horiz-adv-x="618" 
d="M465 279v-287q0 -219 -129 -367q-18 -20 -41 0l-84 78q-27 25 -2 49t41 68q16 42 18 72t2 88l17 20h-103q-31 0 -30 31v248q0 31 30 30h250q31 1 31 -30zM154 684v248q0 31 30 31h250q31 0 31 -31v-248q0 -31 -31 -31h-250q-30 0 -30 31z" />
    <glyph glyph-name="less" unicode="&#x3c;" horiz-adv-x="983" 
d="M860 907v-192q0 -41 -20 -49l-367 -183l367 -182q20 -8 20 -49v-193q0 -12 -9 -17t-24 1l-669 346q-35 16 -35 94t35 95l669 346q14 6 24 1q9 -6 9 -18z" />
    <glyph glyph-name="equal" unicode="=" horiz-adv-x="929" 
d="M776 342h-622q-31 0 -31 31v164q0 31 31 30h622q31 0 31 -30v-164q0 -31 -31 -31zM776 662h-622q-31 0 -31 30v164q0 31 31 31h622q31 0 31 -31v-164q0 -30 -31 -30z" />
    <glyph glyph-name="greater" unicode="&#x3e;" horiz-adv-x="983" 
d="M123 715v192q0 11 9 17t24 0l669 -346q35 -16 35 -94t-35 -95l-669 -346q-14 -6 -24 -1q-9 5 -9 17v193q0 41 20 49l367 182l-367 183q-20 8 -20 49z" />
    <glyph glyph-name="question" unicode="?" horiz-adv-x="1019" 
d="M326 31v248q0 31 30 30h205q31 0 31 -30v-248q0 -31 -31 -31h-205q-30 0 -30 31zM475 1513h86q172 -1 290 -117t118 -298t-68 -251q-55 -57 -124 -86q-69 -30 -77 -34t-22 -10l-21 -9q-21 -11 -30 -17q-9 -7 -17 -13q-28 -20 -28 -60v-71q0 -31 -31 -31h-184
q-31 0 -31 31v112q0 105 54 157t233 128q61 28 80 56t20 87q0 180 -162 181h-86q-78 0 -117 -56t-39 -131v-39q0 -31 -30 -30h-187q-31 0 -30 30v39q0 197 117 315q118 117 286 117z" />
    <glyph glyph-name="at" unicode="@" horiz-adv-x="1404" 
d="M655 481h21q63 0 100 27t37 70v59h-149q-84 0 -84 -76q0 -35 23 -57t52 -23zM967 209v-158q0 -27 -23 -37q-88 -41 -170 -41h-115q-240 -1 -388 135t-148 373v523q0 231 149 369q150 138 387 138h95q232 0 380 -137t148 -356v-537q0 -205 -152 -205h-108q-80 0 -119 76
q-16 -26 -90 -52t-143 -26h-21q-111 0 -185 84t-75 203q0 281 289 281h135v16q0 57 -31 91t-73 34h-35q-90 0 -158 -55q-29 -25 -45 0l-65 100q-14 27 -3 41q109 119 285 119h47q127 0 200 -84t73 -252v-315q0 -25 6 -35t28 -10q35 0 35 45v446q0 160 -96 242t-268 82h-13
q-166 0 -269 -82t-103 -242v-477q0 -164 102 -246t270 -82h74q78 0 156 47q37 23 37 -16z" />
    <glyph glyph-name="A" unicode="A" horiz-adv-x="1232" 
d="M727 606l-109 385l-112 -385h221zM1112 0h-184q-31 0 -39 33l-92 327h-363l-94 -327q-8 -33 -37 -33h-186q-31 0 -23 33l410 1427q10 33 39 33h147q29 0 39 -33l408 -1427q8 -33 -25 -33z" />
    <glyph glyph-name="B" unicode="B" horiz-adv-x="1196" 
d="M379 246h258q106 0 154 41q47 41 47 141q0 209 -201 209h-258v-391zM379 883h258q94 0 130 45t36 141q0 172 -166 172h-258v-358zM1083 387q0 -387 -403 -387h-510q-37 0 -37 37v1413q0 37 37 37h494q176 0 280 -99t105 -278q-1 -258 -148 -346q182 -88 182 -377z" />
    <glyph glyph-name="C" unicode="C" horiz-adv-x="1159" 
d="M842 481h184q31 0 31 -30q-2 -207 -123 -342.5t-303 -135.5h-94q-190 0 -312.5 137.5t-122.5 354.5v557q0 217 122 352t313 135h94q182 0 302 -133t124 -340q0 -31 -31 -30h-184q-33 0 -33 30q0 227 -178 228h-94q-96 0 -142.5 -58.5t-46.5 -183.5v-557q0 -246 189 -246
h94q182 0 178 232q0 30 33 30z" />
    <glyph glyph-name="D" unicode="D" horiz-adv-x="1191" 
d="M834 481v525q0 129 -52 182t-149 53h-254v-995h254q97 0 149 53t52 182zM164 1487h489q168 1 297 -143t129 -338v-525q0 -195 -129 -338t-297 -143h-489q-31 0 -31 31v1425q0 31 31 31z" />
    <glyph glyph-name="E" unicode="E" horiz-adv-x="1138" 
d="M379 872h473q31 0 31 -30v-185q0 -31 -31 -30h-473v-381h606q31 0 31 -31v-184q0 -31 -31 -31h-821q-31 0 -31 31v1425q0 31 31 31h821q31 0 31 -31v-184q0 -31 -31 -31h-606v-369z" />
    <glyph glyph-name="F" unicode="F" horiz-adv-x="1107" 
d="M389 852h473q31 0 31 -31v-184q0 -31 -31 -31h-473v-575q0 -31 -31 -31h-184q-31 0 -31 31v1425q0 31 31 31h821q31 0 31 -31v-184q0 -31 -31 -31h-606v-389z" />
    <glyph glyph-name="G" unicode="G" horiz-adv-x="1169" 
d="M614 770h412q31 0 31 -31v-288q0 -207 -121 -342.5t-305 -135.5h-94q-190 0 -312.5 137.5t-122.5 354.5v557q0 217 122 352t313 135h94q182 0 302 -133t124 -340q0 -31 -31 -30h-184q-33 0 -33 30q0 227 -178 228h-94q-96 0 -142.5 -58.5t-46.5 -183.5v-557
q0 -246 189 -246h94q178 0 178 232v73h-195q-31 0 -30 31v184q-1 31 30 31z" />
    <glyph glyph-name="H" unicode="H" horiz-adv-x="1210" 
d="M862 1487h185q31 0 30 -31v-1425q0 -31 -30 -31h-185q-31 0 -31 31v555h-452v-555q0 -31 -31 -31h-184q-31 0 -31 31v1425q0 31 31 31h184q31 0 31 -31v-625h452v625q0 31 31 31z" />
    <glyph glyph-name="I" unicode="I" horiz-adv-x="577" 
d="M164 31v1425q0 31 31 31h188q31 0 31 -31v-1425q0 -31 -31 -31h-188q-31 0 -31 31z" />
    <glyph glyph-name="J" unicode="J" horiz-adv-x="1155" 
d="M512 231h53q106 0 164 66q57 66 57 190v969q0 31 31 31h184q31 0 31 -31v-989q0 -223 -133 -352t-313 -129h-74q-129 0 -254 76t-172 198q-11 25 16 41l140 92q16 12 37 -18q51 -78 104 -111t129 -33z" />
    <glyph glyph-name="K" unicode="K" horiz-adv-x="1234" 
d="M1133 0h-222q-35 0 -55 29l-424 614l-63 -76v-536q0 -31 -31 -31h-184q-31 0 -31 31v1425q0 31 31 31h184q31 0 31 -31v-592l417 594q20 29 39 29h236q22 0 19 -19.5t-11 -31.5l-446 -635l522 -752q16 -21 8 -35t-20 -14z" />
    <glyph glyph-name="L" unicode="L" horiz-adv-x="1118" 
d="M369 246h606q31 0 31 -31v-184q0 -31 -31 -31h-821q-31 0 -31 31v1425q0 31 31 31h184q31 0 31 -31v-1210z" />
    <glyph glyph-name="M" unicode="M" horiz-adv-x="1505" 
d="M1085 1487h246q31 0 31 -31v-1425q0 -31 -31 -31h-184q-31 0 -31 31v932l-272 -932q-8 -31 -39 -31h-105q-29 0 -38 31l-273 932v-932q0 -31 -31 -31h-184q-31 0 -31 31v1425q0 31 31 31h246q31 0 41 -31l291 -993l292 993q8 31 41 31z" />
    <glyph glyph-name="N" unicode="N" horiz-adv-x="1302" 
d="M944 1487h184q31 0 31 -31v-1425q0 -31 -31 -31h-204q-27 0 -37 23l-508 952v-944q0 -31 -31 -31h-184q-31 0 -31 31v1425q0 31 31 31h205q25 0 37 -23l507 -952v944q0 31 31 31z" />
    <glyph glyph-name="O" unicode="O" horiz-adv-x="1212" 
d="M553 219h106q86 0 136 66q49 66 49 161v590q0 96 -49 162t-136 66h-106q-86 0 -135 -66t-49 -162v-590q0 -96 49 -162t135 -65zM553 1509h106q175 0 303 -143t128 -346v-557q0 -203 -127 -346t-304 -144h-106q-176 -1 -303 143t-127 347v557q0 203 127 346t303 143z" />
    <glyph glyph-name="P" unicode="P" horiz-adv-x="1163" 
d="M379 872h252q86 0 130 38t44 149t-44 147t-130 35h-252v-369zM164 1487h487q182 0 291 -116q109 -117 109 -313t-109 -314t-291 -117h-272v-596q0 -31 -31 -31h-184q-31 0 -31 31v1425q0 31 31 31z" />
    <glyph glyph-name="Q" unicode="Q" horiz-adv-x="1200" 
d="M844 446v590q0 96 -49 162t-136 66h-106q-86 0 -135 -66t-49 -162v-590q0 -96 49 -162t135 -65h100l-51 51q-23 23 0 45l129 129q23 23 43 0l64 -63q6 31 6 65zM1090 1020v-557q0 -147 -70 -264l45 -45q23 -23 0 -45l-129 -129q-23 -20 -43 0l-45 45q-90 -51 -189 -52
h-106q-176 -1 -303 143t-127 347v557q0 203 127 346t303 143h106q175 0 303 -143t128 -346z" />
    <glyph glyph-name="R" unicode="R" horiz-adv-x="1161" 
d="M379 872h252q86 0 130 38t44 148.5t-44 146.5t-130 36h-252v-369zM1059 397v-366q0 -31 -31 -31h-184q-31 0 -31 31v299q1 154 -39 222q-18 30 -54 52.5t-87 22.5h-254v-596q0 -31 -31 -31h-184q-31 0 -31 31v1425q0 31 31 31h487q182 0 291 -116t109 -312.5t-109 -315.5
q117 -137 117 -346z" />
    <glyph glyph-name="S" unicode="S" horiz-adv-x="1179" 
d="M524 1509h107q166 0 293 -123.5t127 -306.5v-39q0 -31 -31 -30h-186q-31 0 -31 30v39q0 78 -51.5 131.5t-120.5 53.5h-107q-72 0 -114 -50q-42 -52 -42.5 -126t33 -128.5t138.5 -72.5l118 -21q176 -31 293 -159.5t117 -312.5t-127 -303.5t-303 -119.5h-94
q-170 0 -300 119t-130 295v59q0 31 30 31h187q31 0 30 -31l2 -59q2 -74 54.5 -121t126.5 -47h94q80 0 132 49t52 135t-36.5 144.5t-137.5 75.5l-119 20q-182 33 -294.5 160t-112.5 304t116.5 290.5t286.5 113.5z" />
    <glyph glyph-name="T" unicode="T" horiz-adv-x="1165" 
d="M133 1487h899q31 0 31 -31v-184q0 -31 -31 -31h-325v-1210q0 -31 -31 -31h-184q-31 0 -31 31v1210h-328q-31 0 -31 31v184q0 31 31 31z" />
    <glyph glyph-name="U" unicode="U" horiz-adv-x="1191" 
d="M854 1487h184q31 0 31 -31v-1010q0 -200 -125 -330t-321 -130h-54q-197 0 -321 131t-125 329v1010q0 31 31 31h184q31 0 31 -31v-969q0 -106 45 -181t155 -75h54q111 0 155 75t45 181v969q0 31 31 31z" />
    <glyph glyph-name="V" unicode="V" horiz-adv-x="1222" 
d="M119 1487h192q29 0 37 -33l262 -1020l264 1020q8 33 37 33h193q33 0 24 -33l-401 -1421q-10 -33 -39 -33h-153q-29 0 -39 33l-402 1421q-8 33 25 33z" />
    <glyph glyph-name="W" unicode="W" horiz-adv-x="1878" 
d="M1571 1487h198q33 0 27 -31l-307 -1425q-6 -31 -39 -31h-143q-29 0 -39 31l-328 993l-328 -993q-10 -31 -39 -31h-143q-33 0 -39 31l-307 1425q-6 31 25 31h198q31 0 37 -31l184 -969l293 969q10 31 39 31h160q29 0 39 -31l295 -969l182 969q6 31 35 31z" />
    <glyph glyph-name="X" unicode="X" horiz-adv-x="1134" 
d="M1008 0h-197q-25 0 -41 31l-203 436l-202 -436q-16 -31 -41 -31h-197q-37 0 -21 31l332 712l-332 713q-16 31 21 31h197q25 0 41 -31l202 -436l203 436q16 31 41 31h197q37 0 20 -31l-332 -713l332 -712q16 -31 -20 -31z" />
    <glyph glyph-name="Y" unicode="Y" horiz-adv-x="1146" 
d="M858 1487h203q37 0 20 -31l-387 -803v-622q0 -31 -30 -31h-185q-31 0 -30 31v622l-383 803q-16 31 20 31h203q29 0 41 -31l241 -543l246 543q12 31 41 31z" />
    <glyph glyph-name="Z" unicode="Z" horiz-adv-x="1107" 
d="M1006 1456v-86q0 -31 -7 -39l-559 -1085h535q31 0 31 -31v-184q0 -31 -31 -31h-842q-31 0 -31 31v86q0 31 7 39l559 1085h-535q-31 0 -31 31v184q0 31 31 31h842q31 0 31 -31z" />
    <glyph glyph-name="bracketleft" unicode="[" horiz-adv-x="718" 
d="M379 1384v-1282h176q31 0 31 -30v-185q0 -31 -31 -30h-391q-31 0 -31 30v1712q0 31 31 31h391q31 0 31 -31v-184q0 -31 -31 -31h-176z" />
    <glyph glyph-name="backslash" unicode="\" horiz-adv-x="927" 
d="M862 0h-196q-27 0 -41 31l-623 1425q-12 31 21 31h196q29 0 41 -31l623 -1425q14 -31 -21 -31z" />
    <glyph glyph-name="bracketright" unicode="]" horiz-adv-x="718" 
d="M164 1630h391q31 0 31 -31v-1712q0 -31 -31 -30h-391q-31 0 -31 30v185q0 31 31 30h176v1282h-176q-31 0 -31 31v184q0 31 31 31z" />
    <glyph glyph-name="asciicircum" unicode="^" horiz-adv-x="925" 
d="M799 932h-197q-27 0 -41 31l-98 198l-98 -198q-14 -31 -41 -31h-197q-37 0 -21 31l259 493q16 31 41 31h114q25 0 41 -31l258 -493q16 -31 -20 -31z" />
    <glyph glyph-name="underscore" unicode="_" horiz-adv-x="1228" 
d="M1063 0h-930q-31 0 -31 31v184q0 31 31 31h930q31 0 31 -31v-184q0 -31 -31 -31z" />
    <glyph glyph-name="grave" unicode="`" horiz-adv-x="624" 
d="M498 1186h-168q-23 0 -43 37l-178 379q-18 37 20 36h193q31 1 43 -36l153 -379q16 -37 -20 -37z" />
    <glyph glyph-name="a" unicode="a" horiz-adv-x="976" 
d="M389 244h100q84 0 123 39v102h-223q-27 0 -43 -20q-16 -19 -16 -49t16 -51t43 -21zM856 0h-207q-37 0 -37 49v2q-82 -53 -153 -53h-82q-113 0 -202 91t-89 221t89 213t222 83h215v21q0 45 -28 71t-76 25h-96q-80 0 -142 -47q-29 -20 -49 8l-92 121q-20 25 -4 43
q115 119 319 119h91q127 1 225 -101t98 -256v-561q0 -15 4 -32t-6 -17z" />
    <glyph glyph-name="b" unicode="b" horiz-adv-x="1011" 
d="M664 344v254q0 51 -27 85t-76 34h-72q-88 0 -100 -105v-284q12 -82 100 -82h72q103 0 103 98zM489 963h76q141 0 243 -113t101 -254v-250q0 -138 -105 -242t-239 -104h-76q-53 0 -102 18q-6 -18 -29 -18h-184q-31 0 -31 31v1425q0 31 31 31h184q31 0 31 -31v-510
q53 17 100 17z" />
    <glyph glyph-name="c" unicode="c" horiz-adv-x="985" 
d="M864 639h-186q-29 0 -35 29q-14 55 -92 55h-78q-47 0 -81 -35t-34 -90v-233q0 -55 34 -88t81 -33h90q37 0 52.5 12t19.5 14q3 2 15 14t19 22t23 26q20 27 49 2l131 -117q23 -20 7 -43q-70 -84 -141.5 -130t-186.5 -46h-74q-152 0 -258 108.5t-106 258.5v233
q0 150 106.5 260.5t257.5 110.5h74q129 0 233.5 -91.5t108.5 -201.5q0 -37 -29 -37z" />
    <glyph glyph-name="d" unicode="d" horiz-adv-x="1021" 
d="M461 246h71q88 0 101 82v284q-12 104 -101 105h-71q-49 0 -76 -34t-27 -85v-254q1 -98 103 -98zM664 1487h184q31 0 31 -31v-1425q0 -31 -31 -31h-184q-23 0 -29 18q-49 -18 -103 -18h-75q-133 0 -239 104q-105 104 -105 242v250q0 141 101 254t243 113h75q47 0 101 -17
v510q0 31 31 31z" />
    <glyph glyph-name="e" unicode="e" horiz-adv-x="1015" 
d="M668 602v21q0 41 -34 70.5t-73 29.5h-78q-43 0 -78.5 -30.5t-35.5 -71.5v-19h299zM487 969h78q133 0 240.5 -107.5t107.5 -261.5v-133q0 -61 -61 -61h-483v-44q0 -53 33.5 -85.5t82.5 -32.5h88q38 0 53 12t19 14q3 2 15 14t19 22t23 26q20 27 50 2l131 -117q23 -20 6 -43
q-70 -84 -140.5 -130t-183.5 -46h-78q-152 0 -258 108.5t-106 258.5v233q0 150 106 260.5t258 110.5z" />
    <glyph glyph-name="f" unicode="f" horiz-adv-x="751" 
d="M555 1487h135q31 0 31 -31v-184q0 -31 -31 -31h-135q-88 0 -88 -119v-159h203q31 0 30 -31v-184q0 -31 -30 -31h-203v-686q0 -31 -31 -31h-184q-31 0 -31 31v686h-119q-31 0 -30 31v184q0 31 30 31h119v139q0 174 91 280t243 105z" />
    <glyph glyph-name="g" unicode="g" horiz-adv-x="1001" 
d="M463 244h90q41 0 76 30v394q0 55 -97 55h-69q-47 0 -81 -35t-34 -90v-233q0 -55 34 -88t81 -33zM729 963h119q31 0 31 -31v-1034q1 -115 -101 -211t-235 -97h-51q-115 0 -206 54t-145 149q-14 27 25 51l117 74q37 23 59 -4q63 -78 127 -78h74q86 0 86 78v92
q-53 -8 -90 -8h-74q-152 0 -257 108t-106 259v233q0 150 106 260t257 111h67q63 0 132 -47h26q25 41 39 41z" />
    <glyph glyph-name="h" unicode="h" horiz-adv-x="1042" 
d="M500 963h75q141 0 243 -113t102 -254v-565q0 -31 -31 -31h-184q-31 0 -31 31v569q0 55 -27 86t-69 31h-82q-43 0 -70 -31t-27 -86v-569q0 -31 -30 -31h-185q-31 0 -30 31v1425q0 31 30 31h185q31 0 30 -31v-510q54 17 101 17z" />
    <glyph glyph-name="i" unicode="i" horiz-adv-x="573" 
d="M164 31v903q0 31 31 31h184q31 0 31 -31v-903q0 -31 -31 -31h-184q-31 0 -31 31zM160 1219v237q0 31 30 31h193q31 0 31 -31v-237q0 -31 -31 -31h-193q-30 0 -30 31z" />
    <glyph glyph-name="j" unicode="j" horiz-adv-x="567" 
d="M158 -106v1040q0 31 30 31h185q31 0 30 -31v-1057q-1 -133 -81 -238t-209 -141q-27 -8 -39 21l-76 170q-12 29 18 39q57 20 100 64q42 44 42 102zM160 1219v237q0 31 30 31h193q31 0 31 -31v-237q0 -31 -31 -31h-193q-30 0 -30 31z" />
    <glyph glyph-name="k" unicode="k" horiz-adv-x="1081" 
d="M174 1487h184q31 0 31 -31v-739l207 221q20 25 45 25h217q18 0 22.5 -20.5t-14.5 -45.5l-321 -354l401 -496q14 -16 11 -31.5t-23 -15.5h-186q-29 0 -56 29l-303 346v-344q0 -31 -31 -31h-184q-31 0 -31 31v1425q0 31 31 31z" />
    <glyph glyph-name="l" unicode="l" horiz-adv-x="573" 
d="M164 31v1425q0 31 31 31h184q31 0 31 -31v-1425q0 -31 -31 -31h-184q-31 0 -31 31z" />
    <glyph glyph-name="m" unicode="m" horiz-adv-x="1701" 
d="M1118 963h76q156 0 258 -112t102 -255v-565q0 -31 -30 -31h-185q-31 0 -30 31v565q0 57 -35 89t-80 32h-102q-45 0 -79 -31t-36 -90v-565q0 -31 -31 -31h-184q-31 0 -31 31v565q0 57 -35 89t-80 32h-102q-45 0 -79 -31t-36 -90v-565q0 -31 -30 -31h-185q-31 0 -30 31v901
q0 31 30 31h185q31 0 30 -31v-8q74 39 142 39h75q141 0 244 -97q115 97 258 97z" />
    <glyph glyph-name="n" unicode="n" horiz-adv-x="1056" 
d="M530 963h91q156 0 234.5 -102.5t78.5 -264.5v-565q0 -31 -31 -31h-184q-31 0 -31 31v565q0 51 -31.5 86t-76.5 35h-93q-45 0 -74.5 -35t-29.5 -86v-565q0 -31 -31 -31h-184q-31 0 -31 31v901q0 31 31 31h184q31 0 31 -31v-45q14 27 60 51.5t87 24.5z" />
    <glyph glyph-name="o" unicode="o" horiz-adv-x="1038" 
d="M680 365v233q0 51 -30 88t-87 37h-88q-57 0 -87 -37t-30 -88v-233q0 -51 30 -86t87 -35h88q57 0 87 35t30 86zM479 969h80q154 0 260 -109t107 -262v-233q0 -155 -106 -261t-261 -106h-80q-154 0 -260 106t-106 261v233q0 154 106 262t260 109z" />
    <glyph glyph-name="p" unicode="p" horiz-adv-x="1032" 
d="M664 344v254q0 51 -27 85t-76 34h-72q-88 0 -100 -105v-284q12 -82 100 -82h72q103 0 103 98zM489 963h76q141 0 243 -113t101 -254v-250q0 -138 -105 -242t-239 -104h-76q-47 0 -100 16v-395q0 -31 -31 -31h-184q-31 0 -31 31v1311q0 31 31 31h184q29 0 31 -27
q53 27 100 27z" />
    <glyph glyph-name="q" unicode="q" horiz-adv-x="1038" 
d="M471 246h78q88 0 100 82v284q-12 104 -100 105h-78q-49 0 -76 -34t-26 -85v-254q0 -98 102 -98zM680 963h184q31 0 31 -31v-1311q0 -31 -31 -31h-184q-31 0 -31 31v395q-53 -16 -100 -16h-82q-133 0 -239 104q-105 104 -105 242v250q0 141 101 254t243 113h82
q47 0 100 -27q2 27 31 27z" />
    <glyph glyph-name="r" unicode="r" horiz-adv-x="872" 
d="M532 717h-51q-47 0 -75.5 -34t-28.5 -89v-563q0 -31 -31 -31h-184q-31 0 -31 31v901q0 31 31 31h184q31 0 31 -31v-45q14 27 61 51.5t88 24.5h86q115 0 195 -70q25 -18 0 -43l-133 -141q-16 -16 -47 -4t-95 12z" />
    <glyph glyph-name="s" unicode="s" horiz-adv-x="966" 
d="M864 272q0 -125 -104.5 -203.5t-257.5 -78.5h-49q-131 0 -235.5 76.5t-115.5 191.5q-4 31 31 31h189q25 0 41.5 -27t78.5 -26h80q96 0 96 47q0 38 -27 51t-106 22q-197 18 -288 97t-91 223.5t97.5 219.5t257.5 75h39q139 0 244.5 -85t105.5 -210q0 -33 -29 -33h-186
q-29 0 -37 33q-4 23 -36 36t-70 13h-62q-78 0 -78 -45q0 -35 22.5 -51.5t110.5 -26.5q197 -23 288 -98.5t91 -231.5z" />
    <glyph glyph-name="t" unicode="t" horiz-adv-x="710" 
d="M444 963h142q33 0 32 -31v-184q0 -31 -30 -31h-144v-311q0 -78 25 -116t96 -40q33 0 33 -27l2 -194q0 -33 -27 -33q-172 -4 -273 67.5t-101 231.5v422h-97q-31 0 -30 31v182q0 33 30 33h97v213q0 31 30 30h185q31 0 30 -30v-213z" />
    <glyph glyph-name="u" unicode="u" horiz-adv-x="1073" 
d="M930 932v-901q0 -31 -31 -31h-184q-31 0 -31 31v45q-14 -28 -60 -52t-87 -24h-91q-156 0 -234 102t-79 265v565q0 31 31 31h184q31 0 31 -31v-565q0 -51 32 -86t76 -35h93q44 0 74 35t30 86v565q0 31 31 31h184q31 0 31 -31z" />
    <glyph glyph-name="v" unicode="v" horiz-adv-x="911" 
d="M96 963h189q27 0 37 -35l133 -568l135 568q10 35 37 35h188q35 0 25 -35l-273 -895q-10 -33 -39 -33h-145q-29 0 -39 33l-272 895q-10 35 24 35z" />
    <glyph glyph-name="w" unicode="w" horiz-adv-x="1398" 
d="M1112 963h188q35 0 25 -35l-242 -895q-10 -33 -39 -33h-149q-29 0 -39 33l-158 532l-157 -532q-10 -33 -39 -33h-150q-29 0 -39 33l-241 895q-10 35 24 35h189q27 0 37 -35l129 -563l135 563q10 35 37 35h151q27 0 37 -35l135 -563l129 563q10 35 37 35z" />
    <glyph glyph-name="x" unicode="x" horiz-adv-x="946" 
d="M836 0h-199q-27 0 -47 35l-117 207l-117 -207q-20 -35 -47 -35h-200q-18 0 -25 10q-6 10 4 27l250 442l-252 447q-10 16 -4 26t24 11h201q27 0 47 -35l119 -211l119 211q20 35 47 35h201q37 0 18 -37l-250 -445l250 -444q18 -37 -22 -37z" />
    <glyph glyph-name="y" unicode="y" horiz-adv-x="1114" 
d="M823 963h197q33 0 18 -37l-544 -1301q-14 -35 -45 -35h-197q-35 0 -21 37l195 463l-350 836q-14 37 18 37h199q29 0 43 -35l221 -527l221 527q14 35 45 35z" />
    <glyph glyph-name="z" unicode="z" horiz-adv-x="905" 
d="M823 932v-125q0 -18 -10 -33l-379 -528h357q33 0 32 -31v-184q0 -31 -30 -31h-680q-31 0 -31 31v121q0 23 10 34l379 531h-358q-31 0 -31 31v182q0 33 31 33h678q32 0 32 -31z" />
    <glyph glyph-name="braceleft" unicode="{" horiz-adv-x="921" 
d="M494 592v-227q0 -133 36 -198t134 -65h94q31 0 30 -30v-185q0 -31 -30 -30h-176q-152 0 -243 105t-91 280v329q0 20 -15 37l-92 113q-14 23 0 45l92 113q14 16 15 36v330q0 173 91 279t243 106h176q31 0 30 -31v-184q0 -31 -30 -31h-94q-98 0 -135 -64q-36 -65 -35 -198
v-227q0 -20 -15 -37l-88 -115l90 -114q13 -19 13 -37z" />
    <glyph glyph-name="bar" unicode="|" horiz-adv-x="573" 
d="M164 -379v1987q0 31 31 30h184q31 0 31 -30v-1987q0 -31 -31 -31h-184q-31 0 -31 31z" />
    <glyph glyph-name="braceright" unicode="}" horiz-adv-x="921" 
d="M428 365v227q0 18 12 37l90 114l-88 115q-14 16 -14 37v227q0 133 -36 198t-134 64h-94q-31 0 -31 31v184q0 31 31 31h176q152 0 243 -105t91 -280v-330q0 -20 14 -36l92 -113q14 -23 0 -45l-92 -113q-14 -16 -14 -37v-329q0 -174 -91 -280t-243 -105h-176q-31 0 -31 30
v185q0 31 31 30h94q98 0 134 65t36 198z" />
    <glyph glyph-name="asciitilde" unicode="~" horiz-adv-x="1142" 
d="M967 823l69 -137q14 -23 -20 -45q-106 -72 -238 -83t-241 50q-164 98 -326 -12q-18 -12 -35 16l-70 138q-12 25 21 45q105 74 241 84t240 -52q158 -100 324 13q23 14 35 -17z" />
    <glyph glyph-name="exclamdown" unicode="&#xa1;" horiz-adv-x="573" 
d="M164 -379v909q0 31 31 31h184q31 0 31 -31v-909q0 -31 -31 -31h-184q-31 0 -31 31zM154 799v248q0 31 30 30h205q31 0 31 -30v-248q0 -31 -31 -31h-205q-30 0 -30 31z" />
    <glyph glyph-name="cent" unicode="&#xa2;" horiz-adv-x="985" 
d="M358 598v-233q0 -53 31 -86t78 -35v479q-47 -4 -78 -38t-31 -87zM590 -231q0 -31 -31 -31h-61q-31 0 -31 31v229q-150 4 -252 113t-102 254v233q0 145 102 256t252 115v225q0 31 31 31h61q31 0 31 -31v-227q119 -13 209 -101t94 -190q0 -37 -29 -37h-186q-29 0 -35 29
q-12 43 -53 51v-471q31 6 48 25q18 19 28 29t28 34t47 -2l131 -117q23 -20 7 -43q-61 -76 -126 -121t-163 -53v-231z" />
    <glyph glyph-name="sterling" unicode="&#xa3;" horiz-adv-x="1253" 
d="M651 1511h74q170 0 297 -135t129 -338q0 -31 -31 -30h-184q-33 0 -33 30q0 227 -178 228h-74q-78 0 -130 -60t-35 -162q17 -104 49 -192h251q31 0 31 -31v-184q0 -31 -31 -31h-182v-45q-6 -109 -22 -164t-66 -125q59 25 99 22t123 -34t152 -26t175 49q14 6 22 -4t9 -27
v-191q0 -14 -6 -18t-25 -12q-109 -45 -196 -44t-193 44t-186 36q-79 -7 -191 -69q-14 -8 -52 42t-30 70t55 131q71 167 78 320v45h-215q-31 0 -31 31v184q0 31 31 31h148q-31 88 -45 172q-31 207 99 347t314 140z" />
    <glyph glyph-name="currency" unicode="&#xa4;" horiz-adv-x="1220" 
d="M565 244h88q57 0 87 35t30 86v233q0 51 -30 88t-87 37h-88q-57 0 -87 -37t-29 -88v-233q-1 -51 29 -86t87 -35zM649 -2h-80q-98 0 -184 49l-88 -88q-23 -20 -43 0l-131 131q-20 20 0 43l102 103q-23 61 -22 129v233q0 68 22 129l-102 102q-20 23 0 43l131 132q20 20 43 0
l86 -86q84 51 186 51h80q102 0 189 -51l86 86q23 20 43 0l131 -132q20 -20 0 -43l-105 -102q23 -63 23 -129v-233q0 -68 -23 -129l103 -103q23 -23 0 -43l-131 -131q-23 -20 -43 0l-88 88q-86 -49 -185 -49z" />
    <glyph glyph-name="yen" unicode="&#xa5;" horiz-adv-x="1146" 
d="M694 627h289q31 0 31 -31v-164q0 -31 -31 -31h-289v-73h289q31 0 31 -31v-164q0 -31 -31 -31h-289v-71q0 -31 -30 -31h-185q-31 0 -30 31v71h-240q-31 0 -31 31v164q0 31 31 31h240v73h-240q-31 0 -31 31v164q0 31 31 31h240v26l-383 803q-16 31 20 31h203q29 0 41 -31
l241 -543l246 543q12 31 41 31h203q37 0 20 -31l-387 -803v-26z" />
    <glyph glyph-name="brokenbar" unicode="&#xa6;" horiz-adv-x="573" 
d="M164 -236v662q0 31 31 31h184q31 0 31 -31v-662q0 -31 -31 -30h-184q-31 -1 -31 30zM164 803v661q0 31 31 31h184q31 0 31 -31v-661q0 -31 -31 -31h-184q-31 0 -31 31z" />
    <glyph glyph-name="section" unicode="&#xa7;" horiz-adv-x="1241" 
d="M397 707q0 -197 172 -228l119 -20q84 -14 164 -53q-4 211 -174 239l-119 21q-80 14 -162 51v-10zM1098 397q0 -100 -47 -184q47 -90 47 -207q0 -180 -128 -299t-302 -119h-95q-170 0 -300 119t-130 293v59q0 31 31 31h186q31 0 31 -31l2 -59q2 -72 54 -119t126 -47h95
q80 0 132 48t52 133t-36 135t-138 65l-119 21q-180 30 -294 166t-113 315q0 100 45 194q-45 90 -45 197q0 176 116 290q117 114 287 113h107q168 -1 294 -123t125 -307v-39q0 -31 -30 -30h-187q-31 0 -30 30v39q0 80 -52 133t-120 54h-107q-72 0 -115 -50t-43 -124t34 -119
t138 -64l119 -20q172 -31 291 -169t119 -325z" />
    <glyph glyph-name="dieresis" unicode="&#xa8;" horiz-adv-x="1034" 
d="M600 1208v248q0 31 31 31h250q31 0 30 -31v-248q0 -31 -30 -30h-250q-31 -1 -31 30zM123 1208v248q0 31 31 31h249q31 0 31 -31v-248q0 -31 -31 -30h-249q-31 -1 -31 30z" />
    <glyph glyph-name="copyright" unicode="&#xa9;" horiz-adv-x="1343" 
d="M788 600h138q20 0 20 -39q-2 -145 -65 -201t-181 -57h-43q-252 0 -251 246v387q0 246 251 246h43q116 0 180 -56t66 -200q0 -39 -20 -39h-138q-23 0 -22 18q0 41 -23 65t-51 23h-30q-31 0 -55 -20t-23 -58v-346q0 -35 24 -57t54 -23h30q30 0 52 26t22 67q-1 18 22 18z
M594 197h156q118 -1 192 79t74 191v549q0 112 -74 190t-192 78h-156q-117 0 -192 -79t-74 -189v-549q0 -111 74 -191q75 -79 192 -79zM573 1509h197q188 0 320 -151q131 -152 131 -359v-516q0 -207 -131 -359t-320 -151h-197q-188 0 -319 152t-131 358v516q0 207 131 359
t319 151z" />
    <glyph glyph-name="ordfeminine" unicode="&#xaa;" horiz-adv-x="653" 
d="M291 1083h35q55 0 96 21v59h-131q-59 0 -60 -39q1 -41 60 -41zM444 963q-12 0 -20 20q-45 -20 -100 -20h-31q-82 0 -136 42q-55 43 -55 117t52 118t139 44h129q0 80 -84 80h-37q-65 0 -106 -41q-18 -14 -31 0l-45 59q-12 14 0 27q74 78 194 78h52q80 -1 131 -59t51 -148
v-276q0 -23 4 -32t-6 -9h-101z" />
    <glyph glyph-name="guillemotleft" unicode="&#xab;" horiz-adv-x="1208" 
d="M1096 655q0 -23 -37 -45l-152 -84l152 -84q37 -23 37 -45v-217q0 -16 -12 -20t-25 4l-385 248q-31 20 -31 53v123q0 33 31 53l385 248q14 8 25 4t12 -21v-217zM565 872v-217q0 -23 -37 -45l-151 -84l151 -84q37 -23 37 -45v-217q0 -16 -11 -20t-26 4l-385 248
q-31 20 -30 53v123q-1 33 30 53l385 248q14 8 26 4t11 -21z" />
    <glyph glyph-name="logicalnot" unicode="&#xac;" horiz-adv-x="1052" 
d="M154 723h745q31 0 31 -31v-403q0 -31 -31 -31h-184q-31 0 -31 31v188h-530q-31 0 -31 31v184q0 31 31 31z" />
    <glyph glyph-name="softhyphen" unicode="&#xad;" horiz-adv-x="888" 
d="M715 395h-541q-31 0 -31 31v184q0 31 31 31h541q31 0 30 -31v-184q1 -31 -30 -31z" />
    <glyph glyph-name="registered" unicode="&#xae;" horiz-adv-x="1343" 
d="M600 807h66q82 1 82 107t-82 106h-66v-213zM918 510v-164q0 -45 -39 -45h-93q-39 0 -38 45v148q0 143 -74 143h-70v-291q0 -45 -39 -45h-92q-39 0 -39 45v776q0 31 18 49t50 19h180q112 0 176 -71t64 -199t-88 -207q84 -72 84 -203zM594 197h156q118 -1 192 79t74 191
v549q0 112 -74 190t-192 78h-156q-117 0 -192 -79t-74 -189v-549q0 -111 74 -191q75 -79 192 -79zM573 1509h197q188 0 320 -151q131 -152 131 -359v-516q0 -207 -131 -359t-320 -151h-197q-188 0 -319 152t-131 358v516q0 207 131 359t319 151z" />
    <glyph glyph-name="macron" unicode="&#xaf;" horiz-adv-x="1011" 
d="M838 1241h-664q-31 0 -31 31v184q0 31 31 31h664q31 0 30 -31v-184q1 -31 -30 -31z" />
    <glyph glyph-name="degree" unicode="&#xb0;" horiz-adv-x="923" 
d="M569 1171v13q0 106 -98 106h-16q-100 0 -101 -106v-13q0 -49 26 -77t75 -29h16q47 1 73 29t25 77zM446 1487h31q127 0 205 -84t78 -215v-23q0 -131 -78 -215t-205 -84h-31q-130 0 -206 83t-76 216v23q0 133 76 216t206 83z" />
    <glyph glyph-name="plusminus" unicode="&#xb1;" horiz-adv-x="1052" 
d="M154 246h747q29 0 29 -31v-184q0 -31 -31 -31h-745q-31 0 -31 31v184q0 31 31 31zM651 825h250q29 0 29 -30v-185q0 -31 -31 -30h-248v-232q0 -31 -30 -31h-185q-31 0 -30 31v232h-252q-31 0 -31 30v185q0 31 31 30h252v230q0 31 30 30h185q31 0 30 -30v-230z" />
    <glyph glyph-name="twosuperior" unicode="&#xb2;" horiz-adv-x="655" 
d="M532 883q0 -31 -30 -31h-344q-31 0 -31 31v49q0 30 11 46t44 50l144 154q4 4 41 37t38 69q1 35 -23 59q-24 23 -58 23t-57 -19q-22 -19 -21 -46v-15q0 -31 -31 -30h-61q-31 0 -31 30v27q0 68 51 119t125 51h51q80 -1 130 -61t50 -126t-34 -114q-34 -49 -97 -113
l-104 -104l207 4q31 0 30 -31v-59z" />
    <glyph glyph-name="threesuperior" unicode="&#xb3;" horiz-adv-x="653" 
d="M510 1037q0 -71 -50 -127t-130 -56h-51q-74 0 -125 51t-52 119v27q0 31 31 30h62q31 0 30 -30v-15q0 -27 22 -46q23 -19 57 -19t58 19t23 52q0 33 -23 55t-55 21h-47q-31 0 -31 31v45q0 31 31 31h47q33 -1 55 21t23 54q0 32 -24 52q-25 20 -59 20t-56 -19t-21 -46v-15
q0 -31 -30 -30h-62q-31 0 -31 30v27q0 68 52 119t125 51h51q80 0 130 -56q50 -55 50 -127t-70 -135q70 -63 70 -134z" />
    <glyph glyph-name="acute" unicode="&#xb4;" horiz-adv-x="645" 
d="M516 1638q39 0 21 -36l-179 -379q-20 -37 -43 -37h-188q-37 0 -21 37l154 379q12 37 43 36h213z" />
    <glyph glyph-name="paragraph" unicode="&#xb6;" horiz-adv-x="1155" 
d="M348 1059q0 -156 109 -180v356q-109 -20 -109 -176zM786 1241h-84v-369h84v369zM1001 1487q31 0 31 -31v-1425q0 -31 -31 -31h-184q-31 0 -31 31v596h-84v-596q0 -31 -30 -31h-185q-31 0 -30 31v598q-164 16 -259 131q-96 115 -96 302t102 302t277 123h520z" />
    <glyph glyph-name="periodcentered" unicode="&#xb7;" horiz-adv-x="516" 
d="M102 500v248q0 31 31 30h250q31 0 31 -30v-248q0 -31 -31 -31h-250q-31 0 -31 31z" />
    <glyph glyph-name="cedilla" unicode="&#xb8;" horiz-adv-x="782" 
d="M266 14h170q10 0 14 -5t-9 -29q-12 -24 -3 -33q9 -10 56 -10q100 -11 143 -53t43 -142q0 -156 -199 -156h-157q-84 0 -131 47t-50 125q0 20 19 21h149q20 0 21 -17q0 -35 57 -34h41q61 0 62 26q0 14 -23 20t-91 15q-68 8 -104 13q-38 6 -60 24t-20 64q1 46 50 108
q12 16 22 16z" />
    <glyph glyph-name="onesuperior" unicode="&#xb9;" horiz-adv-x="618" 
d="M246 885v571q0 31 30 31h66q31 0 31 -31v-571q0 -31 -31 -31h-66q-30 0 -30 31z" />
    <glyph glyph-name="ordmasculine" unicode="&#xba;" horiz-adv-x="663" 
d="M434 233v62q0 39 -26 65t-60 27h-31q-39 0 -63 -27t-25 -65v-62q0 -39 25 -67t63 -29h31q34 1 60 29t26 67zM309 524h45q86 0 147 -65q60 -66 60 -152v-88q0 -91 -60 -155t-147 -64h-45q-86 0 -146 65t-61 154v88q0 89 60 153t147 64z" />
    <glyph glyph-name="guillemotright" unicode="&#xbb;" horiz-adv-x="1208" 
d="M1096 588v-123q0 -33 -31 -53l-385 -248q-14 -8 -26 -4q-11 4 -11 20v217q0 25 37 45l151 84l-151 84q-37 23 -37 45v217q0 16 11 21q12 4 26 -4l385 -248q31 -20 31 -53zM565 465q0 -33 -30 -53l-385 -248q-14 -8 -26 -4q-11 4 -11 20v217q0 25 37 45l151 84l-151 84
q-37 23 -37 45v217q0 16 11 21q12 4 26 -4l385 -248q31 -20 30 -53v-123z" />
    <glyph glyph-name="onequarter" unicode="&#xbc;" horiz-adv-x="1511" 
d="M1206 246v205l-104 -205h104zM1329 242h29q31 0 31 -31v-61q0 -31 -31 -31h-29v-88q0 -31 -31 -31h-61q-31 0 -31 31v88h-223q-29 0 -31 31l-6 59q0 8 8 24l217 388q8 14 29 14h98q31 0 31 -31v-362zM246 885v571q0 31 30 31h66q31 0 31 -31v-571q0 -31 -31 -31h-66
q-30 0 -30 31zM1081 1487h86q39 0 21 -31l-828 -1425q-18 -31 -41 -31h-86q-38 0 -20 31l827 1425q18 31 41 31z" />
    <glyph glyph-name="onehalf" unicode="&#xbd;" horiz-adv-x="1478" 
d="M1356 90v-59q0 -31 -31 -31h-344q-31 0 -31 31v49q0 46 56 96l143 154q4 4 42 37t38 69q0 35 -24 59q-25 23 -59 23t-56 -19t-21 -46v-15q0 -31 -31 -30h-61q-31 0 -31 30v27q0 68 51 119t125 51h52q80 -1 130 -61t50 -126t-34 -114q-34 -49 -97 -113l-105 -104l207 4
q31 0 31 -31zM246 885v571q0 31 30 31h66q31 0 31 -31v-571q0 -31 -31 -31h-66q-30 0 -30 31zM1081 1487h86q39 0 21 -31l-828 -1425q-18 -31 -41 -31h-86q-38 0 -20 31l827 1425q18 31 41 31z" />
    <glyph glyph-name="threequarters" unicode="&#xbe;" horiz-adv-x="1546" 
d="M1241 246v205l-104 -205h104zM1364 242h29q31 0 30 -31v-61q0 -31 -30 -31h-29v-88q0 -31 -31 -31h-61q-31 0 -31 31v88h-223q-27 0 -31 31l-6 59q0 8 8 24l217 388q6 14 29 14h98q31 0 31 -31v-362zM1116 1487h86q39 0 21 -31l-828 -1425q-18 -31 -41 -31h-86
q-38 0 -20 31l827 1425q18 31 41 31zM350 854h-51q-74 0 -125 51t-51 119v27q0 31 31 30h61q31 0 31 -30v-15q0 -27 22 -46t56 -19t58 19t24 52t-23 55t-55 21h-47q-31 0 -31 31v45q0 31 31 31h47q34 -1 56 21t22 54t-24 52t-58 20t-57 -19q-22 -19 -21 -46v-15
q0 -31 -31 -30h-61q-31 0 -31 30v27q0 68 51 119t125 51h51q80 0 130 -56q50 -55 50 -127t-69 -135q69 -63 69 -134t-50 -127t-130 -56z" />
    <glyph glyph-name="questiondown" unicode="&#xbf;" horiz-adv-x="1040" 
d="M565 -436h-86q-172 0 -290 117q-117 117 -117 299t67 250q55 57 124 86q69 30 77 34t22 10t42 21t35 25q20 28 20 53v71q0 31 30 31h185q31 0 31 -31v-112q-1 -106 -55 -158t-232 -127q-61 -27 -81 -55q-19 -29 -20 -88q0 -180 162 -180h86q78 0 117 55t39 131v39
q0 31 31 31h186q31 0 31 -31v-39q0 -196 -118 -314t-286 -118zM715 1047v-248q0 -31 -31 -31h-205q-31 0 -30 31v248q0 31 30 30h205q31 1 31 -30z" />
    <glyph glyph-name="Agrave" unicode="&#xc0;" horiz-adv-x="1232" 
d="M727 606l-109 385l-112 -385h221zM1112 0h-184q-31 0 -39 33l-92 327h-363l-94 -327q-8 -33 -37 -33h-186q-31 0 -23 33l410 1427q10 33 39 33h147q29 0 39 -33l408 -1427q8 -33 -25 -33zM317 2163h193q31 0 43 -37l154 -379q16 -37 -21 -37h-168q-23 0 -43 37l-178 379
q-18 37 20 37z" />
    <glyph glyph-name="Aacute" unicode="&#xc1;" horiz-adv-x="1232" 
d="M727 606l-109 385l-112 -385h221zM1112 0h-184q-31 0 -39 33l-92 327h-363l-94 -327q-8 -33 -37 -33h-186q-31 0 -23 33l410 1427q10 33 39 33h147q29 0 39 -33l408 -1427q8 -33 -25 -33zM713 1710h-189q-37 0 -20 37l153 379q12 37 43 37h213q39 0 21 -37l-178 -379
q-20 -37 -43 -37z" />
    <glyph glyph-name="Acircumflex" unicode="&#xc2;" horiz-adv-x="1232" 
d="M727 606l-109 385l-112 -385h221zM1112 0h-184q-31 0 -39 33l-92 327h-363l-94 -327q-8 -33 -37 -33h-186q-31 0 -23 33l410 1427q10 33 39 33h147q29 0 39 -33l408 -1427q8 -33 -25 -33zM440 1724h-190q-16 0 -20 12t3 27l240 367q23 33 47 33h182q29 0 50 -33l239 -367
q10 -14 5 -26t-21 -13h-191q-23 0 -47 39l-125 197l-125 -197q-24 -39 -47 -39z" />
    <glyph glyph-name="Atilde" unicode="&#xc3;" horiz-adv-x="1232" 
d="M727 606l-109 385l-112 -385h221zM1112 0h-184q-31 0 -39 33l-92 327h-363l-94 -327q-8 -33 -37 -33h-186q-31 0 -23 33l410 1427q10 33 39 33h147q29 0 39 -33l408 -1427q8 -33 -25 -33zM291 1837l-70 137q-12 25 21 45q219 152 405 33q99 -63 165 -37q30 12 85 49
q23 14 35 -16l69 -137q14 -23 -20 -45q-213 -147 -406 -33q-92 49 -132 45t-117 -57q-19 -13 -35 16z" />
    <glyph glyph-name="Adieresis" unicode="&#xc4;" horiz-adv-x="1232" 
d="M727 606l-109 385l-112 -385h221zM1112 0h-184q-31 0 -39 33l-92 327h-363l-94 -327q-8 -33 -37 -33h-186q-31 0 -23 33l410 1427q10 33 39 33h147q29 0 39 -33l408 -1427q8 -33 -25 -33zM975 1702h-250q-31 0 -31 31v247q0 31 31 31h250q31 0 31 -31v-247q0 -31 -31 -31
zM498 1702h-250q-31 0 -31 31v247q0 31 31 31h250q31 0 30 -31v-247q1 -31 -30 -31z" />
    <glyph glyph-name="Aring" unicode="&#xc5;" horiz-adv-x="1232" 
d="M727 606l-109 385l-112 -385h221zM1112 0h-184q-31 0 -39 33l-92 327h-363l-94 -327q-8 -33 -37 -33h-186q-31 0 -23 33l410 1427q10 33 39 33h147q29 0 39 -33l408 -1427q8 -33 -25 -33zM555 1968v-6q0 -23 15 -39t38 -16h6q25 0 40 16t16 39v6q0 23 -16 38t-40 15h-6
q-23 0 -38 -15t-15 -38zM625 1763h-27q-82 1 -135 53t-53 136v22q0 82 53 136t135 55h27q82 -1 135 -55t53 -136v-22q0 -84 -52 -136t-136 -53z" />
    <glyph glyph-name="AE" unicode="&#xc6;" horiz-adv-x="1847" 
d="M842 606v420l-232 -420h232zM1087 1241v-369h474q31 0 30 -30v-185q0 -31 -30 -30h-474v-381h607q31 0 30 -31v-184q0 -31 -30 -31h-822q-31 0 -30 31v329h-367l-182 -329q-14 -31 -41 -31h-197q-35 0 -20 31l786 1425q18 31 41 31h832q31 0 30 -31v-184q0 -31 -30 -31
h-607z" />
    <glyph glyph-name="Ccedilla" unicode="&#xc7;" horiz-adv-x="1159" 
d="M956 -258q0 -156 -198 -156h-158q-84 0 -131 47.5t-49 124.5q0 20 18 21h150q20 0 20 -17q0 -35 58 -34h41q61 0 61 26q0 14 -22.5 20.5t-90.5 14.5t-103.5 13t-56 22.5t-26.5 55.5t35 95q-178 12 -290 147.5t-112 342.5v557q0 217 122 352t313 135h94q182 0 302 -133
t124 -340q0 -31 -31 -30h-184q-33 0 -33 30q0 227 -178 228h-94q-96 0 -142.5 -58.5t-46.5 -183.5v-557q0 -246 189 -246h94q182 0 178 232q0 31 33 30h184q31 1 31 -30q-2 -182 -96.5 -310.5t-245.5 -158.5q-18 -33 22 -41q9 0 33 -4q100 -10 143 -52.5t43 -142.5z" />
    <glyph glyph-name="Egrave" unicode="&#xc8;" horiz-adv-x="1138" 
d="M379 872h473q31 0 31 -30v-185q0 -31 -31 -30h-473v-381h606q31 0 31 -31v-184q0 -31 -31 -31h-821q-31 0 -31 31v1425q0 31 31 31h821q31 0 31 -31v-184q0 -31 -31 -31h-606v-369zM688 1710h-168q-23 0 -43 37l-178 379q-18 37 20 37h193q31 0 43 -37l154 -379
q16 -37 -21 -37z" />
    <glyph glyph-name="Eacute" unicode="&#xc9;" horiz-adv-x="1138" 
d="M379 872h473q31 0 31 -30v-185q0 -31 -31 -30h-473v-381h606q31 0 31 -31v-184q0 -31 -31 -31h-821q-31 0 -31 31v1425q0 31 31 31h821q31 0 31 -31v-184q0 -31 -31 -31h-606v-369zM702 2163h213q39 0 21 -37l-178 -379q-20 -37 -43 -37h-189q-36 0 -20 37l153 379
q12 37 43 37z" />
    <glyph glyph-name="Ecircumflex" unicode="&#xca;" horiz-adv-x="1138" 
d="M379 872h473q31 0 31 -30v-185q0 -31 -31 -30h-473v-381h606q31 0 31 -31v-184q0 -31 -31 -31h-821q-31 0 -31 31v1425q0 31 31 31h821q31 0 31 -31v-184q0 -31 -31 -31h-606v-369zM522 2163h183q29 0 49 -33l239 -367q10 -14 5 -26.5t-21 -12.5h-191q-23 0 -47 39
l-125 197l-125 -197q-25 -39 -47 -39h-190q-16 0 -20 12.5t4 26.5l239 367q23 33 47 33z" />
    <glyph glyph-name="Edieresis" unicode="&#xcb;" horiz-adv-x="1138" 
d="M379 872h473q31 0 31 -30v-185q0 -31 -31 -30h-473v-381h606q31 0 31 -31v-184q0 -31 -31 -31h-821q-31 0 -31 31v1425q0 31 31 31h821q31 0 31 -31v-184q0 -31 -31 -31h-606v-369zM696 1733v247q0 31 31 31h250q31 0 31 -31v-247q0 -31 -31 -31h-250q-31 0 -31 31z
M219 1733v247q0 31 31 31h250q31 0 30 -31v-247q0 -31 -30 -31h-250q-31 0 -31 31z" />
    <glyph glyph-name="Igrave" unicode="&#xcc;" horiz-adv-x="577" 
d="M164 31v1425q0 31 31 31h188q31 0 31 -31v-1425q0 -31 -31 -31h-188q-31 0 -31 31zM362 1710h-167q-23 0 -43 37l-179 379q-18 37 21 37h192q31 0 43 -37l154 -379q16 -37 -21 -37z" />
    <glyph glyph-name="Iacute" unicode="&#xcd;" horiz-adv-x="577" 
d="M164 31v1425q0 31 31 31h188q31 0 31 -31v-1425q0 -31 -31 -31h-188q-31 0 -31 31zM377 2163h213q39 0 20 -37l-178 -379q-20 -37 -43 -37h-188q-37 0 -21 37l154 379q12 37 43 37z" />
    <glyph glyph-name="Icircumflex" unicode="&#xce;" horiz-adv-x="577" 
d="M164 31v1425q0 31 31 31h188q31 0 31 -31v-1425q0 -31 -31 -31h-188q-31 0 -31 31zM197 2163h182q29 0 49 -33l240 -367q10 -14 5 -26t-22 -13h-190q-23 0 -47 39l-125 197l-125 -197q-25 -39 -47 -39h-191q-16 0 -20 12t4 27l240 367q23 33 47 33z" />
    <glyph glyph-name="Idieresis" unicode="&#xcf;" horiz-adv-x="577" 
d="M164 31v1425q0 31 31 31h188q31 0 31 -31v-1425q0 -31 -31 -31h-188q-31 0 -31 31zM371 1733v247q0 31 30 31h250q31 0 31 -31v-247q0 -31 -31 -31h-250q-30 0 -30 31zM-106 1733v247q0 31 30 31h250q31 0 31 -31v-247q0 -31 -31 -31h-250q-30 0 -30 31z" />
    <glyph glyph-name="Eth" unicode="&#xd0;" horiz-adv-x="1323" 
d="M965 481v525q-1 129 -53 182t-148 53h-254v-375h195q31 0 30 -30v-185q0 -31 -30 -30h-195v-375h254q96 0 148 53t53 182zM295 1487h489q168 1 297 -143t129 -338v-525q0 -195 -129 -338t-297 -143h-489q-31 0 -31 31v590h-100q-31 0 -31 30v185q0 31 31 30h100v590
q0 31 31 31z" />
    <glyph glyph-name="Ntilde" unicode="&#xd1;" horiz-adv-x="1302" 
d="M944 1487h184q31 0 31 -31v-1425q0 -31 -31 -31h-204q-27 0 -37 23l-508 952v-944q0 -31 -31 -31h-184q-31 0 -31 31v1425q0 31 31 31h205q25 0 37 -23l507 -952v944q0 31 31 31zM967 2048l69 -137q14 -23 -20 -45q-213 -147 -406 -33q-92 49 -132 45t-118 -57
q-18 -12 -34 16l-70 137q-12 25 20 45q219 152 406 33q100 -64 165 -36q30 12 85 48q23 15 35 -16z" />
    <glyph glyph-name="Ograve" unicode="&#xd2;" horiz-adv-x="1212" 
d="M553 219h106q86 0 136 66q49 66 49 161v590q0 96 -49 162t-136 66h-106q-86 0 -135 -66t-49 -162v-590q0 -96 49 -162t135 -65zM553 1509h106q175 0 303 -143t128 -346v-557q0 -203 -127 -346t-304 -144h-106q-176 -1 -303 143t-127 347v557q0 203 127 346t303 143z
M680 1710h-168q-23 0 -43 37l-178 379q-18 37 20 37h193q31 0 43 -37l153 -379q16 -37 -20 -37z" />
    <glyph glyph-name="Oacute" unicode="&#xd3;" horiz-adv-x="1212" 
d="M553 219h106q86 0 136 66q49 66 49 161v590q0 96 -49 162t-136 66h-106q-86 0 -135 -66t-49 -162v-590q0 -96 49 -162t135 -65zM553 1509h106q175 0 303 -143t128 -346v-557q0 -203 -127 -346t-304 -144h-106q-176 -1 -303 143t-127 347v557q0 203 127 346t303 143z
M694 2163h213q39 0 21 -37l-178 -379q-20 -37 -43 -37h-189q-36 0 -20 37l153 379q12 37 43 37z" />
    <glyph glyph-name="Ocircumflex" unicode="&#xd4;" horiz-adv-x="1212" 
d="M553 219h106q86 0 136 66q49 66 49 161v590q0 96 -49 162t-136 66h-106q-86 0 -135 -66t-49 -162v-590q0 -96 49 -162t135 -65zM553 1509h106q175 0 303 -143t128 -346v-557q0 -203 -127 -346t-304 -144h-106q-176 -1 -303 143t-127 347v557q0 203 127 346t303 143z
M514 2163h182q29 0 49 -33l240 -367q10 -14 5 -26t-21 -13h-191q-23 0 -47 39l-125 197l-125 -197q-25 -39 -47 -39h-190q-16 0 -20 12t3 27l240 367q23 33 47 33z" />
    <glyph glyph-name="Otilde" unicode="&#xd5;" horiz-adv-x="1212" 
d="M553 219h106q86 0 136 66q49 66 49 161v590q0 96 -49 162t-136 66h-106q-86 0 -135 -66t-49 -162v-590q0 -96 49 -162t135 -65zM553 1509h106q175 0 303 -143t128 -346v-557q0 -203 -127 -346t-304 -144h-106q-176 -1 -303 143t-127 347v557q0 203 127 346t303 143z
M926 2048l69 -137q14 -23 -20 -45q-213 -147 -406 -33q-92 49 -132 45t-118 -57q-18 -12 -34 16l-70 137q-12 25 21 45q219 152 405 33q99 -63 165 -37q30 12 85 49q23 15 35 -16z" />
    <glyph glyph-name="Odieresis" unicode="&#xd6;" horiz-adv-x="1212" 
d="M553 219h106q86 0 136 66q49 66 49 161v590q0 96 -49 162t-136 66h-106q-86 0 -135 -66t-49 -162v-590q0 -96 49 -162t135 -65zM553 1509h106q175 0 303 -143t128 -346v-557q0 -203 -127 -346t-304 -144h-106q-176 -1 -303 143t-127 347v557q0 203 127 346t303 143z
M688 1733v247q0 31 31 31h250q31 0 30 -31v-247q0 -31 -30 -31h-250q-31 0 -31 31zM211 1733v247q0 31 31 31h250q31 0 30 -31v-247q0 -31 -30 -31h-250q-31 0 -31 31z" />
    <glyph glyph-name="multiply" unicode="&#xd7;" horiz-adv-x="956" 
d="M651 664l193 -193q20 -25 0 -45l-129 -129q-23 -23 -45 0l-193 192l-178 -178q-20 -20 -43 0l-129 129q-27 23 0 45l178 179l-192 190q-23 23 0 43l131 131q23 20 43 0l192 -190l176 176q20 18 41 -2l131 -131q20 -20 0 -43z" />
    <glyph glyph-name="Oslash" unicode="&#xd8;" horiz-adv-x="1212" 
d="M553 219h106q86 0 136 66q49 66 49 161v578l-348 -797q32 -8 57 -8zM659 1264h-106q-86 0 -135 -66t-49 -162v-508l319 734q-8 2 -29 2zM1090 463q0 -203 -127 -346t-304 -144h-106q-84 0 -160 35q-8 -8 -24 -8h-197q-37 0 -20 31l59 135q-88 133 -88 297v557
q0 203 127 346t303 143h106q76 0 138 -26q12 4 18 4h197q32 0 20 -31l-49 -115q106 -139 107 -321v-557z" />
    <glyph glyph-name="Ugrave" unicode="&#xd9;" horiz-adv-x="1191" 
d="M854 1487h184q31 0 31 -31v-1010q0 -200 -125 -330t-321 -130h-54q-197 0 -321 131t-125 329v1010q0 31 31 31h184q31 0 31 -31v-969q0 -106 45 -181t155 -75h54q111 0 155 75t45 181v969q0 31 31 31zM670 1710h-168q-23 0 -43 37l-178 379q-18 37 20 37h193q31 0 43 -37
l153 -379q16 -37 -20 -37z" />
    <glyph glyph-name="Uacute" unicode="&#xda;" horiz-adv-x="1191" 
d="M854 1487h184q31 0 31 -31v-1010q0 -200 -125 -330t-321 -130h-54q-197 0 -321 131t-125 329v1010q0 31 31 31h184q31 0 31 -31v-969q0 -106 45 -181t155 -75h54q111 0 155 75t45 181v969q0 31 31 31zM684 2163h213q39 0 21 -37l-179 -379q-20 -37 -43 -37h-188
q-37 0 -21 37l154 379q12 37 43 37z" />
    <glyph glyph-name="Ucircumflex" unicode="&#xdb;" horiz-adv-x="1191" 
d="M854 1487h184q31 0 31 -31v-1010q0 -200 -125 -330t-321 -130h-54q-197 0 -321 131t-125 329v1010q0 31 31 31h184q31 0 31 -31v-969q0 -106 45 -181t155 -75h54q111 0 155 75t45 181v969q0 31 31 31zM504 2163h182q29 0 49 -33l240 -367q10 -14 5 -26t-22 -13h-190
q-23 0 -47 39l-125 197l-125 -197q-25 -39 -47 -39h-191q-16 0 -20 12t4 27l240 367q23 33 47 33z" />
    <glyph glyph-name="Udieresis" unicode="&#xdc;" horiz-adv-x="1191" 
d="M854 1487h184q31 0 31 -31v-1010q0 -200 -125 -330t-321 -130h-54q-197 0 -321 131t-125 329v1010q0 31 31 31h184q31 0 31 -31v-969q0 -106 45 -181t155 -75h54q111 0 155 75t45 181v969q0 31 31 31zM678 1733v247q0 31 31 31h249q31 0 31 -31v-247q0 -31 -31 -31h-249
q-31 0 -31 31zM201 1733v247q0 31 30 31h250q31 0 31 -31v-247q0 -31 -31 -31h-250q-30 0 -30 31z" />
    <glyph glyph-name="Yacute" unicode="&#xdd;" horiz-adv-x="1146" 
d="M858 1487h203q37 0 20 -31l-387 -803v-622q0 -31 -30 -31h-185q-31 0 -30 31v622l-383 803q-16 31 20 31h203q29 0 41 -31l241 -543l246 543q12 31 41 31zM651 2163h213q39 0 21 -37l-178 -379q-20 -37 -43 -37h-189q-36 0 -20 37l153 379q12 37 43 37z" />
    <glyph glyph-name="Thorn" unicode="&#xde;" horiz-adv-x="1153" 
d="M379 559h252q86 0 130 38q44 39 44 149t-44 146t-130 36h-252v-369zM379 1174h272q182 0 291 -116t109 -313t-109 -315t-291 -117h-272v-282q0 -31 -31 -31h-184q-31 0 -31 31v1425q0 31 31 31h184q31 0 31 -31v-282z" />
    <glyph glyph-name="germandbls" unicode="&#xdf;" horiz-adv-x="1067" 
d="M965 367q0 -167 -118 -267t-319 -100h-43q-31 0 -30 31v184q0 31 30 31h43q102 0 147 27q44 28 44 114v127q0 90 -44 126t-136 36h-54q-31 0 -30 31v184q0 31 30 31h54q82 0 100 24t18 96v88q0 68 -25 96q-26 28 -87 27h-70q-53 -1 -78 -29t-24 -94l-2 -1099
q0 -31 -31 -31h-184q-31 0 -31 31l-2 1140q0 145 97 237t255 91h70q154 0 256 -92t102 -236v-108q1 -223 -155 -260q112 -37 164 -119t53 -231v-86z" />
    <glyph glyph-name="agrave" unicode="&#xe0;" horiz-adv-x="976" 
d="M389 244h100q84 0 123 39v102h-223q-27 0 -43 -20q-16 -19 -16 -49t16 -51t43 -21zM856 0h-207q-37 0 -37 49v2q-82 -53 -153 -53h-82q-113 0 -202 91t-89 221t89 213t222 83h215v21q0 45 -28 71t-76 25h-96q-80 0 -142 -47q-29 -20 -49 8l-92 121q-20 25 -4 43
q115 119 319 119h91q127 1 225 -101t98 -256v-561q0 -15 4 -32t-6 -17zM391 1638q31 0 43 -36l154 -379q16 -37 -21 -37h-168q-23 0 -43 37l-178 379q-18 37 21 36h192z" />
    <glyph glyph-name="aacute" unicode="&#xe1;" horiz-adv-x="976" 
d="M389 244h100q84 0 123 39v102h-223q-27 0 -43 -20q-16 -19 -16 -49t16 -51t43 -21zM856 0h-207q-37 0 -37 49v2q-82 -53 -153 -53h-82q-113 0 -202 91t-89 221t89 213t222 83h215v21q0 45 -28 71t-76 25h-96q-80 0 -142 -47q-29 -20 -49 8l-92 121q-20 25 -4 43
q115 119 319 119h91q127 1 225 -101t98 -256v-561q0 -15 4 -32t-6 -17zM594 1186h-188q-37 0 -21 37l154 379q12 37 43 36h213q39 0 20 -36l-178 -379q-20 -37 -43 -37z" />
    <glyph glyph-name="acircumflex" unicode="&#xe2;" horiz-adv-x="976" 
d="M389 244h100q84 0 123 39v102h-223q-27 0 -43 -20q-16 -19 -16 -49t16 -51t43 -21zM858 610v-561q0 -13 4 -31t-6 -18h-207q-37 0 -37 49v2q-82 -53 -153 -53h-82q-113 0 -202 91t-89 221t89 213t222 83h215v21q0 45 -28 71t-76 25h-96q-80 0 -142 -47q-29 -20 -49 8
l-92 121q-20 25 -4 43q115 119 319 119h91q127 1 225 -101t98 -256zM856 1200h-190q-23 0 -48 39l-124 197l-125 -197q-25 -39 -47 -39h-191q-16 0 -20 12t4 27l239 367q23 33 47 32h183q29 1 49 -32l239 -367q10 -14 6 -27q-5 -12 -22 -12z" />
    <glyph glyph-name="atilde" unicode="&#xe3;" horiz-adv-x="976" 
d="M389 244h100q84 0 123 39v102h-223q-27 0 -43 -20q-16 -19 -16 -49t16 -51t43 -21zM858 610v-561q0 -13 4 -31t-6 -18h-207q-37 0 -37 49v2q-82 -53 -153 -53h-82q-113 0 -202 91t-89 221t89 213t222 83h215v21q0 45 -28 71t-76 25h-96q-80 0 -142 -47q-29 -20 -49 8
l-92 121q-20 25 -4 43q115 119 319 119h91q127 1 225 -101t98 -256zM813 1524l70 -138q14 -23 -21 -45q-213 -147 -405 -32q-92 49 -132 45t-118 -58q-18 -12 -35 17l-70 137q-12 25 21 45q219 152 405 33q100 -64 165 -37q30 12 85 49q23 15 35 -16z" />
    <glyph glyph-name="adieresis" unicode="&#xe4;" horiz-adv-x="976" 
d="M389 244h100q84 0 123 39v102h-223q-27 0 -43 -20q-16 -19 -16 -49t16 -51t43 -21zM858 610v-561q0 -13 4 -31t-6 -18h-207q-37 0 -37 49v2q-82 -53 -153 -53h-82q-113 0 -202 91t-89 221t89 213t222 83h215v21q0 45 -28 71t-76 25h-96q-80 0 -142 -47q-29 -20 -49 8
l-92 121q-20 25 -4 43q115 119 319 119h91q127 1 225 -101t98 -256zM606 1487h250q31 0 31 -31v-248q0 -31 -31 -30h-250q-31 0 -31 30v248q0 31 31 31zM379 1178h-250q-31 0 -31 30v248q0 31 31 31h250q31 0 31 -31v-248q0 -30 -31 -30z" />
    <glyph glyph-name="aring" unicode="&#xe5;" horiz-adv-x="976" 
d="M389 244h100q84 0 123 39v102h-223q-27 0 -43 -20q-16 -19 -16 -49t16 -51t43 -21zM856 0h-207q-37 0 -37 49v2q-82 -53 -153 -53h-82q-113 0 -202 91t-89 221t89 213t222 83h215v21q0 45 -28 71t-76 25h-96q-80 0 -142 -47q-29 -20 -49 8l-92 121q-20 25 -4 43
q115 119 319 119h91q127 1 225 -101t98 -256v-561q0 -15 4 -32t-6 -17zM436 1444v-6q0 -23 16 -39t37 -17h7q25 0 40 16t15 40v6q0 23 -15 38t-40 15h-7q-23 0 -38 -15t-15 -38zM506 1239h-27q-82 0 -135 52t-53 136v23q0 82 53 136t135 54h27q82 0 135 -54t53 -136v-23
q0 -84 -52 -136t-136 -52z" />
    <glyph glyph-name="ae" unicode="&#xe6;" horiz-adv-x="1499" 
d="M598 362h-215q-20 0 -36.5 -17t-16.5 -41t16 -42t37 -18h61q111 0 154 41v77zM1151 602v21q0 41 -34 70.5t-73 29.5h-77q-43 0 -79 -30.5t-36 -71.5v-19h299zM971 969h78q133 0 240.5 -107.5t107.5 -261.5v-133q0 -61 -62 -61h-483v-44q0 -53 34 -85.5t83 -32.5h88
q37 0 52 12t19 14q14 6 26.5 24.5t31.5 37.5q20 27 49 2l131 -117q23 -20 6 -43q-70 -84 -140.5 -130t-182.5 -46h-78q-135 0 -244 94q-106 -94 -242 -94h-108q-113 0 -202 87t-89 212t90 208t221 83h201v22q0 49 -26.5 80t-77.5 31h-82q-84 0 -138 -43q-23 -16 -41 4
l-100 125q-18 23 -2 41q115 119 322 119h73q115 0 209 -88q101 90 236 90z" />
    <glyph glyph-name="ccedilla" unicode="&#xe7;" horiz-adv-x="985" 
d="M836 -258q0 -156 -199 -156h-158q-84 0 -131 47.5t-49 124.5q0 20 18 21h150q20 0 20 -17q0 -35 58 -34h41q61 0 61 26q0 14 -22.5 20.5t-90 14.5t-104.5 13t-59.5 23.5t-21.5 65t50 107.5l7 6q-127 27 -210 129.5t-83 231.5v233q0 150 106.5 260.5t257.5 110.5h74
q129 0 233.5 -91.5t108.5 -201.5q0 -37 -29 -37h-186q-29 0 -35 29q-14 55 -92 55h-78q-47 0 -81 -35t-34 -90v-233q0 -55 34 -88t81 -33h90q37 0 52.5 12t19.5 14q3 2 15 14t19 22t23 26q20 27 49 2l131 -117q23 -20 7 -43q-61 -74 -122 -118t-151 -54q-22 -45 -12 -55
t55 -10q100 -10 143.5 -52.5t43.5 -142.5z" />
    <glyph glyph-name="egrave" unicode="&#xe8;" horiz-adv-x="1015" 
d="M668 602v21q0 41 -34 70.5t-73 29.5h-78q-43 0 -78.5 -30.5t-35.5 -71.5v-19h299zM487 969h78q133 0 240.5 -107.5t107.5 -261.5v-133q0 -61 -61 -61h-483v-44q0 -53 33.5 -85.5t82.5 -32.5h88q38 0 53 12t19 14q3 2 15 14t19 22t23 26q20 27 50 2l131 -117q23 -20 6 -43
q-70 -84 -140.5 -130t-183.5 -46h-78q-152 0 -258 108.5t-106 258.5v233q0 150 106 260.5t258 110.5zM582 1186h-168q-23 0 -43 37l-178 379q-18 37 20 36h193q31 1 43 -36l153 -379q16 -37 -20 -37z" />
    <glyph glyph-name="eacute" unicode="&#xe9;" horiz-adv-x="1015" 
d="M668 602v21q0 41 -34 70.5t-73 29.5h-78q-43 0 -78.5 -30.5t-35.5 -71.5v-19h299zM487 969h78q133 0 240.5 -107.5t107.5 -261.5v-133q0 -61 -61 -61h-483v-44q0 -53 33.5 -85.5t82.5 -32.5h88q38 0 53 12t19 14q3 2 15 14t19 22t23 26q20 27 50 2l131 -117q23 -20 6 -43
q-70 -84 -140.5 -130t-183.5 -46h-78q-152 0 -258 108.5t-106 258.5v233q0 150 106 260.5t258 110.5zM809 1638q39 0 20 -36l-178 -379q-20 -37 -43 -37h-188q-37 0 -21 37l154 379q12 37 43 36h213z" />
    <glyph glyph-name="ecircumflex" unicode="&#xea;" horiz-adv-x="1015" 
d="M668 602v21q0 41 -34 70.5t-73 29.5h-78q-43 0 -78.5 -30.5t-35.5 -71.5v-19h299zM487 969h78q133 0 240.5 -107.5t107.5 -261.5v-133q0 -61 -61 -61h-483v-44q0 -53 33.5 -85.5t82.5 -32.5h88q38 0 53 12t19 14q3 2 15 14t19 22t23 26q20 27 50 2l131 -117q23 -20 6 -43
q-70 -84 -140.5 -130t-183.5 -46h-78q-152 0 -258 108.5t-106 258.5v233q0 150 106 260.5t258 110.5zM598 1638q29 0 49 -32l240 -367q10 -14 5 -26.5t-22 -12.5h-190q-23 0 -47 39l-125 197l-125 -197q-25 -39 -47 -39h-191q-16 0 -20 12.5t4 26.5l240 367q23 33 47 32h182
z" />
    <glyph glyph-name="edieresis" unicode="&#xeb;" horiz-adv-x="1015" 
d="M668 602v21q0 41 -34 70.5t-73 29.5h-78q-43 0 -78.5 -30.5t-35.5 -71.5v-19h299zM487 969h78q133 0 240.5 -107.5t107.5 -261.5v-133q0 -61 -61 -61h-483v-44q0 -53 33.5 -85.5t82.5 -32.5h88q38 0 53 12t19 14q3 2 15 14t19 22t23 26q20 27 50 2l131 -117q23 -20 6 -43
q-70 -84 -140.5 -130t-183.5 -46h-78q-152 0 -258 108.5t-106 258.5v233q0 150 106 260.5t258 110.5zM590 1208v248q0 31 31 31h249q31 0 31 -31v-248q0 -31 -31 -30h-249q-31 -1 -31 30zM113 1208v248q0 31 30 31h250q31 0 31 -31v-248q0 -31 -31 -30h-250q-30 -1 -30 30z
" />
    <glyph glyph-name="igrave" unicode="&#xec;" horiz-adv-x="573" 
d="M164 31v903q0 31 31 31h184q31 0 31 -31v-903q0 -31 -31 -31h-184q-31 0 -31 31zM360 1186h-167q-23 0 -43 37l-179 379q-18 37 21 36h192q31 1 43 -36l154 -379q16 -37 -21 -37z" />
    <glyph glyph-name="iacute" unicode="&#xed;" horiz-adv-x="573" 
d="M164 31v903q0 31 31 31h184q31 0 31 -31v-903q0 -31 -31 -31h-184q-31 0 -31 31zM588 1638q39 0 20 -36l-178 -379q-20 -37 -43 -37h-188q-37 0 -21 37l154 379q12 37 43 36h213z" />
    <glyph glyph-name="icircumflex" unicode="&#xee;" horiz-adv-x="573" 
d="M164 31v903q0 31 31 31h184q31 0 31 -31v-903q0 -31 -31 -31h-184q-31 0 -31 31zM377 1638q29 0 49 -32l240 -367q10 -15 5 -27t-22 -12h-190q-23 0 -47 39l-125 197l-125 -197q-25 -39 -47 -39h-191q-16 0 -20 12t4 27l239 367q23 33 48 32h182z" />
    <glyph glyph-name="idieresis" unicode="&#xef;" horiz-adv-x="573" 
d="M164 31v903q0 31 31 31h184q31 0 31 -31v-903q0 -31 -31 -31h-184q-31 0 -31 31zM369 1208v248q0 31 30 31h250q31 0 31 -31v-248q0 -31 -31 -30h-250q-30 -1 -30 30zM-109 1208v248q0 31 31 31h250q31 0 31 -31v-248q0 -31 -31 -30h-250q-31 -1 -31 30z" />
    <glyph glyph-name="eth" unicode="&#xf0;" horiz-adv-x="1112" 
d="M506 225h63q4 0 26 -1q65 -3 96 21q30 24 46 63t24 118q7 78 0 129t-41 74q-52 35 -173 36t-159 -57t-36 -176t38 -162t116 -45zM774 1487h209q19 0 25 -10t-7 -27l-98 -127q63 -102 76 -227q39 -352 8 -682q-17 -203 -121 -319t-256 -115h-125q-163 0 -271 114t-112 348
q-8 477 408 476q165 0 211 -21q12 -6 49 -27q4 59 -4 90t-17 72t-16 70q-16 -20 -35 -21h-209q-18 1 -24 11t4 26l115 150h-76q-31 0 -31 30v185q0 31 31 30h49q104 0 186 -40q15 14 31 14z" />
    <glyph glyph-name="ntilde" unicode="&#xf1;" horiz-adv-x="1056" 
d="M530 963h91q156 0 234.5 -102.5t78.5 -264.5v-565q0 -31 -31 -31h-184q-31 0 -31 31v565q0 51 -31.5 86t-76.5 35h-93q-45 0 -74.5 -35t-29.5 -86v-565q0 -31 -31 -31h-184q-31 0 -31 31v901q0 31 31 31h184q31 0 31 -31v-45q14 27 60 51.5t87 24.5zM848 1524l70 -138
q14 -23 -21 -45q-213 -147 -405 -32q-92 49 -132.5 45t-117.5 -58q-18 -12 -35 17l-70 137q-12 25 21 45q219 152 405 33q99 -63 165 -37q30 12 85 49q23 15 35 -16z" />
    <glyph glyph-name="ograve" unicode="&#xf2;" horiz-adv-x="1038" 
d="M680 365v233q0 51 -30 88t-87 37h-88q-57 0 -87 -37t-30 -88v-233q0 -51 30 -86t87 -35h88q57 0 87 35t30 86zM479 969h80q154 0 260 -109t107 -262v-233q0 -155 -106 -261t-261 -106h-80q-154 0 -260 106t-106 261v233q0 154 106 262t260 109zM594 1186h-168
q-23 0 -43 37l-178 379q-18 37 20 36h193q31 1 43 -36l153 -379q16 -37 -20 -37z" />
    <glyph glyph-name="oacute" unicode="&#xf3;" horiz-adv-x="1038" 
d="M680 365v233q0 51 -30 88t-87 37h-88q-57 0 -87 -37t-30 -88v-233q0 -51 30 -86t87 -35h88q57 0 87 35t30 86zM479 969h80q154 0 260 -109t107 -262v-233q0 -155 -106 -261t-261 -106h-80q-154 0 -260 106t-106 261v233q0 154 106 262t260 109zM821 1638q39 0 21 -36
l-178 -379q-20 -37 -43 -37h-189q-36 0 -20 37l153 379q12 37 43 36h213z" />
    <glyph glyph-name="ocircumflex" unicode="&#xf4;" horiz-adv-x="1038" 
d="M680 365v233q0 51 -30 88t-87 37h-88q-57 0 -87 -37t-30 -88v-233q0 -51 30 -86t87 -35h88q57 0 87 35t30 86zM479 969h80q154 0 260 -109t107 -262v-233q0 -155 -106 -261t-261 -106h-80q-154 0 -260 106t-106 261v233q0 154 106 262t260 109zM610 1638q29 0 49 -32
l240 -367q10 -15 5 -27t-21 -12h-191q-23 0 -47 39l-125 197l-125 -197q-25 -39 -47 -39h-190q-16 0 -21 12q-4 13 4 27l240 367q23 33 47 32h182z" />
    <glyph glyph-name="otilde" unicode="&#xf5;" horiz-adv-x="1038" 
d="M680 365v233q0 51 -30 88t-87 37h-88q-57 0 -87 -37t-30 -88v-233q0 -51 30 -86t87 -35h88q57 0 87 35t30 86zM479 969h80q154 0 260 -109t107 -262v-233q0 -155 -106 -261t-261 -106h-80q-154 0 -260 106t-106 261v233q0 154 106 262t260 109zM840 1524l69 -138
q14 -23 -20 -45q-213 -147 -406 -32q-92 49 -132 45t-118 -58q-18 -12 -34 17l-70 137q-12 25 21 45q219 152 405 33q99 -63 165 -37q30 12 85 49q23 15 35 -16z" />
    <glyph glyph-name="odieresis" unicode="&#xf6;" horiz-adv-x="1038" 
d="M680 365v233q0 51 -30 88t-87 37h-88q-57 0 -87 -37t-30 -88v-233q0 -51 30 -86t87 -35h88q57 0 87 35t30 86zM479 969h80q154 0 260 -109t107 -262v-233q0 -155 -106 -261t-261 -106h-80q-154 0 -260 106t-106 261v233q0 154 106 262t260 109zM602 1208v248q0 31 31 31
h250q31 0 30 -31v-248q0 -31 -30 -30h-250q-31 -1 -31 30zM125 1208v248q0 31 31 31h250q31 0 30 -31v-248q0 -31 -30 -30h-250q-31 -1 -31 30z" />
    <glyph glyph-name="divide" unicode="&#xf7;" horiz-adv-x="1052" 
d="M391 182v207q0 31 31 31h209q31 0 31 -31v-207q0 -31 -31 -30h-209q-31 -1 -31 30zM154 784h747q29 0 29 -30v-185q0 -31 -31 -30h-745q-31 0 -31 30v185q0 30 31 30zM391 934v207q0 31 31 30h209q31 0 31 -30v-207q0 -31 -31 -31h-209q-31 0 -31 31z" />
    <glyph glyph-name="oslash" unicode="&#xf8;" horiz-adv-x="1038" 
d="M563 244q57 0 87 35t30 86v190l-135 -311h18zM475 723q-57 0 -87 -37t-30 -88v-188l138 313h-21zM926 598v-233q0 -155 -106 -261t-261 -106h-80q-18 0 -55 4q-4 -2 -14 -2h-197q-33 0 -20 31l30 69q-111 106 -110 265v233q0 154 106 262t260 109h80q23 0 59 -4h207
q33 0 21 -31l-31 -70q111 -111 111 -266z" />
    <glyph glyph-name="ugrave" unicode="&#xf9;" horiz-adv-x="1073" 
d="M930 932v-901q0 -31 -31 -31h-184q-31 0 -31 31v45q-14 -28 -60 -52t-87 -24h-91q-156 0 -234 102t-79 265v565q0 31 31 31h184q31 0 31 -31v-565q0 -51 32 -86t76 -35h93q44 0 74 35t30 86v565q0 31 31 31h184q31 0 31 -31zM610 1186h-168q-23 0 -43 37l-178 379
q-18 37 21 36h192q31 1 43 -36l154 -379q16 -37 -21 -37z" />
    <glyph glyph-name="uacute" unicode="&#xfa;" horiz-adv-x="1073" 
d="M930 932v-901q0 -31 -31 -31h-184q-31 0 -31 31v45q-14 -28 -60 -52t-87 -24h-91q-156 0 -234 102t-79 265v565q0 31 31 31h184q31 0 31 -31v-565q0 -51 32 -86t76 -35h93q44 0 74 35t30 86v565q0 31 31 31h184q31 0 31 -31zM838 1638q39 0 20 -36l-178 -379
q-20 -37 -43 -37h-188q-37 0 -21 37l154 379q12 37 43 36h213z" />
    <glyph glyph-name="ucircumflex" unicode="&#xfb;" horiz-adv-x="1073" 
d="M930 932v-901q0 -31 -31 -31h-184q-31 0 -31 31v45q-14 -28 -60 -52t-87 -24h-91q-156 0 -234 102t-79 265v565q0 31 31 31h184q31 0 31 -31v-565q0 -51 32 -86t76 -35h93q44 0 74 35t30 86v565q0 31 31 31h184q31 0 31 -31zM627 1638q29 0 49 -32l239 -367q10 -14 6 -27
q-5 -12 -22 -12h-190q-23 0 -47 39l-125 197l-125 -197q-25 -39 -47 -39h-191q-16 0 -20 12t4 27l239 367q23 33 47 32h183z" />
    <glyph glyph-name="udieresis" unicode="&#xfc;" horiz-adv-x="1073" 
d="M930 932v-901q0 -31 -31 -31h-184q-31 0 -31 31v45q-14 -28 -60 -52t-87 -24h-91q-156 0 -234 102t-79 265v565q0 31 31 31h184q31 0 31 -31v-565q0 -51 32 -86t76 -35h93q44 0 74 35t30 86v565q0 31 31 31h184q31 0 31 -31zM618 1208v248q0 31 31 31h250q31 0 31 -31
v-248q0 -31 -31 -30h-250q-31 -1 -31 30zM141 1208v248q0 31 31 31h250q31 0 31 -31v-248q0 -31 -31 -30h-250q-31 -1 -31 30z" />
    <glyph glyph-name="yacute" unicode="&#xfd;" horiz-adv-x="1114" 
d="M823 963h197q33 0 18 -37l-544 -1301q-14 -35 -45 -35h-197q-35 0 -21 37l195 463l-350 836q-14 37 18 37h199q29 0 43 -35l221 -527l221 527q14 35 45 35zM657 1186h-188q-37 0 -20 37l153 379q12 37 43 36h213q39 0 21 -36l-179 -379q-20 -37 -43 -37z" />
    <glyph glyph-name="thorn" unicode="&#xfe;" horiz-adv-x="1038" 
d="M670 346v250q0 66 -20 94t-79 27h-82q-100 0 -100 -123v-254q0 -54 23 -74t77 -20h82q59 0 79 24t20 76zM489 963h82q158 -1 251 -105t93 -262v-250q0 -152 -98 -249t-246 -97h-82q-47 0 -100 16v-395q0 -31 -31 -31h-184q-31 0 -31 31v1835q0 31 31 31h184q31 0 31 -31
v-510q53 17 100 17z" />
    <glyph glyph-name="ydieresis" unicode="&#xff;" horiz-adv-x="1114" 
d="M823 963h197q33 0 18 -37l-544 -1301q-14 -35 -45 -35h-197q-35 0 -21 37l195 463l-350 836q-14 37 18 37h199q29 0 43 -35l221 -527l221 527q14 35 45 35zM920 1178h-250q-31 0 -31 30v248q0 31 31 31h250q31 0 30 -31v-248q1 -30 -30 -30zM442 1178h-249q-31 0 -31 30
v248q0 31 31 31h249q31 0 31 -31v-248q0 -30 -31 -30z" />
    <glyph glyph-name="Amacron" unicode="&#x100;" horiz-adv-x="1232" 
d="M727 606l-109 385l-112 -385h221zM1112 0h-184q-31 0 -39 33l-92 327h-363l-94 -327q-8 -33 -37 -33h-186q-31 0 -23 33l410 1427q10 33 39 33h147q29 0 39 -33l408 -1427q8 -33 -25 -33zM944 1765h-663q-31 0 -31 31v184q0 31 31 31h663q31 0 31 -31v-184q0 -31 -31 -31
z" />
    <glyph glyph-name="amacron" unicode="&#x101;" horiz-adv-x="976" 
d="M389 244h100q84 0 123 39v102h-223q-27 0 -43 -20q-16 -19 -16 -49t16 -51t43 -21zM856 0h-207q-37 0 -37 49v2q-82 -53 -153 -53h-82q-113 0 -202 91t-89 221t89 213t222 83h215v21q0 45 -28 71t-76 25h-96q-80 0 -142 -47q-29 -20 -49 8l-92 121q-20 25 -4 43
q115 119 319 119h91q127 1 225 -101t98 -256v-561q0 -15 4 -32t-6 -17zM825 1241h-663q-31 0 -31 31v184q0 31 31 31h663q31 0 31 -31v-184q0 -31 -31 -31z" />
    <glyph glyph-name="Abreve" unicode="&#x102;" horiz-adv-x="1232" 
d="M727 606l-109 385l-112 -385h221zM1112 0h-184q-31 0 -39 33l-92 327h-363l-94 -327q-8 -33 -37 -33h-186q-31 0 -23 33l410 1427q10 33 39 33h147q29 0 39 -33l408 -1427q8 -33 -25 -33zM672 1798h-121q-139 0 -219 92t-82 242q0 31 31 31h143q31 0 32 -39q2 -39 30 -80
t83 -41h84q55 0 84 41t30 80t32 39h143q31 0 31 -31q-2 -150 -82 -242t-219 -92z" />
    <glyph glyph-name="abreve" unicode="&#x103;" horiz-adv-x="976" 
d="M389 244h100q84 0 123 39v102h-223q-27 0 -43 -20q-16 -19 -16 -49t16 -51t43 -21zM856 0h-207q-37 0 -37 49v2q-82 -53 -153 -53h-82q-113 0 -202 91t-89 221t89 213t222 83h215v21q0 45 -28 71t-76 25h-96q-80 0 -142 -47q-29 -20 -49 8l-92 121q-20 25 -4 43
q115 119 319 119h91q127 1 225 -101t98 -256v-561q0 -15 4 -32t-6 -17zM553 1274h-121q-139 0 -219 92t-82 242q0 31 31 30h143q31 0 32 -38t30 -80q29 -41 84 -41h84q55 0 83 41t30 80q1 39 32 38h143q31 0 31 -30q-2 -150 -82 -242t-219 -92z" />
    <glyph glyph-name="Aogonek" unicode="&#x104;" horiz-adv-x="1232" 
d="M727 606l-109 385l-112 -385h221zM870 -227h246q20 0 21 -25v-113q0 -20 -21 -20h-272q-104 0 -154 36q-49 36 -49 131t42 124q41 29 115 37t94 12q54 11 58 45h-22q-31 0 -39 33l-92 327h-363l-94 -327q-8 -33 -37 -33h-186q-31 0 -23 33l410 1427q10 33 39 33h147
q29 0 39 -33l408 -1429q2 0 2 -4q25 -109 -11 -153t-118 -52l-172 -19q-29 -2 -29 -16t61 -14z" />
    <glyph glyph-name="aogonek" unicode="&#x105;" horiz-adv-x="976" 
d="M389 244h100q84 0 123 39v102h-223q-27 0 -43 -20q-16 -19 -16 -49t16 -51t43 -21zM524 -213q0 -14 62 -14h245q20 0 21 -25v-113q0 -20 -21 -20h-272q-104 0 -153 36q-50 36 -50 131t42 124t116 37t94 12q53 11 58 45h-17q-37 0 -37 49v2q-82 -53 -153 -53h-82
q-113 0 -202 91t-89 221t89 213t222 83h215v21q0 45 -28 71t-76 25h-96q-80 0 -142 -47q-29 -20 -49 8l-92 121q-20 25 -4 43q115 119 319 119h91q127 1 225 -101t98 -256v-561q0 -15 4 -31t-2 -18q16 -92 -22 -131t-113 -47l-172 -19q-29 -2 -29 -16z" />
    <glyph glyph-name="Cacute" unicode="&#x106;" horiz-adv-x="1159" 
d="M842 481h184q31 0 31 -30q-2 -207 -123 -342.5t-303 -135.5h-94q-190 0 -312.5 137.5t-122.5 354.5v557q0 217 122 352t313 135h94q182 0 302 -133t124 -340q0 -31 -31 -30h-184q-33 0 -33 30q0 227 -178 228h-94q-96 0 -142.5 -58.5t-46.5 -183.5v-557q0 -246 189 -246
h94q182 0 178 232q0 30 33 30zM702 2163h213q39 0 21 -37l-178 -379q-20 -37 -43 -37h-189q-36 0 -20 37l153 379q12 37 43 37z" />
    <glyph glyph-name="cacute" unicode="&#x107;" horiz-adv-x="985" 
d="M864 639h-186q-29 0 -35 29q-14 55 -92 55h-78q-47 0 -81 -35t-34 -90v-233q0 -55 34 -88t81 -33h90q37 0 52.5 12t19.5 14q3 2 15 14t19 22t23 26q20 27 49 2l131 -117q23 -20 7 -43q-70 -84 -141.5 -130t-186.5 -46h-74q-152 0 -258 108.5t-106 258.5v233
q0 150 106.5 260.5t257.5 110.5h74q129 0 233.5 -91.5t108.5 -201.5q0 -37 -29 -37zM795 1638q39 0 20 -36l-178 -379q-20 -37 -43 -37h-188q-37 0 -21 37l154 379q12 37 43 36h213z" />
    <glyph glyph-name="Cdotaccent" unicode="&#x10a;" horiz-adv-x="1159" 
d="M842 481h184q31 0 31 -30q-2 -207 -123 -342.5t-303 -135.5h-94q-190 0 -312.5 137.5t-122.5 354.5v557q0 217 122 352t313 135h94q182 0 302 -133t124 -340q0 -31 -31 -30h-184q-33 0 -33 30q0 227 -178 228h-94q-96 0 -142.5 -58.5t-46.5 -183.5v-557q0 -246 189 -246
h94q182 0 178 232q0 30 33 30zM459 1733v247q0 31 30 31h250q31 0 31 -31v-247q0 -31 -31 -31h-250q-30 0 -30 31z" />
    <glyph glyph-name="cdotaccent" unicode="&#x10b;" horiz-adv-x="985" 
d="M864 639h-186q-29 0 -35 29q-14 55 -92 55h-78q-47 0 -81 -35t-34 -90v-233q0 -55 34 -88t81 -33h90q37 0 52.5 12t19.5 14q3 2 15 14t19 22t23 26q20 27 49 2l131 -117q23 -20 7 -43q-70 -84 -141.5 -130t-186.5 -46h-74q-152 0 -258 108.5t-106 258.5v233
q0 150 106.5 260.5t257.5 110.5h74q129 0 233.5 -91.5t108.5 -201.5q0 -37 -29 -37zM338 1208v248q0 31 31 31h249q31 0 31 -31v-248q0 -31 -31 -30h-249q-31 -1 -31 30z" />
    <glyph glyph-name="Ccaron" unicode="&#x10c;" horiz-adv-x="1159" 
d="M842 481h184q31 0 31 -30q-2 -207 -123 -342.5t-303 -135.5h-94q-190 0 -312.5 137.5t-122.5 354.5v557q0 217 122 352t313 135h94q182 0 302 -133t124 -340q0 -31 -31 -30h-184q-33 0 -33 30q0 227 -178 228h-94q-96 0 -142.5 -58.5t-46.5 -183.5v-557q0 -246 189 -246
h94q182 0 178 232q0 30 33 30zM252 2163h190q23 0 47 -39l125 -197l125 197q25 39 47 39h191q16 0 21.5 -12.5t-5.5 -26.5l-239 -367q-20 -33 -49 -33h-183q-24 0 -47 33l-239 367q-8 14 -4 26.5t20 12.5z" />
    <glyph glyph-name="ccaron" unicode="&#x10d;" horiz-adv-x="985" 
d="M864 639h-186q-29 0 -35 29q-14 55 -92 55h-78q-47 0 -81 -35t-34 -90v-233q0 -55 34 -88t81 -33h90q37 0 52.5 12t19.5 14q3 2 15 14t19 22t23 26q20 27 49 2l131 -117q23 -20 7 -43q-70 -84 -141.5 -130t-186.5 -46h-74q-152 0 -258 108.5t-106 258.5v233
q0 150 106.5 260.5t257.5 110.5h74q129 0 233.5 -91.5t108.5 -201.5q0 -37 -29 -37zM131 1638h191q23 0 47 -39l125 -196l124 196q25 39 48 39h190q16 0 21.5 -12t-5.5 -27l-239 -366q-20 -33 -49 -33h-183q-24 0 -47 33l-239 366q-8 14 -4 26.5t20 12.5z" />
    <glyph glyph-name="Dcaron" unicode="&#x10e;" horiz-adv-x="1191" 
d="M834 481v525q0 129 -52 182t-149 53h-254v-995h254q97 0 149 53t52 182zM164 1487h489q168 1 297 -143t129 -338v-525q0 -195 -129 -338t-297 -143h-489q-31 0 -31 31v1425q0 31 31 31zM412 2163q23 0 47 -39l125 -197l125 197q25 39 47 39h190q16 -1 22 -13t-5 -26
l-240 -367q-20 -33 -49 -33h-182q-25 0 -48 33l-239 367q-8 14 -4 26t20 13h191z" />
    <glyph glyph-name="dcaron" unicode="&#x10f;" horiz-adv-x="1468" 
d="M461 246h71q88 0 101 82v284q-12 104 -101 105h-71q-49 0 -76 -34t-27 -85v-254q1 -98 103 -98zM1044 1487h250q31 0 31 -31v-287q0 -219 -129 -366q-18 -20 -41 0l-84 78q-27 25 -2 49t41 68q16 42 18 72t2 87l17 21h-103q-31 0 -30 30v248q-1 31 30 31zM664 1487h184
q31 0 31 -31v-1425q0 -31 -31 -31h-184q-23 0 -29 18q-49 -18 -103 -18h-75q-133 0 -239 104q-105 104 -105 242v250q0 141 101 254t243 113h75q47 0 101 -17v510q0 31 31 31z" />
    <glyph glyph-name="Dcroat" unicode="&#x110;" horiz-adv-x="1323" 
d="M965 481v525q-1 129 -53 182t-148 53h-254v-375h195q31 0 30 -30v-185q0 -31 -30 -30h-195v-375h254q96 0 148 53t53 182zM295 1487h489q168 1 297 -143t129 -338v-525q0 -195 -129 -338t-297 -143h-489q-31 0 -31 31v590h-100q-31 0 -31 30v185q0 31 31 30h100v590
q0 31 31 31z" />
    <glyph glyph-name="dcroat" unicode="&#x111;" horiz-adv-x="1021" 
d="M461 246h71q88 0 101 82v284q-12 104 -101 105h-71q-49 0 -76 -34t-27 -85v-254q1 -98 103 -98zM879 1319h98q31 0 31 -31v-184q0 -31 -31 -31h-98v-1042q0 -31 -31 -31h-184q-23 0 -29 18q-49 -18 -103 -18h-75q-133 0 -239 104q-105 104 -105 242v250q0 141 101 254
t243 113h75q47 0 101 -17v127h-320q-31 0 -30 31v184q0 31 30 31h320v137q0 31 31 31h184q31 0 31 -31v-137z" />
    <glyph glyph-name="Emacron" unicode="&#x112;" horiz-adv-x="1138" 
d="M379 872h473q31 0 31 -30v-185q0 -31 -31 -30h-473v-381h606q31 0 31 -31v-184q0 -31 -31 -31h-821q-31 0 -31 31v1425q0 31 31 31h821q31 0 31 -31v-184q0 -31 -31 -31h-606v-369zM946 1765h-663q-31 0 -31 31v184q0 31 31 31h663q31 0 31 -31v-184q0 -31 -31 -31z" />
    <glyph glyph-name="emacron" unicode="&#x113;" horiz-adv-x="1015" 
d="M668 602v21q0 41 -34 70.5t-73 29.5h-78q-43 0 -78.5 -30.5t-35.5 -71.5v-19h299zM487 969h78q133 0 240.5 -107.5t107.5 -261.5v-133q0 -61 -61 -61h-483v-44q0 -53 33.5 -85.5t82.5 -32.5h88q38 0 53 12t19 14q3 2 15 14t19 22t23 26q20 27 50 2l131 -117q23 -20 6 -43
q-70 -84 -140.5 -130t-183.5 -46h-78q-152 0 -258 108.5t-106 258.5v233q0 150 106 260.5t258 110.5zM840 1241h-664q-31 0 -31 31v184q0 31 31 31h664q31 0 30 -31v-184q1 -31 -30 -31z" />
    <glyph glyph-name="Edotaccent" unicode="&#x116;" horiz-adv-x="1138" 
d="M379 872h473q31 0 31 -30v-185q0 -31 -31 -30h-473v-381h606q31 0 31 -31v-184q0 -31 -31 -31h-821q-31 0 -31 31v1425q0 31 31 31h821q31 0 31 -31v-184q0 -31 -31 -31h-606v-369zM459 1733v247q0 31 30 31h250q31 0 31 -31v-247q0 -31 -31 -31h-250q-30 0 -30 31z" />
    <glyph glyph-name="edotaccent" unicode="&#x117;" horiz-adv-x="1015" 
d="M668 602v21q0 41 -34 70.5t-73 29.5h-78q-43 0 -78.5 -30.5t-35.5 -71.5v-19h299zM487 969h78q133 0 240.5 -107.5t107.5 -261.5v-133q0 -61 -61 -61h-483v-44q0 -53 33.5 -85.5t82.5 -32.5h88q38 0 53 12t19 14q3 2 15 14t19 22t23 26q20 27 50 2l131 -117q23 -20 6 -43
q-70 -84 -140.5 -130t-183.5 -46h-78q-152 0 -258 108.5t-106 258.5v233q0 150 106 260.5t258 110.5zM352 1208v248q0 31 31 31h250q31 0 31 -31v-248q0 -31 -31 -30h-250q-31 -1 -31 30z" />
    <glyph glyph-name="Eogonek" unicode="&#x118;" horiz-adv-x="1138" 
d="M752 -227h245q20 0 21 -25v-113q0 -20 -21 -20h-272q-104 0 -153.5 36t-49.5 131t42 123.5t116 37t94 12.5q53 10 57 45h-667q-31 0 -31 31v1425q0 31 31 31h821q31 0 31 -31v-184q0 -31 -31 -31h-606v-369h473q31 0 31 -30v-185q0 -31 -31 -30h-473v-381h606
q31 0 31 -31v-180q4 -4 4 -8q25 -109 -11 -153t-118 -52l-172 -19q-29 -2 -29 -18q1 -12 62 -12z" />
    <glyph glyph-name="eogonek" unicode="&#x119;" horiz-adv-x="1015" 
d="M668 602v21q0 41 -34 70.5t-73 29.5h-78q-43 0 -78.5 -30.5t-35.5 -71.5v-19h299zM487 969h78q133 0 240.5 -107.5t107.5 -261.5v-133q0 -61 -61 -61h-483v-44q0 -53 33.5 -85.5t82.5 -32.5h88q38 0 53 12t19 14q3 2 15 14t19 22t23 26q20 27 50 2l131 -117q23 -20 6 -43
q-88 -109 -166 -143l2 -4q25 -109 -11 -153t-118 -52l-172 -19q-29 -2 -29 -16t62 -14h245q20 0 21 -25v-113q0 -20 -21 -20h-272q-104 0 -153.5 36t-49.5 131t42 123.5t125 39t110.5 19.5t32.5 34h-50q-152 0 -258 108.5t-106 258.5v233q0 150 106 260.5t258 110.5z" />
    <glyph glyph-name="Ecaron" unicode="&#x11a;" horiz-adv-x="1138" 
d="M379 872h473q31 0 31 -30v-185q0 -31 -31 -30h-473v-381h606q31 0 31 -31v-184q0 -31 -31 -31h-821q-31 0 -31 31v1425q0 31 31 31h821q31 0 31 -31v-184q0 -31 -31 -31h-606v-369zM252 2163h190q23 0 47 -39l125 -197l125 197q25 39 47 39h191q16 0 21.5 -12.5
t-5.5 -26.5l-239 -367q-20 -33 -49 -33h-183q-24 0 -47 33l-239 367q-8 14 -4 26.5t20 12.5z" />
    <glyph glyph-name="ecaron" unicode="&#x11b;" horiz-adv-x="1015" 
d="M668 602v21q0 41 -34 70.5t-73 29.5h-78q-43 0 -78.5 -30.5t-35.5 -71.5v-19h299zM487 969h78q133 0 240.5 -107.5t107.5 -261.5v-133q0 -61 -61 -61h-483v-44q0 -53 33.5 -85.5t82.5 -32.5h88q38 0 53 12t19 14q3 2 15 14t19 22t23 26q20 27 50 2l131 -117q23 -20 6 -43
q-70 -84 -140.5 -130t-183.5 -46h-78q-152 0 -258 108.5t-106 258.5v233q0 150 106 260.5t258 110.5zM145 1638h191q23 0 47 -39l125 -196l125 196q25 39 47 39h190q16 0 21.5 -12t-4.5 -27l-240 -366q-20 -33 -49 -33h-182q-24 0 -47 33l-240 366q-8 14 -4 26.5t20 12.5z
" />
    <glyph glyph-name="Gbreve" unicode="&#x11e;" horiz-adv-x="1169" 
d="M614 770h412q31 0 31 -31v-288q0 -207 -121 -342.5t-305 -135.5h-94q-190 0 -312.5 137.5t-122.5 354.5v557q0 217 122 352t313 135h94q182 0 302 -133t124 -340q0 -31 -31 -30h-184q-33 0 -33 30q0 227 -178 228h-94q-96 0 -142.5 -58.5t-46.5 -183.5v-557
q0 -246 189 -246h94q178 0 178 232v73h-195q-31 0 -30 31v184q-1 31 30 31zM801 2163h143q31 0 31 -31q-2 -150 -82 -242t-219 -92h-121q-139 0 -219 92t-82 242q0 31 31 31h143q31 0 32 -39t29.5 -80t83.5 -41h84q55 0 84 41t30 80t32 39z" />
    <glyph glyph-name="gbreve" unicode="&#x11f;" horiz-adv-x="1001" 
d="M463 244h90q41 0 76 30v394q0 55 -97 55h-69q-47 0 -81 -35t-34 -90v-233q0 -55 34 -88t81 -33zM729 963h119q31 0 31 -31v-1034q1 -115 -101 -211t-235 -97h-51q-115 0 -206 54t-145 149q-14 27 25 51l117 74q37 23 59 -4q63 -78 127 -78h74q86 0 86 78v92
q-53 -8 -90 -8h-74q-152 0 -257 108t-106 259v233q0 150 106 260t257 111h67q63 0 132 -47h26q25 41 39 41zM688 1638h143q31 0 31 -30q-2 -150 -82 -242t-219 -92h-121q-139 0 -219 92t-82 242q0 31 31 30h143q31 0 32 -38t30 -80q29 -41 84 -41h84q55 0 84 41q29 42 29 80
t32 38z" />
    <glyph glyph-name="Gdotaccent" unicode="&#x120;" horiz-adv-x="1169" 
d="M614 770h412q31 0 31 -31v-288q0 -207 -121 -342.5t-305 -135.5h-94q-190 0 -312.5 137.5t-122.5 354.5v557q0 217 122 352t313 135h94q182 0 302 -133t124 -340q0 -31 -31 -30h-184q-33 0 -33 30q0 227 -178 228h-94q-96 0 -142.5 -58.5t-46.5 -183.5v-557
q0 -246 189 -246h94q178 0 178 232v73h-195q-31 0 -30 31v184q-1 31 30 31zM459 1733v247q0 31 30 31h250q31 0 31 -31v-247q0 -31 -31 -31h-250q-30 0 -30 31z" />
    <glyph glyph-name="gdotaccent" unicode="&#x121;" horiz-adv-x="1001" 
d="M463 244h90q41 0 76 30v394q0 55 -97 55h-69q-47 0 -81 -35t-34 -90v-233q0 -55 34 -88t81 -33zM729 963h119q31 0 31 -31v-1034q1 -115 -101 -211t-235 -97h-51q-115 0 -206 54t-145 149q-14 27 25 51l117 74q37 23 59 -4q63 -78 127 -78h74q86 0 86 78v92
q-53 -8 -90 -8h-74q-152 0 -257 108t-106 259v233q0 150 106 260t257 111h67q63 0 132 -47h26q25 41 39 41zM346 1208v248q0 31 31 31h250q31 0 30 -31v-248q0 -31 -30 -30h-250q-31 -1 -31 30z" />
    <glyph glyph-name="Gcommaaccent" unicode="&#x122;" horiz-adv-x="1169" 
d="M489 -410h250q31 0 31 -30v-287q0 -219 -129 -367q-18 -20 -41 0l-84 78q-27 26 -2 50t41 67t18 72.5t2 87.5l17 20h-103q-31 0 -30 31v248q-1 30 30 30zM614 770h412q31 0 31 -31v-288q0 -207 -121 -342.5t-305 -135.5h-94q-190 0 -312.5 137.5t-122.5 354.5v557
q0 217 122 352t313 135h94q182 0 302 -133t124 -340q0 -31 -31 -30h-184q-33 0 -33 30q0 227 -178 228h-94q-96 0 -142.5 -58.5t-46.5 -183.5v-557q0 -246 189 -246h94q178 0 178 232v73h-195q-31 0 -30 31v184q-1 31 30 31z" />
    <glyph glyph-name="gcommaaccent" unicode="&#x123;" horiz-adv-x="1001" 
d="M463 244h90q41 0 76 30v394q0 55 -97 55h-69q-47 0 -81 -35t-34 -90v-233q0 -55 34 -88t81 -33zM729 963h119q31 0 31 -31v-1034q1 -115 -101 -211t-235 -97h-51q-115 0 -206 54t-145 149q-14 27 25 51l117 74q37 23 59 -4q63 -78 127 -78h74q86 0 86 78v92
q-53 -8 -90 -8h-74q-152 0 -257 108t-106 259v233q0 150 106 260t257 111h67q63 0 132 -47h26q25 41 39 41zM616 1176h-249q-31 0 -31 30v287q0 219 129 367q18 20 41 0l84 -78q27 -26 2 -50t-41 -67q-17 -43 -19 -73t-2 -87l-16 -20h102q31 0 31 -31v-248q0 -30 -31 -30z
" />
    <glyph glyph-name="Hbar" unicode="&#x126;" horiz-adv-x="1210" 
d="M379 831h452v209h-452v-209zM862 1487h185q31 0 30 -31v-1425q0 -31 -30 -31h-185q-31 0 -31 31v555h-452v-555q0 -31 -31 -31h-184q-31 0 -31 31v1425q0 31 31 31h184q31 0 31 -31v-172h452v172q0 31 31 31z" />
    <glyph glyph-name="hbar" unicode="&#x127;" horiz-adv-x="1196" 
d="M653 963h76q141 0 243 -113t101 -254v-565q0 -31 -31 -31h-184q-31 0 -31 31v569q0 55 -26 86q-27 31 -70 31h-82q-43 0 -69 -31t-27 -86v-569q0 -31 -31 -31h-184q-31 0 -31 31v1050h-123q-31 0 -30 31v182q0 31 30 31h123v131q0 31 31 31h184q31 0 31 -31v-131h139
q31 0 31 -31v-182q0 -31 -31 -31h-139v-135q53 17 100 17z" />
    <glyph glyph-name="Imacron" unicode="&#x12a;" horiz-adv-x="577" 
d="M164 31v1425q0 31 31 31h188q31 0 31 -31v-1425q0 -31 -31 -31h-188q-31 0 -31 31zM621 1765h-664q-31 0 -31 31v184q0 31 31 31h664q31 0 30 -31v-184q1 -31 -30 -31z" />
    <glyph glyph-name="imacron" unicode="&#x12b;" horiz-adv-x="573" 
d="M164 31v903q0 31 31 31h184q31 0 31 -31v-903q0 -31 -31 -31h-184q-31 0 -31 31zM618 1241h-663q-31 0 -31 31v184q0 31 31 31h663q31 0 31 -31v-184q0 -31 -31 -31z" />
    <glyph glyph-name="Iogonek" unicode="&#x12e;" horiz-adv-x="577" 
d="M195 1487h188q31 0 31 -31v-1425q0 -27 -23 -31q17 -92 -21 -131t-114 -47l-172 -19q-29 -2 -29 -16t62 -14h245q20 0 21 -25v-113q0 -20 -21 -20h-272q-104 0 -153 36t-49 131t41 124q42 29 116 37t94 12q53 11 58 45h-2q-31 0 -31 31v1425q0 31 31 31z" />
    <glyph glyph-name="iogonek" unicode="&#x12f;" horiz-adv-x="573" 
d="M195 965h184q31 0 31 -31v-903q0 -27 -25 -31q17 -92 -21 -131t-114 -47l-172 -19q-29 -2 -29 -16t62 -14h245q20 0 21 -25v-113q0 -20 -21 -20h-272q-104 0 -154 36q-49 36 -49 131t42 124t116 37t94 12q53 11 57 45q-27 2 -26 31v903q0 31 31 31zM162 1487h250
q31 0 30 -31v-248q0 -31 -30 -30h-250q-31 0 -31 30v248q0 31 31 31z" />
    <glyph glyph-name="Idotaccent" unicode="&#x130;" horiz-adv-x="577" 
d="M164 31v1425q0 31 31 31h188q31 0 31 -31v-1425q0 -31 -31 -31h-188q-31 0 -31 31zM133 1733v247q0 31 31 31h250q31 0 30 -31v-247q0 -31 -30 -31h-250q-31 0 -31 31z" />
    <glyph glyph-name="dotlessi" unicode="&#x131;" horiz-adv-x="573" 
d="M164 31v903q0 31 31 31h184q31 0 31 -31v-903q0 -31 -31 -31h-184q-31 0 -31 31z" />
    <glyph glyph-name="IJ" unicode="&#x132;" horiz-adv-x="1732" 
d="M1090 231h53q106 0 164 66q57 66 57 190v969q0 31 31 31h184q31 0 31 -31v-989q0 -223 -133 -352t-314 -129h-73q-129 0 -254 76t-172 198q-11 25 16 41l139 92q16 12 37 -18q50 -78 104 -111t130 -33zM164 31v1425q0 31 31 31h188q31 0 31 -31v-1425q0 -31 -31 -31h-188
q-31 0 -31 31z" />
    <glyph glyph-name="ij" unicode="&#x133;" horiz-adv-x="1140" 
d="M731 -106v1040q0 31 31 31h184q31 0 31 -31v-1057q0 -133 -81 -238t-210 -141q-27 -8 -39 21l-76 170q-12 29 19 39q57 20 99 64t42 102zM164 31v903q0 31 31 31h184q31 0 31 -31v-903q0 -31 -31 -31h-184q-31 0 -31 31zM733 1219v237q0 31 31 31h192q31 0 31 -31v-237
q0 -31 -31 -31h-192q-31 0 -31 31zM160 1219v237q0 31 30 31h193q31 0 31 -31v-237q0 -31 -31 -31h-193q-30 0 -30 31z" />
    <glyph glyph-name="Kcommaaccent" unicode="&#x136;" horiz-adv-x="1234" 
d="M465 -410h250q31 0 30 -30v-287q0 -219 -129 -367q-18 -20 -41 0l-83 78q-27 25 -9 43q31 31 47.5 74t18.5 72.5t2 87.5l16 20h-102q-31 0 -31 31v248q0 30 31 30zM1133 0h-222q-35 0 -55 29l-424 614l-63 -76v-536q0 -31 -31 -31h-184q-31 0 -31 31v1425q0 31 31 31h184
q31 0 31 -31v-592l417 594q20 29 39 29h236q22 0 19 -19.5t-11 -31.5l-446 -635l522 -752q16 -21 8 -35t-20 -14z" />
    <glyph glyph-name="kcommaaccent" unicode="&#x137;" horiz-adv-x="1081" 
d="M371 -410h250q31 0 30 -30v-287q0 -219 -129 -367q-18 -20 -41 0l-84 78q-27 26 -2 50t41.5 67t18.5 72.5t2 87.5l16 20h-102q-31 0 -31 31v248q0 30 31 30zM174 1487h184q31 0 31 -31v-739l207 221q20 25 45 25h217q18 0 22.5 -20.5t-14.5 -45.5l-321 -354l401 -496
q14 -16 11 -31.5t-23 -15.5h-186q-29 0 -56 29l-303 346v-344q0 -31 -31 -31h-184q-31 0 -31 31v1425q0 31 31 31z" />
    <glyph glyph-name="Lacute" unicode="&#x139;" horiz-adv-x="1118" 
d="M369 246h606q31 0 31 -31v-184q0 -31 -31 -31h-821q-31 0 -31 31v1425q0 31 31 31h184q31 0 31 -31v-1210zM332 2163h213q39 0 20 -37l-178 -379q-20 -37 -43 -37h-188q-37 0 -21 37l154 379q12 37 43 37z" />
    <glyph glyph-name="lacute" unicode="&#x13a;" horiz-adv-x="573" 
d="M164 31v1425q0 31 31 31h184q31 0 31 -31v-1425q0 -31 -31 -31h-184q-31 0 -31 31zM375 2163h213q39 0 20 -37l-178 -379q-20 -37 -43 -37h-188q-37 0 -21 37l154 379q12 37 43 37z" />
    <glyph glyph-name="Lcommaaccent" unicode="&#x13b;" horiz-adv-x="1118" 
d="M446 -410h250q31 0 31 -30v-287q0 -219 -129 -367q-18 -20 -41 0l-84 78q-27 26 -2 50t41 67t18 72.5t2 87.5l17 20h-103q-31 0 -30 31v248q-1 30 30 30zM369 246h606q31 0 31 -31v-184q0 -31 -31 -31h-821q-31 0 -31 31v1425q0 31 31 31h184q31 0 31 -31v-1210z" />
    <glyph glyph-name="lcommaaccent" unicode="&#x13c;" horiz-adv-x="573" 
d="M162 -410h250q31 0 30 -30v-287q0 -219 -129 -367q-18 -20 -41 0l-84 78q-27 26 -2 50t41.5 67t18.5 72.5t2 87.5l16 20h-102q-31 0 -31 31v248q0 30 31 30zM164 31v1425q0 31 31 31h184q31 0 31 -31v-1425q0 -31 -31 -31h-184q-31 0 -31 31z" />
    <glyph glyph-name="Lcaron" unicode="&#x13d;" horiz-adv-x="1118" 
d="M649 1487h250q31 0 31 -31v-287q0 -219 -129 -366q-18 -20 -41 0l-84 78q-27 25 -2 49t41 67t18 73t2 87l17 21h-103q-31 0 -31 30v248q0 31 31 31zM369 246h606q31 0 31 -31v-184q0 -31 -31 -31h-821q-31 0 -31 31v1425q0 31 31 31h184q31 0 31 -31v-1210z" />
    <glyph glyph-name="lcaron" unicode="&#x13e;" horiz-adv-x="1054" 
d="M610 1487h250q31 0 31 -31v-287q0 -219 -129 -366q-18 -20 -41 0l-84 78q-27 25 -2 49t41 67t18 73t2 87l17 21h-103q-31 0 -30 30v248q-1 31 30 31zM164 31v1425q0 31 31 31h184q31 0 31 -31v-1425q0 -31 -31 -31h-184q-31 0 -31 31z" />
    <glyph glyph-name="Ldot" unicode="&#x13f;" horiz-adv-x="1118" 
d="M573 684v248q0 31 31 31h250q31 0 31 -31v-248q0 -31 -31 -31h-250q-31 0 -31 31zM369 246h606q31 0 31 -31v-184q0 -31 -31 -31h-821q-31 0 -31 31v1425q0 31 31 31h184q31 0 31 -31v-1210z" />
    <glyph glyph-name="ldot" unicode="&#x140;" horiz-adv-x="1089" 
d="M676 684v248q0 31 31 31h249q31 0 31 -31v-248q0 -31 -31 -31h-249q-31 0 -31 31zM164 31v1425q0 31 31 31h184q31 0 31 -31v-1425q0 -31 -31 -31h-184q-31 0 -31 31z" />
    <glyph glyph-name="Lslash" unicode="&#x141;" horiz-adv-x="1251" 
d="M512 246h606q31 0 31 -31v-184q0 -31 -31 -31h-821q-31 0 -31 31v231h-166q-18 0 -25 10.5t5 26.5l186 242v915q0 31 31 31h184q31 0 31 -31v-596l51 68q27 35 47 35h209q18 0 24.5 -10.5t-5.5 -26.5l-326 -426v-254z" />
    <glyph glyph-name="lslash" unicode="&#x142;" horiz-adv-x="874" 
d="M559 963h125q18 -1 24 -11t-6 -26l-143 -187v-708q0 -31 -31 -31h-184q-31 0 -31 31v526h-123q-18 0 -24 10t4 27l143 186v676q0 31 31 31h184q31 0 31 -31v-493z" />
    <glyph glyph-name="Nacute" unicode="&#x143;" horiz-adv-x="1302" 
d="M944 1487h184q31 0 31 -31v-1425q0 -31 -31 -31h-204q-27 0 -37 23l-508 952v-944q0 -31 -31 -31h-184q-31 0 -31 31v1425q0 31 31 31h205q25 0 37 -23l507 -952v944q0 31 31 31zM735 2163h213q39 0 21 -37l-178 -379q-20 -37 -43 -37h-189q-36 0 -20 37l153 379
q12 37 43 37z" />
    <glyph glyph-name="nacute" unicode="&#x144;" horiz-adv-x="1056" 
d="M530 963h91q156 0 234.5 -102.5t78.5 -264.5v-565q0 -31 -31 -31h-184q-31 0 -31 31v565q0 51 -31.5 86t-76.5 35h-93q-45 0 -74.5 -35t-29.5 -86v-565q0 -31 -31 -31h-184q-31 0 -31 31v901q0 31 31 31h184q31 0 31 -31v-45q14 27 60 51.5t87 24.5zM829 1638
q39 0 21 -36l-178 -379q-20 -37 -43 -37h-189q-36 0 -20 37l153 379q12 37 43 36h213z" />
    <glyph glyph-name="Ncommaaccent" unicode="&#x145;" horiz-adv-x="1302" 
d="M522 -410h250q31 0 31 -30v-287q0 -219 -129 -367q-18 -20 -41 0l-84 78q-27 26 -2 50t41 67t18 72.5t2 87.5l17 20h-103q-31 0 -30 31v248q-1 30 30 30zM944 1487h184q31 0 31 -31v-1425q0 -31 -31 -31h-204q-27 0 -37 23l-508 952v-944q0 -31 -31 -31h-184
q-31 0 -31 31v1425q0 31 31 31h205q25 0 37 -23l507 -952v944q0 31 31 31z" />
    <glyph glyph-name="ncommaaccent" unicode="&#x146;" horiz-adv-x="1056" 
d="M403 -410h250q31 0 31 -30v-287q0 -219 -129 -367q-18 -20 -41 0l-84 78q-27 26 -2 50t41 67t18 72.5t2 87.5l17 20h-103q-31 0 -30 31v248q-1 30 30 30zM530 963h91q156 0 234.5 -102.5t78.5 -264.5v-565q0 -31 -31 -31h-184q-31 0 -31 31v565q0 51 -31.5 86t-76.5 35
h-93q-45 0 -74.5 -35t-29.5 -86v-565q0 -31 -31 -31h-184q-31 0 -31 31v901q0 31 31 31h184q31 0 31 -31v-45q14 27 60 51.5t87 24.5z" />
    <glyph glyph-name="Ncaron" unicode="&#x147;" horiz-adv-x="1302" 
d="M944 1487h184q31 0 31 -31v-1425q0 -31 -31 -31h-204q-27 0 -37 23l-508 952v-944q0 -31 -31 -31h-184q-31 0 -31 31v1425q0 31 31 31h205q25 0 37 -23l507 -952v944q0 31 31 31zM285 2163h190q23 0 47 -39l125 -197l125 197q25 39 47 39h191q16 0 21 -12.5t-5 -26.5
l-240 -367q-20 -33 -49 -33h-182q-24 0 -47 33l-240 367q-8 14 -4 26.5t21 12.5z" />
    <glyph glyph-name="ncaron" unicode="&#x148;" horiz-adv-x="1056" 
d="M530 963h91q156 0 234.5 -102.5t78.5 -264.5v-565q0 -31 -31 -31h-184q-31 0 -31 31v565q0 51 -31.5 86t-76.5 35h-93q-45 0 -74.5 -35t-29.5 -86v-565q0 -31 -31 -31h-184q-31 0 -31 31v901q0 31 31 31h184q31 0 31 -31v-45q14 27 60 51.5t87 24.5zM166 1638h190
q23 0 47 -39l125 -196l125 196q25 39 47 39h191q16 0 21.5 -12t-5.5 -27l-239 -366q-20 -33 -50 -33h-182q-24 0 -47 33l-239 366q-8 14 -4 26.5t20 12.5z" />
    <glyph glyph-name="Eng" unicode="&#x14a;" horiz-adv-x="1316" 
d="M958 1487h185q31 0 31 -31v-1522q0 -223 -134 -352t-313 -129h-74q-129 0 -254 77t-172 198q-10 25 17 41l139 92q16 12 37 -19q51 -78 104 -110t129 -33h54q106 -1 163 65t58 191v45l-549 975v-944q0 -31 -31 -31h-184q-31 0 -31 31v1425q0 31 31 31h205q25 0 37 -23
l522 -966v958q-1 31 30 31z" />
    <glyph glyph-name="eng" unicode="&#x14b;" horiz-adv-x="1087" 
d="M530 963h91q156 0 234.5 -102.5t78.5 -264.5v-719q0 -133 -81 -238.5t-210 -140.5q-27 -8 -39 21l-76 170q-12 29 19 39q57 20 99 64t42 102v702q0 51 -31.5 86t-76.5 35h-93q-45 0 -74.5 -35t-29.5 -86v-565q0 -31 -31 -31h-184q-31 0 -31 31v901q0 31 31 31h184
q31 0 31 -31v-45q14 27 60 51.5t87 24.5z" />
    <glyph glyph-name="Omacron" unicode="&#x14c;" horiz-adv-x="1212" 
d="M553 219h106q86 0 136 66q49 66 49 161v590q0 96 -49 162t-136 66h-106q-86 0 -135 -66t-49 -162v-590q0 -96 49 -162t135 -65zM553 1509h106q175 0 303 -143t128 -346v-557q0 -203 -127 -346t-304 -144h-106q-176 -1 -303 143t-127 347v557q0 203 127 346t303 143z
M938 1765h-664q-31 0 -30 31v184q0 31 30 31h664q31 0 31 -31v-184q0 -31 -31 -31z" />
    <glyph glyph-name="omacron" unicode="&#x14d;" horiz-adv-x="1038" 
d="M680 365v233q0 51 -30 88t-87 37h-88q-57 0 -87 -37t-30 -88v-233q0 -51 30 -86t87 -35h88q57 0 87 35t30 86zM479 969h80q154 0 260 -109t107 -262v-233q0 -155 -106 -261t-261 -106h-80q-154 0 -260 106t-106 261v233q0 154 106 262t260 109zM852 1241h-664
q-31 0 -30 31v184q0 31 30 31h664q31 0 31 -31v-184q0 -31 -31 -31z" />
    <glyph glyph-name="Ohungarumlaut" unicode="&#x150;" horiz-adv-x="1212" 
d="M553 219h106q86 0 136 66q49 66 49 161v590q0 96 -49 162t-136 66h-106q-86 0 -135 -66t-49 -162v-590q0 -96 49 -162t135 -65zM553 1509h106q175 0 303 -143t128 -346v-557q0 -203 -127 -346t-304 -144h-106q-176 -1 -303 143t-127 347v557q0 203 127 346t303 143z
M877 2163h213q39 0 20 -37l-178 -379q-20 -37 -43 -37h-189q-36 0 -20 37l154 379q12 37 43 37zM508 2163h213q39 0 20 -37l-178 -379q-20 -37 -43 -37h-188q-37 0 -21 37l154 379q12 37 43 37z" />
    <glyph glyph-name="ohungarumlaut" unicode="&#x151;" horiz-adv-x="1038" 
d="M680 365v233q0 51 -30 88t-87 37h-88q-57 0 -87 -37t-30 -88v-233q0 -51 30 -86t87 -35h88q57 0 87 35t30 86zM479 969h80q154 0 260 -109t107 -262v-233q0 -155 -106 -261t-261 -106h-80q-154 0 -260 106t-106 261v233q0 154 106 262t260 109zM1004 1638q39 0 20 -36
l-178 -379q-20 -37 -43 -37h-189q-36 0 -20 37l154 379q12 37 43 36h213zM635 1638q39 0 20 -36l-178 -379q-20 -37 -43 -37h-188q-37 0 -21 37l154 379q12 37 43 36h213z" />
    <glyph glyph-name="OE" unicode="&#x152;" horiz-adv-x="1855" 
d="M844 446v590q0 96 -49.5 162t-135.5 66h-106q-86 0 -135 -65.5t-49 -162.5v-590q0 -96 49 -161.5t135 -65.5h106q86 0 135.5 65.5t49.5 161.5zM1096 1241v-369h473q31 0 30 -30v-185q0 -31 -30 -30h-473v-381h606q31 0 31 -31v-184q0 -31 -31 -31h-821q-29 0 -31 25
q-90 -51 -191 -52h-106q-176 0 -303 143.5t-127 346.5v557q0 203 127 346t303 143h106q100 0 191 -51q0 29 31 29h821q31 0 31 -31v-184q0 -31 -31 -31h-606z" />
    <glyph glyph-name="oe" unicode="&#x153;" horiz-adv-x="1581" 
d="M1233 602v21q0 41 -34 70.5t-73 29.5h-77q-43 0 -79 -30.5t-36 -71.5v-19h299zM680 365v233q0 51 -29.5 88t-87.5 37h-88q-57 0 -87 -37t-30 -88v-233q0 -51 30 -86t87 -35h88q57 0 87 35t30 86zM1053 969h77q133 0 241 -107.5t108 -261.5v-133q0 -61 -62 -61h-483v-44
q0 -53 33.5 -85.5t83.5 -32.5h88q37 0 52 12t19 14t15.5 13.5t17.5 20.5t25 28q20 27 49 2l131 -117q23 -20 6 -43q-70 -84 -140.5 -130t-183.5 -46h-77q-139 0 -246 96q-102 -96 -248 -96h-80q-154 0 -260 106.5t-106 260.5v233q0 154 106.5 262.5t259.5 108.5h80
q145 0 248 -99q105 99 246 99z" />
    <glyph glyph-name="Racute" unicode="&#x154;" horiz-adv-x="1161" 
d="M379 872h252q86 0 130 38t44 148.5t-44 146.5t-130 36h-252v-369zM1059 397v-366q0 -31 -31 -31h-184q-31 0 -31 31v299q1 154 -39 222q-18 30 -54 52.5t-87 22.5h-254v-596q0 -31 -31 -31h-184q-31 0 -31 31v1425q0 31 31 31h487q182 0 291 -116t109 -312.5t-109 -315.5
q117 -137 117 -346zM682 1710h-188q-37 0 -21 37l154 379q12 37 43 37h213q39 0 20 -37l-178 -379q-20 -37 -43 -37z" />
    <glyph glyph-name="racute" unicode="&#x155;" horiz-adv-x="872" 
d="M532 717h-51q-47 0 -75.5 -34t-28.5 -89v-563q0 -31 -31 -31h-184q-31 0 -31 31v901q0 31 31 31h184q31 0 31 -31v-45q14 27 61 51.5t88 24.5h86q115 0 195 -70q25 -18 0 -43l-133 -141q-16 -16 -47 -4t-95 12zM793 1638q39 0 20 -36l-178 -379q-20 -37 -43 -37h-189
q-36 0 -20 37l154 379q12 37 43 36h213z" />
    <glyph glyph-name="Rcommaaccent" unicode="&#x156;" horiz-adv-x="1161" 
d="M457 -410h250q31 0 30 -30v-287q0 -219 -129 -367q-18 -20 -41 0l-84 78q-27 25 -2 49.5t41.5 67.5t18.5 72.5t2 87.5l16 20h-102q-31 0 -31 31v248q0 30 31 30zM379 872h252q86 0 130 38t44 148.5t-44 146.5t-130 36h-252v-369zM1059 397v-366q0 -31 -31 -31h-184
q-31 0 -31 31v299q1 154 -39 222q-18 30 -54 52.5t-87 22.5h-254v-596q0 -31 -31 -31h-184q-31 0 -31 31v1425q0 31 31 31h487q182 0 291 -116t109 -312.5t-109 -315.5q117 -137 117 -346z" />
    <glyph glyph-name="rcommaaccent" unicode="&#x157;" horiz-adv-x="872" 
d="M123 -410h250q31 0 30 -30v-287q0 -219 -129 -367q-18 -20 -41 0l-83 78q-27 25 -9 43q31 31 47.5 74t18.5 72.5t2 87.5l16 20h-102q-31 0 -31 31v248q0 30 31 30zM532 717h-51q-47 0 -75.5 -34t-28.5 -89v-563q0 -31 -31 -31h-184q-31 0 -31 31v901q0 31 31 31h184
q31 0 31 -31v-45q14 27 61 51.5t88 24.5h86q115 0 195 -70q25 -18 0 -43l-133 -141q-16 -16 -47 -4t-95 12z" />
    <glyph glyph-name="Rcaron" unicode="&#x158;" horiz-adv-x="1161" 
d="M379 872h252q86 0 130 38t44 148.5t-44 146.5t-130 36h-252v-369zM1059 397v-366q0 -31 -31 -31h-184q-31 0 -31 31v299q1 154 -39 222q-18 30 -54 52.5t-87 22.5h-254v-596q0 -31 -31 -31h-184q-31 0 -31 31v1425q0 31 31 31h487q182 0 291 -116t109 -312.5t-109 -315.5
q117 -137 117 -346zM219 2163h191q23 0 47 -39l125 -197l125 197q25 39 47 39h190q16 0 21.5 -12.5t-4.5 -26.5l-240 -367q-20 -33 -49 -33h-183q-24 0 -47 33l-239 367q-8 14 -4 26.5t20 12.5z" />
    <glyph glyph-name="rcaron" unicode="&#x159;" horiz-adv-x="872" 
d="M532 717h-51q-47 0 -75.5 -34t-28.5 -89v-563q0 -31 -31 -31h-184q-31 0 -31 31v901q0 31 31 31h184q31 0 31 -31v-45q14 27 61 51.5t88 24.5h86q115 0 195 -70q25 -18 0 -43l-133 -141q-16 -16 -47 -4t-95 12zM129 1638h190q23 0 48 -39l125 -196l124 196q25 39 48 39
h190q16 0 21.5 -12t-5.5 -27l-239 -366q-20 -33 -49 -33h-183q-24 0 -47 33l-239 366q-8 14 -4 26.5t20 12.5z" />
    <glyph glyph-name="Sacute" unicode="&#x15a;" horiz-adv-x="1179" 
d="M524 1509h107q166 0 293 -123.5t127 -306.5v-39q0 -31 -31 -30h-186q-31 0 -31 30v39q0 78 -51.5 131.5t-120.5 53.5h-107q-72 0 -114.5 -50.5t-42.5 -125t33.5 -129t138.5 -72.5l118 -21q176 -31 293 -159.5t117 -313t-127 -303.5t-303 -119h-94q-170 0 -300 119
t-130 295v59q0 31 30 31h187q31 0 30 -31l2 -59q2 -74 54.5 -121t126.5 -47h94q80 0 132 49t52 135t-36.5 144.5t-137.5 75.5l-119 20q-182 33 -294.5 160t-112.5 304t116.5 290.5t286.5 113.5zM678 2163h213q39 0 20 -37l-178 -379q-20 -37 -43 -37h-188q-37 0 -21 37
l154 379q12 37 43 37z" />
    <glyph glyph-name="sacute" unicode="&#x15b;" horiz-adv-x="966" 
d="M864 272q0 -125 -104.5 -203.5t-257.5 -78.5h-49q-131 0 -235.5 76.5t-115.5 191.5q-4 31 31 31h189q25 0 41.5 -27t78.5 -26h80q96 0 96 47q0 38 -27 51t-106 22q-197 18 -288 97t-91 223.5t97.5 219.5t257.5 75h39q139 0 244.5 -85t105.5 -210q0 -33 -29 -33h-186
q-29 0 -37 33q-4 23 -36 36t-70 13h-62q-78 0 -78 -45q0 -35 22.5 -51.5t110.5 -26.5q197 -23 288 -98.5t91 -231.5zM786 1638q39 0 21 -36l-178 -379q-20 -37 -43 -37h-189q-36 0 -20 37l153 379q12 37 43 36h213z" />
    <glyph glyph-name="Scedilla" unicode="&#x15e;" horiz-adv-x="1179" 
d="M1067 400q0 -177 -110.5 -293.5t-270.5 -133.5q-8 -20 6.5 -26t52.5 -10q100 -10 143.5 -52.5t43.5 -142.5q0 -156 -199 -156h-158q-84 0 -131 47.5t-49 124.5q0 20 19 21h149q20 0 21 -17q0 -35 57 -34h41q61 0 61 26q0 14 -22.5 20.5t-90 14.5t-103.5 13t-56 22.5
t-26.5 55.5t34.5 95q-152 25 -259 137.5t-107 272.5v59q0 31 30 31h187q31 0 30 -31l2 -59q2 -74 54.5 -121t126.5 -47h94q80 0 132 49t52 135t-36.5 144.5t-137.5 75.5l-119 20q-182 33 -294.5 160t-112.5 304t116.5 290.5t286.5 113.5h107q166 0 293 -123.5t127 -306.5
v-39q0 -31 -31 -30h-186q-31 0 -31 30v39q0 78 -51.5 131.5t-120.5 53.5h-107q-72 0 -114.5 -50.5t-42.5 -125t33.5 -129t138.5 -72.5l118 -21q176 -31 293 -160t117 -306z" />
    <glyph glyph-name="scedilla" unicode="&#x15f;" horiz-adv-x="966" 
d="M827 -258q0 -156 -198 -156h-158q-84 0 -131 47.5t-49 124.5q0 20 18 21h150q20 0 20 -17q0 -35 58 -34h41q61 0 61 26q0 14 -22.5 20.5t-90.5 14.5t-104.5 13t-59 23.5t-21.5 65t48 105.5q-113 16 -195.5 90t-91.5 172q-4 31 31 31h189q25 0 41.5 -27t78.5 -26h80
q96 0 96 47q0 38 -27 51t-106 22q-197 18 -288 97t-91 223.5t97.5 219.5t257.5 75h39q139 0 244.5 -85t105.5 -210q0 -33 -29 -33h-186q-29 0 -37 33q-4 23 -36 36t-70 13h-62q-78 0 -78 -45q0 -35 23 -51t110 -27q197 -23 288 -98.5t91 -231.5q0 -104 -74.5 -176.5
t-193.5 -97.5q-20 -41 -10 -51t55 -10q100 -10 143 -52.5t43 -142.5z" />
    <glyph glyph-name="Scaron" unicode="&#x160;" horiz-adv-x="1179" 
d="M524 1509h107q166 0 293 -123.5t127 -306.5v-39q0 -31 -31 -30h-186q-31 0 -31 30v39q0 78 -51.5 131.5t-120.5 53.5h-107q-72 0 -114.5 -50.5t-42.5 -125t33.5 -129t138.5 -72.5l118 -21q176 -31 293 -159.5t117 -313t-127 -303.5t-303 -119h-94q-170 0 -300 119
t-130 295v59q0 31 30 31h187q31 0 30 -31l2 -59q2 -74 54.5 -121t126.5 -47h94q80 0 132 49t52 135t-36.5 144.5t-137.5 75.5l-119 20q-182 33 -294.5 160t-112.5 304t116.5 290.5t286.5 113.5zM227 2163h191q23 0 47 -39l125 -197l125 197q25 39 47 39h190q16 0 21.5 -12.5
t-4.5 -26.5l-240 -367q-20 -33 -49 -33h-182q-24 0 -47 33l-240 367q-8 14 -4 26.5t20 12.5z" />
    <glyph glyph-name="scaron" unicode="&#x161;" horiz-adv-x="966" 
d="M864 272q0 -125 -104.5 -203.5t-257.5 -78.5h-49q-131 0 -235.5 76.5t-115.5 191.5q-4 31 31 31h189q25 0 41.5 -27t78.5 -26h80q96 0 96 47q0 38 -27 51t-106 22q-197 18 -288 97t-91 223.5t97.5 219.5t257.5 75h39q139 0 244.5 -85t105.5 -210q0 -33 -29 -33h-186
q-29 0 -37 33q-4 23 -36 36t-70 13h-62q-78 0 -78 -45q0 -35 22.5 -51.5t110.5 -26.5q197 -23 288 -98.5t91 -231.5zM123 1638h190q23 0 47 -39l125 -196l125 196q25 39 47 39h191q16 0 21 -12t-5 -27l-239 -366q-20 -33 -50 -33h-182q-24 0 -47 33l-240 366q-8 14 -4 26.5
t21 12.5z" />
    <glyph glyph-name="Tcedilla" unicode="&#x162;" horiz-adv-x="1165" 
d="M133 1487h899q31 0 31 -31v-184q0 -31 -31 -31h-325v-1210q0 -14 -7 -23q0 -6 -11 -28.5t-1 -32.5t55 -10q100 -10 143.5 -52.5t43.5 -142.5q0 -156 -199 -156h-158q-84 0 -131 47.5t-49 124.5q0 20 19 21h149q20 0 21 -17q0 -35 57 -34h41q61 0 61 26q0 14 -22.5 20.5
t-90 14.5t-104.5 13t-59.5 23.5t-21.5 65t51 107.5l2 2h-4q-31 0 -31 31v1210h-328q-31 0 -31 31v184q0 31 31 31z" />
    <glyph glyph-name="tcedilla" unicode="&#x163;" horiz-adv-x="710" 
d="M821 -258q0 -156 -198 -156h-158q-84 0 -131 47.5t-49 124.5q0 20 18 21h150q20 0 20 -17q0 -35 57 -34h41q61 0 62 26q0 14 -22.5 20.5t-90.5 14.5t-104.5 13t-59 23.5t-21.5 65t50 107.5q10 14 18 16q-205 57 -204 281v422h-97q-31 0 -30 31v182q0 33 30 33h97v213
q0 31 30 30h185q31 0 30 -30v-213h142q33 0 32 -31v-184q0 -31 -30 -31h-144v-311q0 -78 25 -116t96 -40q33 0 33 -27l2 -194q0 -11 -15 -41.5t-5 -40.5t55 -10q100 -10 143 -52.5t43 -142.5z" />
    <glyph glyph-name="Tcaron" unicode="&#x164;" horiz-adv-x="1165" 
d="M133 1487h899q31 0 31 -31v-184q0 -31 -31 -31h-325v-1210q0 -31 -31 -31h-184q-31 0 -31 31v1210h-328q-31 0 -31 31v184q0 31 31 31zM225 2163h191q23 0 47 -39l125 -197l125 197q25 39 47 39h190q16 0 21.5 -12.5t-4.5 -26.5l-240 -367q-20 -33 -49 -33h-182
q-24 0 -47 33l-240 367q-8 14 -4 26.5t20 12.5z" />
    <glyph glyph-name="tcaron" unicode="&#x165;" horiz-adv-x="1028" 
d="M444 963h142q33 0 32 -31v-184q0 -31 -30 -31h-144v-311q0 -78 25 -116t96 -40q33 0 33 -27l2 -194q0 -33 -27 -33q-172 -4 -273 67.5t-101 231.5v422h-97q-31 0 -30 31v182q0 33 30 33h97v213q0 31 30 30h185q31 0 30 -30v-213zM655 1634h250q31 0 31 -30v-287
q0 -219 -129 -367q-18 -20 -41 0l-84 78q-27 26 -2 50t41 67t18 72.5t2 87.5l17 20h-103q-31 0 -30 31v248q-1 30 30 30z" />
    <glyph glyph-name="Tbar" unicode="&#x166;" horiz-adv-x="1165" 
d="M133 1487h899q31 0 31 -31v-184q0 -31 -31 -31h-325v-280h188q31 0 31 -31v-185q0 -31 -31 -30h-188v-684q0 -31 -31 -31h-184q-31 0 -31 31v684h-230q-31 0 -30 30v185q0 31 30 31h230v280h-328q-31 0 -31 31v184q0 31 31 31z" />
    <glyph glyph-name="tbar" unicode="&#x167;" horiz-adv-x="710" 
d="M444 717v-94h144q31 0 30 -31v-184q0 -31 -30 -31h-144q6 -125 121 -127q33 0 33 -27l2 -194q0 -33 -27 -33q-172 -4 -273 67.5t-101 231.5v82h-97q-31 0 -30 31v184q0 31 30 31h97v94h-97q-31 0 -30 31v182q0 33 30 33h97v213q0 31 30 30h185q31 0 30 -30v-213h142
q33 0 32 -31v-184q0 -31 -30 -31h-144z" />
    <glyph glyph-name="Utilde" unicode="&#x168;" horiz-adv-x="1191" 
d="M854 1487h184q31 0 31 -31v-1010q0 -200 -125 -330t-321 -130h-54q-197 0 -321 131t-125 329v1010q0 31 31 31h184q31 0 31 -31v-969q0 -106 45 -181t155 -75h54q111 0 155 75t45 181v969q0 31 31 31zM915 2048l70 -137q14 -23 -20 -45q-213 -147 -406 -33
q-92 49 -132 45t-118 -57q-18 -12 -35 16l-69 137q-12 25 20 45q219 152 406 33q99 -63 165 -37q30 12 85 49q22 15 34 -16z" />
    <glyph glyph-name="utilde" unicode="&#x169;" horiz-adv-x="1073" 
d="M930 932v-901q0 -31 -31 -31h-184q-31 0 -31 31v45q-14 -28 -60 -52t-87 -24h-91q-156 0 -234 102t-79 265v565q0 31 31 31h184q31 0 31 -31v-565q0 -51 32 -86t76 -35h93q44 0 74 35t30 86v565q0 31 31 31h184q31 0 31 -31zM856 1524l70 -138q14 -23 -21 -45
q-213 -147 -405 -32q-92 49 -132 45t-118 -58q-18 -12 -35 17l-70 137q-12 25 21 45q219 152 405 33q100 -64 165 -37q30 12 85 49q23 15 35 -16z" />
    <glyph glyph-name="Umacron" unicode="&#x16a;" horiz-adv-x="1191" 
d="M854 1487h184q31 0 31 -31v-1010q0 -200 -125 -330t-321 -130h-54q-197 0 -321 131t-125 329v1010q0 31 31 31h184q31 0 31 -31v-969q0 -106 45 -181t155 -75h54q111 0 155 75t45 181v969q0 31 31 31zM928 1765h-664q-31 0 -31 31v184q0 31 31 31h664q31 0 30 -31v-184
q1 -31 -30 -31z" />
    <glyph glyph-name="umacron" unicode="&#x16b;" horiz-adv-x="1073" 
d="M930 932v-901q0 -31 -31 -31h-184q-31 0 -31 31v45q-14 -28 -60 -52t-87 -24h-91q-156 0 -234 102t-79 265v565q0 31 31 31h184q31 0 31 -31v-565q0 -51 32 -86t76 -35h93q44 0 74 35t30 86v565q0 31 31 31h184q31 0 31 -31zM868 1241h-663q-31 0 -31 31v184q0 31 31 31
h663q31 0 31 -31v-184q0 -31 -31 -31z" />
    <glyph glyph-name="Ubreve" unicode="&#x16c;" horiz-adv-x="1191" 
d="M854 1487h184q31 0 31 -31v-1010q0 -200 -125 -330t-321 -130h-54q-197 0 -321 131t-125 329v1010q0 31 31 31h184q31 0 31 -31v-969q0 -106 45 -181t155 -75h54q111 0 155 75t45 181v969q0 31 31 31zM782 2163h144q31 0 30 -31q-2 -150 -82 -242t-219 -92h-120
q-139 0 -220 92q-80 92 -82 242q0 31 31 31h144q32 0 32 -39t29 -80t84 -41h84q55 0 84 41t29 80t32 39z" />
    <glyph glyph-name="ubreve" unicode="&#x16d;" horiz-adv-x="1073" 
d="M930 932v-901q0 -31 -31 -31h-184q-31 0 -31 31v45q-14 -28 -60 -52t-87 -24h-91q-156 0 -234 102t-79 265v565q0 31 31 31h184q31 0 31 -31v-565q0 -51 32 -86t76 -35h93q44 0 74 35t30 86v565q0 31 31 31h184q31 0 31 -31zM723 1638h143q31 0 31 -30q-2 -150 -82 -242
t-219 -92h-121q-139 0 -219 92t-82 242q0 31 31 30h143q31 0 32 -38t30 -80q29 -41 84 -41h84q55 0 84 41q30 42 30 80t31 38z" />
    <glyph glyph-name="Uring" unicode="&#x16e;" horiz-adv-x="1191" 
d="M854 1487h184q31 0 31 -31v-1010q0 -200 -125 -330t-321 -130h-54q-197 0 -321 131t-125 329v1010q0 31 31 31h184q31 0 31 -31v-969q0 -106 45 -181t155 -75h54q111 0 155 75t45 181v969q0 31 31 31zM653 1962v6q0 23 -15 38t-40 15h-6q-23 0 -38 -15t-15 -38v-6
q0 -23 15 -39t38 -16h6q25 0 40 16t15 39zM582 2165h26q82 -1 135 -55t54 -136v-22q-1 -84 -53 -136t-136 -53h-26q-82 1 -136 53t-53 136v22q-1 82 53 136t136 55z" />
    <glyph glyph-name="uring" unicode="&#x16f;" horiz-adv-x="1073" 
d="M930 932v-901q0 -31 -31 -31h-184q-31 0 -31 31v45q-14 -28 -60 -52t-87 -24h-91q-156 0 -234 102t-79 265v565q0 31 31 31h184q31 0 31 -31v-565q0 -51 32 -86t76 -35h93q44 0 74 35t30 86v565q0 31 31 31h184q31 0 31 -31zM594 1438v6q0 23 -15 38t-40 15h-7
q-24 0 -38 -15t-15 -38v-6q-1 -23 15 -39t38 -17h7q25 0 40 16t15 40zM522 1640h27q82 0 135 -54t53 -136v-23q0 -84 -53 -136t-135 -52h-27q-84 0 -136 52t-52 136v23q0 82 53 136t135 54z" />
    <glyph glyph-name="Uhungarumlaut" unicode="&#x170;" horiz-adv-x="1191" 
d="M854 1487h184q31 0 31 -31v-1010q0 -200 -125 -330t-321 -130h-54q-197 0 -321 131t-125 329v1010q0 31 31 31h184q31 0 31 -31v-969q0 -106 45 -181t155 -75h54q111 0 155 75t45 181v969q0 31 31 31zM866 2163h213q39 0 21 -37l-178 -379q-20 -37 -43 -37h-189
q-36 0 -20 37l153 379q12 37 43 37zM498 2163h213q39 0 20 -37l-178 -379q-20 -37 -43 -37h-188q-37 0 -21 37l154 379q12 37 43 37z" />
    <glyph glyph-name="uhungarumlaut" unicode="&#x171;" horiz-adv-x="1073" 
d="M930 932v-901q0 -31 -31 -31h-184q-31 0 -31 31v45q-14 -28 -60 -52t-87 -24h-91q-156 0 -234 102t-79 265v565q0 31 31 31h184q31 0 31 -31v-565q0 -51 32 -86t76 -35h93q44 0 74 35t30 86v565q0 31 31 31h184q31 0 31 -31zM1020 1638q39 0 20 -36l-178 -379
q-20 -37 -43 -37h-188q-37 0 -21 37l154 379q12 37 43 36h213zM651 1638q39 0 21 -36l-178 -379q-20 -37 -43 -37h-189q-36 0 -20 37l153 379q12 37 43 36h213z" />
    <glyph glyph-name="Uogonek" unicode="&#x172;" horiz-adv-x="1191" 
d="M854 1487h184q31 0 31 -31v-1010q0 -133 -58 -239t-163 -166q12 -4 14 -14q25 -109 -11 -153t-118 -52l-172 -19q-29 -2 -29 -16t62 -14h246q20 0 20 -25v-113q0 -20 -20 -20h-273q-104 0 -153 36t-49 131t42 124q43 29 111 37t78 10t37 7t37 28q-14 -2 -47 -2h-54
q-197 0 -321 131t-125 329v1010q0 31 31 31h184q31 0 31 -31v-969q0 -106 45 -181t155 -75h54q111 0 155 75t45 181v969q0 31 31 31z" />
    <glyph glyph-name="uogonek" unicode="&#x173;" horiz-adv-x="1073" 
d="M662 -227h245q20 0 21 -25v-113q0 -20 -21 -20h-272q-104 0 -154 36q-49 36 -49 131t42 124t116 37t94 12q54 11 57 45h-26q-31 0 -31 31v45q-14 -28 -60 -52t-87 -24h-91q-156 0 -234 102t-79 265v565q0 31 31 31h184q31 0 31 -31v-565q0 -51 32 -86t76 -35h93
q44 0 74 35t30 86v565q0 31 31 31h184q31 0 31 -31v-905q25 -109 -11 -153t-118 -52l-172 -19q-29 -2 -29 -18q1 -12 62 -12z" />
    <glyph glyph-name="Wcircumflex" unicode="&#x174;" horiz-adv-x="1878" 
d="M1571 1487h198q33 0 27 -31l-307 -1425q-6 -31 -39 -31h-143q-29 0 -39 31l-328 993l-328 -993q-10 -31 -39 -31h-143q-33 0 -39 31l-307 1425q-6 31 25 31h198q31 0 37 -31l184 -969l293 969q10 31 39 31h160q29 0 39 -31l295 -969l182 969q6 31 35 31zM848 2163h182
q29 0 49 -33l240 -367q10 -14 5 -26t-21 -13h-191q-23 0 -47 39l-125 197l-125 -197q-25 -39 -47 -39h-190q-16 0 -20 12t3 27l240 367q23 33 47 33z" />
    <glyph glyph-name="wcircumflex" unicode="&#x175;" horiz-adv-x="1398" 
d="M1112 963h188q35 0 25 -35l-242 -895q-10 -33 -39 -33h-149q-29 0 -39 33l-158 532l-157 -532q-10 -33 -39 -33h-150q-29 0 -39 33l-241 895q-10 35 24 35h189q27 0 37 -35l129 -563l135 563q10 35 37 35h151q27 0 37 -35l135 -563l129 563q10 35 37 35zM788 1638
q29 0 50 -32l239 -367q10 -15 5 -27t-21 -12h-191q-23 0 -47 39l-125 197l-125 -197q-25 -39 -47 -39h-190q-16 0 -21 12q-4 13 4 27l240 367q23 33 47 32h182z" />
    <glyph glyph-name="Ycircumflex" unicode="&#x176;" horiz-adv-x="1146" 
d="M858 1487h203q37 0 20 -31l-387 -803v-622q0 -31 -30 -31h-185q-31 0 -30 31v622l-383 803q-16 31 20 31h203q29 0 41 -31l241 -543l246 543q12 31 41 31zM471 2163h182q29 0 49 -33l240 -367q10 -14 5 -26t-21 -13h-191q-23 0 -47 39l-125 197l-125 -197
q-25 -39 -47 -39h-190q-17 0 -21 12t4 27l240 367q23 33 47 33z" />
    <glyph glyph-name="ycircumflex" unicode="&#x177;" horiz-adv-x="1114" 
d="M823 963h197q33 0 18 -37l-544 -1301q-14 -35 -45 -35h-197q-35 0 -21 37l195 463l-350 836q-14 37 18 37h199q29 0 43 -35l221 -527l221 527q14 35 45 35zM385 1200h-190q-16 0 -21 12q-4 12 4 27l240 367q23 33 47 32h182q29 0 49 -32l240 -367q10 -15 5 -27t-21 -12
h-191q-23 0 -47 39l-125 197l-125 -197q-24 -39 -47 -39z" />
    <glyph glyph-name="Ydieresis" unicode="&#x178;" horiz-adv-x="1146" 
d="M858 1487h203q37 0 20 -31l-387 -803v-622q0 -31 -30 -31h-185q-31 0 -30 31v622l-383 803q-16 31 20 31h203q29 0 41 -31l241 -543l246 543q12 31 41 31zM645 1733v247q0 31 31 31h250q31 0 30 -31v-247q0 -31 -30 -31h-250q-31 0 -31 31zM168 1733v247q0 31 31 31h250
q31 0 30 -31v-247q0 -31 -30 -31h-250q-31 0 -31 31z" />
    <glyph glyph-name="Zacute" unicode="&#x179;" horiz-adv-x="1107" 
d="M1006 1456v-86q0 -31 -7 -39l-559 -1085h535q31 0 31 -31v-184q0 -31 -31 -31h-842q-31 0 -31 31v86q0 31 7 39l559 1085h-535q-31 0 -31 31v184q0 31 31 31h842q31 0 31 -31zM643 2163h213q39 0 21 -37l-179 -379q-20 -37 -43 -37h-188q-37 0 -21 37l154 379
q12 37 43 37z" />
    <glyph glyph-name="zacute" unicode="&#x17a;" horiz-adv-x="905" 
d="M823 932v-125q0 -18 -10 -33l-379 -528h357q33 0 32 -31v-184q0 -31 -30 -31h-680q-31 0 -31 31v121q0 23 10 34l379 531h-358q-31 0 -31 31v182q0 33 31 33h678q32 0 32 -31zM754 1638q39 0 20 -36l-178 -379q-20 -37 -43 -37h-188q-37 0 -21 37l154 379q12 37 43 36
h213z" />
    <glyph glyph-name="Zdotaccent" unicode="&#x17b;" horiz-adv-x="1107" 
d="M1006 1456v-86q0 -31 -7 -39l-559 -1085h535q31 0 31 -31v-184q0 -31 -31 -31h-842q-31 0 -31 31v86q0 31 7 39l559 1085h-535q-31 0 -31 31v184q0 31 31 31h842q31 0 31 -31zM399 1733v247q0 31 31 31h250q31 0 31 -31v-247q0 -31 -31 -31h-250q-31 0 -31 31z" />
    <glyph glyph-name="zdotaccent" unicode="&#x17c;" horiz-adv-x="905" 
d="M823 932v-125q0 -18 -10 -33l-379 -528h357q33 0 32 -31v-184q0 -31 -30 -31h-680q-31 0 -31 31v121q0 23 10 34l379 531h-358q-31 0 -31 31v182q0 33 31 33h678q32 0 32 -31zM297 1208v248q0 31 31 31h250q31 0 30 -31v-248q0 -31 -30 -30h-250q-31 -1 -31 30z" />
    <glyph glyph-name="Zcaron" unicode="&#x17d;" horiz-adv-x="1107" 
d="M1006 1456v-86q0 -31 -7 -39l-559 -1085h535q31 0 31 -31v-184q0 -31 -31 -31h-842q-31 0 -31 31v86q0 31 7 39l559 1085h-535q-31 0 -31 31v184q0 31 31 31h842q31 0 31 -31zM383 2163q23 0 47 -39l125 -197l125 197q25 39 47 39h191q16 -1 21 -13t-5 -26l-240 -367
q-20 -33 -49 -33h-182q-24 0 -47 33l-240 367q-8 14 -4 26t21 13h190z" />
    <glyph glyph-name="zcaron" unicode="&#x17e;" horiz-adv-x="905" 
d="M823 932v-125q0 -18 -10 -33l-379 -528h357q33 0 32 -31v-184q0 -31 -30 -31h-680q-31 0 -31 31v121q0 23 10 34l379 531h-358q-31 0 -31 31v182q0 33 31 33h678q32 0 32 -31zM90 1638h191q23 0 47 -39l125 -196l125 196q25 39 47 39h190q15 0 21 -12t-5 -27l-239 -366
q-20 -33 -49 -33h-183q-24 0 -47 33l-239 366q-8 15 -4 27t20 12z" />
    <glyph glyph-name="florin" unicode="&#x192;" horiz-adv-x="868" 
d="M666 1487h141q31 0 31 -31v-184q0 -31 -31 -31h-19q-110 0 -160 -42t-50 -159v-1065q0 -174 -92 -279t-242 -106h-142q-31 0 -30 31v184q0 31 30 31h19q111 0 161 42t50 159v680h-105q-31 0 -30 31v184q0 31 30 31h105v139q0 174 91 280t243 105z" />
    <glyph glyph-name="Acaron" unicode="&#x1cd;" horiz-adv-x="1232" 
d="M727 606l-109 385l-112 -385h221zM1112 0h-184q-31 0 -39 33l-92 327h-363l-94 -327q-8 -33 -37 -33h-186q-31 0 -23 33l410 1427q10 33 39 33h147q29 0 39 -33l408 -1427q8 -33 -25 -33zM440 2163q23 0 47 -39l125 -197l125 197q25 39 47 39h191q16 -1 21 -13t-5 -26
l-239 -367q-20 -33 -50 -33h-182q-24 0 -47 33l-240 367q-8 14 -4 26t21 13h190z" />
    <glyph glyph-name="acaron" unicode="&#x1ce;" horiz-adv-x="976" 
d="M389 244h100q84 0 123 39v102h-223q-27 0 -43 -20q-16 -19 -16 -49t16 -51t43 -21zM858 610v-561q0 -13 4 -31t-6 -18h-207q-37 0 -37 49v2q-82 -53 -153 -53h-82q-113 0 -202 91t-89 221t89 213t222 83h215v21q0 45 -28 71t-76 25h-96q-80 0 -142 -47q-29 -20 -49 8
l-92 121q-20 25 -4 43q115 119 319 119h91q127 1 225 -101t98 -256zM666 1638h190q16 0 22 -12t-6 -27l-239 -366q-20 -33 -49 -33h-183q-25 0 -47 33l-239 366q-8 15 -4 27t20 12h191q23 0 47 -39l125 -196l124 196q25 39 48 39z" />
    <glyph glyph-name="Icaron" unicode="&#x1cf;" horiz-adv-x="577" 
d="M164 31v1425q0 31 31 31h188q31 0 31 -31v-1425q0 -31 -31 -31h-188q-31 0 -31 31zM117 2163q23 0 47 -39l125 -197l125 197q25 39 47 39h190q15 -1 21 -13t-4 -26l-240 -367q-20 -33 -49 -33h-182q-24 0 -47 33l-240 367q-8 14 -4 26t20 13h191z" />
    <glyph glyph-name="icaron" unicode="&#x1d0;" horiz-adv-x="573" 
d="M164 31v903q0 31 31 31h184q31 0 31 -31v-903q0 -31 -31 -31h-184q-31 0 -31 31zM-76 1638h191q23 0 47 -39l125 -196l125 196q25 39 47 39h190q15 0 21 -12t-4 -27l-240 -366q-20 -33 -49 -33h-182q-25 0 -48 33l-239 366q-8 15 -4 27t20 12z" />
    <glyph glyph-name="Ocaron" unicode="&#x1d1;" horiz-adv-x="1212" 
d="M553 219h106q86 0 136 66q49 66 49 161v590q0 96 -49 162t-136 66h-106q-86 0 -135 -66t-49 -162v-590q0 -96 49 -162t135 -65zM553 1509h106q175 0 303 -143t128 -346v-557q0 -203 -127 -346t-304 -144h-106q-176 -1 -303 143t-127 347v557q0 203 127 346t303 143z
M434 2163q23 0 47 -39l125 -197l125 197q25 39 47 39h191q16 -1 21 -13t-5 -26l-240 -367q-20 -33 -49 -33h-182q-24 0 -47 33l-240 367q-8 14 -4 26t21 13h190z" />
    <glyph glyph-name="ocaron" unicode="&#x1d2;" horiz-adv-x="1038" 
d="M680 365v233q0 51 -30 88t-87 37h-88q-57 0 -87 -37t-30 -88v-233q0 -51 30 -86t87 -35h88q57 0 87 35t30 86zM479 969h80q154 0 260 -109t107 -262v-233q0 -155 -106 -261t-261 -106h-80q-154 0 -260 106t-106 261v233q0 154 106 262t260 109zM158 1638h190q23 0 47 -39
l125 -196l125 196q25 39 47 39h191q16 0 21 -12t-5 -27l-240 -366q-20 -33 -49 -33h-182q-24 0 -47 33l-240 366q-8 15 -4 27t21 12z" />
    <glyph glyph-name="ucaron" unicode="&#x1d4;" horiz-adv-x="1073" 
d="M930 932v-901q0 -31 -31 -31h-184q-31 0 -31 31v45q-14 -28 -60 -52t-87 -24h-91q-156 0 -234 102t-79 265v565q0 31 31 31h184q31 0 31 -31v-565q0 -51 32 -86t76 -35h93q44 0 74 35t30 86v565q0 31 31 31h184q31 0 31 -31zM174 1638h191q23 0 47 -39l125 -196l125 196
q25 39 47 39h190q15 0 21 -12t-5 -27l-239 -366q-20 -33 -49 -33h-183q-24 0 -47 33l-239 366q-8 15 -4 27t20 12z" />
    <glyph glyph-name="Gcaron" unicode="&#x1e6;" horiz-adv-x="1169" 
d="M614 770h412q31 0 31 -31v-288q0 -207 -121 -342.5t-305 -135.5h-94q-190 0 -312.5 137.5t-122.5 354.5v557q0 217 122 352t313 135h94q182 0 302 -133t124 -340q0 -31 -31 -30h-184q-33 0 -33 30q0 227 -178 228h-94q-96 0 -142.5 -58.5t-46.5 -183.5v-557
q0 -246 189 -246h94q178 0 178 232v73h-195q-31 0 -30 31v184q-1 31 30 31zM252 2163h190q23 0 47 -39l125 -197l125 197q25 39 47 39h191q16 0 21.5 -12.5t-5.5 -26.5l-239 -367q-20 -33 -49 -33h-183q-24 0 -47 33l-239 367q-8 14 -4 26.5t20 12.5z" />
    <glyph glyph-name="gcaron" unicode="&#x1e7;" horiz-adv-x="1001" 
d="M463 244h90q41 0 76 30v394q0 55 -97 55h-69q-47 0 -81 -35t-34 -90v-233q0 -55 34 -88t81 -33zM729 963h119q31 0 31 -31v-1034q1 -115 -101 -211t-235 -97h-51q-115 0 -206 54t-145 149q-14 27 25 51l117 74q37 23 59 -4q63 -78 127 -78h74q86 0 86 78v92
q-53 -8 -90 -8h-74q-152 0 -257 108t-106 259v233q0 150 106 260t257 111h67q63 0 132 -47h26q25 41 39 41zM139 1638h191q23 0 47 -39l125 -196l125 196q25 39 47 39h190q16 0 22 -12t-5 -27l-240 -366q-20 -33 -49 -33h-182q-25 0 -48 33l-239 366q-8 15 -4 27t20 12z" />
    <glyph glyph-name="Scommaaccent" unicode="&#x218;" horiz-adv-x="1179" 
d="M465 -410h250q31 0 30 -30v-287q0 -219 -129 -367q-18 -20 -41 0l-83 78q-27 25 -9 43q31 31 47.5 74t18.5 72.5t2 87.5l16 20h-102q-31 0 -31 31v248q0 30 31 30zM524 1509h107q166 0 293 -123.5t127 -306.5v-39q0 -31 -31 -30h-186q-31 0 -31 30v39q0 78 -51.5 131.5
t-120.5 53.5h-107q-72 0 -114 -50q-42 -52 -42.5 -126t33 -128.5t138.5 -72.5l118 -21q176 -31 293 -159.5t117 -312.5t-127 -303.5t-303 -119.5h-94q-170 0 -300 119t-130 295v59q0 31 30 31h187q31 0 30 -31l2 -59q2 -74 54.5 -121t126.5 -47h94q80 0 132 49t52 135
t-36.5 144.5t-137.5 75.5l-119 20q-182 33 -294.5 160t-112.5 304t116.5 290.5t286.5 113.5z" />
    <glyph glyph-name="scommaaccent" unicode="&#x219;" horiz-adv-x="966" 
d="M360 -410h250q31 0 31 -30v-287q0 -219 -129 -367q-18 -20 -41 0l-84 78q-27 25 -2 49.5t41 67.5t18 72.5t2 87.5l17 20h-103q-31 0 -30 31v248q-1 30 30 30zM864 272q0 -125 -104.5 -203.5t-257.5 -78.5h-49q-131 0 -235.5 76.5t-115.5 191.5q-4 31 31 31h189
q25 0 41.5 -27t78.5 -26h80q96 0 96 47q0 38 -27 51t-106 22q-197 18 -288 97t-91 223.5t97.5 219.5t257.5 75h39q139 0 244.5 -85t105.5 -210q0 -33 -29 -33h-186q-29 0 -37 33q-4 23 -36 36t-70 13h-62q-78 0 -78 -45q0 -35 22.5 -51.5t110.5 -26.5q197 -23 288 -98.5
t91 -231.5z" />
    <glyph glyph-name="uni021A" unicode="&#x21a;" horiz-adv-x="1165" 
d="M463 -410h250q31 0 30 -30v-287q0 -219 -129 -367q-18 -20 -41 0l-84 78q-27 26 -2 50t41.5 67t18.5 72.5t2 87.5l16 20h-102q-31 0 -31 31v248q0 30 31 30zM133 1487h899q31 0 31 -31v-184q0 -31 -31 -31h-325v-1210q0 -31 -31 -31h-184q-31 0 -31 31v1210h-328
q-31 0 -31 31v184q0 31 31 31z" />
    <glyph glyph-name="uni021B" unicode="&#x21b;" horiz-adv-x="710" 
d="M354 -410h250q31 0 31 -30v-287q0 -219 -129 -367q-18 -20 -41 0l-84 78q-27 25 -2 49.5t41 67.5t18 72.5t2 87.5l17 20h-103q-31 0 -30 31v248q-1 30 30 30zM199 295v422h-97q-31 0 -30 31v182q0 33 30 33h97v213q0 31 30 30h185q31 0 30 -30v-213h142q33 0 32 -31v-184
q0 -31 -30 -31h-144v-311q0 -78 25 -116t96 -40q33 0 33 -27l2 -194q0 -33 -27 -33q-172 -4 -273 67.5t-101 231.5z" />
    <glyph glyph-name="uni0228" unicode="&#x228;" horiz-adv-x="1138" 
d="M379 1241v-369h473q31 0 31 -30v-185q0 -31 -31 -30h-473v-381h606q31 0 31 -31v-184q0 -31 -31 -31h-258l-2 -2q-20 -41 -10 -51t55 -10q100 -10 143 -52.5t43 -142.5q0 -156 -198 -156h-158q-84 0 -131 47.5t-49 124.5q0 20 18 21h150q20 0 20 -17q0 -35 58 -34h41
q61 0 61 26q0 14 -22.5 20.5t-90.5 14.5t-104.5 13t-59 23.5t-21.5 65t50 107.5l2 2h-358q-31 0 -31 31v1425q0 31 31 31h821q31 0 31 -31v-184q0 -31 -31 -31h-606z" />
    <glyph glyph-name="uni0229" unicode="&#x229;" horiz-adv-x="1015" 
d="M668 602v21q0 41 -34 70.5t-73 29.5h-78q-43 0 -78.5 -30.5t-35.5 -71.5v-19h299zM487 969h78q133 0 240.5 -107.5t107.5 -261.5v-133q0 -61 -61 -61h-483v-44q0 -53 33.5 -85.5t82.5 -32.5h88q38 0 53 12t19 14q3 2 15 14t19 22t23 26q20 27 50 2l131 -117q23 -20 6 -43
q-61 -74 -120.5 -118t-147.5 -54l-3 -4q-20 -41 -10 -51t56 -10q100 -10 143 -52.5t43 -142.5q0 -156 -199 -156h-157q-84 0 -131.5 47.5t-49.5 124.5q0 20 19 21h149q20 0 21 -17q0 -35 57 -34h41q61 0 62 26q0 14 -23 20.5t-90.5 14.5t-104.5 13t-59.5 23.5t-21 65
t50.5 107.5l6 6q-129 25 -213 127t-84 234v233q0 150 106 260.5t258 110.5z" />
    <glyph glyph-name="dotlessj" unicode="&#x237;" horiz-adv-x="567" 
d="M158 -106v1040q0 31 30 31h185q31 0 30 -31v-1057q-1 -133 -81 -238t-209 -141q-27 -8 -39 21l-76 170q-12 29 18 39q57 20 100 64q42 44 42 102z" />
    <glyph glyph-name="circumflex" unicode="&#x2c6;" horiz-adv-x="974" 
d="M578 1638q29 0 49 -32l239 -367q10 -15 5 -27t-21 -12h-191q-23 0 -47 39l-125 197l-125 -197q-25 -39 -47 -39h-190q-16 0 -21 12q-3 13 5 27l239 367q23 33 47 32h183z" />
    <glyph glyph-name="caron" unicode="&#x2c7;" horiz-adv-x="974" 
d="M125 1638h190q23 0 47 -39l125 -196l125 196q25 39 47 39h191q16 0 21 -12t-5 -27l-239 -366q-20 -33 -49 -33h-183q-24 0 -47 33l-239 366q-8 14 -5 27q4 12 21 12z" />
    <glyph glyph-name="breve" unicode="&#x2d8;" horiz-adv-x="927" 
d="M651 1638h144q31 0 30 -30q-2 -150 -82 -242t-219 -92h-121q-139 0 -219 92t-82 242q0 31 31 30h143q31 0 32 -38t30 -80q29 -41 84 -41h84q55 0 84 41q30 42 30 80t31 38z" />
    <glyph glyph-name="dotaccent" unicode="&#x2d9;" horiz-adv-x="516" 
d="M102 1208v248q0 31 31 31h250q31 0 31 -31v-248q0 -31 -31 -30h-250q-31 -1 -31 30z" />
    <glyph glyph-name="ring" unicode="&#x2da;" horiz-adv-x="608" 
d="M362 1438v6q0 23 -15 38t-40 15h-6q-23 0 -38 -15t-15 -38v-6q0 -23 15 -39t38 -17h6q25 0 40 16t15 40zM291 1640h26q81 0 135 -54t54 -136v-23q0 -84 -52 -136t-137 -52h-26q-82 0 -135 52t-54 136v23q0 82 54 136t135 54z" />
    <glyph glyph-name="ogonek" unicode="&#x2db;" horiz-adv-x="659" 
d="M520 -281v-112q0 -20 -20 -21h-273q-104 0 -153 36t-49 131t42 124t131 39q88 10 116 24t18 58q-4 16 20 16h148q18 0 22 -16q25 -109 -11 -153t-118 -52l-172 -18q-29 -2 -28 -19q0 -12 61 -12h246q20 0 20 -25z" />
    <glyph glyph-name="tilde" unicode="&#x2dc;" horiz-adv-x="991" 
d="M815 1524l70 -138q14 -23 -21 -45q-213 -147 -405 -32q-92 49 -132 45t-118 -58q-18 -12 -35 17l-70 137q-12 25 21 45q219 152 405 33q100 -64 165 -37q30 12 85 49q23 15 35 -16z" />
    <glyph glyph-name="hungarumlaut" unicode="&#x2dd;" horiz-adv-x="1013" 
d="M885 1638q39 0 20 -36l-178 -379q-20 -37 -43 -37h-188q-37 0 -21 37l154 379q12 37 43 36h213zM516 1638q39 0 21 -36l-179 -379q-20 -37 -43 -37h-188q-37 0 -21 37l154 379q12 37 43 36h213z" />
    <glyph glyph-name="uni0326" unicode="&#x326;" horiz-adv-x="0" 
d="M133 -410h250q31 0 31 -30v-287q0 -219 -129 -367q-18 -20 -41 0l-84 78q-27 26 -2 50t41 67t18 72.5t2 87.5l17 20h-103q-31 0 -31 31v248q0 30 31 30z" />
    <glyph glyph-name="Delta" unicode="&#x394;" horiz-adv-x="1273" 
d="M881 246l-242 889l-250 -889h492zM1153 0h-1036q-31 0 -23 33l430 1427q10 33 39 33h148q29 0 39 -33l428 -1427q8 -33 -25 -33z" />
    <glyph glyph-name="Omega" unicode="&#x3a9;" horiz-adv-x="1200" 
d="M1077 1022v-410q0 -207 -149 -366h116q31 0 31 -31v-184q0 -31 -31 -31h-364q-31 0 -31 31v307q0 31 31 31h6q80 0 113 57t32 166v430q0 135 -47 189t-137 55h-94q-90 0 -137 -54t-47 -190v-430q1 -109 33 -166t112 -57h6q31 0 31 -31v-307q0 -31 -31 -31h-364
q-31 0 -31 31v184q0 31 31 31h116q-150 160 -149 366v410q0 203 127 346t303 143h94q176 0 303 -143t127 -346z" />
    <glyph glyph-name="mu" unicode="&#x3bc;" horiz-adv-x="1077" 
d="M715 963h184q31 0 31 -31v-901q0 -31 -31 -31h-184q-31 0 -31 31v45q-14 -28 -60 -52t-87 -24h-91q-23 0 -63 4v-383q0 -31 -31 -31h-184q-31 0 -31 31v676q-4 45 -4 70v565q0 31 31 31h188q31 0 31 -31v-598q10 -39 39 -64t65 -24h93q44 0 74 35t30 86v565q0 31 31 31z
" />
    <glyph glyph-name="pi" unicode="&#x3c0;" horiz-adv-x="1196" 
d="M131 963h932q31 0 31 -31v-187q0 -29 -31 -28h-49v-686q0 -31 -31 -31h-184q-31 0 -31 31v686h-342v-686q0 -31 -31 -31h-184q-31 0 -31 31v686h-47q-31 0 -31 31v184q0 31 29 31z" />
    <glyph glyph-name="uni0401" unicode="&#x401;" horiz-adv-x="1138" 
d="M379 872h473q31 0 31 -30v-185q0 -31 -31 -30h-473v-381h606q31 0 31 -31v-184q0 -31 -31 -31h-821q-31 0 -31 31v1425q0 31 31 31h821q31 0 31 -31v-184q0 -31 -31 -31h-606v-369zM696 1733v247q0 31 31 31h250q31 0 31 -31v-247q0 -31 -31 -31h-250q-31 0 -31 31z
M219 1733v247q0 31 31 31h250q31 0 30 -31v-247q0 -31 -30 -31h-250q-31 0 -31 31z" />
    <glyph glyph-name="uni0403" unicode="&#x403;" horiz-adv-x="1148" 
d="M164 1487h821q31 0 31 -31v-184q0 -31 -31 -31h-606v-1210q0 -31 -31 -31h-184q-31 0 -31 31v1425q0 31 31 31zM676 1710h-189q-37 0 -20 37l154 379q12 37 43 37h213q39 0 20 -37l-178 -379q-20 -37 -43 -37z" />
    <glyph glyph-name="uni0404" unicode="&#x404;" horiz-adv-x="1159" 
d="M842 481h184q31 0 31 -30q-2 -207 -123 -342.5t-303 -135.5h-94q-190 0 -312.5 137.5t-122.5 354.5v557q0 217 122 352t313 135h94q182 0 302 -133t124 -340q0 -31 -31 -30h-184q-33 0 -33 30q0 227 -178 228h-94q-96 0 -142.5 -58.5t-46.5 -183.5v-156h248q31 0 31 -30
v-185q0 -31 -31 -30h-248v-156q0 -246 189 -246h94q182 0 178 232q0 30 33 30z" />
    <glyph glyph-name="uni0406" unicode="&#x406;" horiz-adv-x="577" 
d="M164 31v1425q0 31 31 31h188q31 0 31 -31v-1425q0 -31 -31 -31h-188q-31 0 -31 31z" />
    <glyph glyph-name="uni0407" unicode="&#x407;" horiz-adv-x="577" 
d="M164 31v1425q0 31 31 31h188q31 0 31 -31v-1425q0 -31 -31 -31h-188q-31 0 -31 31zM371 1733v247q0 31 30 31h250q31 0 31 -31v-247q0 -31 -31 -31h-250q-30 0 -30 31zM-106 1733v247q0 31 30 31h250q31 0 31 -31v-247q0 -31 -31 -31h-250q-30 0 -30 31z" />
    <glyph glyph-name="uni0408" unicode="&#x408;" horiz-adv-x="1155" 
d="M512 231h53q106 0 164 66q57 66 57 190v969q0 31 31 31h184q31 0 31 -31v-989q0 -223 -133 -352t-313 -129h-74q-129 0 -254 76t-172 198q-11 25 16 41l140 92q16 12 37 -18q51 -78 104 -111t129 -33z" />
    <glyph glyph-name="uni040C" unicode="&#x40c;" horiz-adv-x="1234" 
d="M1133 0h-222q-35 0 -55 29l-424 614l-63 -76v-536q0 -31 -31 -31h-184q-31 0 -31 31v1425q0 31 31 31h184q31 0 31 -31v-592l417 594q20 29 39 29h236q22 0 19 -19.5t-11 -31.5l-446 -635l522 -752q16 -21 8 -35t-20 -14zM678 2163h213q39 0 20 -37l-178 -379
q-20 -37 -43 -37h-188q-37 0 -21 37l154 379q12 37 43 37z" />
    <glyph glyph-name="uni040D" unicode="&#x40d;" horiz-adv-x="1292" 
d="M164 1487h184q31 0 31 -31v-944l508 952q10 23 37 23h204q31 0 31 -31v-1425q0 -31 -31 -31h-184q-31 0 -31 31v944l-507 -952q-12 -23 -37 -23h-205q-31 0 -31 31v1425q0 31 31 31zM721 1710h-168q-23 0 -43 37l-178 379q-18 37 20 37h193q31 0 43 -37l153 -379
q16 -37 -20 -37z" />
    <glyph glyph-name="uni040E" unicode="&#x40e;" horiz-adv-x="1255" 
d="M934 1487h196q33 0 19 -37l-635 -1415q-14 -35 -45 -35h-197q-35 0 -20 37l252 557l-398 856q-18 37 19 37h199q25 0 43 -35l266 -571l256 571q14 35 45 35zM688 1798h-121q-139 0 -219 92t-82 242q0 31 31 31h143q31 0 32 -39t30 -80t84 -41h84q55 0 84 41q30 41 30 80
t31 39h143q31 0 31 -31q-2 -150 -82 -242t-219 -92z" />
    <glyph glyph-name="uni0410" unicode="&#x410;" horiz-adv-x="1232" 
d="M727 606l-109 385l-112 -385h221zM1112 0h-184q-31 0 -39 33l-92 327h-363l-94 -327q-8 -33 -37 -33h-186q-31 0 -23 33l410 1427q10 33 39 33h147q29 0 39 -33l408 -1427q8 -33 -25 -33z" />
    <glyph glyph-name="uni0411" unicode="&#x411;" horiz-adv-x="1183" 
d="M379 246h252q86 0 130 36t44 146t-44 149q-44 38 -130 37h-252v-368zM379 860h272q182 0 291 -118t109 -314t-109 -312t-291 -116h-487q-31 0 -31 31v1425q0 31 31 31h743q31 0 31 -31v-184q0 -31 -31 -31h-528v-381z" />
    <glyph glyph-name="uni0412" unicode="&#x412;" horiz-adv-x="1196" 
d="M379 246h258q106 0 154 41q47 41 47 141q0 209 -201 209h-258v-391zM379 883h258q94 0 130 45t36 141q0 172 -166 172h-258v-358zM1083 387q0 -387 -403 -387h-510q-37 0 -37 37v1413q0 37 37 37h494q176 0 280 -99t105 -278q-1 -258 -148 -346q182 -88 182 -377z" />
    <glyph glyph-name="uni0413" unicode="&#x413;" horiz-adv-x="1148" 
d="M164 1487h821q31 0 31 -31v-184q0 -31 -31 -31h-606v-1210q0 -31 -31 -31h-184q-31 0 -31 31v1425q0 31 31 31z" />
    <glyph glyph-name="uni0414" unicode="&#x414;" horiz-adv-x="1593" 
d="M1100 246v995h-514v-549q0 -250 -66 -446h580zM1346 246h116q31 0 31 -31v-383q0 -31 -31 -31h-184q-31 0 -31 31v168h-919v-168q0 -31 -31 -31h-184q-31 0 -31 31v383q0 31 31 31h65q54 0 108 124t54 371v715q0 31 31 31h944q31 0 31 -31v-1210z" />
    <glyph glyph-name="uni0415" unicode="&#x415;" horiz-adv-x="1138" 
d="M379 872h473q31 0 31 -30v-185q0 -31 -31 -30h-473v-381h606q31 0 31 -31v-184q0 -31 -31 -31h-821q-31 0 -31 31v1425q0 31 31 31h821q31 0 31 -31v-184q0 -31 -31 -31h-606v-369z" />
    <glyph glyph-name="uni0416" unicode="&#x416;" horiz-adv-x="1998" 
d="M1886 0h-221q-35 0 -55 29l-424 614l-64 -76v-536q0 -31 -30 -31h-185q-31 0 -30 31v536l-64 76l-424 -614q-20 -29 -55 -29h-221q-18 0 -21 18q-2 18 8 31l523 752l-447 635q-18 27 -10 39t18 12h236q16 0 39 -29l418 -594v592q0 31 30 31h185q31 0 30 -31v-592l418 594
q20 29 39 29h236q22 1 19 -19t-11 -32l-447 -635l522 -752q16 -21 8 -35q-7 -14 -20 -14z" />
    <glyph glyph-name="uni0417" unicode="&#x417;" horiz-adv-x="1148" 
d="M1047 379q0 -176 -129 -287t-306 -110h-86q-168 0 -297 114t-127 295v39q0 31 31 31h186q31 0 31 -31v-39q0 -66 49 -115t127 -49h86q90 0 140 49q49 49 49 123q0 115 -40 167t-149 59h-151q-31 0 -31 30v197q0 31 31 31h151q106 6 141 56q34 50 33 163q0 66 -45 115
t-129 49h-88q-76 0 -125 -56t-49 -127v-39q0 -31 -31 -30h-186q-31 0 -31 30v39q0 185 129 307t293 121h88q170 1 295 -115t125 -276t-58 -246t-179 -118q252 -70 252 -377z" />
    <glyph glyph-name="uni0418" unicode="&#x418;" horiz-adv-x="1292" 
d="M164 1487h184q31 0 31 -31v-944l508 952q10 23 37 23h204q31 0 31 -31v-1425q0 -31 -31 -31h-184q-31 0 -31 31v944l-507 -952q-12 -23 -37 -23h-205q-31 0 -31 31v1425q0 31 31 31z" />
    <glyph glyph-name="uni0419" unicode="&#x419;" horiz-adv-x="1292" 
d="M164 1487h184q31 0 31 -31v-944l508 952q10 23 37 23h204q31 0 31 -31v-1425q0 -31 -31 -31h-184q-31 0 -31 31v944l-507 -952q-12 -23 -37 -23h-205q-31 0 -31 31v1425q0 31 31 31zM834 2163h143q31 0 31 -31q-2 -150 -82 -242t-219 -92h-121q-139 0 -219 92t-82 242
q0 31 30 31h144q31 0 31 -39t29.5 -80t84.5 -41h84q55 0 84 41t30 80t32 39z" />
    <glyph glyph-name="uni041A" unicode="&#x41a;" horiz-adv-x="1234" 
d="M1133 0h-222q-35 0 -55 29l-424 614l-63 -76v-536q0 -31 -31 -31h-184q-31 0 -31 31v1425q0 31 31 31h184q31 0 31 -31v-592l417 594q20 29 39 29h236q22 0 19 -19.5t-11 -31.5l-446 -635l522 -752q16 -21 8 -35t-20 -14z" />
    <glyph glyph-name="uni041B" unicode="&#x41b;" horiz-adv-x="1427" 
d="M279 1487h985q31 0 30 -31v-1425q0 -31 -30 -31h-185q-31 0 -30 31v1210h-555v-926q0 -117 -66 -193q-120 -138 -350 -126q-27 0 -27 33l2 194q0 27 33 27q162 6 162 196v1010q0 31 31 31z" />
    <glyph glyph-name="uni041C" unicode="&#x41c;" horiz-adv-x="1505" 
d="M1085 1487h246q31 0 31 -31v-1425q0 -31 -31 -31h-184q-31 0 -31 31v932l-272 -932q-8 -31 -39 -31h-105q-29 0 -38 31l-273 932v-932q0 -31 -31 -31h-184q-31 0 -31 31v1425q0 31 31 31h246q31 0 41 -31l291 -993l292 993q8 31 41 31z" />
    <glyph glyph-name="uni041D" unicode="&#x41d;" horiz-adv-x="1210" 
d="M862 1487h185q31 0 30 -31v-1425q0 -31 -30 -31h-185q-31 0 -31 31v555h-452v-555q0 -31 -31 -31h-184q-31 0 -31 31v1425q0 31 31 31h184q31 0 31 -31v-625h452v625q0 31 31 31z" />
    <glyph glyph-name="uni041E" unicode="&#x41e;" horiz-adv-x="1212" 
d="M553 219h106q86 0 136 66q49 66 49 161v590q0 96 -49 162t-136 66h-106q-86 0 -135 -66t-49 -162v-590q0 -96 49 -162t135 -65zM553 1509h106q175 0 303 -143t128 -346v-557q0 -203 -127 -346t-304 -144h-106q-176 -1 -303 143t-127 347v557q0 203 127 346t303 143z" />
    <glyph glyph-name="uni041F" unicode="&#x41f;" horiz-adv-x="1312" 
d="M164 1487h985q31 0 31 -31v-1425q0 -31 -31 -31h-184q-31 0 -31 31v1210h-555v-1210q0 -31 -31 -31h-184q-31 0 -31 31v1425q0 31 31 31z" />
    <glyph glyph-name="uni0420" unicode="&#x420;" horiz-adv-x="1163" 
d="M379 872h252q86 0 130 38t44 149t-44 147t-130 35h-252v-369zM164 1487h487q182 0 291 -116q109 -117 109 -313t-109 -314t-291 -117h-272v-596q0 -31 -31 -31h-184q-31 0 -31 31v1425q0 31 31 31z" />
    <glyph glyph-name="uni0421" unicode="&#x421;" horiz-adv-x="1159" 
d="M842 481h184q31 0 31 -30q-2 -207 -123 -342.5t-303 -135.5h-94q-190 0 -312.5 137.5t-122.5 354.5v557q0 217 122 352t313 135h94q182 0 302 -133t124 -340q0 -31 -31 -30h-184q-33 0 -33 30q0 227 -178 228h-94q-96 0 -142.5 -58.5t-46.5 -183.5v-557q0 -246 189 -246
h94q182 0 178 232q0 30 33 30z" />
    <glyph glyph-name="uni0422" unicode="&#x422;" horiz-adv-x="1165" 
d="M133 1487h899q31 0 31 -31v-184q0 -31 -31 -31h-325v-1210q0 -31 -31 -31h-184q-31 0 -31 31v1210h-328q-31 0 -31 31v184q0 31 31 31z" />
    <glyph glyph-name="uni0423" unicode="&#x423;" horiz-adv-x="1255" 
d="M934 1487h196q33 0 19 -37l-635 -1415q-14 -35 -45 -35h-197q-35 0 -20 37l252 557l-398 856q-18 37 19 37h199q25 0 43 -35l266 -571l256 571q14 35 45 35z" />
    <glyph glyph-name="uni0424" unicode="&#x424;" horiz-adv-x="1785" 
d="M1427 645v197q0 129 -52 182t-148 53h-213v-667h213q96 0 148 53t52 182zM768 410v667h-209q-96 0 -148 -53t-53 -182v-197q0 -129 52 -182t149 -53h209zM1014 1323h233q168 0 297 -143t129 -338v-197q0 -195 -129 -338t-297 -143h-233v-133q0 -31 -31 -31h-184
q-31 0 -31 31v133h-229q-168 0 -297 143t-129 338v197q0 195 129 338t297 143h229v133q0 31 31 31h184q31 0 31 -31v-133z" />
    <glyph glyph-name="uni0425" unicode="&#x425;" horiz-adv-x="1134" 
d="M1008 0h-197q-25 0 -41 31l-203 436l-202 -436q-16 -31 -41 -31h-197q-37 0 -21 31l332 712l-332 713q-16 31 21 31h197q25 0 41 -31l202 -436l203 436q16 31 41 31h197q37 0 20 -31l-332 -713l332 -712q16 -31 -20 -31z" />
    <glyph glyph-name="uni0426" unicode="&#x426;" horiz-adv-x="1517" 
d="M1180 246h215q31 0 30 -31v-426q0 -31 -30 -31h-185q-31 0 -30 31v211h-1016q-31 0 -31 31v1425q0 31 31 31h184q31 0 31 -31v-1210h555v1210q0 31 31 31h184q31 0 31 -31v-1210z" />
    <glyph glyph-name="uni0427" unicode="&#x427;" horiz-adv-x="1144" 
d="M776 1487h185q31 0 30 -31v-1425q0 -31 -30 -31h-185q-31 0 -31 31v510q-53 -16 -100 -17h-199q-141 0 -242 113t-102 254v565q0 31 31 31h184q31 0 31 -31v-569q0 -55 27 -86t69 -31h205q43 0 70 31t26 86v569q0 31 31 31z" />
    <glyph glyph-name="uni0428" unicode="&#x428;" horiz-adv-x="2113" 
d="M1765 1487h185q31 0 30 -31v-1425q0 -31 -30 -31h-1786q-31 0 -31 31v1425q0 31 31 31h184q31 0 31 -31v-1210h555v1210q0 31 31 31h184q31 0 31 -31v-1210h555v1210q-1 31 30 31z" />
    <glyph glyph-name="uni0429" unicode="&#x429;" horiz-adv-x="2318" 
d="M1980 246h215q31 0 31 -31v-426q0 -31 -31 -31h-184q-31 0 -31 31v211h-1816q-31 0 -31 31v1425q0 31 31 31h184q31 0 31 -31v-1210h555v1210q0 31 31 31h184q31 0 31 -31v-1210h555v1210q0 31 30 31h185q31 0 30 -31v-1210z" />
    <glyph glyph-name="uni042A" unicode="&#x42a;" horiz-adv-x="1394" 
d="M590 246h252q86 0 130 36t44 146t-44 149q-44 38 -130 37h-252v-368zM590 860h272q182 0 291 -118t109 -314t-109 -312t-291 -116h-487q-31 0 -31 31v1210h-221q-31 0 -31 31v184q0 31 31 31h436q31 0 31 -31v-596z" />
    <glyph glyph-name="uni042B" unicode="&#x42b;" horiz-adv-x="1761" 
d="M379 246h252q86 0 130 36t44 146t-44 149q-44 38 -130 37h-252v-368zM1378 1487h189q31 0 30 -31v-1425q0 -31 -30 -31h-189q-31 0 -30 31v1425q-1 31 30 31zM379 860h272q182 0 291 -118t109 -314t-109 -312t-291 -116h-487q-31 0 -31 31v1425q0 31 31 31h184
q31 0 31 -31v-596z" />
    <glyph glyph-name="uni042C" unicode="&#x42c;" horiz-adv-x="1183" 
d="M379 246h252q86 0 130 36t44 146t-44 149q-44 38 -130 37h-252v-368zM379 860h272q182 0 291 -118t109 -314t-109 -312t-291 -116h-487q-31 0 -31 31v1425q0 31 31 31h184q31 0 31 -31v-596z" />
    <glyph glyph-name="uni042D" unicode="&#x42d;" horiz-adv-x="1159" 
d="M528 1509h95q190 0 312 -135t122 -352v-557q0 -217 -122 -354.5t-312 -137.5h-95q-182 0 -303 135.5t-123 342.5q0 31 31 30h184q33 0 33 -30q-4 -231 178 -232h95q188 0 188 246v156h-248q-31 0 -31 30v185q0 31 31 30h248v156q0 125 -46 183.5t-142 58.5h-95
q-178 0 -178 -228q0 -31 -33 -30h-184q-31 0 -31 30q4 207 124 340t302 133z" />
    <glyph glyph-name="uni042E" unicode="&#x42e;" horiz-adv-x="1744" 
d="M1376 446v590q0 96 -49 162t-135 66h-107q-86 0 -135 -66t-49 -162v-590q0 -96 49 -162t135 -65h107q86 -1 135 65t49 162zM1085 1509h107q176 0 303 -143t127 -346v-557q0 -203 -127 -346t-303 -144h-107q-176 -1 -303 143t-127 347v84h-241v-516q0 -31 -31 -31h-188
q-31 0 -31 31v1425q0 31 31 31h188q31 0 31 -31v-663h241v227q0 203 127 346t303 143z" />
    <glyph glyph-name="uni042F" unicode="&#x42f;" horiz-adv-x="1191" 
d="M813 1241h-252q-86 0 -130 -36t-44 -146.5t44 -148.5t130 -38h252v369zM541 1487h487q31 0 31 -31v-1425q0 -31 -31 -31h-184q-31 0 -31 31v596h-254q-51 -1 -87 -23q-62 -39 -77.5 -112t-15.5 -162v-299q0 -31 -31 -31h-184q-31 0 -31 31v366q0 209 117 346
q-109 119 -109 315.5t109 312.5t291 116z" />
    <glyph glyph-name="uni0430" unicode="&#x430;" horiz-adv-x="976" 
d="M389 244h100q84 0 123 39v102h-223q-27 0 -43 -20q-16 -19 -16 -49t16 -51t43 -21zM856 0h-207q-37 0 -37 49v2q-82 -53 -153 -53h-82q-113 0 -202 91t-89 221t89 213t222 83h215v21q0 45 -28 71t-76 25h-96q-80 0 -142 -47q-29 -20 -49 8l-92 121q-20 25 -4 43
q115 119 319 119h91q127 1 225 -101t98 -256v-561q0 -15 4 -32t-6 -17z" />
    <glyph glyph-name="uni0431" unicode="&#x431;" horiz-adv-x="1114" 
d="M584 723h-99q-96 0 -96 -55v-387q41 -37 84 -37h111q47 0 80.5 32.5t33.5 88.5v233q0 55 -33.5 90t-80.5 35zM580 969q152 0 258 -110.5t106 -260.5v-233q0 -150 -106.5 -258.5t-257.5 -108.5h-95q-47 0 -96 27q-4 -25 -31 -25h-184q-31 0 -31 31v790q0 147 11 330
q6 127 90 213t211 80q35 -2 85 -7t70 -6q55 -3 92 44q12 12 37 12h211q18 0 20.5 -10.5t-1.5 -28.5q-14 -82 -87 -163t-143 -81q-109 0 -211 10q-53 4 -82.5 -24.5t-37 -61t-11.5 -86.5l-4 -88q41 14 92 15h95z" />
    <glyph glyph-name="uni0432" unicode="&#x432;" horiz-adv-x="1038" 
d="M399 238h154q49 0 69 12q19 12 19 60t-18 62t-70 13h-154v-147zM399 602h160q72 0 72 64q0 59 -72 59h-160v-123zM885 248q0 -248 -287 -248h-414q-31 0 -30 31v901q0 31 30 31h414q131 0 204 -65q72 -65 72 -201t-45 -177q-24 -23 -65 -33q121 -27 121 -239z" />
    <glyph glyph-name="uni0433" unicode="&#x433;" horiz-adv-x="956" 
d="M184 963h588q31 0 31 -31v-184q0 -31 -31 -31h-373v-686q0 -31 -30 -31h-185q-31 0 -30 31v901q-1 31 30 31z" />
    <glyph glyph-name="uni0434" unicode="&#x434;" horiz-adv-x="1452" 
d="M936 246v471h-320v-148q0 -182 -65 -323h385zM1182 246h116q31 0 31 -31v-383q0 -31 -31 -31h-184q-31 0 -31 31v168h-714v-168q0 -31 -31 -31h-184q-31 0 -31 31v383q0 31 31 31h51q55 0 109 109t57 386v191q0 31 30 31h750q31 0 31 -31v-686z" />
    <glyph glyph-name="uni0435" unicode="&#x435;" horiz-adv-x="1015" 
d="M668 602v21q0 41 -34 70.5t-73 29.5h-78q-43 0 -78.5 -30.5t-35.5 -71.5v-19h299zM487 969h78q133 0 240.5 -107.5t107.5 -261.5v-133q0 -61 -61 -61h-483v-44q0 -53 33.5 -85.5t82.5 -32.5h88q38 0 53 12t19 14q3 2 15 14t19 22t23 26q20 27 50 2l131 -117q23 -20 6 -43
q-70 -84 -140.5 -130t-183.5 -46h-78q-152 0 -258 108.5t-106 258.5v233q0 150 106 260.5t258 110.5z" />
    <glyph glyph-name="uni0436" unicode="&#x436;" horiz-adv-x="1712" 
d="M1556 0h-253q-25 0 -56 29l-264 258v-256q0 -31 -31 -31h-192q-31 0 -31 31v256l-264 -258q-31 -29 -55 -29h-254q-28 0 -23 31q2 12 10 18l453 430l-424 432q-16 19 -12 35t20 17h252q20 0 45 -25l252 -266v260q0 31 31 31h192q31 0 31 -31v-260l252 266q25 25 45 25
h252q16 1 20 -15t-12 -37l-424 -432l453 -430q21 -16 10 -32q-10 -17 -23 -17z" />
    <glyph glyph-name="uni0437" unicode="&#x437;" horiz-adv-x="1056" 
d="M455 -16q-115 0 -208 78t-93 190q0 23 22 22h201q23 0 22 -22q0 -23 97 -23h45q53 -1 75 11t23 50q0 38 -9 53t-42 19h-135q-23 0 -23 23v201q0 23 23 22h135q27 4 37 7q24 7 24 52q0 44 -25 54q-26 10 -83 10h-45q-96 0 -97 -37q0 -23 -22 -22h-201q-23 0 -22 22
q0 115 93 199t208 84h127q119 0 215 -77t96 -189q0 -61 -6 -95q-15 -86 -117 -129q78 -33 106 -94t27 -149q0 -119 -99 -190t-222 -70h-127z" />
    <glyph glyph-name="uni0438" unicode="&#x438;" horiz-adv-x="1202" 
d="M184 963h185q31 0 30 -31v-522l320 530q14 23 37 23h262q31 0 31 -31v-901q0 -31 -31 -31h-184q-31 0 -31 31v522l-340 -530q-14 -23 -37 -23h-242q-31 0 -30 31v901q-1 31 30 31z" />
    <glyph glyph-name="uni0439" unicode="&#x439;" horiz-adv-x="1202" 
d="M184 963h185q31 0 30 -31v-522l320 530q14 23 37 23h262q31 0 31 -31v-901q0 -31 -31 -31h-184q-31 0 -31 31v522l-340 -530q-14 -23 -37 -23h-242q-31 0 -30 31v901q-1 31 30 31zM788 1638h144q31 0 31 -30q-2 -150 -82 -242t-219 -92h-121q-139 0 -219 92t-82 242
q0 31 30 30h144q32 0 32 -38t29 -80q29 -41 84 -41h84q55 0 84 41q29 42 29 80t32 38z" />
    <glyph glyph-name="uni043A" unicode="&#x43a;" horiz-adv-x="1116" 
d="M961 0h-254q-25 0 -56 29l-264 258v-256q0 -31 -31 -31h-192q-31 0 -31 31v901q0 31 31 31h192q31 0 31 -31v-260l252 266q25 25 45 25h252q16 1 20 -15t-12 -37l-424 -432l453 -430q21 -16 10 -32q-10 -17 -22 -17z" />
    <glyph glyph-name="uni043B" unicode="&#x43b;" horiz-adv-x="1181" 
d="M195 932q0 31 32 33h185q10 0 14 -2h571q31 0 31 -31v-901q0 -31 -31 -31h-184q-31 0 -31 31v686h-340v-311q0 -113 -54 -228t-124 -192q-18 -25 -43 0l-119 118q-18 18 0 46q94 109 95 276v307q-2 4 -2 15v184z" />
    <glyph glyph-name="uni043C" unicode="&#x43c;" horiz-adv-x="1406" 
d="M997 963h226q31 0 30 -31v-901q0 -31 -30 -31h-185q-31 0 -30 31v522l-213 -463q-12 -23 -35 -22h-113q-25 0 -35 22l-213 463v-522q0 -31 -30 -31h-185q-31 0 -30 31v901q0 31 30 31h226q25 0 36 -23l259 -559l256 559q9 23 36 23z" />
    <glyph glyph-name="uni043D" unicode="&#x43d;" horiz-adv-x="1140" 
d="M772 963h184q31 0 31 -31v-901q0 -31 -31 -31h-184q-31 0 -31 31v327h-342v-327q0 -31 -30 -31h-185q-31 0 -30 31v901q0 31 30 31h185q31 0 30 -31v-328h342v328q0 31 31 31z" />
    <glyph glyph-name="uni043E" unicode="&#x43e;" horiz-adv-x="1038" 
d="M680 365v233q0 51 -30 88t-87 37h-88q-57 0 -87 -37t-30 -88v-233q0 -51 30 -86t87 -35h88q57 0 87 35t30 86zM479 969h80q154 0 260 -109t107 -262v-233q0 -155 -106 -261t-261 -106h-80q-154 0 -260 106t-106 261v233q0 154 106 262t260 109z" />
    <glyph glyph-name="uni043F" unicode="&#x43f;" horiz-adv-x="1140" 
d="M184 963h772q31 0 31 -31v-901q0 -31 -31 -31h-184q-31 0 -31 31v686h-342v-686q0 -31 -30 -31h-185q-31 0 -30 31v901q-1 31 30 31z" />
    <glyph glyph-name="uni0440" unicode="&#x440;" horiz-adv-x="1032" 
d="M664 344v254q0 51 -27 85t-76 34h-72q-88 0 -100 -105v-284q12 -82 100 -82h72q103 0 103 98zM489 963h76q141 0 243 -113t101 -254v-250q0 -138 -105 -242t-239 -104h-76q-47 0 -100 16v-395q0 -31 -31 -31h-184q-31 0 -31 31v1311q0 31 31 31h184q29 0 31 -27
q53 27 100 27z" />
    <glyph glyph-name="uni0441" unicode="&#x441;" horiz-adv-x="985" 
d="M864 639h-186q-29 0 -35 29q-14 55 -92 55h-78q-47 0 -81 -35t-34 -90v-233q0 -55 34 -88t81 -33h90q37 0 52.5 12t19.5 14q3 2 15 14t19 22t23 26q20 27 49 2l131 -117q23 -20 7 -43q-70 -84 -141.5 -130t-186.5 -46h-74q-152 0 -258 108.5t-106 258.5v233
q0 150 106.5 260.5t257.5 110.5h74q129 0 233.5 -91.5t108.5 -201.5q0 -37 -29 -37z" />
    <glyph glyph-name="uni0442" unicode="&#x442;" horiz-adv-x="1079" 
d="M184 963h711q31 0 31 -31v-184q0 -31 -31 -31h-231v-686q0 -31 -31 -31h-184q-31 0 -31 31v686h-234q-31 0 -30 31v184q-1 31 30 31z" />
    <glyph glyph-name="uni0443" unicode="&#x443;" horiz-adv-x="1114" 
d="M823 963h197q33 0 18 -37l-544 -1301q-14 -35 -45 -35h-197q-35 0 -21 37l195 463l-350 836q-14 37 18 37h199q29 0 43 -35l221 -527l221 527q14 35 45 35z" />
    <glyph glyph-name="uni0444" unicode="&#x444;" horiz-adv-x="1533" 
d="M1165 344v254q0 51 -26 85q-27 34 -76 34h-72q-88 0 -100 -105v-284q12 -82 100 -82h72q102 0 102 98zM471 246h72q102 0 102 110v230q-4 131 -102 131h-72q-49 0 -76 -34t-26 -85v-254q0 -98 102 -98zM991 963h76q141 0 243 -113t101 -254v-250q0 -138 -105 -242
t-239 -104h-76q-47 0 -100 16v-395q0 -31 -31 -31h-184q-31 0 -31 31v397q-49 -18 -102 -18h-76q-133 0 -239 104q-105 104 -105 242v250q0 141 101 254t243 113h76q45 0 102 -27v520q0 31 31 31h184q31 0 31 -31v-520q53 27 100 27z" />
    <glyph glyph-name="uni0445" unicode="&#x445;" horiz-adv-x="946" 
d="M836 0h-199q-27 0 -47 35l-117 207l-117 -207q-20 -35 -47 -35h-200q-18 0 -25 10q-6 10 4 27l250 442l-252 447q-10 16 -4 26t24 11h201q27 0 47 -35l119 -211l119 211q20 35 47 35h201q37 0 18 -37l-250 -445l250 -444q18 -37 -22 -37z" />
    <glyph glyph-name="uni0446" unicode="&#x446;" horiz-adv-x="1325" 
d="M987 246h184q31 0 31 -31v-426q0 -31 -31 -31h-184q-31 0 -31 31v211h-772q-31 0 -30 31v901q0 31 30 31h185q31 0 30 -31v-686h342v686q0 31 31 31h184q31 0 31 -31v-686z" />
    <glyph glyph-name="uni0447" unicode="&#x447;" horiz-adv-x="1042" 
d="M446 238q-141 0 -232 110t-91 256v328q0 31 31 31h184q31 0 31 -31v-301q-1 -80 21 -114t77 -34h76q55 0 78 34t22 114v301q0 31 31 31h184q31 0 31 -31v-901q0 -31 -31 -31h-184q-31 0 -31 31v227q-14 -14 -23 -14l-16 -4l-23 -2h-135z" />
    <glyph glyph-name="uni0448" unicode="&#x448;" horiz-adv-x="1728" 
d="M1360 963h184q31 0 31 -31v-901q0 -31 -31 -31h-1360q-31 0 -30 31v901q0 31 30 31h185q31 0 30 -31v-686h342v686q0 31 31 31h184q31 0 31 -31v-686h342v686q0 31 31 31z" />
    <glyph glyph-name="uni0449" unicode="&#x449;" horiz-adv-x="1933" 
d="M1575 246h184q31 0 31 -31v-426q0 -31 -31 -31h-184q-31 0 -31 31v211h-1360q-31 0 -30 31v901q0 31 30 31h185q31 0 30 -31v-686h342v686q0 31 31 31h184q31 0 31 -31v-686h342v686q0 31 31 31h184q31 0 31 -31v-686z" />
    <glyph glyph-name="uni044A" unicode="&#x44a;" horiz-adv-x="1142" 
d="M461 246h190q55 0 84 13t29 56q0 74 -113 74h-190v-143zM461 635h203q174 0 260 -87t86 -231q0 -317 -346 -317h-418q-31 0 -31 31v686h-92q-31 0 -31 31v184q0 31 31 31h307q31 0 31 -31v-297z" />
    <glyph glyph-name="uni044B" unicode="&#x44b;" horiz-adv-x="1634" 
d="M379 246h190q55 0 84 13t29 56q0 74 -113 74h-190v-143zM379 635h203q174 0 260 -87t86 -231q0 -317 -346 -317h-418q-31 0 -31 31v901q0 31 31 31h184q31 0 31 -31v-297zM1255 965h185q31 0 30 -31v-903q0 -31 -30 -31h-185q-31 0 -30 31v903q-1 31 30 31z" />
    <glyph glyph-name="uni044C" unicode="&#x44c;" horiz-adv-x="1060" 
d="M379 246h190q55 0 84 13t29 56q0 74 -113 74h-190v-143zM379 635h203q174 0 260 -87t86 -231q0 -317 -346 -317h-418q-31 0 -31 31v901q0 31 31 31h184q31 0 31 -31v-297z" />
    <glyph glyph-name="uni044D" unicode="&#x44d;" horiz-adv-x="985" 
d="M434 969h74q152 0 258 -110.5t106 -260.5v-233q0 -150 -106.5 -258.5t-257.5 -108.5h-74q-115 0 -186.5 46t-141.5 130q-16 23 7 43l131 117q29 25 49 -2q7 -14 18 -23.5t19 -18.5t13 -13.5t13.5 -11.5t14.5 -9t17 -7t34 -5h90q47 0 80 31.5t35 82.5h-154q-31 0 -31 31
v184q0 31 31 31h154q-2 53 -36 86t-79 33h-78q-78 0 -92 -55q-6 -29 -35 -29h-186q-29 0 -29 37q4 111 108.5 202t233.5 91z" />
    <glyph glyph-name="uni044E" unicode="&#x44e;" horiz-adv-x="1607" 
d="M1249 365v233q0 51 -29 88q-30 37 -87 37h-89q-57 0 -87 -37t-29 -88v-233q0 -51 30 -86t86 -35h89q57 0 87 35q29 35 29 86zM1049 969h79q154 0 260 -109t107 -262v-233q0 -155 -106 -261t-261 -106h-79q-152 0 -257 104t-110 256h-276v-327q0 -31 -31 -31h-185
q-31 0 -30 31v903q0 31 30 31h185q31 0 31 -31v-330h276q4 154 110 260t257 105z" />
    <glyph glyph-name="uni044F" unicode="&#x44f;" horiz-adv-x="1017" 
d="M618 717h-135q-53 -1 -75 -19t-21 -64q0 -46 22 -66t74 -21h135v170zM346 0h-182q-31 0 -31 31v176q0 193 100 239q-67 32 -78 97q-12 64 -12 139q0 133 74 207t203 74h414q31 0 30 -31v-901q0 -31 -30 -31h-185q-31 0 -31 31v270h-135q-70 0 -88 -44t-18 -132v-94
q0 -31 -31 -31z" />
    <glyph glyph-name="uni0451" unicode="&#x451;" horiz-adv-x="1015" 
d="M668 602v21q0 41 -34 70.5t-73 29.5h-78q-43 0 -78.5 -30.5t-35.5 -71.5v-19h299zM487 969h78q133 0 240.5 -107.5t107.5 -261.5v-133q0 -61 -61 -61h-483v-44q0 -53 33.5 -85.5t82.5 -32.5h88q38 0 53 12t19 14q3 2 15 14t19 22t23 26q20 27 50 2l131 -117q23 -20 6 -43
q-70 -84 -140.5 -130t-183.5 -46h-78q-152 0 -258 108.5t-106 258.5v233q0 150 106 260.5t258 110.5zM590 1208v248q0 31 31 31h249q31 0 31 -31v-248q0 -31 -31 -30h-249q-31 -1 -31 30zM113 1208v248q0 31 30 31h250q31 0 31 -31v-248q0 -31 -31 -30h-250q-30 -1 -30 30z
" />
    <glyph glyph-name="uni0453" unicode="&#x453;" horiz-adv-x="956" 
d="M184 963h588q31 0 31 -31v-184q0 -31 -31 -31h-373v-686q0 -31 -30 -31h-185q-31 0 -30 31v901q-1 31 30 31zM580 1186h-189q-37 0 -20 37l153 379q12 37 43 36h213q39 0 21 -36l-178 -379q-20 -37 -43 -37z" />
    <glyph glyph-name="uni0454" unicode="&#x454;" horiz-adv-x="985" 
d="M551 -2h-74q-152 0 -258 108.5t-106 258.5v233q0 150 106.5 260.5t257.5 110.5h74q129 0 233.5 -91.5t108.5 -201.5q0 -37 -29 -37h-186q-29 0 -35 29q-14 55 -92 55h-78q-45 0 -79 -33t-36 -86h154q31 0 31 -31v-184q0 -31 -31 -31h-154q2 -51 35 -82.5t80 -31.5h90
q37 0 52.5 12t19.5 14q3 2 15 14t19 22t23 26q20 27 49 2l131 -117q23 -20 7 -43q-70 -84 -141.5 -130t-186.5 -46z" />
    <glyph glyph-name="uni0456" unicode="&#x456;" horiz-adv-x="573" 
d="M164 31v903q0 31 31 31h184q31 0 31 -31v-903q0 -31 -31 -31h-184q-31 0 -31 31zM160 1219v237q0 31 30 31h193q31 0 31 -31v-237q0 -31 -31 -31h-193q-30 0 -30 31z" />
    <glyph glyph-name="uni0457" unicode="&#x457;" horiz-adv-x="573" 
d="M164 31v903q0 31 31 31h184q31 0 31 -31v-903q0 -31 -31 -31h-184q-31 0 -31 31zM369 1208v248q0 31 30 31h250q31 0 31 -31v-248q0 -31 -31 -30h-250q-30 -1 -30 30zM-109 1208v248q0 31 31 31h250q31 0 31 -31v-248q0 -31 -31 -30h-250q-31 -1 -31 30z" />
    <glyph glyph-name="uni0458" unicode="&#x458;" horiz-adv-x="567" 
d="M158 -106v1040q0 31 30 31h185q31 0 30 -31v-1057q-1 -133 -81 -238t-209 -141q-27 -8 -39 21l-76 170q-12 29 18 39q57 20 100 64q42 44 42 102zM160 1219v237q0 31 30 31h193q31 0 31 -31v-237q0 -31 -31 -31h-193q-30 0 -30 31z" />
    <glyph glyph-name="uni045C" unicode="&#x45c;" horiz-adv-x="1116" 
d="M961 0h-254q-25 0 -56 29l-264 258v-256q0 -31 -31 -31h-192q-31 0 -31 31v901q0 31 31 31h192q31 0 31 -31v-260l252 266q25 25 45 25h252q16 1 20 -15t-12 -37l-424 -432l453 -430q21 -16 10 -32q-10 -17 -22 -17zM659 1186h-188q-37 0 -20 37l153 379q12 37 43 36h213
q39 0 21 -36l-179 -379q-20 -37 -43 -37z" />
    <glyph glyph-name="uni045D" unicode="&#x45d;" horiz-adv-x="1202" 
d="M184 963h185q31 0 30 -31v-522l320 530q14 23 37 23h262q31 0 31 -31v-901q0 -31 -31 -31h-184q-31 0 -31 31v522l-340 -530q-14 -23 -37 -23h-242q-31 0 -30 31v901q-1 31 30 31zM676 1186h-168q-23 0 -43 37l-178 379q-18 37 20 36h193q31 1 43 -36l153 -379
q16 -37 -20 -37z" />
    <glyph glyph-name="uni045E" unicode="&#x45e;" horiz-adv-x="1114" 
d="M823 963h197q33 0 18 -37l-544 -1301q-14 -35 -45 -35h-197q-35 0 -21 37l195 463l-350 836q-14 37 18 37h199q29 0 43 -35l221 -527l221 527q14 35 45 35zM616 1274h-120q-139 0 -220 92q-80 92 -81 242q0 31 30 30h144q31 0 31 -38t30 -80q29 -41 84 -41h84q55 0 84 41
t30 80t31 38h144q31 0 31 -30q-2 -150 -82 -242t-220 -92z" />
    <glyph glyph-name="uni0490" unicode="&#x490;" horiz-adv-x="1148" 
d="M801 1671h184q31 0 31 -31v-368q0 -31 -31 -31h-606v-1210q0 -31 -31 -31h-184q-31 0 -31 31v1425q0 31 31 31h606v153q0 31 31 31z" />
    <glyph glyph-name="uni0491" unicode="&#x491;" horiz-adv-x="956" 
d="M588 1147h184q31 0 31 -31v-368q0 -31 -31 -31h-373v-686q0 -31 -30 -31h-185q-31 0 -30 31v901q0 31 30 31h373v153q0 31 31 31z" />
    <glyph glyph-name="uni04C0" unicode="&#x4c0;" horiz-adv-x="577" 
d="M164 31v1425q0 31 31 31h188q31 0 31 -31v-1425q0 -31 -31 -31h-188q-31 0 -31 31z" />
    <glyph glyph-name="uni04E2" unicode="&#x4e2;" horiz-adv-x="1292" 
d="M164 1487h184q31 0 31 -31v-944l508 952q10 23 37 23h204q31 0 31 -31v-1425q0 -31 -31 -31h-184q-31 0 -31 31v944l-507 -952q-12 -23 -37 -23h-205q-31 0 -31 31v1425q0 31 31 31zM979 1765h-664q-31 0 -30 31v184q0 31 30 31h664q31 0 31 -31v-184q0 -31 -31 -31z" />
    <glyph glyph-name="uni04E3" unicode="&#x4e3;" horiz-adv-x="1202" 
d="M184 963h185q31 0 30 -31v-522l320 530q14 23 37 23h262q31 0 31 -31v-901q0 -31 -31 -31h-184q-31 0 -31 31v522l-340 -530q-14 -23 -37 -23h-242q-31 0 -30 31v901q-1 31 30 31zM934 1241h-664q-31 0 -30 31v184q0 31 30 31h664q31 0 31 -31v-184q0 -31 -31 -31z" />
    <glyph glyph-name="uni04E8" unicode="&#x4e8;" horiz-adv-x="1212" 
d="M553 219h106q86 0 136 66q49 66 49 161v175h-475v-175q0 -96 49 -162t135 -65zM659 1264h-106q-86 0 -135 -66t-49 -162v-170h475v170q0 96 -49 162q-50 66 -136 66zM553 1509h106q175 0 303 -143t128 -346v-557q0 -203 -127 -346t-304 -144h-106q-176 -1 -303 143
t-127 347v557q0 203 127 346t303 143z" />
    <glyph glyph-name="uni04E9" unicode="&#x4e9;" horiz-adv-x="1038" 
d="M475 244h88q55 0 85 32t32 82h-322q2 -50 32 -82t85 -32zM563 723h-88q-55 0 -85 -35t-32 -84h322q-2 49 -32 84t-85 35zM479 969h80q154 0 260 -109t107 -262v-233q0 -155 -106 -261t-261 -106h-80q-154 0 -260 106t-106 261v233q0 154 106 262t260 109z" />
    <glyph glyph-name="uni04EC" unicode="&#x4ec;" horiz-adv-x="1159" 
d="M528 1509h95q190 0 312 -135t122 -352v-557q0 -217 -122 -354.5t-312 -137.5h-95q-182 0 -303 135.5t-123 342.5q0 31 31 30h184q33 0 33 -30q-4 -231 178 -232h95q188 0 188 246v156h-248q-31 0 -31 30v185q0 31 31 30h248v156q0 125 -46 183.5t-142 58.5h-95
q-178 0 -178 -228q0 -31 -33 -30h-184q-31 0 -31 30q4 207 124 340t302 133zM907 1702h-250q-31 0 -30 31v247q0 31 30 31h250q31 0 31 -31v-247q0 -31 -31 -31zM430 1702h-250q-31 0 -30 31v247q0 31 30 31h250q31 0 31 -31v-247q0 -31 -31 -31z" />
    <glyph glyph-name="uni04ED" unicode="&#x4ed;" horiz-adv-x="985" 
d="M434 969h74q152 0 258 -110.5t106 -260.5v-233q0 -150 -106.5 -258.5t-257.5 -108.5h-74q-115 0 -186.5 46t-141.5 130q-16 23 7 43l131 117q29 25 49 -2q7 -14 18 -23.5t19 -18.5t13 -13.5t13.5 -11.5t14.5 -9t17 -7t34 -5h90q47 0 80 31.5t35 82.5h-154q-31 0 -31 31
v184q0 31 31 31h154q-2 53 -36 86t-79 33h-78q-78 0 -92 -55q-6 -29 -35 -29h-186q-29 0 -29 37q4 111 108.5 202t233.5 91zM604 1487h250q31 0 31 -31v-248q0 -31 -31 -30h-250q-31 0 -31 30v248q0 31 31 31zM377 1178h-250q-31 0 -31 30v248q0 31 31 31h250q31 0 31 -31
v-248q0 -30 -31 -30z" />
    <glyph glyph-name="uni04EE" unicode="&#x4ee;" horiz-adv-x="1255" 
d="M934 1487h196q33 0 19 -37l-635 -1415q-14 -35 -45 -35h-197q-35 0 -20 37l252 557l-398 856q-18 37 19 37h199q25 0 43 -35l266 -571l256 571q14 35 45 35zM961 1765h-664q-31 0 -31 31v184q0 31 31 31h664q31 0 30 -31v-184q1 -31 -30 -31z" />
    <glyph glyph-name="uni04EF" unicode="&#x4ef;" horiz-adv-x="1114" 
d="M823 963h197q33 0 18 -37l-544 -1301q-14 -35 -45 -35h-197q-35 0 -21 37l195 463l-350 836q-14 37 18 37h199q29 0 43 -35l221 -527l221 527q14 35 45 35zM889 1241h-664q-31 0 -30 31v184q0 31 30 31h664q31 0 31 -31v-184q0 -31 -31 -31z" />
    <glyph glyph-name="Macute" unicode="&#x1e3e;" horiz-adv-x="1505" 
d="M1085 1487h246q31 0 31 -31v-1425q0 -31 -31 -31h-184q-31 0 -31 31v932l-272 -932q-8 -31 -39 -31h-105q-29 0 -38 31l-273 932v-932q0 -31 -31 -31h-184q-31 0 -31 31v1425q0 31 31 31h246q31 0 41 -31l291 -993l292 993q8 31 41 31zM840 2163h213q39 0 20 -37
l-178 -379q-20 -37 -43 -37h-188q-37 0 -21 37l154 379q12 37 43 37z" />
    <glyph glyph-name="macute" unicode="&#x1e3f;" horiz-adv-x="1701" 
d="M1118 963h76q156 0 258 -112t102 -255v-565q0 -31 -30 -31h-185q-31 0 -30 31v565q0 57 -35 89t-80 32h-102q-45 0 -79 -31t-36 -90v-565q0 -31 -31 -31h-184q-31 0 -31 31v565q0 57 -35 89t-80 32h-102q-45 0 -79 -31t-36 -90v-565q0 -31 -30 -31h-185q-31 0 -30 31v901
q0 31 30 31h185q31 0 30 -31v-8q74 39 142 39h75q141 0 244 -97q115 97 258 97zM969 1186h-189q-37 0 -20 37l153 379q12 37 43 36h213q39 0 21 -36l-178 -379q-20 -37 -43 -37z" />
    <glyph glyph-name="Wgrave" unicode="&#x1e80;" horiz-adv-x="1878" 
d="M1571 1487h198q33 0 27 -31l-307 -1425q-6 -31 -39 -31h-143q-29 0 -39 31l-328 993l-328 -993q-10 -31 -39 -31h-143q-33 0 -39 31l-307 1425q-6 31 25 31h198q31 0 37 -31l184 -969l293 969q10 31 39 31h160q29 0 39 -31l295 -969l182 969q6 31 35 31zM1014 1710h-168
q-23 0 -43 37l-178 379q-18 37 20 37h193q31 0 43 -37l153 -379q16 -37 -20 -37z" />
    <glyph glyph-name="wgrave" unicode="&#x1e81;" horiz-adv-x="1398" 
d="M1112 963h188q35 0 25 -35l-242 -895q-10 -33 -39 -33h-149q-29 0 -39 33l-158 532l-157 -532q-10 -33 -39 -33h-150q-29 0 -39 33l-241 895q-10 35 24 35h189q27 0 37 -35l129 -563l135 563q10 35 37 35h151q27 0 37 -35l135 -563l129 563q10 35 37 35zM772 1186h-168
q-23 0 -43 37l-178 379q-18 37 20 36h193q31 1 43 -36l154 -379q16 -37 -21 -37z" />
    <glyph glyph-name="Wacute" unicode="&#x1e82;" horiz-adv-x="1878" 
d="M1571 1487h198q33 0 27 -31l-307 -1425q-6 -31 -39 -31h-143q-29 0 -39 31l-328 993l-328 -993q-10 -31 -39 -31h-143q-33 0 -39 31l-307 1425q-6 31 25 31h198q31 0 37 -31l184 -969l293 969q10 31 39 31h160q29 0 39 -31l295 -969l182 969q6 31 35 31zM1028 2163h213
q39 0 21 -37l-179 -379q-20 -37 -43 -37h-188q-37 0 -21 37l154 379q12 37 43 37z" />
    <glyph glyph-name="wacute" unicode="&#x1e83;" horiz-adv-x="1398" 
d="M1112 963h188q35 0 25 -35l-242 -895q-10 -33 -39 -33h-149q-29 0 -39 33l-158 532l-157 -532q-10 -33 -39 -33h-150q-29 0 -39 33l-241 895q-10 35 24 35h189q27 0 37 -35l129 -563l135 563q10 35 37 35h151q27 0 37 -35l135 -563l129 563q10 35 37 35zM999 1638
q39 0 21 -36l-178 -379q-20 -37 -43 -37h-189q-36 0 -20 37l153 379q12 37 43 36h213z" />
    <glyph glyph-name="Wdieresis" unicode="&#x1e84;" horiz-adv-x="1878" 
d="M1571 1487h198q33 0 27 -31l-307 -1425q-6 -31 -39 -31h-143q-29 0 -39 31l-328 993l-328 -993q-10 -31 -39 -31h-143q-33 0 -39 31l-307 1425q-6 31 25 31h198q31 0 37 -31l184 -969l293 969q10 31 39 31h160q29 0 39 -31l295 -969l182 969q6 31 35 31zM1022 1733v247
q0 31 31 31h250q31 0 30 -31v-247q0 -31 -30 -31h-250q-31 0 -31 31zM545 1733v247q0 31 30 31h250q31 0 31 -31v-247q0 -31 -31 -31h-250q-30 0 -30 31z" />
    <glyph glyph-name="wdieresis" unicode="&#x1e85;" horiz-adv-x="1398" 
d="M1112 963h188q35 0 25 -35l-242 -895q-10 -33 -39 -33h-149q-29 0 -39 33l-158 532l-157 -532q-10 -33 -39 -33h-150q-29 0 -39 33l-241 895q-10 35 24 35h189q27 0 37 -35l129 -563l135 563q10 35 37 35h151q27 0 37 -35l135 -563l129 563q10 35 37 35zM780 1208v248
q0 31 31 31h250q31 0 31 -31v-248q0 -31 -31 -30h-250q-31 -1 -31 30zM303 1208v248q0 31 31 31h250q31 0 30 -31v-248q0 -31 -30 -30h-250q-31 -1 -31 30z" />
    <glyph glyph-name="Ygrave" unicode="&#x1ef2;" horiz-adv-x="1146" 
d="M858 1487h203q37 0 20 -31l-387 -803v-622q0 -31 -30 -31h-185q-31 0 -30 31v622l-383 803q-16 31 20 31h203q29 0 41 -31l241 -543l246 543q12 31 41 31zM637 1710h-168q-23 0 -43 37l-178 379q-18 37 20 37h193q31 0 43 -37l153 -379q16 -37 -20 -37z" />
    <glyph glyph-name="ygrave" unicode="&#x1ef3;" horiz-adv-x="1114" 
d="M823 963h197q33 0 18 -37l-544 -1301q-14 -35 -45 -35h-197q-35 0 -21 37l195 463l-350 836q-14 37 18 37h199q29 0 43 -35l221 -527l221 527q14 35 45 35zM455 1638q31 0 43 -36l153 -379q16 -37 -20 -37h-168q-23 0 -43 37l-178 379q-18 37 20 36h193z" />
    <glyph glyph-name="endash" unicode="&#x2013;" horiz-adv-x="1271" 
d="M1118 358h-964q-31 0 -31 31v184q0 31 31 31h964q31 0 31 -31v-184q0 -31 -31 -31z" />
    <glyph glyph-name="emdash" unicode="&#x2014;" horiz-adv-x="1423" 
d="M1270 358h-1116q-31 0 -31 31v184q0 31 31 31h1116q31 0 30 -31v-184q1 -31 -30 -31z" />
    <glyph glyph-name="quoteleft" unicode="&#x2018;" horiz-adv-x="516" 
d="M383 932h-250q-31 0 -31 31v286q0 219 129 367q18 20 41 0l84 -78q27 -25 9 -43q-31 -31 -47 -74t-19 -73q-2 -30 -2 -86l-16 -21h102q31 0 31 -31v-247q0 -31 -31 -31z" />
    <glyph glyph-name="quoteright" unicode="&#x2019;" horiz-adv-x="536" 
d="M143 1487h250q31 0 31 -31v-287q0 -219 -129 -366q-18 -20 -41 0l-84 78q-27 25 -2 49t41 68q16 42 18 72t2 87l17 21h-103q-31 0 -30 30v248q-1 31 30 31z" />
    <glyph glyph-name="quotesinglbase" unicode="&#x201a;" horiz-adv-x="516" 
d="M133 309h250q31 0 31 -30v-287q0 -219 -129 -367q-18 -20 -41 0l-84 78q-27 25 -2 49t41 68q16 42 18 72t2 88l17 20h-103q-31 0 -31 31v248q0 30 31 30z" />
    <glyph glyph-name="quotedblleft" unicode="&#x201c;" horiz-adv-x="978" 
d="M846 932h-250q-31 0 -31 31v286q0 219 129 367q18 20 41 0l84 -78q27 -26 2 -50t-41 -67t-18 -73t-2 -86l-17 -21h103q31 0 31 -31v-247q0 -31 -31 -31zM383 932h-250q-31 0 -31 31v286q0 219 129 367q18 20 41 0l84 -78q27 -25 9 -43q-31 -31 -47 -74t-19 -73
q-2 -30 -2 -86l-16 -21h102q31 0 31 -31v-247q0 -31 -31 -31z" />
    <glyph glyph-name="quotedblright" unicode="&#x201d;" horiz-adv-x="999" 
d="M606 1487h250q31 0 31 -31v-287q0 -219 -129 -366q-18 -20 -41 0l-84 78q-27 25 -2 49t41 68q16 42 18 72t2 87l17 21h-103q-31 0 -31 30v248q0 31 31 31zM143 1487h250q31 0 31 -31v-287q0 -219 -129 -366q-18 -20 -41 0l-84 78q-27 25 -2 49t41 68q16 42 18 72t2 87
l17 21h-103q-31 0 -30 30v248q-1 31 30 31z" />
    <glyph glyph-name="quotedblbase" unicode="&#x201e;" horiz-adv-x="978" 
d="M596 309h250q31 0 31 -30v-287q0 -219 -129 -367q-18 -20 -41 0l-84 78q-27 25 -9 43q60 60 66 146q2 30 2 88l16 20h-102q-31 0 -31 31v248q0 30 31 30zM133 309h250q31 0 31 -30v-287q0 -219 -129 -367q-18 -20 -41 0l-84 78q-27 25 -2 49t41 68q16 42 18 72t2 88
l17 20h-103q-31 0 -31 31v248q0 30 31 30z" />
    <glyph glyph-name="dagger" unicode="&#x2020;" horiz-adv-x="886" 
d="M567 963h207q31 0 31 -31v-184q0 -31 -31 -31h-207v-953q0 -31 -30 -30h-185q-31 0 -30 30v953h-209q-31 0 -31 31v184q0 31 31 31h209v501q0 31 30 31h185q31 0 30 -31v-501z" />
    <glyph glyph-name="daggerdbl" unicode="&#x2021;" horiz-adv-x="886" 
d="M567 717v-205h207q31 0 31 -31v-184q0 -31 -31 -31h-207v-502q0 -31 -30 -30h-185q-31 0 -30 30v502h-209q-31 0 -31 31v184q0 31 31 31h209v205h-209q-31 0 -31 31v184q0 31 31 31h209v501q0 31 30 31h185q31 0 30 -31v-501h207q31 0 31 -31v-184q0 -31 -31 -31h-207z
" />
    <glyph glyph-name="bullet" unicode="&#x2022;" horiz-adv-x="720" 
d="M164 588v248q0 68 65 67h258q70 0 70 -67v-248q0 -68 -70 -68h-258q-65 0 -65 68z" />
    <glyph glyph-name="ellipsis" unicode="&#x2026;" horiz-adv-x="1753" 
d="M1339 31v248q0 31 31 30h250q31 0 31 -30v-248q0 -31 -31 -31h-250q-31 0 -31 31zM721 31v248q0 31 31 30h249q31 0 31 -30v-248q0 -31 -31 -31h-249q-31 0 -31 31zM102 31v248q0 31 31 30h250q31 0 31 -30v-248q0 -31 -31 -31h-250q-31 0 -31 31z" />
    <glyph glyph-name="perthousand" unicode="&#x2030;" horiz-adv-x="1847" 
d="M1675 197v6q0 37 -37 37h-8q-35 0 -35 -37v-6q0 -35 35 -35h8q37 0 37 35zM1044 197v6q0 37 -36 37h-9q-35 0 -34 -37v-6q0 -35 34 -35h9q36 0 36 35zM1624 401h27q82 0 135 -54t53 -136v-23q0 -82 -53 -135t-135 -53h-27q-84 0 -136 53t-52 135v23q0 82 53 136t135 54z
M993 401h27q82 0 135 -54t53 -136v-23q0 -82 -53 -135t-135 -53h-27q-84 0 -136 53t-52 135v23q0 82 53 136t135 54zM322 1282v6q0 37 -37 37h-9q-35 0 -34 -37v-6q0 -35 34 -35h9q37 0 37 35zM969 1487h209q39 0 20 -31l-827 -1425q-18 -31 -41 -31h-209q-39 0 -21 31
l828 1425q18 31 41 31zM270 1487h27q82 0 135 -54t53 -137v-22q0 -82 -52 -135t-136 -54h-27q-82 -1 -135 53t-53 136v22q0 82 53 136t135 55z" />
    <glyph glyph-name="guilsinglleft" unicode="&#x2039;" horiz-adv-x="677" 
d="M565 872v-217q0 -23 -37 -45l-151 -84l151 -84q37 -23 37 -45v-217q0 -16 -11 -20t-26 4l-385 248q-31 20 -30 53v123q-1 33 30 53l385 248q14 8 26 4t11 -21z" />
    <glyph glyph-name="guilsinglright" unicode="&#x203a;" horiz-adv-x="677" 
d="M565 465q0 -33 -30 -53l-385 -248q-14 -8 -26 -4q-11 4 -11 20v217q0 25 37 45l151 84l-151 84q-37 23 -37 45v217q0 16 11 21q12 4 26 -4l385 -248q31 -20 30 -53v-123z" />
    <glyph glyph-name="fraction" unicode="&#x2044;" horiz-adv-x="204" 
d="M463 1487h86q39 0 20 -31l-827 -1425q-18 -31 -41 -31h-86q-39 0 -21 31l828 1425q18 31 41 31z" />
    <glyph glyph-name="Euro" unicode="&#x20ac;" horiz-adv-x="1425" 
d="M1108 481h184q31 0 31 -30q-2 -207 -123 -342t-303 -136h-94q-191 -1 -313 137t-121 355v14h-236q-31 0 -31 31v164q0 31 31 31h236v73h-236q-31 0 -31 31v164q0 31 31 31h236v18q0 217 121 352q122 135 313 135h94q182 0 302 -133t124 -340q0 -31 -31 -30h-184
q-33 0 -33 30q0 227 -178 228h-94q-97 0 -143 -58t-46 -184v-18h293q31 0 31 -31v-164q0 -31 -31 -31h-293v-73h293q31 0 31 -31v-164q0 -31 -31 -31h-293v-14q0 -246 189 -246h94q182 0 178 232q0 30 33 30z" />
    <glyph glyph-name="hryvnia" unicode="&#x20b4;" horiz-adv-x="1179" 
d="M1036 778h-110q-41 -41 -97 -73h207q31 0 31 -31v-82q0 -31 -31 -31h-628q-50 -55 -50 -151t52 -144q52 -49 133 -49h94q74 0 126 47t54 121l2 59q0 31 31 31h186q31 0 31 -31v-59q0 -176 -130 -295t-300 -119h-94q-176 0 -303 119t-127 301q0 86 26 170q-25 4 -24 31v82
q0 31 30 31h76q31 39 80 73h-156q-31 0 -30 31v82q0 31 30 31h592q76 49 76 174q0 70 -43 120t-115 50h-106q-70 0 -121 -54t-51 -133v-39q0 -31 -31 -30h-186q-31 0 -31 30v39q-2 185 126 309t294 123h106q170 1 287 -113t117 -292q0 -102 -37 -184h14q31 0 31 -31v-82
q0 -31 -31 -31z" />
    <glyph glyph-name="uni2116" unicode="&#x2116;" horiz-adv-x="2250" 
d="M1384 217v184q0 31 31 31h692q31 0 31 -31v-184q0 -31 -31 -31h-692q-31 0 -31 31zM1907 993v123q0 139 -127 139h-41q-127 0 -127 -139v-123q0 -139 127 -139h41q127 0 127 139zM944 1487h184q31 0 31 -31v-1425q0 -31 -31 -31h-204q-27 0 -37 23l-508 952v-944
q0 -31 -31 -31h-184q-31 0 -31 31v1425q0 31 31 31h205q25 0 37 -23l507 -952v944q0 31 31 31zM1731 1491h59q146 0 246 -112t100 -255v-141q0 -143 -99 -255t-247 -112h-59q-150 0 -248 111t-99 256v141q0 145 98 256t249 111z" />
    <glyph glyph-name="uni2120" unicode="&#x2120;" horiz-adv-x="1572" 
d="M1337 1487h123q31 0 31 -31v-463q0 -31 -31 -30h-61q-31 0 -31 30v340l-201 -340q-18 -31 -39 -30h-43q-20 0 -38 30l-201 340v-340q0 -31 -31 -30h-61q-31 0 -31 30v463q0 31 31 31h123q25 0 41 -31l188 -338l190 338q18 31 41 31zM332 952q-120 0 -184 44
q-65 44 -66 112q0 16 18 16h82q18 0 19 -16q1 -39 109 -39t134 7t25 38q0 31 -23 40t-137 14q-227 10 -227 171q0 90 59 125t187 35q248 0 252 -164q0 -18 -15 -18h-82q-18 1 -19 23t-28 32q-28 10 -110 10t-105 -8t-23 -30t6 -32q13 -24 141 -30t183 -47q56 -41 56 -120
t-66 -121t-186 -42z" />
    <glyph glyph-name="trademark" unicode="&#x2122;" horiz-adv-x="1595" 
d="M1360 1487h123q31 0 30 -31v-463q0 -31 -30 -30h-62q-31 0 -30 30v340l-201 -340q-18 -31 -39 -30h-43q-20 0 -39 30l-201 340v-340q0 -31 -30 -30h-62q-31 0 -31 30v463q0 31 31 31h123q25 0 41 -31l188 -338l191 338q18 31 41 31zM113 1487h489q31 0 31 -31v-61
q0 -31 -31 -31h-182v-371q0 -31 -31 -30h-61q-31 0 -31 30v371h-184q-31 0 -31 31v61q0 31 31 31z" />
    <glyph glyph-name="oneeighth" unicode="&#x215b;" horiz-adv-x="1480" 
d="M1071 188q1 -33 23 -52t57 -19t59 19t23 52q0 33 -23 55t-55 21h-6q-33 0 -55 -22t-23 -54zM1149 371h6q33 -1 55 21t23 54q0 32 -24 52q-25 20 -59 20t-56 -19t-23 -53q1 -34 23 -54q22 -21 55 -21zM1358 183q0 -71 -50 -127t-130 -56h-52q-80 0 -130 56t-50 127t70 134
q-70 63 -70 135t50 127q50 56 130 56h52q80 0 130 -56q50 -55 50 -127t-70 -135q70 -63 70 -134zM246 885v571q0 31 30 31h66q31 0 31 -31v-571q0 -31 -31 -31h-66q-30 0 -30 31zM1081 1487h86q39 0 21 -31l-828 -1425q-18 -31 -41 -31h-86q-38 0 -20 31l827 1425
q18 31 41 31z" />
    <glyph glyph-name="threeeighths" unicode="&#x215c;" horiz-adv-x="1515" 
d="M1184 264q-33 0 -56 -22q-22 -22 -22 -54q0 -33 22 -52t58 -19q34 0 58 19t24 52t-23 55t-55 21h-6zM1184 371h6q34 -1 56 21t22 54t-24 52t-58 20t-58 -19q-22 -19 -22 -53t22 -54q22 -21 56 -21zM1393 183q-1 -71 -51 -127t-130 -56h-51q-80 0 -130 56t-50 127t70 134
q-70 63 -70 135t50 127q50 56 130 56h51q80 0 130 -56q50 -55 50 -127t-69 -135q70 -63 70 -134zM1116 1487h86q39 0 21 -31l-828 -1425q-18 -31 -41 -31h-86q-38 0 -20 31l827 1425q18 31 41 31zM350 854h-51q-74 0 -125 51t-51 119v27q0 31 31 30h61q31 0 31 -30v-15
q0 -27 22 -46t56 -19t58 19t24 52t-23 55t-55 21h-47q-31 0 -31 31v45q0 31 31 31h47q34 -1 56 21t22 54t-24 52t-58 20t-57 -19q-22 -19 -21 -46v-15q0 -31 -31 -30h-61q-31 0 -31 30v27q0 68 51 119t125 51h51q80 0 130 -56q50 -55 50 -127t-69 -135q69 -63 69 -134
t-50 -127t-130 -56z" />
    <glyph glyph-name="fiveeighths" unicode="&#x215d;" horiz-adv-x="1515" 
d="M1184 264q-33 0 -56 -22q-22 -22 -22 -54q0 -33 22 -52t58 -19q34 0 58 19t24 52t-23 55t-55 21h-6zM1184 371h6q34 -1 56 21t22 54t-24 52t-58 20t-58 -19q-22 -19 -22 -53t22 -54q22 -21 56 -21zM1393 183q-1 -71 -51 -127t-130 -56h-51q-80 0 -130 56t-50 127t70 134
q-70 63 -70 135t50 127q50 56 130 56h51q80 0 130 -56q50 -55 50 -127t-69 -135q70 -63 70 -134zM1116 1487h86q39 0 21 -31l-828 -1425q-18 -31 -41 -31h-86q-38 0 -20 31l827 1425q18 31 41 31zM530 1044q0 -78 -50 -135t-130 -57h-51q-74 0 -125 51t-51 119v27
q0 31 31 30h61q31 0 31 -30v-15q0 -27 22 -46t54 -19q80 0 84 86q6 128 -110 108q-36 -6 -56 -24h-86q-31 0 -31 30v287q0 31 31 31h325q31 0 31 -31v-57q0 -31 -31 -31h-237v-117q44 23 114 16q174 -17 174 -223z" />
    <glyph glyph-name="seveneighths" unicode="&#x215e;" horiz-adv-x="1495" 
d="M1085 188q1 -33 23 -52t57 -19t59 19t23 52q0 33 -22 55q-23 22 -56 21h-6q-33 0 -55 -22t-23 -54zM1163 371h6q33 -1 56 21t23 54t-24 53q-24 19 -59 19t-57 -19t-23 -53q1 -34 23 -54q22 -21 55 -21zM1192 0h-51q-80 0 -130 56t-50 127t69 134q-70 63 -70 135t51 127
q50 56 130 56h51q80 0 130 -56q50 -55 50 -127t-69 -135q69 -63 69 -134t-50 -127t-130 -56zM1096 1487h86q39 0 20 -31l-827 -1425q-18 -31 -41 -31h-86q-39 0 -21 31l828 1425q18 31 41 31zM510 1456v-59q0 -18 -8 -35l-221 -481q-16 -29 -33 -29h-86q-31 0 -19 29
l219 483h-208q-31 0 -31 31v61q0 31 31 31h325q31 0 31 -31z" />
    <glyph glyph-name="partialdiff" unicode="&#x2202;" horiz-adv-x="1165" 
d="M633 227q53 -1 107 43t63 144q12 164 -32 226q-45 62 -195 64t-189 -58q-39 -62 -33 -228q8 -190 195 -191h84zM530 1509h91q179 -1 291 -117t130 -296q39 -352 9 -682q-18 -205 -130 -319t-288 -113h-84q-184 0 -310 114t-135 326q-10 256 109 386t360 130
q180 0 232 -29q0 97 -11 185q-10 88 -60 130t-118 42h-86q-76 0 -126 -46t-50 -139v-34q0 -31 -30 -31h-187q-31 0 -31 31v34q0 186 123 307t301 121z" />
    <glyph glyph-name="emptyset" unicode="&#x2205;" horiz-adv-x="1212" 
d="M553 219h106q86 0 136 66q49 66 49 161v578l-348 -797q32 -8 57 -8zM659 1264h-106q-86 0 -135 -66t-49 -162v-508l319 734q-8 2 -29 2zM1090 463q0 -203 -127 -346t-304 -144h-106q-84 0 -160 35q-8 -8 -24 -8h-197q-37 0 -20 31l59 135q-88 133 -88 297v557
q0 203 127 346t303 143h106q76 0 138 -26q12 4 18 4h197q32 0 20 -31l-49 -115q106 -139 107 -321v-557z" />
    <glyph glyph-name="product" unicode="&#x220f;" horiz-adv-x="1052" 
d="M154 963h747q29 0 29 -31v-901q0 -31 -31 -31h-184q-31 0 -31 31v686h-315v-686q0 -31 -31 -31h-184q-31 0 -31 31v901q0 31 31 31z" />
    <glyph glyph-name="summation" unicode="&#x2211;" horiz-adv-x="1120" 
d="M123 1350v106q0 31 31 31h813q31 0 30 -33v-182q0 -31 -30 -31h-443l340 -428q29 -37 29 -49v-43q0 -16 -29 -49l-340 -424l443 -2q31 0 30 -31l-2 -184q0 -31 -28 -31h-813q-31 0 -31 31v106q0 18 31 58l438 546l-438 551q-31 40 -31 58z" />
    <glyph glyph-name="minus" unicode="&#x2212;" horiz-adv-x="1052" 
d="M154 723h747q29 0 29 -31v-184q0 -31 -31 -31h-745q-31 0 -31 31v184q0 31 31 31z" />
    <glyph glyph-name="radical" unicode="&#x221a;" horiz-adv-x="1220" 
d="M129 688h184q25 0 37 -33l123 -346l375 1145q12 33 37 33h205q37 0 24 -33l-487 -1421q-10 -33 -39 -33h-207q-27 0 -39 33l-238 622q-12 33 25 33z" />
    <glyph glyph-name="infinity" unicode="&#x221e;" horiz-adv-x="1734" 
d="M1391 537v36q0 63 -37 103t-107 41h-63q-66 0 -108 -41t-42 -103v-36q0 -59 42 -101t108 -43h63q70 -1 107 41t37 103zM700 537v36q0 63 -38 104q-39 40 -111 40h-64q-65 0 -103 -41t-38 -103v-36q0 -61 38 -103t103 -41h64q72 0 111 41q38 42 38 103zM1184 963h76
q156 1 264 -101t108 -276v-62q0 -172 -108 -273t-264 -101h-76q-90 0 -175 66t-141 157q-53 -92 -139 -158t-178 -65h-76q-153 0 -263 102t-110 272v62q0 172 111 274t262 103h76q92 0 178 -66t139 -160q54 94 140 160t176 66z" />
    <glyph glyph-name="integral" unicode="&#x222b;" horiz-adv-x="970" 
d="M696 1487h142q31 0 30 -31v-184q0 -31 -30 -31h-19q-111 0 -161 -42t-50 -159v-1065q0 -174 -91 -279t-243 -106h-141q-31 0 -31 31v184q0 31 31 31h19q110 0 160 42t50 159v1065q0 174 91 280t243 105z" />
    <glyph glyph-name="approxequal" unicode="&#x2248;" horiz-adv-x="1142" 
d="M967 440l69 -137q14 -23 -20 -45q-106 -72 -238 -83t-241 50q-164 98 -326 -12q-18 -12 -35 16l-70 138q-12 23 21 45q105 74 241 84t240 -52q158 -100 324 13q23 14 35 -17zM967 823l69 -137q14 -23 -20 -45q-106 -72 -238 -83t-241 50q-164 98 -326 -12q-18 -12 -35 16
l-70 138q-12 25 21 45q105 74 241 84t240 -52q158 -100 324 13q23 14 35 -17z" />
    <glyph glyph-name="notequal" unicode="&#x2260;" horiz-adv-x="970" 
d="M709 1384h196q33 0 21 -30l-205 -467h76q31 0 30 -31v-164q0 -31 -30 -30h-174l-41 -95h215q31 0 30 -30v-164q0 -31 -30 -31h-314l-180 -414q-16 -31 -41 -30h-196q-37 0 -21 30l180 414h-51q-31 0 -31 31v164q0 31 31 30h150l41 95h-191q-31 0 -31 30v164q0 31 31 31
h289l205 467q12 30 41 30z" />
    <glyph glyph-name="lessequal" unicode="&#x2264;" horiz-adv-x="983" 
d="M156 246h673q31 0 31 -31v-184q0 -31 -31 -31h-671q-31 0 -31 31v184q0 31 29 31zM860 1174v-193q0 -41 -20 -49l-367 -182l367 -183q20 -8 20 -49v-192q0 -12 -9 -18t-24 1l-669 346q-35 17 -35 95t35 94l669 346q13 6 23 1t10 -17z" />
    <glyph glyph-name="greaterequal" unicode="&#x2265;" horiz-adv-x="983" 
d="M154 246h673q29 0 29 -31v-184q0 -31 -31 -31h-671q-31 0 -31 31v184q0 31 31 31zM123 981v193q0 12 9 17t24 -1l669 -346q35 -16 35 -94t-35 -95l-669 -346q-14 -6 -24 -1q-9 5 -9 18v192q0 41 20 49l367 183l-367 182q-20 8 -20 49z" />
    <glyph glyph-name="lozenge" unicode="&#x25ca;" horiz-adv-x="931" 
d="M465 403l170 410q6 8 0 16l-168 408l-170 -408q-6 -10 0 -16zM498 0h-64q-27 0 -39 33l-311 774q-4 12 0 24l311 775q10 33 39 32h64q27 0 39 -32l311 -775q4 -12 0 -24l-311 -774q-10 -33 -39 -33z" />
    <glyph glyph-name="i.loclTRK" horiz-adv-x="573" 
d="M164 31v903q0 31 31 31h184q31 0 31 -31v-903q0 -31 -31 -31h-184q-31 0 -31 31zM131 1208v248q0 31 31 31h250q31 0 30 -31v-248q0 -31 -30 -30h-250q-31 -1 -31 30z" />
    <glyph glyph-name="zero.lf" horiz-adv-x="1212" 
d="M553 219h106q86 0 136 66q49 66 49 161v590q0 96 -49 162t-136 66h-106q-86 0 -135 -66t-49 -162v-590q0 -96 49 -162t135 -65zM553 1509h106q175 0 303 -143t128 -346v-557q0 -203 -127 -346t-304 -144h-106q-176 -1 -303 143t-127 347v557q0 203 127 346t303 143z" />
    <glyph glyph-name="one.lf" horiz-adv-x="927" 
d="M426 1487h184q31 0 31 -31v-1425q0 -31 -31 -31h-184q-31 0 -31 31v1099l-69 -69q-20 -25 -45 0l-129 131q-18 16 2 41l245 244q17 10 27 10z" />
    <glyph glyph-name="two.lf" horiz-adv-x="1159" 
d="M629 1503q174 1 301 -115t127 -323q-1 -207 -63 -313t-238 -177l-232 -92q-104 -41 -132 -90t-27 -147h647q31 0 30 -31v-184q0 -31 -30 -31h-877q-31 0 -31 31q0 354 62 472t190 175l299 129q41 17 69 31t45 39t29 37t13 60v109q0 82 -46 128t-136 46h-86
q-84 0 -130 -47t-46 -133v-35q0 -31 -31 -30h-186q-31 0 -31 30v35q0 193 126 307t298 119h86z" />
    <glyph glyph-name="three.lf" horiz-adv-x="1148" 
d="M1047 379q0 -176 -129 -287t-306 -110h-86q-168 0 -297 114t-127 295v39q0 31 31 31h186q31 0 31 -31v-39q0 -66 49 -115t127 -49h86q90 0 140 49q49 49 49 123q0 115 -40 167t-149 59h-151q-31 0 -31 30v197q0 31 31 31h151q106 6 141 56q34 50 33 163q0 66 -45 115
t-129 49h-88q-76 0 -125 -56t-49 -127v-39q0 -31 -31 -30h-186q-31 0 -31 30v39q0 185 129 307t293 121h88q170 1 295 -115t125 -276t-58 -246t-179 -118q252 -70 252 -377z" />
    <glyph glyph-name="four.lf" horiz-adv-x="1128" 
d="M657 729v203q0 31 31 31h184q31 0 31 -31v-203h103q31 0 30 -31v-184q0 -31 -30 -31h-103v-452q0 -31 -31 -31h-184q-31 0 -31 31v452h-559q-27 0 -32 21l-19 65q-10 29 4 52l555 866q14 23 41 22h221q45 0 21 -41l-451 -739h219z" />
    <glyph glyph-name="five.lf" horiz-adv-x="1163" 
d="M528 -18q-178 0 -302 114t-124 297v33q0 31 31 31h186q31 0 31 -31v-33q0 -84 42 -125t136 -41h86q96 0 145 44q48 44 54 169q6 124 -44 180t-161 56h-37q-156 0 -213 -51h-204q-31 0 -31 30v39l20 762q0 31 31 31h787q31 0 30 -31v-184q0 -31 -30 -31h-578l-10 -352
q45 43 209 43h39q201 0 325 -130t115 -380q-8 -211 -136 -326t-311 -114h-86z" />
    <glyph glyph-name="six.lf" horiz-adv-x="1163" 
d="M532 227h84q186 0 195 191q6 154 -29 218t-153 64h-37q-154 0 -198 -61t-32 -225q8 -100 62 -144t108 -43zM635 1511q178 1 301 -121t123 -309v-34q0 -31 -31 -31h-186q-31 0 -31 31v34q0 93 -50 139t-126 46h-86q-68 0 -117 -42t-60 -129t-12 -186q59 33 232 33h33
q221 0 333 -136t104 -366q-9 -230 -135 -345q-126 -114 -311 -113h-84q-176 0 -288 114t-129 318q-31 330 8 682q18 180 130 296t292 119h90z" />
    <glyph glyph-name="seven.lf" horiz-adv-x="1165" 
d="M123 1487h919q31 0 31 -31l-8 -178q-524 -655 -678 -1294q-4 -20 -43 -11l-188 43q-18 4 -11 43q76 332 215 610t381 572h-618q-31 0 -31 31v184q0 31 31 31z" />
    <glyph glyph-name="eight.lf" horiz-adv-x="1173" 
d="M825 383v86q0 70 -43 118t-110 48h-170q-68 0 -111 -48t-43 -118v-86q0 -66 43 -111t111 -45h170q68 0 110 45t43 111zM375 1128v-81q0 -66 40 -106t107 -40h129q68 0 108 40t40 106v81q0 58 -42 98t-110 40h-121q-68 0 -110 -40t-41 -98zM1071 440v-90q0 -156 -112 -262
t-279 -106h-186q-168 0 -280 106t-112 262v90q0 106 46 196t131 128q-152 68 -152 328v57q0 152 103 257t268 105h178q164 0 267 -105t104 -257v-57q0 -260 -152 -328q84 -37 130 -127t46 -197z" />
    <glyph glyph-name="nine.lf" horiz-adv-x="1165" 
d="M633 1266h-84q-186 0 -195 -191q-6 -155 29 -219t154 -63h36q154 0 198 61t32 225q-9 99 -63 143t-107 44zM530 -18q-178 0 -301 122t-123 308v34q0 31 31 31h187q31 0 30 -31v-34q0 -92 50 -138t126 -47h86q68 0 117 42t61 129t11 186q-59 -33 -232 -33h-32
q-221 0 -334 136q-113 137 -104 367t135 344t311 113h84q176 1 288 -113t130 -319q31 -330 -9 -682q-18 -179 -130 -295t-291 -120h-91z" />
    <glyph glyph-name="zero.osf" horiz-adv-x="1079" 
d="M721 369v225q0 53 -30 91t-87 38h-129q-57 0 -87 -38t-30 -91v-225q0 -53 30 -89t87 -36h129q57 0 87 36t30 89zM479 969h121q154 0 260 -109t107 -262v-233q-1 -155 -107 -261t-260 -106h-121q-154 0 -260 106t-106 261v233q0 154 106 262t260 109z" />
    <glyph glyph-name="one.osf" horiz-adv-x="856" 
d="M610 266h62q31 0 30 -30v-205q0 -31 -30 -31h-451q-31 0 -31 31v205q0 31 31 30h144v340l-70 -69q-20 -25 -45 0l-129 131q-18 16 2 41l246 243q15 10 26 11h185q31 0 30 -31v-666z" />
    <glyph glyph-name="two.osf" horiz-adv-x="1095" 
d="M979 627q0 -160 -66 -209t-274 -82l-172 -27q-41 -6 -57 -20t-17 -43h549q31 0 31 -31v-184q0 -31 -31 -31h-799q-31 0 -30 31q0 113 8 183t34 140q49 136 224 164l229 35q88 11 106 25t19 49q0 90 -129 90h-94q-70 0 -102 -29t-33 -67v-17q0 -31 -31 -31h-186
q-31 0 -31 31v17q-1 135 111 239t268 107h88q152 -3 268 -107t117 -233z" />
    <glyph glyph-name="three.osf" horiz-adv-x="1148" 
d="M1047 -66q0 -160 -128 -258t-307 -98h-86q-164 0 -294 108t-130 261v39q0 31 31 30h186q31 0 31 -30v-39q0 -43 56 -83t131 -40h75q90 0 140 43q49 43 49 115t-41 116q-41 45 -148 52h-151q-31 0 -31 30v197q0 31 31 31h151q104 6 140 49q34 43 34 111t-44 108t-130 41
h-75q-79 0 -133 -44t-54 -98v-38q0 -31 -31 -31h-186q-31 0 -31 31v38q0 183 126 285t296 103h88q176 1 298 -101t122 -274q0 -250 -229 -307q244 -61 244 -347z" />
    <glyph glyph-name="four.osf" horiz-adv-x="1128" 
d="M657 246v203q0 31 31 30h184q31 0 31 -30v-203h103q31 0 30 -31v-184q0 -31 -30 -31h-103v-379q0 -31 -31 -31h-184q-31 0 -31 31v379h-559q-27 0 -32 20l-19 66q-10 29 4 51l555 867q14 23 41 22h221q45 0 21 -41l-451 -739h219z" />
    <glyph glyph-name="five.osf" horiz-adv-x="1173" 
d="M614 -426h-86q-178 0 -302 114t-124 298v32q0 31 31 31h186q31 0 31 -31v-32q0 -84 42 -125t136 -41h86q96 0 145 44q48 44 54 168t-43 178t-162 58q-184 6 -250 -51h-204q-31 0 -31 31v39l20 645q0 31 31 31h787q31 0 30 -31v-184q0 -31 -30 -31h-578l-10 -236
q29 27 81 35t167 8q201 0 325 -130t115 -380q-8 -212 -136 -326t-311 -114z" />
    <glyph glyph-name="six.osf" horiz-adv-x="1163" 
d="M532 227h84q186 0 195 191q6 154 -29 218t-153 64h-37q-154 0 -198 -61t-32 -225q8 -100 62 -144t108 -43zM635 1511q178 1 301 -121t123 -309v-34q0 -31 -31 -31h-186q-31 0 -31 31v34q0 93 -50 139t-126 46h-86q-68 0 -117 -42t-60 -129t-12 -186q59 33 232 33h33
q221 0 333 -136t104 -366q-9 -230 -135 -345q-126 -114 -311 -113h-84q-176 0 -288 114t-129 318q-31 330 8 682q18 180 130 296t292 119h90z" />
    <glyph glyph-name="seven.osf" horiz-adv-x="1165" 
d="M123 963h919q31 0 31 -31l-8 -178q-449 -600 -637 -1137q-8 -27 -35 -27h-200q-37 0 -27 35q90 299 225 555t350 537h-618q-31 0 -31 31v184q0 31 31 31z" />
    <glyph glyph-name="eight.osf" horiz-adv-x="1173" 
d="M825 383v86q0 70 -43 118t-110 48h-170q-68 0 -111 -48t-43 -118v-86q0 -66 43 -111t111 -45h170q68 0 110 45t43 111zM375 1128v-81q0 -66 40 -106t107 -40h129q68 0 108 40t40 106v81q0 58 -42 98t-110 40h-121q-68 0 -110 -40t-41 -98zM1071 440v-90q0 -156 -112 -262
t-279 -106h-186q-168 0 -280 106t-112 262v90q0 106 46 196t131 128q-152 68 -152 328v57q0 152 103 257t268 105h178q164 0 267 -105t104 -257v-57q0 -260 -152 -328q84 -37 130 -127t46 -197z" />
    <glyph glyph-name="nine.osf" horiz-adv-x="1181" 
d="M811 520q0 108 -54 152t-124 45h-84q-78 0 -131 -43q-52 -43 -56 -153t41 -166t179 -54t182 56q47 55 47 163zM539 -424q-180 0 -302 113t-122 297v14q0 31 30 31h187q31 0 30 -31v-14q0 -66 52 -115t125 -49h90q166 0 176 141q8 111 8 154q-47 -49 -252 -49
q-455 0 -448 458q2 209 131 323t313 114h84q176 0 287 -114q110 -113 134 -341t-11 -537q-18 -179 -129 -285t-293 -110h-90z" />
    <glyph glyph-name="zero.tf" 
d="M670 219h106q86 0 135 66t50 161v590q1 96 -49 162t-136 66h-106q-86 0 -135 -66t-50 -162v-590q-1 -96 49 -162t136 -65zM670 1509h106q176 0 303 -143t127 -346v-557q0 -203 -127 -346t-303 -144h-106q-176 -1 -303 143t-127 347v557q0 203 127 346t303 143z" />
    <glyph glyph-name="one.tf" 
d="M639 1487h184q31 0 31 -31v-1425q0 -31 -31 -31h-184q-31 0 -31 31v1099l-69 -69q-20 -25 -45 0l-129 131q-18 16 2 41l245 244q15 10 27 10z" />
    <glyph glyph-name="two.tf" 
d="M766 1503q174 1 301 -115t127 -323t-62 -313t-239 -177l-231 -92q-104 -41 -132 -90t-28 -147h647q31 0 31 -31v-184q0 -31 -31 -31h-877q-31 0 -30 31q0 356 62 473t190 174l299 129q41 17 69 31t44 39q18 25 30 37t12 60v109q0 82 -46 128t-136 46h-86q-84 0 -130 -47
t-46 -133v-35q0 -31 -31 -30h-186q-31 0 -31 30v35q0 193 126 307t298 119h86z" />
    <glyph glyph-name="three.tf" 
d="M1190 379q0 -176 -129 -287t-305 -110h-86q-168 0 -297 114t-127 295v39q0 31 30 31h187q31 0 31 -31v-39q0 -66 49 -115t127 -49h86q90 0 139 49t49 123q0 115 -40 167t-148 59h-152q-31 0 -31 30v197q0 31 31 31h152q106 6 140 56t34 163q0 66 -45 115t-129 49h-88
q-76 0 -125 -56t-49 -127v-39q0 -31 -31 -30h-187q-31 0 -30 30v39q0 185 129 307t293 121h88q170 1 295 -115t125 -276t-58 -246t-180 -118q252 -70 252 -377z" />
    <glyph glyph-name="four.tf" 
d="M829 729v203q0 31 31 31h184q31 0 31 -31v-203h103q31 0 30 -31v-184q0 -31 -30 -31h-103v-452q0 -31 -31 -31h-184q-31 0 -31 31v452h-559q-27 0 -32 21l-19 65q-10 29 4 52l555 866q14 23 41 22h221q45 0 21 -41l-451 -739h219z" />
    <glyph glyph-name="five.tf" 
d="M664 -18q-178 0 -303 113q-124 114 -123 298v33q0 31 30 31h187q31 0 30 -31v-33q0 -84 42 -125t137 -41h86q96 0 144 44t54 169q6 124 -44 180t-161 56h-36q-156 0 -213 -51h-205q-31 0 -31 30v39l21 762q0 31 30 31h787q31 0 30 -31v-184q0 -31 -30 -31h-578l-10 -352
q45 43 209 43h39q200 0 324 -130t116 -380q-8 -211 -136 -326t-310 -114h-86z" />
    <glyph glyph-name="six.tf" 
d="M668 229h84q186 0 194 191q6 154 -28 218t-154 64h-37q-153 0 -197 -61t-32 -225q8 -100 62 -144t108 -43zM770 1513q178 1 301 -121t123 -309v-34q0 -31 -31 -31h-186q-31 0 -31 31v34q0 93 -50 139t-126 46h-86q-68 0 -117 -42t-60 -129t-11 -186q59 33 231 33h33
q221 0 334 -136q114 -136 104 -366t-136 -345q-126 -114 -310 -113h-84q-176 0 -288 114t-130 318q-31 330 8 682q18 180 130 296t292 119h90z" />
    <glyph glyph-name="seven.tf" 
d="M256 1487h920q31 0 30 -31v-162l-2 4q-2 -12 -6 -20q-524 -655 -678 -1294q-4 -20 -43 -11l-188 43q-18 4 -10 43q76 332 215 610t380 572h-618q-31 0 -31 31v184q0 31 31 31z" />
    <glyph glyph-name="eight.tf" 
d="M954 383v86q0 70 -43 118t-110 48h-170q-68 0 -111 -48t-43 -118v-86q0 -66 43 -111t111 -45h170q69 0 111 45t42 111zM504 1128v-81q0 -66 40 -106t107 -40h129q68 0 108 40t40 106v81q0 58 -42 98t-110 40h-121q-67 0 -109 -40t-42 -98zM1200 440v-90q0 -156 -112 -262
t-279 -106h-186q-168 0 -280 106t-112 262v90q1 106 47 196t130 128q-152 68 -152 328v57q0 152 103 257t268 105h178q164 0 267 -105t104 -257v-57q0 -260 -152 -328q84 -37 130 -127t46 -197z" />
    <glyph glyph-name="nine.tf" 
d="M766 1266h-84q-186 0 -195 -191q-6 -155 29 -219t154 -63h37q153 0 197 61t32 225q-8 99 -62 143t-108 44zM664 -18q-178 0 -302 121q-123 122 -122 309v34q0 31 30 31h187q31 0 30 -31v-34q1 -92 51 -138t126 -47h86q68 0 116 42t60 129t12 186q-59 -33 -231 -33h-33
q-221 0 -334 136q-114 137 -104 367t136 344t310 113h84q176 1 288 -113t130 -319q31 -330 -8 -682q-18 -179 -130 -295t-292 -120h-90z" />
    <glyph glyph-name="zero.tosf" 
d="M899 369v225q0 53 -30 91t-87 38h-129q-57 0 -87 -38t-29 -91v-225q-1 -53 29 -89t87 -36h129q57 0 87 36t30 89zM657 969h121q154 0 260 -109t107 -262v-233q-1 -155 -107 -261t-260 -106h-121q-154 0 -260 106t-106 261v233q0 154 106 262t260 109z" />
    <glyph glyph-name="one.tosf" 
d="M879 266h61q31 0 31 -30v-205q0 -31 -31 -31h-451q-31 0 -30 31v205q0 31 30 30h144v340l-70 -69q-20 -25 -45 0l-129 131q-18 16 2 41l246 243q15 10 27 11h184q31 0 31 -31v-666z" />
    <glyph glyph-name="two.tosf" 
d="M1153 627q0 -160 -66 -209t-274 -82l-172 -27q-41 -6 -57 -20t-17 -43h549q31 0 31 -31v-184q0 -31 -31 -31h-799q-31 0 -30 31q0 113 8 183t34 140q49 136 224 164l229 35q88 11 106 25t19 49q0 90 -129 90h-94q-70 0 -102 -29t-33 -67v-17q0 -31 -31 -31h-186
q-31 0 -31 31v17q-1 135 111 239t268 107h88q152 -3 268 -107t117 -233z" />
    <glyph glyph-name="three.tosf" 
d="M1190 -66q0 -160 -128 -258t-306 -98h-86q-164 0 -294 108t-130 261v39q0 31 30 30h187q31 0 31 -30v-39q0 -43 55 -83t131 -40h76q90 0 139 43t49 115t-41 116q-41 45 -147 52h-152q-31 0 -31 30v197q0 31 31 31h152q104 6 139 49t35 111t-44 108t-130 41h-76
q-78 0 -132 -44t-54 -98v-38q0 -31 -31 -31h-187q-31 0 -30 31v38q0 183 126 285t296 103h88q176 1 298 -101t122 -274q-1 -250 -230 -307q244 -61 244 -347z" />
    <glyph glyph-name="four.tosf" 
d="M829 246v203q0 31 31 30h184q31 0 31 -30v-203h103q31 0 30 -31v-184q0 -31 -30 -31h-103v-379q0 -31 -31 -31h-184q-31 0 -31 31v379h-559q-27 0 -32 20l-19 66q-10 29 4 51l555 867q14 23 41 22h221q45 0 21 -41l-451 -739h219z" />
    <glyph glyph-name="five.tosf" 
d="M750 -426h-86q-178 0 -303 114q-124 114 -123 298v32q0 31 30 31h187q31 0 30 -31v-32q0 -84 42 -125t137 -41h86q96 0 144 44t54 168t-43 178t-162 58q-184 6 -249 -51h-205q-31 0 -31 31v39l21 645q0 31 30 31h787q31 0 30 -31v-184q0 -31 -30 -31h-578l-10 -236
q29 27 81 35t167 8q200 0 324 -130t116 -380q-8 -212 -136 -326t-310 -114z" />
    <glyph glyph-name="six.tosf" 
d="M670 227h84q186 0 194 191q6 154 -28 218t-154 64h-37q-153 0 -197 -61t-32 -225q8 -100 62 -144t108 -43zM772 1511q178 1 301 -121t123 -309v-34q0 -31 -31 -31h-186q-31 0 -31 31v34q0 93 -50 139t-126 46h-86q-68 0 -117 -42t-60 -129t-11 -186q59 33 231 33h33
q221 0 334 -136q114 -136 104 -366t-136 -345q-126 -114 -310 -113h-84q-176 0 -288 114t-130 318q-31 330 8 682q18 180 130 296t292 119h90z" />
    <glyph glyph-name="seven.tosf" 
d="M256 963h920q31 0 30 -31v-162l-2 4q-2 -12 -6 -20q-449 -600 -637 -1137q-8 -27 -35 -27h-200q-37 0 -27 35q90 299 225 555t350 537h-618q-31 0 -31 31v184q0 31 31 31z" />
    <glyph glyph-name="eight.tosf" 
d="M956 383v86q0 70 -43 118t-110 48h-170q-68 0 -111 -48t-43 -118v-86q0 -66 43 -111t111 -45h170q69 0 111 45t42 111zM506 1128v-81q0 -66 40 -106t107 -40h129q68 0 108 40t40 106v81q0 58 -42 98t-110 40h-121q-67 0 -109 -40t-42 -98zM1202 440v-90q0 -156 -112 -262
t-279 -106h-186q-168 0 -280 106t-112 262v90q1 106 47 196t130 128q-152 68 -152 328v57q0 152 103 257t268 105h178q164 0 267 -105t104 -257v-57q0 -260 -152 -328q84 -37 130 -127t46 -197z" />
    <glyph glyph-name="nine.tosf" 
d="M938 520q0 108 -54 152t-124 45h-84q-78 0 -131 -43t-57 -153t42 -166t180 -54t181 56q47 55 47 163zM666 -424q-180 0 -302 113t-122 297v14q0 31 30 31h187q31 0 30 -31v-14q1 -66 53 -115t124 -49h90q166 0 176 141q8 111 8 154q-47 -49 -252 -49q-455 0 -448 458
q2 209 131 323t313 114h84q176 0 287 -114q111 -113 135 -341t-12 -537q-18 -179 -129 -285t-293 -110h-90z" />
    <glyph glyph-name="zero.dnom" horiz-adv-x="653" 
d="M406 186v263q0 31 -24 50t-58 19t-57 -19q-22 -19 -21 -50v-263q0 -31 22 -50t56 -19t58 19t24 50zM299 635h51q80 0 130 -53t50 -125v-279q0 -72 -50 -125t-130 -53h-51q-72 0 -124 54t-52 124v279q0 70 52 124t124 54z" />
    <glyph glyph-name="one.dnom" horiz-adv-x="618" 
d="M246 31v571q0 31 30 31h66q31 0 31 -31v-571q0 -31 -31 -31h-66q-30 0 -30 31z" />
    <glyph glyph-name="two.dnom" horiz-adv-x="655" 
d="M532 31q0 -31 -30 -31h-344q-31 0 -31 31v49q0 30 11 46t44 50l144 154q4 4 41 37t38 69q1 35 -23 59q-24 23 -58 23t-57 -19q-22 -19 -21 -46v-15q0 -31 -31 -30h-61q-31 0 -31 30v27q0 68 51 119t125 51h51q80 -1 130 -61t50 -126t-34 -114q-34 -49 -97 -113l-104 -104
l207 4q31 0 30 -31v-59z" />
    <glyph glyph-name="three.dnom" horiz-adv-x="653" 
d="M350 0h-51q-74 0 -125 51t-51 119v27q0 31 31 30h61q31 0 31 -30v-15q0 -27 22 -46t56 -19t58 19t24 52t-23 55t-55 21h-47q-31 0 -31 31v45q0 31 31 31h47q34 -1 56 21t22 54t-24 52t-58 20t-57 -19q-22 -19 -21 -46v-15q0 -31 -31 -30h-61q-31 0 -31 30v27q0 68 51 119
t125 51h51q80 0 130 -56q50 -55 50 -127t-69 -135q69 -63 69 -134t-50 -127t-130 -56z" />
    <glyph glyph-name="four.dnom" horiz-adv-x="688" 
d="M383 246v205l-104 -205h104zM506 242h29q31 0 30 -31v-61q0 -31 -30 -31h-29v-88q0 -31 -31 -31h-61q-31 0 -31 31v88h-223q-29 0 -31 31l-6 59q0 8 8 24l217 388q8 14 29 14h98q31 0 31 -31v-362z" />
    <glyph glyph-name="five.dnom" horiz-adv-x="653" 
d="M530 193q0 -77 -50 -135t-130 -58h-51q-74 0 -125 51t-51 119v27q0 31 31 30h61q31 0 31 -30v-15q0 -27 22 -46t54 -19q80 0 84 86q6 128 -110 108q-36 -6 -56 -24h-86q-31 0 -31 30v287q0 31 31 31h325q31 0 31 -31v-57q0 -31 -31 -31h-237v-117q44 23 114 16
q174 -17 174 -222z" />
    <glyph glyph-name="six.dnom" horiz-adv-x="653" 
d="M325 117q81 0 81 95t-81 95t-81 -95t81 -95zM530 193q0 -77 -50 -135t-130 -58h-51q-70 0 -113 48t-53 110t-10 194q0 209 113 260q133 61 264 -24q22 -16 12 -41l-12 -41q-8 -33 -41 -14q-68 45 -158 28q-55 -12 -59 -67l-2 -54q46 23 116 16q174 -17 174 -222z" />
    <glyph glyph-name="seven.dnom" horiz-adv-x="632" 
d="M510 604v-59q0 -18 -8 -35l-221 -481q-16 -29 -33 -29h-86q-31 0 -19 29l219 483h-208q-31 0 -31 31v61q0 31 31 31h325q31 0 31 -31z" />
    <glyph glyph-name="eight.dnom" horiz-adv-x="657" 
d="M326 264q-33 0 -56 -22q-22 -22 -22 -54q0 -33 22 -52t58 -19q34 0 58 19t24 52t-23 55t-55 21h-6zM326 371h6q34 -1 56 21t22 54t-24 52t-58 20t-58 -19q-22 -19 -22 -53t22 -54q22 -21 56 -21zM535 183q-1 -71 -51 -127t-130 -56h-51q-80 0 -130 56t-50 127t70 134
q-70 63 -70 135t50 127q50 56 130 56h51q80 0 130 -56q50 -55 50 -127t-69 -135q70 -63 70 -134z" />
    <glyph glyph-name="nine.dnom" horiz-adv-x="653" 
d="M329 518q-81 0 -81 -95t81 -95t81 95t-81 95zM123 442q0 78 50 136t130 57h51q70 0 113 -48q43 -47 53 -109t10 -195q0 -209 -112 -260q-133 -61 -264 24q-23 16 -13 41l13 41q8 33 41 14q68 -45 157 -28q55 12 60 67l2 54q-45 -23 -116 -16q-175 17 -175 222z" />
    <glyph glyph-name="zero.numr" horiz-adv-x="653" 
d="M406 1038v262q0 30 -24 50t-58 20t-57 -19q-22 -19 -21 -51v-262q0 -31 22 -50t56 -19t58 19t24 50zM299 1487h51q80 0 130 -53t50 -125v-279q0 -72 -50 -125t-130 -53h-51q-72 0 -124 54t-52 124v279q0 70 52 124t124 54z" />
    <glyph glyph-name="one.numr" horiz-adv-x="618" 
d="M246 885v571q0 31 30 31h66q31 0 31 -31v-571q0 -31 -31 -31h-66q-30 0 -30 31z" />
    <glyph glyph-name="two.numr" horiz-adv-x="655" 
d="M532 883q0 -31 -30 -31h-344q-31 0 -31 31v49q0 30 11 46t44 50l144 154q4 4 41 37t38 69q1 35 -23 59q-24 23 -58 23t-57 -19q-22 -19 -21 -46v-15q0 -31 -31 -30h-61q-31 0 -31 30v27q0 68 51 119t125 51h51q80 -1 130 -61t50 -126t-34 -114q-34 -49 -97 -113
l-104 -104l207 4q31 0 30 -31v-59z" />
    <glyph glyph-name="three.numr" horiz-adv-x="653" 
d="M350 854h-51q-74 0 -125 51t-51 119v27q0 31 31 30h61q31 0 31 -30v-15q0 -27 22 -46t56 -19t58 19t24 52t-23 55t-55 21h-47q-31 0 -31 31v45q0 31 31 31h47q34 -1 56 21t22 54t-24 52t-58 20t-57 -19q-22 -19 -21 -46v-15q0 -31 -31 -30h-61q-31 0 -31 30v27
q0 68 51 119t125 51h51q80 0 130 -56q50 -55 50 -127t-69 -135q69 -63 69 -134t-50 -127t-130 -56z" />
    <glyph glyph-name="four.numr" horiz-adv-x="688" 
d="M383 1098v205l-104 -205h104zM506 1094h29q31 0 30 -31v-62q0 -31 -30 -30h-29v-88q0 -31 -31 -31h-61q-31 0 -31 31v88h-223q-29 0 -31 30l-6 60q0 8 8 24l217 388q8 14 29 14h98q31 0 31 -31v-362z" />
    <glyph glyph-name="five.numr" horiz-adv-x="653" 
d="M530 1044q0 -78 -50 -135t-130 -57h-51q-74 0 -125 51t-51 119v27q0 31 31 30h61q31 0 31 -30v-15q0 -27 22 -46t54 -19q80 0 84 86q6 128 -110 108q-36 -6 -56 -24h-86q-31 0 -31 30v287q0 31 31 31h325q31 0 31 -31v-57q0 -31 -31 -31h-237v-117q44 23 114 16
q174 -17 174 -223z" />
    <glyph glyph-name="six.numr" horiz-adv-x="653" 
d="M325 969q81 0 81 95t-81 95t-81 -95t81 -95zM530 1044q0 -78 -50 -135t-130 -57h-51q-70 0 -113 48t-53 110t-10 194q0 209 113 260q133 61 264 -24q22 -16 12 -41l-12 -41q-8 -33 -41 -15q-68 45 -158 29q-55 -12 -59 -67l-2 -54q46 23 116 16q174 -17 174 -223z" />
    <glyph glyph-name="seven.numr" horiz-adv-x="632" 
d="M510 1456v-59q0 -18 -8 -35l-221 -481q-16 -29 -33 -29h-86q-31 0 -19 29l219 483h-208q-31 0 -31 31v61q0 31 31 31h325q31 0 31 -31z" />
    <glyph glyph-name="eight.numr" horiz-adv-x="657" 
d="M326 1116q-33 0 -56 -22q-22 -22 -22 -54q0 -33 22 -52t58 -19q34 0 58 19t24 52t-23 55t-55 21h-6zM326 1223h6q34 -1 56 21t22 54t-24 52t-58 20t-58 -19q-22 -19 -22 -53t22 -54q22 -21 56 -21zM535 1035q-1 -71 -51 -127t-130 -56h-51q-80 0 -130 56t-50 127t70 134
q-70 63 -70 134t50 127t130 57h51q80 0 130 -56q50 -55 50 -127t-69 -135q70 -63 70 -134z" />
    <glyph glyph-name="nine.numr" horiz-adv-x="653" 
d="M329 1372q-81 0 -81 -95t81 -95t81 95t-81 95zM123 1296q0 78 50 136t130 57h51q70 0 113 -48q43 -47 53 -109t10 -195q0 -209 -112 -260q-133 -61 -264 24q-23 16 -13 41l13 41q8 33 41 14q68 -45 157 -28q55 12 60 67l2 54q-45 -23 -116 -16q-175 17 -175 222z" />
    </font>
</defs>
</svg>
