<?xml version="1.0" standalone="no"?>
<!DOCTYPE svg PUBLIC "-//W3C//DTD SVG 1.1//EN" "http://www.w3.org/Graphics/SVG/1.1/DTD/svg11.dtd" >
<svg xmlns="http://www.w3.org/2000/svg">
<metadata>
Created by FontPrep 20130207 at Wed Nov  5 19:40:46 2014
 By Connary
Copyright (c) 2014 by Connary Fagen. All rights reserved.
</metadata>
<defs>
<font id="91967a94008d783a0f92e9bf2caed4bd" horiz-adv-x='1024' >
  <font-face 
    font-family="ManifoldCF-LightOblique"
    font-weight="300"
    font-style="oblique"
    font-stretch="normal"
    units-per-em="2048"
    panose-1="0 0 4 0 0 0 0 0 0 0"
    ascent="1638"
    descent="-410"
    x-height="963"
    cap-height="1487"
    bbox="-479.25 -955.111 2276.44 2165.02"
    underline-thickness="102"
    underline-position="-102"
    unicode-range="U+0020-FB02"
  />
<missing-glyph horiz-adv-x="1024" 
d="M102 1239v-1044l349 522zM164 102h696l-348 523zM573 717l349 -522v1044zM512 809l348 522h-696zM0 0v1434h1024v-1434h-1024z" />
    <glyph glyph-name="fi" unicode="fi" horiz-adv-x="1173" 
d="M1034 1487h66q33 0 26 -31l-8 -82q-6 -31 -33 -31h-65q-29 0 -29 33l13 82q1 29 30 29zM1010 965q31 0 28 -31l-110 -903q-2 -31 -35 -31h-31q-31 0 -26 33l102 839h-588l-104 -841q-4 -31 -35 -31h-31q-31 0 -26 33l102 839h-117q-33 0 -26 33l2 31q2 29 32 29h121
l17 139q23 174 125 278t254 105h135q35 0 28 -31l-2 -31q-6 -31 -34 -30h-136q-119 0 -191 -79t-87 -220l-17 -131h650z" />
    <glyph glyph-name="fl" unicode="fl" horiz-adv-x="1173" 
d="M668 1487h424q35 0 26 -31l-174 -1429q0 -27 -31 -27h-32q-33 0 -29 33l170 1362h-365q-119 0 -191 -79t-87 -220l-17 -133h357q31 0 26 -31l-4 -31q-4 -31 -34 -31h-357l-102 -839q-2 -31 -33 -31h-31q-33 0 -28 33l102 837h-119q-31 0 -26 33l4 31q2 29 35 29h118
l17 141q23 174 125 278t256 105z" />
    <glyph glyph-name="f_t.liga" unicode="ft" horiz-adv-x="1351" 
d="M1260 963q31 0 28 -31l-6 -31q0 -31 -33 -31h-153l-76 -618q-18 -150 149 -156q15 0 25 -7t8 -19l-2 -41q-4 -33 -26 -33q-100 -6 -182 65q-81 72 -62 209l74 600h-654l-102 -839q-2 -31 -33 -31h-31q-33 0 -28 33l102 837h-119q-31 0 -26 33l4 31q2 29 35 29h118l17 141
q23 174 125 278t256 105h135q33 0 26 -31l-2 -31q-6 -31 -34 -30h-136q-119 0 -191 -79t-87 -220l-17 -133h654l26 215q2 29 31 28h31q35 0 31 -30l-27 -213h152z" />
    <glyph glyph-name=".notdef" horiz-adv-x="1024" 
d="M102 1239v-1044l349 522zM164 102h696l-348 523zM573 717l349 -522v1044zM512 809l348 522h-696zM0 0v1434h1024v-1434h-1024z" />
    <glyph glyph-name=".null" horiz-adv-x="0" 
 />
    <glyph glyph-name="nonmarkingreturn" horiz-adv-x="681" 
 />
    <glyph glyph-name="space" unicode=" " horiz-adv-x="645" 
 />
    <glyph glyph-name="exclam" unicode="!" horiz-adv-x="403" 
d="M170 94q35 0 29 -31l-4 -32q-2 -31 -33 -31h-47q-31 0 -27 33l4 33q2 29 31 28h47zM303 1487h31q37 0 26 -31l-135 -1114q-4 -31 -35 -31h-30q-31 0 -27 33l137 1114q2 29 33 29z" />
    <glyph glyph-name="quotedbl" unicode="&#x22;" horiz-adv-x="729" 
d="M610 1487h47q33 0 27 -31l-74 -600q-4 -31 -30 -31h-48q-34 0 -28 33l74 600q2 29 32 29zM297 1487h47q33 0 27 -31l-74 -600q-2 -31 -31 -31h-47q-35 0 -29 33l74 600q2 29 33 29z" />
    <glyph glyph-name="numbersign" unicode="#" horiz-adv-x="1220" 
d="M860 993h-391l-61 -499h391zM1110 1085q29 0 27 -30l-2 -31q-6 -31 -33 -31h-152l-59 -499h147q31 0 27 -31l-4 -31q-4 -31 -33 -31h-149l-45 -370q-2 -31 -35 -31h-31q-31 0 -27 33l45 368h-391l-45 -370q-2 -31 -35 -31h-30q-31 0 -27 33l45 368h-147q-33 0 -29 33
l4 31q2 29 35 29h149l62 499h-148q-33 0 -28 33l4 31q2 29 33 28h151l45 373q2 29 31 29h31q35 0 28 -31l-45 -371h393l46 373q2 29 30 29h31q35 0 29 -31l-45 -371h147z" />
    <glyph glyph-name="dollar" unicode="$" horiz-adv-x="970" 
d="M740 924q-48 21 -150 32l-39 -317q92 8 162 54t80 125q10 78 -53 106zM295 1219q-8 -66 41 -94t158 -42l41 320q-220 -14 -240 -184zM854 1182q-35 0 -31 30q6 72 -47 123t-131 64l-41 -332q156 -23 233 -79t63 -174t-122 -196q-106 -78 -239 -88l-17 -133
q-2 -31 -35 -30h-51q-31 0 -26 32l16 131q-115 8 -206 87t-89 184q0 27 35 26h49q31 0 31 -32q0 -63 58 -107t134 -51l41 332q-153 23 -229 82t-62 180t116 195t243 83l16 133q2 29 31 29h51q35 0 29 -31l-17 -133q117 -14 201 -99t76 -198q-4 -29 -31 -28h-49z" />
    <glyph glyph-name="percent" unicode="%" horiz-adv-x="1306" 
d="M983 301h-18q-90 0 -107 -94v-17q-12 -92 82 -92h18q95 1 109 95l2 16q8 92 -86 92zM973 401h26q82 0 129 -54t37 -136l-4 -23q-10 -84 -68 -136t-141 -52h-26q-84 0 -130 54t-36 136l2 23q10 82 69 135q60 53 142 53zM395 1386h-18q-92 0 -109 -94v-16q-10 -92 82 -92
h19q94 0 108 94l2 16q8 92 -84 92zM383 1487h27q82 0 129 -54t36 -137l-4 -22q-10 -84 -68 -136t-141 -53h-26q-84 1 -130 55t-36 136l2 22q10 82 70 136t141 53zM1157 1487h55q16 0 24 -8t-5 -23l-1002 -1425q-18 -31 -45 -31h-55q-39 0 -18 33l1003 1425q20 29 43 29z" />
    <glyph glyph-name="ampersand" unicode="&#x26;" horiz-adv-x="1478" 
d="M444 61h228q207 0 301 144l-527 485l-73 -35q-178 -80 -195 -219l-10 -86q-18 -141 58 -215t218 -74zM1247 760h70q19 0 27 -14t-7 -25l-153 -109q-37 -29 -43 -60q-13 -66 -13 -85l-18 -121q-6 -51 -27 -113l215 -198q12 -10 7 -23q-6 -12 -25 -12h-74q-14 0 -32 18
l-140 129q-129 -178 -377 -178h-217q-178 1 -280 107t-82 276l6 76q14 88 62 159t165 132l68 35l-19 16q-88 82 -115 158q-28 76 -14 180l5 39q18 147 141 256t293 108h135q170 1 266 -109t78 -257l-6 -39q-20 -195 -144 -289l-75 -55q-16 -14 -50 -14h-51q-20 0 -28 15
t6 25l57 33q70 41 126 120t69 171l4 35q14 111 -55 191t-203 81h-146q-135 0 -224 -82t-101 -192l-6 -35q-10 -92 24 -158t107 -137l16 -14h2l6 -8l535 -494q4 14 8 43l18 162q14 123 60 160l110 79q27 17 39 17z" />
    <glyph glyph-name="quotesingle" unicode="'" horiz-adv-x="415" 
d="M297 1487h47q33 0 27 -31l-74 -600q-2 -31 -31 -31h-47q-35 0 -29 33l74 600q2 29 33 29z" />
    <glyph glyph-name="parenleft" unicode="(" horiz-adv-x="669" 
d="M371 -51h57q33 0 29 -33l-4 -31q-2 -29 -33 -28h-37q-155 0 -233 106t-56 281l123 1003q23 175 125 279t256 104h37q33 0 29 -31l-7 -30q0 -31 -30 -31h-58q-104 0 -174 -74t-84 -198l-127 -1045q-16 -125 34 -199t153 -73z" />
    <glyph glyph-name="parenright" unicode=")" horiz-adv-x="669" 
d="M344 1538h-57q-35 0 -31 33l4 31q2 29 35 28h37q152 0 230 -105t59 -280l-123 -1003q-23 -174 -126 -280t-255 -105h-37q-35 0 -29 30l2 31q4 31 35 31h57q102 1 171 75t85 199l129 1045q16 126 -34 198t-152 72z" />
    <glyph glyph-name="asterisk" unicode="*" horiz-adv-x="751" 
d="M399 932q-23 0 -20 24l20 183l-151 -107q-20 -10 -37 10l-14 41q-12 25 6 35l180 92l-154 95q-27 10 -6 32l27 41q14 16 37 6l131 -102l22 182q2 23 25 23h47q29 0 25 -25l-23 -180l152 104q23 12 32 -10l21 -41q10 -27 -10 -35l-177 -90l152 -94q18 -14 6 -35l-28 -41
q-14 -18 -35 -4l-131 103l-23 -185q-2 -23 -27 -22h-47z" />
    <glyph glyph-name="plus" unicode="+" horiz-adv-x="1052" 
d="M918 709q31 0 26 -33l-4 -31q-2 -29 -33 -29h-325l-43 -350q-2 -31 -35 -30h-31q-31 0 -27 32l43 348h-327q-31 0 -29 31l4 31q2 31 33 31h332l43 348q2 29 30 28h31q33 0 29 -30l-43 -346h326z" />
    <glyph glyph-name="comma" unicode="," horiz-adv-x="389" 
d="M115 207h96q29 0 29 -31l-23 -186q-10 -74 -17 -109t-37 -96t-83 -117q-23 -16 -41 4l-35 33q-23 29 -8 43q66 53 87 102q22 49 28 130l18 20h-39q-31 0 -27 33l17 145q2 29 35 29z" />
    <glyph glyph-name="hyphen" unicode="-" horiz-adv-x="888" 
d="M707 473h-541q-35 0 -31 31l4 31q4 31 35 30h541q31 0 26 -33l-4 -30q-1 -29 -30 -29z" />
    <glyph glyph-name="period" unicode="." horiz-adv-x="327" 
d="M141 145q31 0 29 -30l-10 -84q-4 -31 -35 -31h-59q-33 0 -29 33l10 84q2 29 35 28h59z" />
    <glyph glyph-name="slash" unicode="/" horiz-adv-x="774" 
d="M821 1487h43q37 0 19 -31l-797 -1425q-18 -31 -45 -31h-45q-36 0 -19 33l799 1425q14 29 45 29z" />
    <glyph glyph-name="zero" unicode="0" 
d="M487 84h91q142 0 254 116t135 287l63 535q20 172 -62 287q-83 115 -227 114h-90q-141 1 -254 -115t-135 -288l-63 -535q-19 -173 63 -287t225 -114zM662 1516h92q176 0 284 -144t84 -348l-65 -543q-27 -203 -170 -346t-320 -143h-92q-176 0 -285 144t-84 347l64 543
q28 202 172 346t320 144z" />
    <glyph glyph-name="one" unicode="1" horiz-adv-x="710" 
d="M399 1487h35q35 0 29 -31l-174 -1425q-2 -31 -35 -31h-31q-31 0 -26 33l161 1310l-127 -112q-18 -18 -43 4l-16 20q-20 23 0 43l205 181q8 8 22 8z" />
    <glyph glyph-name="two" unicode="2" horiz-adv-x="1159" 
d="M674 1503q170 0 284 -124t91 -309q-22 -185 -148 -282q-126 -98 -332 -176l-243 -92q-78 -31 -134 -117q-91 -138 -110 -311h803q29 0 26 -31l-4 -30q-2 -31 -33 -31h-878q-31 0 -27 35q26 213 75 320q48 108 106 162t137 87l319 129q168 68 219 107q113 84 132 235
t-70 244q-90 92 -223 92h-86q-131 0 -242 -92t-129 -242l-4 -35q-6 -31 -33 -30h-33q-33 0 -28 32l4 35q23 178 165 299t310 125h86z" />
    <glyph glyph-name="three" unicode="3" horiz-adv-x="1148" 
d="M387 -18q-168 0 -283 116t-92 295l4 39q2 29 35 29h33q31 0 27 -31l-7 -39q-16 -153 71 -235t220 -82h86q141 0 252 79t128 223t-66 232q-84 88 -240 94h-147q-31 0 -27 31l6 43q2 31 33 31h145q158 6 258 90t115 227q18 127 -71 211t-222 84h-86q-129 0 -239 -90
t-130 -246l-4 -39q-6 -31 -32 -30h-33q-33 0 -29 33l4 38q25 183 168 305t307 121h84q170 -1 283 -117t92 -282q-14 -116 -82 -200t-200 -158q231 -152 204 -379q-20 -172 -161 -283t-318 -110h-86z" />
    <glyph glyph-name="four" unicode="4" horiz-adv-x="1128" 
d="M743 963h31q33 0 29 -31l-41 -330h178q33 0 29 -33l-6 -30q0 -29 -33 -29h-180l-58 -479q-4 -31 -35 -31h-30q-31 0 -27 33l57 477h-634q-20 0 -29 20l-14 41q-6 27 6 43l688 875q14 20 45 20h45q20 0 26 -11t-10 -25l-686 -871h576l41 332q0 29 32 29z" />
    <glyph glyph-name="five" unicode="5" horiz-adv-x="1161" 
d="M389 -18q-178 0 -289 114t-88 299l4 33q2 29 35 29h33q31 0 27 -31l-5 -33q-18 -151 65 -235t226 -84h86q145 0 257 88t139 260q55 408 -308 407h-63q-120 0 -250 -84q-53 -35 -80 -45l-78 2q-31 0 -26 31l110 725q2 29 33 29h787q33 0 26 -31l-2 -31q-6 -31 -35 -30
h-719l-96 -582q161 97 276 114q40 5 87 5h55q200 0 308 -130t69 -384q-33 -209 -174 -323t-324 -113h-86z" />
    <glyph glyph-name="six" unicode="6" horiz-adv-x="1163" 
d="M387 74h100q151 0 259 87t133 273t-45 280q-70 95 -265 95h-84q-354 0 -364 -399q-4 -174 56 -255t210 -81zM682 1511q178 1 286 -121t85 -309l-4 -34q-4 -31 -33 -31h-33q-33 0 -29 33l4 34q20 152 -60 244q-81 92 -228 92h-90q-144 0 -234 -83t-129 -208
q-59 -201 -63 -346q121 131 340 131h88q471 0 391 -495q-33 -209 -172 -323t-322 -113h-100q-174 0 -266 114t-86 322q8 315 92 682q41 178 166 292t307 119h90z" />
    <glyph glyph-name="seven" unicode="7" horiz-adv-x="1165" 
d="M166 1487h919q33 0 27 -31l-2 -33q-4 -31 -8 -41q-618 -590 -957 -1402q-12 -18 -41 -5l-36 17q-23 10 -7 47q336 793 943 1358l-848 -2q-31 0 -27 32l4 31q2 29 33 29z" />
    <glyph glyph-name="eight" unicode="8" horiz-adv-x="1173" 
d="M608 727h-139q-135 0 -239 -87t-121 -208l-9 -65q-14 -121 68 -207t217 -86h139q137 0 242 87t119 208l10 65q12 121 -70 207t-217 86zM473 815h150q133 0 222 83t105 206l2 26q14 117 -56 203q-71 86 -204 86h-141q-133 0 -225 -86t-105 -205l-4 -26q-13 -123 55 -205
t201 -82zM379 -18q-168 0 -279 120t-92 275l10 65q12 98 79 188t165 148q-74 56 -112 140t-27 176l4 30q18 152 148 270t294 117h127q164 0 266 -118q101 -119 85 -271l-7 -30q-8 -92 -67 -178q-60 -85 -148 -144q82 -57 127 -145t33 -185l-8 -65q-15 -156 -155 -275
t-308 -118h-135z" />
    <glyph glyph-name="nine" unicode="9" horiz-adv-x="1165" 
d="M682 1419h-100q-152 0 -258 -87q-106 -86 -131 -272t45 -280t264 -94h84q354 0 364 397q4 172 -57 254t-211 82zM391 -18q-178 0 -287 122t-86 310l5 35q2 29 34 28h33q29 0 27 -31l-4 -34q-21 -154 59 -246t227 -92h90q145 0 236 84q90 84 127 209q61 199 66 344
q-131 -131 -340 -131h-86q-473 0 -394 495q33 211 172 324t322 112h100q176 1 267 -113t83 -323q-8 -324 -90 -682q-41 -179 -166 -293t-305 -118h-90z" />
    <glyph glyph-name="colon" unicode=":" horiz-adv-x="430" 
d="M193 145q33 0 28 -30l-10 -84q-2 -31 -35 -31h-59q-33 0 -29 33l10 84q2 29 35 28h60zM233 963h60q31 0 29 -31l-11 -84q-4 -31 -35 -31h-59q-33 0 -29 33l11 84q2 29 34 29z" />
    <glyph glyph-name="semicolon" unicode=";" horiz-adv-x="434" 
d="M117 0q-33 0 -29 33l18 135q2 29 31 29h62q26 0 26 -37q10 -16 -4 -93t-20 -127t-43 -106q-2 0 -14 -9t-19 -11l-14 -21q-12 -4 -20 9q-7 13 1 28q27 35 42 89t11 77l5 4h-33zM233 963h60q31 0 29 -31l-11 -84q-4 -31 -35 -31h-59q-33 0 -29 33l11 84q2 29 34 29z" />
    <glyph glyph-name="less" unicode="&#x3c;" horiz-adv-x="983" 
d="M901 907l-4 -39q-4 -41 -23 -51l-616 -334l530 -338q18 -10 15 -47l-4 -39q-1 -12 -11 -17t-20 3l-643 408q-14 10 -12 34q6 23 16 31l743 408q14 6 23 0q8 -7 6 -19z" />
    <glyph glyph-name="equal" unicode="=" horiz-adv-x="929" 
d="M764 461h-623q-31 0 -28 31l6 36q2 29 35 29h622q31 0 27 -31l-4 -37q-2 -28 -35 -28zM805 791h-623q-31 0 -26 30l4 37q2 29 33 29h622q33 0 27 -31l-2 -37q-6 -28 -35 -28z" />
    <glyph glyph-name="greater" unicode="&#x3e;" horiz-adv-x="983" 
d="M160 870l6 39q4 31 29 13l645 -408q12 -12 11 -32t-15 -33l-742 -408q-14 -8 -24 0t-9 20l5 39q4 37 24 50l615 333l-527 338q-22 10 -18 49z" />
    <glyph glyph-name="question" unicode="?" horiz-adv-x="1046" 
d="M422 94q35 0 29 -31l-5 -32q0 -31 -32 -31h-47q-31 0 -27 33l4 33q2 29 33 28h45zM592 1513h86q168 1 272 -125t83 -294t-108 -263q-87 -94 -214 -137q-127 -42 -165 -70t-48 -108l-21 -174q-2 -31 -33 -31h-30q-33 0 -29 33l21 164q12 109 64 167t155 95q149 51 225 116
t92 208t-62 235q-79 92 -210 92h-86q-128 0 -232 -92t-123 -248l-4 -39q-6 -31 -32 -30h-33q-33 0 -29 32l4 39q21 180 157 305t300 125z" />
    <glyph glyph-name="at" unicode="@" horiz-adv-x="1251" 
d="M553 401h20q71 -1 111 25q39 26 59 41t80 76l21 145h-219q-186 0 -209 -151q-6 -61 28 -99q35 -37 109 -37zM602 -27h-90q-182 -1 -304 141t-97 349l69 567q25 209 179 345q155 136 339 136h95q178 0 298 -136t95 -333l-70 -585q-8 -70 -56 -112t-114 -42h-4
q-39 0 -77 31t-46 78q-125 -111 -254 -111h-20q-111 0 -177 71t-55 174t103 174t215 71h225l2 10q16 125 -18 179q-35 54 -129 54h-35q-58 0 -104 -16t-63 -28t-52 -44q-29 -18 -47 4l-27 29q-18 23 -2 41q123 117 301 117h31q129 0 199 -91t51 -245l-33 -262l-10 -95
q-6 -45 32 -45q51 0 60 47l75 607q18 154 -71 255q-90 101 -225 101h-115q-143 0 -258 -103t-135 -272l-70 -579q-20 -167 68 -273t231 -106h98q76 0 162 51q18 8 29 3q10 -6 8 -24l-8 -55q-4 -29 -21 -37q-94 -41 -178 -41z" />
    <glyph glyph-name="A" unicode="A" horiz-adv-x="1230" 
d="M883 530l-164 846l-377 -846h541zM1042 0h-30q-31 0 -35 35l-80 409v-6h-598l-180 -405q-12 -33 -39 -33h-33q-39 0 -22 35l639 1427q12 31 43 31h45q28 0 32 -33l283 -1427q12 -33 -25 -33z" />
    <glyph glyph-name="B" unicode="B" horiz-adv-x="1193" 
d="M633 92q159 0 239 71t98 221t-46 240q-63 91 -205 91h-475l-76 -623h465zM731 807q123 0 200 88t95 229q35 270 -252 271h-446l-74 -588h477zM612 0h-510q-39 0 -34 39l174 1413q6 35 41 35h493q176 -1 268 -101t70 -280q-31 -262 -213 -342q197 -86 160 -381
q-47 -383 -449 -383z" />
    <glyph glyph-name="C" unicode="C" horiz-adv-x="1159" 
d="M985 481h31q29 0 26 -35q-23 -184 -170 -328.5t-311 -144.5h-94q-172 0 -286.5 147.5t-90.5 346.5l70 557q25 197 173 341t320 144h95q164 0 275.5 -144t90.5 -333q-4 -27 -33 -26h-30q-35 0 -29 34q18 150 -70 263.5t-217 113.5h-94q-137 0 -254 -116.5t-137 -278.5
l-68 -557q-20 -162 68 -280.5t225 -118.5h94q131 0 248 117.5t133 271.5q2 26 35 26z" />
    <glyph glyph-name="D" unicode="D" horiz-adv-x="1179" 
d="M750 1395h-435l-159 -1303h432q129 0 243 118t134 273l65 525q18 154 -66 270t-214 117zM262 1487h490q170 1 282 -143t86 -338l-63 -525q-25 -195 -171 -338t-315 -143h-489q-31 0 -27 33l176 1425q2 29 31 29z" />
    <glyph glyph-name="E" unicode="E" horiz-adv-x="1138" 
d="M881 797q31 0 26 -33l-4 -31q-2 -29 -35 -28h-626l-74 -613h760q31 0 26 -31l-4 -30q-4 -31 -32 -31h-822q-33 0 -28 33l176 1425q2 29 32 29h822q33 0 26 -31l-2 -31q-6 -31 -35 -30h-759l-74 -598h627z" />
    <glyph glyph-name="F" unicode="F" horiz-adv-x="1140" 
d="M895 776q31 0 27 -33l-4 -30q-2 -29 -33 -29h-629l-80 -653q-4 -31 -33 -31h-30q-33 0 -29 33l176 1425q2 29 33 29h821q33 0 27 -31l-2 -31q-6 -31 -35 -30h-760l-76 -619h627z" />
    <glyph glyph-name="G" unicode="G" 
d="M655 770h414q35 0 29 -31l-33 -278q-27 -199 -173.5 -343.5t-313.5 -144.5h-99q-174 0 -286.5 144.5t-90.5 341.5l70 565q25 197 173.5 341t320.5 144h98q164 0 275.5 -144t90.5 -333q-4 -27 -32 -26h-31q-35 0 -29 34q18 152 -68.5 264.5t-215.5 112.5h-99
q-137 0 -254.5 -116.5t-138.5 -278.5l-67 -565q-20 -162 66.5 -276.5t225.5 -114.5h99q135 0 249.5 116.5t135.5 280.5l24 215h-348q-33 0 -29 33l5 30q1 29 32 29z" />
    <glyph glyph-name="H" unicode="H" horiz-adv-x="1236" 
d="M1141 1487h30q37 0 27 -31l-174 -1425q0 -31 -33 -31h-30q-33 0 -29 33l78 631h-760l-78 -633q0 -31 -33 -31h-30q-33 0 -29 33l176 1425q2 29 33 29h30q37 0 27 -31l-86 -700h762l86 702q2 29 33 29z" />
    <glyph glyph-name="I" unicode="I" horiz-adv-x="458" 
d="M297 1487h31q33 0 26 -31l-174 -1425q-4 -31 -33 -31h-30q-31 0 -27 33l176 1425q2 29 31 29z" />
    <glyph glyph-name="J" unicode="J" horiz-adv-x="1062" 
d="M465 78q127 0 239 112t132 273l122 995q2 29 33 29h31q33 0 27 -31l-121 -989q-23 -197 -166 -339t-313 -142h-48q-123 0 -218 83t-130 214q-10 25 17 39l43 6q14 6 24 0t8 -25q21 -94 97 -160t170 -65h53z" />
    <glyph glyph-name="K" unicode="K" horiz-adv-x="1165" 
d="M993 0h-45q-20 0 -51 31l-588 604l-94 -90l-65 -514q-2 -31 -33 -31h-31q-33 0 -29 33l176 1425q2 29 33 29h31q33 0 27 -31l-95 -758l793 762q27 27 41 27h53q10 0 17.5 -7t4.5 -20.5t-18 -25.5l-743 -717l631 -670q12 -12 8 -29.5t-23 -17.5z" />
    <glyph glyph-name="L" unicode="L" horiz-adv-x="1169" 
d="M956 92q31 0 27 -31l-4 -30q-4 -31 -35 -31h-821q-31 0 -27 33l176 1425q2 29 31 29h31q35 0 28 -31l-165 -1364h759z" />
    <glyph glyph-name="M" unicode="M" horiz-adv-x="1441" 
d="M1286 1487h92q35 0 29 -31l-174 -1425q-4 -31 -35 -31h-31q-31 0 -26 33l166 1341l-592 -1343q-12 -31 -43 -31h-54q-29 0 -32 33l-262 1341l-166 -1343q-2 -31 -35 -31h-31q-31 0 -26 33l176 1425q2 29 30 29h93q37 0 36 -31l258 -1325l586 1327q12 29 41 29z" />
    <glyph glyph-name="N" unicode="N" horiz-adv-x="1290" 
d="M1210 1487h31q33 0 27 -31l-174 -1425q-4 -31 -33 -31h-129q-20 0 -33 25l-561 1437l-178 -1431q-4 -31 -33 -31h-31q-33 0 -28 33l176 1425q2 29 32 29h127q27 0 35 -23l561 -1437l179 1431q1 29 32 29z" />
    <glyph glyph-name="O" unicode="O" 
d="M487 84h91q142 0 254 116t135 287l63 535q20 172 -62 287q-83 115 -227 114h-90q-141 1 -254 -115t-135 -288l-63 -535q-19 -173 63 -287t225 -114zM662 1516h92q176 0 284 -144t84 -348l-65 -543q-27 -203 -170 -346t-320 -143h-92q-176 0 -285 144t-84 347l64 543
q28 202 172 346t320 144z" />
    <glyph glyph-name="P" unicode="P" horiz-adv-x="1165" 
d="M768 1395h-432l-80 -650h428q303 0 344 328q37 322 -260 322zM283 1487h487q184 0 280 -112q96 -111 70 -307q-24 -196 -144 -306t-304 -109h-428l-76 -622q-4 -31 -35 -31h-31q-31 0 -26 33l76 620l10 92h2l88 713q2 29 31 29z" />
    <glyph glyph-name="Q" unicode="Q" horiz-adv-x="1247" 
d="M651 1423q-141 1 -254 -115t-135 -288l-63 -535q-19 -173 63 -287t225 -114h91q145 0 258 119l-82 94q-20 23 2 45l24 23q23 20 43 -5l70 -79q60 93 74 206l63 535q20 172 -62 287q-83 115 -227 114h-90zM567 -8h-92q-176 0 -285 144t-84 347l64 543q27 203 171 346
t321 144h92q176 0 284 -144t84 -348l-65 -543q-18 -141 -105 -268l125 -143q20 -23 -2 -45l-24 -21q-25 -20 -43 2l-117 133q-143 -147 -324 -147z" />
    <glyph glyph-name="R" unicode="R" horiz-adv-x="1161" 
d="M664 745q303 0 344 328q37 322 -260 322h-435l-80 -650h431zM946 0h-31q-31 0 -26 33l41 350q20 154 -49.5 212t-196.5 58h-461l-76 -622q-4 -31 -34 -31h-31q-31 0 -27 33l176 1425q2 29 31 29h488q184 0 279.5 -111.5t70.5 -310.5q-31 -254 -221 -360q172 -96 145 -334
l-43 -340q-4 -31 -35 -31z" />
    <glyph glyph-name="S" unicode="S" horiz-adv-x="1175" 
d="M637 1518h106q168 0 280 -122t89 -309l-4 -34q-8 -29 -35 -29h-33q-33 0 -28 31l4 35q20 154 -65 244.5t-218 90.5h-106q-141 0 -236.5 -79.5t-114.5 -229.5t72 -216q72 -51 217 -81l103 -20q201 -41 298 -128t74 -272.5t-162 -300t-315 -114.5h-94q-172 0 -287.5 116.5
t-95.5 296.5l8 54q4 31 35 30h33q29 0 28 -32l-8 -54q-12 -150 73 -233.5t222 -83.5h94q143 0 252 88t128 244t-68 213t-221 84l-105 18q-203 41 -299 129t-75 265t151.5 288t302.5 111z" />
    <glyph glyph-name="T" unicode="T" horiz-adv-x="1085" 
d="M197 1487h899q35 0 26 -31l-2 -31q-6 -31 -33 -30h-405l-166 -1364q-4 -31 -35 -31h-30q-31 0 -27 33l168 1362h-404q-33 0 -28 32l4 31q2 29 33 29z" />
    <glyph glyph-name="U" unicode="U" horiz-adv-x="1167" 
d="M1112 1489h31q35 0 28 -31l-122 -1009q-25 -199 -166 -330t-338 -131h-53q-197 0 -307 132t-83 331l125 1009q2 29 31 29h31q35 0 28 -31l-124 -1020q-19 -166 65 -262t244 -96h53q159 0 269 97t130 263l127 1020q2 29 31 29z" />
    <glyph glyph-name="V" unicode="V" horiz-adv-x="1191" 
d="M207 1487h35q27 0 32 -33l261 -1309l583 1311q14 31 39 31h35q37 0 25 -33l-633 -1421q-12 -33 -43 -33h-43q-29 0 -33 35l-287 1421q0 31 29 31z" />
    <glyph glyph-name="W" unicode="W" horiz-adv-x="1880" 
d="M1849 1487h33q35 0 25 -33l-535 -1423q-10 -31 -41 -31h-41q-29 0 -35 33l-221 1292l-538 -1294q-14 -31 -41 -31h-41q-35 0 -35 33l-184 1425q-6 29 24 29h35q29 0 33 -31l164 -1290l532 1292q12 29 45 29h45q29 0 35 -33l225 -1288l479 1288q12 33 37 33z" />
    <glyph glyph-name="X" unicode="X" horiz-adv-x="1132" 
d="M1079 1487h43q41 0 21 -31l-498 -717l320 -708q12 -31 -23 -31h-43q-23 0 -35 33l-278 620l-434 -622q-18 -31 -48 -31h-43q-34 0 -18 33l500 717l-320 708q-12 29 19 29h43q27 0 37 -31l280 -620l434 622q16 29 43 29z" />
    <glyph glyph-name="Y" unicode="Y" horiz-adv-x="1163" 
d="M1124 1487h50q16 0 23 -8t-5 -23l-561 -803l-78 -622q-4 -31 -35 -31h-31q-31 0 -26 33l78 620l-361 805q-14 29 21 29h49q23 0 35 -31l313 -696l483 698q22 29 45 29z" />
    <glyph glyph-name="Z" unicode="Z" horiz-adv-x="1107" 
d="M236 1395q-31 0 -27 32l4 31q2 29 33 29h841q33 0 27 -31l-8 -61q0 -6 -6 -13l-944 -1290h762q29 0 26 -31l-4 -30q-2 -31 -33 -31h-841q-33 0 -29 33l8 59l6 14l946 1289h-761z" />
    <glyph glyph-name="bracketleft" unicode="[" horiz-adv-x="565" 
d="M295 1630h237q29 0 27 -31l-4 -30q-2 -31 -31 -31h-180l-194 -1589h176q31 0 26 -33l-4 -31q-2 -29 -31 -28h-239q-33 0 -27 30l209 1715q2 28 35 28z" />
    <glyph glyph-name="backslash" unicode="\" horiz-adv-x="774" 
d="M641 0h-43q-25 0 -37 33l-446 1425q-8 29 20 29h43q29 0 35 -31l449 -1425q12 -31 -21 -31z" />
    <glyph glyph-name="bracketright" unicode="]" horiz-adv-x="565" 
d="M295 1630h237q29 0 27 -31l-211 -1714q-2 -29 -31 -28h-237q-35 0 -29 30l2 31q4 31 35 31h178l193 1589h-172q-35 0 -31 33l4 31q2 28 35 28z" />
    <glyph glyph-name="asciicircum" unicode="^" horiz-adv-x="770" 
d="M688 932h-43q-25 0 -35 33l-125 401l-225 -403q-14 -31 -47 -31h-43q-35 0 -18 33l270 493q12 29 41 29h63q27 0 37 -31l148 -493q10 -31 -23 -31z" />
    <glyph glyph-name="underscore" unicode="_" 
d="M995 0h-929q-33 0 -29 33l4 30q2 29 35 29h930q31 0 26 -31l-4 -30q-4 -31 -33 -31z" />
    <glyph glyph-name="grave" unicode="`" horiz-adv-x="497" 
d="M444 1186h-41q-20 0 -34 39l-133 379q-12 35 20 34h66q34 1 38 -36l105 -379q14 -37 -21 -37z" />
    <glyph glyph-name="a" unicode="a" horiz-adv-x="935" 
d="M307 90h111q58 2 116 31t92 59t79 78l24 197h-373q-199 0 -219 -189q-10 -78 40 -127t130 -49zM463 967h104q131 1 211 -99t62 -258l-70 -561q-4 -21 0 -35t-10 -14h-55q-35 0 -27 51l10 78q-143 -131 -272 -131h-115q-113 -4 -193 81t-64 204q15 119 103 195t215 75h379
l7 55q14 127 -37 197t-144 69h-104q-92 0 -139 -19t-93 -71q-23 -25 -51 4l-22 21q-27 20 -4 43q60 66 128 90t181 25z" />
    <glyph glyph-name="b" unicode="b" horiz-adv-x="1011" 
d="M604 870h-78q-84 0 -175 -59t-101 -123l-60 -485q51 -45 122 -78t120 -33h76q96 0 184 77t99 179l30 248q12 110 -48 192t-169 82zM539 963h75q140 0 228 -113t71 -254l-30 -250q-16 -138 -135 -242t-250 -104h-76q-129 0 -244 104l-8 -73q-2 -31 -33 -31h-31
q-33 0 -28 33l176 1425q2 29 33 29h30q33 0 27 -31l-74 -604q128 111 269 111z" />
    <glyph glyph-name="c" unicode="c" horiz-adv-x="985" 
d="M877 645h-33q-16 0 -25.5 7t-7.5 24q6 68 -67.5 134.5t-151.5 66.5h-74q-106 0 -200.5 -84t-108.5 -195l-29 -233q-14 -113 58.5 -194t179.5 -81h69q137 0 273 146q23 23 41 2l26 -23q27 -23 7 -43q-166 -174 -351 -174h-73q-137 0 -238.5 111.5t-83.5 257.5l29 233
q18 145 145 257t264 112h74q113 0 214 -94.5t91 -202.5q-3 -27 -28 -27z" />
    <glyph glyph-name="d" unicode="d" horiz-adv-x="1030" 
d="M397 92h86q49 0 127 35t142 82l57 481q6 64 -70 122t-161 58h-84q-109 0 -191 -84t-94 -192l-31 -248q-14 -100 54 -177t165 -77zM936 1487h31q35 0 28 -31l-174 -1425q-2 -31 -35 -31h-30q-31 0 -27 33l8 69q-135 -102 -266 -102h-82q-131 0 -225 105t-78 243l31 250
q16 141 131 253t258 112h82q139 0 241 -113l76 608q2 29 31 29z" />
    <glyph glyph-name="e" unicode="e" horiz-adv-x="1007" 
d="M596 877h-78q-109 0 -202 -85t-107 -200l-4 -31h606l4 33q14 121 -58.5 202t-160.5 81zM526 969h78q121 0 221.5 -108.5t81.5 -260.5l-10 -82q-6 -61 -68 -61h-636l-13 -92q-14 -113 58.5 -194t179.5 -81h76q135 0 270 146q29 20 43 2l27 -23q23 -18 4 -43
q-166 -174 -351 -174h-77q-137 0 -238.5 111.5t-83.5 257.5l29 233q18 145 145 257t264 112z" />
    <glyph glyph-name="f" unicode="f" horiz-adv-x="751" 
d="M668 1487h135q33 0 26 -31l-2 -31q-6 -31 -34 -30h-136q-119 0 -191 -79t-87 -220l-17 -133h357q31 0 26 -31l-4 -31q-4 -31 -34 -31h-357l-102 -839q-2 -31 -33 -31h-31q-33 0 -28 33l102 837h-119q-31 0 -26 33l4 31q2 29 35 29h118l17 141q23 174 125 278t256 105z
" />
    <glyph glyph-name="g" unicode="g" horiz-adv-x="1001" 
d="M420 90h43q61 0 138 40t140 99l54 430q6 70 -67 143t-150 72h-82q-104 0 -194 -87t-103 -189l-29 -233q-10 -103 68 -189t182 -86zM844 963h53q29 0 27 -31l-127 -1036q-14 -115 -126 -210t-245 -96h-51q-99 0 -187 60t-129 155q-10 23 17 27l43 6q18 4 37 -28
q28 -56 94 -92t139 -35h45q72 0 164 59t102 147l23 193q-137 -84 -266 -84h-45q-135 0 -243 117t-91 252l28 233q16 137 140 252t258 115h82q121 0 225 -99l6 70q2 25 27 25z" />
    <glyph glyph-name="h" unicode="h" horiz-adv-x="1048" 
d="M547 963h76q141 0 228 -113t71 -254l-70 -565q0 -31 -33 -31h-31q-33 0 -28 33l69 563q12 110 -48 192t-171 82h-73q-85 0 -177 -61t-102 -125l-80 -653q0 -31 -33 -31h-30q-33 0 -29 33l176 1425q2 29 33 29h31q35 0 26 -31l-73 -604q127 111 268 111z" />
    <glyph glyph-name="i" unicode="i" horiz-adv-x="393" 
d="M199 965h30q29 0 27 -31l-111 -903q-2 -31 -32 -31h-31q-33 0 -29 33l111 903q2 29 35 29zM252 1487h65q35 0 27 -31l-8 -82q-6 -31 -33 -31h-65q-31 0 -27 33l10 82q2 29 31 29z" />
    <glyph glyph-name="j" unicode="j" horiz-adv-x="411" 
d="M164 965h31q31 0 28 -31l-127 -1032q-10 -78 -78 -157t-157 -114q-35 -6 -39 25l-4 37q-4 29 18 35q63 23 113 65q49 43 55 101l127 1042q2 29 33 29zM215 1487h66q33 0 26 -31l-8 -82q-6 -31 -33 -31h-65q-29 0 -29 33l12 82q2 29 31 29z" />
    <glyph glyph-name="k" unicode="k" horiz-adv-x="1032" 
d="M836 963h59q10 0 18.5 -10.5t5 -28t-19.5 -29.5l-440 -344l385 -506q12 -14 7 -29.5t-24 -15.5h-63q-27 0 -51 31l-346 454l-162 -129l-41 -329q-4 -27 -33 -27h-33q-31 0 -26 33l176 1427q2 27 28 27h33q35 0 29 -31l-117 -964l567 448q28 23 48 23z" />
    <glyph glyph-name="l" unicode="l" horiz-adv-x="419" 
d="M303 1487h35q33 0 27 -31l-175 -1429q-4 -27 -30 -27h-33q-33 0 -29 33l176 1427q2 27 29 27z" />
    <glyph glyph-name="m" unicode="m" horiz-adv-x="1701" 
d="M1182 963h75q143 0 231 -113t71 -254l-70 -565q-2 -31 -33 -31h-31q-33 0 -28 33l69 565q12 106 -46 189t-173 83h-69q-86 0 -174 -61t-99 -125q6 -43 0 -88l-69 -565q-4 -31 -35 -31h-31q-31 0 -27 33l70 565q12 108 -44 190t-167 82h-67q-85 0 -173 -59t-102 -121
l-80 -659q-4 -31 -33 -31h-30q-33 0 -29 33l111 901q2 29 34 29h31q31 0 27 -31l-8 -66q119 96 256 97h75q82 0 149 -44t105 -118q56 68 144 115t170 47z" />
    <glyph glyph-name="n" unicode="n" horiz-adv-x="1032" 
d="M520 963h84q139 0 232.5 -115t76.5 -252l-69 -565q-4 -31 -35 -31h-31q-31 0 -26 33l69 565q12 109 -47 190.5t-170 81.5h-84q-86 0 -176 -60t-100 -126l-80 -653q-4 -31 -33 -31h-31q-33 0 -28 33l110 901q2 29 35 29h31q31 0 26 -31l-8 -53q127 84 254 84z" />
    <glyph glyph-name="o" unicode="o" horiz-adv-x="1050" 
d="M516 877q-121 -1 -210 -91t-103 -215l-25 -182q-14 -125 52 -212t186 -87h78q117 0 208 88t105 213l24 182q14 125 -53 214q-68 89 -184 90h-78zM522 969h80q150 0 245 -121t77 -277l-25 -182q-18 -155 -141 -273t-273 -118h-79q-152 0 -245 119t-75 274l25 182
q15 156 137 276t274 120z" />
    <glyph glyph-name="p" unicode="p" horiz-adv-x="1040" 
d="M612 870h-86q-84 0 -175 -59t-101 -123l-60 -485q51 -45 122 -78t120 -33h84q96 0 184 77t99 179l30 248q12 110 -48 192t-169 82zM539 963h82q143 0 230 -113t71 -254l-31 -250q-16 -138 -135 -242t-252 -104h-82q-129 0 -244 106l-59 -487q-2 -29 -31 -29h-31
q-35 0 -28 31l159 1313q2 29 35 29h31q29 0 27 -31l-9 -68q126 99 267 99z" />
    <glyph glyph-name="q" unicode="q" horiz-adv-x="997" 
d="M367 92h84q49 0 128 35t140 82l57 481q6 63 -69 122q-76 58 -162 58h-82q-109 0 -191 -84t-94 -192l-31 -248q-14 -100 55 -177t165 -77zM842 963h30q29 0 27 -31l-162 -1313q-2 -29 -30 -29h-31q-35 0 -29 31l60 481q-135 -102 -267 -102h-82q-131 0 -225 105t-78 243
l31 250q16 141 131 253t258 112h82q139 0 242 -99l8 70q2 29 35 29z" />
    <glyph glyph-name="r" unicode="r" horiz-adv-x="833" 
d="M596 877h-82q-84 0 -176 -62.5t-102 -128.5l-80 -655q-4 -31 -33 -31h-31q-33 0 -29 33l111 901q2 29 35 29h31q31 0 26 -31l-8 -53q137 90 254 90h72q131 0 219 -107q20 -25 0 -45l-21 -14q-27 -25 -43 6q-61 68 -143 68z" />
    <glyph glyph-name="s" unicode="s" horiz-adv-x="972" 
d="M438 -10h-53q-119 0 -221.5 80t-97.5 192q0 27 32 27h35q33 0 27 -35q0 -76 73.5 -124t161.5 -48h45q113 0 202 50t99 142q8 20 1 39t-7 32t-15 24.5t-21.5 18.5t-28 13.5t-31.5 10.5q-17 7 -75 11q-243 17 -362 87q-93 55 -78 183t128 203t258 75h43q125 0 225.5 -87
t89.5 -212q-4 -29 -28 -29h-35q-33 0 -33 31q8 88 -62.5 146.5t-164.5 58.5h-37q-276 0 -295 -201q-6 -78 54.5 -105.5t130 -36t149.5 -19.5q164 -23 231 -83t54.5 -172.5t-133.5 -192t-261 -79.5z" />
    <glyph glyph-name="t" unicode="t" horiz-adv-x="600" 
d="M506 963q35 0 31 -31l-7 -31q-2 -31 -32 -31h-154l-76 -618q-18 -150 150 -156q16 0 25.5 -7t7.5 -19l-2 -41q-4 -33 -27 -33q-100 -6 -181 65.5t-63 208.5l74 600h-113q-29 0 -26 31l4 29q8 33 35 33h112l27 215q2 29 31 28h30q33 0 31 -30l-27 -213h150z" />
    <glyph glyph-name="u" unicode="u" horiz-adv-x="1048" 
d="M801 0h-31q-31 0 -27 33l9 49q-125 -84 -254 -84h-78q-143 0 -237 110q-93 110 -74 252l69 574q0 29 33 29h31q33 0 28 -31l-69 -574q-14 -112 44 -190t173 -78h78q86 0 177 60t101 126l80 658q2 29 33 29h31q32 0 28 -31l-110 -901q-4 -31 -35 -31z" />
    <glyph glyph-name="v" unicode="v" horiz-adv-x="911" 
d="M147 963h35q20 0 33 -35l188 -776l381 778q14 33 41 33h35q16 1 24 -9t1 -26l-434 -895q-12 -33 -41 -33h-43q-25 0 -35 35l-211 895q-8 33 26 33z" />
    <glyph glyph-name="w" unicode="w" horiz-adv-x="1406" 
d="M1321 963h35q35 0 24 -35l-354 -895q-12 -33 -43 -33h-41q-20 0 -35 35l-172 772l-364 -774q-12 -33 -43 -33h-41q-20 0 -35 35l-133 895q-6 33 28 33h35q29 0 33 -35l107 -778l368 780q14 33 39 33h45q18 0 31 -29q2 -4 2 -6l172 -778l303 780q12 33 39 33z" />
    <glyph glyph-name="x" unicode="x" horiz-adv-x="923" 
d="M799 963h47q18 -1 23 -11t-7 -26l-352 -439l252 -450q18 -37 -25 -37h-45q-18 0 -43 37l-205 369l-297 -371q-27 -35 -51 -35h-47q-18 0 -25 12t5 27l366 455l-241 434q-8 14 -2 24t24 11h47q20 0 43 -35l195 -350l284 352q29 33 54 33z" />
    <glyph glyph-name="y" unicode="y" horiz-adv-x="989" 
d="M897 963h43q37 0 18 -37l-704 -1303q-18 -33 -51 -33h-43q-37 0 -19 37l238 436l-256 865q-10 35 20 35h45q25 0 39 -35l219 -740l402 742q18 33 49 33z" />
    <glyph glyph-name="z" unicode="z" horiz-adv-x="905" 
d="M733 92q33 0 29 -31l-4 -30q-4 -31 -33 -31h-680q-33 0 -29 33l4 41q4 23 17 32l702 764h-589q-31 0 -27 33l4 29q2 31 35 31h678q32 0 28 -31l-6 -51q-4 -20 -12 -29l-700 -760h583z" />
    <glyph glyph-name="braceleft" unicode="{" horiz-adv-x="768" 
d="M528 -51q31 0 27 -33l-4 -31q-2 -29 -31 -28h-22q-154 0 -233 106t-56 281l41 329q0 25 -8 37l-80 113q-12 25 2 45l106 113q18 18 21 37l41 329q23 175 125 279t256 104h22q31 0 27 -31l-4 -30q-4 -31 -31 -31h-43q-104 0 -173 -70t-83 -192l-47 -381q-4 -25 -19 -39
l-102 -113l74 -116q10 -21 10 -35l-47 -381q-16 -123 34 -193t154 -69h43z" />
    <glyph glyph-name="bar" unicode="|" horiz-adv-x="419" 
d="M356 1638q33 0 27 -30l-244 -1989q-2 -29 -30 -29h-31q-35 0 -29 31l244 1989q2 29 33 28h30z" />
    <glyph glyph-name="braceright" unicode="}" horiz-adv-x="768" 
d="M330 1538h-43q-35 0 -31 33l4 31q2 29 35 28h22q152 0 230 -105t57 -280l-41 -330q-4 -25 10 -38l76 -113q12 -25 -2 -43l-106 -115q-18 -23 -21 -35l-39 -329q-23 -174 -125 -280t-254 -105h-22q-35 0 -29 30l2 31q4 31 35 31h43q104 1 171 71t83 193l47 381q4 25 14 37
l107 112l-72 117q-14 18 -12 37l47 381q16 124 -33 192t-153 68z" />
    <glyph glyph-name="asciitilde" unicode="~" horiz-adv-x="1058" 
d="M961 793l14 -37q8 -27 -23 -45q-217 -143 -411 -2q-96 61 -171 58t-194 -77q-18 -10 -31 21l-14 34q-10 25 23 48q213 143 411 0q96 -61 170 -57t191 77q20 10 32 -16q3 -2 3 -4z" />
    <glyph glyph-name="exclamdown" unicode="&#xa1;" horiz-adv-x="415" 
d="M217 766h31q31 0 26 -31l-137 -1116q-2 -29 -33 -29h-30q-33 0 -27 31l135 1116q2 29 35 29zM293 1077q31 0 29 -30l-7 -33q-4 -31 -30 -31h-47q-33 0 -29 33l4 33q2 29 35 28h45z" />
    <glyph glyph-name="cent" unicode="&#xa2;" horiz-adv-x="985" 
d="M518 877q-106 0 -200 -84t-109 -195l-29 -233q-14 -113 59 -194t179 -81h28l99 787h-27zM877 645h-33q-16 0 -26 7q-9 7 -7 24q4 51 -40 105t-105 79l-95 -756q98 35 189 132q23 23 41 2l26 -23q27 -23 7 -43q-129 -135 -275 -166l-29 -239q-2 -29 -32 -29h-62
q-31 0 -28 31l28 229h-26q-137 0 -239 112q-101 112 -83 257l29 233q18 145 145 257t264 112h29l29 227q2 29 34 29h62q29 0 27 -31l-29 -238q96 -32 166 -114t61 -170q-4 -27 -28 -27z" />
    <glyph glyph-name="sterling" unicode="&#xa3;" horiz-adv-x="1163" 
d="M614 1511h74q166 0 277 -143t90 -334q-4 -27 -31 -26h-31q-37 0 -30 34q16 146 -69 262t-218 115h-74q-145 0 -257 -120t-107 -279q2 -61 43 -244h378q31 0 27 -33l-4 -30q-2 -29 -33 -29h-352q10 -63 -2 -127q-43 -246 -150 -422q109 39 181 33t166 -49q100 -41 175 -38
t187 50q16 6 24 -5t7 -28l-4 -37q-4 -23 -29 -30q-119 -45 -204 -44t-181 46q-111 43 -189 34t-196 -71q-18 -8 -50 30t-24 54q86 162 126 260q81 199 65 344h-203q-29 0 -27 31l4 30q2 31 35 31h172q-37 168 -39 252q-1 190 147 336t326 147z" />
    <glyph glyph-name="currency" unicode="&#xa4;" horiz-adv-x="1189" 
d="M412 90h77q117 0 208 88t106 213l24 182q14 125 -53 214q-68 89 -184 90h-78q-76 0 -143 -39l37 -43l-70 -66l-43 49q-78 -84 -94 -207l-25 -182q-12 -119 45 -203l51 47l60 -65l-47 -43q53 -35 129 -35zM481 -2h-80q-106 0 -192 65l-57 -51q-20 -20 -43 2l-17 21
q-20 25 4 43l54 47q-86 117 -68 266l24 182q14 147 130 269l-39 45q-20 25 2 43l22 22q20 16 45 -4l41 -47q100 68 211 68h80q162 0 260 -140l139 123q20 19 43 -4l17 -20q20 -25 -4 -43l-154 -137q31 -82 21 -177l-25 -182q-12 -92 -64 -176l121 -137q20 -25 0 -43l-24 -21
q-20 -20 -45 2l-111 121q-127 -137 -291 -137z" />
    <glyph glyph-name="yen" unicode="&#xa5;" horiz-adv-x="1163" 
d="M1053 563q31 0 26 -33l-4 -34q-2 -31 -35 -31h-432l-16 -125h432q33 0 27 -31l-2 -37q-2 -29 -35 -28h-434l-27 -213q-4 -31 -35 -31h-31q-31 0 -26 33l26 211h-247q-31 0 -27 30l4 37q2 29 33 29h250l14 125h-248q-31 0 -26 33l4 34q2 31 35 31h247l13 90l-361 805
q-14 29 21 29h49q23 0 35 -31l313 -696l483 698q23 29 45 29h50q16 0 23 -8t-5 -23l-561 -803l-10 -90h432z" />
    <glyph glyph-name="brokenbar" unicode="&#xa6;" horiz-adv-x="419" 
d="M182 457h31q29 0 27 -31l-82 -664q-2 -29 -33 -28h-31q-32 -1 -28 30l81 664q2 29 35 29zM309 1495h31q29 0 27 -31l-82 -661q-2 -31 -33 -31h-31q-32 0 -28 33l81 661q2 29 35 29z" />
    <glyph glyph-name="section" unicode="&#xa7;" horiz-adv-x="1241" 
d="M707 805l-101 18q-168 33 -260 105q-70 -82 -85 -215t75 -196q73 -52 217 -81l104 -20q166 -35 261 -107q68 90 79 197q18 144 -59 206t-231 93zM684 1624h107q167 0 279 -125t87 -309l-2 -39q-2 -29 -35 -29h-33q-31 0 -28 31l4 39q20 152 -64 246t-217 94h-106
q-138 0 -236 -83t-115 -226t59 -209t228 -96l103 -21q297 -59 361 -233q26 -72 13 -186t-110 -232q66 -96 49 -240q-20 -178 -162 -297t-315 -119h-94q-170 0 -287 120t-94 296l6 60q4 31 35 30h33q31 0 26 -33l-6 -59q-14 -145 73 -233t222 -88h94q141 0 251 91t128 242
q10 96 -25 164l-6 -6l-53 72q-63 47 -205 78l-104 20q-195 37 -295 127t-80 250t115 266q-72 94 -54 236q19 177 151 289t302 112z" />
    <glyph glyph-name="dieresis" unicode="&#xa8;" horiz-adv-x="1005" 
d="M903 1487h62q35 0 26 -31l-10 -84q-2 -31 -31 -31h-61q-33 0 -27 33l10 84q2 29 31 29zM266 1487h60q35 0 28 -31l-10 -84q-4 -31 -33 -31h-59q-35 0 -29 33l10 84q2 29 33 29z" />
    <glyph glyph-name="copyright" unicode="&#xa9;" horiz-adv-x="1261" 
d="M813 524h68q12 0 17 -3t3 -15q-16 -117 -95 -198t-181 -81h-64q-113 0 -173 84t-44 213l53 439q17 129 97 213t190 84h64q104 0 164 -83t49 -204q-2 -8 -23 -8h-68q-25 0 -22 22q10 82 -15 121q-26 39 -96 39h-65q-76 0 -115 -42t-51 -138l-53 -449q-11 -96 15 -139
t101 -43h68q135 0 156 174q0 14 20 14zM504 72h129q137 0 254 112t137 279l72 561q20 166 -70 279t-227 112h-129q-137 1 -255 -113t-139 -280l-67 -561q-20 -165 69 -277t226 -112zM686 1511h119q176 0 296 -143t95 -342l-70 -569q-24 -199 -178 -341t-330 -143h-118
q-176 -1 -297 143t-97 343l72 569q23 199 176 341q154 142 332 142z" />
    <glyph glyph-name="ordfeminine" unicode="&#xaa;" horiz-adv-x="653" 
d="M350 1042h31q88 0 162 70l10 92h-180q-119 0 -127 -86q-9 -76 104 -76zM596 963h-47q-25 0 -21 32l2 17q-76 -49 -155 -49h-31q-80 0 -131 44q-51 43 -42 117t67 117t143 43h182q14 123 -88 123h-51q-92 0 -154 -53q-23 -10 -34 4l-15 26q-10 18 -2 27q86 76 209 76h49
q78 1 123 -61t35 -146l-35 -287l-4 -22q2 0 3 -4t-3 -4z" />
    <glyph glyph-name="guillemotleft" unicode="&#xab;" horiz-adv-x="1189" 
d="M655 596l426 295q13 10 25 4t8 -23l-10 -90q-2 -20 -37 -45l-309 -211l250 -213q6 -7 20 -17t14 -28l-12 -88q0 -14 -12 -19t-23 5l-350 293q-4 4 -17 13t-10 26l7 61q0 18 13 26q13 7 17 11zM143 596l424 295q15 10 27 4t8 -23l-10 -90q-2 -16 -37 -45l-309 -211
l250 -213q6 -7 20 -17t14 -28l-12 -88q-2 -16 -13 -20t-22 6l-352 293q-4 4 -19 14t-6 25l7 61q0 18 13 26q13 7 17 11z" />
    <glyph glyph-name="logicalnot" unicode="&#xac;" horiz-adv-x="1052" 
d="M172 723h746q33 0 28 -31l-51 -403q-2 -31 -31 -31h-30q-35 0 -29 33l41 340h-684q-31 0 -27 33l4 30q2 29 33 29z" />
    <glyph glyph-name="softhyphen" unicode="&#xad;" horiz-adv-x="888" 
d="M707 473h-541q-35 0 -31 31l4 31q4 31 35 30h541q31 0 26 -33l-4 -30q-1 -29 -30 -29z" />
    <glyph glyph-name="registered" unicode="&#xae;" horiz-adv-x="1267" 
d="M696 778q86 0 114 39t40 132t-6 124t-107 31h-184l-39 -326h182zM793 279q-29 0 -25 34l25 205q9 84 -11 118t-98 34h-184l-45 -359q-4 -33 -31 -32h-51q-31 0 -27 34l105 844q2 23 22 39t43 16h232q110 0 164 -72t39 -204q-15 -131 -113 -213q76 -70 59 -207l-27 -205
q-4 -33 -30 -32h-47zM508 72h129q137 0 254 112t137 279l72 561q20 166 -70 279t-227 112h-129q-137 1 -255 -113t-138 -280l-68 -561q-20 -165 69 -277t226 -112zM690 1511h119q176 0 296 -143t95 -342l-70 -569q-24 -199 -178 -341t-329 -143h-119q-176 -1 -297 143
t-96 343l71 569q23 199 176 341q154 142 332 142z" />
    <glyph glyph-name="macron" unicode="&#xaf;" horiz-adv-x="1011" 
d="M940 1395h-664q-31 0 -26 32l4 31q2 29 33 29h663q33 0 27 -31l-2 -31q-6 -30 -35 -30z" />
    <glyph glyph-name="degree" unicode="&#xb0;" horiz-adv-x="923" 
d="M551 1384q-184 0 -207 -198l-2 -21q-27 -195 156 -194h28q90 0 144 51q53 51 63 145l2 21q27 197 -153 196h-31zM559 1487h31q126 0 194 -84t52 -215l-2 -23q-16 -133 -104 -216t-214 -83h-31q-129 0 -197 84t-50 217l2 23q16 133 102 215t217 82z" />
    <glyph glyph-name="plusminus" unicode="&#xb1;" horiz-adv-x="1052" 
d="M96 92h748q29 0 24 -31l-4 -30q-4 -31 -33 -31h-745q-33 0 -29 33l4 30q2 29 35 29zM915 698q33 0 29 -32l-4 -31q-2 -29 -35 -29h-325l-45 -360q0 -31 -33 -31h-31q-33 0 -29 33l45 358h-327q-33 0 -29 31l6 31q2 31 31 30h332l45 359q2 29 30 28h31q33 0 29 -30
l-45 -357h325z" />
    <glyph glyph-name="twosuperior" unicode="&#xb2;" horiz-adv-x="655" 
d="M539 852h-344q-33 0 -29 33l6 49q4 34 20 55q16 20 48 41l159 154q6 6 36 30q97 76 44 134q-20 22 -54 22t-60 -19t-29 -56q-4 -36 -33 -35h-61q-35 0 -29 32l2 27q11 68 67 118t130 50h51q80 1 123 -61q42 -62 32 -143t-153 -212l-119 -102l205 4q31 0 29 -31l-9 -59
q-2 -31 -32 -31z" />
    <glyph glyph-name="threesuperior" unicode="&#xb3;" horiz-adv-x="653" 
d="M430 854h-51q-74 0 -120 52t-36 120l2 27q2 29 35 28h62q31 0 26 -36t13 -55q19 -19 49 -19q88 0 98 76q4 31 -15 51t-53 20h-47q-33 0 -28 33l6 45q2 29 35 29h47q33 1 57 23t29 55t-15 51t-55 18t-61 -19t-30 -56q-5 -36 -32 -35h-61q-33 0 -29 32l2 27q10 68 66 118
t131 50h51q80 0 124 -56q44 -57 34 -131t-86 -133q61 -65 53 -135q-9 -70 -65 -125t-136 -55z" />
    <glyph glyph-name="acute" unicode="&#xb4;" horiz-adv-x="491" 
d="M494 1638q43 0 18 -36l-225 -379q-23 -37 -47 -37h-35q-16 0 -23 11q-6 12 4 28l201 379q18 35 47 34h60z" />
    <glyph glyph-name="paragraph" unicode="&#xb6;" horiz-adv-x="1153" 
d="M948 745l82 650h-151l-80 -650h149zM600 1395q-303 -1 -343 -325t261 -325h189l79 650h-186zM614 1487h484q35 0 28 -31l-174 -1425q-2 -31 -34 -31h-31q-31 0 -27 33l76 620h-150l-75 -622q0 -31 -33 -31h-31q-33 0 -29 33l76 620h-180q-184 0 -278 112q-94 111 -70 307
t144 306t304 109z" />
    <glyph glyph-name="periodcentered" unicode="&#xb7;" horiz-adv-x="327" 
d="M209 694q33 0 29 -32l-11 -84q-2 -29 -34 -29h-60q-31 0 -29 31l11 84q4 31 35 30h59z" />
    <glyph glyph-name="cedilla" unicode="&#xb8;" horiz-adv-x="679" 
d="M174 14h72q23 0 12 -22q-74 -84 -15 -95q29 -6 93 -15t86 -19q66 -29 56 -115t-56 -124q-45 -38 -141 -38h-76q-84 0 -126 47t-34 129q4 16 21 17h63q19 0 19 -28q-1 -56 92 -56h22q46 0 62 1t30 12t18 40q4 28 -34 40t-188 28q-63 5 -58 79q4 44 55 105q16 14 27 14z
" />
    <glyph glyph-name="onesuperior" unicode="&#xb9;" horiz-adv-x="618" 
d="M389 1487h66q33 0 26 -31l-69 -571q-2 -31 -33 -31h-66q-32 0 -28 33l71 571q2 29 33 29z" />
    <glyph glyph-name="ordmasculine" unicode="&#xba;" horiz-adv-x="663" 
d="M340 449h-43q-57 0 -98 -41t-49 -99l-13 -94q-6 -57 24 -98t87 -41h43q55 0 100 43t51 98l13 94q8 55 -26 97t-89 41zM305 524h45q84 0 136 -64t42 -153l-10 -88q-10 -91 -78 -155t-153 -64h-45q-86 0 -140 66q-53 66 -43 155l13 88q10 87 78 151t155 64z" />
    <glyph glyph-name="guillemotright" unicode="&#xbb;" horiz-adv-x="1189" 
d="M698 887l351 -293q4 -4 16 -11t12 -26l-8 -61q0 -18 -14 -28l-441 -306q-14 -10 -26 -3t-10 23l12 88q2 18 39 45l309 211l-254 215q-8 8 -24 20q-10 10 -7 23l11 90q2 16 13 20t21 -7zM184 887l353 -293q4 -4 16 -11t12 -26l-10 -61q0 -24 -8 -26q-8 -3 -13 -7t-10 -6
l-422 -295q-14 -10 -26 -3t-10 23l12 88q0 16 39 45l309 211l-254 215q-4 3 -11 9t-9 8t-8 7q-5 5 -4 8t1 11l11 90q2 16 12 20t20 -7z" />
    <glyph glyph-name="onequarter" unicode="&#xbc;" horiz-adv-x="1511" 
d="M1194 451l-129 -205h102zM1208 635h99q29 0 26 -31l-43 -362h29q29 0 27 -31l-9 -61q-2 -31 -32 -31h-31l-10 -88q-2 -31 -33 -31h-62q-33 0 -28 33l10 86h-221q-29 0 -29 33l2 59l8 25l265 387q8 12 32 12zM389 1487h66q33 0 26 -31l-69 -571q-2 -31 -33 -31h-66
q-32 0 -28 33l71 571q2 29 33 29zM1194 1487h86q16 0 22 -8t-4 -23l-1001 -1425q-23 -31 -45 -31h-86q-16 0 -24 8q-7 9 3 25l1004 1425q20 29 45 29z" />
    <glyph glyph-name="onehalf" unicode="&#xbd;" horiz-adv-x="1478" 
d="M1257 0h-344q-33 0 -28 33l6 49q6 42 27 59q4 3 19 17t21 20l160 154q6 6 49 40t47 67q4 34 -16 57q-20 22 -54 22t-60 -19t-30 -55q-5 -37 -32 -36h-61q-35 0 -29 32l2 27q10 68 66 118t130 50h52q80 1 123 -61t33 -143t-154 -212l-119 -102l205 4q33 0 26 -31l-6 -59
q-4 -31 -33 -31zM389 1487h66q33 0 26 -31l-69 -571q-2 -31 -33 -31h-66q-32 0 -28 33l71 571q2 29 33 29zM1194 1487h86q16 0 22 -8t-4 -23l-1001 -1425q-23 -31 -45 -31h-86q-16 0 -24 8q-7 9 3 25l1004 1425q20 29 45 29z" />
    <glyph glyph-name="threequarters" unicode="&#xbe;" horiz-adv-x="1546" 
d="M1229 451l-129 -205h102zM1243 635h98q31 0 27 -31l-43 -362h29q31 0 26 -31l-8 -61q-4 -31 -33 -31h-30l-11 -88q-4 -31 -32 -31h-62q-33 0 -28 33l10 86h-221q-29 0 -29 33l2 59l8 25l264 387q10 12 33 12zM1229 1487h86q16 0 22 -8t-4 -23l-1001 -1425
q-20 -31 -45 -31h-86q-16 0 -24 8q-7 9 3 25l1004 1425q20 29 45 29zM387 854h-51q-74 0 -120 52t-36 120l2 27q2 29 35 28h62q29 0 25 -36t14 -55q19 -19 49 -19q88 0 98 76q4 31 -15 51t-53 20h-47q-33 0 -28 33l6 45q2 29 34 29h48q34 1 58 23t28 55t-16 51t-54 18
q-35 0 -61 -19t-29 -56q-4 -36 -33 -35h-61q-33 0 -29 32l2 27q11 68 67 118t130 50h51q80 0 124 -56q44 -57 34 -131t-86 -133q61 -65 53 -135t-64 -125t-137 -55z" />
    <glyph glyph-name="questiondown" unicode="&#xbf;" horiz-adv-x="1040" 
d="M444 -436h-86q-168 0 -273 126t-84 294t109 262t214 137t164 72t49 108l20 174q2 29 35 29h31q29 0 26 -31l-22 -164q-15 -109 -65 -167t-177 -103t-201 -110t-91 -207t63 -236q80 -92 211 -92h86q129 0 231 92t121 248l4 41q6 29 35 29h33q29 0 26 -31l-4 -41
q-19 -180 -155 -305t-300 -125zM659 983h-47q-35 0 -30 33l6 33q2 29 33 28h47q28 1 26 -30l-4 -33q-2 -31 -31 -31z" />
    <glyph glyph-name="Agrave" unicode="&#xc0;" horiz-adv-x="1230" 
d="M883 530l-164 846l-377 -846h541zM1042 0h-30q-31 0 -35 35l-80 409v-6h-598l-180 -405q-12 -33 -39 -33h-33q-39 0 -22 35l639 1427q12 31 43 31h45q28 0 32 -33l283 -1427q12 -33 -25 -33zM584 2163h65q35 0 39 -37l105 -379q14 -37 -21 -37h-41q-21 0 -35 39l-133 379
q-12 35 21 35z" />
    <glyph glyph-name="Aacute" unicode="&#xc1;" horiz-adv-x="1230" 
d="M883 530l-164 846l-377 -846h541zM1042 0h-30q-31 0 -35 35l-80 409v-6h-598l-180 -405q-12 -33 -39 -33h-33q-39 0 -22 35l639 1427q12 31 43 31h45q28 0 32 -33l283 -1427q12 -33 -25 -33zM766 1710h-35q-16 0 -22 11t4 28l200 379q16 35 48 35h59q43 0 18 -37
l-225 -379q-22 -37 -47 -37z" />
    <glyph glyph-name="Acircumflex" unicode="&#xc2;" horiz-adv-x="1230" 
d="M883 530l-164 846l-377 -846h541zM1042 0h-30q-31 0 -35 35l-80 409v-6h-598l-180 -405q-12 -33 -39 -33h-33q-39 0 -22 35l639 1427q12 31 43 31h45q28 0 32 -33l283 -1427q12 -33 -25 -33zM1038 1724q-18 0 -27 16q-8 16 -16 25l-194 297l-271 -301q-33 -37 -51 -37
h-57q-16 0 -20 14t8 27l335 367q29 31 50 31h28q16 0 45 -33l244 -369q10 -12 5 -24t-21 -13h-58z" />
    <glyph glyph-name="Atilde" unicode="&#xc3;" horiz-adv-x="1230" 
d="M883 530l-164 846l-377 -846h541zM1042 0h-30q-31 0 -35 35l-80 409v-6h-598l-180 -405q-12 -33 -39 -33h-33q-39 0 -22 35l639 1427q12 31 43 31h45q28 0 32 -33l283 -1427q12 -33 -25 -33zM1135 1997l14 -37q8 -27 -21 -45q-118 -74 -188 -73t-166 71q-98 61 -142 59
t-163 -78q-20 -10 -33 21l-14 35q-10 25 22 47q115 74 185 73t170 -73q94 -59 139 -57t162 77q23 11 35 -20z" />
    <glyph glyph-name="Adieresis" unicode="&#xc4;" horiz-adv-x="1230" 
d="M883 530l-164 846l-377 -846h541zM1042 0h-30q-31 0 -35 35l-80 409v-6h-598l-180 -405q-12 -33 -39 -33h-33q-39 0 -22 35l639 1427q12 31 43 31h45q28 0 32 -33l283 -1427q12 -33 -25 -33zM1079 2011h62q35 0 26 -31l-10 -84q-2 -31 -31 -30h-61q-33 0 -27 32l11 84
q1 29 30 29zM487 1866h-59q-35 0 -29 32l11 84q2 29 32 29h60q35 0 28 -31l-10 -84q-4 -30 -33 -30z" />
    <glyph glyph-name="Aring" unicode="&#xc5;" horiz-adv-x="1230" 
d="M883 530l-164 846l-377 -846h541zM1042 0h-30q-31 0 -35 35l-80 409v-6h-598l-180 -405q-12 -33 -39 -33h-33q-39 0 -22 35l639 1427q12 31 43 31h45q28 0 32 -33l283 -1427q12 -33 -25 -33zM784 1855q102 0 113 101l2 18q16 98 -88 99h-23q-100 -1 -110 -101l-2 -18
q-16 -98 86 -99h22zM776 1763h-26q-84 1 -130 55t-36 136l2 22q10 82 69 135t142 54h26q82 -1 129 -55t37 -136l-2 -22q-9 -84 -69 -136t-142 -53z" />
    <glyph glyph-name="AE" unicode="&#xc6;" horiz-adv-x="1857" 
d="M981 1487h836q35 0 26 -31l-2 -31q-6 -31 -33 -30h-761l-72 -598h624q33 0 29 -33l-6 -31q-2 -29 -33 -28h-628l-72 -613h758q33 0 28 -31l-6 -30q0 -31 -33 -31h-821q-33 0 -29 33l158 1278l-526 -781h422l-15 -92h-469l-274 -407q-18 -31 -45 -31h-45q-35 0 -19 33
l963 1425q16 29 45 29z" />
    <glyph glyph-name="Ccedilla" unicode="&#xc7;" horiz-adv-x="1159" 
d="M653 1509h95q164 0 275.5 -144t90.5 -333q-4 -27 -33 -26h-30q-35 0 -29 34q18 150 -70 263.5t-217 113.5h-94q-137 0 -254 -116.5t-137 -278.5l-68 -557q-20 -162 68 -280.5t225 -118.5h94q131 0 248 117.5t133 271.5q2 27 35 26h31q29 0 26 -35q-23 -184 -170 -328.5
t-311 -144.5h-78q-33 -55 -19 -69t60 -13q117 -18 140 -28q66 -29 55.5 -115t-56 -124t-141.5 -38h-76q-84 0 -125.5 47.5t-33.5 128.5q4 16 20 17h64q20 0 19 -28q-2 -56 91 -56h23q47 0 62.5 1t29.5 12t17 40t-34.5 40t-187.5 28q-60 5 -58 73q1 41 44 97
q-139 37 -223 174t-64 307l70 557q25 197 173 341t320 144z" />
    <glyph glyph-name="Egrave" unicode="&#xc8;" horiz-adv-x="1138" 
d="M881 797q31 0 26 -33l-4 -31q-2 -29 -35 -28h-626l-74 -613h760q31 0 26 -31l-4 -30q-4 -31 -32 -31h-822q-33 0 -28 33l176 1425q2 29 32 29h822q33 0 26 -31l-2 -31q-6 -31 -35 -30h-759l-74 -598h627zM715 1710h-41q-20 0 -35 39l-133 379q-12 35 20 35h66
q35 0 39 -37l104 -379q14 -37 -20 -37z" />
    <glyph glyph-name="Eacute" unicode="&#xc9;" horiz-adv-x="1138" 
d="M881 797q31 0 26 -33l-4 -31q-2 -29 -35 -28h-626l-74 -613h760q31 0 26 -31l-4 -30q-4 -31 -32 -31h-822q-33 0 -28 33l176 1425q2 29 32 29h822q33 0 26 -31l-2 -31q-6 -31 -35 -30h-759l-74 -598h627zM903 2163h60q43 0 18 -37l-225 -379q-23 -37 -47 -37h-35
q-16 0 -22.5 11.5t3.5 27.5l201 379q16 35 47 35z" />
    <glyph glyph-name="Ecircumflex" unicode="&#xca;" horiz-adv-x="1138" 
d="M881 797q31 0 26 -33l-4 -31q-2 -29 -35 -28h-626l-74 -613h760q31 0 26 -31l-4 -30q-4 -31 -32 -31h-822q-33 0 -28 33l176 1425q2 29 32 29h822q33 0 26 -31l-2 -31q-6 -31 -35 -30h-759l-74 -598h627zM737 2163h29q16 0 45 -33l244 -369q10 -12 5 -24.5t-22 -12.5h-57
q-4 0 -9 2.5t-8 3.5q-7 2 -13.5 15.5t-12.5 19.5l-195 297l-270 -301q-33 -37 -51 -37h-57q-16 0 -20.5 13.5t7.5 27.5l336 367q29 31 49 31z" />
    <glyph glyph-name="Edieresis" unicode="&#xcb;" horiz-adv-x="1138" 
d="M881 797q31 0 26 -33l-4 -31q-2 -29 -35 -28h-626l-74 -613h760q31 0 26 -31l-4 -30q-4 -31 -32 -31h-822q-33 0 -28 33l176 1425q2 29 32 29h822q33 0 26 -31l-2 -31q-6 -31 -35 -30h-759l-74 -598h627zM1022 2011h61q35 0 27 -31l-10 -84q-2 -31 -31 -30h-61
q-33 -1 -27 32l10 84q2 29 31 29zM385 2011h59q35 0 29 -31l-10 -84q-4 -31 -33 -30h-59q-35 -1 -29 32l10 84q2 29 33 29z" />
    <glyph glyph-name="Igrave" unicode="&#xcc;" horiz-adv-x="458" 
d="M297 1487h31q33 0 26 -31l-174 -1425q-4 -31 -33 -31h-30q-31 0 -27 33l176 1425q2 29 31 29zM356 1710h-41q-20 0 -34 39l-134 379q-12 35 21 35h65q37 0 39 -37l105 -379q14 -37 -21 -37z" />
    <glyph glyph-name="Iacute" unicode="&#xcd;" horiz-adv-x="458" 
d="M297 1487h31q33 0 26 -31l-174 -1425q-4 -31 -33 -31h-30q-31 0 -27 33l176 1425q2 29 31 29zM545 2163h59q43 0 19 -37l-226 -379q-23 -37 -47 -37h-35q-16 0 -22 12t4 27l201 379q18 35 47 35z" />
    <glyph glyph-name="Icircumflex" unicode="&#xce;" horiz-adv-x="458" 
d="M297 1487h31q33 0 26 -31l-174 -1425q-4 -31 -33 -31h-30q-31 0 -27 33l176 1425q2 29 31 29zM379 2163h29q16 0 45 -33l243 -369q10 -12 5 -24t-21 -13h-57q-20 0 -28 18q-9 18 -15 23l-195 297l-270 -301q-33 -37 -52 -37h-57q-16 0 -21 14t7 27l338 367q29 31 49 31z
" />
    <glyph glyph-name="Idieresis" unicode="&#xcf;" horiz-adv-x="458" 
d="M297 1487h31q33 0 26 -31l-174 -1425q-4 -31 -33 -31h-30q-31 0 -27 33l176 1425q2 29 31 29zM664 2011h61q37 0 27 -31l-11 -84q-4 -31 -30 -30h-62q-32 -1 -26 32l10 84q2 29 31 29zM27 2011h59q35 0 29 -31l-11 -84q-2 -31 -32 -30h-60q-34 -1 -28 32l10 84
q2 29 33 29z" />
    <glyph glyph-name="Eth" unicode="&#xd0;" horiz-adv-x="1210" 
d="M778 1395h-432l-70 -559h359q29 0 27 -31l-5 -31q-2 -31 -30 -31h-361l-80 -651h432q129 0 243 118t134 273l66 525q18 154 -68 270t-215 117zM293 1487h489q170 1 282 -143t87 -338l-64 -525q-25 -195 -171 -338t-314 -143h-489q-31 0 -27 33l88 710h-88q-35 0 -31 33
l4 31q2 29 35 29h90l78 622q2 29 31 29z" />
    <glyph glyph-name="Ntilde" unicode="&#xd1;" horiz-adv-x="1290" 
d="M1210 1487h31q33 0 27 -31l-174 -1425q-4 -31 -33 -31h-129q-20 0 -33 25l-561 1437l-178 -1431q-4 -31 -33 -31h-31q-33 0 -28 33l176 1425q2 29 32 29h127q27 0 35 -23l561 -1437l179 1431q1 29 32 29zM1165 1997l15 -37q8 -27 -21 -45q-117 -74 -187.5 -73t-166.5 71
q-98 61 -142.5 59t-162.5 -78q-20 -10 -33 21l-14 35q-10 25 22 47q115 74 184.5 72.5t169.5 -72.5q94 -59 139.5 -57t161.5 77q23 11 35 -20z" />
    <glyph glyph-name="Ograve" unicode="&#xd2;" 
d="M487 84h91q142 0 254 116t135 287l63 535q20 172 -62 287q-83 115 -227 114h-90q-141 1 -254 -115t-135 -288l-63 -535q-19 -173 63 -287t225 -114zM662 1516h92q176 0 284 -144t84 -348l-65 -543q-27 -203 -170 -346t-320 -143h-92q-176 0 -285 144t-84 347l64 543
q28 202 172 346t320 144zM748 1710h-41q-20 0 -35 39l-133 379q-12 35 20 35h66q35 0 39 -37l104 -379q14 -37 -20 -37z" />
    <glyph glyph-name="Oacute" unicode="&#xd3;" 
d="M487 84h91q142 0 254 116t135 287l63 535q20 172 -62 287q-83 115 -227 114h-90q-141 1 -254 -115t-135 -288l-63 -535q-19 -173 63 -287t225 -114zM662 1516h92q176 0 284 -144t84 -348l-65 -543q-27 -203 -170 -346t-320 -143h-92q-176 0 -285 144t-84 347l64 543
q28 202 172 346t320 144zM936 2163h59q43 0 19 -37l-226 -379q-23 -37 -47 -37h-34q-16 0 -23 11q-6 12 4 28l201 379q16 35 47 35z" />
    <glyph glyph-name="Ocircumflex" unicode="&#xd4;" 
d="M487 84h91q142 0 254 116t135 287l63 535q20 172 -62 287q-83 115 -227 114h-90q-141 1 -254 -115t-135 -288l-63 -535q-19 -173 63 -287t225 -114zM662 1516h92q176 0 284 -144t84 -348l-65 -543q-27 -203 -170 -346t-320 -143h-92q-176 0 -285 144t-84 347l64 543
q28 202 172 346t320 144zM770 2163h29q16 0 45 -33l243 -369q9 -12 5 -24t-21 -13h-57q-20 0 -28 18q-9 18 -15 23l-195 297l-270 -301q-33 -37 -51 -37h-58q-16 0 -20 14t8 27l336 367q27 31 49 31z" />
    <glyph glyph-name="Otilde" unicode="&#xd5;" 
d="M487 84h91q142 0 254 116t135 287l63 535q20 172 -62 287q-83 115 -227 114h-90q-141 1 -254 -115t-135 -288l-63 -535q-19 -173 63 -287t225 -114zM662 1516h92q176 0 284 -144t84 -348l-65 -543q-27 -203 -170 -346t-320 -143h-92q-176 0 -285 144t-84 347l64 543
q28 202 172 346t320 144zM1110 1997l14 -37q8 -27 -20 -45q-117 -74 -188 -73t-166 71q-98 61 -142 59t-164 -78q-20 -10 -32 21l-15 35q-10 25 23 47q114 74 184 73t170 -73q94 -59 139 -57t162 77q23 11 35 -20z" />
    <glyph glyph-name="Odieresis" unicode="&#xd6;" 
d="M487 84h91q142 0 254 116t135 287l63 535q20 172 -62 287q-83 115 -227 114h-90q-141 1 -254 -115t-135 -288l-63 -535q-19 -173 63 -287t225 -114zM662 1516h92q176 0 284 -144t84 -348l-65 -543q-27 -203 -170 -346t-320 -143h-92q-176 0 -285 144t-84 347l64 543
q28 202 172 346t320 144zM1055 2011h61q35 0 27 -31l-10 -84q-2 -31 -31 -30h-62q-32 -1 -26 32l10 84q2 29 31 29zM418 2011h59q35 0 29 -31l-10 -84q-4 -31 -33 -30h-60q-34 -1 -28 32l10 84q2 29 33 29z" />
    <glyph glyph-name="multiply" unicode="&#xd7;" horiz-adv-x="813" 
d="M727 954l23 -18q16 -25 -7 -45l-260 -232l199 -227q23 -23 -2 -43l-25 -22q-20 -16 -41 4l-200 227l-262 -233q-25 -18 -43 2l-21 22q-16 23 4 41l262 236l-198 225q-16 25 4 43l22 22q23 20 43 -4l199 -225l260 231q25 21 43 -4z" />
    <glyph glyph-name="Oslash" unicode="&#xd8;" 
d="M487 84h91q142 0 254 116t135 287l63 535q25 199 -88 317l-655 -1171q80 -84 200 -84zM651 1423q-141 0 -254 -115q-112 -116 -135 -288l-63 -535q-14 -125 28 -229l639 1139q-57 29 -125 28h-90zM567 -8h-92q-135 0 -235 90l-29 -51q-18 -31 -45 -31h-43q-37 0 -21 33
l72 127q-90 139 -68 323l64 543q27 203 171 346t321 144h92q84 0 161 -39q10 10 31 10h43q37 0 19 -31l-19 -31q76 -70 112 -175t21 -226l-65 -543q-27 -203 -170 -346t-320 -143z" />
    <glyph glyph-name="Ugrave" unicode="&#xd9;" horiz-adv-x="1167" 
d="M1112 1489h31q35 0 28 -31l-122 -1009q-25 -199 -166 -330t-338 -131h-53q-197 0 -307 132t-83 331l125 1009q2 29 31 29h31q35 0 28 -31l-124 -1020q-19 -166 65 -262t244 -96h53q159 0 269 97t130 263l127 1020q2 29 31 29zM745 1710h-40q-20 0 -35 39l-133 379
q-12 35 20 35h66q37 0 39 -37l104 -379q14 -37 -21 -37z" />
    <glyph glyph-name="Uacute" unicode="&#xda;" horiz-adv-x="1167" 
d="M1112 1489h31q35 0 28 -31l-122 -1009q-25 -199 -166 -330t-338 -131h-53q-197 0 -307 132t-83 331l125 1009q2 29 31 29h31q35 0 28 -31l-124 -1020q-19 -166 65 -262t244 -96h53q159 0 269 97t130 263l127 1020q2 29 31 29zM934 2163h59q43 0 19 -37l-226 -379
q-23 -37 -47 -37h-34q-16 0 -23 11q-6 12 4 28l201 379q18 35 47 35z" />
    <glyph glyph-name="Ucircumflex" unicode="&#xdb;" horiz-adv-x="1167" 
d="M1112 1489h31q35 0 28 -31l-122 -1009q-25 -199 -166 -330t-338 -131h-53q-197 0 -307 132t-83 331l125 1009q2 29 31 29h31q35 0 28 -31l-124 -1020q-19 -166 65 -262t244 -96h53q159 0 269 97t130 263l127 1020q2 29 31 29zM768 2163h29q16 0 45 -33l243 -369
q9 -12 5 -24t-21 -13h-57q-20 0 -28 18q-9 18 -15 23l-195 297l-270 -301q-33 -37 -51 -37h-58q-16 0 -20 14t8 27l336 367q27 31 49 31z" />
    <glyph glyph-name="Udieresis" unicode="&#xdc;" horiz-adv-x="1167" 
d="M1112 1489h31q35 0 28 -31l-122 -1009q-25 -199 -166 -330t-338 -131h-53q-197 0 -307 132t-83 331l125 1009q2 29 31 29h31q35 0 28 -31l-124 -1020q-19 -166 65 -262t244 -96h53q159 0 269 97t130 263l127 1020q2 29 31 29zM1053 2011h61q37 0 27 -31l-11 -84
q-4 -31 -30 -30h-62q-32 -1 -26 32l10 84q2 29 31 29zM416 2011h59q35 0 29 -31l-10 -84q-2 -31 -33 -30h-60q-34 -1 -28 32l10 84q2 29 33 29z" />
    <glyph glyph-name="Yacute" unicode="&#xdd;" horiz-adv-x="1163" 
d="M1124 1487h50q16 0 23 -8t-5 -23l-561 -803l-78 -622q-4 -31 -35 -31h-31q-31 0 -26 33l78 620l-361 805q-14 29 21 29h49q23 0 35 -31l313 -696l483 698q22 29 45 29zM920 2163h59q43 0 18 -37l-225 -379q-23 -37 -47 -37h-35q-16 0 -22 12t4 27l200 379q16 35 48 35z
" />
    <glyph glyph-name="Thorn" unicode="&#xde;" horiz-adv-x="1153" 
d="M637 418q303 0 344 330q41 322 -260 321h-434l-80 -651h430zM723 1161q184 -1 278 -113q95 -112 71 -308t-144 -306t-303 -108h-428l-37 -295q-4 -31 -33 -31h-31q-33 0 -28 33l133 1077l43 348q2 29 32 29h31q33 0 27 -31l-37 -295h426z" />
    <glyph glyph-name="germandbls" unicode="&#xdf;" horiz-adv-x="1067" 
d="M461 0h-43q-33 0 -29 33l4 30q2 29 35 29h43q121 0 244 87t135 210l4 25q16 137 -85 238t-208 102h-53q-29 0 -27 30l4 31q2 31 35 31h53q96 0 195 88q98 88 111 186l8 49q10 100 -54 169q-65 69 -182 69h-69q-127 0 -201 -60t-86 -169l-143 -1147q-4 -31 -33 -31h-31
q-33 0 -29 33l138 1136q18 145 128 237t265 93h69q150 0 242 -101t76 -241l-6 -43q-20 -161 -219 -315q100 -66 156 -151t40 -222l-6 -35q-18 -159 -173 -275t-308 -116z" />
    <glyph glyph-name="agrave" unicode="&#xe0;" horiz-adv-x="935" 
d="M307 90h111q58 2 116 31t92 59t79 78l24 197h-373q-199 0 -219 -189q-10 -78 40 -127t130 -49zM463 967h104q131 1 211 -99t62 -258l-70 -561q-4 -21 0 -35t-10 -14h-55q-35 0 -27 51l10 78q-143 -131 -272 -131h-115q-113 -4 -193 81t-64 204q15 119 103 195t215 75h379
l7 55q14 127 -37 197t-144 69h-104q-92 0 -139 -19t-93 -71q-23 -25 -51 4l-22 21q-27 20 -4 43q60 66 128 90t181 25zM428 1638q35 0 39 -36l104 -379q14 -37 -20 -37h-41q-21 0 -35 39l-133 379q-12 35 20 34h66z" />
    <glyph glyph-name="aacute" unicode="&#xe1;" horiz-adv-x="935" 
d="M307 90h111q58 2 116 31t92 59t79 78l24 197h-373q-199 0 -219 -189q-10 -78 40 -127t130 -49zM463 967h104q131 1 211 -99t62 -258l-70 -561q-4 -21 0 -35t-10 -14h-55q-35 0 -27 51l10 78q-143 -131 -272 -131h-115q-113 -4 -193 81t-64 204q15 119 103 195t215 75h379
l7 55q14 127 -37 197t-144 69h-104q-92 0 -139 -19t-93 -71q-23 -25 -51 4l-22 21q-27 20 -4 43q60 66 128 90t181 25zM545 1186h-35q-16 0 -23 11q-6 11 5 28l200 379q16 35 47 34h60q43 0 18 -36l-225 -379q-22 -37 -47 -37z" />
    <glyph glyph-name="acircumflex" unicode="&#xe2;" horiz-adv-x="935" 
d="M307 90h111q58 2 116 31t92 59t79 78l24 197h-373q-199 0 -219 -189q-10 -78 40 -127t130 -49zM463 967h104q131 1 211 -99t62 -258l-70 -561q-4 -21 0 -35t-10 -14h-55q-35 0 -27 51l10 78q-143 -131 -272 -131h-115q-113 -4 -193 81t-64 204q15 119 103 195t215 75h379
l7 55q14 127 -37 197t-144 69h-104q-92 0 -139 -19t-93 -71q-23 -25 -51 4l-22 21q-27 20 -4 43q60 66 128 90t181 25zM874 1200h-57q-4 0 -9 2t-8 3q-2 1 -8 9t-11 17q-5 8 -7 10l-194 297l-271 -301q-33 -37 -51 -37h-57q-16 0 -21 13q-4 13 8 28l336 367q29 31 49 30h29
q16 1 45 -32l244 -369q10 -13 5 -25t-22 -12z" />
    <glyph glyph-name="atilde" unicode="&#xe3;" horiz-adv-x="935" 
d="M307 90h111q58 2 116 31t92 59t79 78l24 197h-373q-199 0 -219 -189q-10 -78 40 -127t130 -49zM463 967h104q131 1 211 -99t62 -258l-70 -561q-4 -21 0 -35t-10 -14h-55q-35 0 -27 51l10 78q-143 -131 -272 -131h-115q-113 -4 -193 81t-64 204q15 119 103 195t215 75h379
l7 55q14 127 -37 197t-144 69h-104q-92 0 -139 -19t-93 -71q-23 -25 -51 4l-22 21q-27 20 -4 43q60 66 128 90t181 25zM913 1473l15 -37q8 -27 -21 -45q-117 -74 -187 -73t-167 71q-98 61 -142 59t-163 -78q-20 -10 -33 21l-14 34q-10 25 22 48q115 75 185 73t170 -73
q94 -59 139 -57t162 77q22 11 34 -20z" />
    <glyph glyph-name="adieresis" unicode="&#xe4;" horiz-adv-x="935" 
d="M307 90h111q58 2 116 31t92 59t79 78l24 197h-373q-199 0 -219 -189q-10 -78 40 -127t130 -49zM463 967h104q131 1 211 -99t62 -258l-70 -561q-4 -21 0 -35t-10 -14h-55q-35 0 -27 51l10 78q-143 -131 -272 -131h-115q-113 -4 -193 81t-64 204q15 119 103 195t215 75h379
l7 55q14 127 -37 197t-144 69h-104q-92 0 -139 -19t-93 -71q-23 -25 -51 4l-22 21q-27 20 -4 43q60 66 128 90t181 25zM858 1487h62q35 0 26 -31l-10 -84q-2 -31 -31 -31h-61q-33 0 -27 33l10 84q2 29 31 29zM266 1341h-59q-35 0 -29 33l10 84q2 29 33 29h60q35 0 28 -31
l-10 -84q-4 -31 -33 -31z" />
    <glyph glyph-name="aring" unicode="&#xe5;" horiz-adv-x="935" 
d="M307 90h111q58 2 116 31t92 59t79 78l24 197h-373q-199 0 -219 -189q-10 -78 40 -127t130 -49zM463 967h104q131 1 211 -99t62 -258l-70 -561q-4 -21 0 -35t-10 -14h-55q-35 0 -27 51l10 78q-143 -131 -272 -131h-115q-113 -4 -193 81t-64 204q15 119 103 195t215 75h379
l7 55q14 127 -37 197t-144 69h-104q-92 0 -139 -19t-93 -71q-23 -25 -51 4l-22 21q-27 20 -4 43q60 66 128 90t181 25zM563 1331q102 0 113 101l2 18q14 98 -88 98h-23q-100 0 -110 -100l-2 -18q-16 -98 86 -99h22zM555 1239h-27q-84 0 -130 54t-36 137l3 22q10 82 69 135
t141 53h27q82 0 129 -54t37 -136l-2 -23q-10 -84 -70 -136t-141 -52z" />
    <glyph glyph-name="ae" unicode="&#xe6;" horiz-adv-x="1644" 
d="M307 90h121q84 2 146.5 46t130.5 122l28 203h-377q-201 0 -221 -189q-10 -80 41 -131t131 -51zM1233 877h-78q-98 0 -187 -72t-116 -174l-2 -21l-6 -49h602l4 33q16 121 -56.5 202t-160.5 81zM1161 969h78q121 0 222.5 -108.5t82.5 -260.5l-12 -82q-6 -61 -66 -61h-635
l-16 -135q4 -98 72.5 -165t165.5 -67h75q137 0 273 146q27 20 41 2l26 -23q23 -18 7 -43q-166 -174 -353 -174h-78q-86 0 -163.5 49t-120.5 129q-94 -90 -172 -134t-178 -44h-109q-113 -4 -192.5 82t-64.5 206t103.5 195.5t214.5 75.5h381l7 55q16 121 -38.5 191.5
t-144.5 70.5h-71q-154 0 -273 -92q-31 -16 -49 4l-16 23q-18 23 -4 41q137 117 340 117h73q86 0 158 -49.5t104 -135.5q61 82 152.5 134.5t179.5 52.5z" />
    <glyph glyph-name="ccedilla" unicode="&#xe7;" horiz-adv-x="985" 
d="M526 969h74q113 0 214 -94.5t91 -202.5q-4 -27 -28 -27h-33q-16 0 -25.5 7t-7.5 24q6 68 -67.5 134.5t-151.5 66.5h-74q-106 0 -200.5 -84t-108.5 -195l-29 -233q-14 -113 58.5 -194t179.5 -81h69q137 0 273 146q23 23 41 2l26 -23q27 -23 7 -43q-166 -174 -351 -174h-37
v-6q-73 -83 -15 -95q30 -6 93.5 -15t85.5 -19q66 -29 56 -115t-55.5 -124t-141.5 -38h-76q-84 0 -126 47.5t-34 128.5q4 16 21 17h63q19 0 19 -28q-1 -56 92 -56h23q47 0 62 1t29.5 12t17.5 40t-35 40t-187 28q-23 2 -42.5 18t-14.5 66t61 106q-117 27 -193.5 131.5
t-60.5 229.5l29 233q18 145 145 257t264 112z" />
    <glyph glyph-name="egrave" unicode="&#xe8;" horiz-adv-x="1007" 
d="M596 877h-78q-109 0 -202 -85t-107 -200l-4 -31h606l4 33q14 121 -58.5 202t-160.5 81zM526 969h78q121 0 221.5 -108.5t81.5 -260.5l-10 -82q-6 -61 -68 -61h-636l-13 -92q-14 -113 58.5 -194t179.5 -81h76q135 0 270 146q29 20 43 2l27 -23q23 -18 4 -43
q-166 -174 -351 -174h-77q-137 0 -238.5 111.5t-83.5 257.5l29 233q18 145 145 257t264 112zM596 1186h-41q-20 0 -35 39l-133 379q-12 35 21 34h65q35 1 39 -36l104 -379q14 -37 -20 -37z" />
    <glyph glyph-name="eacute" unicode="&#xe9;" horiz-adv-x="1007" 
d="M596 877h-78q-109 0 -202 -85t-107 -200l-4 -31h606l4 33q14 121 -58.5 202t-160.5 81zM526 969h78q121 0 221.5 -108.5t81.5 -260.5l-10 -82q-6 -61 -68 -61h-636l-13 -92q-14 -113 58.5 -194t179.5 -81h76q135 0 270 146q29 20 43 2l27 -23q23 -18 4 -43
q-166 -174 -351 -174h-77q-137 0 -238.5 111.5t-83.5 257.5l29 233q18 145 145 257t264 112zM844 1638q43 0 18 -36l-225 -379q-23 -37 -47 -37h-35q-16 0 -22 11.5t4 27.5l200 379q16 35 47 34h60z" />
    <glyph glyph-name="ecircumflex" unicode="&#xea;" horiz-adv-x="1007" 
d="M596 877h-78q-109 0 -202 -85t-107 -200l-4 -31h606l4 33q14 121 -58.5 202t-160.5 81zM526 969h78q121 0 221.5 -108.5t81.5 -260.5l-10 -82q-6 -61 -68 -61h-636l-13 -92q-14 -113 58.5 -194t179.5 -81h76q135 0 270 146q29 20 43 2l27 -23q23 -18 4 -43
q-166 -174 -351 -174h-77q-137 0 -238.5 111.5t-83.5 257.5l29 233q18 145 145 257t264 112zM647 1638q16 0 45 -32l244 -369q10 -12 5 -24.5t-21 -12.5h-58q-4 0 -9 2t-8 3t-7 7.5t-5.5 8.5t-6.5 10t-7 10l-194 297l-271 -301q-33 -37 -51 -37h-57q-16 0 -20.5 13.5
t7.5 27.5l336 367q29 31 49 30h29z" />
    <glyph glyph-name="edieresis" unicode="&#xeb;" horiz-adv-x="1007" 
d="M596 877h-78q-109 0 -202 -85t-107 -200l-4 -31h606l4 33q14 121 -58.5 202t-160.5 81zM526 969h78q121 0 221.5 -108.5t81.5 -260.5l-10 -82q-6 -61 -68 -61h-636l-13 -92q-14 -113 58.5 -194t179.5 -81h76q135 0 270 146q29 20 43 2l27 -23q23 -18 4 -43
q-166 -174 -351 -174h-77q-137 0 -238.5 111.5t-83.5 257.5l29 233q18 145 145 257t264 112zM903 1487h62q35 0 26 -31l-10 -84q-2 -31 -31 -31h-61q-33 0 -27 33l10 84q2 29 31 29zM266 1487h60q35 0 28 -31l-10 -84q-4 -31 -33 -31h-59q-35 0 -29 33l10 84q2 29 33 29z
" />
    <glyph glyph-name="igrave" unicode="&#xec;" horiz-adv-x="419" 
d="M244 965h30q29 0 27 -31l-111 -903q-2 -31 -32 -31h-31q-33 0 -29 33l111 903q2 29 35 29zM301 1186h-41q-20 0 -35 39l-133 379q-12 35 21 34h65q35 1 39 -36l105 -379q14 -37 -21 -37z" />
    <glyph glyph-name="iacute" unicode="&#xed;" horiz-adv-x="419" 
d="M244 965h30q29 0 27 -31l-111 -903q-2 -31 -32 -31h-31q-33 0 -29 33l111 903q2 29 35 29zM551 1638q43 0 18 -36l-225 -379q-23 -37 -47 -37h-35q-16 0 -22 12t4 27l200 379q18 35 48 34h59z" />
    <glyph glyph-name="icircumflex" unicode="&#xee;" horiz-adv-x="419" 
d="M244 965h30q29 0 27 -31l-111 -903q-2 -31 -32 -31h-31q-33 0 -29 33l111 903q2 29 35 29zM354 1638q16 0 45 -32l244 -369q10 -13 5 -25t-21 -12h-58q-4 0 -9 2l-10 4t-10 15q-5 14 -14 20l-194 297l-271 -301q-33 -37 -51 -37h-57q-16 0 -22 13q-4 14 8 28l337 367
q27 31 50 30h28z" />
    <glyph glyph-name="idieresis" unicode="&#xef;" horiz-adv-x="419" 
d="M244 965h30q29 0 27 -31l-111 -903q-2 -31 -32 -31h-31q-33 0 -29 33l111 903q2 29 35 29zM610 1487h62q37 0 26 -31l-10 -84q-4 -31 -31 -31h-61q-33 0 -27 33l11 84q2 29 30 29zM-29 1487h62q35 0 28 -31l-10 -84q-2 -31 -33 -31h-61q-33 0 -27 33l11 84q2 29 30 29z
" />
    <glyph glyph-name="eth" unicode="&#xf0;" horiz-adv-x="1112" 
d="M444 72h88q125 0 213 91t128 271t-27 281q-68 100 -281 102q-113 -1 -183 -23q-125 -40 -168 -201q-84 -321 15 -437q72 -84 215 -84zM1040 1487h56q18 0 24 -12t-8 -27l-115 -129q49 -96 45 -227q-4 -346 -73 -682q-45 -203 -166 -317t-289 -113h-74q-182 0 -279 114
t-73 350t142 355t343 119q121 0 219 -39t134 -88q35 172 26 339q-4 55 -24 111l-113 -127q-29 -33 -51 -33h-55q-17 1 -25 13t4 26l186 207q-80 94 -208 94h-50q-35 0 -30 33l4 31q2 29 35 28h49q170 0 268 -110l45 51q30 33 53 33z" />
    <glyph glyph-name="ntilde" unicode="&#xf1;" horiz-adv-x="1032" 
d="M520 963h84q139 0 232.5 -115t76.5 -252l-69 -565q-4 -31 -35 -31h-31q-31 0 -26 33l69 565q12 109 -47 190.5t-170 81.5h-84q-86 0 -176 -60t-100 -126l-80 -653q-4 -31 -33 -31h-31q-33 0 -28 33l110 901q2 29 35 29h31q31 0 26 -31l-8 -53q127 84 254 84zM981 1473
l14 -37q8 -27 -20 -45q-117 -74 -187.5 -73t-166.5 71q-98 61 -142.5 59t-163.5 -78q-20 -10 -32 21l-15 34q-10 25 23 48q115 74 184.5 72.5t169.5 -72.5q94 -59 139 -57.5t162 77.5q23 11 35 -20z" />
    <glyph glyph-name="ograve" unicode="&#xf2;" horiz-adv-x="1050" 
d="M516 877q-121 -1 -210 -91t-103 -215l-25 -182q-14 -125 52 -212t186 -87h78q117 0 208 88t105 213l24 182q14 125 -53 214q-68 89 -184 90h-78zM522 969h80q150 0 245 -121t77 -277l-25 -182q-18 -155 -141 -273t-273 -118h-79q-152 0 -245 119t-75 274l25 182
q15 156 137 276t274 120zM608 1186h-41q-20 0 -35 39l-133 379q-12 35 21 34h65q35 1 39 -36l105 -379q14 -37 -21 -37z" />
    <glyph glyph-name="oacute" unicode="&#xf3;" horiz-adv-x="1050" 
d="M516 877q-121 -1 -210 -91t-103 -215l-25 -182q-14 -125 52 -212t186 -87h78q117 0 208 88t105 213l24 182q14 125 -53 214q-68 89 -184 90h-78zM522 969h80q150 0 245 -121t77 -277l-25 -182q-18 -155 -141 -273t-273 -118h-79q-152 0 -245 119t-75 274l25 182
q15 156 137 276t274 120zM856 1638q43 0 18 -36l-225 -379q-23 -37 -47 -37h-35q-16 0 -22 12t4 27l201 379q16 35 47 34h59z" />
    <glyph glyph-name="ocircumflex" unicode="&#xf4;" horiz-adv-x="1050" 
d="M516 877q-121 -1 -210 -91t-103 -215l-25 -182q-14 -125 52 -212t186 -87h78q117 0 208 88t105 213l24 182q14 125 -53 214q-68 89 -184 90h-78zM522 969h80q150 0 245 -121t77 -277l-25 -182q-18 -155 -141 -273t-273 -118h-79q-152 0 -245 119t-75 274l25 182
q15 156 137 276t274 120zM659 1638q16 0 46 -32l243 -369q10 -13 5 -25t-21 -12h-58q-4 0 -9 2l-10 4t-10 15q-5 14 -14 20l-194 297l-270 -301q-33 -37 -52 -37h-57q-16 0 -20 14t8 27l336 367q29 31 49 30h28z" />
    <glyph glyph-name="otilde" unicode="&#xf5;" horiz-adv-x="1050" 
d="M516 877q-121 -1 -210 -91t-103 -215l-25 -182q-14 -125 52 -212t186 -87h78q117 0 208 88t105 213l24 182q14 125 -53 214q-68 89 -184 90h-78zM522 969h80q150 0 245 -121t77 -277l-25 -182q-18 -155 -141 -273t-273 -118h-79q-152 0 -245 119t-75 274l25 182
q15 156 137 276t274 120zM971 1473l14 -37q8 -27 -20 -45q-117 -74 -188 -73t-167 71q-98 61 -142 59t-163 -78q-20 -10 -33 21l-14 34q-10 25 23 48q115 75 185 73t169 -73q94 -59 139 -57t162 77q23 11 35 -20z" />
    <glyph glyph-name="odieresis" unicode="&#xf6;" horiz-adv-x="1050" 
d="M516 877q-121 -1 -210 -91t-103 -215l-25 -182q-14 -125 52 -212t186 -87h78q117 0 208 88t105 213l24 182q14 125 -53 214q-68 89 -184 90h-78zM522 969h80q150 0 245 -121t77 -277l-25 -182q-18 -155 -141 -273t-273 -118h-79q-152 0 -245 119t-75 274l25 182
q15 156 137 276t274 120zM915 1487h62q35 0 27 -31l-11 -84q-2 -31 -30 -31h-62q-33 0 -27 33l11 84q2 29 30 29zM279 1487h59q35 0 29 -31l-11 -84q-4 -31 -32 -31h-60q-34 0 -28 33l10 84q2 29 33 29z" />
    <glyph glyph-name="divide" unicode="&#xf7;" horiz-adv-x="1052" 
d="M551 446q31 0 27 -32l-13 -95q-6 -29 -33 -28h-71q-31 0 -27 31l10 94q2 31 35 30h72zM170 709h748q31 0 26 -33l-4 -31q-2 -29 -33 -29h-745q-31 0 -29 31l4 31q2 31 33 31zM623 1034q31 0 26 -33l-12 -94q-2 -29 -33 -28h-72q-28 -1 -26 30l10 95q4 31 35 30h72z" />
    <glyph glyph-name="oslash" unicode="&#xf8;" horiz-adv-x="1050" 
d="M416 90h78q117 0 208 88t105 213l24 182q16 156 -81 244l-402 -719q27 -8 68 -8zM516 877q-121 -1 -210 -91t-103 -215l-25 -182q-18 -160 84 -248l404 725q-37 10 -72 11h-78zM485 -2h-79q-57 0 -105 18q-16 -16 -37 -16h-43q-35 0 -18 33l14 26q-71 55 -107 145
t-24 187l25 182q16 156 138 276t273 120h80q55 0 113 -21q10 16 39 17h43q36 0 18 -31l-18 -35q69 -55 103 -143t24 -185l-25 -182q-18 -155 -141 -273t-273 -118z" />
    <glyph glyph-name="ugrave" unicode="&#xf9;" horiz-adv-x="1048" 
d="M801 0h-31q-31 0 -27 33l9 49q-125 -84 -254 -84h-78q-143 0 -237 110q-93 110 -74 252l69 574q0 29 33 29h31q33 0 28 -31l-69 -574q-14 -112 44 -190t173 -78h78q86 0 177 60t101 126l80 658q2 29 33 29h31q32 0 28 -31l-110 -901q-4 -31 -35 -31zM612 1186h-41
q-20 0 -34 39l-134 379q-12 35 21 34h65q35 1 39 -36l105 -379q14 -37 -21 -37z" />
    <glyph glyph-name="uacute" unicode="&#xfa;" horiz-adv-x="1048" 
d="M801 0h-31q-31 0 -27 33l9 49q-125 -84 -254 -84h-78q-143 0 -237 110q-93 110 -74 252l69 574q0 29 33 29h31q33 0 28 -31l-69 -574q-14 -112 44 -190t173 -78h78q86 0 177 60t101 126l80 658q2 29 33 29h31q32 0 28 -31l-110 -901q-4 -31 -35 -31zM860 1638
q43 0 19 -36l-226 -379q-23 -37 -47 -37h-35q-16 0 -22 12t4 27l201 379q16 35 47 34h59z" />
    <glyph glyph-name="ucircumflex" unicode="&#xfb;" horiz-adv-x="1048" 
d="M801 0h-31q-31 0 -27 33l9 49q-125 -84 -254 -84h-78q-143 0 -237 110q-93 110 -74 252l69 574q0 29 33 29h31q33 0 28 -31l-69 -574q-14 -112 44 -190t173 -78h78q86 0 177 60t101 126l80 658q2 29 33 29h31q32 0 28 -31l-110 -901q-4 -31 -35 -31zM664 1638
q16 0 45 -32l243 -369q10 -13 5 -25t-21 -12h-57q-3 0 -9 2t-11 4t-10 14q-4 12 -13 21l-195 297l-270 -301q-33 -37 -52 -37h-57q-16 0 -20 14t8 27l336 367q29 31 49 30h29z" />
    <glyph glyph-name="udieresis" unicode="&#xfc;" horiz-adv-x="1048" 
d="M801 0h-31q-31 0 -27 33l9 49q-125 -84 -254 -84h-78q-143 0 -237 110q-93 110 -74 252l69 574q0 29 33 29h31q33 0 28 -31l-69 -574q-14 -112 44 -190t173 -78h78q86 0 177 60t101 126l80 658q2 29 33 29h31q32 0 28 -31l-110 -901q-4 -31 -35 -31zM922 1487h61
q37 0 27 -31l-11 -84q-4 -31 -30 -31h-62q-32 0 -26 33l10 84q2 29 31 29zM285 1487h59q35 0 29 -31l-11 -84q-2 -31 -32 -31h-60q-34 0 -28 33l10 84q2 29 33 29z" />
    <glyph glyph-name="yacute" unicode="&#xfd;" horiz-adv-x="989" 
d="M897 963h43q37 0 18 -37l-704 -1303q-18 -33 -51 -33h-43q-37 0 -19 37l238 436l-256 865q-10 35 20 35h45q25 0 39 -35l219 -740l402 742q18 33 49 33zM582 1186h-35q-16 0 -23 11q-6 11 4 28l201 379q16 35 47 34h60q43 0 18 -36l-225 -379q-22 -37 -47 -37z" />
    <glyph glyph-name="thorn" unicode="&#xfe;" horiz-adv-x="1038" 
d="M608 870h-82q-82 0 -174 -60t-102 -124l-60 -479q53 -45 124 -80t118 -35h82q94 0 182 77t101 179l30 250q12 104 -49 188t-170 84zM539 963h82q137 0 226 -115t73 -252l-31 -250q-14 -134 -136 -240t-249 -106h-82q-129 0 -244 106l-59 -487q-2 -29 -31 -29h-31
q-35 0 -28 31l129 1055l2 6l94 776q2 29 33 29h30q33 0 27 -31l-74 -604q128 111 269 111z" />
    <glyph glyph-name="ydieresis" unicode="&#xff;" horiz-adv-x="989" 
d="M897 963h43q37 0 18 -37l-704 -1303q-18 -33 -51 -33h-43q-37 0 -19 37l238 436l-256 865q-10 35 20 35h45q25 0 39 -35l219 -740l402 742q18 33 49 33zM895 1487h61q35 0 27 -31l-10 -84q-2 -31 -31 -31h-61q-33 0 -27 33l10 84q2 29 31 29zM303 1341h-59q-35 0 -29 33
l10 84q2 29 33 29h59q35 0 29 -31l-10 -84q-4 -31 -33 -31z" />
    <glyph glyph-name="Amacron" unicode="&#x100;" horiz-adv-x="1230" 
d="M883 530l-164 846l-377 -846h541zM1042 0h-30q-31 0 -35 35l-80 409v-6h-598l-180 -405q-12 -33 -39 -33h-33q-39 0 -22 35l639 1427q12 31 43 31h45q28 0 32 -33l283 -1427q12 -33 -25 -33zM461 2011h663q33 0 27 -31l-2 -30q-6 -31 -35 -31h-663q-31 0 -27 33l4 30
q2 29 33 29z" />
    <glyph glyph-name="amacron" unicode="&#x101;" horiz-adv-x="935" 
d="M307 90h111q58 2 116 31t92 59t79 78l24 197h-373q-199 0 -219 -189q-10 -78 40 -127t130 -49zM463 967h104q131 1 211 -99t62 -258l-70 -561q-4 -21 0 -35t-10 -14h-55q-35 0 -27 51l10 78q-143 -131 -272 -131h-115q-113 -4 -193 81t-64 204q15 119 103 195t215 75h379
l7 55q14 127 -37 197t-144 69h-104q-92 0 -139 -19t-93 -71q-23 -25 -51 4l-22 21q-27 20 -4 43q60 66 128 90t181 25zM240 1487h663q33 0 27 -31l-2 -31q-6 -31 -35 -30h-664q-31 0 -26 32l4 31q2 29 33 29z" />
    <glyph glyph-name="Abreve" unicode="&#x102;" horiz-adv-x="1230" 
d="M883 530l-164 846l-377 -846h541zM1042 0h-30q-31 0 -35 35l-80 409v-6h-598l-180 -405q-12 -33 -39 -33h-33q-39 0 -22 35l639 1427q12 31 43 31h45q28 0 32 -33l283 -1427q12 -33 -25 -33zM1063 2163h41q33 0 26 -35q-53 -283 -323 -283h-70q-131 0 -197 74t-59 217
q2 27 33 27h41q33 0 27 -35q-4 -92 32 -136t129 -44h78q90 0 140 46q49 46 69 142q2 27 33 27z" />
    <glyph glyph-name="abreve" unicode="&#x103;" horiz-adv-x="935" 
d="M307 90h111q58 2 116 31t92 59t79 78l24 197h-373q-199 0 -219 -189q-10 -78 40 -127t130 -49zM463 967h104q131 1 211 -99t62 -258l-70 -561q-4 -21 0 -35t-10 -14h-55q-35 0 -27 51l10 78q-143 -131 -272 -131h-115q-113 -4 -193 81t-64 204q15 119 103 195t215 75h379
l7 55q14 127 -37 197t-144 69h-104q-92 0 -139 -19t-93 -71q-23 -25 -51 4l-22 21q-27 20 -4 43q60 66 128 90t181 25zM842 1638h41q33 0 26 -34q-53 -283 -323 -283h-70q-131 0 -198 74t-58 217q2 27 33 26h41q33 0 26 -34q-4 -92 33 -136t129 -45h78q90 0 139 46t70 143
q2 26 33 26z" />
    <glyph glyph-name="Aogonek" unicode="&#x104;" horiz-adv-x="1230" 
d="M883 530l-164 846l-377 -846h541zM739 -271q0 -5 79 -5h218q23 0 21 -21l-10 -70q0 -18 -21 -18h-248q-178 0 -157 158q6 49 17 77q19 48 88 65q22 5 107 15t103 23q31 20 27 78q-2 8 12 12l-78 401v-6h-598l-180 -405q-12 -33 -39 -33h-33q-39 0 -22 35l639 1427
q12 31 43 31h45q29 0 32 -33l283 -1427q6 -16 0 -25q6 -76 -34 -121t-105 -49q-133 -18 -158 -18q-29 -4 -35 -49v-9q2 -8 0 -14t1 -10t3 -9z" />
    <glyph glyph-name="aogonek" unicode="&#x105;" horiz-adv-x="935" 
d="M307 90h111q58 2 116 31t92 59t79 78l24 197h-373q-199 0 -219 -189q-10 -78 40 -127t130 -49zM442 -269q0 -5 79 -5h218q23 0 21 -21l-10 -70q0 -18 -21 -18h-248q-178 0 -157 158q6 49 17 78q18 47 88 64q22 5 107 15t103 23q31 20 27 78q-2 4 2 7t10 3v8l10 78
q-143 -131 -272 -131h-115q-113 -4 -193 81t-64 204q15 119 103 195t215 75h379l7 55q14 127 -37 197t-144 69h-104q-92 0 -139 -19t-93 -71q-23 -25 -51 4l-22 21q-27 20 -4 43q60 66 128 90t181 25h104q131 1 211 -99t62 -258l-72 -577v-8l2 -11v-6q4 -78 -35 -121
t-104 -47q-133 -18 -158 -18q-29 -4 -35 -49v-9q2 -8 0 -14t1 -10t3 -9z" />
    <glyph glyph-name="Cacute" unicode="&#x106;" horiz-adv-x="1159" 
d="M985 481h31q29 0 26 -35q-23 -184 -170 -328.5t-311 -144.5h-94q-172 0 -286.5 147.5t-90.5 346.5l70 557q25 197 173 341t320 144h95q164 0 275.5 -144t90.5 -333q-4 -27 -33 -26h-30q-35 0 -29 34q18 150 -70 263.5t-217 113.5h-94q-137 0 -254 -116.5t-137 -278.5
l-68 -557q-20 -162 68 -280.5t225 -118.5h94q131 0 248 117.5t133 271.5q2 26 35 26zM915 2163h60q43 0 18 -37l-225 -379q-23 -37 -47 -37h-35q-16 0 -22 11.5t4 27.5l200 379q16 35 47 35z" />
    <glyph glyph-name="cacute" unicode="&#x107;" horiz-adv-x="985" 
d="M877 645h-33q-16 0 -25.5 7t-7.5 24q6 68 -67.5 134.5t-151.5 66.5h-74q-106 0 -200.5 -84t-108.5 -195l-29 -233q-14 -113 58.5 -194t179.5 -81h69q137 0 273 146q23 23 41 2l26 -23q27 -23 7 -43q-166 -174 -351 -174h-73q-137 0 -238.5 111.5t-83.5 257.5l29 233
q18 145 145 257t264 112h74q113 0 214 -94.5t91 -202.5q-3 -27 -28 -27zM831 1638q43 0 19 -36l-225 -379q-23 -37 -47 -37h-35q-16 0 -22.5 11.5t3.5 27.5l201 379q16 35 47 34h59z" />
    <glyph glyph-name="Cdotaccent" unicode="&#x10a;" horiz-adv-x="1159" 
d="M985 481h31q29 0 26 -35q-23 -184 -170 -328.5t-311 -144.5h-94q-172 0 -286.5 147.5t-90.5 346.5l70 557q25 197 173 341t320 144h95q164 0 275.5 -144t90.5 -333q-4 -27 -33 -26h-30q-35 0 -29 34q18 150 -70 263.5t-217 113.5h-94q-137 0 -254 -116.5t-137 -278.5
l-68 -557q-20 -162 68 -280.5t225 -118.5h94q131 0 248 117.5t133 271.5q2 26 35 26zM709 2011h77q35 0 31 -37l-12 -96q-4 -35 -37 -35h-78q-37 0 -31 37l11 96q6 35 39 35z" />
    <glyph glyph-name="cdotaccent" unicode="&#x10b;" horiz-adv-x="985" 
d="M877 645h-33q-16 0 -25.5 7t-7.5 24q6 68 -67.5 134.5t-151.5 66.5h-74q-106 0 -200.5 -84t-108.5 -195l-29 -233q-14 -113 58.5 -194t179.5 -81h69q137 0 273 146q23 23 41 2l26 -23q27 -23 7 -43q-166 -174 -351 -174h-73q-137 0 -238.5 111.5t-83.5 257.5l29 233
q18 145 145 257t264 112h74q113 0 214 -94.5t91 -202.5q-3 -27 -28 -27zM565 1487h78q35 0 31 -37l-12 -96q-4 -35 -37 -35h-78q-37 0 -31 37l10 96q6 35 39 35z" />
    <glyph glyph-name="Ccaron" unicode="&#x10c;" horiz-adv-x="1159" 
d="M985 481h31q29 0 26 -35q-23 -184 -170 -328.5t-311 -144.5h-94q-172 0 -286.5 147.5t-90.5 346.5l70 557q25 197 173 341t320 144h95q164 0 275.5 -144t90.5 -333q-4 -27 -33 -26h-30q-35 0 -29 34q18 150 -70 263.5t-217 113.5h-94q-137 0 -254 -116.5t-137 -278.5
l-68 -557q-20 -162 68 -280.5t225 -118.5h94q131 0 248 117.5t133 271.5q2 26 35 26zM426 2163h59q16 0 43 -39l195 -299l268 301q37 37 53 37h58q16 0 21 -13.5t-7 -25.5l-336 -367q-29 -33 -53 -33h-29q-23 0 -43 35l-245 367q-10 14 -5 25.5t21 11.5z" />
    <glyph glyph-name="ccaron" unicode="&#x10d;" horiz-adv-x="985" 
d="M877 645h-33q-16 0 -25.5 7t-7.5 24q6 68 -67.5 134.5t-151.5 66.5h-74q-106 0 -200.5 -84t-108.5 -195l-29 -233q-14 -113 58.5 -194t179.5 -81h69q137 0 273 146q23 23 41 2l26 -23q27 -23 7 -43q-166 -174 -351 -174h-73q-137 0 -238.5 111.5t-83.5 257.5l29 233
q18 145 145 257t264 112h74q113 0 214 -94.5t91 -202.5q-3 -27 -28 -27zM283 1638h59q16 0 43 -39l195 -299l268 302q37 37 53 36h57q16 0 21.5 -13t-6.5 -26l-336 -366q-29 -33 -53 -33h-29q-23 0 -43 35l-246 367q-10 14 -5 25t22 11z" />
    <glyph glyph-name="Dcaron" unicode="&#x10e;" horiz-adv-x="1179" 
d="M750 1395h-435l-159 -1303h432q129 0 243 118t134 273l65 525q18 154 -66 270t-214 117zM262 1487h490q170 1 282 -143t86 -338l-63 -525q-25 -195 -171 -338t-315 -143h-489q-31 0 -27 33l176 1425q2 29 31 29zM483 2163q16 0 43 -39l195 -299l268 301q37 37 53 37h58
q16 1 21 -13t-7 -26l-336 -367q-29 -33 -53 -33h-29q-23 0 -43 35l-245 367q-10 14 -6 25q5 11 22 12h59z" />
    <glyph glyph-name="dcaron" unicode="&#x10f;" horiz-adv-x="1312" 
d="M397 92h86q49 0 127 35t142 82l57 481q6 64 -70 122t-161 58h-84q-109 0 -191 -84t-94 -192l-31 -248q-14 -100 54 -177t165 -77zM1155 1487h96q29 0 29 -31l-23 -184q-10 -74 -17 -109t-37 -97t-83 -118q-23 -16 -41 4l-35 33q-23 29 -8 43q66 53 87 102q22 49 28 132
l18 18h-39q-31 0 -26 33l16 145q2 29 35 29zM936 1487h31q35 0 28 -31l-174 -1425q-2 -31 -35 -31h-30q-31 0 -27 33l8 69q-135 -102 -266 -102h-82q-131 0 -225 105t-78 243l31 250q16 141 131 253t258 112h82q139 0 241 -113l76 608q2 29 31 29z" />
    <glyph glyph-name="Dcroat" unicode="&#x110;" horiz-adv-x="1210" 
d="M778 1395h-432l-70 -559h359q29 0 27 -31l-5 -31q-2 -31 -30 -31h-361l-80 -651h432q129 0 243 118t134 273l66 525q18 154 -68 270t-215 117zM293 1487h489q170 1 282 -143t87 -338l-64 -525q-25 -195 -171 -338t-314 -143h-489q-31 0 -27 33l88 710h-88q-35 0 -31 33
l4 31q2 29 35 29h90l78 622q2 29 31 29z" />
    <glyph glyph-name="dcroat" unicode="&#x111;" horiz-adv-x="1030" 
d="M397 92h86q49 0 127 35t142 82l57 481q6 64 -70 122t-161 58h-84q-109 0 -191 -84t-94 -192l-31 -248q-14 -100 54 -177t165 -77zM1079 1217q33 0 27 -31l-2 -31q-6 -31 -35 -31h-115l-133 -1093q-2 -31 -35 -31h-30q-31 0 -27 33l8 69q-135 -102 -266 -102h-82
q-131 0 -225 105t-78 243l31 250q16 141 131 253t258 112h82q139 0 241 -113l35 274h-458q-31 0 -27 33l4 31q2 29 33 29h458l31 241q2 29 31 29h31q35 0 28 -31l-28 -239h112z" />
    <glyph glyph-name="Emacron" unicode="&#x112;" horiz-adv-x="1138" 
d="M881 797q31 0 26 -33l-4 -31q-2 -29 -35 -28h-626l-74 -613h760q31 0 26 -31l-4 -30q-4 -31 -32 -31h-822q-33 0 -28 33l176 1425q2 29 32 29h822q33 0 26 -31l-2 -31q-6 -31 -35 -30h-759l-74 -598h627zM1057 1919h-664q-31 0 -26 33l4 30q2 29 32 29h664q33 0 27 -31
l-2 -30q-6 -31 -35 -31z" />
    <glyph glyph-name="emacron" unicode="&#x113;" horiz-adv-x="1007" 
d="M596 877h-78q-109 0 -202 -85t-107 -200l-4 -31h606l4 33q14 121 -58.5 202t-160.5 81zM526 969h78q121 0 221.5 -108.5t81.5 -260.5l-10 -82q-6 -61 -68 -61h-636l-13 -92q-14 -113 58.5 -194t179.5 -81h76q135 0 270 146q29 20 43 2l27 -23q23 -18 4 -43
q-166 -174 -351 -174h-77q-137 0 -238.5 111.5t-83.5 257.5l29 233q18 145 145 257t264 112zM936 1395h-664q-31 0 -26 32l4 31q2 29 33 29h663q33 0 27 -31l-2 -31q-6 -30 -35 -30z" />
    <glyph glyph-name="Edotaccent" unicode="&#x116;" horiz-adv-x="1138" 
d="M881 797q31 0 26 -33l-4 -31q-2 -29 -35 -28h-626l-74 -613h760q31 0 26 -31l-4 -30q-4 -31 -32 -31h-822q-33 0 -28 33l176 1425q2 29 32 29h822q33 0 26 -31l-2 -31q-6 -31 -35 -30h-759l-74 -598h627zM696 2011h78q35 0 31 -37l-12 -96q-4 -35 -37 -35h-78
q-37 0 -31 37l10 96q6 35 39 35z" />
    <glyph glyph-name="edotaccent" unicode="&#x117;" horiz-adv-x="1007" 
d="M596 877h-78q-109 0 -202 -85t-107 -200l-4 -31h606l4 33q14 121 -58.5 202t-160.5 81zM526 969h78q121 0 221.5 -108.5t81.5 -260.5l-10 -82q-6 -61 -68 -61h-636l-13 -92q-14 -113 58.5 -194t179.5 -81h76q135 0 270 146q29 20 43 2l27 -23q23 -18 4 -43
q-166 -174 -351 -174h-77q-137 0 -238.5 111.5t-83.5 257.5l29 233q18 145 145 257t264 112zM578 1487h77q35 0 31 -37l-12 -96q-4 -35 -37 -35h-78q-37 0 -31 37l11 96q6 35 39 35z" />
    <glyph glyph-name="Eogonek" unicode="&#x118;" horiz-adv-x="1138" 
d="M623 -271q0 -5 79 -5h218q23 0 20 -21l-10 -70q0 -18 -21 -18h-247q-178 0 -158 158q6 49 17 77.5t48 49t102.5 26.5t74 7t23.5 3.5t22.5 4.5t17.5 6q29 11 37 53h-750q-33 0 -28 33l176 1425q1 29 32 29h822q33 0 26 -31l-2 -31q-6 -31 -35 -30h-759l-74 -598h627
q31 0 26 -33l-4 -31q-2 -29 -35 -28h-626l-74 -613h760q31 0 26 -31l-4 -30l-2 -11q10 -82 -28.5 -130t-108.5 -52q-133 -18 -158 -18q-29 -4 -35 -49v-9q2 -8 0 -14t1.5 -10t3.5 -9z" />
    <glyph glyph-name="eogonek" unicode="&#x119;" horiz-adv-x="1007" 
d="M596 877h-78q-109 0 -202 -85t-107 -200l-4 -31h606l4 33q14 121 -58.5 202t-160.5 81zM307 -271q0 -5 79 -5h218q23 0 21 -21l-11 -70q0 -18 -20 -18h-248q-178 0 -158 158q6 49 17.5 77.5t39 44t49 20.5t53.5 9t53.5 6t29.5 3t23.5 3.5t22.5 4.5q8 2 18 6q28 11 36 53
q-14 -2 -43 -2h-77q-137 0 -238.5 111.5t-83.5 257.5l29 233q18 145 145 257t264 112h78q121 0 221.5 -108.5t81.5 -260.5l-10 -82q-6 -61 -68 -61h-636l-13 -92q-14 -113 58.5 -194t179.5 -81h76q135 0 270 146q29 20 43 2l27 -23q23 -18 4 -43q-104 -106 -205 -145v-4
q10 -84 -29 -132.5t-108 -52.5q-133 -18 -158 -18q-29 -4 -35 -49v-9q2 -8 0 -14t1 -10t3 -9z" />
    <glyph glyph-name="Ecaron" unicode="&#x11a;" horiz-adv-x="1138" 
d="M881 797q31 0 26 -33l-4 -31q-2 -29 -35 -28h-626l-74 -613h760q31 0 26 -31l-4 -30q-4 -31 -32 -31h-822q-33 0 -28 33l176 1425q2 29 32 29h822q33 0 26 -31l-2 -31q-6 -31 -35 -30h-759l-74 -598h627zM414 2163h59q16 0 43 -39l195 -299l268 301q37 37 53 37h58
q16 0 21 -13.5t-7 -25.5l-336 -367q-29 -33 -53 -33h-29q-23 0 -43 35l-246 367q-10 14 -5 25.5t22 11.5z" />
    <glyph glyph-name="ecaron" unicode="&#x11b;" horiz-adv-x="1007" 
d="M596 877h-78q-109 0 -202 -85t-107 -200l-4 -31h606l4 33q14 121 -58.5 202t-160.5 81zM526 969h78q121 0 221.5 -108.5t81.5 -260.5l-10 -82q-6 -61 -68 -61h-636l-13 -92q-14 -113 58.5 -194t179.5 -81h76q135 0 270 146q29 20 43 2l27 -23q23 -18 4 -43
q-166 -174 -351 -174h-77q-137 0 -238.5 111.5t-83.5 257.5l29 233q18 145 145 257t264 112zM295 1638h59q16 0 43 -39l195 -299l268 302q37 37 53 36h58q16 0 21 -13t-7 -26l-336 -366q-29 -33 -53 -33h-29q-23 0 -43 35l-245 367q-10 14 -5 25t21 11z" />
    <glyph glyph-name="Gbreve" unicode="&#x11e;" 
d="M655 770h414q35 0 29 -31l-33 -278q-27 -199 -173.5 -343.5t-313.5 -144.5h-99q-174 0 -286.5 144.5t-90.5 341.5l70 565q25 197 173.5 341t320.5 144h98q164 0 275.5 -144t90.5 -333q-4 -27 -32 -26h-31q-35 0 -29 34q18 152 -68.5 264.5t-215.5 112.5h-99
q-137 0 -254.5 -116.5t-138.5 -278.5l-67 -565q-20 -162 66.5 -276.5t225.5 -114.5h99q135 0 249.5 116.5t135.5 280.5l24 215h-348q-33 0 -29 33l5 30q1 29 32 29zM1032 2163h41q33 0 27 -35q-53 -283 -324 -283h-69q-131 0 -198 74t-58 217q2 27 32 27h41q33 0 27 -35
q-4 -92 33 -136t129 -44h78q90 0 139 46t69 142q2 27 33 27z" />
    <glyph glyph-name="gbreve" unicode="&#x11f;" horiz-adv-x="1001" 
d="M420 90h43q61 0 138 40t140 99l54 430q6 70 -67 143t-150 72h-82q-104 0 -194 -87t-103 -189l-29 -233q-10 -103 68 -189t182 -86zM844 963h53q29 0 27 -31l-127 -1036q-14 -115 -126 -210t-245 -96h-51q-99 0 -187 60t-129 155q-10 23 17 27l43 6q18 4 37 -28
q28 -56 94 -92t139 -35h45q72 0 164 59t102 147l23 193q-137 -84 -266 -84h-45q-135 0 -243 117t-91 252l28 233q16 137 140 252t258 115h82q121 0 225 -99l6 70q2 25 27 25zM887 1638h41q33 0 26 -34q-53 -283 -323 -283h-70q-131 0 -197 74t-59 217q2 27 33 26h41
q33 0 27 -34q-4 -92 32 -137q37 -44 129 -44h78q90 0 139 46t70 143q2 26 33 26z" />
    <glyph glyph-name="Gdotaccent" unicode="&#x120;" 
d="M655 770h414q35 0 29 -31l-33 -278q-27 -199 -173.5 -343.5t-313.5 -144.5h-99q-174 0 -286.5 144.5t-90.5 341.5l70 565q25 197 173.5 341t320.5 144h98q164 0 275.5 -144t90.5 -333q-4 -27 -32 -26h-31q-35 0 -29 34q18 152 -68.5 264.5t-215.5 112.5h-99
q-137 0 -254.5 -116.5t-138.5 -278.5l-67 -565q-20 -162 66.5 -276.5t225.5 -114.5h99q135 0 249.5 116.5t135.5 280.5l24 215h-348q-33 0 -29 33l5 30q1 29 32 29zM721 2011h78q35 0 30 -37l-12 -96q-4 -35 -37 -35h-78q-36 0 -30 37l10 96q6 35 39 35z" />
    <glyph glyph-name="gdotaccent" unicode="&#x121;" horiz-adv-x="1001" 
d="M420 90h43q61 0 138 40t140 99l54 430q6 70 -67 143t-150 72h-82q-104 0 -194 -87t-103 -189l-29 -233q-10 -103 68 -189t182 -86zM844 963h53q29 0 27 -31l-127 -1036q-14 -115 -126 -210t-245 -96h-51q-99 0 -187 60t-129 155q-10 23 17 27l43 6q18 4 37 -28
q28 -56 94 -92t139 -35h45q72 0 164 59t102 147l23 193q-137 -84 -266 -84h-45q-135 0 -243 117t-91 252l28 233q16 137 140 252t258 115h82q121 0 225 -99l6 70q2 25 27 25zM575 1487h78q35 0 31 -37l-12 -96q-4 -35 -37 -35h-78q-37 0 -31 37l11 96q6 35 38 35z" />
    <glyph glyph-name="Gcommaaccent" unicode="&#x122;" 
d="M373 -307h96q29 0 29 -33l-23 -184q-10 -74 -17 -109t-37 -96.5t-83 -116.5q-23 -16 -41 4l-35 33q-23 29 -8 43q66 53 87 102.5t28 128.5l18 21h-39q-29 0 -26 31l16 145q2 31 35 31zM655 770h414q35 0 29 -31l-33 -278q-27 -199 -173.5 -343.5t-313.5 -144.5h-99
q-174 0 -286.5 144.5t-90.5 341.5l70 565q25 197 173.5 341t320.5 144h98q164 0 275.5 -144t90.5 -333q-4 -27 -32 -26h-31q-35 0 -29 34q18 152 -68.5 264.5t-215.5 112.5h-99q-137 0 -254.5 -116.5t-138.5 -278.5l-67 -565q-20 -162 66.5 -276.5t225.5 -114.5h99
q135 0 249.5 116.5t135.5 280.5l24 215h-348q-33 0 -29 33l5 30q1 29 32 29z" />
    <glyph glyph-name="gcommaaccent" unicode="&#x123;" horiz-adv-x="1001" 
d="M420 90h43q61 0 138 40t140 99l54 430q6 70 -67 143t-150 72h-82q-104 0 -194 -87t-103 -189l-29 -233q-10 -103 68 -189t182 -86zM844 963h53q29 0 27 -31l-127 -1036q-14 -115 -126 -210t-245 -96h-51q-99 0 -187 60t-129 155q-10 23 17 27l43 6q18 4 37 -28
q28 -56 94 -92t139 -35h45q72 0 164 59t102 147l23 193q-137 -84 -266 -84h-45q-135 0 -243 117t-91 252l28 233q16 137 140 252t258 115h82q121 0 225 -99l6 70q2 25 27 25zM545 1280h-96q-33 0 -29 33l22 184q10 74 18 109q7 35 37 96t83 117q23 18 43 -4l30 -33
q25 -27 9 -43q-63 -53 -85 -103t-28 -129l-19 -20h37q31 0 29 -31l-18 -145q-4 -31 -33 -31z" />
    <glyph glyph-name="Hbar" unicode="&#x126;" horiz-adv-x="1236" 
d="M1141 1487h30q37 0 27 -31l-174 -1425q0 -31 -33 -31h-30q-33 0 -29 33l78 631h-760l-78 -633q0 -31 -33 -31h-30q-33 0 -29 33l176 1425q2 29 33 29h30q37 0 27 -31l-86 -700h762l51 413h-735l10 91h735l25 198q2 29 33 29z" />
    <glyph glyph-name="hbar" unicode="&#x127;" horiz-adv-x="1032" 
d="M547 963h76q141 0 228 -113t71 -254l-70 -565q0 -31 -33 -31h-31q-33 0 -28 33l69 563q12 110 -48 192t-171 82h-73q-85 0 -177 -61t-102 -125l-80 -653q0 -31 -33 -31h-30q-33 0 -29 33l139 1126h-49q-35 0 -29 31l3 29q2 31 34 30h52l26 209q2 29 33 29h31q35 0 26 -31
l-24 -207h364q31 0 27 -32l-4 -29q-2 -29 -31 -29h-369l-36 -307q127 111 268 111z" />
    <glyph glyph-name="Imacron" unicode="&#x12a;" horiz-adv-x="458" 
d="M297 1487h31q33 0 26 -31l-174 -1425q-4 -31 -33 -31h-30q-31 0 -27 33l176 1425q2 29 31 29zM698 1919h-663q-31 0 -27 33l4 30q2 29 33 29h664q33 0 26 -31l-2 -30q-6 -31 -35 -31z" />
    <glyph glyph-name="imacron" unicode="&#x12b;" horiz-adv-x="419" 
d="M244 965h30q29 0 27 -31l-111 -903q-2 -31 -32 -31h-31q-33 0 -29 33l111 903q2 29 35 29zM643 1395h-663q-31 0 -27 32l4 31q2 29 31 29h665q33 0 27 -31l-2 -31q-6 -30 -35 -30z" />
    <glyph glyph-name="Iogonek" unicode="&#x12e;" horiz-adv-x="458" 
d="M-147 -260q0 -16 22 -16h279q23 0 20 -21l-10 -70q0 -18 -21 -18h-247q-178 0 -158 158q6 49 17 77t39 44t48 21t106 15t105 23q31 18 27 78q-2 4 2 7t10 3l174 1417q2 29 31 29h31q33 0 26 -31l-174 -1423q2 -4 2 -10q10 -84 -28 -133q-39 -48 -109 -52
q-133 -18 -158 -18q-34 0 -34 -58v-22z" />
    <glyph glyph-name="iogonek" unicode="&#x12f;" horiz-adv-x="419" 
d="M-135 -260q0 -16 22 -16h279q23 0 20 -21l-10 -70q0 -18 -20 -18h-248q-178 0 -158 158q6 49 18 77q19 48 87 65q20 5 105 15t111 26t21 75q-2 6 6 10l111 895q2 29 35 29h30q29 0 27 -31l-111 -899q4 -4 5 -12q10 -85 -29 -133t-109 -52q-133 -18 -157 -18
q-35 0 -35 -58v-22zM285 1487h77q35 0 31 -37l-12 -96q-4 -35 -37 -35h-78q-37 0 -30 37l10 96q6 35 39 35z" />
    <glyph glyph-name="Idotaccent" unicode="&#x130;" horiz-adv-x="458" 
d="M297 1487h31q33 0 26 -31l-174 -1425q-4 -31 -33 -31h-30q-31 0 -27 33l176 1425q2 29 31 29zM338 2011h78q35 0 30 -37l-12 -96q-4 -35 -37 -35h-78q-36 0 -30 37l10 96q6 35 39 35z" />
    <glyph glyph-name="dotlessi" unicode="&#x131;" horiz-adv-x="419" 
d="M244 965h30q29 0 27 -31l-111 -903q-2 -31 -32 -31h-31q-33 0 -29 33l111 903q2 29 35 29z" />
    <glyph glyph-name="IJ" unicode="&#x132;" horiz-adv-x="1521" 
d="M924 78q126 0 238 112t132 273l123 995q2 29 33 29h31q33 0 26 -31l-121 -989q-24 -197 -166 -339t-313 -142h-47q-123 0 -218 83t-130 214q-11 25 16 39l43 6q15 6 25 0t8 -25q20 -94 96 -160t170 -65h54zM297 1487h31q33 0 26 -31l-174 -1425q-4 -31 -33 -31h-30
q-31 0 -27 33l176 1425q2 29 31 29z" />
    <glyph glyph-name="ij" unicode="&#x133;" horiz-adv-x="802" 
d="M557 965h31q31 0 28 -31l-127 -1032q-9 -78 -77 -157t-158 -114q-35 -6 -39 25l-2 37q-6 29 16 35q63 23 113 65q49 43 55 101l127 1042q2 29 33 29zM199 965h30q29 0 27 -31l-111 -903q-2 -31 -32 -31h-31q-33 0 -29 33l111 903q2 29 35 29zM608 1487h66q33 0 26 -31
l-8 -82q-6 -31 -33 -31h-65q-29 0 -29 33l13 82q2 29 30 29zM252 1487h65q35 0 27 -31l-8 -82q-6 -31 -33 -31h-65q-31 0 -27 33l10 82q2 29 31 29z" />
    <glyph glyph-name="Kcommaaccent" unicode="&#x136;" horiz-adv-x="1165" 
d="M379 -307h96q29 0 29 -33l-23 -184q-10 -74 -17 -109t-37 -96.5t-83 -116.5q-23 -16 -41 4l-35 33q-23 29 -8 43q66 53 87.5 102.5t27.5 128.5l18 21h-39q-31 0 -26 31l16 145q4 31 35 31zM993 0h-45q-20 0 -51 31l-588 604l-94 -90l-65 -514q-2 -31 -33 -31h-31
q-33 0 -29 33l176 1425q2 29 33 29h31q33 0 27 -31l-95 -758l793 762q27 27 41 27h53q10 0 17.5 -7t4.5 -20.5t-18 -25.5l-743 -717l631 -670q12 -12 8 -29.5t-23 -17.5z" />
    <glyph glyph-name="kcommaaccent" unicode="&#x137;" horiz-adv-x="1032" 
d="M262 -307h96q29 0 29 -33l-22 -184q-10 -74 -17.5 -109t-37 -96.5t-83.5 -116.5q-23 -16 -41 4l-34 33q-23 29 -9 43q66 53 87.5 102.5t27.5 128.5l18 21h-38q-29 0 -27 31l16 145q2 31 35 31zM836 963h59q10 0 18.5 -10.5t5 -28t-19.5 -29.5l-440 -344l385 -506
q12 -14 7 -29.5t-24 -15.5h-63q-27 0 -51 31l-346 454l-162 -129l-41 -329q-4 -27 -33 -27h-33q-31 0 -26 33l176 1427q2 27 28 27h33q35 0 29 -31l-117 -964l567 448q28 23 48 23z" />
    <glyph glyph-name="Lacute" unicode="&#x139;" horiz-adv-x="1169" 
d="M956 92q31 0 27 -31l-4 -30q-4 -31 -35 -31h-821q-31 0 -27 33l176 1425q2 29 31 29h31q35 0 28 -31l-165 -1364h759zM555 2163h59q43 0 19 -37l-225 -379q-23 -37 -48 -37h-34q-16 0 -22.5 11.5t3.5 27.5l201 379q16 35 47 35z" />
    <glyph glyph-name="lacute" unicode="&#x13a;" horiz-adv-x="419" 
d="M303 1487h35q33 0 27 -31l-175 -1429q-4 -27 -30 -27h-33q-33 0 -29 33l176 1427q2 27 29 27zM555 2163h59q43 0 19 -37l-225 -379q-23 -37 -48 -37h-34q-16 0 -22.5 11.5t3.5 27.5l201 379q16 35 47 35z" />
    <glyph glyph-name="Lcommaaccent" unicode="&#x13b;" horiz-adv-x="1169" 
d="M377 -307h96q29 0 29 -33l-23 -184q-10 -74 -17 -109t-37 -96.5t-83 -116.5q-23 -16 -41 4l-35 33q-23 29 -8 43q66 53 87.5 102.5t27.5 128.5l18 21h-39q-29 0 -26 31l16 145q2 31 35 31zM956 92q31 0 27 -31l-4 -30q-4 -31 -35 -31h-821q-31 0 -27 33l176 1425
q2 29 31 29h31q35 0 28 -31l-165 -1364h759z" />
    <glyph glyph-name="lcommaaccent" unicode="&#x13c;" horiz-adv-x="419" 
d="M-2 -307h96q29 0 29 -33l-23 -184q-10 -74 -17 -109t-38 -96.5t-84 -116.5q-20 -18 -41 4l-35 33q-18 29 -6 43q66 53 85.5 102.5t27.5 128.5l20 21h-39q-31 0 -28 31l18 145q4 31 35 31zM303 1487h35q33 0 27 -31l-175 -1429q-4 -27 -30 -27h-33q-33 0 -29 33l176 1427
q2 27 29 27z" />
    <glyph glyph-name="Lcaron" unicode="&#x13d;" horiz-adv-x="1169" 
d="M598 1487h96q29 0 29 -31l-23 -184q-10 -74 -17 -109t-37 -97t-83 -118q-23 -16 -41 4l-35 33q-23 29 -8 43q66 53 87.5 102.5t27.5 131.5l18 18h-39q-31 0 -26 33l16 145q2 29 35 29zM956 92q31 0 27 -31l-4 -30q-4 -31 -35 -31h-821q-31 0 -27 33l176 1425q2 29 31 29
h31q35 0 28 -31l-165 -1364h759z" />
    <glyph glyph-name="lcaron" unicode="&#x13e;" horiz-adv-x="733" 
d="M555 1487h96q29 0 29 -31l-23 -184q-10 -74 -17 -109t-37 -97t-83 -118q-23 -16 -41 4l-35 33q-23 29 -8 43q66 53 87.5 102.5t27.5 131.5l18 18h-39q-31 0 -26 33l16 145q2 29 35 29zM303 1487h35q33 0 27 -31l-175 -1429q-4 -27 -30 -27h-33q-33 0 -29 33l176 1427
q2 27 29 27z" />
    <glyph glyph-name="Ldot" unicode="&#x13f;" horiz-adv-x="1169" 
d="M569 963h60q33 0 28 -33l-10 -84q-2 -29 -35 -29h-59q-33 0 -29 31l11 84q2 31 34 31zM956 92q31 0 27 -31l-4 -30q-4 -31 -35 -31h-821q-31 0 -27 33l176 1425q2 29 31 29h31q35 0 28 -31l-165 -1364h759z" />
    <glyph glyph-name="ldot" unicode="&#x140;" horiz-adv-x="681" 
d="M504 965h61q29 0 27 -31l-10 -84q-4 -31 -33 -31h-62q-30 0 -26 33l10 84q0 29 33 29zM303 1487h35q33 0 27 -31l-175 -1429q-4 -27 -30 -27h-33q-33 0 -29 33l176 1427q2 27 29 27z" />
    <glyph glyph-name="Lslash" unicode="&#x141;" horiz-adv-x="1236" 
d="M1016 92q33 0 28 -31l-4 -30q-4 -31 -34 -31h-822q-31 0 -26 33l39 319l-52 -57q-31 -33 -51 -33h-55q-18 0 -24.5 12.5t5.5 26.5l199 221l115 936q2 29 31 29h30q35 0 29 -31l-98 -813l256 287q31 33 51 33h55q18 0 24.5 -12.5t-7.5 -26.5l-400 -451l-47 -381h758z" />
    <glyph glyph-name="lslash" unicode="&#x142;" horiz-adv-x="720" 
d="M524 963h56q18 -1 24 -13t-8 -26l-170 -191l-86 -702q-4 -31 -33 -31h-31q-33 0 -28 33l71 579l-20 -22q-29 -33 -51 -33h-55q-18 0 -25 12q-6 12 6 27l166 186l84 676q2 29 33 29h30q33 0 27 -31l-68 -555l25 29q30 33 53 33z" />
    <glyph glyph-name="Nacute" unicode="&#x143;" horiz-adv-x="1290" 
d="M1210 1487h31q33 0 27 -31l-174 -1425q-4 -31 -33 -31h-129q-20 0 -33 25l-561 1437l-178 -1431q-4 -31 -33 -31h-31q-33 0 -28 33l176 1425q2 29 32 29h127q27 0 35 -23l561 -1437l179 1431q1 29 32 29zM991 2163h60q43 0 18 -37l-225 -379q-23 -37 -47 -37h-35
q-16 0 -22.5 11.5t3.5 27.5l201 379q18 35 47 35z" />
    <glyph glyph-name="nacute" unicode="&#x144;" horiz-adv-x="1032" 
d="M520 963h84q139 0 232.5 -115t76.5 -252l-69 -565q-4 -31 -35 -31h-31q-31 0 -26 33l69 565q12 109 -47 190.5t-170 81.5h-84q-86 0 -176 -60t-100 -126l-80 -653q-4 -31 -33 -31h-31q-33 0 -28 33l110 901q2 29 35 29h31q31 0 26 -31l-8 -53q127 84 254 84zM866 1638
q43 0 19 -36l-226 -379q-23 -37 -47 -37h-34q-16 0 -22.5 11.5t3.5 27.5l201 379q18 35 47 34h59z" />
    <glyph glyph-name="Ncommaaccent" unicode="&#x145;" horiz-adv-x="1290" 
d="M436 -307h96q29 0 29 -33l-22 -184q-10 -74 -17.5 -109t-37 -96.5t-83.5 -116.5q-23 -16 -41 4l-34 33q-23 29 -9 43q66 53 87.5 102.5t27.5 128.5l19 21h-39q-31 0 -27 31l16 145q4 31 35 31zM1210 1487h31q33 0 27 -31l-174 -1425q-4 -31 -33 -31h-129q-20 0 -33 25
l-561 1437l-178 -1431q-4 -31 -33 -31h-31q-33 0 -28 33l176 1425q2 29 32 29h127q27 0 35 -23l561 -1437l179 1431q1 29 32 29z" />
    <glyph glyph-name="ncommaaccent" unicode="&#x146;" horiz-adv-x="1032" 
d="M313 -307h97q29 0 28 -33l-22 -184q-10 -74 -17.5 -109t-37 -96.5t-82.5 -116.5q-23 -16 -41 4l-35 33q-23 29 -8 43q66 53 87 102.5t27 128.5l19 21h-39q-31 0 -27 31l17 145q3 31 34 31zM520 963h84q139 0 232.5 -115t76.5 -252l-69 -565q-4 -31 -35 -31h-31
q-31 0 -26 33l69 565q12 109 -47 190.5t-170 81.5h-84q-86 0 -176 -60t-100 -126l-80 -653q-4 -31 -33 -31h-31q-33 0 -28 33l110 901q2 29 35 29h31q31 0 26 -31l-8 -53q127 84 254 84z" />
    <glyph glyph-name="Ncaron" unicode="&#x147;" horiz-adv-x="1290" 
d="M1210 1487h31q33 0 27 -31l-174 -1425q-4 -31 -33 -31h-129q-20 0 -33 25l-561 1437l-178 -1431q-4 -31 -33 -31h-31q-33 0 -28 33l176 1425q2 29 32 29h127q27 0 35 -23l561 -1437l179 1431q1 29 32 29zM504 2163h59q16 0 43 -39l195 -299l268 301q37 37 53 37h58
q16 0 21 -13.5t-7 -25.5l-336 -367q-29 -33 -53 -33h-29q-23 0 -43 35l-246 367q-10 14 -5 25.5t22 11.5z" />
    <glyph glyph-name="ncaron" unicode="&#x148;" horiz-adv-x="1032" 
d="M520 963h84q139 0 232.5 -115t76.5 -252l-69 -565q-4 -31 -35 -31h-31q-31 0 -26 33l69 565q12 109 -47 190.5t-170 81.5h-84q-86 0 -176 -60t-100 -126l-80 -653q-4 -31 -33 -31h-31q-33 0 -28 33l110 901q2 29 35 29h31q31 0 26 -31l-8 -53q127 84 254 84zM317 1638h60
q16 0 43 -39l194 -299l269 302q37 37 53 36h57q16 0 21.5 -13t-6.5 -26l-336 -366q-29 -33 -54 -33h-28q-23 0 -43 35l-246 367q-10 14 -5 25t21 11z" />
    <glyph glyph-name="Eng" unicode="&#x14a;" horiz-adv-x="1155" 
d="M1075 1487h31q35 0 29 -31l-166 -1366q-27 -197 -169 -339t-311 -142h-49q-121 0 -237 88q-25 20 -2 43l22 31q27 23 45 0q80 -70 181 -70h53q124 0 234 106t136 265l-534 1390l-178 -1431q-4 -31 -33 -31h-31q-33 0 -28 33l176 1425q2 29 32 29h127q27 0 35 -23
l461 -1183l145 1177q2 29 31 29z" />
    <glyph glyph-name="eng" unicode="&#x14b;" horiz-adv-x="1017" 
d="M520 963h84q139 0 232.5 -115t76.5 -252l-57 -477l-12 -88q-4 -14 -13 -25q-53 -174 -188 -290.5t-272 -104.5q-37 2 -23 37l33 37q8 25 35 20q127 -2 226 119t120 293l53 438l6 43q12 109 -47 190.5t-170 81.5h-84q-86 0 -176 -60t-100 -126l-80 -653q-4 -31 -33 -31
h-31q-33 0 -28 33l110 901q2 29 35 29h31q31 0 26 -31l-8 -53q127 84 254 84z" />
    <glyph glyph-name="Omacron" unicode="&#x14c;" 
d="M487 84h91q142 0 254 116t135 287l63 535q20 172 -62 287q-83 115 -227 114h-90q-141 1 -254 -115t-135 -288l-63 -535q-19 -173 63 -287t225 -114zM662 1516h92q176 0 284 -144t84 -348l-65 -543q-27 -203 -170 -346t-320 -143h-92q-176 0 -285 144t-84 347l64 543
q28 202 172 346t320 144zM1090 1919h-664q-31 0 -27 33l4 30q2 29 33 29h664q33 0 26 -31l-2 -30q-5 -31 -34 -31z" />
    <glyph glyph-name="omacron" unicode="&#x14d;" horiz-adv-x="1050" 
d="M516 877q-121 -1 -210 -91t-103 -215l-25 -182q-14 -125 52 -212t186 -87h78q117 0 208 88t105 213l24 182q14 125 -53 214q-68 89 -184 90h-78zM522 969h80q150 0 245 -121t77 -277l-25 -182q-18 -155 -141 -273t-273 -118h-79q-152 0 -245 119t-75 274l25 182
q15 156 137 276t274 120zM950 1395h-663q-31 0 -27 32l4 31q2 29 33 29h664q33 0 26 -31l-2 -31q-6 -30 -35 -30z" />
    <glyph glyph-name="Ohungarumlaut" unicode="&#x150;" 
d="M487 84h91q142 0 254 116t135 287l63 535q20 172 -62 287q-83 115 -227 114h-90q-141 1 -254 -115t-135 -288l-63 -535q-19 -173 63 -287t225 -114zM662 1516h92q176 0 284 -144t84 -348l-65 -543q-27 -203 -170 -346t-320 -143h-92q-176 0 -285 144t-84 347l64 543
q28 202 172 346t320 144zM1085 2163h60q18 1 24 -9t-6 -28l-223 -379q-23 -37 -49 -37h-35q-16 0 -21 12t5 27l200 379q16 35 45 35zM754 2163h59q43 0 18 -37l-225 -379q-23 -37 -47 -37h-35q-16 0 -22 12t4 27l201 379q18 35 47 35z" />
    <glyph glyph-name="ohungarumlaut" unicode="&#x151;" horiz-adv-x="1050" 
d="M516 877q-121 -1 -210 -91t-103 -215l-25 -182q-14 -125 52 -212t186 -87h78q117 0 208 88t105 213l24 182q14 125 -53 214q-68 89 -184 90h-78zM522 969h80q150 0 245 -121t77 -277l-25 -182q-18 -155 -141 -273t-273 -118h-79q-152 0 -245 119t-75 274l25 182
q15 156 137 276t274 120zM1006 1638q42 0 18 -36l-223 -379q-23 -37 -49 -37h-35q-16 0 -22 11q-5 12 5 28l201 379q16 35 45 34h60zM674 1638q43 0 18 -36l-225 -379q-23 -37 -47 -37h-35q-16 0 -23 11q-5 12 5 28l200 379q18 35 47 34h60z" />
    <glyph glyph-name="OE" unicode="&#x152;" horiz-adv-x="1964" 
d="M487 84h91q113 0 210 76t146 198l96 787q-16 125 -95 201.5t-194 76.5h-90q-141 0 -253.5 -115.5t-135.5 -287.5l-63 -535q-20 -172 62.5 -286.5t225.5 -114.5zM1100 1487h821q35 0 29 -31l-2 -31q-10 -31 -35 -30h-762l-29 -238q10 -66 0 -133l-26 -227h608q33 0 29 -33
l-4 -31q-2 -29 -35 -28h-611l-26 -224q-8 -61 -33 -135l-31 -254h758q31 0 29 -31l-4 -30q-2 -31 -35 -31h-821q-31 0 -27 33l16 125q-150 -166 -342 -166h-92q-176 0 -284.5 144.5t-84.5 346.5l64 543q27 203 171 346.5t321 143.5h92q195 0 301 -168l14 110q2 29 31 29z
" />
    <glyph glyph-name="oe" unicode="&#x153;" horiz-adv-x="1732" 
d="M1321 877h-78q-109 0 -203 -85t-108 -200l-4 -31h606l4 33q16 121 -56.5 202t-160.5 81zM416 90h78q117 0 208 88t105 213l24 182q14 125 -53 214.5t-184 89.5h-78q-121 0 -210 -90.5t-103 -215.5l-25 -182q-14 -125 51.5 -212t186.5 -87zM1249 969h78
q121 0 222.5 -108.5t82.5 -260.5l-12 -82q-6 -61 -66 -61h-639l-10 -92q-14 -113 57.5 -194t178.5 -81h76q137 0 272 146q27 20 41 2l26 -23q23 -18 7 -43q-166 -174 -353 -174h-77q-94 0 -178.5 59.5t-120.5 151.5q-57 -94 -151.5 -152.5t-197.5 -58.5h-79q-152 0 -245 119
t-75 274l25 182q16 156 138 276t273 120h80q102 0 181 -59.5t118 -153.5q59 94 155.5 153.5t192.5 59.5z" />
    <glyph glyph-name="Racute" unicode="&#x154;" horiz-adv-x="1161" 
d="M664 745q303 0 344 328q37 322 -260 322h-435l-80 -650h431zM946 0h-31q-31 0 -26 33l41 350q20 154 -49.5 212t-196.5 58h-461l-76 -622q-4 -31 -34 -31h-31q-31 0 -27 33l176 1425q2 29 31 29h488q184 0 279.5 -111.5t70.5 -310.5q-31 -254 -221 -360q172 -96 145 -334
l-43 -340q-4 -31 -35 -31zM913 2163h60q43 0 18 -37l-225 -379q-23 -37 -47 -37h-35q-16 0 -22 11.5t4 27.5l200 379q18 35 47 35z" />
    <glyph glyph-name="racute" unicode="&#x155;" horiz-adv-x="833" 
d="M596 877h-82q-84 0 -176 -62.5t-102 -128.5l-80 -655q-4 -31 -33 -31h-31q-33 0 -29 33l111 901q2 29 35 29h31q31 0 26 -31l-8 -53q137 90 254 90h72q131 0 219 -107q20 -25 0 -45l-21 -14q-27 -25 -43 6q-61 68 -143 68zM776 1638q43 0 19 -36l-226 -379
q-23 -37 -47 -37h-35q-16 0 -22 11.5t4 27.5l201 379q18 35 47 34h59z" />
    <glyph glyph-name="Rcommaaccent" unicode="&#x156;" horiz-adv-x="1161" 
d="M356 -307h97q29 0 28 -33l-22 -184q-10 -74 -17.5 -109t-37 -96.5t-82.5 -116.5q-23 -16 -41 4l-35 33q-23 29 -8 43q66 53 87 102.5t27 128.5l19 21h-39q-29 0 -27 31l17 145q1 31 34 31zM664 745q303 0 344 328q37 322 -260 322h-435l-80 -650h431zM946 0h-31
q-31 0 -26 33l41 350q20 154 -49.5 212t-196.5 58h-461l-76 -622q-4 -31 -34 -31h-31q-31 0 -27 33l176 1425q2 29 31 29h488q184 0 279.5 -111.5t70.5 -310.5q-31 -254 -221 -360q172 -96 145 -334l-43 -340q-4 -31 -35 -31z" />
    <glyph glyph-name="rcommaaccent" unicode="&#x157;" horiz-adv-x="833" 
d="M-35 -307h96q29 0 29 -33l-22 -184q-10 -74 -17.5 -109t-38 -96.5t-84.5 -116.5q-20 -18 -41 4l-34 33q-18 29 -7 43q66 53 85.5 102.5t27.5 128.5l18 21h-36q-31 0 -29 31l18 145q4 31 35 31zM596 877h-82q-84 0 -176 -62.5t-102 -128.5l-80 -655q-4 -31 -33 -31h-31
q-33 0 -29 33l111 901q2 29 35 29h31q31 0 26 -31l-8 -53q137 90 254 90h72q131 0 219 -107q20 -25 0 -45l-21 -14q-27 -25 -43 6q-61 68 -143 68z" />
    <glyph glyph-name="Rcaron" unicode="&#x158;" horiz-adv-x="1161" 
d="M664 745q303 0 344 328q37 322 -260 322h-435l-80 -650h431zM946 0h-31q-31 0 -26 33l41 350q20 154 -49.5 212t-196.5 58h-461l-76 -622q-4 -31 -34 -31h-31q-31 0 -27 33l176 1425q2 29 31 29h488q184 0 279.5 -111.5t70.5 -310.5q-31 -254 -221 -360q172 -96 145 -334
l-43 -340q-4 -31 -35 -31zM424 2163h59q16 0 43 -39l195 -299l268 301q37 37 53 37h58q16 0 21 -13.5t-7 -25.5l-336 -367q-29 -33 -53 -33h-29q-23 0 -43 35l-245 367q-10 14 -5 25.5t21 11.5z" />
    <glyph glyph-name="rcaron" unicode="&#x159;" horiz-adv-x="833" 
d="M596 877h-82q-84 0 -176 -62.5t-102 -128.5l-80 -655q-4 -31 -33 -31h-31q-33 0 -29 33l111 901q2 29 35 29h31q31 0 26 -31l-8 -53q137 90 254 90h72q131 0 219 -107q20 -25 0 -45l-21 -14q-27 -25 -43 6q-61 68 -143 68zM227 1638h60q16 0 43 -39l194 -299l269 302
q37 37 53 36h57q16 0 21.5 -13t-6.5 -26l-336 -366q-29 -33 -54 -33h-28q-23 0 -43 35l-246 367q-10 14 -5 25t21 11z" />
    <glyph glyph-name="Sacute" unicode="&#x15a;" horiz-adv-x="1175" 
d="M637 1518h106q168 0 280 -122t89 -309l-4 -34q-8 -29 -35 -29h-33q-33 0 -28 31l4 35q20 154 -65 244.5t-218 90.5h-106q-141 0 -236.5 -79.5t-114.5 -229.5t72 -216q72 -51 217 -81l103 -20q201 -41 298 -128t74 -272.5t-162 -300t-315 -114.5h-94q-172 0 -287.5 116.5
t-95.5 296.5l8 54q4 31 35 30h33q29 0 28 -32l-8 -54q-12 -150 73 -233.5t222 -83.5h94q143 0 252 88t128 244t-68 213t-221 84l-105 18q-203 41 -299 129t-75 265t151.5 288t302.5 111zM930 2163h59q43 0 19 -37l-226 -379q-23 -37 -47 -37h-35q-16 0 -22 11.5t4 27.5
l201 379q18 35 47 35z" />
    <glyph glyph-name="sacute" unicode="&#x15b;" horiz-adv-x="972" 
d="M438 -10h-53q-119 0 -221.5 80t-97.5 192q0 27 32 27h35q33 0 27 -35q0 -76 73.5 -124t161.5 -48h45q113 0 202 50t99 142q8 20 1 39t-7 32t-15 24.5t-21.5 18.5t-28 13.5t-31.5 10.5q-17 7 -75 11q-243 17 -362 87q-93 55 -78 183t128 203t258 75h43q125 0 225.5 -87
t89.5 -212q-4 -29 -28 -29h-35q-33 0 -33 31q8 88 -62.5 146.5t-164.5 58.5h-37q-276 0 -295 -201q-6 -78 54.5 -105.5t130 -36t149.5 -19.5q164 -23 231 -83t54.5 -172.5t-133.5 -192t-261 -79.5zM825 1638q43 0 19 -36l-226 -379q-23 -37 -47 -37h-34q-16 0 -22.5 11.5
t3.5 27.5l201 379q18 35 47 34h59z" />
    <glyph glyph-name="Scedilla" unicode="&#x15e;" horiz-adv-x="1175" 
d="M637 1518h106q168 0 280 -122t89 -309l-4 -34q-8 -29 -35 -29h-33q-33 0 -28 31l4 35q20 154 -65 244.5t-218 90.5h-106q-141 0 -236.5 -79.5t-115 -230t72.5 -215.5q72 -51 217 -81l103 -20q201 -41 298 -128t74 -272.5t-162 -300t-315 -114.5h-2q-70 -78 0 -88
q8 -2 23 -5h8q117 -18 139 -28q66 -29 55.5 -115t-55.5 -124t-141 -38h-76q-84 0 -126 47.5t-34 128.5q4 16 21 17h63q20 0 20 -28q-1 -56 91 -56h22q47 0 62.5 1t30 12t17.5 40t-35 40q-38 10 -118 20t-92 15q-29 13 -36 52.5t44 108.5q-164 10 -270 124.5t-88 288.5l8 54
q4 31 35 30h33q29 0 28 -32l-8 -54q-12 -150 73 -233.5t222 -83.5h94q143 0 252 88t128 244t-68.5 213t-220.5 84l-105 18q-203 41 -299 129t-75 265t151.5 288t302.5 111z" />
    <glyph glyph-name="scedilla" unicode="&#x15f;" horiz-adv-x="972" 
d="M489 -414h-75q-84 0 -126 47.5t-34 128.5q4 16 20 17h64q20 0 19 -28q-2 -56 92 -56h22q47 0 62.5 1t30 12t17.5 40t-35 40t-119 20.5t-93 15.5q-33 17 -37.5 57t51.5 111q-111 12 -199 90t-83 180q0 27 32 27h35q33 0 27 -35q0 -76 73.5 -124t161.5 -48h45q113 0 202 50
t99 142q8 20 1 39t-7 32t-15 24.5t-21.5 18.5t-28 13.5t-31.5 10.5q-17 7 -75 11q-243 17 -362 87q-93 55 -78 183t128 203t258 75h43q125 0 225.5 -87t89.5 -212q-4 -29 -28 -29h-35q-33 0 -33 31q8 88 -62.5 146.5t-164.5 58.5h-37q-276 0 -295 -201q-6 -78 54.5 -105.5
t130 -36t149.5 -19.5q164 -23 231 -83t55.5 -169.5t-122.5 -187t-246 -87.5q-75 -81 -13 -93q31 -6 94 -15t85 -19q66 -29 55.5 -115t-55.5 -124t-142 -38z" />
    <glyph glyph-name="Scaron" unicode="&#x160;" horiz-adv-x="1175" 
d="M637 1518h106q168 0 280 -122t89 -309l-4 -34q-8 -29 -35 -29h-33q-33 0 -28 31l4 35q20 154 -65 244.5t-218 90.5h-106q-141 0 -236.5 -79.5t-114.5 -229.5t72 -216q72 -51 217 -81l103 -20q201 -41 298 -128t74 -272.5t-162 -300t-315 -114.5h-94q-172 0 -287.5 116.5
t-95.5 296.5l8 54q4 31 35 30h33q29 0 28 -32l-8 -54q-12 -150 73 -233.5t222 -83.5h94q143 0 252 88t128 244t-68 213t-221 84l-105 18q-203 41 -299 129t-75 265t151.5 288t302.5 111zM442 2163h60q16 0 43 -39l194 -299l269 301q37 37 53 37h57q16 0 21.5 -13.5
t-6.5 -25.5l-336 -367q-29 -33 -54 -33h-28q-23 0 -43 35l-246 367q-10 14 -5 25.5t21 11.5z" />
    <glyph glyph-name="scaron" unicode="&#x161;" horiz-adv-x="972" 
d="M438 -10h-53q-119 0 -221.5 80t-97.5 192q0 27 32 27h35q33 0 27 -35q0 -76 73.5 -124t161.5 -48h45q113 0 202 50t99 142q8 20 1 39t-7 32t-15 24.5t-21.5 18.5t-28 13.5t-31.5 10.5q-17 7 -75 11q-243 17 -362 87q-93 55 -78 183t128 203t258 75h43q125 0 225.5 -87
t89.5 -212q-4 -29 -28 -29h-35q-33 0 -33 31q8 88 -62.5 146.5t-164.5 58.5h-37q-276 0 -295 -201q-6 -78 54.5 -105.5t130 -36t149.5 -19.5q164 -23 231 -83t54.5 -172.5t-133.5 -192t-261 -79.5zM279 1638h59q16 0 43 -39l194 -299l269 302q37 37 53 36h57q16 0 21.5 -13
t-6.5 -26l-336 -366q-29 -33 -53 -33h-29q-23 0 -43 35l-246 367q-10 14 -5 25t22 11z" />
    <glyph glyph-name="Tcedilla" unicode="&#x162;" horiz-adv-x="1085" 
d="M197 1487h899q35 0 26 -31l-2 -31q-6 -31 -33 -30h-405l-166 -1364q0 -10 -6 -17q12 -6 6 -22q-74 -84 -16 -95q31 -6 94.5 -15t85.5 -19q66 -29 55.5 -115t-55.5 -124t-141 -38h-76q-84 0 -126 47.5t-34 128.5q4 16 21 17h63q19 0 19 -28q-1 -56 92 -56h22q47 0 62.5 1
t30 12t17.5 40t-35 40t-187 28q-23 2 -42.5 18t-15.5 60.5t56 105.5q12 12 20 12q-2 6 -2 21l168 1362h-404q-33 0 -28 32l4 31q2 29 33 29z" />
    <glyph glyph-name="tcedilla" unicode="&#x163;" horiz-adv-x="600" 
d="M459 -414h-76q-84 0 -126 47.5t-34 128.5q4 16 21 17h63q19 0 19 -28q-1 -56 92 -56h22q47 0 62.5 1t30 12t17.5 40t-35 40t-187 28q-23 2 -42.5 18t-15.5 60.5t56 105.5l10 8q-78 25 -125 91.5t-33 170.5l74 600h-113q-29 0 -26 31l4 29q8 33 35 33h112l27 215
q2 29 31 28h30q33 0 31 -30l-27 -213h150q35 0 31 -31l-7 -31q-2 -31 -32 -31h-154l-76 -618q-18 -150 150 -156q16 0 25.5 -7t7.5 -19l-2 -41q-4 -20 -11 -27q0 -6 -2 -10q-73 -83 -15 -95q30 -6 93.5 -15t85.5 -19q66 -29 55.5 -115t-55.5 -124t-141 -38z" />
    <glyph glyph-name="Tcaron" unicode="&#x164;" horiz-adv-x="1085" 
d="M197 1487h899q35 0 26 -31l-2 -31q-6 -31 -33 -30h-405l-166 -1364q-4 -31 -35 -31h-30q-31 0 -27 33l168 1362h-404q-33 0 -28 32l4 31q2 29 33 29zM389 2163h60q16 0 43 -39l194 -299l268 301q37 37 54 37h57q16 0 21.5 -13.5t-7.5 -25.5l-336 -367q-29 -33 -53 -33
h-28q-24 0 -44 35l-245 367q-10 14 -5 25.5t21 11.5z" />
    <glyph glyph-name="tcaron" unicode="&#x165;" horiz-adv-x="755" 
d="M506 963q35 0 31 -31l-7 -31q-2 -31 -32 -31h-154l-76 -618q-18 -150 150 -156q16 0 25.5 -7t7.5 -19l-2 -41q-4 -33 -27 -33q-100 -6 -181 65.5t-63 208.5l74 600h-113q-29 0 -26 31l4 29q8 33 35 33h112l27 215q2 29 31 28h30q33 0 31 -30l-27 -213h150zM567 1640h97
q29 0 28 -30l-22 -185q-10 -74 -17.5 -108.5t-37 -97t-83.5 -117.5q-23 -16 -40 4l-35 33q-23 29 -8 43q66 53 87 102t27 131l19 19h-39q-31 0 -27 32l16 146q2 28 35 28z" />
    <glyph glyph-name="Tbar" unicode="&#x166;" horiz-adv-x="1085" 
d="M197 1487h899q35 0 26 -31l-2 -31q-6 -31 -33 -30h-405l-51 -432h313q33 0 27 -31l-2 -31q-6 -31 -35 -31h-316l-102 -839q-4 -31 -35 -31h-30q-31 0 -27 33l104 837h-258q-31 0 -26 33l4 31q2 29 33 29h258l53 432h-404q-33 0 -28 32l4 31q2 29 33 29z" />
    <glyph glyph-name="tbar" unicode="&#x167;" horiz-adv-x="628" 
d="M139 598q-29 0 -26 31l4 30q2 31 35 31h106l23 180h-113q-33 0 -29 31l6 29q6 33 33 33h113l26 215q2 29 31 28h31q35 0 31 -30l-27 -213h149q33 0 31 -31l-4 -31q-2 -31 -35 -31h-153l-21 -180h156q33 0 29 -33l-7 -30q-2 -29 -32 -29h-158l-43 -346q-18 -150 149 -156
q37 0 33 -26l-2 -41q-4 -33 -26 -33q-100 -6 -180.5 65.5t-61.5 208.5l41 328h-109z" />
    <glyph glyph-name="Utilde" unicode="&#x168;" horiz-adv-x="1167" 
d="M1112 1489h31q35 0 28 -31l-122 -1009q-25 -199 -166 -330t-338 -131h-53q-197 0 -307 132t-83 331l125 1009q2 29 31 29h31q35 0 28 -31l-124 -1020q-19 -166 65 -262t244 -96h53q159 0 269 97t130 263l127 1020q2 29 31 29zM1108 1997l14 -37q8 -27 -20 -45
q-117 -74 -188 -73t-166 71q-98 61 -142 59t-164 -78q-20 -10 -32 21l-15 35q-10 25 23 47q114 74 184 73t170 -73q94 -59 139 -57t162 77q23 11 35 -20z" />
    <glyph glyph-name="utilde" unicode="&#x169;" horiz-adv-x="1048" 
d="M801 0h-31q-31 0 -27 33l9 49q-125 -84 -254 -84h-78q-143 0 -237 110q-93 110 -74 252l69 574q0 29 33 29h31q33 0 28 -31l-69 -574q-14 -112 44 -190t173 -78h78q86 0 177 60t101 126l80 658q2 29 33 29h31q32 0 28 -31l-110 -901q-4 -31 -35 -31zM975 1473l14 -37
q8 -27 -20 -45q-117 -74 -188 -73t-167 71q-98 61 -142 59t-163 -78q-20 -10 -33 21l-14 34q-10 25 23 48q115 75 185 73t169 -73q94 -59 139 -57t162 77q23 11 35 -20z" />
    <glyph glyph-name="Umacron" unicode="&#x16a;" horiz-adv-x="1167" 
d="M1112 1489h31q35 0 28 -31l-122 -1009q-25 -199 -166 -330t-338 -131h-53q-197 0 -307 132t-83 331l125 1009q2 29 31 29h31q35 0 28 -31l-124 -1020q-19 -166 65 -262t244 -96h53q159 0 269 97t130 263l127 1020q2 29 31 29zM1087 1919h-663q-31 0 -27 33l4 30
q2 29 33 29h664q33 0 26 -31l-2 -30q-6 -31 -35 -31z" />
    <glyph glyph-name="umacron" unicode="&#x16b;" horiz-adv-x="1048" 
d="M801 0h-31q-31 0 -27 33l9 49q-125 -84 -254 -84h-78q-143 0 -237 110q-93 110 -74 252l69 574q0 29 33 29h31q33 0 28 -31l-69 -574q-14 -112 44 -190t173 -78h78q86 0 177 60t101 126l80 658q2 29 33 29h31q32 0 28 -31l-110 -901q-4 -31 -35 -31zM954 1395h-663
q-31 0 -27 32l4 31q2 29 33 29h664q33 0 26 -31l-2 -31q-6 -30 -35 -30z" />
    <glyph glyph-name="Ubreve" unicode="&#x16c;" horiz-adv-x="1167" 
d="M1112 1489h31q35 0 28 -31l-122 -1009q-25 -199 -166 -330t-338 -131h-53q-197 0 -307 132t-83 331l125 1009q2 29 31 29h31q35 0 28 -31l-124 -1020q-19 -166 65 -262t244 -96h53q159 0 269 97t130 263l127 1020q2 29 31 29zM1036 2163h41q33 0 27 -35
q-53 -283 -324 -283h-69q-131 0 -198 74t-58 217q2 27 32 27h41q33 0 27 -35q-4 -92 33 -136t129 -44h78q90 0 139 46t70 142q1 27 32 27z" />
    <glyph glyph-name="ubreve" unicode="&#x16d;" horiz-adv-x="1048" 
d="M801 0h-31q-31 0 -27 33l9 49q-125 -84 -254 -84h-78q-143 0 -237 110q-93 110 -74 252l69 574q0 29 33 29h31q33 0 28 -31l-69 -574q-14 -112 44 -190t173 -78h78q86 0 177 60t101 126l80 658q2 29 33 29h31q32 0 28 -31l-110 -901q-4 -31 -35 -31zM905 1638h41
q33 0 27 -34q-53 -283 -324 -283h-69q-131 0 -198 74t-58 217q2 27 32 26h41q33 0 27 -34q-4 -92 33 -136t129 -45h78q90 0 139 46t69 143q2 26 33 26z" />
    <glyph glyph-name="Uring" unicode="&#x16e;" horiz-adv-x="1167" 
d="M1112 1489h31q35 0 28 -31l-122 -1009q-25 -199 -166 -330t-338 -131h-53q-197 0 -307 132t-83 331l125 1009q2 29 31 29h31q35 0 28 -31l-124 -1020q-19 -166 65 -262t244 -96h53q159 0 269 97t130 263l127 1020q2 29 31 29zM762 2073q-100 0 -111 -101l-2 -18
q-16 -98 86 -99h23q102 1 112 101l2 18q16 98 -88 99h-22zM770 2165h27q82 -1 129 -55t37 -136l-2 -22q-9 -84 -69 -136t-142 -53h-27q-84 1 -130 55t-36 136l2 22q9 82 69 136t142 53z" />
    <glyph glyph-name="uring" unicode="&#x16f;" horiz-adv-x="1048" 
d="M801 0h-31q-31 0 -27 33l9 49q-125 -84 -254 -84h-78q-143 0 -237 110q-93 110 -74 252l69 574q0 29 33 29h31q33 0 28 -31l-69 -574q-14 -112 44 -190t173 -78h78q86 0 177 60t101 126l80 658q2 29 33 29h31q32 0 28 -31l-110 -901q-4 -31 -35 -31zM651 1548h-22
q-100 0 -111 -100l-2 -18q-16 -98 86 -99h23q102 1 112 101l2 18q14 98 -88 98zM637 1640h27q82 0 129 -54t36 -136l-2 -23q-10 -84 -69 -136t-142 -52h-26q-84 0 -130 54t-36 137l2 22q10 82 70 135t141 53z" />
    <glyph glyph-name="Uhungarumlaut" unicode="&#x170;" horiz-adv-x="1167" 
d="M1112 1489h31q35 0 28 -31l-122 -1009q-25 -199 -166 -330t-338 -131h-53q-197 0 -307 132t-83 331l125 1009q2 29 31 29h31q35 0 28 -31l-124 -1020q-19 -166 65 -262t244 -96h53q159 0 269 97t130 263l127 1020q2 29 31 29zM1083 2163h60q18 1 24 -9t-6 -28l-223 -379
q-23 -37 -49 -37h-35q-16 0 -21 12t5 27l200 379q18 35 45 35zM752 2163h59q43 0 18 -37l-225 -379q-23 -37 -47 -37h-35q-16 0 -22 12t4 27l201 379q16 35 47 35z" />
    <glyph glyph-name="uhungarumlaut" unicode="&#x171;" horiz-adv-x="1048" 
d="M801 0h-31q-31 0 -27 33l9 49q-125 -84 -254 -84h-78q-143 0 -237 110q-93 110 -74 252l69 574q0 29 33 29h31q33 0 28 -31l-69 -574q-14 -112 44 -190t173 -78h78q86 0 177 60t101 126l80 658q2 29 33 29h31q32 0 28 -31l-110 -901q-4 -31 -35 -31zM1012 1638
q42 0 18 -36l-223 -379q-23 -37 -49 -37h-35q-16 0 -22 11q-4 12 6 28l200 379q18 35 45 34h60zM680 1638q43 0 18 -36l-225 -379q-23 -37 -47 -37h-35q-16 0 -22 12t4 27l200 379q16 35 48 34h59z" />
    <glyph glyph-name="Uogonek" unicode="&#x172;" horiz-adv-x="1167" 
d="M412 -271q0 -5 79 -5h218q23 0 20 -21l-10 -70q0 -18 -21 -18h-247q-178 0 -158 158q6 49 17 77q19 48 88 65q35 8 114 16t99 24t24 41q-41 -8 -90 -8h-53q-197 0 -307 132t-83 331l125 1009q2 29 31 29h31q35 0 28 -31l-124 -1020q-19 -166 65 -262t244 -96h53
q159 0 269 97t130 263l127 1020q2 29 31 29h31q35 0 28 -31l-122 -1009q-17 -145 -101 -257t-211 -165v-4q10 -84 -28 -133q-39 -48 -109 -52q-133 -18 -158 -18q-29 -4 -34 -49v-9q2 -8 0 -14t1 -10t3 -9z" />
    <glyph glyph-name="uogonek" unicode="&#x173;" horiz-adv-x="1048" 
d="M506 -271q0 -5 79 -5h218q23 0 20 -21l-10 -70q0 -18 -20 -18h-248q-178 0 -158 158q6 49 17 77t45 48q34 19 134 30q101 12 119 25q31 20 27 78q-2 6 2 8t14 4l7 39q-125 -84 -254 -84h-78q-143 0 -237 110q-93 110 -74 252l69 574q0 29 33 29h31q33 0 28 -31l-69 -574
q-14 -112 44 -190t173 -78h78q86 0 177 60t101 126l80 658q2 29 33 29h31q33 0 28 -31l-110 -901q0 -6 -5 -15q7 -82 -31 -128t-106 -50q-133 -18 -157 -18q-29 -4 -35 -49v-9q2 -8 0 -14t1 -10t3 -9z" />
    <glyph glyph-name="Wcircumflex" unicode="&#x174;" horiz-adv-x="1880" 
d="M1849 1487h33q35 0 25 -33l-535 -1423q-10 -31 -41 -31h-41q-29 0 -35 33l-221 1292l-538 -1294q-14 -31 -41 -31h-41q-35 0 -35 33l-184 1425q-6 29 24 29h35q29 0 33 -31l164 -1290l532 1292q12 29 45 29h45q29 0 35 -33l225 -1288l479 1288q12 33 37 33zM1118 2163h29
q16 0 45 -33l244 -369q10 -12 5 -24t-22 -13h-57q-20 0 -28 18q-9 18 -15 23l-195 297l-270 -301q-33 -37 -51 -37h-58q-16 0 -20 14t8 27l336 367q29 31 49 31z" />
    <glyph glyph-name="wcircumflex" unicode="&#x175;" horiz-adv-x="1406" 
d="M1321 963h35q35 0 24 -35l-354 -895q-12 -33 -43 -33h-41q-20 0 -35 35l-172 772l-364 -774q-12 -33 -43 -33h-41q-20 0 -35 35l-133 895q-6 33 28 33h35q29 0 33 -35l107 -778l368 780q14 33 39 33h45q18 0 31 -29q2 -4 2 -6l172 -778l303 780q12 33 39 33zM848 1638
q16 0 45 -32l244 -369q10 -13 5 -25t-22 -12h-57q-4 0 -9 2t-11 4t-10 14t-13 21l-195 297l-270 -301q-33 -37 -51 -37h-58q-16 0 -20 14t8 27l336 367q29 31 49 30h29z" />
    <glyph glyph-name="Ycircumflex" unicode="&#x176;" horiz-adv-x="1163" 
d="M1124 1487h50q16 0 23 -8t-5 -23l-561 -803l-78 -622q-4 -31 -35 -31h-31q-31 0 -26 33l78 620l-361 805q-14 29 21 29h49q23 0 35 -31l313 -696l483 698q22 29 45 29zM756 2163h28q16 0 45 -33l244 -369q10 -12 5 -24t-21 -13h-58q-18 0 -28 18q-9 18 -15 23l-194 297
l-270 -301q-33 -37 -52 -37h-57q-16 0 -20 14t8 27l336 367q27 31 49 31z" />
    <glyph glyph-name="ycircumflex" unicode="&#x177;" horiz-adv-x="989" 
d="M897 963h43q37 0 18 -37l-704 -1303q-18 -33 -51 -33h-43q-37 0 -19 37l238 436l-256 865q-10 35 20 35h45q25 0 39 -35l219 -740l402 742q18 33 49 33zM295 1200h-57q-16 0 -21 13q-4 13 8 28l336 367q29 31 49 30h29q16 0 45 -32l244 -369q10 -13 5 -25t-22 -12h-57
q-4 0 -9 2t-11 4t-10 14t-13 21l-195 297l-270 -301q-33 -37 -51 -37z" />
    <glyph glyph-name="Ydieresis" unicode="&#x178;" horiz-adv-x="1163" 
d="M1124 1487h50q16 0 23 -8t-5 -23l-561 -803l-78 -622q-4 -31 -35 -31h-31q-31 0 -26 33l78 620l-361 805q-14 29 21 29h49q23 0 35 -31l313 -696l483 698q22 29 45 29zM1040 2011h62q37 0 26 -31l-10 -84q-4 -31 -31 -30h-61q-33 -1 -27 32l11 84q2 29 30 29zM403 2011
h60q35 0 29 -31l-11 -84q-2 -31 -32 -30h-60q-35 -1 -29 32l11 84q2 29 32 29z" />
    <glyph glyph-name="Zacute" unicode="&#x179;" horiz-adv-x="1107" 
d="M236 1395q-31 0 -27 32l4 31q2 29 33 29h841q33 0 27 -31l-8 -61q0 -6 -6 -13l-944 -1290h762q29 0 26 -31l-4 -30q-2 -31 -33 -31h-841q-33 0 -29 33l8 59l6 14l946 1289h-761zM899 2163h59q43 0 19 -37l-225 -379q-23 -37 -47 -37h-35q-16 0 -23 11q-6 12 4 28l201 379
q16 35 47 35z" />
    <glyph glyph-name="zacute" unicode="&#x17a;" horiz-adv-x="905" 
d="M733 92q33 0 29 -31l-4 -30q-4 -31 -33 -31h-680q-33 0 -29 33l4 41q4 23 17 32l702 764h-589q-31 0 -27 33l4 29q2 31 35 31h678q32 0 28 -31l-6 -51q-4 -20 -12 -29l-700 -760h583zM793 1638q43 0 18 -36l-225 -379q-23 -37 -47 -37h-35q-16 0 -23 11q-6 12 4 28
l201 379q18 35 47 34h60z" />
    <glyph glyph-name="Zdotaccent" unicode="&#x17b;" horiz-adv-x="1107" 
d="M236 1395q-31 0 -27 32l4 31q2 29 33 29h841q33 0 27 -31l-8 -61q0 -6 -6 -13l-944 -1290h762q29 0 26 -31l-4 -30q-2 -31 -33 -31h-841q-33 0 -29 33l8 59l6 14l946 1289h-761zM692 2011h78q35 0 31 -37l-13 -96q-4 -35 -36 -35h-78q-37 0 -31 37l10 96q6 35 39 35z" />
    <glyph glyph-name="zdotaccent" unicode="&#x17c;" horiz-adv-x="905" 
d="M733 92q33 0 29 -31l-4 -30q-4 -31 -33 -31h-680q-33 0 -29 33l4 41q4 23 17 32l702 764h-589q-31 0 -27 33l4 29q2 31 35 31h678q32 0 28 -31l-6 -51q-4 -20 -12 -29l-700 -760h583zM526 1487h78q35 0 31 -37l-12 -96q-4 -35 -37 -35h-78q-37 0 -31 37l10 96q6 35 39 35
z" />
    <glyph glyph-name="Zcaron" unicode="&#x17d;" horiz-adv-x="1107" 
d="M236 1395q-31 0 -27 32l4 31q2 29 33 29h841q33 0 27 -31l-8 -61q0 -6 -6 -13l-944 -1290h762q29 0 26 -31l-4 -30q-2 -31 -33 -31h-841q-33 0 -29 33l8 59l6 14l946 1289h-761zM471 2163q16 0 43 -39l195 -299l268 301q37 37 53 37h57q15 1 21 -13t-6 -26l-336 -367
q-29 -33 -53 -33h-29q-23 0 -43 35l-246 367q-10 14 -5 25t22 12h59z" />
    <glyph glyph-name="zcaron" unicode="&#x17e;" horiz-adv-x="905" 
d="M733 92q33 0 29 -31l-4 -30q-4 -31 -33 -31h-680q-33 0 -29 33l4 41q4 23 17 32l702 764h-589q-31 0 -27 33l4 29q2 31 35 31h678q32 0 28 -31l-6 -51q-4 -20 -12 -29l-700 -760h583zM244 1638h59q16 0 43 -39l195 -299l268 302q37 37 53 36h58q16 0 21 -13t-7 -26
l-336 -366q-29 -33 -53 -33h-29q-23 0 -43 35l-246 367q-10 14 -5 25t22 11z" />
    <glyph glyph-name="florin" unicode="&#x192;" horiz-adv-x="870" 
d="M893 1395q-101 0 -165 -76t-81 -203l-139 -1143q-23 -170 -123 -275t-250 -108q-29 4 -22 31l2 31q4 31 35 31h18q102 0 166 75q63 76 80 203l110 909h-104q-31 0 -27 33l4 31q2 29 33 29h105l18 141q23 170 122 276t249 107q31 -4 24 -31l-2 -31q-6 -31 -35 -30h-18z
" />
    <glyph glyph-name="Acaron" unicode="&#x1cd;" horiz-adv-x="1230" 
d="M883 530l-164 846l-377 -846h541zM1042 0h-30q-31 0 -35 35l-80 409v-6h-598l-180 -405q-12 -33 -39 -33h-33q-39 0 -22 35l639 1427q12 31 43 31h45q28 0 32 -33l283 -1427q12 -33 -25 -33zM1090 2163h57q16 1 21 -13t-7 -26l-336 -367q-29 -33 -53 -33h-29
q-23 0 -43 35l-245 367q-10 14 -5 25t21 12h59q16 0 43 -39l195 -299l268 301q38 37 54 37z" />
    <glyph glyph-name="acaron" unicode="&#x1ce;" horiz-adv-x="935" 
d="M307 90h111q58 2 116 31t92 59t79 78l24 197h-373q-199 0 -219 -189q-10 -78 40 -127t130 -49zM463 967h104q131 1 211 -99t62 -258l-70 -561q-4 -21 0 -35t-10 -14h-55q-35 0 -27 51l10 78q-143 -131 -272 -131h-115q-113 -4 -193 81t-64 204q15 119 103 195t215 75h379
l7 55q14 127 -37 197t-144 69h-104q-92 0 -139 -19t-93 -71q-23 -25 -51 4l-22 21q-27 20 -4 43q60 66 128 90t181 25zM868 1638h58q16 0 21 -13t-7 -26l-336 -366q-29 -33 -53 -33h-29q-23 0 -43 35l-246 367q-10 14 -5 25t22 11h59q16 0 43 -39l195 -299l268 302
q37 36 53 36z" />
    <glyph glyph-name="Icaron" unicode="&#x1cf;" horiz-adv-x="458" 
d="M297 1487h31q33 0 26 -31l-174 -1425q-4 -31 -33 -31h-30q-31 0 -27 33l176 1425q2 29 31 29zM115 2163q16 0 43 -39l194 -299l269 301q37 37 53 37h57q15 1 21 -13t-7 -26l-335 -367q-29 -33 -54 -33h-28q-23 0 -43 35l-246 367q-10 14 -5 25t21 12h60z" />
    <glyph glyph-name="icaron" unicode="&#x1d0;" horiz-adv-x="419" 
d="M244 965h30q29 0 27 -31l-111 -903q-2 -31 -32 -31h-31q-33 0 -29 33l111 903q2 29 35 29zM2 1638h59q16 0 43 -39l195 -299l268 302q37 37 54 36h57q16 0 21 -13t-7 -26l-336 -366q-29 -33 -53 -33h-29q-23 0 -43 35l-247 367q-10 14 -4 25t22 11z" />
    <glyph glyph-name="Ocaron" unicode="&#x1d1;" 
d="M487 84h91q142 0 254 116t135 287l63 535q20 172 -62 287q-83 115 -227 114h-90q-141 1 -254 -115t-135 -288l-63 -535q-19 -173 63 -287t225 -114zM662 1516h92q176 0 284 -144t84 -348l-65 -543q-27 -203 -170 -346t-320 -143h-92q-176 0 -285 144t-84 347l64 543
q28 202 172 346t320 144zM506 2163q16 0 43 -39l194 -299l269 301q37 37 53 37h57q16 1 22 -13t-7 -26l-336 -367q-29 -33 -53 -33h-29q-23 0 -43 35l-246 367q-10 14 -5 25t21 12h60z" />
    <glyph glyph-name="ocaron" unicode="&#x1d2;" horiz-adv-x="1050" 
d="M516 877q-121 -1 -210 -91t-103 -215l-25 -182q-14 -125 52 -212t186 -87h78q117 0 208 88t105 213l24 182q14 125 -53 214q-68 89 -184 90h-78zM522 969h80q150 0 245 -121t77 -277l-25 -182q-18 -155 -141 -273t-273 -118h-79q-152 0 -245 119t-75 274l25 182
q15 156 137 276t274 120zM307 1638h60q16 0 43 -39l194 -299l268 302q37 37 54 36h57q15 0 21 -13t-7 -26l-335 -366q-29 -33 -54 -33h-28q-23 0 -43 35l-246 367q-10 14 -5 25t21 11z" />
    <glyph glyph-name="Ucaron" unicode="&#x1d3;" horiz-adv-x="1167" 
d="M1112 1489h31q35 0 28 -31l-122 -1009q-25 -199 -166 -330t-338 -131h-53q-197 0 -307 132t-83 331l125 1009q2 29 31 29h31q35 0 28 -31l-124 -1020q-19 -166 65 -262t244 -96h53q159 0 269 97t130 263l127 1020q2 29 31 29zM504 2163q16 0 43 -39l194 -299l269 301
q37 37 53 37h57q16 1 22 -13t-7 -26l-336 -367q-29 -33 -54 -33h-28q-23 0 -43 35l-246 367q-10 14 -5 25t21 12h60z" />
    <glyph glyph-name="ucaron" unicode="&#x1d4;" horiz-adv-x="1048" 
d="M801 0h-31q-31 0 -27 33l9 49q-125 -84 -254 -84h-78q-143 0 -237 110q-93 110 -74 252l69 574q0 29 33 29h31q33 0 28 -31l-69 -574q-14 -112 44 -190t173 -78h78q86 0 177 60t101 126l80 658q2 29 33 29h31q32 0 28 -31l-110 -901q-4 -31 -35 -31zM313 1638h60
q16 0 43 -39l194 -299l269 302q37 37 53 36h57q15 0 21 -13t-6 -26l-336 -366q-29 -33 -54 -33h-28q-23 0 -43 35l-246 367q-10 14 -5 25t21 11z" />
    <glyph glyph-name="Gcaron" unicode="&#x1e6;" 
d="M655 770h414q35 0 29 -31l-33 -278q-27 -199 -173.5 -343.5t-313.5 -144.5h-99q-174 0 -286.5 144.5t-90.5 341.5l70 565q25 197 173.5 341t320.5 144h98q164 0 275.5 -144t90.5 -333q-4 -27 -32 -26h-31q-35 0 -29 34q18 152 -68.5 264.5t-215.5 112.5h-99
q-137 0 -254.5 -116.5t-138.5 -278.5l-67 -565q-20 -162 66.5 -276.5t225.5 -114.5h99q135 0 249.5 116.5t135.5 280.5l24 215h-348q-33 0 -29 33l5 30q1 29 32 29zM440 2163h60q16 0 43 -39l194 -299l269 301q37 37 53 37h57q16 0 21.5 -13.5t-7.5 -25.5l-335 -367
q-29 -33 -54 -33h-28q-23 0 -43 35l-246 367q-10 14 -5 25.5t21 11.5z" />
    <glyph glyph-name="gcaron" unicode="&#x1e7;" horiz-adv-x="1001" 
d="M420 90h43q61 0 138 40t140 99l54 430q6 70 -67 143t-150 72h-82q-104 0 -194 -87t-103 -189l-29 -233q-10 -103 68 -189t182 -86zM844 963h53q29 0 27 -31l-127 -1036q-14 -115 -126 -210t-245 -96h-51q-99 0 -187 60t-129 155q-10 23 17 27l43 6q18 4 37 -28
q28 -56 94 -92t139 -35h45q72 0 164 59t102 147l23 193q-137 -84 -266 -84h-45q-135 0 -243 117t-91 252l28 233q16 137 140 252t258 115h82q121 0 225 -99l6 70q2 25 27 25zM295 1638h59q16 0 43 -39l195 -299l268 302q37 37 53 36h58q16 0 21 -13t-7 -26l-336 -366
q-29 -33 -53 -33h-29q-23 0 -43 35l-245 367q-10 14 -6 25q5 11 22 11z" />
    <glyph glyph-name="Scommaaccent" unicode="&#x218;" horiz-adv-x="1175" 
d="M375 -307h96q29 0 29 -33l-23 -184q-10 -74 -17 -109t-37 -96.5t-83 -116.5q-23 -16 -41 4l-35 33q-23 29 -8 43q66 53 87.5 102.5t27.5 128.5l18 21h-39q-31 0 -26 31l16 145q4 31 35 31zM637 1518h106q168 0 280 -122t89 -309l-4 -34q-8 -29 -35 -29h-33q-33 0 -28 31
l4 35q20 154 -65 244.5t-218 90.5h-106q-141 0 -236.5 -79.5t-114.5 -229.5t72 -216q72 -51 217 -81l103 -20q201 -41 298 -128t74 -272.5t-162 -300t-315 -114.5h-94q-172 0 -287.5 116.5t-95.5 296.5l8 54q4 31 35 30h33q29 0 28 -32l-8 -54q-12 -150 73 -233.5t222 -83.5
h94q143 0 252 88t128 244t-68 213t-221 84l-105 18q-203 41 -299 129t-75 265t151.5 288t302.5 111z" />
    <glyph glyph-name="scommaaccent" unicode="&#x219;" horiz-adv-x="972" 
d="M274 -307h97q29 0 28 -33l-22 -184q-10 -74 -17.5 -109t-37 -96.5t-82.5 -116.5q-23 -16 -41 4l-35 33q-23 29 -8 43q66 53 87 102.5t27 128.5l19 21h-39q-29 0 -27 31l17 145q1 31 34 31zM438 -10h-53q-119 0 -221.5 80t-97.5 192q0 27 32 27h35q33 0 27 -35
q0 -76 73.5 -124t161.5 -48h45q113 0 202 50t99 142q8 20 1 39t-7 32t-15 24.5t-21.5 18.5t-28 13.5t-31.5 10.5q-17 7 -75 11q-243 17 -362 87q-93 55 -78 183t128 203t258 75h43q125 0 225.5 -87t89.5 -212q-4 -29 -28 -29h-35q-33 0 -33 31q8 88 -62.5 146.5t-164.5 58.5
h-37q-276 0 -295 -201q-6 -78 54.5 -105.5t130 -36t149.5 -19.5q164 -23 231 -83t54.5 -172.5t-133.5 -192t-261 -79.5z" />
    <glyph glyph-name="uni021A" unicode="&#x21a;" horiz-adv-x="1085" 
d="M322 -307h96q29 0 28 -33l-22 -184q-10 -74 -17.5 -109t-37 -96.5t-82.5 -116.5q-23 -16 -41 4l-35 33q-23 29 -8 43q66 53 87 102.5t27 128.5l19 21h-39q-31 0 -27 31l17 145q4 31 35 31zM197 1487h899q35 0 26 -31l-2 -31q-6 -31 -33 -30h-405l-166 -1364
q-4 -31 -35 -31h-30q-31 0 -27 33l168 1362h-404q-33 0 -28 32l4 31q2 29 33 29z" />
    <glyph glyph-name="uni021B" unicode="&#x21b;" horiz-adv-x="600" 
d="M242 -307h96q29 0 29 -33l-23 -184q-10 -74 -17.5 -109t-37 -96.5t-82.5 -116.5q-23 -16 -41 4l-35 33q-23 29 -8 43q66 53 87 102.5t28 128.5l18 21h-39q-29 0 -27 31l17 145q2 31 35 31zM506 963q35 0 31 -31l-7 -31q-2 -31 -32 -31h-154l-76 -618q-18 -150 150 -156
q16 0 25.5 -7t7.5 -19l-2 -41q-4 -33 -27 -33q-100 -6 -181 65.5t-63 208.5l74 600h-113q-29 0 -26 31l4 29q8 33 35 33h112l27 215q2 29 31 28h30q33 0 31 -30l-27 -213h150z" />
    <glyph glyph-name="uni0228" unicode="&#x228;" horiz-adv-x="1138" 
d="M276 1487h822q33 0 26 -31l-2 -31q-6 -31 -35 -30h-759l-74 -598h627q31 0 26 -33l-4 -31q-2 -29 -35 -28h-626l-74 -613h760q31 0 26 -31l-4 -30q-4 -31 -32 -31h-375l-2 -8q-73 -84 -15 -95q31 -6 93.5 -15t85.5 -19q66 -29 55.5 -115t-56 -124t-141.5 -38h-76
q-84 0 -126 47.5t-33 128.5q4 16 20 17h64q20 0 19 -28q-2 -56 91 -56h23q47 0 62.5 1t29.5 12t17 40t-34.5 40t-187.5 28q-23 2 -42 18t-15 60.5t55 105.5h-334q-33 0 -28 33l176 1425q1 29 32 29z" />
    <glyph glyph-name="uni0229" unicode="&#x229;" horiz-adv-x="1007" 
d="M596 877h-78q-109 0 -202 -85t-107 -200l-4 -31h606l4 33q14 121 -58.5 202t-160.5 81zM526 969h78q121 0 221.5 -108.5t81.5 -260.5l-10 -82q-6 -61 -68 -61h-636l-13 -92q-14 -113 58.5 -194t179.5 -81h76q135 0 270 146q29 20 43 2l27 -23q23 -18 4 -43
q-166 -174 -351 -174l-2 -6q-73 -83 -15 -95q30 -6 93.5 -15t85.5 -19q66 -29 55.5 -115t-55.5 -124t-141 -38h-76q-84 0 -126 47.5t-34 128.5q4 16 21 17h63q20 0 20 -28q-1 -56 91 -56h22q47 0 62.5 1t30 12t17.5 40t-35 40t-187 28q-23 2 -42.5 18t-15 60.5t55.5 105.5
q-127 16 -215 123.5t-72 243.5l29 233q18 145 145 257t264 112z" />
    <glyph glyph-name="dotlessj" unicode="&#x237;" horiz-adv-x="411" 
d="M233 965h31q31 0 29 -31l-127 -1032q-10 -78 -78 -157t-158 -114q-35 -6 -39 25l-4 37q-4 29 19 35q63 24 112 66t56 100l127 1042q2 29 32 29z" />
    <glyph glyph-name="circumflex" unicode="&#x2c6;" horiz-adv-x="929" 
d="M608 1638q16 0 45 -32l244 -369q10 -13 5 -25t-21 -12h-58q-4 0 -9 2l-10 4t-10 13q-4 12 -14 22l-194 297l-271 -301q-33 -37 -51 -37h-57q-16 0 -21 13q-3 14 9 28l335 367q27 31 50 30h28z" />
    <glyph glyph-name="caron" unicode="&#x2c7;" horiz-adv-x="923" 
d="M254 1638h59q16 0 43 -39l195 -299l268 302q37 37 53 36h58q16 0 21 -13t-7 -26l-336 -366q-29 -33 -53 -33h-29q-23 0 -43 35l-245 367q-10 14 -6 25q5 11 22 11z" />
    <glyph glyph-name="breve" unicode="&#x2d8;" horiz-adv-x="856" 
d="M813 1638h41q33 0 27 -34q-53 -283 -324 -283h-70q-131 0 -197 74t-59 217q2 27 33 26h41q33 0 27 -34q-4 -92 33 -136t129 -45h77q90 0 140 46q49 46 69 143q2 26 33 26z" />
    <glyph glyph-name="dotaccent" unicode="&#x2d9;" horiz-adv-x="352" 
d="M250 1487h78q35 0 30 -37l-12 -96q-4 -35 -37 -35h-78q-36 0 -30 37l10 96q6 35 39 35z" />
    <glyph glyph-name="ring" unicode="&#x2da;" horiz-adv-x="608" 
d="M436 1548h-22q-100 0 -111 -100l-2 -18q-16 -98 86 -99h23q102 1 112 101l2 18q16 98 -88 98zM422 1640h27q82 0 129 -54t36 -136l-2 -23q-10 -84 -69 -136t-142 -52h-26q-84 0 -130 54t-36 137l2 22q9 82 69 135t142 53z" />
    <glyph glyph-name="ogonek" unicode="&#x2db;" horiz-adv-x="659" 
d="M94 -300q0 -5 79 -5h218q23 -1 21 -21l-11 -69q0 -18 -20 -19h-248q-178 0 -158 158q6 49 18 78q18 47 88 64q22 6 107 16t103 22q31 20 26 78q-4 12 25 12h53q27 0 25 -20q10 -84 -29 -132t-108 -52q-133 -18 -160 -20t-33 -48v-8q2 -8 0 -14t1 -11q3 -4 3 -9z" />
    <glyph glyph-name="tilde" unicode="&#x2dc;" horiz-adv-x="942" 
d="M928 1473l14 -37q8 -27 -20 -45q-117 -74 -188 -73t-167 71q-98 61 -142 59t-163 -78q-20 -10 -33 21l-14 34q-10 25 23 48q114 75 184 73t170 -73q94 -59 139 -57t162 77q23 11 35 -20z" />
    <glyph glyph-name="hungarumlaut" unicode="&#x2dd;" horiz-adv-x="825" 
d="M825 1638q19 0 25 -9t-6 -27l-223 -379q-23 -37 -50 -37h-34q-16 0 -22 11q-5 12 5 28l201 379q16 35 45 34h59zM494 1638q43 0 18 -36l-225 -379q-23 -37 -47 -37h-35q-16 0 -23 11q-6 12 4 28l201 379q18 35 47 34h60z" />
    <glyph glyph-name="uni0326" unicode="&#x326;" horiz-adv-x="0" 
d="M-31 -410h97q33 0 28 -32l-22 -185q-10 -74 -17.5 -108.5t-37 -96t-83.5 -116.5q-23 -16 -40 4l-35 33q-23 29 -9 43q66 53 87.5 102t27.5 129l19 21h-39q-31 0 -27 30l16 146q4 30 35 30z" />
    <glyph glyph-name="Delta" unicode="&#x394;" horiz-adv-x="1220" 
d="M950 92l-241 1247l-557 -1247h798zM1032 0h-985q-39 0 -22 35l634 1427q12 31 41 31h45q31 0 35 -33l277 -1427q12 -33 -25 -33z" />
    <glyph glyph-name="Omega" unicode="&#x3a9;" horiz-adv-x="1241" 
d="M1018 0h-365q-31 0 -26 33q2 29 35 28h6q102 1 217 133t131 271l69 559q18 162 -65 279q-84 117 -225 116h-95q-139 1 -253 -117t-134 -280l-69 -559q-16 -139 66 -270t186 -132h6q30 -1 26 -31t-34 -30h-365q-31 0 -27 33l4 30q2 29 35 29l119 2q-131 160 -106 367
l69 563q25 203 168 345t320 142h94q176 0 286 -143t85 -346l-70 -563q-27 -213 -193 -369l117 2q31 0 27 -31l-4 -30q-4 -31 -35 -31z" />
    <glyph glyph-name="mu" unicode="&#x3bc;" horiz-adv-x="1120" 
d="M891 963h31q29 0 26 -31l-110 -901q0 -31 -33 -31h-31q-33 0 -29 33l11 49q-125 -84 -254 -84h-78q-156 0 -252 125l-61 -504q-2 -29 -31 -29h-31q-35 0 -29 31l160 1313q2 29 35 29h31q29 0 26 -31l-69 -574q-14 -112 44 -190t175 -78h76q86 0 178 60t100 126l80 658
q2 29 35 29z" />
    <glyph glyph-name="pi" unicode="&#x3c0;" horiz-adv-x="1120" 
d="M180 963h854q33 0 29 -31l-4 -33q-4 -29 -35 -29h-49l-103 -839q-4 -31 -34 -31h-31q-31 0 -27 33l103 837h-574l-102 -839q-2 -31 -33 -31h-31q-33 0 -28 33l102 837h-47q-31 0 -27 33l4 31q2 29 33 29z" />
    <glyph glyph-name="uni0401" unicode="&#x401;" horiz-adv-x="1138" 
d="M881 797q31 0 26 -33l-4 -31q-2 -29 -35 -28h-626l-74 -613h760q31 0 26 -31l-4 -30q-4 -31 -32 -31h-822q-33 0 -28 33l176 1425q2 29 32 29h822q33 0 26 -31l-2 -31q-6 -31 -35 -30h-759l-74 -598h627zM1022 2011h61q35 0 27 -31l-10 -84q-2 -31 -31 -30h-61
q-33 -1 -27 32l10 84q2 29 31 29zM385 2011h59q35 0 29 -31l-10 -84q-4 -31 -33 -30h-59q-35 -1 -29 32l10 84q2 29 33 29z" />
    <glyph glyph-name="uni0403" unicode="&#x403;" horiz-adv-x="1148" 
d="M276 1487h822q33 0 26 -31l-2 -31q-6 -31 -35 -30h-761l-166 -1364q-4 -31 -33 -31h-31q-33 0 -28 33l176 1425q1 29 32 29zM612 1710h-34q-16 0 -23 11q-6 11 4 28l201 379q18 35 47 35h59q43 0 19 -37l-226 -379q-22 -37 -47 -37z" />
    <glyph glyph-name="uni0404" unicode="&#x404;" horiz-adv-x="1159" 
d="M653 1509h95q164 0 275.5 -144t90.5 -333q-4 -27 -33 -26h-30q-35 0 -29 34q18 150 -70 263.5t-217 113.5h-94q-137 0 -254 -116.5t-137 -278.5l-29 -231h471q33 0 27 -33l-2 -31q-2 -29 -33 -29h-473l-29 -233q-20 -162 68 -280.5t225 -118.5h94q131 0 248 117.5
t133 271.5q2 27 35 26h31q29 0 26 -35q-23 -184 -170 -328.5t-311 -144.5h-94q-172 0 -286.5 147.5t-90.5 346.5l70 557q25 197 173 341t320 144z" />
    <glyph glyph-name="uni0406" unicode="&#x406;" horiz-adv-x="458" 
d="M297 1487h31q33 0 26 -31l-174 -1425q-4 -31 -33 -31h-30q-31 0 -27 33l176 1425q2 29 31 29z" />
    <glyph glyph-name="uni0407" unicode="&#x407;" horiz-adv-x="458" 
d="M297 1487h31q33 0 26 -31l-174 -1425q-4 -31 -33 -31h-30q-31 0 -27 33l176 1425q2 29 31 29zM664 2011h61q37 0 27 -31l-11 -84q-4 -31 -30 -30h-62q-32 -1 -26 32l10 84q2 29 31 29zM27 2011h59q35 0 29 -31l-11 -84q-2 -31 -32 -30h-60q-34 -1 -28 32l10 84
q2 29 33 29z" />
    <glyph glyph-name="uni0408" unicode="&#x408;" horiz-adv-x="1062" 
d="M465 78q127 0 239 112t132 273l122 995q2 29 33 29h31q33 0 27 -31l-121 -989q-23 -197 -166 -339t-313 -142h-48q-123 0 -218 83t-130 214q-10 25 17 39l43 6q14 6 24 0t8 -25q21 -94 97 -160t170 -65h53z" />
    <glyph glyph-name="uni040C" unicode="&#x40c;" horiz-adv-x="1165" 
d="M993 0h-45q-20 0 -51 31l-588 604l-94 -90l-65 -514q-2 -31 -33 -31h-31q-33 0 -29 33l176 1425q2 29 33 29h31q33 0 27 -31l-95 -758l793 762q27 27 41 27h53q10 0 17.5 -7t4.5 -20.5t-18 -25.5l-743 -717l631 -670q12 -12 8 -29.5t-23 -17.5zM934 2163h59q43 0 19 -37
l-226 -379q-23 -37 -47 -37h-34q-16 0 -22.5 11.5t3.5 27.5l201 379q18 35 47 35z" />
    <glyph glyph-name="uni040D" unicode="&#x40d;" horiz-adv-x="1292" 
d="M276 1487h31q33 0 27 -31l-176 -1429l915 1439q12 20 39 21h129q33 0 27 -31l-174 -1425q-4 -31 -33 -31h-31q-33 0 -29 33l179 1429l-916 -1439q-14 -23 -41 -23h-127q-33 0 -28 33l176 1425q1 29 32 29zM803 1710h-41q-20 0 -35 39l-133 379q-12 35 20 35h66
q37 0 39 -37l104 -379q14 -37 -20 -37z" />
    <glyph glyph-name="uni040E" unicode="&#x40e;" horiz-adv-x="1179" 
d="M1122 1487h43q39 0 17 -37l-807 -1415q-20 -35 -51 -35h-43q-35 0 -19 39l285 498l-15 -15l-315 930q-14 35 21 35h45q33 0 36 -35l285 -813l467 815q20 33 51 33zM782 1845h-69q-131 0 -198 74t-58 217q2 27 32 27h41q33 0 27 -35q-4 -92 33 -136t129 -44h78
q90 0 139 46t70 142q2 27 32 27h41q33 0 27 -35q-54 -283 -324 -283z" />
    <glyph glyph-name="uni0410" unicode="&#x410;" horiz-adv-x="1230" 
d="M883 530l-164 846l-377 -846h541zM1042 0h-30q-31 0 -35 35l-80 409v-6h-598l-180 -405q-12 -33 -39 -33h-33q-39 0 -22 35l639 1427q12 31 43 31h45q28 0 32 -33l283 -1427q12 -33 -25 -33z" />
    <glyph glyph-name="uni0411" unicode="&#x411;" horiz-adv-x="1183" 
d="M598 92q299 0 344 330q35 322 -262 321h-432l-80 -651h430zM276 1487h744q33 0 27 -31l-3 -31q-6 -31 -34 -30h-684l-68 -559h424q184 0 280 -112t70 -308q-24 -196 -144 -306t-304 -110h-488q-33 0 -28 33l172 1390v4l4 31q1 29 32 29z" />
    <glyph glyph-name="uni0412" unicode="&#x412;" horiz-adv-x="1193" 
d="M633 92q159 0 239 71t98 221t-46 240q-63 91 -205 91h-475l-76 -623h465zM731 807q123 0 200 88t95 229q35 270 -252 271h-446l-74 -588h477zM612 0h-510q-39 0 -34 39l174 1413q6 35 41 35h493q176 -1 268 -101t70 -280q-31 -262 -213 -342q197 -86 160 -381
q-47 -383 -449 -383z" />
    <glyph glyph-name="uni0413" unicode="&#x413;" horiz-adv-x="1148" 
d="M276 1487h822q33 0 26 -31l-2 -31q-6 -31 -35 -30h-761l-166 -1364q-4 -31 -33 -31h-31q-33 0 -28 33l176 1425q1 29 32 29z" />
    <glyph glyph-name="uni0414" unicode="&#x414;" horiz-adv-x="1492" 
d="M1278 1395h-668l-84 -703q-55 -442 -186 -600h780zM559 1487h791q35 0 28 -31l-166 -1364h115q33 0 29 -31l-29 -231q-2 -29 -35 -29h-30q-29 0 -27 31l20 168h-1151l-20 -170q-2 -29 -33 -29h-31q-33 0 -28 31l28 231q2 29 35 29h142q74 0 149 209q57 152 94 442l88 715
q2 29 31 29z" />
    <glyph glyph-name="uni0415" unicode="&#x415;" horiz-adv-x="1138" 
d="M881 797q31 0 26 -33l-4 -31q-2 -29 -35 -28h-626l-74 -613h760q31 0 26 -31l-4 -30q-4 -31 -32 -31h-822q-33 0 -28 33l176 1425q2 29 32 29h822q33 0 26 -31l-2 -31q-6 -31 -35 -30h-759l-74 -598h627z" />
    <glyph glyph-name="uni0416" unicode="&#x416;" horiz-adv-x="2015" 
d="M1831 0h-45q-20 0 -51 31l-588 604l-94 -90l-66 -514q0 -31 -33 -31h-30q-33 0 -29 33l66 512l-74 90l-735 -608q-33 -27 -60 -27h-45q-26 0 -19 31q3 12 11 20l797 666l-564 721q-16 20 -11 34t22 15h55q8 0 35 -31l602 -758l96 760q2 29 33 29h31q37 0 26 -31l-94 -758
l793 762q27 27 41 27h53q10 0 17 -7q7 -6 4 -20t-17 -26l-741 -717l630 -670q10 -11 6 -29t-22 -18z" />
    <glyph glyph-name="uni0417" unicode="&#x417;" horiz-adv-x="1148" 
d="M387 -18q-168 0 -283 116t-92 295l4 39q2 29 35 29h33q31 0 27 -31l-7 -39q-16 -153 71 -235t220 -82h86q141 0 252 79t128 223t-66 232q-84 88 -240 94h-147q-31 0 -27 31l6 43q2 31 33 31h145q158 6 258 90t115 227q18 127 -71 211t-222 84h-86q-129 0 -239 -90
t-130 -246l-4 -39q-6 -31 -32 -30h-33q-33 0 -29 33l4 38q25 183 168 305t307 121h84q170 -1 283 -117t92 -282q-14 -116 -82 -200t-200 -158q231 -152 204 -379q-20 -172 -161 -283t-318 -110h-86z" />
    <glyph glyph-name="uni0418" unicode="&#x418;" horiz-adv-x="1292" 
d="M276 1487h31q33 0 27 -31l-176 -1429l915 1439q12 20 39 21h129q33 0 27 -31l-174 -1425q-4 -31 -33 -31h-31q-33 0 -29 33l179 1429l-916 -1439q-14 -23 -41 -23h-127q-33 0 -28 33l176 1425q1 29 32 29z" />
    <glyph glyph-name="uni0419" unicode="&#x419;" horiz-adv-x="1292" 
d="M276 1487h31q33 0 27 -31l-176 -1429l915 1439q12 20 39 21h129q33 0 27 -31l-174 -1425q-4 -31 -33 -31h-31q-33 0 -29 33l179 1429l-916 -1439q-14 -23 -41 -23h-127q-33 0 -28 33l176 1425q1 29 32 29zM1096 2163h41q33 0 26 -35q-53 -283 -323 -283h-70
q-131 0 -197.5 74t-58.5 217q2 27 33 27h41q33 0 26 -35q-4 -92 33 -136t129 -44h78q90 0 139 46t70 142q2 27 33 27z" />
    <glyph glyph-name="uni041A" unicode="&#x41a;" horiz-adv-x="1165" 
d="M993 0h-45q-20 0 -51 31l-588 604l-94 -90l-65 -514q-2 -31 -33 -31h-31q-33 0 -29 33l176 1425q2 29 33 29h31q33 0 27 -31l-95 -758l793 762q27 27 41 27h53q10 0 17.5 -7t4.5 -20.5t-18 -25.5l-743 -717l631 -670q12 -12 8 -29.5t-23 -17.5z" />
    <glyph glyph-name="uni041B" unicode="&#x41b;" horiz-adv-x="1222" 
d="M391 1487h780q33 0 27 -31l-174 -1425q-4 -31 -33 -31h-30q-33 0 -29 33l168 1362h-658l-141 -1131q-16 -135 -104 -205t-185 -63q-31 0 -26 35l6 41q2 25 33 24q166 4 184 148l149 1214q2 29 33 29z" />
    <glyph glyph-name="uni041C" unicode="&#x41c;" horiz-adv-x="1441" 
d="M1286 1487h92q35 0 29 -31l-174 -1425q-4 -31 -35 -31h-31q-31 0 -26 33l166 1341l-592 -1343q-12 -31 -43 -31h-54q-29 0 -32 33l-262 1341l-166 -1343q-2 -31 -35 -31h-31q-31 0 -26 33l176 1425q2 29 30 29h93q37 0 36 -31l258 -1325l586 1327q12 29 41 29z" />
    <glyph glyph-name="uni041D" unicode="&#x41d;" horiz-adv-x="1236" 
d="M1141 1487h30q37 0 27 -31l-174 -1425q0 -31 -33 -31h-30q-33 0 -29 33l78 631h-760l-78 -633q0 -31 -33 -31h-30q-33 0 -29 33l176 1425q2 29 33 29h30q37 0 27 -31l-86 -700h762l86 702q2 29 33 29z" />
    <glyph glyph-name="uni041E" unicode="&#x41e;" 
d="M487 84h91q142 0 254 116t135 287l63 535q20 172 -62 287q-83 115 -227 114h-90q-141 1 -254 -115t-135 -288l-63 -535q-19 -173 63 -287t225 -114zM662 1516h92q176 0 284 -144t84 -348l-65 -543q-27 -203 -170 -346t-320 -143h-92q-176 0 -285 144t-84 347l64 543
q28 202 172 346t320 144z" />
    <glyph glyph-name="uni041F" unicode="&#x41f;" horiz-adv-x="1159" 
d="M276 1487h832q33 0 27 -31l-174 -1425q-2 -31 -33 -31h-31q-33 0 -29 33l168 1362h-708l-168 -1364q-4 -31 -33 -31h-31q-33 0 -28 33l176 1425q1 29 32 29z" />
    <glyph glyph-name="uni0420" unicode="&#x420;" horiz-adv-x="1165" 
d="M768 1395h-432l-80 -650h428q303 0 344 328q37 322 -260 322zM283 1487h487q184 0 280 -112q96 -111 70 -307q-24 -196 -144 -306t-304 -109h-428l-76 -622q-4 -31 -35 -31h-31q-31 0 -26 33l76 620l10 92h2l88 713q2 29 31 29z" />
    <glyph glyph-name="uni0421" unicode="&#x421;" horiz-adv-x="1159" 
d="M985 481h31q29 0 26 -35q-23 -184 -170 -328.5t-311 -144.5h-94q-172 0 -286.5 147.5t-90.5 346.5l70 557q25 197 173 341t320 144h95q164 0 275.5 -144t90.5 -333q-4 -27 -33 -26h-30q-35 0 -29 34q18 150 -70 263.5t-217 113.5h-94q-137 0 -254 -116.5t-137 -278.5
l-68 -557q-20 -162 68 -280.5t225 -118.5h94q131 0 248 117.5t133 271.5q2 26 35 26z" />
    <glyph glyph-name="uni0422" unicode="&#x422;" horiz-adv-x="1085" 
d="M197 1487h899q35 0 26 -31l-2 -31q-6 -31 -33 -30h-405l-166 -1364q-4 -31 -35 -31h-30q-31 0 -27 33l168 1362h-404q-33 0 -28 32l4 31q2 29 33 29z" />
    <glyph glyph-name="uni0423" unicode="&#x423;" horiz-adv-x="1179" 
d="M1122 1487h43q39 0 17 -37l-807 -1415q-20 -35 -51 -35h-43q-35 0 -19 39l285 498l-15 -15l-315 930q-14 35 21 35h45q33 0 36 -35l285 -813l467 815q20 33 51 33z" />
    <glyph glyph-name="uni0424" unicode="&#x424;" horiz-adv-x="1765" 
d="M1335 1231h-317l-119 -975h313q129 0 245 118t134 273l25 197q18 154 -67 270t-214 117zM616 1231q-128 0 -242 -118t-136 -271l-23 -197q-18 -157 66 -273t213 -116h313l121 975h-312zM1339 1323q170 0 281 -143t86 -338l-23 -197q-25 -195 -170 -338t-313 -143h-311
l-17 -133q-4 -31 -34 -31h-31q-31 0 -27 33l17 131h-305q-170 0 -282 144t-87 339l24 197q23 195 168 337t316 142h309l16 135q2 29 31 29h31q35 0 29 -31l-17 -133h309z" />
    <glyph glyph-name="uni0425" unicode="&#x425;" horiz-adv-x="1132" 
d="M1079 1487h43q41 0 21 -31l-498 -717l320 -708q12 -31 -23 -31h-43q-23 0 -35 33l-278 620l-434 -622q-18 -31 -48 -31h-43q-34 0 -18 33l500 717l-320 708q-12 29 19 29h43q27 0 37 -31l280 -620l434 622q16 29 43 29z" />
    <glyph glyph-name="uni0426" unicode="&#x426;" horiz-adv-x="1271" 
d="M1077 1487h31q33 0 27 -31l-166 -1364h123q31 0 26 -31l-35 -274q-2 -29 -30 -29h-31q-35 0 -29 31l25 211h-922q-33 0 -28 33l176 1425q2 29 32 29h31q33 0 27 -31l-166 -1364h709l167 1366q2 29 33 29z" />
    <glyph glyph-name="uni0427" unicode="&#x427;" horiz-adv-x="1144" 
d="M1042 1487h31q33 0 27 -31l-174 -1425q-4 -31 -33 -31h-31q-33 0 -28 33l75 612q-141 -121 -293 -121h-147q-145 0 -244 115q-98 115 -82 254l70 565q2 29 33 29h30q33 0 27 -31l-70 -565q-12 -103 60 -189t186 -86h146q86 0 190 62t113 125l82 655q1 29 32 29z" />
    <glyph glyph-name="uni0428" unicode="&#x428;" horiz-adv-x="1959" 
d="M1878 1487h31q33 0 26 -31l-174 -1425q-4 -31 -32 -31h-1633q-33 0 -28 33l176 1425q2 29 32 29h31q33 0 27 -31l-166 -1364h709l167 1366q2 29 33 29h31q33 0 27 -31l-166 -1364h708l168 1366q2 29 33 29z" />
    <glyph glyph-name="uni0429" unicode="&#x429;" horiz-adv-x="2072" 
d="M1878 1487h31q33 0 26 -31l-166 -1364h123q29 0 27 -31l-35 -274q-2 -29 -31 -29h-30q-35 0 -29 31l25 211h-1723q-33 0 -28 33l176 1425q2 29 32 29h31q33 0 27 -31l-166 -1364h709l167 1366q2 29 33 29h31q33 0 27 -31l-166 -1364h708l168 1366q2 29 33 29z" />
    <glyph glyph-name="uni042A" unicode="&#x42a;" horiz-adv-x="1548" 
d="M963 92q299 0 344 330q35 322 -263 321h-432l-80 -651h431zM1047 836q184 0 279 -112q94 -112 70 -308t-144 -306t-304 -110h-487q-33 0 -29 33l168 1362h-375q-31 0 -26 32l4 31q2 29 33 29h436q33 0 26 -31l-75 -620h424z" />
    <glyph glyph-name="uni042B" unicode="&#x42b;" horiz-adv-x="1642" 
d="M598 92q299 0 344 330q35 322 -262 321h-432l-80 -651h430zM1481 1487h30q33 0 27 -31l-174 -1425q-4 -31 -33 -31h-31q-31 0 -26 33l176 1425q2 29 31 29zM682 836q184 0 280 -112t70 -308q-24 -196 -144 -306t-304 -110h-488q-33 0 -28 33l176 1425q2 29 32 29h31
q33 0 27 -31l-76 -620h424z" />
    <glyph glyph-name="uni042C" unicode="&#x42c;" horiz-adv-x="1183" 
d="M598 92q299 0 344 330q35 322 -262 321h-432l-80 -651h430zM682 836q184 0 280 -112t70 -308q-24 -196 -144 -306t-304 -110h-488q-33 0 -28 33l176 1425q2 29 32 29h31q33 0 27 -31l-76 -620h424z" />
    <glyph glyph-name="uni042D" unicode="&#x42d;" horiz-adv-x="1142" 
d="M621 1509h94q172 0 287.5 -144t95.5 -341l-54 -557q-20 -199 -166.5 -346.5t-316.5 -147.5h-94q-164 0 -279.5 143.5t-99.5 329.5q6 35 35 35h31q16 0 23 -6t5 -20q-18 -154 72 -271.5t221 -117.5h94q137 0 253 118.5t130 280.5l25 233h-473q-33 0 -27 29l2 31
q4 33 37 33h469l25 231q14 162 -76 278.5t-227 116.5h-95q-129 0 -242.5 -113.5t-129.5 -263.5q4 -35 -35 -34h-31q-31 0 -27 26q23 188 166.5 332.5t307.5 144.5z" />
    <glyph glyph-name="uni042E" unicode="&#x42e;" horiz-adv-x="1566" 
d="M1030 1423q-141 1 -254 -115t-135 -288l-27 -227h7l-13 -93h-6l-24 -215q-20 -173 62 -287t226 -114h90q141 0 254 116t136 287l63 535q20 172 -62 287q-83 115 -227 114h-90zM1040 1516h93q177 0 285 -144t83 -348l-65 -543q-27 -203 -170 -346t-320 -143h-92
q-176 0 -285 144t-84 347l25 217h-248l-82 -669q-4 -31 -33 -31h-30q-31 0 -27 33l176 1425q2 29 31 29h31q33 0 26 -31l-82 -663h250l27 233q27 202 171 346t320 144z" />
    <glyph glyph-name="uni042F" unicode="&#x42f;" horiz-adv-x="1191" 
d="M639 1395q-303 -1 -343 -325t261 -325h432l80 650h-430zM653 1487h488q33 0 26 -31l-174 -1425q-2 -31 -32 -31h-31q-33 0 -29 33l76 620h-457q-285 0 -317 -272l-43 -350q-4 -31 -33 -31h-31q-33 0 -28 33l43 340q27 240 231 334q-170 104 -139 366q25 195 145 305
t305 109z" />
    <glyph glyph-name="uni0430" unicode="&#x430;" horiz-adv-x="935" 
d="M307 90h111q58 2 116 31t92 59t79 78l24 197h-373q-199 0 -219 -189q-10 -78 40 -127t130 -49zM463 967h104q131 1 211 -99t62 -258l-70 -561q-4 -21 0 -35t-10 -14h-55q-35 0 -27 51l10 78q-143 -131 -272 -131h-115q-113 -4 -193 81t-64 204q15 119 103 195t215 75h379
l7 55q14 127 -37 197t-144 69h-104q-92 0 -139 -19t-93 -71q-23 -25 -51 4l-22 21q-27 20 -4 43q60 66 128 90t181 25z" />
    <glyph glyph-name="uni0431" unicode="&#x431;" horiz-adv-x="1040" 
d="M598 868h-70q-86 0 -179 -66t-101 -134l-55 -459q45 -47 119 -82t124 -35h68q96 0 181 76t97 174l31 254q12 108 -46 190t-169 82zM903 1487h58q20 0 24 -13t-8 -30q-39 -45 -87 -71t-76 -31t-78 -10t-217 7t-202 -198q-25 -129 -47 -291q131 111 269 111h71
q142 0 228 -113t67 -254l-31 -254q-16 -132 -135 -236t-245 -104h-72q-129 0 -244 96l-8 -65q-2 -31 -33 -31h-31q-33 0 -28 33l20 160l-4 6l4 4l78 620q18 151 46 307t113 239t224 75q120 -12 149 -12q76 0 156 47q19 8 39 8z" />
    <glyph glyph-name="uni0432" unicode="&#x432;" horiz-adv-x="1038" 
d="M553 94q94 0 143 30q50 30 60 121t-17 140t-110 49h-398l-41 -340h363zM637 532q84 0 120 46t46 131q10 83 -30 121t-128 38h-362l-41 -336h395zM530 0h-413q-33 0 -29 33l111 901q2 29 34 29h414q131 0 196 -66t50 -193t-68 -175q-28 -26 -71 -44q50 -23 74 -67t22 -88
l-4 -86q-33 -244 -316 -244z" />
    <glyph glyph-name="uni0433" unicode="&#x433;" horiz-adv-x="956" 
d="M233 963h588q31 0 27 -31l-4 -31q-4 -31 -35 -31h-526l-103 -839q-4 -31 -33 -31h-30q-33 0 -29 33l107 866v4l4 31q1 29 34 29z" />
    <glyph glyph-name="uni0434" unicode="&#x434;" horiz-adv-x="1400" 
d="M979 92l96 778h-575l-17 -147q-61 -483 -170 -631h666zM1190 92q31 0 27 -31l-29 -231q-2 -29 -33 -29h-31q-31 0 -28 31l20 168h-971l-20 -170q-2 -29 -33 -29h-31q-33 0 -28 31l28 231q2 29 35 29h56q78 0 142 176t99 475l23 191q2 29 35 29h698q31 0 27 -31l-103 -840
h117z" />
    <glyph glyph-name="uni0435" unicode="&#x435;" horiz-adv-x="1007" 
d="M596 877h-78q-109 0 -202 -85t-107 -200l-4 -31h606l4 33q14 121 -58.5 202t-160.5 81zM526 969h78q121 0 221.5 -108.5t81.5 -260.5l-10 -82q-6 -61 -68 -61h-636l-13 -92q-14 -113 58.5 -194t179.5 -81h76q135 0 270 146q29 20 43 2l27 -23q23 -18 4 -43
q-166 -174 -351 -174h-77q-137 0 -238.5 111.5t-83.5 257.5l29 233q18 145 145 257t264 112z" />
    <glyph glyph-name="uni0436" unicode="&#x436;" horiz-adv-x="1492" 
d="M1268 0h-60q-20 0 -49 31l-383 385l-45 -385q-2 -31 -35 -31h-39q-31 0 -26 33l45 383l-469 -389q-35 -27 -60 -27h-59q-12 0 -18 10t-4 22t10 19l528 428l-387 434q-18 17 -11 33t23 17h58q14 0 41 -27l362 -399l51 397q2 29 33 29h39q31 0 29 -31l-51 -395l464 403
q23 23 48 23h57q16 1 21 -17t-15 -37l-498 -430l416 -432q12 -11 7 -29t-23 -18z" />
    <glyph glyph-name="uni0437" unicode="&#x437;" horiz-adv-x="1056" 
d="M385 -16q-115 0 -199 80t-69 192q0 18 24 18h47q20 0 19 -26q-8 -76 43 -124t135 -48h147q96 0 166 40t81 129t-20 140q-32 51 -132 55h-187q-25 0 -22 23l6 47q2 23 25 22h186q102 4 138 48t50 145q8 72 -48 116t-144 44h-148q-85 -1 -149 -57t-74 -138q0 -18 -22 -18
h-48q-25 0 -20 26q14 113 118 196t218 83h127q119 0 205 -77t71 -193q-9 -89 -37 -139t-112 -83q129 -55 102 -245q-12 -115 -120 -186t-230 -70h-127z" />
    <glyph glyph-name="uni0438" unicode="&#x438;" horiz-adv-x="1048" 
d="M233 963h31q31 0 27 -31l-109 -881l578 891q12 20 39 21h114q29 0 27 -31l-111 -901q-2 -31 -32 -31h-31q-33 0 -29 33l109 878l-572 -891q-12 -20 -38 -20h-119q-33 0 -29 33l111 901q1 29 34 29z" />
    <glyph glyph-name="uni0439" unicode="&#x439;" horiz-adv-x="1048" 
d="M233 963h31q31 0 27 -31l-109 -881l578 891q12 20 39 21h114q29 0 27 -31l-111 -901q-2 -31 -32 -31h-31q-33 0 -29 33l109 878l-572 -891q-12 -20 -38 -20h-119q-33 0 -29 33l111 901q1 29 34 29zM909 1638h41q33 0 27 -34q-53 -283 -324 -283h-69q-131 0 -198 74
t-58 217q2 27 32 26h41q33 0 27 -34q-4 -92 33 -136t129 -45h78q90 0 139 46t70 143q1 26 32 26z" />
    <glyph glyph-name="uni043A" unicode="&#x43a;" horiz-adv-x="954" 
d="M731 0h-59q-20 0 -49 31l-408 381l16 127l488 401q23 23 47 23h57q17 1 21 -17t-15 -37l-524 -430l443 -432q12 -11 7 -29t-24 -18zM135 0h-39q-33 0 -28 33l110 901q2 29 35 29h39q31 0 27 -31l-111 -901q-4 -31 -33 -31z" />
    <glyph glyph-name="uni043B" unicode="&#x43b;" horiz-adv-x="1105" 
d="M969 963q31 0 28 -31l-110 -901q-2 -31 -35 -31h-31q-31 0 -26 33l102 837h-571l-62 -516q-33 -248 -149 -364q-18 -18 -41 4l-35 35q-18 18 0 47q109 106 131 274l66 539v14l4 31q0 14 10 20q4 10 26 11h31q11 0 15 -2h647z" />
    <glyph glyph-name="uni043C" unicode="&#x43c;" horiz-adv-x="1355" 
d="M1098 963h123q29 0 26 -31l-110 -901q-2 -31 -33 -31h-31q-33 0 -29 33l107 878l-465 -821q-14 -23 -37 -22h-61q-23 0 -31 24l-270 819l-107 -880q-4 -31 -33 -31h-30q-33 0 -29 33l111 901q2 29 34 29h123q23 0 31 -23l242 -764l428 766q12 21 41 21z" />
    <glyph glyph-name="uni043D" unicode="&#x43d;" horiz-adv-x="1064" 
d="M897 963h31q31 0 28 -31l-53 -432v-4l-57 -465q-2 -31 -35 -31h-31q-31 0 -26 33l49 403h-574l-49 -405q-4 -31 -33 -31h-30q-33 0 -29 33l53 434v4l58 463q2 29 34 29h31q31 0 27 -31l-49 -404h573l49 406q0 29 33 29z" />
    <glyph glyph-name="uni043E" unicode="&#x43e;" horiz-adv-x="1050" 
d="M516 877q-121 -1 -210 -91t-103 -215l-25 -182q-14 -125 52 -212t186 -87h78q117 0 208 88t105 213l24 182q14 125 -53 214q-68 89 -184 90h-78zM522 969h80q150 0 245 -121t77 -277l-25 -182q-18 -155 -141 -273t-273 -118h-79q-152 0 -245 119t-75 274l25 182
q15 156 137 276t274 120z" />
    <glyph glyph-name="uni043F" unicode="&#x43f;" horiz-adv-x="1064" 
d="M233 963h695q31 0 28 -31l-110 -901q-2 -31 -35 -31h-31q-31 0 -26 33l102 837h-573l-103 -839q-4 -31 -33 -31h-30q-33 0 -29 33l107 866v4l4 31q1 29 34 29z" />
    <glyph glyph-name="uni0440" unicode="&#x440;" horiz-adv-x="1040" 
d="M612 870h-86q-84 0 -175 -59t-101 -123l-60 -485q51 -45 122 -78t120 -33h84q96 0 184 77t99 179l30 248q12 110 -48 192t-169 82zM539 963h82q143 0 230 -113t71 -254l-31 -250q-16 -138 -135 -242t-252 -104h-82q-129 0 -244 106l-59 -487q-2 -29 -31 -29h-31
q-35 0 -28 31l159 1313q2 29 35 29h31q29 0 27 -31l-9 -68q126 99 267 99z" />
    <glyph glyph-name="uni0441" unicode="&#x441;" horiz-adv-x="985" 
d="M877 645h-33q-16 0 -25.5 7t-7.5 24q6 68 -67.5 134.5t-151.5 66.5h-74q-106 0 -200.5 -84t-108.5 -195l-29 -233q-14 -113 58.5 -194t179.5 -81h69q137 0 273 146q23 23 41 2l26 -23q27 -23 7 -43q-166 -174 -351 -174h-73q-137 0 -238.5 111.5t-83.5 257.5l29 233
q18 145 145 257t264 112h74q113 0 214 -94.5t91 -202.5q-3 -27 -28 -27z" />
    <glyph glyph-name="uni0442" unicode="&#x442;" horiz-adv-x="1079" 
d="M233 963h711q31 0 27 -31l-4 -31q-4 -31 -35 -31h-307l-103 -839q-2 -31 -35 -31h-30q-31 0 -27 33l102 837h-311q-31 0 -26 33l4 31q1 29 34 29z" />
    <glyph glyph-name="uni0443" unicode="&#x443;" horiz-adv-x="989" 
d="M897 963h43q37 0 18 -37l-704 -1303q-18 -33 -51 -33h-43q-37 0 -19 37l238 436l-256 865q-10 35 20 35h45q25 0 39 -35l219 -740l402 742q18 33 49 33z" />
    <glyph glyph-name="uni0444" unicode="&#x444;" horiz-adv-x="1634" 
d="M1206 870h-78q-84 0 -175 -59t-101 -123l-59 -485q51 -45 121 -78t120 -33h76q96 0 184 77t99 179l30 248q12 110 -48 192t-169 82zM356 92h78q47 0 127 33t141 78l58 485q6 62 -70 122t-160 60h-77q-109 0 -191 -83t-94 -191l-31 -248q-13 -102 55 -179t164 -77z
M1139 963h75q142 0 230 -113t72 -254l-31 -250q-16 -138 -135 -242t-252 -104h-76q-131 0 -242 106l-59 -487q-2 -29 -33 -29h-31q-33 0 -26 31l59 485q-139 -106 -270 -106h-76q-131 0 -224 104t-77 242l31 250q16 141 131 254t258 113h76q147 0 243 -101l74 596
q2 29 31 29h31q35 0 28 -31l-72 -592q124 99 265 99z" />
    <glyph glyph-name="uni0445" unicode="&#x445;" horiz-adv-x="923" 
d="M799 963h47q18 -1 23 -11t-7 -26l-352 -439l252 -450q18 -37 -25 -37h-45q-18 0 -43 37l-205 369l-297 -371q-27 -35 -51 -35h-47q-18 0 -25 12t5 27l366 455l-241 434q-8 14 -2 24t24 11h47q20 0 43 -35l195 -350l284 352q29 33 54 33z" />
    <glyph glyph-name="uni0446" unicode="&#x446;" horiz-adv-x="1153" 
d="M942 92q33 0 29 -31l-37 -274q-2 -29 -31 -29h-31q-35 0 -28 31l24 211h-751q-33 0 -29 33l111 901q2 29 34 29h31q31 0 27 -31l-103 -840h574l102 842q0 29 33 29h31q31 0 28 -31l-102 -840h88z" />
    <glyph glyph-name="uni0447" unicode="&#x447;" horiz-adv-x="1042" 
d="M877 963h30q31 0 27 -31l-111 -901q-4 -31 -32 -31h-31q-33 0 -29 33l39 303q-133 -98 -266 -98h-72q-143 0 -232 114t-73 254l41 328q2 29 35 29h30q29 0 27 -31l-41 -336q-12 -102 49 -184t170 -82h76q82 0 175 60t102 120l51 424q2 29 35 29z" />
    <glyph glyph-name="uni0448" unicode="&#x448;" horiz-adv-x="1728" 
d="M1563 963h30q29 0 27 -31l-111 -901q-2 -31 -32 -31h-1360q-33 0 -29 33l111 901q2 29 34 29h31q31 0 27 -31l-103 -840h574l102 842q0 29 33 29h31q31 0 28 -31l-102 -840h571l103 842q2 29 35 29z" />
    <glyph glyph-name="uni0449" unicode="&#x449;" horiz-adv-x="1839" 
d="M1608 92q31 0 26 -31l-35 -274q-2 -29 -32 -29h-31q-33 0 -27 31l25 211h-1417q-33 0 -29 33l111 901q2 29 34 29h31q31 0 27 -31l-103 -840h574l102 842q0 29 33 29h31q31 0 28 -31l-102 -840h571l103 842q2 29 35 29h30q29 0 27 -31l-102 -840h90z" />
    <glyph glyph-name="uni044A" unicode="&#x44a;" horiz-adv-x="1222" 
d="M647 92q158 0 232 54t88 168q14 112 -48 170t-214 59h-320l-55 -451h317zM709 635q180 0 273 -90q93 -91 76 -235t-130 -227t-295 -83h-377q-31 0 -27 33l103 837h-172q-31 0 -27 33l4 31q2 29 35 29h231q31 0 29 -31l-37 -297h314z" />
    <glyph glyph-name="uni044B" unicode="&#x44b;" horiz-adv-x="1480" 
d="M485 92q158 0 232 54t88 168q14 112 -48 170t-214 59h-320l-55 -451h317zM549 635q178 0 271 -90q93 -91 76 -235t-129 -227t-294 -83h-377q-33 0 -28 33l110 901q2 29 35 29h31q31 0 26 -31l-37 -297h316zM1305 965h30q29 0 27 -31l-111 -903q-2 -31 -32 -31h-31
q-33 0 -29 33l111 903q2 29 35 29z" />
    <glyph glyph-name="uni044C" unicode="&#x44c;" horiz-adv-x="1060" 
d="M485 92q158 0 232 54t88 168q14 112 -48 170t-214 59h-320l-55 -451h317zM549 635q178 0 271 -90q93 -91 76 -235t-129 -227t-294 -83h-377q-33 0 -28 33l110 901q2 29 35 29h31q31 0 26 -31l-37 -297h316z" />
    <glyph glyph-name="uni044D" unicode="&#x44d;" horiz-adv-x="985" 
d="M535 969h73q137 0 236.5 -112t81.5 -257l-29 -233q-18 -145 -145 -257t-265 -112h-73q-184 0 -312 174q-16 20 19 43l33 23q25 20 41 -2q96 -145 237 -146h70q106 0 197.5 81t105.5 194l8 71h-285q-33 0 -26 29l2 31q6 33 37 32h284l9 70q14 111 -61 195t-181 84h-74
q-80 0 -169 -67t-99 -134q-2 -31 -41 -31h-33q-27 0 -22 27q16 109 141 203t240 94z" />
    <glyph glyph-name="uni044E" unicode="&#x44e;" horiz-adv-x="1425" 
d="M891 877q-121 -1 -210 -91t-103 -215l-25 -182q-15 -125 51 -212t187 -87h77q116 0 208 88t106 213l24 182q14 125 -53 214q-68 89 -184 90h-78zM897 969h80q150 0 245 -121t76 -277l-24 -182q-18 -155 -141 -273t-273 -118h-80q-152 0 -244 119t-75 274l6 45h-272
l-50 -409q-2 -29 -32 -29h-31q-33 0 -29 31l49 407h-2l13 84l51 412q4 31 35 31h30q31 0 27 -33l-49 -402h272l6 45q16 156 138 276t274 120z" />
    <glyph glyph-name="uni044F" unicode="&#x44f;" horiz-adv-x="1017" 
d="M442 870q-170 0 -190 -155q-10 -84 12 -126t105 -42h401l39 323h-367zM125 0h-29q-33 0 -28 33l28 227q8 53 17 88q8 35 44 83t93 69q-51 24 -75 62t-19 76q4 38 6 75q29 250 307 250h414q31 0 26 -31l-110 -901q-4 -31 -33 -31h-31q-33 0 -28 33l53 422h-400
q-80 0 -120 -43t-52 -133l-30 -248q-2 -31 -33 -31z" />
    <glyph glyph-name="uni0451" unicode="&#x451;" horiz-adv-x="1007" 
d="M596 877h-78q-109 0 -202 -85t-107 -200l-4 -31h606l4 33q14 121 -58.5 202t-160.5 81zM526 969h78q121 0 221.5 -108.5t81.5 -260.5l-10 -82q-6 -61 -68 -61h-636l-13 -92q-14 -113 58.5 -194t179.5 -81h76q135 0 270 146q29 20 43 2l27 -23q23 -18 4 -43
q-166 -174 -351 -174h-77q-137 0 -238.5 111.5t-83.5 257.5l29 233q18 145 145 257t264 112zM903 1487h62q35 0 26 -31l-10 -84q-2 -31 -31 -31h-61q-33 0 -27 33l10 84q2 29 31 29zM266 1487h60q35 0 28 -31l-10 -84q-4 -31 -33 -31h-59q-35 0 -29 33l10 84q2 29 33 29z
" />
    <glyph glyph-name="uni0453" unicode="&#x453;" horiz-adv-x="956" 
d="M233 963h588q31 0 27 -31l-4 -31q-4 -31 -35 -31h-526l-103 -839q-4 -31 -33 -31h-30q-33 0 -29 33l107 866v4l4 31q1 29 34 29zM516 1186h-35q-16 0 -22 11t4 28l201 379q16 35 47 34h59q43 0 18 -36l-225 -379q-22 -37 -47 -37z" />
    <glyph glyph-name="uni0454" unicode="&#x454;" horiz-adv-x="985" 
d="M526 969h74q113 0 214 -94.5t91 -202.5q-4 -27 -28 -27h-33q-16 0 -25.5 7t-7.5 24q6 68 -67.5 134.5t-151.5 66.5h-74q-106 0 -200.5 -84t-108.5 -195l-8 -70h284q31 0 27 -32l-4 -31q-2 -29 -35 -29h-285l-8 -71q-14 -113 58.5 -194t179.5 -81h69q137 0 273 146
q23 23 41 2l26 -23q27 -23 7 -43q-166 -174 -351 -174h-73q-137 0 -238.5 111.5t-83.5 257.5l29 233q18 145 145 257t264 112z" />
    <glyph glyph-name="uni0456" unicode="&#x456;" horiz-adv-x="393" 
d="M199 965h30q29 0 27 -31l-111 -903q-2 -31 -32 -31h-31q-33 0 -29 33l111 903q2 29 35 29zM252 1487h65q35 0 27 -31l-8 -82q-6 -31 -33 -31h-65q-31 0 -27 33l10 82q2 29 31 29z" />
    <glyph glyph-name="uni0457" unicode="&#x457;" horiz-adv-x="419" 
d="M244 965h30q29 0 27 -31l-111 -903q-2 -31 -32 -31h-31q-33 0 -29 33l111 903q2 29 35 29zM610 1487h62q37 0 26 -31l-10 -84q-4 -31 -31 -31h-61q-33 0 -27 33l11 84q2 29 30 29zM-29 1487h62q35 0 28 -31l-10 -84q-2 -31 -33 -31h-61q-33 0 -27 33l11 84q2 29 30 29z
" />
    <glyph glyph-name="uni0458" unicode="&#x458;" horiz-adv-x="411" 
d="M164 965h31q31 0 28 -31l-127 -1032q-10 -78 -78 -157t-157 -114q-35 -6 -39 25l-4 37q-4 29 18 35q63 23 113 65q49 43 55 101l127 1042q2 29 33 29zM215 1487h66q33 0 26 -31l-8 -82q-6 -31 -33 -31h-65q-29 0 -29 33l12 82q2 29 31 29z" />
    <glyph glyph-name="uni045C" unicode="&#x45c;" horiz-adv-x="954" 
d="M731 0h-59q-20 0 -49 31l-408 381l16 127l488 401q23 23 47 23h57q17 1 21 -17t-15 -37l-524 -430l443 -432q12 -11 7 -29t-24 -18zM135 0h-39q-33 0 -28 33l110 901q2 29 35 29h39q31 0 27 -31l-111 -901q-4 -31 -33 -31zM768 1638q43 0 18 -36l-225 -379
q-23 -37 -47 -37h-35q-16 0 -22 12t4 27l201 379q18 35 47 34h59z" />
    <glyph glyph-name="uni045D" unicode="&#x45d;" horiz-adv-x="1048" 
d="M233 963h31q31 0 27 -31l-109 -881l578 891q12 20 39 21h114q29 0 27 -31l-111 -901q-2 -31 -32 -31h-31q-33 0 -29 33l109 878l-572 -891q-12 -20 -38 -20h-119q-33 0 -29 33l111 901q1 29 34 29zM618 1186h-40q-20 0 -35 39l-133 379q-12 35 20 34h66q37 1 39 -36
l104 -379q14 -37 -21 -37z" />
    <glyph glyph-name="uni045E" unicode="&#x45e;" horiz-adv-x="989" 
d="M897 963h43q37 0 18 -37l-704 -1303q-18 -33 -51 -33h-43q-37 0 -19 37l238 436l-256 865q-10 35 20 35h45q25 0 39 -35l219 -740l402 742q18 33 49 33zM625 1321h-70q-131 0 -198 74t-58 217q2 27 33 26h41q33 0 26 -34q-4 -92 33 -136t129 -45h78q90 0 139 46t70 143
q2 27 33 26h41q33 0 26 -34q-53 -283 -323 -283z" />
    <glyph glyph-name="uni0490" unicode="&#x490;" horiz-adv-x="1148" 
d="M1090 1671h30q33 0 27 -31l-25 -215q-6 -31 -35 -30h-761l-166 -1364q-4 -31 -33 -31h-31q-33 0 -28 33l176 1425q2 29 32 29h762l19 155q2 29 33 29z" />
    <glyph glyph-name="uni0491" unicode="&#x491;" horiz-adv-x="956" 
d="M813 1147h31q29 0 26 -31l-22 -180v-4l-4 -31q-4 -31 -35 -31h-526l-103 -839q-4 -31 -33 -31h-30q-33 0 -29 33l107 866v4l4 31q2 29 34 29h527l18 155q2 29 35 29z" />
    <glyph glyph-name="uni04C0" unicode="&#x4c0;" horiz-adv-x="458" 
d="M297 1487h31q33 0 26 -31l-174 -1425q-4 -31 -33 -31h-30q-31 0 -27 33l176 1425q2 29 31 29z" />
    <glyph glyph-name="uni04E2" unicode="&#x4e2;" horiz-adv-x="1292" 
d="M276 1487h31q33 0 27 -31l-176 -1429l915 1439q12 20 39 21h129q33 0 27 -31l-174 -1425q-4 -31 -33 -31h-31q-33 0 -29 33l179 1429l-916 -1439q-14 -23 -41 -23h-127q-33 0 -28 33l176 1425q1 29 32 29zM1145 1919h-664q-31 0 -26 33l4 30q2 29 33 29h663q33 0 27 -31
l-2 -30q-6 -31 -35 -31z" />
    <glyph glyph-name="uni04E3" unicode="&#x4e3;" horiz-adv-x="1048" 
d="M233 963h31q31 0 27 -31l-109 -881l578 891q12 20 39 21h114q29 0 27 -31l-111 -901q-2 -31 -32 -31h-31q-33 0 -29 33l109 878l-572 -891q-12 -20 -38 -20h-119q-33 0 -29 33l111 901q1 29 34 29zM961 1395h-664q-31 0 -27 32l4 31q2 29 33 29h664q33 0 26 -31l-2 -31
q-5 -30 -34 -30z" />
    <glyph glyph-name="uni04E8" unicode="&#x4e8;" 
d="M487 84h91q142 0 254 116t135 287l24 211h-768l-24 -213q-19 -173 63 -287t225 -114zM741 1423h-90q-141 1 -254 -115t-135 -288l-26 -229h768l26 231q20 172 -62 287q-84 114 -227 114zM662 1516h92q176 0 284 -144t84 -348l-65 -543q-27 -203 -170 -346t-320 -143h-92
q-176 0 -285 144t-84 347l64 543q28 202 172 346t320 144z" />
    <glyph glyph-name="uni04E9" unicode="&#x4e9;" horiz-adv-x="1058" 
d="M516 877q-121 -1 -210 -91t-103 -215l-25 -182q-14 -125 52 -212t186 -87h78q118 0 208 88t105 213l6 45h-590l13 92h589l6 45q14 125 -53 214q-68 89 -184 90h-78zM485 -2h-79q-152 0 -245 119t-75 274l25 182q16 156 138 276t273 120h80q150 0 245 -121t77 -277l-6 -43
h16l-12 -92h-17l-6 -47q-18 -155 -141 -273t-273 -118z" />
    <glyph glyph-name="uni04EC" unicode="&#x4ec;" horiz-adv-x="1142" 
d="M621 1509h94q172 0 287.5 -144t95.5 -341l-54 -557q-20 -199 -166.5 -346.5t-316.5 -147.5h-94q-164 0 -279.5 143.5t-99.5 329.5q6 35 35 35h31q16 0 23 -6t5 -20q-18 -154 72 -271.5t221 -117.5h94q137 0 253 118.5t130 280.5l25 233h-473q-33 0 -27 29l2 31
q4 33 37 33h469l25 231q14 162 -76 278.5t-227 116.5h-95q-129 0 -242.5 -113.5t-129.5 -263.5q4 -35 -35 -34h-31q-31 0 -27 26q23 188 166.5 332.5t307.5 144.5zM1030 2011h62q35 0 26 -31l-10 -84q-2 -31 -31 -30h-61q-33 0 -27 32l10 84q2 29 31 29zM438 1866h-59
q-35 0 -29 32l10 84q2 29 33 29h60q35 0 28 -31l-10 -84q-4 -30 -33 -30z" />
    <glyph glyph-name="uni04ED" unicode="&#x4ed;" horiz-adv-x="985" 
d="M535 969h73q137 0 236.5 -112t81.5 -257l-29 -233q-18 -145 -145 -257t-265 -112h-73q-184 0 -312 174q-16 20 19 43l33 23q25 20 41 -2q96 -145 237 -146h70q106 0 197.5 81t105.5 194l8 71h-285q-33 0 -26 29l2 31q6 33 37 32h284l9 70q14 111 -61 195t-181 84h-74
q-80 0 -169 -67t-99 -134q-2 -31 -41 -31h-33q-27 0 -22 27q16 109 141 203t240 94zM872 1341h-61q-33 0 -27 33l11 84q2 29 30 29h62q35 0 26 -31l-10 -84q-2 -31 -31 -31zM233 1341h-59q-35 0 -29 33l11 84q2 29 32 29h60q35 0 28 -31l-10 -84q-4 -31 -33 -31z" />
    <glyph glyph-name="uni04EE" unicode="&#x4ee;" horiz-adv-x="1179" 
d="M1122 1487h43q39 0 17 -37l-807 -1415q-20 -35 -51 -35h-43q-35 0 -19 39l285 498l-15 -15l-315 930q-14 35 21 35h45q33 0 36 -35l285 -813l467 815q20 33 51 33zM1087 1919h-663q-31 0 -27 33l4 30q2 29 33 29h664q33 0 26 -31l-2 -30q-6 -31 -35 -31z" />
    <glyph glyph-name="uni04EF" unicode="&#x4ef;" horiz-adv-x="989" 
d="M827 963h43q37 0 19 -37l-705 -1303q-18 -33 -51 -33h-43q-37 0 -18 37l237 436l-256 865q-10 35 21 35h45q25 0 39 -35l219 -740l401 742q18 33 49 33zM207 1487h663q33 0 27 -31l-2 -31q-6 -31 -35 -30h-663q-31 0 -27 32l4 31q2 29 33 29z" />
    <glyph glyph-name="Macute" unicode="&#x1e3e;" horiz-adv-x="1441" 
d="M1286 1487h92q35 0 29 -31l-174 -1425q-4 -31 -35 -31h-31q-31 0 -26 33l166 1341l-592 -1343q-12 -31 -43 -31h-54q-29 0 -32 33l-262 1341l-166 -1343q-2 -31 -35 -31h-31q-31 0 -26 33l176 1425q2 29 30 29h93q37 0 36 -31l258 -1325l586 1327q12 29 41 29zM1030 2163
h60q43 0 18 -37l-225 -379q-23 -37 -47 -37h-35q-16 0 -23 11q-6 12 4 28l201 379q16 35 47 35z" />
    <glyph glyph-name="macute" unicode="&#x1e3f;" horiz-adv-x="1701" 
d="M1182 963h75q143 0 231 -113t71 -254l-70 -565q-2 -31 -33 -31h-31q-33 0 -28 33l69 565q12 106 -46 189t-173 83h-69q-86 0 -174 -61t-99 -125q6 -43 0 -88l-69 -565q-4 -31 -35 -31h-31q-31 0 -27 33l70 565q12 108 -44 190t-167 82h-67q-85 0 -173 -59t-102 -121
l-80 -659q-4 -31 -33 -31h-30q-33 0 -29 33l111 901q2 29 34 29h31q31 0 27 -31l-8 -66q119 96 256 97h75q82 0 149 -44t105 -118q56 68 144 115t170 47zM946 1186h-35q-16 0 -22 11t4 28l201 379q16 35 47 34h59q43 0 19 -36l-226 -379q-22 -37 -47 -37z" />
    <glyph glyph-name="Wgrave" unicode="&#x1e80;" horiz-adv-x="1880" 
d="M1849 1487h33q35 0 25 -33l-535 -1423q-10 -31 -41 -31h-41q-29 0 -35 33l-221 1292l-538 -1294q-14 -31 -41 -31h-41q-35 0 -35 33l-184 1425q-6 29 24 29h35q29 0 33 -31l164 -1290l532 1292q12 29 45 29h45q29 0 35 -33l225 -1288l479 1288q12 33 37 33zM1096 1710
h-41q-20 0 -35 39l-133 379q-12 35 20 35h66q35 0 39 -37l104 -379q14 -37 -20 -37z" />
    <glyph glyph-name="wgrave" unicode="&#x1e81;" horiz-adv-x="1406" 
d="M1321 963h35q35 0 24 -35l-354 -895q-12 -33 -43 -33h-41q-20 0 -35 35l-172 772l-364 -774q-12 -33 -43 -33h-41q-20 0 -35 35l-133 895q-6 33 28 33h35q29 0 33 -35l107 -778l368 780q14 33 39 33h45q18 0 31 -29q2 -4 2 -6l172 -778l303 780q12 33 39 33zM797 1186
h-41q-20 0 -35 39l-133 379q-12 35 20 34h66q35 1 39 -36l104 -379q14 -37 -20 -37z" />
    <glyph glyph-name="Wacute" unicode="&#x1e82;" horiz-adv-x="1880" 
d="M1849 1487h33q35 0 25 -33l-535 -1423q-10 -31 -41 -31h-41q-29 0 -35 33l-221 1292l-538 -1294q-14 -31 -41 -31h-41q-35 0 -35 33l-184 1425q-6 29 24 29h35q29 0 33 -31l164 -1290l532 1292q12 29 45 29h45q29 0 35 -33l225 -1288l479 1288q12 33 37 33zM1284 2163h59
q43 0 19 -37l-225 -379q-23 -37 -47 -37h-35q-16 0 -23 11q-6 12 4 28l201 379q16 35 47 35z" />
    <glyph glyph-name="wacute" unicode="&#x1e83;" horiz-adv-x="1406" 
d="M1321 963h35q35 0 24 -35l-354 -895q-12 -33 -43 -33h-41q-20 0 -35 35l-172 772l-364 -774q-12 -33 -43 -33h-41q-20 0 -35 35l-133 895q-6 33 28 33h35q29 0 33 -35l107 -778l368 780q14 33 39 33h45q18 0 31 -29q2 -4 2 -6l172 -778l303 780q12 33 39 33zM1044 1638
q43 0 19 -36l-225 -379q-23 -37 -47 -37h-35q-16 0 -23 11q-6 12 4 28l201 379q16 35 47 34h59z" />
    <glyph glyph-name="Wdieresis" unicode="&#x1e84;" horiz-adv-x="1880" 
d="M1849 1487h33q35 0 25 -33l-535 -1423q-10 -31 -41 -31h-41q-29 0 -35 33l-221 1292l-538 -1294q-14 -31 -41 -31h-41q-35 0 -35 33l-184 1425q-6 29 24 29h35q29 0 33 -31l164 -1290l532 1292q12 29 45 29h45q29 0 35 -33l225 -1288l479 1288q12 33 37 33zM1405 2011h61
q37 0 27 -31l-10 -84q-4 -31 -31 -30h-61q-33 -1 -27 32l10 84q2 29 31 29zM768 2011h59q35 0 29 -31l-10 -84q-2 -31 -33 -30h-59q-35 -1 -29 32l10 84q2 29 33 29z" />
    <glyph glyph-name="wdieresis" unicode="&#x1e85;" horiz-adv-x="1406" 
d="M1321 963h35q35 0 24 -35l-354 -895q-12 -33 -43 -33h-41q-20 0 -35 35l-172 772l-364 -774q-12 -33 -43 -33h-41q-20 0 -35 35l-133 895q-6 33 28 33h35q29 0 33 -35l107 -778l368 780q14 33 39 33h45q18 0 31 -29q2 -4 2 -6l172 -778l303 780q12 33 39 33zM1104 1487
h61q35 0 27 -31l-10 -84q-2 -31 -31 -31h-61q-33 0 -27 33l10 84q2 29 31 29zM467 1487h59q35 0 29 -31l-10 -84q-4 -31 -33 -31h-59q-35 0 -29 33l10 84q2 29 33 29z" />
    <glyph glyph-name="Ygrave" unicode="&#x1ef2;" horiz-adv-x="1163" 
d="M1124 1487h50q16 0 23 -8t-5 -23l-561 -803l-78 -622q-4 -31 -35 -31h-31q-31 0 -26 33l78 620l-361 805q-14 29 21 29h49q23 0 35 -31l313 -696l483 698q22 29 45 29zM731 1710h-41q-20 0 -35 39l-133 379q-12 35 21 35h65q35 0 39 -37l105 -379q14 -37 -21 -37z" />
    <glyph glyph-name="ygrave" unicode="&#x1ef3;" horiz-adv-x="989" 
d="M897 963h43q37 0 18 -37l-704 -1303q-18 -33 -51 -33h-43q-37 0 -19 37l238 436l-256 865q-10 35 20 35h45q25 0 39 -35l219 -740l402 742q18 33 49 33zM465 1638q35 0 39 -36l104 -379q14 -37 -20 -37h-41q-21 0 -35 39l-133 379q-12 35 20 34h66z" />
    <glyph glyph-name="endash" unicode="&#x2013;" horiz-adv-x="1271" 
d="M1102 436h-965q-31 0 -26 31l4 31q4 31 35 30h964q31 0 27 -32l-4 -31q-2 -29 -35 -29z" />
    <glyph glyph-name="emdash" unicode="&#x2014;" horiz-adv-x="1423" 
d="M1253 436h-1116q-31 0 -26 31l4 31q4 31 35 30h1116q31 0 26 -32l-4 -31q-2 -29 -35 -29z" />
    <glyph glyph-name="quoteleft" unicode="&#x2018;" horiz-adv-x="389" 
d="M276 932h-96q-33 0 -28 33l22 184q10 75 17 109t37 96t83 116q23 18 43 -4l31 -32q25 -27 8 -43q-63 -53 -85 -103t-27 -129l-19 -20h37q33 0 29 -31l-19 -145q-2 -31 -33 -31z" />
    <glyph glyph-name="quoteright" unicode="&#x2019;" horiz-adv-x="411" 
d="M215 1487h96q33 0 29 -31l-23 -184q-10 -74 -17 -109t-37 -97t-83 -118q-23 -16 -41 4l-35 33q-23 27 -6 43q63 54 85 104t28 130l18 18h-36q-33 0 -29 33l18 145q2 29 33 29z" />
    <glyph glyph-name="quotesinglbase" unicode="&#x201a;" horiz-adv-x="389" 
d="M45 207h96q29 0 29 -31l-23 -186q-10 -74 -17 -109t-37 -96t-83 -117q-23 -18 -43 4l-35 33q-18 29 -6 43q66 53 87 102q22 49 28 130l18 20h-39q-33 0 -28 33l18 145q2 29 35 29z" />
    <glyph glyph-name="quotedblleft" unicode="&#x201c;" horiz-adv-x="702" 
d="M520 932h-96q-31 0 -27 33l21 184q10 75 17 109t37 96t83 116q25 18 45 -4l29 -32q25 -27 10 -43q-66 -53 -86 -103t-27 -129l-20 -20h39q29 0 28 -31l-18 -145q-2 -31 -35 -31zM207 932h-96q-33 0 -29 33l22 184q10 75 18 109t37 96q30 62 83 116q23 18 43 -4l30 -32
q25 -27 9 -43q-63 -53 -85 -103t-28 -129l-18 -20h36q33 0 29 -31l-18 -145q-2 -31 -33 -31z" />
    <glyph glyph-name="quotedblright" unicode="&#x201d;" horiz-adv-x="720" 
d="M459 1487h96q31 0 27 -31l-21 -184q-23 -144 -55 -206t-84 -118q-20 -18 -41 4l-35 33q-20 29 -6 43q66 53 86 102t27 132l18 18h-37q-33 0 -28 33l18 145q2 29 35 29zM143 1487h97q31 0 28 -31l-22 -184q-10 -74 -18 -109t-37 -97q-30 -62 -82 -118q-23 -16 -41 4
l-35 33q-23 29 -6 43q63 54 85 104t27 130l19 18h-39q-31 0 -27 33l19 145q1 29 32 29z" />
    <glyph glyph-name="quotedblbase" unicode="&#x201e;" horiz-adv-x="702" 
d="M358 207h97q33 0 28 -31l-22 -186q-9 -74 -17 -109t-38 -96t-82 -117q-23 -16 -41 4l-35 33q-20 27 -6 43q63 53 85 102t27 130l19 20h-37q-33 0 -29 33l19 145q1 29 32 29zM45 207h96q29 0 29 -31l-23 -186q-10 -74 -17 -109t-37 -96t-83 -117q-23 -18 -43 4l-35 33
q-18 29 -6 43q66 53 87 102q22 49 28 130l18 20h-39q-33 0 -28 33l18 145q2 29 35 29z" />
    <glyph glyph-name="dagger" unicode="&#x2020;" horiz-adv-x="886" 
d="M823 963q29 0 27 -31l-4 -31q-2 -31 -35 -31h-283l-135 -1108q-2 -29 -35 -28h-30q-29 0 -27 30l135 1106h-286q-31 0 -27 33l4 31q2 29 35 29h287l61 503q0 29 33 29h30q33 0 29 -31l-61 -501h282z" />
    <glyph glyph-name="daggerdbl" unicode="&#x2021;" horiz-adv-x="886" 
d="M823 963q29 0 27 -31l-4 -31q-2 -31 -35 -31h-283l-61 -512h281q33 0 26 -34l-2 -27q-2 -31 -33 -31h-284l-62 -504q-2 -29 -35 -28h-30q-29 0 -27 30l61 502h-284q-33 0 -29 33l4 31q2 29 33 28h289l61 512h-286q-31 0 -27 33l4 31q2 29 35 29h287l61 503q0 29 33 29h30
q33 0 29 -31l-61 -501h282z" />
    <glyph glyph-name="bullet" unicode="&#x2022;" horiz-adv-x="567" 
d="M367 827q70 0 59 -69l-10 -94q-8 -66 -76 -66h-104q-68 0 -60 68l12 94q6 68 74 67h105z" />
    <glyph glyph-name="ellipsis" unicode="&#x2026;" horiz-adv-x="790" 
d="M598 94q35 0 29 -31l-4 -32q-4 -31 -33 -31h-35q-33 0 -29 33l6 33q2 29 31 28h35zM352 94q35 0 29 -31l-2 -32q-2 -31 -35 -31h-35q-30 0 -26 33l4 33q2 29 30 28h35zM109 94q35 0 28 -31l-4 -32q-2 -31 -33 -31h-34q-33 0 -29 33l6 33q2 29 31 28h35z" />
    <glyph glyph-name="perthousand" unicode="&#x2030;" horiz-adv-x="1939" 
d="M1614 301h-19q-90 0 -106 -94v-17q-12 -92 82 -92h18q95 1 109 95l2 16q8 92 -86 92zM983 301h-18q-90 0 -107 -94v-17q-12 -92 82 -92h18q95 1 109 95l2 16q8 92 -86 92zM1604 401h26q82 0 129 -54t37 -136l-4 -23q-10 -84 -68 -136t-141 -52h-27q-84 0 -130 54t-35 136
l2 23q10 82 69 135q60 53 142 53zM973 401h26q82 0 129 -54t37 -136l-4 -23q-10 -84 -68 -136t-141 -52h-26q-84 0 -130 54t-36 136l2 23q10 82 69 135q60 53 142 53zM395 1386h-18q-92 0 -109 -94v-16q-10 -92 82 -92h19q94 0 108 94l2 16q8 92 -84 92zM383 1487h27
q82 0 129 -54t36 -137l-4 -22q-10 -84 -68 -136t-141 -53h-26q-84 1 -130 55t-36 136l2 22q10 82 70 136t141 53zM1157 1487h55q16 0 24 -8t-5 -23l-1002 -1425q-18 -31 -45 -31h-55q-39 0 -18 33l1003 1425q20 29 43 29z" />
    <glyph glyph-name="guilsinglleft" unicode="&#x2039;" horiz-adv-x="677" 
d="M143 596l424 295q15 10 27 4t8 -23l-10 -90q-2 -16 -37 -45l-309 -211l250 -213q6 -7 20 -17t14 -28l-12 -88q-2 -16 -13 -20t-22 6l-352 293q-4 4 -19 14t-6 25l7 61q0 18 13 26q13 7 17 11z" />
    <glyph glyph-name="guilsinglright" unicode="&#x203a;" horiz-adv-x="677" 
d="M184 887l353 -293q4 -4 16 -11t12 -26l-10 -61q0 -24 -8 -26q-8 -3 -13 -7t-10 -6l-422 -295q-14 -10 -26 -3t-10 23l12 88q0 16 39 45l309 211l-254 215q-4 3 -11 9t-9 8t-8 7q-5 5 -4 8t1 11l11 90q2 16 12 20t20 -7z" />
    <glyph glyph-name="fraction" unicode="&#x2044;" horiz-adv-x="204" 
d="M575 1487h87q16 0 22 -8t-4 -23l-1002 -1425q-23 -31 -47 -31h-86q-16 0 -22 8t4 25l1003 1425q20 29 45 29z" />
    <glyph glyph-name="Euro" unicode="&#x20ac;" horiz-adv-x="1353" 
d="M846 1509h94q164 0 277 -144t92 -333q-4 -27 -35 -26h-31q-33 0 -26 34q16 150 -71 264t-216 113h-94q-137 0 -254 -117t-138 -278l-14 -121h494q35 0 28 -31l-4 -36q-2 -29 -33 -29h-497l-15 -125h494q33 0 29 -33l-4 -35q-6 -31 -33 -30h-498l-14 -117
q-21 -162 67 -281t226 -118h94q129 0 246 118t135 271q2 27 33 26h30q31 0 29 -35q-25 -186 -172 -329t-311 -144h-95q-171 -1 -285 147t-89 347l14 115h-184q-33 0 -29 32l2 35q10 31 35 31h188l17 125h-187q-31 0 -28 31l6 36q2 29 31 29h190l14 123q25 197 173 341
q149 144 319 144z" />
    <glyph glyph-name="hryvnia" unicode="&#x20b4;" horiz-adv-x="1183" 
d="M659 1511h107q170 -1 272 -115t80 -294q-12 -102 -69 -180h20q35 0 29 -31l-6 -57q-2 -29 -33 -29h-146q-100 -55 -262 -86l-106 -21q-72 -16 -82 -18h577q33 0 29 -33l-6 -55q-6 -31 -35 -31h-780q-61 -70 -72 -174q-18 -147 70 -235t229 -89h94q135 -1 244 89t129 235
l10 59q2 29 35 29h33q29 0 27 -31l-9 -59q-20 -176 -164 -295t-315 -119h-94q-176 0 -289 121t-90 303q12 90 57 166h-6q-31 0 -26 33l4 55q8 31 35 31h112q113 76 293 111l86 14h-473q-33 0 -29 31l8 57q2 29 31 29h758q78 72 94 204t-60 213q-77 80 -216 80h-107
q-133 0 -241 -94t-125 -246l-7 -39q-4 -31 -30 -30h-33q-35 0 -29 32l4 39q20 182 162 306t311 124z" />
    <glyph glyph-name="uni2116" unicode="&#x2116;" horiz-adv-x="2400" 
d="M1468 432h693q31 0 26 -31l-4 -30q-4 -31 -31 -31h-692q-34 0 -28 33l2 30q6 29 34 29zM1966 1397h-65q-115 0 -192 -81t-91 -190l-16 -147q-12 -109 43 -189t170 -79h63q113 0 192 82t91 188l18 147q12 106 -45 188t-168 81zM1210 1487h31q33 0 27 -31l-174 -1425
q-4 -31 -33 -31h-129q-20 0 -33 25l-561 1437l-178 -1431q-4 -31 -33 -31h-31q-33 0 -28 33l176 1425q2 29 32 29h127q27 0 35 -23l561 -1437l179 1431q1 29 32 29zM1915 1491h59q146 0 232 -112t67 -255l-16 -141q-18 -143 -130 -255t-259 -112h-60q-150 0 -236 112
t-67 257l19 141q18 143 130 254t261 111z" />
    <glyph glyph-name="uni2120" unicode="&#x2120;" horiz-adv-x="1607" 
d="M1485 1487h123q33 0 26 -31l-55 -463q-6 -31 -33 -30h-61q-33 0 -29 32l43 338l-242 -342q-20 -29 -43 -28h-43q-18 0 -34 32l-160 338l-43 -340q-6 -31 -33 -30h-61q-33 0 -29 32l57 463q2 29 33 29h123q20 0 35 -31l147 -338l234 340q16 29 45 29zM416 952
q-120 0 -179 45q-60 45 -53 115q0 12 21 12h82q16 0 14 -20q-1 -35 105 -35t135 8t31 39t-17 39q-20 8 -134 13q-228 10 -208 175q11 88 73 122t189 34t184 -44t50 -124q-4 -14 -15 -14h-82q-24 -1 -20 23t-21 33t-107 9t-108 -9t-28 -31t2 -31q12 -23 137 -29t177 -47
t42 -120t-80 -121t-190 -42z" />
    <glyph glyph-name="trademark" unicode="&#x2122;" horiz-adv-x="1595" 
d="M1473 1487h122q33 0 27 -31l-55 -463q-6 -31 -33 -30h-61q-33 0 -29 32l43 338l-242 -342q-20 -29 -43 -28h-43q-18 0 -35 32l-159 338l-43 -340q-6 -31 -33 -30h-62q-33 0 -28 32l57 463q2 29 33 29h123q20 0 35 -31l147 -338l233 340q17 29 46 29zM225 1487h490
q33 0 26 -31l-6 -61q-6 -31 -33 -31h-184l-45 -371q-6 -31 -33 -30h-61q-33 0 -29 32l45 369h-182q-33 0 -29 33l9 61q1 29 32 29z" />
    <glyph glyph-name="oneeighth" unicode="&#x215b;" horiz-adv-x="1480" 
d="M1090 117q88 0 98 76q4 31 -16 51t-52 20h-6q-34 0 -60 -22t-29 -56q-3 -33 15 -51t50 -18zM1124 371h6q33 1 59 23t30 55q5 33 -15 51t-56 18t-63 -20t-29 -52t16 -54q19 -21 52 -21zM1110 0h-51q-80 0 -124 57t-36 129t86 136q-61 66 -52 136t65 123q56 54 137 54h51
q80 0 124 -56q44 -57 34 -131t-87 -133q61 -65 53 -135t-64 -125t-136 -55zM389 1487h66q33 0 26 -31l-69 -571q-2 -31 -33 -31h-66q-32 0 -28 33l71 571q2 29 33 29zM1194 1487h86q16 0 22 -8t-4 -23l-1001 -1425q-23 -31 -45 -31h-86q-16 0 -24 8q-7 9 3 25l1004 1425
q20 29 45 29z" />
    <glyph glyph-name="threeeighths" unicode="&#x215c;" horiz-adv-x="1515" 
d="M1124 117q88 0 99 76q5 31 -15 51t-53 20h-6q-35 0 -61 -22t-28 -56q-3 -33 15 -51t49 -18zM1159 371h6q33 1 59 23t30 55t-16 51q-19 18 -55 18t-63 -20q-28 -20 -30 -52t17 -54q19 -21 52 -21zM1145 0h-51q-80 0 -124 57t-36 129t86 136q-61 66 -52 136t65 123
q56 54 136 54h52q80 0 124 -56q43 -57 33 -131t-86 -133q62 -65 54 -135t-64 -125t-137 -55zM1229 1487h86q16 0 22 -8t-4 -23l-1001 -1425q-20 -31 -45 -31h-86q-16 0 -24 8q-7 9 3 25l1004 1425q20 29 45 29zM387 854h-51q-74 0 -120 52t-36 120l2 27q2 29 35 28h62
q29 0 25 -36t14 -55q19 -19 49 -19q88 0 98 76q4 31 -15 51t-53 20h-47q-33 0 -28 33l6 45q2 29 34 29h48q34 1 58 23t28 55t-16 51t-54 18q-35 0 -61 -19t-29 -56q-4 -36 -33 -35h-61q-33 0 -29 32l2 27q11 68 67 118t130 50h51q80 0 124 -56q44 -57 34 -131t-86 -133
q61 -65 53 -135t-64 -125t-137 -55z" />
    <glyph glyph-name="fiveeighths" unicode="&#x215d;" horiz-adv-x="1515" 
d="M1124 117q88 0 99 76q5 31 -15 51t-53 20h-6q-35 0 -61 -22t-28 -56q-3 -33 15 -51t49 -18zM1159 371h6q33 1 59 23t30 55t-16 51q-19 18 -55 18t-63 -20q-28 -20 -30 -52t17 -54q19 -21 52 -21zM1145 0h-51q-80 0 -124 57t-36 129t86 136q-61 66 -52 136t65 123
q56 54 136 54h52q80 0 124 -56q43 -57 33 -131t-86 -133q62 -65 54 -135t-64 -125t-137 -55zM387 852h-51q-74 0 -120 52t-36 120l2 27q2 29 35 28h62q29 0 25 -36t14 -55q19 -19 49 -19q86 0 98 82q16 94 -27 110q-76 18 -127 -24l-86 2q-33 0 -28 32l36 287q2 29 33 29
h326q33 0 26 -31l-6 -57q-2 -31 -32 -31h-240l-14 -115q50 23 116 14q173 -23 146 -227q-8 -74 -64 -131t-137 -57zM1229 1487h86q16 0 22 -8t-4 -23l-1001 -1425q-20 -31 -45 -31h-86q-16 0 -24 8q-7 9 3 25l1004 1425q20 29 45 29z" />
    <glyph glyph-name="seveneighths" unicode="&#x215e;" horiz-adv-x="1495" 
d="M1104 117q88 0 98 76q4 31 -15 51t-52 20h-7q-34 0 -60 -22t-29 -56q-3 -33 15 -51t50 -18zM1139 371h6q33 1 59 23t29 55q4 33 -15 51q-20 18 -56 18t-62 -20t-30 -52t16 -54q20 -21 53 -21zM1124 0h-51q-80 0 -124 57t-36 129t86 136q-61 66 -52 136t65 123
q56 54 137 54h51q80 0 124 -56q44 -57 34 -131t-86 -133q61 -65 53 -135t-64 -125t-137 -55zM285 852h-86q-14 0 -20 10q-5 10 1 21l279 481h-205q-33 0 -29 33l8 61q2 29 33 29h326q32 0 26 -31l-6 -59q-8 -31 -10 -35l-280 -481q-20 -29 -37 -29zM1208 1487h86q16 0 22 -8
t-3 -23l-1002 -1425q-20 -31 -45 -31h-86q-16 0 -23 8t3 25l1003 1425q20 29 45 29z" />
    <glyph glyph-name="partialdiff" unicode="&#x2202;" horiz-adv-x="1163" 
d="M483 72h84q293 0 369 346q45 201 -30 294t-293 95t-314 -94q-97 -97 -117 -283t66 -272t235 -86zM643 1509h90q180 0 278 -117q97 -118 93 -300q-4 -346 -74 -682q-45 -203 -170 -317t-301 -113h-84q-182 0 -295 116q-114 116 -94 346t158 351t364 120q279 0 385 -133
q33 164 21 357q-6 119 -74 201t-213 83h-92q-147 0 -251 -93t-122 -247l-4 -34q-4 -31 -35 -31h-33q-31 0 -26 33l4 34q23 186 159 306t316 120z" />
    <glyph glyph-name="emptyset" unicode="&#x2205;" 
d="M487 84h91q142 0 254 116t135 287l63 535q25 199 -88 317l-655 -1171q80 -84 200 -84zM651 1423q-141 0 -254 -115q-112 -116 -135 -288l-63 -535q-14 -125 28 -229l639 1139q-57 29 -125 28h-90zM567 -8h-92q-135 0 -235 90l-29 -51q-18 -31 -45 -31h-43q-37 0 -21 33
l72 127q-90 139 -68 323l64 543q27 203 171 346t321 144h92q84 0 161 -39q10 10 31 10h43q37 0 19 -31l-19 -31q76 -70 112 -175t21 -226l-65 -543q-27 -203 -170 -346t-320 -143z" />
    <glyph glyph-name="product" unicode="&#x220f;" horiz-adv-x="1052" 
d="M203 963h747q29 0 25 -31l-111 -901q-4 -31 -33 -31h-30q-33 0 -29 33l102 837h-622l-102 -839q-2 -31 -33 -31h-31q-33 0 -29 33l111 901q2 29 35 29z" />
    <glyph glyph-name="summation" unicode="&#x2211;" horiz-adv-x="1120" 
d="M266 1487h813q33 0 27 -33l-2 -29q-6 -31 -35 -30h-778l448 -584q27 -31 25 -47l-6 -43q-2 -20 -33 -51l-588 -576l772 -2q27 0 27 -31l-6 -30q-4 -31 -31 -31h-813q-33 0 -29 33l13 106q4 23 39 58l557 544l-420 553q-29 42 -27 58l14 106q2 29 33 29z" />
    <glyph glyph-name="minus" unicode="&#x2212;" horiz-adv-x="1052" 
d="M172 723h748q31 0 26 -31l-4 -30q-4 -31 -35 -31h-745q-31 0 -27 33l4 30q2 29 33 29z" />
    <glyph glyph-name="radical" unicode="&#x221a;" horiz-adv-x="1247" 
d="M145 688h56q14 0 20 -7t12 -26l216 -499l688 1300q16 31 41 31h51q16 0 24 -8t0 -25l-764 -1421q-16 -33 -45 -33h-26q-17 0 -35 35l-262 622q-10 31 24 31z" />
    <glyph glyph-name="infinity" unicode="&#x221e;" horiz-adv-x="1734" 
d="M1221 870q-95 0 -177 -55t-116 -151q0 -23 -4 -76l-9 -68q-8 -53 -16 -78q14 -94 83 -148t161 -54h78q123 0 212 70t107 212l6 68q18 147 -51 214q-70 67 -195 66h-79zM430 240h80q98 0 180 55t117 154q-4 39 2 73l6 68q4 33 16 78q-10 96 -77 149q-68 53 -166 53h-78
q-119 0 -208 -68t-107 -214l-9 -68q-16 -144 56 -212t188 -68zM1233 963h76q156 -1 252 -103t73 -274l-8 -62q-20 -172 -140 -273t-276 -101h-75q-96 0 -177 44q-80 44 -118 123q-123 -168 -338 -167h-76q-152 0 -251 103t-77 273l6 62q23 172 146 273t274 102h76
q100 0 179 -44t118 -124q59 80 149 124t187 44z" />
    <glyph glyph-name="integral" unicode="&#x222b;" horiz-adv-x="817" 
d="M768 1395q-102 0 -166 -76t-80 -203l-139 -1143q-23 -170 -122 -275t-249 -108q-31 4 -24 31l2 31q2 31 35 31h18q102 0 166 75q63 76 80 203l139 1143q23 170 123 276t250 107q29 -4 22 -31l-2 -31q-6 -31 -35 -30h-18z" />
    <glyph glyph-name="approxequal" unicode="&#x2248;" horiz-adv-x="1058" 
d="M924 504l14 -35q10 -25 -23 -47q-215 -143 -411 0q-96 61 -169 57t-192 -78q-23 -10 -34 21l-13 35q-10 25 21 47q213 143 413 2q94 -60 168 -58t193 76q18 10 31 -16q2 -2 2 -4zM961 793l14 -37q8 -27 -23 -45q-217 -143 -411 -2q-96 61 -171 58t-194 -77
q-18 -10 -31 21l-14 34q-10 25 23 48q213 143 411 0q96 -61 170 -57t191 77q20 10 32 -16q3 -2 3 -4z" />
    <glyph glyph-name="notequal" unicode="&#x2260;" horiz-adv-x="817" 
d="M741 1411h43q16 0 22 -9t-3 -24l-275 -491h160q35 0 29 -31l-4 -37q-6 -29 -33 -28h-205l-131 -234h305q31 0 29 -31l-6 -37q-2 -29 -35 -28h-346l-285 -508q-18 -31 -45 -31h-43q-36 0 -20 33l282 506h-166q-31 0 -26 31l4 36q2 29 35 29h209l131 234h-310q-33 0 -28 30
l6 37q2 29 31 29h354l276 493q16 31 45 31z" />
    <glyph glyph-name="lessequal" unicode="&#x2264;" horiz-adv-x="983" 
d="M98 92h674q31 0 27 -31l-4 -30q-4 -31 -33 -31h-672q-33 0 -29 33l5 30q1 29 32 29zM930 1122l-6 -39q0 -37 -23 -51l-614 -334l526 -338q20 -10 16 -47l-4 -39q-2 -12 -11 -17t-21 3l-641 408q-14 14 -12 33t14 32l743 408q14 6 25 0q10 -7 8 -19z" />
    <glyph glyph-name="greaterequal" unicode="&#x2265;" horiz-adv-x="983" 
d="M96 92h674q29 0 25 -31l-4 -30q-4 -31 -33 -31h-672q-33 0 -29 33l4 30q2 29 35 29zM186 1085l4 39q2 12 12 16t21 -3l641 -408q14 -9 12 -31t-14 -34l-743 -408q-14 -8 -25 0q-10 8 -8 20l8 39q4 39 21 50l618 333l-530 338q-21 12 -17 49z" />
    <glyph glyph-name="lozenge" unicode="&#x25ca;" horiz-adv-x="931" 
d="M412 139l360 668q8 23 4 27l-192 665l-361 -668q-8 -14 -6 -26zM430 0h-63q-25 0 -35 35l-217 774v25l409 774q12 31 41 30h64q27 0 33 -32l219 -775q0 -16 -2 -24l-408 -774q-12 -33 -41 -33z" />
    <glyph glyph-name="i.loclTRK" horiz-adv-x="419" 
d="M244 965h30q29 0 27 -31l-111 -903q-2 -31 -32 -31h-31q-33 0 -29 33l111 903q2 29 35 29zM285 1487h77q35 0 31 -37l-12 -96q-4 -35 -37 -35h-78q-36 0 -30 37l10 96q6 35 39 35z" />
    <glyph glyph-name="zero.lf" 
d="M487 84h91q142 0 254 116t135 287l63 535q20 172 -62 287q-83 115 -227 114h-90q-141 1 -254 -115t-135 -288l-63 -535q-19 -173 63 -287t225 -114zM662 1516h92q176 0 284 -144t84 -348l-65 -543q-27 -203 -170 -346t-320 -143h-92q-176 0 -285 144t-84 347l64 543
q28 202 172 346t320 144z" />
    <glyph glyph-name="one.lf" horiz-adv-x="710" 
d="M469 1487h35q35 0 28 -31l-174 -1425q-2 -31 -34 -31h-31q-31 0 -27 33l162 1310l-127 -112q-18 -18 -43 4l-16 20q-20 23 0 43l204 181q8 8 23 8z" />
    <glyph glyph-name="two.lf" horiz-adv-x="1159" 
d="M743 1503q170 0 284 -124t92 -309t-148 -282q-125 -97 -332 -176l-244 -92q-78 -31 -134 -117q-93 -143 -109 -311h802q29 0 27 -31l-4 -30q-2 -31 -33 -31h-876q-33 0 -29 35q26 213 75 320q48 108 105 162t137 87l320 129q168 68 219 107q113 84 132 235t-71 243
t-223 93h-86q-131 0 -241 -92t-130 -242l-4 -35q-6 -31 -32 -30h-33q-33 0 -29 32l4 35q23 178 165 299t310 125h86z" />
    <glyph glyph-name="three.lf" horiz-adv-x="1148" 
d="M457 -18q-168 0 -283 116t-92 295l4 39q2 29 35 29h33q31 0 26 -31l-6 -39q-16 -153 71 -235t220 -82h86q141 0 252 79t128 223t-67 232t-239 94h-148q-31 0 -26 31l6 43q2 31 32 31h146q158 6 258 90t115 227q18 127 -71 211t-222 84h-86q-129 0 -239 -90t-130 -246
l-4 -39q-6 -31 -33 -30h-33q-33 0 -28 33l4 38q25 183 168 305t307 121h84q170 -1 283 -117t92 -282q-14 -116 -83 -200t-200 -158q231 -152 205 -379q-20 -172 -162 -283t-317 -110h-86z" />
    <glyph glyph-name="four.lf" horiz-adv-x="1128" 
d="M813 963h31q33 0 28 -31l-41 -330h179q33 0 28 -33l-6 -30q0 -29 -33 -29h-180l-57 -479q-4 -31 -35 -31h-31q-31 0 -26 33l57 477h-635q-20 0 -29 20l-14 41q-6 27 6 43l688 875q14 20 45 20h46q20 0 25 -11t-9 -25l-686 -871h575l41 332q0 29 33 29z" />
    <glyph glyph-name="five.lf" horiz-adv-x="1161" 
d="M459 -18q-178 0 -289 114t-88 299l4 33q2 29 35 29h33q31 0 26 -31l-4 -33q-18 -151 65 -235t226 -84h86q145 0 257 88t138 260q55 408 -307 407h-63q-123 0 -250 -84q-53 -35 -80 -45l-78 2q-31 0 -27 31l111 725q2 29 33 29h786q33 0 27 -31l-2 -31q-6 -31 -35 -30
h-719l-96 -582q163 98 269 113q46 6 93 6h56q201 0 308 -130t68 -384q-33 -209 -174 -323t-323 -113h-86z" />
    <glyph glyph-name="six.lf" horiz-adv-x="1163" 
d="M457 74h100q151 0 259 87t132 273t-45 280q-70 95 -264 95h-84q-355 0 -365 -399q-4 -174 56 -255t211 -81zM752 1511q178 1 286 -121t84 -309l-4 -34q-4 -31 -33 -31h-32q-33 0 -29 33l4 34q20 152 -60 244q-81 92 -229 92h-90q-145 0 -234 -83t-128 -208
q-59 -201 -64 -346q121 131 340 131h88q471 0 391 -495q-33 -209 -172 -323t-321 -113h-100q-174 0 -267 114q-92 115 -86 322q8 315 92 682q41 178 166 293q126 114 308 118h90z" />
    <glyph glyph-name="seven.lf" horiz-adv-x="1165" 
d="M236 1487h919q33 0 27 -31l-2 -33q-4 -31 -9 -41q-618 -590 -956 -1402q-12 -18 -41 -5l-37 17q-23 10 -6 47q336 793 942 1358l-848 -2q-31 0 -26 32l4 31q2 29 33 29z" />
    <glyph glyph-name="eight.lf" horiz-adv-x="1173" 
d="M678 727h-139q-135 0 -239 -87t-122 -208l-8 -65q-14 -121 68 -207t217 -86h139q137 0 242 87q104 87 118 208l11 65q12 121 -70 207t-217 86zM543 815h149q133 0 222 83t106 206l2 26q14 117 -56 203q-71 86 -204 86h-141q-133 0 -225 -86t-105 -205l-4 -26
q-13 -123 55 -205t201 -82zM449 -18q-168 0 -279 120t-92 275l10 65q12 98 79 188t165 148q-74 56 -113 140t-26 176l4 30q18 152 148 270t294 117h127q164 -1 265 -119t85 -270l-6 -30q-8 -92 -68 -178t-147 -144q82 -57 127 -145t33 -185l-8 -65q-15 -156 -155 -275
t-308 -118h-135z" />
    <glyph glyph-name="nine.lf" horiz-adv-x="1165" 
d="M752 1419h-101q-152 0 -258 -87q-106 -86 -131 -272t45 -280t264 -94h84q355 0 365 397q4 172 -57 254t-211 82zM461 -18q-178 0 -287 122t-86 310l4 35q2 29 35 28h33q29 0 26 -31l-4 -34q-20 -154 60 -246t227 -92h90q145 0 236 84q90 84 127 209q61 199 65 344
q-131 -131 -340 -131h-86q-473 0 -393 495q33 211 172 324t322 112h100q176 1 267 -113t83 -323q-8 -324 -90 -682q-41 -179 -166 -293t-305 -118h-90z" />
    <glyph glyph-name="zero.osf" horiz-adv-x="1079" 
d="M639 872h-119q-121 0 -210 -88t-103 -211l-25 -184q-14 -125 52 -212t186 -87h119q119 0 209 88t104 213l25 184q14 123 -53 210t-185 87zM528 965h121q150 0 244 -119t76 -275l-25 -182q-16 -155 -139 -273t-273 -118h-120q-154 0 -247 118t-75 275l25 182
q19 158 139 275t274 117z" />
    <glyph glyph-name="one.osf" horiz-adv-x="626" 
d="M434 88q33 0 29 -33l-4 -24q-4 -31 -35 -31h-297q-31 0 -27 33l2 24q4 31 35 31h105l90 731l-127 -112q-16 -20 -41 4l-19 20q-18 23 2 43l203 180q8 8 23 9h37q33 0 28 -31l-104 -844h100z" />
    <glyph glyph-name="two.osf" horiz-adv-x="1095" 
d="M885 92q29 0 26 -31l-4 -30q-2 -31 -33 -31h-798q-33 0 -29 35q20 162 86 245t223 123l240 58q31 8 85 19q145 29 176 65q31 35 38 86q12 96 -70 168t-196 71h-84q-121 0 -213 -72t-105 -177l-2 -27q-4 -31 -35 -31h-32q-31 0 -27 33l2 27q16 135 141 239t281 105h88
q152 -3 255 -107t89 -230t-88 -174t-283 -98l-223 -51q-213 -49 -237 -215h729z" />
    <glyph glyph-name="three.osf" horiz-adv-x="1130" 
d="M471 -422h-86q-168 0 -284 117t-89 303l4 41q2 29 35 29h33q31 0 27 -31l-7 -41q-18 -158 68 -242t219 -84h88q141 0 252 77t126 205t-70 205t-240 83h-45q-31 0 -27 30l6 43q2 31 33 31h45q334 14 365 254q14 111 -75 193t-220 81h-88q-125 0 -238 -90t-131 -231l-4 -39
q-2 -29 -33 -29h-33q-33 0 -28 31l6 39q20 166 166 289t305 123h86q165 0 279 -117t99 -251q-15 -133 -83 -201t-195 -105q113 -35 170 -124t43 -212q-20 -161 -162 -269t-317 -108z" />
    <glyph glyph-name="four.osf" horiz-adv-x="1128" 
d="M752 455h30q31 0 27 -33l-39 -330h178q31 0 27 -31l-4 -30q-4 -31 -33 -31h-180l-47 -381q-2 -29 -33 -29h-31q-37 0 -26 31l45 379h-635q-23 0 -31 23l-14 38q-8 25 8 43l686 875q16 23 45 22h43q20 0 26 -11t-6 -25l-686 -873h576l39 332q4 31 35 31z" />
    <glyph glyph-name="five.osf" horiz-adv-x="1185" 
d="M508 -426h-86q-178 0 -290 114t-89 298l4 34q6 29 35 29h33q29 0 26 -31l-4 -34q-18 -152 66 -235t227 -83h86q145 0 256 87q110 87 138 273t-42 290q-70 103 -245 106t-322 -83q-63 -38 -88 -46l-78 2q-33 0 -29 31l95 608q2 29 35 29h786q31 0 27 -31l-5 -31
q-4 -31 -32 -31h-721l-80 -464q90 47 127 64q37 16 118 36t169 18q205 -6 313 -134t70 -380q-34 -212 -176 -324t-324 -112z" />
    <glyph glyph-name="six.osf" horiz-adv-x="1163" 
d="M387 74h100q151 0 259 87t133 273t-45 280q-70 95 -265 95h-84q-354 0 -364 -399q-4 -174 56 -255t210 -81zM682 1511q178 1 286 -121t85 -309l-4 -34q-4 -31 -33 -31h-33q-33 0 -29 33l4 34q20 152 -60 244q-81 92 -228 92h-90q-144 0 -234 -83t-129 -208
q-59 -201 -63 -346q121 131 340 131h88q471 0 391 -495q-33 -209 -172 -323t-322 -113h-100q-174 0 -266 114t-86 322q8 315 92 682q41 178 166 292t307 119h90z" />
    <glyph glyph-name="seven.osf" horiz-adv-x="1165" 
d="M178 -410h-39q-37 0 -26 39q317 707 897 1243l-850 -2q-31 0 -27 33l4 31q2 29 35 29h920q31 0 26 -31l-2 -33q-11 -37 -12 -41q-575 -551 -887 -1249q-12 -19 -39 -19z" />
    <glyph glyph-name="eight.osf" horiz-adv-x="1173" 
d="M608 727h-139q-135 0 -239 -87t-121 -208l-9 -65q-14 -121 68 -207t217 -86h139q137 0 242 87t119 208l10 65q12 121 -70 207t-217 86zM473 815h150q133 0 222 83t105 206l2 26q14 117 -56 203q-71 86 -204 86h-141q-133 0 -225 -86t-105 -205l-4 -26q-13 -123 55 -205
t201 -82zM379 -18q-168 0 -279 120t-92 275l10 65q12 98 79 188t165 148q-74 56 -112 140t-27 176l4 30q18 152 148 270t294 117h127q164 0 266 -118q101 -119 85 -271l-7 -30q-8 -92 -67 -178q-60 -85 -148 -144q82 -57 127 -145t33 -185l-8 -65q-15 -156 -155 -275
t-308 -118h-135z" />
    <glyph glyph-name="nine.osf" horiz-adv-x="1183" 
d="M684 872h-84q-150 0 -260 -82t-134 -246q-22 -165 50 -251t292 -84t314 88t101 274q10 301 -279 301zM420 -424q-174 0 -287 111t-92 276l4 23q4 31 31 30h33q35 0 28 -32l-2 -23q-16 -139 67 -216t226 -77h90q139 0 231 74q91 74 123 174q53 162 64 303
q-119 -115 -401 -115q-233 0 -348 114q-114 114 -72 343q35 191 173 297t318 107h84q176 0 276 -110t93 -292q-14 -322 -84 -620q-39 -157 -166 -263t-299 -104h-90z" />
    <glyph glyph-name="zero.tf" horiz-adv-x="1433" 
d="M535 84h90q141 0 254 116t135 287l63 535q20 172 -62 287q-83 115 -227 114h-90q-141 1 -254 -115t-135 -288l-63 -535q-20 -173 63 -287t226 -114zM709 1516h92q177 0 285 -144t83 -348l-65 -543q-27 -203 -170 -346t-320 -143h-92q-176 0 -284 144t-84 347l63 543
q27 202 171 346t321 144z" />
    <glyph glyph-name="one.tf" horiz-adv-x="1433" 
d="M668 1487h37q33 0 26 -31l-174 -1425q-4 -31 -33 -31h-30q-33 0 -29 33l162 1310l-125 -112q-23 -20 -43 4l-19 20q-20 23 2 43l203 181q8 8 23 8z" />
    <glyph glyph-name="two.tf" horiz-adv-x="1433" 
d="M741 1503q170 0 284 -124t92 -309t-148 -282q-125 -97 -332 -176l-244 -92q-78 -31 -134 -117q-93 -143 -109 -311h802q31 0 27 -31l-4 -30q-4 -31 -33 -31h-876q-33 0 -29 35q26 213 75 320q48 108 105 162t137 87l320 129q168 68 219 107q113 84 132 235t-71 243
t-223 93h-86q-131 0 -242 -92t-129 -242l-4 -35q-6 -31 -32 -30h-33q-33 0 -29 32l4 35q23 178 165 299t310 125h86z" />
    <glyph glyph-name="three.tf" horiz-adv-x="1433" 
d="M461 -18q-168 0 -283 116t-92 295l4 39q2 29 35 29h33q31 0 26 -31l-6 -39q-16 -153 71 -235t220 -82h86q141 0 252 79t128 223t-67 232t-239 94h-148q-31 0 -26 31l6 43q2 31 33 31h145q158 6 258 90t115 227q18 127 -71 211t-222 84h-86q-129 0 -239 -90t-130 -246
l-4 -39q-6 -31 -33 -30h-32q-33 0 -29 33l4 38q25 183 168 305t307 121h84q170 -1 283 -117t92 -282q-14 -116 -83 -200t-200 -158q231 -152 205 -379q-20 -172 -162 -283t-317 -110h-86z" />
    <glyph glyph-name="four.tf" horiz-adv-x="1433" 
d="M836 963h30q31 0 29 -31l-41 -330h178q33 0 29 -33l-6 -30q0 -29 -33 -29h-180l-58 -479q-2 -31 -34 -31h-31q-31 0 -27 33l58 477h-635q-20 0 -29 20l-14 41q-6 27 6 43l688 875q16 20 45 20h45q20 0 26 -11t-10 -25l-686 -871h576l41 332q0 29 33 29z" />
    <glyph glyph-name="five.tf" horiz-adv-x="1433" 
d="M451 -18q-178 0 -288 114t-87 299l4 33q2 29 33 29h32q31 0 29 -31l-4 -33q-18 -151 64 -235t225 -84h86q145 0 258 88t139 260q55 408 -307 407h-66q-125 0 -248 -85q-52 -36 -79 -44l-78 2q-29 0 -27 31l111 725q2 29 31 29h786q35 0 29 -31l-2 -31q-6 -31 -35 -30
h-719l-96 -582q163 98 269 113q46 6 93 6h53q201 0 309 -130t70 -384q-33 -209 -175 -323t-324 -113h-86z" />
    <glyph glyph-name="six.tf" horiz-adv-x="1433" 
d="M453 74h100q151 0 259 87t132 273t-45 279q-70 94 -264 94h-84q-355 0 -365 -397q-4 -174 56 -255t211 -81zM748 1511q178 -1 286 -123t84 -309l-4 -35q-2 -29 -33 -28h-32q-33 0 -29 31l4 34q20 154 -60 246q-81 92 -229 92h-90q-145 0 -234 -84t-128 -209
q-59 -201 -64 -344q127 131 340 131h88q471 0 391 -495q-33 -211 -172 -324t-321 -112h-101q-174 0 -266 114t-86 322q8 313 92 682q41 178 167 292t306 119h91z" />
    <glyph glyph-name="seven.tf" horiz-adv-x="1433" 
d="M229 1487h920q33 0 27 -31l-2 -33q-8 -40 -9 -41q-618 -590 -956 -1402q-12 -18 -41 -5l-37 17q-23 10 -6 47q336 793 942 1358l-848 -2q-31 0 -26 32l4 31q2 29 32 29z" />
    <glyph glyph-name="eight.tf" horiz-adv-x="1433" 
d="M668 727h-140q-135 0 -239 -87t-121 -208l-8 -65q-14 -121 68 -207t216 -86h140q138 0 242 87t118 208l10 65q12 121 -69 207q-82 86 -217 86zM532 815h150q133 0 222 83t106 206l2 26q14 117 -57 203t-203 86h-142q-133 0 -224 -86t-105 -205l-5 -26q-14 -123 55 -205
t201 -82zM438 -18q-168 0 -278 120t-92 275l10 65q12 98 79 188t165 148q-74 56 -113 140t-27 176l4 30q18 152 148 270t295 117h127q164 -1 265 -119t85 -270l-6 -30q-8 -92 -68 -178t-147 -144q82 -57 127 -145t32 -185l-8 -65q-16 -156 -155 -275t-308 -118h-135z" />
    <glyph glyph-name="nine.tf" horiz-adv-x="1433" 
d="M745 1419h-100q-152 0 -258 -87q-106 -86 -131 -272t45 -280t264 -94h84q355 0 365 397q4 172 -58 254t-211 82zM455 -18q-178 0 -287 122t-86 310l4 35q2 29 35 28h33q31 0 26 -31l-4 -34q-20 -154 60 -246t227 -92h90q145 0 235 84t127 209q61 199 66 344
q-131 -131 -340 -131h-86q-473 0 -393 495q33 211 172 324t321 112h101q176 1 267 -113t83 -323q-8 -324 -90 -682q-41 -179 -166 -293t-305 -118h-90z" />
    <glyph glyph-name="zero.tosf" horiz-adv-x="1433" 
d="M743 872h-118q-121 0 -210 -88t-104 -211l-24 -184q-15 -125 51 -212t186 -87h119q117 0 208 88t105 213l23 184q14 123 -52 210q-67 87 -184 87zM631 965h121q150 0 244 -119t75 -275l-22 -182q-17 -155 -141 -273t-273 -118h-121q-152 0 -245 119t-74 274l22 182
q18 156 139 274t275 118z" />
    <glyph glyph-name="one.tosf" horiz-adv-x="1433" 
d="M741 88q31 0 27 -33l-4 -24q-2 -31 -33 -31h-297q-33 0 -28 33l4 24q4 31 34 31h103l90 729l-125 -110q-18 -23 -41 4l-20 20q-18 20 4 43l202 180q8 8 23 9h37q29 0 26 -31l-104 -844h102z" />
    <glyph glyph-name="two.tosf" horiz-adv-x="1433" 
d="M987 92q29 0 27 -31l-4 -30q-2 -31 -35 -31h-799q-31 0 -26 35q20 162 86 245t223 123l237 58q31 8 86 20q150 33 170 56q38 43 45 94q12 96 -69 168q-82 72 -197 71h-84q-121 0 -213 -72t-104 -177l-2 -27q-4 -31 -35 -31h-33q-31 0 -27 33l3 27q16 135 140 239t279 105
h88q152 -3 256 -107t90 -230t-88 -174t-282 -98l-223 -51q-145 -32 -195 -106q-33 -51 -45 -109h731z" />
    <glyph glyph-name="three.tosf" horiz-adv-x="1433" 
d="M545 -422h-86q-168 0 -284 117t-89 303l4 41q2 29 35 29h33q31 0 26 -31l-6 -41q-18 -158 68 -242t219 -84h88q141 0 252 77t126 205t-70 205t-240 83h-46q-31 0 -26 30l6 43q2 31 33 31h45q334 14 364 254q14 111 -74 193q-89 82 -221 81h-88q-126 0 -238 -90t-130 -231
l-4 -39q-2 -29 -33 -29h-33q-33 0 -29 31l7 39q20 166 165 289t306 123h86q165 0 279 -117t98 -251t-82 -202q-68 -67 -195 -104q113 -35 170 -124t43 -212q-20 -161 -162 -269t-317 -108z" />
    <glyph glyph-name="four.tosf" horiz-adv-x="1433" 
d="M842 455h30q31 0 27 -33l-39 -330h178q31 0 27 -31l-4 -30q-4 -31 -35 -31h-180l-47 -381q-2 -29 -31 -29h-31q-35 0 -28 31l45 379h-635q-20 0 -29 23l-14 38q-8 25 8 43l686 875q16 23 43 22h45q20 0 26 -11t-5 -25l-686 -873h575l39 332q4 31 35 31z" />
    <glyph glyph-name="five.tosf" horiz-adv-x="1433" 
d="M557 -426h-86q-178 0 -289 114t-88 298l4 34q6 29 33 29h33q33 0 29 -31l-5 -34q-18 -152 66 -235t227 -83h86q145 0 256 87t139 273t-43 290q-71 103 -247 106t-322 -83q-63 -38 -88 -46l-78 2q-29 0 -26 31l94 608q2 29 33 29h786q31 0 29 -31l-4 -31q-2 -31 -35 -31
h-719l-82 -464q164 84 243 102t173 16q204 -6 312 -134t69 -380q-33 -212 -175 -324t-325 -112z" />
    <glyph glyph-name="six.tosf" horiz-adv-x="1433" 
d="M453 74h100q151 0 259 87t132 273t-45 280q-70 95 -264 95h-84q-355 0 -365 -399q-4 -174 56 -255t211 -81zM745 1511q178 1 287 -121t86 -309l-4 -34q-4 -31 -35 -31h-32q-31 0 -27 33l4 34q20 152 -60 244q-81 92 -229 92h-90q-145 0 -234 -83t-128 -208
q-59 -201 -64 -346q121 131 340 131h86q473 0 393 -495q-33 -209 -172 -323t-321 -113h-101q-174 0 -266 114t-88 322q12 322 94 682q41 178 165 292t306 119h90z" />
    <glyph glyph-name="seven.tosf" horiz-adv-x="1433" 
d="M242 -410h-39q-37 0 -27 39q317 707 897 1243l-850 -2q-31 0 -26 33l4 31q2 29 35 29h919q29 0 27 -31l-2 -33q-10 -33 -13 -41q-575 -551 -886 -1249q-12 -19 -39 -19z" />
    <glyph glyph-name="eight.tosf" horiz-adv-x="1433" 
d="M739 727h-139q-136 0 -240 -87t-120 -208l-9 -65q-14 -121 68 -207t217 -86h139q137 0 242 87t119 208l10 65q12 121 -70 207t-217 86zM604 815h150q133 0 222 83t105 206l2 26q14 117 -56 203q-71 86 -204 86h-141q-132 0 -224 -86t-106 -205l-4 -26q-14 -123 54 -205
t202 -82zM510 -18q-168 0 -279 120t-92 275l11 65q12 98 78 188q67 89 165 148q-75 56 -113 140t-26 176l4 30q18 152 148 270t294 117h127q164 0 266 -118q101 -119 85 -271l-7 -30q-8 -92 -67 -178q-60 -85 -148 -144q82 -57 127 -145t33 -185l-8 -65q-16 -156 -156 -275
t-307 -118h-135z" />
    <glyph glyph-name="nine.tosf" horiz-adv-x="1433" 
d="M741 872h-84q-151 0 -261 -82t-132 -246q-22 -165 49 -251q72 -86 292 -84t315 88q94 86 100 274q10 301 -279 301zM477 -424q-174 0 -287 111t-92 276l4 23q4 31 31 30h33q35 0 29 -32l-2 -23q-15 -139 67 -216t225 -77h90q139 0 231 74q91 74 124 174q53 162 63 303
q-119 -115 -401 -115q-233 0 -347 114t-73 343q35 191 173 297t319 107h84q176 0 276 -110t92 -292q-14 -322 -84 -620q-39 -157 -166 -263t-299 -104h-90z" />
    <glyph glyph-name="zero.dnom" horiz-adv-x="653" 
d="M320 518q-36 0 -62 -19t-27 -50l-32 -263q-2 -31 16 -50t52 -19t61 20q26 20 30 51l33 263q4 31 -16 49q-19 18 -55 18zM307 635h51q80 0 124 -53t34 -125l-33 -279q-10 -72 -65 -125t-135 -53h-52q-73 0 -119 55t-36 125l35 279q8 70 65 123t131 53z" />
    <glyph glyph-name="one.dnom" horiz-adv-x="618" 
d="M285 633h65q31 0 27 -31l-70 -571q-4 -31 -33 -31h-65q-33 0 -29 33l70 571q6 29 35 29z" />
    <glyph glyph-name="two.dnom" horiz-adv-x="655" 
d="M434 0h-344q-33 0 -29 33l7 49q6 38 18 51q12 11 28 25t21 20l160 154q6 6 49 40t47 67q4 34 -16 57q-21 22 -55 22t-60 -19t-30 -56q-5 -36 -31 -35h-62q-35 0 -28 32l2 27q10 68 66 118t130 50h51q80 1 123 -61t33 -143t-154 -212l-118 -102l204 4q33 0 27 -31l-6 -59
q-4 -31 -33 -31z" />
    <glyph glyph-name="three.dnom" horiz-adv-x="653" 
d="M283 0h-52q-73 0 -119 52t-38 120l4 27q2 29 35 28h61q31 0 26 -36t14 -55t48 -19q88 0 98 76q4 31 -15 51t-52 20h-47q-33 0 -29 33l6 45q2 29 33 29h47q33 1 59 23t29 55q4 33 -15 51q-18 18 -54 18t-62 -19t-30 -56q-5 -36 -31 -35h-62q-35 0 -28 32l2 27
q10 68 66 118t130 50h51q80 0 124 -56q44 -57 34 -131t-86 -133q61 -65 53 -135t-64 -125t-136 -55z" />
    </font>
</defs>
</svg>
