<?xml version="1.0" standalone="no"?>
<!DOCTYPE svg PUBLIC "-//W3C//DTD SVG 1.1//EN" "http://www.w3.org/Graphics/SVG/1.1/DTD/svg11.dtd" >
<svg xmlns="http://www.w3.org/2000/svg">
<metadata>
Created by FontPrep 20130207 at Wed Nov  5 19:40:44 2014
 By Connary
Copyright (c) 2014 by Connary Fagen. All rights reserved.
</metadata>
<defs>
<font id="3f0b24508d7214c3dfee52139ba73a25" horiz-adv-x='1024' >
  <font-face 
    font-family="ManifoldCF-ExtraBoldOblique"
    font-weight="800"
    font-style="oblique"
    font-stretch="normal"
    units-per-em="2048"
    panose-1="0 0 9 0 0 0 0 0 0 0"
    ascent="1638"
    descent="-410"
    x-height="963"
    cap-height="1487"
    bbox="-478.765 -1147.5 2276.37 2165.02"
    underline-thickness="102"
    underline-position="-102"
    unicode-range="U+0020-FB02"
  />
<missing-glyph horiz-adv-x="1024" 
d="M102 1239v-1044l349 522zM164 102h696l-348 523zM573 717l349 -522v1044zM512 809l348 522h-696zM0 0v1434h1024v-1434h-1024z" />
    <glyph glyph-name="fi" unicode="fi" horiz-adv-x="1323" 
d="M1059 1487h213q14 0 24 -10t9 -27l-33 -264q0 -14 -5 -18t-22 -5h-213q-16 -1 -25 11t-6 26l31 262q2 25 27 25zM1198 965q14 -1 24 -11t9 -26l-111 -903q-4 -25 -28 -25h-209q-14 0 -25 10q-10 10 -8 27l82 657h-424l-82 -669q-3 -20 -10 -22q-6 -3 -17 -3h-209
q-16 0 -26 11t-8 26l82 657h-113q-15 0 -25 10t-8 27l27 209q2 25 26 25h125l19 143q21 174 121 276t252 103h135q14 0 24 -10t8 -27l-24 -209q-2 -25 -27 -24h-135q-72 0 -84 -97l-18 -155h657z" />
    <glyph glyph-name="fl" unicode="fl" horiz-adv-x="1349" 
d="M662 1487h600q14 0 24 -10t8 -27l-174 -1411q-4 -39 -39 -39h-198q-14 0 -25 10q-10 10 -8 27l145 1180h-352q-72 0 -84 -97l-18 -157h172q14 -1 24 -11t8 -26l-24 -209q-4 -17 -9 -21t-20 -4h-184l-82 -667q-4 -25 -29 -25h-209q-14 0 -24 10t-8 27l82 655h-113
q-14 0 -25 10q-10 10 -8 27l25 209q4 25 28 25h125l19 145q21 174 121 276t252 103z" />
    <glyph glyph-name="f_t.liga" unicode="ft" horiz-adv-x="1480" 
d="M1403 963q14 -1 24 -11t9 -26l-25 -209q-2 -25 -29 -25h-149l-33 -268q-14 -60 -2 -104t84 -46q18 0 30 -9t11 -23l-25 -219q-2 -27 -16 -27q-186 -4 -286 71q-99 75 -81 238l48 387h-455l-82 -667q-4 -25 -29 -25h-209q-14 0 -24 10t-8 27l82 655h-113q-14 0 -25 10
q-10 10 -8 27l25 209q4 25 28 25h125l19 145q21 174 121 276t252 103h135q14 0 24 -10t8 -27l-26 -209q0 -16 -4 -20t-21 -4h-135q-72 0 -84 -97l-18 -157h456l27 219q4 20 9 22t16 2h208q17 0 27 -11t8 -26l-24 -206h135z" />
    <glyph glyph-name=".notdef" horiz-adv-x="1024" 
d="M102 1239v-1044l349 522zM164 102h696l-348 523zM573 717l349 -522v1044zM512 809l348 522h-696zM0 0v1434h1024v-1434h-1024z" />
    <glyph glyph-name=".null" horiz-adv-x="0" 
 />
    <glyph glyph-name="nonmarkingreturn" horiz-adv-x="681" 
 />
    <glyph glyph-name="space" unicode=" " horiz-adv-x="645" 
 />
    <glyph glyph-name="exclam" unicode="!" horiz-adv-x="653" 
d="M156 344h231q15 0 25 -11t6 -28l-33 -280q-4 -25 -29 -25h-229q-16 0 -27 11q-10 12 -8 26l35 282q2 25 29 25zM305 1487h209q35 0 35 -37l-107 -877q-4 -16 -9 -20t-19 -4h-209q-14 0 -25 10q-10 11 -8 27l109 876q2 10 3 18q2 8 21 7z" />
    <glyph glyph-name="quotedbl" unicode="&#x22;" horiz-adv-x="1085" 
d="M782 1487h226q14 0 24 -10t8 -27l-73 -600q-2 -25 -27 -25h-225q-15 1 -25 11t-8 26l74 600q2 25 26 25zM291 1487h225q14 0 24 -10t9 -27l-74 -600q-2 -25 -26 -25h-226q-15 1 -25 11t-8 26l74 600q2 25 27 25z" />
    <glyph glyph-name="numbersign" unicode="#" horiz-adv-x="1220" 
d="M688 815h-92l-18 -143h94zM1104 1085q14 0 24 -10t9 -26l-27 -209q0 -25 -27 -25h-125l-16 -143h111q14 0 24 -10t8 -27l-24 -209q-4 -25 -29 -25h-125l-45 -376q-4 -25 -28 -25h-209q-14 0 -25 10q-10 10 -8 27l45 364h-94l-45 -376q-4 -25 -29 -25h-209q-14 0 -24 10
t-9 27l45 364h-112q-14 1 -24 11t-9 26l25 209q4 17 9 21t19 4h125l19 143h-113q-16 0 -26 11q-9 11 -5 26l25 209q2 25 26 24h125l47 377q2 25 27 25h209q15 0 25 -10t8 -27l-45 -365h94l47 377q2 25 27 25h209q14 0 24 -10t8 -27l-45 -365h113z" />
    <glyph glyph-name="dollar" unicode="$" horiz-adv-x="970" 
d="M705 825q5 51 -15 69t-76 30l-22 -191q101 20 113 92zM383 1208q-6 -41 12 -60t72 -32l22 193q-98 -17 -106 -101zM907 1182h-137q-14 0 -27 11q-12 11 -10 30q8 72 -69 86l-29 -226q289 -68 262 -286q-15 -102 -109 -175t-221 -90l-16 -141q-4 -25 -29 -24h-110
q-14 0 -25 10q-10 10 -8 26l16 129q-115 18 -193 92t-69 187q0 16 27 16h139q15 0 25 -12t8 -37q-4 -45 86 -53l28 225q-283 68 -258 287q14 117 106 187t222 83l16 140q2 25 27 24h111q14 -1 24 -11t8 -26l-16 -131q114 -23 186 -101t60 -202q-2 -18 -25 -18z" />
    <glyph glyph-name="percent" unicode="%" horiz-adv-x="1216" 
d="M973 229h-6q-13 0 -25 -10t-12 -24v-5q-4 -18 14 -18h8q14 0 20 6t19 31q0 14 -2 17t-16 3zM967 401h26q82 0 131 -57t39 -139l-2 -23q-10 -84 -66 -133t-139 -49h-26q-84 0 -132 56t-38 139l2 22q10 82 66 133q57 51 139 51zM383 1315h-6q-13 0 -25 -10t-12 -25v-4
q-4 -18 14 -19h8q14 1 20 7t19 30q0 14 -2 18t-16 3zM377 1487h26q81 0 131 -57t39 -140l-2 -22q-8 -82 -64 -132t-140 -51h-27q-84 1 -132 57t-38 138l2 23q10 82 66 133t139 51zM1063 1487h233q16 0 26 -11t1 -26l-1001 -1425q-20 -25 -43 -25h-234q-16 0 -26 11
q-9 12 -1 26l1004 1425q16 25 41 25z" />
    <glyph glyph-name="ampersand" unicode="&#x26;" horiz-adv-x="1478" 
d="M489 240h168q63 0 115 36l-272 310l-80 -39q-57 -29 -64 -117l-8 -55q-6 -47 26 -91t115 -44zM664 1511h135q170 -1 268 -113t80 -259l-4 -39q-8 -56 -45 -120t-88 -106l-74 -55q-16 -12 -49 -12h-201q-20 0 -32 16q-11 16 3 27l58 33q61 37 105 93t52 111l7 64
q6 55 -21 73t-104 17h-86q-78 -1 -117 -23t-47 -79l-6 -64q-14 -47 -10 -95t57 -108l319 -356l6 51q12 117 82 158l113 80q23 14 37 14h217q19 0 31 -14t-2 -27l-152 -108q-51 -39 -63 -150l-13 -121q-8 -63 -35 -129l211 -237q18 -18 10 -26q-9 -7 -22 -7h-252
q-14 0 -35 20l-51 58q-125 -109 -284 -109h-218q-176 0 -281 122t-83 296l14 105q8 86 55 154t175 138l-41 47q-62 71 -62 151v45l10 85l5 39q18 147 138 253t290 107z" />
    <glyph glyph-name="quotesingle" unicode="'" horiz-adv-x="593" 
d="M291 1487h225q14 0 24 -10t9 -27l-74 -600q-2 -25 -26 -25h-226q-15 1 -25 11t-8 26l74 600q2 25 27 25z" />
    <glyph glyph-name="parenleft" unicode="(" horiz-adv-x="757" 
d="M504 127h28q14 0 24 -10t9 -27l-24 -209q-2 -25 -27 -24h-127q-155 -1 -235 109t-58 282l123 1003q23 175 123 277t252 102h127q14 0 24 -10t9 -27l-25 -209q-4 -16 -9 -20t-20 -4h-28q-102 0 -142 -46t-53 -173l-100 -807q-15 -127 7 -167t122 -40z" />
    <glyph glyph-name="parenright" unicode=")" horiz-adv-x="757" 
d="M297 1360h-29q-14 0 -24 10t-8 27l24 209q4 25 29 24h127q154 0 234 -108t57 -283l-123 -1003q-20 -174 -120 -276t-253 -103h-127q-14 0 -25 10q-10 10 -8 27l27 208q2 10 3 18t21 7h29q101 0 141 46t56 173l98 807q16 127 -6 167q-23 40 -123 40z" />
    <glyph glyph-name="asterisk" unicode="*" horiz-adv-x="808" 
d="M381 932q-16 0 -27 11q-10 11 -8 28l10 65l-45 -49q-33 -16 -43 21l-67 125q-12 31 6 43l96 34l-72 39q-31 20 -18 49l98 127q12 20 37 0l45 -43l15 80q2 25 26 25h152q14 0 25 -11t10 -28l-13 -66l47 50q34 17 43 -21l68 -125q15 -26 -8 -41l-92 -35l71 -41
q31 -18 15 -49l-97 -127q-14 -20 -39 0l-45 43l-12 -80q-2 -25 -27 -24h-151z" />
    <glyph glyph-name="plus" unicode="+" horiz-adv-x="1052" 
d="M922 797q14 -1 24 -11t8 -26l-26 -209q-2 -17 -6 -21t-21 -4h-242l-32 -266q-2 -25 -29 -24h-209q-14 0 -24 10t-9 26l31 254h-231q-16 0 -26 12t-7 25l27 209q4 20 9 22t15 3h248l33 264q2 25 26 24h209q14 0 24 -10t9 -26l-31 -252h230z" />
    <glyph glyph-name="comma" unicode="," horiz-adv-x="536" 
d="M94 326h275q16 0 24 -12t6 -25l-37 -303q-27 -219 -169 -377q-20 -6 -24 -4q-3 2 -17 18l-84 84q-29 29 -15 51q82 59 99 228l18 14h-104q-14 0 -25 10q-10 10 -8 27l33 264q1 25 28 25z" />
    <glyph glyph-name="hyphen" unicode="-" horiz-adv-x="888" 
d="M700 383h-540q-16 0 -27 11q-10 11 -8 26l27 209q2 25 26 24h541q14 0 24 -11t9 -26l-27 -208q-2 -14 -6 -20q-5 -5 -19 -5z" />
    <glyph glyph-name="period" unicode="." horiz-adv-x="546" 
d="M98 336h281q14 0 24 -11t7 -28l-31 -272q-4 -25 -29 -25h-280q-14 0 -25 10q-10 11 -8 27l35 274q2 25 26 25z" />
    <glyph glyph-name="slash" unicode="/" horiz-adv-x="954" 
d="M815 1487h221q16 0 24 -11t3 -26l-799 -1425q-16 -25 -41 -25h-221q-16 0 -26 11q-9 12 -1 26l801 1425q12 25 39 25z" />
    <glyph glyph-name="zero" unicode="0" horiz-adv-x="1212" 
d="M504 250h108q78 0 129 60t64 147l76 590q12 84 -20 138t-109 54h-111q-76 0 -129 -62t-61 -145l-74 -590q-9 -84 21 -138t106 -54zM662 1509h108q176 0 289 -147t88 -350l-70 -549q-23 -203 -163 -343t-318 -140h-109q-177 0 -291 147t-87 350l71 549q27 203 166 343
q140 140 316 140z" />
    <glyph glyph-name="one" unicode="1" horiz-adv-x="962" 
d="M463 1487h219q14 0 24 -10t9 -27l-174 -1425q-4 -25 -29 -25h-209q-14 0 -24 10t-9 27l129 1046l-63 -55q-23 -18 -43 10l-131 148q-20 20 -4 41l291 254q6 6 14 6z" />
    <glyph glyph-name="two" unicode="2" horiz-adv-x="1159" 
d="M668 1503q176 0 290 -119q114 -120 90 -332q-26 -212 -92 -314t-241 -171l-244 -92q-113 -43 -145 -82t-41 -129l614 6q15 0 25 -10t8 -27l-25 -208q-4 -25 -28 -25h-877q-37 0 -31 45q45 329 85 409q64 129 122 170q57 42 119 68l313 129q78 30 102 54q23 24 38 41
t23 90q7 73 9 92q8 70 -22 102t-111 33h-86q-78 0 -124 -43t-56 -119l-4 -35q-2 -25 -27 -24h-211q-14 0 -24 10t-8 27l4 34q23 195 158 306q137 110 311 114h86z" />
    <glyph glyph-name="three" unicode="3" horiz-adv-x="1148" 
d="M477 -18h-86q-168 0 -285 118t-94 297l4 39q4 25 29 25h211q14 0 24 -10t9 -27l-6 -39q-5 -51 27 -92t102 -41h86q84 0 133 49t60 135t-12 128q-24 42 -122 48h-151q-16 0 -26 12t-9 25l28 221q2 10 3 18t22 7h154q100 6 133 53t49 164q6 53 -23 91t-104 38h-88
q-70 0 -120 -52t-56 -112l-7 -39q-2 -25 -26 -24h-211q-14 0 -25 10q-10 10 -8 27l4 39q25 184 165 303t304 118h88q170 -1 283 -121q112 -120 92 -283t-86 -245t-194 -110q115 -27 171 -122q57 -95 35 -265q-22 -171 -161 -277t-316 -106z" />
    <glyph glyph-name="four" unicode="4" horiz-adv-x="1128" 
d="M649 963h209q14 -1 24 -11t9 -26l-23 -176h84q14 0 24 -10t9 -27l-24 -209q-4 -25 -29 -25h-96l-56 -454q-4 -25 -28 -25h-209q-14 0 -25 10q-10 10 -8 27l55 442h-540q-27 0 -33 27l-10 69q-8 35 4 54l657 862q14 18 41 18h248q20 0 28 -14t-2 -35l-520 -710h160l23 188
q4 25 28 25z" />
    <glyph glyph-name="five" unicode="5" horiz-adv-x="1163" 
d="M428 932h162q202 0 312 -134t71 -390q-33 -207 -172 -317t-322 -109h-86q-178 0 -291 116t-90 301l4 33q2 25 29 25h211q16 1 24 -11t7 -26l-4 -33q-7 -75 19 -105t112 -30h86q90 0 137 41t67 157t-14 158q-35 43 -133 43h-33q-162 0 -207 -43l-219 4q-16 0 -26 12t-9 25
l121 813q2 25 27 25h786q15 0 25 -10t8 -27l-26 -209q0 -16 -4 -20t-21 -4h-561l-51 -312q27 27 61 27z" />
    <glyph glyph-name="six" unicode="6" horiz-adv-x="1163" 
d="M420 252h82q68 0 125 41t73 139q31 129 10 191q-22 61 -126 61h-29q-150 0 -200 -60t-58 -225q-4 -92 44 -120q48 -27 79 -27zM676 1511q178 0 289 -125t88 -311l-4 -35q-4 -25 -29 -24h-211q-14 0 -25 10q-10 10 -8 27l4 34q18 154 -125 154h-86q-57 0 -108 -40
t-66 -116q-6 -23 -39 -159q35 20 217 20h25q221 0 318 -143t57 -395q-33 -207 -171 -317t-321 -109h-82q-178 0 -277 118t-91 328q6 311 88 682q41 174 164 286t303 115h90z" />
    <glyph glyph-name="seven" unicode="7" horiz-adv-x="1165" 
d="M160 1487h919q15 0 25 -10t8 -27l-20 -164v-2l-9 -35q-608 -664 -821 -1280q-2 -4 -37 6l-207 48q-18 4 -14 55q109 319 270 582q162 263 437 561l-570 -4q-14 0 -24 10t-8 26l24 209q2 25 27 25z" />
    <glyph glyph-name="eight" unicode="8" horiz-adv-x="1173" 
d="M618 621h-176q-57 -1 -100 -47t-51 -107l-10 -88q-5 -57 21 -92t83 -35h174q57 0 101 42t49 99l12 88q8 61 -20 101t-83 39zM489 915h127q57 0 99 37q41 37 47 92l12 91q6 51 -22 79t-86 27h-117q-57 0 -101 -35t-51 -84l-8 -92q-18 -115 100 -115zM549 -18h-195
q-168 0 -267 108t-79 262l10 94q14 109 68 197t143 123q-68 29 -94 119q-27 90 -12 213l6 61q18 152 129 252t277 100h186q164 0 255 -106t73 -258l-9 -62q-32 -268 -186 -327q76 -33 110 -126t21 -198l-10 -94q-20 -156 -139 -257t-287 -101z" />
    <glyph glyph-name="nine" unicode="9" horiz-adv-x="1165" 
d="M651 1241h-82q-68 0 -126 -41t-72 -139q-31 -129 -10 -191q22 -61 126 -61h29q150 -1 200 59t58 226q2 59 -32 103q-33 44 -91 44zM395 -18q-178 0 -289 124t-88 312l5 35q4 25 28 24h211q14 0 24 -10t9 -27l-6 -34q-16 -154 127 -154h86q55 0 106 40t68 116
q14 45 37 159q-33 -20 -215 -20h-25q-221 0 -318 143t-57 395q33 207 171 317t321 109h82q178 -1 277 -119t91 -327q-6 -311 -88 -682q-41 -173 -164 -285t-303 -116h-90z" />
    <glyph glyph-name="colon" unicode=":" horiz-adv-x="649" 
d="M150 336h280q14 0 24 -11t7 -28l-31 -272q-4 -25 -29 -25h-280q-14 0 -25 10q-10 11 -8 27l35 274q2 25 27 25zM227 963h279q16 1 26 -11t9 -26l-35 -275q-2 -25 -27 -24h-280q-16 0 -26 12q-9 13 -5 27l31 272q4 25 28 25z" />
    <glyph glyph-name="semicolon" unicode=";" horiz-adv-x="647" 
d="M121 0q-14 0 -25 10q-10 10 -8 27l33 266q2 25 29 25h280q37 0 30 -56t-36 -290t-186 -400q-15 -19 -41 19l-86 92q-27 33 -15 51q57 41 78 96q20 55 31 144l20 16h-104zM227 963h279q16 1 26 -11t9 -26l-35 -275q-2 -25 -27 -24h-280q-16 0 -26 12q-9 13 -5 27l31 272
q4 25 28 25z" />
    <glyph glyph-name="less" unicode="&#x3c;" horiz-adv-x="983" 
d="M901 901l-24 -217q-3 -8 -6 -24t-15 -21l-360 -156l307 -159q25 -10 20 -54l-26 -217q-2 -23 -27 -6l-625 334q-41 23 -31 108t44 101l708 336q12 8 25 -2q12 -11 10 -23z" />
    <glyph glyph-name="equal" unicode="=" horiz-adv-x="929" 
d="M754 324h-623q-14 0 -25 10q-10 10 -8 26l23 185q2 25 26 24h623q14 0 24 -11t9 -28l-23 -184q-2 -16 -6 -19t-20 -3zM793 641h-623q-14 0 -25 10q-10 10 -8 27l23 184q2 25 26 25h623q15 0 25 -10t8 -27l-23 -184q-1 -25 -26 -25z" />
    <glyph glyph-name="greater" unicode="&#x3e;" horiz-adv-x="983" 
d="M90 283l2 27q0 11 14 18l361 155l-307 160q-25 12 -21 53l27 217q2 23 27 7l626 -334q39 -23 30 -108t-44 -101l-707 -336q-14 -8 -26 2t-11 23z" />
    <glyph glyph-name="question" unicode="?" horiz-adv-x="1015" 
d="M311 344h230q14 0 24 -11t6 -28l-32 -280q-3 -20 -10 -23q-7 -2 -17 -2h-231q-14 0 -25 10q-10 11 -8 27l35 282q2 25 28 25zM586 1513h86q174 -1 279 -121q125 -144 66 -413q-10 -47 -63 -124q-32 -51 -225 -132l-44 -16q-78 -28 -83 -78l-6 -56q-4 -25 -29 -24h-209
q-14 0 -24 10t-8 27l14 104q12 106 70 154t256 133q57 23 74 47t24 78q20 141 -113 141h-86q-69 0 -109 -52t-48 -116l-7 -39q-2 -25 -26 -24h-211q-14 0 -25 10q-10 10 -8 27l4 38q27 201 155 313t296 113z" />
    <glyph glyph-name="at" unicode="@" horiz-adv-x="1429" 
d="M653 494h21q61 0 102 28t37 68l4 39h-131q-76 0 -82 -78q-4 -27 12 -42t37 -15zM782 1511h95q239 0 375 -140t110 -363l-66 -531q-27 -205 -170 -205h-125q-74 0 -108 70q-14 -24 -91 -48t-149 -24h-20q-111 0 -179 90t-52 220q15 130 87 200t230 70h127l2 24
q8 47 -15 74q-24 27 -59 27h-35q-86 0 -153 -60q-14 -6 -30 -1q-15 5 -17 18l-62 110q-8 37 -4 48q127 106 297 106h49q129 0 194 -86t42 -256l-19 -162l-12 -78l-6 -69q-6 -35 0 -37t14 -2q45 0 53 53l50 420q23 163 -61 237t-257 74q-174 0 -289 -82t-133 -239l-59 -461
q-20 -164 71 -239t263 -74h69q82 0 156 53q25 8 37 -1t8 -28l-20 -174q-2 -23 -17 -37q-104 -35 -178 -35h-119q-250 1 -386 139t-107 380l65 514q28 233 192 369t412 136z" />
    <glyph glyph-name="A" unicode="A" horiz-adv-x="1230" 
d="M711 618l-47 312l-125 -312h172zM1047 0h-209q-33 0 -39 39l-47 309h-324l-129 -321q-12 -27 -37 -27h-211q-16 0 -24 11t-2 28l577 1427q10 27 39 27h164q15 1 25 -11t12 -28l225 -1427q2 -15 -2 -21t-18 -6z" />
    <glyph glyph-name="B" unicode="B" horiz-adv-x="1196" 
d="M586 270q98 0 149 41t66 140q10 92 -29 133t-131 41h-231l-43 -355h219zM659 895q90 0 131 43q40 43 50 126t-20 118t-101 35h-234l-41 -322h215zM616 0h-510q-18 0 -28 12t-8 31l172 1413q4 31 34 31h494q176 1 271 -103t73 -288q-32 -250 -184 -338q78 -40 112 -140
t19 -245q-45 -373 -445 -373z" />
    <glyph glyph-name="C" unicode="C" horiz-adv-x="1159" 
d="M801 481h209q37 0 30 -45q-27 -205 -158.5 -334t-316.5 -129h-94q-193 0 -300.5 138.5t-80.5 359.5l70 557q27 219 161 350t326 131h94q186 0 290 -136t83 -351q-2 -16 -29 -16h-208q-39 0 -33 45q14 102 -12.5 145t-110.5 43h-94q-92 0 -138.5 -52t-60.5 -171l-68 -557
q-14 -121 12.5 -168t116.5 -47h95q84 0 129 53t59 168q2 16 29 16z" />
    <glyph glyph-name="D" unicode="D" horiz-adv-x="1193" 
d="M719 1217h-234l-114 -947h217q92 0 146 47t67 170l65 525q16 125 -19 165q-36 40 -128 40zM272 1487h490q170 -1 284 -147t89 -341l-64 -524q-25 -195 -168 -335t-311 -140h-490q-14 0 -24 10t-8 27l176 1425q1 25 26 25z" />
    <glyph glyph-name="E" unicode="E" horiz-adv-x="1138" 
d="M883 885q16 0 26.5 -11.5t8.5 -25.5l-27 -209q-2 -9 -3 -17t-22 -8h-456l-43 -344h575q14 0 24.5 -10t8.5 -27l-25 -208q-4 -25 -28 -25h-822q-14 0 -24 10t-8 27l176 1425q2 25 26 25h822q14 0 24 -10.5t8 -26.5l-26 -209q0 -16 -4 -20t-21 -4h-588l-43 -332h441z" />
    <glyph glyph-name="F" unicode="F" horiz-adv-x="1142" 
d="M897 864q17 0 27 -11t8 -26l-27 -209q-2 -25 -26 -24h-457l-68 -569q-4 -25 -28 -25h-209q-14 0 -25 10q-10 10 -8 27l176 1425q2 25 27 25h821q14 0 24 -10t9 -27l-27 -209q0 -16 -4 -20t-20 -4h-588l-45 -353h440z" />
    <glyph glyph-name="G" unicode="G" horiz-adv-x="1171" 
d="M635 770h409q16 0 26.5 -11t8.5 -26l-35 -291q-27 -209 -158.5 -339t-318.5 -130h-98q-193 0 -300.5 140.5t-80.5 359.5l70 555q27 219 161 350t326 131h98q186 0 290 -136t83 -351q-2 -16 -29 -16h-208q-39 0 -33 45q14 102 -12.5 145t-110.5 43h-98q-92 0 -138.5 -52
t-60.5 -171l-68 -557q-14 -121 12.5 -168t116.5 -47h99q84 0 128 52t60 161l4 43h-162q-14 0 -24 10t-8 27l24 208q2 25 27 25z" />
    <glyph glyph-name="H" unicode="H" horiz-adv-x="1206" 
d="M942 1487h209q15 0 25 -10t8 -27l-174 -1425q-4 -25 -29 -25h-209q-14 0 -24 10t-9 27l66 536h-402l-67 -548q-4 -25 -29 -25h-209q-14 0 -24 10t-8 27l176 1425q2 25 26 25h209q15 0 25 -10t8 -27l-74 -606h404l75 618q2 25 27 25z" />
    <glyph glyph-name="I" unicode="I" horiz-adv-x="612" 
d="M262 1487h213q15 0 25 -10t8 -27l-174 -1425q-3 -20 -10 -22q-6 -3 -17 -3h-215q-14 0 -24 10t-9 27l177 1425q2 25 26 25z" />
    <glyph glyph-name="J" unicode="J" horiz-adv-x="1169" 
d="M473 256h53q213 0 244 242l117 964q2 25 26 25h209q14 0 24 -10t9 -27l-121 -989q-18 -153 -97 -265q-148 -209 -405 -210h-77q-131 0 -251 79t-151 203q-10 21 10 35l170 105q11 8 17 0t14 -33q45 -67 90 -93t119 -26z" />
    <glyph glyph-name="K" unicode="K" horiz-adv-x="1245" 
d="M1081 0h-250q-33 0 -51 33l-311 612l-74 -74l-67 -546q-4 -25 -29 -25h-209q-14 0 -24.5 10t-8.5 27l176 1425q2 25 27 25h209q14 0 24.5 -10.5t8.5 -26.5l-70 -559l440 571q20 25 39 25h265q16 0 22 -17.5t-6 -37.5l-498 -617l393 -770q29 -45 -6 -45z" />
    <glyph glyph-name="L" unicode="L" horiz-adv-x="1110" 
d="M926 270q14 0 24.5 -10t7.5 -27l-24 -208q-4 -25 -29 -25h-821q-14 0 -24.5 10t-8.5 27l176 1425q2 25 27 25h209q14 0 24.5 -10.5t8.5 -26.5l-146 -1180h576z" />
    <glyph glyph-name="M" unicode="M" horiz-adv-x="1515" 
d="M1178 1487h270q14 0 24 -10t9 -27l-174 -1425q-4 -25 -29 -25h-209q-14 0 -25 10q-10 10 -8 27l109 860l-354 -872q-12 -25 -39 -25h-113q-31 0 -39 37l-141 860l-109 -872q-4 -25 -28 -25h-209q-14 0 -25 10q-10 10 -8 27l176 1425q2 25 27 25h270q33 0 41 -37l154 -934
l391 946q10 25 39 25z" />
    <glyph glyph-name="N" unicode="N" horiz-adv-x="1304" 
d="M1026 1487h209q14 0 24.5 -10.5t8.5 -26.5l-174 -1425q-4 -25 -29 -25h-217q-29 0 -35 29l-367 868l-108 -872q-4 -25 -29 -25h-209q-14 0 -24 10t-8 27l176 1425q2 25 26 25h217q29 0 37 -29l367 -868l108 872q2 25 27 25z" />
    <glyph glyph-name="O" unicode="O" horiz-adv-x="1212" 
d="M504 250h108q78 0 129 60t64 147l76 590q12 84 -20 138t-109 54h-111q-76 0 -129 -62t-61 -145l-74 -590q-9 -84 21 -138t106 -54zM662 1509h108q176 0 289 -147t88 -350l-70 -549q-23 -203 -163 -343t-318 -140h-109q-177 0 -291 147t-87 350l71 549q27 203 166 343
q140 140 316 140z" />
    <glyph glyph-name="P" unicode="P" horiz-adv-x="1163" 
d="M844 1120q0 64 -29 78q-12 6 -23 12t-79 7h-232l-39 -324h215q75 0 123 36t60 142q4 27 4 49zM268 1487h488q182 0 279 -121t73 -318q-24 -198 -142 -312t-300 -113h-256l-74 -598q-3 -20 -10 -22q-6 -3 -17 -3h-209q-16 0 -26 11t-8 26l176 1425q1 25 26 25z" />
    <glyph glyph-name="Q" unicode="Q" horiz-adv-x="1202" 
d="M504 250h108q18 0 27 2l-16 18q-25 25 -7 45l166 148q10 10 25 4l74 580q12 84 -20 138t-109 54h-111q-76 0 -129 -62t-61 -145l-74 -590q-9 -84 21 -138t106 -54zM487 -20q-177 0 -291 147t-87 350l71 549q27 203 166 343t316 140h108q176 0 289 -147t88 -350l-70 -549
q-10 -109 -69 -219l71 -82q25 -27 6 -45l-165 -146q-23 -18 -41 9l-58 65q-111 -66 -225 -65h-109z" />
    <glyph glyph-name="R" unicode="R" horiz-adv-x="1161" 
d="M662 893q76 0 121.5 36t60.5 142q4 27 4 48.5t-4 35.5t-8.5 25.5t-16.5 17.5t-19 10q-16 9 -52 9h-263l-39 -324h216zM967 0h-209q-14 0 -24.5 11.5t-8.5 25.5l37 291q0 8 5 39.5t7 53t2 55.5q0 52 -28.5 99.5t-106.5 47.5h-227l-74 -598q-4 -25 -29 -25h-209
q-14 0 -24 10t-8 27l176 1425q2 25 26 25h488q182 0 279.5 -121t73.5 -315.5t-138 -309.5q90 -147 65 -346l-45 -370q-2 -25 -28 -25z" />
    <glyph glyph-name="S" unicode="S" horiz-adv-x="1173" 
d="M627 1518h106q166 0 280.5 -128t92.5 -309l-4 -41q-2 -14 -6 -18t-21 -4h-211q-14 0 -24.5 10t-8.5 27l5 39q8 68 -26 110.5t-95 42.5h-107q-61 0 -106 -49q-45 -48 -50 -96t-9.5 -83.5t25.5 -68t97 -45.5l119 -18q197 -31 288 -165t67 -324t-163 -304t-313 -114h-94
q-170 0 -288 122.5t-95 296.5l6 62q2 14 6 18t21 4h211q16 0 25.5 -11t6.5 -26l-4 -61q-4 -59 32 -97t99 -38h95q70 0 124 47t60 105t7 99.5t-28.5 73t-95.5 41.5l-114 23q-207 39 -292 168t-64 311t148.5 291t297.5 109z" />
    <glyph glyph-name="T" unicode="T" horiz-adv-x="1177" 
d="M246 1487h899q16 0 26.5 -11.5t8.5 -25.5l-27 -209q-4 -20 -9 -22t-16 -2h-321l-145 -1192q-4 -25 -29 -25h-209q-14 0 -24.5 10t-8.5 27l146 1180h-308q-16 0 -26 11t-8 25l26 209q2 10 3 18q2 8 22 7z" />
    <glyph glyph-name="U" unicode="U" horiz-adv-x="1191" 
d="M909 1489h209q16 0 26 -11t9 -26l-123 -1010q-25 -198 -163 -326t-335 -128h-53q-197 0 -307 134t-88 333l125 1009q2 10 3 18t21 7h209q16 0 26 -11t9 -26l-119 -960q-29 -233 142 -234h53q102 0 152 74q49 74 61 172l119 960q2 10 3 18q2 8 21 7z" />
    <glyph glyph-name="V" unicode="V" horiz-adv-x="1179" 
d="M180 1487h213q33 0 39 -39l119 -977l369 989q8 27 32 27h213q17 0 27 -11t4 -28l-571 -1421q-10 -27 -39 -27h-162q-31 0 -39 39l-221 1421q-4 16 -1 22t17 5z" />
    <glyph glyph-name="W" unicode="W" horiz-adv-x="1878" 
d="M1665 1487h211q16 0 24 -10t5 -25l-471 -1427q-8 -25 -39 -25h-160q-31 0 -37 37l-203 967l-438 -979q-10 -25 -39 -25h-160q-35 0 -39 37l-122 1419q-4 31 22 31h211q33 0 37 -37l55 -926l400 934q12 29 41 29h163q37 0 43 -33l168 -930l291 934q6 29 37 29z" />
    <glyph glyph-name="X" unicode="X" horiz-adv-x="1134" 
d="M221 1480q0 8 19 7h221q29 0 39 -37l129 -393l231 405q14 25 39 25h221q16 0 26 -11t1 -26l-412 -719l232 -706q6 -22 0 -24q-6 -1 -15 -1h-221q-31 0 -41 37l-127 391l-231 -403q-16 -25 -39 -25h-221q-16 0 -27 11q-10 11 -2 26l412 719l-230 706q-4 10 -4 18z" />
    <glyph glyph-name="Y" unicode="Y" horiz-adv-x="1097" 
d="M891 1487h227q16 0 26 -11t3 -26l-475 -797l-78 -628q-4 -25 -29 -25h-209q-14 0 -24 10t-8 27l77 616l-270 809q-8 20 -3 22t15 3h228q33 0 41 -37l153 -512l289 524q10 25 37 25z" />
    <glyph glyph-name="Z" unicode="Z" horiz-adv-x="1107" 
d="M932 270q14 0 24 -10t9 -27l-25 -208q-4 -25 -29 -25h-841q-14 0 -25 10q-10 10 -8 27l12 90q0 33 6 43l656 1047h-490q-14 0 -24 10t-9 26l25 209q2 25 27 25h841q14 0 25 -10q10 -11 8 -27l-10 -90q0 -25 -6 -43l-656 -1047h490z" />
    <glyph glyph-name="bracketleft" unicode="[" horiz-adv-x="743" 
d="M289 1630h416q14 0 24 -10t8 -27l-24 -209q-3 -16 -9 -20t-20 -4h-182l-152 -1233h168q14 0 24 -10t9 -27l-25 -209q-2 -25 -26 -24h-422q-31 8 -27 37l209 1712q4 24 29 24z" />
    <glyph glyph-name="backslash" unicode="\" horiz-adv-x="952" 
d="M823 0h-221q-29 0 -39 37l-448 1425q-6 22 0 24q6 1 14 1h221q31 0 39 -37l451 -1425q7 -18 1 -22q-7 -3 -18 -3z" />
    <glyph glyph-name="bracketright" unicode="]" horiz-adv-x="743" 
d="M289 1630h422q31 -8 26 -37l-211 -1712q-2 -25 -26 -24h-416q-14 0 -25 10q-10 10 -8 27l27 208q2 10 3 18t21 7h185l149 1233h-168q-14 0 -24 10t-8 27l24 209q4 24 29 24z" />
    <glyph glyph-name="asciicircum" unicode="^" horiz-adv-x="950" 
d="M877 932h-222q-31 0 -41 37l-65 159l-111 -172q-8 -18 -14 -21t-23 -3h-221q-16 0 -26 11t-2 26l329 493q16 25 39 25h123q27 0 39 -37l207 -494q8 -19 3 -22q-5 -2 -15 -2z" />
    <glyph glyph-name="underscore" unicode="_" horiz-adv-x="1234" 
d="M999 0h-929q-14 0 -25 10q-10 10 -8 27l24 209q3 16 9 20t20 4h930q14 0 24 -11t9 -26l-25 -208q-4 -25 -29 -25z" />
    <glyph glyph-name="grave" unicode="`" horiz-adv-x="645" 
d="M602 1186h-188q-29 0 -41 43l-133 379q-8 18 -6 24q3 6 20 6h213q33 0 41 -43l108 -378q10 -31 -14 -31z" />
    <glyph glyph-name="a" unicode="a" horiz-adv-x="946" 
d="M336 268h98q80 0 111 31l8 76h-193q-14 -1 -33 -17t-23 -35t6 -37t26 -18zM780 0h-227q-31 0 -39 39q-76 -41 -137 -41h-76q-113 0 -193 96t-64 229t114 213t231 80h195l2 21q4 33 -14 47t-60 14h-94q-64 0 -133 -43q-25 -10 -41 15l-97 141q-20 31 0 45q141 111 332 111
h88q127 1 215 -105t70 -258l-66 -551q-2 -13 1 -33t-7 -20z" />
    <glyph glyph-name="b" unicode="b" horiz-adv-x="1011" 
d="M584 692h-72q-70 0 -94 -96l-29 -234l6 5q-12 -59 -2 -77t53 -20h72q84 0 94 80l31 256q10 86 -59 86zM532 963h76q142 0 232 -116t73 -257l-30 -250q-18 -136 -134 -238t-247 -102h-76q-41 0 -82 12q-4 -12 -25 -12h-208q-14 0 -25 10q-10 10 -8 27l176 1425q2 25 27 25
h208q15 0 25 -10t8 -27l-61 -496q32 9 71 9z" />
    <glyph glyph-name="c" unicode="c" horiz-adv-x="985" 
d="M494 698q-37 0 -70 -30.5t-37 -75.5l-29 -234q-10 -90 72 -90h92q25 0 48.5 14.5t34.5 28t40 45.5q18 20 47 -12l133 -131q31 -31 11 -51q-57 -53 -92 -82t-105 -55.5t-152 -26.5h-73q-154 0 -248 111.5t-78 261.5l29 233q18 150 134 257.5t269 107.5h74q133 0 227 -95.5
t84 -211.5q-3 -23 -26 -23h-211q-23 0 -30.5 30.5t-23.5 30.5l-41 -2h-79z" />
    <glyph glyph-name="d" unicode="d" horiz-adv-x="1019" 
d="M418 270h69q90 0 91 109l4 -4l32 256q-6 61 -61 61h-70q-39 0 -65 -30t-31 -70l-33 -256q-4 -38 8 -52t56 -14zM743 1487h209q14 0 24 -10t9 -27l-174 -1425q-3 -20 -10 -22q-6 -3 -17 -3h-209q-14 0 -24 10q-47 -10 -82 -10h-76q-133 0 -228 108t-79 244l31 250
q16 141 128 251t255 110h73q41 0 80 -13l64 512q1 25 26 25z" />
    <glyph glyph-name="e" unicode="e" horiz-adv-x="993" 
d="M571 698h-77q-31 0 -67 -25.5t-38 -54.5l-2 -10h250l4 27q4 27 -16.5 45t-53.5 18zM520 969h78q135 0 231.5 -110.5t77.5 -264.5l-16 -141q-6 -31 -19.5 -43.5t-44.5 -12.5h-467l-2 -43q-12 -86 74 -86h90q47 0 84 46q6 8 19.5 23t17.5 21q20 16 47 -14l133 -131
q25 -23 13 -51q-57 -53 -92 -82t-104 -55.5t-148 -26.5h-78q-154 0 -248 111.5t-78 261.5l29 233q18 150 133.5 257.5t269.5 107.5z" />
    <glyph glyph-name="f" unicode="f" horiz-adv-x="751" 
d="M662 1487h135q14 0 24 -10t8 -27l-26 -209q0 -16 -4 -20t-21 -4h-135q-72 0 -84 -97l-18 -157h172q14 -1 24 -11t8 -26l-24 -209q-4 -17 -9 -21t-20 -4h-184l-82 -667q-4 -25 -29 -25h-209q-14 0 -24 10t-8 27l82 655h-113q-14 0 -25 10q-10 10 -8 27l25 209q4 25 28 25
h125l19 145q21 174 121 276t252 103z" />
    <glyph glyph-name="g" unicode="g" horiz-adv-x="1001" 
d="M488 698q-40 0 -74 -30t-37 -76l-29 -234q-14 -90 70 -90h98q35 0 53 21l49 395q0 4 2 7q0 3 -2 5l-3 3t-7 1h-14l-25 -2h-81zM758 963h133q14 -1 24 -11t9 -26l-127 -1035q-14 -115 -124 -207t-243 -94h-51q-115 0 -199 58t-127 155q-14 31 13 47l145 87q27 14 67 -31
t93 -45h78q70 0 75 63l8 70q-33 4 -55 4h-78q-153 0 -245 111t-76 262l28 233q18 154 134 259t268 106h65q68 0 119 -41l4 -10q2 25 23 35t39 10z" />
    <glyph glyph-name="h" unicode="h" horiz-adv-x="1044" 
d="M537 963h75q144 0 234 -116t74 -257l-70 -565q-4 -25 -29 -25h-209q-14 0 -24 10t-8 27l69 571q10 84 -53 84h-84q-72 0 -88 -100l-70 -567q-4 -25 -28 -25h-209q-14 0 -25 10q-10 10 -8 27l176 1425q2 10 3 18t22 7h209q16 0 26 -11t8 -26l-61 -496q33 9 70 9z" />
    <glyph glyph-name="i" unicode="i" horiz-adv-x="526" 
d="M193 965h208q15 -1 25 -11t8 -26l-110 -903q-4 -25 -29 -25h-209q-14 0 -25 10q-10 11 -8 27l113 903q2 25 27 25zM262 1487h213q15 0 25 -10t8 -27l-33 -264q0 -14 -5 -18t-21 -5h-213q-16 -1 -26 11t-5 26l31 262q2 25 26 25z" />
    <glyph glyph-name="j" unicode="j" horiz-adv-x="591" 
d="M162 965h209q14 -1 24 -11t8 -26l-131 -1061q-16 -143 -109 -251t-229 -144q-35 -7 -43 32l-67 191q-8 27 10 39q61 16 113 62q51 46 59 104l129 1040q2 25 27 25zM240 1487h213q14 0 24 -10t8 -27l-32 -264q1 -14 -5 -18t-22 -5h-213q-15 -1 -25 11t-6 26l31 262
q2 25 27 25z" />
    <glyph glyph-name="k" unicode="k" horiz-adv-x="1038" 
d="M655 963h242q18 0 25.5 -22.5t-11.5 -47.5l-360 -352l328 -498q27 -43 -7 -43h-206q-29 0 -52 33l-233 305l-37 -299q-2 -25 -11 -32t-26 -7h-198q-16 0 -26.5 11.5t-8.5 25.5l174 1411q4 39 43 39h194q14 0 24.5 -10.5t8.5 -26.5l-84 -684l176 176q18 21 45 21z" />
    <glyph glyph-name="l" unicode="l" horiz-adv-x="598" 
d="M315 1487h195q14 0 24.5 -10.5t8.5 -26.5l-174 -1411q-2 -25 -11.5 -32t-25.5 -7h-201q-14 0 -24.5 10.5t-8.5 26.5l174 1411q4 39 43 39z" />
    <glyph glyph-name="m" unicode="m" horiz-adv-x="1701" 
d="M1157 963h76q158 0 251 -114t75 -259l-70 -565q-4 -25 -29 -25h-209q-14 0 -24 10t-8 27l69 565q6 49 -17 70q-24 20 -57 20h-108q-39 0 -72 -30t-43 -87l-67 -550q-4 -25 -29 -25h-209q-14 0 -24 10t-9 27l70 565q12 90 -76 90h-108q-39 0 -72 -28t-41 -86l-68 -553
q-4 -25 -28 -25h-209q-14 0 -25 10q-10 10 -8 27l68 551v2l43 348q4 25 28 25h209q29 0 33 -29q63 29 123 29h76q133 0 225 -89q123 89 264 89z" />
    <glyph glyph-name="n" unicode="n" horiz-adv-x="1060" 
d="M582 963h92q158 0 223.5 -104.5t44.5 -268.5l-70 -565q-4 -25 -28 -25h-209q-14 0 -24.5 10t-8.5 27l70 565q4 43 -14.5 66.5t-53.5 23.5h-94q-37 0 -65.5 -33.5t-34.5 -83.5l-68 -550q-4 -25 -29 -25h-209q-14 0 -24 10t-8 27l110 901q4 25 29 25h209q14 0 24.5 -10.5
t8.5 -26.5l-7 -31q8 25 51.5 46.5t84.5 21.5z" />
    <glyph glyph-name="o" unicode="o" horiz-adv-x="1054" 
d="M584 698h-88q-49 0 -78 -32t-33 -70l-29 -242q-12 -86 74 -86h90q49 0 77 30t32 69l28 241q16 90 -73 90zM520 969h80q154 0 250 -110t78 -263l-29 -242q-20 -154 -135 -255t-268 -101h-80q-154 0 -251 108t-79 261l29 241q23 154 137 258t268 103z" />
    <glyph glyph-name="p" unicode="p" horiz-adv-x="1030" 
d="M582 692h-70q-70 0 -94 -96l-29 -234l6 5q-12 -59 -2 -77t53 -20h70q86 0 94 80l31 256q12 86 -59 86zM532 963h74q142 0 232 -116t73 -257l-30 -250q-18 -136 -133 -238t-246 -102h-76q-41 0 -80 12l-49 -397q-2 -25 -27 -25h-209q-14 0 -24 10t-8 27l159 1311
q4 25 29 25h209q18 0 29 -17q42 17 77 17z" />
    <glyph glyph-name="q" unicode="q" horiz-adv-x="997" 
d="M387 270h78q90 0 88 109l6 -6l31 248q0 72 -60 71h-77q-39 0 -66 -30t-31 -70l-32 -256q-4 -38 8 -52t55 -14zM657 963h209q14 -1 24 -11t9 -26l-162 -1311q-2 -25 -26 -25h-209q-14 0 -24 10t-9 27l47 381q-33 -8 -72 -8h-82q-133 0 -228 108t-79 244l31 250
q16 141 128 251t255 110h82q39 0 80 -19q1 19 26 19z" />
    <glyph glyph-name="r" unicode="r" horiz-adv-x="880" 
d="M549 692h-47q-41 0 -67.5 -33.5t-35.5 -87.5l-65 -546q-4 -25 -29 -25h-209q-14 0 -24.5 10t-8.5 27l111 901q4 25 29 25h209q14 0 24 -10.5t8 -26.5l-6 -31q8 25 52.5 46.5t84.5 21.5h89q119 0 178 -74q35 -14 10 -39l-174 -162q-14 -12 -37 6q-16 2 -44 0t-48 -2z" />
    <glyph glyph-name="s" unicode="s" horiz-adv-x="966" 
d="M564 700h-118q-51 0 -57 -22q0 -2 -4 -6q-27 -45 92 -60q203 -20 287 -103t63 -251q-16 -119 -124.5 -193.5t-264.5 -74.5h-49q-135 0 -229 81t-92 201q0 16 24 17h213q16 0 45 -33q8 -2 21.5 1t27.5 3h90q68 0 72 39v2q18 23 -33 35l-55 10q-205 16 -288 102.5
t-64.5 234.5t121 218t262.5 70h37q143 0 240.5 -88t80.5 -221q-2 -18 -28 -19h-207q-41 0 -35 43q0 14 -28 14z" />
    <glyph glyph-name="t" unicode="t" horiz-adv-x="729" 
d="M649 963q16 0 26.5 -10.5t8.5 -26.5l-25 -209q-2 -25 -28 -25h-150l-32 -268q-14 -61 -2 -104.5t83 -45.5q18 0 30.5 -9t10.5 -23l-24 -219q-2 -27 -17 -27q-186 -4 -285.5 70.5t-80.5 238.5l47 387h-86q-16 0 -25.5 10.5t-7.5 24.5l23 207q2 29 30 29h101l26 219
q4 20 9.5 22t15.5 2h209q16 0 26.5 -11t8.5 -26l-25 -206h133z" />
    <glyph glyph-name="u" unicode="u" horiz-adv-x="1081" 
d="M846 0h-209q-14 0 -25 10q-10 10 -8 27l4 31q-10 -24 -53 -46t-82 -22h-92q-157 0 -223 105t-45 270l69 563q4 16 9 20t20 5h209q14 -1 24 -11t9 -26l-70 -566q-4 -42 15 -66t53 -24h94q39 0 67 35t33 84l70 549q3 18 10 22q6 3 16 3h209q16 1 26 -11t9 -26l-111 -901
q-4 -17 -9 -21t-19 -4z" />
    <glyph glyph-name="v" unicode="v" horiz-adv-x="911" 
d="M350 963q33 0 37 -41l45 -529l176 541q10 29 37 29h213q16 -1 26 -13t1 -28l-373 -895q-10 -27 -39 -27h-162q-31 0 -39 39l-153 895q-7 27 18 29h213z" />
    <glyph glyph-name="w" unicode="w" horiz-adv-x="1396" 
d="M1128 963h213q15 -1 25 -13t2 -28l-348 -895q-10 -27 -39 -27h-168q-31 0 -39 39l-78 487l-202 -499q-10 -27 -37 -27h-168q-31 0 -39 39l-131 895q-7 27 18 29h213q33 0 37 -41l53 -523l178 535q10 29 37 29h168q33 0 37 -41l49 -523l183 535q9 29 36 29z" />
    <glyph glyph-name="x" unicode="x" horiz-adv-x="976" 
d="M670 963h225q19 -1 27 -15t-2 -28l-304 -455l187 -434q12 -31 -19 -31h-223q-29 0 -43 41l-72 170l-122 -182q-20 -29 -48 -29h-225q-18 0 -26 14t2 29l301 446l-189 443q-16 31 13 31h225q31 0 43 -41l76 -179l129 191q20 29 45 29z" />
    <glyph glyph-name="y" unicode="y" horiz-adv-x="1134" 
d="M862 963h221q19 -1 25 -15t-2 -28l-707 -1301q-14 -29 -43 -29h-221q-18 0 -25 14t-1 29l258 476l-244 823q-13 29 14 31h223q31 0 39 -41l150 -482l268 494q16 29 45 29z" />
    <glyph glyph-name="z" unicode="z" horiz-adv-x="905" 
d="M748 270q16 0 26 -10t8 -27l-24 -208q-4 -25 -29 -25h-680q-14 0 -24 10t-9 27l15 131q4 31 10 39l405 485h-311q-14 0 -24 10t-9 27l25 207q4 27 29 27h678q16 -1 26 -11t8 -26l-16 -138q-4 -25 -12 -34l-404 -484h312z" />
    <glyph glyph-name="braceleft" unicode="{" horiz-adv-x="946" 
d="M721 127q14 0 24 -10t9 -27l-25 -209q-2 -25 -27 -24h-200q-154 -1 -235 109t-58 282l41 330q2 20 -4 34l-80 113q-14 31 -4 47l106 111q23 23 23 39l41 329q23 175 123 277t252 102h200q15 0 25 -10t8 -27l-25 -209q-4 -16 -9 -20t-19 -4h-103q-98 0 -141 -67t-61 -201
l-25 -203q0 -20 -12 -35l-107 -111l72 -118q12 -25 10 -39l-24 -203q-10 -82 -8 -139q3 -117 130 -117h103z" />
    <glyph glyph-name="bar" unicode="|" horiz-adv-x="598" 
d="M528 1638q14 0 24 -10t9 -26l-244 -1987q-2 -25 -26 -25h-209q-14 0 -24 10t-9 27l244 1987q2 25 26 24h209z" />
    <glyph glyph-name="braceright" unicode="}" horiz-adv-x="946" 
d="M268 1360q-14 0 -24 10t-8 27l24 209q4 25 29 24h200q154 0 234 -108t57 -283l-39 -330q-4 -25 4 -35l80 -112q14 -29 2 -47l-106 -111q-20 -25 -23 -39l-41 -329q-20 -174 -120 -276t-252 -103h-201q-14 0 -25 10q-10 10 -8 27l27 208q2 10 3 18t21 7h103q99 -1 143 67
t58 201l26 203q4 23 12 37l109 108l-70 119q-16 25 -14 39l27 203q16 137 -6 196t-119 60h-103z" />
    <glyph glyph-name="asciitilde" unicode="~" horiz-adv-x="1157" 
d="M999 821l60 -151q12 -23 -15 -49q-116 -68 -254 -76t-235 55q-167 85 -322 -27q-29 -10 -40 31l-62 154q-8 23 16 47q119 68 261 76t231 -56q162 -86 322 27q32 12 38 -31z" />
    <glyph glyph-name="exclamdown" unicode="&#xa1;" horiz-adv-x="598" 
d="M393 528q15 0 25 -10t8 -26l-109 -877q-4 -21 -9 -23t-15 -2h-209q-16 0 -26 12t-9 25l107 877q4 25 28 24h209zM471 1077q15 0 25 -10t8 -27l-35 -282q-3 -20 -10 -22q-6 -3 -17 -3h-231q-14 0 -25 11q-10 12 -8 28l35 281q2 25 29 24h229z" />
    <glyph glyph-name="cent" unicode="&#xa2;" horiz-adv-x="985" 
d="M494 698q-37 0 -70 -30t-37 -76l-29 -234q-10 -90 72 -90h76l51 430h-63zM879 639h-207l-35 -293l8 10q18 20 47 -12l133 -131q31 -31 11 -51q-127 -123 -240 -152l-31 -248q-2 -25 -26 -24h-62q-16 0 -25 11t-6 26l27 223h-59q-154 0 -248 112t-78 261l29 233
q18 150 134 258t269 107h70l28 231q2 25 29 25h62q16 1 24 -11t6 -26l-28 -242q92 -35 147 -115t47 -169q-4 -23 -26 -23z" />
    <glyph glyph-name="sterling" unicode="&#xa3;" horiz-adv-x="1177" 
d="M618 1511h74q172 0 284 -138t91 -349q-2 -16 -27 -16h-209q-39 0 -34 45q14 111 -19 149t-104 39h-74q-68 0 -122 -55t-52 -176q2 -41 20 -146h228q14 0 24 -10t9 -27l-25 -209q-2 -25 -29 -24h-161q0 -19 -14 -86q-14 -68 -32 -112q-20 -44 -81 -103q57 23 85 21
t103 -35q84 -27 152 -20t176 52q18 4 28 -9t9 -32l-27 -215q-2 -16 -23 -30q-116 -41 -202 -38t-183 48q-109 41 -187 31t-198 -74q-18 -4 -55 54t-31 79q74 125 88 151t49 93q35 66 62 206l2 19h-211q-16 0 -25 11q-8 11 -6 26l27 209q4 20 9 22t16 2h153q-20 102 -20 174
q-8 205 135 339t327 134z" />
    <glyph glyph-name="currency" unicode="&#xa4;" horiz-adv-x="1308" 
d="M485 268h90q49 0 77 30t32 69l29 241q16 90 -74 90h-88q-49 0 -78 -32t-33 -70l-28 -242q-13 -86 73 -86zM551 -2h-80q-63 0 -125 22l-78 -73q-18 -18 -39 8l-133 149q-23 25 -6 43l70 60q-29 72 -19 160l29 241q12 90 59 166l-45 51q-23 25 -4 43l170 148q18 23 37 -8
l57 -62q63 23 131 23h80q123 0 215 -76l131 123q19 19 39 -8l134 -150q20 -25 8 -43l-197 -166q0 -35 -2 -53l-29 -242q-2 -18 -10 -55l139 -162q23 -25 4 -43l-169 -147q-18 -23 -37 8l-105 113q-98 -70 -225 -70z" />
    <glyph glyph-name="yen" unicode="&#xa5;" horiz-adv-x="1097" 
d="M1055 637q16 0 26 -11t9 -26l-25 -184q-3 -20 -10 -22q-6 -3 -17 -3h-399l-8 -65h387q14 0 24 -10t9 -27l-23 -185q-2 -25 -29 -24h-399l-6 -55q-4 -25 -29 -25h-209q-14 0 -24 10t-8 27l6 43h-105q-14 0 -24 10t-8 27l22 184q4 25 29 25h116l9 65h-105q-16 0 -26 11
t-9 26l25 184q2 25 27 25h118l2 16l-270 809q-8 20 -3 22t15 3h228q33 0 41 -37l153 -512l289 524q10 25 37 25h227q16 0 26 -11t3 -26l-475 -797l-2 -16h385z" />
    <glyph glyph-name="brokenbar" unicode="&#xa6;" horiz-adv-x="598" 
d="M176 457h209q17 1 25 -11t6 -26l-80 -662q-4 -25 -29 -24h-209q-14 0 -24 10t-8 27l81 661q2 25 29 25zM303 1495h209q14 0 24 -10t9 -27l-82 -661q-2 -25 -29 -25h-209q-16 0 -24 12t-6 25l79 661q4 25 29 25z" />
    <glyph glyph-name="section" unicode="&#xa7;" horiz-adv-x="1241" 
d="M692 621l-119 22q-66 10 -137 43q-2 -35 -6 -74q-4 -40 27 -78t96 -51l119 -18q76 -14 137 -45q2 45 1 85t-31 73t-87 43zM664 1493h106q168 0 283 -126t90 -310l-6 -39q-2 -25 -27 -25h-211q-15 -1 -25 11t-8 28l4 39q8 68 -25 111q-34 43 -95 43h-107q-61 0 -106 -49
q-45 -48 -51 -96t-8 -78q-3 -30 28 -56t100 -39l119 -16q168 -29 270 -179t78 -345q-12 -109 -59 -168l-6 6q35 -96 20 -213q-23 -176 -162 -290t-313 -114h-94q-170 0 -288 122t-95 296l6 60q2 25 29 24h211q14 0 24 -11t6 -28l-4 -59q-4 -59 32 -96t99 -37h94q70 0 124 46
q53 46 61 103t7 92q-2 76 -126 99l-119 20q-176 29 -273 177t-75 333q8 78 51 174l19 -12q-39 102 -25 213q21 172 149 280t298 109z" />
    <glyph glyph-name="dieresis" unicode="&#xa8;" horiz-adv-x="1038" 
d="M711 1487h280q15 0 25 -10t8 -27l-33 -274q-2 -25 -26 -25h-281q-14 0 -25 11q-10 12 -8 28l33 272q2 25 27 25zM260 1487h279q16 0 26 -11t8 -26l-34 -274q-2 -10 -3 -18t-22 -7h-281q-14 -1 -24 11t-10 28l34 272q2 25 27 25z" />
    <glyph glyph-name="copyright" unicode="&#xa9;" horiz-adv-x="1347" 
d="M778 612h148q10 0 16 -20t4 -37q-18 -145 -84 -193t-184 -47h-41q-256 0 -229 244l49 379q16 141 101 191q67 40 171 40h39q121 0 180 -56t41 -210q-10 -29 -18 -29h-148q-27 0 -25 32t-12 47q-16 15 -36 16h-25q-23 -1 -53 -21t-31 -47l-41 -330q-2 -27 14 -42t39 -15
h25q22 0 50 28t34 66q0 4 16 4zM545 217h160q115 0 197 78t95 180l66 547q12 102 -45 172t-172 70h-160q-113 0 -197 -77t-94 -179l-67 -547q-12 -102 45 -173t172 -71zM680 1509h209q190 1 304 -157t89 -365l-63 -506q-25 -207 -170 -357t-336 -151h-209q-190 0 -305 157
t-90 364l63 507q27 207 172 358q146 150 336 150z" />
    <glyph glyph-name="ordfeminine" unicode="&#xaa;" horiz-adv-x="653" 
d="M596 963h2l-2 -2v2zM348 1090h35q57 0 98 22l4 45h-114q-57 0 -64 -45q-4 -12 5 -17t36 -5zM492 963q-8 0 -17 16q-45 -16 -96 -16h-31q-82 0 -133 47t-42 122q18 152 202 152h127v8q6 42 -9 54t-57 12h-33q-55 0 -104 -49q-23 -6 -31 16l-45 61q-12 23 -6 35
q88 66 201 66h53q82 1 128 -61t36 -152l-35 -277l-4 -34h-104z" />
    <glyph glyph-name="guillemotleft" unicode="&#xab;" horiz-adv-x="1210" 
d="M682 653l416 240q14 8 26 -1t11 -26l-29 -237q-2 -23 -37 -43l-143 -60l116 -65q41 -25 39 -49l-30 -238q-6 -29 -31 -6l-358 242q-33 20 -29 57l18 133q4 35 31 53zM147 653l418 240q15 8 27 -1t10 -26l-29 -237q-2 -23 -36 -43l-144 -60l117 -65q39 -25 37 -49
l-29 -238q-6 -29 -33 -6l-356 242q-33 20 -29 57l17 133q3 35 30 53z" />
    <glyph glyph-name="logicalnot" unicode="&#xac;" horiz-adv-x="1052" 
d="M166 723h745q17 0 27 -10t6 -27l-49 -403q-2 -25 -27 -25h-209q-14 0 -24 10t-8 27l18 158h-498q-14 0 -24 10t-8 26l24 209q2 25 27 25z" />
    <glyph glyph-name="softhyphen" unicode="&#xad;" horiz-adv-x="888" 
d="M700 383h-540q-16 0 -27 11q-10 11 -8 26l27 209q2 25 26 24h541q14 0 24 -11t9 -26l-27 -208q-2 -14 -6 -20q-5 -5 -19 -5z" />
    <glyph glyph-name="registered" unicode="&#xae;" horiz-adv-x="1355" 
d="M690 811q31 0 59 29t33 88q10 78 -57 78h-53l-23 -195h41zM854 305h-100q-20 -1 -32 15t-9 38l18 140q16 133 -43 133h-57l-33 -287q-4 -25 -12 -32t-29 -7h-98q-47 0 -41 53l94 766q6 61 68 62h172q111 0 170 -75q58 -75 44 -202t-114 -207q78 -70 59 -200l-16 -158
q-4 -25 -12 -32t-29 -7zM549 217h160q115 0 197 78t95 180l66 547q12 102 -45 172t-172 70h-160q-112 0 -196 -77t-95 -179l-67 -547q-12 -102 45 -173t172 -71zM684 1509h209q190 1 304 -157t89 -365l-63 -506q-25 -207 -170 -357t-336 -151h-209q-190 0 -305 157t-90 364
l63 507q27 207 172 358q146 150 336 150z" />
    <glyph glyph-name="macron" unicode="&#xaf;" horiz-adv-x="1011" 
d="M926 1217h-664q-14 0 -24 10t-9 26l25 209q2 25 27 25h663q14 0 24 -11t9 -26l-27 -209q1 -24 -24 -24z" />
    <glyph glyph-name="degree" unicode="&#xb0;" horiz-adv-x="923" 
d="M563 1276h-14q-43 0 -72 -29t-33 -71q-18 -97 68 -97h14q39 0 70 30t35 71v10q8 86 -68 86zM553 1487h31q128 0 198 -87t54 -218l-2 -23q-16 -133 -102 -213t-212 -80h-31q-129 0 -199 86t-52 219l4 23q16 133 99 213t212 80z" />
    <glyph glyph-name="plusminus" unicode="&#xb1;" horiz-adv-x="1052" 
d="M111 270h747q35 0 31 -37l-25 -208q-3 -20 -10 -22q-6 -3 -18 -3h-746q-14 0 -24 10t-9 27l25 209q4 16 9 20q6 4 20 4zM930 846q14 0 23 -10t5 -27l-24 -209q-2 -16 -6 -20t-21 -5h-241l-27 -217q-4 -25 -29 -24h-209q-14 0 -24 10t-8 27l24 204h-231q-14 1 -24 11
t-9 26l25 209q2 25 28 25h246l27 215q2 25 26 24h209q14 0 24 -10t9 -26l-25 -203h232z" />
    <glyph glyph-name="twosuperior" unicode="&#xb2;" horiz-adv-x="655" 
d="M543 852h-344q-14 0 -25 10q-10 10 -8 27l6 49q5 41 29 63q24 23 32 31l164 154q9 8 29 24q63 49 68 86q6 36 -12 55t-51 19q-35 0 -63 -22q-29 -23 -32 -56q-4 -33 -29 -32h-61q-14 0 -25 10q-10 10 -8 26l2 27q9 68 63 116t128 48h51q80 0 126 -66q45 -67 35 -145
t-151 -207l-121 -100l199 4q14 0 24 -10t9 -27l-7 -59q-4 -25 -28 -25z" />
    <glyph glyph-name="threesuperior" unicode="&#xb3;" horiz-adv-x="653" 
d="M186 854h-51q-72 0 -120 53t-40 123l5 27q2 25 26 24h62q37 0 31 -49q-7 -61 61 -61q36 -1 66 23t34 57q8 67 -63 67h-47q-14 0 -25 10q-10 10 -8 27l6 45q2 25 29 25h47q35 -1 63 25t30 59q6 63 -63 63q-37 0 -65 -22q-29 -23 -33 -56t-29 -32h-61q-14 0 -25 10
q-10 10 -8 26l4 27q8 68 62 116t127 48h51q80 -1 126 -61t38 -131t-86 -134q61 -61 53 -133t-62 -124t-135 -52z" />
    <glyph glyph-name="acute" unicode="&#xb4;" horiz-adv-x="669" 
d="M666 1638q18 0 26 -12t0 -31l-227 -378q-20 -31 -43 -31h-213q-16 0 -25 13q-8 14 0 30l203 379q12 31 41 30h238z" />
    <glyph glyph-name="paragraph" unicode="&#xb6;" horiz-adv-x="1155" 
d="M496 1188q-54 -40 -66 -144t33 -133zM844 1217h-74l-39 -324h74zM557 1487h553q14 0 24 -10t9 -27l-174 -1425q-3 -20 -10 -23q-7 -2 -17 -2h-209q-16 0 -26 11t-9 26l72 586h-72l-73 -598q-3 -20 -10 -23q-7 -2 -17 -2h-209q-16 0 -27 11q-10 11 -8 26l74 594
q-141 29 -213 147q-71 118 -51 292q20 173 120 282t253 131q8 4 20 4z" />
    <glyph glyph-name="periodcentered" unicode="&#xb7;" horiz-adv-x="546" 
d="M154 793h280q14 1 26 -11t9 -28l-35 -275q-2 -23 -28 -22h-279q-16 0 -27 11q-10 12 -8 26l35 274q3 18 10 22q6 3 17 3z" />
    <glyph glyph-name="cedilla" unicode="&#xb8;" horiz-adv-x="798" 
d="M381 14q8 0 15 -8t5 -18q-28 -28 -21 -34q8 -6 22 -8q14 -3 20 -5q104 -9 145 -57t27 -156q-18 -141 -213 -142h-172q-84 0 -128 52t-36 135q4 6 14 6h162q9 0 17 -9t6 -22q14 -14 43 -14h45q59 0 65 37q0 8 -103 16t-128 21q-118 57 6 202l23 4h186z" />
    <glyph glyph-name="onesuperior" unicode="&#xb9;" horiz-adv-x="618" 
d="M383 1487h66q14 0 24 -10t8 -27l-69 -571q-2 -25 -29 -25h-66q-16 0 -24 12t-6 25l69 571q2 25 27 25z" />
    <glyph glyph-name="ordmasculine" unicode="&#xba;" horiz-adv-x="663" 
d="M330 377h-29q-37 0 -65 -28t-33 -64l-6 -56q-10 -82 63 -82h29q31 0 61 30t37 67l6 55q4 35 -13 57t-50 21zM299 524h45q86 0 140 -68t44 -155l-10 -88q-10 -89 -76 -151t-151 -62h-45q-86 0 -141 68q-54 68 -44 157l11 88q10 88 75 150q66 61 152 61z" />
    <glyph glyph-name="guillemotright" unicode="&#xbb;" horiz-adv-x="1210" 
d="M715 885l358 -242q33 -18 29 -57l-17 -133q-6 -35 -30 -54l-416 -239q-14 -8 -29 1q-14 9 -12 25l31 238q6 27 35 43l145 59l-115 66q-41 25 -39 49l29 238q2 31 31 6zM182 885l357 -242q33 -18 28 -57l-14 -133q-6 -35 -31 -54l-418 -239q-14 -8 -27 1t-11 25l28 238
q4 25 37 43l145 59l-116 66q-39 25 -37 49l29 238q1 31 30 6z" />
    <glyph glyph-name="onequarter" unicode="&#xbc;" horiz-adv-x="1511" 
d="M1194 451l-129 -205h102zM1313 242q16 0 24 -12t6 -25l-6 -62q-2 -25 -28 -24h-35l-10 -94q-4 -25 -29 -25h-61q-14 0 -25 10q-10 10 -8 27l10 82h-217q-35 0 -31 37v59q4 16 8 25l267 387q4 8 24 8h98q14 0 24 -10t9 -27l-43 -356h23zM383 1487h66q14 0 24 -10t8 -27
l-69 -571q-2 -25 -29 -25h-66q-16 0 -24 12t-6 25l69 571q2 25 27 25zM1188 1487h86q16 0 25 -11t1 -26l-1001 -1425q-20 -25 -43 -25h-86q-16 0 -26 11q-9 12 -1 26l1004 1425q16 25 41 25z" />
    <glyph glyph-name="onehalf" unicode="&#xbd;" horiz-adv-x="1478" 
d="M1262 0h-344q-14 0 -25 10q-10 10 -8 27l6 49q5 41 29 63q24 23 32 31l164 154q8 8 28 24q65 51 70 95q4 27 -13 46t-51 19t-63 -22t-32 -56q-4 -33 -29 -32h-61q-14 0 -25 10q-10 10 -8 26l2 27q10 68 63 116t127 48h52q80 0 126 -66q46 -67 36 -145t-152 -207
l-121 -100l199 4q14 0 24 -10t8 -27l-6 -59q-4 -25 -28 -25zM383 1487h66q14 0 24 -10t8 -27l-69 -571q-2 -25 -29 -25h-66q-16 0 -24 12t-6 25l69 571q2 25 27 25zM1188 1487h86q16 0 25 -11t1 -26l-1001 -1425q-20 -25 -43 -25h-86q-16 0 -26 11q-9 12 -1 26l1004 1425
q16 25 41 25z" />
    <glyph glyph-name="threequarters" unicode="&#xbe;" horiz-adv-x="1546" 
d="M1229 451l-129 -205h102zM1348 242q16 0 24 -12t6 -25l-6 -62q-2 -25 -29 -24h-34l-11 -94q-4 -25 -28 -25h-62q-14 0 -24 10t-8 27l10 82h-217q-35 0 -31 37v59q4 16 8 25l266 387q4 8 25 8h98q15 0 25 -10t8 -27l-43 -356h23zM1223 1487h86q16 0 25 -11t1 -26
l-1001 -1425q-20 -25 -43 -25h-86q-16 0 -26 11q-9 12 -1 26l1004 1425q16 25 41 25zM391 854h-51q-72 0 -120 53t-40 123l4 27q2 25 27 24h61q38 0 32 -49q-7 -61 60 -61q35 -1 66 23t35 57q8 67 -64 67h-47q-14 0 -24 10t-8 27l6 45q2 25 28 25h47q35 -1 63 25t31 59
q6 63 -63 63q-38 0 -66 -22q-29 -23 -32 -56q-4 -33 -29 -32h-61q-14 0 -25 10q-10 10 -8 26l4 27q7 68 61 116t128 48h51q80 -1 126 -61t38 -131t-86 -134q61 -61 53 -133t-62 -124t-135 -52z" />
    <glyph glyph-name="questiondown" unicode="&#xbf;" horiz-adv-x="1040" 
d="M449 -436h-87q-174 0 -279 121q-125 144 -66 413q10 47 63 124q26 41 158 102q48 22 74 32t58 23q57 23 62 70l6 55q4 25 29 24h209q14 0 24 -10t9 -26l-13 -105q-12 -105 -70 -153t-257 -134q-57 -23 -75 -47q-17 -25 -24 -78q-20 -141 113 -141h86q70 0 110 52t48 116
l6 39q2 25 26 25h211q14 0 24 -10t9 -27l-4 -39q-27 -202 -155 -314t-295 -112zM723 733h-229q-14 0 -25 11q-10 11 -8 28l35 281q2 25 26 24h232q14 -1 24 -11t8 -26l-34 -282q-4 -25 -29 -25z" />
    <glyph glyph-name="Agrave" unicode="&#xc0;" horiz-adv-x="1230" 
d="M711 618l-47 312l-125 -312h172zM1047 0h-209q-33 0 -39 39l-47 309h-324l-129 -321q-12 -27 -37 -27h-211q-16 0 -24 11t-2 28l577 1427q10 27 39 27h164q15 1 25 -11t12 -28l225 -1427q2 -15 -2 -21t-18 -6zM492 2163h213q33 0 40 -43l109 -379q10 -31 -14 -31h-189
q-29 0 -41 43l-133 379q-8 18 -5 24t20 7z" />
    <glyph glyph-name="Aacute" unicode="&#xc1;" horiz-adv-x="1230" 
d="M711 618l-47 312l-125 -312h172zM1047 0h-209q-33 0 -39 39l-47 309h-324l-129 -321q-12 -27 -37 -27h-211q-16 0 -24 11t-2 28l577 1427q10 27 39 27h164q15 1 25 -11t12 -28l225 -1427q2 -15 -2 -21t-18 -6zM877 2163h237q18 -1 26 -13t1 -30l-228 -379
q-20 -31 -43 -31h-213q-16 0 -24 13t0 30l203 379q12 31 41 31z" />
    <glyph glyph-name="Acircumflex" unicode="&#xc2;" horiz-adv-x="1230" 
d="M711 618l-47 312l-125 -312h172zM1047 0h-209q-33 0 -39 39l-47 309h-324l-129 -321q-12 -27 -37 -27h-211q-16 0 -24 11t-2 28l577 1427q10 27 39 27h164q15 1 25 -11t12 -28l225 -1427q2 -15 -2 -21t-18 -6zM1122 1724h-207q-18 0 -43 43l-90 177l-131 -185
q-25 -35 -47 -35h-213q-16 0 -23 16t3 29l276 365q20 29 45 29h207q31 0 49 -39l189 -365q18 -35 -15 -35z" />
    <glyph glyph-name="Atilde" unicode="&#xc3;" horiz-adv-x="1230" 
d="M711 618l-47 312l-125 -312h172zM1047 0h-209q-33 0 -39 39l-47 309h-324l-129 -321q-12 -27 -37 -27h-211q-16 0 -24 11t-2 28l577 1427q10 27 39 27h164q15 1 25 -11t12 -28l225 -1427q2 -15 -2 -21t-18 -6zM1102 2050l59 -152q10 -23 -12 -49q-238 -141 -414 -22
q-99 58 -165 25q-28 -13 -81 -50q-27 -10 -38 29l-62 154q-8 23 17 47q252 147 413 22q92 -60 164 -25q29 13 82 50q31 12 37 -29z" />
    <glyph glyph-name="Adieresis" unicode="&#xc4;" horiz-adv-x="1230" 
d="M711 618l-47 312l-125 -312h172zM1047 0h-209q-33 0 -39 39l-47 309h-324l-129 -321q-12 -27 -37 -27h-211q-16 0 -24 11t-2 28l577 1427q10 27 39 27h164q15 1 25 -11t12 -28l225 -1427q2 -15 -2 -21t-18 -6zM862 2011h281q14 0 24 -10t9 -27l-33 -274q-2 -25 -27 -25
h-280q-14 -1 -24 11t-9 28l33 273q1 24 26 24zM666 1675h-281q-15 -1 -25 11t-10 28l35 273q2 25 27 24h278q16 0 26 -11t9 -26l-35 -274q-2 -10 -3 -18q-2 -8 -21 -7z" />
    <glyph glyph-name="Aring" unicode="&#xc5;" horiz-adv-x="1230" 
d="M711 618l-47 312l-125 -312h172zM1047 0h-209q-33 0 -39 39l-47 309h-324l-129 -321q-12 -27 -37 -27h-211q-16 0 -24 11t-2 28l577 1427q10 27 39 27h164q15 1 25 -11t12 -28l225 -1427q2 -15 -2 -21t-18 -6zM766 1915h2q20 0 40 18q19 18 23 37v4q4 39 -36 39h-2
q-18 1 -38 -17t-24 -36v-4q-4 -41 35 -41zM774 1763h-26q-84 1 -132 57t-38 138l2 22q10 82 66 134t138 51h27q82 1 132 -57t40 -140l-4 -22q-9 -82 -65 -132t-140 -51z" />
    <glyph glyph-name="AE" unicode="&#xc6;" horiz-adv-x="1843" 
d="M844 618l41 332l-223 -332h182zM975 1487h821q14 0 24.5 -10.5t8.5 -26.5l-27 -209q0 -16 -4 -20t-20 -4h-588l-43 -332h440q16 0 26.5 -11.5t8.5 -25.5l-27 -209q-2 -9 -3 -17t-21 -8h-457l-43 -344h576q14 0 24 -10t8 -27l-24 -208q-4 -25 -29 -25h-821q-14 0 -24.5 10
t-8.5 27l39 311h-332l-219 -323q-16 -25 -41 -25h-221q-16 0 -25.5 11.5t-1.5 25.5l963 1425q16 25 41 25z" />
    <glyph glyph-name="Ccedilla" unicode="&#xc7;" horiz-adv-x="1159" 
d="M647 1509h94q186 0 290 -136t83 -351q-2 -16 -29 -16h-208q-39 0 -33 45q14 102 -12.5 145t-110.5 43h-94q-92 0 -138.5 -52t-60.5 -171l-68 -557q-14 -121 12.5 -168t116.5 -47h95q84 0 129 53t59 168q2 16 29 16h209q37 0 30 -45q-20 -170 -117.5 -289.5t-238.5 -158.5
q-28 -28 -21 -33.5t11 -6.5t14 -3t17 -4q104 -8 145 -56.5t27 -156.5q-18 -141 -213 -142h-172q-84 0 -128.5 51.5t-35.5 135.5q4 6 14 6h162q8 0 16 -9.5t6 -21.5q0 -14 20 -14h68q59 0 66 37q0 8 -62.5 13t-118 13t-78 26.5t-28.5 56.5t35 95q-174 16 -268 152.5
t-70 343.5l70 557q27 219 160.5 350t326.5 131z" />
    <glyph glyph-name="Egrave" unicode="&#xc8;" horiz-adv-x="1138" 
d="M883 885q16 0 26.5 -11.5t8.5 -25.5l-27 -209q-2 -9 -3 -17t-22 -8h-456l-43 -344h575q14 0 24.5 -10t8.5 -27l-25 -208q-4 -25 -28 -25h-822q-14 0 -24 10t-8 27l176 1425q2 25 26 25h822q14 0 24 -10.5t8 -26.5l-26 -209q0 -16 -4 -20t-21 -4h-588l-43 -332h441z
M854 1710h-188q-29 0 -41 43l-133 379q-8 18 -5.5 24.5t19.5 6.5h213q35 0 41 -43l108 -379q10 -31 -14 -31z" />
    <glyph glyph-name="Eacute" unicode="&#xc9;" horiz-adv-x="1138" 
d="M883 885q16 0 26.5 -11.5t8.5 -25.5l-27 -209q-2 -9 -3 -17t-22 -8h-456l-43 -344h575q14 0 24.5 -10t8.5 -27l-25 -208q-4 -25 -28 -25h-822q-14 0 -24 10t-8 27l176 1425q2 25 26 25h822q14 0 24 -10.5t8 -26.5l-26 -209q0 -16 -4 -20t-21 -4h-588l-43 -332h441z
M891 2163h237q18 0 26.5 -12.5t0.5 -30.5l-227 -379q-20 -31 -43 -31h-213q-16 0 -24.5 13.5t-0.5 29.5l203 379q12 31 41 31z" />
    <glyph glyph-name="Ecircumflex" unicode="&#xca;" horiz-adv-x="1138" 
d="M883 885q16 0 26.5 -11.5t8.5 -25.5l-27 -209q-2 -9 -3 -17t-22 -8h-456l-43 -344h575q14 0 24.5 -10t8.5 -27l-25 -208q-4 -25 -28 -25h-822q-14 0 -24 10t-8 27l176 1425q2 25 26 25h822q14 0 24 -10.5t8 -26.5l-26 -209q0 -16 -4 -20t-21 -4h-588l-43 -332h441z
M707 2163h206q29 0 50 -39l188 -365q16 -35 -14 -35h-207q-18 0 -43 43l-90 177l-131 -185q-25 -35 -48 -35h-212q-16 0 -23.5 15.5t2.5 29.5l277 365q20 29 45 29z" />
    <glyph glyph-name="Edieresis" unicode="&#xcb;" horiz-adv-x="1138" 
d="M883 885q16 0 26.5 -11.5t8.5 -25.5l-27 -209q-2 -9 -3 -17t-22 -8h-456l-43 -344h575q14 0 24.5 -10t8.5 -27l-25 -208q-4 -25 -28 -25h-822q-14 0 -24 10t-8 27l176 1425q2 25 26 25h822q14 0 24 -10.5t8 -26.5l-26 -209q0 -16 -4 -20t-21 -4h-588l-43 -332h441z
M1157 2011q14 0 24.5 -10t8.5 -27l-33 -274q-2 -25 -27 -25h-280q-14 0 -24.5 11.5t-8.5 27.5l33 273q2 25 27 24h280zM705 2011q16 0 26 -11t8 -26l-34 -274q-4 -21 -9.5 -23t-15.5 -2h-281q-14 0 -24 11.5t-10 27.5l34 273q2 25 27 24h279z" />
    <glyph glyph-name="Igrave" unicode="&#xcc;" horiz-adv-x="612" 
d="M262 1487h213q15 0 25 -10t8 -27l-174 -1425q-3 -20 -10 -22q-6 -3 -17 -3h-215q-14 0 -24 10t-9 27l177 1425q2 25 26 25zM494 1710h-189q-29 0 -41 43l-133 379q-8 18 -5 24t19 7h213q35 0 41 -43l109 -379q10 -31 -14 -31z" />
    <glyph glyph-name="Iacute" unicode="&#xcd;" horiz-adv-x="612" 
d="M262 1487h213q15 0 25 -10t8 -27l-174 -1425q-3 -20 -10 -22q-6 -3 -17 -3h-215q-14 0 -24 10t-9 27l177 1425q2 25 26 25zM528 2163h238q18 -1 26 -13t1 -30l-228 -379q-20 -31 -43 -31h-213q-16 0 -24 14t0 29l202 379q12 31 41 31z" />
    <glyph glyph-name="Icircumflex" unicode="&#xce;" horiz-adv-x="612" 
d="M262 1487h213q15 0 25 -10t8 -27l-174 -1425q-3 -20 -10 -22q-6 -3 -17 -3h-215q-14 0 -24 10t-9 27l177 1425q2 25 26 25zM344 2163h207q31 0 49 -39l188 -365q18 -35 -14 -35h-207q-18 0 -43 43l-90 177l-131 -185q-25 -35 -47 -35h-213q-16 0 -23 16t3 29l276 365
q20 29 45 29z" />
    <glyph glyph-name="Idieresis" unicode="&#xcf;" horiz-adv-x="612" 
d="M262 1487h213q15 0 25 -10t8 -27l-174 -1425q-3 -20 -10 -22q-6 -3 -17 -3h-215q-14 0 -24 10t-9 27l177 1425q2 25 26 25zM797 2011q14 0 24 -10t8 -27l-32 -274q-2 -25 -27 -25h-281q-14 -1 -24 11t-8 28l32 273q2 25 27 24h281zM344 2011q16 0 26 -11t9 -26l-35 -274
q-2 -10 -3 -18t-22 -7h-280q-15 -1 -25 11t-10 28l35 273q2 25 27 24h278z" />
    <glyph glyph-name="Eth" unicode="&#xd0;" horiz-adv-x="1251" 
d="M776 1217h-233l-41 -347h162q14 0 23 -11t7 -25l-24 -209q-2 -25 -27 -25h-174l-41 -330h217q92 0 146 47q53 47 67 170l66 525q16 125 -20 165t-128 40zM328 1487h489q170 -1 285 -147t90 -341l-64 -524q-26 -195 -168 -335t-311 -140h-489q-14 0 -25 10q-10 10 -8 27
l70 563h-95q-14 0 -24 11t-8 28l24 209q2 23 29 22h106l74 592q2 10 3 18q2 8 22 7z" />
    <glyph glyph-name="Ntilde" unicode="&#xd1;" horiz-adv-x="1304" 
d="M1026 1487h209q14 0 24.5 -10.5t8.5 -26.5l-174 -1425q-4 -25 -29 -25h-217q-29 0 -35 29l-367 868l-108 -872q-4 -25 -29 -25h-209q-14 0 -24 10t-8 27l176 1425q2 25 26 25h217q29 0 37 -29l367 -868l108 872q2 25 27 25zM1139 2050l59 -152q10 -23 -12 -49
q-238 -141 -414 -22q-98 57 -164 25q-28 -14 -82 -50q-27 -10 -39 29l-61 154q-8 23 16 47q252 147 414 22q92 -60 164 -26q29 14 82 51q31 12 37 -29z" />
    <glyph glyph-name="Ograve" unicode="&#xd2;" horiz-adv-x="1212" 
d="M504 250h108q78 0 129 60t64 147l76 590q12 84 -20 138t-109 54h-111q-76 0 -129 -62t-61 -145l-74 -590q-9 -84 21 -138t106 -54zM662 1509h108q176 0 289 -147t88 -350l-70 -549q-23 -203 -163 -343t-318 -140h-109q-177 0 -291 147t-87 350l71 549q27 203 166 343
q140 140 316 140zM836 1708h-189q-29 0 -41 43l-133 379q-8 18 -5 24t19 7h213q33 0 41 -43l109 -379q10 -31 -14 -31z" />
    <glyph glyph-name="Oacute" unicode="&#xd3;" horiz-adv-x="1212" 
d="M504 250h108q78 0 129 60t64 147l76 590q12 84 -20 138t-109 54h-111q-76 0 -129 -62t-61 -145l-74 -590q-9 -84 21 -138t106 -54zM662 1509h108q176 0 289 -147t88 -350l-70 -549q-23 -203 -163 -343t-318 -140h-109q-177 0 -291 147t-87 350l71 549q27 203 166 343
q140 140 316 140zM872 2161h238q18 -1 26 -13t1 -30l-228 -379q-20 -31 -43 -31h-213q-16 0 -24 14t0 29l202 379q12 31 41 31z" />
    <glyph glyph-name="Ocircumflex" unicode="&#xd4;" horiz-adv-x="1212" 
d="M504 250h108q78 0 129 60t64 147l76 590q12 84 -20 138t-109 54h-111q-76 0 -129 -62t-61 -145l-74 -590q-9 -84 21 -138t106 -54zM662 1509h108q176 0 289 -147t88 -350l-70 -549q-23 -203 -163 -343t-318 -140h-109q-177 0 -291 147t-87 350l71 549q27 203 166 343
q140 140 316 140zM688 2161h207q31 0 49 -39l189 -365q18 -35 -15 -35h-207q-18 0 -43 43l-90 177l-131 -185q-25 -35 -47 -35h-213q-16 0 -23 16t3 29l276 365q20 29 45 29z" />
    <glyph glyph-name="Otilde" unicode="&#xd5;" horiz-adv-x="1212" 
d="M504 250h108q78 0 129 60t64 147l76 590q12 84 -20 138t-109 54h-111q-76 0 -129 -62t-61 -145l-74 -590q-9 -84 21 -138t106 -54zM662 1509h108q176 0 289 -147t88 -350l-70 -549q-23 -203 -163 -343t-318 -140h-109q-177 0 -291 147t-87 350l71 549q27 203 166 343
q140 140 316 140zM1098 2048l59 -152q10 -23 -12 -49q-238 -141 -414 -22q-99 58 -165 25q-28 -13 -81 -50q-27 -10 -39 29l-61 153q-8 23 16 48q252 147 414 22q91 -59 164 -26q29 13 82 51q31 12 37 -29z" />
    <glyph glyph-name="Odieresis" unicode="&#xd6;" horiz-adv-x="1212" 
d="M504 250h108q78 0 129 60t64 147l76 590q12 84 -20 138t-109 54h-111q-76 0 -129 -62t-61 -145l-74 -590q-9 -84 21 -138t106 -54zM662 1509h108q176 0 289 -147t88 -350l-70 -549q-23 -203 -163 -343t-318 -140h-109q-177 0 -291 147t-87 350l71 549q27 203 166 343
q140 140 316 140zM1141 2009q14 0 24 -10t9 -27l-33 -274q-2 -25 -27 -25h-280q-14 0 -25 11q-10 12 -8 28l33 273q2 25 26 24h281zM688 2009q16 0 26 -11t9 -26l-35 -274q-2 -10 -3 -18t-21 -7h-281q-14 0 -25 11q-10 12 -10 28l35 273q2 25 27 24h278z" />
    <glyph glyph-name="multiply" unicode="&#xd7;" horiz-adv-x="978" 
d="M748 1016l133 -150q23 -23 6 -41l-195 -172l158 -180q23 -29 6 -45l-166 -147q-23 -18 -43 10l-160 182l-196 -174q-23 -23 -39 8l-131 146q-27 27 -8 47l196 174l-155 178q-27 25 -9 43l170 149q18 16 41 -8l158 -180l197 172q14 13 37 -12z" />
    <glyph glyph-name="Oslash" unicode="&#xd8;" horiz-adv-x="1212" 
d="M612 250q78 0 130 60t63 147l76 590q4 29 4 43l-459 -818q33 -23 78 -22h108zM641 1239q-76 0 -129 -62t-61 -145l-31 -244l254 451h-33zM246 0h-221q-16 0 -26 11q-9 11 -1 26l127 227q-31 109 -16 213l71 549q27 203 166 343t316 140h108q63 0 125 -22h164q16 1 24 -11
t2 -26l-38 -72q127 -156 100 -366l-70 -549q-23 -203 -163 -343t-318 -140h-109q-104 0 -194 57q-19 -37 -47 -37z" />
    <glyph glyph-name="Ugrave" unicode="&#xd9;" horiz-adv-x="1191" 
d="M909 1489h209q16 0 26 -11t9 -26l-123 -1010q-25 -198 -163 -326t-335 -128h-53q-197 0 -307 134t-88 333l125 1009q2 10 3 18t21 7h209q16 0 26 -11t9 -26l-119 -960q-29 -233 142 -234h53q102 0 152 74q49 74 61 172l119 960q2 10 3 18q2 8 21 7zM801 1710h-189
q-29 0 -41 43l-133 379q-8 18 -5 24t20 7h213q35 0 41 -43l108 -379q10 -31 -14 -31z" />
    <glyph glyph-name="Uacute" unicode="&#xda;" horiz-adv-x="1191" 
d="M909 1489h209q16 0 26 -11t9 -26l-123 -1010q-25 -198 -163 -326t-335 -128h-53q-197 0 -307 134t-88 333l125 1009q2 10 3 18t21 7h209q16 0 26 -11t9 -26l-119 -960q-29 -233 142 -234h53q102 0 152 74q49 74 61 172l119 960q2 10 3 18q2 8 21 7zM838 2163h237
q19 -1 27 -13t0 -30l-228 -379q-20 -31 -43 -31h-213q-16 0 -24 14t0 29l203 379q12 31 41 31z" />
    <glyph glyph-name="Ucircumflex" unicode="&#xdb;" horiz-adv-x="1191" 
d="M909 1489h209q16 0 26 -11t9 -26l-123 -1010q-25 -198 -163 -326t-335 -128h-53q-197 0 -307 134t-88 333l125 1009q2 10 3 18t21 7h209q16 0 26 -11t9 -26l-119 -960q-29 -233 142 -234h53q102 0 152 74q49 74 61 172l119 960q2 10 3 18q2 8 21 7zM653 2163h207
q29 0 49 -39l189 -365q16 -35 -15 -35h-206q-18 0 -43 43l-91 177l-131 -185q-25 -35 -47 -35h-213q-16 0 -23 16t3 29l276 365q20 29 45 29z" />
    <glyph glyph-name="Udieresis" unicode="&#xdc;" horiz-adv-x="1191" 
d="M909 1489h209q16 0 26 -11t9 -26l-123 -1010q-25 -198 -163 -326t-335 -128h-53q-197 0 -307 134t-88 333l125 1009q2 10 3 18t21 7h209q16 0 26 -11t9 -26l-119 -960q-29 -233 142 -234h53q102 0 152 74q49 74 61 172l119 960q2 10 3 18q2 8 21 7zM1106 2011
q14 0 24 -10t9 -27l-33 -274q-2 -25 -27 -25h-280q-15 -1 -25 11t-8 28l33 273q2 25 26 24h281zM653 2011q17 0 27 -11t8 -26l-35 -274q-2 -10 -3 -18t-21 -7h-281q-14 -1 -24 11t-11 28l35 273q2 25 27 24h278z" />
    <glyph glyph-name="Yacute" unicode="&#xdd;" horiz-adv-x="1097" 
d="M891 1487h227q16 0 26 -11t3 -26l-475 -797l-78 -628q-4 -25 -29 -25h-209q-14 0 -24 10t-8 27l77 616l-270 809q-8 20 -3 22t15 3h228q33 0 41 -37l153 -512l289 524q10 25 37 25zM780 2163h238q18 -1 26 -13t0 -30l-227 -379q-20 -31 -43 -31h-213q-16 0 -24 14t0 29
l202 379q12 31 41 31z" />
    <glyph glyph-name="Thorn" unicode="&#xde;" horiz-adv-x="1153" 
d="M676 905h-232l-38 -323h217q76 0 123 36t59 142t-26 126q-38 19 -103 19zM721 1176q182 0 278 -121q97 -121 73 -318t-144 -311t-301 -115h-254l-35 -286q-4 -25 -29 -25h-209q-14 0 -24 10t-8 27l176 1425q2 25 26 25h209q15 0 25 -10t8 -27l-33 -274h242z" />
    <glyph glyph-name="germandbls" unicode="&#xdf;" horiz-adv-x="1067" 
d="M465 0h-43q-14 0 -25 10q-10 10 -8 27l25 209q4 16 9 20t19 4h43q100 0 139 22q38 22 50 101l16 144q10 79 -16 103t-115 24h-53q-16 0 -27 11q-10 11 -8 25l27 209q2 9 3 17t21 8h53q57 0 71 7q15 7 22 9q22 7 22 86l12 94q8 62 -4 80t-65 19h-70q-84 0 -96 -113
l-137 -1091q-4 -25 -29 -25h-209q-14 0 -24 10t-9 27l140 1143q15 145 121 232t264 87h69q154 0 248 -93t76 -239l-12 -118q-11 -104 -51 -170t-134 -80q205 -61 170 -348l-10 -95q-24 -170 -146 -263t-329 -93z" />
    <glyph glyph-name="agrave" unicode="&#xe0;" horiz-adv-x="946" 
d="M336 268h98q80 0 111 31l8 76h-193q-14 -1 -33 -17t-23 -35t6 -37t26 -18zM780 0h-227q-31 0 -39 39q-76 -41 -137 -41h-76q-113 0 -193 96t-64 229t114 213t231 80h195l2 21q4 33 -14 47t-60 14h-94q-64 0 -133 -43q-25 -10 -41 15l-97 141q-20 31 0 45q141 111 332 111
h88q127 1 215 -105t70 -258l-66 -551q-2 -13 1 -33t-7 -20zM303 1638h213q33 0 41 -43l109 -378q10 -31 -15 -31h-188q-29 0 -41 43l-133 379q-8 18 -5 24t19 6z" />
    <glyph glyph-name="aacute" unicode="&#xe1;" horiz-adv-x="946" 
d="M336 268h98q80 0 111 31l8 76h-193q-14 -1 -33 -17t-23 -35t6 -37t26 -18zM479 967h88q127 1 215 -105t70 -258l-66 -551q-2 -13 1 -33t-7 -20h-227q-31 0 -39 39q-76 -41 -137 -41h-76q-113 0 -193 96t-64 229t114 213t231 80h195l2 21q4 33 -14 47t-60 14h-94
q-64 0 -133 -43q-25 -10 -41 15l-97 141q-20 31 0 45q142 111 332 111zM688 1638h238q18 0 26 -12t0 -31l-227 -378q-20 -31 -43 -31h-213q-16 0 -25 13q-8 13 0 30l203 379q12 30 41 30z" />
    <glyph glyph-name="acircumflex" unicode="&#xe2;" horiz-adv-x="946" 
d="M336 268h98q80 0 111 31l8 76h-193q-14 -1 -33 -17t-23 -35t6 -37t26 -18zM479 967h88q127 1 215 -105t70 -258l-66 -551q-2 -13 1 -33t-7 -20h-227q-31 0 -39 39q-76 -41 -137 -41h-76q-113 0 -193 96t-64 229t114 213t231 80h195l2 21q4 33 -14 47t-60 14h-94
q-64 0 -133 -43q-25 -10 -41 15l-97 141q-20 31 0 45q142 111 332 111zM934 1200h-207q-18 0 -43 43l-90 176l-131 -184q-25 -35 -47 -35h-213q-15 0 -23 15t2 30l277 365q20 29 45 28h207q31 0 49 -39l188 -364q18 -35 -14 -35z" />
    <glyph glyph-name="atilde" unicode="&#xe3;" horiz-adv-x="946" 
d="M336 268h98q80 0 111 31l8 76h-193q-14 -1 -33 -17t-23 -35t6 -37t26 -18zM479 967h88q127 1 215 -105t70 -258l-66 -551q-2 -13 1 -33t-7 -20h-227q-31 0 -39 39q-76 -41 -137 -41h-76q-113 0 -193 96t-64 229t114 213t231 80h195l2 21q4 33 -14 47t-60 14h-94
q-64 0 -133 -43q-25 -10 -41 15l-97 141q-20 31 0 45q142 111 332 111zM913 1526l60 -152q10 -23 -12 -49q-238 -141 -414 -22q-97 57 -165 25q-28 -13 -81 -50q-27 -10 -39 29l-61 153q-8 23 16 47q252 147 414 23q91 -59 164 -26q29 13 82 50q30 13 36 -28z" />
    <glyph glyph-name="adieresis" unicode="&#xe4;" horiz-adv-x="946" 
d="M336 268h98q80 0 111 31l8 76h-193q-14 -1 -33 -17t-23 -35t6 -37t26 -18zM479 967h88q127 1 215 -105t70 -258l-66 -551q-2 -13 1 -33t-7 -20h-227q-31 0 -39 39q-76 -41 -137 -41h-76q-113 0 -193 96t-64 229t114 213t231 80h195l2 21q4 33 -14 47t-60 14h-94
q-64 0 -133 -43q-25 -10 -41 15l-97 141q-20 31 0 45q142 111 332 111zM676 1487h280q14 0 24 -10t9 -27l-33 -274q-2 -25 -26 -25h-281q-14 0 -24 11t-9 28l33 272q2 25 27 25zM479 1151h-280q-14 0 -25 11q-10 11 -10 28l35 272q2 25 26 25h279q16 0 26 -11t9 -26
l-35 -274q-2 -10 -3 -18q-2 -8 -22 -7z" />
    <glyph glyph-name="aring" unicode="&#xe5;" horiz-adv-x="946" 
d="M336 268h98q80 0 111 31l8 76h-193q-14 -1 -33 -17t-23 -35t6 -37t26 -18zM780 0h-227q-31 0 -39 39q-76 -41 -137 -41h-76q-113 0 -193 96t-64 229t114 213t231 80h195l2 21q4 33 -14 47t-60 14h-94q-64 0 -133 -43q-25 -10 -41 15l-97 141q-20 31 0 45q141 111 332 111
h88q127 1 215 -105t70 -258l-66 -551q-2 -13 1 -33t-7 -20zM578 1391h2q20 0 40 18q19 18 23 37v4q4 39 -37 39h-2q-18 1 -38 -17t-23 -36v-4q-4 -41 35 -41zM586 1239h-27q-84 0 -132 56t-38 139l2 22q11 82 67 133t138 51h27q82 0 132 -57t40 -139l-4 -23q-9 -82 -65 -132
t-140 -50z" />
    <glyph glyph-name="ae" unicode="&#xe6;" horiz-adv-x="1445" 
d="M354 346q-10 0 -25.5 -16.5t-18.5 -39t22 -22.5h51q111 0 141 25l13 53h-183zM1024 698h-78q-31 0 -66.5 -25.5t-37.5 -54.5l-2 -10h250l4 27q4 27 -16.5 45t-53.5 18zM971 969h78q135 0 232 -109.5t79 -265.5l-19 -141q-8 -55 -63 -56h-463l-2 -18l-2 -25
q-14 -86 74 -86h90q27 0 43 12.5t21 15.5t14.5 14.5t12.5 15.5t14.5 16t13.5 16q23 16 49 -14l133 -131q23 -23 10 -51q-57 -53 -92 -82t-103.5 -55.5t-146.5 -26.5h-78q-127 0 -217 80q-109 -80 -237 -80h-109q-115 0 -194.5 92t-64.5 218t113.5 205t229.5 79h178l4 24
q10 80 -71 80h-82q-76 0 -121 -45q-27 -6 -41 19l-96 141q-16 25 -6 49q133 106 331 107h74q104 0 184 -74q103 76 230 76z" />
    <glyph glyph-name="ccedilla" unicode="&#xe7;" horiz-adv-x="985" 
d="M494 698q-37 0 -70 -30.5t-37 -75.5l-29 -234q-10 -90 72 -90h92q25 0 48.5 14.5t34.5 28t40 45.5q18 20 47 -12l133 -131q31 -31 11 -51q-47 -45 -79 -72t-88.5 -53.5t-119.5 -34.5q4 -10 -2 -17t-11.5 -14.5t-6.5 -11.5t3.5 -7t8.5 -4t14 -3t16 -4q104 -8 145.5 -56.5
t26.5 -156.5q-18 -141 -213 -142h-172q-84 0 -128 51.5t-35 135.5q2 6 14 6h162q8 0 16 -9.5t6 -21.5q14 -14 43 -14h45q59 0 66 37q0 8 -62.5 13t-112.5 13q-50 7 -66 15q-40 18 -47 67t63 131q-117 33 -182.5 134.5t-51.5 226.5l29 233q18 150 133.5 257.5t269.5 107.5h74
q133 0 227 -95.5t84 -211.5q-4 -23 -26 -23h-211q-23 0 -30.5 30.5t-23.5 30.5l-41 -2h-79z" />
    <glyph glyph-name="egrave" unicode="&#xe8;" horiz-adv-x="993" 
d="M571 698h-77q-31 0 -67 -25.5t-38 -54.5l-2 -10h250l4 27q4 27 -16.5 45t-53.5 18zM520 969h78q135 0 231.5 -110.5t77.5 -264.5l-16 -141q-6 -31 -19.5 -43.5t-44.5 -12.5h-467l-2 -43q-12 -86 74 -86h90q47 0 84 46q6 8 19.5 23t17.5 21q20 16 47 -14l133 -131
q25 -23 13 -51q-57 -53 -92 -82t-104 -55.5t-148 -26.5h-78q-154 0 -248 111.5t-78 261.5l29 233q18 150 133.5 257.5t269.5 107.5zM664 1186h-189q-29 0 -41 43l-133 379q-8 18 -5 24t19 6h213q33 0 41 -43l109 -378q10 -31 -14 -31z" />
    <glyph glyph-name="eacute" unicode="&#xe9;" horiz-adv-x="993" 
d="M571 698h-77q-31 0 -67 -25.5t-38 -54.5l-2 -10h250l4 27q4 27 -16.5 45t-53.5 18zM520 969h78q135 0 231.5 -110.5t77.5 -264.5l-16 -141q-6 -31 -19.5 -43.5t-44.5 -12.5h-467l-2 -43q-12 -86 74 -86h90q47 0 84 46q6 8 19.5 23t17.5 21q20 16 47 -14l133 -131
q25 -23 13 -51q-57 -53 -92 -82t-104 -55.5t-148 -26.5h-78q-154 0 -248 111.5t-78 261.5l29 233q18 150 133.5 257.5t269.5 107.5zM938 1638q18 0 26.5 -12t0.5 -31l-228 -378q-20 -31 -43 -31h-213q-16 0 -24 13.5t0 29.5l202 379q12 31 41 30h238z" />
    <glyph glyph-name="ecircumflex" unicode="&#xea;" horiz-adv-x="993" 
d="M571 698h-77q-31 0 -67 -25.5t-38 -54.5l-2 -10h250l4 27q4 27 -16.5 45t-53.5 18zM520 969h78q135 0 231.5 -110.5t77.5 -264.5l-16 -141q-6 -31 -19.5 -43.5t-44.5 -12.5h-467l-2 -43q-12 -86 74 -86h90q47 0 84 46q6 8 19.5 23t17.5 21q20 16 47 -14l133 -131
q25 -23 13 -51q-57 -53 -92 -82t-104 -55.5t-148 -26.5h-78q-154 0 -248 111.5t-78 261.5l29 233q18 150 133.5 257.5t269.5 107.5zM723 1638q31 0 49 -39l189 -364q18 -35 -15 -35h-207q-18 0 -43 43l-90 176l-131 -184q-25 -35 -47 -35h-213q-16 0 -23 15.5t3 29.5
l276 365q20 29 45 28h207z" />
    <glyph glyph-name="edieresis" unicode="&#xeb;" horiz-adv-x="993" 
d="M571 698h-77q-31 0 -67 -25.5t-38 -54.5l-2 -10h250l4 27q4 27 -16.5 45t-53.5 18zM520 969h78q135 0 231.5 -110.5t77.5 -264.5l-16 -141q-6 -31 -19.5 -43.5t-44.5 -12.5h-467l-2 -43q-12 -86 74 -86h90q47 0 84 46q6 8 19.5 23t17.5 21q20 16 47 -14l133 -131
q25 -23 13 -51q-57 -53 -92 -82t-104 -55.5t-148 -26.5h-78q-154 0 -248 111.5t-78 261.5l29 233q18 150 133.5 257.5t269.5 107.5zM686 1487h281q14 0 24 -10.5t8 -26.5l-32 -274q-2 -25 -27 -25h-281q-14 0 -24 11.5t-8 27.5l32 272q2 25 27 25zM236 1487h278
q16 0 26.5 -11.5t8.5 -25.5l-35 -274q-2 -10 -3 -18t-22 -7h-280q-14 0 -24.5 11.5t-10.5 27.5l35 272q2 25 27 25z" />
    <glyph glyph-name="igrave" unicode="&#xec;" horiz-adv-x="598" 
d="M238 965h208q14 -1 24 -11t9 -26l-110 -903q-4 -25 -29 -25h-209q-14 0 -25 10q-10 11 -8 27l113 903q2 25 27 25zM465 1186h-189q-29 0 -40 43l-134 379q-8 18 -5 24t20 6h213q35 0 41 -43l108 -378q10 -31 -14 -31z" />
    <glyph glyph-name="iacute" unicode="&#xed;" horiz-adv-x="598" 
d="M238 965h208q14 -1 24 -11t9 -26l-110 -903q-4 -25 -29 -25h-209q-14 0 -25 10q-10 11 -8 27l113 903q2 25 27 25zM739 1638q19 0 27 -12t0 -31l-227 -378q-20 -31 -43 -31h-213q-16 0 -25 13q-8 14 0 30l203 379q12 31 41 30h237z" />
    <glyph glyph-name="icircumflex" unicode="&#xee;" horiz-adv-x="598" 
d="M238 965h208q14 -1 24 -11t9 -26l-110 -903q-4 -25 -29 -25h-209q-14 0 -25 10q-10 11 -8 27l113 903q2 25 27 25zM524 1638q29 0 49 -39l189 -364q16 -35 -14 -35h-207q-18 0 -43 43l-90 176l-132 -184q-25 -35 -47 -35h-213q-16 0 -23 16t3 29l276 365q20 29 45 28h207
z" />
    <glyph glyph-name="idieresis" unicode="&#xef;" horiz-adv-x="598" 
d="M238 965h208q14 -1 24 -11t9 -26l-110 -903q-4 -25 -29 -25h-209q-14 0 -25 10q-10 11 -8 27l113 903q2 25 27 25zM489 1487h281q14 0 24 -10t9 -27l-33 -274q-2 -25 -27 -25h-280q-14 0 -25 11q-10 12 -8 28l33 272q2 25 26 25zM39 1487h278q17 0 27 -11t8 -26l-35 -274
q-2 -10 -3 -18t-21 -7h-281q-14 -1 -24 11t-11 28l35 272q2 25 27 25z" />
    <glyph glyph-name="eth" unicode="&#xf0;" horiz-adv-x="1112" 
d="M461 250h59q4 0 28 -2q79 -7 112 36q65 74 78 243q6 74 -20 93t-98 19h-67q-92 2 -137 -56q-46 -58 -58 -163q-12 -106 11 -138t92 -32zM856 1487h234q18 0 28 -12t-2 -29l-121 -133q49 -100 45 -232q0 -334 -71 -682q-43 -197 -158 -309t-262 -110h-133q-162 0 -257 118
t-71 352t134 351t313 117q121 0 155 -6q33 -6 42 -6q8 -1 26 -8t24 -9q14 58 7 114t-9 78h-245q-19 1 -29 15t2 28l106 119h-16q-14 0 -25 10q-10 10 -8 27l25 209q4 25 28 24h50q88 0 163 -32q9 6 25 6z" />
    <glyph glyph-name="ntilde" unicode="&#xf1;" horiz-adv-x="1060" 
d="M582 963h92q158 0 223.5 -104.5t44.5 -268.5l-70 -565q-4 -25 -28 -25h-209q-14 0 -24.5 10t-8.5 27l70 565q4 43 -14.5 66.5t-53.5 23.5h-94q-37 0 -65.5 -33.5t-34.5 -83.5l-68 -550q-4 -25 -29 -25h-209q-14 0 -24 10t-8 27l110 901q4 25 29 25h209q14 0 24.5 -10.5
t8.5 -26.5l-7 -31q8 25 51.5 46.5t84.5 21.5zM956 1526l60 -152q10 -23 -12 -49q-238 -141 -414 -22q-97 57 -165 25q-28 -13 -81 -50q-27 -10 -39 29l-61 153q-8 23 16 47q252 147 414 23q92 -60 164 -26q28 14 82 50q30 13 36 -28z" />
    <glyph glyph-name="ograve" unicode="&#xf2;" horiz-adv-x="1054" 
d="M584 698h-88q-49 0 -78 -32t-33 -70l-29 -242q-12 -86 74 -86h90q49 0 77 30t32 69l28 241q16 90 -73 90zM520 969h80q154 0 250 -110t78 -263l-29 -242q-20 -154 -135 -255t-268 -101h-80q-154 0 -251 108t-79 261l29 241q23 154 137 258t268 103zM686 1186h-188
q-29 0 -41 43l-133 379q-8 18 -6 24q3 6 20 6h213q35 0 41 -43l108 -378q10 -31 -14 -31z" />
    <glyph glyph-name="oacute" unicode="&#xf3;" horiz-adv-x="1054" 
d="M584 698h-88q-49 0 -78 -32t-33 -70l-29 -242q-12 -86 74 -86h90q49 0 77 30t32 69l28 241q16 90 -73 90zM520 969h80q154 0 250 -110t78 -263l-29 -242q-20 -154 -135 -255t-268 -101h-80q-154 0 -251 108t-79 261l29 241q23 154 137 258t268 103zM958 1638q18 0 26 -12
t1 -31l-227 -378q-20 -31 -43 -31h-213q-16 0 -25 13q-8 14 0 30l203 379q12 31 41 30h237z" />
    <glyph glyph-name="ocircumflex" unicode="&#xf4;" horiz-adv-x="1054" 
d="M584 698h-88q-49 0 -78 -32t-33 -70l-29 -242q-12 -86 74 -86h90q49 0 77 30t32 69l28 241q16 90 -73 90zM520 969h80q154 0 250 -110t78 -263l-29 -242q-20 -154 -135 -255t-268 -101h-80q-154 0 -251 108t-79 261l29 241q23 154 137 258t268 103zM743 1638q31 0 50 -39
l188 -364q18 -35 -14 -35h-207q-18 0 -43 43l-90 176l-131 -184q-25 -35 -47 -35h-213q-16 0 -24 15q-7 16 3 30l277 365q20 29 45 28h206z" />
    <glyph glyph-name="otilde" unicode="&#xf5;" horiz-adv-x="1054" 
d="M584 698h-88q-49 0 -78 -32t-33 -70l-29 -242q-12 -86 74 -86h90q49 0 77 30t32 69l28 241q16 90 -73 90zM520 969h80q154 0 250 -110t78 -263l-29 -242q-20 -154 -135 -255t-268 -101h-80q-154 0 -251 108t-79 261l29 241q23 154 137 258t268 103zM946 1526l60 -152
q10 -23 -13 -49q-238 -141 -413 -22q-98 57 -165 25q-28 -13 -81 -50q-27 -10 -39 29l-62 153q-8 23 17 47q252 147 414 23q91 -59 163 -26q29 13 82 50q31 13 37 -28z" />
    <glyph glyph-name="odieresis" unicode="&#xf6;" horiz-adv-x="1054" 
d="M584 698h-88q-49 0 -78 -32t-33 -70l-29 -242q-12 -86 74 -86h90q49 0 77 30t32 69l28 241q16 90 -73 90zM520 969h80q154 0 250 -110t78 -263l-29 -242q-20 -154 -135 -255t-268 -101h-80q-154 0 -251 108t-79 261l29 241q23 154 137 258t268 103zM709 1487h280
q15 0 25 -10t8 -27l-33 -274q-2 -25 -26 -25h-281q-14 0 -25 11q-10 12 -8 28l33 272q2 25 27 25zM258 1487h279q16 0 26 -11t8 -26l-34 -274q-2 -10 -3 -18t-22 -7h-281q-14 -1 -24 11t-10 28l34 272q2 25 27 25z" />
    <glyph glyph-name="divide" unicode="&#xf7;" horiz-adv-x="1052" 
d="M385 416h229q16 0 26 -12t9 -25l-26 -225q-4 -25 -29 -25h-232q-14 -1 -24 11t-8 28l28 223q2 25 27 25zM174 797h748q14 -1 24 -11t8 -26l-26 -209q-2 -17 -6 -21t-21 -4h-745q-16 0 -26 12t-7 25l27 209q4 20 9 22t15 3zM479 1194h232q14 0 24 -11t8 -28l-26 -223
q-2 -25 -27 -25h-231q-17 -1 -25 11t-6 26l27 225q2 9 3 17q2 8 21 8z" />
    <glyph glyph-name="oslash" unicode="&#xf8;" horiz-adv-x="1054" 
d="M639 451l-102 -181q41 4 65 33t27 64zM375 504l110 194q-45 -4 -71 -34t-29 -68zM496 -2h-80q-31 0 -47 2h-232q-16 0 -24 11t-2 26l45 80q-88 104 -70 250l29 241q23 154 137 257q115 103 268 104h80q18 0 55 -4h226q16 1 24 -11t2 -26l-47 -82q84 -102 68 -250
l-29 -242q-20 -154 -135 -255t-268 -101z" />
    <glyph glyph-name="ugrave" unicode="&#xf9;" horiz-adv-x="1081" 
d="M846 0h-209q-14 0 -25 10q-10 10 -8 27l4 31q-10 -24 -53 -46t-82 -22h-92q-157 0 -223 105t-45 270l69 563q4 16 9 20t20 5h209q14 -1 24 -11t9 -26l-70 -566q-4 -42 15 -66t53 -24h94q39 0 67 35t33 84l70 549q3 18 10 22q6 3 16 3h209q16 1 26 -11t9 -26l-111 -901
q-4 -17 -9 -21t-19 -4zM711 1186h-189q-29 0 -41 43l-133 379q-8 18 -5 24t19 6h213q35 0 41 -43l109 -378q10 -31 -14 -31z" />
    <glyph glyph-name="uacute" unicode="&#xfa;" horiz-adv-x="1081" 
d="M846 0h-209q-14 0 -25 10q-10 10 -8 27l4 31q-10 -24 -53 -46t-82 -22h-92q-157 0 -223 105t-45 270l69 563q4 16 9 20t20 5h209q14 -1 24 -11t9 -26l-70 -566q-4 -42 15 -66t53 -24h94q39 0 67 35t33 84l70 549q3 18 10 22q6 3 16 3h209q16 1 26 -11t9 -26l-111 -901
q-4 -17 -9 -21t-19 -4zM985 1638q19 0 27 -12t0 -31l-228 -378q-20 -31 -43 -31h-213q-16 0 -24 14t0 29l203 379q12 31 41 30h237z" />
    <glyph glyph-name="ucircumflex" unicode="&#xfb;" horiz-adv-x="1081" 
d="M846 0h-209q-14 0 -25 10q-10 10 -8 27l4 31q-10 -24 -53 -46t-82 -22h-92q-157 0 -223 105t-45 270l69 563q4 16 9 20t20 5h209q14 -1 24 -11t9 -26l-70 -566q-4 -42 15 -66t53 -24h94q39 0 67 35t33 84l70 549q3 18 10 22q6 3 16 3h209q16 1 26 -11t9 -26l-111 -901
q-4 -17 -9 -21t-19 -4zM770 1638q29 0 49 -39l189 -364q16 -35 -15 -35h-207q-18 0 -43 43l-90 176l-131 -184q-25 -35 -47 -35h-213q-16 0 -23 16t3 29l276 365q20 29 45 28h207z" />
    <glyph glyph-name="udieresis" unicode="&#xfc;" horiz-adv-x="1081" 
d="M846 0h-209q-14 0 -25 10q-10 10 -8 27l4 31q-10 -24 -53 -46t-82 -22h-92q-157 0 -223 105t-45 270l69 563q4 16 9 20t20 5h209q14 -1 24 -11t9 -26l-70 -566q-4 -42 15 -66t53 -24h94q39 0 67 35t33 84l70 549q3 18 10 22q6 3 16 3h209q16 1 26 -11t9 -26l-111 -901
q-4 -17 -9 -21t-19 -4zM733 1487h281q14 0 24 -10t9 -27l-33 -274q-2 -25 -27 -25h-280q-14 0 -25 11q-10 12 -8 28l33 272q2 25 26 25zM283 1487h278q17 0 27 -11t8 -26l-35 -274q-2 -10 -3 -18t-21 -7h-281q-14 0 -25 11q-10 12 -10 28l35 272q2 25 27 25z" />
    <glyph glyph-name="yacute" unicode="&#xfd;" horiz-adv-x="1134" 
d="M862 963h221q19 -1 25 -15t-2 -28l-707 -1301q-14 -29 -43 -29h-221q-18 0 -25 14t-1 29l258 476l-244 823q-13 29 14 31h223q31 0 39 -41l150 -482l268 494q16 29 45 29zM764 1186h-213q-16 0 -25 13q-8 13 0 30l203 379q12 31 41 30h238q18 0 26 -12t0 -31l-227 -378
q-20 -31 -43 -31z" />
    <glyph glyph-name="thorn" unicode="&#xfe;" horiz-adv-x="1038" 
d="M594 692h-82q-43 0 -63 -22t-31 -72l-31 -256l8 4q-14 -53 -7 -64t58 -12h82q54 0 70 20t20 62l31 250q12 54 4 72t-59 18zM532 963h82q160 1 242 -105t64 -268l-31 -250q-21 -156 -125 -248t-256 -92h-82q-41 0 -80 12l-49 -397q-2 -25 -27 -25h-209q-14 0 -24 10t-8 27
l129 1053v4l96 778q2 25 27 25h208q15 0 25 -10t8 -27l-61 -496q32 9 71 9z" />
    <glyph glyph-name="ydieresis" unicode="&#xff;" horiz-adv-x="1134" 
d="M862 963h221q19 -1 25 -15t-2 -28l-707 -1301q-14 -29 -43 -29h-221q-18 0 -25 14t-1 29l258 476l-244 823q-13 29 14 31h223q31 0 39 -41l150 -482l268 494q16 29 45 29zM1012 1151h-281q-14 0 -24 11t-9 28l33 272q2 25 27 25h280q14 0 24 -10t9 -27l-33 -274
q-1 -25 -26 -25zM561 1151h-280q-14 0 -25 11q-10 11 -10 28l35 272q2 25 26 25h279q16 0 26 -11t9 -26l-35 -274q-2 -10 -3 -18q-2 -8 -22 -7z" />
    <glyph glyph-name="Amacron" unicode="&#x100;" horiz-adv-x="1230" 
d="M711 618l-47 312l-125 -312h172zM1047 0h-209q-33 0 -39 39l-47 309h-324l-129 -321q-12 -27 -37 -27h-211q-16 0 -24 11t-2 28l577 1427q10 27 39 27h164q15 1 25 -11t12 -28l225 -1427q2 -15 -2 -21t-18 -6zM449 2011h663q14 0 24 -11t9 -26l-27 -209q0 -25 -24 -24
h-664q-14 0 -24 10t-9 27l25 209q2 24 27 24z" />
    <glyph glyph-name="amacron" unicode="&#x101;" horiz-adv-x="946" 
d="M336 268h98q80 0 111 31l8 76h-193q-14 -1 -33 -17t-23 -35t6 -37t26 -18zM479 967h88q127 1 215 -105t70 -258l-66 -551q-2 -13 1 -33t-7 -20h-227q-31 0 -39 39q-76 -41 -137 -41h-76q-113 0 -193 96t-64 229t114 213t231 80h195l2 21q4 33 -14 47t-60 14h-94
q-64 0 -133 -43q-25 -10 -41 15l-97 141q-20 31 0 45q142 111 332 111zM260 1487h664q14 0 24 -11t8 -26l-26 -209q0 -25 -25 -24h-663q-14 0 -25 10q-10 10 -8 26l24 209q2 25 27 25z" />
    <glyph glyph-name="Abreve" unicode="&#x102;" horiz-adv-x="1230" 
d="M711 618l-47 312l-125 -312h172zM1047 0h-209q-33 0 -39 39l-47 309h-324l-129 -321q-12 -27 -37 -27h-211q-16 0 -24 11t-2 28l577 1427q10 27 39 27h164q15 1 25 -11t12 -28l225 -1427q2 -15 -2 -21t-18 -6zM831 1790h-129q-141 0 -214 100t-54 256q2 16 27 17h160
q37 0 33 -40t14 -76q20 -36 69 -36h84q51 0 86 45t41 90q2 16 25 17h160q35 0 34 -45q-20 -145 -108 -237q-89 -91 -228 -91z" />
    <glyph glyph-name="abreve" unicode="&#x103;" horiz-adv-x="946" 
d="M336 268h98q80 0 111 31l8 76h-193q-14 -1 -33 -17t-23 -35t6 -37t26 -18zM479 967h88q127 1 215 -105t70 -258l-66 -551q-2 -13 1 -33t-7 -20h-227q-31 0 -39 39q-76 -41 -137 -41h-76q-113 0 -193 96t-64 229t114 213t231 80h195l2 21q4 33 -14 47t-60 14h-94
q-64 0 -133 -43q-25 -10 -41 15l-97 141q-20 31 0 45q142 111 332 111zM784 1638h160q35 0 35 -45q-21 -145 -109 -236t-227 -91h-129q-141 0 -214 100t-54 256q2 16 26 16h160q37 0 33 -40t15 -76t69 -35h84q51 0 86 45t41 90q1 16 24 16z" />
    <glyph glyph-name="Aogonek" unicode="&#x104;" horiz-adv-x="1230" 
d="M711 618l-47 312l-125 -312h172zM756 -219h250q8 0 16 -11t6 -22l-14 -119q-2 -14 -17 -14h-276q-106 0 -155 39q-48 39 -36 139q6 51 20 81q21 47 98 67q19 4 77 12q115 6 137 47h-24q-33 0 -39 39l-47 309h-324l-129 -321q-12 -27 -37 -27h-211q-16 0 -24 11t-2 28
l577 1427q10 27 39 27h164q30 0 37 -39l225 -1427q0 -16 -2 -21q12 -102 -24 -140t-113 -48q-137 -11 -176 -19q-45 0 -47 -24q6 6 51 6z" />
    <glyph glyph-name="aogonek" unicode="&#x105;" horiz-adv-x="946" 
d="M336 268h98q80 0 111 31l8 76h-193q-14 -1 -33 -17t-23 -35t6 -37t26 -18zM780 0h-8q10 -98 -26 -135t-113 -47q-137 -10 -176 -19q-45 0 -47 -24q6 6 51 6h250q8 0 16 -11t6 -22l-14 -119q-2 -14 -17 -14h-276q-106 0 -155 39q-48 39 -35 139q6 51 19 81q20 47 98 67
q19 4 77 12q115 6 137 47h-14q-31 0 -39 39q-76 -41 -137 -41h-76q-113 0 -193 96t-64 229t114 213t231 80h195l2 21q4 33 -14 47t-60 14h-94q-64 0 -133 -43q-25 -10 -41 15l-97 141q-20 31 0 45q141 111 332 111h88q127 1 215 -105t70 -258l-66 -551q-2 -13 1 -33t-7 -20z
" />
    <glyph glyph-name="Cacute" unicode="&#x106;" horiz-adv-x="1159" 
d="M801 481h209q37 0 30 -45q-27 -205 -158.5 -334t-316.5 -129h-94q-193 0 -300.5 138.5t-80.5 359.5l70 557q27 219 161 350t326 131h94q186 0 290 -136t83 -351q-2 -16 -29 -16h-208q-39 0 -33 45q14 102 -12.5 145t-110.5 43h-94q-92 0 -138.5 -52t-60.5 -171l-68 -557
q-14 -121 12.5 -168t116.5 -47h95q84 0 129 53t59 168q2 16 29 16zM889 2163h237q18 0 26.5 -12.5t0.5 -30.5l-227 -379q-20 -31 -43 -31h-213q-16 0 -24.5 13.5t-0.5 29.5l203 379q12 31 41 31z" />
    <glyph glyph-name="cacute" unicode="&#x107;" horiz-adv-x="985" 
d="M494 698q-37 0 -70 -30.5t-37 -75.5l-29 -234q-10 -90 72 -90h92q25 0 48.5 14.5t34.5 28t40 45.5q18 20 47 -12l133 -131q31 -31 11 -51q-57 -53 -92 -82t-105 -55.5t-152 -26.5h-73q-154 0 -248 111.5t-78 261.5l29 233q18 150 134 257.5t269 107.5h74q133 0 227 -95.5
t84 -211.5q-3 -23 -26 -23h-211q-23 0 -30.5 30.5t-23.5 30.5l-41 -2h-79zM934 1638q18 0 26.5 -12t0.5 -31l-228 -378q-20 -31 -43 -31h-213q-16 0 -24 13.5t0 29.5l202 379q12 31 41 30h238z" />
    <glyph glyph-name="Cdotaccent" unicode="&#x10a;" horiz-adv-x="1159" 
d="M801 481h209q37 0 30 -45q-27 -205 -158.5 -334t-316.5 -129h-94q-193 0 -300.5 138.5t-80.5 359.5l70 557q27 219 161 350t326 131h94q186 0 290 -136t83 -351q-2 -16 -29 -16h-208q-39 0 -33 45q14 102 -12.5 145t-110.5 43h-94q-92 0 -138.5 -52t-60.5 -171l-68 -557
q-14 -121 12.5 -168t116.5 -47h95q84 0 129 53t59 168q2 16 29 16zM651 2011h279q14 0 24.5 -11t8.5 -26l-35 -272q0 -19 -8.5 -21t-16.5 -2h-276q-14 0 -24.5 10.5t-8.5 26.5l33 273q0 18 8 20t16 2z" />
    <glyph glyph-name="cdotaccent" unicode="&#x10b;" horiz-adv-x="985" 
d="M494 698q-37 0 -70 -30.5t-37 -75.5l-29 -234q-10 -90 72 -90h92q25 0 48.5 14.5t34.5 28t40 45.5q18 20 47 -12l133 -131q31 -31 11 -51q-57 -53 -92 -82t-105 -55.5t-152 -26.5h-73q-154 0 -248 111.5t-78 261.5l29 233q18 150 134 257.5t269 107.5h74q133 0 227 -95.5
t84 -211.5q-3 -23 -26 -23h-211q-23 0 -30.5 30.5t-23.5 30.5l-41 -2h-79zM461 1487h278q14 0 24.5 -11.5t8.5 -25.5l-35 -272q0 -19 -8 -21t-16 -2h-277q-14 0 -24.5 10.5t-8.5 26.5l33 272q0 19 8.5 21t16.5 2z" />
    <glyph glyph-name="Ccaron" unicode="&#x10c;" horiz-adv-x="1159" 
d="M801 481h209q37 0 30 -45q-27 -205 -158.5 -334t-316.5 -129h-94q-193 0 -300.5 138.5t-80.5 359.5l70 557q27 219 161 350t326 131h94q186 0 290 -136t83 -351q-2 -16 -29 -16h-208q-39 0 -33 45q14 102 -12.5 145t-110.5 43h-94q-92 0 -138.5 -52t-60.5 -171l-68 -557
q-14 -121 12.5 -168t116.5 -47h95q84 0 129 53t59 168q2 16 29 16zM451 2163h200q18 0 45 -45l88 -174l129 184q25 35 50 35h213q16 0 25 -14.5t-1 -30.5l-278 -367q-20 -27 -52 -27h-206q-27 0 -43 33l-187 369q-16 37 17 37z" />
    <glyph glyph-name="ccaron" unicode="&#x10d;" horiz-adv-x="985" 
d="M494 698q-37 0 -70 -30.5t-37 -75.5l-29 -234q-10 -90 72 -90h92q25 0 48.5 14.5t34.5 28t40 45.5q18 20 47 -12l133 -131q31 -31 11 -51q-57 -53 -92 -82t-105 -55.5t-152 -26.5h-73q-154 0 -248 111.5t-78 261.5l29 233q18 150 134 257.5t269 107.5h74q133 0 227 -95.5
t84 -211.5q-3 -23 -26 -23h-211q-23 0 -30.5 30.5t-23.5 30.5l-41 -2h-79zM461 1638q18 0 45 -45l88 -174l129 185q25 35 49 34h213q16 0 25.5 -14t-0.5 -31l-279 -366q-20 -27 -51 -27h-207q-27 0 -43 33l-186 369q-16 37 16 36h201z" />
    <glyph glyph-name="Dcaron" unicode="&#x10e;" horiz-adv-x="1193" 
d="M719 1217h-234l-114 -947h217q92 0 146 47t67 170l65 525q16 125 -19 165q-36 40 -128 40zM272 1487h490q170 -1 284 -147t89 -341l-64 -524q-25 -195 -168 -335t-311 -140h-490q-14 0 -24 10t-8 27l176 1425q1 25 26 25zM928 2163h213q16 -1 25 -15t-1 -30l-278 -367
q-20 -27 -51 -27h-207q-27 0 -43 33l-187 369q-16 37 17 37h200q18 0 46 -45l88 -174l129 184q24 35 49 35z" />
    <glyph glyph-name="dcaron" unicode="&#x10f;" horiz-adv-x="1488" 
d="M418 270h69q90 0 91 109l4 -4l32 256q-6 61 -61 61h-70q-39 0 -65 -30t-31 -70l-33 -256q-4 -38 8 -52t56 -14zM1149 1487h274q17 0 25 -11t6 -26l-37 -303q-27 -219 -170 -377q-20 -6 -23 -4t-18 18l-84 84q-29 29 -14 52q82 59 98 227l19 14h-105q-14 0 -24 10t-9 27
l33 264q2 25 29 25zM743 1487h209q14 0 24 -10t9 -27l-174 -1425q-3 -20 -10 -22q-6 -3 -17 -3h-209q-14 0 -24 10q-47 -10 -82 -10h-76q-133 0 -228 108t-79 244l31 250q16 141 128 251t255 110h73q41 0 80 -13l64 512q1 25 26 25z" />
    <glyph glyph-name="Dcroat" unicode="&#x110;" horiz-adv-x="1251" 
d="M776 1217h-233l-41 -347h162q14 0 23 -11t7 -25l-24 -209q-2 -25 -27 -25h-174l-41 -330h217q92 0 146 47q53 47 67 170l66 525q16 125 -20 165t-128 40zM328 1487h489q170 -1 285 -147t90 -341l-64 -524q-26 -195 -168 -335t-311 -140h-489q-14 0 -25 10q-10 10 -8 27
l70 563h-95q-14 0 -24 11t-8 28l24 209q2 23 29 22h106l74 592q2 10 3 18q2 8 22 7z" />
    <glyph glyph-name="dcroat" unicode="&#x111;" horiz-adv-x="1019" 
d="M418 270h69q90 0 91 109l4 -4l32 256q-6 61 -61 61h-70q-39 0 -65 -30t-31 -70l-33 -256q-4 -38 8 -52t56 -14zM1053 1335q14 0 24 -11t8 -26l-26 -208q0 -25 -25 -25h-96l-127 -1040q-3 -20 -10 -22q-6 -3 -17 -3h-209q-14 0 -24 10q-47 -10 -82 -10h-76
q-133 0 -228 108t-79 244l31 250q16 141 128 251t255 110h73q41 0 80 -13l15 115h-297q-14 0 -25 10q-10 10 -8 27l24 209q2 25 27 24h311l17 127q2 25 26 25h209q14 0 24 -10t9 -27l-14 -115h82z" />
    <glyph glyph-name="Emacron" unicode="&#x112;" horiz-adv-x="1138" 
d="M883 885q16 0 26.5 -11.5t8.5 -25.5l-27 -209q-2 -9 -3 -17t-22 -8h-456l-43 -344h575q14 0 24.5 -10t8.5 -27l-25 -208q-4 -25 -28 -25h-822q-14 0 -24 10t-8 27l176 1425q2 25 26 25h822q14 0 24 -10.5t8 -26.5l-26 -209q0 -16 -4 -20t-21 -4h-588l-43 -332h441z
M1106 1741h-664q-14 0 -24 10t-8 27l24 209q2 25 27 24h663q14 0 24.5 -11t8.5 -26l-27 -209q1 -24 -24 -24z" />
    <glyph glyph-name="emacron" unicode="&#x113;" horiz-adv-x="993" 
d="M571 698h-77q-31 0 -67 -25.5t-38 -54.5l-2 -10h250l4 27q4 27 -16.5 45t-53.5 18zM520 969h78q135 0 231.5 -110.5t77.5 -264.5l-16 -141q-6 -31 -19.5 -43.5t-44.5 -12.5h-467l-2 -43q-12 -86 74 -86h90q47 0 84 46q6 8 19.5 23t17.5 21q20 16 47 -14l133 -131
q25 -23 13 -51q-57 -53 -92 -82t-104 -55.5t-148 -26.5h-78q-154 0 -248 111.5t-78 261.5l29 233q18 150 133.5 257.5t269.5 107.5zM918 1217h-664q-14 0 -24.5 10t-8.5 26l25 209q2 25 26 25h664q14 0 24.5 -11.5t8.5 -25.5l-27 -209q1 -24 -24 -24z" />
    <glyph glyph-name="Edotaccent" unicode="&#x116;" horiz-adv-x="1138" 
d="M883 885q16 0 26.5 -11.5t8.5 -25.5l-27 -209q-2 -9 -3 -17t-22 -8h-456l-43 -344h575q14 0 24.5 -10t8.5 -27l-25 -208q-4 -25 -28 -25h-822q-14 0 -24 10t-8 27l176 1425q2 25 26 25h822q14 0 24 -10.5t8 -26.5l-26 -209q0 -16 -4 -20t-21 -4h-588l-43 -332h441z
M653 2011h279q14 0 24.5 -11t8.5 -26l-35 -272q0 -19 -8.5 -21t-16.5 -2h-276q-14 0 -24.5 10.5t-8.5 26.5l33 273q0 18 8 20t16 2z" />
    <glyph glyph-name="edotaccent" unicode="&#x117;" horiz-adv-x="993" 
d="M571 698h-77q-31 0 -67 -25.5t-38 -54.5l-2 -10h250l4 27q4 27 -16.5 45t-53.5 18zM520 969h78q135 0 231.5 -110.5t77.5 -264.5l-16 -141q-6 -31 -19.5 -43.5t-44.5 -12.5h-467l-2 -43q-12 -86 74 -86h90q47 0 84 46q6 8 19.5 23t17.5 21q20 16 47 -14l133 -131
q25 -23 13 -51q-57 -53 -92 -82t-104 -55.5t-148 -26.5h-78q-154 0 -248 111.5t-78 261.5l29 233q18 150 133.5 257.5t269.5 107.5zM463 1487h278q14 0 24.5 -11.5t8.5 -25.5l-35 -272q0 -19 -8 -21t-16 -2h-277q-14 0 -24 10.5t-8 26.5l32 272q0 19 8.5 21t16.5 2z" />
    <glyph glyph-name="Eogonek" unicode="&#x118;" horiz-adv-x="1138" 
d="M270 1487h822q14 0 24 -10.5t8 -26.5l-26 -209q0 -16 -4 -20t-21 -4h-588l-43 -332h441q16 0 26.5 -11.5t8.5 -25.5l-27 -209q-2 -9 -3 -17t-22 -8h-456l-43 -344h575q14 0 24.5 -10t8.5 -27l-25 -208l-2 -9v-4q14 -106 -21.5 -145t-115.5 -49q-137 -10 -176 -19
q-45 0 -47 -24q6 6 51 6h250q8 0 16 -11.5t6 -21.5l-14 -119q-2 -14 -16 -14h-277q-106 0 -154.5 39t-35.5 139q6 51 19 81t46 46.5t52.5 20.5t76.5 12q115 6 137 47h-645q-14 0 -24 10t-8 27l176 1425q1 25 26 25z" />
    <glyph glyph-name="eogonek" unicode="&#x119;" horiz-adv-x="993" 
d="M571 698h-77q-31 0 -67 -25.5t-38 -54.5l-2 -10h250l4 27q4 27 -16.5 45t-53.5 18zM520 969h78q135 0 231.5 -110.5t77.5 -264.5l-16 -141q-6 -31 -19.5 -43.5t-44.5 -12.5h-467l-2 -43q-12 -86 74 -86h90q47 0 84 46q6 8 19.5 23t17.5 21q20 16 47 -14l133 -131
q25 -23 13 -51q-109 -104 -193 -137q2 -4 2 -13q14 -106 -21.5 -145t-115.5 -49q-137 -10 -176 -19q-45 0 -47 -24q6 6 51 6h250q8 0 16 -11.5t6 -21.5l-14 -119q-2 -14 -16 -14h-277q-106 0 -154.5 39t-35.5 139q6 51 19 81t46 46.5t52.5 20.5t76.5 12q113 6 137 45h-28
q-154 0 -248 111.5t-78 261.5l29 233q18 150 133.5 257.5t269.5 107.5z" />
    <glyph glyph-name="Ecaron" unicode="&#x11a;" horiz-adv-x="1138" 
d="M883 885q16 0 26.5 -11.5t8.5 -25.5l-27 -209q-2 -9 -3 -17t-22 -8h-456l-43 -344h575q14 0 24.5 -10t8.5 -27l-25 -208q-4 -25 -28 -25h-822q-14 0 -24 10t-8 27l176 1425q2 25 26 25h822q14 0 24 -10.5t8 -26.5l-26 -209q0 -16 -4 -20t-21 -4h-588l-43 -332h441z
M453 2163h200q18 0 45 -45l88 -174l129 184q25 35 50 35h213q16 0 25 -14.5t-1 -30.5l-278 -367q-20 -27 -52 -27h-206q-27 0 -43 33l-187 369q-16 37 17 37z" />
    <glyph glyph-name="ecaron" unicode="&#x11b;" horiz-adv-x="993" 
d="M571 698h-77q-31 0 -67 -25.5t-38 -54.5l-2 -10h250l4 27q4 27 -16.5 45t-53.5 18zM520 969h78q135 0 231.5 -110.5t77.5 -264.5l-16 -141q-6 -31 -19.5 -43.5t-44.5 -12.5h-467l-2 -43q-12 -86 74 -86h90q47 0 84 46q6 8 19.5 23t17.5 21q20 16 47 -14l133 -131
q25 -23 13 -51q-57 -53 -92 -82t-104 -55.5t-148 -26.5h-78q-154 0 -248 111.5t-78 261.5l29 233q18 150 133.5 257.5t269.5 107.5zM465 1638q18 0 45 -45l88 -174l129 185q25 35 49 34h213q16 0 25.5 -14t-0.5 -31l-279 -366q-20 -27 -51 -27h-207q-27 0 -43 33l-186 369
q-16 37 16 36h201z" />
    <glyph glyph-name="Gbreve" unicode="&#x11e;" horiz-adv-x="1171" 
d="M635 770h409q16 0 26.5 -11t8.5 -26l-35 -291q-27 -209 -158.5 -339t-318.5 -130h-98q-193 0 -300.5 140.5t-80.5 359.5l70 555q27 219 161 350t326 131h98q186 0 290 -136t83 -351q-2 -16 -29 -16h-208q-39 0 -33 45q14 102 -12.5 145t-110.5 43h-98q-92 0 -138.5 -52
t-60.5 -171l-68 -557q-14 -121 12.5 -168t116.5 -47h99q84 0 128 52t60 161l4 43h-162q-14 0 -24 10t-8 27l24 208q2 25 27 25zM983 2163h160q35 0 35 -45q-20 -145 -108.5 -236.5t-227.5 -91.5h-129q-141 0 -214 100.5t-55 255.5q2 16 27 17h160q37 0 33 -40t15 -76t69 -36
h83q51 0 86 45t41 90q2 17 25 17z" />
    <glyph glyph-name="gbreve" unicode="&#x11f;" horiz-adv-x="1001" 
d="M488 698q-40 0 -74 -30t-37 -76l-29 -234q-14 -90 70 -90h98q35 0 53 21l49 395q0 4 2 7q0 3 -2 5l-3 3t-7 1h-14l-25 -2h-81zM758 963h133q14 -1 24 -11t9 -26l-127 -1035q-14 -115 -124 -207t-243 -94h-51q-115 0 -199 58t-127 155q-14 31 13 47l145 87q27 14 67 -31
t93 -45h78q70 0 75 63l8 70q-33 4 -55 4h-78q-153 0 -245 111t-76 262l28 233q18 154 134 259t268 106h65q68 0 119 -41l4 -10q2 25 23 35t39 10zM801 1638h160q35 0 34 -45q-20 -145 -108 -236t-228 -91h-129q-141 0 -214 100t-54 256q2 16 27 16h160q37 0 33 -40t14 -76
q20 -36 69 -35h84q51 0 86 45t41 90q2 16 25 16z" />
    <glyph glyph-name="Gdotaccent" unicode="&#x120;" horiz-adv-x="1171" 
d="M635 770h409q16 0 26.5 -11t8.5 -26l-35 -291q-27 -209 -158.5 -339t-318.5 -130h-98q-193 0 -300.5 140.5t-80.5 359.5l70 555q27 219 161 350t326 131h98q186 0 290 -136t83 -351q-2 -16 -29 -16h-208q-39 0 -33 45q14 102 -12.5 145t-110.5 43h-98q-92 0 -138.5 -52
t-60.5 -171l-68 -557q-14 -121 12.5 -168t116.5 -47h99q84 0 128 52t60 161l4 43h-162q-14 0 -24 10t-8 27l24 208q2 25 27 25zM649 2011h279q14 0 24.5 -11t8.5 -26l-35 -272q0 -19 -8.5 -21t-16.5 -2h-276q-14 0 -24.5 10.5t-8.5 26.5l33 273q0 18 8 20t16 2z" />
    <glyph glyph-name="gdotaccent" unicode="&#x121;" horiz-adv-x="1001" 
d="M488 698q-40 0 -74 -30t-37 -76l-29 -234q-14 -90 70 -90h98q35 0 53 21l49 395q0 4 2 7q0 3 -2 5l-3 3t-7 1h-14l-25 -2h-81zM758 963h133q14 -1 24 -11t9 -26l-127 -1035q-14 -115 -124 -207t-243 -94h-51q-115 0 -199 58t-127 155q-14 31 13 47l145 87q27 14 67 -31
t93 -45h78q70 0 75 63l8 70q-33 4 -55 4h-78q-153 0 -245 111t-76 262l28 233q18 154 134 259t268 106h65q68 0 119 -41l4 -10q2 25 23 35t39 10zM469 1487h279q14 0 24 -11t8 -26l-35 -272q0 -19 -8 -21t-16 -2h-277q-14 1 -24 11t-8 26l32 272q0 19 8 21t17 2z" />
    <glyph glyph-name="Gcommaaccent" unicode="&#x122;" horiz-adv-x="1171" 
d="M283 -426h274q16 0 24.5 -11.5t6.5 -25.5l-37 -303q-27 -219 -170 -377q-20 -6 -23.5 -4t-17.5 19l-84 84q-29 29 -14 51q82 59 98 227l18 14h-104q-14 0 -24.5 10.5t-8.5 26.5l33 264q2 25 29 25zM635 770h409q16 0 26.5 -11t8.5 -26l-35 -291q-27 -209 -158.5 -339
t-318.5 -130h-98q-193 0 -300.5 140.5t-80.5 359.5l70 555q27 219 161 350t326 131h98q186 0 290 -136t83 -351q-2 -16 -29 -16h-208q-39 0 -33 45q14 102 -12.5 145t-110.5 43h-98q-92 0 -138.5 -52t-60.5 -171l-68 -557q-14 -121 12.5 -168t116.5 -47h99q84 0 128 52
t60 161l4 43h-162q-14 0 -24 10t-8 27l24 208q2 25 27 25z" />
    <glyph glyph-name="gcommaaccent" unicode="&#x123;" horiz-adv-x="1001" 
d="M488 698q-40 0 -74 -30t-37 -76l-29 -234q-14 -90 70 -90h98q35 0 53 21l49 395q0 4 2 7q0 3 -2 5l-3 3t-7 1h-14l-25 -2h-81zM758 963h133q14 -1 24 -11t9 -26l-127 -1035q-14 -115 -124 -207t-243 -94h-51q-115 0 -199 58t-127 155q-14 31 13 47l145 87q27 14 67 -31
t93 -45h78q70 0 75 63l8 70q-33 4 -55 4h-78q-153 0 -245 111t-76 262l28 233q18 154 134 259t268 106h65q68 0 119 -41l4 -10q2 25 23 35t39 10zM641 1159h-274q-14 0 -25 10q-10 10 -8 27l37 303q31 229 172 377q18 12 41 -14l84 -84q27 -27 14 -52q-80 -57 -100 -227
l-17 -14h105q16 0 24 -11t6 -26l-32 -264q-2 -25 -27 -25z" />
    <glyph glyph-name="Hbar" unicode="&#x126;" horiz-adv-x="1206" 
d="M840 844l20 176h-401l-23 -176h404zM942 1487h209q15 0 25 -10t8 -27l-21 -162h17l-33 -268h-17l-120 -995q-4 -25 -29 -25h-209q-14 0 -24 10t-9 27l66 536h-402l-67 -548q-4 -25 -29 -25h-209q-14 0 -24 10t-8 27l176 1425q2 25 26 25h209q15 0 25 -10t8 -27l-21 -162
h404l22 174q2 25 27 25z" />
    <glyph glyph-name="hbar" unicode="&#x127;" horiz-adv-x="1124" 
d="M537 963h75q144 0 234 -116t74 -257l-70 -565q-4 -25 -29 -25h-209q-14 0 -24 10t-8 27l69 571q10 84 -53 84h-84q-72 0 -88 -100l-70 -567q-4 -25 -28 -25h-209q-14 0 -25 10q-10 10 -8 27l127 1032h-41q-16 0 -27 11q-10 11 -8 26l27 207q2 25 26 24h56l16 125
q2 10 3 18t22 7h209q16 0 26 -11t8 -26l-14 -113h182q16 0 26 -11t7 -26l-27 -206q-2 -10 -3 -18t-21 -7h-197l-14 -115q33 9 70 9z" />
    <glyph glyph-name="Imacron" unicode="&#x12a;" horiz-adv-x="612" 
d="M262 1487h213q15 0 25 -10t8 -27l-174 -1425q-3 -20 -10 -22q-6 -3 -17 -3h-215q-14 0 -24 10t-9 27l177 1425q2 25 26 25zM745 1741h-663q-14 0 -25 10q-10 10 -8 27l25 209q2 25 26 24h664q14 0 24 -11t9 -26l-27 -209q0 -24 -25 -24z" />
    <glyph glyph-name="imacron" unicode="&#x12b;" horiz-adv-x="598" 
d="M238 965h208q14 -1 24 -11t9 -26l-110 -903q-4 -25 -29 -25h-209q-14 0 -25 10q-10 11 -8 27l113 903q2 25 27 25zM719 1217h-664q-14 0 -24 10t-8 26l24 209q2 25 27 25h663q15 0 25 -11t8 -26l-27 -209q1 -24 -24 -24z" />
    <glyph glyph-name="Iogonek" unicode="&#x12e;" horiz-adv-x="612" 
d="M262 1487h213q15 0 25 -10t8 -27l-174 -1425q-3 -20 -10 -22q-6 -3 -17 -3h-12q10 -98 -26 -135t-113 -47q-137 -10 -176 -19q-45 0 -48 -24q6 6 52 6h249q9 0 17 -11t6 -22l-14 -119q-2 -14 -17 -14h-276q-106 0 -155 39q-48 39 -36 139q6 51 20 81q21 47 98 67
q19 4 77 12q115 6 137 47q-14 0 -23 11t-8 26l177 1425q1 25 26 25z" />
    <glyph glyph-name="iogonek" unicode="&#x12f;" horiz-adv-x="598" 
d="M238 965h208q14 -1 24 -11t9 -26l-110 -903q-4 -25 -29 -25h-12q10 -98 -26 -135t-114 -47q-137 -10 -176 -19q-45 0 -47 -24q6 6 51 6h250q8 0 16 -11t7 -22l-15 -119q-2 -14 -16 -14h-276q-106 0 -155 39q-48 39 -36 139q5 51 19 81q21 47 99 67q19 4 77 12
q115 6 137 47q-29 6 -25 37l113 903q2 25 27 25zM266 1487h279q14 0 24 -11t9 -26l-35 -272q0 -23 -25 -23h-276q-14 0 -25 10q-10 10 -8 27l33 272q0 19 8 21t16 2z" />
    <glyph glyph-name="Idotaccent" unicode="&#x130;" horiz-adv-x="612" 
d="M262 1487h213q15 0 25 -10t8 -27l-174 -1425q-3 -20 -10 -22q-6 -3 -17 -3h-215q-14 0 -24 10t-9 27l177 1425q2 25 26 25zM293 2011h278q15 0 25 -11t8 -26l-35 -272q0 -19 -8 -21t-16 -2h-277q-14 1 -24 11t-8 26l32 273q0 22 25 22z" />
    <glyph glyph-name="dotlessi" unicode="&#x131;" horiz-adv-x="598" 
d="M238 965h208q14 -1 24 -11t9 -26l-110 -903q-4 -25 -29 -25h-209q-14 0 -25 10q-10 11 -8 27l113 903q2 25 27 25z" />
    <glyph glyph-name="IJ" unicode="&#x132;" horiz-adv-x="1783" 
d="M1085 256h54q213 0 243 242l117 964q2 25 27 25h209q14 0 24 -10t8 -27l-120 -989q-17 -153 -97 -265q-149 -210 -405 -210h-78q-131 0 -251 79t-150 203q-10 21 10 35l170 105q10 8 16 0t15 -33q45 -67 90 -93t118 -26zM262 1487h213q15 0 25 -10t8 -27l-174 -1425
q-3 -20 -10 -22q-6 -3 -17 -3h-215q-14 0 -24 10t-9 27l177 1425q2 25 26 25z" />
    <glyph glyph-name="ij" unicode="&#x133;" horiz-adv-x="1118" 
d="M688 965h209q15 -1 25 -11t8 -26l-131 -1061q-15 -143 -109 -251t-229 -144q-35 -7 -43 32l-68 191q-8 27 10 39q61 16 113 62q51 46 59 104l130 1040q2 25 26 25zM193 965h208q15 -1 25 -11t8 -26l-110 -903q-4 -25 -29 -25h-209q-14 0 -25 10q-10 11 -8 27l113 903
q2 25 27 25zM766 1487h213q15 0 25 -10t8 -27l-33 -264q0 -14 -5 -18t-22 -5h-213q-16 -1 -25 11t-5 26l30 262q2 25 27 25zM262 1487h213q15 0 25 -10t8 -27l-33 -264q0 -14 -5 -18t-21 -5h-213q-16 -1 -26 11t-5 26l31 262q2 25 26 25z" />
    <glyph glyph-name="Kcommaaccent" unicode="&#x136;" horiz-adv-x="1245" 
d="M254 -426h274q16 0 24.5 -11.5t6.5 -25.5l-37 -303q-27 -219 -170 -377q-20 -6 -23 -4t-18 19l-84 84q-29 29 -14 51q82 59 98 227l19 14h-105q-14 0 -24.5 10.5t-7.5 26.5l32 264q2 25 29 25zM1081 0h-250q-33 0 -51 33l-311 612l-74 -74l-67 -546q-4 -25 -29 -25h-209
q-14 0 -24.5 10t-8.5 27l176 1425q2 25 27 25h209q14 0 24.5 -10.5t8.5 -26.5l-70 -559l440 571q20 25 39 25h265q16 0 22 -17.5t-6 -37.5l-498 -617l393 -770q29 -45 -6 -45z" />
    <glyph glyph-name="kcommaaccent" unicode="&#x137;" horiz-adv-x="1038" 
d="M158 -426h274q16 0 24.5 -11.5t6.5 -25.5l-37 -303q-27 -219 -170 -377q-20 -6 -23.5 -4t-17.5 19l-84 84q-29 29 -14 51q82 59 98 227l18 14h-104q-14 0 -24.5 10.5t-8.5 26.5l33 264q2 25 29 25zM655 963h242q18 0 25.5 -22.5t-11.5 -47.5l-360 -352l328 -498
q27 -43 -7 -43h-206q-29 0 -52 33l-233 305l-37 -299q-2 -25 -11 -32t-26 -7h-198q-16 0 -26.5 11.5t-8.5 25.5l174 1411q4 39 43 39h194q14 0 24.5 -10.5t8.5 -26.5l-84 -684l176 176q18 21 45 21z" />
    <glyph glyph-name="Lacute" unicode="&#x139;" horiz-adv-x="1110" 
d="M926 270q14 0 24.5 -10t7.5 -27l-24 -208q-4 -25 -29 -25h-821q-14 0 -24.5 10t-8.5 27l176 1425q2 25 27 25h209q14 0 24.5 -10.5t8.5 -26.5l-146 -1180h576zM516 2163h238q18 0 26 -12.5t0 -30.5l-227 -379q-20 -31 -43 -31h-213q-16 0 -24.5 13.5t-0.5 29.5l203 379
q12 31 41 31z" />
    <glyph glyph-name="lacute" unicode="&#x13a;" horiz-adv-x="598" 
d="M315 1487h195q14 0 24.5 -10.5t8.5 -26.5l-174 -1411q-2 -25 -11.5 -32t-25.5 -7h-201q-14 0 -24.5 10.5t-8.5 26.5l174 1411q4 39 43 39zM565 2163h238q18 0 26.5 -12.5t-0.5 -30.5l-227 -379q-20 -31 -43 -31h-213q-16 0 -24 13.5t0 29.5l202 379q12 31 41 31z" />
    <glyph glyph-name="Lcommaaccent" unicode="&#x13b;" horiz-adv-x="1110" 
d="M233 -426h275q16 0 24.5 -11.5t6.5 -25.5l-37 -303q-27 -219 -170 -377q-20 -6 -23.5 -4t-17.5 19l-84 84q-29 29 -14 51q82 59 98 227l18 14h-104q-14 0 -24.5 10.5t-8.5 26.5l33 264q1 25 28 25zM926 270q14 0 24.5 -10t7.5 -27l-24 -208q-4 -25 -29 -25h-821
q-14 0 -24.5 10t-8.5 27l176 1425q2 25 27 25h209q14 0 24.5 -10.5t8.5 -26.5l-146 -1180h576z" />
    <glyph glyph-name="lcommaaccent" unicode="&#x13c;" horiz-adv-x="598" 
d="M-37 -426h275q16 0 24 -11.5t6 -25.5l-37 -303q-27 -219 -170 -377q-20 -6 -23 -4t-18 19l-83 84q-29 29 -15 51q82 59 98 227l19 14h-105q-14 0 -24 10.5t-8 26.5l32 264q2 25 29 25zM315 1487h195q14 0 24.5 -10.5t8.5 -26.5l-174 -1411q-2 -25 -11.5 -32t-25.5 -7
h-201q-14 0 -24.5 10.5t-8.5 26.5l174 1411q4 39 43 39z" />
    <glyph glyph-name="Lcaron" unicode="&#x13d;" horiz-adv-x="1110" 
d="M725 1487h274q16 0 24.5 -11.5t6.5 -25.5l-37 -303q-27 -219 -170 -377q-20 -6 -23 -4t-18 18l-84 84q-29 29 -14 52q82 59 98 227l19 14h-105q-14 0 -24 10.5t-8 26.5l32 264q2 25 29 25zM926 270q14 0 24.5 -10t7.5 -27l-24 -208q-4 -25 -29 -25h-821q-14 0 -24.5 10
t-8.5 27l176 1425q2 25 27 25h209q14 0 24.5 -10.5t8.5 -26.5l-146 -1180h576z" />
    <glyph glyph-name="lcaron" unicode="&#x13e;" horiz-adv-x="1026" 
d="M666 1487h274q16 0 24.5 -11.5t6.5 -25.5l-37 -303q-27 -219 -170 -377q-20 -6 -23.5 -4t-17.5 18l-84 84q-29 29 -14 52q82 59 98 227l18 14h-104q-14 0 -24.5 10.5t-8.5 26.5l33 264q2 25 29 25zM315 1487h195q14 0 24.5 -10.5t8.5 -26.5l-174 -1411q-2 -25 -11.5 -32
t-25.5 -7h-201q-14 0 -24.5 10.5t-8.5 26.5l174 1411q4 39 43 39z" />
    <glyph glyph-name="Ldot" unicode="&#x13f;" horiz-adv-x="1110" 
d="M578 963h280q14 0 25.5 -11.5t9.5 -27.5l-35 -275q-2 -23 -29 -22h-278q-16 0 -26.5 11.5t-8.5 25.5l35 274q3 19 9.5 22t17.5 3zM926 270q14 0 24.5 -10t7.5 -27l-24 -208q-4 -25 -29 -25h-821q-14 0 -24.5 10t-8.5 27l176 1425q2 25 27 25h209q14 0 24.5 -10.5
t8.5 -26.5l-146 -1180h576z" />
    <glyph glyph-name="ldot" unicode="&#x140;" horiz-adv-x="1181" 
d="M788 963h281q14 0 24.5 -11.5t8.5 -27.5l-33 -273q-2 -25 -29 -24h-280q-14 0 -24.5 10.5t-8.5 26.5l35 274q3 19 9.5 22t16.5 3zM315 1487h195q14 0 24.5 -10.5t8.5 -26.5l-174 -1411q-2 -25 -11.5 -32t-25.5 -7h-201q-14 0 -24.5 10.5t-8.5 26.5l174 1411q4 39 43 39z
" />
    <glyph glyph-name="Lslash" unicode="&#x141;" horiz-adv-x="1253" 
d="M1001 270q14 0 24.5 -10t8.5 -27l-24 -208q-4 -25 -29 -25h-821q-14 0 -24.5 10t-8.5 27l29 225h-82q-20 0 -30.5 12.5t1.5 28.5l133 150l125 1009q2 25 27 25h209q14 0 24 -10.5t8 -26.5l-79 -649l116 131q29 31 49 31h234q18 0 27.5 -12.5t-3.5 -28.5l-475 -535
l-14 -117h575z" />
    <glyph glyph-name="lslash" unicode="&#x142;" horiz-adv-x="899" 
d="M752 963q18 -1 27 -13t-3 -28l-172 -193l-86 -704q-4 -25 -29 -25h-208q-14 0 -25 10q-10 10 -8 27l63 520h-114q-18 0 -29 14q-10 14 0 29l172 191l84 671q2 25 27 25h208q15 0 25 -10t8 -27l-59 -487h119z" />
    <glyph glyph-name="Nacute" unicode="&#x143;" horiz-adv-x="1304" 
d="M1026 1487h209q14 0 24.5 -10.5t8.5 -26.5l-174 -1425q-4 -25 -29 -25h-217q-29 0 -35 29l-367 868l-108 -872q-4 -25 -29 -25h-209q-14 0 -24 10t-8 27l176 1425q2 25 26 25h217q29 0 37 -29l367 -868l108 872q2 25 27 25zM913 2163h238q18 0 26.5 -12.5t0.5 -30.5
l-228 -379q-20 -31 -43 -31h-213q-16 0 -24 13.5t0 29.5l202 379q12 31 41 31z" />
    <glyph glyph-name="nacute" unicode="&#x144;" horiz-adv-x="1060" 
d="M582 963h92q158 0 223.5 -104.5t44.5 -268.5l-70 -565q-4 -25 -28 -25h-209q-14 0 -24.5 10t-8.5 27l70 565q4 43 -14.5 66.5t-53.5 23.5h-94q-37 0 -65.5 -33.5t-34.5 -83.5l-68 -550q-4 -25 -29 -25h-209q-14 0 -24 10t-8 27l110 901q4 25 29 25h209q14 0 24.5 -10.5
t8.5 -26.5l-7 -31q8 25 51.5 46.5t84.5 21.5zM969 1638q18 0 26.5 -12t-0.5 -31l-227 -378q-20 -31 -43 -31h-213q-16 0 -24.5 13.5t-0.5 29.5l203 379q12 31 41 30h238z" />
    <glyph glyph-name="Ncommaaccent" unicode="&#x145;" horiz-adv-x="1304" 
d="M311 -426h275q16 0 24 -11.5t6 -25.5l-36 -303q-27 -219 -170 -377q-20 -6 -23.5 -4t-17.5 19l-84 84q-29 29 -15 51q82 59 99 227l18 14h-104q-14 0 -24.5 10.5t-8.5 26.5l33 264q1 25 28 25zM1026 1487h209q14 0 24.5 -10.5t8.5 -26.5l-174 -1425q-4 -25 -29 -25h-217
q-29 0 -35 29l-367 868l-108 -872q-4 -25 -29 -25h-209q-14 0 -24 10t-8 27l176 1425q2 25 26 25h217q29 0 37 -29l367 -868l108 872q2 25 27 25z" />
    <glyph glyph-name="ncommaaccent" unicode="&#x146;" horiz-adv-x="1060" 
d="M193 -426h274q16 0 24.5 -11.5t6.5 -25.5l-37 -303q-27 -219 -170 -377q-20 -6 -23.5 -4t-17.5 19l-84 84q-29 29 -14 51q82 59 98 227l18 14h-104q-14 0 -24.5 10.5t-8.5 26.5l33 264q2 25 29 25zM582 963h92q158 0 223.5 -104.5t44.5 -268.5l-70 -565q-4 -25 -28 -25
h-209q-14 0 -24.5 10t-8.5 27l70 565q4 43 -14.5 66.5t-53.5 23.5h-94q-37 0 -65.5 -33.5t-34.5 -83.5l-68 -550q-4 -25 -29 -25h-209q-14 0 -24 10t-8 27l110 901q4 25 29 25h209q14 0 24.5 -10.5t8.5 -26.5l-7 -31q8 25 51.5 46.5t84.5 21.5z" />
    <glyph glyph-name="Ncaron" unicode="&#x147;" horiz-adv-x="1304" 
d="M1026 1487h209q14 0 24.5 -10.5t8.5 -26.5l-174 -1425q-4 -25 -29 -25h-217q-29 0 -35 29l-367 868l-108 -872q-4 -25 -29 -25h-209q-14 0 -24 10t-8 27l176 1425q2 25 26 25h217q29 0 37 -29l367 -868l108 872q2 25 27 25zM477 2163h201q18 0 45 -45l88 -174l129 184
q25 35 49 35h213q16 0 25.5 -14.5t-0.5 -30.5l-279 -367q-20 -27 -51 -27h-207q-27 0 -43 33l-186 369q-16 37 16 37z" />
    <glyph glyph-name="ncaron" unicode="&#x148;" horiz-adv-x="1060" 
d="M582 963h92q158 0 223.5 -104.5t44.5 -268.5l-70 -565q-4 -25 -28 -25h-209q-14 0 -24.5 10t-8.5 27l70 565q4 43 -14.5 66.5t-53.5 23.5h-94q-37 0 -65.5 -33.5t-34.5 -83.5l-68 -550q-4 -25 -29 -25h-209q-14 0 -24 10t-8 27l110 901q4 25 29 25h209q14 0 24.5 -10.5
t8.5 -26.5l-7 -31q8 25 51.5 46.5t84.5 21.5zM496 1638q18 0 45 -45l88 -174l129 185q25 35 49 34h213q16 0 25.5 -14t-1.5 -31l-278 -366q-20 -27 -51 -27h-207q-27 0 -43 33l-186 369q-16 37 16 36h201z" />
    <glyph glyph-name="Eng" unicode="&#x14a;" horiz-adv-x="1343" 
d="M535 -571q-139 0 -265 89q-125 89 -153 226q-8 20 14 35l172 100q20 12 29 -37q45 -80 94 -112t129 -31h53q213 0 242 242l6 55l-410 901l-108 -872q-4 -25 -29 -25h-209q-14 0 -24 10t-8 27l176 1425q2 25 26 25h217q29 0 37 -29l398 -936l116 940q2 10 3 18t22 7h209
q35 0 35 -37l-174 -1423l-3 -2l-14 -123q-27 -226 -174 -350t-330 -123h-77z" />
    <glyph glyph-name="eng" unicode="&#x14b;" horiz-adv-x="1052" 
d="M582 963h92q158 0 223.5 -104.5t44.5 -268.5l-92 -758q-16 -123 -97 -217t-204 -139q-33 -8 -47 28l-72 193q-10 25 6 41q135 55 146 127l20 166v6l70 565q4 43 -14.5 66.5t-53.5 23.5h-94q-37 0 -65.5 -33.5t-34.5 -83.5l-68 -550q-4 -25 -29 -25h-209q-14 0 -24 10
t-8 27l110 901q4 25 29 25h209q14 0 24.5 -10.5t8.5 -26.5l-7 -31q8 25 51.5 46.5t84.5 21.5z" />
    <glyph glyph-name="Omacron" unicode="&#x14c;" horiz-adv-x="1212" 
d="M504 250h108q78 0 129 60t64 147l76 590q12 84 -20 138t-109 54h-111q-76 0 -129 -62t-61 -145l-74 -590q-9 -84 21 -138t106 -54zM662 1509h108q176 0 289 -147t88 -350l-70 -549q-23 -203 -163 -343t-318 -140h-109q-177 0 -291 147t-87 350l71 549q27 203 166 343
q140 140 316 140zM1090 1739h-664q-14 0 -25 10q-10 10 -8 27l25 209q2 25 26 24h664q14 0 24 -11t9 -26l-27 -209q1 -24 -24 -24z" />
    <glyph glyph-name="omacron" unicode="&#x14d;" horiz-adv-x="1054" 
d="M584 698h-88q-49 0 -78 -32t-33 -70l-29 -242q-12 -86 74 -86h90q49 0 77 30t32 69l28 241q16 90 -73 90zM520 969h80q154 0 250 -110t78 -263l-29 -242q-20 -154 -135 -255t-268 -101h-80q-154 0 -251 108t-79 261l29 241q23 154 137 258t268 103zM938 1217h-664
q-14 0 -24 10t-8 26l24 209q2 25 27 25h663q14 0 24 -11t9 -26l-26 -209q0 -24 -25 -24z" />
    <glyph glyph-name="Ohungarumlaut" unicode="&#x150;" horiz-adv-x="1212" 
d="M504 250h108q78 0 129 60t64 147l76 590q12 84 -20 138t-109 54h-111q-76 0 -129 -62t-61 -145l-74 -590q-9 -84 21 -138t106 -54zM662 1509h108q176 0 289 -147t88 -350l-70 -549q-23 -203 -163 -343t-318 -140h-109q-177 0 -291 147t-87 350l71 549q27 203 166 343
q140 140 316 140zM1059 2161h237q18 -1 28 -13t1 -30l-227 -379q-20 -31 -43 -31h-213q-16 0 -25 13q-8 14 0 30l203 379q12 31 39 31zM686 2161h238q18 -1 26 -13t0 -30l-227 -379q-20 -31 -43 -31h-213q-16 0 -25 13q-8 14 0 30l203 379q12 31 41 31z" />
    <glyph glyph-name="ohungarumlaut" unicode="&#x151;" horiz-adv-x="1054" 
d="M584 698h-88q-49 0 -78 -32t-33 -70l-29 -242q-12 -86 74 -86h90q49 0 77 30t32 69l28 241q16 90 -73 90zM520 969h80q154 0 250 -110t78 -263l-29 -242q-20 -154 -135 -255t-268 -101h-80q-154 0 -251 108t-79 261l29 241q23 154 137 258t268 103zM1145 1638
q18 0 27 -12t2 -31l-228 -378q-20 -31 -43 -31h-213q-16 0 -24 14t0 29l202 379q12 31 39 30h238zM772 1638q18 0 26 -12t1 -31l-228 -378q-20 -31 -43 -31h-213q-16 0 -24 14t0 29l203 379q12 31 41 30h237z" />
    <glyph glyph-name="OE" unicode="&#x152;" horiz-adv-x="1957" 
d="M752 1239h-111q-76 0 -129 -62.5t-61 -144.5l-74 -590q-10 -84 20.5 -138t106.5 -54h108q78 0 129.5 60.5t63.5 146.5l76 590q12 84 -20 138t-109 54zM1087 1487h822q35 0 35 -37l-27 -209q-4 -20 -9 -22t-16 -2h-589l-43 -332h442q14 0 24.5 -10.5t8.5 -26.5l-25 -209
q-2 -25 -27 -25h-454l-43 -344h575q14 0 24.5 -10t8.5 -27l-25 -208q-4 -16 -9 -20.5t-19 -4.5h-821q-14 0 -24.5 10t-8.5 27l8 65q-135 -123 -299 -122h-109q-178 0 -291.5 147t-86.5 350l71 549q27 203 166 343t316 140h108q168 0 283 -137l10 90q2 10 3 18q2 8 21 7z" />
    <glyph glyph-name="oe" unicode="&#x153;" horiz-adv-x="1533" 
d="M1112 698h-78q-31 0 -66.5 -25.5t-37.5 -54.5v-10h248l4 27q4 27 -16.5 45t-53.5 18zM430 268h90q45 0 74 28t35 75l28 237q16 90 -73 90h-88q-49 0 -78 -31.5t-33 -70.5l-29 -242q-12 -86 74 -86zM1059 969h78q135 0 232 -109.5t79 -265.5l-18 -141q-8 -55 -64 -56h-463
l-4 -43l-2 -8q-8 -78 76 -78h90q27 0 43 12.5t21.5 15.5t14.5 14.5t12 15.5t14.5 16t13.5 16q23 16 49 -14l133 -131q23 -23 10 -51q-57 -53 -92 -82t-103.5 -55.5t-146.5 -26.5h-78q-127 0 -217 80q-104 -80 -241 -80h-80q-154 0 -251 107.5t-79 261.5l29 241
q23 154 137.5 257.5t267.5 103.5h80q129 0 221 -82q105 82 238 82z" />
    <glyph glyph-name="Racute" unicode="&#x154;" horiz-adv-x="1161" 
d="M662 893q76 0 121.5 36t60.5 142q4 27 4 48.5t-4 35.5t-8.5 25.5t-16.5 17.5t-19 10q-16 9 -52 9h-263l-39 -324h216zM967 0h-209q-14 0 -24.5 11.5t-8.5 25.5l37 291q0 8 5 39.5t7 53t2 55.5q0 52 -28.5 99.5t-106.5 47.5h-227l-74 -598q-4 -25 -29 -25h-209
q-14 0 -24 10t-8 27l176 1425q2 25 26 25h488q182 0 279.5 -121t73.5 -315.5t-138 -309.5q90 -147 65 -346l-45 -370q-2 -25 -28 -25zM850 2163h237q18 0 26.5 -12.5t0.5 -30.5l-227 -379q-20 -31 -43 -31h-213q-16 0 -24.5 13.5t-0.5 29.5l203 379q12 31 41 31z" />
    <glyph glyph-name="racute" unicode="&#x155;" horiz-adv-x="880" 
d="M549 692h-47q-41 0 -67.5 -33.5t-35.5 -87.5l-65 -546q-4 -25 -29 -25h-209q-14 0 -24.5 10t-8.5 27l111 901q4 25 29 25h209q14 0 24 -10.5t8 -26.5l-6 -31q8 25 52.5 46.5t84.5 21.5h89q119 0 178 -74q35 -14 10 -39l-174 -162q-14 -12 -37 6q-16 2 -44 0t-48 -2z
M938 1638q18 0 26.5 -12t0.5 -31l-228 -378q-20 -31 -43 -31h-213q-16 0 -24 13.5t0 29.5l202 379q12 31 41 30h238z" />
    <glyph glyph-name="Rcommaaccent" unicode="&#x156;" horiz-adv-x="1161" 
d="M248 -426h274q16 0 24.5 -11.5t6.5 -25.5l-37 -303q-27 -219 -170 -377q-20 -6 -23.5 -4t-17.5 19l-84 84q-29 29 -14 51q82 59 98 227l19 14h-105q-14 0 -24.5 10.5t-8.5 26.5l33 264q2 25 29 25zM662 893q76 0 121.5 36t60.5 142q4 27 4 48.5t-4 35.5t-8.5 25.5
t-16.5 17.5t-19 10q-16 9 -52 9h-263l-39 -324h216zM967 0h-209q-14 0 -24.5 11.5t-8.5 25.5l37 291q0 8 5 39.5t7 53t2 55.5q0 52 -28.5 99.5t-106.5 47.5h-227l-74 -598q-4 -25 -29 -25h-209q-14 0 -24 10t-8 27l176 1425q2 25 26 25h488q182 0 279.5 -121t73.5 -315.5
t-138 -309.5q90 -147 65 -346l-45 -370q-2 -25 -28 -25z" />
    <glyph glyph-name="rcommaaccent" unicode="&#x157;" horiz-adv-x="880" 
d="M-80 -426h275q16 0 24 -11.5t6 -25.5l-37 -303q-27 -219 -170 -377q-20 -6 -23 -4t-18 19l-83 84q-29 29 -15 51q82 59 98 227l19 14h-105q-14 0 -24 10.5t-8 26.5l32 264q2 25 29 25zM549 692h-47q-41 0 -67.5 -33.5t-35.5 -87.5l-65 -546q-4 -25 -29 -25h-209
q-14 0 -24.5 10t-8.5 27l111 901q4 25 29 25h209q14 0 24 -10.5t8 -26.5l-6 -31q8 25 52.5 46.5t84.5 21.5h89q119 0 178 -74q35 -14 10 -39l-174 -162q-14 -12 -37 6q-16 2 -44 0t-48 -2z" />
    <glyph glyph-name="Rcaron" unicode="&#x158;" horiz-adv-x="1161" 
d="M662 893q76 0 121.5 36t60.5 142q4 27 4 48.5t-4 35.5t-8.5 25.5t-16.5 17.5t-19 10q-16 9 -52 9h-263l-39 -324h216zM967 0h-209q-14 0 -24.5 11.5t-8.5 25.5l37 291q0 8 5 39.5t7 53t2 55.5q0 52 -28.5 99.5t-106.5 47.5h-227l-74 -598q-4 -25 -29 -25h-209
q-14 0 -24 10t-8 27l176 1425q2 25 26 25h488q182 0 279.5 -121t73.5 -315.5t-138 -309.5q90 -147 65 -346l-45 -370q-2 -25 -28 -25zM414 2163h200q18 0 45 -45l89 -174l129 184q25 35 49 35h213q16 0 25.5 -14.5t-1.5 -30.5l-278 -367q-20 -27 -51 -27h-207q-27 0 -43 33
l-187 369q-16 37 17 37z" />
    <glyph glyph-name="rcaron" unicode="&#x159;" horiz-adv-x="880" 
d="M549 692h-47q-41 0 -67.5 -33.5t-35.5 -87.5l-65 -546q-4 -25 -29 -25h-209q-14 0 -24.5 10t-8.5 27l111 901q4 25 29 25h209q14 0 24 -10.5t8 -26.5l-6 -31q8 25 52.5 46.5t84.5 21.5h89q119 0 178 -74q35 -14 10 -39l-174 -162q-14 -12 -37 6q-16 2 -44 0t-48 -2z
M465 1638q18 0 45 -45l88 -174l129 185q25 35 49 34h213q16 0 25.5 -14t-0.5 -31l-279 -366q-20 -27 -51 -27h-207q-27 0 -43 33l-186 369q-16 37 16 36h201z" />
    <glyph glyph-name="Sacute" unicode="&#x15a;" horiz-adv-x="1173" 
d="M627 1518h106q166 0 280.5 -128t92.5 -309l-4 -41q-2 -14 -6 -18t-21 -4h-211q-14 0 -24.5 10t-8.5 27l5 39q8 68 -26 110.5t-95 42.5h-107q-61 0 -106 -49t-50 -96.5t-9.5 -83t25.5 -68t97 -45.5l119 -18q197 -31 288 -165t67 -323.5t-163 -304t-313 -114.5h-94
q-170 0 -288 122.5t-95 296.5l6 62q2 14 6 18t21 4h211q16 0 25.5 -11t6.5 -26l-4 -61q-4 -59 32 -97t99 -38h95q70 0 124 47t60 105.5t7 99.5t-28.5 72.5t-95.5 41.5l-114 23q-207 39 -292 168t-64 311t148.5 291t297.5 109zM850 2163h237q18 0 26.5 -12.5t0.5 -30.5
l-227 -379q-20 -31 -43 -31h-213q-16 0 -24.5 13.5t-0.5 29.5l203 379q12 31 41 31z" />
    <glyph glyph-name="sacute" unicode="&#x15b;" horiz-adv-x="966" 
d="M564 700h-118q-51 0 -57 -22q0 -2 -4 -6q-27 -45 92 -60q203 -20 287 -103t63 -251q-16 -119 -124.5 -193.5t-264.5 -74.5h-49q-135 0 -229 81t-92 201q0 16 24 17h213q16 0 45 -33q8 -2 21.5 1t27.5 3h90q68 0 72 39v2q18 23 -33 35l-55 10q-205 16 -288 102.5
t-64.5 234.5t121 218t262.5 70h37q143 0 240.5 -88t80.5 -221q-2 -18 -28 -19h-207q-41 0 -35 43q0 14 -28 14zM926 1638q18 0 26.5 -12t-0.5 -31l-227 -378q-20 -31 -43 -31h-213q-16 0 -24.5 13.5t-0.5 29.5l203 379q12 31 41 30h238z" />
    <glyph glyph-name="Scedilla" unicode="&#x15e;" horiz-adv-x="1173" 
d="M627 1518h106q166 0 280.5 -128t92.5 -309l-4 -41q-2 -14 -6 -18t-21 -4h-211q-14 0 -24.5 10t-8.5 27l5 39q8 68 -26 110.5t-95 42.5h-107q-61 0 -106 -49t-50 -96.5t-9.5 -83t25.5 -68t97 -45.5l119 -18q197 -31 288 -165t66 -337q-20 -158 -135 -267.5t-268 -131.5
q-18 -23 -19.5 -27t4 -7t8.5 -4t13 -3t16 -4q104 -8 145.5 -56.5t26.5 -156.5q-18 -141 -213 -142h-172q-84 0 -128 51.5t-35 135.5q2 6 14 6h162q8 0 16 -9.5t6 -21.5q14 -14 43 -14h45q59 0 66 37q0 8 -62.5 13t-119 13t-80 26.5t-24.5 62.5t42 102q-143 29 -232 143.5
t-71 267.5l6 62q2 14 6 18t21 4h211q16 0 25.5 -11t6.5 -26l-4 -61q-4 -59 32 -97t99 -38h95q70 0 124 47t60 105.5t7 99.5t-28.5 72.5t-95.5 41.5l-114 23q-207 39 -292 168t-64 311t148.5 291t297.5 109z" />
    <glyph glyph-name="scedilla" unicode="&#x15f;" horiz-adv-x="966" 
d="M564 700h-118q-51 0 -57 -22q0 -2 -4 -6q-20 -33 41 -49q20 -6 51 -11q203 -20 287 -103t63 -251q-14 -100 -93 -169t-197 -91q2 -2 2 -10q-29 -29 -22 -34t11 -6t14.5 -3t16.5 -4q104 -8 145 -56.5t27 -156.5q-18 -141 -213 -142h-172q-84 0 -128 51.5t-36 135.5
q2 6 15 6h161q8 0 16.5 -9.5t6.5 -21.5q14 -14 43 -14h45q59 0 66 37q0 8 -62.5 13t-114.5 13t-72 20.5t-33 35t-3 61.5t49 86q-102 25 -167.5 99.5t-63.5 172.5q0 16 24 17h213q16 0 45 -33q8 -2 21.5 1t27.5 3h90q68 0 72 39v2q18 23 -33 35l-55 10q-205 16 -288 102.5
t-64.5 234.5t121 218t262.5 70h37q143 0 240.5 -88t80.5 -221q-2 -18 -28 -19h-207q-41 0 -35 43q0 14 -28 14z" />
    <glyph glyph-name="Scaron" unicode="&#x160;" horiz-adv-x="1173" 
d="M627 1518h106q166 0 280.5 -128t92.5 -309l-4 -41q-2 -14 -6 -18t-21 -4h-211q-14 0 -24.5 10t-8.5 27l5 39q8 68 -26 110.5t-95 42.5h-107q-61 0 -106 -49t-50 -96.5t-9.5 -83t25.5 -68t97 -45.5l119 -18q197 -31 288 -165t67 -323.5t-163 -304t-313 -114.5h-94
q-170 0 -288 122.5t-95 296.5l6 62q2 14 6 18t21 4h211q16 0 25.5 -11t6.5 -26l-4 -61q-4 -59 32 -97t99 -38h95q70 0 124 47t60 105.5t7 99.5t-28.5 72.5t-95.5 41.5l-114 23q-207 39 -292 168t-64 311t148.5 291t297.5 109zM414 2163h200q18 0 45 -45l89 -174l129 184
q25 35 49 35h213q16 0 25.5 -14.5t-1.5 -30.5l-278 -367q-20 -27 -51 -27h-207q-27 0 -43 33l-187 369q-16 37 17 37z" />
    <glyph glyph-name="scaron" unicode="&#x161;" horiz-adv-x="966" 
d="M564 700h-118q-51 0 -57 -22q0 -2 -4 -6q-27 -45 92 -60q203 -20 287 -103t63 -251q-16 -119 -124.5 -193.5t-264.5 -74.5h-49q-135 0 -229 81t-92 201q0 16 24 17h213q16 0 45 -33q8 -2 21.5 1t27.5 3h90q68 0 72 39v2q18 23 -33 35l-55 10q-205 16 -288 102.5
t-64.5 234.5t121 218t262.5 70h37q143 0 240.5 -88t80.5 -221q-2 -18 -28 -19h-207q-41 0 -35 43q0 14 -28 14zM453 1638q18 0 45 -45l88 -174l129 185q25 35 49 34h213q16 0 25.5 -14t-1.5 -31l-278 -366q-20 -27 -51 -27h-207q-27 0 -43 33l-186 369q-16 37 16 36h201z
" />
    <glyph glyph-name="Tcedilla" unicode="&#x162;" horiz-adv-x="1177" 
d="M246 1487h899q16 0 26.5 -11.5t8.5 -25.5l-27 -209q-4 -20 -9 -22t-16 -2h-321l-145 -1192q-2 -20 -15 -23q2 -4 2 -14q-28 -28 -21 -33.5t11 -6.5t14.5 -3t16.5 -4q104 -8 145 -56.5t27 -156.5q-18 -141 -213 -142h-172q-84 0 -128 51.5t-36 135.5q2 6 14 6h162
q8 0 16.5 -9.5t6.5 -21.5q0 -14 19 -14h69q59 0 65 37q0 8 -62.5 13t-114.5 13t-71.5 20.5t-32 35t-1 62.5t50.5 87q-27 8 -23 35l146 1180h-308q-16 0 -26 11t-8 25l26 209q2 10 3 18q2 8 22 7z" />
    <glyph glyph-name="tcedilla" unicode="&#x163;" horiz-adv-x="729" 
d="M125 692q-16 0 -25.5 10.5t-7.5 24.5l23 207q2 29 30 29h101l26 219q4 20 9.5 22t15.5 2h209q16 0 26.5 -11t8.5 -26l-25 -206h133q16 0 26.5 -10.5t8.5 -26.5l-25 -209q-2 -25 -28 -25h-150l-32 -268q-14 -61 -2 -104.5t83 -45.5q18 0 30.5 -9t10.5 -23l-24 -219
q-4 -25 -10 -27v-8q-29 -29 -22 -34t11 -6t14.5 -3t16.5 -4q104 -8 145 -56.5t27 -156.5q-18 -141 -213 -142h-172q-84 0 -128 51.5t-36 135.5q4 6 15 6h161q8 0 16.5 -9.5t6.5 -21.5q14 -14 43 -14h45q59 0 65 37q0 8 -62 13t-112 13q-50 7 -67 15q-40 18 -46.5 67.5
t62.5 130.5l23 4h20q-213 59 -186 291l47 387h-86z" />
    <glyph glyph-name="Tcaron" unicode="&#x164;" horiz-adv-x="1177" 
d="M246 1487h899q16 0 26.5 -11.5t8.5 -25.5l-27 -209q-4 -20 -9 -22t-16 -2h-321l-145 -1192q-4 -25 -29 -25h-209q-14 0 -24.5 10t-8.5 27l146 1180h-308q-16 0 -26 11t-8 25l26 209q2 10 3 18q2 8 22 7zM426 2163h201q18 0 45 -45l88 -174l129 184q25 35 49 35h213
q16 0 25.5 -14.5t-0.5 -30.5l-279 -367q-20 -27 -51 -27h-207q-27 0 -43 33l-186 369q-16 37 16 37z" />
    <glyph glyph-name="tcaron" unicode="&#x165;" horiz-adv-x="1085" 
d="M649 963q16 0 26.5 -10.5t8.5 -26.5l-25 -209q-2 -25 -28 -25h-150l-32 -268q-14 -61 -2 -104.5t83 -45.5q18 0 30.5 -9t10.5 -23l-24 -219q-2 -27 -17 -27q-186 -4 -285.5 70.5t-80.5 238.5l47 387h-86q-16 0 -25.5 10.5t-7.5 24.5l23 207q2 29 30 29h101l26 219
q4 20 9.5 22t15.5 2h209q16 0 26.5 -11t8.5 -26l-25 -206h133zM737 1634h275q16 0 24 -11t6 -26l-36 -303q-27 -219 -170 -376q-20 -6 -23.5 -4.5t-17.5 18.5l-84 84q-29 29 -15 51q82 59 99 227l18 15h-104q-14 0 -24.5 10t-8.5 27l33 264q1 24 28 24z" />
    <glyph glyph-name="Tbar" unicode="&#x166;" horiz-adv-x="1177" 
d="M246 1487h899q16 0 26.5 -11.5t8.5 -25.5l-27 -209q-4 -20 -9 -22t-16 -2h-321l-31 -256h162q14 0 24.5 -12.5t8.5 -26.5l-27 -209q0 -14 -5 -18.5t-19 -4.5h-177l-81 -665q-4 -25 -29 -25h-209q-14 0 -24.5 10t-8.5 27l80 653h-215q-14 0 -24.5 10.5t-8.5 26.5l25 209
q2 25 26 25h232l31 256h-308q-16 0 -26 11t-8 25l26 209q2 10 3 18q2 8 22 7z" />
    <glyph glyph-name="tbar" unicode="&#x167;" horiz-adv-x="763" 
d="M684 963q16 0 27.5 -11.5t9.5 -25.5l-27 -209q-2 -25 -26 -25h-150l-10 -80h141q14 0 24.5 -12t8.5 -27l-25 -208q-2 -23 -26 -23h-154q4 -66 88 -68q18 0 31.5 -9t11.5 -23l-26 -219q-8 -25 -15 -27q-186 -4 -285.5 70.5t-80.5 238.5l4 37h-80q-14 0 -24.5 10t-8.5 27
l25 209q4 20 9 22t15 2h97l10 80h-86q-16 0 -26.5 10.5t-8.5 24.5l23 207q2 29 30 29h101l26 219q2 25 27 24h209q14 0 24.5 -10t7.5 -27l-24 -206h133z" />
    <glyph glyph-name="Utilde" unicode="&#x168;" horiz-adv-x="1191" 
d="M909 1489h209q16 0 26 -11t9 -26l-123 -1010q-25 -198 -163 -326t-335 -128h-53q-197 0 -307 134t-88 333l125 1009q2 10 3 18t21 7h209q16 0 26 -11t9 -26l-119 -960q-29 -233 142 -234h53q102 0 152 74q49 74 61 172l119 960q2 10 3 18q2 8 21 7zM1063 2050l59 -152
q10 -23 -12 -49q-238 -141 -414 -22q-99 58 -165 25q-28 -13 -80 -50q-27 -10 -39 29l-62 154q-8 23 17 47q252 147 413 22q92 -60 164 -25q29 13 82 50q31 12 37 -29z" />
    <glyph glyph-name="utilde" unicode="&#x169;" horiz-adv-x="1081" 
d="M846 0h-209q-14 0 -25 10q-10 10 -8 27l4 31q-10 -24 -53 -46t-82 -22h-92q-157 0 -223 105t-45 270l69 563q4 16 9 20t20 5h209q14 -1 24 -11t9 -26l-70 -566q-4 -42 15 -66t53 -24h94q39 0 67 35t33 84l70 549q3 18 10 22q6 3 16 3h209q16 1 26 -11t9 -26l-111 -901
q-4 -17 -9 -21t-19 -4zM973 1526l59 -152q10 -23 -12 -49q-238 -141 -414 -22q-97 57 -165 25q-28 -13 -81 -50q-27 -10 -38 29l-62 153q-8 23 16 47q252 147 414 23q91 -59 164 -26q29 13 82 50q31 13 37 -28z" />
    <glyph glyph-name="Umacron" unicode="&#x16a;" horiz-adv-x="1191" 
d="M909 1489h209q16 0 26 -11t9 -26l-123 -1010q-25 -198 -163 -326t-335 -128h-53q-197 0 -307 134t-88 333l125 1009q2 10 3 18t21 7h209q16 0 26 -11t9 -26l-119 -960q-29 -233 142 -234h53q102 0 152 74q49 74 61 172l119 960q2 10 3 18q2 8 21 7zM1055 1741h-664
q-14 0 -24 10t-9 27l25 209q2 25 27 24h663q15 0 25 -11t8 -26l-27 -209q1 -24 -24 -24z" />
    <glyph glyph-name="umacron" unicode="&#x16b;" horiz-adv-x="1081" 
d="M846 0h-209q-14 0 -25 10q-10 10 -8 27l4 31q-10 -24 -53 -46t-82 -22h-92q-157 0 -223 105t-45 270l69 563q4 16 9 20t20 5h209q14 -1 24 -11t9 -26l-70 -566q-4 -42 15 -66t53 -24h94q39 0 67 35t33 84l70 549q3 18 10 22q6 3 16 3h209q16 1 26 -11t9 -26l-111 -901
q-4 -17 -9 -21t-19 -4zM965 1217h-664q-14 0 -25 10q-10 10 -8 26l25 209q2 25 26 25h664q15 0 25 -11t8 -26l-27 -209q1 -24 -24 -24z" />
    <glyph glyph-name="Ubreve" unicode="&#x16c;" horiz-adv-x="1191" 
d="M909 1489h209q16 0 26 -11t9 -26l-123 -1010q-25 -198 -163 -326t-335 -128h-53q-197 0 -307 134t-88 333l125 1009q2 10 3 18t21 7h209q16 0 26 -11t9 -26l-119 -960q-29 -233 142 -234h53q102 0 152 74q49 74 61 172l119 960q2 10 3 18q2 8 21 7zM934 2163h160
q35 0 34 -45q-20 -144 -108 -236t-227 -92h-129q-141 0 -214 100t-55 256q2 16 27 17h160q36 0 32 -40t16 -76t68 -36h84q51 0 86 45t41 90q2 17 25 17z" />
    <glyph glyph-name="ubreve" unicode="&#x16d;" horiz-adv-x="1081" 
d="M846 0h-209q-14 0 -25 10q-10 10 -8 27l4 31q-10 -24 -53 -46t-82 -22h-92q-157 0 -223 105t-45 270l69 563q4 16 9 20t20 5h209q14 -1 24 -11t9 -26l-70 -566q-4 -42 15 -66t53 -24h94q39 0 67 35t33 84l70 549q3 18 10 22q6 3 16 3h209q16 1 26 -11t9 -26l-111 -901
q-4 -17 -9 -21t-19 -4zM844 1638h160q35 0 34 -45q-20 -145 -108 -236t-228 -91h-129q-141 0 -214 100t-54 256q2 16 27 16h160q36 0 32 -40t16 -76t68 -35h84q51 0 86 45t41 90q2 16 25 16z" />
    <glyph glyph-name="Uring" unicode="&#x16e;" horiz-adv-x="1191" 
d="M909 1489h209q16 0 26 -11t9 -26l-123 -1010q-25 -198 -163 -326t-335 -128h-53q-197 0 -307 134t-88 333l125 1009q2 10 3 18t21 7h209q16 0 26 -11t9 -26l-119 -960q-29 -233 142 -234h53q102 0 152 74q49 74 61 172l119 960q2 10 3 18q2 8 21 7zM756 2013h-2
q-18 0 -38 -17t-24 -36v-4q-4 -41 35 -41h2q20 1 40 19t24 36v4q4 39 -37 39zM745 2165h27q82 1 132 -57t40 -140l-4 -22q-8 -82 -64 -132t-141 -51h-26q-84 1 -132 57t-38 138l2 22q10 82 66 134t138 51z" />
    <glyph glyph-name="uring" unicode="&#x16f;" horiz-adv-x="1081" 
d="M846 0h-209q-14 0 -25 10q-10 10 -8 27l4 31q-10 -24 -53 -46t-82 -22h-92q-157 0 -223 105t-45 270l69 563q4 16 9 20t20 5h209q14 -1 24 -11t9 -26l-70 -566q-4 -42 15 -66t53 -24h94q39 0 67 35t33 84l70 549q3 18 10 22q6 3 16 3h209q16 1 26 -11t9 -26l-111 -901
q-4 -17 -9 -21t-19 -4zM666 1489h-2q-18 1 -38 -17t-24 -36v-4q-4 -41 35 -41h2q20 0 40 18q19 19 23 37v4q4 39 -36 39zM655 1640h27q82 0 132 -57t40 -139l-4 -23q-8 -82 -64 -132t-141 -50h-27q-84 0 -132 56t-37 139l2 22q10 82 66 133t138 51z" />
    <glyph glyph-name="Uhungarumlaut" unicode="&#x170;" horiz-adv-x="1191" 
d="M909 1489h209q16 0 26 -11t9 -26l-123 -1010q-25 -198 -163 -326t-335 -128h-53q-197 0 -307 134t-88 333l125 1009q2 10 3 18t21 7h209q16 0 26 -11t9 -26l-119 -960q-29 -233 142 -234h53q102 0 152 74q49 74 61 172l119 960q2 10 3 18q2 8 21 7zM1024 2163h238
q18 -1 27 -13t1 -30l-227 -379q-20 -31 -43 -31h-213q-16 0 -25 13q-8 14 0 30l203 379q12 31 39 31zM651 2163h238q18 -1 26 -13t0 -30l-227 -379q-20 -31 -43 -31h-213q-16 0 -24 14t0 29l202 379q12 31 41 31z" />
    <glyph glyph-name="uhungarumlaut" unicode="&#x171;" horiz-adv-x="1081" 
d="M846 0h-209q-14 0 -25 10q-10 10 -8 27l4 31q-10 -24 -53 -46t-82 -22h-92q-157 0 -223 105t-45 270l69 563q4 16 9 20t20 5h209q14 -1 24 -11t9 -26l-70 -566q-4 -42 15 -66t53 -24h94q39 0 67 35t33 84l70 549q3 18 10 22q6 3 16 3h209q16 1 26 -11t9 -26l-111 -901
q-4 -17 -9 -21t-19 -4zM1169 1638q17 0 27 -12t2 -31l-227 -378q-20 -31 -43 -31h-213q-16 0 -25 13q-8 14 0 30l203 379q12 31 39 30h237zM797 1638q18 0 26 -12t0 -31l-227 -378q-20 -31 -43 -31h-213q-16 0 -25 13q-8 14 0 30l203 379q12 31 41 30h238z" />
    <glyph glyph-name="Uogonek" unicode="&#x172;" horiz-adv-x="1191" 
d="M909 1489h209q16 0 26 -11t9 -26l-123 -1010q-16 -135 -89 -240t-183 -161q16 -8 14 -29q14 -106 -22 -145t-115 -49q-137 -10 -176 -19q-45 0 -47 -24q6 6 51 6h250q8 0 16 -11t6 -22l-14 -119q-2 -14 -16 -14h-277q-106 0 -155 39q-48 39 -35 139q6 51 19 81
q20 47 98 67q19 4 77 12q98 6 129 35h-82q-197 0 -307 134t-88 333l125 1009q2 10 3 18t21 7h209q16 0 26 -11t9 -26l-119 -960q-29 -233 142 -234h53q102 0 152 74q49 74 61 172l119 960q2 10 3 18q2 8 21 7z" />
    <glyph glyph-name="uogonek" unicode="&#x173;" horiz-adv-x="1081" 
d="M741 963h209q16 1 26 -11t9 -26l-111 -901q-4 -14 -8 -19q12 -102 -24 -140t-113 -48q-137 -10 -176 -19q-45 0 -47 -24q6 6 51 6h250q8 0 16 -11t6 -22l-14 -119q-2 -14 -16 -14h-277q-106 0 -154 39t-36 139q6 51 19 81q21 47 99 67q19 4 76 12q115 6 138 47h-27
q-14 0 -25 10q-10 10 -8 27l4 31q-10 -24 -53 -46t-82 -22h-92q-157 0 -223 105t-45 270l69 563q4 16 9 20t20 5h209q14 -1 24 -11t9 -26l-70 -566q-4 -42 15 -66t53 -24h94q39 0 67 35t33 84l70 549q3 18 10 22q6 3 16 3z" />
    <glyph glyph-name="Wcircumflex" unicode="&#x174;" horiz-adv-x="1878" 
d="M1665 1487h211q16 0 24 -10t5 -25l-471 -1427q-8 -25 -39 -25h-160q-31 0 -37 37l-203 967l-438 -979q-10 -25 -39 -25h-160q-35 0 -39 37l-122 1419q-4 31 22 31h211q33 0 37 -37l55 -926l400 934q12 29 41 29h163q37 0 43 -33l168 -930l291 934q6 29 37 29zM1022 2163
h207q29 0 49 -39l188 -365q16 -35 -14 -35h-207q-18 0 -43 43l-90 177l-131 -185q-25 -35 -47 -35h-213q-15 0 -23 16t2 29l277 365q20 29 45 29z" />
    <glyph glyph-name="wcircumflex" unicode="&#x175;" horiz-adv-x="1396" 
d="M1128 963h213q15 -1 25 -13t2 -28l-348 -895q-10 -27 -39 -27h-168q-31 0 -39 39l-78 487l-202 -499q-10 -27 -37 -27h-168q-31 0 -39 39l-131 895q-7 27 18 29h213q33 0 37 -41l53 -523l178 535q10 29 37 29h168q33 0 37 -41l49 -523l183 535q9 29 36 29zM924 1638
q31 0 49 -39l188 -364q18 -35 -14 -35h-207q-18 0 -43 43l-90 176l-131 -184q-25 -35 -47 -35h-213q-16 0 -24 15q-7 16 3 30l277 365q20 29 45 28h207z" />
    <glyph glyph-name="Ycircumflex" unicode="&#x176;" horiz-adv-x="1097" 
d="M891 1487h227q16 0 26 -11t3 -26l-475 -797l-78 -628q-4 -25 -29 -25h-209q-14 0 -24 10t-8 27l77 616l-270 809q-8 20 -3 22t15 3h228q33 0 41 -37l153 -512l289 524q10 25 37 25zM596 2163h207q29 0 49 -39l188 -365q16 -35 -14 -35h-207q-18 0 -43 43l-90 177
l-131 -185q-25 -35 -47 -35h-213q-15 0 -23 16t2 29l277 365q20 29 45 29z" />
    <glyph glyph-name="ycircumflex" unicode="&#x177;" horiz-adv-x="1134" 
d="M862 963h221q19 -1 25 -15t-2 -28l-707 -1301q-14 -29 -43 -29h-221q-18 0 -25 14t-1 29l258 476l-244 823q-13 29 14 31h223q31 0 39 -41l150 -482l268 494q16 29 45 29zM498 1200h-213q-15 0 -23 15t2 30l277 365q20 29 45 28h207q31 0 49 -39l188 -364q18 -35 -14 -35
h-207q-18 0 -43 43l-90 176l-131 -184q-24 -35 -47 -35z" />
    <glyph glyph-name="Ydieresis" unicode="&#x178;" horiz-adv-x="1097" 
d="M891 1487h227q16 0 26 -11t3 -26l-475 -797l-78 -628q-4 -25 -29 -25h-209q-14 0 -24 10t-8 27l77 616l-270 809q-8 20 -3 22t15 3h228q33 0 41 -37l153 -512l289 524q10 25 37 25zM1049 2011q14 0 24 -10t8 -27l-32 -274q-2 -25 -27 -25h-281q-14 -1 -24 11t-8 28
l32 273q2 25 27 24h281zM596 2011q16 0 26 -11t9 -26l-35 -274q-2 -10 -3 -18t-22 -7h-280q-15 -1 -25 11t-10 28l35 273q2 25 26 24h279z" />
    <glyph glyph-name="Zacute" unicode="&#x179;" horiz-adv-x="1107" 
d="M932 270q14 0 24 -10t9 -27l-25 -208q-4 -25 -29 -25h-841q-14 0 -25 10q-10 10 -8 27l12 90q0 33 6 43l656 1047h-490q-14 0 -24 10t-9 26l25 209q2 25 27 25h841q14 0 25 -10q10 -11 8 -27l-10 -90q0 -25 -6 -43l-656 -1047h490zM821 2163h238q18 -1 26 -13t0 -30
l-227 -379q-20 -31 -43 -31h-213q-16 0 -24 14t0 29l202 379q12 31 41 31z" />
    <glyph glyph-name="zacute" unicode="&#x17a;" horiz-adv-x="905" 
d="M748 270q16 0 26 -10t8 -27l-24 -208q-4 -25 -29 -25h-680q-14 0 -24 10t-9 27l15 131q4 31 10 39l405 485h-311q-14 0 -24 10t-9 27l25 207q4 27 29 27h678q16 -1 26 -11t8 -26l-16 -138q-4 -25 -12 -34l-404 -484h312zM893 1638q19 0 27 -12t0 -31l-228 -378
q-20 -31 -43 -31h-213q-16 0 -24 14t0 29l202 379q12 31 41 30h238z" />
    <glyph glyph-name="Zdotaccent" unicode="&#x17b;" horiz-adv-x="1107" 
d="M932 270q14 0 24 -10t9 -27l-25 -208q-4 -25 -29 -25h-841q-14 0 -25 10q-10 10 -8 27l12 90q0 33 6 43l656 1047h-490q-14 0 -24 10t-9 26l25 209q2 25 27 25h841q14 0 25 -10q10 -11 8 -27l-10 -90q0 -25 -6 -43l-656 -1047h490zM586 2011h278q14 0 24 -11t9 -26
l-35 -272q0 -19 -8 -21t-16 -2h-277q-15 1 -25 11t-8 26l33 273q0 18 8 20t17 2z" />
    <glyph glyph-name="zdotaccent" unicode="&#x17c;" horiz-adv-x="905" 
d="M748 270q16 0 26 -10t8 -27l-24 -208q-4 -25 -29 -25h-680q-14 0 -24 10t-9 27l15 131q4 31 10 39l405 485h-311q-14 0 -24 10t-9 27l25 207q4 27 29 27h678q16 -1 26 -11t8 -26l-16 -138q-4 -25 -12 -34l-404 -484h312zM420 1487h278q14 0 24 -11t9 -26l-35 -272
q0 -19 -8 -21t-16 -2h-277q-15 1 -25 11t-8 26l33 272q0 23 25 23z" />
    <glyph glyph-name="Zcaron" unicode="&#x17d;" horiz-adv-x="1107" 
d="M932 270q14 0 24 -10t9 -27l-25 -208q-4 -25 -29 -25h-841q-14 0 -25 10q-10 10 -8 27l12 90q0 33 6 43l656 1047h-490q-14 0 -24 10t-9 26l25 209q2 25 27 25h841q14 0 25 -10q10 -11 8 -27l-10 -90q0 -25 -6 -43l-656 -1047h490zM385 2163h201q18 0 45 -45l88 -174
l129 184q25 35 49 35h213q16 -1 26 -15t-1 -30l-279 -367q-20 -27 -51 -27h-207q-27 0 -43 33l-186 369q-16 37 16 37z" />
    <glyph glyph-name="zcaron" unicode="&#x17e;" horiz-adv-x="905" 
d="M748 270q16 0 26 -10t8 -27l-24 -208q-4 -25 -29 -25h-680q-14 0 -24 10t-9 27l15 131q4 31 10 39l405 485h-311q-14 0 -24 10t-9 27l25 207q4 27 29 27h678q16 -1 26 -11t8 -26l-16 -138q-4 -25 -12 -34l-404 -484h312zM420 1638q18 0 45 -45l88 -174l129 185
q25 35 49 34h213q16 0 26 -14t-1 -31l-279 -366q-20 -27 -51 -27h-207q-27 0 -43 33l-186 369q-16 37 16 36h201z" />
    <glyph glyph-name="florin" unicode="&#x192;" horiz-adv-x="1028" 
d="M905 1487h166q35 0 35 -37l-27 -209q-4 -20 -9 -22t-15 -2h-19q-115 0 -172 -40t-71 -155l-131 -1053q-18 -174 -118 -276t-253 -103h-166q-15 0 -25 10t-8 27l25 209q2 25 26 25h19q115 0 171 40t70 154l80 637h-98q-16 0 -27 11q-10 11 -8 26l27 209q3 18 10 22
q6 3 16 3h113l19 145q20 174 119 276t251 103z" />
    <glyph glyph-name="Acaron" unicode="&#x1cd;" horiz-adv-x="1230" 
d="M711 618l-47 312l-125 -312h172zM1047 0h-209q-33 0 -39 39l-47 309h-324l-129 -321q-12 -27 -37 -27h-211q-16 0 -24 11t-2 28l577 1427q10 27 39 27h164q15 1 25 -11t12 -28l225 -1427q2 -15 -2 -21t-18 -6zM952 2163h213q15 -1 25 -15t0 -30l-279 -367
q-20 -27 -51 -27h-207q-27 0 -43 33l-186 369q-16 37 16 37h201q18 0 45 -45l88 -174l129 184q24 35 49 35z" />
    <glyph glyph-name="acaron" unicode="&#x1ce;" horiz-adv-x="946" 
d="M336 268h98q80 0 111 31l8 76h-193q-14 -1 -33 -17t-23 -35t6 -37t26 -18zM479 967h88q127 1 215 -105t70 -258l-66 -551q-2 -13 1 -33t-7 -20h-227q-31 0 -39 39q-76 -41 -137 -41h-76q-113 0 -193 96t-64 229t114 213t231 80h195l2 21q4 33 -14 47t-60 14h-94
q-64 0 -133 -43q-25 -10 -41 15l-97 141q-20 31 0 45q142 111 332 111zM764 1638h213q16 0 25 -14t-1 -31l-278 -366q-20 -27 -51 -27h-207q-27 0 -43 33l-186 369q-16 37 16 36h201q18 0 45 -45l88 -174l129 185q24 34 49 34z" />
    <glyph glyph-name="Icaron" unicode="&#x1cf;" horiz-adv-x="612" 
d="M262 1487h213q15 0 25 -10t8 -27l-174 -1425q-3 -20 -10 -22q-6 -3 -17 -3h-215q-14 0 -24 10t-9 27l177 1425q2 25 26 25zM92 2163h201q18 0 45 -45l88 -174l129 184q25 35 49 35h213q15 -1 25 -15t0 -30l-279 -367q-20 -27 -51 -27h-207q-27 0 -43 33l-186 369
q-16 37 16 37z" />
    <glyph glyph-name="icaron" unicode="&#x1d0;" horiz-adv-x="598" 
d="M238 965h208q14 -1 24 -11t9 -26l-110 -903q-4 -25 -29 -25h-209q-14 0 -25 10q-10 11 -8 27l113 903q2 25 27 25zM266 1638q18 0 45 -45l88 -174l129 185q25 35 50 34h213q16 0 25 -14t-1 -31l-278 -366q-20 -27 -52 -27h-206q-27 0 -43 33l-187 369q-16 37 17 36h200z
" />
    <glyph glyph-name="Ocaron" unicode="&#x1d1;" horiz-adv-x="1212" 
d="M504 250h108q78 0 129 60t64 147l76 590q12 84 -20 138t-109 54h-111q-76 0 -129 -62t-61 -145l-74 -590q-9 -84 21 -138t106 -54zM662 1509h108q176 0 289 -147t88 -350l-70 -549q-23 -203 -163 -343t-318 -140h-109q-177 0 -291 147t-87 350l71 549q27 203 166 343
q140 140 316 140zM436 2161h201q18 0 45 -45l88 -174l129 184q25 35 49 35h213q15 1 25 -15t0 -30l-279 -367q-20 -27 -51 -27h-207q-27 0 -43 33l-186 369q-16 37 16 37z" />
    <glyph glyph-name="ocaron" unicode="&#x1d2;" horiz-adv-x="1054" 
d="M584 698h-88q-49 0 -78 -32t-33 -70l-29 -242q-12 -86 74 -86h90q49 0 77 30t32 69l28 241q16 90 -73 90zM520 969h80q154 0 250 -110t78 -263l-29 -242q-20 -154 -135 -255t-268 -101h-80q-154 0 -251 108t-79 261l29 241q23 154 137 258t268 103zM485 1638q18 0 45 -45
l88 -174l130 185q25 35 49 34h213q16 0 25 -14t-1 -31l-278 -366q-20 -27 -51 -27h-207q-27 0 -43 33l-187 369q-16 37 17 36h200z" />
    <glyph glyph-name="Ucaron" unicode="&#x1d3;" horiz-adv-x="1191" 
d="M909 1489h209q16 0 26 -11t9 -26l-123 -1010q-25 -198 -163 -326t-335 -128h-53q-197 0 -307 134t-88 333l125 1009q2 10 3 18t21 7h209q16 0 26 -11t9 -26l-119 -960q-29 -233 142 -234h53q102 0 152 74q49 74 61 172l119 960q2 10 3 18q2 8 21 7zM401 2163h201
q18 0 45 -45l88 -174l129 184q25 35 49 35h213q16 -1 26 -15t-1 -30l-279 -367q-20 -27 -51 -27h-207q-27 0 -43 33l-186 369q-16 37 16 37z" />
    <glyph glyph-name="ucaron" unicode="&#x1d4;" horiz-adv-x="1081" 
d="M846 0h-209q-14 0 -25 10q-10 10 -8 27l4 31q-10 -24 -53 -46t-82 -22h-92q-157 0 -223 105t-45 270l69 563q4 16 9 20t20 5h209q14 -1 24 -11t9 -26l-70 -566q-4 -42 15 -66t53 -24h94q39 0 67 35t33 84l70 549q3 18 10 22q6 3 16 3h209q16 1 26 -11t9 -26l-111 -901
q-4 -17 -9 -21t-19 -4zM512 1638q18 0 45 -45l88 -174l129 185q25 35 49 34h213q16 0 26 -14t-1 -31l-279 -366q-20 -27 -51 -27h-207q-27 0 -43 33l-186 369q-16 37 16 36h201z" />
    <glyph glyph-name="Gcaron" unicode="&#x1e6;" horiz-adv-x="1171" 
d="M635 770h409q16 0 26.5 -11t8.5 -26l-35 -291q-27 -209 -158.5 -339t-318.5 -130h-98q-193 0 -300.5 140.5t-80.5 359.5l70 555q27 219 161 350t326 131h98q186 0 290 -136t83 -351q-2 -16 -29 -16h-208q-39 0 -33 45q14 102 -12.5 145t-110.5 43h-98q-92 0 -138.5 -52
t-60.5 -171l-68 -557q-14 -121 12.5 -168t116.5 -47h99q84 0 128 52t60 161l4 43h-162q-14 0 -24 10t-8 27l24 208q2 25 27 25zM449 2163h200q18 0 45 -45l88 -174l129 184q25 35 50 35h213q16 0 25 -14.5t-1 -30.5l-278 -367q-20 -27 -52 -27h-206q-28 0 -44 33l-186 369
q-16 37 17 37z" />
    <glyph glyph-name="gcaron" unicode="&#x1e7;" horiz-adv-x="1001" 
d="M488 698q-40 0 -74 -30t-37 -76l-29 -234q-14 -90 70 -90h98q35 0 53 21l49 395q0 4 2 7q0 3 -2 5l-3 3t-7 1h-14l-25 -2h-81zM758 963h133q14 -1 24 -11t9 -26l-127 -1035q-14 -115 -124 -207t-243 -94h-51q-115 0 -199 58t-127 155q-14 31 13 47l145 87q27 14 67 -31
t93 -45h78q70 0 75 63l8 70q-33 4 -55 4h-78q-153 0 -245 111t-76 262l28 233q18 154 134 259t268 106h65q68 0 119 -41l4 -10q2 25 23 35t39 10zM469 1638q18 0 45 -45l88 -174l129 185q25 35 49 34h213q15 0 25 -14t0 -31l-279 -366q-20 -27 -51 -27h-207q-27 0 -43 33
l-186 369q-16 37 16 36h201z" />
    <glyph glyph-name="Scommaaccent" unicode="&#x218;" horiz-adv-x="1173" 
d="M248 -426h274q16 0 24.5 -11.5t6.5 -25.5l-37 -303q-27 -219 -170 -377q-20 -6 -23.5 -4t-17.5 19l-84 84q-29 29 -14 51q82 59 98 227l19 14h-105q-14 0 -24.5 10.5t-8.5 26.5l33 264q2 25 29 25zM627 1518h106q166 0 280.5 -128t92.5 -309l-4 -41q-2 -14 -6 -18t-21 -4
h-211q-14 0 -24.5 10t-8.5 27l5 39q8 68 -26 110.5t-95 42.5h-107q-61 0 -106 -49q-45 -48 -50 -96t-9.5 -83.5t25.5 -68t97 -45.5l119 -18q197 -31 288 -165t67 -324t-163 -304t-313 -114h-94q-170 0 -288 122.5t-95 296.5l6 62q2 14 6 18t21 4h211q16 0 25.5 -11t6.5 -26
l-4 -61q-4 -59 32 -97t99 -38h95q70 0 124 47t60 105t7 99.5t-28.5 73t-95.5 41.5l-114 23q-207 39 -292 168t-64 311t148.5 291t297.5 109z" />
    <glyph glyph-name="scommaaccent" unicode="&#x219;" horiz-adv-x="966" 
d="M150 -426h274q16 0 24.5 -11.5t6.5 -25.5l-37 -303q-27 -219 -170 -377q-20 -6 -23.5 -4t-17.5 19l-84 84q-29 29 -14 51q82 59 98 227l18 14h-104q-14 0 -24.5 10.5t-8.5 26.5l33 264q2 25 29 25zM564 700h-118q-51 0 -57 -22q0 -2 -4 -6q-27 -45 92 -60
q203 -20 287 -103t63 -251q-16 -119 -124.5 -193.5t-264.5 -74.5h-49q-135 0 -229 81t-92 201q0 16 24 17h213q16 0 45 -33q8 -2 21.5 1t27.5 3h90q68 0 72 39v2q18 23 -33 35l-55 10q-205 16 -288 102.5t-64.5 234.5t121 218t262.5 70h37q143 0 240.5 -88t80.5 -221
q-2 -18 -28 -19h-207q-41 0 -35 43q0 14 -28 14z" />
    <glyph glyph-name="uni021A" unicode="&#x21a;" horiz-adv-x="1177" 
d="M260 -426h275q16 0 24 -11.5t6 -25.5l-37 -303q-27 -219 -170 -377q-20 -6 -23 -4t-18 19l-84 84q-29 29 -14 51q82 59 98 227l19 14h-105q-14 0 -24 10.5t-8 26.5l32 264q2 25 29 25zM246 1487h899q16 0 26.5 -11.5t8.5 -25.5l-27 -209q-4 -20 -9 -22t-16 -2h-321
l-145 -1192q-4 -25 -29 -25h-209q-14 0 -24.5 10t-8.5 27l146 1180h-308q-16 0 -26 11t-8 25l26 209q2 10 3 18q2 8 22 7z" />
    <glyph glyph-name="uni021B" unicode="&#x21b;" horiz-adv-x="729" 
d="M147 -426h275q16 0 24.5 -11.5t6.5 -25.5l-37 -303q-27 -219 -170 -377q-20 -6 -23.5 -4t-17.5 19l-84 84q-29 29 -15 51q82 59 99 227l18 14h-104q-14 0 -24.5 10.5t-8.5 26.5l33 264q1 25 28 25zM649 963q16 0 26.5 -10.5t8.5 -26.5l-25 -209q-2 -25 -28 -25h-150
l-32 -268q-14 -61 -2 -104.5t83 -45.5q18 0 30.5 -9t10.5 -23l-24 -219q-2 -27 -17 -27q-186 -4 -285.5 70.5t-80.5 238.5l47 387h-86q-16 0 -25.5 10.5t-7.5 24.5l23 207q2 29 30 29h101l26 219q4 20 9.5 22t15.5 2h209q16 0 26.5 -11t8.5 -26l-25 -206h133z" />
    <glyph glyph-name="uni0228" unicode="&#x228;" horiz-adv-x="1138" 
d="M270 1487h822q14 0 24 -10.5t8 -26.5l-26 -209q0 -16 -4 -20t-21 -4h-588l-43 -332h441q16 0 26.5 -11.5t8.5 -25.5l-27 -209q-2 -9 -3 -17t-22 -8h-456l-43 -344h575q14 0 24.5 -10t8.5 -27l-25 -208q-4 -25 -28 -25h-246q2 -4 2 -12q-29 -29 -21.5 -34t11.5 -6t14 -3
t16 -4q104 -8 145.5 -56.5t26.5 -156.5q-18 -141 -213 -142h-172q-84 0 -128 51.5t-35 135.5q2 6 14 6h162q8 0 16 -9.5t6 -21.5q0 -14 20 -14h68q59 0 66 37q0 8 -62.5 13t-114.5 13t-70.5 20.5t-32 35t-3.5 61.5t49 86h-340q-14 0 -24 10t-8 27l176 1425q1 25 26 25z" />
    <glyph glyph-name="uni0229" unicode="&#x229;" horiz-adv-x="993" 
d="M571 698h-77q-31 0 -67 -25.5t-38 -54.5l-2 -10h250l4 27q4 27 -16.5 45t-53.5 18zM520 969h78q135 0 231.5 -110.5t77.5 -264.5l-16 -141q-6 -31 -19.5 -43.5t-44.5 -12.5h-467l-2 -43q-12 -86 74 -86h90q47 0 84 46q6 8 19.5 23t17.5 21q20 16 47 -14l133 -131
q25 -23 13 -51q-51 -47 -81 -73t-87.5 -53.5t-118.5 -33.5q4 -10 -2 -17t-11.5 -14.5t-6.5 -11.5t3.5 -7t8.5 -4t14 -3t16 -4q104 -8 145.5 -56.5t26.5 -156.5q-18 -141 -213 -142h-172q-84 0 -128 51.5t-35 135.5q2 6 14 6h162q8 0 16 -9.5t6 -21.5q14 -14 43 -14h45
q59 0 66 37q0 8 -62.5 13t-112.5 13q-50 7 -66 15q-40 18 -47 67t63 131q-117 33 -182.5 134.5t-51.5 226.5l29 233q18 150 133.5 257.5t269.5 107.5z" />
    <glyph glyph-name="dotlessj" unicode="&#x237;" horiz-adv-x="591" 
d="M231 965h209q14 -1 24 -11t9 -26l-131 -1061q-16 -143 -110 -251t-228 -144q-35 -7 -43 32l-67 191q-8 27 10 39q61 16 112 62t60 104l129 1040q2 25 26 25z" />
    <glyph glyph-name="circumflex" unicode="&#x2c6;" horiz-adv-x="983" 
d="M717 1638q29 0 49 -39l188 -364q16 -35 -14 -35h-207q-18 0 -43 43l-90 176l-131 -184q-25 -35 -47 -35h-213q-16 0 -24 15q-7 16 3 30l277 365q20 29 45 28h207z" />
    <glyph glyph-name="caron" unicode="&#x2c7;" horiz-adv-x="983" 
d="M459 1638q18 0 45 -45l88 -174l129 185q25 35 49 34h213q15 0 25 -14t0 -31l-279 -366q-20 -27 -51 -27h-207q-27 0 -43 33l-186 369q-16 37 16 36h201z" />
    <glyph glyph-name="breve" unicode="&#x2d8;" horiz-adv-x="940" 
d="M770 1638h160q35 0 35 -45q-21 -145 -109 -236t-227 -91h-129q-141 0 -214 100t-55 256q2 16 27 16h160q37 0 33 -40t15 -76t69 -35h83q50 0 86 45t41 90q2 16 25 16z" />
    <glyph glyph-name="dotaccent" unicode="&#x2d9;" horiz-adv-x="542" 
d="M238 1487h278q14 0 24 -11t9 -26l-35 -272q0 -19 -8 -21t-17 -2h-276q-14 0 -25 10q-10 11 -8 27l33 272q0 19 8 21t17 2z" />
    <glyph glyph-name="ring" unicode="&#x2da;" horiz-adv-x="608" 
d="M426 1489h-2q-18 1 -38 -17t-24 -36v-4q-4 -41 35 -41h2q20 1 40 19t24 36v4q4 39 -37 39zM416 1640h26q82 0 132 -57t40 -139l-4 -23q-8 -82 -64 -132t-140 -50h-27q-84 0 -132 56t-38 139l2 22q11 82 67 133t138 51z" />
    <glyph glyph-name="ogonek" unicode="&#x2db;" horiz-adv-x="659" 
d="M143 -248h250q9 0 17 -11t6 -22l-15 -118q-2 -14 -16 -15h-276q-106 0 -155 39q-48 39 -36 139q6 51 20 81q21 47 98 67q19 4 86 11q68 7 104 25t32 64l2 2h170q8 0 16 -9t7 -21q14 -106 -22 -146t-116 -49q-137 -10 -176 -18q-45 0 -47 -25q6 6 51 6z" />
    <glyph glyph-name="tilde" unicode="&#x2dc;" horiz-adv-x="999" 
d="M928 1526l59 -152q10 -23 -12 -49q-238 -141 -414 -22q-97 57 -165 25q-28 -13 -81 -50q-27 -10 -39 29l-61 153q-8 23 16 47q252 147 414 23q91 -59 164 -26q29 13 82 50q31 13 37 -28z" />
    <glyph glyph-name="hungarumlaut" unicode="&#x2dd;" horiz-adv-x="1044" 
d="M1038 1638q18 0 28 -12t1 -31l-227 -378q-20 -31 -43 -31h-213q-16 0 -25 13q-8 14 0 30l203 379q12 31 39 30h237zM666 1638q18 0 26 -12t0 -31l-227 -378q-20 -31 -43 -31h-213q-16 0 -25 13q-8 14 0 30l203 379q12 31 41 30h238z" />
    <glyph glyph-name="uni0326" unicode="&#x326;" horiz-adv-x="0" 
d="M-66 -410h275q16 0 24.5 -11t6.5 -25l-37 -304q-27 -219 -170 -376q-20 -6 -23.5 -4t-17.5 18l-84 84q-29 29 -14 51q82 59 98 227l18 15h-104q-14 0 -24.5 10t-8.5 27l33 264q1 24 28 24z" />
    <glyph glyph-name="Delta" unicode="&#x394;" horiz-adv-x="1280" 
d="M825 270l-116 832l-326 -832h442zM1096 0h-1045q-16 0 -24 11t-2 28l602 1427q10 27 39 27h163q32 0 37 -39l250 -1427q2 -15 -2 -21t-18 -6z" />
    <glyph glyph-name="Omega" unicode="&#x3a9;" horiz-adv-x="1243" 
d="M1028 0h-364q-16 0 -27 11q-10 11 -8 26l45 356q2 25 26 25h7q75 0 107 48t44 152l51 410q16 129 -14 171q-31 42 -113 42h-94q-82 0 -130 -48t-64 -177l-52 -410q-12 -108 2 -148t91 -40h6q14 0 24 -10t8 -27l-43 -356q-3 -20 -10 -22q-6 -3 -16 -3h-365q-16 0 -26 11
t-9 26l27 209q3 19 10 21q6 3 17 3l129 4q-133 166 -109 369l47 385q25 203 166 343t318 140h94q176 0 288 -146t87 -349l-48 -385q-25 -209 -188 -365l105 4q16 0 26 -11t8 -26l-26 -208q-3 -20 -10 -23q-7 -2 -17 -2z" />
    <glyph glyph-name="mu" unicode="&#x3bc;" horiz-adv-x="1148" 
d="M739 963h209q14 -1 24 -11t9 -26l-111 -901q-3 -20 -10 -22q-6 -3 -16 -3h-209q-16 0 -27 11q-10 11 -8 26l6 31q-10 -24 -53 -46t-82 -22h-92q-29 0 -43 2l-47 -387q-2 -25 -27 -25h-209q-14 0 -24 10t-9 27l160 1311q4 25 29 25h209q14 -1 24 -11t9 -26l-70 -566
q-4 -42 15 -66t53 -24h94q37 0 65 35t35 84l68 549q3 25 28 25z" />
    <glyph glyph-name="pi" unicode="&#x3c0;" horiz-adv-x="1208" 
d="M174 963h944q14 1 24 -11t9 -26l-29 -211q0 -19 -8 -21t-16 -2h-56l-81 -667q-4 -25 -29 -25h-209q-14 0 -25 10q-10 10 -8 27l80 655h-303l-82 -667q-4 -25 -29 -25h-209q-14 0 -24 10t-8 27l80 655h-39q-37 0 -33 37l24 209q3 18 10 21q7 4 17 4z" />
    <glyph glyph-name="uni0401" unicode="&#x401;" horiz-adv-x="1138" 
d="M883 885q16 0 26.5 -11.5t8.5 -25.5l-27 -209q-2 -9 -3 -17t-22 -8h-456l-43 -344h575q14 0 24.5 -10t8.5 -27l-25 -208q-4 -25 -28 -25h-822q-14 0 -24 10t-8 27l176 1425q2 25 26 25h822q14 0 24 -10.5t8 -26.5l-26 -209q0 -16 -4 -20t-21 -4h-588l-43 -332h441z
M1157 2011q14 0 24.5 -10t8.5 -27l-33 -274q-2 -25 -27 -25h-280q-14 0 -24.5 11.5t-8.5 27.5l33 273q2 25 27 24h280zM705 2011q16 0 26 -11t8 -26l-34 -274q-4 -21 -9.5 -23t-15.5 -2h-281q-14 0 -24 11.5t-10 27.5l34 273q2 25 27 24h279z" />
    <glyph glyph-name="uni0403" unicode="&#x403;" horiz-adv-x="1148" 
d="M270 1487h822q14 0 24 -10t8 -27l-26 -209q0 -16 -4 -20t-21 -4h-590l-145 -1192q-4 -25 -29 -25h-209q-14 0 -24 10t-8 27l176 1425q1 25 26 25zM723 1710h-213q-16 0 -25 13q-8 13 0 30l203 379q12 31 41 31h238q18 -1 26 -13t0 -30l-227 -379q-20 -31 -43 -31z" />
    <glyph glyph-name="uni0404" unicode="&#x404;" horiz-adv-x="1159" 
d="M647 1509h94q186 0 290 -136t83 -351q-2 -16 -29 -16h-208q-39 0 -33 45q14 102 -12.5 145t-110.5 43h-94q-92 0 -138.5 -52t-60.5 -171l-16 -137h284q16 0 26.5 -11.5t8.5 -25.5l-26 -209q-2 -25 -27 -25h-299l-19 -149q-14 -121 12.5 -168t116.5 -47h95q84 0 129 53
t59 168q2 16 29 16h209q37 0 30 -45q-27 -205 -158.5 -334t-316.5 -129h-94q-193 0 -300.5 138.5t-80.5 359.5l70 557q27 219 160.5 350t326.5 131z" />
    <glyph glyph-name="uni0406" unicode="&#x406;" horiz-adv-x="612" 
d="M262 1487h213q15 0 25 -10t8 -27l-174 -1425q-3 -20 -10 -22q-6 -3 -17 -3h-215q-14 0 -24 10t-9 27l177 1425q2 25 26 25z" />
    <glyph glyph-name="uni0407" unicode="&#x407;" horiz-adv-x="612" 
d="M262 1487h213q15 0 25 -10t8 -27l-174 -1425q-3 -20 -10 -22q-6 -3 -17 -3h-215q-14 0 -24 10t-9 27l177 1425q2 25 26 25zM797 2011q14 0 24 -10t8 -27l-32 -274q-2 -25 -27 -25h-281q-14 -1 -24 11t-8 28l32 273q2 25 27 24h281zM344 2011q16 0 26 -11t9 -26l-35 -274
q-2 -10 -3 -18t-22 -7h-280q-15 -1 -25 11t-10 28l35 273q2 25 27 24h278z" />
    <glyph glyph-name="uni0408" unicode="&#x408;" horiz-adv-x="1169" 
d="M473 256h53q213 0 244 242l117 964q2 25 26 25h209q14 0 24 -10t9 -27l-121 -989q-18 -153 -97 -265q-148 -209 -405 -210h-77q-131 0 -251 79t-151 203q-10 21 10 35l170 105q11 8 17 0t14 -33q45 -67 90 -93t119 -26z" />
    <glyph glyph-name="uni040C" unicode="&#x40c;" horiz-adv-x="1245" 
d="M1081 0h-250q-33 0 -51 33l-311 612l-74 -74l-67 -546q-4 -25 -29 -25h-209q-14 0 -24.5 10t-8.5 27l176 1425q2 25 27 25h209q14 0 24.5 -10.5t8.5 -26.5l-70 -559l440 571q20 25 39 25h265q16 0 22 -17.5t-6 -37.5l-498 -617l393 -770q29 -45 -6 -45zM856 2163h238
q18 0 26 -12.5t0 -30.5l-227 -379q-20 -31 -43 -31h-213q-16 0 -24.5 13.5t-0.5 29.5l203 379q12 31 41 31z" />
    <glyph glyph-name="uni040D" unicode="&#x40d;" horiz-adv-x="1292" 
d="M270 1487h209q14 0 24.5 -10.5t8.5 -26.5l-106 -860l577 880q10 16 35 17h217q14 0 24.5 -10.5t8.5 -26.5l-174 -1425q-4 -25 -29 -25h-209q-14 0 -24.5 10t-8.5 27l109 860l-580 -881q-10 -16 -35 -16h-217q-14 0 -24 10t-8 27l176 1425q1 25 26 25zM877 1710h-189
q-29 0 -41 43l-133 379q-8 18 -5 24.5t19 6.5h213q33 0 41 -43l109 -379q10 -31 -14 -31z" />
    <glyph glyph-name="uni040E" unicode="&#x40e;" horiz-adv-x="1267" 
d="M1028 1487h221q19 0 25 -13t0 -30l-811 -1415q-16 -29 -45 -29h-221q-18 0 -26 14q-7 14 1 29l330 575l-285 838q-13 31 14 31h224q29 0 41 -41l182 -520l307 532q14 29 43 29zM856 1790h-129q-141 0 -214 100t-54 256q2 16 26 17h160q37 0 33 -40t15 -76t69 -36h84
q51 0 86 45t41 90q2 16 24 17h160q35 0 35 -45q-20 -144 -108 -236t-228 -92z" />
    <glyph glyph-name="uni0410" unicode="&#x410;" horiz-adv-x="1230" 
d="M711 618l-47 312l-125 -312h172zM1047 0h-209q-33 0 -39 39l-47 309h-324l-129 -321q-12 -27 -37 -27h-211q-16 0 -24 11t-2 28l577 1427q10 27 39 27h164q15 1 25 -11t12 -28l225 -1427q2 -15 -2 -21t-18 -6z" />
    <glyph glyph-name="uni0411" unicode="&#x411;" horiz-adv-x="1183" 
d="M584 270q51 0 83 10q31 10 61 49q30 40 37 103t1 95q-10 52 -70 64q-20 3 -59 3h-229l-39 -324h215zM682 864q182 0 278 -124t73 -320t-143 -308t-302 -112h-488q-14 0 -24 10t-8 27l176 1425q2 25 26 25h744q14 0 24 -10t9 -27l-27 -209q0 -16 -4 -20t-21 -4h-512
l-43 -353h242z" />
    <glyph glyph-name="uni0412" unicode="&#x412;" horiz-adv-x="1196" 
d="M586 270q98 0 149 41t66 140q10 92 -29 133t-131 41h-231l-43 -355h219zM659 895q90 0 131 43q40 43 50 126t-20 118t-101 35h-234l-41 -322h215zM616 0h-510q-18 0 -28 12t-8 31l172 1413q4 31 34 31h494q176 1 271 -103t73 -288q-32 -250 -184 -338q78 -40 112 -140
t19 -245q-45 -373 -445 -373z" />
    <glyph glyph-name="uni0413" unicode="&#x413;" horiz-adv-x="1148" 
d="M270 1487h822q14 0 24 -10t8 -27l-26 -209q0 -16 -4 -20t-21 -4h-590l-145 -1192q-4 -25 -29 -25h-209q-14 0 -24 10t-8 27l176 1425q1 25 26 25z" />
    <glyph glyph-name="uni0414" unicode="&#x414;" horiz-adv-x="1609" 
d="M1051 270l118 947h-489l-68 -531q-29 -229 -108 -416h547zM465 1487h969q14 0 24 -10t8 -27l-145 -1180h111q14 0 24 -10t8 -27l-49 -407q-4 -25 -29 -25h-208q-14 1 -24 11t-9 26l20 162h-882l-21 -174q-4 -25 -29 -25h-208q-15 1 -25 11t-8 26l49 408q4 16 9 20t20 4
h53q57 0 130 131t97 347l88 714q2 25 27 25z" />
    <glyph glyph-name="uni0415" unicode="&#x415;" horiz-adv-x="1138" 
d="M883 885q16 0 26.5 -11.5t8.5 -25.5l-27 -209q-2 -9 -3 -17t-22 -8h-456l-43 -344h575q14 0 24.5 -10t8.5 -27l-25 -208q-4 -25 -28 -25h-822q-14 0 -24 10t-8 27l176 1425q2 25 26 25h822q14 0 24 -10.5t8 -26.5l-26 -209q0 -16 -4 -20t-21 -4h-588l-43 -332h441z" />
    <glyph glyph-name="uni0416" unicode="&#x416;" horiz-adv-x="1996" 
d="M1821 0h-248q-37 0 -51 33l-314 612l-71 -74l-70 -546q-3 -20 -10 -22q-6 -3 -17 -3h-209q-16 0 -26 11t-8 26l69 534l-49 74l-461 -620q-23 -25 -57 -25h-250q-18 0 -23 20t3 33l594 762l-334 625q-23 47 4 47h264q18 0 35 -33l309 -563l72 571q2 25 26 25h209
q14 0 24 -10t9 -27l-70 -559l441 571q23 25 39 25h264q16 1 22 -17t-6 -38l-495 -617l393 -770q14 -23 9 -34t-17 -11z" />
    <glyph glyph-name="uni0417" unicode="&#x417;" horiz-adv-x="1148" 
d="M477 -18h-86q-168 0 -285 118t-94 297l4 39q4 25 29 25h211q14 0 24 -10t9 -27l-6 -39q-5 -51 27 -92t102 -41h86q84 0 133 49t60 135t-12 128q-24 42 -122 48h-151q-16 0 -26 12t-9 25l28 221q2 10 3 18t22 7h154q100 6 133 53t49 164q6 53 -23 91t-104 38h-88
q-70 0 -120 -52t-56 -112l-7 -39q-2 -25 -26 -24h-211q-14 0 -25 10q-10 10 -8 27l4 39q25 184 165 303t304 118h88q170 -1 283 -121q112 -120 92 -283t-86 -245t-194 -110q115 -27 171 -122q57 -95 35 -265q-22 -171 -161 -277t-316 -106z" />
    <glyph glyph-name="uni0418" unicode="&#x418;" horiz-adv-x="1292" 
d="M270 1487h209q14 0 24.5 -10.5t8.5 -26.5l-106 -860l577 880q10 16 35 17h217q14 0 24.5 -10.5t8.5 -26.5l-174 -1425q-4 -25 -29 -25h-209q-14 0 -24.5 10t-8.5 27l109 860l-580 -881q-10 -16 -35 -16h-217q-14 0 -24 10t-8 27l176 1425q1 25 26 25z" />
    <glyph glyph-name="uni0419" unicode="&#x419;" horiz-adv-x="1292" 
d="M270 1487h209q14 0 24.5 -10.5t8.5 -26.5l-106 -860l577 880q10 16 35 17h217q14 0 24.5 -10.5t8.5 -26.5l-174 -1425q-4 -25 -29 -25h-209q-14 0 -24.5 10t-8.5 27l109 860l-580 -881q-10 -16 -35 -16h-217q-14 0 -24 10t-8 27l176 1425q1 25 26 25zM1010 2163h159
q35 0 35 -45q-20 -145 -108 -236.5t-228 -91.5h-129q-141 0 -213.5 100.5t-54.5 255.5q2 16 27 17h159q37 0 33 -40t15.5 -76t68.5 -36h84q51 0 86 45t41 90q2 17 25 17z" />
    <glyph glyph-name="uni041A" unicode="&#x41a;" horiz-adv-x="1245" 
d="M1081 0h-250q-33 0 -51 33l-311 612l-74 -74l-67 -546q-4 -25 -29 -25h-209q-14 0 -24.5 10t-8.5 27l176 1425q2 25 27 25h209q14 0 24.5 -10.5t8.5 -26.5l-70 -559l440 571q20 25 39 25h265q16 0 22 -17.5t-6 -37.5l-498 -617l393 -770q29 -45 -6 -45z" />
    <glyph glyph-name="uni041B" unicode="&#x41b;" horiz-adv-x="1460" 
d="M385 1487h1018q14 0 24 -10t9 -27l-174 -1425q-4 -25 -29 -25h-209q-14 0 -25 10q-10 10 -8 27l148 1180h-539l-111 -900q-33 -250 -315 -308q-74 -15 -151 -13q-41 0 -37 39l30 219q2 20 21 20q178 6 201 211l120 977q2 25 27 25z" />
    <glyph glyph-name="uni041C" unicode="&#x41c;" horiz-adv-x="1515" 
d="M1178 1487h270q14 0 24 -10t9 -27l-174 -1425q-4 -25 -29 -25h-209q-14 0 -25 10q-10 10 -8 27l109 860l-354 -872q-12 -25 -39 -25h-113q-31 0 -39 37l-141 860l-109 -872q-4 -25 -28 -25h-209q-14 0 -25 10q-10 10 -8 27l176 1425q2 25 27 25h270q33 0 41 -37l154 -934
l391 946q10 25 39 25z" />
    <glyph glyph-name="uni041D" unicode="&#x41d;" horiz-adv-x="1206" 
d="M942 1487h209q15 0 25 -10t8 -27l-174 -1425q-4 -25 -29 -25h-209q-14 0 -24 10t-9 27l66 536h-402l-67 -548q-4 -25 -29 -25h-209q-14 0 -24 10t-8 27l176 1425q2 25 26 25h209q15 0 25 -10t8 -27l-74 -606h404l75 618q2 25 27 25z" />
    <glyph glyph-name="uni041E" unicode="&#x41e;" horiz-adv-x="1212" 
d="M504 250h108q78 0 129 60t64 147l76 590q12 84 -20 138t-109 54h-111q-76 0 -129 -62t-61 -145l-74 -590q-9 -84 21 -138t106 -54zM662 1509h108q176 0 289 -147t88 -350l-70 -549q-23 -203 -163 -343t-318 -140h-109q-177 0 -291 147t-87 350l71 549q27 203 166 343
q140 140 316 140z" />
    <glyph glyph-name="uni041F" unicode="&#x41f;" horiz-adv-x="1337" 
d="M270 1487h1010q14 0 24 -10t9 -27l-174 -1425q-4 -25 -29 -25h-209q-14 0 -24 10t-9 27l148 1180h-531l-147 -1192q-4 -25 -29 -25h-209q-14 0 -24 10t-8 27l176 1425q1 25 26 25z" />
    <glyph glyph-name="uni0420" unicode="&#x420;" horiz-adv-x="1163" 
d="M844 1120q0 64 -29 78q-12 6 -23 12t-79 7h-232l-39 -324h215q75 0 123 36t60 142q4 27 4 49zM268 1487h488q182 0 279 -121t73 -318q-24 -198 -142 -312t-300 -113h-256l-74 -598q-3 -20 -10 -22q-6 -3 -17 -3h-209q-16 0 -26 11t-8 26l176 1425q1 25 26 25z" />
    <glyph glyph-name="uni0421" unicode="&#x421;" horiz-adv-x="1159" 
d="M801 481h209q37 0 30 -45q-27 -205 -158.5 -334t-316.5 -129h-94q-193 0 -300.5 138.5t-80.5 359.5l70 557q27 219 161 350t326 131h94q186 0 290 -136t83 -351q-2 -16 -29 -16h-208q-39 0 -33 45q14 102 -12.5 145t-110.5 43h-94q-92 0 -138.5 -52t-60.5 -171l-68 -557
q-14 -121 12.5 -168t116.5 -47h95q84 0 129 53t59 168q2 16 29 16z" />
    <glyph glyph-name="uni0422" unicode="&#x422;" horiz-adv-x="1177" 
d="M246 1487h899q16 0 26.5 -11.5t8.5 -25.5l-27 -209q-4 -20 -9 -22t-16 -2h-321l-145 -1192q-4 -25 -29 -25h-209q-14 0 -24.5 10t-8.5 27l146 1180h-308q-16 0 -26 11t-8 25l26 209q2 10 3 18q2 8 22 7z" />
    <glyph glyph-name="uni0423" unicode="&#x423;" horiz-adv-x="1267" 
d="M1028 1487h221q19 0 25 -13t0 -30l-811 -1415q-16 -29 -45 -29h-221q-18 0 -26 14q-7 14 1 29l330 575l-285 838q-13 31 14 31h224q29 0 41 -41l182 -520l307 532q14 29 43 29z" />
    <glyph glyph-name="uni0424" unicode="&#x424;" horiz-adv-x="1765" 
d="M1290 1053h-205l-75 -619h190q92 0 145 46q52 46 68 171l25 197q16 125 -20 165t-128 40zM631 1053q-91 0 -145 -46t-70 -171l-25 -197q-14 -125 22 -165t128 -40h198l76 619h-184zM1333 1323q170 0 284 -146t89 -341l-25 -197q-23 -195 -165 -335t-312 -140h-227
l-16 -139q-4 -25 -29 -25h-209q-14 0 -25 10q-10 10 -8 27l17 127h-211q-170 0 -284 146t-89 341l24 197q25 195 167 335t311 140h225l16 139q2 25 27 25h209q14 0 24 -10t9 -27l-17 -127h215z" />
    <glyph glyph-name="uni0425" unicode="&#x425;" horiz-adv-x="1134" 
d="M221 1480q0 8 19 7h221q29 0 39 -37l129 -393l231 405q14 25 39 25h221q16 0 26 -11t1 -26l-412 -719l232 -706q6 -22 0 -24q-6 -1 -15 -1h-221q-31 0 -41 37l-127 391l-231 -403q-16 -25 -39 -25h-221q-16 0 -27 11q-10 11 -2 26l412 719l-230 706q-4 10 -4 18z" />
    <glyph glyph-name="uni0426" unicode="&#x426;" horiz-adv-x="1556" 
d="M1391 270q16 0 26 -11t8 -26l-57 -450q-4 -21 -9 -23t-16 -2h-208q-17 0 -27 12t-8 25l24 205h-1024q-14 0 -24 10t-8 27l176 1425q2 25 26 25h209q15 0 25 -10t8 -27l-145 -1180h530l147 1192q2 25 27 25h209q14 0 24 -10t9 -27l-144 -1180h222z" />
    <glyph glyph-name="uni0427" unicode="&#x427;" horiz-adv-x="1144" 
d="M858 1487h209q15 0 25 -10t8 -27l-174 -1425q-4 -25 -29 -25h-209q-14 0 -24 10t-9 27l62 493q-35 -6 -66 -6h-207q-141 0 -230 115t-71 258l70 565q2 25 27 25h209q14 0 24 -10t8 -27l-69 -571q-4 -47 6 -65t43 -19h213q68 0 86 94l71 573q2 25 27 25z" />
    <glyph glyph-name="uni0428" unicode="&#x428;" horiz-adv-x="2138" 
d="M1872 1487h209q14 0 24 -10t9 -27l-175 -1425q-4 -25 -28 -25h-1811q-14 0 -24 10t-8 27l176 1425q2 25 26 25h209q15 0 25 -10t8 -27l-145 -1180h530l147 1192q2 25 27 25h209q14 0 24 -10t9 -27l-146 -1180h531l147 1192q2 25 27 25z" />
    <glyph glyph-name="uni0429" unicode="&#x429;" horiz-adv-x="2357" 
d="M2191 270q17 0 27 -11t8 -26l-57 -450q-4 -21 -9 -23t-16 -2h-209q-16 0 -26 12t-8 25l24 205h-1825q-14 0 -24 10t-8 27l176 1425q2 25 26 25h209q15 0 25 -10t8 -27l-145 -1180h530l147 1192q2 25 27 25h209q14 0 24 -10t9 -27l-146 -1180h531l147 1192q2 25 27 25h209
q14 0 24 -10t9 -27l-144 -1180h221z" />
    <glyph glyph-name="uni042A" unicode="&#x42a;" horiz-adv-x="1370" 
d="M770 270q51 0 83 10q31 10 61 48q30 40 37 104q13 116 -23 139t-105 23h-229l-39 -324h215zM868 864q182 0 278 -124t74 -320q-24 -196 -144 -308t-302 -112h-487q-14 0 -25 10q-10 10 -8 27l145 1180h-188q-14 0 -25 10q-10 10 -8 26l25 209q2 25 26 25h437q14 0 24 -10
t8 -27l-71 -586h241z" />
    <glyph glyph-name="uni042B" unicode="&#x42b;" horiz-adv-x="1796" 
d="M637 594h-229l-39 -324h215q51 0 83 10q31 10 61 48q30 40 37 104t1 95q-10 52 -70 64q-20 3 -59 3zM1446 1487h213q14 0 24 -10t9 -27l-174 -1425q-3 -19 -10 -22t-17 -3h-215q-14 0 -25 10q-10 10 -8 27l176 1425q2 25 27 25zM682 864q182 0 278 -124t73 -320
t-143 -308t-302 -112h-488q-14 0 -24 10t-8 27l176 1425q2 25 26 25h209q15 0 25 -10t8 -27l-72 -586h242z" />
    <glyph glyph-name="uni042C" unicode="&#x42c;" horiz-adv-x="1183" 
d="M637 594h-229l-39 -324h215q51 0 83 10q31 10 61 48q30 40 37 104t1 95q-10 52 -70 64q-20 3 -59 3zM682 864q182 0 278 -124t73 -320t-143 -308t-302 -112h-488q-14 0 -24 10t-8 27l176 1425q2 25 26 25h209q15 0 25 -10t8 -27l-72 -586h242z" />
    <glyph glyph-name="uni042D" unicode="&#x42d;" horiz-adv-x="1167" 
d="M655 1509h95q195 0 296 -131t72 -350l-69 -557q-27 -219 -170.5 -358.5t-335.5 -139.5h-94q-184 0 -282.5 129t-76.5 334q4 45 43 45h209q14 0 19.5 -3t3.5 -13q-14 -115 18.5 -168t116.5 -53h94q90 0 127 46t53 169l19 149h-295q-16 0 -20.5 5t-2.5 20l25 209
q2 14 14 25.5t29 11.5h284l19 137q14 119 -18.5 171t-122.5 52h-95q-84 0 -120.5 -43t-51.5 -145q-4 -45 -43 -45h-209q-25 0 -24 16q33 215 170 351t323 136z" />
    <glyph glyph-name="uni042E" unicode="&#x42e;" horiz-adv-x="1769" 
d="M1309 1239h-111q-76 0 -129 -62t-61 -145l-74 -590q-10 -84 20 -138t107 -54h108q77 0 129 60t64 147l76 590q12 84 -20 138t-109 54zM1219 1509h108q176 0 289 -147t88 -350l-70 -549q-23 -203 -163 -343t-318 -140h-109q-178 0 -292 147t-86 350l6 45h-277l-61 -497
q-3 -20 -10 -22q-6 -3 -17 -3h-215q-14 0 -24 10t-9 27l177 1425q2 25 26 25h213q15 0 25 -10t8 -27l-80 -657h279l30 233q27 203 166 343q140 140 316 140z" />
    <glyph glyph-name="uni042F" unicode="&#x42f;" horiz-adv-x="1191" 
d="M653 1217q-51 1 -83 -9t-62 -50t-36 -104q-7 -64 -2 -95q5 -32 32 -49t96 -17h231l39 324h-215zM647 1487h488q14 0 24 -10t8 -27l-174 -1425q-4 -25 -28 -25h-209q-14 0 -25 10q-10 10 -8 27l72 586h-213q-182 0 -207 -308l-37 -290q-2 -25 -29 -25h-209q-14 0 -24 11
t-8 26l45 371q27 211 155 348q-90 124 -65 316t143 304t301 111z" />
    <glyph glyph-name="uni0430" unicode="&#x430;" horiz-adv-x="946" 
d="M336 268h98q80 0 111 31l8 76h-193q-14 -1 -33 -17t-23 -35t6 -37t26 -18zM780 0h-227q-31 0 -39 39q-76 -41 -137 -41h-76q-113 0 -193 96t-64 229t114 213t231 80h195l2 21q4 33 -14 47t-60 14h-94q-64 0 -133 -43q-25 -10 -41 15l-97 141q-20 31 0 45q141 111 332 111
h88q127 1 215 -105t70 -258l-66 -551q-2 -13 1 -33t-7 -20z" />
    <glyph glyph-name="uni0431" unicode="&#x431;" horiz-adv-x="1126" 
d="M610 700h-102q-80 0 -82 -38l-47 -379q18 -14 47 -15h119q41 0 73 30t39 77l27 231q8 47 -13 71q-22 23 -61 23zM838 1487h235q29 0 21 -53q-18 -76 -100 -164t-150 -86q-158 4 -209 12q-53 4 -88 -28t-47 -66t-23 -90l-8 -45q37 4 57 4h99q153 0 249 -114t80 -265
l-26 -232q-20 -152 -136 -257t-272 -105h-98q-35 0 -76 20q-6 -18 -27 -18h-208q-14 0 -25 10q-10 10 -8 27l98 790q18 143 51 338q19 121 111 203t211 76q33 -2 75 -6t61 -4t50 3t64 46q10 4 39 4z" />
    <glyph glyph-name="uni0432" unicode="&#x432;" horiz-adv-x="1038" 
d="M498 260q43 0 63 14t27 62q-2 10 1 18t-1 12t-5 8q-1 3 -49 3h-135l-14 -117h113zM545 612q66 0 76 60q3 20 -7 25t-39 5h-133l-12 -90h115zM535 0h-414q-14 0 -25 10q-10 10 -8 27l111 901q4 25 28 25h414q131 0 199 -70t51 -205q0 -97 -53 -161q-27 -29 -84 -42
q119 -23 90 -254t-309 -231z" />
    <glyph glyph-name="uni0433" unicode="&#x433;" horiz-adv-x="956" 
d="M227 963h588q15 -1 25 -11t8 -26l-25 -209q-4 -17 -9 -21t-19 -4h-355l-82 -667q-4 -25 -28 -25h-209q-14 0 -25 10q-10 10 -8 27l111 901q3 25 28 25z" />
    <glyph glyph-name="uni0434" unicode="&#x434;" horiz-adv-x="1460" 
d="M883 270l53 422h-279l-20 -153q-18 -152 -84 -269h330zM1264 270q14 0 24 -10t8 -27l-49 -407q-4 -25 -28 -25h-209q-14 1 -24 11t-9 26l20 162h-673l-21 -174q-4 -25 -29 -25h-208q-14 1 -24 11t-9 26l49 408q4 16 9 20t20 4h51q54 0 126 111t105 367l23 190q4 25 28 25
h758q14 -1 24 -11t9 -26l-82 -656h111z" />
    <glyph glyph-name="uni0435" unicode="&#x435;" horiz-adv-x="993" 
d="M571 698h-77q-31 0 -67 -25.5t-38 -54.5l-2 -10h250l4 27q4 27 -16.5 45t-53.5 18zM520 969h78q135 0 231.5 -110.5t77.5 -264.5l-16 -141q-6 -31 -19.5 -43.5t-44.5 -12.5h-467l-2 -43q-12 -86 74 -86h90q47 0 84 46q6 8 19.5 23t17.5 21q20 16 47 -14l133 -131
q25 -23 13 -51q-57 -53 -92 -82t-104 -55.5t-148 -26.5h-78q-154 0 -248 111.5t-78 261.5l29 233q18 150 133.5 257.5t269.5 107.5z" />
    <glyph glyph-name="uni0436" unicode="&#x436;" horiz-adv-x="1746" 
d="M1548 16q0 -16 -18 -16h-287q-20 0 -51 33l-213 233l-31 -241q-4 -17 -9 -21t-19 -4h-218q-14 0 -24 10t-8 27l30 229l-266 -241q-31 -25 -55 -25h-287q-18 0 -24 22t6 31l510 426l-365 436q-19 27 -12 37q6 10 16 11h283q25 0 41 -29l201 -240l32 244q3 19 10 22t17 3
h217q16 1 26 -11t9 -26l-33 -232l256 248q20 20 45 21h283q16 1 23 -17t-9 -39l-479 -428l391 -434q12 -13 12 -29z" />
    <glyph glyph-name="uni0437" unicode="&#x437;" horiz-adv-x="1056" 
d="M528 707q-88 0 -90 -27q0 -8 -18 -8h-225q-29 0 -23 37q12 109 114 189t214 79h127q119 0 208 -81t74 -200q-8 -59 -16 -89q-8 -29 -41 -65t-92 -59q125 -55 102 -254q-14 -113 -118 -179t-228 -66h-127q-115 0 -201 83t-71 199q2 8 18 8h225q29 0 25 -36q23 16 74 16h28
q45 0 67 11t26 41t3 35t-22 9h-127q-12 0 -20 8t-6 21l28 225q2 16 17 17h127q10 0 14 2t9 3t7 3t6 4t7 5q2 3 7 9t6 16q1 9 3 19q5 27 -28 27l-54 -2h-29z" />
    <glyph glyph-name="uni0438" unicode="&#x438;" horiz-adv-x="1226" 
d="M227 963h209q14 -1 24 -11t9 -26l-59 -459l352 477q14 18 37 19h286q15 -1 25 -11t8 -26l-110 -901q-4 -25 -29 -25h-209q-14 0 -25 10q-10 10 -8 27l60 459l-377 -478q-14 -18 -37 -18h-262q-14 0 -25 10q-10 10 -8 27l111 901q3 25 28 25z" />
    <glyph glyph-name="uni0439" unicode="&#x439;" horiz-adv-x="1226" 
d="M227 963h209q14 -1 24 -11t9 -26l-59 -459l352 477q14 18 37 19h286q15 -1 25 -11t8 -26l-110 -901q-4 -25 -29 -25h-209q-14 0 -25 10q-10 10 -8 27l60 459l-377 -478q-14 -18 -37 -18h-262q-14 0 -25 10q-10 10 -8 27l111 901q3 25 28 25zM913 1638h160q35 0 35 -45
q-20 -145 -108 -236t-228 -91h-129q-141 0 -214 100t-54 256q2 16 26 16h160q37 0 33 -40t15 -76t69 -35h84q51 0 86 45t41 90q1 16 24 16z" />
    <glyph glyph-name="uni043A" unicode="&#x43a;" horiz-adv-x="1142" 
d="M721 963h283q16 1 24 -17t-8 -39l-477 -428l387 -434q12 -13 12 -29t-18 -16h-285q-20 0 -51 33l-211 235l-31 -243q-4 -25 -29 -25h-217q-14 0 -24 10t-8 27l110 901q4 25 29 25h217q14 -1 24 -11t9 -26l-27 -221l246 237q20 21 45 21z" />
    <glyph glyph-name="uni043B" unicode="&#x43b;" horiz-adv-x="1193" 
d="M1053 963q14 -1 24 -11t8 -26l-110 -901q-4 -25 -29 -25h-209q-14 0 -24 10t-8 27l79 655h-301l-37 -284q-25 -203 -231 -435q-25 -12 -43 17l-119 131q-20 25 -4 53q111 96 133 270l33 273v12l25 209q2 18 10 20q4 6 20 7h209q9 0 13 -2h561z" />
    <glyph glyph-name="uni043C" unicode="&#x43c;" horiz-adv-x="1415" 
d="M1032 963h242q14 -1 24 -11t9 -26l-111 -901q-4 -25 -29 -25h-209q-14 0 -24 10t-8 27l59 459l-240 -412q-10 -16 -32 -16h-121q-27 0 -33 28l-141 400l-60 -471q-4 -25 -28 -25h-209q-14 0 -25 10q-10 10 -8 27l111 901q4 25 28 25h242q27 0 35 -29l182 -520l311 532
q10 17 35 17z" />
    <glyph glyph-name="uni043D" unicode="&#x43d;" horiz-adv-x="1153" 
d="M803 963h209q14 -1 24 -11t8 -26l-110 -901q-4 -25 -29 -25h-209q-14 0 -24 10t-8 27l38 309h-305l-39 -321q-4 -25 -28 -25h-209q-14 0 -25 10q-10 10 -8 27l111 901q4 25 28 25h209q14 -1 24 -11t9 -26l-39 -310h305l39 322q4 25 29 25z" />
    <glyph glyph-name="uni043E" unicode="&#x43e;" horiz-adv-x="1054" 
d="M584 698h-88q-49 0 -78 -32t-33 -70l-29 -242q-12 -86 74 -86h90q49 0 77 30t32 69l28 241q16 90 -73 90zM520 969h80q154 0 250 -110t78 -263l-29 -242q-20 -154 -135 -255t-268 -101h-80q-154 0 -251 108t-79 261l29 241q23 154 137 258t268 103z" />
    <glyph glyph-name="uni043F" unicode="&#x43f;" horiz-adv-x="1153" 
d="M227 963h785q14 -1 24 -11t8 -26l-110 -901q-4 -25 -29 -25h-209q-14 0 -24 10t-8 27l79 655h-303l-82 -667q-4 -25 -28 -25h-209q-14 0 -25 10q-10 10 -8 27l111 901q3 25 28 25z" />
    <glyph glyph-name="uni0440" unicode="&#x440;" horiz-adv-x="1030" 
d="M582 692h-70q-70 0 -94 -96l-29 -234l6 5q-12 -59 -2 -77t53 -20h70q86 0 94 80l31 256q12 86 -59 86zM532 963h74q142 0 232 -116t73 -257l-30 -250q-18 -136 -133 -238t-246 -102h-76q-41 0 -80 12l-49 -397q-2 -25 -27 -25h-209q-14 0 -24 10t-8 27l159 1311
q4 25 29 25h209q18 0 29 -17q42 17 77 17z" />
    <glyph glyph-name="uni0441" unicode="&#x441;" horiz-adv-x="985" 
d="M494 698q-37 0 -70 -30.5t-37 -75.5l-29 -234q-10 -90 72 -90h92q25 0 48.5 14.5t34.5 28t40 45.5q18 20 47 -12l133 -131q31 -31 11 -51q-57 -53 -92 -82t-105 -55.5t-152 -26.5h-73q-154 0 -248 111.5t-78 261.5l29 233q18 150 134 257.5t269 107.5h74q133 0 227 -95.5
t84 -211.5q-3 -23 -26 -23h-211q-23 0 -30.5 30.5t-23.5 30.5l-41 -2h-79z" />
    <glyph glyph-name="uni0442" unicode="&#x442;" horiz-adv-x="1079" 
d="M227 963h711q14 -1 24 -11t9 -26l-25 -209q-4 -17 -9 -21t-19 -4h-226l-82 -667q-4 -25 -28 -25h-209q-14 0 -25 10q-10 10 -8 27l80 655h-213q-14 0 -25 10q-10 10 -8 27l25 209q3 25 28 25z" />
    <glyph glyph-name="uni0443" unicode="&#x443;" horiz-adv-x="1134" 
d="M862 963h221q19 -1 25 -15t-2 -28l-707 -1301q-14 -29 -43 -29h-221q-18 0 -25 14t-1 29l258 476l-244 823q-13 29 14 31h223q31 0 39 -41l150 -482l268 494q16 29 45 29z" />
    <glyph glyph-name="uni0444" unicode="&#x444;" horiz-adv-x="1458" 
d="M1010 692h-72q-72 0 -96 -102l-27 -228l6 5q-12 -59 -2 -77t53 -20h72q86 0 94 80l31 256q12 86 -59 86zM500 692h-72q-68 0 -80 -86l-33 -256q-6 -80 76 -80h72q43 0 58 18t16 79l8 -7l24 203q12 129 -69 129zM958 963h76q142 0 232 -116t73 -257l-30 -250
q-18 -136 -133 -238t-246 -102h-76q-43 0 -82 12l-49 -397q-4 -20 -9 -23q-5 -2 -16 -2h-209q-16 0 -26 12t-8 25l47 385q-43 -12 -84 -12h-76q-131 0 -222 101t-77 239l31 250q16 141 136 257t263 116h76q37 0 67 -15l64 514q2 25 27 25h208q15 0 25 -10t8 -27l-61 -502
q34 15 71 15z" />
    <glyph glyph-name="uni0445" unicode="&#x445;" horiz-adv-x="976" 
d="M670 963h225q19 -1 27 -15t-2 -28l-304 -455l187 -434q12 -31 -19 -31h-223q-29 0 -43 41l-72 170l-122 -182q-20 -29 -48 -29h-225q-18 0 -26 14t2 29l301 446l-189 443q-16 31 13 31h225q31 0 43 -41l76 -179l129 191q20 29 45 29z" />
    <glyph glyph-name="uni0446" unicode="&#x446;" horiz-adv-x="1351" 
d="M1155 270q17 0 27 -11t8 -26l-57 -450q-4 -19 -10 -23q-5 -2 -15 -2h-209q-35 0 -35 37l25 205h-768q-14 0 -25 10q-10 10 -8 27l111 901q4 25 28 25h209q14 -1 24 -11t9 -26l-80 -656h303l82 668q4 25 29 25h209q14 -1 24 -11t8 -26l-79 -656h190z" />
    <glyph glyph-name="uni0447" unicode="&#x447;" horiz-adv-x="1042" 
d="M408 238q-139 0 -219 113q-79 114 -60 259l39 328q4 25 29 25h209q14 -1 24 -11t8 -26l-37 -297q-12 -76 -3 -99t55 -22h75q49 0 70 33q20 33 31 116l35 281q3 25 28 25h209q15 -1 25 -11t8 -26l-111 -901q-4 -25 -28 -25h-209q-14 0 -25 10q-10 10 -8 27l29 205
q-6 -6 -10 -6h-8l-17 2h-139z" />
    <glyph glyph-name="uni0448" unicode="&#x448;" horiz-adv-x="1728" 
d="M1378 963h209q15 -1 25 -11t8 -26l-111 -901q-4 -25 -28 -25h-1360q-14 0 -25 10q-10 10 -8 27l111 901q4 25 28 25h209q14 -1 24 -11t9 -26l-82 -656h305l82 668q4 25 29 25h209q14 -1 24 -11t8 -26l-81 -656h305l82 668q3 25 28 25z" />
    <glyph glyph-name="uni0449" unicode="&#x449;" horiz-adv-x="1947" 
d="M1731 270q16 0 26 -11t8 -26l-57 -450q-4 -21 -9 -23t-16 -2h-208q-35 0 -35 37l24 205h-1343q-14 0 -25 10q-10 10 -8 27l111 901q4 25 28 25h209q14 -1 24 -11t9 -26l-82 -656h305l82 668q4 25 29 25h209q14 -1 24 -11t8 -26l-81 -656h305l82 668q4 25 28 25h209
q15 -1 25 -11t8 -26l-80 -656h191z" />
    <glyph glyph-name="uni044A" unicode="&#x44a;" horiz-adv-x="1130" 
d="M625 365h-174l-13 -95h162q92 1 98 58q4 28 -15 33q-19 6 -37 5q-17 -1 -21 -1zM659 635q174 0 250 -91t57 -241q-20 -151 -108 -227t-264 -76h-424q-14 0 -25 10q-10 10 -8 27l39 328l29 215l12 112h-72q-14 0 -24 10t-8 27l24 209q4 25 29 25h317q17 1 27 -11t8 -26
l-35 -291h176z" />
    <glyph glyph-name="uni044B" unicode="&#x44b;" horiz-adv-x="1658" 
d="M555 365h-174l-12 -95h161q93 1 99 58q4 28 -11 32q-25 7 -42 6t-21 -1zM590 635q174 0 250 -91t56 -241q-20 -151 -106 -227q-87 -76 -264 -76h-426q-14 0 -24 10t-8 27l110 901q4 25 29 25h209q14 -1 24 -11t9 -26l-35 -291h176zM1298 965h209q15 -1 25 -11t8 -26
l-110 -903q-4 -25 -29 -25h-209q-14 0 -25 10q-10 10 -8 27l113 903q1 25 26 25z" />
    <glyph glyph-name="uni044C" unicode="&#x44c;" horiz-adv-x="1060" 
d="M555 365h-174l-12 -95h161q93 1 99 58q4 28 -11 32q-25 7 -42 6t-21 -1zM590 635q174 0 250 -91t56 -241q-20 -151 -106 -227q-87 -76 -264 -76h-426q-14 0 -24 10t-8 27l110 901q4 25 29 25h209q14 -1 24 -11t9 -26l-35 -291h176z" />
    <glyph glyph-name="uni044D" unicode="&#x44d;" horiz-adv-x="985" 
d="M385 639h-211q-25 0 -20 23q16 117 134 212t251 95h73q154 0 243 -107.5t71 -257.5l-29 -233q-18 -150 -140 -261.5t-276 -111.5h-73q-82 0 -144.5 26.5t-91.5 55.5t-72 82q-16 20 23 51l166 131q35 35 49 12q2 -4 10 -16t10 -17.5t9.5 -14.5t11.5 -13q27 -27 57 -27h94
q82 0 93 78h-172q-14 0 -18.5 4t-2.5 21l27 209q8 37 41 36h155q-2 37 -24.5 59.5t-55.5 22.5h-79l-41 2q-15 0 -30 -30.5t-38 -30.5z" />
    <glyph glyph-name="uni044E" unicode="&#x44e;" horiz-adv-x="1607" 
d="M1137 698h-88q-49 0 -78 -32t-33 -70l-29 -242q-12 -86 74 -86h90q49 0 77 30t32 69l28 241q16 90 -73 90zM1073 969h80q154 0 250 -110t78 -263l-29 -242q-20 -154 -135 -255t-268 -101h-80q-150 0 -246 101t-86 247h-275l-38 -321q-4 -25 -29 -25h-209q-14 0 -25 11
q-10 11 -8 28l113 903q2 14 6 18t21 5h208q15 -1 25 -11t8 -26l-39 -312h275q23 152 137 252t266 101z" />
    <glyph glyph-name="uni044F" unicode="&#x44f;" horiz-adv-x="1017" 
d="M518 692q-94 0 -100 -80q-4 -42 11 -53q15 -12 63 -12h100l18 145h-92zM307 0h-207q-14 0 -24 10t-8 27l22 168q16 188 125 239q-51 29 -61 102t6 146q14 127 95 199t208 72h414q14 -1 24 -11t8 -26l-110 -901q-4 -25 -29 -25h-209q-14 0 -24 10t-9 27l29 239h-84
q-47 0 -77 -30t-38 -62q-8 -33 -16 -90l-6 -69q-4 -25 -29 -25z" />
    <glyph glyph-name="uni0451" unicode="&#x451;" horiz-adv-x="993" 
d="M571 698h-77q-31 0 -67 -25.5t-38 -54.5l-2 -10h250l4 27q4 27 -16.5 45t-53.5 18zM520 969h78q135 0 231.5 -110.5t77.5 -264.5l-16 -141q-6 -31 -19.5 -43.5t-44.5 -12.5h-467l-2 -43q-12 -86 74 -86h90q47 0 84 46q6 8 19.5 23t17.5 21q20 16 47 -14l133 -131
q25 -23 13 -51q-57 -53 -92 -82t-104 -55.5t-148 -26.5h-78q-154 0 -248 111.5t-78 261.5l29 233q18 150 133.5 257.5t269.5 107.5zM686 1487h281q14 0 24 -10.5t8 -26.5l-32 -274q-2 -25 -27 -25h-281q-14 0 -24 11.5t-8 27.5l32 272q2 25 27 25zM236 1487h278
q16 0 26.5 -11.5t8.5 -25.5l-35 -274q-2 -10 -3 -18t-22 -7h-280q-14 0 -24.5 11.5t-10.5 27.5l35 272q2 25 27 25z" />
    <glyph glyph-name="uni0453" unicode="&#x453;" horiz-adv-x="956" 
d="M227 963h588q15 -1 25 -11t8 -26l-25 -209q-4 -17 -9 -21t-19 -4h-355l-82 -667q-4 -25 -28 -25h-209q-14 0 -25 10q-10 10 -8 27l111 901q3 25 28 25zM633 1638h237q18 0 26 -12t1 -31l-227 -378q-20 -31 -43 -31h-213q-16 0 -25 13q-8 13 0 30l203 379q12 30 41 30z
" />
    <glyph glyph-name="uni0454" unicode="&#x454;" horiz-adv-x="985" 
d="M494 698q-31 0 -61 -22.5t-42 -59.5h156q16 0 26.5 -11t8.5 -25l-27 -209l-3.5 -17.5t-21.5 -7.5h-174q-2 -78 74 -78h92q25 0 48.5 14.5t34.5 28t40 45.5q18 20 47 -12l133 -131q31 -31 11 -51q-57 -53 -92 -82t-105 -55.5t-152 -26.5h-73q-154 0 -248 111.5t-78 261.5
l29 233q18 150 133.5 257.5t269.5 107.5h74q133 0 227 -95.5t84 -211.5q-4 -23 -26 -23h-211q-23 0 -30.5 30.5t-23.5 30.5l-41 -2h-79z" />
    <glyph glyph-name="uni0456" unicode="&#x456;" horiz-adv-x="526" 
d="M193 965h208q15 -1 25 -11t8 -26l-110 -903q-4 -25 -29 -25h-209q-14 0 -25 10q-10 11 -8 27l113 903q2 25 27 25zM262 1487h213q15 0 25 -10t8 -27l-33 -264q0 -14 -5 -18t-21 -5h-213q-16 -1 -26 11t-5 26l31 262q2 25 26 25z" />
    <glyph glyph-name="uni0457" unicode="&#x457;" horiz-adv-x="598" 
d="M238 965h208q14 -1 24 -11t9 -26l-110 -903q-4 -25 -29 -25h-209q-14 0 -25 10q-10 11 -8 27l113 903q2 25 27 25zM489 1487h281q14 0 24 -10t9 -27l-33 -274q-2 -25 -27 -25h-280q-14 0 -25 11q-10 12 -8 28l33 272q2 25 26 25zM39 1487h278q17 0 27 -11t8 -26l-35 -274
q-2 -10 -3 -18t-21 -7h-281q-14 -1 -24 11t-11 28l35 272q2 25 27 25z" />
    <glyph glyph-name="uni0458" unicode="&#x458;" horiz-adv-x="591" 
d="M162 965h209q14 -1 24 -11t8 -26l-131 -1061q-16 -143 -109 -251t-229 -144q-35 -7 -43 32l-67 191q-8 27 10 39q61 16 113 62q51 46 59 104l129 1040q2 25 27 25zM240 1487h213q14 0 24 -10t8 -27l-32 -264q1 -14 -5 -18t-22 -5h-213q-15 -1 -25 11t-6 26l31 262
q2 25 27 25z" />
    <glyph glyph-name="uni045C" unicode="&#x45c;" horiz-adv-x="1142" 
d="M721 963h283q16 1 24 -17t-8 -39l-477 -428l387 -434q12 -13 12 -29t-18 -16h-285q-20 0 -51 33l-211 235l-31 -243q-4 -25 -29 -25h-217q-14 0 -24 10t-8 27l110 901q4 25 29 25h217q14 -1 24 -11t9 -26l-27 -221l246 237q20 21 45 21zM721 1186h-213q-16 0 -25 13
q-8 13 0 30l203 379q12 31 41 30h238q18 0 26 -12t0 -31l-227 -378q-20 -31 -43 -31z" />
    <glyph glyph-name="uni045D" unicode="&#x45d;" horiz-adv-x="1226" 
d="M227 963h209q14 -1 24 -11t9 -26l-59 -459l352 477q14 18 37 19h286q15 -1 25 -11t8 -26l-110 -901q-4 -25 -29 -25h-209q-14 0 -25 10q-10 10 -8 27l60 459l-377 -478q-14 -18 -37 -18h-262q-14 0 -25 10q-10 10 -8 27l111 901q3 25 28 25zM780 1186h-188q-29 0 -41 43
l-133 379q-8 18 -5 24t19 6h213q35 0 41 -43l109 -378q10 -31 -15 -31z" />
    <glyph glyph-name="uni045E" unicode="&#x45e;" horiz-adv-x="1134" 
d="M862 963h221q19 -1 25 -15t-2 -28l-707 -1301q-14 -29 -43 -29h-221q-18 0 -25 14t-1 29l258 476l-244 823q-13 29 14 31h223q31 0 39 -41l150 -482l268 494q16 29 45 29zM725 1266h-129q-141 0 -214 100t-54 256q2 16 26 16h160q37 0 33 -40t15 -76t69 -35h84
q51 0 86 45t41 90q2 16 24 16h160q35 0 35 -45q-21 -145 -109 -236t-227 -91z" />
    <glyph glyph-name="uni0490" unicode="&#x490;" horiz-adv-x="1148" 
d="M905 1671h209q14 0 24 -10t9 -27l-49 -393q0 -16 -4 -20t-21 -4h-590l-145 -1192q-4 -25 -29 -25h-209q-14 0 -24 10t-8 27l176 1425q2 25 26 25h590l19 160q1 24 26 24z" />
    <glyph glyph-name="uni0491" unicode="&#x491;" horiz-adv-x="956" 
d="M629 1147h209q14 0 24 -10t8 -27l-22 -176v-8l-25 -209q-4 -17 -9 -21t-19 -4h-355l-82 -667q-4 -25 -28 -25h-209q-14 0 -25 10q-10 10 -8 27l111 901q4 25 28 25h355l18 159q4 25 29 25z" />
    <glyph glyph-name="uni04C0" unicode="&#x4c0;" horiz-adv-x="612" 
d="M262 1487h213q15 0 25 -10t8 -27l-174 -1425q-3 -20 -10 -22q-6 -3 -17 -3h-215q-14 0 -24 10t-9 27l177 1425q2 25 26 25z" />
    <glyph glyph-name="uni04E2" unicode="&#x4e2;" horiz-adv-x="1292" 
d="M270 1487h209q14 0 24.5 -10.5t8.5 -26.5l-106 -860l577 880q10 16 35 17h217q14 0 24.5 -10.5t8.5 -26.5l-174 -1425q-4 -25 -29 -25h-209q-14 0 -24.5 10t-8.5 27l109 860l-580 -881q-10 -16 -35 -16h-217q-14 0 -24 10t-8 27l176 1425q1 25 26 25zM1130 1741h-663
q-14 0 -24.5 10t-8.5 27l25 209q2 25 26 24h664q14 0 24.5 -11t8.5 -26l-27 -209q0 -24 -25 -24z" />
    <glyph glyph-name="uni04E3" unicode="&#x4e3;" horiz-adv-x="1226" 
d="M227 963h209q14 -1 24 -11t9 -26l-59 -459l352 477q14 18 37 19h286q15 -1 25 -11t8 -26l-110 -901q-4 -25 -29 -25h-209q-14 0 -25 10q-10 10 -8 27l60 459l-377 -478q-14 -18 -37 -18h-262q-14 0 -25 10q-10 10 -8 27l111 901q3 25 28 25zM1034 1217h-663q-14 0 -25 10
q-10 10 -8 26l24 209q2 25 27 25h664q14 0 24 -11t8 -26l-26 -209q0 -24 -25 -24z" />
    <glyph glyph-name="uni04E8" unicode="&#x4e8;" horiz-adv-x="1212" 
d="M504 250h108q78 0 129 60t64 147l20 151h-428l-20 -166q-9 -84 21 -138t106 -54zM752 1239h-111q-76 0 -129 -62t-61 -145l-19 -153h428l21 168q13 84 -19 138t-110 54zM662 1509h108q176 0 289 -147t88 -350l-70 -549q-23 -203 -163 -343t-318 -140h-109
q-177 0 -291 147t-87 350l71 549q27 203 166 343q140 140 316 140z" />
    <glyph glyph-name="uni04E9" unicode="&#x4e9;" horiz-adv-x="1064" 
d="M430 268h90q84 0 105 78h-269q-8 -78 74 -78zM584 698h-88q-82 0 -107 -82h270q9 82 -75 82zM496 -2h-80q-154 0 -251 108t-79 261l29 241q23 154 137 257q115 103 268 104h80q148 -1 244 -103t86 -250h14l-33 -270h-14q-23 -152 -137 -250t-264 -98z" />
    <glyph glyph-name="uni04EC" unicode="&#x4ec;" horiz-adv-x="1167" 
d="M655 1509h95q195 0 296 -131t72 -350l-69 -557q-27 -219 -170.5 -358.5t-335.5 -139.5h-94q-184 0 -282.5 129t-76.5 334q4 45 43 45h209q14 0 19.5 -3t3.5 -13q-14 -115 18.5 -168t116.5 -53h94q90 0 127 46t53 169l19 149h-295q-16 0 -20.5 5t-2.5 20l25 209
q2 14 14 25.5t29 11.5h284l19 137q14 119 -18.5 171t-122.5 52h-95q-84 0 -120.5 -43t-51.5 -145q-4 -45 -43 -45h-209q-25 0 -24 16q33 215 170 351t323 136zM887 1675h-281q-14 0 -24.5 11.5t-8.5 27.5l33 273q2 25 27 24h280q14 0 24.5 -10t8.5 -27l-33 -274
q-1 -25 -26 -25zM436 1675h-280q-14 0 -24.5 11.5t-10.5 27.5l35 273q2 25 26 24h279q16 0 26.5 -11t8.5 -26l-35 -274q-2 -10 -3 -18q-2 -8 -22 -7z" />
    <glyph glyph-name="uni04ED" unicode="&#x4ed;" horiz-adv-x="985" 
d="M385 639h-211q-25 0 -20 23q16 117 134 212t251 95h73q154 0 243 -107.5t71 -257.5l-29 -233q-18 -150 -140 -261.5t-276 -111.5h-73q-82 0 -144.5 26.5t-91.5 55.5t-72 82q-16 20 23 51l166 131q35 35 49 12q2 -4 10 -16t10 -17.5t9.5 -14.5t11.5 -13q27 -27 57 -27h94
q82 0 93 78h-172q-14 0 -18.5 4t-2.5 21l27 209q8 37 41 36h155q-2 37 -24.5 59.5t-55.5 22.5h-79l-41 2q-15 0 -30 -30.5t-38 -30.5zM866 1151h-280q-14 0 -24.5 11.5t-8.5 27.5l33 272q2 25 26 25h281q14 0 24.5 -10.5t8.5 -26.5l-33 -274q-2 -25 -27 -25zM416 1151h-281
q-14 0 -24.5 11.5t-10.5 27.5l35 272q2 25 27 25h278q16 0 26.5 -11.5t8.5 -25.5l-35 -274l-3.5 -17.5t-20.5 -7.5z" />
    <glyph glyph-name="uni04EE" unicode="&#x4ee;" horiz-adv-x="1267" 
d="M1028 1487h221q19 0 25 -13t0 -30l-811 -1415q-16 -29 -45 -29h-221q-18 0 -26 14q-7 14 1 29l330 575l-285 838q-13 31 14 31h224q29 0 41 -41l182 -520l307 532q14 29 43 29zM1118 1741h-663q-14 0 -25 10q-10 10 -8 27l24 209q2 25 27 24h664q14 0 24 -11t8 -26
l-26 -209q0 -24 -25 -24z" />
    <glyph glyph-name="uni04EF" unicode="&#x4ef;" horiz-adv-x="1134" 
d="M793 963h221q18 -1 24 -15t-2 -28l-706 -1301q-14 -29 -43 -29h-221q-18 0 -26 14t-1 29l258 476l-244 823q-10 31 15 31h223q31 0 39 -41l149 -482l269 494q16 29 45 29zM918 1217h-664q-16 0 -27 11q-10 11 -8 25l27 209q2 10 3 18t21 7h664q14 0 25 -11t10 -26
l-27 -209q-2 -16 -6 -20t-18 -4z" />
    <glyph glyph-name="Macute" unicode="&#x1e3e;" horiz-adv-x="1515" 
d="M1178 1487h270q14 0 24 -10t9 -27l-174 -1425q-4 -25 -29 -25h-209q-14 0 -25 10q-10 10 -8 27l109 860l-354 -872q-12 -25 -39 -25h-113q-31 0 -39 37l-141 860l-109 -872q-4 -25 -28 -25h-209q-14 0 -25 10q-10 10 -8 27l176 1425q2 25 27 25h270q33 0 41 -37l154 -934
l391 946q10 25 39 25zM1022 2163h238q18 -1 26 -13t0 -30l-227 -379q-20 -31 -43 -31h-213q-16 0 -25 13q-8 14 0 30l203 379q12 31 41 31z" />
    <glyph glyph-name="macute" unicode="&#x1e3f;" horiz-adv-x="1701" 
d="M1157 963h76q158 0 251 -114t75 -259l-70 -565q-4 -25 -29 -25h-209q-14 0 -24 10t-8 27l69 565q6 49 -17 70q-24 20 -57 20h-108q-39 0 -72 -30t-43 -87l-67 -550q-4 -25 -29 -25h-209q-14 0 -24 10t-9 27l70 565q12 90 -76 90h-108q-39 0 -72 -28t-41 -86l-68 -553
q-4 -25 -28 -25h-209q-14 0 -25 10q-10 10 -8 27l68 551v2l43 348q4 25 28 25h209q29 0 33 -29q63 29 123 29h76q133 0 225 -89q123 89 264 89zM1079 1186h-213q-16 0 -24 13t0 30l202 379q12 31 41 30h238q19 0 27 -12t0 -31l-228 -378q-20 -31 -43 -31z" />
    <glyph glyph-name="Wgrave" unicode="&#x1e80;" horiz-adv-x="1878" 
d="M1665 1487h211q16 0 24 -10t5 -25l-471 -1427q-8 -25 -39 -25h-160q-31 0 -37 37l-203 967l-438 -979q-10 -25 -39 -25h-160q-35 0 -39 37l-122 1419q-4 31 22 31h211q33 0 37 -37l55 -926l400 934q12 29 41 29h163q37 0 43 -33l168 -930l291 934q6 29 37 29zM1169 1710
h-188q-29 0 -41 43l-133 379q-8 18 -5 24t19 7h213q35 0 41 -43l109 -379q10 -31 -15 -31z" />
    <glyph glyph-name="wgrave" unicode="&#x1e81;" horiz-adv-x="1396" 
d="M1128 963h213q15 -1 25 -13t2 -28l-348 -895q-10 -27 -39 -27h-168q-31 0 -39 39l-78 487l-202 -499q-10 -27 -37 -27h-168q-31 0 -39 39l-131 895q-7 27 18 29h213q33 0 37 -41l53 -523l178 535q10 29 37 29h168q33 0 37 -41l49 -523l183 535q9 29 36 29zM864 1186h-188
q-29 0 -41 43l-133 379q-8 18 -5 24t19 6h213q33 0 41 -43l109 -378q10 -31 -15 -31z" />
    <glyph glyph-name="Wacute" unicode="&#x1e82;" horiz-adv-x="1878" 
d="M1665 1487h211q16 0 24 -10t5 -25l-471 -1427q-8 -25 -39 -25h-160q-31 0 -37 37l-203 967l-438 -979q-10 -25 -39 -25h-160q-35 0 -39 37l-122 1419q-4 31 22 31h211q33 0 37 -37l55 -926l400 934q12 29 41 29h163q37 0 43 -33l168 -930l291 934q6 29 37 29zM1206 2163
h238q18 -1 26 -13t0 -30l-227 -379q-20 -31 -43 -31h-213q-16 0 -24 14t0 29l202 379q12 31 41 31z" />
    <glyph glyph-name="wacute" unicode="&#x1e83;" horiz-adv-x="1396" 
d="M1128 963h213q15 -1 25 -13t2 -28l-348 -895q-10 -27 -39 -27h-168q-31 0 -39 39l-78 487l-202 -499q-10 -27 -37 -27h-168q-31 0 -39 39l-131 895q-7 27 18 29h213q33 0 37 -41l53 -523l178 535q10 29 37 29h168q33 0 37 -41l49 -523l183 535q9 29 36 29zM1139 1638
q18 0 26 -12t0 -31l-227 -378q-20 -31 -43 -31h-213q-16 0 -25 13q-8 14 0 30l203 379q12 31 41 30h238z" />
    <glyph glyph-name="Wdieresis" unicode="&#x1e84;" horiz-adv-x="1878" 
d="M1665 1487h211q16 0 24 -10t5 -25l-471 -1427q-8 -25 -39 -25h-160q-31 0 -37 37l-203 967l-438 -979q-10 -25 -39 -25h-160q-35 0 -39 37l-122 1419q-4 31 22 31h211q33 0 37 -37l55 -926l400 934q12 29 41 29h163q37 0 43 -33l168 -930l291 934q6 29 37 29zM1475 2011
q14 0 24 -10t8 -27l-32 -274q-2 -25 -27 -25h-281q-14 -1 -24 11t-8 28l32 273q2 25 27 24h281zM1022 2011q16 0 26 -11t9 -26l-35 -274q-2 -10 -3 -18t-22 -7h-280q-15 -1 -25 11t-10 28l35 273q2 25 26 24h279z" />
    <glyph glyph-name="wdieresis" unicode="&#x1e85;" horiz-adv-x="1396" 
d="M1128 963h213q15 -1 25 -13t2 -28l-348 -895q-10 -27 -39 -27h-168q-31 0 -39 39l-78 487l-202 -499q-10 -27 -37 -27h-168q-31 0 -39 39l-131 895q-7 27 18 29h213q33 0 37 -41l53 -523l178 535q10 29 37 29h168q33 0 37 -41l49 -523l183 535q9 29 36 29zM887 1487h280
q15 0 25 -10t8 -27l-33 -274q-2 -25 -26 -25h-281q-14 -1 -24 11t-9 28l33 272q2 25 27 25zM436 1487h279q16 0 26 -11t9 -26l-35 -274q-2 -10 -3 -18t-22 -7h-280q-14 0 -25 11q-10 12 -10 28l35 272q2 25 26 25z" />
    <glyph glyph-name="Ygrave" unicode="&#x1ef2;" horiz-adv-x="1097" 
d="M891 1487h227q16 0 26 -11t3 -26l-475 -797l-78 -628q-4 -25 -29 -25h-209q-14 0 -24 10t-8 27l77 616l-270 809q-8 20 -3 22t15 3h228q33 0 41 -37l153 -512l289 524q10 25 37 25zM743 1710h-188q-29 0 -41 43l-133 379q-8 18 -5 24t19 7h213q35 0 41 -43l109 -379
q10 -31 -15 -31z" />
    <glyph glyph-name="ygrave" unicode="&#x1ef3;" horiz-adv-x="1134" 
d="M862 963h221q19 -1 25 -15t-2 -28l-707 -1301q-14 -29 -43 -29h-221q-18 0 -25 14t-1 29l258 476l-244 823q-13 29 14 31h223q31 0 39 -41l150 -482l268 494q16 29 45 29zM385 1638h213q33 0 41 -43l109 -378q10 -31 -15 -31h-188q-29 0 -41 43l-133 379q-8 18 -5 24
t19 6z" />
    <glyph glyph-name="endash" unicode="&#x2013;" horiz-adv-x="1271" 
d="M1100 346h-965q-16 0 -26 11t-9 26l27 209q4 20 9 22t16 2h964q14 0 26 -11t9 -25l-27 -209q-2 -17 -6 -21t-18 -4z" />
    <glyph glyph-name="emdash" unicode="&#x2014;" horiz-adv-x="1423" 
d="M1251 346h-1116q-16 0 -26 11t-9 26l27 209q4 20 9 22t16 2h1116q14 0 25 -11t10 -25l-27 -209q-2 -16 -6 -21q-5 -4 -19 -4z" />
    <glyph glyph-name="quoteleft" unicode="&#x2018;" horiz-adv-x="536" 
d="M459 932h-275q-14 0 -24 10t-8 27l36 303q31 229 172 377q18 12 41 -15l84 -84q27 -27 15 -51q-80 -57 -101 -227l-16 -15h104q17 0 25 -11t6 -25l-33 -265q-1 -24 -26 -24z" />
    <glyph glyph-name="quoteright" unicode="&#x2019;" horiz-adv-x="557" 
d="M176 1487h275q16 0 25 -11t7 -26l-37 -303q-27 -219 -172 -377q-18 -6 -22 -4t-19 18l-81 84q-29 29 -15 52q82 61 99 227l18 14h-104q-14 0 -25 10q-10 10 -8 27l33 264q1 25 26 25z" />
    <glyph glyph-name="quotesinglbase" unicode="&#x201a;" horiz-adv-x="536" 
d="M25 326h274q17 0 25 -12t6 -25l-37 -303q-27 -219 -170 -377q-20 -6 -24 -4q-3 2 -17 18l-84 84q-29 29 -14 51q82 59 98 228l18 14h-104q-14 0 -25 10q-10 10 -8 27l33 264q2 25 29 25z" />
    <glyph glyph-name="quotedblleft" unicode="&#x201c;" horiz-adv-x="1024" 
d="M877 932h-275q-14 0 -24 10t-9 27l37 303q31 229 172 377q18 12 41 -15l82 -84q27 -27 17 -51q-80 -57 -101 -227l-16 -15h102q15 0 25 -11t6 -25l-33 -265q-4 -20 -9 -22t-15 -2zM389 932h-274q-14 0 -25 10q-10 10 -8 27l37 303q31 229 172 377q18 12 41 -15l84 -84
q27 -27 14 -51q-80 -57 -100 -227l-17 -15h105q16 0 24 -11t7 -25l-33 -265q-2 -24 -27 -24z" />
    <glyph glyph-name="quotedblright" unicode="&#x201d;" horiz-adv-x="1044" 
d="M594 1487h274q16 0 26 -11t5 -26l-37 -303q-8 -91 -51 -193t-119 -184q-18 -6 -22 -4t-19 18l-82 84q-29 29 -16 52q82 59 98 227l19 14h-103q-14 0 -24 10t-8 27l32 264q2 25 27 25zM109 1487h274q17 0 25 -11t6 -26l-37 -303q-27 -219 -170 -377q-20 -6 -24 -4
q-3 2 -17 18l-84 84q-29 29 -14 52q82 59 98 227l18 14h-104q-14 0 -25 10q-10 10 -8 27l33 264q2 25 29 25z" />
    <glyph glyph-name="quotedblbase" unicode="&#x201e;" horiz-adv-x="1024" 
d="M510 326h274q16 0 26 -12t5 -25l-37 -303q-8 -90 -51 -192t-119 -185q-18 -6 -22 -4t-19 18l-82 84q-29 29 -16 51q82 59 98 228l19 14h-103q-14 0 -24 10t-8 27l32 264q2 25 27 25zM25 326h274q17 0 25 -12t6 -25l-37 -303q-27 -219 -170 -377q-20 -6 -24 -4
q-3 2 -17 18l-84 84q-29 29 -14 51q82 59 98 228l18 14h-104q-14 0 -25 10q-10 10 -8 27l33 264q2 25 29 25z" />
    <glyph glyph-name="dagger" unicode="&#x2020;" horiz-adv-x="886" 
d="M817 963q15 -1 25 -11t8 -26l-25 -209q-4 -17 -9 -21t-19 -4h-201l-115 -934q-4 -25 -28 -24h-209q-14 0 -25 10q-10 10 -8 27l113 921h-189q-14 0 -24 10t-9 27l25 209q4 25 29 25h202l62 507q4 25 29 25h208q15 0 25 -10t8 -27l-61 -495h188z" />
    <glyph glyph-name="daggerdbl" unicode="&#x2021;" horiz-adv-x="886" 
d="M817 963q15 -1 25 -11t8 -26l-25 -209q-4 -17 -9 -21t-19 -4h-201l-18 -155h186q35 0 35 -37l-27 -209q-4 -25 -29 -25h-200l-62 -508q-4 -25 -28 -24h-209q-14 0 -25 10q-10 10 -8 27l61 495h-190q-14 0 -25 10q-10 10 -8 27l25 209q4 16 9 20t19 5h203l19 155h-189
q-14 0 -24 10t-9 27l25 209q4 25 29 25h202l62 507q4 25 29 25h208q15 0 25 -10t8 -27l-61 -495h188z" />
    <glyph glyph-name="bullet" unicode="&#x2022;" horiz-adv-x="745" 
d="M264 915h283q35 0 54 -20t15 -53l-34 -273q-8 -61 -70 -61h-283q-33 0 -50 20t-13 54l35 272q4 35 17 48t46 13z" />
    <glyph glyph-name="ellipsis" unicode="&#x2026;" horiz-adv-x="1906" 
d="M1456 344h285q14 0 24 -11t7 -28l-33 -280q-3 -20 -10 -23q-7 -2 -17 -2h-285q-16 0 -26 12t-8 25l34 282q2 25 29 25zM778 344h285q14 0 24 -11t7 -28l-33 -280q-4 -25 -29 -25h-282q-16 0 -27 11q-10 12 -8 26l35 282q2 25 28 25zM100 344h285q15 0 25 -11t6 -28
l-33 -280q-4 -25 -29 -25h-284q-14 0 -25 10q-10 11 -8 27l35 282q2 25 28 25z" />
    <glyph glyph-name="perthousand" unicode="&#x2030;" horiz-adv-x="1832" 
d="M1604 229h-7q-12 0 -24 -10t-12 -24v-5q-4 -18 14 -18h8q14 0 20 6t19 31q0 14 -2 17t-16 3zM973 229h-6q-13 0 -25 -10t-12 -24v-5q-4 -18 14 -18h8q14 0 20 6t19 31q0 14 -2 17t-16 3zM1597 401h27q82 0 131 -57t39 -139l-2 -23q-10 -84 -66 -133t-139 -49h-26
q-84 0 -133 56q-48 56 -37 139l2 22q10 82 66 133t138 51zM967 401h26q82 0 131 -57t39 -139l-2 -23q-10 -84 -66 -133t-139 -49h-26q-84 0 -132 56t-38 139l2 22q10 82 66 133q57 51 139 51zM383 1315h-6q-13 0 -25 -10t-12 -25v-4q-4 -18 14 -19h8q14 1 20 7t19 30
q0 14 -2 18t-16 3zM377 1487h26q81 0 131 -57t39 -140l-2 -22q-8 -82 -64 -132t-140 -51h-27q-84 1 -132 57t-38 138l2 23q10 82 66 133t139 51zM1063 1487h233q16 0 26 -11t1 -26l-1001 -1425q-20 -25 -43 -25h-234q-16 0 -26 11q-9 12 -1 26l1004 1425q16 25 41 25z" />
    <glyph glyph-name="guilsinglleft" unicode="&#x2039;" horiz-adv-x="677" 
d="M147 653l418 240q15 8 27 -1t10 -26l-29 -237q-2 -23 -36 -43l-144 -60l117 -65q39 -25 37 -49l-29 -238q-6 -29 -33 -6l-356 242q-33 20 -29 57l17 133q3 35 30 53z" />
    <glyph glyph-name="guilsinglright" unicode="&#x203a;" horiz-adv-x="677" 
d="M182 885l357 -242q33 -18 28 -57l-14 -133q-6 -35 -31 -54l-418 -239q-14 -8 -27 1t-11 25l28 238q4 25 37 43l145 59l-116 66q-39 25 -37 49l29 238q1 31 30 6z" />
    <glyph glyph-name="fraction" unicode="&#x2044;" horiz-adv-x="204" 
d="M569 1487h86q15 0 25 -11t2 -26l-1001 -1425q-20 -25 -43 -25h-87q-16 0 -25 12t-1 25l1003 1425q16 25 41 25z" />
    <glyph glyph-name="Euro" unicode="&#x20ac;" horiz-adv-x="1343" 
d="M831 1509h95q186 0 290 -136t82 -351q-2 -16 -26 -16h-209q-16 0 -27 12q-10 12 -8 33q14 102 -12 145q-27 43 -111 43h-94q-90 0 -137 -51t-62 -168h336q14 0 24 -10t9 -27l-23 -184q-2 -25 -26 -25h-348l-9 -65h334q15 -1 25 -11t8 -26l-22 -185q-2 -25 -27 -24h-348
v-4q-13 -121 13 -168t116 -47h94q84 0 130 53t58 168q2 16 29 16h209q37 0 31 -45q-27 -205 -158 -334t-315 -129h-95q-193 1 -301 137t-82 353h-155q-14 0 -25 10q-10 10 -8 27l23 184q2 25 26 25h170l8 65h-155q-14 0 -25 10q-10 10 -8 27l22 184q2 25 27 25h170v8
q26 219 160 350t327 131z" />
    <glyph glyph-name="hryvnia" unicode="&#x20b4;" horiz-adv-x="1185" 
d="M653 1511h107q172 1 276 -117t82 -302q-12 -94 -51 -170q15 0 25 -10t8 -27l-10 -86q-2 -25 -27 -25h-105q-47 -43 -84 -65h166q14 -1 24 -11t9 -26l-10 -86q-2 -10 -3 -18t-22 -7h-608q-59 -53 -76 -180q-8 -63 29 -101t106 -38h95q63 0 117 44t65 105l8 60q2 25 29 24
h211q16 0 24 -11t6 -26l-6 -59q-23 -176 -164 -292t-311 -116h-94q-176 0 -291 124t-92 311q12 90 43 159q-18 12 -16 33l12 86q0 16 5 20t20 5h71q37 39 74 65h-123q-14 0 -25 10q-10 10 -8 27l11 86q2 25 26 25h561q94 43 113 186q6 53 -22 93t-89 40h-106q-61 0 -115 -50
t-61 -118l-4 -39q-2 -25 -27 -24h-211q-14 0 -25 10q-10 10 -8 27l4 38q20 184 160 305t307 121z" />
    <glyph glyph-name="uni2116" unicode="&#x2116;" horiz-adv-x="2398" 
d="M2154 432q14 0 24 -10t9 -27l-24 -209q-2 -25 -29 -24h-692q-16 0 -25 11q-8 12 -6 26l25 209q2 25 26 24h692zM1935 1233h-37q-113 0 -129 -125l-16 -119q-6 -59 12 -86t76 -26h37q57 -1 90 33t41 91l12 121q8 57 -10 84t-76 27zM1026 1487h209q15 0 25 -10t8 -27
l-174 -1425q-4 -25 -29 -25h-217q-29 0 -35 29l-367 868l-108 -872q-4 -25 -29 -25h-209q-14 0 -24 10t-8 27l176 1425q2 25 26 25h217q29 0 37 -29l367 -868l108 872q2 25 27 25zM1909 1491h59q148 0 236 -115t69 -258l-16 -141q-18 -143 -128 -252t-257 -109h-60
q-150 0 -238 115t-69 258l19 141q18 145 126 253t259 108z" />
    <glyph glyph-name="uni2120" unicode="&#x2120;" horiz-adv-x="1607" 
d="M1479 1487h123q14 0 24 -10t8 -27l-57 -463q-2 -25 -27 -24h-61q-14 0 -25 10q-10 10 -8 26l43 334l-242 -344q-20 -27 -38 -26h-43q-23 0 -37 36l-162 334l-45 -346q-2 -25 -27 -24h-61q-14 0 -25 10q-10 10 -8 26l57 463q2 25 27 25h123q27 0 39 -37l147 -332l236 344
q19 25 39 25zM422 952q-120 0 -181 47q-62 47 -57 123q2 2 15 2h82q8 0 15 -9t6 -23t21 -18q22 -5 103 -5q80 0 112 11t34 42t-13 36t-131 10q-116 4 -170 52t-45 133t69 115t187 31q127 0 187 -48t51 -130q-6 -4 -9 -4h-82q-8 0 -15 8t-5 27q2 18 -20 24t-105 6
q-84 0 -112 -12q-29 -12 -31 -36t0 -29q6 -17 133 -23t181 -51t44 -123t-77 -117t-187 -39z" />
    <glyph glyph-name="trademark" unicode="&#x2122;" horiz-adv-x="1595" 
d="M1466 1487h123q15 0 25 -10t8 -27l-57 -463q-2 -25 -27 -24h-61q-14 0 -25 10q-10 10 -8 26l43 334l-242 -344q-20 -27 -39 -26h-43q-23 0 -37 36l-161 334l-45 -346q-2 -25 -27 -24h-62q-14 0 -24 10t-8 26l57 463q2 25 27 25h123q27 0 38 -37l148 -332l235 344
q19 25 39 25zM219 1487h490q14 0 24 -10t8 -27l-8 -61q-2 -25 -26 -25h-189l-47 -377q-2 -25 -27 -24h-61q-14 0 -25 10q-10 10 -8 26l45 365h-178q-14 0 -24 10t-9 27l9 61q1 25 26 25z" />
    <glyph glyph-name="oneeighth" unicode="&#x215b;" horiz-adv-x="1480" 
d="M1087 117q35 -1 66 23t35 57q8 67 -64 67h-6q-34 0 -62 -26t-32 -58q-4 -33 12 -48t51 -15zM1124 371q35 1 64 27t32 58q6 62 -63 62q-39 0 -69 -24t-33 -56q-8 -67 63 -67h6zM1114 0h-51q-80 0 -126 60t-38 131t88 135q-61 61 -53 134t61 124t133 51h52q80 -1 126 -61
t38 -131t-87 -134q61 -61 53 -134t-64 -124q-54 -51 -132 -51zM383 1487h66q14 0 24 -10t8 -27l-69 -571q-2 -25 -29 -25h-66q-16 0 -24 12t-6 25l69 571q2 25 27 25zM1188 1487h86q16 0 25 -11t1 -26l-1001 -1425q-20 -25 -43 -25h-86q-16 0 -26 11q-9 12 -1 26l1004 1425
q16 25 41 25z" />
    <glyph glyph-name="threeeighths" unicode="&#x215c;" horiz-adv-x="1515" 
d="M1122 117q35 -1 66 23t35 57q5 33 -13 50t-51 17h-6q-35 0 -63 -26t-31 -58q-4 -33 12 -48t51 -15zM1159 371q35 1 64 27t31 58q5 62 -62 62q-39 0 -69 -24q-29 -24 -33 -56q-7 -67 63 -67h6zM1149 0h-51q-80 0 -126 60t-38 131t88 135q-61 61 -53 134t61 124t133 51h51
q80 -1 126 -61t38 -131t-86 -134q60 -61 52 -134t-62 -124t-133 -51zM1223 1487h86q16 0 25 -11t1 -26l-1001 -1425q-20 -25 -43 -25h-86q-16 0 -26 11q-9 12 -1 26l1004 1425q16 25 41 25zM391 854h-51q-72 0 -120 53t-40 123l4 27q2 25 27 24h61q38 0 32 -49
q-7 -61 60 -61q35 -1 66 23t35 57q8 67 -64 67h-47q-14 0 -24 10t-8 27l6 45q2 25 28 25h47q35 -1 63 25t31 59q6 63 -63 63q-38 0 -66 -22q-29 -23 -32 -56q-4 -33 -29 -32h-61q-14 0 -25 10q-10 10 -8 26l4 27q7 68 61 116t128 48h51q80 -1 126 -61t38 -131t-86 -134
q61 -61 53 -133t-62 -124t-135 -52z" />
    <glyph glyph-name="fiveeighths" unicode="&#x215d;" horiz-adv-x="1515" 
d="M1122 117q35 -1 66 23t35 57q5 33 -13 50t-51 17h-6q-35 0 -63 -26t-31 -58q-4 -33 12 -48t51 -15zM1159 371q35 1 64 27t31 58q5 62 -62 62q-39 0 -69 -24q-29 -24 -33 -56q-7 -67 63 -67h6zM1149 0h-51q-80 0 -126 60t-38 131t88 135q-61 61 -53 134t61 124t133 51h51
q80 -1 126 -61t38 -131t-86 -134q60 -61 52 -134t-62 -124t-133 -51zM391 852h-51q-74 0 -122 54t-38 122l2 27q4 25 29 24h61q38 0 32 -49q-7 -61 60 -61q35 1 65 25t38 67q12 86 -25 102q-70 18 -129 -28l-84 4q-16 0 -24 11t-6 26l34 286q2 25 27 25h326q14 0 24 -10
t8 -27l-6 -57q-4 -25 -28 -25h-244l-21 -115q49 23 117 13t103 -52q66 -57 49 -184q-8 -72 -62 -125t-135 -53zM1223 1487h86q16 0 25 -11t1 -26l-1001 -1425q-20 -25 -43 -25h-86q-16 0 -26 11q-9 12 -1 26l1004 1425q16 25 41 25z" />
    <glyph glyph-name="seveneighths" unicode="&#x215e;" horiz-adv-x="1495" 
d="M1133 264q-35 0 -63 -26t-32 -58q-4 -33 12 -48t52 -15q36 -1 66 23t34 57q8 67 -63 67h-6zM1133 371h6q35 1 63 27t32 58q6 62 -63 62q-39 0 -69 -24t-33 -56q-5 -33 13 -50t51 -17zM1128 0h-51q-80 0 -126 60t-38 131t88 135q-61 61 -53 134t62 124t133 51h51
q80 -1 126 -61t38 -131t-86 -134q61 -61 52 -134t-62 -124t-134 -51zM203 852q-14 0 -22 12q-7 12 -3 23l281 477h-201q-14 0 -25 10q-10 10 -8 27l8 61q2 25 27 25h326q14 -1 24 -11t8 -26l-6 -59q-6 -29 -10 -35l-280 -482q-16 -23 -33 -22h-86zM1202 1487h86q16 0 26 -11
t1 -26l-1002 -1425q-20 -25 -43 -25h-86q-16 0 -25 12t-1 25l1003 1425q16 25 41 25z" />
    <glyph glyph-name="partialdiff" unicode="&#x2202;" horiz-adv-x="1165" 
d="M588 252q62 0 112 55t62 121q35 146 5 202t-165 58q-74 0 -120 -14t-72 -53t-35 -86q-10 -47 -17 -132q-10 -152 146 -151h84zM641 1509h90q180 0 279 -120q98 -121 94 -308q0 -334 -72 -682q-45 -199 -166 -309t-297 -108h-84q-184 0 -300 118t-97 336q43 506 518 506
q182 0 211 -8q16 88 21 178q-6 129 -131 129h-86q-63 0 -117 -42t-62 -124l-4 -35q-3 -19 -10 -21q-6 -3 -16 -3h-211q-16 0 -27 11q-10 11 -8 26l4 34q23 186 157 304t314 118z" />
    <glyph glyph-name="emptyset" unicode="&#x2205;" horiz-adv-x="1212" 
d="M612 250q78 0 130 60t63 147l76 590q4 29 4 43l-459 -818q33 -23 78 -22h108zM641 1239q-76 0 -129 -62t-61 -145l-31 -244l254 451h-33zM246 0h-221q-16 0 -26 11q-9 11 -1 26l127 227q-31 109 -16 213l71 549q27 203 166 343t316 140h108q63 0 125 -22h164q16 1 24 -11
t2 -26l-38 -72q127 -156 100 -366l-70 -549q-23 -203 -163 -343t-318 -140h-109q-104 0 -194 57q-19 -37 -47 -37z" />
    <glyph glyph-name="product" unicode="&#x220f;" horiz-adv-x="1052" 
d="M197 963h747q35 0 31 -37l-111 -901q-4 -25 -28 -25h-209q-14 0 -25 10q-10 10 -8 27l82 655h-266l-82 -667q-4 -25 -29 -25h-209q-14 0 -24 10t-9 27l111 901q4 25 29 25z" />
    <glyph glyph-name="summation" unicode="&#x2211;" horiz-adv-x="1120" 
d="M260 1487h813q15 0 25 -11t8 -28l-27 -207q0 -16 -4 -20t-20 -4h-398l258 -408q29 -41 27 -51l-6 -43q-2 -16 -29 -47l-364 -396l381 -2q14 0 24 -11t8 -26l-26 -208q-4 -25 -27 -25h-813q-14 0 -24 11t-9 26l15 106q2 18 30 56l504 542l-358 555q-31 44 -29 60l14 106
q2 25 27 25z" />
    <glyph glyph-name="minus" unicode="&#x2212;" horiz-adv-x="1052" 
d="M166 723h747q17 0 25 -11t6 -26l-26 -209q-14 -23 -25 -24h-746q-14 0 -24 10t-8 26l24 209q2 25 27 25z" />
    <glyph glyph-name="radical" unicode="&#x221a;" horiz-adv-x="1216" 
d="M135 688h205q31 0 37 -39l59 -315l492 1126q8 18 13 22t20 5h229q16 0 28 -11t5 -28l-648 -1421q-10 -27 -38 -27h-236q-29 0 -37 39l-145 623q-8 19 -1 23q7 3 17 3z" />
    <glyph glyph-name="infinity" unicode="&#x221e;" horiz-adv-x="1734" 
d="M1206 692q-59 0 -102 -39t-49 -90l-4 -31q-7 -50 21 -82t87 -32h62q61 0 99 40t44 89l4 31q16 115 -100 114h-62zM512 692q-57 0 -96 -40t-45 -89l-4 -31q-7 -46 17 -80t81 -34h61q63 0 105 39q41 39 47 90l4 31q14 115 -109 114h-61zM1227 963h76q155 -1 253 -105
t78 -278l-8 -62q-20 -172 -138 -270t-274 -98h-75q-86 0 -163 68t-126 165q-62 -96 -156 -165t-188 -68h-76q-152 0 -252 105t-80 275l8 62q20 172 140 271t272 100h76q90 0 167 -69t124 -167q63 96 157 166q95 70 185 70z" />
    <glyph glyph-name="integral" unicode="&#x222b;" horiz-adv-x="995" 
d="M803 1487h166q14 0 24 -10t8 -27l-26 -209q0 -16 -4 -20t-21 -4h-18q-115 0 -172 -40t-72 -155l-129 -1053q-21 -174 -121 -276t-252 -103h-166q-14 0 -24 10t-8 27l26 209q2 10 3 18t22 7h18q115 0 172 40t72 154l129 1053q20 174 120 276t253 103z" />
    <glyph glyph-name="approxequal" unicode="&#x2248;" horiz-adv-x="1157" 
d="M950 424l60 -152q12 -23 -15 -49q-117 -70 -255 -77t-234 55q-168 86 -322 -25q-29 -10 -41 29l-61 153q-8 23 16 48q119 70 260 78t232 -56q169 -86 321 25q33 12 39 -29zM999 821l60 -151q12 -23 -15 -49q-116 -68 -254 -76t-235 55q-167 85 -322 -27q-29 -10 -40 31
l-62 154q-8 23 16 47q119 68 261 76t231 -56q162 -86 322 27q32 12 38 -31z" />
    <glyph glyph-name="notequal" unicode="&#x2260;" horiz-adv-x="995" 
d="M731 1380h221q16 0 26 -11t3 -26l-256 -456h47q14 0 24 -10t9 -27l-23 -184q-2 -25 -26 -25h-168l-41 -72h186q15 0 25 -11t8 -28l-23 -184q-2 -16 -6 -19t-20 -3h-307l-228 -406q-16 -25 -41 -24h-221q-16 0 -25 11t-1 25l221 394h-21q-14 0 -24 10t-9 26l23 185
q2 25 27 24h141l41 72h-160q-14 0 -24 10t-9 27l23 184q2 25 27 25h280l264 469q12 24 37 24z" />
    <glyph glyph-name="lessequal" unicode="&#x2264;" horiz-adv-x="983" 
d="M113 270h673q14 0 24 -10t9 -27l-24 -208q-4 -25 -29 -25h-672q-37 0 -33 37l25 209q4 16 8 20q5 4 19 4zM934 1176l-25 -218q0 -35 -20 -45l-361 -155l310 -160q25 -10 20 -53l-29 -217q-2 -23 -24 -6l-625 333q-45 23 -30 117q8 76 43 92l706 336q13 8 25 -2t10 -22z
" />
    <glyph glyph-name="greaterequal" unicode="&#x2265;" horiz-adv-x="983" 
d="M111 270h673q35 0 31 -37l-24 -208q-3 -20 -10 -22q-7 -3 -19 -3h-672q-14 0 -24 10t-9 27l25 209q4 16 9 20q6 4 20 4zM172 971l29 217q2 23 24 6l627 -334q43 -23 32 -108t-46 -101l-705 -336q-14 -8 -27 2q-12 10 -10 23l27 217q4 39 18 45l359 156l-307 160
q-25 12 -21 53z" />
    <glyph glyph-name="lozenge" unicode="&#x25ca;" horiz-adv-x="931" 
d="M444 446l199 373q14 8 12 17l-106 360l-197 -371q-14 -14 -12 -18zM434 0h-63q-29 0 -37 39l-217 774q-2 6 -2 25l407 774q10 27 37 26h64q29 0 36 -39l220 -774v-24l-406 -774q-10 -27 -39 -27z" />
    <glyph glyph-name="i.loclTRK" horiz-adv-x="598" 
d="M238 965h208q14 -1 24 -11t9 -26l-110 -903q-4 -25 -29 -25h-209q-14 0 -25 10q-10 11 -8 27l113 903q2 25 27 25zM266 1487h279q14 0 24 -11t9 -26l-35 -272q0 -23 -25 -23h-276q-14 0 -25 10q-10 11 -8 27l33 272q0 19 8 21t16 2z" />
    <glyph glyph-name="zero.lf" horiz-adv-x="1212" 
d="M504 250h108q78 0 129 60t64 147l76 590q12 84 -20 138t-109 54h-111q-76 0 -129 -62t-61 -145l-74 -590q-9 -84 21 -138t106 -54zM662 1509h108q176 0 289 -147t88 -350l-70 -549q-23 -203 -163 -343t-318 -140h-109q-177 0 -291 147t-87 350l71 549q27 203 166 343
q140 140 316 140z" />
    <glyph glyph-name="one.lf" horiz-adv-x="962" 
d="M532 1487h220q14 0 24 -10t8 -27l-174 -1425q-4 -25 -28 -25h-209q-14 0 -25 10q-10 10 -8 27l129 1046l-63 -55q-23 -18 -44 10l-131 148q-20 20 -4 41l291 254q6 6 14 6z" />
    <glyph glyph-name="two.lf" horiz-adv-x="1159" 
d="M737 1503q176 0 291 -119q115 -120 89 -332t-91 -315q-66 -102 -242 -170l-243 -92q-113 -43 -146 -82t-41 -129l615 6q14 0 24 -10t8 -27l-24 -208q-4 -25 -29 -25h-876q-37 0 -31 45q45 329 85 409q65 130 122 171t119 67l313 129q77 29 100 53q24 25 34 35t16 38
q7 28 10 39q2 11 6 52t6 60q8 70 -22 102t-111 33h-86q-78 0 -124 -43t-56 -119l-4 -35q-2 -25 -27 -24h-211q-14 0 -25 10q-10 10 -8 27l4 34q23 195 159 305t310 115h86z" />
    <glyph glyph-name="three.lf" horiz-adv-x="1148" 
d="M547 -18h-86q-168 0 -285 118t-94 297l4 39q4 25 29 25h211q14 0 24 -10t8 -27l-6 -39q-6 -51 27 -92t102 -41h86q84 0 133 49q48 49 60 135t-11 128q-24 42 -122 48h-152q-16 0 -26 12t-9 25l29 221q2 10 3 18t22 7h153q100 6 133 53t49 164q6 53 -22 91q-29 38 -105 38
h-88q-70 0 -120 -52t-56 -112l-6 -39q-2 -25 -26 -24h-211q-14 0 -25 10q-10 10 -8 27l4 39q25 184 165 303t304 118h88q170 -1 283 -121q112 -120 92 -283t-87 -245t-194 -110q115 -27 171 -122t35 -265q-21 -171 -161 -277t-315 -106z" />
    <glyph glyph-name="four.lf" horiz-adv-x="1128" 
d="M719 963h209q14 -1 24 -11t9 -26l-23 -176h84q14 0 24 -10t9 -27l-25 -209q-4 -25 -29 -25h-96l-55 -454q-4 -25 -29 -25h-209q-14 0 -24 10t-8 27l55 442h-541q-27 0 -33 27l-10 69q-8 35 4 54l658 862q14 18 41 18h247q21 0 29 -14t-2 -35l-520 -710h160l22 188
q4 25 29 25z" />
    <glyph glyph-name="five.lf" horiz-adv-x="1163" 
d="M498 932h161q201 0 311 -134t72 -390q-33 -207 -172 -317t-321 -109h-86q-178 0 -291 116t-90 301l4 33q2 25 29 25h211q16 1 24 -11t6 -26l-4 -33q-8 -75 19 -105t112 -30h86q90 0 138 41q47 41 67 157t-14 158q-35 43 -133 43h-33q-162 0 -207 -43l-219 4q-16 0 -26 12
t-9 25l121 813q2 25 27 25h786q15 0 25 -10t8 -27l-27 -209q0 -16 -4 -20t-20 -4h-562l-51 -312q28 27 62 27z" />
    <glyph glyph-name="six.lf" horiz-adv-x="1163" 
d="M571 252q68 0 125 41t74 139q31 128 9 190t-126 62h-28q-150 0 -200 -60t-58 -225q-4 -92 44 -120q48 -27 78 -27h82zM745 1511q178 0 289 -125t88 -311l-4 -35q-4 -25 -28 -24h-211q-14 0 -25 10q-10 10 -8 27l4 34q18 154 -125 154h-86q-57 0 -109 -40t-65 -116
q-6 -23 -39 -159q35 20 217 20h25q221 0 318 -143t56 -395q-33 -207 -171 -317t-320 -109h-82q-178 0 -278 118q-99 119 -91 328q6 311 88 682q41 174 164 286t303 115h90z" />
    <glyph glyph-name="seven.lf" horiz-adv-x="1165" 
d="M229 1487h920q15 0 25 -10t8 -27l-21 -164v-2l-8 -35q-608 -664 -821 -1280q-2 -4 -37 6l-207 48q-18 4 -14 55q109 319 270 582q162 263 436 561l-569 -4q-14 0 -25 10q-10 10 -8 26l25 209q1 25 26 25z" />
    <glyph glyph-name="eight.lf" horiz-adv-x="1173" 
d="M688 621h-176q-57 -1 -100 -47t-52 -107l-10 -88q-6 -57 21 -92t84 -35h174q57 0 100 42t49 99l13 88q8 61 -20 101t-83 39zM559 915h127q57 0 98 37t47 92l13 91q6 51 -23 79t-86 27h-117q-57 0 -101 -35t-50 -84l-8 -92q-18 -115 100 -115zM618 -18h-194
q-168 0 -267 108t-79 262l10 94q14 109 68 197t143 123q-68 29 -94 119q-27 90 -12 213l6 61q18 152 129 252t276 100h187q164 0 255 -106t72 -258l-8 -62q-32 -268 -186 -327q76 -33 110 -126t21 -198l-11 -94q-20 -156 -139 -257t-287 -101z" />
    <glyph glyph-name="nine.lf" horiz-adv-x="1165" 
d="M721 1241h-82q-68 0 -126 -41t-73 -139q-31 -129 -9 -191t126 -61h29q150 -1 200 59t58 226q2 59 -32 103t-91 44zM465 -18q-178 0 -289 124t-88 312l4 35q4 25 29 24h211q14 0 24 -10t9 -27l-7 -34q-16 -154 127 -154h86q55 0 107 40q51 40 67 116q14 45 37 159
q-33 -20 -215 -20h-24q-221 0 -319 143q-97 143 -56 395q33 207 171 317t320 109h82q178 0 278 -118q99 -119 91 -328q-6 -311 -88 -682q-41 -173 -164 -285t-303 -116h-90z" />
    <glyph glyph-name="zero.osf" horiz-adv-x="1079" 
d="M627 698h-131q-47 0 -76 -34t-35 -74l-27 -232q-12 -90 74 -90h131q47 0 76 32t35 73l26 231q12 94 -73 94zM522 969h121q154 0 250 -110t78 -263l-29 -242q-20 -154 -135 -255t-270 -101h-121q-154 0 -250 108t-78 261l29 241q19 154 135 258t270 103z" />
    <glyph glyph-name="one.osf" horiz-adv-x="892" 
d="M659 295q17 0 27 -11t8 -26l-28 -233q-4 -25 -29 -25h-475q-14 0 -25 10q-10 10 -8 27l31 233q2 10 3 18q1 7 21 7h156l33 264l-64 -55q-20 -18 -41 10l-133 148q-20 20 -2 40l289 254q8 6 16 7h219q15 -1 25 -11t8 -26l-78 -631h47z" />
    <glyph glyph-name="two.osf" horiz-adv-x="1095" 
d="M879 0h-799q-37 0 -31 45q37 298 113 386t207 106l231 30q55 7 82 19t30 21t3 25t3 28t-20 22t-69 10h-97q-59 0 -91 -26t-35 -52l-3 -16q0 -18 -8 -20t-16 -3h-211q-40 0 -33 52q16 135 137 237t277 103h88q152 -2 258 -111q106 -108 88 -256t-85 -192t-282 -76
l-165 -23q-61 -4 -64 -45l512 6q15 0 25 -10t8 -27l-25 -208q-3 -20 -10 -22q-6 -3 -18 -3z" />
    <glyph glyph-name="three.osf" horiz-adv-x="1140" 
d="M483 -422h-86q-163 0 -283 110t-104 257l6 39q4 20 10 22t15 2h211q16 0 26 -11t9 -26l-4 -39q-2 -24 39 -54t108 -30h74q84 0 132 42t53 92t2 80q-6 66 -140 73h-168q-14 0 -25 10q-10 10 -8 27l27 221q2 25 29 25h167q102 4 133 51t42 115q18 109 -130 108h-73
q-70 0 -125 -41t-60 -80l-4 -39q-2 -23 -28 -22h-211q-16 0 -25 11q-8 11 -6 26l4 39q23 184 156 280t305 97h88q178 1 290 -103t89 -287q-33 -246 -264 -297q238 -59 196 -360q-18 -154 -153 -246t-314 -92z" />
    <glyph glyph-name="four.osf" horiz-adv-x="1128" 
d="M868 483q14 0 24 -10t9 -27l-22 -176h84q14 0 24 -10t8 -27l-24 -208q-4 -25 -29 -25h-96l-47 -385q-2 -25 -27 -25h-209q-14 0 -24 10t-9 27l45 373h-540q-27 0 -33 27l-10 69q-4 39 4 54l657 862q14 18 41 18h250q20 0 28 -14t-3 -35l-520 -711h159l23 189q4 25 28 24
h209z" />
    <glyph glyph-name="five.osf" horiz-adv-x="1171" 
d="M383 498q20 26 87 26h130q206 2 318 -133t71 -391q-33 -206 -171 -316t-320 -110h-86q-178 0 -291 117t-90 301l4 33q2 25 26 24h211q14 0 24 -10t9 -27l-4 -32q-9 -74 17 -105t112 -31h86q176 0 198 168q12 86 12 126q1 42 -23 65q-25 23 -51 31t-72 10q-193 8 -244 -43
l-221 4q-16 0 -27 11q-10 11 -8 26l106 696q4 25 29 25h786q15 -1 25 -11t8 -26l-24 -209q-4 -17 -10 -21t-19 -4h-561z" />
    </font>
</defs>
</svg>
