<?xml version="1.0" standalone="no"?>
<!DOCTYPE svg PUBLIC "-//W3C//DTD SVG 1.1//EN" "http://www.w3.org/Graphics/SVG/1.1/DTD/svg11.dtd" >
<svg xmlns="http://www.w3.org/2000/svg">
<metadata>
Created by FontPrep 20130207 at Wed Nov  5 19:40:39 2014
 By Connary
Copyright (c) 2014 by Connary Fagen. All rights reserved.
</metadata>
<defs>
<font id="875c2bcda5d711868f7b0fdbf028006c" horiz-adv-x='1024' >
  <font-face 
    font-family="ManifoldCF-BoldOblique"
    font-weight="700"
    font-style="oblique"
    font-stretch="normal"
    units-per-em="2048"
    panose-1="0 0 8 0 0 0 0 0 0 0"
    ascent="1638"
    descent="-410"
    x-height="963"
    cap-height="1487"
    bbox="-478.765 -1106 2276.37 2165.02"
    underline-thickness="102"
    underline-position="-102"
    unicode-range="U+0020-FB02"
  />
<missing-glyph horiz-adv-x="1024" 
d="M102 1239v-1044l349 522zM164 102h696l-348 523zM573 717l349 -522v1044zM512 809l348 522h-696zM0 0v1434h1024v-1434h-1024z" />
    <glyph glyph-name="fi" unicode="fi" horiz-adv-x="1302" 
d="M1055 1487h192q15 0 25 -10t8 -27l-29 -238q-2 -25 -28 -24h-193q-33 0 -31 37l29 237q2 25 27 25zM1171 965q15 -1 25 -11t8 -26l-110 -903q-4 -25 -29 -25h-184q-14 0 -25 10q-10 10 -8 27l86 682h-449l-84 -694q-4 -25 -28 -25h-185q-14 0 -24 10t-8 27l84 682h-113
q-14 0 -25 10q-10 10 -8 27l25 184q2 25 26 25h125l19 143q21 174 121 276t252 103h135q14 0 24 -10t8 -27l-22 -184q-2 -25 -27 -25h-135q-94 0 -110 -125l-19 -151h655z" />
    <glyph glyph-name="fl" unicode="fl" horiz-adv-x="1325" 
d="M662 1487h575q15 0 25 -10t8 -27l-174 -1413q-3 -37 -37 -37h-176q-14 0 -25 10q-10 10 -8 27l147 1204h-352q-94 0 -110 -125l-19 -153h197q14 -1 24 -11t8 -26l-22 -185q-4 -25 -29 -24h-209l-84 -692q-4 -25 -28 -25h-185q-14 0 -24 10t-8 27l84 680h-113
q-14 0 -25 10q-10 10 -8 27l23 184q4 25 28 25h125l19 145q21 174 121 276t252 103z" />
    <glyph glyph-name="f_t.liga" unicode="ft" horiz-adv-x="1462" 
d="M373 0h-185q-14 0 -24 10t-8 27l84 680h-113q-14 0 -25 10q-10 10 -8 27l23 184q4 25 28 25h125l19 145q21 174 121 276t252 103h135q14 0 24 -10t8 -27l-22 -184q-2 -25 -27 -25h-135q-94 0 -110 -125l-19 -153h483l27 219q2 25 27 24h184q15 0 25 -10t8 -27l-25 -206
h137q14 -1 24 -11t9 -26l-22 -185q-2 -25 -29 -24h-150l-38 -318q-4 -45 -4 -77q2 -72 94 -72q18 0 30 -9t11 -24l-23 -194q-2 -27 -16 -27q-176 -4 -273 70q-96 74 -77 235l51 416h-484l-84 -692q-4 -25 -28 -25z" />
    <glyph glyph-name=".notdef" horiz-adv-x="1024" 
d="M102 1239v-1044l349 522zM164 102h696l-348 523zM573 717l349 -522v1044zM512 809l348 522h-696zM0 0v1434h1024v-1434h-1024z" />
    <glyph glyph-name=".null" horiz-adv-x="0" 
 />
    <glyph glyph-name="nonmarkingreturn" horiz-adv-x="681" 
 />
    <glyph glyph-name="space" unicode=" " horiz-adv-x="645" 
 />
    <glyph glyph-name="exclam" unicode="!" horiz-adv-x="618" 
d="M356 309q16 0 24 -11t7 -26l-29 -247q-4 -25 -28 -25h-205q-14 0 -25 10q-10 11 -8 27l31 248q2 25 29 24h204zM305 1487h184q15 0 25 -10t8 -27l-110 -909q-4 -25 -29 -25h-184q-14 0 -25 10q-10 11 -8 27l113 909q2 25 26 25z" />
    <glyph glyph-name="quotedbl" unicode="&#x22;" horiz-adv-x="1036" 
d="M758 1487h200q14 0 24 -10t9 -27l-73 -600q-2 -25 -27 -25h-201q-14 1 -24 11t-9 26l74 600q2 25 27 25zM291 1487h201q14 0 24 -10t8 -27l-73 -600q-2 -25 -27 -25h-201q-15 1 -25 11t-8 26l74 600q2 25 27 25z" />
    <glyph glyph-name="numbersign" unicode="#" horiz-adv-x="1220" 
d="M711 840h-136l-22 -193h135zM1104 1085q14 0 24 -10t9 -26l-23 -185q-2 -25 -29 -24h-127l-24 -193h117q14 0 24 -10t8 -27l-22 -184q-4 -25 -29 -25h-129l-45 -376q-4 -25 -29 -25h-184q-14 0 -24 10t-9 27l45 364h-135l-45 -376q-4 -25 -28 -25h-185q-14 0 -24 10
t-9 27l45 364h-116q-14 1 -24 11t-9 26l23 185q4 25 28 24h129l23 193h-117q-16 0 -25 11q-8 11 -6 26l23 184q2 25 26 24h129l48 377q2 25 26 25h184q14 0 24 -10t9 -27l-45 -365h135l47 377q2 25 27 25h184q15 0 25 -10t8 -27l-45 -365h117z" />
    <glyph glyph-name="dollar" unicode="$" horiz-adv-x="970" 
d="M717 823q6 55 -18 75t-87 30l-24 -209q121 24 129 104zM371 1210q-5 -45 17 -65t83 -33l25 209q-115 -17 -125 -111zM287 827q36 0 32 -50q-4 -53 103 -62l29 239q-287 61 -263 281q14 119 108 189t224 83l17 140q2 25 26 24h103q14 -1 24 -11t8 -26l-16 -131
q114 -23 188 -101t62 -200q-2 -20 -25 -20h-125q-14 0 -26 11t-11 28q8 82 -86 100l-28 -240q293 -65 267 -274q-14 -112 -110 -186t-223 -89l-18 -141q-4 -25 -29 -24h-102q-14 0 -25 10q-10 10 -8 26l16 129q-115 16 -195 90t-71 187q0 18 27 18h127z" />
    <glyph glyph-name="percent" unicode="%" horiz-adv-x="1228" 
d="M967 240q-17 0 -31 -12t-16 -31v-7q-6 -29 24 -28h8q33 0 49 47q2 18 -3 24t-23 7h-8zM967 401h26q82 0 131 -57t39 -139l-2 -23q-10 -84 -66 -133t-139 -49h-26q-84 0 -132 56t-38 139l2 22q10 82 66 133q57 51 139 51zM385 1325h-8q-17 0 -31 -12t-16 -31v-6
q-6 -29 24 -29h8q34 0 50 47q2 18 -3 24t-24 7zM377 1487h26q81 0 131 -57t39 -140l-2 -22q-8 -82 -64 -132t-140 -51h-27q-84 1 -132 57t-38 138l2 23q10 82 66 133t139 51zM1075 1487h209q16 0 26 -11t1 -26l-1002 -1425q-20 -25 -43 -25h-209q-16 0 -25 12t-1 25
l1003 1425q16 25 41 25z" />
    <glyph glyph-name="ampersand" unicode="&#x26;" horiz-adv-x="1478" 
d="M483 215h176q82 0 140 51l-305 336l-80 -41q-72 -35 -82 -131l-8 -59q-8 -59 30 -108q39 -48 129 -48zM1122 811h197q21 0 31 -14t-4 -27l-152 -108q-49 -37 -61 -150l-15 -121q-10 -76 -35 -127l213 -231q18 -18 10 -26q-9 -7 -22 -7h-227q-14 0 -35 20l-61 68
q-129 -119 -299 -119h-218q-176 0 -281 121t-83 293l12 100q10 88 58 156t163 131l19 10l-39 43q-43 45 -59 105t-13 90q2 29 10 94l5 39q18 147 138 253t290 107h135q170 -1 268 -113t80 -259l-4 -39q-8 -61 -45 -127t-90 -107l-74 -55q-16 -12 -49 -12h-180q-20 0 -31 16
q-10 16 4 27l57 32q63 38 109 98t53 120l6 59q8 63 -24 89q-33 26 -119 26h-94q-168 0 -187 -127l-6 -60q-14 -55 -5 -104t64 -111l351 -383l10 78q12 117 80 158l112 80q23 14 37 14z" />
    <glyph glyph-name="quotesingle" unicode="'" horiz-adv-x="569" 
d="M291 1487h201q14 0 24 -10t8 -27l-73 -600q-2 -25 -27 -25h-201q-15 1 -25 11t-8 26l74 600q2 25 27 25z" />
    <glyph glyph-name="parenleft" unicode="(" horiz-adv-x="745" 
d="M485 102h33q14 0 24 -10t9 -26l-23 -185q-2 -25 -26 -24h-115q-155 -1 -235 109t-58 282l123 1003q23 175 123 277t252 102h115q14 0 24 -10t8 -27l-22 -184q-4 -25 -29 -25h-33q-102 0 -145 -51t-57 -176l-105 -840q-16 -127 10 -171t127 -44z" />
    <glyph glyph-name="parenright" unicode=")" horiz-adv-x="745" 
d="M303 1384h-33q-14 0 -24 10t-8 27l22 185q4 25 29 24h114q154 0 234 -108t57 -283l-123 -1003q-20 -174 -120 -276t-252 -103h-115q-14 0 -25 10q-10 10 -8 27l23 184q2 25 26 24h33q101 0 145 50t60 178l102 839q16 127 -9 171q-26 44 -128 44z" />
    <glyph glyph-name="asterisk" unicode="*" horiz-adv-x="800" 
d="M383 932q-14 0 -25 10q-10 10 -8 27l12 82l-59 -58q-31 -16 -43 19l-59 114q-12 29 6 41l106 43l-82 47q-33 18 -16 48l88 114q12 20 37 0l57 -51l15 94q2 25 26 25h137q15 0 25 -10t8 -27l-12 -82l61 57q13 8 25 2t16 -20l62 -115q12 -29 -8 -39l-105 -43l82 -49
q31 -18 14 -47l-88 -115q-12 -20 -37 0l-57 52l-14 -95q-2 -25 -27 -24h-137z" />
    <glyph glyph-name="plus" unicode="+" horiz-adv-x="1052" 
d="M922 784q35 0 30 -36l-22 -185q-2 -16 -7 -20t-22 -4h-252l-35 -279q-2 -25 -28 -24h-185q-14 0 -24 10t-8 26l32 267h-245q-16 0 -25 11q-8 11 -6 25l22 185q2 25 27 24h258l35 277q2 25 27 24h184q14 0 24 -10t9 -26l-33 -265h244z" />
    <glyph glyph-name="comma" unicode="," horiz-adv-x="516" 
d="M96 309h250q16 0 24 -11t7 -26l-35 -286q-27 -217 -166 -369q-20 -12 -41 12l-76 78q-29 29 -14 49q53 42 73 96t27 134l19 14h-94q-14 0 -25 10q-10 10 -8 27l31 248q1 24 28 24z" />
    <glyph glyph-name="hyphen" unicode="-" horiz-adv-x="888" 
d="M700 395h-540q-14 1 -24 11t-9 26l23 184q2 25 28 25h541q14 0 23 -11t8 -26l-23 -184q-2 -25 -27 -25z" />
    <glyph glyph-name="period" unicode="." horiz-adv-x="516" 
d="M346 309q16 0 24 -11t7 -26l-29 -247q-4 -25 -29 -25h-249q-14 0 -25 10q-10 11 -8 27l31 248q2 25 28 24h250z" />
    <glyph glyph-name="slash" unicode="/" horiz-adv-x="929" 
d="M815 1487h197q16 0 24 -11t2 -26l-798 -1425q-16 -25 -41 -25h-197q-16 0 -26 11q-9 12 -1 26l801 1425q12 25 39 25z" />
    <glyph glyph-name="zero" unicode="0" horiz-adv-x="1208" 
d="M502 227h106q86 0 147 69q60 69 72 165l74 581q12 96 -25 159q-38 62 -126 63h-107q-86 0 -147 -69t-72 -165l-72 -581q-12 -96 26 -159t124 -63zM662 1509h106q176 0 288 -146t87 -349l-68 -549q-25 -203 -166 -343t-317 -140h-107q-179 0 -291 146t-85 349l69 549
q27 203 167 343q141 140 317 140z" />
    <glyph glyph-name="one" unicode="1" horiz-adv-x="927" 
d="M453 1487h194q15 0 25 -10t8 -27l-174 -1425q-4 -25 -29 -25h-184q-14 0 -25 10q-10 10 -8 27l133 1083l-71 -63q-22 -18 -43 8l-115 131q-20 20 -4 41l278 244q6 6 15 6z" />
    <glyph glyph-name="two" unicode="2" horiz-adv-x="1159" 
d="M668 1503q176 0 290 -120q114 -121 90 -327q-26 -206 -98 -310t-256 -173l-243 -92q-111 -41 -148 -93t-47 -148l641 6q15 0 25 -10t8 -27l-23 -184q-4 -25 -28 -25h-877q-37 0 -31 43q33 268 71 368q38 99 78 143q79 86 175 126l315 129q121 49 151 99t46 188
q18 162 -156 161h-86q-84 0 -140 -50t-67 -136l-4 -35q-2 -25 -26 -24h-187q-14 0 -24 10t-8 27l4 34q23 193 159 305q138 111 310 115h86z" />
    <glyph glyph-name="three" unicode="3" horiz-adv-x="1148" 
d="M477 -18h-86q-168 0 -285 118t-94 297l4 39q4 25 29 25h186q15 0 25 -10t8 -27l-6 -39q-8 -66 33 -112t119 -46h86q92 -1 149 53t68 132q12 110 -19 158t-137 55h-151q-14 0 -25 10q-10 10 -8 27l24 196q2 25 27 25h151q109 6 152 60t57 171q6 61 -29 107q-36 45 -120 45
h-88q-78 0 -136 -58t-67 -131l-6 -39q-2 -25 -27 -24h-186q-14 0 -25 10q-10 10 -8 27l4 39q25 184 165 303t304 118h88q170 1 283 -119q114 -120 94 -281t-88 -243t-194 -116q246 -70 204 -385q-20 -173 -159 -279t-316 -106z" />
    <glyph glyph-name="four" unicode="4" horiz-adv-x="1128" 
d="M662 963h184q14 -1 24 -11t9 -26l-25 -197h96q14 0 24 -10t9 -27l-22 -184q-4 -25 -29 -25h-109l-55 -458q-4 -25 -29 -25h-184q-14 0 -25 10q-10 10 -8 27l56 446h-553q-27 0 -33 27l-10 65q-8 33 4 52l661 864q14 18 41 18h221q19 0 27 -14t-2 -33l-543 -733h217
l25 209q4 25 29 25z" />
    <glyph glyph-name="five" unicode="5" horiz-adv-x="1163" 
d="M393 -18q-178 0 -291 116t-90 301l4 33q2 25 29 25h186q17 1 25 -11t6 -26l-4 -33q-10 -84 25 -122t129 -38h86q195 0 227 203q25 142 -15 194t-151 52h-37q-154 0 -223 -55l-201 4q-14 0 -24 10t-8 27l118 800q2 25 27 25h786q15 0 25 -10t8 -27l-22 -184
q-2 -25 -27 -25h-584l-57 -348q45 39 211 39h39q202 0 312 -134t71 -388q-33 -207 -172 -318t-322 -110h-86z" />
    <glyph glyph-name="six" unicode="6" horiz-adv-x="1163" 
d="M416 227h84q78 0 142 47t83 156q31 139 2 205t-145 65h-37q-153 0 -209 -66t-64 -233q-4 -96 43 -135t101 -39zM676 1511q178 0 289 -125t88 -311l-4 -35q-4 -25 -29 -24h-186q-14 0 -25 10q-10 10 -8 27l4 34q12 91 -30 135t-118 44h-86q-70 0 -126 -46t-74 -128
q-18 -59 -43 -187q55 37 235 37h33q223 0 320 -140t57 -392q-33 -209 -171 -319t-321 -109h-84q-176 0 -275 118t-91 326q6 315 88 682q41 176 164 288t303 115h90z" />
    <glyph glyph-name="seven" unicode="7" horiz-adv-x="1165" 
d="M160 1487h919q14 0 25 -10q10 -11 8 -27l-18 -150q-2 -18 -9 -32q-606 -649 -839 -1297q-9 -6 -22 -1t-15 5l-184 43q-20 4 -13 54q117 328 289 603t451 570l-609 -4q-14 0 -24 10t-8 27l22 184q2 25 27 25z" />
    <glyph glyph-name="eight" unicode="8" horiz-adv-x="1173" 
d="M616 635h-170q-68 0 -120 -51t-60 -121l-10 -86q-8 -66 27 -108t102 -42h170q68 0 119 48t59 114l12 86q8 70 -26 115q-35 45 -103 45zM487 901h129q68 0 116 43t56 109l11 82q8 59 -27 95t-102 36h-121q-68 0 -118 -42t-58 -102l-8 -82q-9 -66 23 -102t99 -37zM545 -18
h-187q-168 0 -269 110t-81 264l10 90q12 106 68 194t147 128q-68 33 -96 123q-29 90 -14 207l6 57q18 152 132 254t278 102h178q164 -1 257 -109t75 -259l-9 -58q-30 -259 -190 -325q76 -35 112 -128t23 -198l-10 -90q-20 -156 -141 -259t-289 -103z" />
    <glyph glyph-name="nine" unicode="9" horiz-adv-x="1165" 
d="M655 1266h-84q-77 0 -143 -47t-82 -156q-31 -137 -2 -204t145 -66h37q154 -1 210 65t63 234q2 96 -44 135t-100 39zM395 -18q-178 0 -289 124t-88 312l5 35q4 25 28 24h187q14 0 24 -10t8 -27l-6 -34q-10 -92 32 -136t118 -43h86q70 0 126 46t74 128q20 72 41 187
q-53 -37 -233 -37h-33q-223 0 -320 140t-57 392q33 209 171 319t321 109h84q176 1 275 -117t91 -327q-6 -315 -88 -682q-41 -175 -164 -287t-303 -116h-90z" />
    <glyph glyph-name="colon" unicode=":" horiz-adv-x="618" 
d="M397 309q17 0 25 -11t6 -26l-29 -247q-4 -25 -28 -25h-250q-14 0 -25 10q-10 11 -8 27l31 248q2 25 28 24h250zM227 963h250q15 -1 25 -11t8 -26l-31 -248q-2 -25 -28 -25h-250q-17 -1 -25 11t-6 26l29 248q4 25 28 25z" />
    <glyph glyph-name="semicolon" unicode=";" horiz-adv-x="618" 
d="M121 0q-14 0 -25 10q-10 10 -8 27l31 248q2 25 28 24h250q37 0 31 -47t-18 -148t-17 -134q-27 -213 -166 -363q-20 -12 -41 12l-75 78q-29 29 -15 49q52 42 72 96t29 134l18 14h-94zM227 963h250q15 -1 25 -11t8 -26l-31 -248q-2 -25 -28 -25h-250q-17 -1 -25 11t-6 26
l29 248q4 25 28 25z" />
    <glyph glyph-name="less" unicode="&#x3c;" horiz-adv-x="983" 
d="M901 901l-22 -192q0 -38 -21 -45l-395 -181l338 -184q25 -10 20 -53l-24 -193q-2 -23 -27 -6l-627 344q-39 19 -29 97t40 92l712 346q12 8 25 -2q12 -11 10 -23z" />
    <glyph glyph-name="equal" unicode="=" horiz-adv-x="929" 
d="M756 342h-623q-14 0 -24 10t-9 27l21 164q2 25 26 24h623q14 0 24 -10t9 -27l-21 -163q-1 -25 -26 -25zM795 662h-623q-14 0 -25 10q-10 10 -8 26l21 164q2 25 26 25h623q15 0 25 -10t8 -27l-21 -164q-1 -24 -26 -24z" />
    <glyph glyph-name="greater" unicode="&#x3e;" horiz-adv-x="983" 
d="M141 721l25 192q2 23 27 7l628 -345q37 -20 28 -97t-40 -91l-711 -346q-14 -8 -26 2t-11 23l25 192q4 39 18 45l396 180l-338 185q-25 12 -21 53z" />
    <glyph glyph-name="question" unicode="?" horiz-adv-x="1019" 
d="M524 309q16 0 24 -11t7 -26l-29 -247q-4 -25 -28 -25h-205q-14 0 -25 10q-10 11 -8 27l31 248q2 25 28 24h205zM586 1513h86q172 -1 278 -121q123 -140 71 -392q-7 -34 -21 -62t-23 -49q-8 -21 -31 -41t-33 -30t-42 -28q-32 -16 -42 -22q-49 -28 -119 -54
q-69 -26 -94 -49q-25 -24 -28 -53l-8 -71q-4 -25 -29 -25h-184q-14 0 -25 10q-10 10 -8 27l14 113q12 106 70 155t184 101q127 52 153 84q26 31 33 94q23 168 -135 168h-86q-78 0 -127 -58t-57 -135l-6 -39q-2 -25 -27 -24h-186q-14 0 -25 10q-10 10 -8 27l4 38
q25 197 154 311t297 115z" />
    <glyph glyph-name="at" unicode="@" horiz-adv-x="1404" 
d="M639 481h20q63 0 108 30q44 30 48 73l6 53h-143q-90 0 -100 -88q-4 -31 14 -49t47 -19zM709 -27h-115q-240 1 -375 139t-106 375l65 523q27 231 191 366t401 135h94q232 0 366 -140t107 -359l-65 -537q-25 -199 -170 -199h-109q-82 0 -110 76q-19 -30 -95 -54t-147 -24
h-20q-111 0 -179 88t-51 211q31 268 316 269h141l2 22q8 57 -16 88q-25 31 -68 31h-35q-90 0 -164 -63q-35 -16 -47 14l-55 100q-12 29 -4 45q125 109 297 109h47q127 0 193 -87t44 -255l-18 -156l-12 -86l-8 -74q-6 -34 2 -36t16 -2q45 0 53 51l53 446q20 160 -63 239
q-84 79 -256 79h-12q-166 0 -283 -85t-135 -245l-60 -477q-20 -164 70 -243t258 -79h74q80 0 158 53q23 8 35 -1t8 -27l-19 -158q-2 -23 -16 -37q-104 -35 -178 -35z" />
    <glyph glyph-name="A" unicode="A" horiz-adv-x="1230" 
d="M733 606l-61 385l-158 -385h219zM1047 0h-185q-33 0 -39 39l-51 321h-360l-138 -333q-12 -27 -36 -27h-187q-16 0 -24 11t-2 28l585 1427q10 27 39 27h148q15 1 25 -11t12 -28l233 -1427q2 -15 -2 -21t-18 -6z" />
    <glyph glyph-name="B" unicode="B" horiz-adv-x="1196" 
d="M592 246q106 0 162 45q55 45 69 149q23 197 -172 197h-264l-47 -391h252zM670 883q96 0 140 49t56 149q18 160 -139 160h-264l-45 -358h252zM616 0h-510q-18 0 -28 12t-8 31l172 1413q4 31 34 31h494q176 1 271 -103t73 -286q-32 -252 -188 -340q80 -40 116 -140t19 -243
q-45 -375 -445 -375z" />
    <glyph glyph-name="C" unicode="C" horiz-adv-x="1159" 
d="M825 481h185q37 0 30 -43q-27 -203 -159.5 -334t-315.5 -131h-94q-190 0 -299 140.5t-82 357.5l70 557q27 217 162 349t325 132h94q182 0 288 -137t85 -348q-2 -18 -29 -18h-184q-16 0 -25.5 12t-7.5 31q14 111 -20.5 163t-124.5 52h-94q-195 0 -226 -248l-67 -557
q-16 -127 19.5 -183.5t131.5 -56.5h95q186 0 215 244q1 18 28 18z" />
    <glyph glyph-name="D" unicode="D" horiz-adv-x="1191" 
d="M723 1241h-262l-121 -995h248q208 -1 235 241l66 525q16 129 -27 179t-139 50zM270 1487h490q170 -1 284 -147t89 -341l-64 -524q-25 -195 -168 -335t-311 -140h-490q-14 0 -24 10t-8 27l176 1425q1 25 26 25z" />
    <glyph glyph-name="E" unicode="E" horiz-adv-x="1138" 
d="M883 872q14 0 24.5 -10t7.5 -26l-22 -185q-2 -25 -27 -24h-479l-47 -381h600q14 0 24.5 -10.5t8.5 -26.5l-23 -184q-4 -25 -28 -25h-822q-14 0 -24 10t-8 27l176 1425q2 25 26 25h822q14 0 24 -10.5t8 -26.5l-22 -184q-2 -25 -27 -25h-612l-47 -369h467z" />
    <glyph glyph-name="F" unicode="F" horiz-adv-x="1142" 
d="M897 852q15 0 25 -10t8 -27l-23 -184q-2 -25 -28 -25h-480l-69 -581q-4 -25 -29 -25h-184q-14 0 -25 10q-10 10 -8 27l176 1425q2 25 27 25h821q14 0 24 -10t9 -27l-23 -184q-2 -25 -26 -25h-613l-49 -389h467z" />
    <glyph glyph-name="G" unicode="G" horiz-adv-x="1173" 
d="M637 770h412q14 0 24 -10t8 -27l-34 -289q-27 -207 -161 -339t-317 -132h-98q-190 0 -299 140.5t-82 357.5l70 557q27 217 162 349t325 132h98q182 0 288 -137t85 -348q-2 -18 -28 -18h-185q-16 0 -25.5 12t-7.5 31q14 111 -20.5 163t-124.5 52h-98q-195 0 -226 -248
l-67 -557q-16 -127 19.5 -183.5t131.5 -56.5h99q184 0 215 238l8 67h-188q-14 0 -24.5 10.5t-8.5 26.5l22 184q2 25 27 25z" />
    <glyph glyph-name="H" unicode="H" horiz-adv-x="1210" 
d="M969 1487h184q15 0 25 -10t8 -27l-174 -1425q-4 -25 -29 -25h-184q-14 0 -25 10q-10 10 -8 27l68 549h-453l-68 -561q-4 -25 -28 -25h-185q-14 0 -24 10t-8 27l176 1425q2 25 26 25h185q14 0 24 -10t8 -27l-75 -619h452l78 631q2 25 27 25z" />
    <glyph glyph-name="I" unicode="I" horiz-adv-x="591" 
d="M266 1487h189q14 0 24 -10t8 -27l-174 -1425q-4 -25 -28 -25h-189q-14 0 -24 10t-9 27l177 1425q2 25 26 25z" />
    <glyph glyph-name="J" unicode="J" horiz-adv-x="1155" 
d="M465 231h53q106 0 176 69t84 194l119 968q2 25 27 25h184q14 0 24 -10t9 -27l-121 -989q-27 -223 -173 -349t-327 -126h-74q-130 0 -246 80t-147 204q-10 21 10 35l154 92q10 6 17 -3t14 -29q43 -72 92 -103t125 -31z" />
    <glyph glyph-name="K" unicode="K" horiz-adv-x="1234" 
d="M1069 0h-221q-33 0 -51 33l-351 610l-75 -76l-68 -542q-4 -25 -29 -25h-184q-14 0 -24.5 10t-8.5 27l176 1425q2 25 27 25h184q14 0 24.5 -10.5t8.5 -26.5l-74 -586l490 598q20 25 39 25h235q16 0 22.5 -17.5t-7.5 -37.5l-531 -631l426 -756q15 -25 9.5 -35t-17.5 -10z
" />
    <glyph glyph-name="L" unicode="L" horiz-adv-x="1118" 
d="M930 246q14 0 24.5 -10.5t8.5 -26.5l-23 -184q-4 -25 -29 -25h-821q-14 0 -24.5 10t-8.5 27l176 1425q2 25 27 25h184q14 0 24.5 -10.5t8.5 -26.5l-147 -1204h600z" />
    <glyph glyph-name="M" unicode="M" horiz-adv-x="1505" 
d="M1192 1487h246q14 0 24 -10t8 -27l-174 -1425q-4 -25 -28 -25h-185q-14 0 -24 10t-8 27l116 926l-387 -938q-12 -25 -39 -25h-104q-31 0 -39 37l-158 926l-116 -938q-4 -25 -29 -25h-184q-14 0 -25 10q-10 10 -8 27l176 1425q2 25 27 25h245q33 0 41 -37l168 -987
l418 999q10 25 39 25z" />
    <glyph glyph-name="N" unicode="N" horiz-adv-x="1302" 
d="M1051 1487h184q14 0 24.5 -10.5t8.5 -26.5l-174 -1425q-4 -25 -29 -25h-205q-29 0 -35 29l-393 946l-119 -950q-4 -25 -28 -25h-185q-14 0 -24 10t-8 27l176 1425q2 25 26 25h205q29 0 37 -29l393 -946l119 950q2 25 27 25z" />
    <glyph glyph-name="O" unicode="O" horiz-adv-x="1208" 
d="M502 227h106q86 0 147 69q60 69 72 165l74 581q12 96 -25 159q-38 62 -126 63h-107q-86 0 -147 -69t-72 -165l-72 -581q-12 -96 26 -159t124 -63zM662 1509h106q176 0 288 -146t87 -349l-68 -549q-25 -203 -166 -343t-317 -140h-107q-179 0 -291 146t-85 349l69 549
q27 203 167 343q141 140 317 140z" />
    <glyph glyph-name="P" unicode="P" horiz-adv-x="1163" 
d="M721 1241h-258l-45 -369h244q86 0 138 42t66 152t-22 143q-37 32 -123 32zM270 1487h488q184 0 280 -120q96 -121 72 -317t-142 -310q-120 -114 -302 -113h-279l-74 -602q-4 -25 -28 -25h-185q-14 0 -24 10t-8 27l176 1425q1 25 26 25z" />
    <glyph glyph-name="Q" unicode="Q" horiz-adv-x="1208" 
d="M643 1264q-86 0 -147 -69t-72 -165l-72 -581q-12 -97 26 -159t124 -63h106q33 0 64 11l-31 36q-27 25 -6 45l147 130q18 16 41 -9l78 602q12 96 -25 159q-38 62 -126 63h-107zM485 -18q-179 0 -291 146t-85 349l69 549q27 203 167 343t317 140h106q176 0 288 -146
t87 -349l-68 -549q-14 -119 -76 -225l80 -90q23 -27 4 -46l-145 -129q-23 -18 -41 9l-66 73q-115 -76 -239 -75h-107z" />
    <glyph glyph-name="R" unicode="R" horiz-adv-x="1161" 
d="M662 872q86 0 138 42t66 152.5t-22.5 142.5t-122.5 32h-258l-45 -369h244zM965 0h-185q-14 0 -24.5 11.5t-7.5 25.5l36 299q22 164 -6 219q-14 27 -47 49.5t-84 22.5h-260l-74 -602q-4 -25 -28 -25h-185q-14 0 -24 10t-8 27l176 1425q2 25 26 25h488q184 0 280.5 -119.5
t71.5 -319.5t-147 -313q100 -137 75 -344l-45 -366q-2 -25 -28 -25z" />
    <glyph glyph-name="S" unicode="S" horiz-adv-x="1173" 
d="M629 1518h106q166 0 279.5 -127t91.5 -310l-4 -39q-2 -25 -27 -24h-186q-14 0 -24.5 10t-8.5 27l4 39q10 78 -32 128t-111 50h-107q-72 0 -124 -54.5t-62 -125.5q-2 -43 -1 -82t37 -72t105 -45l117 -19q195 -31 288 -159.5t69 -316.5t-163 -303t-313 -115h-94
q-170 0 -288 121.5t-95 297.5l6 60q2 25 29 24h186q16 0 24.5 -11t6.5 -26l-4 -59q-6 -74 37 -118t116 -44h95q80 0 142 53.5t72 139.5t-17 140t-126 71l-114 22q-205 39 -292 163t-66 304t149.5 290t298.5 110z" />
    <glyph glyph-name="T" unicode="T" horiz-adv-x="1165" 
d="M240 1487h899q14 0 24.5 -10.5t7.5 -26.5l-22 -184q-2 -25 -27 -25h-331l-150 -1216q-4 -25 -29 -25h-184q-14 0 -24.5 10t-8.5 27l150 1204h-322q-14 0 -24.5 10.5t-8.5 26.5l23 184q2 25 27 25z" />
    <glyph glyph-name="U" unicode="U" horiz-adv-x="1187" 
d="M938 1489h184q14 0 24 -10t9 -27l-123 -1010q-25 -198 -163 -326t-334 -128h-54q-197 0 -307 134t-88 333l125 1009q2 25 27 25h184q14 0 24 -10t9 -27l-119 -969q-31 -250 164 -250h53q111 0 169 78t71 185l118 968q2 25 27 25z" />
    <glyph glyph-name="V" unicode="V" horiz-adv-x="1181" 
d="M184 1487h189q31 0 37 -39l139 -1022l397 1034q10 27 35 27h188q15 0 25 -11t4 -28l-580 -1421q-10 -27 -38 -27h-146q-31 0 -39 39l-229 1421q-4 16 0 22t18 5z" />
    <glyph glyph-name="W" unicode="W" horiz-adv-x="1878" 
d="M1690 1487h186q16 0 24 -10t5 -25l-480 -1427q-8 -25 -39 -25h-143q-31 0 -37 37l-205 1012l-452 -1024q-10 -25 -39 -25h-143q-35 0 -39 37l-131 1419q-4 31 22 31h187q33 0 36 -37l70 -975l418 983q12 29 41 29h147q37 0 43 -33l176 -979l316 983q8 29 37 29z" />
    <glyph glyph-name="X" unicode="X" horiz-adv-x="1134" 
d="M221 1480q0 8 19 7h196q29 0 39 -37l148 -430l262 442q14 25 39 25h196q16 0 26 -11t1 -26l-424 -719l244 -706q7 -18 1 -22q-7 -3 -18 -3h-196q-29 0 -39 37l-148 430l-260 -442q-16 -25 -41 -25h-196q-16 0 -26 11q-9 11 -1 26l424 719l-242 706q-4 10 -4 18z" />
    <glyph glyph-name="Y" unicode="Y" horiz-adv-x="1105" 
d="M133 1480q0 8 19 7h202q31 0 39 -37l176 -537l316 549q12 25 39 25h202q16 0 26 -11t1 -26l-487 -797l-78 -628q-4 -25 -29 -25h-184q-14 0 -25 10q-10 10 -8 27l78 616l-283 809q-4 10 -4 18z" />
    <glyph glyph-name="Z" unicode="Z" horiz-adv-x="1107" 
d="M930 246q14 0 24 -10t9 -27l-23 -184q-4 -25 -29 -25h-841q-14 0 -25 10q-10 10 -8 27l12 86q0 29 6 39l695 1079h-527q-14 0 -24 10t-9 27l23 184q2 25 27 25h841q14 0 25 -10q10 -11 8 -27l-10 -86q0 -20 -6 -39l-695 -1079h527z" />
    <glyph glyph-name="bracketleft" unicode="[" horiz-adv-x="718" 
d="M289 1630h391q14 0 24 -10t9 -27l-23 -184q-4 -25 -28 -25h-183l-157 -1282h170q14 0 24 -10t8 -26l-22 -185q-2 -25 -27 -24h-397q-31 8 -27 37l209 1712q4 24 29 24z" />
    <glyph glyph-name="backslash" unicode="\" horiz-adv-x="927" 
d="M799 0h-197q-29 0 -39 37l-448 1425q-6 22 0 24q6 1 14 1h197q31 0 39 -37l450 -1425q7 -18 1 -22q-7 -3 -17 -3z" />
    <glyph glyph-name="bracketright" unicode="]" horiz-adv-x="718" 
d="M289 1630h397q31 -8 27 -37l-211 -1712q-2 -25 -27 -24h-391q-14 0 -25 10q-10 10 -8 27l23 184q2 25 26 24h183l157 1282h-170q-14 0 -24 10t-8 27l22 185q4 24 29 24z" />
    <glyph glyph-name="asciicircum" unicode="^" horiz-adv-x="925" 
d="M868 939q0 -7 -18 -7h-197q-29 0 -39 37l-73 192l-127 -205q-14 -25 -39 -24h-197q-16 0 -25 11t-1 26l321 493q16 25 39 25h115q27 0 39 -37l198 -494q4 -10 4 -17z" />
    <glyph glyph-name="underscore" unicode="_" horiz-adv-x="1228" 
d="M999 0h-929q-14 0 -25 10q-10 10 -8 27l22 184q4 25 29 25h930q14 0 24 -12t9 -25l-23 -184q-4 -25 -29 -25z" />
    <glyph glyph-name="grave" unicode="`" horiz-adv-x="624" 
d="M580 1186h-168q-27 0 -39 43l-133 379q-8 18 -6 24q3 6 20 6h192q33 0 41 -43l109 -378q10 -31 -16 -31z" />
    <glyph glyph-name="a" unicode="a" horiz-adv-x="944" 
d="M332 244h100q86 0 133 49l13 92h-218q-28 0 -52 -20q-24 -21 -28 -49t12 -50q15 -22 40 -22zM778 0h-205q-33 0 -36 47q-84 -49 -154 -49h-82q-113 0 -193 95t-64 225t112 210t229 80h221l2 25q12 90 -88 90h-96q-55 1 -99 -23t-49 -26q-23 -12 -40 12l-86 125
q-20 29 -3 45q137 111 330 111h90q127 -1 214 -105t69 -258l-66 -551q-2 -13 2 -33t-8 -20z" />
    <glyph glyph-name="b" unicode="b" horiz-adv-x="1011" 
d="M586 717h-72q-41 0 -74 -30t-47 -81l-35 -293q6 -68 86 -67h72q51 0 83 28t38 76l31 254q14 113 -82 113zM532 963h76q142 0 232 -116t73 -257l-30 -250q-18 -136 -134 -238t-247 -102h-76q-53 0 -104 18q-2 -18 -27 -18h-184q-14 0 -25 10q-10 10 -8 27l176 1425
q2 25 27 25h184q14 0 24 -10t9 -27l-62 -502q57 15 96 15z" />
    <glyph glyph-name="c" unicode="c" horiz-adv-x="985" 
d="M879 639h-187q-27 0 -32 34t-22 42t-63 8h-77q-47 0 -88 -38t-48 -93l-28 -234q-8 -55 18.5 -84.5t75.5 -29.5h90q52 0 98 46q16 16 46 50q18 20 45 -10l118 -117q31 -29 11 -49q-53 -53 -92 -83t-108 -56.5t-149 -26.5h-73q-152 0 -247 111.5t-79 261.5l29 233
q18 150 135 257.5t268 107.5h74q131 0 226 -95.5t85 -209.5q-3 -25 -26 -25z" />
    <glyph glyph-name="d" unicode="d" horiz-adv-x="1021" 
d="M416 246h71q43 0 76 26t41 70l37 285q-6 90 -84 90h-72q-49 0 -83 -37t-40 -88l-32 -254q-12 -92 86 -92zM770 1487h184q14 0 24 -10t9 -27l-174 -1425q-4 -25 -29 -25h-184q-18 0 -29 16q-55 -16 -102 -16h-76q-133 0 -228 108t-79 244l31 250q16 141 128 251t255 110
h75q55 0 105 -21l63 520q2 25 27 25z" />
    <glyph glyph-name="e" unicode="e" horiz-adv-x="995" 
d="M575 723h-77q-43 0 -86 -34t-47 -75l-3 -12h300l4 27q4 41 -24 67.5t-67 26.5zM520 969h78q133 0 230.5 -110.5t78.5 -264.5l-16 -133q-8 -55 -64 -55h-489l-4 -50q-8 -53 19.5 -82.5t76.5 -29.5h88q50 0 98 48q16 16 43 50q23 16 48 -12l118 -117q23 -23 11 -49
q-53 -53 -92 -83t-107 -56.5t-145 -26.5h-78q-152 0 -247 111.5t-79 261.5l29 233q18 150 134.5 257.5t268.5 107.5z" />
    <glyph glyph-name="f" unicode="f" horiz-adv-x="751" 
d="M662 1487h135q14 0 24 -10t8 -27l-22 -184q-2 -25 -27 -25h-135q-94 0 -110 -125l-19 -153h197q14 -1 24 -11t8 -26l-22 -185q-4 -25 -29 -24h-209l-84 -692q-4 -25 -28 -25h-185q-14 0 -24 10t-8 27l84 680h-113q-14 0 -25 10q-10 10 -8 27l23 184q4 25 28 25h125
l19 145q21 174 121 276t252 103z" />
    <glyph glyph-name="g" unicode="g" horiz-adv-x="1001" 
d="M418 244h90q49 0 86 37l49 399q2 25 -18 34t-68 9h-70q-47 0 -88 -38t-47 -93l-28 -234q-8 -55 18 -85q27 -29 76 -29zM770 963h121q14 -1 24 -11t9 -26l-127 -1035q-14 -115 -124 -207t-243 -94h-51q-113 0 -198 58t-128 155q-12 29 15 45l131 74q27 14 53 -20
q55 -66 121 -66h73q41 0 70 23t33 61l10 86q-33 -8 -84 -8h-74q-151 0 -245 112t-78 261l28 233q18 150 134 258t268 107h67q74 0 134 -49h4q4 43 57 43z" />
    <glyph glyph-name="h" unicode="h" horiz-adv-x="1044" 
d="M539 963h75q142 0 232 -116t74 -257l-70 -565q-4 -25 -29 -25h-184q-14 0 -25 10q-10 10 -8 27l70 569q14 111 -76 111h-82q-43 0 -77 -34t-40 -89l-69 -569q-4 -25 -29 -25h-184q-14 0 -25 10q-10 10 -8 27l176 1425q2 25 27 25h184q15 0 25 -10t8 -27l-62 -502
q58 15 97 15z" />
    <glyph glyph-name="i" unicode="i" horiz-adv-x="507" 
d="M193 965h184q14 -1 24 -11t9 -26l-111 -903q-4 -25 -29 -25h-184q-14 0 -25 10q-10 11 -8 27l113 903q2 25 27 25zM260 1487h193q14 0 24 -10t8 -27l-28 -238q-2 -25 -29 -24h-192q-16 0 -25 11q-8 12 -6 26l28 237q2 25 27 25z" />
    <glyph glyph-name="j" unicode="j" horiz-adv-x="567" 
d="M162 965h184q14 -1 24 -11t9 -26l-131 -1057q-14 -133 -104 -237t-220 -140q-35 -6 -43 31l-57 170q-8 27 10 39q61 16 113 62q51 46 59 104l129 1040q2 25 27 25zM236 1487h192q14 0 24 -10t9 -27l-29 -238q-2 -25 -29 -24h-192q-16 0 -25 11q-8 12 -6 26l29 237
q2 25 27 25z" />
    <glyph glyph-name="k" unicode="k" horiz-adv-x="1036" 
d="M680 963h217q18 0 25.5 -22.5t-13.5 -47.5l-370 -350l335 -500q27 -43 -8 -43h-186q-29 0 -51 33l-262 342l-7 -6l-41 -332q-2 -23 -11 -30t-25 -7h-177q-14 0 -24 10t-8 27l174 1413q4 37 41 37h172q14 0 24.5 -10.5t8.5 -26.5l-91 -729l232 221q18 21 45 21z" />
    <glyph glyph-name="l" unicode="l" horiz-adv-x="573" 
d="M313 1487h172q14 0 24.5 -10.5t8.5 -26.5l-174 -1413q-2 -23 -11 -30t-26 -7h-176q-14 0 -24.5 10.5t-8.5 26.5l174 1413q4 37 41 37z" />
    <glyph glyph-name="m" unicode="m" horiz-adv-x="1701" 
d="M1161 963h76q156 0 248 -115t74 -258l-70 -565q-4 -25 -29 -25h-184q-14 0 -25 10q-10 10 -8 27l70 565q6 57 -22 86t-72 29h-103q-45 0 -86 -34t-49 -93l-70 -565q-4 -25 -28 -25h-185q-14 0 -24 10t-8 27l69 565q6 57 -21 86q-28 29 -73 29h-102q-45 0 -86 -34t-50 -93
l-69 -565q-4 -25 -29 -25h-184q-14 0 -25 10q-10 10 -8 27l111 901q4 25 28 25h185q14 -1 24 -11t8 -24q74 35 140 35h75q139 0 232 -97q120 97 270 97z" />
    <glyph glyph-name="n" unicode="n" horiz-adv-x="1056" 
d="M573 963h91q156 0 225 -105.5t49 -267.5l-70 -565q-4 -25 -28 -25h-185q-14 0 -24 10t-8 27l69 565q6 51 -18.5 83t-69.5 32h-92q-45 0 -82 -38t-43 -89l-70 -565q-4 -25 -28 -25h-185q-14 0 -24 10t-8 27l110 901q4 25 29 25h184q14 0 24.5 -10.5t8.5 -26.5l-6 -33
q16 27 62 48.5t89 21.5z" />
    <glyph glyph-name="o" unicode="o" horiz-adv-x="1052" 
d="M586 723h-88q-58 0 -96 -40t-42 -91l-28 -234q-14 -115 96 -114h88q57 0 95 38t42 89l29 233q6 51 -16 85q-23 34 -80 34zM520 969h80q154 0 250 -112t78 -265l-29 -234q-20 -154 -136 -257t-269 -103h-80q-154 0 -250 110t-78 263l29 233q19 154 135 260t270 105z" />
    <glyph glyph-name="p" unicode="p" horiz-adv-x="1032" 
d="M586 717h-72q-41 0 -73 -29t-46 -80l-37 -293q6 -70 86 -69h72q51 0 83 28t38 76l31 254q14 113 -82 113zM532 963h76q142 0 232 -116t73 -257l-30 -250q-18 -136 -134 -238t-247 -102h-76q-53 0 -104 18l-50 -403q-2 -25 -26 -25h-185q-14 0 -24 10t-8 27l159 1311
q4 25 29 25h184q27 0 33 -25q49 25 98 25z" />
    <glyph glyph-name="q" unicode="q" horiz-adv-x="997" 
d="M385 246h78q98 0 119 100l34 283q-6 88 -84 88h-77q-49 0 -83 -37t-40 -88l-33 -254q-12 -92 86 -92zM682 963h184q14 -1 24 -11t9 -26l-162 -1311q-2 -25 -26 -25h-185q-14 0 -24 10t-8 27l47 387q-57 -14 -97 -14h-82q-133 0 -228 108t-79 244l31 250q16 141 128 251
t255 110h82q51 0 102 -29v4q4 25 29 25z" />
    <glyph glyph-name="r" unicode="r" horiz-adv-x="874" 
d="M555 717h-51q-47 0 -83 -37t-44 -92l-68 -563q-4 -25 -28 -25h-185q-14 0 -24.5 10t-8.5 27l111 901q4 25 29 25h184q14 0 24.5 -10.5t8.5 -26.5l-6 -33q16 27 63 48.5t90 21.5h86q119 0 183 -78q35 -14 10 -39l-154 -141q-16 -16 -37 6q-31 6 -100 6z" />
    <glyph glyph-name="s" unicode="s" horiz-adv-x="966" 
d="M438 -10h-49q-131 0 -227 81t-94 199q0 18 24 19h189q20 0 38.5 -26.5t79.5 -26.5h84q96 0 103 59q25 51 -113 63q-201 16 -286 99.5t-66.5 227.5t122 215t261.5 71h39q141 0 238.5 -88t80.5 -219q-2 -20 -28 -21h-183q-41 0 -34.5 41t-94.5 41h-67q-84 0 -90 -47
q0 -14 -4.5 -27.5t24.5 -28t92 -22.5q199 -20 285 -99t65 -241q-14 -121 -124.5 -195.5t-264.5 -74.5z" />
    <glyph glyph-name="t" unicode="t" horiz-adv-x="710" 
d="M629 963q16 0 26.5 -10.5t8.5 -26.5l-23 -185q-2 -25 -29 -24h-149l-39 -318q-4 -45 -3 -77q2 -71 93 -72q18 0 30.5 -9.5t10.5 -23.5l-23 -194q-2 -27 -16 -27q-176 -4 -272.5 69.5t-77.5 235.5l51 416h-90q-16 0 -25.5 10t-7.5 25l21 182q2 29 30 29h103l26 219
q2 25 27 24h184q14 0 24.5 -10t8.5 -27l-24 -206h135z" />
    <glyph glyph-name="u" unicode="u" horiz-adv-x="1077" 
d="M840 0h-185q-14 0 -24 10t-8 27l6 33q-17 -26 -63 -48t-89 -22h-90q-155 0 -225 105t-49 268l69 565q4 25 29 25h184q15 -1 25 -11t8 -26l-70 -566q-6 -50 19 -82t69 -32h93q45 0 82 38t43 89l69 565q4 25 29 25h184q14 -1 24 -11t9 -26l-111 -901q-4 -25 -28 -25z" />
    <glyph glyph-name="v" unicode="v" horiz-adv-x="911" 
d="M139 963h189q31 0 34 -41l66 -562l205 574q10 29 37 29h188q16 -1 26 -13t1 -28l-381 -895q-10 -27 -39 -27h-146q-30 0 -38 39l-162 895q-6 29 20 29z" />
    <glyph glyph-name="w" unicode="w" horiz-adv-x="1398" 
d="M1155 963h188q15 -1 25 -13t2 -28l-350 -895q-10 -27 -39 -27h-150q-31 0 -38 39l-91 526l-225 -538q-10 -27 -39 -27h-149q-31 0 -39 39l-131 895q-6 29 20 29h189q31 0 34 -41l62 -557l205 569q10 29 37 29h151q31 0 35 -41l68 -557l198 569q10 29 37 29z" />
    <glyph glyph-name="x" unicode="x" horiz-adv-x="968" 
d="M688 963h201q18 -1 25 -15t-3 -28l-309 -451l195 -438q12 -31 -19 -31h-198q-29 0 -43 41l-91 203l-147 -215q-20 -29 -47 -29h-201q-18 0 -26 14t2 29l309 449l-195 440q-14 31 15 31h200q29 0 43 -41l93 -205l149 217q20 29 47 29z" />
    <glyph glyph-name="y" unicode="y" horiz-adv-x="1114" 
d="M866 963h197q18 -1 24 -15t-2 -28l-706 -1301q-14 -29 -43 -29h-197q-18 0 -25 14t-1 29l256 469l-246 830q-13 29 14 31h199q31 0 39 -41l160 -514l286 526q16 29 45 29z" />
    <glyph glyph-name="z" unicode="z" horiz-adv-x="905" 
d="M745 246q17 0 27 -10t8 -27l-22 -184q-4 -25 -29 -25h-680q-14 0 -24 10t-9 27l13 119q4 27 12 37l446 524h-350q-14 0 -24 10t-9 27l23 182q4 27 29 27h678q16 -1 26 -11t8 -26l-14 -125q-4 -23 -12 -33l-445 -522h348z" />
    <glyph glyph-name="braceleft" unicode="{" horiz-adv-x="921" 
d="M694 102q14 0 24 -10t9 -26l-22 -185q-2 -25 -27 -24h-176q-154 -1 -235 109t-58 282l41 330q2 20 -4 34l-80 113q-14 31 -4 47l106 111q23 23 23 39l41 329q23 175 123 277t252 102h176q14 0 24 -10t8 -27l-22 -184q-4 -25 -29 -25h-94q-98 0 -145 -68t-64 -200
l-29 -227q0 -20 -12 -35l-106 -111l71 -118q13 -25 11 -39l-27 -228q-15 -135 9 -195t122 -61h94z" />
    <glyph glyph-name="bar" unicode="|" horiz-adv-x="573" 
d="M504 1638q14 0 24 -10t9 -26l-244 -1987q-2 -25 -27 -25h-184q-14 0 -24 10t-9 27l244 1987q2 25 26 24h185z" />
    <glyph glyph-name="braceright" unicode="}" horiz-adv-x="921" 
d="M365 1384h-95q-14 0 -24 10t-8 27l22 185q4 25 29 24h176q153 0 233 -108t58 -283l-39 -330q-4 -25 4 -35l80 -112q14 -29 2 -47l-107 -111q-20 -25 -22 -39l-41 -329q-21 -174 -121 -276t-252 -103h-176q-14 0 -25 10q-10 10 -8 27l23 184q2 25 26 24h95q98 0 146 68
t62 201l29 227q4 23 12 37l109 108l-70 119q-16 25 -14 39l29 227q16 132 -10 194t-123 62z" />
    <glyph glyph-name="asciitilde" unicode="~" horiz-adv-x="1142" 
d="M993 817l54 -135q12 -23 -15 -49q-117 -70 -250 -76t-229 57q-156 94 -328 -24q-29 -10 -39 28l-55 138q-8 23 16 47q119 70 255 76t227 -58q152 -96 327 25q31 12 37 -29z" />
    <glyph glyph-name="exclamdown" unicode="&#xa1;" horiz-adv-x="573" 
d="M373 561q14 0 24 -10t9 -27l-113 -909q-2 -25 -27 -25h-184q-14 0 -24 10t-9 27l111 910q4 25 28 24h185zM446 1077q14 0 24 -10t9 -27l-30 -247q-4 -25 -29 -25h-205q-14 0 -25 10q-10 11 -8 27l31 248q2 25 29 24h204z" />
    <glyph glyph-name="cent" unicode="&#xa2;" horiz-adv-x="985" 
d="M498 723q-47 0 -88 -38t-48 -93l-28 -234q-8 -55 18 -85t76 -29h70l59 479h-59zM879 639h-187q-12 0 -22 12l-43 -350l35 39q18 20 45 -10l118 -117q31 -29 11 -49q-131 -127 -244 -154l-31 -248q-2 -25 -29 -24h-61q-16 0 -25 11q-8 11 -6 26l27 223h-53
q-152 0 -247 112t-79 261l29 233q18 150 135 258t268 107h66l28 231q2 25 29 25h62q16 1 24 -11t6 -26l-28 -240q92 -36 149 -116t49 -168q-4 -25 -26 -25z" />
    <glyph glyph-name="sterling" unicode="&#xa3;" horiz-adv-x="1175" 
d="M618 1511h74q172 0 283 -139t90 -346q-2 -18 -27 -18h-184q-16 0 -27 12q-10 12 -8 31q27 215 -145 215h-74q-78 0 -140 -64t-61 -190q6 -84 25 -160h248q14 0 24 -10t9 -27l-23 -184q-2 -25 -29 -25h-188q0 -22 -13 -94t-35 -123t-83 -119q63 27 98 24t113 -38
q83 -29 153 -22t179 53q18 4 28 -9t8 -32l-24 -191q-2 -16 -23 -30q-116 -41 -202 -38t-183 48q-109 41 -187 31t-198 -74q-18 -4 -54 51t-30 76q25 40 57 99q31 58 54 100t30 62t22 60q15 41 34 133l4 33h-211q-16 0 -25 11q-8 11 -6 26l23 184q2 25 26 25h156
q-23 102 -22 184q-8 203 136 339t328 136z" />
    <glyph glyph-name="currency" unicode="&#xa4;" horiz-adv-x="1292" 
d="M475 244h88q57 0 95 38t42 89l29 233q6 51 -16 85q-23 34 -80 34h-88q-57 0 -95 -40t-42 -91l-29 -234q-15 -114 96 -114zM541 -2h-80q-70 0 -135 27l-74 -70q-18 -18 -39 8l-117 131q-23 25 -6 43l68 58q-37 84 -25 176l29 233q12 94 67 180l-43 50q-23 25 -4 43
l150 131q18 18 39 -9l53 -57q74 27 143 27h80q133 0 223 -84l131 123q19 18 39 -9l117 -131q23 -25 6 -43l-186 -159q2 -25 -2 -74l-29 -234q-8 -49 -16 -73l135 -156q23 -25 4 -43l-149 -131q-18 -18 -39 8l-103 113q-106 -78 -237 -78z" />
    <glyph glyph-name="yen" unicode="&#xa5;" horiz-adv-x="1105" 
d="M133 1480q0 8 19 7h202q31 0 39 -37l176 -537l316 549q12 25 39 25h202q16 0 26 -11t1 -26l-487 -797l-4 -26h393q14 -1 24 -11t8 -26l-20 -164q-4 -25 -29 -25h-403l-10 -73h393q14 0 24 -10t9 -27l-21 -164q-2 -25 -29 -25h-403l-10 -77q-4 -25 -29 -25h-184
q-14 0 -25 10q-10 10 -8 27l8 65h-123q-14 0 -24 10t-8 27l20 164q4 25 29 25h135l8 73h-123q-14 1 -24 11t-9 26l21 164q2 25 29 25h135l4 26l-283 809q-4 10 -4 18z" />
    <glyph glyph-name="brokenbar" unicode="&#xa6;" horiz-adv-x="573" 
d="M176 457h184q16 1 24 -11t7 -26l-80 -662q-4 -25 -28 -24h-185q-14 0 -24 10t-8 27l81 661q2 25 29 25zM303 1495h184q15 0 25 -10t8 -27l-82 -661q-2 -25 -28 -25h-185q-16 0 -24 12t-6 25l79 661q4 25 29 25z" />
    <glyph glyph-name="section" unicode="&#xa7;" horiz-adv-x="1241" 
d="M412 608q0 -43 36 -81t105 -50l117 -18q90 -16 161 -58l3 11q24 204 -140 233l-116 23q-86 14 -160 53q-6 -12 -6 -113zM666 1511h106q168 0 283 -126t90 -310l-6 -39q-2 -25 -27 -24h-186q-14 0 -25 10q-10 10 -8 27l4 38q10 81 -32 131t-111 50h-107q-72 0 -124 -54
t-62 -129q-9 -73 17 -115t128 -61l117 -18q170 -31 273 -172t79 -334q-14 -113 -69 -182q37 -90 22 -209q-23 -176 -162 -291t-313 -115h-94q-170 0 -288 122t-95 296l6 60q2 25 29 24h186q17 0 25 -11t6 -26l-4 -59q-6 -72 36 -116t117 -44h94q80 0 143 52q62 52 72 137
t-17 131q-28 45 -128 61l-117 21q-176 31 -275 171t-77 322q12 96 66 193l4 -2q-35 92 -23 200q21 172 149 282t298 109z" />
    <glyph glyph-name="dieresis" unicode="&#xa8;" horiz-adv-x="1034" 
d="M737 1487h250q15 0 25 -10t8 -27l-31 -248q-2 -25 -26 -24h-250q-14 0 -25 10q-10 10 -8 26l31 248q2 25 26 25zM260 1487h250q14 0 24 -10t9 -27l-31 -248q-2 -25 -27 -24h-249q-14 0 -25 10q-10 10 -8 26l30 248q2 25 27 25z" />
    <glyph glyph-name="copyright" unicode="&#xa9;" horiz-adv-x="1335" 
d="M782 600h138q10 0 16 -17t4 -34q-18 -141 -86 -193t-184 -53h-43q-109 0 -177 58t-51 194l50 387q27 240 274 240h43q117 0 176 -60t43 -209q-6 -27 -18 -26h-138q-27 0 -24 31q8 76 -57 75h-31q-31 1 -61 -23t-33 -61l-43 -346q-4 -35 14 -54t47 -20h31q28 0 58 30
t36 75q0 6 16 6zM539 197h155q119 0 206 83t101 193l66 549q14 110 -47 186t-180 76h-156q-117 0 -205 -82t-100 -192l-68 -549q-14 -111 48 -188q63 -76 180 -76zM680 1509h197q188 -1 303 -155t90 -361l-64 -516q-25 -207 -171 -355t-335 -149h-196q-188 0 -304 155
t-91 361l63 517q27 207 173 355q147 148 335 148z" />
    <glyph glyph-name="ordfeminine" unicode="&#xaa;" horiz-adv-x="653" 
d="M348 1083h35q57 0 106 25l7 55h-125q-66 0 -72 -51q-2 -16 8 -22t41 -7zM500 963q-12 0 -19 20q-47 -20 -102 -20h-31q-82 0 -133 46t-42 121q9 74 61 114t141 40h135v6q6 42 -10 58t-58 16h-36q-57 0 -111 -49q-23 -6 -31 14l-41 57q-10 23 -6 33q86 68 203 68h51
q82 1 128 -61t36 -152l-35 -277l-4 -34h-96z" />
    <glyph glyph-name="guillemotleft" unicode="&#xab;" horiz-adv-x="1208" 
d="M678 645l418 248q14 8 26 -1t11 -26l-27 -217q-2 -23 -37 -43l-166 -80l135 -86q39 -25 37 -49l-26 -217q-6 -29 -33 -6l-357 248q-31 25 -28 55l16 123q2 33 31 51zM147 645l418 248q15 8 27 -1t10 -26l-27 -217q-2 -23 -36 -43l-166 -80l135 -86q39 -25 37 -49
l-27 -217q-6 -29 -33 -6l-356 248q-31 25 -29 55l17 123q1 33 30 51z" />
    <glyph glyph-name="logicalnot" unicode="&#xac;" horiz-adv-x="1052" 
d="M166 723h745q17 0 27 -10t6 -27l-49 -403q-2 -25 -27 -25h-184q-14 0 -25 10q-10 10 -8 27l23 182h-524q-14 0 -25 10q-10 10 -8 27l22 184q2 25 27 25z" />
    <glyph glyph-name="softhyphen" unicode="&#xad;" horiz-adv-x="888" 
d="M700 395h-540q-14 1 -24 11t-9 26l23 184q2 25 28 25h541q14 0 23 -11t8 -26l-23 -184q-2 -25 -27 -25z" />
    <glyph glyph-name="registered" unicode="&#xae;" horiz-adv-x="1343" 
d="M690 807q88 0 103 125q5 51 -11 69t-55 19h-72l-24 -213h59zM852 301h-92q-43 0 -39 51l18 148q16 137 -51 137h-76l-34 -297q-4 -23 -12 -31t-27 -8h-93q-45 0 -38 51l96 776q6 61 67 62h181q111 0 169 -75q57 -75 43 -203t-114 -207q78 -70 59 -201l-18 -164
q-4 -23 -11 -31t-28 -8zM543 197h155q119 0 206 83t102 193l65 549q14 110 -47 186t-180 76h-156q-117 0 -205 -82t-100 -192l-68 -549q-13 -111 49 -187t179 -77zM684 1509h197q188 -1 303 -155t90 -361l-64 -516q-25 -207 -171 -355t-334 -149h-197q-188 0 -304 155
t-91 361l63 517q27 207 173 355q147 148 335 148z" />
    <glyph glyph-name="macron" unicode="&#xaf;" horiz-adv-x="1011" 
d="M928 1241h-664q-14 0 -24 10t-9 27l23 184q2 25 27 25h663q14 0 24 -11t9 -26l-23 -184q-1 -25 -26 -25z" />
    <glyph glyph-name="degree" unicode="&#xb0;" horiz-adv-x="923" 
d="M565 1290h-16q-102 0 -121 -125q-12 -100 82 -100h16q47 0 80 32t39 81v12q12 100 -80 100zM553 1487h31q128 0 198 -87t54 -218l-2 -23q-16 -133 -102 -213t-212 -80h-31q-129 0 -199 86t-52 219l4 23q16 133 99 213t212 80z" />
    <glyph glyph-name="plusminus" unicode="&#xb1;" horiz-adv-x="1052" 
d="M109 246h747q35 0 31 -37l-23 -184q-3 -20 -10 -22q-6 -3 -18 -3h-746q-14 0 -24 10t-9 27l23 184q4 25 29 25zM928 825q14 0 23 -10t5 -27l-22 -184q-2 -16 -6 -20t-21 -4h-254l-28 -238q-4 -25 -29 -25h-184q-14 1 -24 11t-9 26l29 226h-246q-14 0 -25 10q-10 10 -8 26
l23 185q2 25 28 24h258l29 236q2 25 27 24h184q14 0 24 -10t9 -26l-27 -224h244z" />
    <glyph glyph-name="twosuperior" unicode="&#xb2;" horiz-adv-x="655" 
d="M543 852h-344q-14 0 -25 10q-10 10 -8 27l6 49q5 41 29 63q24 23 32 31l164 154q4 4 49 40t49 71q5 35 -13 54t-52 19t-62 -22q-29 -23 -32 -56q-4 -33 -29 -32h-61q-14 0 -25 10q-10 10 -8 26l2 27q9 68 63 116t128 48h51q80 0 126 -65q45 -64 35 -144t-151 -209
l-121 -100l199 4q14 0 24 -10t9 -27l-7 -59q-4 -25 -28 -25z" />
    <glyph glyph-name="threesuperior" unicode="&#xb3;" horiz-adv-x="653" 
d="M221 854h-51q-72 0 -120 53t-40 123l4 27q2 25 27 24h61q38 0 31 -49q-4 -29 12 -45t51 -16q35 -1 65 23t34 57q8 67 -64 67h-47q-14 0 -24 10t-8 27l6 45q2 25 28 25h47q35 -1 63 25t32 63q6 59 -66 59q-36 0 -64 -22q-29 -23 -32 -56q-4 -33 -29 -32h-61q-14 0 -25 10
q-10 10 -8 26l4 27q7 68 61 116t128 48h51q80 -1 126 -61t38 -131t-86 -134q61 -61 53 -133t-62 -124t-135 -52z" />
    <glyph glyph-name="acute" unicode="&#xb4;" horiz-adv-x="645" 
d="M641 1638q19 0 27 -12t0 -31l-228 -378q-20 -31 -43 -31h-188q-16 0 -25 13q-8 14 0 30l203 379q12 31 41 30h213z" />
    <glyph glyph-name="paragraph" unicode="&#xb6;" horiz-adv-x="1155" 
d="M539 1233q-111 -26 -130 -183t87 -173zM870 1241h-84l-45 -369h84zM1108 1487q14 0 24 -10t9 -27l-174 -1425q-4 -25 -29 -25h-184q-14 0 -25 10q-10 10 -8 27l72 590h-82l-74 -602q-4 -25 -29 -25h-184q-14 0 -25 10q-10 10 -8 27l74 592q-160 18 -242 138t-59 305
t134 296q112 111 286 119h524z" />
    <glyph glyph-name="periodcentered" unicode="&#xb7;" horiz-adv-x="516" 
d="M403 778q15 0 25 -10t8 -27l-30 -247q-2 -25 -29 -25h-250q-14 0 -25 10q-10 11 -8 27l31 248q4 25 29 24h249z" />
    <glyph glyph-name="cedilla" unicode="&#xb8;" horiz-adv-x="782" 
d="M193 14h169q10 0 16 -9t3 -17q-35 -35 -21 -42q9 -4 24 -7q15 -2 19 -5q105 -10 147 -55t28 -149q-18 -143 -211 -144h-158q-84 0 -128 52t-36 133q2 8 14 8h150q8 0 16 -8q8 -9 6 -23q-3 -14 9 -17t41 -3h41q66 0 71 39q0 8 -9 11t-107 13t-120 20q-73 37 -38 123
q14 35 49 74q18 6 25 6z" />
    <glyph glyph-name="onesuperior" unicode="&#xb9;" horiz-adv-x="618" 
d="M383 1487h66q14 0 24 -10t8 -27l-69 -571q-2 -25 -29 -25h-66q-16 0 -24 12t-6 25l69 571q2 25 27 25z" />
    <glyph glyph-name="ordmasculine" unicode="&#xba;" horiz-adv-x="663" 
d="M301 387q-39 0 -70 -30t-36 -68l-7 -62q-9 -90 70 -90h31q35 0 67 32t39 71l6 61q4 39 -15 63t-54 23h-31zM299 524h45q86 0 140 -68t44 -155l-10 -88q-10 -89 -76 -151t-151 -62h-45q-86 0 -141 68q-54 68 -44 157l11 88q10 88 75 150q66 61 152 61z" />
    <glyph glyph-name="guillemotright" unicode="&#xbb;" horiz-adv-x="1208" 
d="M713 885l356 -248q33 -20 29 -55l-15 -123q-6 -33 -30 -51l-418 -248q-14 -8 -28 1q-13 9 -11 25l27 217q4 25 36 43l168 80l-135 86q-39 25 -37 50l27 217q2 31 31 6zM182 885l357 -248q33 -20 28 -55l-14 -123q-6 -33 -31 -51l-418 -248q-14 -8 -27 1t-11 25l26 217
q4 25 37 43l168 80l-135 86q-39 25 -37 50l27 217q1 31 30 6z" />
    <glyph glyph-name="onequarter" unicode="&#xbc;" horiz-adv-x="1511" 
d="M1194 451l-129 -205h102zM1313 242q16 0 24 -12t6 -25l-6 -62q-2 -25 -28 -24h-35l-10 -94q-4 -25 -29 -25h-61q-14 0 -25 10q-10 10 -8 27l10 82h-217q-35 0 -31 37v59q4 16 8 25l267 387q4 8 24 8h98q14 0 24 -10t9 -27l-43 -356h23zM383 1487h66q14 0 24 -10t8 -27
l-69 -571q-2 -25 -29 -25h-66q-16 0 -24 12t-6 25l69 571q2 25 27 25zM1188 1487h86q16 0 25 -11t1 -26l-1001 -1425q-20 -25 -43 -25h-86q-16 0 -26 11q-9 12 -1 26l1004 1425q16 25 41 25z" />
    <glyph glyph-name="onehalf" unicode="&#xbd;" horiz-adv-x="1478" 
d="M1262 0h-344q-14 0 -25 10q-10 10 -8 27l6 49q5 41 29 63q24 23 32 31l164 154q4 4 49 41t49 71t-14 53t-51 19t-62 -22t-32 -56q-4 -33 -29 -32h-61q-14 0 -25 10q-10 10 -8 26l2 27q10 68 63 116t127 48h52q80 0 126 -65q46 -64 36 -144t-152 -209l-121 -100l199 4
q14 0 24 -10t8 -27l-6 -59q-4 -25 -28 -25zM383 1487h66q14 0 24 -10t8 -27l-69 -571q-2 -25 -29 -25h-66q-16 0 -24 12t-6 25l69 571q2 25 27 25zM1188 1487h86q16 0 25 -11t1 -26l-1001 -1425q-20 -25 -43 -25h-86q-16 0 -26 11q-9 12 -1 26l1004 1425q16 25 41 25z" />
    <glyph glyph-name="threequarters" unicode="&#xbe;" horiz-adv-x="1546" 
d="M1229 451l-129 -205h102zM1348 242q16 0 24 -12t6 -25l-6 -62q-2 -25 -29 -24h-34l-11 -94q-4 -25 -28 -25h-62q-14 0 -24 10t-8 27l10 82h-217q-35 0 -31 37v59q4 16 8 25l266 387q4 8 25 8h98q15 0 25 -10t8 -27l-43 -356h23zM1223 1487h86q16 0 25 -11t1 -26
l-1001 -1425q-20 -25 -43 -25h-86q-16 0 -26 11q-9 12 -1 26l1004 1425q16 25 41 25zM391 854h-51q-72 0 -120 53t-40 123l4 27q2 25 27 24h61q38 0 31 -49q-4 -29 12 -45t51 -16q35 -1 65 23t34 57q8 67 -64 67h-47q-14 0 -24 10t-8 27l6 45q2 25 28 25h47q35 -1 63 25
t32 63q6 59 -66 59q-36 0 -64 -22q-29 -23 -32 -56q-4 -33 -29 -32h-61q-14 0 -25 10q-10 10 -8 26l4 27q7 68 61 116t128 48h51q80 -1 126 -61t35 -138q-5 -64 -83 -127q61 -61 53 -133t-62 -124t-135 -52z" />
    <glyph glyph-name="questiondown" unicode="&#xbf;" horiz-adv-x="1040" 
d="M449 -436h-87q-172 0 -278 121q-123 140 -71 392q7 35 21 63t23 48q8 20 31 40t33 32q10 10 45 29t82 41q46 22 76 33t52 21t44 31q22 22 26 50l9 72q4 25 28 24h185q14 0 24 -10t8 -27l-14 -112q-12 -106 -70 -156t-184 -102t-152 -82t-34 -95q-23 -168 135 -167h86
q78 0 127 58t57 134l6 39q2 25 27 25h186q14 0 24 -10t9 -27l-4 -39q-25 -198 -153 -312t-297 -114zM715 768h-205q-14 0 -25 10q-10 10 -8 27l31 248q2 25 29 24h204q14 0 25 -10q10 -11 8 -27l-31 -247q-4 -25 -28 -25z" />
    <glyph glyph-name="Agrave" unicode="&#xc0;" horiz-adv-x="1230" 
d="M733 606l-61 385l-158 -385h219zM1047 0h-185q-33 0 -39 39l-51 321h-360l-138 -333q-12 -27 -36 -27h-187q-16 0 -24 11t-2 28l585 1427q10 27 39 27h148q15 1 25 -11t12 -28l233 -1427q2 -15 -2 -21t-18 -6zM504 2163h192q33 0 41 -43l109 -379q10 -31 -17 -31h-167
q-27 0 -39 43l-134 379q-8 18 -5 24t20 7z" />
    <glyph glyph-name="Aacute" unicode="&#xc1;" horiz-adv-x="1230" 
d="M733 606l-61 385l-158 -385h219zM1047 0h-185q-33 0 -39 39l-51 321h-360l-138 -333q-12 -27 -36 -27h-187q-16 0 -24 11t-2 28l585 1427q10 27 39 27h148q15 1 25 -11t12 -28l233 -1427q2 -15 -2 -21t-18 -6zM887 2163h213q18 -1 26 -13t0 -30l-227 -379
q-20 -31 -43 -31h-188q-16 0 -25 13q-8 13 0 30l203 379q12 31 41 31z" />
    <glyph glyph-name="Acircumflex" unicode="&#xc2;" horiz-adv-x="1230" 
d="M733 606l-61 385l-158 -385h219zM1047 0h-185q-33 0 -39 39l-51 321h-360l-138 -333q-12 -27 -36 -27h-187q-16 0 -24 11t-2 28l585 1427q10 27 39 27h148q15 1 25 -11t12 -28l233 -1427q2 -15 -2 -21t-18 -6zM1118 1724h-186q-18 0 -43 43l-105 193l-149 -201
q-27 -35 -49 -35h-191q-16 0 -23 16t3 29l284 365q23 29 48 29h182q29 0 47 -39l197 -365q18 -35 -15 -35z" />
    <glyph glyph-name="Atilde" unicode="&#xc3;" horiz-adv-x="1230" 
d="M733 606l-61 385l-158 -385h219zM1047 0h-185q-33 0 -39 39l-51 321h-360l-138 -333q-12 -27 -36 -27h-187q-16 0 -24 11t-2 28l585 1427q10 27 39 27h148q15 1 25 -11t12 -28l233 -1427q2 -15 -2 -21t-18 -6zM1106 2042l53 -135q12 -23 -14 -49q-231 -137 -406 -19
q-98 59 -166 28q-29 -13 -88 -52q-27 -10 -36 28l-56 137q-8 23 17 48q242 141 405 18q95 -63 167 -29q30 14 87 54q31 12 37 -29z" />
    <glyph glyph-name="Adieresis" unicode="&#xc4;" horiz-adv-x="1230" 
d="M733 606l-61 385l-158 -385h219zM1047 0h-185q-33 0 -39 39l-51 321h-360l-138 -333q-12 -27 -36 -27h-187q-16 0 -24 11t-2 28l585 1427q10 27 39 27h148q15 1 25 -11t12 -28l233 -1427q2 -15 -2 -21t-18 -6zM893 2011h250q14 0 24 -10t9 -27l-31 -248q-2 -25 -27 -24
h-250q-14 0 -24 10t-8 27l30 248q2 24 27 24zM641 1702h-250q-14 0 -24 10t-9 27l31 248q2 25 27 24h250q14 0 24 -10t8 -27l-30 -248q-2 -24 -27 -24z" />
    <glyph glyph-name="Aring" unicode="&#xc5;" horiz-adv-x="1230" 
d="M733 606l-61 385l-158 -385h219zM1047 0h-185q-33 0 -39 39l-51 321h-360l-138 -333q-12 -27 -36 -27h-187q-16 0 -24 11t-2 28l585 1427q10 27 39 27h148q15 1 25 -11t12 -28l233 -1427q2 -15 -2 -21t-18 -6zM764 1907h6q25 0 45 19t25 42v6q6 47 -43 47h-6
q-23 0 -43 -18t-25 -41v-6q-6 -49 41 -49zM774 1763h-26q-84 1 -132 57t-38 138l2 22q10 82 66 134t138 51h27q82 1 132 -57t40 -140l-4 -22q-9 -82 -65 -132t-140 -51z" />
    <glyph glyph-name="AE" unicode="&#xc6;" horiz-adv-x="1845" 
d="M846 606l47 391l-264 -391h217zM975 1487h823q14 0 24.5 -10.5t8.5 -26.5l-23 -184q-2 -25 -26 -25h-613l-47 -369h467q14 0 24.5 -10t8.5 -26l-23 -185q-2 -25 -26 -24h-479l-47 -381h600q14 0 24 -10.5t8 -26.5l-22 -184q-4 -25 -29 -25h-821q-14 0 -24.5 10t-8.5 27
l41 323h-352l-227 -335q-16 -25 -41 -25h-197q-16 0 -25.5 11.5t-1.5 25.5l963 1425q16 25 41 25z" />
    <glyph glyph-name="Ccedilla" unicode="&#xc7;" horiz-adv-x="1159" 
d="M647 1509h94q182 0 288 -137t85 -348q-2 -18 -29 -18h-184q-16 0 -25.5 12t-7.5 31q14 111 -20.5 163t-124.5 52h-94q-195 0 -226 -248l-67 -557q-16 -127 19.5 -183.5t131.5 -56.5h95q186 0 215 244q2 18 28 18h185q37 0 30 -43q-23 -178 -129 -302t-260 -154
q-18 -18 -18 -25.5t5 -10.5t9 -4t15.5 -3t17.5 -5q104 -10 146 -55t28 -149q-18 -143 -211 -144h-158q-84 0 -128 51.5t-35 133.5q2 8 14 8h149q8 0 16.5 -8.5t6.5 -22.5t9 -17t40 -3h41q66 0 72 39q0 8 -9.5 11t-70 9t-109.5 13t-70.5 25.5t-26.5 55.5t36 94
q-168 20 -261 157.5t-69 338.5l70 557q27 217 162 349t325 132z" />
    <glyph glyph-name="Egrave" unicode="&#xc8;" horiz-adv-x="1138" 
d="M883 872q14 0 24.5 -10t7.5 -26l-22 -185q-2 -25 -27 -24h-479l-47 -381h600q14 0 24.5 -10.5t8.5 -26.5l-23 -184q-4 -25 -28 -25h-822q-14 0 -24 10t-8 27l176 1425q2 25 26 25h822q14 0 24 -10.5t8 -26.5l-22 -184q-2 -25 -27 -25h-612l-47 -369h467zM834 1710h-168
q-27 0 -39 43l-133 379q-8 18 -5 24.5t19 6.5h192q33 0 41 -43l109 -379q10 -31 -16 -31z" />
    <glyph glyph-name="Eacute" unicode="&#xc9;" horiz-adv-x="1138" 
d="M883 872q14 0 24.5 -10t7.5 -26l-22 -185q-2 -25 -27 -24h-479l-47 -381h600q14 0 24.5 -10.5t8.5 -26.5l-23 -184q-4 -25 -28 -25h-822q-14 0 -24 10t-8 27l176 1425q2 25 26 25h822q14 0 24 -10.5t8 -26.5l-22 -184q-2 -25 -27 -25h-612l-47 -369h467zM891 2163h213
q18 0 26.5 -12.5t-0.5 -30.5l-227 -379q-20 -31 -43 -31h-188q-16 0 -24.5 13.5t-0.5 29.5l203 379q12 31 41 31z" />
    <glyph glyph-name="Ecircumflex" unicode="&#xca;" horiz-adv-x="1138" 
d="M883 872q14 0 24.5 -10t7.5 -26l-22 -185q-2 -25 -27 -24h-479l-47 -381h600q14 0 24.5 -10.5t8.5 -26.5l-23 -184q-4 -25 -28 -25h-822q-14 0 -24 10t-8 27l176 1425q2 25 26 25h822q14 0 24 -10.5t8 -26.5l-22 -184q-2 -25 -27 -25h-612l-47 -369h467zM711 2163h182
q29 0 47 -39l197 -365q18 -35 -15 -35h-186q-18 0 -43 43l-105 193l-149 -201q-27 -35 -49 -35h-191q-16 0 -23 15.5t3 29.5l285 365q23 29 47 29z" />
    <glyph glyph-name="Edieresis" unicode="&#xcb;" horiz-adv-x="1138" 
d="M883 872q14 0 24.5 -10t7.5 -26l-22 -185q-2 -25 -27 -24h-479l-47 -381h600q14 0 24.5 -10.5t8.5 -26.5l-23 -184q-4 -25 -28 -25h-822q-14 0 -24 10t-8 27l176 1425q2 25 26 25h822q14 0 24 -10.5t8 -26.5l-22 -184q-2 -25 -27 -25h-612l-47 -369h467zM1147 2011
q14 0 24.5 -10t8.5 -27l-31 -248q-2 -25 -27 -24h-250q-14 0 -24 10.5t-8 26.5l30 248q2 25 27 24h250zM670 2011q14 0 24.5 -10t7.5 -27l-30 -248q-2 -25 -27 -24h-250q-14 0 -24.5 10.5t-8.5 26.5l31 248q2 25 27 24h250z" />
    <glyph glyph-name="Igrave" unicode="&#xcc;" horiz-adv-x="591" 
d="M266 1487h189q14 0 24 -10t8 -27l-174 -1425q-4 -25 -28 -25h-189q-14 0 -24 10t-9 27l177 1425q2 25 26 25zM473 1710h-168q-27 0 -39 43l-133 379q-8 18 -5 24t19 7h193q33 0 41 -43l108 -379q10 -31 -16 -31z" />
    <glyph glyph-name="Iacute" unicode="&#xcd;" horiz-adv-x="591" 
d="M266 1487h189q14 0 24 -10t8 -27l-174 -1425q-4 -25 -28 -25h-189q-14 0 -24 10t-9 27l177 1425q2 25 26 25zM530 2163h213q19 -1 27 -13t0 -30l-227 -379q-20 -31 -43 -31h-189q-16 0 -24 14t0 29l202 379q12 31 41 31z" />
    <glyph glyph-name="Icircumflex" unicode="&#xce;" horiz-adv-x="591" 
d="M266 1487h189q14 0 24 -10t8 -27l-174 -1425q-4 -25 -28 -25h-189q-14 0 -24 10t-9 27l177 1425q2 25 26 25zM350 2163h182q29 0 48 -39l196 -365q18 -35 -14 -35h-187q-18 0 -43 43l-104 193l-149 -201q-27 -35 -50 -35h-190q-15 0 -23 16t2 29l285 365q23 29 47 29z
" />
    <glyph glyph-name="Idieresis" unicode="&#xcf;" horiz-adv-x="591" 
d="M266 1487h189q14 0 24 -10t8 -27l-174 -1425q-4 -25 -28 -25h-189q-14 0 -24 10t-9 27l177 1425q2 25 26 25zM786 2011q14 0 24 -10t9 -27l-31 -248q-2 -25 -26 -24h-250q-14 0 -25 10q-10 11 -8 27l31 248q2 25 27 24h249zM309 2011q15 0 25 -10t8 -27l-31 -248
q-2 -25 -26 -24h-250q-14 0 -25 10q-10 11 -8 27l31 248q2 25 26 24h250z" />
    <glyph glyph-name="Eth" unicode="&#xd0;" horiz-adv-x="1245" 
d="M776 1241h-262l-45 -375h190q13 0 23 -11t8 -26l-22 -184q-2 -25 -27 -24h-203l-45 -375h248q209 -1 236 241l65 525q16 129 -27 179t-139 50zM324 1487h489q170 -1 284 -147t89 -341l-64 -524q-25 -195 -168 -335t-311 -140h-489q-14 0 -25 10q-10 10 -8 27l72 584h-93
q-14 0 -24 10t-8 26l22 185q2 25 29 24h104l74 596q2 25 27 25z" />
    <glyph glyph-name="Ntilde" unicode="&#xd1;" horiz-adv-x="1302" 
d="M1051 1487h184q14 0 24.5 -10.5t8.5 -26.5l-174 -1425q-4 -25 -29 -25h-205q-29 0 -35 29l-393 946l-119 -950q-4 -25 -28 -25h-185q-14 0 -24 10t-8 27l176 1425q2 25 26 25h205q29 0 37 -29l393 -946l119 950q2 25 27 25zM1143 2042l53 -135q12 -23 -14 -49
q-231 -137 -406 -19q-100 59 -166 27q-28 -14 -88 -51q-27 -10 -37 28l-55 137q-8 23 16 48q242 141 406 18q95 -62 167 -28q30 14 87 53q31 12 37 -29z" />
    <glyph glyph-name="Ograve" unicode="&#xd2;" horiz-adv-x="1208" 
d="M502 227h106q86 0 147 69q60 69 72 165l74 581q12 96 -25 159q-38 62 -126 63h-107q-86 0 -147 -69t-72 -165l-72 -581q-12 -96 26 -159t124 -63zM662 1509h106q176 0 288 -146t87 -349l-68 -549q-25 -203 -166 -343t-317 -140h-107q-179 0 -291 146t-85 349l69 549
q27 203 167 343q141 140 317 140zM823 1708h-168q-27 0 -39 43l-133 379q-8 18 -5 24t20 7h192q35 0 41 -43l109 -379q10 -31 -17 -31z" />
    <glyph glyph-name="Oacute" unicode="&#xd3;" horiz-adv-x="1208" 
d="M502 227h106q86 0 147 69q60 69 72 165l74 581q12 96 -25 159q-38 62 -126 63h-107q-86 0 -147 -69t-72 -165l-72 -581q-12 -96 26 -159t124 -63zM662 1509h106q176 0 288 -146t87 -349l-68 -549q-25 -203 -166 -343t-317 -140h-107q-179 0 -291 146t-85 349l69 549
q27 203 167 343q141 140 317 140zM881 2161h213q18 -1 26 -13t0 -30l-227 -379q-20 -31 -43 -31h-188q-16 0 -25 13q-8 14 0 30l203 379q12 31 41 31z" />
    <glyph glyph-name="Ocircumflex" unicode="&#xd4;" horiz-adv-x="1208" 
d="M502 227h106q86 0 147 69q60 69 72 165l74 581q12 96 -25 159q-38 62 -126 63h-107q-86 0 -147 -69t-72 -165l-72 -581q-12 -96 26 -159t124 -63zM662 1509h106q176 0 288 -146t87 -349l-68 -549q-25 -203 -166 -343t-317 -140h-107q-179 0 -291 146t-85 349l69 549
q27 203 167 343q141 140 317 140zM700 2161h183q27 0 47 -39l196 -365q16 -35 -14 -35h-186q-18 0 -43 43l-105 193l-149 -201q-27 -35 -49 -35h-191q-16 0 -23 16t3 29l284 365q23 29 47 29z" />
    <glyph glyph-name="Otilde" unicode="&#xd5;" horiz-adv-x="1208" 
d="M502 227h106q86 0 147 69q60 69 72 165l74 581q12 96 -25 159q-38 62 -126 63h-107q-86 0 -147 -69t-72 -165l-72 -581q-12 -96 26 -159t124 -63zM662 1509h106q176 0 288 -146t87 -349l-68 -549q-25 -203 -166 -343t-317 -140h-107q-179 0 -291 146t-85 349l69 549
q27 203 167 343q141 140 317 140zM1100 2040l53 -135q12 -23 -14 -50q-231 -137 -406 -18q-98 59 -166 28q-29 -13 -88 -53q-27 -10 -37 29l-55 137q-8 23 16 47q242 141 406 19q95 -63 167 -29q30 14 87 53q31 13 37 -28z" />
    <glyph glyph-name="Odieresis" unicode="&#xd6;" horiz-adv-x="1208" 
d="M502 227h106q86 0 147 69q60 69 72 165l74 581q12 96 -25 159q-38 62 -126 63h-107q-86 0 -147 -69t-72 -165l-72 -581q-12 -96 26 -159t124 -63zM662 1509h106q176 0 288 -146t87 -349l-68 -549q-25 -203 -166 -343t-317 -140h-107q-179 0 -291 146t-85 349l69 549
q27 203 167 343q141 140 317 140zM1137 2009q14 0 24 -10t8 -27l-30 -248q-2 -25 -27 -24h-250q-14 0 -24 10t-9 27l31 248q2 25 27 24h250zM659 2009q15 0 25 -10t8 -27l-30 -248q-2 -25 -27 -24h-250q-14 0 -25 10q-10 11 -8 27l31 248q2 25 27 24h249z" />
    <glyph glyph-name="multiply" unicode="&#xd7;" horiz-adv-x="956" 
d="M745 1008l117 -131q23 -25 4 -43l-202 -181l163 -186q20 -29 4 -45l-145 -129q-23 -20 -43 8l-166 188l-205 -182q-23 -18 -41 8l-114 129q-27 27 -6 45l206 183l-163 186q-25 25 -7 43l150 131q18 16 41 -8l164 -186l205 180q15 15 38 -10z" />
    <glyph glyph-name="Oslash" unicode="&#xd8;" horiz-adv-x="1208" 
d="M502 227h106q86 0 147 69q60 69 72 165l74 581q8 43 0 95l-493 -879q37 -31 94 -31zM643 1264q-86 0 -147 -69t-72 -165l-41 -334l319 568h-59zM592 -18h-107q-109 0 -198 61l-11 -18q-16 -25 -40 -25h-197q-16 0 -26 11q-9 11 -1 26l119 211q-37 106 -22 229l69 549
q27 203 167 343t317 140h106q63 0 125 -22h156q16 1 24 -11t2 -26l-37 -66q133 -152 105 -370l-68 -549q-25 -203 -166 -343t-317 -140z" />
    <glyph glyph-name="Ugrave" unicode="&#xd9;" horiz-adv-x="1187" 
d="M938 1489h184q14 0 24 -10t9 -27l-123 -1010q-25 -198 -163 -326t-334 -128h-54q-197 0 -307 134t-88 333l125 1009q2 25 27 25h184q14 0 24 -10t9 -27l-119 -969q-31 -250 164 -250h53q111 0 169 78t71 185l118 968q2 25 27 25zM793 1710h-168q-27 0 -39 43l-133 379
q-8 18 -6 25q3 6 20 6h192q33 0 41 -43l109 -379q10 -31 -16 -31z" />
    <glyph glyph-name="Uacute" unicode="&#xda;" horiz-adv-x="1187" 
d="M938 1489h184q14 0 24 -10t9 -27l-123 -1010q-25 -198 -163 -326t-334 -128h-54q-197 0 -307 134t-88 333l125 1009q2 25 27 25h184q14 0 24 -10t9 -27l-119 -969q-31 -250 164 -250h53q111 0 169 78t71 185l118 968q2 25 27 25zM850 2163h213q19 -1 27 -13t0 -30
l-228 -379q-20 -31 -43 -31h-188q-16 0 -25 13q-8 14 0 30l203 379q12 31 41 31z" />
    <glyph glyph-name="Ucircumflex" unicode="&#xdb;" horiz-adv-x="1187" 
d="M938 1489h184q14 0 24 -10t9 -27l-123 -1010q-25 -198 -163 -326t-334 -128h-54q-197 0 -307 134t-88 333l125 1009q2 25 27 25h184q14 0 24 -10t9 -27l-119 -969q-31 -250 164 -250h53q111 0 169 78t71 185l118 968q2 25 27 25zM670 2163h182q29 0 47 -39l197 -365
q18 -35 -15 -35h-186q-18 0 -43 43l-104 193l-150 -201q-27 -35 -49 -35h-191q-16 0 -23 16t3 29l285 365q23 29 47 29z" />
    <glyph glyph-name="Udieresis" unicode="&#xdc;" horiz-adv-x="1187" 
d="M938 1489h184q14 0 24 -10t9 -27l-123 -1010q-25 -198 -163 -326t-334 -128h-54q-197 0 -307 134t-88 333l125 1009q2 25 27 25h184q14 0 24 -10t9 -27l-119 -969q-31 -250 164 -250h53q111 0 169 78t71 185l118 968q2 25 27 25zM1106 2011q14 0 24 -10t9 -27l-31 -248
q-2 -25 -27 -24h-250q-14 0 -24 10t-8 27l30 248q2 25 27 24h250zM629 2011q14 0 24 -10t9 -27l-31 -248q-2 -25 -27 -24h-250q-14 0 -24 10t-8 27l30 248q2 25 27 24h250z" />
    <glyph glyph-name="Yacute" unicode="&#xdd;" horiz-adv-x="1105" 
d="M133 1480q0 8 19 7h202q31 0 39 -37l176 -537l316 549q12 25 39 25h202q16 0 26 -11t1 -26l-487 -797l-78 -628q-4 -25 -29 -25h-184q-14 0 -25 10q-10 10 -8 27l78 616l-283 809q-4 10 -4 18zM799 2163h213q18 -1 26 -13t0 -30l-227 -379q-20 -31 -43 -31h-188
q-16 0 -25 13q-8 14 0 30l203 379q12 31 41 31z" />
    <glyph glyph-name="Thorn" unicode="&#xde;" horiz-adv-x="1153" 
d="M682 928h-258l-45 -369h246q86 0 138 42q52 43 65 153t-23 142q-37 32 -123 32zM721 1174q182 0 278 -120q97 -120 73 -317t-144 -311t-301 -113h-279l-35 -288q-4 -25 -28 -25h-185q-14 0 -24 10t-8 27l176 1425q2 25 26 25h185q14 0 24 -10t8 -27l-32 -276h266z" />
    <glyph glyph-name="germandbls" unicode="&#xdf;" horiz-adv-x="1067" 
d="M465 0h-43q-14 0 -25 10q-10 10 -8 27l23 184q4 25 28 25h43q102 0 153 30q50 31 62 117l15 127q12 88 -25 122t-129 34h-53q-14 0 -25 10q-10 10 -8 27l23 184q2 25 26 25h53q82 0 108 28t34 99l10 88q8 69 -11 93t-81 23h-70q-109 0 -123 -129l-137 -1099
q-4 -25 -29 -25h-184q-14 0 -24 10t-9 27l140 1141q15 145 121 233t264 88h69q154 0 248 -95t76 -239l-12 -108q-27 -221 -189 -258q209 -72 174 -353l-10 -86q-20 -168 -147 -264t-328 -96z" />
    <glyph glyph-name="agrave" unicode="&#xe0;" horiz-adv-x="944" 
d="M332 244h100q86 0 133 49l13 92h-218q-28 0 -52 -20q-24 -21 -28 -49t12 -50q15 -22 40 -22zM778 0h-205q-33 0 -36 47q-84 -49 -154 -49h-82q-113 0 -193 95t-64 225t112 210t229 80h221l2 25q12 90 -88 90h-96q-55 1 -99 -23t-49 -26q-23 -12 -40 12l-86 125
q-20 29 -3 45q137 111 330 111h90q127 -1 214 -105t69 -258l-66 -551q-2 -13 2 -33t-8 -20zM311 1638h193q33 0 41 -43l108 -378q10 -31 -16 -31h-168q-27 0 -39 43l-133 379q-8 18 -5 24t19 6z" />
    <glyph glyph-name="aacute" unicode="&#xe1;" horiz-adv-x="944" 
d="M332 244h100q86 0 133 49l13 92h-218q-28 0 -52 -20q-24 -21 -28 -49t12 -50q15 -22 40 -22zM477 967h90q127 -1 214 -105t69 -258l-66 -551q-2 -13 2 -33t-8 -20h-205q-33 0 -36 47q-84 -49 -154 -49h-82q-113 0 -193 95t-64 225t112 210t229 80h221l2 25q12 90 -88 90
h-96q-55 1 -99 -23t-49 -26q-23 -12 -40 12l-86 125q-20 29 -3 45q137 111 330 111zM694 1638h213q19 0 27 -12t0 -31l-227 -378q-20 -31 -43 -31h-189q-16 0 -24 13t0 30l202 379q12 30 41 30z" />
    <glyph glyph-name="acircumflex" unicode="&#xe2;" horiz-adv-x="944" 
d="M332 244h100q86 0 133 49l13 92h-218q-28 0 -52 -20q-24 -21 -28 -49t12 -50q15 -22 40 -22zM477 967h90q127 -1 214 -105t69 -258l-66 -551q-2 -13 2 -33t-8 -20h-205q-33 0 -36 47q-84 -49 -154 -49h-82q-113 0 -193 95t-64 225t112 210t229 80h221l2 25q12 90 -88 90
h-96q-55 1 -99 -23t-49 -26q-23 -12 -40 12l-86 125q-20 29 -3 45q137 111 330 111zM926 1200h-187q-18 0 -43 43l-104 193l-150 -201q-27 -35 -49 -35h-190q-15 0 -23 15t2 30l285 365q23 29 47 28h182q29 0 47 -39l197 -364q18 -35 -14 -35z" />
    <glyph glyph-name="atilde" unicode="&#xe3;" horiz-adv-x="944" 
d="M332 244h100q86 0 133 49l13 92h-218q-28 0 -52 -20q-24 -21 -28 -49t12 -50q15 -22 40 -22zM477 967h90q127 -1 214 -105t69 -258l-66 -551q-2 -13 2 -33t-8 -20h-205q-33 0 -36 47q-84 -49 -154 -49h-82q-113 0 -193 95t-64 225t112 210t229 80h221l2 25q12 90 -88 90
h-96q-55 1 -99 -23t-49 -26q-23 -12 -40 12l-86 125q-20 29 -3 45q137 111 330 111zM913 1518l54 -136q12 -23 -15 -49q-231 -137 -405 -18q-99 59 -166 27q-29 -13 -88 -52q-27 -10 -37 29l-55 137q-8 23 16 47q242 141 406 19q95 -63 167 -29q30 14 87 53q30 13 36 -28z
" />
    <glyph glyph-name="adieresis" unicode="&#xe4;" horiz-adv-x="944" 
d="M332 244h100q86 0 133 49l13 92h-218q-28 0 -52 -20q-24 -21 -28 -49t12 -50q15 -22 40 -22zM477 967h90q127 -1 214 -105t69 -258l-66 -551q-2 -13 2 -33t-8 -20h-205q-33 0 -36 47q-84 -49 -154 -49h-82q-113 0 -193 95t-64 225t112 210t229 80h221l2 25q12 90 -88 90
h-96q-55 1 -99 -23t-49 -26q-23 -12 -40 12l-86 125q-20 29 -3 45q137 111 330 111zM700 1487h250q14 0 24 -10t9 -27l-31 -248q-2 -25 -26 -24h-250q-14 0 -25 10q-10 10 -8 26l31 248q1 25 26 25zM449 1178h-250q-14 0 -25 10q-10 10 -8 26l31 248q2 25 26 25h250
q15 0 25 -10t8 -27l-31 -248q-1 -24 -26 -24z" />
    <glyph glyph-name="aring" unicode="&#xe5;" horiz-adv-x="944" 
d="M332 244h100q86 0 133 49l13 92h-218q-28 0 -52 -20q-24 -21 -28 -49t12 -50q15 -22 40 -22zM778 0h-205q-33 0 -36 47q-84 -49 -154 -49h-82q-113 0 -193 95t-64 225t112 210t229 80h221l2 25q12 90 -88 90h-96q-55 1 -99 -23t-49 -26q-23 -12 -40 12l-86 125
q-20 29 -3 45q137 111 330 111h90q127 -1 214 -105t69 -258l-66 -551q-2 -13 2 -33t-8 -20zM578 1382q25 0 45 20t24 42v6q6 47 -43 47h-6q-24 0 -44 -18t-24 -41v-6q-6 -49 41 -50h7zM582 1239h-27q-84 0 -132 56t-38 139l2 22q11 82 67 133t138 51h26q82 0 132 -57
t41 -139l-5 -23q-8 -82 -64 -132t-140 -50z" />
    <glyph glyph-name="ae" unicode="&#xe6;" horiz-adv-x="1472" 
d="M328 244h61q109 0 160 45l14 73h-209q-23 0 -44 -21.5t-24 -44.5t9.5 -37.5t32.5 -14.5zM1053 723h-78q-43 0 -86 -34t-47 -75l-2 -12h299l4 27q4 41 -23.5 67.5t-66.5 26.5zM997 969h78q133 0 230.5 -110.5t78.5 -264.5l-16 -133q-8 -55 -63 -55h-490l-2 -37
q-10 -66 17.5 -95.5t76.5 -29.5h88q49 0 97 48q16 16 45 50q23 16 47 -12l119 -117q23 -23 10 -49q-53 -53 -92 -83t-106.5 -56.5t-145.5 -26.5h-78q-133 0 -227 90q-117 -90 -252 -90h-109q-115 0 -194.5 91t-64.5 216t111.5 204t227.5 79h207l4 28q14 104 -86 105h-82
q-86 0 -141 -51q-27 -8 -41 16l-86 125q-16 25 -6 47q131 109 333 109h74q115 0 195 -84q108 86 243 86z" />
    <glyph glyph-name="ccedilla" unicode="&#xe7;" horiz-adv-x="985" 
d="M520 969h74q131 0 226 -95.5t85 -209.5q-4 -25 -26 -25h-187q-27 0 -32 34t-22 42t-63 8h-77q-47 0 -88 -38t-48 -93l-28 -234q-8 -55 18.5 -84.5t75.5 -29.5h90q52 0 98 46q16 16 46 50q18 20 45 -10l118 -117q31 -29 11 -49q-72 -72 -138.5 -113t-160.5 -51
q4 -6 -4 -15t-13.5 -17.5t-7.5 -13.5t4 -8t9 -4t16.5 -3t17.5 -5q104 -10 146.5 -55t27.5 -149q-18 -143 -211 -144h-157q-84 0 -128 51.5t-36 133.5q2 8 14 8h150q8 0 16 -8.5t6 -22.5t9.5 -17t39.5 -3h41q66 0 72 39q0 8 -9.5 11t-69.5 9t-104 13q-44 6 -60 14
q-38 18 -44 68t62 126h4q-119 33 -186.5 135.5t-53.5 227.5l29 233q18 150 134.5 257.5t268.5 107.5z" />
    <glyph glyph-name="egrave" unicode="&#xe8;" horiz-adv-x="995" 
d="M575 723h-77q-43 0 -86 -34t-47 -75l-3 -12h300l4 27q4 41 -24 67.5t-67 26.5zM520 969h78q133 0 230.5 -110.5t78.5 -264.5l-16 -133q-8 -55 -64 -55h-489l-4 -50q-8 -53 19.5 -82.5t76.5 -29.5h88q50 0 98 48q16 16 43 50q23 16 48 -12l118 -117q23 -23 11 -49
q-53 -53 -92 -83t-107 -56.5t-145 -26.5h-78q-152 0 -247 111.5t-79 261.5l29 233q18 150 134.5 257.5t268.5 107.5zM653 1186h-168q-27 0 -39 43l-133 379q-8 18 -5 24t20 6h192q33 0 41 -43l109 -378q10 -31 -17 -31z" />
    <glyph glyph-name="eacute" unicode="&#xe9;" horiz-adv-x="995" 
d="M575 723h-77q-43 0 -86 -34t-47 -75l-3 -12h300l4 27q4 41 -24 67.5t-67 26.5zM520 969h78q133 0 230.5 -110.5t78.5 -264.5l-16 -133q-8 -55 -64 -55h-489l-4 -50q-8 -53 19.5 -82.5t76.5 -29.5h88q50 0 98 48q16 16 43 50q23 16 48 -12l118 -117q23 -23 11 -49
q-53 -53 -92 -83t-107 -56.5t-145 -26.5h-78q-152 0 -247 111.5t-79 261.5l29 233q18 150 134.5 257.5t268.5 107.5zM924 1638q18 0 26 -12t0 -31l-227 -378q-20 -31 -43 -31h-188q-16 0 -24.5 13.5t-0.5 29.5l203 379q12 31 41 30h213z" />
    <glyph glyph-name="ecircumflex" unicode="&#xea;" horiz-adv-x="995" 
d="M575 723h-77q-43 0 -86 -34t-47 -75l-3 -12h300l4 27q4 41 -24 67.5t-67 26.5zM520 969h78q133 0 230.5 -110.5t78.5 -264.5l-16 -133q-8 -55 -64 -55h-489l-4 -50q-8 -53 19.5 -82.5t76.5 -29.5h88q50 0 98 48q16 16 43 50q23 16 48 -12l118 -117q23 -23 11 -49
q-53 -53 -92 -83t-107 -56.5t-145 -26.5h-78q-152 0 -247 111.5t-79 261.5l29 233q18 150 134.5 257.5t268.5 107.5zM713 1638q29 0 47 -39l196 -364q18 -35 -14 -35h-186q-18 0 -43 43l-105 193l-149 -201q-27 -35 -49 -35h-191q-16 0 -23 15.5t3 29.5l284 365q23 29 47 28
h183z" />
    <glyph glyph-name="edieresis" unicode="&#xeb;" horiz-adv-x="995" 
d="M575 723h-77q-43 0 -86 -34t-47 -75l-3 -12h300l4 27q4 41 -24 67.5t-67 26.5zM520 969h78q133 0 230.5 -110.5t78.5 -264.5l-16 -133q-8 -55 -64 -55h-489l-4 -50q-8 -53 19.5 -82.5t76.5 -29.5h88q50 0 98 48q16 16 43 50q23 16 48 -12l118 -117q23 -23 11 -49
q-53 -53 -92 -83t-107 -56.5t-145 -26.5h-78q-152 0 -247 111.5t-79 261.5l29 233q18 150 134.5 257.5t268.5 107.5zM717 1487h250q14 0 24 -10.5t8 -26.5l-30 -248q-2 -25 -27 -24h-250q-14 0 -24.5 10t-8.5 26l31 248q2 25 27 25zM240 1487h249q14 0 24.5 -10.5t8.5 -26.5
l-30 -248q-2 -25 -27 -24h-250q-14 0 -24.5 10t-8.5 26l31 248q2 25 27 25z" />
    <glyph glyph-name="igrave" unicode="&#xec;" horiz-adv-x="573" 
d="M238 965h184q14 -1 24 -11t9 -26l-111 -903q-4 -25 -29 -25h-184q-14 0 -25 10q-10 11 -8 27l113 903q2 25 27 25zM442 1186h-168q-27 0 -38 43l-134 379q-8 18 -5 24t20 6h192q35 0 41 -43l109 -378q10 -31 -17 -31z" />
    <glyph glyph-name="iacute" unicode="&#xed;" horiz-adv-x="573" 
d="M238 965h184q14 -1 24 -11t9 -26l-111 -903q-4 -25 -29 -25h-184q-14 0 -25 10q-10 11 -8 27l113 903q2 25 27 25zM713 1638q18 0 26 -12t0 -31l-227 -378q-20 -31 -43 -31h-188q-16 0 -25 13q-8 14 0 30l203 379q12 31 41 30h213z" />
    <glyph glyph-name="icircumflex" unicode="&#xee;" horiz-adv-x="573" 
d="M238 965h184q14 -1 24 -11t9 -26l-111 -903q-4 -25 -29 -25h-184q-14 0 -25 10q-10 11 -8 27l113 903q2 25 27 25zM502 1638q27 0 47 -39l196 -364q16 -35 -14 -35h-186q-18 0 -43 43l-105 193l-149 -201q-27 -35 -49 -35h-191q-16 0 -23 16t3 29l284 365q23 29 47 28
h183z" />
    <glyph glyph-name="idieresis" unicode="&#xef;" horiz-adv-x="573" 
d="M238 965h184q14 -1 24 -11t9 -26l-111 -903q-4 -25 -29 -25h-184q-14 0 -25 10q-10 11 -8 27l113 903q2 25 27 25zM506 1487h250q14 0 24 -10t8 -27l-30 -248q-2 -25 -27 -24h-250q-14 0 -24 10t-8 26l30 248q2 25 27 25zM29 1487h250q14 0 24 -10t8 -27l-30 -248
q-2 -25 -27 -24h-250q-14 0 -24 10t-9 26l31 248q2 25 27 25z" />
    <glyph glyph-name="eth" unicode="&#xf0;" horiz-adv-x="1112" 
d="M542 225q91 1 110 23q20 22 34 38q37 41 60 156q23 116 7 163q-17 47 -95 55q-40 4 -103 4q-109 2 -158 -60t-62 -180t15 -159q29 -40 96 -40h96zM881 1487h209q18 0 28 -12t-2 -29l-121 -133q49 -100 45 -230q0 -336 -71 -682q-43 -199 -159 -311t-265 -110h-125
q-166 0 -261 118t-71 352t135 351t301 117t234 -22q6 -3 23 -11t22 -11q12 49 9 95t-9 127q-16 -14 -35 -15h-209q-19 1 -29 15t2 28l130 144h-62q-14 0 -25 10q-10 10 -8 27l23 184q4 25 28 24h50q102 0 180 -40q15 14 33 14z" />
    <glyph glyph-name="ntilde" unicode="&#xf1;" horiz-adv-x="1056" 
d="M573 963h91q156 0 225 -105.5t49 -267.5l-70 -565q-4 -25 -28 -25h-185q-14 0 -24 10t-8 27l69 565q6 51 -18.5 83t-69.5 32h-92q-45 0 -82 -38t-43 -89l-70 -565q-4 -25 -28 -25h-185q-14 0 -24 10t-8 27l110 901q4 25 29 25h184q14 0 24.5 -10.5t8.5 -26.5l-6 -33
q16 27 62 48.5t89 21.5zM961 1518l53 -136q12 -23 -15 -49q-231 -137 -405 -18q-98 59 -166 27q-29 -14 -88 -52q-27 -10 -37 29l-55 137q-8 23 16 47q242 141 406 19q94 -63 166 -29q30 14 88 53q31 13 37 -28z" />
    <glyph glyph-name="ograve" unicode="&#xf2;" horiz-adv-x="1052" 
d="M586 723h-88q-58 0 -96 -40t-42 -91l-28 -234q-14 -115 96 -114h88q57 0 95 38t42 89l29 233q6 51 -16 85q-23 34 -80 34zM520 969h80q154 0 250 -112t78 -265l-29 -234q-20 -154 -136 -257t-269 -103h-80q-154 0 -250 110t-78 263l29 233q19 154 135 260t270 105z
M674 1186h-168q-27 0 -39 43l-133 379q-8 18 -5 24t19 6h193q33 0 41 -43l108 -378q10 -31 -16 -31z" />
    <glyph glyph-name="oacute" unicode="&#xf3;" horiz-adv-x="1052" 
d="M586 723h-88q-58 0 -96 -40t-42 -91l-28 -234q-14 -115 96 -114h88q57 0 95 38t42 89l29 233q6 51 -16 85q-23 34 -80 34zM520 969h80q154 0 250 -112t78 -265l-29 -234q-20 -154 -136 -257t-269 -103h-80q-154 0 -250 110t-78 263l29 233q19 154 135 260t270 105z
M944 1638q18 0 26 -12t1 -31l-228 -378q-20 -31 -43 -31h-188q-16 0 -25 13q-8 14 0 30l203 379q12 31 41 30h213z" />
    <glyph glyph-name="ocircumflex" unicode="&#xf4;" horiz-adv-x="1052" 
d="M586 723h-88q-58 0 -96 -40t-42 -91l-28 -234q-14 -115 96 -114h88q57 0 95 38t42 89l29 233q6 51 -16 85q-23 34 -80 34zM520 969h80q154 0 250 -112t78 -265l-29 -234q-20 -154 -136 -257t-269 -103h-80q-154 0 -250 110t-78 263l29 233q19 154 135 260t270 105z
M733 1638q29 0 47 -39l197 -364q18 -35 -14 -35h-187q-18 0 -43 43l-104 193l-150 -201q-27 -35 -49 -35h-190q-16 0 -24 15q-7 16 3 30l285 365q23 29 47 28h182z" />
    <glyph glyph-name="otilde" unicode="&#xf5;" horiz-adv-x="1052" 
d="M586 723h-88q-58 0 -96 -40t-42 -91l-28 -234q-14 -115 96 -114h88q57 0 95 38t42 89l29 233q6 51 -16 85q-23 34 -80 34zM520 969h80q154 0 250 -112t78 -265l-29 -234q-20 -154 -136 -257t-269 -103h-80q-154 0 -250 110t-78 263l29 233q19 154 135 260t270 105z
M950 1518l54 -136q12 -23 -15 -49q-231 -137 -405 -18q-100 60 -166 27q-29 -13 -88 -52q-27 -10 -37 29l-55 137q-8 23 16 47q242 141 405 19q96 -63 167 -29q30 14 87 53q31 13 37 -28z" />
    <glyph glyph-name="odieresis" unicode="&#xf6;" horiz-adv-x="1052" 
d="M586 723h-88q-58 0 -96 -40t-42 -91l-28 -234q-14 -115 96 -114h88q57 0 95 38t42 89l29 233q6 51 -16 85q-23 34 -80 34zM520 969h80q154 0 250 -112t78 -265l-29 -234q-20 -154 -136 -257t-269 -103h-80q-154 0 -250 110t-78 263l29 233q19 154 135 260t270 105z
M737 1487h250q15 0 25 -10t8 -27l-31 -248q-2 -25 -26 -24h-250q-14 0 -25 10q-10 10 -8 26l31 248q2 25 26 25zM260 1487h250q14 0 24 -10t9 -27l-31 -248q-2 -25 -27 -24h-249q-14 0 -25 10q-10 10 -8 26l30 248q2 25 27 25z" />
    <glyph glyph-name="divide" unicode="&#xf7;" horiz-adv-x="1052" 
d="M397 420h209q14 0 24 -10t9 -27l-25 -207q-4 -25 -28 -24h-209q-14 0 -25 10q-10 10 -8 26l27 207q2 25 26 25zM174 784h748q35 0 30 -36l-22 -185q-2 -16 -7 -20t-22 -4h-745q-16 0 -25 11q-8 11 -6 25l22 185q2 24 27 24zM698 1171q14 0 24 -10t9 -26l-24 -207
q-2 -25 -29 -25h-209q-16 0 -25 11q-8 12 -6 26l25 207q2 25 26 24h209z" />
    <glyph glyph-name="oslash" unicode="&#xf8;" horiz-adv-x="1052" 
d="M516 244q57 0 95 38t42 89l21 164l-164 -291h6zM498 723q-58 0 -96 -40t-42 -91l-20 -172l170 303h-12zM494 -2h-80q-18 0 -52 4q-4 -2 -16 -2h-196q-16 0 -25 11q-8 11 -2 26l41 72q-96 109 -78 262l29 233q20 154 136 259t269 106h80q23 0 59 -4h209q16 1 24 -11t3 -26
l-41 -74q92 -113 74 -262l-29 -234q-20 -154 -136 -257t-269 -103z" />
    <glyph glyph-name="ugrave" unicode="&#xf9;" horiz-adv-x="1077" 
d="M840 0h-185q-14 0 -24 10t-8 27l6 33q-17 -26 -63 -48t-89 -22h-90q-155 0 -225 105t-49 268l69 565q4 25 29 25h184q15 -1 25 -11t8 -26l-70 -566q-6 -50 19 -82t69 -32h93q45 0 82 38t43 89l69 565q4 25 29 25h184q14 -1 24 -11t9 -26l-111 -901q-4 -25 -28 -25z
M696 1186h-168q-27 0 -39 43l-133 379q-8 18 -5 24t20 6h192q35 0 41 -43l109 -378q10 -31 -17 -31z" />
    <glyph glyph-name="uacute" unicode="&#xfa;" horiz-adv-x="1077" 
d="M840 0h-185q-14 0 -24 10t-8 27l6 33q-17 -26 -63 -48t-89 -22h-90q-155 0 -225 105t-49 268l69 565q4 25 29 25h184q15 -1 25 -11t8 -26l-70 -566q-6 -50 19 -82t69 -32h93q45 0 82 38t43 89l69 565q4 25 29 25h184q14 -1 24 -11t9 -26l-111 -901q-4 -25 -28 -25z
M967 1638q18 0 26 -12t0 -31l-227 -378q-20 -31 -43 -31h-188q-16 0 -25 13q-8 14 0 30l203 379q12 31 41 30h213z" />
    <glyph glyph-name="ucircumflex" unicode="&#xfb;" horiz-adv-x="1077" 
d="M840 0h-185q-14 0 -24 10t-8 27l6 33q-17 -26 -63 -48t-89 -22h-90q-155 0 -225 105t-49 268l69 565q4 25 29 25h184q15 -1 25 -11t8 -26l-70 -566q-6 -50 19 -82t69 -32h93q45 0 82 38t43 89l69 565q4 25 29 25h184q14 -1 24 -11t9 -26l-111 -901q-4 -25 -28 -25z
M756 1638q27 0 47 -39l196 -364q16 -35 -14 -35h-186q-18 0 -43 43l-105 193l-149 -201q-27 -35 -49 -35h-191q-16 0 -23 16t3 29l284 365q23 29 47 28h183z" />
    <glyph glyph-name="udieresis" unicode="&#xfc;" horiz-adv-x="1077" 
d="M840 0h-185q-14 0 -24 10t-8 27l6 33q-17 -26 -63 -48t-89 -22h-90q-155 0 -225 105t-49 268l69 565q4 25 29 25h184q15 -1 25 -11t8 -26l-70 -566q-6 -50 19 -82t69 -32h93q45 0 82 38t43 89l69 565q4 25 29 25h184q14 -1 24 -11t9 -26l-111 -901q-4 -25 -28 -25z
M760 1487h250q14 0 24 -10t8 -27l-30 -248q-2 -25 -27 -24h-250q-15 0 -25 10t-8 26l31 248q2 25 27 25zM283 1487h249q14 0 24 -10t9 -27l-30 -248q-2 -25 -27 -24h-250q-14 0 -25 10q-10 10 -8 26l31 248q2 25 27 25z" />
    <glyph glyph-name="yacute" unicode="&#xfd;" horiz-adv-x="1114" 
d="M866 963h197q18 -1 24 -15t-2 -28l-706 -1301q-14 -29 -43 -29h-197q-18 0 -25 14t-1 29l256 469l-246 830q-13 29 14 31h199q31 0 39 -41l160 -514l286 526q16 29 45 29zM739 1186h-188q-16 0 -25 13q-8 13 0 30l203 379q12 31 41 30h213q19 0 27 -12t0 -31l-228 -378
q-20 -31 -43 -31z" />
    <glyph glyph-name="thorn" unicode="&#xfe;" horiz-adv-x="1038" 
d="M596 717h-82q-100 0 -119 -111l-35 -280q-4 -48 14 -64t70 -16h82q107 0 117 106l31 250q8 68 -5 92t-73 23zM532 963h82q158 0 241 -108t65 -265l-31 -250q-21 -152 -127 -246t-254 -94h-82q-41 0 -104 18l-50 -403q-2 -25 -26 -25h-185q-14 0 -24 10t-8 27l129 1053v4
l96 778q2 25 27 25h184q14 0 24 -10t9 -27l-62 -502q57 15 96 15z" />
    <glyph glyph-name="ydieresis" unicode="&#xff;" horiz-adv-x="1114" 
d="M866 963h197q18 -1 24 -15t-2 -28l-706 -1301q-14 -29 -43 -29h-197q-18 0 -25 14t-1 29l256 469l-246 830q-13 29 14 31h199q31 0 39 -41l160 -514l286 526q16 29 45 29zM1001 1178h-249q-14 0 -25 10q-10 10 -8 26l31 248q2 25 26 25h250q14 0 24 -10t9 -27l-31 -248
q-2 -24 -27 -24zM524 1178h-250q-14 0 -24 10t-8 26l30 248q2 25 27 25h250q14 0 24 -10t9 -27l-31 -248q-2 -24 -27 -24z" />
    <glyph glyph-name="Amacron" unicode="&#x100;" horiz-adv-x="1230" 
d="M733 606l-61 385l-158 -385h219zM1047 0h-185q-33 0 -39 39l-51 321h-360l-138 -333q-12 -27 -36 -27h-187q-16 0 -24 11t-2 28l585 1427q10 27 39 27h148q15 1 25 -11t12 -28l233 -1427q2 -15 -2 -21t-18 -6zM449 2011h663q14 0 24 -11t9 -26l-23 -184q-2 -25 -26 -25
h-664q-14 1 -24 11t-9 26l23 185q2 24 27 24z" />
    <glyph glyph-name="amacron" unicode="&#x101;" horiz-adv-x="944" 
d="M332 244h100q86 0 133 49l13 92h-218q-28 0 -52 -20q-24 -21 -28 -49t12 -50q15 -22 40 -22zM477 967h90q127 -1 214 -105t69 -258l-66 -551q-2 -13 2 -33t-8 -20h-205q-33 0 -36 47q-84 -49 -154 -49h-82q-113 0 -193 95t-64 225t112 210t229 80h221l2 25q12 90 -88 90
h-96q-55 1 -99 -23t-49 -26q-23 -12 -40 12l-86 125q-20 29 -3 45q137 111 330 111zM256 1487h664q14 0 24 -11t8 -26l-22 -184q-2 -25 -27 -25h-663q-14 0 -25 10q-10 10 -8 27l22 184q2 25 27 25z" />
    <glyph glyph-name="Abreve" unicode="&#x102;" horiz-adv-x="1230" 
d="M733 606l-61 385l-158 -385h219zM1047 0h-185q-33 0 -39 39l-51 321h-360l-138 -333q-12 -27 -36 -27h-187q-16 0 -24 11t-2 28l585 1427q10 27 39 27h148q15 1 25 -11t12 -28l233 -1427q2 -15 -2 -21t-18 -6zM985 2163h143q37 0 33 -43q-20 -146 -108 -234t-226 -88
h-120q-139 0 -211 96t-56 250q2 18 27 19h143q37 0 33 -43q-5 -43 17 -80t77 -37h84q55 0 92 45t45 96q2 19 27 19z" />
    <glyph glyph-name="abreve" unicode="&#x103;" horiz-adv-x="944" 
d="M332 244h100q86 0 133 49l13 92h-218q-28 0 -52 -20q-24 -21 -28 -49t12 -50q15 -22 40 -22zM477 967h90q127 -1 214 -105t69 -258l-66 -551q-2 -13 2 -33t-8 -20h-205q-33 0 -36 47q-84 -49 -154 -49h-82q-113 0 -193 95t-64 225t112 210t229 80h221l2 25q12 90 -88 90
h-96q-55 1 -99 -23t-49 -26q-23 -12 -40 12l-86 125q-20 29 -3 45q137 111 330 111zM793 1638h143q37 0 33 -43q-21 -145 -109 -233t-225 -88h-121q-139 0 -211 96t-55 250q2 18 26 18h144q37 0 33 -43q-5 -43 17 -79t77 -37h84q55 0 92 45t45 96q2 18 27 18z" />
    <glyph glyph-name="Aogonek" unicode="&#x104;" horiz-adv-x="1230" 
d="M733 606l-61 385l-158 -385h219zM764 -227h246q10 -1 17 -11t5 -20l-14 -113q-2 -14 -17 -14h-272q-104 0 -151 40t-35 136q6 49 19 79q20 47 96 67q19 4 77 12q123 10 142 51h-15q-33 0 -39 39l-51 321h-360l-138 -333q-12 -27 -36 -27h-187q-16 0 -24 11t-2 28
l585 1427q10 27 39 27h148q30 0 37 -39l233 -1427q0 -16 -2 -21q10 -100 -26 -138t-111 -48q-133 -11 -174 -19q-43 0 -45 -28q-2 -4 6 -2q31 2 49 2z" />
    <glyph glyph-name="aogonek" unicode="&#x105;" horiz-adv-x="944" 
d="M332 244h100q86 0 133 49l13 92h-218q-28 0 -52 -20q-24 -21 -28 -49t12 -50q15 -22 40 -22zM778 0h-6q8 -96 -28 -133t-111 -47q-133 -10 -174 -19q-43 0 -45 -28q-2 -4 6 -2h4l45 2h246q10 -1 17 -11t5 -20l-14 -113q-2 -14 -16 -14h-273q-104 0 -151 40t-35 136
q6 49 19 79q21 48 97 67q19 4 76 12q123 10 142 51h-9q-33 0 -36 47q-84 -49 -154 -49h-82q-113 0 -193 95t-64 225t112 210t229 80h221l2 25q12 90 -88 90h-96q-55 1 -99 -23t-49 -26q-23 -12 -40 12l-86 125q-20 29 -3 45q137 111 330 111h90q127 -1 214 -105t69 -258
l-66 -551q-2 -13 2 -33t-8 -20z" />
    <glyph glyph-name="Cacute" unicode="&#x106;" horiz-adv-x="1159" 
d="M825 481h185q37 0 30 -43q-27 -203 -159.5 -334t-315.5 -131h-94q-190 0 -299 140.5t-82 357.5l70 557q27 217 162 349t325 132h94q182 0 288 -137t85 -348q-2 -18 -29 -18h-184q-16 0 -25.5 12t-7.5 31q14 111 -20.5 163t-124.5 52h-94q-195 0 -226 -248l-67 -557
q-16 -127 19.5 -183.5t131.5 -56.5h95q186 0 215 244q1 18 28 18zM891 2163h213q18 0 26.5 -12.5t-0.5 -30.5l-227 -379q-20 -31 -43 -31h-188q-16 0 -24.5 13.5t-0.5 29.5l203 379q12 31 41 31z" />
    <glyph glyph-name="cacute" unicode="&#x107;" horiz-adv-x="985" 
d="M879 639h-187q-27 0 -32 34t-22 42t-63 8h-77q-47 0 -88 -38t-48 -93l-28 -234q-8 -55 18.5 -84.5t75.5 -29.5h90q52 0 98 46q16 16 46 50q18 20 45 -10l118 -117q31 -29 11 -49q-53 -53 -92 -83t-108 -56.5t-149 -26.5h-73q-152 0 -247 111.5t-79 261.5l29 233
q18 150 135 257.5t268 107.5h74q131 0 226 -95.5t85 -209.5q-3 -25 -26 -25zM920 1638q18 0 26 -12t0 -31l-227 -378q-20 -31 -43 -31h-189q-16 0 -24 13.5t0 29.5l203 379q12 31 41 30h213z" />
    <glyph glyph-name="Cdotaccent" unicode="&#x10a;" horiz-adv-x="1159" 
d="M825 481h185q37 0 30 -43q-27 -203 -159.5 -334t-315.5 -131h-94q-190 0 -299 140.5t-82 357.5l70 557q27 217 162 349t325 132h94q182 0 288 -137t85 -348q-2 -18 -29 -18h-184q-16 0 -25.5 12t-7.5 31q14 111 -20.5 163t-124.5 52h-94q-195 0 -226 -248l-67 -557
q-16 -127 19.5 -183.5t131.5 -56.5h95q186 0 215 244q1 18 28 18zM909 2011q14 0 24.5 -10t8.5 -27l-31 -248q-2 -25 -26 -24h-250q-14 0 -24.5 10.5t-8.5 26.5l31 248q2 25 26 24h250z" />
    <glyph glyph-name="cdotaccent" unicode="&#x10b;" horiz-adv-x="985" 
d="M879 639h-187q-27 0 -32 34t-22 42t-63 8h-77q-47 0 -88 -38t-48 -93l-28 -234q-8 -55 18.5 -84.5t75.5 -29.5h90q52 0 98 46q16 16 46 50q18 20 45 -10l118 -117q31 -29 11 -49q-53 -53 -92 -83t-108 -56.5t-149 -26.5h-73q-152 0 -247 111.5t-79 261.5l29 233
q18 150 135 257.5t268 107.5h74q131 0 226 -95.5t85 -209.5q-3 -25 -26 -25zM475 1487h250q14 0 24.5 -10.5t8.5 -26.5l-31 -248q-2 -25 -27 -24h-249q-14 0 -24.5 10t-8.5 26l31 248q2 25 26 25z" />
    <glyph glyph-name="Ccaron" unicode="&#x10c;" horiz-adv-x="1159" 
d="M825 481h185q37 0 30 -43q-27 -203 -159.5 -334t-315.5 -131h-94q-190 0 -299 140.5t-82 357.5l70 557q27 217 162 349t325 132h94q182 0 288 -137t85 -348q-2 -18 -29 -18h-184q-16 0 -25.5 12t-7.5 31q14 111 -20.5 163t-124.5 52h-94q-195 0 -226 -248l-67 -557
q-16 -127 19.5 -183.5t131.5 -56.5h95q186 0 215 244q1 18 28 18zM449 2163h180q18 0 45 -45l102 -191l150 201q27 35 49 35h190q16 0 25.5 -14.5t-0.5 -30.5l-287 -367q-20 -27 -51 -27h-182q-27 0 -43 33l-195 369q-8 14 -3 25.5t20 11.5z" />
    <glyph glyph-name="ccaron" unicode="&#x10d;" horiz-adv-x="985" 
d="M879 639h-187q-27 0 -32 34t-22 42t-63 8h-77q-47 0 -88 -38t-48 -93l-28 -234q-8 -55 18.5 -84.5t75.5 -29.5h90q52 0 98 46q16 16 46 50q18 20 45 -10l118 -117q31 -29 11 -49q-53 -53 -92 -83t-108 -56.5t-149 -26.5h-73q-152 0 -247 111.5t-79 261.5l29 233
q18 150 135 257.5t268 107.5h74q131 0 226 -95.5t85 -209.5q-3 -25 -26 -25zM264 1638h180q18 0 45 -45l103 -190l149 201q27 35 50 34h190q16 0 25.5 -14t-0.5 -31l-287 -366q-20 -27 -51 -27h-183q-27 0 -43 33l-194 369q-8 14 -3 25t19 11z" />
    <glyph glyph-name="Dcaron" unicode="&#x10e;" horiz-adv-x="1191" 
d="M723 1241h-262l-121 -995h248q208 -1 235 241l66 525q16 129 -27 179t-139 50zM270 1487h490q170 -1 284 -147t89 -341l-64 -524q-25 -195 -168 -335t-311 -140h-490q-14 0 -24 10t-8 27l176 1425q1 25 26 25zM944 2163h191q16 -1 25 -15t-1 -30l-287 -367
q-20 -27 -51 -27h-182q-27 0 -43 33l-195 369q-8 14 -3 25t20 12h180q18 0 45 -45l102 -191l150 201q26 35 49 35z" />
    <glyph glyph-name="dcaron" unicode="&#x10f;" horiz-adv-x="1464" 
d="M416 246h71q43 0 76 26t41 70l37 285q-6 90 -84 90h-72q-49 0 -83 -37t-40 -88l-32 -254q-12 -92 86 -92zM1149 1487h250q33 0 31 -37l-35 -287q-27 -217 -166 -368q-20 -12 -41 12l-76 78q-29 29 -14 49q53 41 72 95t28 134l19 15h-95q-14 0 -24 10t-8 26l30 248
q2 25 29 25zM770 1487h184q14 0 24 -10t9 -27l-174 -1425q-4 -25 -29 -25h-184q-18 0 -29 16q-55 -16 -102 -16h-76q-133 0 -228 108t-79 244l31 250q16 141 128 251t255 110h75q55 0 105 -21l63 520q2 25 27 25z" />
    <glyph glyph-name="Dcroat" unicode="&#x110;" horiz-adv-x="1245" 
d="M776 1241h-262l-45 -375h190q13 0 23 -11t8 -26l-22 -184q-2 -25 -27 -24h-203l-45 -375h248q209 -1 236 241l65 525q16 129 -27 179t-139 50zM324 1487h489q170 -1 284 -147t89 -341l-64 -524q-25 -195 -168 -335t-311 -140h-489q-14 0 -25 10q-10 10 -8 27l72 584h-93
q-14 0 -24 10t-8 26l22 185q2 25 29 24h104l74 596q2 25 27 25z" />
    <glyph glyph-name="dcroat" unicode="&#x111;" horiz-adv-x="1021" 
d="M416 246h71q43 0 76 26t41 70l37 285q-6 90 -84 90h-72q-49 0 -83 -37t-40 -88l-32 -254q-12 -92 86 -92zM1055 1319q14 0 24 -11t8 -26l-22 -184q-2 -25 -27 -25h-96l-129 -1048q-4 -25 -29 -25h-184q-18 0 -29 16q-55 -16 -102 -16h-76q-133 0 -228 108t-79 244l31 250
q16 141 128 251t255 110h75q55 0 105 -21l16 131h-321q-14 0 -25 10q-10 10 -8 27l23 184q2 25 26 25h334l18 143q2 25 27 25h184q14 0 24 -10t9 -27l-16 -131h84z" />
    <glyph glyph-name="Emacron" unicode="&#x112;" horiz-adv-x="1138" 
d="M883 872q14 0 24.5 -10t7.5 -26l-22 -185q-2 -25 -27 -24h-479l-47 -381h600q14 0 24.5 -10.5t8.5 -26.5l-23 -184q-4 -25 -28 -25h-822q-14 0 -24 10t-8 27l176 1425q2 25 26 25h822q14 0 24 -10.5t8 -26.5l-22 -184q-2 -25 -27 -25h-612l-47 -369h467zM1100 1765h-664
q-14 0 -24.5 10.5t-8.5 26.5l23 185q2 25 27 24h663q14 0 24.5 -11t8.5 -26l-23 -184q-1 -25 -26 -25z" />
    <glyph glyph-name="emacron" unicode="&#x113;" horiz-adv-x="995" 
d="M575 723h-77q-43 0 -86 -34t-47 -75l-3 -12h300l4 27q4 41 -24 67.5t-67 26.5zM520 969h78q133 0 230.5 -110.5t78.5 -264.5l-16 -133q-8 -55 -64 -55h-489l-4 -50q-8 -53 19.5 -82.5t76.5 -29.5h88q50 0 98 48q16 16 43 50q23 16 48 -12l118 -117q23 -23 11 -49
q-53 -53 -92 -83t-107 -56.5t-145 -26.5h-78q-152 0 -247 111.5t-79 261.5l29 233q18 150 134.5 257.5t268.5 107.5zM920 1241h-664q-14 0 -24.5 10.5t-8.5 26.5l23 184q2 25 26 25h664q14 0 24.5 -11.5t8.5 -25.5l-23 -184q-1 -25 -26 -25z" />
    <glyph glyph-name="Edotaccent" unicode="&#x116;" horiz-adv-x="1138" 
d="M883 872q14 0 24.5 -10t7.5 -26l-22 -185q-2 -25 -27 -24h-479l-47 -381h600q14 0 24.5 -10.5t8.5 -26.5l-23 -184q-4 -25 -28 -25h-822q-14 0 -24 10t-8 27l176 1425q2 25 26 25h822q14 0 24 -10.5t8 -26.5l-22 -184q-2 -25 -27 -25h-612l-47 -369h467zM909 2011
q14 0 24.5 -10t8.5 -27l-31 -248q-2 -25 -26 -24h-250q-14 0 -24.5 10.5t-8.5 26.5l31 248q2 25 26 24h250z" />
    <glyph glyph-name="edotaccent" unicode="&#x117;" horiz-adv-x="995" 
d="M575 723h-77q-43 0 -86 -34t-47 -75l-3 -12h300l4 27q4 41 -24 67.5t-67 26.5zM520 969h78q133 0 230.5 -110.5t78.5 -264.5l-16 -133q-8 -55 -64 -55h-489l-4 -50q-8 -53 19.5 -82.5t76.5 -29.5h88q50 0 98 48q16 16 43 50q23 16 48 -12l118 -117q23 -23 11 -49
q-53 -53 -92 -83t-107 -56.5t-145 -26.5h-78q-152 0 -247 111.5t-79 261.5l29 233q18 150 134.5 257.5t268.5 107.5zM479 1487h250q14 0 24.5 -10.5t8.5 -26.5l-31 -248q-2 -25 -26 -24h-250q-14 0 -24.5 10t-8.5 26l31 248q2 25 26 25z" />
    <glyph glyph-name="Eogonek" unicode="&#x118;" horiz-adv-x="1138" 
d="M270 1487h822q14 0 24 -10.5t8 -26.5l-22 -184q-2 -25 -27 -25h-612l-47 -369h467q14 0 24.5 -10t7.5 -26l-22 -185q-2 -25 -27 -24h-479l-47 -381h600q14 0 24.5 -10.5t8.5 -26.5l-23 -184l-2 -9v-2q12 -104 -23.5 -144t-113.5 -50q-133 -10 -174 -19q-43 0 -45 -28
q-2 -4 6 -2q31 2 49 2h246q10 0 17.5 -10.5t4.5 -20.5l-14 -113q-2 -14 -16 -14h-273q-104 0 -151 40t-35 136q6 49 19.5 79t45 46t51 20.5t76.5 12.5q123 10 142 51h-660q-14 0 -24 10t-8 27l176 1425q1 25 26 25z" />
    <glyph glyph-name="eogonek" unicode="&#x119;" horiz-adv-x="995" 
d="M575 723h-77q-43 0 -86 -34t-47 -75l-3 -12h300l4 27q4 41 -24 67.5t-67 26.5zM520 969h78q133 0 230.5 -110.5t78.5 -264.5l-16 -133q-8 -55 -64 -55h-489l-4 -50q-8 -53 19.5 -82.5t76.5 -29.5h88q50 0 98 48q16 16 43 50q23 16 48 -12l118 -117q23 -23 11 -49
q-104 -104 -193 -139v-11q12 -104 -23.5 -144t-113.5 -50q-133 -10 -174 -19q-43 0 -45 -28q-2 -4 6 -2h4l45 2h246q10 0 17 -10.5t5 -20.5l-14 -113q-2 -14 -16 -14h-273q-104 0 -151 40t-35 136q6 49 19.5 79t45 46t51 20.5t76.5 12.5q121 10 142 49h-41
q-152 0 -247 111.5t-79 261.5l29 233q18 150 134.5 257.5t268.5 107.5z" />
    <glyph glyph-name="Ecaron" unicode="&#x11a;" horiz-adv-x="1138" 
d="M883 872q14 0 24.5 -10t7.5 -26l-22 -185q-2 -25 -27 -24h-479l-47 -381h600q14 0 24.5 -10.5t8.5 -26.5l-23 -184q-4 -25 -28 -25h-822q-14 0 -24 10t-8 27l176 1425q2 25 26 25h822q14 0 24 -10.5t8 -26.5l-22 -184q-2 -25 -27 -25h-612l-47 -369h467zM449 2163h180
q18 0 45 -45l102 -191l150 201q27 35 49 35h190q16 0 25.5 -14.5t-0.5 -30.5l-287 -367q-20 -27 -51 -27h-182q-27 0 -43 33l-195 369q-8 14 -3 25.5t20 11.5z" />
    <glyph glyph-name="ecaron" unicode="&#x11b;" horiz-adv-x="995" 
d="M575 723h-77q-43 0 -86 -34t-47 -75l-3 -12h300l4 27q4 41 -24 67.5t-67 26.5zM520 969h78q133 0 230.5 -110.5t78.5 -264.5l-16 -133q-8 -55 -64 -55h-489l-4 -50q-8 -53 19.5 -82.5t76.5 -29.5h88q50 0 98 48q16 16 43 50q23 16 48 -12l118 -117q23 -23 11 -49
q-53 -53 -92 -83t-107 -56.5t-145 -26.5h-78q-152 0 -247 111.5t-79 261.5l29 233q18 150 134.5 257.5t268.5 107.5zM268 1638h181q18 0 45 -45l102 -190l149 201q27 35 50 34h190q16 0 25.5 -14t-0.5 -31l-287 -366q-20 -27 -51 -27h-183q-27 0 -43 33l-194 369
q-8 14 -3 25t19 11z" />
    <glyph glyph-name="Gbreve" unicode="&#x11e;" horiz-adv-x="1173" 
d="M637 770h412q14 0 24 -10t8 -27l-34 -289q-27 -207 -161 -339t-317 -132h-98q-190 0 -299 140.5t-82 357.5l70 557q27 217 162 349t325 132h98q182 0 288 -137t85 -348q-2 -18 -28 -18h-185q-16 0 -25.5 12t-7.5 31q14 111 -20.5 163t-124.5 52h-98q-195 0 -226 -248
l-67 -557q-16 -127 19.5 -183.5t131.5 -56.5h99q184 0 215 238l8 67h-188q-14 0 -24.5 10.5t-8.5 26.5l22 184q2 25 27 25zM989 2163h144q37 0 32 -43q-20 -145 -108 -233.5t-226 -88.5h-120q-139 0 -211 96.5t-56 249.5q2 18 27 19h143q37 0 33 -43t17.5 -80t76.5 -37h84
q55 0 92 45t46 96q1 19 26 19z" />
    <glyph glyph-name="gbreve" unicode="&#x11f;" horiz-adv-x="1001" 
d="M418 244h90q49 0 86 37l49 399q2 25 -18 34t-68 9h-70q-47 0 -88 -38t-47 -93l-28 -234q-8 -55 18 -85q27 -29 76 -29zM770 963h121q14 -1 24 -11t9 -26l-127 -1035q-14 -115 -124 -207t-243 -94h-51q-113 0 -198 58t-128 155q-12 29 15 45l131 74q27 14 53 -20
q55 -66 121 -66h73q41 0 70 23t33 61l10 86q-33 -8 -84 -8h-74q-151 0 -245 112t-78 261l28 233q18 150 134 258t268 107h67q74 0 134 -49h4q4 43 57 43zM813 1638h143q37 0 33 -43q-20 -145 -108 -233t-226 -88h-120q-139 0 -211 96t-56 250q2 18 27 18h143q37 0 33 -43
q-5 -43 17 -79t77 -37h84q55 0 92 45t45 96q2 18 27 18z" />
    <glyph glyph-name="Gdotaccent" unicode="&#x120;" horiz-adv-x="1173" 
d="M637 770h412q14 0 24 -10t8 -27l-34 -289q-27 -207 -161 -339t-317 -132h-98q-190 0 -299 140.5t-82 357.5l70 557q27 217 162 349t325 132h98q182 0 288 -137t85 -348q-2 -18 -28 -18h-185q-16 0 -25.5 12t-7.5 31q14 111 -20.5 163t-124.5 52h-98q-195 0 -226 -248
l-67 -557q-16 -127 19.5 -183.5t131.5 -56.5h99q184 0 215 238l8 67h-188q-14 0 -24.5 10.5t-8.5 26.5l22 184q2 25 27 25zM909 2011q14 0 24.5 -10t8.5 -27l-31 -248q-2 -25 -26 -24h-250q-14 0 -24.5 10.5t-8.5 26.5l31 248q2 25 26 24h250z" />
    <glyph glyph-name="gdotaccent" unicode="&#x121;" horiz-adv-x="1001" 
d="M418 244h90q49 0 86 37l49 399q2 25 -18 34t-68 9h-70q-47 0 -88 -38t-47 -93l-28 -234q-8 -55 18 -85q27 -29 76 -29zM770 963h121q14 -1 24 -11t9 -26l-127 -1035q-14 -115 -124 -207t-243 -94h-51q-113 0 -198 58t-128 155q-12 29 15 45l131 74q27 14 53 -20
q55 -66 121 -66h73q41 0 70 23t33 61l10 86q-33 -8 -84 -8h-74q-151 0 -245 112t-78 261l28 233q18 150 134 258t268 107h67q74 0 134 -49h4q4 43 57 43zM483 1487h250q15 0 25 -10t8 -27l-31 -248q-2 -25 -26 -24h-250q-14 0 -25 10q-10 10 -8 26l31 248q2 25 26 25z" />
    <glyph glyph-name="Gcommaaccent" unicode="&#x122;" horiz-adv-x="1173" 
d="M295 -410h250q16 0 24.5 -11t5.5 -25l-34 -287q-27 -217 -166 -369q-20 -12 -41 12l-76 78q-29 29 -14 49q53 41 72.5 95.5t27.5 134.5l18 14h-94q-14 0 -24.5 10.5t-7.5 26.5l30 248q2 24 29 24zM637 770h412q14 0 24 -10t8 -27l-34 -289q-27 -207 -161 -339t-317 -132
h-98q-190 0 -299 140.5t-82 357.5l70 557q27 217 162 349t325 132h98q182 0 288 -137t85 -348q-2 -18 -28 -18h-185q-16 0 -25.5 12t-7.5 31q14 111 -20.5 163t-124.5 52h-98q-195 0 -226 -248l-67 -557q-16 -127 19.5 -183.5t131.5 -56.5h99q184 0 215 238l8 67h-188
q-14 0 -24.5 10.5t-8.5 26.5l22 184q2 25 27 25z" />
    <glyph glyph-name="gcommaaccent" unicode="&#x123;" horiz-adv-x="1001" 
d="M418 244h90q49 0 86 37l49 399q2 25 -18 34t-68 9h-70q-47 0 -88 -38t-47 -93l-28 -234q-8 -55 18 -85q27 -29 76 -29zM770 963h121q14 -1 24 -11t9 -26l-127 -1035q-14 -115 -124 -207t-243 -94h-51q-113 0 -198 58t-128 155q-12 29 15 45l131 74q27 14 53 -20
q55 -66 121 -66h73q41 0 70 23t33 61l10 86q-33 -8 -84 -8h-74q-151 0 -245 112t-78 261l28 233q18 150 134 258t268 107h67q74 0 134 -49h4q4 43 57 43zM629 1176h-250q-14 0 -25 10q-10 10 -8 26l35 287q31 223 168 369q18 12 41 -13l76 -77q27 -27 14 -49
q-52 -41 -72 -95t-30 -135l-17 -14h94q17 0 25 -11t6 -26l-31 -248q-1 -24 -26 -24z" />
    <glyph glyph-name="Hbar" unicode="&#x126;" horiz-adv-x="1210" 
d="M864 831l25 209h-453l-24 -209h452zM969 1487h184q15 0 25 -10t8 -27l-21 -166h13l-29 -244h-12l-125 -1015q-4 -25 -29 -25h-184q-14 0 -25 10q-10 10 -8 27l68 549h-453l-68 -561q-4 -25 -28 -25h-185q-14 0 -24 10t-8 27l176 1425q2 25 26 25h185q14 0 24 -10t8 -27
l-20 -166h453l22 178q2 25 27 25z" />
    <glyph glyph-name="hbar" unicode="&#x127;" horiz-adv-x="1112" 
d="M539 963h75q142 0 232 -116t74 -257l-70 -565q-4 -25 -29 -25h-184q-14 0 -25 10q-10 10 -8 27l70 569q14 111 -76 111h-82q-43 0 -77 -34t-40 -89l-69 -569q-4 -25 -29 -25h-184q-14 0 -25 10q-10 10 -8 27l129 1044h-43q-14 1 -24 11t-9 26l23 182q2 25 28 25h56
l16 137q2 25 27 25h184q15 0 25 -10t8 -27l-15 -125h207q16 0 24 -11t7 -26l-22 -182q-2 -25 -27 -25h-219l-17 -133q58 15 97 15z" />
    <glyph glyph-name="Imacron" unicode="&#x12a;" horiz-adv-x="591" 
d="M266 1487h189q14 0 24 -10t8 -27l-174 -1425q-4 -25 -28 -25h-189q-14 0 -24 10t-9 27l177 1425q2 25 26 25zM739 1765h-663q-14 1 -24 11t-9 26l23 185q2 25 26 24h664q14 0 24 -11t8 -26l-22 -184q-2 -25 -27 -25z" />
    <glyph glyph-name="imacron" unicode="&#x12b;" horiz-adv-x="573" 
d="M238 965h184q14 -1 24 -11t9 -26l-111 -903q-4 -25 -29 -25h-184q-14 0 -25 10q-10 11 -8 27l113 903q2 25 27 25zM709 1241h-664q-14 0 -25 10q-10 10 -8 27l23 184q2 25 26 25h664q15 0 25 -11t8 -26l-23 -184q-1 -25 -26 -25z" />
    <glyph glyph-name="Iogonek" unicode="&#x12e;" horiz-adv-x="591" 
d="M266 1487h189q14 0 24 -10t8 -27l-174 -1425q-4 -25 -28 -25h-4q8 -96 -28 -133t-112 -47q-133 -10 -174 -19q-43 0 -45 -28q-2 -4 6 -2q31 2 49 2h246q9 -1 17 -11t6 -20l-15 -113q-2 -14 -16 -14h-272q-104 0 -152 40q-47 40 -35 137t65 124q32 16 51 20t77 13
q123 10 141 51q-31 4 -27 37l177 1425q1 25 26 25z" />
    <glyph glyph-name="iogonek" unicode="&#x12f;" horiz-adv-x="573" 
d="M238 965h184q14 -1 24 -11t9 -26l-111 -903q-4 -25 -29 -25h-6q9 -96 -27 -133t-112 -47q-133 -10 -174 -19q-43 0 -45 -28q-2 -4 6 -2q31 2 49 2h246q10 -1 17 -11t5 -20l-14 -113q-2 -14 -16 -14h-273q-104 0 -151 40t-35 136q6 49 19 79q21 48 97 67q19 4 76 12
q125 10 144 53q-27 8 -23 35l113 903q2 25 27 25zM268 1487h250q14 0 24 -10t9 -27l-31 -248q-2 -25 -26 -24h-250q-14 0 -25 10q-10 10 -8 26l31 248q1 25 26 25z" />
    <glyph glyph-name="Idotaccent" unicode="&#x130;" horiz-adv-x="591" 
d="M266 1487h189q14 0 24 -10t8 -27l-174 -1425q-4 -25 -28 -25h-189q-14 0 -24 10t-9 27l177 1425q2 25 26 25zM549 2011q14 0 24 -10t9 -27l-31 -248q-2 -25 -27 -24h-250q-14 0 -24 10t-8 27l30 248q2 25 27 24h250z" />
    <glyph glyph-name="dotlessi" unicode="&#x131;" horiz-adv-x="573" 
d="M238 965h184q14 -1 24 -11t9 -26l-111 -903q-4 -25 -29 -25h-184q-14 0 -25 10q-10 11 -8 27l113 903q2 25 27 25z" />
    <glyph glyph-name="IJ" unicode="&#x132;" horiz-adv-x="1746" 
d="M1057 231h53q106 0 176 69t84 194l119 968q2 25 27 25h184q14 0 24 -10t9 -27l-121 -989q-27 -223 -173 -349t-327 -126h-74q-130 0 -246 80t-147 204q-10 21 10 35l154 92q10 6 17 -3t14 -29q43 -72 92 -103t125 -31zM266 1487h189q14 0 24 -10t8 -27l-174 -1425
q-4 -25 -28 -25h-189q-14 0 -24 10t-9 27l177 1425q2 25 26 25z" />
    <glyph glyph-name="ij" unicode="&#x133;" horiz-adv-x="1075" 
d="M670 965h184q14 -1 24 -11t9 -26l-131 -1057q-14 -133 -104 -237t-220 -140q-35 -6 -43 31l-57 170q-8 27 10 39q61 16 113 62q51 46 59 104l129 1040q2 25 27 25zM193 965h184q14 -1 24 -11t9 -26l-111 -903q-4 -25 -29 -25h-184q-14 0 -25 10q-10 11 -8 27l113 903
q2 25 27 25zM743 1487h193q14 0 24 -10t9 -27l-29 -238q-2 -25 -29 -24h-192q-16 0 -25 11q-8 12 -6 26l29 237q2 25 26 25zM260 1487h193q14 0 24 -10t8 -27l-28 -238q-2 -25 -29 -24h-192q-16 0 -25 11q-8 12 -6 26l28 237q2 25 27 25z" />
    <glyph glyph-name="Kcommaaccent" unicode="&#x136;" horiz-adv-x="1234" 
d="M270 -410h250q16 0 24.5 -11t6.5 -25l-35 -287q-27 -217 -166 -369q-20 -12 -41 12l-76 78q-29 29 -14 49q53 41 72.5 95.5t27.5 134.5l19 14h-94q-14 0 -24.5 10.5t-8.5 26.5l31 248q1 24 28 24zM1069 0h-221q-33 0 -51 33l-351 610l-75 -76l-68 -542q-4 -25 -29 -25
h-184q-14 0 -24.5 10t-8.5 27l176 1425q2 25 27 25h184q14 0 24.5 -10.5t8.5 -26.5l-74 -586l490 598q20 25 39 25h235q16 0 22.5 -17.5t-7.5 -37.5l-531 -631l426 -756q15 -25 9.5 -35t-17.5 -10z" />
    <glyph glyph-name="kcommaaccent" unicode="&#x137;" horiz-adv-x="1036" 
d="M172 -410h250q16 0 24.5 -11t6.5 -25l-35 -287q-27 -217 -166 -369q-20 -12 -41 12l-76 78q-29 29 -14 49q53 41 72.5 95.5t27.5 134.5l19 14h-95q-14 0 -24 10.5t-8 26.5l30 248q2 24 29 24zM680 963h217q18 0 25.5 -22.5t-13.5 -47.5l-370 -350l335 -500q27 -43 -8 -43
h-186q-29 0 -51 33l-262 342l-7 -6l-41 -332q-2 -23 -11 -30t-25 -7h-177q-14 0 -24 10t-8 27l174 1413q4 37 41 37h172q14 0 24.5 -10.5t8.5 -26.5l-91 -729l232 221q18 21 45 21z" />
    <glyph glyph-name="Lacute" unicode="&#x139;" horiz-adv-x="1118" 
d="M930 246q14 0 24.5 -10.5t8.5 -26.5l-23 -184q-4 -25 -29 -25h-821q-14 0 -24.5 10t-8.5 27l176 1425q2 25 27 25h184q14 0 24.5 -10.5t8.5 -26.5l-147 -1204h600zM520 2163h213q18 0 26.5 -12.5t0.5 -30.5l-228 -379q-20 -31 -43 -31h-188q-16 0 -24.5 13.5t-0.5 29.5
l203 379q12 31 41 31z" />
    <glyph glyph-name="lacute" unicode="&#x13a;" horiz-adv-x="573" 
d="M313 1487h172q14 0 24.5 -10.5t8.5 -26.5l-174 -1413q-2 -23 -11 -30t-26 -7h-176q-14 0 -24.5 10.5t-8.5 26.5l174 1413q4 37 41 37zM563 2163h213q18 0 26.5 -12.5t0.5 -30.5l-228 -379q-20 -31 -43 -31h-188q-16 0 -24.5 13.5t-0.5 29.5l203 379q12 31 41 31z" />
    <glyph glyph-name="Lcommaaccent" unicode="&#x13b;" horiz-adv-x="1118" 
d="M252 -410h250q16 0 24.5 -11t5.5 -25l-34 -287q-27 -217 -166 -369q-20 -12 -41 12l-76 78q-29 29 -14 49q53 41 72.5 95.5t27.5 134.5l18 14h-94q-14 0 -24.5 10.5t-7.5 26.5l30 248q2 24 29 24zM930 246q14 0 24.5 -10.5t8.5 -26.5l-23 -184q-4 -25 -29 -25h-821
q-14 0 -24.5 10t-8.5 27l176 1425q2 25 27 25h184q14 0 24.5 -10.5t8.5 -26.5l-147 -1204h600z" />
    <glyph glyph-name="lcommaaccent" unicode="&#x13c;" horiz-adv-x="573" 
d="M-33 -410h250q16 0 24.5 -11t6.5 -25l-35 -287q-27 -217 -166 -369q-20 -12 -41 12l-76 78q-29 29 -14 49q53 41 72.5 95.5t27.5 134.5l19 14h-94q-14 0 -24.5 10.5t-8.5 26.5l31 248q1 24 28 24zM313 1487h172q14 0 24.5 -10.5t8.5 -26.5l-174 -1413q-2 -23 -11 -30
t-26 -7h-176q-14 0 -24.5 10.5t-8.5 26.5l174 1413q4 37 41 37z" />
    <glyph glyph-name="Lcaron" unicode="&#x13d;" horiz-adv-x="1142" 
d="M707 1487h249q16 0 24.5 -11.5t6.5 -25.5l-35 -287q-27 -217 -166 -368q-20 -12 -41 12l-75 78q-29 29 -15 49q53 41 73 95t28 134l18 15h-94q-14 0 -24.5 10t-8.5 26l31 248q2 25 29 25zM930 246q14 0 24.5 -10.5t8.5 -26.5l-23 -184q-4 -25 -29 -25h-821
q-14 0 -24.5 10t-8.5 27l176 1425q2 25 27 25h184q14 0 24.5 -10.5t8.5 -26.5l-147 -1204h600z" />
    <glyph glyph-name="lcaron" unicode="&#x13e;" horiz-adv-x="985" 
d="M649 1487h250q16 0 24.5 -11.5t6.5 -25.5l-35 -287q-27 -217 -166 -368q-20 -12 -41 12l-76 78q-29 29 -14 49q53 41 72.5 95t27.5 134l19 15h-94q-14 0 -24.5 10t-8.5 26l31 248q1 25 28 25zM313 1487h172q14 0 24.5 -10.5t8.5 -26.5l-174 -1413q-2 -23 -11 -30t-26 -7
h-176q-14 0 -24.5 10.5t-8.5 26.5l174 1413q4 37 41 37z" />
    <glyph glyph-name="Ldot" unicode="&#x13f;" horiz-adv-x="1118" 
d="M578 963h249q14 0 24.5 -10.5t8.5 -26.5l-31 -248q-2 -25 -28 -25h-250q-14 0 -24.5 10.5t-8.5 26.5l31 248q4 25 29 25zM930 246q14 0 24.5 -10.5t8.5 -26.5l-23 -184q-4 -25 -29 -25h-821q-14 0 -24.5 10t-8.5 27l176 1425q2 25 27 25h184q14 0 24.5 -10.5t8.5 -26.5
l-147 -1204h600z" />
    <glyph glyph-name="ldot" unicode="&#x140;" horiz-adv-x="1112" 
d="M750 963h249q14 0 24.5 -10.5t8.5 -26.5l-31 -248q-2 -25 -28 -25h-250q-14 0 -24.5 10.5t-8.5 26.5l31 248q4 25 29 25zM313 1487h172q14 0 24.5 -10.5t8.5 -26.5l-174 -1413q-2 -23 -11 -30t-26 -7h-176q-14 0 -24.5 10.5t-8.5 26.5l174 1413q4 37 41 37z" />
    <glyph glyph-name="Lslash" unicode="&#x141;" horiz-adv-x="1251" 
d="M1004 246q14 0 24 -10.5t8 -26.5l-22 -184q-4 -25 -29 -25h-821q-14 0 -24.5 10t-8.5 27l29 225h-90q-20 0 -30.5 12.5t1.5 28.5l143 160l123 999q2 25 27 25h184q14 0 24.5 -10.5t8.5 -26.5l-82 -670l135 152q29 31 49 31h209q18 0 27.5 -12.5t-2.5 -28.5l-465 -523
l-19 -153h601z" />
    <glyph glyph-name="lslash" unicode="&#x142;" horiz-adv-x="874" 
d="M727 963q21 -1 29 -13t-4 -28l-172 -193l-86 -704q-4 -25 -29 -25h-184q-14 0 -25 10q-10 10 -8 27l63 520h-114q-18 0 -29 14q-10 14 0 29l172 191l84 671q2 25 27 25h184q14 0 24 -10t9 -27l-60 -487h119z" />
    <glyph glyph-name="Nacute" unicode="&#x143;" horiz-adv-x="1302" 
d="M1051 1487h184q14 0 24.5 -10.5t8.5 -26.5l-174 -1425q-4 -25 -29 -25h-205q-29 0 -35 29l-393 946l-119 -950q-4 -25 -28 -25h-185q-14 0 -24 10t-8 27l176 1425q2 25 26 25h205q29 0 37 -29l393 -946l119 950q2 25 27 25zM924 2163h213q18 0 26 -12.5t0 -30.5
l-227 -379q-20 -31 -43 -31h-188q-16 0 -24.5 13.5t-0.5 29.5l203 379q12 31 41 31z" />
    <glyph glyph-name="nacute" unicode="&#x144;" horiz-adv-x="1056" 
d="M573 963h91q156 0 225 -105.5t49 -267.5l-70 -565q-4 -25 -28 -25h-185q-14 0 -24 10t-8 27l69 565q6 51 -18.5 83t-69.5 32h-92q-45 0 -82 -38t-43 -89l-70 -565q-4 -25 -28 -25h-185q-14 0 -24 10t-8 27l110 901q4 25 29 25h184q14 0 24.5 -10.5t8.5 -26.5l-6 -33
q16 27 62 48.5t89 21.5zM954 1638q18 0 26.5 -12t0.5 -31l-227 -378q-20 -31 -43 -31h-189q-16 0 -24 13.5t0 29.5l202 379q12 31 41 30h213z" />
    <glyph glyph-name="Ncommaaccent" unicode="&#x145;" horiz-adv-x="1302" 
d="M328 -410h250q16 0 24 -11t6 -25l-35 -287q-27 -217 -165 -369q-20 -12 -41 12l-76 78q-29 29 -15 49q53 41 73 95.5t28 134.5l18 14h-94q-14 0 -24.5 10.5t-8.5 26.5l31 248q2 24 29 24zM1051 1487h184q14 0 24.5 -10.5t8.5 -26.5l-174 -1425q-4 -25 -29 -25h-205
q-29 0 -35 29l-393 946l-119 -950q-4 -25 -28 -25h-185q-14 0 -24 10t-8 27l176 1425q2 25 26 25h205q29 0 37 -29l393 -946l119 950q2 25 27 25z" />
    <glyph glyph-name="ncommaaccent" unicode="&#x146;" horiz-adv-x="1056" 
d="M209 -410h250q16 0 24.5 -11t5.5 -25l-34 -287q-27 -217 -166 -369q-20 -12 -41 12l-76 78q-29 29 -14 49q53 41 72.5 95.5t27.5 134.5l18 14h-94q-14 0 -24.5 10.5t-7.5 26.5l30 248q2 24 29 24zM573 963h91q156 0 225 -105.5t49 -267.5l-70 -565q-4 -25 -28 -25h-185
q-14 0 -24 10t-8 27l69 565q6 51 -18.5 83t-69.5 32h-92q-45 0 -82 -38t-43 -89l-70 -565q-4 -25 -28 -25h-185q-14 0 -24 10t-8 27l110 901q4 25 29 25h184q14 0 24.5 -10.5t8.5 -26.5l-6 -33q16 27 62 48.5t89 21.5z" />
    <glyph glyph-name="Ncaron" unicode="&#x147;" horiz-adv-x="1302" 
d="M1051 1487h184q14 0 24.5 -10.5t8.5 -26.5l-174 -1425q-4 -25 -29 -25h-205q-29 0 -35 29l-393 946l-119 -950q-4 -25 -28 -25h-185q-14 0 -24 10t-8 27l176 1425q2 25 26 25h205q29 0 37 -29l393 -946l119 950q2 25 27 25zM481 2163h181q18 0 45 -45l102 -191l149 201
q27 35 50 35h190q16 0 25.5 -14.5t-0.5 -30.5l-287 -367q-20 -27 -51 -27h-183q-27 0 -43 33l-194 369q-8 14 -3 25.5t19 11.5z" />
    <glyph glyph-name="ncaron" unicode="&#x148;" horiz-adv-x="1056" 
d="M573 963h91q156 0 225 -105.5t49 -267.5l-70 -565q-4 -25 -28 -25h-185q-14 0 -24 10t-8 27l69 565q6 51 -18.5 83t-69.5 32h-92q-45 0 -82 -38t-43 -89l-70 -565q-4 -25 -28 -25h-185q-14 0 -24 10t-8 27l110 901q4 25 29 25h184q14 0 24.5 -10.5t8.5 -26.5l-6 -33
q16 27 62 48.5t89 21.5zM299 1638h180q18 0 45 -45l103 -190l149 201q27 35 49 34h191q16 0 25.5 -14t-1.5 -31l-286 -366q-20 -27 -52 -27h-182q-27 0 -43 33l-194 369q-8 14 -3 25t19 11z" />
    <glyph glyph-name="Eng" unicode="&#x14a;" horiz-adv-x="1316" 
d="M1065 1487h184q15 0 25 -10t8 -27l-186 -1522q-27 -223 -173 -349t-327 -126h-74q-129 0 -246 80t-147 205q-12 20 12 35l152 92q10 6 17 -3t14 -30q43 -72 92 -102t125 -31h53q106 0 176 69t84 193l4 41l-426 973l-119 -950q-4 -25 -28 -25h-185q-14 0 -24 10t-8 27
l176 1425q2 25 26 25h205q29 0 37 -29l408 -966l118 970q2 25 27 25z" />
    <glyph glyph-name="eng" unicode="&#x14b;" horiz-adv-x="1048" 
d="M573 963h91q156 0 225 -105.5t49 -267.5l-88 -719q-16 -133 -106.5 -236.5t-219.5 -140.5q-35 -6 -43 31l-57 170q-8 27 10 39q61 16 112.5 62t59.5 104l17 133v4l69 565q6 51 -18.5 83t-69.5 32h-92q-45 0 -82 -38t-43 -89l-70 -565q-4 -25 -28 -25h-185q-14 0 -24 10
t-8 27l110 901q4 25 29 25h184q14 0 24.5 -10.5t8.5 -26.5l-6 -33q16 27 62 48.5t89 21.5z" />
    <glyph glyph-name="Omacron" unicode="&#x14c;" horiz-adv-x="1208" 
d="M502 227h106q86 0 147 69q60 69 72 165l74 581q12 96 -25 159q-38 62 -126 63h-107q-86 0 -147 -69t-72 -165l-72 -581q-12 -96 26 -159t124 -63zM662 1509h106q176 0 288 -146t87 -349l-68 -549q-25 -203 -166 -343t-317 -140h-107q-179 0 -291 146t-85 349l69 549
q27 203 167 343q141 140 317 140zM1090 1763h-664q-14 1 -24 11t-9 26l23 185q2 25 26 24h664q14 0 24 -11t9 -26l-23 -184q-1 -25 -26 -25z" />
    <glyph glyph-name="omacron" unicode="&#x14d;" horiz-adv-x="1052" 
d="M586 723h-88q-58 0 -96 -40t-42 -91l-28 -234q-14 -115 96 -114h88q57 0 95 38t42 89l29 233q6 51 -16 85q-23 34 -80 34zM520 969h80q154 0 250 -112t78 -265l-29 -234q-20 -154 -136 -257t-269 -103h-80q-154 0 -250 110t-78 263l29 233q19 154 135 260t270 105z
M940 1241h-664q-14 0 -24 10t-8 27l22 184q2 25 27 25h663q14 0 24 -11t9 -26l-22 -184q-2 -25 -27 -25z" />
    <glyph glyph-name="Ohungarumlaut" unicode="&#x150;" horiz-adv-x="1208" 
d="M502 227h106q86 0 147 69q60 69 72 165l74 581q12 96 -25 159q-38 62 -126 63h-107q-86 0 -147 -69t-72 -165l-72 -581q-12 -96 26 -159t124 -63zM662 1509h106q176 0 288 -146t87 -349l-68 -549q-25 -203 -166 -343t-317 -140h-107q-179 0 -291 146t-85 349l69 549
q27 203 167 343q141 140 317 140zM1063 2161h213q18 -1 26 -13t1 -30l-228 -379q-20 -31 -43 -31h-188q-16 0 -25 13q-8 14 0 30l203 379q12 31 41 31zM694 2161h213q19 -1 27 -13t0 -30l-227 -379q-20 -31 -43 -31h-189q-16 0 -24 14t0 29l202 379q12 31 41 31z" />
    <glyph glyph-name="ohungarumlaut" unicode="&#x151;" horiz-adv-x="1052" 
d="M586 723h-88q-58 0 -96 -40t-42 -91l-28 -234q-14 -115 96 -114h88q57 0 95 38t42 89l29 233q6 51 -16 85q-23 34 -80 34zM520 969h80q154 0 250 -112t78 -265l-29 -234q-20 -154 -136 -257t-269 -103h-80q-154 0 -250 110t-78 263l29 233q19 154 135 260t270 105z
M1126 1638q18 0 26 -12t1 -31l-227 -378q-20 -31 -43 -31h-189q-16 0 -24 14t0 29l202 379q12 31 41 30h213zM758 1638q18 0 26 -12t0 -31l-227 -378q-20 -31 -43 -31h-188q-16 0 -25 13q-8 14 0 30l203 379q12 31 41 30h213z" />
    <glyph glyph-name="OE" unicode="&#x152;" horiz-adv-x="1957" 
d="M502 227h106q86 0 146.5 69t72.5 165l74 581q12 96 -25.5 159t-125.5 63h-107q-86 0 -147.5 -69t-71.5 -165l-72 -581q-12 -96 26 -159t124 -63zM1090 1487h821q14 0 24.5 -10.5t8.5 -26.5l-23 -184q-2 -25 -27 -25h-612l-47 -369h467q14 0 24.5 -10t8.5 -26l-23 -185
q-2 -25 -26 -24h-480l-47 -381h600q14 0 24.5 -10.5t8.5 -26.5l-23 -184q-4 -25 -28 -25h-821q-14 0 -24.5 10t-8.5 27l8 72q-133 -127 -303 -127h-107q-178 0 -290.5 146t-85.5 349l69 549q27 203 167 343t317 140h106q174 0 283 -141l12 94q2 25 27 25z" />
    <glyph glyph-name="oe" unicode="&#x153;" horiz-adv-x="1560" 
d="M1141 723h-78q-43 0 -86 -34t-47 -75v-12h297l4 27q4 41 -23.5 67.5t-66.5 26.5zM428 244h88q57 0 94 37.5t43 87.5v2l29 235q6 51 -16.5 84t-79.5 33h-88q-57 0 -95 -40t-43 -91l-28 -234q-15 -114 96 -114zM1085 969h78q133 0 230.5 -110.5t79.5 -264.5l-17 -133
q-8 -55 -63 -55h-488l-6 -44v-6q-8 -53 19.5 -82.5t76.5 -29.5h88q49 0 97 48q16 16 45 50q23 16 47 -12l119 -117q23 -23 10 -49q-53 -53 -92 -83t-106.5 -56.5t-145.5 -26.5h-78q-137 0 -229 92q-113 -92 -256 -92h-80q-154 0 -250 109.5t-78 263.5l29 233
q20 154 136 259.5t269 105.5h80q139 0 234 -95q110 95 251 95z" />
    <glyph glyph-name="Racute" unicode="&#x154;" horiz-adv-x="1161" 
d="M662 872q86 0 138 42t66 152.5t-22.5 142.5t-122.5 32h-258l-45 -369h244zM965 0h-185q-14 0 -24.5 11.5t-7.5 25.5l36 299q22 164 -6 219q-14 27 -47 49.5t-84 22.5h-260l-74 -602q-4 -25 -28 -25h-185q-14 0 -24 10t-8 27l176 1425q2 25 26 25h488q184 0 280.5 -119.5
t71.5 -319.5t-147 -313q100 -137 75 -344l-45 -366q-2 -25 -28 -25zM858 2163h213q18 0 26.5 -12.5t0.5 -30.5l-228 -379q-20 -31 -43 -31h-188q-16 0 -24.5 13.5t-0.5 29.5l203 379q12 31 41 31z" />
    <glyph glyph-name="racute" unicode="&#x155;" horiz-adv-x="874" 
d="M555 717h-51q-47 0 -83 -37t-44 -92l-68 -563q-4 -25 -28 -25h-185q-14 0 -24.5 10t-8.5 27l111 901q4 25 29 25h184q14 0 24.5 -10.5t8.5 -26.5l-6 -33q16 27 63 48.5t90 21.5h86q119 0 183 -78q35 -14 10 -39l-154 -141q-16 -16 -37 6q-31 6 -100 6zM915 1638
q18 0 26.5 -12t0.5 -31l-227 -378q-20 -31 -43 -31h-189q-16 0 -24 13.5t0 29.5l203 379q12 31 40 30h213z" />
    <glyph glyph-name="Rcommaaccent" unicode="&#x156;" horiz-adv-x="1161" 
d="M262 -410h250q16 0 24.5 -11t6.5 -25l-35 -287q-27 -217 -166 -369q-20 -12 -41 12l-76 78q-29 29 -14 49q53 41 72.5 95.5t27.5 134.5l19 14h-94q-14 0 -24.5 10.5t-8.5 26.5l30 248q2 24 29 24zM662 872q86 0 138 42t66 152.5t-22.5 142.5t-122.5 32h-258l-45 -369h244
zM965 0h-185q-14 0 -24.5 11.5t-7.5 25.5l36 299q22 164 -6 219q-14 27 -47 49.5t-84 22.5h-260l-74 -602q-4 -25 -28 -25h-185q-14 0 -24 10t-8 27l176 1425q2 25 26 25h488q184 0 280.5 -119.5t71.5 -319.5t-147 -313q100 -137 75 -344l-45 -366q-2 -25 -28 -25z" />
    <glyph glyph-name="rcommaaccent" unicode="&#x157;" horiz-adv-x="874" 
d="M-74 -410h250q16 0 24.5 -11t6.5 -25l-35 -287q-27 -217 -166 -369q-20 -12 -41 12l-76 78q-29 29 -14 49q53 41 72.5 95.5t27.5 134.5l19 14h-94q-14 0 -24.5 10.5t-8.5 26.5l31 248q1 24 28 24zM555 717h-51q-47 0 -83 -37t-44 -92l-68 -563q-4 -25 -28 -25h-185
q-14 0 -24.5 10t-8.5 27l111 901q4 25 29 25h184q14 0 24.5 -10.5t8.5 -26.5l-6 -33q16 27 63 48.5t90 21.5h86q119 0 183 -78q35 -14 10 -39l-154 -141q-16 -16 -37 6q-31 6 -100 6z" />
    <glyph glyph-name="Rcaron" unicode="&#x158;" horiz-adv-x="1161" 
d="M662 872q86 0 138 42t66 152.5t-22.5 142.5t-122.5 32h-258l-45 -369h244zM965 0h-185q-14 0 -24.5 11.5t-7.5 25.5l36 299q22 164 -6 219q-14 27 -47 49.5t-84 22.5h-260l-74 -602q-4 -25 -28 -25h-185q-14 0 -24 10t-8 27l176 1425q2 25 26 25h488q184 0 280.5 -119.5
t71.5 -319.5t-147 -313q100 -137 75 -344l-45 -366q-2 -25 -28 -25zM416 2163h180q18 0 45 -45l102 -191l150 201q27 35 49 35h191q16 0 25 -14.5t-1 -30.5l-287 -367q-20 -27 -51 -27h-182q-27 0 -43 33l-195 369q-8 14 -3 25.5t20 11.5z" />
    <glyph glyph-name="rcaron" unicode="&#x159;" horiz-adv-x="874" 
d="M555 717h-51q-47 0 -83 -37t-44 -92l-68 -563q-4 -25 -28 -25h-185q-14 0 -24.5 10t-8.5 27l111 901q4 25 29 25h184q14 0 24.5 -10.5t8.5 -26.5l-6 -33q16 27 63 48.5t90 21.5h86q119 0 183 -78q35 -14 10 -39l-154 -141q-16 -16 -37 6q-31 6 -100 6zM260 1638h180
q18 0 45 -45l103 -190l149 201q27 35 49 34h191q16 0 25.5 -14t-1.5 -31l-286 -366q-20 -27 -51 -27h-183q-27 0 -43 33l-194 369q-8 14 -3 25t19 11z" />
    <glyph glyph-name="Sacute" unicode="&#x15a;" horiz-adv-x="1173" 
d="M629 1518h106q166 0 279.5 -127t91.5 -310l-4 -39q-2 -25 -27 -24h-186q-14 0 -24.5 10t-8.5 27l4 39q10 78 -32 128t-111 50h-107q-72 0 -124 -54.5t-62 -125.5q-2 -43 -1 -82t37 -72t105 -45l117 -19q195 -31 288 -159.5t69 -317t-163 -303t-313 -114.5h-94
q-170 0 -288 121.5t-95 297.5l6 60q2 25 29 24h186q16 0 24.5 -11t6.5 -26l-4 -59q-6 -74 37 -118t116 -44h95q80 0 142 53.5t72.5 139.5t-17 140t-126.5 71l-114 22q-205 39 -292 163t-66 304t149.5 290t298.5 110zM860 2163h213q18 0 26.5 -12.5t0.5 -30.5l-228 -379
q-20 -31 -43 -31h-188q-16 0 -24.5 13.5t-0.5 29.5l203 379q12 31 41 31z" />
    <glyph glyph-name="sacute" unicode="&#x15b;" horiz-adv-x="966" 
d="M438 -10h-49q-131 0 -227 81t-94 199q0 18 24 19h189q20 0 38.5 -26.5t79.5 -26.5h84q96 0 103 59q25 51 -113 63q-201 16 -286 99.5t-66.5 227.5t122 215t261.5 71h39q141 0 238.5 -88t80.5 -219q-2 -20 -28 -21h-183q-41 0 -34.5 41t-94.5 41h-67q-84 0 -90 -47
q0 -14 -4.5 -27.5t24.5 -28t92 -22.5q199 -20 285 -99t65 -241q-14 -121 -124.5 -195.5t-264.5 -74.5zM911 1638q18 0 26.5 -12t0.5 -31l-227 -378q-20 -31 -43 -31h-189q-16 0 -24 13.5t0 29.5l202 379q12 31 41 30h213z" />
    <glyph glyph-name="Scedilla" unicode="&#x15e;" horiz-adv-x="1173" 
d="M629 1518h106q166 0 279.5 -127t91.5 -310l-4 -39q-2 -25 -27 -24h-186q-14 0 -24.5 10t-8.5 27l4 39q10 78 -32 128t-111 50h-107q-72 0 -124 -54.5t-62 -125.5q-2 -43 -1 -82t37 -72t105 -45l117 -19q195 -31 288 -159.5t70.5 -309t-141.5 -292t-276 -129.5
q-37 -36 -7 -42q4 -1 15.5 -3t17.5 -5q104 -10 146.5 -55t27.5 -149q-18 -143 -211 -144h-157q-84 0 -128 51.5t-36 133.5q2 8 14 8h150q8 0 16 -8.5t6 -22.5t9.5 -17t39.5 -3h41q66 0 72 39q0 8 -9 11t-69.5 9t-105.5 13q-45 6 -63 18q-81 53 5 168q-147 27 -238 142.5
t-73 270.5l6 60q2 25 29 24h186q16 0 24.5 -11t6.5 -26l-4 -59q-6 -74 37 -118t116 -44h95q80 0 142 53.5t72.5 139.5t-17 140t-126.5 71l-114 22q-205 39 -292 163t-66 304t149.5 290t298.5 110z" />
    <glyph glyph-name="scedilla" unicode="&#x15f;" horiz-adv-x="966" 
d="M504 971h39q141 0 238.5 -88t80.5 -219q-2 -20 -28 -21h-183q-41 0 -34.5 41t-94.5 41h-67q-84 0 -90 -47q0 -14 -4.5 -27.5t24.5 -28t92 -22.5q199 -20 285 -99t65 -241q-14 -102 -96 -172t-203 -90v-10q-35 -35 -23 -41t27 -8t19 -5q104 -10 146 -55t28 -149
q-18 -143 -211 -144h-158q-84 0 -128 51.5t-35 133.5q2 8 14 8h149q8 0 16.5 -8.5t6.5 -22.5t9 -17t40 -3h41q66 0 72 39q0 8 -9.5 11t-70 9t-110.5 13t-73.5 26.5t-21.5 66t51 105.5q-106 25 -173.5 99.5t-65.5 172.5q0 18 24 19h189q20 0 38.5 -26.5t79.5 -26.5h84
q96 0 103 59q25 51 -113 63q-201 16 -286 99.5t-66.5 227.5t122 215t261.5 71z" />
    <glyph glyph-name="Scaron" unicode="&#x160;" horiz-adv-x="1173" 
d="M629 1518h106q166 0 279.5 -127t91.5 -310l-4 -39q-2 -25 -27 -24h-186q-14 0 -24.5 10t-8.5 27l4 39q10 78 -32 128t-111 50h-107q-72 0 -124 -54.5t-62 -125.5q-2 -43 -1 -82t37 -72t105 -45l117 -19q195 -31 288 -159.5t69 -317t-163 -303t-313 -114.5h-94
q-170 0 -288 121.5t-95 297.5l6 60q2 25 29 24h186q16 0 24.5 -11t6.5 -26l-4 -59q-6 -74 37 -118t116 -44h95q80 0 142 53.5t72.5 139.5t-17 140t-126.5 71l-114 22q-205 39 -292 163t-66 304t149.5 290t298.5 110zM418 2163h180q18 0 45 -45l102 -191l150 201q27 35 49 35
h191q16 0 25 -14.5t-1 -30.5l-287 -367q-20 -27 -51 -27h-182q-27 0 -43 33l-195 369q-8 14 -3 25.5t20 11.5z" />
    <glyph glyph-name="scaron" unicode="&#x161;" horiz-adv-x="966" 
d="M438 -10h-49q-131 0 -227 81t-94 199q0 18 24 19h189q20 0 38.5 -26.5t79.5 -26.5h84q96 0 103 59q25 51 -113 63q-201 16 -286 99.5t-66.5 227.5t122 215t261.5 71h39q141 0 238.5 -88t80.5 -219q-2 -20 -28 -21h-183q-41 0 -34.5 41t-94.5 41h-67q-84 0 -90 -47
q0 -14 -4.5 -27.5t24.5 -28t92 -22.5q199 -20 285 -99t65 -241q-14 -121 -124.5 -195.5t-264.5 -74.5zM256 1638h180q18 0 45 -45l103 -190l149 201q27 35 49 34h191q16 0 25.5 -14t-1.5 -31l-286 -366q-20 -27 -52 -27h-182q-27 0 -43 33l-194 369q-8 14 -3 25t19 11z" />
    <glyph glyph-name="Tcedilla" unicode="&#x162;" horiz-adv-x="1165" 
d="M240 1487h899q14 0 24.5 -10.5t7.5 -26.5l-22 -184q-2 -25 -27 -25h-331l-150 -1216q-2 -18 -12 -23q4 -10 2 -14q-35 -35 -24 -41t26.5 -8t19.5 -5q104 -10 146.5 -55t27.5 -149q-18 -143 -211 -144h-157q-84 0 -128 51.5t-36 133.5q2 8 14 8h150q8 0 16 -8.5t6 -22.5
t9.5 -17t39.5 -3h41q66 0 72 39q0 8 -9 11t-69.5 9t-111 13t-74 26.5t-21.5 67t56 110.5q-23 8 -19 33l150 1204h-322q-14 0 -24.5 10.5t-8.5 26.5l23 184q2 25 27 25z" />
    <glyph glyph-name="tcedilla" unicode="&#x163;" horiz-adv-x="710" 
d="M350 -414q-84 0 -128 51.5t-36 133.5q2 8 15 8h149q8 0 16.5 -8.5t6.5 -22.5t9 -17t40 -3h41q66 0 72 39q0 8 -9.5 11t-69.5 9t-104 13q-44 6 -60 14q-37 17 -43.5 68t60.5 126q18 6 25 6h12q-207 61 -180 287l51 416h-90q-16 0 -25.5 10t-7.5 25l21 182q2 29 30 29h103
l26 219q2 25 27 24h184q14 0 24.5 -10t8.5 -27l-24 -206h135q16 0 26.5 -10.5t8.5 -26.5l-23 -185q-2 -25 -29 -24h-149l-39 -318q-4 -45 -3 -77q2 -71 93 -72q18 0 30.5 -9.5t10.5 -23.5l-23 -194q-4 -25 -10 -27v-8q-35 -35 -23 -40.5t27 -8.5t19 -5q104 -10 146 -55
t28 -149q-18 -143 -211 -144h-158z" />
    <glyph glyph-name="Tcaron" unicode="&#x164;" horiz-adv-x="1165" 
d="M240 1487h899q14 0 24.5 -10.5t7.5 -26.5l-22 -184q-2 -25 -27 -25h-331l-150 -1216q-4 -25 -29 -25h-184q-14 0 -24.5 10t-8.5 27l150 1204h-322q-14 0 -24.5 10.5t-8.5 26.5l23 184q2 25 27 25zM422 2163h180q18 0 45 -45l103 -191l149 201q27 35 49 35h191
q16 0 25.5 -14.5t-1.5 -30.5l-286 -367q-20 -27 -52 -27h-182q-27 0 -43 33l-194 369q-8 14 -3 25.5t19 11.5z" />
    <glyph glyph-name="tcaron" unicode="&#x165;" horiz-adv-x="1040" 
d="M629 963q16 0 26.5 -10.5t8.5 -26.5l-23 -185q-2 -25 -29 -24h-149l-39 -318q-4 -45 -3 -77q2 -71 93 -72q18 0 30.5 -9.5t10.5 -23.5l-23 -194q-2 -27 -16 -27q-176 -4 -272.5 69.5t-77.5 235.5l51 416h-90q-16 0 -25.5 10t-7.5 25l21 182q2 29 30 29h103l26 219
q2 25 27 24h184q14 0 24.5 -10t8.5 -27l-24 -206h135zM713 1634h250q16 0 24 -11t6 -26l-35 -286q-27 -217 -165 -369q-20 -12 -41 12l-76 78q-29 29 -14 49q53 41 72.5 95.5t27.5 134.5l18 14h-94q-14 0 -24.5 10.5t-8.5 26.5l31 248q2 24 29 24z" />
    <glyph glyph-name="Tbar" unicode="&#x166;" horiz-adv-x="1165" 
d="M240 1487h899q14 0 24.5 -10.5t7.5 -26.5l-22 -184q-2 -25 -27 -25h-331l-35 -280h182q14 0 24.5 -11.5t8.5 -25.5l-23 -185q-2 -25 -26 -24h-197l-84 -690q-4 -25 -29 -25h-184q-14 0 -24.5 10t-8.5 27l84 678h-221q-14 0 -24.5 10t-8.5 27l23 184q2 25 26 25h236
l35 280h-322q-14 0 -24.5 10.5t-8.5 26.5l23 184q2 25 27 25z" />
    <glyph glyph-name="tbar" unicode="&#x167;" horiz-adv-x="745" 
d="M664 963q16 0 26 -10.5t8 -26.5l-22 -185q-2 -25 -29 -24h-149l-13 -94h144q14 0 24.5 -11.5t8.5 -25.5l-23 -185q-2 -25 -27 -24h-155q-6 -66 11 -95.5t81 -31.5q18 0 30.5 -9.5t10.5 -23.5l-23 -194q-2 -27 -16 -27q-176 -4 -272.5 69.5t-77.5 235.5l10 76h-84
q-14 0 -24.5 10t-8.5 27l23 184q2 25 26 25h97l12 94h-90q-16 0 -25.5 10t-7.5 25l21 182q2 29 30 29h103l26 219q2 25 27 24h184q14 0 24.5 -10t8.5 -27l-25 -206h136z" />
    <glyph glyph-name="Utilde" unicode="&#x168;" horiz-adv-x="1187" 
d="M938 1489h184q14 0 24 -10t9 -27l-123 -1010q-25 -198 -163 -326t-334 -128h-54q-197 0 -307 134t-88 333l125 1009q2 25 27 25h184q14 0 24 -10t9 -27l-119 -969q-31 -250 164 -250h53q111 0 169 78t71 185l118 968q2 25 27 25zM1069 2042l53 -135q12 -23 -14 -49
q-231 -137 -406 -19q-98 59 -165 28q-29 -13 -88 -52q-27 -10 -37 28l-56 137q-8 23 17 48q242 141 405 18q95 -63 167 -29q30 14 87 54q31 12 37 -29z" />
    <glyph glyph-name="utilde" unicode="&#x169;" horiz-adv-x="1077" 
d="M840 0h-185q-14 0 -24 10t-8 27l6 33q-17 -26 -63 -48t-89 -22h-90q-155 0 -225 105t-49 268l69 565q4 25 29 25h184q15 -1 25 -11t8 -26l-70 -566q-6 -50 19 -82t69 -32h93q45 0 82 38t43 89l69 565q4 25 29 25h184q14 -1 24 -11t9 -26l-111 -901q-4 -25 -28 -25z
M973 1518l53 -136q12 -23 -14 -49q-231 -137 -406 -18q-99 59 -166 27q-29 -13 -88 -52q-27 -10 -37 29l-55 137q-8 23 16 47q242 141 406 19q95 -63 167 -29q30 14 87 53q31 13 37 -28z" />
    <glyph glyph-name="Umacron" unicode="&#x16a;" horiz-adv-x="1187" 
d="M938 1489h184q14 0 24 -10t9 -27l-123 -1010q-25 -198 -163 -326t-334 -128h-54q-197 0 -307 134t-88 333l125 1009q2 25 27 25h184q14 0 24 -10t9 -27l-119 -969q-31 -250 164 -250h53q111 0 169 78t71 185l118 968q2 25 27 25zM1059 1765h-664q-14 1 -24 11t-9 26
l23 185q2 25 27 24h663q15 0 25 -11t8 -26l-23 -184q-1 -25 -26 -25z" />
    <glyph glyph-name="umacron" unicode="&#x16b;" horiz-adv-x="1077" 
d="M840 0h-185q-14 0 -24 10t-8 27l6 33q-17 -26 -63 -48t-89 -22h-90q-155 0 -225 105t-49 268l69 565q4 25 29 25h184q15 -1 25 -11t8 -26l-70 -566q-6 -50 19 -82t69 -32h93q45 0 82 38t43 89l69 565q4 25 29 25h184q14 -1 24 -11t9 -26l-111 -901q-4 -25 -28 -25z
M963 1241h-664q-14 0 -25 10q-10 10 -8 27l23 184q2 25 26 25h664q15 0 25 -11t8 -26l-23 -184q-1 -25 -26 -25z" />
    <glyph glyph-name="Ubreve" unicode="&#x16c;" horiz-adv-x="1187" 
d="M938 1489h184q14 0 24 -10t9 -27l-123 -1010q-25 -198 -163 -326t-334 -128h-54q-197 0 -307 134t-88 333l125 1009q2 25 27 25h184q14 0 24 -10t9 -27l-119 -969q-31 -250 164 -250h53q111 0 169 78t71 185l118 968q2 25 27 25zM948 2163h144q37 0 32 -43
q-20 -146 -108 -234t-225 -88h-121q-139 0 -211 96t-56 250q2 18 27 19h143q37 0 33 -43t18 -80t76 -37h84q55 0 93 45q37 45 45 96q1 19 26 19z" />
    <glyph glyph-name="ubreve" unicode="&#x16d;" horiz-adv-x="1077" 
d="M840 0h-185q-14 0 -24 10t-8 27l6 33q-17 -26 -63 -48t-89 -22h-90q-155 0 -225 105t-49 268l69 565q4 25 29 25h184q15 -1 25 -11t8 -26l-70 -566q-6 -50 19 -82t69 -32h93q45 0 82 38t43 89l69 565q4 25 29 25h184q14 -1 24 -11t9 -26l-111 -901q-4 -25 -28 -25z
M852 1638h143q37 0 33 -43q-20 -145 -108 -233t-226 -88h-121q-139 0 -211 96t-55 250q2 18 27 18h143q37 0 33 -43t18 -79t76 -37h84q55 0 92 45t45 96q2 18 27 18z" />
    <glyph glyph-name="Uring" unicode="&#x16e;" horiz-adv-x="1187" 
d="M938 1489h184q14 0 24 -10t9 -27l-123 -1010q-25 -198 -163 -326t-334 -128h-54q-197 0 -307 134t-88 333l125 1009q2 25 27 25h184q14 0 24 -10t9 -27l-119 -969q-31 -250 164 -250h53q111 0 169 78t71 185l118 968q2 25 27 25zM760 2021h-6q-23 0 -43 -18t-25 -41v-6
q-6 -49 41 -49h6q25 0 45 19t25 42v6q6 47 -43 47zM748 2165h26q82 1 132 -57t40 -140l-4 -22q-8 -82 -64 -132t-141 -51h-26q-84 1 -132 57t-38 138l2 22q10 82 66 134q57 51 139 51z" />
    <glyph glyph-name="uring" unicode="&#x16f;" horiz-adv-x="1077" 
d="M840 0h-185q-14 0 -24 10t-8 27l6 33q-17 -26 -63 -48t-89 -22h-90q-155 0 -225 105t-49 268l69 565q4 25 29 25h184q15 -1 25 -11t8 -26l-70 -566q-6 -50 19 -82t69 -32h93q45 0 82 38t43 89l69 565q4 25 29 25h184q14 -1 24 -11t9 -26l-111 -901q-4 -25 -28 -25z
M664 1497h-7q-23 0 -43 -18t-24 -41v-6q-6 -49 41 -50h6q25 0 45 20t25 42v6q6 47 -43 47zM651 1640h27q82 0 132 -57t40 -139l-4 -23q-8 -82 -64 -132t-141 -50h-27q-84 0 -132 56t-38 139l2 22q10 82 66 133t139 51z" />
    <glyph glyph-name="Uhungarumlaut" unicode="&#x170;" horiz-adv-x="1187" 
d="M938 1489h184q14 0 24 -10t9 -27l-123 -1010q-25 -198 -163 -326t-334 -128h-54q-197 0 -307 134t-88 333l125 1009q2 25 27 25h184q14 0 24 -10t9 -27l-119 -969q-31 -250 164 -250h53q111 0 169 78t71 185l118 968q2 25 27 25zM1032 2163h213q19 -1 27 -13t0 -30
l-228 -379q-20 -31 -43 -31h-188q-16 0 -25 13q-8 14 0 30l203 379q12 31 41 31zM664 2163h213q18 -1 26 -13t0 -30l-227 -379q-20 -31 -43 -31h-189q-16 0 -24 14t0 29l203 379q12 31 41 31z" />
    <glyph glyph-name="uhungarumlaut" unicode="&#x171;" horiz-adv-x="1077" 
d="M840 0h-185q-14 0 -24 10t-8 27l6 33q-17 -26 -63 -48t-89 -22h-90q-155 0 -225 105t-49 268l69 565q4 25 29 25h184q15 -1 25 -11t8 -26l-70 -566q-6 -50 19 -82t69 -32h93q45 0 82 38t43 89l69 565q4 25 29 25h184q14 -1 24 -11t9 -26l-111 -901q-4 -25 -28 -25z
M1149 1638q19 0 27 -12t0 -31l-228 -378q-20 -31 -43 -31h-188q-16 0 -25 13q-8 14 0 30l203 379q12 31 41 30h213zM780 1638q18 0 26 -12t1 -31l-227 -378q-20 -31 -43 -31h-189q-16 0 -24 14t0 29l202 379q12 31 41 30h213z" />
    <glyph glyph-name="Uogonek" unicode="&#x172;" horiz-adv-x="1187" 
d="M938 1489h184q14 0 24 -10t9 -27l-123 -1010q-16 -135 -89 -241t-185 -162q12 -12 10 -25q12 -104 -24 -144t-113 -50q-133 -10 -174 -19q-43 0 -45 -28q-2 -4 6 -2h4l45 2h246q10 -1 17 -11t5 -20l-14 -113q-2 -14 -16 -14h-273q-104 0 -151 40t-35 136q6 49 19 79
q20 47 96 67q19 4 77 12q111 10 135 41l-38 -2h-54q-197 0 -307 134t-88 333l125 1009q2 25 27 25h184q14 0 24 -10t9 -27l-119 -969q-31 -250 164 -250h53q111 0 169 78t71 185l118 968q2 25 27 25z" />
    <glyph glyph-name="uogonek" unicode="&#x173;" horiz-adv-x="1077" 
d="M762 963h184q14 -1 24 -11t9 -26l-111 -901q-4 -14 -6 -17q10 -100 -26 -139t-111 -49q-133 -10 -174 -19q-43 0 -45 -28q-2 -4 6 -2q31 2 49 2h246q10 -1 17 -11t5 -20l-14 -113q-2 -14 -16 -14h-273q-104 0 -151 40t-35 136q6 49 19 79q21 48 97 67q19 4 76 12
q123 10 142 51h-19q-14 0 -24 10t-8 27l6 33q-17 -26 -63 -48t-89 -22h-90q-155 0 -225 105t-49 268l69 565q4 25 29 25h184q15 -1 25 -11t8 -26l-70 -566q-6 -50 19 -82t69 -32h93q45 0 82 38t43 89l69 565q4 25 29 25z" />
    <glyph glyph-name="Wcircumflex" unicode="&#x174;" horiz-adv-x="1878" 
d="M1690 1487h186q16 0 24 -10t5 -25l-480 -1427q-8 -25 -39 -25h-143q-31 0 -37 37l-205 1012l-452 -1024q-10 -25 -39 -25h-143q-35 0 -39 37l-131 1419q-4 31 22 31h187q33 0 36 -37l70 -975l418 983q12 29 41 29h147q37 0 43 -33l176 -979l316 983q8 29 37 29z
M1036 2163h183q27 0 47 -39l196 -365q16 -35 -14 -35h-186q-18 0 -43 43l-105 193l-149 -201q-27 -35 -50 -35h-190q-16 0 -23 16t3 29l284 365q23 29 47 29z" />
    <glyph glyph-name="wcircumflex" unicode="&#x175;" horiz-adv-x="1398" 
d="M1155 963h188q15 -1 25 -13t2 -28l-350 -895q-10 -27 -39 -27h-150q-31 0 -38 39l-91 526l-225 -538q-10 -27 -39 -27h-149q-31 0 -39 39l-131 895q-6 29 20 29h189q31 0 34 -41l62 -557l205 569q10 29 37 29h151q31 0 35 -41l68 -557l198 569q10 29 37 29zM913 1638
q29 0 48 -39l196 -364q18 -35 -14 -35h-187q-18 0 -43 43l-104 193l-150 -201q-27 -35 -49 -35h-190q-16 0 -24 15q-7 16 3 30l285 365q23 29 47 28h182z" />
    <glyph glyph-name="Ycircumflex" unicode="&#x176;" horiz-adv-x="1105" 
d="M133 1480q0 8 19 7h202q31 0 39 -37l176 -537l316 549q12 25 39 25h202q16 0 26 -11t1 -26l-487 -797l-78 -628q-4 -25 -29 -25h-184q-14 0 -25 10q-10 10 -8 27l78 616l-283 809q-4 10 -4 18zM618 2163h183q27 0 47 -39l196 -365q16 -35 -14 -35h-186q-18 0 -43 43
l-105 193l-149 -201q-27 -35 -49 -35h-191q-16 0 -23 16t3 29l284 365q23 29 47 29z" />
    <glyph glyph-name="ycircumflex" unicode="&#x177;" horiz-adv-x="1114" 
d="M866 963h197q18 -1 24 -15t-2 -28l-706 -1301q-14 -29 -43 -29h-197q-18 0 -25 14t-1 29l256 469l-246 830q-13 29 14 31h199q31 0 39 -41l160 -514l286 526q16 29 45 29zM469 1200h-190q-15 0 -23 15t2 30l285 365q23 29 47 28h182q27 0 47 -39l197 -364q16 -35 -15 -35
h-186q-18 0 -43 43l-104 193l-150 -201q-26 -35 -49 -35z" />
    <glyph glyph-name="Ydieresis" unicode="&#x178;" horiz-adv-x="1105" 
d="M133 1480q0 8 19 7h202q31 0 39 -37l176 -537l316 549q12 25 39 25h202q16 0 26 -11t1 -26l-487 -797l-78 -628q-4 -25 -29 -25h-184q-14 0 -25 10q-10 10 -8 27l78 616l-283 809q-4 10 -4 18zM1055 2011q14 0 24 -10t8 -27l-30 -248q-2 -25 -27 -24h-250q-14 0 -24 10
t-8 27l30 248q2 25 27 24h250zM578 2011q14 0 24 -10t8 -27l-30 -248q-2 -25 -27 -24h-250q-15 0 -25 10t-8 27l31 248q2 25 27 24h250z" />
    <glyph glyph-name="Zacute" unicode="&#x179;" horiz-adv-x="1107" 
d="M930 246q14 0 24 -10t9 -27l-23 -184q-4 -25 -29 -25h-841q-14 0 -25 10q-10 10 -8 27l12 86q0 29 6 39l695 1079h-527q-14 0 -24 10t-9 27l23 184q2 25 27 25h841q14 0 25 -10q10 -11 8 -27l-10 -86q0 -20 -6 -39l-695 -1079h527zM831 2163h213q18 -1 26 -13t1 -30
l-227 -379q-20 -31 -43 -31h-189q-16 0 -24 14t0 29l203 379q12 31 40 31z" />
    <glyph glyph-name="zacute" unicode="&#x17a;" horiz-adv-x="905" 
d="M745 246q17 0 27 -10t8 -27l-22 -184q-4 -25 -29 -25h-680q-14 0 -24 10t-9 27l13 119q4 27 12 37l446 524h-350q-14 0 -24 10t-9 27l23 182q4 27 29 27h678q16 -1 26 -11t8 -26l-14 -125q-4 -23 -12 -33l-445 -522h348zM879 1638q18 0 26 -12t0 -31l-227 -378
q-20 -31 -43 -31h-189q-16 0 -24 14t0 29l203 379q12 31 41 30h213z" />
    <glyph glyph-name="Zdotaccent" unicode="&#x17b;" horiz-adv-x="1107" 
d="M930 246q14 0 24 -10t9 -27l-23 -184q-4 -25 -29 -25h-841q-14 0 -25 10q-10 10 -8 27l12 86q0 29 6 39l695 1079h-527q-14 0 -24 10t-9 27l23 184q2 25 27 25h841q14 0 25 -10q10 -11 8 -27l-10 -86q0 -20 -6 -39l-695 -1079h527zM850 2011q14 0 24 -10t9 -27l-31 -248
q-2 -25 -27 -24h-250q-14 0 -24 10t-8 27l30 248q2 25 27 24h250z" />
    <glyph glyph-name="zdotaccent" unicode="&#x17c;" horiz-adv-x="905" 
d="M745 246q17 0 27 -10t8 -27l-22 -184q-4 -25 -29 -25h-680q-14 0 -24 10t-9 27l13 119q4 27 12 37l446 524h-350q-14 0 -24 10t-9 27l23 182q4 27 29 27h678q16 -1 26 -11t8 -26l-14 -125q-4 -23 -12 -33l-445 -522h348zM434 1487h250q14 0 24 -10t9 -27l-31 -248
q-2 -25 -27 -24h-249q-14 0 -25 10q-10 10 -8 26l31 248q2 25 26 25z" />
    <glyph glyph-name="Zcaron" unicode="&#x17d;" horiz-adv-x="1107" 
d="M930 246q14 0 24 -10t9 -27l-23 -184q-4 -25 -29 -25h-841q-14 0 -25 10q-10 10 -8 27l12 86q0 29 6 39l695 1079h-527q-14 0 -24 10t-9 27l23 184q2 25 27 25h841q14 0 25 -10q10 -11 8 -27l-10 -86q0 -20 -6 -39l-695 -1079h527zM569 2163q18 0 45 -45l103 -191
l149 201q27 35 49 35h191q16 -1 26 -15t-2 -30l-286 -367q-20 -27 -51 -27h-183q-27 0 -43 33l-194 369q-8 14 -3 25t19 12h180z" />
    <glyph glyph-name="zcaron" unicode="&#x17e;" horiz-adv-x="905" 
d="M745 246q17 0 27 -10t8 -27l-22 -184q-4 -25 -29 -25h-680q-14 0 -24 10t-9 27l13 119q4 27 12 37l446 524h-350q-14 0 -24 10t-9 27l23 182q4 27 29 27h678q16 -1 26 -11t8 -26l-14 -125q-4 -23 -12 -33l-445 -522h348zM223 1638h180q18 0 46 -45l102 -190l149 201
q27 35 50 34h190q16 0 26 -14t-1 -31l-287 -366q-20 -27 -51 -27h-183q-27 0 -43 33l-194 369q-8 14 -3 25t19 11z" />
    <glyph glyph-name="florin" unicode="&#x192;" horiz-adv-x="1005" 
d="M909 1487h142q14 0 24 -10t8 -27l-22 -184q-2 -25 -27 -25h-18q-111 0 -170 -45t-74 -162l-131 -1065q-21 -174 -121 -276t-252 -103h-141q-15 0 -25 10t-8 27l23 185q2 25 26 24h19q111 0 170 45t74 162l81 674h-98q-14 0 -24 10t-9 27l23 184q4 25 29 25h110l19 145
q20 174 120 276t252 103z" />
    <glyph glyph-name="Acaron" unicode="&#x1cd;" horiz-adv-x="1230" 
d="M733 606l-61 385l-158 -385h219zM1047 0h-185q-33 0 -39 39l-51 321h-360l-138 -333q-12 -27 -36 -27h-187q-16 0 -24 11t-2 28l585 1427q10 27 39 27h148q15 1 25 -11t12 -28l233 -1427q2 -15 -2 -21t-18 -6zM971 2163h190q15 -1 25 -15t0 -30l-287 -367
q-20 -27 -51 -27h-182q-27 0 -43 33l-195 369q-8 14 -3 25t19 12h181q18 0 45 -45l102 -191l150 201q26 35 49 35z" />
    <glyph glyph-name="acaron" unicode="&#x1ce;" horiz-adv-x="944" 
d="M332 244h100q86 0 133 49l13 92h-218q-28 0 -52 -20q-24 -21 -28 -49t12 -50q15 -22 40 -22zM477 967h90q127 -1 214 -105t69 -258l-66 -551q-2 -13 2 -33t-8 -20h-205q-33 0 -36 47q-84 -49 -154 -49h-82q-113 0 -193 95t-64 225t112 210t229 80h221l2 25q12 90 -88 90
h-96q-55 1 -99 -23t-49 -26q-23 -12 -40 12l-86 125q-20 29 -3 45q137 111 330 111zM778 1638h191q16 0 25 -14t-1 -31l-286 -366q-20 -27 -52 -27h-182q-27 0 -43 33l-194 369q-8 14 -4 25q5 11 20 11h180q18 0 45 -45l103 -190l149 201q26 34 49 34z" />
    <glyph glyph-name="Icaron" unicode="&#x1cf;" horiz-adv-x="591" 
d="M266 1487h189q14 0 24 -10t8 -27l-174 -1425q-4 -25 -28 -25h-189q-14 0 -24 10t-9 27l177 1425q2 25 26 25zM268 2163q18 0 45 -45l103 -191l149 201q27 35 49 35h191q16 -1 25 -15t-1 -30l-286 -367q-20 -27 -51 -27h-183q-27 0 -43 33l-194 369q-8 14 -3 25t19 12h180
z" />
    <glyph glyph-name="icaron" unicode="&#x1d0;" horiz-adv-x="573" 
d="M238 965h184q14 -1 24 -11t9 -26l-111 -903q-4 -25 -29 -25h-184q-14 0 -25 10q-10 11 -8 27l113 903q2 25 27 25zM57 1638h181q18 0 45 -45l102 -190l150 201q27 35 49 34h190q16 0 26 -14t-1 -31l-287 -366q-20 -27 -51 -27h-182q-27 0 -43 33l-195 369q-8 14 -3 25
t19 11z" />
    <glyph glyph-name="Ocaron" unicode="&#x1d1;" horiz-adv-x="1208" 
d="M502 227h106q86 0 147 69q60 69 72 165l74 581q12 96 -25 159q-38 62 -126 63h-107q-86 0 -147 -69t-72 -165l-72 -581q-12 -96 26 -159t124 -63zM662 1509h106q176 0 288 -146t87 -349l-68 -549q-25 -203 -166 -343t-317 -140h-107q-179 0 -291 146t-85 349l69 549
q27 203 167 343q141 140 317 140zM618 2161q18 0 46 -45l102 -191l149 201q27 35 50 35h190q15 1 25 -15t0 -30l-287 -367q-20 -27 -51 -27h-183q-27 0 -43 33l-194 369q-8 14 -3 25t19 12h180z" />
    <glyph glyph-name="ocaron" unicode="&#x1d2;" horiz-adv-x="1052" 
d="M586 723h-88q-58 0 -96 -40t-42 -91l-28 -234q-14 -115 96 -114h88q57 0 95 38t42 89l29 233q6 51 -16 85q-23 34 -80 34zM520 969h80q154 0 250 -112t78 -265l-29 -234q-20 -154 -136 -257t-269 -103h-80q-154 0 -250 110t-78 263l29 233q19 154 135 260t270 105z
M289 1638h180q18 0 45 -45l102 -190l150 201q27 35 49 34h191q16 0 25 -14t-1 -31l-287 -366q-20 -27 -51 -27h-182q-27 0 -43 33l-195 369q-8 14 -3 25t20 11z" />
    <glyph glyph-name="Ucaron" unicode="&#x1d3;" horiz-adv-x="1187" 
d="M938 1489h184q14 0 24 -10t9 -27l-123 -1010q-25 -198 -163 -326t-334 -128h-54q-197 0 -307 134t-88 333l125 1009q2 25 27 25h184q14 0 24 -10t9 -27l-119 -969q-31 -250 164 -250h53q111 0 169 78t71 185l118 968q2 25 27 25zM588 2163q18 0 45 -45l102 -191l150 201
q27 35 49 35h190q16 -1 26 -15t-1 -30l-287 -367q-20 -27 -51 -27h-182q-27 0 -43 33l-195 369q-8 14 -3 25t20 12h180z" />
    <glyph glyph-name="ucaron" unicode="&#x1d4;" horiz-adv-x="1077" 
d="M840 0h-185q-14 0 -24 10t-8 27l6 33q-17 -26 -63 -48t-89 -22h-90q-155 0 -225 105t-49 268l69 565q4 25 29 25h184q15 -1 25 -11t8 -26l-70 -566q-6 -50 19 -82t69 -32h93q45 0 82 38t43 89l69 565q4 25 29 25h184q14 -1 24 -11t9 -26l-111 -901q-4 -25 -28 -25z
M311 1638h181q18 0 45 -45l102 -190l149 201q27 35 50 34h190q16 0 26 -14t-1 -31l-287 -366q-20 -27 -51 -27h-183q-27 0 -43 33l-194 369q-8 14 -3 25t19 11z" />
    <glyph glyph-name="Gcaron" unicode="&#x1e6;" horiz-adv-x="1173" 
d="M637 770h412q14 0 24 -10t8 -27l-34 -289q-27 -207 -161 -339t-317 -132h-98q-190 0 -299 140.5t-82 357.5l70 557q27 217 162 349t325 132h98q182 0 288 -137t85 -348q-2 -18 -28 -18h-185q-16 0 -25.5 12t-7.5 31q14 111 -20.5 163t-124.5 52h-98q-195 0 -226 -248
l-67 -557q-16 -127 19.5 -183.5t131.5 -56.5h99q184 0 215 238l8 67h-188q-14 0 -24.5 10.5t-8.5 26.5l22 184q2 25 27 25zM449 2163h180q18 0 45 -45l102 -191l150 201q27 35 49 35h190q16 0 25.5 -14.5t-0.5 -30.5l-287 -367q-20 -27 -51 -27h-182q-27 0 -43 33l-195 369
q-8 14 -3 25.5t20 11.5z" />
    <glyph glyph-name="gcaron" unicode="&#x1e7;" horiz-adv-x="1001" 
d="M418 244h90q49 0 86 37l49 399q2 25 -18 34t-68 9h-70q-47 0 -88 -38t-47 -93l-28 -234q-8 -55 18 -85q27 -29 76 -29zM770 963h121q14 -1 24 -11t9 -26l-127 -1035q-14 -115 -124 -207t-243 -94h-51q-113 0 -198 58t-128 155q-12 29 15 45l131 74q27 14 53 -20
q55 -66 121 -66h73q41 0 70 23t33 61l10 86q-33 -8 -84 -8h-74q-151 0 -245 112t-78 261l28 233q18 150 134 258t268 107h67q74 0 134 -49h4q4 43 57 43zM272 1638h181q18 0 45 -45l102 -190l150 201q27 35 49 34h190q15 0 25 -14t0 -31l-287 -366q-20 -27 -51 -27h-182
q-27 0 -43 33l-195 369q-8 14 -3 25t19 11z" />
    <glyph glyph-name="Scommaaccent" unicode="&#x218;" horiz-adv-x="1173" 
d="M264 -410h250q16 0 24.5 -11t6.5 -25l-35 -287q-27 -217 -166 -369q-20 -12 -41 12l-76 78q-29 29 -14 49q53 41 72.5 95.5t27.5 134.5l19 14h-94q-14 0 -24.5 10.5t-8.5 26.5l31 248q1 24 28 24zM629 1518h106q166 0 279.5 -127t91.5 -310l-4 -39q-2 -25 -27 -24h-186
q-14 0 -24.5 10t-8.5 27l4 39q10 78 -32 128t-111 50h-107q-72 0 -124 -54.5t-62 -125.5q-2 -43 -1 -82t37 -72t105 -45l117 -19q195 -31 288 -159.5t69 -316.5t-163 -303t-313 -115h-94q-170 0 -288 121.5t-95 297.5l6 60q2 25 29 24h186q16 0 24.5 -11t6.5 -26l-4 -59
q-6 -74 37 -118t116 -44h95q80 0 142 53.5t72 139.5t-17 140t-126 71l-114 22q-205 39 -292 163t-66 304t149.5 290t298.5 110z" />
    <glyph glyph-name="scommaaccent" unicode="&#x219;" horiz-adv-x="966" 
d="M166 -410h250q16 0 24.5 -11t5.5 -25l-34 -287q-27 -217 -166 -369q-20 -12 -41 12l-76 78q-29 29 -14 49q53 41 72.5 95.5t27.5 134.5l18 14h-94q-14 0 -24.5 10.5t-8.5 26.5l31 248q2 24 29 24zM438 -10h-49q-131 0 -227 81t-94 199q0 18 24 19h189q20 0 38.5 -26.5
t79.5 -26.5h84q96 0 103 59q25 51 -113 63q-201 16 -286 99.5t-66.5 227.5t122 215t261.5 71h39q141 0 238.5 -88t80.5 -219q-2 -20 -28 -21h-183q-41 0 -34.5 41t-94.5 41h-67q-84 0 -90 -47q0 -14 -4.5 -27.5t24.5 -28t92 -22.5q199 -20 285 -99t65 -241
q-14 -121 -124.5 -195.5t-264.5 -74.5z" />
    <glyph glyph-name="uni021A" unicode="&#x21a;" horiz-adv-x="1165" 
d="M268 -410h250q16 0 24.5 -11t6.5 -25l-35 -287q-27 -217 -166 -369q-20 -12 -41 12l-76 78q-29 29 -14 49q53 41 72.5 95.5t27.5 134.5l19 14h-94q-14 0 -24.5 10.5t-8.5 26.5l31 248q1 24 28 24zM240 1487h899q14 0 24.5 -10.5t7.5 -26.5l-22 -184q-2 -25 -27 -25h-331
l-150 -1216q-4 -25 -29 -25h-184q-14 0 -24.5 10t-8.5 27l150 1204h-322q-14 0 -24.5 10.5t-8.5 26.5l23 184q2 25 27 25z" />
    <glyph glyph-name="uni021B" unicode="&#x21b;" horiz-adv-x="710" 
d="M160 -410h250q16 0 24 -11t6 -25l-34 -287q-27 -217 -166 -369q-20 -12 -41 12l-76 78q-29 29 -14 49q53 41 72.5 95.5t27.5 134.5l18 14h-94q-14 0 -24.5 10.5t-8.5 26.5l31 248q2 24 29 24zM629 963q16 0 26.5 -10.5t8.5 -26.5l-23 -185q-2 -25 -29 -24h-149l-39 -318
q-4 -45 -3 -77q2 -71 93 -72q18 0 30.5 -9.5t10.5 -23.5l-23 -194q-2 -27 -16 -27q-176 -4 -272.5 69.5t-77.5 235.5l51 416h-90q-16 0 -25.5 10t-7.5 25l21 182q2 29 30 29h103l26 219q2 25 27 24h184q14 0 24.5 -10t8.5 -27l-24 -206h135z" />
    <glyph glyph-name="uni0228" unicode="&#x228;" horiz-adv-x="1138" 
d="M270 1487h822q14 0 24 -10.5t8 -26.5l-22 -184q-2 -25 -27 -25h-612l-47 -369h467q14 0 24.5 -10t7.5 -26l-22 -185q-2 -25 -27 -24h-479l-47 -381h600q14 0 24.5 -10.5t8.5 -26.5l-23 -184q-4 -25 -28 -25h-265q2 -6 0 -12q-35 -35 -23 -41t27 -8t19 -5q104 -10 146 -55
t28 -149q-18 -143 -211 -144h-158q-84 0 -128 51.5t-35 133.5q2 8 14 8h149q8 0 16.5 -8.5t6.5 -22.5t9 -17t40 -3h41q66 0 72 39q0 8 -9.5 11t-70 9t-110.5 13t-73.5 26.5t-21.5 66t53 107.5h-338q-14 0 -24 10t-8 27l176 1425q1 25 26 25z" />
    <glyph glyph-name="uni0229" unicode="&#x229;" horiz-adv-x="995" 
d="M575 723h-77q-43 0 -86 -34t-47 -75l-3 -12h300l4 27q4 41 -24 67.5t-67 26.5zM520 969h78q133 0 230.5 -110.5t78.5 -264.5l-16 -133q-8 -55 -64 -55h-489l-4 -50q-8 -53 19.5 -82.5t76.5 -29.5h88q50 0 98 48q16 16 43 50q23 16 48 -12l118 -117q23 -23 11 -49
q-72 -72 -137.5 -113t-157.5 -51q4 -6 -4 -15t-13.5 -17.5t-7.5 -13.5t4 -8t9 -4t16.5 -3t17.5 -5q104 -10 146.5 -55t27.5 -149q-18 -143 -211 -144h-157q-84 0 -128 51.5t-36 133.5q2 8 14 8h150q8 0 16 -8.5t6 -22.5t9.5 -17t39.5 -3h41q66 0 72 39q0 8 -9 11t-69.5 9
t-111 13t-74 26.5t-19.5 69t60 112.5q-119 31 -187.5 134.5t-54.5 228.5l29 233q18 150 134.5 257.5t268.5 107.5z" />
    <glyph glyph-name="dotlessj" unicode="&#x237;" horiz-adv-x="567" 
d="M231 965h185q14 -1 24 -11t9 -26l-132 -1057q-14 -133 -104 -237t-219 -140q-35 -6 -43 31l-57 170q-8 27 10 39q61 16 112 62t60 104l129 1040q2 25 26 25z" />
    <glyph glyph-name="circumflex" unicode="&#x2c6;" horiz-adv-x="974" 
d="M702 1638q27 0 48 -39l196 -364q16 -35 -14 -35h-187q-18 0 -43 43l-104 193l-149 -201q-27 -35 -50 -35h-190q-16 0 -24 15q-7 16 3 30l285 365q23 29 47 28h182z" />
    <glyph glyph-name="caron" unicode="&#x2c7;" horiz-adv-x="974" 
d="M258 1638h180q18 0 45 -45l103 -190l149 201q27 35 49 34h191q16 0 25 -14t-1 -31l-286 -366q-20 -27 -51 -27h-183q-27 0 -43 33l-194 369q-8 14 -3 25t19 11z" />
    <glyph glyph-name="breve" unicode="&#x2d8;" horiz-adv-x="927" 
d="M776 1638h144q37 0 32 -43q-20 -145 -108 -233t-226 -88h-120q-139 0 -211 96t-56 250q2 18 27 18h143q37 0 33 -43t18 -79t76 -37h84q55 0 93 45q37 45 45 96q1 18 26 18z" />
    <glyph glyph-name="dotaccent" unicode="&#x2d9;" horiz-adv-x="516" 
d="M240 1487h249q15 0 25 -10t8 -27l-30 -248q-2 -25 -27 -24h-250q-14 0 -25 10q-10 10 -8 26l31 248q2 25 27 25z" />
    <glyph glyph-name="ring" unicode="&#x2da;" horiz-adv-x="608" 
d="M428 1497h-6q-23 0 -43 -18t-25 -41v-6q-6 -49 41 -50h6q25 0 45 20t25 42v6q6 47 -43 47zM416 1640h26q82 0 132 -57t40 -139l-4 -23q-8 -82 -64 -132t-140 -50h-27q-84 0 -132 56t-38 139l2 22q11 82 67 133t138 51z" />
    <glyph glyph-name="ogonek" unicode="&#x2db;" horiz-adv-x="659" 
d="M113 -414q-104 0 -152 40q-47 40 -35 137t65 124q32 17 51 21t77 12q82 6 120 26t26 68h161q8 0 16 -8t7 -20q12 -104 -24 -144t-114 -51q-133 -10 -174 -18q-43 0 -45 -29q-2 -4 6 -2q31 2 49 2h246q10 0 18 -10q7 -11 5 -21l-15 -112q-2 -14 -16 -15h-272z" />
    <glyph glyph-name="tilde" unicode="&#x2dc;" horiz-adv-x="991" 
d="M928 1518l53 -136q12 -23 -14 -49q-231 -137 -406 -18q-99 59 -166 27q-29 -13 -88 -52q-27 -10 -37 29l-55 137q-8 23 16 47q242 141 406 19q95 -63 167 -29q30 14 87 53q31 13 37 -28z" />
    <glyph glyph-name="hungarumlaut" unicode="&#x2dd;" horiz-adv-x="1013" 
d="M1010 1638q18 0 26 -12t0 -31l-227 -378q-20 -31 -43 -31h-188q-16 0 -25 13q-8 14 0 30l203 379q12 31 41 30h213zM641 1638q19 0 27 -12t0 -31l-228 -378q-20 -31 -43 -31h-188q-16 0 -25 13q-8 14 0 30l203 379q12 31 41 30h213z" />
    <glyph glyph-name="uni0326" unicode="&#x326;" horiz-adv-x="0" 
d="M-61 -410h249q16 0 24.5 -11t6.5 -25l-35 -287q-27 -217 -166 -369q-20 -12 -41 12l-75 78q-29 29 -15 49q53 41 73 95.5t28 134.5l18 14h-94q-14 0 -24.5 10.5t-8.5 26.5l31 248q2 24 29 24z" />
    <glyph glyph-name="Delta" unicode="&#x394;" horiz-adv-x="1271" 
d="M842 246l-133 889l-359 -889h492zM1087 0h-1036q-16 0 -24 11t-2 28l606 1427q10 27 39 27h147q32 0 37 -39l254 -1427q2 -15 -2 -21t-19 -6z" />
    <glyph glyph-name="Omega" unicode="&#x3a9;" horiz-adv-x="1243" 
d="M1026 0h-364q-14 0 -25 10q-10 10 -8 27l39 307q2 25 26 25h6q152 0 181 229l53 430q16 135 -22 186t-128 52h-94q-190 0 -221 -250l-53 -430q-14 -111 10 -164t102 -53h7q14 -1 24 -11t8 -26l-37 -307q-4 -25 -28 -25h-365q-14 0 -24 10t-9 27l23 184q4 25 29 25l127 4
q-133 166 -109 368l51 410q25 203 166 343t318 140h94q176 0 288 -146t87 -349l-52 -410q-25 -209 -188 -364l106 4q14 0 24 -10t9 -27l-22 -184q-4 -25 -29 -25z" />
    <glyph glyph-name="mu" unicode="&#x3bc;" horiz-adv-x="1144" 
d="M760 963h184q14 -1 24 -11t9 -26l-111 -901q-4 -25 -28 -25h-185q-14 0 -24 10t-8 27l6 33q-17 -26 -63 -48t-89 -22h-90q-41 0 -72 6l-49 -391q-2 -25 -26 -25h-185q-14 0 -24 10t-9 27l160 1311q4 25 29 25h184q15 -1 25 -11t8 -26l-70 -566q-6 -50 19 -82t69 -32h93
q45 0 81 38t44 89l69 565q4 25 29 25z" />
    <glyph glyph-name="pi" unicode="&#x3c0;" horiz-adv-x="1196" 
d="M174 963h932q14 1 24 -11t9 -26l-25 -187q-2 -23 -27 -22h-55l-84 -692q-4 -25 -28 -25h-185q-14 0 -24 10t-9 27l84 680h-342l-84 -692q-4 -25 -28 -25h-185q-14 0 -24 10t-8 27l84 680h-41q-37 0 -33 37l22 184q3 18 10 21q7 4 17 4z" />
    <glyph glyph-name="uni0401" unicode="&#x401;" horiz-adv-x="1138" 
d="M883 872q14 0 24.5 -10t7.5 -26l-22 -185q-2 -25 -27 -24h-479l-47 -381h600q14 0 24.5 -10.5t8.5 -26.5l-23 -184q-4 -25 -28 -25h-822q-14 0 -24 10t-8 27l176 1425q2 25 26 25h822q14 0 24 -10.5t8 -26.5l-22 -184q-2 -25 -27 -25h-612l-47 -369h467zM1147 2011
q14 0 24.5 -10t8.5 -27l-31 -248q-2 -25 -27 -24h-250q-14 0 -24 10.5t-8 26.5l30 248q2 25 27 24h250zM670 2011q14 0 24.5 -10t7.5 -27l-30 -248q-2 -25 -27 -24h-250q-14 0 -24.5 10.5t-8.5 26.5l31 248q2 25 27 24h250z" />
    <glyph glyph-name="uni0403" unicode="&#x403;" horiz-adv-x="1148" 
d="M270 1487h822q14 0 24 -10t8 -27l-22 -184q-2 -25 -27 -25h-612l-150 -1216q-4 -25 -28 -25h-185q-14 0 -24 10t-8 27l176 1425q1 25 26 25zM709 1710h-189q-16 0 -24 13t0 30l202 379q12 31 41 31h213q18 -1 26 -13t1 -30l-227 -379q-20 -31 -43 -31z" />
    <glyph glyph-name="uni0404" unicode="&#x404;" horiz-adv-x="1159" 
d="M647 1509h94q182 0 288 -137t85 -348q-2 -18 -29 -18h-184q-16 0 -25.5 12t-7.5 31q14 111 -20.5 163t-124.5 52h-94q-195 0 -226 -248l-18 -150h311q14 0 24.5 -10t8.5 -27l-22 -184q-2 -25 -29 -24h-322l-20 -162q-16 -127 19.5 -183.5t131.5 -56.5h95q186 0 215 244
q2 18 28 18h185q37 0 30 -43q-27 -203 -159.5 -334t-315.5 -131h-94q-190 0 -299 140.5t-82 357.5l70 557q27 217 162 349t325 132z" />
    <glyph glyph-name="uni0406" unicode="&#x406;" horiz-adv-x="591" 
d="M266 1487h189q14 0 24 -10t8 -27l-174 -1425q-4 -25 -28 -25h-189q-14 0 -24 10t-9 27l177 1425q2 25 26 25z" />
    <glyph glyph-name="uni0407" unicode="&#x407;" horiz-adv-x="591" 
d="M266 1487h189q14 0 24 -10t8 -27l-174 -1425q-4 -25 -28 -25h-189q-14 0 -24 10t-9 27l177 1425q2 25 26 25zM786 2011q14 0 24 -10t9 -27l-31 -248q-2 -25 -26 -24h-250q-14 0 -25 10q-10 11 -8 27l31 248q2 25 27 24h249zM309 2011q15 0 25 -10t8 -27l-31 -248
q-2 -25 -26 -24h-250q-14 0 -25 10q-10 11 -8 27l31 248q2 25 26 24h250z" />
    <glyph glyph-name="uni0408" unicode="&#x408;" horiz-adv-x="1155" 
d="M465 231h53q106 0 176 69t84 194l119 968q2 25 27 25h184q14 0 24 -10t9 -27l-121 -989q-27 -223 -173 -349t-327 -126h-74q-130 0 -246 80t-147 204q-10 21 10 35l154 92q10 6 17 -3t14 -29q43 -72 92 -103t125 -31z" />
    <glyph glyph-name="uni040C" unicode="&#x40c;" horiz-adv-x="1234" 
d="M1069 0h-221q-33 0 -51 33l-351 610l-75 -76l-68 -542q-4 -25 -29 -25h-184q-14 0 -24.5 10t-8.5 27l176 1425q2 25 27 25h184q14 0 24.5 -10.5t8.5 -26.5l-74 -586l490 598q20 25 39 25h235q16 0 22.5 -17.5t-7.5 -37.5l-531 -631l426 -756q15 -25 9.5 -35t-17.5 -10z
M866 2163h213q18 0 26.5 -12.5t0.5 -30.5l-227 -379q-20 -31 -43 -31h-189q-16 0 -24 13.5t0 29.5l202 379q12 31 41 31z" />
    <glyph glyph-name="uni040D" unicode="&#x40d;" horiz-adv-x="1292" 
d="M270 1487h185q14 0 24 -10.5t8 -26.5l-116 -938l624 958q10 16 35 17h205q14 0 24.5 -10.5t8.5 -26.5l-174 -1425q-4 -25 -29 -25h-184q-14 0 -24.5 10t-8.5 27l119 938l-627 -959q-10 -16 -35 -16h-205q-14 0 -24 10t-8 27l176 1425q1 25 26 25zM866 1710h-168
q-27 0 -39 43l-133 379q-8 18 -5 24.5t20 6.5h192q33 0 41 -43l109 -379q10 -31 -17 -31z" />
    <glyph glyph-name="uni040E" unicode="&#x40e;" horiz-adv-x="1255" 
d="M1040 1487h197q19 0 25 -13t0 -30l-811 -1415q-16 -29 -45 -29h-197q-18 0 -26 14q-7 14 1 29l322 561l-289 852q-13 31 14 31h199q29 0 41 -41l197 -561l329 573q14 29 43 29zM846 1798h-121q-139 0 -211 96t-55 250q2 18 26 19h144q37 0 33 -43t18 -80t76 -37h84
q55 0 92 45t45 96q2 18 27 19h143q37 0 33 -43q-20 -146 -108 -234t-226 -88z" />
    <glyph glyph-name="uni0410" unicode="&#x410;" horiz-adv-x="1230" 
d="M733 606l-61 385l-158 -385h219zM1047 0h-185q-33 0 -39 39l-51 321h-360l-138 -333q-12 -27 -36 -27h-187q-16 0 -24 11t-2 28l585 1427q10 27 39 27h148q15 1 25 -11t12 -28l233 -1427q2 -15 -2 -21t-18 -6z" />
    <glyph glyph-name="uni0411" unicode="&#x411;" horiz-adv-x="1183" 
d="M586 246q86 0 138 40t66 150t-24 144q-37 34 -123 34h-258l-45 -368h246zM682 860q182 0 278 -122t73 -318t-143 -308t-302 -112h-488q-14 0 -24 10t-8 27l176 1425q2 25 26 25h744q14 0 24 -10t9 -27l-23 -184q-2 -25 -27 -25h-534l-47 -381h266z" />
    <glyph glyph-name="uni0412" unicode="&#x412;" horiz-adv-x="1196" 
d="M592 246q106 0 162 45q55 45 69 149q23 197 -172 197h-264l-47 -391h252zM670 883q96 0 140 49t56 149q18 160 -139 160h-264l-45 -358h252zM616 0h-510q-18 0 -28 12t-8 31l172 1413q4 31 34 31h494q176 1 271 -103t73 -286q-32 -252 -188 -340q80 -40 116 -140t19 -243
q-45 -375 -445 -375z" />
    <glyph glyph-name="uni0413" unicode="&#x413;" horiz-adv-x="1148" 
d="M270 1487h822q14 0 24 -10t8 -27l-22 -184q-2 -25 -27 -25h-612l-150 -1216q-4 -25 -28 -25h-185q-14 0 -24 10t-8 27l176 1425q1 25 26 25z" />
    <glyph glyph-name="uni0414" unicode="&#x414;" horiz-adv-x="1593" 
d="M1061 246l123 995h-514l-70 -555q-31 -250 -115 -440h576zM477 1487h944q15 0 25 -10t8 -27l-147 -1204h110q15 0 25 -10t8 -27l-47 -383q-4 -25 -29 -25h-184q-14 1 -24 11t-9 26l21 162h-920l-20 -174q-4 -25 -29 -25h-184q-15 1 -25 11t-8 26l47 383q4 25 29 25h65
q35 0 79 52t88 172t62 278l89 714q1 25 26 25z" />
    <glyph glyph-name="uni0415" unicode="&#x415;" horiz-adv-x="1138" 
d="M883 872q14 0 24.5 -10t7.5 -26l-22 -185q-2 -25 -27 -24h-479l-47 -381h600q14 0 24.5 -10.5t8.5 -26.5l-23 -184q-4 -25 -28 -25h-822q-14 0 -24 10t-8 27l176 1425q2 25 26 25h822q14 0 24 -10.5t8 -26.5l-22 -184q-2 -25 -27 -25h-612l-47 -369h467z" />
    <glyph glyph-name="uni0416" unicode="&#x416;" horiz-adv-x="1998" 
d="M1823 0h-221q-33 0 -52 33l-350 610l-76 -76l-67 -542q-4 -25 -29 -25h-184q-14 0 -25 10q-10 10 -8 27l68 530l-52 76l-499 -618q-23 -25 -58 -25h-221q-18 0 -23 20t5 33l620 748l-364 639q-25 47 4 47h235q18 0 35 -33l350 -590l76 598q2 25 27 25h184q14 0 24 -10
t9 -27l-74 -586l490 598q20 25 39 25h235q17 1 23 -17t-9 -38l-530 -631l426 -756q14 -23 9 -34t-17 -11z" />
    <glyph glyph-name="uni0417" unicode="&#x417;" horiz-adv-x="1148" 
d="M477 -18h-86q-168 0 -285 118t-94 297l4 39q4 25 29 25h186q15 0 25 -10t8 -27l-6 -39q-8 -66 33 -112t119 -46h86q92 -1 149 53t68 132q12 110 -19 158t-137 55h-151q-14 0 -25 10q-10 10 -8 27l24 196q2 25 27 25h151q109 6 152 60t57 171q6 61 -29 107q-36 45 -120 45
h-88q-78 0 -136 -58t-67 -131l-6 -39q-2 -25 -27 -24h-186q-14 0 -25 10q-10 10 -8 27l4 39q25 184 165 303t304 118h88q170 1 283 -119q114 -120 94 -281t-88 -243t-194 -116q246 -70 204 -385q-20 -173 -159 -279t-316 -106z" />
    <glyph glyph-name="uni0418" unicode="&#x418;" horiz-adv-x="1292" 
d="M270 1487h185q14 0 24 -10.5t8 -26.5l-116 -938l624 958q10 16 35 17h205q14 0 24.5 -10.5t8.5 -26.5l-174 -1425q-4 -25 -29 -25h-184q-14 0 -24.5 10t-8.5 27l119 938l-627 -959q-10 -16 -35 -16h-205q-14 0 -24 10t-8 27l176 1425q1 25 26 25z" />
    <glyph glyph-name="uni0419" unicode="&#x419;" horiz-adv-x="1292" 
d="M270 1487h185q14 0 24 -10.5t8 -26.5l-116 -938l624 958q10 16 35 17h205q14 0 24.5 -10.5t8.5 -26.5l-174 -1425q-4 -25 -29 -25h-184q-14 0 -24.5 10t-8.5 27l119 938l-627 -959q-10 -16 -35 -16h-205q-14 0 -24 10t-8 27l176 1425q1 25 26 25zM1022 2163h143
q37 0 33 -43q-20 -145 -108.5 -233.5t-225.5 -88.5h-121q-139 0 -210.5 96.5t-55.5 249.5q2 18 27 19h143q37 0 33 -43t17.5 -80t76.5 -37h84q55 0 92 45t45 96q2 19 27 19z" />
    <glyph glyph-name="uni041A" unicode="&#x41a;" horiz-adv-x="1234" 
d="M1069 0h-221q-33 0 -51 33l-351 610l-75 -76l-68 -542q-4 -25 -29 -25h-184q-14 0 -24.5 10t-8.5 27l176 1425q2 25 27 25h184q14 0 24.5 -10.5t8.5 -26.5l-74 -586l490 598q20 25 39 25h235q16 0 22.5 -17.5t-7.5 -37.5l-531 -631l426 -756q15 -25 9.5 -35t-17.5 -10z
" />
    <glyph glyph-name="uni041B" unicode="&#x41b;" horiz-adv-x="1427" 
d="M385 1487h985q14 0 24 -10t9 -27l-174 -1425q-4 -25 -29 -25h-184q-14 0 -25 10q-10 10 -8 27l150 1204h-555l-115 -932q-10 -89 -54 -153q-79 -115 -244 -148q-71 -14 -145 -12q-39 0 -34 39l26 194q2 20 23 21q176 6 198 203l125 1009q2 25 27 25z" />
    <glyph glyph-name="uni041C" unicode="&#x41c;" horiz-adv-x="1505" 
d="M1192 1487h246q14 0 24 -10t8 -27l-174 -1425q-4 -25 -28 -25h-185q-14 0 -24 10t-8 27l116 926l-387 -938q-12 -25 -39 -25h-104q-31 0 -39 37l-158 926l-116 -938q-4 -25 -29 -25h-184q-14 0 -25 10q-10 10 -8 27l176 1425q2 25 27 25h245q33 0 41 -37l168 -987
l418 999q10 25 39 25z" />
    <glyph glyph-name="uni041D" unicode="&#x41d;" horiz-adv-x="1210" 
d="M969 1487h184q15 0 25 -10t8 -27l-174 -1425q-4 -25 -29 -25h-184q-14 0 -25 10q-10 10 -8 27l68 549h-453l-68 -561q-4 -25 -28 -25h-185q-14 0 -24 10t-8 27l176 1425q2 25 26 25h185q14 0 24 -10t8 -27l-75 -619h452l78 631q2 25 27 25z" />
    <glyph glyph-name="uni041E" unicode="&#x41e;" horiz-adv-x="1208" 
d="M502 227h106q86 0 147 69q60 69 72 165l74 581q12 96 -25 159q-38 62 -126 63h-107q-86 0 -147 -69t-72 -165l-72 -581q-12 -96 26 -159t124 -63zM662 1509h106q176 0 288 -146t87 -349l-68 -549q-25 -203 -166 -343t-317 -140h-107q-179 0 -291 146t-85 349l69 549
q27 203 167 343q141 140 317 140z" />
    <glyph glyph-name="uni041F" unicode="&#x41f;" horiz-adv-x="1312" 
d="M270 1487h985q15 0 25 -10t8 -27l-174 -1425q-4 -25 -29 -25h-184q-14 0 -24 10t-9 27l150 1204h-555l-150 -1216q-4 -25 -28 -25h-185q-14 0 -24 10t-8 27l176 1425q1 25 26 25z" />
    <glyph glyph-name="uni0420" unicode="&#x420;" horiz-adv-x="1163" 
d="M721 1241h-258l-45 -369h244q86 0 138 42t66 152t-22 143q-37 32 -123 32zM270 1487h488q184 0 280 -120q96 -121 72 -317t-142 -310q-120 -114 -302 -113h-279l-74 -602q-4 -25 -28 -25h-185q-14 0 -24 10t-8 27l176 1425q1 25 26 25z" />
    <glyph glyph-name="uni0421" unicode="&#x421;" horiz-adv-x="1159" 
d="M825 481h185q37 0 30 -43q-27 -203 -159.5 -334t-315.5 -131h-94q-190 0 -299 140.5t-82 357.5l70 557q27 217 162 349t325 132h94q182 0 288 -137t85 -348q-2 -18 -29 -18h-184q-16 0 -25.5 12t-7.5 31q14 111 -20.5 163t-124.5 52h-94q-195 0 -226 -248l-67 -557
q-16 -127 19.5 -183.5t131.5 -56.5h95q186 0 215 244q1 18 28 18z" />
    <glyph glyph-name="uni0422" unicode="&#x422;" horiz-adv-x="1165" 
d="M240 1487h899q14 0 24.5 -10.5t7.5 -26.5l-22 -184q-2 -25 -27 -25h-331l-150 -1216q-4 -25 -29 -25h-184q-14 0 -24.5 10t-8.5 27l150 1204h-322q-14 0 -24.5 10.5t-8.5 26.5l23 184q2 25 27 25z" />
    <glyph glyph-name="uni0423" unicode="&#x423;" horiz-adv-x="1255" 
d="M1040 1487h197q19 0 25 -13t0 -30l-811 -1415q-16 -29 -45 -29h-197q-18 0 -26 14q-7 14 1 29l322 561l-289 852q-13 31 14 31h199q29 0 41 -41l197 -561l329 573q14 29 43 29z" />
    <glyph glyph-name="uni0424" unicode="&#x424;" horiz-adv-x="1765" 
d="M1296 1077h-219l-82 -667h207q205 -1 236 241l24 197q16 129 -26 179q-43 50 -140 50zM629 1077q-207 0 -238 -241l-24 -197q-13 -129 29 -179t139 -50h213l83 667h-202zM1333 1323q170 0 284 -146t89 -341l-25 -197q-23 -195 -165 -335t-312 -140h-239l-17 -139
q-4 -25 -28 -25h-185q-14 0 -24 10t-9 27l17 127h-223q-170 0 -284 146t-89 341l24 197q25 195 167 335t311 140h237l17 139q2 25 26 25h185q14 0 24 -10t8 -27l-16 -127h227z" />
    <glyph glyph-name="uni0425" unicode="&#x425;" horiz-adv-x="1134" 
d="M221 1480q0 8 19 7h196q29 0 39 -37l148 -430l262 442q14 25 39 25h196q16 0 26 -11t1 -26l-424 -719l244 -706q7 -18 1 -22q-7 -3 -18 -3h-196q-29 0 -39 37l-148 430l-260 -442q-16 -25 -41 -25h-196q-16 0 -26 11q-9 11 -1 26l424 719l-242 706q-4 10 -4 18z" />
    <glyph glyph-name="uni0426" unicode="&#x426;" horiz-adv-x="1517" 
d="M1350 246q14 0 24 -10t8 -27l-53 -426q-2 -25 -26 -25h-185q-14 0 -24 10t-9 27l25 205h-1010q-14 0 -24 10t-8 27l176 1425q2 25 26 25h185q14 0 24 -10t8 -27l-147 -1204h555l149 1216q2 25 27 25h184q15 0 25 -10t8 -27l-147 -1204h209z" />
    <glyph glyph-name="uni0427" unicode="&#x427;" horiz-adv-x="1144" 
d="M883 1487h184q15 0 25 -10t8 -27l-174 -1425q-4 -25 -29 -25h-184q-14 0 -25 10q-10 10 -8 27l61 502q-43 -14 -94 -15h-198q-143 0 -233 116q-89 116 -73 257l70 565q2 25 27 25h184q14 0 24 -10t9 -27l-70 -569q-12 -111 76 -111h205q42 0 74 30t42 79l72 583
q2 25 27 25z" />
    <glyph glyph-name="uni0428" unicode="&#x428;" horiz-adv-x="2113" 
d="M1872 1487h184q14 0 24 -10t9 -27l-174 -1425q-4 -25 -29 -25h-1786q-14 0 -24 10t-8 27l176 1425q2 25 26 25h185q14 0 24 -10t8 -27l-147 -1204h555l149 1216q2 25 27 25h184q15 0 25 -10t8 -27l-147 -1204h555l149 1216q2 25 27 25z" />
    <glyph glyph-name="uni0429" unicode="&#x429;" horiz-adv-x="2318" 
d="M2150 246q14 0 24 -10t9 -27l-53 -426q-2 -25 -27 -25h-184q-15 0 -25 10t-8 27l25 205h-1811q-14 0 -24 10t-8 27l176 1425q2 25 26 25h185q14 0 24 -10t8 -27l-147 -1204h555l149 1216q2 25 27 25h184q15 0 25 -10t8 -27l-147 -1204h555l149 1216q2 25 27 25h184
q14 0 24 -10t9 -27l-147 -1204h208z" />
    <glyph glyph-name="uni042A" unicode="&#x42a;" horiz-adv-x="1394" 
d="M797 246q86 0 138 40t65 150t-23 145q-37 34 -123 33h-258l-45 -368h246zM893 860q182 0 278 -122q97 -122 73 -318t-144 -308t-301 -112h-488q-14 0 -24 10t-8 27l149 1204h-215q-14 0 -25 10q-10 10 -8 27l23 184q2 25 26 25h437q14 0 24 -10t8 -27l-22 -184v-4
l-49 -402h266z" />
    <glyph glyph-name="uni042B" unicode="&#x42b;" horiz-adv-x="1775" 
d="M586 246q86 0 138 40t66 150q13 110 -24 144t-123 34h-258l-45 -368h246zM1450 1487h188q14 0 24 -10t9 -27l-174 -1425q-4 -25 -29 -25h-188q-14 0 -25 10q-10 10 -8 27l176 1425q2 25 27 25zM682 860q182 0 278 -122t73 -318t-143 -308t-302 -112h-488q-14 0 -24 10
t-8 27l176 1425q2 25 26 25h185q14 0 24 -10t8 -27l-71 -590h266z" />
    <glyph glyph-name="uni042C" unicode="&#x42c;" horiz-adv-x="1183" 
d="M586 246q86 0 138 40t66 150q13 110 -24 144t-123 34h-258l-45 -368h246zM682 860q182 0 278 -122t73 -318t-143 -308t-302 -112h-488q-14 0 -24 10t-8 27l176 1425q2 25 26 25h185q14 0 24 -10t8 -27l-71 -590h266z" />
    <glyph glyph-name="uni042D" unicode="&#x42d;" horiz-adv-x="1163" 
d="M651 1509h94q190 0 294 -132t77 -349l-67 -557q-27 -217 -170.5 -357.5t-333.5 -140.5h-94q-182 0 -282.5 131.5t-78.5 333.5q4 43 41 43h184q16 0 21.5 -4t3.5 -14q-31 -244 156 -244h94q96 0 144 56.5t65 183.5l20 162h-321q-16 0 -20.5 5t-2.5 19l23 184q4 37 41 37
h311l18 150q31 248 -163 248h-95q-90 0 -137 -52.5t-61 -162.5q-2 -18 -14.5 -30.5t-28.5 -12.5h-185q-25 0 -24 18q31 211 170 348t321 137z" />
    <glyph glyph-name="uni042E" unicode="&#x42e;" horiz-adv-x="1740" 
d="M1176 1264q-86 0 -148 -69t-72 -165l-71 -581q-12 -96 25 -159q38 -62 124 -63h107q87 0 147 69t72 165l74 581q12 96 -26 158t-126 64h-106zM1194 1509h106q176 0 288 -146t87 -349l-67 -549q-25 -203 -166 -343t-318 -140h-106q-178 0 -291 146t-86 349l8 70h-272
l-64 -522q-4 -25 -28 -25h-189q-14 0 -24 10t-9 27l177 1425q2 25 26 25h189q14 0 24 -10t8 -27l-79 -657h274l29 233q27 203 167 343t316 140z" />
    <glyph glyph-name="uni042F" unicode="&#x42f;" horiz-adv-x="1191" 
d="M651 1241q-86 0 -138 -40t-65.5 -150t22.5 -144.5t122 -34.5h258l47 369h-246zM647 1487h488q14 0 24 -10.5t8 -26.5l-174 -1425q-4 -25 -28 -25h-185q-14 0 -24.5 10t-7.5 27l73 590h-248q-193 0 -223 -303l-37 -299q-2 -25 -28 -25h-185q-14 0 -24 11.5t-8 25.5l45 366
q29 215 161 347q-96 123 -71 318.5t143.5 307t300.5 111.5z" />
    <glyph glyph-name="uni0430" unicode="&#x430;" horiz-adv-x="944" 
d="M332 244h100q86 0 133 49l13 92h-218q-28 0 -52 -20q-24 -21 -28 -49t12 -50q15 -22 40 -22zM778 0h-205q-33 0 -36 47q-84 -49 -154 -49h-82q-113 0 -193 95t-64 225t112 210t229 80h221l2 25q12 90 -88 90h-96q-55 1 -99 -23t-49 -26q-23 -12 -40 12l-86 125
q-20 29 -3 45q137 111 330 111h90q127 -1 214 -105t69 -258l-66 -551q-2 -13 2 -33t-8 -20z" />
    <glyph glyph-name="uni0431" unicode="&#x431;" horiz-adv-x="1114" 
d="M608 723h-98q-102 0 -109 -61l-47 -388q31 -31 74 -30h111q47 0 88 35.5t47 91.5l28 233q8 55 -19.5 87t-74.5 32zM846 1487h211q31 0 20 -51q-25 -76 -103.5 -154t-144.5 -78q-125 0 -208 13q-78 6 -114 -47.5t-52 -139.5l-13 -74q39 12 86 13h95q152 0 247 -114
t78 -263l-28 -234q-18 -150 -135 -255t-269 -105h-94q-51 0 -98 29v-2q-4 -25 -29 -25h-184q-14 0 -24.5 10t-8.5 27l80 645l2 8l16 137q18 145 51 336q20 123 110.5 205t213.5 76q31 -2 86 -7t73 -4q57 3 97 50q10 4 39 4z" />
    <glyph glyph-name="uni0432" unicode="&#x432;" horiz-adv-x="1038" 
d="M506 238q49 0 74 16q24 16 30 64t-7 57q-13 10 -66 10h-160l-19 -147h148zM557 602q78 0 88 76q2 27 -10 37t-49 10h-166l-17 -123h154zM535 0h-414q-14 0 -25 10q-10 10 -8 27l111 901q4 25 28 25h414q131 0 199 -69t51 -204q0 -59 -22 -110q-22 -52 -55 -71t-60 -24
q119 -27 90 -249q-29 -236 -309 -236z" />
    <glyph glyph-name="uni0433" unicode="&#x433;" horiz-adv-x="956" 
d="M227 963h588q15 -1 25 -11t8 -26l-23 -185q-4 -25 -28 -24h-379l-84 -692q-4 -25 -29 -25h-184q-14 0 -25 10q-10 10 -8 27l111 901q3 25 28 25z" />
    <glyph glyph-name="uni0434" unicode="&#x434;" horiz-adv-x="1452" 
d="M897 246l57 471h-319l-19 -154q-23 -182 -100 -317h381zM1253 246q15 0 25 -10t8 -27l-47 -383q-4 -25 -29 -25h-184q-14 1 -24 11t-9 26l21 162h-715l-20 -174q-4 -25 -29 -25h-184q-14 1 -24 11t-9 26l47 383q4 25 29 25h51q89 0 166 206q45 120 67 296l23 190
q4 25 28 25h750q14 -1 24 -11t9 -26l-84 -680h110z" />
    <glyph glyph-name="uni0435" unicode="&#x435;" horiz-adv-x="995" 
d="M575 723h-77q-43 0 -86 -34t-47 -75l-3 -12h300l4 27q4 41 -24 67.5t-67 26.5zM520 969h78q133 0 230.5 -110.5t78.5 -264.5l-16 -133q-8 -55 -64 -55h-489l-4 -50q-8 -53 19.5 -82.5t76.5 -29.5h88q50 0 98 48q16 16 43 50q23 16 48 -12l118 -117q23 -23 11 -49
q-53 -53 -92 -83t-107 -56.5t-145 -26.5h-78q-152 0 -247 111.5t-79 261.5l29 233q18 150 134.5 257.5t268.5 107.5z" />
    <glyph glyph-name="uni0436" unicode="&#x436;" horiz-adv-x="1712" 
d="M1493 0h-254q-20 0 -51 33l-238 254l-32 -262q-4 -25 -29 -25h-193q-14 0 -24 10t-8 27l32 250l-293 -262q-31 -25 -57 -25h-254q-18 0 -24 22t6 31l512 426l-367 436q-14 19 -13 33t17 15h252q25 0 41 -29l223 -262l35 266q4 25 29 25h192q15 -1 25 -11t8 -26l-35 -254
l285 270q20 20 45 21h252q16 1 23 -17t-9 -39l-483 -428l395 -434q12 -9 11 -27t-19 -18z" />
    <glyph glyph-name="uni0437" unicode="&#x437;" horiz-adv-x="1056" 
d="M389 -16q-115 0 -201 83t-71 197q2 10 18 10h201q29 0 24 -34q-2 -10 14 -10t40 -1h80q104 0 112 70q6 35 1 47t-38 16h-135q-10 0 -18 8t-6 21l24 201q2 12 5 14t14 2h135q37 6 53 20q15 14 21 52q6 39 -14 45t-81 6h-45q-102 0 -108 -49q0 -10 -19 -10h-200
q-29 0 -23 35q12 109 114 189t214 81h127q119 0 208 -81t74 -198q-8 -59 -16 -90q-8 -30 -41 -66t-92 -59q125 -55 102 -252q-14 -115 -118 -181t-228 -66h-127z" />
    <glyph glyph-name="uni0438" unicode="&#x438;" horiz-adv-x="1202" 
d="M227 963h185q14 -1 24 -11t8 -26l-65 -516l383 534q14 18 37 19h262q14 -1 24 -11t9 -26l-111 -901q-4 -25 -29 -25h-184q-14 0 -25 10q-10 10 -8 27l66 516l-404 -535q-14 -18 -37 -18h-241q-14 0 -25 10q-10 10 -8 27l111 901q3 25 28 25z" />
    <glyph glyph-name="uni0439" unicode="&#x439;" horiz-adv-x="1202" 
d="M227 963h185q14 -1 24 -11t8 -26l-65 -516l383 534q14 18 37 19h262q14 -1 24 -11t9 -26l-111 -901q-4 -25 -29 -25h-184q-14 0 -25 10q-10 10 -8 27l66 516l-404 -535q-14 -18 -37 -18h-241q-14 0 -25 10q-10 10 -8 27l111 901q3 25 28 25zM913 1638h144q37 0 33 -43
q-20 -145 -108 -233t-226 -88h-121q-139 0 -211 96t-55 250q2 18 26 18h144q37 0 33 -43t17 -79q22 -36 77 -37h84q55 0 92 45t45 96q1 18 26 18z" />
    <glyph glyph-name="uni043A" unicode="&#x43a;" horiz-adv-x="1116" 
d="M727 963h252q16 1 23 -17t-9 -39l-483 -428l395 -434q12 -9 11 -27t-19 -18h-254q-20 0 -51 33l-238 258l-32 -266q-4 -25 -29 -25h-193q-14 0 -24 10t-8 27l110 901q4 25 29 25h192q15 -1 25 -11t8 -26l-31 -248l281 264q20 21 45 21z" />
    <glyph glyph-name="uni043B" unicode="&#x43b;" horiz-adv-x="1181" 
d="M1040 963q14 -1 24 -11t9 -26l-110 -901q-4 -25 -29 -25h-184q-14 0 -25 10q-10 10 -8 27l84 680h-340l-39 -318q-27 -211 -221 -424q-23 -12 -43 15l-107 119q-20 25 -4 51q111 100 133 272l39 307q-2 4 -2 15l23 184q2 18 10 20q4 6 20 7h185q8 0 12 -2h573z" />
    <glyph glyph-name="uni043C" unicode="&#x43c;" horiz-adv-x="1406" 
d="M1040 963h226q14 -1 24 -11t8 -26l-110 -901q-4 -25 -29 -25h-184q-14 0 -25 10q-10 10 -8 27l66 516l-271 -469q-10 -16 -32 -16h-113q-27 0 -33 28l-160 457l-65 -528q-4 -25 -29 -25h-184q-14 0 -25 10q-10 10 -8 27l111 901q4 25 28 25h226q27 0 34 -29l191 -553
l328 565q9 17 34 17z" />
    <glyph glyph-name="uni043D" unicode="&#x43d;" horiz-adv-x="1140" 
d="M815 963h184q15 -1 25 -11t8 -26l-110 -901q-4 -25 -29 -25h-184q-14 0 -25 10q-10 10 -8 27l39 321h-340l-41 -333q-4 -25 -29 -25h-184q-14 0 -25 10q-10 10 -8 27l111 901q4 25 28 25h185q14 -1 24 -11t8 -26l-38 -322h339l41 334q4 25 29 25z" />
    <glyph glyph-name="uni043E" unicode="&#x43e;" horiz-adv-x="1052" 
d="M586 723h-88q-58 0 -96 -40t-42 -91l-28 -234q-14 -115 96 -114h88q57 0 95 38t42 89l29 233q6 51 -16 85q-23 34 -80 34zM520 969h80q154 0 250 -112t78 -265l-29 -234q-20 -154 -136 -257t-269 -103h-80q-154 0 -250 110t-78 263l29 233q19 154 135 260t270 105z" />
    <glyph glyph-name="uni043F" unicode="&#x43f;" horiz-adv-x="1140" 
d="M227 963h772q15 -1 25 -11t8 -26l-110 -901q-4 -25 -29 -25h-184q-14 0 -25 10q-10 10 -8 27l84 680h-342l-84 -692q-4 -25 -29 -25h-184q-14 0 -25 10q-10 10 -8 27l111 901q3 25 28 25z" />
    <glyph glyph-name="uni0440" unicode="&#x440;" horiz-adv-x="1032" 
d="M586 717h-72q-41 0 -73 -29t-46 -80l-37 -293q6 -70 86 -69h72q51 0 83 28t38 76l31 254q14 113 -82 113zM532 963h76q142 0 232 -116t73 -257l-30 -250q-18 -136 -134 -238t-247 -102h-76q-53 0 -104 18l-50 -403q-2 -25 -26 -25h-185q-14 0 -24 10t-8 27l159 1311
q4 25 29 25h184q27 0 33 -25q49 25 98 25z" />
    <glyph glyph-name="uni0441" unicode="&#x441;" horiz-adv-x="985" 
d="M879 639h-187q-27 0 -32 34t-22 42t-63 8h-77q-47 0 -88 -38t-48 -93l-28 -234q-8 -55 18.5 -84.5t75.5 -29.5h90q52 0 98 46q16 16 46 50q18 20 45 -10l118 -117q31 -29 11 -49q-53 -53 -92 -83t-108 -56.5t-149 -26.5h-73q-152 0 -247 111.5t-79 261.5l29 233
q18 150 135 257.5t268 107.5h74q131 0 226 -95.5t85 -209.5q-3 -25 -26 -25z" />
    <glyph glyph-name="uni0442" unicode="&#x442;" horiz-adv-x="1079" 
d="M227 963h711q14 -1 24 -11t9 -26l-23 -185q-4 -25 -28 -24h-238l-84 -692q-4 -25 -29 -25h-184q-14 0 -25 10q-10 10 -8 27l84 680h-227q-14 0 -25 10q-10 10 -8 27l23 184q3 25 28 25z" />
    <glyph glyph-name="uni0443" unicode="&#x443;" horiz-adv-x="1114" 
d="M866 963h197q18 -1 24 -15t-2 -28l-706 -1301q-14 -29 -43 -29h-197q-18 0 -25 14t-1 29l256 469l-246 830q-13 29 14 31h199q31 0 39 -41l160 -514l286 526q16 29 45 29z" />
    <glyph glyph-name="uni0444" unicode="&#x444;" horiz-adv-x="1482" 
d="M1036 717h-71q-41 0 -74 -31t-47 -84l-35 -285q2 -72 86 -71h72q107 0 120 104l31 254q14 113 -82 113zM504 717h-72q-94 0 -108 -113l-33 -254q-3 -49 21 -77t75 -27h72q98 0 108 104l29 230q6 61 -19 99q-26 38 -73 38zM983 963h76q143 0 232 -116t73 -257l-31 -250
q-18 -136 -134 -238t-247 -102h-75q-41 0 -105 18l-49 -403q-2 -25 -27 -25h-184q-14 0 -24 10t-9 27l49 393q-61 -20 -110 -20h-76q-131 0 -222 101t-77 239l31 250q16 141 135 257t262 116h76q47 0 94 -25l64 524q2 25 26 25h184q15 0 25 -10t8 -27l-63 -510q55 23 98 23z
" />
    <glyph glyph-name="uni0445" unicode="&#x445;" horiz-adv-x="968" 
d="M688 963h201q18 -1 25 -15t-3 -28l-309 -451l195 -438q12 -31 -19 -31h-198q-29 0 -43 41l-91 203l-147 -215q-20 -29 -47 -29h-201q-18 0 -26 14t2 29l309 449l-195 440q-14 31 15 31h200q29 0 43 -41l93 -205l149 217q20 29 47 29z" />
    <glyph glyph-name="uni0446" unicode="&#x446;" horiz-adv-x="1325" 
d="M1126 246q14 0 24 -10t9 -27l-53 -426q-2 -25 -27 -25h-184q-15 0 -25 10t-8 27l25 205h-766q-14 0 -25 10q-10 10 -8 27l111 901q4 25 28 25h185q14 -1 24 -11t8 -26l-84 -680h342l84 692q4 25 29 25h184q15 -1 25 -11t8 -26l-84 -680h178z" />
    <glyph glyph-name="uni0447" unicode="&#x447;" horiz-adv-x="1042" 
d="M717 963h184q15 -1 25 -11t8 -26l-111 -901q-4 -25 -28 -25h-185q-14 0 -24 10t-8 27l30 217q-20 -12 -31 -14t-69 -2h-96q-141 0 -222 113q-80 114 -61 259l39 328q4 25 29 25h184q15 -1 25 -11t8 -26l-37 -301q-10 -80 4 -111t70 -31h75q106 0 125 154l37 301
q4 25 29 25z" />
    <glyph glyph-name="uni0448" unicode="&#x448;" horiz-adv-x="1728" 
d="M1403 963h184q15 -1 25 -11t8 -26l-111 -901q-4 -25 -28 -25h-1360q-14 0 -25 10q-10 10 -8 27l111 901q4 25 28 25h185q14 -1 24 -11t8 -26l-84 -680h342l84 692q4 25 29 25h184q15 -1 25 -11t8 -26l-84 -680h342l84 692q4 25 29 25z" />
    <glyph glyph-name="uni0449" unicode="&#x449;" horiz-adv-x="1933" 
d="M1714 246q14 0 24 -10t9 -27l-53 -426q-2 -25 -27 -25h-184q-15 0 -25 10t-8 27l25 205h-1354q-14 0 -25 10q-10 10 -8 27l111 901q4 25 28 25h185q14 -1 24 -11t8 -26l-84 -680h342l84 692q4 25 29 25h184q15 -1 25 -11t8 -26l-84 -680h342l84 692q4 25 29 25h184
q15 -1 25 -11t8 -26l-84 -680h178z" />
    <glyph glyph-name="uni044A" unicode="&#x44a;" horiz-adv-x="1142" 
d="M635 389h-195l-18 -143h184q119 0 129 82q4 39 -21 50q-26 11 -79 11zM666 635q176 0 253 -91t58 -239q-35 -305 -377 -305h-418q-14 0 -24 10t-8 27l83 680h-86q-14 0 -24 10t-8 27l22 184q4 25 29 25h307q15 -1 25 -11t8 -26l-35 -291h195z" />
    <glyph glyph-name="uni044B" unicode="&#x44b;" horiz-adv-x="1634" 
d="M553 389h-195l-18 -143h184q119 0 129 82q4 39 -21 50q-26 11 -79 11zM584 635q176 0 253 -91t58 -239q-35 -305 -377 -305h-418q-14 0 -24 10t-8 27l110 901q4 25 29 25h184q15 -1 25 -11t8 -26l-35 -291h195zM1298 965h185q14 -1 24 -11t9 -26l-111 -903
q-4 -25 -29 -25h-184q-14 0 -25 10q-10 10 -8 27l113 903q1 25 26 25z" />
    <glyph glyph-name="uni044C" unicode="&#x44c;" horiz-adv-x="1060" 
d="M553 389h-195l-18 -143h184q119 0 129 82q4 39 -21 50q-26 11 -79 11zM584 635q176 0 253 -91t58 -239q-35 -305 -377 -305h-418q-14 0 -24 10t-8 27l110 901q4 25 29 25h184q15 -1 25 -11t8 -26l-35 -291h195z" />
    <glyph glyph-name="uni044D" unicode="&#x44d;" horiz-adv-x="985" 
d="M539 969h73q152 0 242 -107.5t72 -257.5l-29 -233q-18 -150 -141 -261.5t-275 -111.5h-73q-80 0 -142.5 26.5t-93.5 56.5t-72 83q-14 20 23 49l147 117q33 33 47 10q23 -34 34 -50q32 -46 85 -46h90q49 0 83 29.5t40 84.5h-188q-14 0 -18.5 4.5t-2.5 20.5l23 184
q8 37 41 37h176q2 51 -28.5 85t-76.5 34h-77q-45 0 -64.5 -8t-33 -42t-40.5 -34h-186q-25 0 -20 25q16 115 135 210t250 95z" />
    <glyph glyph-name="uni044E" unicode="&#x44e;" horiz-adv-x="1581" 
d="M1114 723h-88q-57 0 -95 -40t-42 -91l-29 -234q-14 -115 96 -114h88q57 0 96 38q38 38 42 89l28 233q6 51 -16 85q-23 34 -80 34zM1049 969h79q154 0 250 -112t78 -265l-29 -234q-20 -154 -136 -257t-269 -103h-80q-150 0 -246 105t-84 255h-272l-41 -333q-4 -25 -29 -25
h-184q-14 0 -25 10q-10 10 -8 27l113 903q2 25 27 25h184q14 -1 24 -11t9 -26l-39 -324h272q20 154 136 260t270 105z" />
    <glyph glyph-name="uni044F" unicode="&#x44f;" horiz-adv-x="1017" 
d="M508 717q-102 0 -115 -94q-3 -43 13 -59t69 -17h141l21 170h-129zM283 0h-183q-14 0 -24 10t-8 27l22 176q20 190 129 240q-55 29 -65 101t6 140q14 129 94 199t209 70h414q14 -1 24 -11t8 -26l-110 -901q-4 -25 -29 -25h-184q-14 0 -25 10q-10 10 -8 27l33 264h-129
q-70 0 -97 -47t-38 -135l-11 -94q-3 -25 -28 -25z" />
    <glyph glyph-name="uni0451" unicode="&#x451;" horiz-adv-x="995" 
d="M575 723h-77q-43 0 -86 -34t-47 -75l-3 -12h300l4 27q4 41 -24 67.5t-67 26.5zM520 969h78q133 0 230.5 -110.5t78.5 -264.5l-16 -133q-8 -55 -64 -55h-489l-4 -50q-8 -53 19.5 -82.5t76.5 -29.5h88q50 0 98 48q16 16 43 50q23 16 48 -12l118 -117q23 -23 11 -49
q-53 -53 -92 -83t-107 -56.5t-145 -26.5h-78q-152 0 -247 111.5t-79 261.5l29 233q18 150 134.5 257.5t268.5 107.5zM717 1487h250q14 0 24 -10.5t8 -26.5l-30 -248q-2 -25 -27 -24h-250q-14 0 -24.5 10t-8.5 26l31 248q2 25 27 25zM240 1487h249q14 0 24.5 -10.5t8.5 -26.5
l-30 -248q-2 -25 -27 -24h-250q-14 0 -24.5 10t-8.5 26l31 248q2 25 27 25z" />
    <glyph glyph-name="uni0453" unicode="&#x453;" horiz-adv-x="956" 
d="M227 963h588q15 -1 25 -11t8 -26l-23 -185q-4 -25 -28 -24h-379l-84 -692q-4 -25 -29 -25h-184q-14 0 -25 10q-10 10 -8 27l111 901q3 25 28 25zM643 1638h213q18 0 26 -12t1 -31l-228 -378q-20 -31 -43 -31h-188q-16 0 -25 13q-8 13 0 30l203 379q12 30 41 30z" />
    <glyph glyph-name="uni0454" unicode="&#x454;" horiz-adv-x="985" 
d="M520 969h74q131 0 226 -95.5t85 -209.5q-4 -25 -26 -25h-187q-27 0 -32 34t-22 42t-63 8h-77q-45 0 -84 -34t-49 -85h174q14 0 24 -10t8 -27l-22 -184q-2 -25 -27 -25h-188q-8 -55 18.5 -84.5t75.5 -29.5h90q52 0 98 46q16 16 46 50q18 20 45 -10l118 -117q31 -29 11 -49
q-53 -53 -92 -83t-108 -56.5t-149 -26.5h-73q-152 0 -247 111.5t-79 261.5l29 233q18 150 134.5 257.5t268.5 107.5z" />
    <glyph glyph-name="uni0456" unicode="&#x456;" horiz-adv-x="507" 
d="M193 965h184q14 -1 24 -11t9 -26l-111 -903q-4 -25 -29 -25h-184q-14 0 -25 10q-10 11 -8 27l113 903q2 25 27 25zM260 1487h193q14 0 24 -10t8 -27l-28 -238q-2 -25 -29 -24h-192q-16 0 -25 11q-8 12 -6 26l28 237q2 25 27 25z" />
    <glyph glyph-name="uni0457" unicode="&#x457;" horiz-adv-x="573" 
d="M238 965h184q14 -1 24 -11t9 -26l-111 -903q-4 -25 -29 -25h-184q-14 0 -25 10q-10 11 -8 27l113 903q2 25 27 25zM506 1487h250q14 0 24 -10t8 -27l-30 -248q-2 -25 -27 -24h-250q-14 0 -24 10t-8 26l30 248q2 25 27 25zM29 1487h250q14 0 24 -10t8 -27l-30 -248
q-2 -25 -27 -24h-250q-14 0 -24 10t-9 26l31 248q2 25 27 25z" />
    <glyph glyph-name="uni0458" unicode="&#x458;" horiz-adv-x="567" 
d="M162 965h184q14 -1 24 -11t9 -26l-131 -1057q-14 -133 -104 -237t-220 -140q-35 -6 -43 31l-57 170q-8 27 10 39q61 16 113 62q51 46 59 104l129 1040q2 25 27 25zM236 1487h192q14 0 24 -10t9 -27l-29 -238q-2 -25 -29 -24h-192q-16 0 -25 11q-8 12 -6 26l29 237
q2 25 27 25z" />
    <glyph glyph-name="uni045C" unicode="&#x45c;" horiz-adv-x="1116" 
d="M727 963h252q16 1 23 -17t-9 -39l-483 -428l395 -434q12 -9 11 -27t-19 -18h-254q-20 0 -51 33l-238 258l-32 -266q-4 -25 -29 -25h-193q-14 0 -24 10t-8 27l110 901q4 25 29 25h192q15 -1 25 -11t8 -26l-31 -248l281 264q20 21 45 21zM692 1186h-188q-16 0 -25 13
q-8 13 0 30l203 379q12 31 41 30h213q18 0 26 -12t1 -31l-228 -378q-20 -31 -43 -31z" />
    <glyph glyph-name="uni045D" unicode="&#x45d;" horiz-adv-x="1202" 
d="M227 963h185q14 -1 24 -11t8 -26l-65 -516l383 534q14 18 37 19h262q14 -1 24 -11t9 -26l-111 -901q-4 -25 -29 -25h-184q-14 0 -25 10q-10 10 -8 27l66 516l-404 -535q-14 -18 -37 -18h-241q-14 0 -25 10q-10 10 -8 27l111 901q3 25 28 25zM758 1186h-168q-27 0 -39 43
l-133 379q-8 18 -5 24t19 6h193q35 0 41 -43l108 -378q10 -31 -16 -31z" />
    <glyph glyph-name="uni045E" unicode="&#x45e;" horiz-adv-x="1114" 
d="M866 963h197q18 -1 24 -15t-2 -28l-706 -1301q-14 -29 -43 -29h-197q-18 0 -25 14t-1 29l256 469l-246 830q-13 29 14 31h199q31 0 39 -41l160 -514l286 526q16 29 45 29zM711 1274h-121q-139 0 -211 96t-55 250q2 18 26 18h144q36 0 32 -43t18 -79t77 -37h84q55 0 92 45
t45 96q2 18 26 18h144q37 0 32 -43q-20 -145 -108 -233t-225 -88z" />
    <glyph glyph-name="uni0490" unicode="&#x490;" horiz-adv-x="1148" 
d="M930 1671h184q14 0 24 -10t9 -27l-45 -368q-2 -25 -27 -25h-612l-150 -1216q-4 -25 -28 -25h-185q-14 0 -24 10t-8 27l176 1425q2 25 26 25h615l18 160q2 24 27 24z" />
    <glyph glyph-name="uni0491" unicode="&#x491;" horiz-adv-x="956" 
d="M653 1147h185q14 0 24 -10t8 -27l-22 -176v-8l-23 -185q-4 -25 -28 -24h-379l-84 -692q-4 -25 -29 -25h-184q-14 0 -25 10q-10 10 -8 27l111 901q4 25 28 25h379l19 159q3 25 28 25z" />
    <glyph glyph-name="uni04C0" unicode="&#x4c0;" horiz-adv-x="591" 
d="M266 1487h189q14 0 24 -10t8 -27l-174 -1425q-4 -25 -28 -25h-189q-14 0 -24 10t-9 27l177 1425q2 25 26 25z" />
    <glyph glyph-name="uni04E2" unicode="&#x4e2;" horiz-adv-x="1292" 
d="M270 1487h185q14 0 24 -10.5t8 -26.5l-116 -938l624 958q10 16 35 17h205q14 0 24.5 -10.5t8.5 -26.5l-174 -1425q-4 -25 -29 -25h-184q-14 0 -24.5 10t-8.5 27l119 938l-627 -959q-10 -16 -35 -16h-205q-14 0 -24 10t-8 27l176 1425q1 25 26 25zM1133 1765h-664
q-14 0 -24.5 10.5t-8.5 26.5l23 185q2 25 26 24h664q14 0 24.5 -11t8.5 -26l-23 -184q-1 -25 -26 -25z" />
    <glyph glyph-name="uni04E3" unicode="&#x4e3;" horiz-adv-x="1202" 
d="M227 963h185q14 -1 24 -11t8 -26l-65 -516l383 534q14 18 37 19h262q14 -1 24 -11t9 -26l-111 -901q-4 -25 -29 -25h-184q-14 0 -25 10q-10 10 -8 27l66 516l-404 -535q-14 -18 -37 -18h-241q-14 0 -25 10q-10 10 -8 27l111 901q3 25 28 25zM1024 1241h-664q-14 0 -24 10
t-8 27l22 184q2 25 27 25h663q14 0 24 -11t9 -26l-22 -184q-2 -25 -27 -25z" />
    <glyph glyph-name="uni04E8" unicode="&#x4e8;" horiz-adv-x="1208" 
d="M502 227h106q86 0 147 69q60 69 72 165l21 160h-475l-21 -172q-12 -96 26 -159t124 -63zM750 1264h-107q-86 0 -147 -69t-72 -165l-21 -164h476l22 176q12 96 -25 159q-38 63 -126 63zM662 1509h106q176 0 288 -146t87 -349l-68 -549q-25 -203 -166 -343t-317 -140h-107
q-179 0 -291 146t-85 349l69 549q27 203 167 343q141 140 317 140z" />
    <glyph glyph-name="uni04E9" unicode="&#x4e9;" horiz-adv-x="1064" 
d="M428 244h88q53 0 90 34t45 80h-319q-15 -114 96 -114zM586 723h-88q-53 0 -90 -36t-46 -83h320q6 51 -16 85q-23 34 -80 34zM494 -2h-80q-154 0 -250 110t-78 263l29 233q20 154 136 259t269 106h80q150 0 246 -108t84 -257h12l-29 -246h-14q-20 -154 -136 -257
t-269 -103z" />
    <glyph glyph-name="uni04EC" unicode="&#x4ec;" horiz-adv-x="1163" 
d="M651 1509h94q190 0 294 -132t77 -349l-67 -557q-27 -217 -170.5 -357.5t-333.5 -140.5h-94q-182 0 -282.5 131.5t-78.5 333.5q4 43 41 43h184q16 0 21.5 -4t3.5 -14q-31 -244 156 -244h94q96 0 144 56.5t65 183.5l20 162h-321q-16 0 -20.5 5t-2.5 19l23 184q4 37 41 37
h311l18 150q31 248 -163 248h-95q-90 0 -137 -52.5t-61 -162.5q-2 -18 -14.5 -30.5t-28.5 -12.5h-185q-25 0 -24 18q31 211 170 348t321 137zM893 2011h250q14 0 24.5 -10t8.5 -27l-31 -248q-2 -25 -27 -24h-250q-14 0 -24 10t-8 27l30 248q2 24 27 24zM641 1702h-250
q-14 0 -24.5 10t-8.5 27l31 248q2 25 27 24h250q14 0 24 -10t8 -27l-30 -248q-2 -24 -27 -24z" />
    <glyph glyph-name="uni04ED" unicode="&#x4ed;" horiz-adv-x="985" 
d="M539 969h73q152 0 242 -107.5t72 -257.5l-29 -233q-18 -150 -141 -261.5t-275 -111.5h-73q-80 0 -142.5 26.5t-93.5 56.5t-72 83q-14 20 23 49l147 117q33 33 47 10q23 -34 34 -50q32 -46 85 -46h90q49 0 83 29.5t40 84.5h-188q-14 0 -18.5 4.5t-2.5 20.5l23 184
q8 37 41 37h176q2 51 -28.5 85t-76.5 34h-77q-45 0 -64.5 -8t-33 -42t-40.5 -34h-186q-25 0 -20 25q16 115 135 210t250 95zM866 1178h-250q-14 0 -24 10t-8 26l30 248q2 25 27 25h250q14 0 24.5 -10.5t8.5 -26.5l-31 -248q-2 -24 -27 -24zM389 1178h-250q-14 0 -24.5 10
t-8.5 26l31 248q2 25 27 25h250q14 0 24.5 -10.5t7.5 -26.5l-30 -248q-2 -24 -27 -24z" />
    <glyph glyph-name="uni04EE" unicode="&#x4ee;" horiz-adv-x="1255" 
d="M1040 1487h197q19 0 25 -13t0 -30l-811 -1415q-16 -29 -45 -29h-197q-18 0 -26 14q-7 14 1 29l322 561l-289 852q-13 31 14 31h199q29 0 41 -41l197 -561l329 573q14 29 43 29zM1114 1765h-663q-15 1 -25 11t-8 26l22 185q2 25 27 24h663q14 0 24 -11t9 -26l-22 -184
q-2 -25 -27 -25z" />
    <glyph glyph-name="uni04EF" unicode="&#x4ef;" horiz-adv-x="1114" 
d="M797 963h196q19 -1 25 -15t-2 -28l-707 -1301q-14 -29 -43 -29h-196q-18 0 -26 14t-1 29l256 469l-246 830q-10 31 15 31h198q31 0 39 -41l160 -514l287 526q16 29 45 29zM909 1241h-663q-14 0 -25 10q-10 10 -8 27l23 184q2 25 26 25h664q14 0 24 -11t8 -26l-22 -184
q-2 -25 -27 -25z" />
    <glyph glyph-name="Macute" unicode="&#x1e3e;" horiz-adv-x="1505" 
d="M1192 1487h246q14 0 24 -10t8 -27l-174 -1425q-4 -25 -28 -25h-185q-14 0 -24 10t-8 27l116 926l-387 -938q-12 -25 -39 -25h-104q-31 0 -39 37l-158 926l-116 -938q-4 -25 -29 -25h-184q-14 0 -25 10q-10 10 -8 27l176 1425q2 25 27 25h245q33 0 41 -37l168 -987
l418 999q10 25 39 25zM1022 2163h213q19 -1 27 -13t0 -30l-228 -379q-20 -31 -43 -31h-188q-16 0 -25 13q-8 14 0 30l203 379q12 31 41 31z" />
    <glyph glyph-name="macute" unicode="&#x1e3f;" horiz-adv-x="1701" 
d="M1161 963h76q156 0 248 -115t74 -258l-70 -565q-4 -25 -29 -25h-184q-14 0 -25 10q-10 10 -8 27l70 565q6 57 -22 86t-72 29h-103q-45 0 -86 -34t-49 -93l-70 -565q-4 -25 -28 -25h-185q-14 0 -24 10t-8 27l69 565q6 57 -21 86q-28 29 -73 29h-102q-45 0 -86 -34t-50 -93
l-69 -565q-4 -25 -29 -25h-184q-14 0 -25 10q-10 10 -8 27l111 901q4 25 28 25h185q14 -1 24 -11t8 -24q74 35 140 35h75q139 0 232 -97q120 97 270 97zM1061 1186h-189q-16 0 -24 13t0 30l203 379q12 31 41 30h213q18 0 26 -12t0 -31l-227 -378q-20 -31 -43 -31z" />
    <glyph glyph-name="Wgrave" unicode="&#x1e80;" horiz-adv-x="1878" 
d="M1690 1487h186q16 0 24 -10t5 -25l-480 -1427q-8 -25 -39 -25h-143q-31 0 -37 37l-205 1012l-452 -1024q-10 -25 -39 -25h-143q-35 0 -39 37l-131 1419q-4 31 22 31h187q33 0 36 -37l70 -975l418 983q12 29 41 29h147q37 0 43 -33l176 -979l316 983q8 29 37 29z
M1159 1710h-168q-27 0 -39 43l-133 379q-8 18 -5 24t20 7h192q35 0 41 -43l109 -379q10 -31 -17 -31z" />
    <glyph glyph-name="wgrave" unicode="&#x1e81;" horiz-adv-x="1398" 
d="M1155 963h188q15 -1 25 -13t2 -28l-350 -895q-10 -27 -39 -27h-150q-31 0 -38 39l-91 526l-225 -538q-10 -27 -39 -27h-149q-31 0 -39 39l-131 895q-6 29 20 29h189q31 0 34 -41l62 -557l205 569q10 29 37 29h151q31 0 35 -41l68 -557l198 569q10 29 37 29zM854 1186
h-168q-27 0 -39 43l-133 379q-8 18 -5 24t19 6h193q33 0 41 -43l108 -378q10 -31 -16 -31z" />
    <glyph glyph-name="Wacute" unicode="&#x1e82;" horiz-adv-x="1878" 
d="M1690 1487h186q16 0 24 -10t5 -25l-480 -1427q-8 -25 -39 -25h-143q-31 0 -37 37l-205 1012l-452 -1024q-10 -25 -39 -25h-143q-35 0 -39 37l-131 1419q-4 31 22 31h187q33 0 36 -37l70 -975l418 983q12 29 41 29h147q37 0 43 -33l176 -979l316 983q8 29 37 29z
M1217 2163h213q18 -1 26 -13t0 -30l-227 -379q-20 -31 -43 -31h-189q-16 0 -24 14t0 29l203 379q12 31 41 31z" />
    <glyph glyph-name="wacute" unicode="&#x1e83;" horiz-adv-x="1398" 
d="M1155 963h188q15 -1 25 -13t2 -28l-350 -895q-10 -27 -39 -27h-150q-31 0 -38 39l-91 526l-225 -538q-10 -27 -39 -27h-149q-31 0 -39 39l-131 895q-6 29 20 29h189q31 0 34 -41l62 -557l205 569q10 29 37 29h151q31 0 35 -41l68 -557l198 569q10 29 37 29zM1124 1638
q18 0 26 -12t1 -31l-227 -378q-20 -31 -43 -31h-189q-16 0 -24 14t0 29l202 379q12 31 41 30h213z" />
    <glyph glyph-name="Wdieresis" unicode="&#x1e84;" horiz-adv-x="1878" 
d="M1690 1487h186q16 0 24 -10t5 -25l-480 -1427q-8 -25 -39 -25h-143q-31 0 -37 37l-205 1012l-452 -1024q-10 -25 -39 -25h-143q-35 0 -39 37l-131 1419q-4 31 22 31h187q33 0 36 -37l70 -975l418 983q12 29 41 29h147q37 0 43 -33l176 -979l316 983q8 29 37 29z
M1473 2011q14 0 24 -10t8 -27l-30 -248q-2 -25 -27 -24h-250q-14 0 -24 10t-9 27l31 248q2 25 27 24h250zM995 2011q15 0 25 -10t8 -27l-31 -248q-2 -25 -26 -24h-250q-14 0 -25 10q-10 11 -8 27l31 248q2 25 26 24h250z" />
    <glyph glyph-name="wdieresis" unicode="&#x1e85;" horiz-adv-x="1398" 
d="M1155 963h188q15 -1 25 -13t2 -28l-350 -895q-10 -27 -39 -27h-150q-31 0 -38 39l-91 526l-225 -538q-10 -27 -39 -27h-149q-31 0 -39 39l-131 895q-6 29 20 29h189q31 0 34 -41l62 -557l205 569q10 29 37 29h151q31 0 35 -41l68 -557l198 569q10 29 37 29zM918 1487h249
q15 0 25 -10t8 -27l-31 -248q-2 -25 -26 -24h-250q-14 0 -25 10q-10 10 -8 26l31 248q2 25 27 25zM440 1487h250q14 0 24 -10t9 -27l-31 -248q-2 -25 -26 -24h-250q-14 0 -25 10q-10 10 -8 26l31 248q2 25 26 25z" />
    <glyph glyph-name="Ygrave" unicode="&#x1ef2;" horiz-adv-x="1105" 
d="M133 1480q0 8 19 7h202q31 0 39 -37l176 -537l316 549q12 25 39 25h202q16 0 26 -11t1 -26l-487 -797l-78 -628q-4 -25 -29 -25h-184q-14 0 -25 10q-10 10 -8 27l78 616l-283 809q-4 10 -4 18zM741 1710h-168q-27 0 -38 43l-134 379q-8 18 -5 24t20 7h192q35 0 41 -43
l109 -379q10 -31 -17 -31z" />
    <glyph glyph-name="ygrave" unicode="&#x1ef3;" horiz-adv-x="1114" 
d="M866 963h197q18 -1 24 -15t-2 -28l-706 -1301q-14 -29 -43 -29h-197q-18 0 -25 14t-1 29l256 469l-246 830q-13 29 14 31h199q31 0 39 -41l160 -514l286 526q16 29 45 29zM387 1638h193q35 0 41 -43l108 -378q10 -31 -16 -31h-168q-27 0 -39 43l-133 379q-8 18 -5 24
t19 6z" />
    <glyph glyph-name="endash" unicode="&#x2013;" horiz-adv-x="1271" 
d="M1100 358h-965q-14 0 -24 10t-9 27l23 185q2 25 27 24h964q14 0 24 -11t9 -26l-23 -184q-1 -25 -26 -25z" />
    <glyph glyph-name="emdash" unicode="&#x2014;" horiz-adv-x="1423" 
d="M1251 358h-1116q-14 0 -24 10t-9 27l23 185q2 25 27 24h1116q14 0 24 -11t8 -26l-22 -184q-2 -25 -27 -25z" />
    <glyph glyph-name="quoteleft" unicode="&#x2018;" horiz-adv-x="516" 
d="M434 932h-250q-14 0 -24 10t-8 27l34 286q31 223 168 369q18 12 41 -12l76 -78q27 -27 14 -49q-53 -41 -72 -94t-30 -136l-16 -14h94q33 0 31 -37l-31 -248q-2 -24 -27 -24z" />
    <glyph glyph-name="quoteright" unicode="&#x2019;" horiz-adv-x="536" 
d="M182 1487h250q16 0 24 -11t7 -26l-35 -287q-27 -217 -166 -368q-20 -12 -41 12l-76 78q-29 29 -14 49q53 41 73 95q19 54 27 134l19 15h-94q-14 0 -25 10q-10 10 -8 26l31 248q1 25 28 25z" />
    <glyph glyph-name="quotesinglbase" unicode="&#x201a;" horiz-adv-x="516" 
d="M27 309h249q16 0 24 -11t7 -26l-35 -286q-27 -217 -166 -369q-20 -12 -40 12l-76 78q-29 29 -15 49q53 42 73 96t28 134l18 14h-94q-14 0 -25 10q-10 10 -8 27l31 248q2 24 29 24z" />
    <glyph glyph-name="quotedblleft" unicode="&#x201c;" horiz-adv-x="978" 
d="M827 932h-249q-14 0 -25 10q-10 10 -8 27l35 286q31 223 168 369q18 12 40 -12l76 -78q27 -27 15 -49q-53 -41 -73 -94t-30 -136l-16 -14h94q16 0 24 -11t7 -26l-31 -248q-2 -24 -27 -24zM365 932h-250q-14 0 -25 10q-10 10 -8 27l35 286q31 223 168 369q18 12 41 -12
l75 -78q27 -27 15 -49q-52 -41 -72 -94t-31 -136l-16 -14h94q17 0 25 -11t6 -26l-31 -248q-1 -24 -26 -24z" />
    <glyph glyph-name="quotedblright" unicode="&#x201d;" horiz-adv-x="999" 
d="M575 1487h250q17 0 25 -11t6 -26l-35 -287q-27 -217 -166 -368q-20 -12 -41 12l-75 78q-29 29 -15 49q53 41 73 95q19 54 28 134l18 15h-94q-14 0 -25 10q-10 10 -8 26l31 248q1 25 28 25zM113 1487h249q16 0 24 -11t7 -26l-35 -287q-27 -217 -165 -368q-20 -12 -41 12
l-76 78q-29 29 -15 49q53 41 73 95q19 54 28 134l18 15h-94q-14 0 -25 10q-10 10 -8 26l31 248q2 25 29 25z" />
    <glyph glyph-name="quotedblbase" unicode="&#x201e;" horiz-adv-x="978" 
d="M489 309h250q17 0 25 -11t6 -26l-35 -286q-27 -217 -166 -369q-20 -12 -41 12l-75 78q-29 29 -15 49q52 42 72 96t29 134l18 14h-94q-14 0 -25 10q-10 10 -8 27l31 248q1 24 28 24zM27 309h249q16 0 24 -11t7 -26l-35 -286q-27 -217 -166 -369q-20 -12 -40 12l-76 78
q-29 29 -15 49q53 42 73 96t28 134l18 14h-94q-14 0 -25 10q-10 10 -8 27l31 248q2 24 29 24z" />
    <glyph glyph-name="dagger" unicode="&#x2020;" horiz-adv-x="886" 
d="M817 963q15 -1 25 -11t8 -26l-23 -185q-4 -25 -28 -24h-211l-119 -959q-4 -25 -29 -24h-184q-14 0 -25 10q-10 10 -8 27l117 946h-203q-14 0 -24 10t-9 27l23 184q4 25 29 25h215l61 507q4 25 29 25h184q15 0 25 -10t8 -27l-62 -495h201z" />
    <glyph glyph-name="daggerdbl" unicode="&#x2021;" horiz-adv-x="886" 
d="M817 963q15 -1 25 -11t8 -26l-23 -185q-4 -25 -28 -24h-211l-27 -205h201q14 0 24 -10t9 -27l-23 -184q-4 -25 -29 -25h-213l-61 -508q-4 -25 -29 -24h-184q-14 0 -25 10q-10 10 -8 27l62 495h-203q-14 0 -25 10q-10 10 -8 27l23 184q4 25 28 25h213l27 205h-203
q-14 0 -24 10t-9 27l23 184q4 25 29 25h215l61 507q4 25 29 25h184q15 0 25 -10t8 -27l-62 -495h201z" />
    <glyph glyph-name="bullet" unicode="&#x2022;" horiz-adv-x="720" 
d="M264 903h258q35 0 53 -20t15 -54l-31 -247q-8 -61 -72 -62h-258q-71 0 -61 74l31 248q4 35 18 48t47 13z" />
    <glyph glyph-name="ellipsis" unicode="&#x2026;" horiz-adv-x="1753" 
d="M1583 309q17 0 25 -11t6 -26l-29 -247q-4 -25 -29 -25h-249q-14 0 -25 10q-10 11 -8 27l31 248q2 25 28 24h250zM965 309q16 0 24 -11t6 -26l-28 -247q-4 -25 -29 -25h-250q-14 0 -24 10t-9 27l31 248q2 25 29 24h250zM346 309q16 0 24 -11t7 -26l-29 -247
q-4 -25 -29 -25h-249q-14 0 -25 10q-10 11 -8 27l31 248q2 25 28 24h250z" />
    <glyph glyph-name="perthousand" unicode="&#x2030;" horiz-adv-x="1847" 
d="M1597 240q-16 0 -30 -12t-17 -31v-7q-6 -29 25 -28h8q33 0 49 47q2 18 -3 24t-23 7h-9zM967 240q-17 0 -31 -12t-16 -31v-7q-6 -29 24 -28h8q33 0 49 47q2 18 -3 24t-23 7h-8zM1597 401h27q82 0 131 -57t39 -139l-2 -23q-10 -84 -66 -133t-139 -49h-26q-84 0 -133 56
q-48 56 -37 139l2 22q10 82 66 133t138 51zM967 401h26q82 0 131 -57t39 -139l-2 -23q-10 -84 -66 -133t-139 -49h-26q-84 0 -132 56t-38 139l2 22q10 82 66 133q57 51 139 51zM385 1325h-8q-17 0 -31 -12t-16 -31v-6q-6 -29 24 -29h8q34 0 50 47q2 18 -3 24t-24 7z
M377 1487h26q81 0 131 -57t39 -140l-2 -22q-8 -82 -64 -132t-140 -51h-27q-84 1 -132 57t-38 138l2 23q10 82 66 133t139 51zM1075 1487h209q16 0 26 -11t1 -26l-1002 -1425q-20 -25 -43 -25h-209q-16 0 -25 12t-1 25l1003 1425q16 25 41 25z" />
    <glyph glyph-name="guilsinglleft" unicode="&#x2039;" horiz-adv-x="677" 
d="M147 645l418 248q15 8 27 -1t10 -26l-27 -217q-2 -23 -36 -43l-166 -80l135 -86q39 -25 37 -49l-27 -217q-6 -29 -33 -6l-356 248q-31 25 -29 55l17 123q1 33 30 51z" />
    <glyph glyph-name="guilsinglright" unicode="&#x203a;" horiz-adv-x="677" 
d="M182 885l357 -248q33 -20 28 -55l-14 -123q-6 -33 -31 -51l-418 -248q-14 -8 -27 1t-11 25l26 217q4 25 37 43l168 80l-135 86q-39 25 -37 50l27 217q1 31 30 6z" />
    <glyph glyph-name="fraction" unicode="&#x2044;" horiz-adv-x="204" 
d="M569 1487h86q15 0 25 -11t2 -26l-1001 -1425q-20 -25 -43 -25h-87q-16 0 -25 12t-1 25l1003 1425q16 25 41 25z" />
    <glyph glyph-name="Euro" unicode="&#x20ac;" horiz-adv-x="1345" 
d="M834 1509h94q182 0 287 -137t85 -348q-2 -18 -28 -18h-185q-16 0 -25 12t-7 31q14 111 -21 163t-125 52h-94q-195 0 -225 -248l-2 -12h356q14 0 24 -10t9 -27l-21 -164q-2 -25 -26 -25h-369l-8 -73h354q15 -1 25 -11t8 -26l-20 -164q-2 -25 -27 -25h-369l-2 -20
q-16 -127 20 -183t132 -57h94q186 0 215 244q2 18 29 18h184q37 0 31 -43q-27 -203 -160 -334t-315 -131h-95q-190 1 -299 141t-82 357l3 8h-160q-14 0 -25 10q-10 10 -8 27l20 164q2 25 27 25h172l10 73h-159q-14 0 -25 10q-10 10 -8 27l20 164q2 25 27 25h174l2 24
q27 217 162 349q136 132 326 132z" />
    <glyph glyph-name="hryvnia" unicode="&#x20b4;" horiz-adv-x="1185" 
d="M653 1511h107q170 1 275 -117t83 -300q-12 -90 -53 -172h2q15 0 25 -10t8 -27l-10 -82q-2 -25 -27 -25h-109q-49 -43 -104 -73h190q14 -1 24 -11t9 -26l-10 -82q-2 -25 -27 -25h-628q-63 -61 -78 -180q-8 -74 35 -119t122 -45h95q74 0 135 50t74 124l8 60q2 25 28 24h187
q16 0 24 -11t6 -26l-6 -59q-23 -176 -164 -292t-311 -116h-94q-176 0 -291 123t-92 309q12 90 45 162q-23 8 -18 33l10 82q2 25 27 25h75q39 41 90 73h-143q-14 0 -25 10q-10 10 -8 27l11 82q2 25 26 25h590q92 53 108 186q6 66 -27 112q-34 46 -106 46h-106q-70 0 -131 -56
t-72 -137l-4 -39q-2 -25 -27 -24h-186q-14 0 -25 10q-10 10 -8 27l4 38q20 184 160 305t307 121z" />
    <glyph glyph-name="uni2116" unicode="&#x2116;" horiz-adv-x="2398" 
d="M2154 432q14 0 24 -10t9 -27l-22 -184q-2 -25 -29 -25h-692q-16 0 -24 12t-7 25l23 185q2 25 26 24h692zM1939 1255h-41q-66 0 -104 -40t-45 -105l-16 -123q-16 -133 104 -133h41q64 0 104 41t48 104l14 123q16 133 -105 133zM1051 1487h184q15 0 25 -10t8 -27
l-174 -1425q-4 -25 -29 -25h-205q-29 0 -35 29l-393 946l-119 -950q-4 -25 -28 -25h-185q-14 0 -24 10t-8 27l176 1425q2 25 26 25h205q29 0 37 -29l393 -946l119 950q2 25 27 25zM1909 1491h59q148 0 236 -115t69 -258l-16 -141q-18 -143 -128 -252t-257 -109h-60
q-150 0 -238 115t-69 258l19 141q18 145 126 253t259 108z" />
    <glyph glyph-name="uni2120" unicode="&#x2120;" horiz-adv-x="1607" 
d="M1479 1487h123q14 0 24 -10t8 -27l-57 -463q-2 -25 -27 -24h-61q-14 0 -25 10q-10 10 -8 26l43 334l-242 -344q-20 -27 -38 -26h-43q-23 0 -37 36l-162 334l-45 -346q-2 -25 -27 -24h-61q-14 0 -25 10q-10 10 -8 26l57 463q2 25 27 25h123q27 0 39 -37l147 -332l236 344
q19 25 39 25zM422 952q-120 0 -181 47q-62 47 -57 121q2 4 15 4h82q8 0 15 -8t5 -22t21 -20q24 -6 104 -5q80 0 112 10t34 41t-13 37t-131 11q-116 4 -170 52t-45 132t69 116t187 31q127 0 187 -48t51 -128q-6 -6 -9 -6h-82q-24 -1 -21 25t-20 33t-105 7t-116 -14
q-33 -14 -27 -56q3 -23 132 -29q129 -7 183 -52t44 -123t-77 -117t-187 -39z" />
    <glyph glyph-name="trademark" unicode="&#x2122;" horiz-adv-x="1595" 
d="M1466 1487h123q15 0 25 -10t8 -27l-57 -463q-2 -25 -27 -24h-61q-14 0 -25 10q-10 10 -8 26l43 334l-242 -344q-20 -27 -39 -26h-43q-23 0 -37 36l-161 334l-45 -346q-2 -25 -27 -24h-62q-14 0 -24 10t-8 26l57 463q2 25 27 25h123q27 0 38 -37l148 -332l235 344
q19 25 39 25zM219 1487h490q14 0 24 -10t8 -27l-8 -61q-2 -25 -26 -25h-189l-47 -377q-2 -25 -27 -24h-61q-14 0 -25 10q-10 10 -8 26l45 365h-178q-14 0 -24 10t-9 27l9 61q1 25 26 25z" />
    <glyph glyph-name="oneeighth" unicode="&#x215b;" horiz-adv-x="1480" 
d="M1124 264h-6q-34 0 -62 -26t-32 -62q-8 -59 64 -59q36 -1 66 23t34 61q6 63 -64 63zM1118 371h6q35 -1 64 25t33 63q6 59 -66 59q-39 0 -68 -24t-32 -60q-7 -63 63 -63zM1114 0h-51q-80 0 -126 60t-38 131t88 135q-61 61 -53 133t61 124t133 52h52q80 -1 126 -61t38 -131
t-87 -134q61 -61 53 -133t-62 -124t-134 -52zM383 1487h66q14 0 24 -10t8 -27l-69 -571q-2 -25 -29 -25h-66q-16 0 -24 12t-6 25l69 571q2 25 27 25zM1188 1487h86q16 0 25 -11t1 -26l-1001 -1425q-20 -25 -43 -25h-86q-16 0 -26 11q-9 12 -1 26l1004 1425q16 25 41 25z" />
    <glyph glyph-name="threeeighths" unicode="&#x215c;" horiz-adv-x="1515" 
d="M1159 264h-6q-35 0 -63 -26t-31 -62q-8 -59 64 -59q36 -1 66 23t34 61q6 63 -64 63zM1153 371h6q35 -1 64 25t32 63q6 59 -65 59q-39 0 -68 -24t-32 -60q-7 -63 63 -63zM1149 0h-51q-80 0 -126 60t-38 131t88 135q-61 61 -53 133t61 124t133 52h51q80 -1 126 -61t38 -131
t-86 -134q60 -61 52 -133t-62 -124t-133 -52zM1223 1487h86q16 0 25 -11t1 -26l-1001 -1425q-20 -25 -43 -25h-86q-16 0 -26 11q-9 12 -1 26l1004 1425q16 25 41 25zM391 854h-51q-72 0 -120 53t-40 123l4 27q2 25 27 24h61q38 0 31 -49q-4 -29 12 -45t51 -16q35 -1 65 23
t34 57q8 67 -64 67h-47q-14 0 -24 10t-8 27l6 45q2 25 28 25h47q35 -1 63 25t32 63q6 59 -66 59q-36 0 -64 -22q-29 -23 -32 -56q-4 -33 -29 -32h-61q-14 0 -25 10q-10 10 -8 26l4 27q7 68 61 116t128 48h51q80 -1 126 -61t35 -138q-5 -64 -83 -127q61 -61 53 -133t-62 -124
t-135 -52z" />
    <glyph glyph-name="fiveeighths" unicode="&#x215d;" horiz-adv-x="1515" 
d="M1159 264h-6q-35 0 -63 -26t-31 -62q-8 -59 64 -59q36 -1 66 23t34 61q6 63 -64 63zM1153 371h6q35 -1 64 25t32 63q6 59 -65 59q-39 0 -68 -24t-32 -60q-7 -63 63 -63zM1149 0h-51q-80 0 -126 60t-38 131t88 135q-61 61 -53 133t61 124t133 52h51q80 -1 126 -61t38 -131
t-86 -134q60 -61 52 -133t-62 -124t-133 -52zM391 852h-51q-74 0 -122 54t-38 122l2 27q4 25 29 24h61q38 0 31 -49q-4 -29 12 -45t50 -16q34 1 64 25t38 65q12 88 -25 104q-72 18 -129 -28l-84 4q-16 0 -24 11t-6 26l34 286q2 25 27 25h326q14 0 24 -10t8 -27l-6 -57
q-4 -25 -28 -25h-244l-21 -115q49 23 117 13t103 -52q66 -57 49 -182q-8 -74 -62 -127t-135 -53zM1223 1487h86q16 0 25 -11t1 -26l-1001 -1425q-20 -25 -43 -25h-86q-16 0 -26 11q-9 12 -1 26l1004 1425q16 25 41 25z" />
    <glyph glyph-name="seveneighths" unicode="&#x215e;" horiz-adv-x="1495" 
d="M1139 264h-6q-35 0 -63 -26t-32 -62q-8 -59 65 -59q35 -1 65 23t34 61q6 63 -63 63zM1133 371h6q35 -1 63 25t33 63q6 59 -66 59q-39 0 -67 -24t-33 -60q-6 -63 64 -63zM1128 0h-51q-80 0 -126 60t-38 131t88 135q-61 61 -53 133t62 124t133 52h51q80 -1 126 -61t38 -131
t-86 -134q61 -61 52 -133t-62 -124t-134 -52zM203 852q-14 0 -22 12q-7 12 -3 23l281 477h-201q-14 0 -25 10q-10 10 -8 27l8 61q2 25 27 25h326q14 -1 24 -11t8 -26l-6 -59q-6 -29 -10 -35l-280 -482q-16 -23 -33 -22h-86zM1202 1487h86q16 0 26 -11t1 -26l-1002 -1425
q-20 -25 -43 -25h-86q-16 0 -25 12t-1 25l1003 1425q16 25 41 25z" />
    <glyph glyph-name="partialdiff" unicode="&#x2202;" horiz-adv-x="1165" 
d="M586 227q53 -1 115 47t85 152q33 160 -2 218q-34 58 -184 60t-201 -63t-64 -239t167 -175h84zM641 1509h90q180 0 279 -120q98 -121 94 -306q0 -336 -72 -682q-45 -201 -167 -311t-298 -108h-84q-184 0 -299 118t-96 334q43 504 518 504q176 0 236 -25q18 96 20 203
q-2 74 -44 112t-109 38h-86q-75 0 -135 -49t-70 -142l-4 -35q-4 -25 -29 -24h-186q-14 0 -25 10q-10 10 -8 27l4 34q23 186 157 304t314 118z" />
    <glyph glyph-name="emptyset" unicode="&#x2205;" horiz-adv-x="1208" 
d="M502 227h106q86 0 147 69q60 69 72 165l74 581q8 43 0 95l-493 -879q37 -31 94 -31zM643 1264q-86 0 -147 -69t-72 -165l-41 -334l319 568h-59zM592 -18h-107q-109 0 -198 61l-11 -18q-16 -25 -40 -25h-197q-16 0 -26 11q-9 11 -1 26l119 211q-37 106 -22 229l69 549
q27 203 167 343t317 140h106q63 0 125 -22h156q16 1 24 -11t2 -26l-37 -66q133 -152 105 -370l-68 -549q-25 -203 -166 -343t-317 -140z" />
    <glyph glyph-name="product" unicode="&#x220f;" horiz-adv-x="1052" 
d="M197 963h747q35 0 31 -37l-111 -901q-4 -25 -28 -25h-185q-14 0 -24 10t-9 27l84 680h-315l-84 -692q-4 -25 -29 -25h-184q-14 0 -24 10t-9 27l111 901q4 25 29 25z" />
    <glyph glyph-name="summation" unicode="&#x2211;" horiz-adv-x="1120" 
d="M260 1487h813q15 0 25 -11t8 -28l-23 -182q-2 -16 -6 -20t-20 -5h-451l285 -432q29 -41 27 -51l-7 -43q-2 -16 -28 -47l-396 -420l435 -2q14 0 24 -12t8 -25l-24 -184q-4 -25 -27 -25h-813q-14 0 -24 11t-9 26l15 106q2 18 30 56l512 542l-366 555q-31 44 -29 60l14 106
q2 25 27 25z" />
    <glyph glyph-name="minus" unicode="&#x2212;" horiz-adv-x="1052" 
d="M166 723h747q17 0 25 -11t6 -26l-22 -184q-2 -16 -6 -20t-21 -5h-745q-14 0 -25 10q-10 10 -8 27l22 184q2 25 27 25z" />
    <glyph glyph-name="radical" unicode="&#x221a;" horiz-adv-x="1220" 
d="M137 688h185q29 0 34 -39l82 -340l518 1151q12 27 35 27h205q16 0 26 -11t5 -28l-664 -1421q-10 -27 -39 -27h-207q-28 0 -36 39l-162 623q-4 16 -1 21t19 5z" />
    <glyph glyph-name="infinity" unicode="&#x221e;" horiz-adv-x="1734" 
d="M1272 717h-64q-66 0 -116 -44t-58 -106l-4 -37q-8 -59 27 -98t100 -39h64q70 1 115 45t53 105l4 37q18 137 -121 137zM575 717h-63q-66 0 -112 -44t-54 -106l-4 -37q-8 -61 23 -99t96 -38h63q72 1 119 45t55 105l4 37q8 61 -23 99q-32 38 -104 38zM1227 963h76
q155 -1 253 -105t78 -278l-8 -62q-20 -172 -138 -270t-274 -98h-75q-88 0 -166 66t-123 159q-62 -94 -156 -160t-188 -65h-76q-152 0 -252 105t-80 275l8 62q20 172 140 271t272 100h76q90 0 169 -66t122 -160q66 94 158 160q94 66 184 66z" />
    <glyph glyph-name="integral" unicode="&#x222b;" horiz-adv-x="970" 
d="M803 1487h141q14 0 24 -10t9 -27l-23 -184q-2 -25 -26 -25h-19q-111 0 -170 -45t-73 -162l-131 -1065q-21 -174 -121 -276t-252 -103h-142q-14 0 -24 10t-8 27l22 185q2 25 27 24h18q111 0 170 45t74 162l131 1065q20 174 120 276t253 103z" />
    <glyph glyph-name="approxequal" unicode="&#x2248;" horiz-adv-x="1142" 
d="M946 434l53 -135q12 -23 -14 -49q-117 -70 -250 -76t-229 57q-156 94 -328 -24q-29 -10 -39 29l-55 137q-8 23 16 47q119 70 255 76t227 -58q152 -96 327 25q31 12 37 -29zM993 817l54 -135q12 -23 -15 -49q-117 -70 -250 -76t-229 57q-156 94 -328 -24q-29 -10 -39 28
l-55 138q-8 23 16 47q119 70 255 76t227 -58q152 -96 327 25q31 12 37 -29z" />
    <glyph glyph-name="notequal" unicode="&#x2260;" horiz-adv-x="970" 
d="M733 1384h197q16 0 24 -11t2 -25l-258 -461h62q14 0 24 -10t9 -27l-21 -164q-2 -25 -27 -24h-174l-51 -95h201q14 0 24 -10t9 -27l-21 -163q-2 -25 -26 -25h-314l-235 -420q-16 -25 -41 -24h-197q-16 0 -25 11t-1 25l229 408h-39q-14 0 -25 10q-10 10 -8 27l21 164
q2 25 26 24h152l51 95h-178q-14 0 -25 10q-10 10 -8 26l21 164q2 25 26 25h291l266 473q12 24 39 24z" />
    <glyph glyph-name="lessequal" unicode="&#x2264;" horiz-adv-x="983" 
d="M111 246h673q14 0 24 -10t9 -27l-22 -184q-4 -25 -29 -25h-672q-37 0 -33 37l23 184q3 20 10 22q7 3 17 3zM934 1167l-23 -192q0 -38 -20 -45l-395 -180l338 -185q25 -10 20 -53l-25 -193q-2 -23 -26 -6l-627 344q-39 19 -30 97t40 92l713 346q12 8 25 -2q12 -11 10 -23z
" />
    <glyph glyph-name="greaterequal" unicode="&#x2265;" horiz-adv-x="983" 
d="M109 246h673q35 0 31 -37l-22 -184q-3 -20 -10 -22q-7 -3 -19 -3h-672q-14 0 -24 10t-9 27l23 184q4 25 29 25zM174 987l25 193q2 23 26 6l629 -344q37 -20 28 -98t-40 -91l-711 -346q-14 -8 -27 2q-12 10 -10 23l25 192q4 39 18 45l395 181l-337 184q-25 12 -21 53z" />
    <glyph glyph-name="lozenge" unicode="&#x25ca;" horiz-adv-x="931" 
d="M440 403l222 414q12 12 10 19l-119 401l-219 -412q-12 -12 -10 -18zM434 0h-63q-29 0 -37 39l-217 774q-2 6 -2 25l407 774q10 27 37 26h64q29 0 36 -39l220 -774v-24l-406 -774q-10 -27 -39 -27z" />
    <glyph glyph-name="i.loclTRK" horiz-adv-x="573" 
d="M238 965h184q14 -1 24 -11t9 -26l-111 -903q-4 -25 -29 -25h-184q-14 0 -25 10q-10 11 -8 27l113 903q2 25 27 25zM268 1487h250q14 0 24 -10t9 -27l-31 -248q-2 -25 -26 -24h-250q-14 0 -25 10q-10 10 -8 26l31 248q2 25 26 25z" />
    <glyph glyph-name="zero.lf" horiz-adv-x="1208" 
d="M502 227h106q86 0 147 69q60 69 72 165l74 581q12 96 -25 159q-38 62 -126 63h-107q-86 0 -147 -69t-72 -165l-72 -581q-12 -96 26 -159t124 -63zM662 1509h106q176 0 288 -146t87 -349l-68 -549q-25 -203 -166 -343t-317 -140h-107q-179 0 -291 146t-85 349l69 549
q27 203 167 343q141 140 317 140z" />
    <glyph glyph-name="one.lf" horiz-adv-x="927" 
d="M522 1487h195q14 0 24 -10t9 -27l-175 -1425q-4 -25 -28 -25h-185q-14 0 -24 10t-8 27l133 1083l-72 -63q-21 -17 -43 8l-115 131q-20 20 -4 41l279 244q6 6 14 6z" />
    <glyph glyph-name="two.lf" horiz-adv-x="1159" 
d="M737 1503q176 0 291 -120q115 -121 89 -327t-97 -310q-72 -103 -256 -173l-244 -92q-112 -41 -148 -93t-46 -148l641 6q14 0 24 -10t8 -27l-22 -184q-4 -25 -29 -25h-876q-37 0 -31 43q33 268 71 369t78 144q81 86 175 124l315 129q120 49 150 99t47 188q18 162 -156 161
h-86q-84 0 -140 -50t-67 -136l-4 -35q-2 -25 -27 -24h-186q-14 0 -25 10q-10 10 -8 27l4 34q23 193 160 305t309 115h86z" />
    <glyph glyph-name="three.lf" horiz-adv-x="1148" 
d="M547 -18h-86q-168 0 -285 118t-94 297l4 39q4 25 29 25h186q15 0 25 -10t8 -27l-6 -39q-8 -66 32 -112t119 -46h86q91 -1 149 53t68 132q12 110 -18 158t-137 55h-152q-14 0 -24 10t-9 27l25 196q2 25 27 25h151q109 6 152 60t57 171q6 60 -30 106t-119 46h-89
q-78 0 -136 -58t-66 -131l-6 -39q-2 -25 -27 -24h-186q-14 0 -25 10q-10 10 -8 27l4 39q25 184 165 303t304 118h88q170 1 283 -119q114 -120 94 -281t-88 -243t-195 -116q246 -70 205 -385q-20 -173 -160 -279t-315 -106z" />
    <glyph glyph-name="four.lf" horiz-adv-x="1128" 
d="M731 963h184q15 -1 25 -11t8 -26l-24 -197h96q14 0 24 -10t9 -27l-23 -184q-4 -25 -29 -25h-108l-55 -458q-4 -25 -29 -25h-184q-14 0 -25 10q-10 10 -8 27l55 446h-553q-27 0 -33 27l-10 65q-8 33 4 52l662 864q14 18 41 18h221q19 0 27 -14t-2 -33l-543 -733h217
l24 209q4 25 29 25z" />
    <glyph glyph-name="five.lf" horiz-adv-x="1163" 
d="M463 -18q-178 0 -291 116t-90 301l4 33q2 25 29 25h186q17 1 25 -11t6 -26l-4 -33q-10 -84 24 -122t129 -38h86q195 0 228 203q25 142 -15 194t-151 52h-37q-154 0 -223 -55l-201 4q-14 0 -25 10q-10 10 -8 27l119 800q2 25 27 25h786q15 0 25 -10t8 -27l-23 -184
q-2 -25 -26 -25h-584l-57 -348q45 39 211 39h38q201 0 311 -134t72 -388q-33 -207 -172 -318t-321 -110h-86z" />
    <glyph glyph-name="six.lf" horiz-adv-x="1163" 
d="M485 227h84q78 0 143 47t83 156q31 139 2 205t-146 65h-37q-154 0 -209 -66t-63 -233q-4 -96 43 -135t100 -39zM745 1511q178 0 289 -125t88 -311l-4 -35q-4 -25 -28 -24h-187q-14 0 -24 10t-9 27l4 34q12 92 -29 136q-42 43 -118 43h-86q-70 0 -126 -46t-75 -128
q-18 -59 -43 -187q55 37 236 37h33q223 0 320 -140t60 -370t-175 -341q-138 -110 -320 -109h-84q-176 0 -276 117q-99 118 -91 327q6 315 88 682q41 176 164 288t303 115h90z" />
    <glyph glyph-name="seven.lf" horiz-adv-x="1165" 
d="M229 1487h920q14 0 25 -10q10 -11 8 -27l-19 -150q-2 -18 -8 -32q-606 -649 -840 -1297q-9 -6 -22 -1q-12 5 -14 5l-185 43q-20 4 -12 54q117 328 289 603t450 570l-608 -4q-14 0 -25 10q-10 10 -8 27l23 184q2 25 26 25z" />
    <glyph glyph-name="eight.lf" horiz-adv-x="1173" 
d="M686 635h-170q-68 0 -120 -51t-60 -121l-10 -86q-8 -66 26 -108t103 -42h170q68 0 119 48t59 114l12 86q8 70 -27 115t-102 45zM557 901h129q68 0 116 43t56 109l10 82q8 59 -26 95q-35 36 -103 36h-121q-68 0 -118 -42t-58 -102l-8 -82q-10 -66 23 -102t100 -37z
M614 -18h-186q-168 0 -269 110t-81 264l10 90q12 106 68 194t147 128q-68 33 -96 123q-29 90 -14 207l6 57q18 152 132 254t277 102h178q164 -1 257 -109t75 -259l-8 -58q-30 -259 -190 -325q76 -35 112 -128t23 -198l-11 -90q-20 -156 -141 -259t-289 -103z" />
    <glyph glyph-name="nine.lf" horiz-adv-x="1165" 
d="M725 1266h-84q-77 0 -143 -47t-82 -156q-31 -137 -2 -204t145 -66h37q154 -1 209 65t63 234q2 96 -44 135t-99 39zM465 -18q-178 0 -289 124t-88 312l4 35q4 25 29 24h186q15 0 25 -10t8 -27l-6 -34q-10 -92 32 -136t117 -43h86q70 0 126 46q55 46 75 123t41 192
q-53 -37 -233 -37h-33q-223 0 -321 140q-97 141 -60 371t175 340t320 109h84q176 0 276 -117q99 -118 91 -327q-6 -315 -88 -682q-41 -175 -164 -287t-303 -116h-90z" />
    <glyph glyph-name="zero.osf" horiz-adv-x="1079" 
d="M629 723h-129q-58 0 -96 -41t-44 -94l-26 -226q-14 -119 96 -118h129q57 0 95 40t44 91l27 225q6 53 -16 88q-23 35 -80 35zM522 969h121q154 0 250 -112t78 -265l-29 -234q-20 -154 -136 -257t-269 -103h-121q-154 0 -250 110t-78 263l29 233q19 154 135 260t270 105z
" />
    <glyph glyph-name="one.osf" horiz-adv-x="856" 
d="M629 266q14 0 24 -10t9 -27l-25 -204q-4 -25 -29 -25h-450q-14 0 -25 10q-10 10 -8 27l27 205q2 25 26 24h150l41 330l-74 -64q-20 -20 -41 9l-117 131q-20 20 -2 41l277 243q10 6 16 7h195q14 -1 24 -11t8 -26l-82 -660h56z" />
    <glyph glyph-name="two.osf" horiz-adv-x="1095" 
d="M879 0h-799q-37 0 -31 43q38 286 112 371t206 104l233 35q90 11 114 29t27 57q10 78 -112 78h-94q-70 0 -110 -33t-46 -86q-2 -25 -27 -25h-186q-37 0 -31 54q16 135 137 237t277 103h88q152 -2 258 -111q106 -108 89 -252t-85 -190t-283 -78l-174 -27q-82 -12 -88 -69
l543 6q15 0 25 -10t8 -27l-23 -184q-3 -20 -10 -22q-6 -3 -18 -3z" />
    <glyph glyph-name="three.osf" horiz-adv-x="1138" 
d="M481 -422h-86q-163 0 -283 111t-102 264l6 39q2 25 27 24h186q15 0 25 -10t8 -26l-4 -39q-4 -41 43 -79t123 -38h76q92 0 148 47t66 119t-24 112q-33 40 -139 48h-152q-14 0 -24 10t-8 26l24 197q2 25 29 25h151q183 10 201 168q16 141 -151 141h-76q-77 0 -141 -47
t-70 -101l-4 -39q-2 -25 -29 -24h-186q-16 0 -25 11q-8 11 -6 26l4 39q23 180 158 280t305 101h88q176 -1 288 -105t91 -283q-30 -241 -266 -296q238 -63 198 -357q-18 -156 -154 -250t-315 -94z" />
    <glyph glyph-name="four.osf" horiz-adv-x="1128" 
d="M856 479q14 0 24 -10t9 -27l-25 -196h97q14 0 24 -10t8 -27l-22 -184q-4 -25 -29 -25h-108l-48 -385q-2 -25 -26 -25h-185q-14 0 -24 10t-8 27l45 373h-553q-27 0 -33 27l-10 65q-8 33 4 51l661 865q14 18 41 18h222q20 0 27 -14t-3 -33l-543 -733h217l25 209q4 25 29 24
h184z" />
    <glyph glyph-name="five.osf" horiz-adv-x="1173" 
d="M500 -426h-86q-178 0 -291 117t-90 301l4 33q2 25 26 24h187q14 0 24 -10t9 -27l-4 -32q-11 -84 23 -122t128 -38h86q197 0 227 203q27 141 -13 191t-146 54q-186 6 -265 -55l-202 4q-14 0 -25 10q-10 10 -8 27l104 684q4 25 29 25h787q14 -1 24 -11t8 -26l-22 -185
q-4 -25 -29 -24h-584l-43 -232q33 27 81 33t165 6q204 0 316 -133t71 -389q-33 -208 -171 -318t-320 -110z" />
    <glyph glyph-name="six.osf" horiz-adv-x="1163" 
d="M416 227h84q78 0 142 47t83 156q31 139 2 205t-145 65h-37q-153 0 -209 -66t-64 -233q-4 -96 43 -135t101 -39zM676 1511q178 0 289 -125t88 -311l-4 -35q-4 -25 -29 -24h-186q-14 0 -25 10q-10 10 -8 27l4 34q12 91 -30 135t-118 44h-86q-70 0 -126 -46t-74 -128
q-18 -59 -43 -187q55 37 235 37h33q223 0 320 -140t57 -392q-33 -209 -171 -319t-321 -109h-84q-176 0 -275 118t-91 326q6 315 88 682q41 176 164 288t303 115h90z" />
    <glyph glyph-name="seven.osf" horiz-adv-x="1165" 
d="M281 -410h-201q-16 0 -26 14t-5 34q127 296 293 550t414 533l-609 -4q-14 0 -24 10t-8 27l22 184q4 25 29 25h919q15 -1 25 -11t8 -26l-18 -150q-2 -18 -8 -33q-522 -592 -779 -1138q-9 -15 -32 -15z" />
    <glyph glyph-name="eight.osf" horiz-adv-x="1173" 
d="M616 635h-170q-68 0 -120 -51t-60 -121l-10 -86q-8 -66 27 -108t102 -42h170q68 0 119 48t59 114l12 86q8 70 -26 115q-35 45 -103 45zM487 901h129q68 0 116 43t56 109l11 82q8 59 -27 95t-102 36h-121q-68 0 -118 -42t-58 -102l-8 -82q-9 -66 23 -102t99 -37zM545 -18
h-187q-168 0 -269 110t-81 264l10 90q12 106 68 194t147 128q-68 33 -96 123q-29 90 -14 207l6 57q18 152 132 254t278 102h178q164 -1 257 -109t75 -259l-9 -58q-30 -259 -190 -325q76 -35 112 -128t23 -198l-10 -90q-20 -156 -141 -259t-289 -103z" />
    <glyph glyph-name="nine.osf" horiz-adv-x="1181" 
d="M657 717h-84q-78 0 -139 -47q-62 -47 -78 -157t19 -162t168 -50q133 3 193 61t71 166q12 108 -34 149q-46 40 -116 40zM424 -424q-180 0 -292 117t-85 313q2 25 27 25h186q38 -1 31 -59q-8 -58 35 -104t114 -46h90q74 0 130 38t73 115l29 144q-48 -51 -268 -51t-318 122
t-68 338t168 326t324 109h84q176 0 274 -119t93 -330q0 -219 -72 -555q-43 -175 -163 -277t-302 -106h-90z" />
    <glyph glyph-name="zero.tf" 
d="M549 227h106q86 0 147 69q60 69 72 165l74 581q12 96 -25 159q-38 62 -126 63h-107q-86 0 -147 -69t-72 -165l-72 -581q-12 -96 26 -159t124 -63zM709 1509h106q176 0 288 -146t87 -349l-68 -549q-25 -203 -166 -343t-317 -140h-107q-178 0 -290 146t-86 349l69 549
q27 203 167 343q141 140 317 140z" />
    </font>
</defs>
</svg>
