<?xml version="1.0" standalone="no"?>
<!DOCTYPE svg PUBLIC "-//W3C//DTD SVG 1.1//EN" "http://www.w3.org/Graphics/SVG/1.1/DTD/svg11.dtd" >
<svg xmlns="http://www.w3.org/2000/svg">
<metadata>
Created by FontPrep 20130207 at Wed Nov  5 19:40:41 2014
 By Connary
Copyright (c) 2014 by Connary Fagen. All rights reserved.
</metadata>
<defs>
<font id="c5d31ec9645ff54e23c7327a09cb9115" horiz-adv-x='1024' >
  <font-face 
    font-family="ManifoldCF-DemiBoldOblique"
    font-weight="600"
    font-style="oblique"
    font-stretch="normal"
    units-per-em="2048"
    panose-1="0 0 7 0 0 0 0 0 0 0"
    ascent="1638"
    descent="-410"
    x-height="963"
    cap-height="1487"
    bbox="-479 -1046.4 2276.37 2165"
    underline-thickness="102"
    underline-position="-102"
    unicode-range="U+0020-FB02"
  />
<missing-glyph horiz-adv-x="1024" 
d="M102 1239v-1044l349 522zM164 102h696l-348 523zM573 717l349 -522v1044zM512 809l348 522h-696zM0 0v1434h1024v-1434h-1024z" />
    <glyph glyph-name="fi" unicode="fi" horiz-adv-x="1251" 
d="M1047 1487h141q37 0 31 -35l-21 -174q-2 -27 -31 -27h-141q-35 0 -29 35l21 174q2 27 29 27zM1108 965q35 0 31 -35l-111 -903q-6 -27 -31 -27h-123q-35 0 -30 35l92 745h-504l-92 -753q-6 -27 -31 -27h-123q-35 0 -30 35l92 745h-115q-37 0 -31 35l15 123q2 27 30 27
h123l17 141q23 174 124 277t253 104h135q35 0 30 -35l-14 -123q-6 -27 -31 -26h-135q-74 1 -120 -51t-58 -144l-16 -143h653z" />
    <glyph glyph-name="fl" unicode="fl" horiz-adv-x="1265" 
d="M664 1487h516q35 0 30 -35l-174 -1419q-4 -33 -35 -33h-118q-35 0 -31 35l156 1268h-357q-74 1 -121 -51t-57 -144l-18 -145h260q35 0 30 -35l-14 -123q-6 -27 -31 -27h-268l-92 -751q-2 -27 -31 -27h-123q-35 0 -30 35l92 743h-115q-35 0 -31 35l15 123q6 27 30 27h123
l19 143q19 174 121 278t254 103z" />
    <glyph glyph-name="f_t.liga" unicode="ft" horiz-adv-x="1419" 
d="M1333 963q35 0 31 -35l-14 -123q-2 -27 -31 -27h-152l-53 -438q-18 -147 113 -152q41 0 39 -30l-15 -133q-2 -29 -20 -29q-145 -4 -236 69q-90 73 -71 224l59 489h-551l-92 -751q-2 -27 -31 -27h-123q-35 0 -30 35l92 743h-115q-35 0 -31 35l15 123q6 27 30 27h123
l19 143q19 174 121 277t254 104h135q37 0 30 -35l-14 -123q-2 -27 -29 -26h-135q-74 1 -121 -51t-57 -144l-18 -145h551l26 217q2 27 29 26h123q16 0 25 -10t8 -25l-27 -208h143z" />
    <glyph glyph-name=".notdef" horiz-adv-x="1024" 
d="M102 1239v-1044l349 522zM164 102h696l-348 523zM573 717l349 -522v1044zM512 809l348 522h-696zM0 0v1434h1024v-1434h-1024z" />
    <glyph glyph-name=".null" horiz-adv-x="0" 
 />
    <glyph glyph-name="nonmarkingreturn" horiz-adv-x="681" 
 />
    <glyph glyph-name="space" unicode=" " horiz-adv-x="645" 
 />
    <glyph glyph-name="exclam" unicode="!" horiz-adv-x="532" 
d="M283 223q35 0 28 -35l-18 -161q-2 -27 -31 -27h-141q-35 0 -31 35l21 162q2 27 30 26h142zM305 1487h123q35 0 31 -35l-121 -991q-6 -27 -31 -27h-123q-34 0 -30 35l122 991q2 27 29 27z" />
    <glyph glyph-name="quotedbl" unicode="&#x22;" horiz-adv-x="913" 
d="M698 1487h140q37 0 30 -35l-73 -600q-2 -27 -29 -27h-139q-35 0 -31 35l74 600q2 27 28 27zM293 1487h139q37 0 31 -35l-74 -600q-2 -27 -29 -27h-139q-35 0 -31 35l74 600q2 27 29 27z" />
    <glyph glyph-name="numbersign" unicode="#" horiz-adv-x="1220" 
d="M770 901h-238l-38 -315h237zM1106 1085q35 0 31 -34l-15 -123q-2 -27 -30 -27h-138l-39 -315h132q35 0 30 -35l-16 -123q-2 -27 -31 -27h-137l-45 -374q-2 -27 -31 -27h-123q-35 0 -30 35l45 366h-238l-45 -374q-2 -27 -31 -27h-123q-35 0 -30 35l45 366h-129
q-35 0 -31 35l16 123q2 27 31 27h135l39 315h-129q-35 0 -29 35l15 123q2 27 28 26h138l47 375q2 27 28 27h123q37 0 31 -35l-45 -367h238l47 375q2 27 28 27h123q37 0 31 -35l-45 -367h129z" />
    <glyph glyph-name="dollar" unicode="$" horiz-adv-x="970" 
d="M571 686q73 10 121 45t55 94t-27 82t-118 33zM340 1214q-6 -52 28 -76t111 -38l33 254q-156 -19 -172 -140zM811 1182q-37 0 -35 37q6 55 -30 89t-93 44l-35 -275q146 -27 220 -89t60 -178t-114 -190t-231 -90l-16 -137q-2 -27 -31 -26h-82q-35 0 -31 34l15 129
q-115 14 -199 90t-76 187q0 20 29 20h96q33 1 32 -41t38 -69t100 -33l33 277q-299 55 -273 272q14 121 110 191t230 83l19 138q2 27 28 26h82q37 0 31 -35l-16 -131q116 -20 194 -101t68 -198q-4 -25 -29 -24h-94z" />
    <glyph glyph-name="percent" unicode="%" horiz-adv-x="1259" 
d="M979 264h-12q-61 0 -72 -63v-11q-8 -53 47 -53h12q66 1 72 62q13 65 -47 65zM969 401h26q82 0 131 -56t39 -138l-4 -23q-8 -82 -65 -133t-142 -51h-26q-84 0 -131 55t-37 138l2 22q10 82 67 134q58 52 140 52zM377 1350q-61 0 -72 -64v-10q-6 -53 47 -53h13q65 0 71 61
q13 65 -47 66h-12zM379 1487h27q82 0 131 -56t38 -139l-4 -22q-8 -82 -65 -133t-141 -52h-27q-84 -1 -131 55t-37 138l2 22q10 82 68 134t139 53zM1108 1487h147q15 0 25 -10t0 -25l-1001 -1425q-20 -27 -46 -27h-147q-16 0 -25 10q-8 11 2 25l1004 1425q18 27 41 27z" />
    <glyph glyph-name="ampersand" unicode="&#x26;" horiz-adv-x="1478" 
d="M469 154h197q129 0 204 86l-391 399l-82 -39q-115 -55 -127 -168l-8 -70q-10 -92 43 -150t164 -58zM1174 791h145q19 1 29 -13t-5 -26l-153 -109q-47 -35 -60 -149l-14 -121q-8 -61 -31 -121l213 -217q12 -12 9 -24q-4 -11 -25 -11h-166q-12 0 -33 20l-90 93
q-137 -143 -334 -144h-217q-176 0 -279 115t-83 287l10 90q10 89 58 157t165 132l39 20l-33 33q-70 71 -85 141t-3 166l5 39q18 147 139 255t291 107h135q170 1 268 -111t80 -259l-6 -39q-20 -164 -137 -254l-76 -55q-16 -14 -49 -15h-129q-20 0 -30 16t5 27l57 33
q66 40 116 106t61 140l4 49q10 82 -37 130t-152 48h-114q-104 0 -168 -52t-74 -134l-6 -49q-10 -80 7 -131t81 -115l434 -443l16 134q14 121 72 159l111 80q23 15 39 15z" />
    <glyph glyph-name="quotesingle" unicode="'" horiz-adv-x="507" 
d="M293 1487h139q37 0 31 -35l-74 -600q-2 -27 -29 -27h-139q-35 0 -31 35l74 600q2 27 29 27z" />
    <glyph glyph-name="parenleft" unicode="(" horiz-adv-x="714" 
d="M440 41h43q35 0 31 -35l-16 -123q-2 -27 -29 -26h-84q-153 1 -233 109t-58 280l123 1003q23 173 124 277t253 104h84q35 0 31 -35l-15 -122q-6 -27 -30 -27h-43q-102 0 -156 -60t-68 -186l-114 -921q-16 -125 19 -182q36 -56 138 -56z" />
    <glyph glyph-name="parenright" unicode=")" horiz-adv-x="714" 
d="M319 1446h-43q-35 0 -30 35l14 123q6 27 31 26h84q151 0 231 -108t60 -281l-123 -1003q-23 -174 -124 -278t-253 -103h-84q-35 0 -31 34l15 123q2 27 30 27h43q102 1 156 61t70 185l112 921q16 125 -19 182q-36 56 -139 56z" />
    <glyph glyph-name="asterisk" unicode="*" horiz-adv-x="782" 
d="M389 932q-31 0 -27 33l15 120l-96 -75q-29 -16 -39 14l-43 86q-14 27 6 39l137 61l-111 66q-31 16 -12 43l64 84q14 20 36 2l87 -72l18 131q2 23 25 23h102q33 0 29 -31l-17 -123l99 78q29 14 36 -16l45 -84q12 -27 -8 -39l-133 -62l109 -67q27 -16 12 -41l-66 -86
q-10 -18 -34 -2l-88 71l-17 -129q-2 -25 -26 -24h-103z" />
    <glyph glyph-name="plus" unicode="+" horiz-adv-x="1052" 
d="M920 754q35 0 30 -35l-16 -123q-2 -27 -31 -27h-282l-37 -307q-2 -27 -31 -26h-123q-35 0 -31 34l37 299h-278q-35 0 -29 35l14 123q2 27 29 27h287l39 305q2 27 28 26h123q35 0 31 -34l-37 -297h277z" />
    <glyph glyph-name="comma" unicode="," horiz-adv-x="464" 
d="M104 268h189q35 0 29 -35l-29 -245q-31 -221 -156 -350q-20 -16 -41 8l-59 59q-25 31 -10 47q57 45 76 97t28 135l19 16h-72q-35 0 -31 35l27 207q1 26 30 26z" />
    <glyph glyph-name="hyphen" unicode="-" horiz-adv-x="888" 
d="M702 426h-540q-35 0 -31 35l14 123q2 27 31 26h541q14 0 23 -10t8 -25l-17 -122q-2 -27 -29 -27z" />
    <glyph glyph-name="period" unicode="." horiz-adv-x="440" 
d="M90 244h174q35 0 31 -35l-23 -182q-2 -27 -30 -27h-174q-35 0 -31 35l22 182q2 27 31 27z" />
    <glyph glyph-name="slash" unicode="/" horiz-adv-x="868" 
d="M817 1487h135q16 0 24 -10t1 -25l-799 -1425q-16 -27 -43 -27h-135q-16 0 -25 10q-8 11 0 25l801 1425q14 27 41 27z" />
    <glyph glyph-name="zero" unicode="0" horiz-adv-x="1200" 
d="M496 170h100q110 0 190 87t97 214l69 563q16 127 -40 210t-164 83h-101q-109 0 -189 -87t-98 -214l-69 -563q-17 -127 41 -210t164 -83zM662 1511h100q176 0 287 -145t86 -348l-66 -547q-27 -203 -169 -344t-318 -141h-101q-179 0 -289 145t-83 348l67 547
q27 203 168 344q142 141 318 141z" />
    <glyph glyph-name="one" unicode="1" horiz-adv-x="841" 
d="M434 1487h129q35 0 31 -35l-174 -1425q-6 -27 -31 -27h-123q-35 0 -30 35l145 1175l-94 -84q-25 -20 -43 7l-76 88q-20 20 -2 41l248 219q6 6 20 6z" />
    <glyph glyph-name="two" unicode="2" horiz-adv-x="1159" 
d="M670 1503q174 0 288 -122q114 -123 92 -317q-24 -194 -115 -296t-290 -178l-244 -92q-184 -70 -215 -318l707 4q35 0 31 -34l-17 -123q-2 -27 -30 -27h-877q-35 0 -31 41q33 241 77 351t102 166t145 91l315 129q134 56 188 116t72 200q12 102 -46 163t-165 62h-86
q-102 0 -180 -67t-92 -179l-4 -35q-6 -27 -31 -26h-125q-35 0 -30 35l4 34q25 186 162 302q139 116 309 120h86z" />
    <glyph glyph-name="three" unicode="3" horiz-adv-x="1148" 
d="M389 -18q-168 0 -284 116t-93 297l4 39q6 27 31 27h125q35 0 31 -35l-6 -39q-12 -97 48 -159t158 -62h86q113 0 192 64t91 169q31 244 -215 256h-149q-35 0 -31 35l16 135q2 27 29 27h149q246 12 275 266q10 88 -46 148t-161 61h-86q-96 0 -176 -71t-94 -177l-4 -39
q-6 -27 -31 -26h-125q-35 0 -31 35l4 38q25 185 166 305t305 119h88q170 -1 283 -119t92 -284q-16 -139 -84 -222t-198 -132q242 -104 204 -383q-20 -172 -160 -281t-317 -108h-86z" />
    <glyph glyph-name="four" unicode="4" horiz-adv-x="1128" 
d="M694 963h123q35 0 31 -35l-31 -250h129q35 0 31 -35l-14 -123q-6 -27 -31 -26h-137l-58 -467q-2 -27 -30 -27h-123q-35 0 -31 35l57 459h-585q-25 0 -33 24l-12 55q-6 31 6 50l671 868q14 18 43 18h152q20 0 26 -13t-6 -30l-600 -788h361l31 258q6 27 30 27z" />
    <glyph glyph-name="five" unicode="5" horiz-adv-x="1163" 
d="M391 -18q-178 0 -290 116t-89 299l4 33q2 27 31 27h125q35 0 31 -35l-4 -33q-27 -223 207 -223h86q118 0 196 63t102 213t-31 223q-54 73 -194 72h-49q-94 0 -141 -19t-83 -41t-40 -24l-152 2q-35 0 -30 35l114 770q2 27 29 27h786q37 0 31 -35l-14 -123q-2 -27 -29 -26
h-639l-72 -441q109 70 271 70h45q200 0 310 -132t71 -386q-33 -209 -173 -321t-323 -111h-86z" />
    <glyph glyph-name="six" unicode="6" horiz-adv-x="1163" 
d="M406 166h90q106 0 188 63t106 215t-20 226q-43 74 -192 73h-56q-168 1 -236 -79t-73 -258q-8 -240 193 -240zM678 1511q178 1 288 -123t87 -311l-4 -35q-2 -27 -31 -26h-125q-35 0 -31 35l4 34q14 117 -42 179t-160 63h-89q-100 0 -171 -61t-95 -160q-33 -115 -51 -250
q37 32 115 54t164 22h53q227 0 325 -133t58 -385q-33 -209 -171 -321t-321 -111h-90q-176 0 -273 116t-89 326q8 319 90 682q41 176 165 288t304 117h90z" />
    <glyph glyph-name="seven" unicode="7" horiz-adv-x="1165" 
d="M162 1487h919q37 0 31 -35l-12 -102l-8 -35q-612 -627 -885 -1342q-8 -12 -39 2l-125 33q-20 8 -10 51q264 686 819 1248l-702 -4q-35 0 -31 34l14 123q2 27 29 27z" />
    <glyph glyph-name="eight" unicode="8" horiz-adv-x="1173" 
d="M457 672q-94 0 -169 -66t-85 -155l-8 -78q-10 -87 43 -147t147 -60h158q96 0 169 64t83 151l10 78q10 90 -43 151t-148 62h-157zM618 866q94 0 160 60t76 147l6 60q10 82 -38 138t-142 56h-129q-94 -1 -161 -61t-77 -142l-8 -59q-10 -88 36 -143t140 -56h137zM367 -18
q-168 0 -274 113q-105 114 -85 270l10 79q12 102 72 192t156 136q-72 41 -104 128t-19 196l6 47q18 153 138 261t284 107h158q164 -1 260 -113t80 -263l-9 -48q-26 -237 -200 -323q78 -43 118 -135t27 -193l-8 -80q-21 -156 -149 -266t-296 -108h-165z" />
    <glyph glyph-name="nine" unicode="9" horiz-adv-x="1165" 
d="M666 1327h-91q-106 0 -188 -63q-83 -63 -105 -214t21 -226t193 -74h55q167 0 235 81t74 259q2 125 -51 181t-143 56zM393 -18q-178 0 -288 124t-87 310l5 35q6 27 30 26h125q35 0 31 -35l-4 -34q-14 -118 42 -180t161 -62h88q100 0 171 61t95 160q37 119 51 250
q-37 -31 -114 -53t-162 -21h-56q-225 0 -323 132t-60 386q33 209 172 320t322 110h90q176 1 272 -115t88 -325q-8 -324 -90 -682q-41 -175 -165 -289t-304 -118h-90z" />
    <glyph glyph-name="colon" unicode=":" horiz-adv-x="542" 
d="M141 244h174q35 0 31 -35l-22 -182q-2 -27 -31 -27h-174q-35 0 -31 35l23 182q2 27 30 27zM229 963h174q35 0 31 -35l-22 -183q-2 -27 -31 -26h-174q-35 0 -29 35l21 182q6 27 30 27z" />
    <glyph glyph-name="semicolon" unicode=";" horiz-adv-x="544" 
d="M119 0q-35 0 -31 35l27 203q2 27 28 26h174q35 0 31 -41l-29 -237q-23 -174 -118 -283q-20 -12 -39 0l-51 39q-33 16 -17 43q78 70 82 205l12 10h-69zM229 963h174q35 0 31 -35l-22 -183q-2 -27 -31 -26h-174q-35 0 -29 35l21 182q6 27 30 27z" />
    <glyph glyph-name="less" unicode="&#x3c;" horiz-adv-x="983" 
d="M901 903l-14 -131q-8 -39 -23 -47l-483 -242l416 -245q23 -10 18 -52l-16 -131q-4 -27 -29 -8l-633 369q-29 16 -21 72t27 67l725 371q12 8 24 -1q11 -10 9 -22z" />
    <glyph glyph-name="equal" unicode="=" horiz-adv-x="929" 
d="M760 389h-623q-35 0 -31 35l15 113q2 27 29 26h622q35 0 31 -35l-15 -112q-1 -27 -28 -27zM799 713h-623q-35 0 -31 35l15 112q2 27 28 27h623q37 0 31 -35l-13 -113q-5 -26 -30 -26z" />
    <glyph glyph-name="greater" unicode="&#x3e;" horiz-adv-x="983" 
d="M150 780l16 131q4 29 29 11l634 -371q27 -15 21 -71t-31 -68l-723 -371q-14 -8 -25 1t-10 21l17 132q4 39 20 47l484 241l-414 246q-22 14 -18 51z" />
    <glyph glyph-name="question" unicode="?" horiz-adv-x="1030" 
d="M483 223q37 0 31 -35l-18 -161q-6 -27 -31 -27h-141q-35 0 -31 35l20 162q2 27 29 26h141zM588 1513h86q172 -1 277 -123t83 -302t-111 -262q-48 -42 -87 -64t-111 -51q-65 -23 -93 -35q-71 -31 -79 -103l-14 -112q-2 -27 -31 -27h-123q-35 0 -31 35l17 133
q12 109 68 161t206 114q102 37 148 81q45 46 57 144t-38 163t-153 64h-86q-98 0 -169 -73t-82 -179l-5 -39q-6 -27 -30 -26h-125q-35 0 -31 35l4 38q25 190 156 309t297 119z" />
    <glyph glyph-name="at" unicode="@" horiz-adv-x="1343" 
d="M604 451h21q131 0 194 116l12 90h-174q-131 0 -143 -112q-6 -43 18 -69q25 -25 72 -25zM666 -27h-105q-217 -1 -346 139t-102 365l67 541q27 221 186 357t375 136h95q209 0 339 -138t103 -349l-68 -555q-10 -84 -54 -133t-116 -49h-67q-45 -1 -76 27t-39 63
q-36 -39 -106 -66t-142 -26h-20q-112 0 -178 81q-66 82 -52 198t94 187t222 70h176l2 19q20 164 -111 164h-34q-100 0 -185 -74q-33 -14 -47 10l-45 72q-12 29 -2 45q123 111 297 110h41q129 0 197 -89t47 -251l-33 -249l-8 -82q-4 -23 0 -32t24 -9q47 0 56 49l61 512
q20 158 -66 245q-87 87 -243 87h-53q-158 0 -274 -92t-136 -257l-64 -518q-20 -166 70 -255t248 -89h84q76 0 158 53q20 8 32 0t9 -26l-15 -117q-2 -25 -18 -37q-100 -37 -178 -37z" />
    <glyph glyph-name="A" unicode="A" horiz-adv-x="1230" 
d="M791 575l-101 570l-244 -570h345zM1044 0h-122q-31 0 -37 37l-62 354h-454l-156 -362q-12 -29 -39 -29h-125q-16 0 -23 10t-1 27l608 1427q12 29 39 29h106q33 0 37 -37l252 -1427q6 -29 -23 -29z" />
    <glyph glyph-name="B" unicode="B" horiz-adv-x="1196" 
d="M608 184q127 0 194 56t81 178q29 250 -205 250h-348l-58 -484h336zM694 852q205 0 236 248q27 203 -185 203h-335l-58 -451h342zM614 0h-510q-41 0 -34 41l172 1413q6 33 37 33h493q176 -1 270 -103t72 -282q-29 -256 -199 -342q182 -86 146 -381q-45 -379 -447 -379z
" />
    <glyph glyph-name="C" unicode="C" horiz-adv-x="1159" 
d="M889 481h123q35 0 30 -39q-27 -197 -166 -333t-313 -136h-94q-182 0 -292.5 143.5t-86.5 352.5l70 557q27 209 167 346t322 137h94q176 0 284 -140t87 -341q-2 -23 -31 -22h-122q-37 0 -31 41q16 125 -39 201.5t-162 76.5h-94q-113 0 -194 -84t-99 -223l-68 -557
q-16 -141 40.5 -222t168.5 -81h95q106 0 186 85t94 218q2 20 31 20z" />
    <glyph glyph-name="D" unicode="D" horiz-adv-x="1187" 
d="M733 1303h-330l-137 -1119h322q111 0 194 81t99 220l65 525q16 139 -43 216t-170 77zM268 1487h490q170 1 282 -145t88 -341l-63 -524q-25 -195 -169 -336t-312 -141h-490q-35 0 -31 35l177 1425q1 27 28 27z" />
    <glyph glyph-name="E" unicode="E" horiz-adv-x="1138" 
d="M883 842q35 0 30 -35l-16 -123q-2 -27 -29 -27h-538l-58 -473h664q35 0 31 -34l-17 -123q-2 -27 -30 -27h-822q-35 0 -30 35l176 1425q2 27 28 27h822q37 0 30 -35l-14 -123q-2 -27 -29 -26h-671l-58 -461h531z" />
    <glyph glyph-name="F" unicode="F" horiz-adv-x="1142" 
d="M897 821q35 0 31 -35l-17 -122q-2 -27 -30 -27h-539l-74 -610q-2 -27 -30 -27h-123q-35 0 -31 35l176 1425q2 27 29 27h821q37 0 31 -35l-15 -123q-2 -27 -28 -26h-672l-59 -482h530z" />
    <glyph glyph-name="G" unicode="G" horiz-adv-x="1179" 
d="M645 770h412q37 0 30 -35l-32 -284q-27 -203 -165 -340.5t-317 -137.5h-98q-184 0 -294.5 142.5t-84.5 351.5l70 559q27 209 167 346t322 137h99q174 0 282.5 -140t87.5 -341q-2 -23 -30 -22h-123q-37 0 -31 41q14 125 -41 201.5t-162 76.5h-98q-113 0 -193.5 -84
t-97.5 -223l-67 -559q-18 -141 37 -221t169 -80h99q109 0 187.5 83t94.5 218l17 127h-254q-35 0 -31 35l16 122q2 27 29 27z" />
    <glyph glyph-name="H" unicode="H" horiz-adv-x="1220" 
d="M1038 1487h123q35 0 31 -35l-174 -1425q-6 -27 -31 -27h-123q-35 0 -30 35l71 581h-575l-72 -589q-6 -27 -31 -27h-123q-35 0 -30 35l176 1425q2 27 29 27h122q35 0 31 -35l-80 -651h576l82 659q1 27 28 27z" />
    <glyph glyph-name="I" unicode="I" horiz-adv-x="538" 
d="M279 1487h124q37 0 31 -35l-174 -1425q-2 -27 -31 -27h-125q-34 0 -30 35l176 1425q2 27 29 27z" />
    <glyph glyph-name="J" unicode="J" horiz-adv-x="1118" 
d="M444 170h54q114 0 200 86t103 225l121 979q2 27 28 27h123q37 0 31 -35l-121 -989q-25 -213 -170 -345t-321 -132h-64q-126 0 -234 82t-141 208q-10 23 13 35l110 60q12 6 20 -3t11 -28q72 -170 237 -170z" />
    <glyph glyph-name="K" unicode="K" horiz-adv-x="1208" 
d="M1038 0h-149q-31 0 -51 33l-447 608l-82 -82l-67 -532q-2 -27 -31 -27h-123q-35 0 -31 35l176 1425q2 27 29 27h123q37 0 31 -35l-82 -653l610 663q25 25 41 25h162q16 0 21.5 -16.5t-11.5 -36.5l-614 -666l508 -721q10 -12 8 -29.5t-21 -17.5z" />
    <glyph glyph-name="L" unicode="L" horiz-adv-x="1138" 
d="M940 184q35 0 31 -34l-15 -123q-6 -27 -30 -27h-822q-35 0 -30 35l176 1425q2 27 29 27h122q35 0 31 -35l-156 -1268h664z" />
    <glyph glyph-name="M" unicode="M" horiz-adv-x="1480" 
d="M1231 1487h184q35 0 31 -35l-174 -1425q-6 -27 -31 -27h-123q-35 0 -31 35l136 1093l-469 -1101q-10 -27 -39 -27h-84q-33 0 -37 35l-201 1093l-135 -1101q-6 -27 -31 -27h-123q-35 0 -30 35l176 1425q2 27 29 27h184q35 0 39 -35l203 -1122l485 1130q10 27 41 27z" />
    <glyph glyph-name="N" unicode="N" horiz-adv-x="1298" 
d="M1114 1487h123q37 0 31 -35l-174 -1425q-2 -27 -31 -27h-174q-27 0 -33 27l-461 1142l-143 -1142q-2 -27 -31 -27h-123q-35 0 -30 35l176 1425q2 27 28 27h174q27 0 37 -27l461 -1143l141 1143q2 27 29 27z" />
    <glyph glyph-name="O" unicode="O" horiz-adv-x="1200" 
d="M496 170h100q110 0 190 87t97 214l69 563q16 127 -40 210t-164 83h-101q-109 0 -189 -87t-98 -214l-69 -563q-17 -127 41 -210t164 -83zM662 1511h100q176 0 287 -145t86 -348l-66 -547q-27 -203 -169 -344t-318 -141h-101q-179 0 -289 145t-83 348l67 547
q27 203 168 344q142 141 318 141z" />
    <glyph glyph-name="P" unicode="P" horiz-adv-x="1165" 
d="M672 821q229 0 260 252q16 125 -33 177t-160 53h-327l-60 -482h320zM276 1487h488q184 0 279 -117q95 -116 71 -312t-144 -308t-302 -113h-338l-74 -610q-6 -27 -31 -27h-123q-35 0 -30 35l155 1268l21 157q1 27 28 27z" />
    <glyph glyph-name="Q" unicode="Q" horiz-adv-x="1222" 
d="M748 1327h-101q-109 0 -189 -87t-98 -214l-69 -563q-16 -127 41 -210t164 -83h100q78 0 147 49l-57 66q-23 25 -2 45l98 86q21 19 41 -6l35 -39q18 45 25 100l69 563q16 127 -40 210t-164 83zM582 -14h-101q-179 0 -289 145t-83 348l67 547q27 203 168 344t318 141h100
q176 0 287 -145t86 -348l-66 -547q-18 -129 -86 -242l96 -110q23 -25 2 -45l-98 -88q-23 -20 -41 6l-84 96q-133 -102 -276 -102z" />
    <glyph glyph-name="R" unicode="R" horiz-adv-x="1161" 
d="M664 821q229 0 260 252q16 125 -33 177.5t-160 52.5h-328l-59 -482h320zM958 0h-122q-14 0 -23.5 10t-7.5 25l39 319q16 125 -26 204t-156 79h-340l-74 -610q-6 -27 -31 -27h-123q-35 0 -31 35l177 1425q2 27 28 27h488q184 0 279.5 -116.5t69.5 -325.5t-175 -322
q129 -123 102 -340l-43 -356q-2 -27 -31 -27z" />
    <glyph glyph-name="S" unicode="S" horiz-adv-x="1173" 
d="M633 1518h106q166 0 278.5 -125t90.5 -310l-4 -36q-2 -27 -29 -27h-125q-35 0 -30 35l4 37q14 111 -45.5 176t-155.5 65h-107q-98 0 -167.5 -64.5t-83.5 -168.5q-25 -195 200 -236l111 -20q197 -33 293 -145.5t72 -300.5t-163 -302t-315 -114h-94q-170 0 -286.5 119.5
t-96.5 297.5l8 58q2 27 31 26h125q35 0 29 -34l-5 -58q-8 -104 51.5 -164.5t157.5 -60.5h95q104 0 185 67.5t95 178t-36 169t-165 78.5l-110 23q-408 78 -363 442q20 174 149.5 284t299.5 110z" />
    <glyph glyph-name="T" unicode="T" horiz-adv-x="1132" 
d="M223 1487h899q35 0 31 -35l-14 -123q-6 -27 -31 -26h-360l-156 -1276q-6 -27 -31 -27h-123q-35 0 -30 35l155 1268h-354q-35 0 -31 34l17 123q1 27 28 27z" />
    <glyph glyph-name="U" unicode="U" horiz-adv-x="1179" 
d="M1008 1489h122q37 0 31 -35l-123 -1010q-25 -200 -164 -328t-335 -128h-54q-197 0 -307 133t-86 332l125 1009q2 27 29 27h123q37 0 30 -35l-120 -989q-15 -129 39 -211t184 -82h53q129 0 208 86t95 215l121 989q2 27 29 27z" />
    <glyph glyph-name="V" unicode="V" horiz-adv-x="1185" 
d="M195 1487h127q29 0 34 -37l187 -1137l473 1145q10 29 37 29h127q16 0 24 -10t2 -27l-602 -1421q-12 -29 -39 -29h-104q-33 0 -37 37l-252 1421q-6 29 23 29z" />
    <glyph glyph-name="W" unicode="W" horiz-adv-x="1880" 
d="M1753 1487h125q16 0 24 -9t5 -24l-502 -1427q-10 -27 -41 -27h-102q-29 0 -35 35l-211 1124l-488 -1132q-12 -27 -41 -27h-102q-33 0 -37 35l-151 1423q-6 29 22 29h127q31 0 35 -35l106 -1100l465 1106q12 29 41 29h107q35 0 41 -33l194 -1102l381 1104q12 31 37 31z
" />
    <glyph glyph-name="X" unicode="X" horiz-adv-x="1134" 
d="M987 1487h135q16 0 24 -10t-1 -25l-453 -717l275 -708q8 -27 -19 -27h-135q-25 0 -39 35l-199 516l-329 -524q-18 -27 -43 -27h-135q-16 0 -25 10q-8 10 0 25l455 717l-273 708q-10 27 17 27h135q27 0 37 -35l200 -516l332 524q16 27 41 27z" />
    <glyph glyph-name="Y" unicode="Y" horiz-adv-x="1128" 
d="M1004 1487h141q16 0 24 -10t0 -25l-518 -799l-78 -626q-2 -27 -30 -27h-123q-35 0 -31 35l78 618l-313 807q-10 27 16 27h141q29 0 39 -35l230 -600l383 608q16 27 41 27z" />
    <glyph glyph-name="Z" unicode="Z" horiz-adv-x="1107" 
d="M926 184q35 0 30 -34l-16 -123q-2 -27 -31 -27h-841q-35 0 -31 35l10 76q0 10 6 28l797 1164h-621q-35 0 -30 34l14 123q2 27 29 27h841q37 0 31 -35l-8 -76q0 -10 -6 -28l-795 -1164h621z" />
    <glyph glyph-name="bracketleft" unicode="[" horiz-adv-x="657" 
d="M291 1630h330q35 0 30 -35l-14 -122q-6 -27 -31 -27h-180l-174 -1405h174q35 0 31 -35l-17 -123q-2 -27 -28 -26h-334q-31 4 -27 34l209 1713q6 26 31 26z" />
    <glyph glyph-name="backslash" unicode="\" horiz-adv-x="866" 
d="M735 0h-135q-27 0 -37 35l-448 1425q-8 27 16 27h135q33 0 39 -35l449 -1425q10 -27 -19 -27z" />
    <glyph glyph-name="bracketright" unicode="]" horiz-adv-x="657" 
d="M291 1630h334q31 -4 26 -35l-211 -1712q-2 -27 -28 -26h-330q-35 0 -31 34l15 123q2 27 30 27h180l173 1405h-173q-35 0 -30 35l14 123q6 26 31 26z" />
    <glyph glyph-name="asciicircum" unicode="^" horiz-adv-x="864" 
d="M651 932q-29 0 -39 35l-94 276l-166 -285q-12 -27 -41 -26h-135q-16 0 -24 10t0 25l301 493q14 27 41 27h94q25 0 37 -35l178 -494q10 -27 -17 -26h-135z" />
    <glyph glyph-name="underscore" unicode="_" horiz-adv-x="1212" 
d="M997 0h-929q-35 0 -31 35l16 123q2 27 31 26h930q14 0 23 -10t7 -24l-16 -123q-2 -27 -31 -27z" />
    <glyph glyph-name="grave" unicode="`" horiz-adv-x="573" 
d="M526 1186h-116q-25 0 -39 41l-133 379q-10 33 18 32h141q35 0 39 -41l109 -378q12 -33 -19 -33z" />
    <glyph glyph-name="a" unicode="a" horiz-adv-x="942" 
d="M322 182h104q106 2 197 97l16 135h-281q-55 0 -91 -31t-43 -82t22 -85t76 -34zM772 0h-145q-16 0 -27 15q-10 15 -6 38l2 23q-102 -78 -199 -78h-96q-113 -2 -193 89t-64 217q14 126 108 204t225 78h282l5 37q10 81 -24 121t-101 40h-99q-100 0 -182 -65q-23 -16 -45 8
l-59 84q-23 25 -4 43q125 113 321 113h96q127 -1 212 -103t67 -258l-68 -555q-2 -11 2 -31t-8 -20z" />
    <glyph glyph-name="b" unicode="b" horiz-adv-x="1011" 
d="M594 778h-74q-59 0 -114 -42t-70 -99l-45 -371q51 -82 149 -82h74q68 0 122 48t62 118l31 252q10 74 -27 125t-108 51zM535 963h75q144 0 232 -115t71 -256l-30 -250q-16 -138 -133 -240t-250 -102h-76q-76 0 -160 45l-2 -18q-2 -27 -31 -27h-122q-35 0 -31 35l176 1425
q2 27 29 27h123q37 0 30 -35l-65 -530q82 41 164 41z" />
    <glyph glyph-name="c" unicode="c" horiz-adv-x="985" 
d="M879 641h-125q-33 0 -33 41t-41 71.5t-98 30.5h-76q-72 0 -134.5 -56t-70.5 -134l-29 -234q-8 -76 36 -127t116 -51h82q92 0 194 117q20 20 45 -6l82 -78q27 -29 9 -47q-170 -170 -351 -170h-73q-145 0 -242.5 111.5t-81.5 259.5l29 233q18 147 139 257t266 110h74
q125 0 222 -94.5t87 -206.5q-3 -27 -26 -27z" />
    <glyph glyph-name="d" unicode="d" horiz-adv-x="1026" 
d="M410 184h75q43 0 95 28t84 69l43 352q4 61 -38 103t-104 42h-76q-73 0 -125 -55t-63 -129l-31 -252q-8 -70 31 -114t109 -44zM838 1487h123q35 0 30 -35l-174 -1425q-6 -27 -31 -27h-122q-35 0 -31 35v4q-82 -39 -162 -39h-80q-133 0 -227 106t-78 244l31 250
q16 141 129 252t256 111h80q80 0 159 -48l68 545q2 27 29 27z" />
    <glyph glyph-name="e" unicode="e" horiz-adv-x="1001" 
d="M584 784h-78q-70 0 -132.5 -54t-70.5 -124l-4 -20h422l4 28q8 74 -37 122t-104 48zM522 969h78q129 0 227.5 -109.5t79.5 -263.5l-14 -113q-6 -57 -64 -57h-548l-9 -66q-8 -78 37 -128t117 -50h82q90 0 194 117q23 20 46 -6l81 -78q20 -25 9 -47q-80 -80 -160 -125
t-189 -45h-77q-145 0 -242.5 111.5t-81.5 259.5l29 233q18 147 139 257t266 110z" />
    <glyph glyph-name="f" unicode="f" horiz-adv-x="751" 
d="M664 1487h135q37 0 30 -35l-14 -123q-2 -27 -29 -26h-135q-74 1 -121 -51t-57 -144l-18 -145h260q35 0 30 -35l-14 -123q-6 -27 -31 -27h-268l-92 -751q-2 -27 -31 -27h-123q-35 0 -30 35l92 743h-115q-35 0 -31 35l15 123q6 27 30 27h123l19 143q19 174 121 278t254 103
z" />
    <glyph glyph-name="g" unicode="g" horiz-adv-x="1001" 
d="M420 182h69q86 0 164 78l52 412q4 43 -39 78t-101 34h-73q-70 0 -130 -57t-71 -133l-29 -234q-8 -74 39 -126t119 -52zM801 963h92q35 0 31 -35l-127 -1034q-14 -115 -125 -209t-244 -95h-51q-107 0 -193 58t-129 155q-12 27 17 39l96 45q25 10 45 -22q59 -90 166 -90h63
q53 0 108 38q54 38 60 95l15 129q-82 -39 -156 -39h-63q-145 0 -245 114q-99 114 -83 257l28 233q18 145 138 256t262 111h74q90 0 170 -70l6 29q2 35 45 35z" />
    <glyph glyph-name="h" unicode="h" horiz-adv-x="1046" 
d="M543 963h75q144 0 232 -115t72 -256l-70 -565q-6 -27 -31 -27h-123q-35 0 -30 35l69 567q10 76 -26 126q-37 50 -107 50h-80q-61 0 -116 -44t-64 -101l-74 -606q-6 -27 -30 -27h-123q-35 0 -31 35l176 1425q2 27 29 27h123q35 0 30 -35l-65 -530q82 41 164 41z" />
    <glyph glyph-name="i" unicode="i" horiz-adv-x="460" 
d="M195 965h122q35 0 31 -35l-110 -903q-2 -27 -31 -27h-123q-35 0 -31 35l113 903q2 27 29 27zM258 1487h141q35 0 31 -35l-20 -174q-6 -27 -31 -27h-141q-35 0 -31 35l22 174q2 27 29 27z" />
    <glyph glyph-name="j" unicode="j" horiz-adv-x="505" 
d="M164 965h123q35 0 30 -35l-129 -1047q-14 -113 -95 -206t-195 -128q-33 -6 -41 27l-35 117q-8 25 12 39q61 18 113 63q51 45 59 103l127 1040q2 27 31 27zM227 1487h142q37 0 30 -35l-20 -174q-2 -27 -31 -27h-141q-35 0 -29 35l21 174q2 27 28 27z" />
    <glyph glyph-name="k" unicode="k" horiz-adv-x="1034" 
d="M743 963h154q18 0 24.5 -22.5t-16.5 -45.5l-397 -348l354 -502q18 -26 10 -35.5t-20 -9.5h-137q-31 0 -51 33l-297 387l-68 -58l-41 -329q-4 -33 -35 -33h-119q-35 0 -30 35l174 1419q4 33 37 33h116q35 0 31 -35l-102 -834l366 324q24 21 47 21z" />
    <glyph glyph-name="l" unicode="l" horiz-adv-x="512" 
d="M309 1487h117q37 0 31 -35l-174 -1419q-2 -33 -35 -33h-119q-35 0 -31 35l176 1419q2 33 35 33z" />
    <glyph glyph-name="m" unicode="m" horiz-adv-x="1701" 
d="M1169 963h76q150 0 241 -114t73 -257l-70 -565q-2 -27 -31 -27h-123q-35 0 -30 35l69 565q10 78 -31 128t-112 50h-90q-57 0 -115 -40t-74 -97q0 -33 -2 -49l-69 -565q-2 -27 -31 -27h-123q-35 0 -31 35l70 565q10 78 -30 128t-109 50h-90q-59 0 -119 -43t-72 -102
l-74 -606q-2 -27 -30 -27h-123q-35 0 -31 35l111 901q6 27 30 27h123q35 0 31 -35l-2 -23q98 57 184 58h76q150 0 242 -119q128 119 286 119z" />
    <glyph glyph-name="n" unicode="n" horiz-adv-x="1046" 
d="M553 963h88q150 0 227.5 -110t59.5 -261l-70 -565q-2 -27 -31 -27h-122q-35 0 -31 35l69 565q10 74 -28.5 126t-110.5 52h-88q-61 0 -119.5 -46t-66.5 -103l-74 -602q-2 -27 -31 -27h-123q-35 0 -30 35l110 901q6 27 31 27h123q35 0 31 -35l-7 -41q84 76 193 76z" />
    <glyph glyph-name="o" unicode="o" horiz-adv-x="1052" 
d="M590 784h-84q-82 0 -140 -60t-69 -140l-27 -213q-10 -80 31 -134t123 -55h84q82 0 140 58t67 139l26 213q10 80 -29 136q-40 56 -122 56zM522 969h80q152 0 247 -115t77 -270l-27 -213q-18 -153 -137 -263t-270 -110h-80q-154 0 -249 113t-77 268l27 213q19 156 137 266
t272 111z" />
    <glyph glyph-name="p" unicode="p" horiz-adv-x="1036" 
d="M596 778h-76q-59 0 -114 -42t-70 -99l-45 -371q51 -82 149 -82h76q70 0 124 48t62 118l31 252q8 74 -27 125q-36 51 -110 51zM535 963h79q144 0 232 -115t72 -256l-31 -250q-18 -138 -135 -240t-248 -102h-80q-76 0 -160 45l-53 -428q-2 -27 -29 -27h-123q-35 0 -30 35
l159 1311q6 27 31 27h123q35 0 31 -35l-2 -17q88 52 164 52z" />
    <glyph glyph-name="q" unicode="q" horiz-adv-x="997" 
d="M379 184h80q43 0 93 27t83 68l45 374q-2 53 -44 89t-97 36h-80q-74 0 -126 -55t-63 -129l-30 -252q-8 -70 30 -114t109 -44zM745 963h123q35 0 31 -35l-162 -1311q-2 -27 -28 -27h-123q-35 0 -31 35l51 414q-92 -39 -164 -39h-82q-131 0 -226 106t-79 244l31 250
q16 141 129 252t256 111h82q80 0 158 -58l4 31q5 27 30 27z" />
    <glyph glyph-name="r" unicode="r" horiz-adv-x="858" 
d="M508 780q-61 0 -119.5 -48t-66.5 -105l-74 -600q-2 -27 -31 -27h-123q-35 0 -31 35l111 901q6 27 31 27h123q35 0 30 -35l-6 -41q86 78 193 78h82q123 0 196 -88q29 -18 6 -41l-100 -93q-20 -16 -39 7q-49 31 -119 30h-63z" />
    <glyph glyph-name="s" unicode="s" horiz-adv-x="968" 
d="M438 -10h-51q-127 0 -225.5 81t-93.5 197q0 20 26 21h127q27 0 37 -33q6 -39 46 -60.5t93 -21.5h70q70 0 123 29.5t59 82t-29.5 72t-144.5 31.5q-190 18 -280.5 90t-73 209t125 210t259.5 73h41q133 0 232.5 -87t84.5 -216q-4 -25 -28 -25h-123q-39 0 -34 43t-40 71.5
t-107 28.5h-55q-162 0 -172 -108q-6 -47 29.5 -70t144.5 -37q193 -23 281 -91t71.5 -202.5t-131 -211t-262.5 -76.5z" />
    <glyph glyph-name="t" unicode="t" horiz-adv-x="667" 
d="M580 963q37 0 32 -35l-14 -123q-2 -27 -31 -27h-151l-54 -438q-18 -147 113 -152q18 0 29.5 -8t9.5 -22l-14 -133q-2 -29 -21 -29q-145 -4 -235 68.5t-72 224.5l59 489h-98q-35 0 -31 33l15 121q2 31 30 31h107l27 217q2 27 28 26h123q16 0 25.5 -10t7.5 -25l-27 -208
h142z" />
    <glyph glyph-name="u" unicode="u" horiz-adv-x="1067" 
d="M825 0h-123q-35 0 -30 35l6 41q-82 -78 -193 -78h-84q-153 0 -231 108t-59 263l69 567q6 27 31 27h123q35 0 31 -35l-70 -568q-10 -76 29 -126t112 -50h86q61 0 120 47q58 47 67 103l73 602q2 27 31 27h123q35 0 31 -35l-111 -901q-6 -27 -31 -27z" />
    <glyph glyph-name="v" unicode="v" horiz-adv-x="911" 
d="M143 963h127q27 0 33 -39l115 -648l276 656q10 31 39 31h127q16 1 24 -11t1 -28l-402 -895q-12 -29 -41 -29h-104q-27 0 -37 37l-180 895q-8 31 22 31z" />
    <glyph glyph-name="w" unicode="w" horiz-adv-x="1402" 
d="M1223 963h127q16 1 23 -11t1 -28l-352 -895q-12 -29 -39 -29h-106q-29 0 -37 37l-123 625l-283 -633q-12 -29 -39 -29h-106q-29 0 -37 37l-133 895q-6 31 24 31h127q29 0 33 -39l80 -645l270 653q10 31 39 31h109q27 0 33 -39l110 -645l240 653q10 31 39 31z" />
    <glyph glyph-name="x" unicode="x" horiz-adv-x="950" 
d="M733 963h139q18 -1 24 -13t-3 -28l-328 -447l217 -442q16 -33 -20 -33h-137q-23 0 -43 39l-136 274l-206 -282q-25 -31 -50 -31h-139q-18 0 -26 12t4 29l331 451l-213 438q-20 33 17 33h139q27 0 43 -39l133 -271l205 279q22 31 49 31z" />
    <glyph glyph-name="y" unicode="y" horiz-adv-x="1064" 
d="M879 963h135q18 -1 23 -13t-3 -28l-704 -1301q-18 -31 -47 -31h-136q-18 0 -24 12t2 29l248 457l-250 842q-10 33 16 33h137q29 0 39 -39l185 -602l331 610q19 31 48 31z" />
    <glyph glyph-name="z" unicode="z" horiz-adv-x="905" 
d="M741 184q37 0 33 -34l-16 -123q-2 -27 -31 -27h-680q-35 0 -31 35l11 88q4 25 12 35l549 620h-445q-35 0 -30 35l14 121q4 16 10 22t21 7h678q36 0 32 -35l-10 -94q-4 -20 -12 -31l-547 -619h442z" />
    <glyph glyph-name="braceleft" unicode="{" horiz-adv-x="860" 
d="M629 41q35 0 30 -35l-16 -123q-2 -27 -29 -26h-114q-154 1 -234 109t-57 280l41 329q4 23 -6 37l-80 113q-14 27 0 45l106 113q20 20 21 37l41 329q23 173 124 277t253 104h114q35 0 31 -35l-14 -122q-6 -27 -31 -27h-74q-195 0 -227 -266l-35 -289q-2 -23 -16 -35
l-105 -113l74 -116q10 -21 10 -39l-35 -289q-16 -129 19 -194t135 -64h74z" />
    <glyph glyph-name="bar" unicode="|" horiz-adv-x="512" 
d="M444 1638q37 0 31 -34l-244 -1987q-2 -27 -28 -27h-123q-35 0 -31 35l244 1987q2 27 29 26h122z" />
    <glyph glyph-name="braceright" unicode="}" horiz-adv-x="860" 
d="M350 1446h-74q-35 0 -30 35l14 123q6 27 31 26h115q152 0 232 -108t58 -281l-41 -330q-2 -20 7 -34l79 -113q12 -27 0 -47l-106 -111q-20 -25 -23 -39l-39 -329q-23 -174 -123 -278q-101 -103 -253 -103h-115q-35 0 -31 34l15 123q2 27 30 27h74q194 0 227 266l35 289
q4 25 14 37l107 110l-70 119q-16 20 -14 37l37 289q16 130 -20 194t-136 64z" />
    <glyph glyph-name="asciitilde" unicode="~" horiz-adv-x="1110" 
d="M981 807l37 -94q10 -23 -17 -49q-115 -72 -237 -74t-215 63q-94 51 -171 45t-171 -67q-23 -10 -37 24l-39 97q-8 25 19 47q114 73 238 75t216 -63q160 -100 340 23q27 12 37 -27z" />
    <glyph glyph-name="exclamdown" unicode="&#xa1;" horiz-adv-x="509" 
d="M201 643h123q35 0 30 -35l-123 -991q-2 -27 -28 -27h-123q-37 0 -31 35l121 991q2 27 31 27zM385 1077q35 0 31 -35l-21 -161q-2 -27 -28 -27h-142q-16 0 -25 10t-7 25l20 162q2 27 31 26h141z" />
    <glyph glyph-name="cent" unicode="&#xa2;" horiz-adv-x="985" 
d="M506 784q-72 0 -134 -56t-71 -134l-29 -234q-8 -76 36 -127t116 -51h53l74 602h-45zM879 641h-125q-33 0 -33 43t-49 76l-68 -547q49 29 96 86q20 20 45 -6l82 -78q27 -29 9 -47q-131 -131 -256 -160l-31 -244q-2 -27 -31 -26h-61q-35 0 -29 35l27 225h-43
q-145 0 -243 112q-97 112 -81 259l29 233q18 147 139 257t266 110h51l29 229q2 27 31 27h61q35 0 31 -35l-29 -240q94 -33 156 -113q61 -81 53 -169q-4 -27 -26 -27z" />
    <glyph glyph-name="sterling" unicode="&#xa3;" horiz-adv-x="1169" 
d="M616 1511h74q170 0 281 -141t90 -340q-2 -23 -29 -22h-123q-37 0 -32 41q16 127 -42 203t-159 75h-74q-104 0 -187 -86t-79 -225q4 -88 31 -195h301q35 0 30 -35l-16 -122q-2 -27 -31 -27h-252q0 -235 -141 -420q82 31 132 27t134 -43q90 -33 162 -28t182 52q16 4 26 -9
t9 -30l-16 -129q-4 -16 -19 -26q-6 -2 -8 -4q-119 -43 -204 -40t-181 48q-111 41 -189 32t-196 -73q-18 -6 -52 42t-28 68q66 119 93 172q73 139 102 295q6 37 4 66h-209q-35 0 -31 35l17 123q2 27 30 26h162q-29 127 -28 213q-6 197 140 337t326 140z" />
    <glyph glyph-name="currency" unicode="&#xa4;" horiz-adv-x="1251" 
d="M451 182h84q82 0 140 58t66 139l27 213q10 80 -30 136t-122 56h-84q-41 0 -79 -16l-97 -88q-27 -41 -32 -96l-27 -213q-6 -47 6 -88l80 -88q27 -13 68 -13zM518 -2h-80q-88 0 -159 41l-66 -62q-20 -18 -41 7l-78 88q-20 25 -2 43l60 51q-53 100 -39 213l26 213
q16 121 92 217l-41 47q-20 25 -2 43l101 86q18 18 41 -6l47 -51q82 41 172 41h80q143 0 237 -105l133 121q21 19 41 -6l78 -86q20 -25 2 -43l-172 -148q10 -61 4 -118l-26 -213q-6 -55 -33 -117l127 -145q23 -27 2 -43l-98 -89q-20 -18 -41 7l-105 114q-117 -100 -260 -100z
" />
    <glyph glyph-name="yen" unicode="&#xa5;" horiz-adv-x="1128" 
d="M1055 602q35 0 30 -35l-14 -112q-6 -27 -31 -27h-417l-11 -94h408q37 0 31 -35l-13 -113q-2 -27 -30 -26h-418l-17 -133q-2 -27 -30 -27h-123q-35 0 -31 35l17 125h-173q-35 0 -30 35l14 112q2 27 29 27h180l12 94h-172q-35 0 -30 35l14 112q2 27 31 27h180l6 51
l-313 807q-10 27 16 27h141q29 0 39 -35l230 -600l383 608q16 27 41 27h141q16 0 24 -10t0 -25l-518 -799l-6 -51h410z" />
    <glyph glyph-name="brokenbar" unicode="&#xa6;" horiz-adv-x="512" 
d="M178 457h123q35 0 31 -35l-82 -662q-2 -27 -31 -26h-123q-34 0 -30 35l81 661q2 27 31 27zM305 1495h123q35 0 31 -35l-82 -661q-2 -27 -31 -27h-123q-34 0 -28 35l79 661q6 27 31 27z" />
    <glyph glyph-name="section" unicode="&#xa7;" horiz-adv-x="1241" 
d="M700 709l-110 22q-121 23 -205 76q-25 -43 -31 -100q-27 -203 199 -246l113 -19q119 -23 206 -80q20 35 27 89q26 217 -199 258zM674 1556h106q168 0 282 -124t89 -310l-6 -39q-2 -27 -29 -26h-125q-35 0 -30 35l4 38q14 109 -44 177t-155 67h-107q-98 0 -169 -66
q-70 -66 -82 -166q-12 -101 34 -155q47 -53 166 -74l113 -20q174 -33 278 -155t82 -308q-14 -115 -86 -207q47 -94 33 -225q-20 -178 -160 -294t-315 -116h-94q-170 0 -288 121t-95 297l6 60q2 27 31 26h125q35 0 30 -35l-6 -59q-8 -102 52 -164t159 -61h94q104 0 186 67
q81 68 94 178t-36 164q-49 55 -166 76l-113 21q-182 33 -282 155t-78 297q16 117 86 213q-47 96 -33 217q19 175 149 285t300 110z" />
    <glyph glyph-name="dieresis" unicode="&#xa8;" horiz-adv-x="1024" 
d="M805 1487h174q35 0 31 -35l-23 -182q-2 -27 -29 -27h-174q-36 0 -30 35l22 182q2 27 29 27zM262 1487h174q37 0 31 -35l-23 -182q-2 -27 -28 -27h-174q-35 0 -31 35l22 182q2 27 29 27z" />
    <glyph glyph-name="copyright" unicode="&#xa9;" horiz-adv-x="1304" 
d="M795 569h110q25 0 21 -37q-18 -133 -91 -196t-184 -64h-51q-108 0 -174 70t-49 201l51 407q16 131 94 197t187 65h51q111 0 171 -68t44 -206q-4 -20 -19 -20h-110q-25 0 -23 28q12 109 -80 109h-45q-47 0 -81 -32t-42 -91l-47 -387q-14 -117 84 -117h45q45 0 78 35t41 98
q1 8 19 8zM524 147h146q125 1 225 95t117 227l67 555q16 133 -57 223q-74 90 -199 90h-145q-125 0 -224 -94t-116 -227l-68 -555q-16 -133 56 -223t198 -91zM682 1511h166q184 -1 301 -151t92 -352l-65 -539q-25 -203 -175 -349t-333 -147h-166q-184 0 -301 151t-92 353
l65 539q27 203 175 349q149 146 333 146z" />
    <glyph glyph-name="ordfeminine" unicode="&#xaa;" horiz-adv-x="653" 
d="M350 1067h33q76 0 127 41l10 72h-147q-88 0 -94 -66q-4 -27 14 -37t57 -10zM520 963q-18 0 -22 28q-57 -29 -121 -28h-31q-80 0 -131 45t-42 120q9 76 63 116t141 40h155v2q12 96 -75 96h-43q-70 0 -129 -51q-23 -10 -31 10l-31 45q-10 20 -4 31q86 70 205 70h49
q80 1 126 -61t36 -150l-35 -281l-4 -28q0 -2 2 -4h-78z" />
    <glyph glyph-name="guillemotleft" unicode="&#xab;" horiz-adv-x="1202" 
d="M670 627l420 266q14 8 26 0t10 -25l-20 -166q-2 -20 -37 -43l-223 -133l180 -137q39 -25 37 -47l-21 -166q-4 -20 -20 -16q-8 2 -14 8l-355 266q-31 23 -26 47l12 99q2 24 31 47zM145 627l422 266q15 8 27 0t8 -25l-20 -166q-2 -23 -37 -43l-223 -133l182 -137
q37 -27 35 -47l-21 -166q0 -20 -18 -16q-8 2 -15 8l-354 266q-31 23 -29 47l13 99q1 22 30 47z" />
    <glyph glyph-name="logicalnot" unicode="&#xac;" horiz-adv-x="1052" 
d="M168 723h745q37 0 33 -35l-51 -403q-2 -27 -29 -27h-123q-35 0 -30 35l28 246h-585q-35 0 -31 34l14 123q2 27 29 27z" />
    <glyph glyph-name="softhyphen" unicode="&#xad;" horiz-adv-x="888" 
d="M702 426h-540q-35 0 -31 35l14 123q2 27 31 26h541q14 0 23 -10t8 -25l-17 -122q-2 -27 -29 -27z" />
    <glyph glyph-name="registered" unicode="&#xae;" horiz-adv-x="1312" 
d="M692 797q57 -1 86 33t38 105t-9 95t-76 25h-117l-30 -258h108zM848 293h-74q-16 0 -26 13t-9 32l23 170q10 78 -7 110t-69 33h-119l-39 -321q-2 -37 -34 -37h-76q-39 0 -35 45l100 803q6 59 66 59h201q111 0 168 -74q56 -74 42 -204t-114 -209q74 -72 59 -203l-22 -180
q-2 -37 -35 -37zM528 147h146q125 1 225 95t117 227l67 555q16 133 -57 223q-74 90 -199 90h-145q-125 0 -224 -94t-116 -227l-68 -555q-16 -133 56 -223t198 -91zM686 1511h166q184 -1 301 -151t92 -352l-65 -539q-24 -203 -174 -349t-334 -147h-166q-184 0 -301 151
t-92 353l65 539q27 203 175 349q149 146 333 146z" />
    <glyph glyph-name="macron" unicode="&#xaf;" horiz-adv-x="1011" 
d="M934 1303h-664q-35 0 -30 34l14 123q2 27 29 27h663q14 0 24 -10t7 -25l-14 -123q-2 -26 -29 -26z" />
    <glyph glyph-name="degree" unicode="&#xb0;" horiz-adv-x="923" 
d="M571 1329h-20q-66 0 -107 -41t-51 -123q-16 -137 113 -137h20q136 0 156 162q16 139 -111 139zM555 1487h31q126 0 196 -86t54 -217l-2 -23q-16 -133 -102 -214t-214 -81h-31q-129 0 -197 85t-52 218l4 23q16 133 100 214t213 81z" />
    <glyph glyph-name="plusminus" unicode="&#xb1;" horiz-adv-x="1052" 
d="M104 184h748q33 0 29 -34l-17 -123q-2 -27 -30 -27h-746q-35 0 -31 35l17 123q1 26 30 26zM924 774q33 0 28 -35l-16 -123q-2 -27 -29 -26h-282l-35 -287q-6 -27 -31 -27h-123q-35 0 -30 35l34 279h-278q-35 0 -31 35l14 123q2 27 31 26h287l35 285q2 27 28 26h123
q35 0 31 -34l-33 -277h277z" />
    <glyph glyph-name="twosuperior" unicode="&#xb2;" horiz-adv-x="655" 
d="M541 852h-344q-35 0 -31 35l6 49q4 33 19 51q16 19 45 45l163 154q8 8 40 34q93 76 41 130q-19 20 -53 20q-35 0 -61 -22q-27 -22 -30 -55q-4 -34 -31 -33h-61q-35 0 -31 34l2 27q9 70 65 118t128 48h51q80 1 125 -63q44 -64 34 -144t-151 -209l-121 -102l201 4
q16 0 25 -10t8 -25l-9 -59q-2 -27 -30 -27z" />
    <glyph glyph-name="threesuperior" unicode="&#xb3;" horiz-adv-x="653" 
d="M303 854h-51q-72 0 -119 52t-39 122l4 27q2 27 29 26h61q35 0 31 -34q-10 -76 57 -76q41 1 70 23t33 55t-14 51t-52 18h-47q-35 0 -30 35l6 45q2 27 30 27h47q35 1 62 25t30 57q6 65 -67 65q-37 0 -64 -22t-30 -55q-4 -34 -31 -33h-61q-35 0 -31 34l4 27q9 68 63 117
t128 49h51q80 0 126 -58q46 -59 36 -131t-86 -135q63 -59 54 -132t-65 -126t-135 -53z" />
    <glyph glyph-name="acute" unicode="&#xb4;" horiz-adv-x="583" 
d="M582 1638q18 0 26 -11t-2 -30l-227 -378q-20 -33 -45 -33h-127q-16 0 -24 12q-7 13 3 29l201 379q16 33 43 32h152z" />
    <glyph glyph-name="paragraph" unicode="&#xb6;" horiz-adv-x="1155" 
d="M932 1303h-109l-59 -482h108zM608 1303q-229 0 -260 -248q-16 -127 32 -181t159 -53h41l59 482h-31zM610 1487h494q37 0 31 -35l-174 -1425q-2 -27 -31 -27h-123q-35 0 -31 35l74 602h-109l-73 -610q-6 -27 -31 -27h-123q-35 0 -31 35l74 602h-41q-184 0 -279 118
q-95 119 -71 315t142 306q120 110 302 111z" />
    <glyph glyph-name="periodcentered" unicode="&#xb7;" horiz-adv-x="440" 
d="M326 745q35 0 30 -34l-22 -183q-2 -27 -31 -26h-174q-35 0 -31 35l23 182q6 27 31 26h174z" />
    <glyph glyph-name="cedilla" unicode="&#xb8;" horiz-adv-x="741" 
d="M186 14h129q9 0 15 -8t-2 -19t-18 -24t-9 -23q0 -10 8 -13q29 -11 47 -11q104 -10 148 -47t33 -137q-16 -145 -205 -146h-125q-84 0 -127 49t-35 132q4 12 16 12h117q8 0 16 -7t5 -25q-2 -18 13 -26t52 -8h35q43 0 62 8q19 9 23 31t-16 28q-19 6 -63 12q-45 5 -57 7
q-12 3 -35 5t-47 5t-46 21t-18 66t58 110q16 8 26 8z" />
    <glyph glyph-name="onesuperior" unicode="&#xb9;" horiz-adv-x="618" 
d="M385 1487h66q37 0 30 -35l-69 -571q-2 -27 -31 -27h-66q-34 0 -28 35l69 571q2 27 29 27z" />
    <glyph glyph-name="ordmasculine" unicode="&#xba;" horiz-adv-x="663" 
d="M336 412h-37q-47 0 -81 -34t-42 -81l-8 -74q-4 -47 18 -79t68 -31h37q43 -1 80 35t43 83l10 74q4 47 -21 77t-67 30zM301 524h45q86 0 139 -66t43 -155l-10 -88q-10 -91 -77 -153t-152 -62h-45q-86 0 -140 67q-53 67 -43 156l11 88q10 88 76 151q67 62 153 62z" />
    <glyph glyph-name="guillemotright" unicode="&#xbb;" horiz-adv-x="1202" 
d="M707 887l354 -266q31 -25 29 -50l-13 -98q-2 -27 -30 -45l-420 -266q-14 -10 -27 -2q-12 8 -10 24l20 166q2 20 37 45l225 131l-182 138q-39 29 -35 47l21 166q4 33 31 10zM184 887l355 -266q31 -27 28 -50l-12 -98q-4 -25 -31 -45l-420 -266q-14 -10 -27 -2t-11 24
l20 166q4 23 39 45l223 131l-182 138q-37 29 -35 47l21 166q2 14 12 17t20 -7z" />
    <glyph glyph-name="onequarter" unicode="&#xbc;" horiz-adv-x="1511" 
d="M1194 451l-129 -205h102zM1315 242q35 0 31 -35l-9 -62q-2 -27 -30 -26h-33l-10 -92q-2 -27 -31 -27h-62q-35 0 -30 35l10 84h-219q-33 0 -29 35v59q2 4 4 12t4 13l267 387q6 10 26 10h99q35 0 30 -35l-43 -358h25zM385 1487h66q37 0 30 -35l-69 -571q-2 -27 -31 -27h-66
q-34 0 -28 35l69 571q2 27 29 27zM1190 1487h86q16 0 26 -10t-2 -25l-1001 -1425q-20 -27 -45 -27h-86q-16 0 -25 10q-8 11 2 25l1004 1425q18 27 41 27z" />
    <glyph glyph-name="onehalf" unicode="&#xbd;" horiz-adv-x="1478" 
d="M1260 0h-345q-35 0 -30 35l6 49q6 41 18 53q13 11 25 23l20 20l164 154q8 8 40 34t43 44t14 42t-16 44t-52 20t-61 -21t-31 -56q-4 -34 -31 -33h-61q-35 0 -31 34l2 27q10 70 65 118t127 48h52q80 1 125 -63t35 -144t-152 -209l-121 -102l201 4q37 0 30 -35l-6 -59
q-2 -27 -30 -27zM385 1487h66q37 0 30 -35l-69 -571q-2 -27 -31 -27h-66q-34 0 -28 35l69 571q2 27 29 27zM1190 1487h86q16 0 26 -10t-2 -25l-1001 -1425q-20 -27 -45 -27h-86q-16 0 -25 10q-8 11 2 25l1004 1425q18 27 41 27z" />
    <glyph glyph-name="threequarters" unicode="&#xbe;" horiz-adv-x="1546" 
d="M1229 451l-129 -205h102zM1239 635h98q35 0 31 -35l-43 -358h25q35 0 30 -35l-8 -62q-2 -27 -31 -26h-32l-11 -92q-2 -27 -30 -27h-62q-35 0 -30 35l10 84h-219q-33 0 -29 35v59q8 16 8 25l266 387q4 10 27 10zM1225 1487h86q16 0 25 -10t-1 -25l-1001 -1425
q-20 -27 -45 -27h-86q-16 0 -25 10q-8 11 2 25l1004 1425q18 27 41 27zM389 854h-51q-72 0 -119 52t-39 122l4 27q2 27 29 26h61q35 0 31 -34q-10 -76 57 -76q41 1 70 23t33 55t-14 51t-52 18h-47q-35 0 -30 35l6 45q2 27 30 27h48q36 1 62 25t29 57q6 65 -67 65
q-37 0 -64 -22t-30 -55q-4 -34 -31 -33h-61q-35 0 -31 34l4 27q9 68 63 117t128 49h51q80 0 126 -58q46 -59 36 -131t-86 -135q63 -59 54 -132t-65 -126t-135 -53z" />
    <glyph glyph-name="questiondown" unicode="&#xbf;" horiz-adv-x="1040" 
d="M446 -436h-86q-172 0 -277 123t-83 303t113 262q47 42 88 64t110 51q70 25 95 35q26 10 50 37q24 26 27 65l13 112q6 27 30 27h123q35 0 31 -35l-16 -133q-12 -109 -68 -161t-207 -113q-100 -35 -146 -81q-47 -46 -59 -144t38 -163t153 -65h86q98 0 169 73t83 179l6 39
q2 27 29 27h124q35 0 31 -35l-4 -39q-23 -190 -154 -309t-299 -119zM692 854h-141q-35 0 -31 35l21 162q2 27 30 26h142q34 0 30 -35l-20 -161q-6 -27 -31 -27z" />
    <glyph glyph-name="Agrave" unicode="&#xc0;" horiz-adv-x="1230" 
d="M791 575l-101 570l-244 -570h345zM1044 0h-122q-31 0 -37 37l-62 354h-454l-156 -362q-12 -29 -39 -29h-125q-16 0 -23 10t-1 27l608 1427q12 29 39 29h106q33 0 37 -37l252 -1427q6 -29 -23 -29zM537 2163h141q35 0 39 -41l108 -379q12 -33 -18 -33h-117q-25 0 -39 41
l-133 379q-10 33 19 33z" />
    <glyph glyph-name="Aacute" unicode="&#xc1;" horiz-adv-x="1230" 
d="M791 575l-101 570l-244 -570h345zM1044 0h-122q-31 0 -37 37l-62 354h-454l-156 -362q-12 -29 -39 -29h-125q-16 0 -23 10t-1 27l608 1427q12 29 39 29h106q33 0 37 -37l252 -1427q6 -29 -23 -29zM915 2163h152q19 1 27 -11t-2 -30l-228 -379q-20 -33 -45 -33h-127
q-16 0 -23 12t3 29l200 379q16 33 43 33z" />
    <glyph glyph-name="Acircumflex" unicode="&#xc2;" horiz-adv-x="1230" 
d="M791 575l-101 570l-244 -570h345zM1044 0h-122q-31 0 -37 37l-62 354h-454l-156 -362q-12 -29 -39 -29h-125q-16 0 -23 10t-1 27l608 1427q12 29 39 29h106q33 0 37 -37l252 -1427q6 -29 -23 -29zM1110 1724h-135q-18 0 -43 43l-139 234l-199 -240q-29 -37 -49 -37h-137
q-16 0 -22 14t3 29l305 367q27 29 49 29h121q27 0 45 -37l217 -365q18 -37 -16 -37z" />
    <glyph glyph-name="Atilde" unicode="&#xc3;" horiz-adv-x="1230" 
d="M791 575l-101 570l-244 -570h345zM1044 0h-122q-31 0 -37 37l-62 354h-454l-156 -362q-12 -29 -39 -29h-125q-16 0 -23 10t-1 27l608 1427q12 29 39 29h106q33 0 37 -37l252 -1427q6 -29 -23 -29zM1118 2023l39 -94q8 -25 -18 -49q-115 -72 -203 -74t-182 64
q-94 51 -136 46t-139 -69q-20 -10 -35 25l-38 96q-8 25 18 47q117 72 205 75t180 -62q106 -67 173 -37q34 14 101 59q25 12 35 -27z" />
    <glyph glyph-name="Adieresis" unicode="&#xc4;" horiz-adv-x="1230" 
d="M791 575l-101 570l-244 -570h345zM1044 0h-122q-31 0 -37 37l-62 354h-454l-156 -362q-12 -29 -39 -29h-125q-16 0 -23 10t-1 27l608 1427q12 29 39 29h106q33 0 37 -37l252 -1427q6 -29 -23 -29zM969 2011h174q35 0 31 -35l-23 -182q-2 -27 -29 -27h-174q-37 0 -30 35
l22 183q2 26 29 26zM580 1767h-174q-35 0 -31 35l22 183q2 27 29 26h174q37 0 31 -35l-23 -182q-1 -27 -28 -27z" />
    <glyph glyph-name="Aring" unicode="&#xc5;" horiz-adv-x="1230" 
d="M791 575l-101 570l-244 -570h345zM1044 0h-122q-31 0 -37 37l-62 354h-454l-156 -362q-12 -29 -39 -29h-125q-16 0 -23 10t-1 27l608 1427q12 29 39 29h106q33 0 37 -37l252 -1427q6 -29 -23 -29zM764 1886h12q35 0 60 23t26 55q16 78 -59 78h-12q-33 0 -57 -22t-29 -54
v-10q-10 -70 59 -70zM774 1763h-26q-84 -1 -132 55t-36 138l2 22q10 82 67 134t139 53h27q82 -1 131 -57t39 -138l-2 -22q-9 -82 -67 -134t-142 -51z" />
    <glyph glyph-name="AE" unicode="&#xc6;" horiz-adv-x="1851" 
d="M848 575l67 549l-370 -549h303zM977 1487h829q35 0 31 -35l-14 -123q-6 -27 -31 -26h-672l-57 -461h530q35 0 31 -35l-14 -123q-2 -27 -31 -27h-539l-57 -473h664q35 0 30 -34l-14 -123q-6 -27 -31 -27h-821q-35 0 -31 35l45 356h-405l-246 -364q-16 -27 -43 -27h-135
q-16 0 -24.5 10t-0.5 25l965 1425q16 27 41 27z" />
    <glyph glyph-name="Ccedilla" unicode="&#xc7;" horiz-adv-x="1159" 
d="M649 1509h94q176 0 284 -140t87 -341q-2 -23 -31 -22h-122q-37 0 -31 41q16 125 -39 201.5t-162 76.5h-94q-113 0 -194 -84t-99 -223l-68 -557q-16 -141 40.5 -222t168.5 -81h95q106 0 186 85t94 218q2 20 31 20h123q35 0 30 -39q-25 -190 -157.5 -325t-302.5 -144
q-12 -16 -18 -25q-8 -13 9 -22.5t45 -9.5q104 -10 148.5 -47t32.5 -137q-16 -145 -205 -146h-125q-84 0 -127 49.5t-35 131.5q4 12 17 12h116q8 0 15.5 -7.5t5.5 -25t13 -25.5t52 -8h35q43 0 62.5 8.5t22.5 30.5t-16.5 28.5t-63 11.5t-56 7t-35 4t-45.5 5.5t-42 20.5
t-24.5 55t37.5 96q-156 29 -243.5 165t-67.5 324l70 557q27 209 167 346t322 137z" />
    <glyph glyph-name="Egrave" unicode="&#xc8;" horiz-adv-x="1138" 
d="M883 842q35 0 30 -35l-16 -123q-2 -27 -29 -27h-538l-58 -473h664q35 0 31 -34l-17 -123q-2 -27 -30 -27h-822q-35 0 -30 35l176 1425q2 27 28 27h822q37 0 30 -35l-14 -123q-2 -27 -29 -26h-671l-58 -461h531zM786 1710h-116q-25 0 -39 41l-133 379q-10 33 18 33h141
q35 0 39 -41l109 -379q12 -33 -19 -33z" />
    <glyph glyph-name="Eacute" unicode="&#xc9;" horiz-adv-x="1138" 
d="M883 842q35 0 30 -35l-16 -123q-2 -27 -29 -27h-538l-58 -473h664q35 0 31 -34l-17 -123q-2 -27 -30 -27h-822q-35 0 -30 35l176 1425q2 27 28 27h822q37 0 30 -35l-14 -123q-2 -27 -29 -26h-671l-58 -461h531zM895 2163h152q18 0 26 -11.5t-2 -29.5l-227 -379
q-20 -33 -45 -33h-127q-16 0 -23.5 12.5t2.5 28.5l201 379q16 33 43 33z" />
    <glyph glyph-name="Ecircumflex" unicode="&#xca;" horiz-adv-x="1138" 
d="M883 842q35 0 30 -35l-16 -123q-2 -27 -29 -27h-538l-58 -473h664q35 0 31 -34l-17 -123q-2 -27 -30 -27h-822q-35 0 -30 35l176 1425q2 27 28 27h822q37 0 30 -35l-14 -123q-2 -27 -29 -26h-671l-58 -461h531zM723 2163h121q27 0 45 -37l217 -365q18 -37 -16 -37h-136
q-18 0 -43 43l-139 234l-199 -240q-29 -37 -49 -37h-137q-16 0 -22 14.5t4 28.5l305 367q27 29 49 29z" />
    <glyph glyph-name="Edieresis" unicode="&#xcb;" horiz-adv-x="1138" 
d="M883 842q35 0 30 -35l-16 -123q-2 -27 -29 -27h-538l-58 -473h664q35 0 31 -34l-17 -123q-2 -27 -30 -27h-822q-35 0 -30 35l176 1425q2 27 28 27h822q37 0 30 -35l-14 -123q-2 -27 -29 -26h-671l-58 -461h531zM1122 2011q35 0 31 -35l-23 -182q-2 -27 -28 -27h-174
q-37 0 -31 35l23 183q2 27 28 26h174zM580 2011q37 0 30 -35l-22 -182q-2 -27 -29 -27h-174q-35 0 -31 35l23 183q2 27 29 26h174z" />
    <glyph glyph-name="Igrave" unicode="&#xcc;" horiz-adv-x="538" 
d="M279 1487h124q37 0 31 -35l-174 -1425q-2 -27 -31 -27h-125q-34 0 -30 35l176 1425q2 27 29 27zM426 1710h-117q-25 0 -39 41l-133 379q-10 33 19 33h141q35 0 39 -41l108 -379q12 -33 -18 -33z" />
    <glyph glyph-name="Iacute" unicode="&#xcd;" horiz-adv-x="538" 
d="M279 1487h124q37 0 31 -35l-174 -1425q-2 -27 -31 -27h-125q-34 0 -30 35l176 1425q2 27 29 27zM537 2163h151q18 1 26 -11t-1 -30l-228 -379q-20 -33 -45 -33h-127q-16 0 -23 12t3 29l201 379q16 33 43 33z" />
    <glyph glyph-name="Icircumflex" unicode="&#xce;" horiz-adv-x="538" 
d="M279 1487h124q37 0 31 -35l-174 -1425q-2 -27 -31 -27h-125q-34 0 -30 35l176 1425q2 27 29 27zM362 2163h121q27 0 45 -37l217 -365q18 -37 -16 -37h-135q-18 0 -43 43l-139 234l-199 -240q-29 -37 -49 -37h-137q-15 0 -23 14t4 29l305 367q27 29 49 29z" />
    <glyph glyph-name="Idieresis" unicode="&#xcf;" horiz-adv-x="538" 
d="M279 1487h124q37 0 31 -35l-174 -1425q-2 -27 -31 -27h-125q-34 0 -30 35l176 1425q2 27 29 27zM762 2011q35 0 31 -35l-23 -182q-2 -27 -29 -27h-174q-36 0 -30 35l22 183q2 27 29 26h174zM219 2011q37 0 31 -35l-23 -182q-2 -27 -28 -27h-174q-37 0 -31 35l22 183
q2 27 29 26h174z" />
    <glyph glyph-name="Eth" unicode="&#xd0;" horiz-adv-x="1230" 
d="M778 1303h-332l-55 -449h258q13 0 23 -10t8 -25l-16 -123q-2 -27 -29 -26h-266l-60 -486h324q111 0 193 81t98 220l65 525q18 139 -41 216t-170 77zM311 1487h490q171 1 283 -145t87 -341l-63 -524q-25 -195 -169 -336t-312 -141h-490q-35 0 -31 35l78 635h-90
q-35 0 -31 35l15 122q2 27 31 27h98l76 606q1 27 28 27z" />
    <glyph glyph-name="Ntilde" unicode="&#xd1;" horiz-adv-x="1298" 
d="M1114 1487h123q37 0 31 -35l-174 -1425q-2 -27 -31 -27h-174q-27 0 -33 27l-461 1142l-143 -1142q-2 -27 -31 -27h-123q-35 0 -30 35l176 1425q2 27 28 27h174q27 0 37 -27l461 -1143l141 1143q2 27 29 27zM1153 2023l39 -94q8 -25 -18 -49q-115 -72 -203 -74t-183 64
q-94 51 -135 46t-139 -69q-20 -10 -35 25l-39 96q-8 25 19 47q117 72 205 75t180 -62q106 -66 173 -38q34 14 101 60q25 12 35 -27z" />
    <glyph glyph-name="Ograve" unicode="&#xd2;" horiz-adv-x="1200" 
d="M496 170h100q110 0 190 87t97 214l69 563q16 127 -40 210t-164 83h-101q-109 0 -189 -87t-98 -214l-69 -563q-17 -127 41 -210t164 -83zM662 1511h100q176 0 287 -145t86 -348l-66 -547q-27 -203 -169 -344t-318 -141h-101q-179 0 -289 145t-83 348l67 547
q27 203 168 344q142 141 318 141zM795 1710h-117q-25 0 -39 41l-133 379q-10 33 18 33h142q35 0 39 -41l108 -379q12 -33 -18 -33z" />
    <glyph glyph-name="Oacute" unicode="&#xd3;" horiz-adv-x="1200" 
d="M496 170h100q110 0 190 87t97 214l69 563q16 127 -40 210t-164 83h-101q-109 0 -189 -87t-98 -214l-69 -563q-17 -127 41 -210t164 -83zM662 1511h100q176 0 287 -145t86 -348l-66 -547q-27 -203 -169 -344t-318 -141h-101q-179 0 -289 145t-83 348l67 547
q27 203 168 344q142 141 318 141zM903 2163h152q18 1 26 -11t-2 -30l-227 -379q-20 -33 -45 -33h-127q-16 0 -24 12q-7 13 3 29l201 379q16 33 43 33z" />
    <glyph glyph-name="Ocircumflex" unicode="&#xd4;" horiz-adv-x="1200" 
d="M496 170h100q110 0 190 87t97 214l69 563q16 127 -40 210t-164 83h-101q-109 0 -189 -87t-98 -214l-69 -563q-17 -127 41 -210t164 -83zM662 1511h100q176 0 287 -145t86 -348l-66 -547q-27 -203 -169 -344t-318 -141h-101q-179 0 -289 145t-83 348l67 547
q27 203 168 344q142 141 318 141zM729 2163h121q27 0 45 -37l217 -365q18 -37 -16 -37h-135q-18 0 -43 43l-140 234l-198 -240q-27 -37 -50 -37h-137q-16 0 -22 14t4 29l305 367q27 29 49 29z" />
    <glyph glyph-name="Otilde" unicode="&#xd5;" horiz-adv-x="1200" 
d="M496 170h100q110 0 190 87t97 214l69 563q16 127 -40 210t-164 83h-101q-109 0 -189 -87t-98 -214l-69 -563q-17 -127 41 -210t164 -83zM662 1511h100q176 0 287 -145t86 -348l-66 -547q-27 -203 -169 -344t-318 -141h-101q-179 0 -289 145t-83 348l67 547
q27 203 168 344q142 141 318 141zM1104 2023l39 -94q8 -25 -19 -49q-114 -72 -202 -74t-183 64q-94 51 -135 46t-139 -69q-20 -10 -35 25l-39 96q-8 25 19 47q116 72 204 75t181 -62q106 -67 173 -37q34 14 101 59q25 12 35 -27z" />
    <glyph glyph-name="Odieresis" unicode="&#xd6;" horiz-adv-x="1200" 
d="M496 170h100q110 0 190 87t97 214l69 563q16 127 -40 210t-164 83h-101q-109 0 -189 -87t-98 -214l-69 -563q-17 -127 41 -210t164 -83zM662 1511h100q176 0 287 -145t86 -348l-66 -547q-27 -203 -169 -344t-318 -141h-101q-179 0 -289 145t-83 348l67 547
q27 203 168 344q142 141 318 141zM1130 2011q35 0 31 -35l-22 -182q-2 -27 -29 -27h-174q-37 0 -31 35l23 183q2 27 28 26h174zM588 2011q37 0 30 -35l-22 -182q-2 -27 -29 -27h-174q-35 0 -31 35l23 183q2 27 29 26h174z" />
    <glyph glyph-name="multiply" unicode="&#xd7;" horiz-adv-x="899" 
d="M739 987l78 -86q20 -27 0 -45l-225 -201l178 -202q20 -25 2 -43l-98 -86q-23 -20 -41 6l-178 202l-230 -202q-23 -18 -43 6l-76 86q-25 25 -2 45l230 203l-178 202q-25 25 -2 43l98 86q20 18 41 -6l178 -202l227 202q18 17 41 -8z" />
    <glyph glyph-name="Oslash" unicode="&#xd8;" horiz-adv-x="1200" 
d="M496 170h100q109 0 190 87t97 214l69 563q14 113 -30 195l-564 -1008q55 -51 138 -51zM647 1327q-109 0 -189 -87t-98 -214l-69 -559l481 858l-24 2h-101zM582 -14h-101q-117 0 -215 71l-16 -30q-16 -27 -43 -27h-135q-16 0 -24 10q-7 10 1 25l98 174q-57 121 -38 270
l67 547q27 203 168 344t318 141h100q70 0 131 -24h131q16 0 25 -10q8 -11 0 -25l-29 -51q143 -152 115 -383l-66 -547q-27 -203 -169 -344t-318 -141z" />
    <glyph glyph-name="Ugrave" unicode="&#xd9;" horiz-adv-x="1179" 
d="M1008 1489h122q37 0 31 -35l-123 -1010q-25 -200 -164 -328t-335 -128h-54q-197 0 -307 133t-86 332l125 1009q2 27 29 27h123q37 0 30 -35l-120 -989q-15 -129 39 -211t184 -82h53q129 0 208 86t95 215l121 989q2 27 29 27zM774 1710h-117q-25 0 -39 41l-133 379
q-10 33 19 33h141q35 0 39 -41l109 -379q12 -33 -19 -33z" />
    <glyph glyph-name="Uacute" unicode="&#xda;" horiz-adv-x="1179" 
d="M1008 1489h122q37 0 31 -35l-123 -1010q-25 -200 -164 -328t-335 -128h-54q-197 0 -307 133t-86 332l125 1009q2 27 29 27h123q37 0 30 -35l-120 -989q-15 -129 39 -211t184 -82h53q129 0 208 86t95 215l121 989q2 27 29 27zM883 2163h151q18 1 26 -11t-1 -30l-228 -379
q-20 -33 -45 -33h-127q-16 0 -23 12t3 29l201 379q16 33 43 33z" />
    <glyph glyph-name="Ucircumflex" unicode="&#xdb;" horiz-adv-x="1179" 
d="M1008 1489h122q37 0 31 -35l-123 -1010q-25 -200 -164 -328t-335 -128h-54q-197 0 -307 133t-86 332l125 1009q2 27 29 27h123q37 0 30 -35l-120 -989q-15 -129 39 -211t184 -82h53q129 0 208 86t95 215l121 989q2 27 29 27zM711 2163h120q27 0 46 -37l217 -365
q18 -37 -17 -37h-135q-18 0 -43 43l-139 234l-199 -240q-29 -37 -49 -37h-137q-17 0 -23 14t4 29l306 367q27 29 49 29z" />
    <glyph glyph-name="Udieresis" unicode="&#xdc;" horiz-adv-x="1179" 
d="M1008 1489h122q37 0 31 -35l-123 -1010q-25 -200 -164 -328t-335 -128h-54q-197 0 -307 133t-86 332l125 1009q2 27 29 27h123q37 0 30 -35l-120 -989q-15 -129 39 -211t184 -82h53q129 0 208 86t95 215l121 989q2 27 29 27zM1110 2011q35 0 31 -35l-23 -182
q-2 -27 -28 -27h-175q-36 0 -30 35l22 183q2 27 29 26h174zM567 2011q37 0 31 -35l-23 -182q-2 -27 -28 -27h-174q-35 0 -31 35l23 183q2 27 28 26h174z" />
    <glyph glyph-name="Yacute" unicode="&#xdd;" horiz-adv-x="1128" 
d="M1004 1487h141q16 0 24 -10t0 -25l-518 -799l-78 -626q-2 -27 -30 -27h-123q-35 0 -31 35l78 618l-313 807q-10 27 16 27h141q29 0 39 -35l230 -600l383 608q16 27 41 27zM848 2163h151q19 1 27 -11t-2 -30l-227 -379q-20 -33 -45 -33h-127q-16 0 -24 12q-7 13 3 29
l201 379q16 33 43 33z" />
    <glyph glyph-name="Thorn" unicode="&#xde;" horiz-adv-x="1153" 
d="M698 985h-329l-60 -481h322q229 0 260 250q14 127 -34 179t-159 52zM723 1169q184 -1 278 -117q95 -116 71 -313t-144 -309t-301 -111h-340l-35 -292q-2 -27 -31 -27h-123q-35 0 -30 35l176 1425q2 27 28 27h123q37 0 31 -35l-35 -283h332z" />
    <glyph glyph-name="germandbls" unicode="&#xdf;" horiz-adv-x="1067" 
d="M463 0h-43q-35 0 -31 35l17 123q2 27 30 26h43q109 0 189 52t92 155l10 86q12 109 -49 169t-160 61h-53q-35 0 -31 34l15 123q2 27 30 27h53q88 0 143 53q54 53 64 133l9 74q23 164 -150 164h-70q-166 0 -188 -168l-139 -1120q-2 -27 -31 -27h-123q-35 0 -31 35l140 1141
q16 145 124 234t263 89h69q152 0 246 -97t76 -239l-10 -84q-13 -91 -63 -167t-138 -113q217 -98 184 -361l-8 -65q-20 -165 -160 -269t-319 -104z" />
    <glyph glyph-name="agrave" unicode="&#xe0;" horiz-adv-x="942" 
d="M322 182h104q106 2 197 97l16 135h-281q-55 0 -91 -31t-43 -82t22 -85t76 -34zM772 0h-145q-16 0 -27 15q-10 15 -6 38l2 23q-102 -78 -199 -78h-96q-113 -2 -193 89t-64 217q14 126 108 204t225 78h282l5 37q10 81 -24 121t-101 40h-99q-100 0 -182 -65q-23 -16 -45 8
l-59 84q-23 25 -4 43q125 113 321 113h96q127 -1 212 -103t67 -258l-68 -555q-2 -11 2 -31t-8 -20zM475 1638q35 0 39 -41l109 -378q12 -33 -19 -33h-117q-24 0 -38 41l-134 379q-10 33 19 32h141z" />
    <glyph glyph-name="aacute" unicode="&#xe1;" horiz-adv-x="942" 
d="M322 182h104q106 2 197 97l16 135h-281q-55 0 -91 -31t-43 -82t22 -85t76 -34zM471 967h96q127 -1 212 -103t67 -258l-68 -555q-2 -11 2 -31t-8 -20h-145q-16 0 -27 15q-10 15 -6 38l2 23q-102 -78 -199 -78h-96q-113 -2 -193 89t-64 217q14 126 108 204t225 78h282l5 37
q10 81 -24 121t-101 40h-99q-100 0 -182 -65q-23 -16 -45 8l-59 84q-23 25 -4 43q124 113 321 113zM713 1638h151q18 0 26 -11t-1 -30l-227 -378q-20 -33 -46 -33h-127q-16 0 -23 12t3 29l201 379q16 32 43 32z" />
    <glyph glyph-name="acircumflex" unicode="&#xe2;" horiz-adv-x="942" 
d="M322 182h104q106 2 197 97l16 135h-281q-55 0 -91 -31t-43 -82t22 -85t76 -34zM471 967h96q127 -1 212 -103t67 -258l-68 -555q-2 -11 2 -31t-8 -20h-145q-16 0 -27 15q-10 15 -6 38l2 23q-102 -78 -199 -78h-96q-113 -2 -193 89t-64 217q14 126 108 204t225 78h282l5 37
q10 81 -24 121t-101 40h-99q-100 0 -182 -65q-23 -16 -45 8l-59 84q-23 25 -4 43q124 113 321 113zM905 1200h-135q-18 0 -43 43l-139 234l-199 -240q-29 -37 -49 -37h-137q-16 0 -23 14q-6 14 4 29l305 367q27 29 50 28h120q28 1 46 -36l217 -365q18 -37 -17 -37z" />
    <glyph glyph-name="atilde" unicode="&#xe3;" horiz-adv-x="942" 
d="M322 182h104q106 2 197 97l16 135h-281q-55 0 -91 -31t-43 -82t22 -85t76 -34zM471 967h96q127 -1 212 -103t67 -258l-68 -555q-2 -11 2 -31t-8 -20h-145q-16 0 -27 15q-10 15 -6 38l2 23q-102 -78 -199 -78h-96q-113 -2 -193 89t-64 217q14 126 108 204t225 78h282l5 37
q10 81 -24 121t-101 40h-99q-100 0 -182 -65q-23 -16 -45 8l-59 84q-23 25 -4 43q124 113 321 113zM913 1499l39 -94q8 -25 -18 -49q-115 -72 -203 -74t-182 64q-94 51 -135 46t-140 -69q-20 -10 -34 25l-39 96q-8 25 18 47q117 72 205 75t180 -63q104 -65 173 -37
q34 14 102 60q24 12 34 -27z" />
    <glyph glyph-name="adieresis" unicode="&#xe4;" horiz-adv-x="942" 
d="M322 182h104q106 2 197 97l16 135h-281q-55 0 -91 -31t-43 -82t22 -85t76 -34zM471 967h96q127 -1 212 -103t67 -258l-68 -555q-2 -11 2 -31t-8 -20h-145q-16 0 -27 15q-10 15 -6 38l2 23q-102 -78 -199 -78h-96q-113 -2 -193 89t-64 217q14 126 108 204t225 78h282l5 37
q10 81 -24 121t-101 40h-99q-100 0 -182 -65q-23 -16 -45 8l-59 84q-23 25 -4 43q124 113 321 113zM764 1487h174q35 0 31 -35l-23 -182q-2 -27 -28 -27h-175q-37 0 -30 35l22 182q2 27 29 27zM375 1243h-174q-35 0 -31 35l23 182q2 27 28 27h174q37 0 31 -35l-23 -182
q-1 -27 -28 -27z" />
    <glyph glyph-name="aring" unicode="&#xe5;" horiz-adv-x="942" 
d="M322 182h104q106 2 197 97l16 135h-281q-55 0 -91 -31t-43 -82t22 -85t76 -34zM772 0h-145q-16 0 -27 15q-10 15 -6 38l2 23q-102 -78 -199 -78h-96q-113 -2 -193 89t-64 217q14 126 108 204t225 78h282l5 37q10 81 -24 121t-101 40h-99q-100 0 -182 -65q-23 -16 -45 8
l-59 84q-23 25 -4 43q125 113 321 113h96q127 -1 212 -103t67 -258l-68 -555q-2 -11 2 -31t-8 -20zM561 1362h12q35 0 60 22t26 56l3 10q10 68 -62 68h-12q-34 0 -58 -22t-28 -54v-10q-10 -70 59 -70zM571 1239h-26q-84 0 -131 55t-37 138l2 22q10 82 67 134t140 52h26
q82 0 131 -56t39 -138l-2 -23q-10 -82 -68 -133t-141 -51z" />
    <glyph glyph-name="ae" unicode="&#xe6;" horiz-adv-x="1542" 
d="M319 182h87q115 2 206 94l19 125h-275q-53 0 -88 -30.5t-41 -79.5t21.5 -79t70.5 -30zM1124 784h-77q-68 0 -131.5 -54t-71.5 -124l-2 -20h420l4 28q8 74 -37 122t-105 48zM1063 969h78q129 0 227 -109.5t80 -263.5l-14 -113q-6 -57 -64 -57h-547l-12 -92q2 -68 46 -110
t110 -42h82q90 0 194 117q23 20 45 -6l82 -78q20 -25 8 -47q-80 -80 -159.5 -125t-188.5 -45h-78q-154 0 -252 123q-139 -123 -288 -123h-109q-113 -2 -193.5 87t-65.5 213t108.5 200.5t222.5 76.5h276l6 39q8 78 -25.5 123t-99.5 45h-77q-117 0 -195 -67q-29 -12 -43 12
l-59 84q-16 25 -4 45q131 111 335 111h74q139 0 223 -117q125 119 277 119z" />
    <glyph glyph-name="ccedilla" unicode="&#xe7;" horiz-adv-x="985" 
d="M522 969h74q125 0 222 -94.5t87 -206.5q-4 -27 -26 -27h-125q-33 0 -33 41t-41 71.5t-98 30.5h-76q-72 0 -134.5 -56t-70.5 -134l-29 -234q-8 -76 36 -127t116 -51h82q92 0 194 117q20 20 45 -6l82 -78q27 -29 9 -47q-164 -164 -332 -170q0 -6 -7 -14t-15.5 -19.5
t-9.5 -18.5t-1 -11.5t19 -11.5t36 -7q104 -10 148.5 -47t32.5 -137q-16 -145 -205 -146h-125q-84 0 -127 49.5t-35 131.5q2 12 16 12h117q8 0 15.5 -7.5t5.5 -25t13 -25.5t52 -8h35q43 0 62.5 8.5t22.5 30.5t-16.5 28.5t-63 11.5t-56 7t-35.5 4t-46.5 5.5t-46 21.5
t-18.5 65.5t58 110.5l4 2q-119 29 -189.5 131.5t-56.5 229.5l29 233q18 147 139 257t266 110z" />
    <glyph glyph-name="egrave" unicode="&#xe8;" horiz-adv-x="1001" 
d="M584 784h-78q-70 0 -132.5 -54t-70.5 -124l-4 -20h422l4 28q8 74 -37 122t-104 48zM522 969h78q129 0 227.5 -109.5t79.5 -263.5l-14 -113q-6 -57 -64 -57h-548l-9 -66q-8 -78 37 -128t117 -50h82q90 0 194 117q23 20 46 -6l81 -78q20 -25 9 -47q-80 -80 -160 -125
t-189 -45h-77q-145 0 -242.5 111.5t-81.5 259.5l29 233q18 147 139 257t266 110zM631 1186h-117q-25 0 -39 41l-133 379q-10 33 18 32h142q35 0 39 -41l108 -378q12 -33 -18 -33z" />
    <glyph glyph-name="eacute" unicode="&#xe9;" horiz-adv-x="1001" 
d="M584 784h-78q-70 0 -132.5 -54t-70.5 -124l-4 -20h422l4 28q8 74 -37 122t-104 48zM522 969h78q129 0 227.5 -109.5t79.5 -263.5l-14 -113q-6 -57 -64 -57h-548l-9 -66q-8 -78 37 -128t117 -50h82q90 0 194 117q23 20 46 -6l81 -78q20 -25 9 -47q-80 -80 -160 -125
t-189 -45h-77q-145 0 -242.5 111.5t-81.5 259.5l29 233q18 147 139 257t266 110zM891 1638q18 0 26.5 -11t-2.5 -30l-227 -378q-20 -33 -45 -33h-127q-16 0 -23 12.5t3 28.5l200 379q16 33 43 32h152z" />
    <glyph glyph-name="ecircumflex" unicode="&#xea;" horiz-adv-x="1001" 
d="M584 784h-78q-70 0 -132.5 -54t-70.5 -124l-4 -20h422l4 28q8 74 -37 122t-104 48zM522 969h78q129 0 227.5 -109.5t79.5 -263.5l-14 -113q-6 -57 -64 -57h-548l-9 -66q-8 -78 37 -128t117 -50h82q90 0 194 117q23 20 46 -6l81 -78q20 -25 9 -47q-80 -80 -160 -125
t-189 -45h-77q-145 0 -242.5 111.5t-81.5 259.5l29 233q18 147 139 257t266 110zM688 1638q27 0 45 -36l217 -365q18 -37 -16 -37h-135q-18 0 -43 43l-140 234l-198 -240q-29 -37 -49 -37h-138q-16 0 -22 14.5t4 28.5l305 367q27 29 49 28h121z" />
    <glyph glyph-name="edieresis" unicode="&#xeb;" horiz-adv-x="1001" 
d="M584 784h-78q-70 0 -132.5 -54t-70.5 -124l-4 -20h422l4 28q8 74 -37 122t-104 48zM522 969h78q129 0 227.5 -109.5t79.5 -263.5l-14 -113q-6 -57 -64 -57h-548l-9 -66q-8 -78 37 -128t117 -50h82q90 0 194 117q23 20 46 -6l81 -78q20 -25 9 -47q-80 -80 -160 -125
t-189 -45h-77q-145 0 -242.5 111.5t-81.5 259.5l29 233q18 147 139 257t266 110zM793 1487h174q35 0 30 -35l-22 -182q-2 -27 -29 -27h-174q-37 0 -31 35l23 182q2 27 29 27zM250 1487h174q37 0 31 -35l-23 -182q-2 -27 -29 -27h-174q-34 0 -30 35l22 182q2 27 29 27z" />
    <glyph glyph-name="igrave" unicode="&#xec;" horiz-adv-x="512" 
d="M240 965h122q35 0 31 -35l-110 -903q-2 -27 -31 -27h-123q-35 0 -31 35l113 903q2 27 29 27zM387 1186h-117q-25 0 -39 41l-133 379q-10 33 19 32h141q35 0 39 -41l109 -378q12 -33 -19 -33z" />
    <glyph glyph-name="iacute" unicode="&#xed;" horiz-adv-x="512" 
d="M240 965h122q35 0 31 -35l-110 -903q-2 -27 -31 -27h-123q-35 0 -31 35l113 903q2 27 29 27zM647 1638q19 0 27 -11t-2 -30l-228 -378q-20 -33 -45 -33h-127q-16 0 -23 12t3 29l201 379q16 33 43 32h151z" />
    <glyph glyph-name="icircumflex" unicode="&#xee;" horiz-adv-x="512" 
d="M240 965h122q35 0 31 -35l-110 -903q-2 -27 -31 -27h-123q-35 0 -31 35l113 903q2 27 29 27zM442 1638q27 0 45 -36l218 -365q18 -37 -17 -37h-135q-18 0 -43 43l-139 234l-199 -240q-29 -37 -49 -37h-139q-16 0 -23 14q-6 15 6 29l305 367q27 29 50 28h120z" />
    <glyph glyph-name="idieresis" unicode="&#xef;" horiz-adv-x="512" 
d="M240 965h122q35 0 31 -35l-110 -903q-2 -27 -31 -27h-123q-35 0 -31 35l113 903q2 27 29 27zM549 1487h174q35 0 31 -35l-23 -182q-2 -27 -29 -27h-174q-36 0 -30 35l22 182q2 27 29 27zM6 1487h174q37 0 31 -35l-23 -182q-2 -27 -28 -27h-174q-37 0 -31 35l22 182
q2 27 29 27z" />
    <glyph glyph-name="eth" unicode="&#xf0;" horiz-adv-x="1112" 
d="M453 164h73q214 0 267 260q41 178 -11 238t-213 63q-160 2 -217 -72q-56 -74 -76 -224q-20 -149 25 -207t152 -58zM944 1487h148q18 0 26 -12t-4 -27l-117 -131q49 -96 45 -230q-4 -346 -73 -681q-43 -201 -161 -314t-276 -112h-104q-172 0 -268 116t-72 352
q49 470 460 470q208 0 304 -76q16 76 10 295l-2 26l-43 -49q-29 -33 -51 -33h-148q-18 1 -26 13t4 28l174 193q-41 14 -115 14h-49q-35 0 -31 35l15 123q6 27 31 26h49q127 0 219 -65q29 39 55 39z" />
    <glyph glyph-name="ntilde" unicode="&#xf1;" horiz-adv-x="1046" 
d="M553 963h88q150 0 227.5 -110t59.5 -261l-70 -565q-2 -27 -31 -27h-122q-35 0 -31 35l69 565q10 74 -28.5 126t-110.5 52h-88q-61 0 -119.5 -46t-66.5 -103l-74 -602q-2 -27 -31 -27h-123q-35 0 -30 35l110 901q6 27 31 27h123q35 0 31 -35l-7 -41q84 76 193 76z
M969 1499l39 -94q8 -25 -19 -49q-115 -72 -203 -74t-182 64q-94 51 -135 45.5t-139 -68.5q-20 -10 -35 25l-39 96q-8 25 18 47q117 72 205 75t180 -63q105 -67 173 -37q34 14 102 60q25 12 35 -27z" />
    <glyph glyph-name="ograve" unicode="&#xf2;" horiz-adv-x="1052" 
d="M590 784h-84q-82 0 -140 -60t-69 -140l-27 -213q-10 -80 31 -134t123 -55h84q82 0 140 58t67 139l26 213q10 80 -29 136q-40 56 -122 56zM522 969h80q152 0 247 -115t77 -270l-27 -213q-18 -153 -137 -263t-270 -110h-80q-154 0 -249 113t-77 268l27 213q19 156 137 266
t272 111zM649 1186h-117q-25 0 -38 41l-134 379q-10 33 19 32h141q35 0 39 -41l109 -378q12 -33 -19 -33z" />
    <glyph glyph-name="oacute" unicode="&#xf3;" horiz-adv-x="1052" 
d="M590 784h-84q-82 0 -140 -60t-69 -140l-27 -213q-10 -80 31 -134t123 -55h84q82 0 140 58t67 139l26 213q10 80 -29 136q-40 56 -122 56zM522 969h80q152 0 247 -115t77 -270l-27 -213q-18 -153 -137 -263t-270 -110h-80q-154 0 -249 113t-77 268l27 213q19 156 137 266
t272 111zM909 1638q19 0 27 -11t-2 -30l-227 -378q-20 -33 -45 -33h-127q-16 0 -24 12q-7 13 3 29l201 379q16 33 43 32h151z" />
    <glyph glyph-name="ocircumflex" unicode="&#xf4;" horiz-adv-x="1052" 
d="M590 784h-84q-82 0 -140 -60t-69 -140l-27 -213q-10 -80 31 -134t123 -55h84q82 0 140 58t67 139l26 213q10 80 -29 136q-40 56 -122 56zM522 969h80q152 0 247 -115t77 -270l-27 -213q-18 -153 -137 -263t-270 -110h-80q-154 0 -249 113t-77 268l27 213q19 156 137 266
t272 111zM705 1638q27 0 45 -36l217 -365q18 -37 -17 -37h-135q-18 0 -43 43l-139 234l-199 -240q-29 -37 -49 -37h-137q-16 0 -23 14q-6 15 4 29l306 367q27 29 49 28h121z" />
    <glyph glyph-name="otilde" unicode="&#xf5;" horiz-adv-x="1052" 
d="M590 784h-84q-82 0 -140 -60t-69 -140l-27 -213q-10 -80 31 -134t123 -55h84q82 0 140 58t67 139l26 213q10 80 -29 136q-40 56 -122 56zM522 969h80q152 0 247 -115t77 -270l-27 -213q-18 -153 -137 -263t-270 -110h-80q-154 0 -249 113t-77 268l27 213q19 156 137 266
t272 111zM958 1499l39 -94q8 -25 -18 -49q-115 -72 -203 -74t-182 64q-94 51 -135 46t-140 -69q-20 -10 -34 25l-39 96q-8 25 18 47q117 72 205 75t180 -63q105 -66 173 -37q34 14 102 60q24 12 34 -27z" />
    <glyph glyph-name="odieresis" unicode="&#xf6;" horiz-adv-x="1052" 
d="M590 784h-84q-82 0 -140 -60t-69 -140l-27 -213q-10 -80 31 -134t123 -55h84q82 0 140 58t67 139l26 213q10 80 -29 136q-40 56 -122 56zM522 969h80q152 0 247 -115t77 -270l-27 -213q-18 -153 -137 -263t-270 -110h-80q-154 0 -249 113t-77 268l27 213q19 156 137 266
t272 111zM811 1487h174q35 0 31 -35l-23 -182q-2 -27 -28 -27h-174q-37 0 -31 35l22 182q2 27 29 27zM268 1487h174q37 0 31 -35l-22 -182q-2 -27 -29 -27h-174q-35 0 -31 35l23 182q2 27 28 27z" />
    <glyph glyph-name="divide" unicode="&#xf7;" horiz-adv-x="1052" 
d="M430 430h154q35 0 30 -35l-18 -162q-6 -27 -31 -26h-153q-35 0 -31 35l20 161q2 27 29 27zM172 754h748q35 0 30 -35l-16 -123q-2 -27 -31 -27h-745q-35 0 -29 35l14 123q2 27 29 27zM668 1116q35 0 30 -35l-18 -161q-2 -27 -31 -27h-153q-35 0 -31 35l20 162q2 27 29 26
h154z" />
    <glyph glyph-name="oslash" unicode="&#xf8;" horiz-adv-x="1052" 
d="M508 182q82 0 140 58t67 139l26 213q6 61 -10 100l-287 -510h64zM506 784q-82 0 -140 -60t-69 -140l-27 -213q-6 -61 15 -107l293 520h-72zM492 -2h-80q-43 0 -74 8q-10 -6 -25 -6h-135q-16 0 -22 10t0 25l28 53q-121 115 -98 291l27 213q20 156 138 266t271 111h80
q37 0 78 -11q8 6 25 7h135q16 -1 23 -11t1 -24l-33 -58q113 -117 95 -288l-27 -213q-18 -153 -137 -263t-270 -110z" />
    <glyph glyph-name="ugrave" unicode="&#xf9;" horiz-adv-x="1067" 
d="M825 0h-123q-35 0 -30 35l6 41q-82 -78 -193 -78h-84q-153 0 -231 108t-59 263l69 567q6 27 31 27h123q35 0 31 -35l-70 -568q-10 -76 29 -126t112 -50h86q61 0 120 47q58 47 67 103l73 602q2 27 31 27h123q35 0 31 -35l-111 -901q-6 -27 -31 -27zM664 1186h-117
q-25 0 -39 41l-133 379q-10 33 18 32h142q34 0 38 -41l109 -378q12 -33 -18 -33z" />
    <glyph glyph-name="uacute" unicode="&#xfa;" horiz-adv-x="1067" 
d="M825 0h-123q-35 0 -30 35l6 41q-82 -78 -193 -78h-84q-153 0 -231 108t-59 263l69 567q6 27 31 27h123q35 0 31 -35l-70 -568q-10 -76 29 -126t112 -50h86q61 0 120 47q58 47 67 103l73 602q2 27 31 27h123q35 0 31 -35l-111 -901q-6 -27 -31 -27zM924 1638q18 0 26 -11
t-2 -30l-227 -378q-20 -33 -45 -33h-127q-16 0 -24 12q-7 13 3 29l201 379q16 33 43 32h152z" />
    <glyph glyph-name="ucircumflex" unicode="&#xfb;" horiz-adv-x="1067" 
d="M825 0h-123q-35 0 -30 35l6 41q-82 -78 -193 -78h-84q-153 0 -231 108t-59 263l69 567q6 27 31 27h123q35 0 31 -35l-70 -568q-10 -76 29 -126t112 -50h86q61 0 120 47q58 47 67 103l73 602q2 27 31 27h123q35 0 31 -35l-111 -901q-6 -27 -31 -27zM721 1638q27 0 45 -36
l217 -365q18 -37 -16 -37h-136q-18 0 -43 43l-139 234l-198 -240q-29 -37 -50 -37h-137q-16 0 -22 14t4 29l305 367q27 29 49 28h121z" />
    <glyph glyph-name="udieresis" unicode="&#xfc;" horiz-adv-x="1067" 
d="M825 0h-123q-35 0 -30 35l6 41q-82 -78 -193 -78h-84q-153 0 -231 108t-59 263l69 567q6 27 31 27h123q35 0 31 -35l-70 -568q-10 -76 29 -126t112 -50h86q61 0 120 47q58 47 67 103l73 602q2 27 31 27h123q35 0 31 -35l-111 -901q-6 -27 -31 -27zM825 1487h174
q35 0 31 -35l-22 -182q-2 -27 -29 -27h-174q-37 0 -31 35l23 182q2 27 28 27zM283 1487h174q37 0 30 -35l-22 -182q-2 -27 -29 -27h-174q-35 0 -31 35l23 182q2 27 29 27z" />
    <glyph glyph-name="yacute" unicode="&#xfd;" horiz-adv-x="1064" 
d="M879 963h135q18 -1 23 -13t-3 -28l-704 -1301q-18 -31 -47 -31h-136q-18 0 -24 12t2 29l248 457l-250 842q-10 33 16 33h137q29 0 39 -39l185 -602l331 610q19 31 48 31zM676 1186h-127q-16 0 -24 12q-7 12 3 29l201 379q16 33 43 32h152q18 0 26 -11t-2 -30l-227 -378
q-20 -33 -45 -33z" />
    <glyph glyph-name="thorn" unicode="&#xfe;" horiz-adv-x="1038" 
d="M602 778h-82q-68 0 -122 -45t-62 -106l-45 -365q45 -78 149 -78h82q72 0 124 48t59 118l30 250q20 178 -133 178zM535 963h81q150 0 236 -111t68 -260l-31 -250q-18 -142 -131 -242t-252 -100h-82q-80 0 -160 45l-53 -428q-2 -27 -29 -27h-123q-35 0 -30 35l129 1053v4
l96 778q2 27 29 27h123q37 0 30 -35l-65 -530q88 41 164 41z" />
    <glyph glyph-name="ydieresis" unicode="&#xff;" horiz-adv-x="1064" 
d="M879 963h135q18 -1 23 -13t-3 -28l-704 -1301q-18 -31 -47 -31h-136q-18 0 -24 12t2 29l248 457l-250 842q-10 33 16 33h137q29 0 39 -39l185 -602l331 610q19 31 48 31zM979 1243h-174q-37 0 -31 35l23 182q2 27 28 27h174q35 0 31 -35l-22 -182q-2 -27 -29 -27z
M436 1243h-174q-35 0 -31 35l23 182q2 27 29 27h174q37 0 30 -35l-22 -182q-2 -27 -29 -27z" />
    <glyph glyph-name="Amacron" unicode="&#x100;" horiz-adv-x="1230" 
d="M791 575l-101 570l-244 -570h345zM1044 0h-122q-31 0 -37 37l-62 354h-454l-156 -362q-12 -29 -39 -29h-125q-16 0 -23 10t-1 27l608 1427q12 29 39 29h106q33 0 37 -37l252 -1427q6 -29 -23 -29zM453 2011h663q14 0 24 -10t7 -25l-14 -123q-2 -27 -29 -26h-664
q-35 0 -30 35l14 123q2 26 29 26z" />
    <glyph glyph-name="amacron" unicode="&#x101;" horiz-adv-x="942" 
d="M322 182h104q106 2 197 97l16 135h-281q-55 0 -91 -31t-43 -82t22 -85t76 -34zM471 967h96q127 -1 212 -103t67 -258l-68 -555q-2 -11 2 -31t-8 -20h-145q-16 0 -27 15q-10 15 -6 38l2 23q-102 -78 -199 -78h-96q-113 -2 -193 89t-64 217q14 126 108 204t225 78h282l5 37
q10 81 -24 121t-101 40h-99q-100 0 -182 -65q-23 -16 -45 8l-59 84q-23 25 -4 43q124 113 321 113zM248 1487h663q13 0 23 -10t8 -25l-14 -123q-2 -27 -29 -26h-663q-35 0 -31 34l14 123q2 27 29 27z" />
    <glyph glyph-name="Abreve" unicode="&#x102;" horiz-adv-x="1230" 
d="M791 575l-101 570l-244 -570h345zM1044 0h-122q-31 0 -37 37l-62 354h-454l-156 -362q-12 -29 -39 -29h-125q-16 0 -23 10t-1 27l608 1427q12 29 39 29h106q33 0 37 -37l252 -1427q6 -29 -23 -29zM1016 2163h102q37 0 31 -39q-23 -144 -109 -226t-221 -81h-100
q-135 0 -206 88t-56 237q2 20 28 21h103q37 0 30 -39q-8 -143 121 -144h82q70 0 112 46t54 116q2 21 29 21z" />
    <glyph glyph-name="abreve" unicode="&#x103;" horiz-adv-x="942" 
d="M322 182h104q106 2 197 97l16 135h-281q-55 0 -91 -31t-43 -82t22 -85t76 -34zM471 967h96q127 -1 212 -103t67 -258l-68 -555q-2 -11 2 -31t-8 -20h-145q-16 0 -27 15q-10 15 -6 38l2 23q-102 -78 -199 -78h-96q-113 -2 -193 89t-64 217q14 126 108 204t225 78h282l5 37
q10 81 -24 121t-101 40h-99q-100 0 -182 -65q-23 -16 -45 8l-59 84q-23 25 -4 43q124 113 321 113zM813 1638h102q37 0 31 -39q-22 -143 -108 -225t-222 -82h-100q-135 0 -206 88t-56 238q2 20 29 20h102q37 0 31 -39q-8 -143 121 -143h81q70 0 112 46t54 116q2 20 29 20z
" />
    <glyph glyph-name="Aogonek" unicode="&#x104;" horiz-adv-x="1230" 
d="M791 575l-101 570l-244 -570h345zM1022 -248q10 0 16 -8t4 -18l-12 -95q0 -16 -18 -16h-262q-100 0 -143 40q-42 41 -34 109t21 98q20 50 77 61q58 12 112 19t80 13q42 10 50 45q-23 6 -28 37l-62 354h-454l-156 -362q-12 -29 -39 -29h-125q-16 0 -23 10t-1 27l608 1427
q12 29 39 29h106q33 0 37 -37l252 -1427q4 -10 0 -17q18 -168 -137 -186q-86 -6 -168 -19q-37 0 -41 -38q-2 -16 16 -17h285z" />
    <glyph glyph-name="aogonek" unicode="&#x105;" horiz-adv-x="942" 
d="M322 182h104q106 2 197 97l16 135h-281q-55 0 -91 -31t-43 -82t22 -85t76 -34zM725 -246q10 0 16 -8t4 -18l-12 -95q0 -16 -18 -16h-262q-100 0 -143 40q-42 40 -31 128q6 49 18 79t42 45t50 19q21 4 71 12t65 9q15 2 41 8q42 10 50 45q-29 10 -22 51l2 23
q-102 -78 -199 -78h-96q-113 -2 -193 89t-64 217q14 126 108 204t225 78h282l5 37q10 81 -24 121t-101 40h-99q-100 0 -182 -65q-23 -16 -45 8l-59 84q-23 25 -4 43q125 113 321 113h96q127 -1 212 -103t67 -258l-68 -555q-2 -11 2 -31t-8 -20q10 -154 -139 -172
q-86 -6 -168 -18q-37 0 -41 -39q-2 -16 16 -17h285z" />
    <glyph glyph-name="Cacute" unicode="&#x106;" horiz-adv-x="1159" 
d="M889 481h123q35 0 30 -39q-27 -197 -166 -333t-313 -136h-94q-182 0 -292.5 143.5t-86.5 352.5l70 557q27 209 167 346t322 137h94q176 0 284 -140t87 -341q-2 -23 -31 -22h-122q-37 0 -31 41q16 125 -39 201.5t-162 76.5h-94q-113 0 -194 -84t-99 -223l-68 -557
q-16 -141 40.5 -222t168.5 -81h95q106 0 186 85t94 218q2 20 31 20zM901 2163h152q18 0 26 -11.5t-2 -29.5l-227 -379q-20 -33 -45 -33h-127q-16 0 -23.5 12.5t2.5 28.5l201 379q16 33 43 33z" />
    <glyph glyph-name="cacute" unicode="&#x107;" horiz-adv-x="985" 
d="M879 641h-125q-33 0 -33 41t-41 71.5t-98 30.5h-76q-72 0 -134.5 -56t-70.5 -134l-29 -234q-8 -76 36 -127t116 -51h82q92 0 194 117q20 20 45 -6l82 -78q27 -29 9 -47q-170 -170 -351 -170h-73q-145 0 -242.5 111.5t-81.5 259.5l29 233q18 147 139 257t266 110h74
q125 0 222 -94.5t87 -206.5q-3 -27 -26 -27zM885 1638q18 0 26.5 -11t-2.5 -30l-227 -378q-20 -33 -45 -33h-127q-16 0 -23.5 12.5t2.5 28.5l201 379q16 33 43 32h152z" />
    <glyph glyph-name="Cdotaccent" unicode="&#x10a;" horiz-adv-x="1159" 
d="M889 481h123q35 0 30 -39q-27 -197 -166 -333t-313 -136h-94q-182 0 -292.5 143.5t-86.5 352.5l70 557q27 209 167 346t322 137h94q176 0 284 -140t87 -341q-2 -23 -31 -22h-122q-37 0 -31 41q16 125 -39 201.5t-162 76.5h-94q-113 0 -194 -84t-99 -223l-68 -557
q-16 -141 40.5 -222t168.5 -81h95q106 0 186 85t94 218q2 20 31 20zM680 2011h182q35 0 31 -37l-23 -186q-2 -29 -30 -29h-183q-36 0 -30 37l22 186q2 29 31 29z" />
    <glyph glyph-name="cdotaccent" unicode="&#x10b;" horiz-adv-x="985" 
d="M879 641h-125q-33 0 -33 41t-41 71.5t-98 30.5h-76q-72 0 -134.5 -56t-70.5 -134l-29 -234q-8 -76 36 -127t116 -51h82q92 0 194 117q20 20 45 -6l82 -78q27 -29 9 -47q-170 -170 -351 -170h-73q-145 0 -242.5 111.5t-81.5 259.5l29 233q18 147 139 257t266 110h74
q125 0 222 -94.5t87 -206.5q-3 -27 -26 -27zM512 1487h182q35 0 31 -37l-23 -186q-2 -29 -30 -29h-183q-36 0 -30 37l22 186q2 29 31 29z" />
    <glyph glyph-name="Ccaron" unicode="&#x10c;" horiz-adv-x="1159" 
d="M889 481h123q35 0 30 -39q-27 -197 -166 -333t-313 -136h-94q-182 0 -292.5 143.5t-86.5 352.5l70 557q27 209 167 346t322 137h94q176 0 284 -140t87 -341q-2 -23 -31 -22h-122q-37 0 -31 41q16 125 -39 201.5t-162 76.5h-94q-113 0 -194 -84t-99 -223l-68 -557
q-16 -141 40.5 -222t168.5 -81h95q106 0 186 85t94 218q2 20 31 20zM440 2163h133q18 0 43 -43l140 -234l198 242q29 35 50 35h137q16 0 24.5 -14.5t-4.5 -28.5l-305 -367q-27 -29 -53 -29h-121q-23 0 -43 35l-215 367q-8 14 -3 25.5t19 11.5z" />
    <glyph glyph-name="ccaron" unicode="&#x10d;" horiz-adv-x="985" 
d="M879 641h-125q-33 0 -33 41t-41 71.5t-98 30.5h-76q-72 0 -134.5 -56t-70.5 -134l-29 -234q-8 -76 36 -127t116 -51h82q92 0 194 117q20 20 45 -6l82 -78q27 -29 9 -47q-170 -170 -351 -170h-73q-145 0 -242.5 111.5t-81.5 259.5l29 233q18 147 139 257t266 110h74
q125 0 222 -94.5t87 -206.5q-3 -27 -26 -27zM272 1638h134q18 0 43 -43l139 -233l198 242q29 35 50 34h137q16 0 24.5 -14t-4.5 -29l-305 -366q-27 -29 -53 -29h-121q-23 0 -43 35l-215 367q-8 14 -3 25t19 11z" />
    <glyph glyph-name="Dcaron" unicode="&#x10e;" horiz-adv-x="1187" 
d="M733 1303h-330l-137 -1119h322q111 0 194 81t99 220l65 525q16 139 -43 216t-170 77zM268 1487h490q170 1 282 -145t88 -341l-63 -524q-25 -195 -169 -336t-312 -141h-490q-35 0 -31 35l177 1425q1 27 28 27zM983 2163h137q16 -1 24 -15t-3 -28l-305 -367
q-27 -29 -54 -29h-120q-23 0 -44 35l-215 367q-8 14 -3 25t20 12h133q18 0 43 -43l139 -234l199 242q29 35 49 35z" />
    <glyph glyph-name="dcaron" unicode="&#x10f;" horiz-adv-x="1402" 
d="M410 184h75q43 0 95 28t84 69l43 352q4 61 -38 103t-104 42h-76q-73 0 -125 -55t-63 -129l-31 -252q-8 -70 31 -114t109 -44zM1153 1487h188q35 0 29 -35l-29 -246q-31 -217 -155 -350q-20 -14 -41 10l-60 60q-25 29 -10 47q57 45 77 97q19 52 28 132l18 17h-72
q-35 0 -30 34l26 207q2 27 31 27zM838 1487h123q35 0 30 -35l-174 -1425q-6 -27 -31 -27h-122q-35 0 -31 35v4q-82 -39 -162 -39h-80q-133 0 -227 106t-78 244l31 250q16 141 129 252t256 111h80q80 0 159 -48l68 545q2 27 29 27z" />
    <glyph glyph-name="Dcroat" unicode="&#x110;" horiz-adv-x="1230" 
d="M778 1303h-332l-55 -449h258q13 0 23 -10t8 -25l-16 -123q-2 -27 -29 -26h-266l-60 -486h324q111 0 193 81t98 220l65 525q18 139 -41 216t-170 77zM311 1487h490q171 1 283 -145t87 -341l-63 -524q-25 -195 -169 -336t-312 -141h-490q-35 0 -31 35l78 635h-90
q-35 0 -31 35l15 122q2 27 31 27h98l76 606q1 27 28 27z" />
    <glyph glyph-name="dcroat" unicode="&#x111;" horiz-adv-x="1026" 
d="M410 184h75q43 0 95 28t84 69l43 352q4 61 -38 103t-104 42h-76q-73 0 -125 -55t-63 -129l-31 -252q-8 -70 31 -114t109 -44zM1065 1278q13 0 23 -10t8 -25l-15 -123q-2 -27 -28 -26h-105l-131 -1067q-6 -27 -31 -27h-122q-35 0 -31 35v4q-82 -39 -162 -39h-80
q-133 0 -227 106t-78 244l31 250q16 141 129 252t256 111h80q80 0 159 -48l23 179h-375q-35 0 -31 34l15 123q2 27 28 27h385l23 182q2 27 29 27h123q35 0 30 -35l-20 -174h94z" />
    <glyph glyph-name="Emacron" unicode="&#x112;" horiz-adv-x="1138" 
d="M883 842q35 0 30 -35l-16 -123q-2 -27 -29 -27h-538l-58 -473h664q35 0 31 -34l-17 -123q-2 -27 -30 -27h-822q-35 0 -30 35l176 1425q2 27 28 27h822q37 0 30 -35l-14 -123q-2 -27 -29 -26h-671l-58 -461h531zM1083 1827h-663q-35 0 -31 35l14 123q2 27 29 26h664
q14 0 23 -10t7 -25l-14 -123q-2 -26 -29 -26z" />
    <glyph glyph-name="emacron" unicode="&#x113;" horiz-adv-x="1001" 
d="M584 784h-78q-70 0 -132.5 -54t-70.5 -124l-4 -20h422l4 28q8 74 -37 122t-104 48zM522 969h78q129 0 227.5 -109.5t79.5 -263.5l-14 -113q-6 -57 -64 -57h-548l-9 -66q-8 -78 37 -128t117 -50h82q90 0 194 117q23 20 46 -6l81 -78q20 -25 9 -47q-80 -80 -160 -125
t-189 -45h-77q-145 0 -242.5 111.5t-81.5 259.5l29 233q18 147 139 257t266 110zM928 1303h-664q-35 0 -31 34l15 123q2 27 28 27h664q14 0 23.5 -10.5t7.5 -24.5l-15 -123q-1 -26 -28 -26z" />
    <glyph glyph-name="Edotaccent" unicode="&#x116;" horiz-adv-x="1138" 
d="M883 842q35 0 30 -35l-16 -123q-2 -27 -29 -27h-538l-58 -473h664q35 0 31 -34l-17 -123q-2 -27 -30 -27h-822q-35 0 -30 35l176 1425q2 27 28 27h822q37 0 30 -35l-14 -123q-2 -27 -29 -26h-671l-58 -461h531zM674 2011h182q35 0 31 -37l-23 -186q-2 -29 -30 -29h-183
q-36 0 -30 37l22 186q2 29 31 29z" />
    <glyph glyph-name="edotaccent" unicode="&#x117;" horiz-adv-x="1001" 
d="M584 784h-78q-70 0 -132.5 -54t-70.5 -124l-4 -20h422l4 28q8 74 -37 122t-104 48zM522 969h78q129 0 227.5 -109.5t79.5 -263.5l-14 -113q-6 -57 -64 -57h-548l-9 -66q-8 -78 37 -128t117 -50h82q90 0 194 117q23 20 46 -6l81 -78q20 -25 9 -47q-80 -80 -160 -125
t-189 -45h-77q-145 0 -242.5 111.5t-81.5 259.5l29 233q18 147 139 257t266 110zM518 1487h182q35 0 31 -37l-22 -186q-2 -29 -31 -29h-182q-37 0 -31 37l22 186q2 29 31 29z" />
    <glyph glyph-name="Eogonek" unicode="&#x118;" horiz-adv-x="1138" 
d="M905 -248q10 0 16.5 -8t4.5 -18l-13 -95q0 -16 -18 -16h-262q-100 0 -142 40t-34 108.5t20 98t42 45t50.5 19.5t70.5 11.5t66 9.5q14 2 40 8q42 10 51 45h-699q-35 0 -30 35l176 1425q1 27 28 27h822q37 0 30 -35l-14 -123q-2 -27 -29 -26h-671l-58 -461h531q35 0 30 -35
l-16 -123q-2 -27 -29 -27h-538l-58 -473h664q35 0 31 -34l-17 -123v-9q20 -174 -137 -192q-86 -6 -168 -19q-37 0 -41 -38q-2 -16 17 -17h284z" />
    <glyph glyph-name="eogonek" unicode="&#x119;" horiz-adv-x="1001" 
d="M584 784h-78q-70 0 -132.5 -54t-70.5 -124l-4 -20h422l4 28q8 74 -37 122t-104 48zM522 969h78q129 0 227.5 -109.5t79.5 -263.5l-14 -113q-6 -57 -64 -57h-548l-9 -66q-8 -78 37 -128t117 -50h82q90 0 194 117q23 20 46 -6l81 -78q20 -25 9 -47q-106 -106 -197 -141v-9
q20 -174 -137 -192q-86 -6 -168 -19q-37 0 -41 -38q-2 -16 16 -17h285q10 0 16 -8t4 -18l-12 -95q0 -16 -18 -16h-262q-100 0 -142.5 40t-31.5 128q6 49 18 78.5t42 45t50.5 19.5t70.5 11.5t64.5 9.5t47.5 10t42 41h-73q-145 0 -242.5 111.5t-81.5 259.5l29 233
q18 147 139 257t266 110z" />
    <glyph glyph-name="Ecaron" unicode="&#x11a;" horiz-adv-x="1138" 
d="M883 842q35 0 30 -35l-16 -123q-2 -27 -29 -27h-538l-58 -473h664q35 0 31 -34l-17 -123q-2 -27 -30 -27h-822q-35 0 -30 35l176 1425q2 27 28 27h822q37 0 30 -35l-14 -123q-2 -27 -29 -26h-671l-58 -461h531zM434 2163h133q18 0 43 -43l140 -234l198 242q29 35 49 35
h138q16 0 24 -14.5t-4 -28.5l-305 -367q-27 -29 -53 -29h-121q-23 0 -43 35l-215 367q-8 14 -3 25.5t19 11.5z" />
    <glyph glyph-name="ecaron" unicode="&#x11b;" horiz-adv-x="1001" 
d="M584 784h-78q-70 0 -132.5 -54t-70.5 -124l-4 -20h422l4 28q8 74 -37 122t-104 48zM522 969h78q129 0 227.5 -109.5t79.5 -263.5l-14 -113q-6 -57 -64 -57h-548l-9 -66q-8 -78 37 -128t117 -50h82q90 0 194 117q23 20 46 -6l81 -78q20 -25 9 -47q-80 -80 -160 -125
t-189 -45h-77q-145 0 -242.5 111.5t-81.5 259.5l29 233q18 147 139 257t266 110zM279 1638h133q18 0 43 -43l139 -233l199 242q29 35 49 34h137q16 0 24.5 -14t-4.5 -29l-305 -366q-27 -29 -53 -29h-121q-23 0 -43 35l-215 367q-8 14 -3 25t20 11z" />
    <glyph glyph-name="Gbreve" unicode="&#x11e;" horiz-adv-x="1179" 
d="M645 770h412q37 0 30 -35l-32 -284q-27 -203 -165 -340.5t-317 -137.5h-98q-184 0 -294.5 142.5t-84.5 351.5l70 559q27 209 167 346t322 137h99q174 0 282.5 -140t87.5 -341q-2 -23 -30 -22h-123q-37 0 -31 41q14 125 -41 201.5t-162 76.5h-98q-113 0 -193.5 -84
t-97.5 -223l-67 -559q-18 -141 37 -221t169 -80h99q109 0 187.5 83t94.5 218l17 127h-254q-35 0 -31 35l16 122q2 27 29 27zM1006 2163h102q37 0 31 -39q-23 -143 -109 -225t-221 -82h-100q-135 0 -206 88t-57 237q2 20 29 21h103q37 0 30 -39q-8 -143 121 -144h82
q70 0 112 46.5t54 115.5q2 21 29 21z" />
    <glyph glyph-name="gbreve" unicode="&#x11f;" horiz-adv-x="1001" 
d="M420 182h69q86 0 164 78l52 412q4 43 -39 78t-101 34h-73q-70 0 -130 -57t-71 -133l-29 -234q-8 -74 39 -126t119 -52zM801 963h92q35 0 31 -35l-127 -1034q-14 -115 -125 -209t-244 -95h-51q-107 0 -193 58t-129 155q-12 27 17 39l96 45q25 10 45 -22q59 -90 166 -90h63
q53 0 108 38q54 38 60 95l15 129q-82 -39 -156 -39h-63q-145 0 -245 114q-99 114 -83 257l28 233q18 145 138 256t262 111h74q90 0 170 -70l6 29q2 35 45 35zM842 1638h102q37 0 31 -39q-23 -143 -109 -225t-221 -82h-100q-135 0 -206 88t-56 238q2 20 28 20h103
q37 0 30 -39q-8 -143 121 -143h82q70 0 112 46t54 116q2 20 29 20z" />
    <glyph glyph-name="Gdotaccent" unicode="&#x120;" horiz-adv-x="1179" 
d="M645 770h412q37 0 30 -35l-32 -284q-27 -203 -165 -340.5t-317 -137.5h-98q-184 0 -294.5 142.5t-84.5 351.5l70 559q27 209 167 346t322 137h99q174 0 282.5 -140t87.5 -341q-2 -23 -30 -22h-123q-37 0 -31 41q14 125 -41 201.5t-162 76.5h-98q-113 0 -193.5 -84
t-97.5 -223l-67 -559q-18 -141 37 -221t169 -80h99q109 0 187.5 83t94.5 218l17 127h-254q-35 0 -31 35l16 122q2 27 29 27zM684 2011h182q35 0 31 -37l-23 -186q-2 -29 -30 -29h-182q-37 0 -31 37l22 186q2 29 31 29z" />
    <glyph glyph-name="gdotaccent" unicode="&#x121;" horiz-adv-x="1001" 
d="M420 182h69q86 0 164 78l52 412q4 43 -39 78t-101 34h-73q-70 0 -130 -57t-71 -133l-29 -234q-8 -74 39 -126t119 -52zM801 963h92q35 0 31 -35l-127 -1034q-14 -115 -125 -209t-244 -95h-51q-107 0 -193 58t-129 155q-12 27 17 39l96 45q25 10 45 -22q59 -90 166 -90h63
q53 0 108 38q54 38 60 95l15 129q-82 -39 -156 -39h-63q-145 0 -245 114q-99 114 -83 257l28 233q18 145 138 256t262 111h74q90 0 170 -70l6 29q2 35 45 35zM520 1487h182q35 0 31 -37l-22 -186q-2 -29 -31 -29h-182q-37 0 -31 37l22 186q2 29 31 29z" />
    <glyph glyph-name="Gcommaaccent" unicode="&#x122;" horiz-adv-x="1179" 
d="M328 -369h188q35 0 29 -34l-29 -246q-31 -221 -156 -350q-20 -16 -41 8l-59 59q-25 31 -10 47q57 45 76.5 97.5t27.5 134.5l19 16h-72q-35 0 -31 35l27 207q2 26 31 26zM645 770h412q37 0 30 -35l-32 -284q-27 -203 -165 -340.5t-317 -137.5h-98q-184 0 -294.5 142.5
t-84.5 351.5l70 559q27 209 167 346t322 137h99q174 0 282.5 -140t87.5 -341q-2 -23 -30 -22h-123q-37 0 -31 41q14 125 -41 201.5t-162 76.5h-98q-113 0 -193.5 -84t-97.5 -223l-67 -559q-18 -141 37 -221t169 -80h99q109 0 187.5 83t94.5 218l17 127h-254q-35 0 -31 35
l16 122q2 27 29 27z" />
    <glyph glyph-name="gcommaaccent" unicode="&#x123;" horiz-adv-x="1001" 
d="M420 182h69q86 0 164 78l52 412q4 43 -39 78t-101 34h-73q-70 0 -130 -57t-71 -133l-29 -234q-8 -74 39 -126t119 -52zM801 963h92q35 0 31 -35l-127 -1034q-14 -115 -125 -209t-244 -95h-51q-107 0 -193 58t-129 155q-12 27 17 39l96 45q25 10 45 -22q59 -90 166 -90h63
q53 0 108 38q54 38 60 95l15 129q-82 -39 -156 -39h-63q-145 0 -245 114q-99 114 -83 257l28 233q18 145 138 256t262 111h74q90 0 170 -70l6 29q2 35 45 35zM596 1219h-188q-35 0 -31 34l31 246q31 221 155 350q20 16 41 -8l58 -59q27 -29 12 -47q-56 -45 -76 -97t-31 -135
l-16 -16h72q35 0 28 -35l-24 -207q-2 -26 -31 -26z" />
    <glyph glyph-name="Hbar" unicode="&#x126;" horiz-adv-x="1220" 
d="M928 801l37 291h-578l-35 -291h576zM1038 1487h123q35 0 31 -35l-23 -178h7l-23 -182h-4l-131 -1065q-6 -27 -31 -27h-123q-35 0 -30 35l71 581h-575l-72 -589q-6 -27 -31 -27h-123q-35 0 -30 35l176 1425q2 27 29 27h122q35 0 31 -35l-22 -178h577l23 186q1 27 28 27z
" />
    <glyph glyph-name="hbar" unicode="&#x127;" horiz-adv-x="1079" 
d="M543 963h75q144 0 232 -115t72 -256l-70 -565q-6 -27 -31 -27h-123q-35 0 -30 35l69 567q10 76 -26 126q-37 50 -107 50h-80q-61 0 -116 -44t-64 -101l-74 -606q-6 -27 -30 -27h-123q-35 0 -31 35l133 1077h-47q-35 0 -31 35l15 121q2 27 30 26h56l20 166q2 27 29 27h123
q35 0 30 -35l-18 -158h268q35 0 31 -34l-16 -121q-2 -27 -29 -27h-277l-24 -190q82 41 164 41z" />
    <glyph glyph-name="Imacron" unicode="&#x12a;" horiz-adv-x="538" 
d="M279 1487h124q37 0 31 -35l-174 -1425q-2 -27 -31 -27h-125q-34 0 -30 35l176 1425q2 27 29 27zM723 1827h-664q-35 0 -30 35l14 123q2 27 29 26h663q13 0 23 -10t8 -25l-14 -123q-2 -26 -29 -26z" />
    <glyph glyph-name="imacron" unicode="&#x12b;" horiz-adv-x="512" 
d="M240 965h122q35 0 31 -35l-110 -903q-2 -27 -31 -27h-123q-35 0 -31 35l113 903q2 27 29 27zM684 1303h-664q-37 0 -32 34l16 123q2 27 29 27h663q14 0 24 -10t7 -25l-14 -123q-2 -26 -29 -26z" />
    <glyph glyph-name="Iogonek" unicode="&#x12e;" horiz-adv-x="538" 
d="M279 1487h124q37 0 31 -35l-174 -1425q-4 -23 -16 -25q10 -158 -140 -176q-78 -6 -170 -19q-35 0 -40 -38q-2 -16 16 -17h287q10 0 16 -8t4 -18l-12 -95q0 -16 -19 -16h-262q-100 0 -143 40q-43 41 -35 109t21 98q18 46 94 65q21 5 77 11t78 11q66 12 72 55q-18 6 -14 31
l176 1425q2 27 29 27z" />
    <glyph glyph-name="iogonek" unicode="&#x12f;" horiz-adv-x="512" 
d="M240 965h122q35 0 31 -35l-110 -903q-2 -20 -19 -27q10 -156 -139 -174q-78 -6 -170 -19q-35 0 -41 -38q-2 -16 16 -17h287q10 0 16 -8t5 -18l-13 -95q0 -16 -18 -16h-262q-100 0 -144 40q-43 40 -32 128q6 49 18 79t50 48t102 27q65 8 81 10q81 10 89 59q-14 10 -11 29
l113 903q2 27 29 27zM274 1487h183q35 0 30 -37l-22 -186q-2 -29 -31 -29h-182q-37 0 -31 37l23 186q1 29 30 29z" />
    <glyph glyph-name="Idotaccent" unicode="&#x130;" horiz-adv-x="538" 
d="M279 1487h124q37 0 31 -35l-174 -1425q-2 -27 -31 -27h-125q-34 0 -30 35l176 1425q2 27 29 27zM315 2011h183q35 0 30 -37l-22 -186q-2 -29 -31 -29h-182q-37 0 -31 37l23 186q2 29 30 29z" />
    <glyph glyph-name="dotlessi" unicode="&#x131;" horiz-adv-x="512" 
d="M240 965h122q35 0 31 -35l-110 -903q-2 -27 -31 -27h-123q-35 0 -31 35l113 903q2 27 29 27z" />
    <glyph glyph-name="IJ" unicode="&#x132;" horiz-adv-x="1656" 
d="M983 170h53q115 0 201 86t102 225l121 979q2 27 29 27h123q37 0 30 -35l-120 -989q-25 -213 -170 -345t-322 -132h-63q-127 0 -235 82t-140 208q-11 23 12 35l111 60q12 6 20 -3t10 -28q72 -170 238 -170zM279 1487h124q37 0 31 -35l-174 -1425q-2 -27 -31 -27h-125
q-34 0 -30 35l176 1425q2 27 29 27z" />
    <glyph glyph-name="ij" unicode="&#x133;" horiz-adv-x="966" 
d="M625 965h123q35 0 30 -35l-129 -1047q-14 -113 -95 -206t-194 -128q-37 -6 -41 27l-36 117q-6 27 14 39q61 18 113 63q51 45 57 103l127 1040q2 27 31 27zM195 965h122q35 0 31 -35l-110 -903q-2 -27 -31 -27h-123q-35 0 -31 35l113 903q2 27 29 27zM688 1487h141
q37 0 31 -35l-20 -174q-2 -27 -31 -27h-141q-35 0 -29 35l20 174q2 27 29 27zM258 1487h141q35 0 31 -35l-20 -174q-6 -27 -31 -27h-141q-35 0 -31 35l22 174q2 27 29 27z" />
    <glyph glyph-name="Kcommaaccent" unicode="&#x136;" horiz-adv-x="1208" 
d="M315 -369h189q35 0 28 -34l-28 -246q-31 -221 -156 -350q-20 -16 -41 8l-59 59q-25 31 -10 47q57 45 76.5 97.5t27.5 134.5l18 16h-71q-35 0 -31 35l27 207q1 26 30 26zM1038 0h-149q-31 0 -51 33l-447 608l-82 -82l-67 -532q-2 -27 -31 -27h-123q-35 0 -31 35l176 1425
q2 27 29 27h123q37 0 31 -35l-82 -653l610 663q25 25 41 25h162q16 0 21.5 -16.5t-11.5 -36.5l-614 -666l508 -721q10 -12 8 -29.5t-21 -17.5z" />
    <glyph glyph-name="kcommaaccent" unicode="&#x137;" horiz-adv-x="1034" 
d="M211 -369h188q35 0 29 -34l-29 -246q-31 -221 -155 -350q-20 -16 -41 8l-60 59q-25 31 -10 47q57 45 76.5 97.5t28.5 134.5l18 16h-72q-35 0 -30 35l26 207q2 26 31 26zM743 963h154q18 0 24.5 -22.5t-16.5 -45.5l-397 -348l354 -502q18 -26 10 -35.5t-20 -9.5h-137
q-31 0 -51 33l-297 387l-68 -58l-41 -329q-4 -33 -35 -33h-119q-35 0 -30 35l174 1419q4 33 37 33h116q35 0 31 -35l-102 -834l366 324q24 21 47 21z" />
    <glyph glyph-name="Lacute" unicode="&#x139;" horiz-adv-x="1138" 
d="M940 184q35 0 31 -34l-15 -123q-6 -27 -30 -27h-822q-35 0 -30 35l176 1425q2 27 29 27h122q35 0 31 -35l-156 -1268h664zM535 2163h151q18 0 26.5 -11.5t-1.5 -29.5l-228 -379q-20 -33 -45 -33h-127q-16 0 -23 12.5t3 28.5l201 379q16 33 43 33z" />
    <glyph glyph-name="lacute" unicode="&#x13a;" horiz-adv-x="512" 
d="M309 1487h117q37 0 31 -35l-174 -1419q-2 -33 -35 -33h-119q-35 0 -31 35l176 1419q2 33 35 33zM559 2163h152q18 0 26 -11.5t-2 -29.5l-227 -379q-20 -33 -45 -33h-127q-16 0 -23.5 12.5t2.5 28.5l201 379q16 33 43 33z" />
    <glyph glyph-name="Lcommaaccent" unicode="&#x13b;" horiz-adv-x="1138" 
d="M305 -369h189q35 0 28 -34l-28 -246q-31 -221 -156 -350q-20 -16 -41 8l-59 59q-25 31 -11 47q57 45 77 97.5t28 134.5l18 16h-71q-35 0 -31 35l26 207q2 26 31 26zM940 184q35 0 31 -34l-15 -123q-6 -27 -30 -27h-822q-35 0 -30 35l176 1425q2 27 29 27h122q35 0 31 -35
l-156 -1268h664z" />
    <glyph glyph-name="lcommaaccent" unicode="&#x13c;" horiz-adv-x="512" 
d="M-23 -369h191q35 0 29 -34l-29 -246q-31 -221 -156 -350q-16 -10 -22 -8.5t-19 16.5l-59 59q-27 29 -12 47q57 47 77.5 99.5t28.5 132.5l19 16h-72q-35 0 -31 35l25 207q1 26 30 26zM309 1487h117q37 0 31 -35l-174 -1419q-2 -33 -35 -33h-119q-35 0 -31 35l176 1419
q2 33 35 33z" />
    <glyph glyph-name="Lcaron" unicode="&#x13d;" horiz-adv-x="1138" 
d="M664 1487h188q35 0 29 -35l-29 -246q-31 -217 -156 -350q-20 -14 -41 10l-59 60q-25 29 -10 47q57 45 76.5 97t27.5 132l19 17h-72q-35 0 -31 34l27 207q2 27 31 27zM940 184q35 0 31 -34l-15 -123q-6 -27 -30 -27h-822q-35 0 -30 35l176 1425q2 27 29 27h122
q35 0 31 -35l-156 -1268h664z" />
    <glyph glyph-name="lcaron" unicode="&#x13e;" horiz-adv-x="884" 
d="M612 1487h189q35 0 28 -35l-28 -246q-31 -217 -156 -350q-20 -14 -41 10l-59 60q-25 29 -10 47q57 45 76.5 97t27.5 132l18 17h-71q-35 0 -31 34l27 207q1 27 30 27zM309 1487h117q37 0 31 -35l-174 -1419q-2 -33 -35 -33h-119q-35 0 -31 35l176 1419q2 33 35 33z" />
    <glyph glyph-name="Ldot" unicode="&#x13f;" horiz-adv-x="1138" 
d="M573 965h175q35 0 30 -35l-22 -182q-2 -27 -31 -27h-174q-35 0 -31 35l23 182q6 27 30 27zM940 184q35 0 31 -34l-15 -123q-6 -27 -30 -27h-822q-35 0 -30 35l176 1425q2 27 29 27h122q35 0 31 -35l-156 -1268h664z" />
    <glyph glyph-name="ldot" unicode="&#x140;" horiz-adv-x="940" 
d="M651 965h174q35 0 31 -35l-22 -182q-2 -27 -31 -27h-174q-35 0 -31 35l23 182q6 27 30 27zM309 1487h117q37 0 31 -35l-174 -1419q-2 -33 -35 -33h-119q-35 0 -31 35l176 1419q2 33 35 33z" />
    <glyph glyph-name="Lslash" unicode="&#x141;" horiz-adv-x="1245" 
d="M1010 184q35 0 30 -34l-16 -123q-2 -27 -31 -27h-821q-35 0 -31 35l29 227h-113q-18 0 -27.5 12.5t3.5 28.5l164 184l120 973q2 27 29 27h123q37 0 31 -35l-88 -725l184 205q29 31 49 31h148q18 0 26 -12.5t-4 -26.5l-438 -494l-31 -246h664z" />
    <glyph glyph-name="lslash" unicode="&#x142;" horiz-adv-x="813" 
d="M668 963q18 -1 26 -13t-4 -26l-172 -193l-86 -704q-2 -27 -31 -27h-122q-35 0 -31 35l65 522h-118q-18 0 -27 12q-8 12 2 29l170 188l84 674q2 27 29 27h122q37 0 31 -35l-59 -489h121z" />
    <glyph glyph-name="Nacute" unicode="&#x143;" horiz-adv-x="1298" 
d="M1114 1487h123q37 0 31 -35l-174 -1425q-2 -27 -31 -27h-174q-27 0 -33 27l-461 1142l-143 -1142q-2 -27 -31 -27h-123q-35 0 -30 35l176 1425q2 27 28 27h174q27 0 37 -27l461 -1143l141 1143q2 27 29 27zM950 2163h152q18 0 26.5 -11.5t-2.5 -29.5l-227 -379
q-20 -33 -45 -33h-127q-16 0 -23 12.5t3 28.5l200 379q16 33 43 33z" />
    <glyph glyph-name="nacute" unicode="&#x144;" horiz-adv-x="1046" 
d="M553 963h88q150 0 227.5 -110t59.5 -261l-70 -565q-2 -27 -31 -27h-122q-35 0 -31 35l69 565q10 74 -28.5 126t-110.5 52h-88q-61 0 -119.5 -46t-66.5 -103l-74 -602q-2 -27 -31 -27h-123q-35 0 -30 35l110 901q6 27 31 27h123q35 0 31 -35l-7 -41q84 76 193 76z
M920 1638q18 0 26 -11t-2 -30l-227 -378q-20 -33 -45 -33h-127q-16 0 -23.5 12.5t2.5 28.5l201 379q16 33 43 32h152z" />
    <glyph glyph-name="Ncommaaccent" unicode="&#x145;" horiz-adv-x="1298" 
d="M373 -369h188q35 0 29 -34l-29 -246q-31 -221 -155 -350q-20 -16 -41 8l-60 59q-25 31 -10 47q57 45 76.5 97.5t27.5 134.5l19 16h-72q-35 0 -31 35l27 207q2 26 31 26zM1114 1487h123q37 0 31 -35l-174 -1425q-2 -27 -31 -27h-174q-27 0 -33 27l-461 1142l-143 -1142
q-2 -27 -31 -27h-123q-35 0 -30 35l176 1425q2 27 28 27h174q27 0 37 -27l461 -1143l141 1143q2 27 29 27z" />
    <glyph glyph-name="ncommaaccent" unicode="&#x146;" horiz-adv-x="1046" 
d="M254 -369h188q35 0 29 -34l-29 -246q-31 -221 -155 -350q-20 -16 -41 8l-60 59q-25 31 -10 47q57 45 76.5 97.5t28.5 134.5l18 16h-72q-35 0 -30 35l26 207q2 26 31 26zM553 963h88q150 0 227.5 -110t59.5 -261l-70 -565q-2 -27 -31 -27h-122q-35 0 -31 35l69 565
q10 74 -28.5 126t-110.5 52h-88q-61 0 -119.5 -46t-66.5 -103l-74 -602q-2 -27 -31 -27h-123q-35 0 -30 35l110 901q6 27 31 27h123q35 0 31 -35l-7 -41q84 76 193 76z" />
    <glyph glyph-name="Ncaron" unicode="&#x147;" horiz-adv-x="1298" 
d="M1114 1487h123q37 0 31 -35l-174 -1425q-2 -27 -31 -27h-174q-27 0 -33 27l-461 1142l-143 -1142q-2 -27 -31 -27h-123q-35 0 -30 35l176 1425q2 27 28 27h174q27 0 37 -27l461 -1143l141 1143q2 27 29 27zM489 2163h134q18 0 43 -43l139 -234l199 242q29 35 49 35h137
q16 0 24.5 -14.5t-4.5 -28.5l-305 -367q-27 -29 -53 -29h-121q-23 0 -43 35l-215 367q-8 14 -3 25.5t19 11.5z" />
    <glyph glyph-name="ncaron" unicode="&#x148;" horiz-adv-x="1046" 
d="M553 963h88q150 0 227.5 -110t59.5 -261l-70 -565q-2 -27 -31 -27h-122q-35 0 -31 35l69 565q10 74 -28.5 126t-110.5 52h-88q-61 0 -119.5 -46t-66.5 -103l-74 -602q-2 -27 -31 -27h-123q-35 0 -30 35l110 901q6 27 31 27h123q35 0 31 -35l-7 -41q84 76 193 76z
M307 1638h133q18 0 43 -43l140 -233l198 242q29 35 49 34h138q16 0 24 -14t-4 -29l-305 -366q-27 -29 -53 -29h-121q-23 0 -43 35l-215 367q-8 14 -3 25t19 11z" />
    <glyph glyph-name="Eng" unicode="&#x14a;" horiz-adv-x="1253" 
d="M1069 1487h123q37 0 31 -35l-179 -1460q-27 -213 -171 -345t-320 -132h-64q-102 0 -195 57t-134 149q-20 20 6 37l100 68q20 14 35 -19q78 -109 203 -108h53q115 0 203 87t104 245l-469 1138l-143 -1142q-2 -27 -31 -27h-123q-35 0 -30 35l176 1425q2 27 28 27h174
q27 0 37 -27l428 -1046l129 1046q2 27 29 27z" />
    <glyph glyph-name="eng" unicode="&#x14b;" horiz-adv-x="1036" 
d="M553 963h88q150 0 227.5 -110t59.5 -261l-76 -623q-20 -166 -134 -288.5t-255 -139.5q-35 -2 -35 33l-20 117q-2 25 20 30q84 10 155.5 86t86.5 179l4 37v12l51 414l10 88l8 63q10 74 -28.5 126t-110.5 52h-88q-61 0 -119.5 -46t-66.5 -103l-74 -602q-2 -27 -31 -27h-123
q-35 0 -30 35l110 901q6 27 31 27h123q35 0 31 -35l-7 -41q84 76 193 76z" />
    <glyph glyph-name="Omacron" unicode="&#x14c;" horiz-adv-x="1200" 
d="M496 170h100q110 0 190 87t97 214l69 563q16 127 -40 210t-164 83h-101q-109 0 -189 -87t-98 -214l-69 -563q-17 -127 41 -210t164 -83zM662 1511h100q176 0 287 -145t86 -348l-66 -547q-27 -203 -169 -344t-318 -141h-101q-179 0 -289 145t-83 348l67 547
q27 203 168 344q142 141 318 141zM1092 1827h-664q-35 0 -31 35l15 123q2 27 28 26h664q14 0 23 -10t8 -25l-15 -123q-1 -26 -28 -26z" />
    <glyph glyph-name="omacron" unicode="&#x14d;" horiz-adv-x="1052" 
d="M590 784h-84q-82 0 -140 -60t-69 -140l-27 -213q-10 -80 31 -134t123 -55h84q82 0 140 58t67 139l26 213q10 80 -29 136q-40 56 -122 56zM522 969h80q152 0 247 -115t77 -270l-27 -213q-18 -153 -137 -263t-270 -110h-80q-154 0 -249 113t-77 268l27 213q19 156 137 266
t272 111zM946 1303h-663q-35 0 -31 34l14 123q2 27 29 27h663q14 0 24 -10t7 -25l-14 -123q-2 -26 -29 -26z" />
    <glyph glyph-name="Ohungarumlaut" unicode="&#x150;" horiz-adv-x="1200" 
d="M496 170h100q110 0 190 87t97 214l69 563q16 127 -40 210t-164 83h-101q-109 0 -189 -87t-98 -214l-69 -563q-17 -127 41 -210t164 -83zM662 1511h100q176 0 287 -145t86 -348l-66 -547q-27 -203 -169 -344t-318 -141h-101q-179 0 -289 145t-83 348l67 547
q27 203 168 344q142 141 318 141zM1073 2163h152q18 1 26 -11t-2 -30l-227 -379q-20 -33 -45 -33h-127q-16 0 -24 12q-7 13 3 29l201 379q16 33 43 33zM719 2163h151q18 1 26 -11t-1 -30l-227 -379q-20 -33 -45 -33h-127q-16 0 -24 12q-7 13 3 29l201 379q16 33 43 33z" />
    <glyph glyph-name="ohungarumlaut" unicode="&#x151;" horiz-adv-x="1052" 
d="M590 784h-84q-82 0 -140 -60t-69 -140l-27 -213q-10 -80 31 -134t123 -55h84q82 0 140 58t67 139l26 213q10 80 -29 136q-40 56 -122 56zM522 969h80q152 0 247 -115t77 -270l-27 -213q-18 -153 -137 -263t-270 -110h-80q-154 0 -249 113t-77 268l27 213q19 156 137 266
t272 111zM1079 1638q19 0 27 -11t-2 -30l-227 -378q-20 -33 -46 -33h-126q-16 0 -24 12q-7 13 3 29l201 379q16 33 43 32h151zM725 1638q19 0 27 -11t-2 -30l-228 -378q-20 -33 -45 -33h-127q-16 0 -23 12t3 29l200 379q16 33 43 32h152z" />
    <glyph glyph-name="OE" unicode="&#x152;" horiz-adv-x="1959" 
d="M496 170h100q109 0 189.5 87t97.5 214l69 563q16 127 -40 210t-164 83h-101q-109 0 -189.5 -87t-97.5 -214l-69 -563q-16 -127 41.5 -210t163.5 -83zM1094 1487h821q37 0 31 -35l-15 -123q-2 -27 -28 -26h-672l-57 -461h530q35 0 31 -35l-17 -123q-2 -27 -28 -27h-539
l-57 -473h663q35 0 31 -34l-16 -123q-2 -27 -31 -27h-821q-35 0 -31 35l12 92q-141 -141 -319 -141h-101q-178 0 -288.5 145t-83.5 348l67 547q27 203 168 344t318 141h100q182 0 291 -151l12 100q2 27 29 27z" />
    <glyph glyph-name="oe" unicode="&#x153;" horiz-adv-x="1630" 
d="M1212 784h-77q-70 0 -132.5 -54t-70.5 -124l-4 -20h422l4 28q8 74 -37 122t-105 48zM424 182h84q82 0 140.5 58.5t66.5 138.5l26 213q10 80 -29.5 136t-121.5 56h-84q-82 0 -140.5 -60t-68.5 -140l-27 -213q-10 -80 31 -134.5t123 -54.5zM1151 969h78q129 0 227 -109.5
t80 -263.5l-14 -113q-6 -57 -64 -57h-549l-8 -66q-8 -78 37 -128t117 -50h82q90 0 194 117q23 20 45 -6l82 -78q20 -25 8 -47q-80 -80 -159.5 -125t-188.5 -45h-78q-160 0 -258 129q-125 -129 -290 -129h-80q-154 0 -249 112.5t-77 268.5l27 213q20 156 138 266.5t271 110.5
h80q162 0 260 -131q125 131 289 131z" />
    <glyph glyph-name="Racute" unicode="&#x154;" horiz-adv-x="1161" 
d="M664 821q229 0 260 252q16 125 -33 177.5t-160 52.5h-328l-59 -482h320zM958 0h-122q-14 0 -23.5 10t-7.5 25l39 319q16 125 -26 204t-156 79h-340l-74 -610q-6 -27 -31 -27h-123q-35 0 -31 35l177 1425q2 27 28 27h488q184 0 279.5 -116.5t69.5 -325.5t-175 -322
q129 -123 102 -340l-43 -356q-2 -27 -31 -27zM881 2163h151q18 0 26.5 -11.5t-1.5 -29.5l-228 -379q-20 -33 -45 -33h-127q-16 0 -23 12.5t3 28.5l201 379q16 33 43 33z" />
    <glyph glyph-name="racute" unicode="&#x155;" horiz-adv-x="858" 
d="M508 780q-61 0 -119.5 -48t-66.5 -105l-74 -600q-2 -27 -31 -27h-123q-35 0 -31 35l111 901q6 27 31 27h123q35 0 30 -35l-6 -41q86 78 193 78h82q123 0 196 -88q29 -18 6 -41l-100 -93q-20 -16 -39 7q-49 31 -119 30h-63zM860 1638q18 0 26.5 -11t-1.5 -30l-228 -378
q-20 -33 -45 -33h-127q-16 0 -23 12.5t3 28.5l201 379q16 33 43 32h151z" />
    <glyph glyph-name="Rcommaaccent" unicode="&#x156;" horiz-adv-x="1161" 
d="M303 -369h189q35 0 28 -34l-28 -246q-31 -221 -156 -350q-20 -16 -41 8l-59 59q-25 31 -11 47q57 45 77 97.5t28 134.5l18 16h-72q-35 0 -30 35l26 207q2 26 31 26zM664 821q229 0 260 252q16 125 -33 177.5t-160 52.5h-328l-59 -482h320zM958 0h-122q-14 0 -23.5 10
t-7.5 25l39 319q16 125 -26 204t-156 79h-340l-74 -610q-6 -27 -31 -27h-123q-35 0 -31 35l177 1425q2 27 28 27h488q184 0 279.5 -116.5t69.5 -325.5t-175 -322q129 -123 102 -340l-43 -356q-2 -27 -31 -27z" />
    <glyph glyph-name="rcommaaccent" unicode="&#x157;" horiz-adv-x="858" 
d="M-61 -369h190q35 0 29 -34l-29 -246q-31 -221 -156 -350q-16 -10 -22 -8.5t-19 16.5l-59 59q-27 29 -12 47q57 47 77.5 99.5t28.5 132.5l19 16h-72q-35 0 -31 35l25 207q2 26 31 26zM508 780q-61 0 -119.5 -48t-66.5 -105l-74 -600q-2 -27 -31 -27h-123q-35 0 -31 35
l111 901q6 27 31 27h123q35 0 30 -35l-6 -41q86 78 193 78h82q123 0 196 -88q29 -18 6 -41l-100 -93q-20 -16 -39 7q-49 31 -119 30h-63z" />
    <glyph glyph-name="Rcaron" unicode="&#x158;" horiz-adv-x="1161" 
d="M664 821q229 0 260 252q16 125 -33 177.5t-160 52.5h-328l-59 -482h320zM958 0h-122q-14 0 -23.5 10t-7.5 25l39 319q16 125 -26 204t-156 79h-340l-74 -610q-6 -27 -31 -27h-123q-35 0 -31 35l177 1425q2 27 28 27h488q184 0 279.5 -116.5t69.5 -325.5t-175 -322
q129 -123 102 -340l-43 -356q-2 -27 -31 -27zM420 2163h133q18 0 43 -43l139 -234l199 242q29 35 49 35h137q16 0 24.5 -14.5t-3.5 -28.5l-305 -367q-27 -29 -54 -29h-120q-24 0 -44 35l-215 367q-8 14 -2.5 25.5t19.5 11.5z" />
    <glyph glyph-name="rcaron" unicode="&#x159;" horiz-adv-x="858" 
d="M508 780q-61 0 -119.5 -48t-66.5 -105l-74 -600q-2 -27 -31 -27h-123q-35 0 -31 35l111 901q6 27 31 27h123q35 0 30 -35l-6 -41q86 78 193 78h82q123 0 196 -88q29 -18 6 -41l-100 -93q-20 -16 -39 7q-49 31 -119 30h-63zM246 1638h133q18 0 43 -43l139 -233l199 242
q29 35 49 34h137q16 0 24.5 -14t-3.5 -29l-305 -366q-27 -29 -54 -29h-121q-23 0 -43 35l-215 367q-8 14 -3 25t20 11z" />
    <glyph glyph-name="Sacute" unicode="&#x15a;" horiz-adv-x="1173" 
d="M633 1518h106q166 0 278.5 -125t90.5 -310l-4 -36q-2 -27 -29 -27h-125q-35 0 -30 35l4 37q14 111 -45.5 176t-155.5 65h-107q-98 0 -167.5 -64.5t-83.5 -168.5q-25 -195 200 -236l111 -20q197 -33 293 -145.5t72 -300t-163 -302t-315 -114.5h-94q-170 0 -286.5 119.5
t-96.5 297.5l8 58q2 27 31 26h125q35 0 29 -34l-5 -58q-8 -104 51.5 -164.5t157.5 -60.5h95q104 0 185 67.5t95 178t-36 169t-165 78.5l-110 23q-408 78 -363 442q20 174 149.5 284t299.5 110zM889 2163h151q18 0 26.5 -11.5t-1.5 -29.5l-227 -379q-20 -33 -45 -33h-127
q-16 0 -23.5 12.5t2.5 28.5l201 379q16 33 43 33z" />
    <glyph glyph-name="sacute" unicode="&#x15b;" horiz-adv-x="968" 
d="M438 -10h-51q-127 0 -225.5 81t-93.5 197q0 20 26 21h127q27 0 37 -33q6 -39 46 -60.5t93 -21.5h70q70 0 123 29.5t59 82t-29.5 72t-144.5 31.5q-190 18 -280.5 90t-73 209t125 210t259.5 73h41q133 0 232.5 -87t84.5 -216q-4 -25 -28 -25h-123q-39 0 -34 43t-40 71.5
t-107 28.5h-55q-162 0 -172 -108q-6 -47 29.5 -70t144.5 -37q193 -23 281 -91t71.5 -202.5t-131 -211t-262.5 -76.5zM877 1638q18 0 26 -11t-2 -30l-227 -378q-20 -33 -45 -33h-127q-16 0 -23.5 12.5t2.5 28.5l201 379q16 33 43 32h152z" />
    <glyph glyph-name="Scedilla" unicode="&#x15e;" horiz-adv-x="1173" 
d="M633 1518h106q166 0 278.5 -125t90.5 -310l-4 -36q-2 -27 -29 -27h-125q-35 0 -30 35l4 37q14 111 -45.5 176t-155.5 65h-107q-98 0 -167.5 -64.5t-83.5 -168.5q-25 -195 200 -236l111 -20q197 -33 293 -145.5t73.5 -295t-150.5 -296t-294 -123.5q-35 -39 -25.5 -47.5
t11.5 -10.5t22.5 -6t22.5 -4q104 -10 148 -47t32 -137q-16 -145 -205 -146h-125q-84 0 -127 49.5t-35 131.5q2 12 17 12h117q8 0 15 -7.5t5 -25t13.5 -25.5t52.5 -8h34q43 0 62.5 8.5t22.5 30.5t-16 28.5t-63 11.5t-56.5 7t-35 4t-46.5 5.5t-44 19.5t-21 58t42 100
q-154 18 -251 134t-79 279l8 58q2 27 31 26h125q35 0 29 -34l-5 -58q-8 -104 51.5 -164.5t157.5 -60.5h95q104 0 185 67.5t95 178t-36 169t-165 78.5l-110 23q-408 78 -363 442q20 174 149.5 284t299.5 110z" />
    <glyph glyph-name="scedilla" unicode="&#x15f;" horiz-adv-x="968" 
d="M473 -58q0 -12 8 -15q29 -11 47 -11q104 -10 148.5 -47t32.5 -137q-16 -145 -205 -146h-125q-84 0 -127 49.5t-35 131.5q4 12 16 12h117q8 0 15.5 -7.5t5.5 -25t13 -25.5t52 -8h35q43 0 62.5 8.5t22.5 30.5t-16.5 28.5t-63 11.5t-56 7t-35.5 4t-46.5 5.5t-45 20.5
t-20.5 62.5t49 104.5q-109 18 -184 94t-70 178q0 20 26 21h127q27 0 37 -33q6 -39 46 -60.5t93 -21.5h70q70 0 123 29.5t59 82t-29.5 72t-144.5 31.5q-190 18 -280.5 90t-73 209t125 210t259.5 73h41q133 0 232.5 -87t84.5 -216q-4 -25 -28 -25h-123q-39 0 -34 43t-40 71.5
t-107 28.5h-55q-162 0 -172 -108q-6 -47 30 -69.5t144 -37.5q193 -23 281 -91t69 -216q-12 -106 -104 -179t-221 -91v-4q-31 -36 -31 -48z" />
    <glyph glyph-name="Scaron" unicode="&#x160;" horiz-adv-x="1173" 
d="M633 1518h106q166 0 278.5 -125t90.5 -310l-4 -36q-2 -27 -29 -27h-125q-35 0 -30 35l4 37q14 111 -45.5 176t-155.5 65h-107q-98 0 -167.5 -64.5t-83.5 -168.5q-25 -195 200 -236l111 -20q197 -33 293 -145.5t72 -300t-163 -302t-315 -114.5h-94q-170 0 -286.5 119.5
t-96.5 297.5l8 58q2 27 31 26h125q35 0 29 -34l-5 -58q-8 -104 51.5 -164.5t157.5 -60.5h95q104 0 185 67.5t95 178t-36 169t-165 78.5l-110 23q-408 78 -363 442q20 174 149.5 284t299.5 110zM428 2163h133q18 0 43 -43l139 -234l199 242q29 35 49 35h137q16 0 24.5 -14.5
t-3.5 -28.5l-305 -367q-27 -29 -53 -29h-121q-23 0 -43 35l-215 367q-8 14 -3 25.5t19 11.5z" />
    <glyph glyph-name="scaron" unicode="&#x161;" horiz-adv-x="968" 
d="M438 -10h-51q-127 0 -225.5 81t-93.5 197q0 20 26 21h127q27 0 37 -33q6 -39 46 -60.5t93 -21.5h70q70 0 123 29.5t59 82t-29.5 72t-144.5 31.5q-190 18 -280.5 90t-73 209t125 210t259.5 73h41q133 0 232.5 -87t84.5 -216q-4 -25 -28 -25h-123q-39 0 -34 43t-40 71.5
t-107 28.5h-55q-162 0 -172 -108q-6 -47 29.5 -70t144.5 -37q193 -23 281 -91t71.5 -202.5t-131 -211t-262.5 -76.5zM264 1638h133q18 0 43 -43l140 -233l198 242q29 35 49 34h138q16 0 24 -14t-4 -29l-305 -366q-27 -29 -53 -29h-121q-23 0 -43 35l-215 367q-8 14 -3 25
t19 11z" />
    <glyph glyph-name="Tcedilla" unicode="&#x162;" horiz-adv-x="1132" 
d="M223 1487h899q35 0 31 -35l-14 -123q-6 -27 -31 -26h-360l-156 -1276q-4 -16 -8 -21q8 -8 -1 -19t-17.5 -22.5t-9.5 -18.5t-1 -11.5t19 -11.5t36 -7q104 -10 148.5 -47t32.5 -137q-16 -145 -205 -146h-125q-84 0 -127 49.5t-35 131.5q4 12 16 12h117q8 0 15.5 -7.5
t5.5 -25t13 -25.5t52 -8h35q43 0 62.5 8.5t22.5 30.5t-16.5 28.5t-63 11.5t-56.5 7t-35.5 4t-46 5.5t-46 21.5t-18.5 65.5t58 110.5l2 2q-10 10 -8 27l155 1268h-354q-35 0 -31 34l17 123q1 27 28 27z" />
    <glyph glyph-name="tcedilla" unicode="&#x163;" horiz-adv-x="667" 
d="M362 -414q-84 0 -126.5 49.5t-34.5 131.5q4 12 16 12h117q8 0 15 -7.5t5 -25t13.5 -25.5t52.5 -8h35q43 0 62.5 8.5t22.5 30.5t-16.5 28.5t-63.5 11.5t-56.5 7t-35 4t-46 5.5t-46 21.5t-18.5 65.5t57 110.5q8 4 21 8q-190 61 -164 275l59 489h-98q-35 0 -31 33l15 121
q2 31 30 31h107l27 217q2 27 28 26h123q16 0 25.5 -10t7.5 -25l-27 -208h142q37 0 32 -35l-14 -123q-2 -27 -31 -27h-151l-54 -438q-18 -147 113 -152q18 0 29.5 -8t9.5 -22l-14 -133q-4 -23 -11 -27q0 -6 -7 -14t-15 -19.5t-9 -18.5t-1 -11.5t8 -7.5t18 -7t29 -4
q104 -10 148.5 -47t31.5 -137q-16 -145 -205 -146h-125z" />
    <glyph glyph-name="Tcaron" unicode="&#x164;" horiz-adv-x="1132" 
d="M223 1487h899q35 0 31 -35l-14 -123q-6 -27 -31 -26h-360l-156 -1276q-6 -27 -31 -27h-123q-35 0 -30 35l155 1268h-354q-35 0 -31 34l17 123q1 27 28 27zM410 2163h133q18 0 43 -43l139 -234l199 242q29 35 49 35h137q16 0 24.5 -14.5t-4.5 -28.5l-305 -367
q-27 -29 -53 -29h-121q-23 0 -43 35l-215 367q-8 14 -3 25.5t20 11.5z" />
    <glyph glyph-name="tcaron" unicode="&#x165;" horiz-adv-x="927" 
d="M580 963q37 0 32 -35l-14 -123q-2 -27 -31 -27h-151l-54 -438q-18 -147 113 -152q18 0 29.5 -8t9.5 -22l-14 -133q-2 -29 -21 -29q-145 -4 -235 68.5t-72 224.5l59 489h-98q-35 0 -31 33l15 121q2 31 30 31h107l27 217q2 27 28 26h123q16 0 25.5 -10t7.5 -25l-27 -208
h142zM655 1636h189q35 0 28 -34l-28 -246q-31 -217 -156 -350q-20 -14 -41 10l-59 59q-25 29 -10 47q57 45 76.5 97.5t27.5 132.5l18 16h-71q-35 0 -31 35l27 207q1 26 30 26z" />
    <glyph glyph-name="Tbar" unicode="&#x166;" horiz-adv-x="1132" 
d="M223 1487h899q35 0 31 -35l-14 -123q-6 -27 -31 -26h-360l-41 -340h233q14 0 23.5 -10.5t7.5 -24.5l-15 -123q-2 -27 -28 -27h-244l-92 -751q-6 -27 -31 -27h-123q-35 0 -30 35l92 743h-236q-35 0 -31 35l15 123q2 27 28 27h246l41 340h-354q-35 0 -31 34l17 123
q1 27 28 27z" />
    <glyph glyph-name="tbar" unicode="&#x167;" horiz-adv-x="698" 
d="M612 963q37 0 33 -35l-16 -123q-2 -27 -31 -27h-152l-14 -129h148q14 0 23 -10t7 -25l-14 -122q-2 -27 -31 -27h-155l-17 -125q-16 -147 115 -152q16 0 27.5 -8t9.5 -22l-15 -133q-2 -29 -20 -29q-145 -4 -235.5 68.5t-71.5 224.5l22 176h-92q-35 0 -31 35l15 123
q2 27 30 26h101l16 129h-100q-35 0 -31 33l14 121q6 31 33 31h107l26 217q2 27 29 26h123q35 0 31 -35l-27 -208h143z" />
    <glyph glyph-name="Utilde" unicode="&#x168;" horiz-adv-x="1179" 
d="M1008 1489h122q37 0 31 -35l-123 -1010q-25 -200 -164 -328t-335 -128h-54q-197 0 -307 133t-86 332l125 1009q2 27 29 27h123q37 0 30 -35l-120 -989q-15 -129 39 -211t184 -82h53q129 0 208 86t95 215l121 989q2 27 29 27zM1085 2023l39 -94q8 -25 -18 -49
q-115 -72 -203 -74t-182 64q-94 51 -135 46t-140 -69q-20 -10 -34 25l-39 96q-8 25 18 47q117 72 205 75t180 -62q107 -67 173 -37q34 14 102 59q24 12 34 -27z" />
    <glyph glyph-name="utilde" unicode="&#x169;" horiz-adv-x="1067" 
d="M825 0h-123q-35 0 -30 35l6 41q-82 -78 -193 -78h-84q-153 0 -231 108t-59 263l69 567q6 27 31 27h123q35 0 31 -35l-70 -568q-10 -76 29 -126t112 -50h86q61 0 120 47q58 47 67 103l73 602q2 27 31 27h123q35 0 31 -35l-111 -901q-6 -27 -31 -27zM975 1499l39 -94
q8 -25 -19 -49q-115 -72 -203 -74t-182 64q-94 51 -135 46t-139 -69q-20 -10 -35 25l-39 96q-8 25 19 47q117 72 205 75t180 -63q104 -65 173 -37q34 14 101 60q25 12 35 -27z" />
    <glyph glyph-name="Umacron" unicode="&#x16a;" horiz-adv-x="1179" 
d="M1008 1489h122q37 0 31 -35l-123 -1010q-25 -200 -164 -328t-335 -128h-54q-197 0 -307 133t-86 332l125 1009q2 27 29 27h123q37 0 30 -35l-120 -989q-15 -129 39 -211t184 -82h53q129 0 208 86t95 215l121 989q2 27 29 27zM1071 1827h-663q-35 0 -31 35l14 123
q2 27 29 26h663q13 0 23 -10t8 -25l-14 -123q-2 -26 -29 -26z" />
    <glyph glyph-name="umacron" unicode="&#x16b;" horiz-adv-x="1067" 
d="M825 0h-123q-35 0 -30 35l6 41q-82 -78 -193 -78h-84q-153 0 -231 108t-59 263l69 567q6 27 31 27h123q35 0 31 -35l-70 -568q-10 -76 29 -126t112 -50h86q61 0 120 47q58 47 67 103l73 602q2 27 31 27h123q35 0 31 -35l-111 -901q-6 -27 -31 -27zM961 1303h-664
q-35 0 -31 34l15 123q2 27 28 27h664q14 0 23 -10t8 -25l-15 -123q-1 -26 -28 -26z" />
    <glyph glyph-name="Ubreve" unicode="&#x16c;" horiz-adv-x="1179" 
d="M1008 1489h122q37 0 31 -35l-123 -1010q-25 -200 -164 -328t-335 -128h-54q-197 0 -307 133t-86 332l125 1009q2 27 29 27h123q37 0 30 -35l-120 -989q-15 -129 39 -211t184 -82h53q129 0 208 86t95 215l121 989q2 27 29 27zM983 2163h102q37 0 31 -39
q-23 -143 -108 -226q-86 -82 -222 -81h-100q-135 0 -206 88t-56 237q2 20 29 21h102q37 0 31 -39q-8 -143 121 -144h81q70 0 112 46t54 116q2 21 29 21z" />
    <glyph glyph-name="ubreve" unicode="&#x16d;" horiz-adv-x="1067" 
d="M825 0h-123q-35 0 -30 35l6 41q-82 -78 -193 -78h-84q-153 0 -231 108t-59 263l69 567q6 27 31 27h123q35 0 31 -35l-70 -568q-10 -76 29 -126t112 -50h86q61 0 120 47q58 47 67 103l73 602q2 27 31 27h123q35 0 31 -35l-111 -901q-6 -27 -31 -27zM872 1638h103
q37 0 31 -39q-23 -143 -109 -225t-221 -82h-101q-135 0 -205 88t-57 238q2 20 29 20h102q37 0 31 -39q-8 -143 121 -143h82q70 0 112 46t54 116q1 20 28 20z" />
    <glyph glyph-name="Uring" unicode="&#x16e;" horiz-adv-x="1179" 
d="M1008 1489h122q37 0 31 -35l-123 -1010q-25 -200 -164 -328t-335 -128h-54q-197 0 -307 133t-86 332l125 1009q2 27 29 27h123q37 0 30 -35l-120 -989q-15 -129 39 -211t184 -82h53q129 0 208 86t95 215l121 989q2 27 29 27zM770 2042h-12q-33 0 -58 -22t-28 -54v-10
q-10 -70 59 -70h12q35 0 59 22t27 56q16 78 -59 78zM756 2165h26q82 -1 131 -57t39 -138l-2 -22q-10 -82 -67 -133t-142 -52h-26q-84 -1 -131 55t-37 138l2 22q10 82 67 135q58 52 140 52z" />
    <glyph glyph-name="uring" unicode="&#x16f;" horiz-adv-x="1067" 
d="M825 0h-123q-35 0 -30 35l6 41q-82 -78 -193 -78h-84q-153 0 -231 108t-59 263l69 567q6 27 31 27h123q35 0 31 -35l-70 -568q-10 -76 29 -126t112 -50h86q61 0 120 47q58 47 67 103l73 602q2 27 31 27h123q35 0 31 -35l-111 -901q-6 -27 -31 -27zM659 1518h-12
q-33 0 -57 -22t-29 -54v-10q-10 -70 60 -70h12q35 0 59 22t27 56q16 78 -60 78zM645 1640h27q82 0 131 -56t39 -138l-2 -23q-10 -82 -68 -133t-141 -51h-27q-84 0 -131 55t-37 138l2 22q10 82 68 134t139 52z" />
    <glyph glyph-name="Uhungarumlaut" unicode="&#x170;" horiz-adv-x="1179" 
d="M1008 1489h122q37 0 31 -35l-123 -1010q-25 -200 -164 -328t-335 -128h-54q-197 0 -307 133t-86 332l125 1009q2 27 29 27h123q37 0 30 -35l-120 -989q-15 -129 39 -211t184 -82h53q129 0 208 86t95 215l121 989q2 27 29 27zM1053 2163h151q18 1 26 -11t-1 -30l-228 -379
q-20 -33 -45 -33h-127q-16 0 -23 12t3 29l201 379q16 33 43 33zM698 2163h152q18 1 26 -11t-2 -30l-227 -379q-20 -33 -45 -33h-127q-16 0 -23 12t3 29l200 379q16 33 43 33z" />
    <glyph glyph-name="uhungarumlaut" unicode="&#x171;" horiz-adv-x="1067" 
d="M825 0h-123q-35 0 -30 35l6 41q-82 -78 -193 -78h-84q-153 0 -231 108t-59 263l69 567q6 27 31 27h123q35 0 31 -35l-70 -568q-10 -76 29 -126t112 -50h86q61 0 120 47q58 47 67 103l73 602q2 27 31 27h123q35 0 31 -35l-111 -901q-6 -27 -31 -27zM1094 1638q18 0 26 -11
t-2 -30l-227 -378q-20 -33 -45 -33h-127q-16 0 -24 12q-7 13 3 29l201 379q16 33 43 32h152zM739 1638q19 0 27 -11t-2 -30l-227 -378q-20 -33 -45 -33h-127q-16 0 -24 12q-7 13 3 29l201 379q16 33 43 32h151z" />
    <glyph glyph-name="Uogonek" unicode="&#x172;" horiz-adv-x="1179" 
d="M1008 1489h122q37 0 31 -35l-123 -1010q-16 -140 -93 -248t-193 -161q6 -6 6 -17q20 -174 -137 -192q-86 -6 -168 -19q-37 0 -41 -38q-2 -16 16 -17h285q10 0 16 -8t4 -18l-12 -95q0 -16 -19 -16h-262q-100 0 -142 40q-42 41 -34 109t21 98q20 50 92 64q20 4 115 17
t108 49q-41 -4 -61 -4h-54q-197 0 -307 133t-86 332l125 1009q2 27 29 27h123q37 0 30 -35l-120 -989q-15 -129 39 -211t184 -82h53q129 0 208 86t95 215l121 989q2 27 29 27z" />
    <glyph glyph-name="uogonek" unicode="&#x173;" horiz-adv-x="1067" 
d="M813 963h123q35 0 31 -35l-111 -901l-4 -13q18 -170 -137 -188q-86 -6 -168 -19q-37 0 -41 -38q-2 -16 16 -17h285q10 0 16 -8t4 -18l-12 -95q0 -16 -18 -16h-262q-100 0 -143 40q-42 41 -34 109t21 98q20 50 77 61q58 12 112 19t80 13q42 10 50 45q-31 4 -26 35l6 41
q-82 -78 -193 -78h-84q-153 0 -231 108t-59 263l69 567q6 27 31 27h123q35 0 31 -35l-70 -568q-10 -76 29 -126t112 -50h86q61 0 120 47q58 47 67 103l73 602q2 27 31 27z" />
    <glyph glyph-name="Wcircumflex" unicode="&#x174;" horiz-adv-x="1880" 
d="M1753 1487h125q16 0 24 -9t5 -24l-502 -1427q-10 -27 -41 -27h-102q-29 0 -35 35l-211 1124l-488 -1132q-12 -27 -41 -27h-102q-33 0 -37 35l-151 1423q-6 29 22 29h127q31 0 35 -35l106 -1100l465 1106q12 29 41 29h107q35 0 41 -33l194 -1102l381 1104q12 31 37 31z
M1071 2163h121q27 0 45 -37l217 -365q18 -37 -16 -37h-135q-18 0 -43 43l-140 234l-198 -240q-29 -37 -50 -37h-137q-16 0 -22 14t4 29l305 367q27 29 49 29z" />
    <glyph glyph-name="wcircumflex" unicode="&#x175;" horiz-adv-x="1402" 
d="M1223 963h127q16 1 23 -11t1 -28l-352 -895q-12 -29 -39 -29h-106q-29 0 -37 37l-123 625l-283 -633q-12 -29 -39 -29h-106q-29 0 -37 37l-133 895q-6 31 24 31h127q29 0 33 -39l80 -645l270 653q10 31 39 31h109q27 0 33 -39l110 -645l240 653q10 31 39 31zM889 1638
q27 0 45 -36l217 -365q18 -37 -16 -37h-136q-18 0 -43 43l-139 234l-199 -240q-29 -37 -49 -37h-137q-16 0 -22 14t4 29l305 367q27 29 49 28h121z" />
    <glyph glyph-name="Ycircumflex" unicode="&#x176;" horiz-adv-x="1128" 
d="M1004 1487h141q16 0 24 -10t0 -25l-518 -799l-78 -626q-2 -27 -30 -27h-123q-35 0 -31 35l78 618l-313 807q-10 27 16 27h141q29 0 39 -35l230 -600l383 608q16 27 41 27zM674 2163h121q27 0 45 -37l217 -365q18 -37 -17 -37h-135q-18 0 -43 43l-139 234l-199 -240
q-29 -37 -49 -37h-137q-16 0 -22 14t3 29l306 367q27 29 49 29z" />
    <glyph glyph-name="ycircumflex" unicode="&#x177;" horiz-adv-x="1064" 
d="M879 963h135q18 -1 23 -13t-3 -28l-704 -1301q-18 -31 -47 -31h-136q-18 0 -24 12t2 29l248 457l-250 842q-10 33 16 33h137q29 0 39 -39l185 -602l331 610q19 31 48 31zM401 1200h-137q-16 0 -22 14t4 29l305 367q27 29 49 28h121q27 0 45 -36l217 -365q18 -37 -16 -37
h-136q-18 0 -43 43l-139 234l-198 -240q-30 -37 -50 -37z" />
    <glyph glyph-name="Ydieresis" unicode="&#x178;" horiz-adv-x="1128" 
d="M1004 1487h141q16 0 24 -10t0 -25l-518 -799l-78 -626q-2 -27 -30 -27h-123q-35 0 -31 35l78 618l-313 807q-10 27 16 27h141q29 0 39 -35l230 -600l383 608q16 27 41 27zM1075 2011q35 0 31 -35l-23 -182q-2 -27 -28 -27h-174q-37 0 -31 35l22 183q2 27 29 26h174z
M532 2011q37 0 31 -35l-22 -182q-2 -27 -29 -27h-174q-35 0 -31 35l23 183q2 27 28 26h174z" />
    <glyph glyph-name="Zacute" unicode="&#x179;" horiz-adv-x="1107" 
d="M926 184q35 0 30 -34l-16 -123q-2 -27 -31 -27h-841q-35 0 -31 35l10 76q0 10 6 28l797 1164h-621q-35 0 -30 34l14 123q2 27 29 27h841q37 0 31 -35l-8 -76q0 -10 -6 -28l-795 -1164h621zM858 2163h152q18 1 26 -11t-2 -30l-227 -379q-20 -33 -45 -33h-127q-16 0 -24 12
q-7 13 3 29l201 379q16 33 43 33z" />
    <glyph glyph-name="zacute" unicode="&#x17a;" horiz-adv-x="905" 
d="M741 184q37 0 33 -34l-16 -123q-2 -27 -31 -27h-680q-35 0 -31 35l11 88q4 25 12 35l549 620h-445q-35 0 -30 35l14 121q4 16 10 22t21 7h678q36 0 32 -35l-10 -94q-4 -20 -12 -31l-547 -619h442zM844 1638q18 0 26 -11t-2 -30l-227 -378q-20 -33 -45 -33h-127
q-16 0 -24 12q-6 13 4 29l200 379q16 33 43 32h152z" />
    <glyph glyph-name="Zdotaccent" unicode="&#x17b;" horiz-adv-x="1107" 
d="M926 184q35 0 30 -34l-16 -123q-2 -27 -31 -27h-841q-35 0 -31 35l10 76q0 10 6 28l797 1164h-621q-35 0 -30 34l14 123q2 27 29 27h841q37 0 31 -35l-8 -76q0 -10 -6 -28l-795 -1164h621zM637 2011h182q35 0 31 -37l-23 -186q-2 -29 -30 -29h-183q-36 0 -30 37l22 186
q2 29 31 29z" />
    <glyph glyph-name="zdotaccent" unicode="&#x17c;" horiz-adv-x="905" 
d="M741 184q37 0 33 -34l-16 -123q-2 -27 -31 -27h-680q-35 0 -31 35l11 88q4 25 12 35l549 620h-445q-35 0 -30 35l14 121q4 16 10 22t21 7h678q36 0 32 -35l-10 -94q-4 -20 -12 -31l-547 -619h442zM471 1487h182q35 0 31 -37l-22 -186q-2 -29 -31 -29h-182q-37 0 -31 37
l22 186q2 29 31 29z" />
    <glyph glyph-name="Zcaron" unicode="&#x17d;" horiz-adv-x="1107" 
d="M926 184q35 0 30 -34l-16 -123q-2 -27 -31 -27h-841q-35 0 -31 35l10 76q0 10 6 28l797 1164h-621q-35 0 -30 34l14 123q2 27 29 27h841q37 0 31 -35l-8 -76q0 -10 -6 -28l-795 -1164h621zM530 2163q18 0 43 -43l140 -234l198 242q29 35 50 35h137q16 -1 24 -15t-4 -28
l-305 -367q-27 -29 -53 -29h-121q-23 0 -43 35l-215 367q-8 14 -3 25t19 12h133z" />
    <glyph glyph-name="zcaron" unicode="&#x17e;" horiz-adv-x="905" 
d="M741 184q37 0 33 -34l-16 -123q-2 -27 -31 -27h-680q-35 0 -31 35l11 88q4 25 12 35l549 620h-445q-35 0 -30 35l14 121q4 16 10 22t21 7h678q36 0 32 -35l-10 -94q-4 -20 -12 -31l-547 -619h442zM231 1638h134q18 0 43 -43l139 -233l198 242q29 35 50 34h137
q16 0 24 -14t-4 -29l-305 -366q-27 -29 -53 -29h-121q-23 0 -43 35l-215 367q-8 14 -3 25t19 11z" />
    <glyph glyph-name="florin" unicode="&#x192;" horiz-adv-x="952" 
d="M920 1487h79q35 0 31 -35l-14 -123q-6 -27 -31 -26h-18q-215 0 -244 -236l-135 -1096q-20 -174 -122 -277t-253 -104h-80q-37 0 -31 35l15 123q2 27 28 27h19q217 0 246 235l94 768h-103q-35 0 -30 35l16 123q2 27 31 27h106l19 143q23 174 124 278t253 103z" />
    <glyph glyph-name="Acaron" unicode="&#x1cd;" horiz-adv-x="1230" 
d="M791 575l-101 570l-244 -570h345zM1044 0h-122q-31 0 -37 37l-62 354h-454l-156 -362q-12 -29 -39 -29h-125q-16 0 -23 10t-1 27l608 1427q12 29 39 29h106q33 0 37 -37l252 -1427q6 -29 -23 -29zM1018 2163h137q17 -1 25 -15t-4 -28l-306 -367q-27 -29 -53 -29h-121
q-23 0 -43 35l-215 367q-8 14 -3 25t20 12h133q18 0 43 -43l139 -234l199 242q29 35 49 35z" />
    <glyph glyph-name="acaron" unicode="&#x1ce;" horiz-adv-x="942" 
d="M322 182h104q106 2 197 97l16 135h-281q-55 0 -91 -31t-43 -82t22 -85t76 -34zM471 967h96q127 -1 212 -103t67 -258l-68 -555q-2 -11 2 -31t-8 -20h-145q-16 0 -27 15q-10 15 -6 38l2 23q-102 -78 -199 -78h-96q-113 -2 -193 89t-64 217q14 126 108 204t225 78h282l5 37
q10 81 -24 121t-101 40h-99q-100 0 -182 -65q-23 -16 -45 8l-59 84q-23 25 -4 43q124 113 321 113zM813 1638h137q16 0 24 -14t-3 -29l-305 -366q-27 -29 -54 -29h-120q-23 0 -43 35l-216 367q-8 14 -3 25t20 11h133q18 0 43 -43l139 -233l199 242q29 34 49 34z" />
    <glyph glyph-name="Icaron" unicode="&#x1cf;" horiz-adv-x="538" 
d="M279 1487h124q37 0 31 -35l-174 -1425q-2 -27 -31 -27h-125q-34 0 -30 35l176 1425q2 27 29 27zM207 2163q18 0 43 -43l139 -234l199 242q29 35 49 35h137q16 -1 24 -15t-3 -28l-306 -367q-27 -29 -53 -29h-121q-23 0 -43 35l-215 367q-8 14 -3 25t20 12h133z" />
    <glyph glyph-name="icaron" unicode="&#x1d0;" horiz-adv-x="512" 
d="M240 965h122q35 0 31 -35l-110 -903q-2 -27 -31 -27h-123q-35 0 -31 35l113 903q2 27 29 27zM35 1638h133q18 0 43 -43l139 -233l199 242q29 35 49 34h137q17 0 25 -14t-4 -29l-305 -366q-27 -29 -54 -29h-121q-23 0 -43 35l-215 367q-8 14 -3 25t20 11z" />
    <glyph glyph-name="Ocaron" unicode="&#x1d1;" horiz-adv-x="1200" 
d="M496 170h100q110 0 190 87t97 214l69 563q16 127 -40 210t-164 83h-101q-109 0 -189 -87t-98 -214l-69 -563q-17 -127 41 -210t164 -83zM662 1511h100q176 0 287 -145t86 -348l-66 -547q-27 -203 -169 -344t-318 -141h-101q-179 0 -289 145t-83 348l67 547
q27 203 168 344q142 141 318 141zM575 2163q18 0 43 -43l140 -234l198 242q29 35 50 35h137q16 -1 24 -15t-4 -28l-305 -367q-27 -29 -53 -29h-121q-23 0 -43 35l-215 367q-8 14 -3 25t19 12h133z" />
    <glyph glyph-name="ocaron" unicode="&#x1d2;" horiz-adv-x="1052" 
d="M590 784h-84q-82 0 -140 -60t-69 -140l-27 -213q-10 -80 31 -134t123 -55h84q82 0 140 58t67 139l26 213q10 80 -29 136q-40 56 -122 56zM522 969h80q152 0 247 -115t77 -270l-27 -213q-18 -153 -137 -263t-270 -110h-80q-154 0 -249 113t-77 268l27 213q19 156 137 266
t272 111zM297 1638h133q18 0 43 -43l139 -233l199 242q29 35 49 34h137q17 0 25 -14t-4 -29l-305 -366q-27 -29 -54 -29h-120q-23 0 -43 35l-215 367q-8 14 -3 25t19 11z" />
    <glyph glyph-name="Ucaron" unicode="&#x1d3;" horiz-adv-x="1179" 
d="M1008 1489h122q37 0 31 -35l-123 -1010q-25 -200 -164 -328t-335 -128h-54q-197 0 -307 133t-86 332l125 1009q2 27 29 27h123q37 0 30 -35l-120 -989q-15 -129 39 -211t184 -82h53q129 0 208 86t95 215l121 989q2 27 29 27zM555 2163q18 0 43 -43l139 -234l199 242
q29 35 49 35h137q16 -1 24 -15t-3 -28l-305 -367q-27 -29 -54 -29h-120q-23 0 -43 35l-215 367q-8 14 -4 25q5 11 20 12h133z" />
    <glyph glyph-name="ucaron" unicode="&#x1d4;" horiz-adv-x="1067" 
d="M825 0h-123q-35 0 -30 35l6 41q-82 -78 -193 -78h-84q-153 0 -231 108t-59 263l69 567q6 27 31 27h123q35 0 31 -35l-70 -568q-10 -76 29 -126t112 -50h86q61 0 120 47q58 47 67 103l73 602q2 27 31 27h123q35 0 31 -35l-111 -901q-6 -27 -31 -27zM311 1638h133
q18 0 43 -43l140 -233l198 242q29 35 49 34h138q16 0 24 -14t-4 -29l-305 -366q-27 -29 -53 -29h-121q-23 0 -43 35l-215 367q-8 14 -3 25t19 11z" />
    <glyph glyph-name="Gcaron" unicode="&#x1e6;" horiz-adv-x="1179" 
d="M645 770h412q37 0 30 -35l-32 -284q-27 -203 -165 -340.5t-317 -137.5h-98q-184 0 -294.5 142.5t-84.5 351.5l70 559q27 209 167 346t322 137h99q174 0 282.5 -140t87.5 -341q-2 -23 -30 -22h-123q-37 0 -31 41q14 125 -41 201.5t-162 76.5h-98q-113 0 -193.5 -84
t-97.5 -223l-67 -559q-18 -141 37 -221t169 -80h99q109 0 187.5 83t94.5 218l17 127h-254q-35 0 -31 35l16 122q2 27 29 27zM444 2163h134q18 0 43 -43l139 -234l198 242q29 35 50 35h137q16 0 24.5 -14.5t-4.5 -28.5l-305 -367q-27 -29 -53 -29h-121q-23 0 -43 35l-215 367
q-8 14 -3 25.5t19 11.5z" />
    <glyph glyph-name="gcaron" unicode="&#x1e7;" horiz-adv-x="1001" 
d="M420 182h69q86 0 164 78l52 412q4 43 -39 78t-101 34h-73q-70 0 -130 -57t-71 -133l-29 -234q-8 -74 39 -126t119 -52zM801 963h92q35 0 31 -35l-127 -1034q-14 -115 -125 -209t-244 -95h-51q-107 0 -193 58t-129 155q-12 27 17 39l96 45q25 10 45 -22q59 -90 166 -90h63
q53 0 108 38q54 38 60 95l15 129q-82 -39 -156 -39h-63q-145 0 -245 114q-99 114 -83 257l28 233q18 145 138 256t262 111h74q90 0 170 -70l6 29q2 35 45 35zM281 1638h133q18 0 43 -43l139 -233l199 242q29 35 49 34h137q17 0 25 -14t-5 -29l-305 -366q-27 -29 -53 -29
h-121q-23 0 -43 35l-215 367q-8 14 -3 25t20 11z" />
    <glyph glyph-name="Scommaaccent" unicode="&#x218;" horiz-adv-x="1173" 
d="M311 -369h189q35 0 28 -34l-28 -246q-31 -221 -156 -350q-20 -16 -41 8l-59 59q-25 31 -11 47q57 45 77 97.5t28 134.5l18 16h-71q-35 0 -31 35l27 207q1 26 30 26zM633 1518h106q166 0 278.5 -125t90.5 -310l-4 -36q-2 -27 -29 -27h-125q-35 0 -30 35l4 37
q14 111 -45.5 176t-155.5 65h-107q-98 0 -167.5 -64.5t-83.5 -168.5q-25 -195 200 -236l111 -20q197 -33 293 -145.5t72 -300.5t-163 -302t-315 -114h-94q-170 0 -286.5 119.5t-96.5 297.5l8 58q2 27 31 26h125q35 0 29 -34l-5 -58q-8 -104 51.5 -164.5t157.5 -60.5h95
q104 0 185 67.5t95 178t-36 169t-165 78.5l-110 23q-408 78 -363 442q20 174 149.5 284t299.5 110z" />
    <glyph glyph-name="scommaaccent" unicode="&#x219;" horiz-adv-x="968" 
d="M211 -369h188q35 0 29 -34l-29 -246q-31 -221 -155 -350q-20 -16 -41 8l-60 59q-25 31 -10 47q57 45 76.5 97.5t28.5 134.5l18 16h-72q-35 0 -30 35l26 207q2 26 31 26zM438 -10h-51q-127 0 -225.5 81t-93.5 197q0 20 26 21h127q27 0 37 -33q6 -39 46 -60.5t93 -21.5h70
q70 0 123 29.5t59 82t-29.5 72t-144.5 31.5q-190 18 -280.5 90t-73 209t125 210t259.5 73h41q133 0 232.5 -87t84.5 -216q-4 -25 -28 -25h-123q-39 0 -34 43t-40 71.5t-107 28.5h-55q-162 0 -172 -108q-6 -47 29.5 -70t144.5 -37q193 -23 281 -91t71.5 -202.5t-131 -211
t-262.5 -76.5z" />
    <glyph glyph-name="uni021A" unicode="&#x21a;" horiz-adv-x="1132" 
d="M293 -369h188q35 0 29 -34l-29 -246q-31 -221 -155 -350q-20 -16 -41 8l-60 59q-25 31 -10 47q57 45 76.5 97.5t27.5 134.5l19 16h-72q-35 0 -30 35l26 207q2 26 31 26zM223 1487h899q35 0 31 -35l-14 -123q-6 -27 -31 -26h-360l-156 -1276q-6 -27 -31 -27h-123
q-35 0 -30 35l155 1268h-354q-35 0 -31 34l17 123q1 27 28 27z" />
    <glyph glyph-name="uni021B" unicode="&#x21b;" horiz-adv-x="667" 
d="M195 -369h188q35 0 29 -34l-29 -246q-31 -221 -156 -350q-20 -16 -41 8l-59 59q-25 31 -10 47q57 45 76.5 97.5t27.5 134.5l19 16h-72q-35 0 -31 35l27 207q2 26 31 26zM580 963q37 0 32 -35l-14 -123q-2 -27 -31 -27h-151l-54 -438q-18 -147 113 -152q18 0 29.5 -8
t9.5 -22l-14 -133q-2 -29 -21 -29q-145 -4 -235 68.5t-72 224.5l59 489h-98q-35 0 -31 33l15 121q2 31 30 31h107l27 217q2 27 28 26h123q16 0 25.5 -10t7.5 -25l-27 -208h142z" />
    <glyph glyph-name="uni0228" unicode="&#x228;" horiz-adv-x="1138" 
d="M272 1487h822q37 0 30 -35l-14 -123q-2 -27 -29 -26h-671l-58 -461h531q35 0 30 -35l-16 -123q-2 -27 -29 -27h-538l-58 -473h664q35 0 31 -34l-17 -123q-2 -27 -30 -27h-308q0 -6 -7 -15t-15 -20.5t-9 -18.5t-1 -11.5t8 -7.5t18 -7t29 -4q104 -10 148 -47t32 -137
q-16 -145 -205 -146h-125q-84 0 -127 49.5t-34 131.5q4 12 16 12h117q8 0 15 -7.5t5 -25t13.5 -25.5t52.5 -8h35q43 0 62 8.5t22.5 30.5t-16 28.5t-63.5 11.5t-56.5 7t-34.5 4q-23 1 -40 5q-18 4 -32 10q-37 15 -41.5 61t55.5 121h-336q-35 0 -30 35l176 1425q1 27 28 27z
" />
    <glyph glyph-name="uni0229" unicode="&#x229;" horiz-adv-x="1001" 
d="M584 784h-78q-70 0 -132.5 -54t-70.5 -124l-4 -20h422l4 28q8 74 -37 122t-104 48zM487 -58q0 -12 8.5 -15t18.5 -7t29 -4q104 -10 148 -47t32 -137q-16 -145 -205 -146h-125q-84 0 -127 49.5t-35 131.5q2 12 17 12h117q8 0 15 -7.5t5 -25t13.5 -25.5t52.5 -8h34
q43 0 62.5 8.5t22.5 30.5t-16 28.5t-63 11.5t-56.5 7t-35 4t-46.5 5.5t-46 21.5t-19 64.5t56 109.5q-123 27 -196.5 131.5t-59.5 233.5l29 233q18 147 139 257t266 110h78q129 0 227.5 -109.5t79.5 -263.5l-14 -113q-6 -57 -64 -57h-548l-9 -66q-8 -78 37 -128t117 -50h82
q90 0 194 117q23 20 46 -6l81 -78q20 -25 9 -47q-164 -160 -318 -168l-2 -10q-31 -36 -31 -48z" />
    <glyph glyph-name="dotlessj" unicode="&#x237;" horiz-adv-x="505" 
d="M233 965h123q35 0 31 -35l-129 -1047q-14 -113 -95 -206t-196 -128q-33 -6 -41 27l-35 117q-8 25 13 39q61 18 113 63t59 103l127 1040q2 27 30 27z" />
    <glyph glyph-name="circumflex" unicode="&#x2c6;" horiz-adv-x="956" 
d="M666 1638q27 0 45 -36l217 -365q18 -37 -17 -37h-135q-18 0 -43 43l-139 234l-199 -240q-27 -37 -49 -37h-137q-16 0 -23 14q-6 15 4 29l306 367q27 29 49 28h121z" />
    <glyph glyph-name="caron" unicode="&#x2c7;" horiz-adv-x="954" 
d="M256 1638h133q18 0 43 -43l139 -233l199 242q29 35 49 34h137q16 0 24 -14t-3 -29l-305 -366q-27 -29 -54 -29h-120q-23 0 -43 35l-215 367q-8 14 -3 25t19 11z" />
    <glyph glyph-name="breve" unicode="&#x2d8;" horiz-adv-x="899" 
d="M791 1638h102q37 0 31 -39q-23 -143 -109 -225t-221 -82h-100q-135 0 -206 88t-57 238q2 20 29 20h102q37 0 31 -39q-8 -143 121 -143h82q70 0 112 46t54 116q2 20 29 20z" />
    <glyph glyph-name="dotaccent" unicode="&#x2d9;" horiz-adv-x="450" 
d="M244 1487h182q35 0 31 -37l-23 -186q-2 -29 -31 -29h-182q-37 0 -31 37l23 186q2 29 31 29z" />
    <glyph glyph-name="ring" unicode="&#x2da;" horiz-adv-x="608" 
d="M432 1518h-12q-33 0 -58 -22t-28 -54v-10q-10 -70 59 -70h13q36 0 60 22t26 56q16 78 -60 78zM418 1640h26q82 0 131 -56t39 -138l-2 -23q-10 -82 -67 -133t-142 -51h-26q-84 0 -131 55t-37 138l2 22q9 82 67 134t140 52z" />
    <glyph glyph-name="ogonek" unicode="&#x2db;" horiz-adv-x="659" 
d="M121 -414q-100 0 -144 40q-43 40 -32 128q6 49 18 79q18 46 94 65q19 4 69 10q124 15 139 33q25 30 23 50q-3 21 2 22t15 1h109q8 0 17 -7t7 -19q20 -172 -137 -191q-86 -6 -168 -18q-37 0 -41 -39q-2 -16 17 -16h284q11 0 17 -8t4 -19l-13 -94q0 -16 -18 -17h-262z" />
    <glyph glyph-name="tilde" unicode="&#x2dc;" horiz-adv-x="972" 
d="M928 1499l39 -94q8 -25 -19 -49q-115 -72 -203 -74t-182 64q-94 51 -135 46t-139 -69q-20 -10 -35 25l-39 96q-8 25 18 47q117 72 205 75t180 -63q105 -66 174 -37q34 14 101 60q25 12 35 -27z" />
    <glyph glyph-name="hungarumlaut" unicode="&#x2dd;" horiz-adv-x="937" 
d="M936 1638q18 0 26 -11t-1 -30l-228 -378q-20 -33 -45 -33h-127q-16 0 -23 12t3 29l200 379q16 33 43 32h152zM582 1638q18 0 26 -11t-2 -30l-227 -378q-20 -33 -45 -33h-127q-16 0 -24 12q-7 13 3 29l201 379q16 33 43 32h152z" />
    <glyph glyph-name="uni0326" unicode="&#x326;" horiz-adv-x="0" 
d="M-49 -410h188q35 0 31 -34l-31 -246q-25 -215 -155 -350q-20 -16 -41 8l-60 59q-25 31 -10 47q57 45 76.5 97.5t27.5 134.5l19 16h-72q-35 0 -30 35l26 207q2 26 31 26z" />
    <glyph glyph-name="Delta" unicode="&#x394;" horiz-adv-x="1251" 
d="M885 184l-176 1033l-439 -1033h615zM1065 0h-1016q-16 0 -23 10t-1 27l618 1427q12 29 39 29h106q33 0 37 -37l262 -1427q6 -29 -22 -29z" />
    <glyph glyph-name="Omega" unicode="&#x3a9;" horiz-adv-x="1241" 
d="M1024 0h-365q-35 0 -30 35l22 184q2 27 31 27h6q90 0 161 89t87 210l59 481q16 145 -40 223t-167 78h-94q-112 0 -190 -82t-96 -227l-60 -481q-14 -121 32 -206t136 -85h6q35 0 31 -35l-23 -184q-6 -27 -30 -27h-365q-35 0 -31 35l15 123q6 27 31 26l124 4
q-133 162 -108 367l59 471q25 203 167 344t319 141h94q176 0 287 -145t86 -348l-60 -471q-25 -209 -190 -365l110 2q35 0 31 -34l-14 -123q-6 -27 -31 -27z" />
    <glyph glyph-name="mu" unicode="&#x3bc;" horiz-adv-x="1134" 
d="M813 963h123q35 0 31 -35l-111 -901q-6 -27 -31 -27h-123q-35 0 -30 35l6 41q-82 -78 -193 -78h-84q-84 0 -147 35l-51 -416q-2 -27 -29 -27h-123q-35 0 -31 35l160 1311q6 27 31 27h123q35 0 31 -35l-70 -568q-10 -76 29 -126t112 -50h86q61 0 120 47q58 47 67 103
l73 602q2 27 31 27z" />
    <glyph glyph-name="pi" unicode="&#x3c0;" horiz-adv-x="1165" 
d="M1077 963q13 -1 23 -11t8 -24l-16 -125q-2 -25 -29 -25h-53l-92 -751q-2 -27 -31 -27h-123q-35 0 -31 35l92 743h-434l-92 -751q-2 -27 -31 -27h-123q-35 0 -30 35l92 743h-43q-35 0 -31 35l14 123q5 27 29 27h901z" />
    <glyph glyph-name="uni0401" unicode="&#x401;" horiz-adv-x="1138" 
d="M883 842q35 0 30 -35l-16 -123q-2 -27 -29 -27h-538l-58 -473h664q35 0 31 -34l-17 -123q-2 -27 -30 -27h-822q-35 0 -30 35l176 1425q2 27 28 27h822q37 0 30 -35l-14 -123q-2 -27 -29 -26h-671l-58 -461h531zM1122 2011q35 0 31 -35l-23 -182q-2 -27 -28 -27h-174
q-37 0 -31 35l23 183q2 27 28 26h174zM580 2011q37 0 30 -35l-22 -182q-2 -27 -29 -27h-174q-35 0 -31 35l23 183q2 27 29 26h174z" />
    <glyph glyph-name="uni0403" unicode="&#x403;" horiz-adv-x="1148" 
d="M272 1487h822q37 0 30 -35l-14 -123q-2 -27 -29 -26h-673l-156 -1276q-2 -27 -31 -27h-123q-35 0 -30 35l176 1425q1 27 28 27zM670 1710h-127q-16 0 -24 12q-7 12 3 29l201 379q16 33 43 33h152q18 1 26 -11t-2 -30l-227 -379q-20 -33 -45 -33z" />
    <glyph glyph-name="uni0404" unicode="&#x404;" horiz-adv-x="1159" 
d="M649 1509h94q176 0 284 -140t87 -341q-2 -23 -31 -22h-122q-37 0 -31 41q16 125 -39 201.5t-162 76.5h-94q-113 0 -194 -84t-99 -223l-23 -182h375q37 0 31 -35l-14 -123q-2 -27 -31 -27h-383l-23 -190q-16 -141 40.5 -222t168.5 -81h95q106 0 186 85t94 218q2 20 31 20
h123q35 0 30 -39q-27 -197 -166 -333t-313 -136h-94q-182 0 -292.5 143.5t-86.5 352.5l70 557q27 209 167 346t322 137z" />
    <glyph glyph-name="uni0406" unicode="&#x406;" horiz-adv-x="538" 
d="M279 1487h124q37 0 31 -35l-174 -1425q-2 -27 -31 -27h-125q-34 0 -30 35l176 1425q2 27 29 27z" />
    <glyph glyph-name="uni0407" unicode="&#x407;" horiz-adv-x="538" 
d="M279 1487h124q37 0 31 -35l-174 -1425q-2 -27 -31 -27h-125q-34 0 -30 35l176 1425q2 27 29 27zM762 2011q35 0 31 -35l-23 -182q-2 -27 -29 -27h-174q-36 0 -30 35l22 183q2 27 29 26h174zM219 2011q37 0 31 -35l-23 -182q-2 -27 -28 -27h-174q-37 0 -31 35l22 183
q2 27 29 26h174z" />
    <glyph glyph-name="uni0408" unicode="&#x408;" horiz-adv-x="1118" 
d="M444 170h54q114 0 200 86t103 225l121 979q2 27 28 27h123q37 0 31 -35l-121 -989q-25 -213 -170 -345t-321 -132h-64q-126 0 -234 82t-141 208q-10 23 13 35l110 60q12 6 20 -3t11 -28q72 -170 237 -170z" />
    <glyph glyph-name="uni040C" unicode="&#x40c;" horiz-adv-x="1208" 
d="M1038 0h-149q-31 0 -51 33l-447 608l-82 -82l-67 -532q-2 -27 -31 -27h-123q-35 0 -31 35l176 1425q2 27 29 27h123q37 0 31 -35l-82 -653l610 663q25 25 41 25h162q16 0 21.5 -16.5t-11.5 -36.5l-614 -666l508 -721q10 -12 8 -29.5t-21 -17.5zM893 2163h151
q18 0 26.5 -11.5t-1.5 -29.5l-227 -379q-20 -33 -45 -33h-127q-16 0 -23.5 12.5t2.5 28.5l201 379q16 33 43 33z" />
    <glyph glyph-name="uni040D" unicode="&#x40d;" horiz-adv-x="1292" 
d="M272 1487h123q37 0 31 -35l-139 -1135l739 1151q12 18 37 19h174q37 0 31 -35l-174 -1425q-2 -27 -31 -27h-123q-35 0 -31 35l144 1134l-744 -1151q-12 -18 -37 -18h-174q-35 0 -30 35l176 1425q1 27 28 27zM842 1710h-117q-25 0 -39 41l-133 379q-10 33 18 33h142
q35 0 39 -41l108 -379q12 -33 -18 -33z" />
    <glyph glyph-name="uni040E" unicode="&#x40e;" horiz-adv-x="1224" 
d="M1073 1487h135q37 0 23 -41l-811 -1415q-18 -31 -47 -31h-135q-37 0 -23 41l303 528l-301 885q-10 33 16 33h138q31 0 41 -39l231 -660l385 668q16 31 45 31zM821 1817h-100q-135 0 -206 88t-56 237q2 20 28 21h103q37 0 31 -39q-8 -143 120 -144h82q70 0 112 46t54 116
q2 20 29 21h102q37 0 31 -39q-23 -143 -109 -225t-221 -82z" />
    <glyph glyph-name="uni0410" unicode="&#x410;" horiz-adv-x="1230" 
d="M791 575l-101 570l-244 -570h345zM1044 0h-122q-31 0 -37 37l-62 354h-454l-156 -362q-12 -29 -39 -29h-125q-16 0 -23 10t-1 27l608 1427q12 29 39 29h106q33 0 37 -37l252 -1427q6 -29 -23 -29z" />
    <glyph glyph-name="uni0411" unicode="&#x411;" horiz-adv-x="1183" 
d="M592 184q110 0 176 58t82 187q16 130 -33 183t-160 54h-327l-60 -482h322zM682 850q184 0 280 -118t71 -314t-145 -306q-120 -112 -302 -112h-488q-35 0 -30 35l176 1425q2 27 28 27h744q37 0 31 -35l-15 -123q-2 -27 -28 -26h-596l-56 -453h330z" />
    <glyph glyph-name="uni0412" unicode="&#x412;" horiz-adv-x="1196" 
d="M608 184q127 0 194 56t81 178q29 250 -205 250h-348l-58 -484h336zM694 852q205 0 236 248q27 203 -185 203h-335l-58 -451h342zM614 0h-510q-41 0 -34 41l172 1413q6 33 37 33h493q176 -1 270 -103t72 -282q-29 -256 -199 -342q182 -86 146 -381q-45 -379 -447 -379z
" />
    <glyph glyph-name="uni0413" unicode="&#x413;" horiz-adv-x="1148" 
d="M272 1487h822q37 0 30 -35l-14 -123q-2 -27 -29 -26h-673l-156 -1276q-2 -27 -31 -27h-123q-35 0 -30 35l176 1425q1 27 28 27z" />
    <glyph glyph-name="uni0414" unicode="&#x414;" horiz-adv-x="1554" 
d="M1083 184l140 1119h-576l-76 -615q-39 -322 -139 -504h651zM510 1487h883q37 0 30 -35l-155 -1268h114q35 0 31 -34l-41 -322q-2 -27 -31 -27h-122q-35 0 -31 35l20 164h-1011l-21 -172q-2 -27 -31 -27h-122q-35 0 -31 35l41 322q2 27 30 26h97q35 0 78 54t88 187
q45 134 67 320l88 715q2 27 29 27z" />
    <glyph glyph-name="uni0415" unicode="&#x415;" horiz-adv-x="1138" 
d="M883 842q35 0 30 -35l-16 -123q-2 -27 -29 -27h-538l-58 -473h664q35 0 31 -34l-17 -123q-2 -27 -30 -27h-822q-35 0 -30 35l176 1425q2 27 28 27h822q37 0 30 -35l-14 -123q-2 -27 -29 -26h-671l-58 -461h531z" />
    <glyph glyph-name="uni0416" unicode="&#x416;" horiz-adv-x="2004" 
d="M1827 0h-152q-27 0 -51 33l-444 608l-84 -82l-66 -532q-6 -27 -31 -27h-122q-35 0 -31 35l65 524l-59 82l-594 -614q-27 -27 -59 -27h-150q-18 0 -22 20t8 33l690 715l-444 672q-28 47 8 47h162q16 0 34 -31l453 -657l84 661q2 27 29 27h123q35 0 30 -35l-82 -653
l611 663q20 25 39 25h163q15 -1 21 -17t-10 -36l-617 -666l508 -721q16 -22 9 -34q-7 -13 -19 -13z" />
    <glyph glyph-name="uni0417" unicode="&#x417;" horiz-adv-x="1148" 
d="M389 -18q-168 0 -284 116t-93 297l4 39q6 27 31 27h125q35 0 31 -35l-6 -39q-12 -97 48 -159t158 -62h86q113 0 192 64t91 169q31 244 -215 256h-149q-35 0 -31 35l16 135q2 27 29 27h149q246 12 275 266q10 88 -46 148t-161 61h-86q-96 0 -176 -71t-94 -177l-4 -39
q-6 -27 -31 -26h-125q-35 0 -31 35l4 38q25 185 166 305t305 119h88q170 -1 283 -119t92 -284q-16 -139 -84 -222t-198 -132q242 -104 204 -383q-20 -172 -160 -281t-317 -108h-86z" />
    <glyph glyph-name="uni0418" unicode="&#x418;" horiz-adv-x="1292" 
d="M272 1487h123q37 0 31 -35l-139 -1135l739 1151q12 18 37 19h174q37 0 31 -35l-174 -1425q-2 -27 -31 -27h-123q-35 0 -31 35l144 1134l-744 -1151q-12 -18 -37 -18h-174q-35 0 -30 35l176 1425q1 27 28 27z" />
    <glyph glyph-name="uni0419" unicode="&#x419;" horiz-adv-x="1292" 
d="M272 1487h123q37 0 31 -35l-139 -1135l739 1151q12 18 37 19h174q37 0 31 -35l-174 -1425q-2 -27 -31 -27h-123q-35 0 -31 35l144 1134l-744 -1151q-12 -18 -37 -18h-174q-35 0 -30 35l176 1425q1 27 28 27zM1051 2163h102q37 0 31 -39q-23 -143 -109 -225t-221 -82h-100
q-135 0 -206 88t-56 237q2 20 28 21h103q37 0 30 -39q-8 -143 121 -144h82q70 0 112 46.5t54 115.5q2 21 29 21z" />
    <glyph glyph-name="uni041A" unicode="&#x41a;" horiz-adv-x="1208" 
d="M1038 0h-149q-31 0 -51 33l-447 608l-82 -82l-67 -532q-2 -27 -31 -27h-123q-35 0 -31 35l176 1425q2 27 29 27h123q37 0 31 -35l-82 -653l610 663q25 25 41 25h162q16 0 21.5 -16.5t-11.5 -36.5l-614 -666l508 -721q10 -12 8 -29.5t-21 -17.5z" />
    <glyph glyph-name="uni041B" unicode="&#x41b;" horiz-adv-x="1345" 
d="M387 1487h903q37 0 31 -35l-174 -1425q-2 -27 -31 -27h-123q-35 0 -30 35l157 1268h-596l-125 -1012q-20 -156 -133 -229t-248 -66q-37 0 -32 37l18 133q2 23 27 22q172 4 192 181l135 1091q2 27 29 27z" />
    <glyph glyph-name="uni041C" unicode="&#x41c;" horiz-adv-x="1480" 
d="M1231 1487h184q35 0 31 -35l-174 -1425q-6 -27 -31 -27h-123q-35 0 -31 35l136 1093l-469 -1101q-10 -27 -39 -27h-84q-33 0 -37 35l-201 1093l-135 -1101q-6 -27 -31 -27h-123q-35 0 -30 35l176 1425q2 27 29 27h184q35 0 39 -35l203 -1122l485 1130q10 27 41 27z" />
    <glyph glyph-name="uni041D" unicode="&#x41d;" horiz-adv-x="1220" 
d="M1038 1487h123q35 0 31 -35l-174 -1425q-6 -27 -31 -27h-123q-35 0 -30 35l71 581h-575l-72 -589q-6 -27 -31 -27h-123q-35 0 -30 35l176 1425q2 27 29 27h122q35 0 31 -35l-80 -651h576l82 659q1 27 28 27z" />
    <glyph glyph-name="uni041E" unicode="&#x41e;" horiz-adv-x="1200" 
d="M496 170h100q110 0 190 87t97 214l69 563q16 127 -40 210t-164 83h-101q-109 0 -189 -87t-98 -214l-69 -563q-17 -127 41 -210t164 -83zM662 1511h100q176 0 287 -145t86 -348l-66 -547q-27 -203 -169 -344t-318 -141h-101q-179 0 -289 145t-83 348l67 547
q27 203 168 344q142 141 318 141z" />
    <glyph glyph-name="uni041F" unicode="&#x41f;" horiz-adv-x="1251" 
d="M272 1487h924q37 0 31 -35l-174 -1425q-2 -27 -31 -27h-123q-35 0 -31 35l158 1268h-616l-158 -1276q-2 -27 -31 -27h-123q-35 0 -30 35l176 1425q1 27 28 27z" />
    <glyph glyph-name="uni0420" unicode="&#x420;" horiz-adv-x="1165" 
d="M672 821q229 0 260 252q16 125 -33 177t-160 53h-327l-60 -482h320zM276 1487h488q184 0 279 -117q95 -116 71 -312t-144 -308t-302 -113h-338l-74 -610q-6 -27 -31 -27h-123q-35 0 -30 35l155 1268l21 157q1 27 28 27z" />
    <glyph glyph-name="uni0421" unicode="&#x421;" horiz-adv-x="1159" 
d="M889 481h123q35 0 30 -39q-27 -197 -166 -333t-313 -136h-94q-182 0 -292.5 143.5t-86.5 352.5l70 557q27 209 167 346t322 137h94q176 0 284 -140t87 -341q-2 -23 -31 -22h-122q-37 0 -31 41q16 125 -39 201.5t-162 76.5h-94q-113 0 -194 -84t-99 -223l-68 -557
q-16 -141 40.5 -222t168.5 -81h95q106 0 186 85t94 218q2 20 31 20z" />
    <glyph glyph-name="uni0422" unicode="&#x422;" horiz-adv-x="1132" 
d="M223 1487h899q35 0 31 -35l-14 -123q-6 -27 -31 -26h-360l-156 -1276q-6 -27 -31 -27h-123q-35 0 -30 35l155 1268h-354q-35 0 -31 34l17 123q1 27 28 27z" />
    <glyph glyph-name="uni0423" unicode="&#x423;" horiz-adv-x="1224" 
d="M1073 1487h135q37 0 23 -41l-811 -1415q-18 -31 -47 -31h-135q-37 0 -23 41l303 528l-301 885q-10 33 16 33h138q31 0 41 -39l231 -660l385 668q16 31 45 31z" />
    <glyph glyph-name="uni0424" unicode="&#x424;" horiz-adv-x="1765" 
d="M1313 1139h-260l-97 -791h250q111 0 194 81t99 220l25 197q18 139 -41 216t-170 77zM625 1139q-111 0 -194 -81t-101 -220l-23 -197q-16 -139 43 -216t168 -77h254l98 791h-245zM1335 1323q170 0 283 -145t88 -340l-23 -197q-25 -195 -169 -336t-312 -141h-268l-16 -137
q-2 -27 -31 -27h-123q-35 0 -31 35l17 129h-256q-170 0 -283 145t-88 340l24 197q25 195 168 336t312 141h266l16 137q2 27 29 27h123q37 0 31 -35l-17 -129h260z" />
    <glyph glyph-name="uni0425" unicode="&#x425;" horiz-adv-x="1134" 
d="M987 1487h135q16 0 24 -10t-1 -25l-453 -717l275 -708q8 -27 -19 -27h-135q-25 0 -39 35l-199 516l-329 -524q-18 -27 -43 -27h-135q-16 0 -25 10q-8 10 0 25l455 717l-273 708q-10 27 17 27h135q27 0 37 -35l200 -516l332 524q16 27 41 27z" />
    <glyph glyph-name="uni0426" unicode="&#x426;" horiz-adv-x="1419" 
d="M1247 184q35 0 31 -34l-47 -365q-2 -27 -29 -27h-123q-35 0 -30 35l24 207h-975q-35 0 -30 35l176 1425q2 27 28 27h123q37 0 31 -35l-154 -1268h617l155 1276q2 27 29 27h123q37 0 31 -35l-156 -1268h176z" />
    <glyph glyph-name="uni0427" unicode="&#x427;" horiz-adv-x="1144" 
d="M946 1487h123q37 0 31 -35l-174 -1425q-2 -27 -31 -27h-123q-35 0 -31 35l66 534q-86 -45 -172 -45h-178q-143 0 -237 115q-93 115 -77 256l70 565q2 27 29 27h123q37 0 30 -35l-69 -567q-8 -76 32 -126t111 -50h182q59 0 118 42q58 42 73 99l76 610q1 27 28 27z" />
    <glyph glyph-name="uni0428" unicode="&#x428;" horiz-adv-x="2052" 
d="M1874 1487h123q37 0 31 -35l-175 -1425q-2 -27 -30 -27h-1725q-35 0 -30 35l176 1425q2 27 28 27h123q37 0 31 -35l-154 -1268h617l155 1276q2 27 29 27h123q37 0 31 -35l-154 -1268h617l155 1276q2 27 29 27z" />
    <glyph glyph-name="uni0429" unicode="&#x429;" horiz-adv-x="2220" 
d="M2048 184q35 0 31 -34l-47 -365q-2 -27 -29 -27h-123q-35 0 -31 35l25 207h-1776q-35 0 -30 35l176 1425q2 27 28 27h123q37 0 31 -35l-154 -1268h617l155 1276q2 27 29 27h123q37 0 31 -35l-154 -1268h617l155 1276q2 27 29 27h123q37 0 31 -35l-156 -1268h176z" />
    <glyph glyph-name="uni042A" unicode="&#x42a;" horiz-adv-x="1456" 
d="M864 184q110 0 176 58t82 187q16 130 -32 183q-49 53 -160 54h-328l-59 -482h321zM954 850q184 0 280 -118t72 -314t-145 -306q-121 -112 -303 -112h-487q-35 0 -31 35l156 1268h-277q-35 0 -31 34l15 123q2 27 28 27h437q37 0 30 -35l-73 -602h329z" />
    <glyph glyph-name="uni042B" unicode="&#x42b;" horiz-adv-x="1722" 
d="M592 184q110 0 176 58t82 187q16 130 -33 183t-160 54h-327l-60 -482h322zM1462 1487h125q37 0 31 -35l-174 -1425q-2 -27 -31 -27h-125q-35 0 -31 35l177 1425q1 27 28 27zM682 850q184 0 280 -118t71 -314t-145 -306q-120 -112 -302 -112h-488q-35 0 -30 35l176 1425
q2 27 28 27h123q37 0 31 -35l-74 -602h330z" />
    <glyph glyph-name="uni042C" unicode="&#x42c;" horiz-adv-x="1183" 
d="M592 184q110 0 176 58t82 187q16 130 -33 183t-160 54h-327l-60 -482h322zM682 850q184 0 280 -118t71 -314t-145 -306q-120 -112 -302 -112h-488q-35 0 -30 35l176 1425q2 27 28 27h123q37 0 31 -35l-74 -602h330z" />
    <glyph glyph-name="uni042D" unicode="&#x42d;" horiz-adv-x="1155" 
d="M639 1509h94q182 0 292 -137t85 -346l-63 -557q-25 -209 -169.5 -352.5t-326.5 -143.5h-94q-176 0 -281.5 136.5t-85.5 332.5q4 39 39 39h123q30 0 24 -20q-14 -135 45.5 -219t165.5 -84h95q113 0 188.5 80.5t89.5 222.5l23 190h-383q-29 0 -23 27l15 123q4 35 38 35h375
l21 182q14 139 -46.5 223t-172.5 84h-95q-106 0 -180 -77t-88 -201q-4 -41 -41 -41h-123q-14 0 -20 5t-4 17q29 201 169 341t314 140z" />
    <glyph glyph-name="uni042E" unicode="&#x42e;" horiz-adv-x="1671" 
d="M1219 1327h-101q-110 0 -190 -87t-97 -214l-69 -563q-16 -127 41 -210t164 -83h100q109 0 190 87t97 214l69 563q16 127 -40 210t-164 83zM1133 1511h100q176 0 287 -145t86 -348l-66 -547q-27 -203 -169 -344t-318 -141h-101q-178 0 -288 145t-84 348l16 129h-264
l-72 -581q-2 -27 -31 -27h-125q-35 0 -30 35l176 1425q2 27 29 27h124q37 0 31 -35l-80 -659h264l29 233q27 203 168 344q142 141 318 141z" />
    <glyph glyph-name="uni042F" unicode="&#x42f;" horiz-adv-x="1191" 
d="M647 1303q-229 0 -260 -248q-16 -127 32 -181t159 -53h327l60 482h-318zM649 1487h488q37 0 30 -35l-174 -1425q-2 -27 -30 -27h-123q-35 0 -31 35l74 602h-330q-115 0 -181 -83t-81 -208l-39 -319q-2 -27 -31 -27h-123q-14 0 -23 10t-7 25l45 356q27 221 182 342
q-117 117 -92 340q25 193 145 303t301 111z" />
    <glyph glyph-name="uni0430" unicode="&#x430;" horiz-adv-x="942" 
d="M322 182h104q106 2 197 97l16 135h-281q-55 0 -91 -31t-43 -82t22 -85t76 -34zM772 0h-145q-16 0 -27 15q-10 15 -6 38l2 23q-102 -78 -199 -78h-96q-113 -2 -193 89t-64 217q14 126 108 204t225 78h282l5 37q10 81 -24 121t-101 40h-99q-100 0 -182 -65q-23 -16 -45 8
l-59 84q-23 25 -4 43q125 113 321 113h96q127 -1 212 -103t67 -258l-68 -555q-2 -11 2 -31t-8 -20z" />
    <glyph glyph-name="uni0431" unicode="&#x431;" horiz-adv-x="1085" 
d="M604 782h-86q-60 0 -116 -36t-62 -82l-51 -414q70 -66 143 -66h92q68 0 126 52t67 124l31 242q10 76 -31 128t-113 52zM868 1487h150q39 0 20 -47q-38 -74 -110 -127t-135 -58q-92 -2 -209 11q-145 12 -185 -191q-14 -80 -24 -147q82 39 157 39h86q146 0 238 -114
t76 -259l-31 -242q-16 -142 -134 -248t-259 -106h-86q-76 0 -156 55l-4 -26q-2 -27 -31 -27h-122q-35 0 -31 35l80 645l2 6l16 139q18 145 51 336q19 125 109 208t219 75q27 -2 81 -7t74 -4q69 3 119 48q14 6 39 6z" />
    <glyph glyph-name="uni0432" unicode="&#x432;" horiz-adv-x="1038" 
d="M524 180q68 0 102 22t43 88t-11 90q-20 26 -85 26h-254l-28 -226h233zM590 575q106 0 119 119q6 45 -18 67t-81 21h-245l-25 -207h250zM532 0h-413q-35 0 -31 35l111 901q6 27 30 27h414q131 0 198 -68q67 -67 53 -187t-47 -162q-32 -42 -93 -61q115 -37 92 -245
q-31 -240 -314 -240z" />
    <glyph glyph-name="uni0433" unicode="&#x433;" horiz-adv-x="956" 
d="M229 963h588q35 0 31 -35l-14 -123q-6 -27 -31 -27h-438l-93 -751q-2 -27 -30 -27h-123q-35 0 -31 35l111 901q5 27 30 27z" />
    <glyph glyph-name="uni0434" unicode="&#x434;" horiz-adv-x="1431" 
d="M930 184l74 594h-422l-19 -151q-35 -281 -135 -443h502zM1229 184q35 0 31 -34l-41 -322q-2 -27 -31 -27h-123q-35 0 -31 35l21 164h-817l-21 -172q-2 -27 -31 -27h-123q-35 0 -30 35l41 322q2 27 30 26h54q54 0 126 121t109 440l23 191q6 27 30 27h730q35 0 30 -35
l-92 -744h115z" />
    <glyph glyph-name="uni0435" unicode="&#x435;" horiz-adv-x="1001" 
d="M584 784h-78q-70 0 -132.5 -54t-70.5 -124l-4 -20h422l4 28q8 74 -37 122t-104 48zM522 969h78q129 0 227.5 -109.5t79.5 -263.5l-14 -113q-6 -57 -64 -57h-548l-9 -66q-8 -78 37 -128t117 -50h82q90 0 194 117q23 20 46 -6l81 -78q20 -25 9 -47q-80 -80 -160 -125
t-189 -45h-77q-145 0 -242.5 111.5t-81.5 259.5l29 233q18 147 139 257t266 110z" />
    <glyph glyph-name="uni0436" unicode="&#x436;" horiz-adv-x="1624" 
d="M90 0q-25 0 -23 34q1 13 9 19l518 426l-375 436q-16 19 -13 33t19 15h174q25 0 41 -27l281 -318l41 318q2 27 31 27h131q35 0 30 -35l-41 -310l357 324q20 20 45 21h174q16 1 22 -17t-10 -37l-489 -430l403 -432q12 -11 9 -29t-21 -18h-176q-18 0 -49 33l-297 305
l-37 -311q-6 -27 -31 -27h-131q-35 0 -31 35l37 303l-362 -311q-35 -27 -60 -27h-176z" />
    <glyph glyph-name="uni0437" unicode="&#x437;" horiz-adv-x="1056" 
d="M387 -16q-115 0 -200 82t-70 196q2 12 20 12h139q27 0 23 -34t30 -52q34 -20 95 -20h86q154 0 166 106q6 61 -9 88t-75 31h-156q-27 0 -22 27l16 139q2 18 21 19h155q63 4 88 30t32 84q7 57 -29 79t-103 22h-86q-62 0 -106 -29t-50 -78q0 -14 -20 -14h-139q-27 0 -21 33
q12 109 114 191t216 81h127q119 0 207 -79t73 -196q-8 -61 -16 -92q-8 -30 -41 -66t-92 -59q129 -57 102 -249q-12 -115 -118 -184t-230 -68h-127z" />
    <glyph glyph-name="uni0438" unicode="&#x438;" horiz-adv-x="1140" 
d="M229 963h123q35 0 31 -35l-82 -662l461 678q12 18 37 19h202q35 0 31 -35l-110 -901q-2 -27 -31 -27h-123q-35 0 -31 35l84 661l-471 -676q-14 -20 -39 -20h-192q-35 0 -31 35l111 901q5 27 30 27z" />
    <glyph glyph-name="uni0439" unicode="&#x439;" horiz-adv-x="1140" 
d="M229 963h123q35 0 31 -35l-82 -662l461 678q12 18 37 19h202q35 0 31 -35l-110 -901q-2 -27 -31 -27h-123q-35 0 -31 35l84 661l-471 -676q-14 -20 -39 -20h-192q-35 0 -31 35l111 901q5 27 30 27zM911 1638h103q37 0 30 -39q-22 -143 -108 -225t-221 -82h-101
q-136 0 -206 88t-56 238q2 20 29 20h102q37 0 31 -39q-8 -143 121 -143h82q69 0 111 46t55 116q1 20 28 20z" />
    <glyph glyph-name="uni043A" unicode="&#x43a;" horiz-adv-x="1052" 
d="M743 963h175q16 1 22 -17t-12 -37l-500 -430l414 -432q12 -11 10 -29t-21 -18h-176q-20 0 -51 33l-305 311l-39 -317q-2 -27 -31 -27h-131q-35 0 -30 35l110 901q6 27 31 27h131q35 0 31 -35l-39 -312l364 326q20 21 47 21z" />
    <glyph glyph-name="uni043B" unicode="&#x43b;" horiz-adv-x="1150" 
d="M1012 963q35 0 30 -35l-14 -123l-2 -6l-94 -772q-2 -27 -31 -27h-123q-35 0 -30 35l92 743h-432l-50 -397q-12 -109 -66 -217t-126 -182q-23 -16 -41 10l-78 86q-20 20 -2 49q109 102 131 272l49 400v14l15 123q4 18 10 23t22 6h123q9 0 13 -2h604z" />
    <glyph glyph-name="uni043C" unicode="&#x43c;" horiz-adv-x="1386" 
d="M1063 963h184q35 0 31 -35l-111 -901q-2 -27 -30 -27h-123q-35 0 -31 35l82 661l-348 -610q-12 -18 -35 -18h-92q-25 0 -31 26l-205 602l-82 -669q-2 -27 -30 -27h-123q-35 0 -31 35l111 901q6 27 30 27h185q25 0 35 -27l210 -637l367 645q12 19 37 19z" />
    <glyph glyph-name="uni043D" unicode="&#x43d;" horiz-adv-x="1110" 
d="M848 963h123q35 0 30 -35l-47 -383v-6l-63 -512q-2 -27 -31 -27h-123q-35 0 -30 35l43 354h-433l-45 -362q-2 -27 -30 -27h-123q-35 0 -31 35l111 901q6 27 30 27h123q35 0 31 -35l-43 -355h432l45 363q6 27 31 27z" />
    <glyph glyph-name="uni043E" unicode="&#x43e;" horiz-adv-x="1052" 
d="M590 784h-84q-82 0 -140 -60t-69 -140l-27 -213q-10 -80 31 -134t123 -55h84q82 0 140 58t67 139l26 213q10 80 -29 136q-40 56 -122 56zM522 969h80q152 0 247 -115t77 -270l-27 -213q-18 -153 -137 -263t-270 -110h-80q-154 0 -249 113t-77 268l27 213q19 156 137 266
t272 111z" />
    <glyph glyph-name="uni043F" unicode="&#x43f;" horiz-adv-x="1110" 
d="M229 963h742q35 0 30 -35l-14 -123l-2 -6l-94 -772q-2 -27 -31 -27h-123q-35 0 -30 35l92 743h-434l-93 -751q-2 -27 -30 -27h-123q-35 0 -31 35l111 901q5 27 30 27z" />
    <glyph glyph-name="uni0440" unicode="&#x440;" horiz-adv-x="1036" 
d="M596 778h-76q-59 0 -114 -42t-70 -99l-45 -371q51 -82 149 -82h76q70 0 124 48t62 118l31 252q8 74 -27 125q-36 51 -110 51zM535 963h79q144 0 232 -115t72 -256l-31 -250q-18 -138 -135 -240t-248 -102h-80q-76 0 -160 45l-53 -428q-2 -27 -29 -27h-123q-35 0 -30 35
l159 1311q6 27 31 27h123q35 0 31 -35l-2 -17q88 52 164 52z" />
    <glyph glyph-name="uni0441" unicode="&#x441;" horiz-adv-x="985" 
d="M879 641h-125q-33 0 -33 41t-41 71.5t-98 30.5h-76q-72 0 -134.5 -56t-70.5 -134l-29 -234q-8 -76 36 -127t116 -51h82q92 0 194 117q20 20 45 -6l82 -78q27 -29 9 -47q-170 -170 -351 -170h-73q-145 0 -242.5 111.5t-81.5 259.5l29 233q18 147 139 257t266 110h74
q125 0 222 -94.5t87 -206.5q-3 -27 -26 -27z" />
    <glyph glyph-name="uni0442" unicode="&#x442;" horiz-adv-x="1079" 
d="M229 963h711q35 0 31 -35l-15 -123q-6 -27 -30 -27h-267l-92 -751q-2 -27 -30 -27h-123q-35 0 -31 35l92 743h-260q-35 0 -31 35l15 123q5 27 30 27z" />
    <glyph glyph-name="uni0443" unicode="&#x443;" horiz-adv-x="1064" 
d="M879 963h135q18 -1 23 -13t-3 -28l-704 -1301q-18 -31 -47 -31h-136q-18 0 -24 12t2 29l248 457l-250 842q-10 33 16 33h137q29 0 39 -39l185 -602l331 610q19 31 48 31z" />
    <glyph glyph-name="uni0444" unicode="&#x444;" horiz-adv-x="1544" 
d="M1104 778h-74q-58 0 -114 -43t-68 -102l-45 -367q20 -38 62 -60t85 -22h74q70 0 124 48t62 118l31 252q8 74 -28 125t-109 51zM375 184h74q43 0 91 24t81 62l41 353q6 61 -40 108t-108 47h-74q-72 0 -121 -51t-57 -125l-33 -252q-8 -70 35 -118t111 -48zM1047 963h75
q144 0 232 -115t71 -256l-30 -250q-18 -138 -135 -240t-248 -102h-76q-76 0 -160 45l-53 -428q-2 -27 -29 -27h-123q-37 0 -30 35l51 422q-90 -47 -172 -47h-76q-131 0 -223 102t-78 240l31 250q16 141 134 256t261 115h76q78 0 153 -54l68 551q2 27 29 27h123q35 0 30 -35
l-65 -541q88 52 164 52z" />
    <glyph glyph-name="uni0445" unicode="&#x445;" horiz-adv-x="950" 
d="M733 963h139q18 -1 24 -13t-3 -28l-328 -447l217 -442q16 -33 -20 -33h-137q-23 0 -43 39l-136 274l-206 -282q-25 -31 -50 -31h-139q-18 0 -26 12t4 29l331 451l-213 438q-20 33 17 33h139q27 0 43 -39l133 -271l205 279q22 31 49 31z" />
    <glyph glyph-name="uni0446" unicode="&#x446;" horiz-adv-x="1257" 
d="M1053 184q35 0 30 -34l-45 -365q-2 -27 -28 -27h-123q-37 0 -31 35l25 207h-762q-35 0 -31 35l111 901q6 27 30 27h123q35 0 31 -35l-92 -744h434l92 752q6 27 31 27h123q35 0 30 -35l-92 -744h144z" />
    <glyph glyph-name="uni0447" unicode="&#x447;" horiz-adv-x="1042" 
d="M780 963h123q35 0 31 -35l-111 -901q-2 -27 -30 -27h-123q-35 0 -31 35l35 252q-74 -49 -168 -49h-86q-141 0 -225 114t-66 256l39 328q6 27 31 27h123q35 0 30 -35l-39 -314q-10 -88 24 -140t109 -52h76q68 0 122 47t63 117l43 350q5 27 30 27z" />
    <glyph glyph-name="uni0448" unicode="&#x448;" horiz-adv-x="1728" 
d="M1466 963h123q35 0 31 -35l-111 -901q-2 -27 -30 -27h-1360q-35 0 -31 35l111 901q6 27 30 27h123q35 0 31 -35l-90 -744h434l90 752q6 27 31 27h123q35 0 30 -35l-90 -744h435l90 752q5 27 30 27z" />
    <glyph glyph-name="uni0449" unicode="&#x449;" horiz-adv-x="1896" 
d="M1671 184q35 0 31 -34l-45 -365q-2 -27 -29 -27h-123q-37 0 -30 35l24 207h-1380q-35 0 -31 35l111 901q6 27 30 27h123q35 0 31 -35l-90 -744h434l90 752q6 27 31 27h123q35 0 30 -35l-90 -744h435l90 752q6 27 30 27h123q35 0 31 -35l-92 -744h143z" />
    <glyph glyph-name="uni044A" unicode="&#x44a;" horiz-adv-x="1175" 
d="M664 451h-246l-33 -267h238q189 0 204 134q8 70 -32 102q-41 31 -131 31zM684 635q176 0 260 -91t66 -235q-35 -309 -396 -309h-401q-35 0 -31 35l92 743h-120q-35 0 -31 35l14 123q6 27 31 27h278q35 0 31 -35l-37 -293h244z" />
    <glyph glyph-name="uni044B" unicode="&#x44b;" horiz-adv-x="1572" 
d="M549 451h-246l-33 -267h240q190 0 205 134q8 70 -33 102q-41 31 -133 31zM569 635q176 0 261 -91t67 -235q-39 -309 -397 -309h-402q-35 0 -30 35l110 901q6 27 31 27h123q35 0 30 -35l-36 -293h243zM1300 965h123q35 0 31 -35l-111 -903q-2 -27 -30 -27h-123
q-35 0 -31 35l113 903q1 27 28 27z" />
    <glyph glyph-name="uni044C" unicode="&#x44c;" horiz-adv-x="1060" 
d="M549 451h-246l-33 -267h240q190 0 205 134q8 70 -33 102q-41 31 -133 31zM569 635q176 0 261 -91t67 -235q-39 -309 -397 -309h-402q-35 0 -30 35l110 901q6 27 31 27h123q35 0 30 -35l-36 -293h243z" />
    <glyph glyph-name="uni044D" unicode="&#x44d;" horiz-adv-x="985" 
d="M537 969h73q145 0 239.5 -109.5t76.5 -257.5l-29 -233q-18 -147 -143 -259t-271 -112h-73q-109 0 -177.5 45t-130.5 125q-14 18 21 47l100 78q31 31 45 6q76 -117 166 -117h82q72 0 129 50.5t68 127.5l4 29h-230q-14 0 -19 5t-3 22l14 123q6 35 39 34h221l2 21
q8 78 -40 134t-119 56h-76q-57 0 -105.5 -30.5t-58.5 -71.5t-41 -41h-125q-27 0 -22 27q16 113 137 207t246 94z" />
    <glyph glyph-name="uni044E" unicode="&#x44e;" horiz-adv-x="1519" 
d="M1057 784h-84q-82 0 -140 -60t-69 -140l-27 -213q-10 -80 31 -134t123 -55h84q83 0 141 58t66 139l26 213q10 80 -29 136q-40 56 -122 56zM989 969h80q152 0 247 -115t77 -270l-27 -213q-18 -153 -137 -263t-271 -110h-79q-154 0 -249 113t-77 268l2 10h-272l-45 -362
q-2 -29 -31 -29h-123q-35 0 -31 37l113 903q2 27 29 27h122q35 0 31 -35l-43 -357h273q18 171 138 284q119 112 273 112z" />
    <glyph glyph-name="uni044F" unicode="&#x44f;" horiz-adv-x="1017" 
d="M481 778q-129 0 -143 -119q-8 -57 11 -85t83 -27h246l29 231h-226zM219 0h-121q-35 0 -30 35l24 196q12 79 29 123q32 84 110 117q-63 31 -74 101t5 130q14 127 94 194t209 67h414q35 0 30 -35l-110 -901q-2 -27 -31 -27h-123q-35 0 -31 35l41 327h-237q-72 0 -105 -46
t-45 -134l-18 -155q-2 -27 -31 -27z" />
    <glyph glyph-name="uni0451" unicode="&#x451;" horiz-adv-x="1001" 
d="M584 784h-78q-70 0 -132.5 -54t-70.5 -124l-4 -20h422l4 28q8 74 -37 122t-104 48zM522 969h78q129 0 227.5 -109.5t79.5 -263.5l-14 -113q-6 -57 -64 -57h-548l-9 -66q-8 -78 37 -128t117 -50h82q90 0 194 117q23 20 46 -6l81 -78q20 -25 9 -47q-80 -80 -160 -125
t-189 -45h-77q-145 0 -242.5 111.5t-81.5 259.5l29 233q18 147 139 257t266 110zM793 1487h174q35 0 30 -35l-22 -182q-2 -27 -29 -27h-174q-37 0 -31 35l23 182q2 27 29 27zM250 1487h174q37 0 31 -35l-23 -182q-2 -27 -29 -27h-174q-34 0 -30 35l22 182q2 27 29 27z" />
    <glyph glyph-name="uni0453" unicode="&#x453;" horiz-adv-x="956" 
d="M229 963h588q35 0 31 -35l-14 -123q-6 -27 -31 -27h-438l-93 -751q-2 -27 -30 -27h-123q-35 0 -31 35l111 901q5 27 30 27zM573 1186h-127q-16 0 -23 12t3 29l201 379q16 33 43 32h151q19 0 27 -11t-2 -30l-228 -378q-20 -33 -45 -33z" />
    <glyph glyph-name="uni0454" unicode="&#x454;" horiz-adv-x="985" 
d="M522 969h74q125 0 222 -94.5t87 -206.5q-4 -27 -26 -27h-125q-33 0 -33 41t-41 71.5t-98 30.5h-76q-72 0 -134.5 -56t-70.5 -134l-2 -21h219q35 0 31 -34l-17 -123q-2 -27 -28 -27h-228l-4 -29q-8 -76 36 -127t116 -51h82q92 0 194 117q20 20 45 -6l82 -78q27 -29 9 -47
q-170 -170 -351 -170h-73q-145 0 -242.5 111.5t-81.5 259.5l29 233q18 147 139 257t266 110z" />
    <glyph glyph-name="uni0456" unicode="&#x456;" horiz-adv-x="460" 
d="M195 965h122q35 0 31 -35l-110 -903q-2 -27 -31 -27h-123q-35 0 -31 35l113 903q2 27 29 27zM258 1487h141q35 0 31 -35l-20 -174q-6 -27 -31 -27h-141q-35 0 -31 35l22 174q2 27 29 27z" />
    <glyph glyph-name="uni0457" unicode="&#x457;" horiz-adv-x="512" 
d="M240 965h122q35 0 31 -35l-110 -903q-2 -27 -31 -27h-123q-35 0 -31 35l113 903q2 27 29 27zM549 1487h174q35 0 31 -35l-23 -182q-2 -27 -29 -27h-174q-36 0 -30 35l22 182q2 27 29 27zM6 1487h174q37 0 31 -35l-23 -182q-2 -27 -28 -27h-174q-37 0 -31 35l22 182
q2 27 29 27z" />
    <glyph glyph-name="uni0458" unicode="&#x458;" horiz-adv-x="505" 
d="M164 965h123q35 0 30 -35l-129 -1047q-14 -113 -95 -206t-195 -128q-33 -6 -41 27l-35 117q-8 25 12 39q61 18 113 63q51 45 59 103l127 1040q2 27 31 27zM227 1487h142q37 0 30 -35l-20 -174q-2 -27 -31 -27h-141q-35 0 -29 35l21 174q2 27 28 27z" />
    <glyph glyph-name="uni045C" unicode="&#x45c;" horiz-adv-x="1052" 
d="M743 963h175q16 1 22 -17t-12 -37l-500 -430l414 -432q12 -11 10 -29t-21 -18h-176q-20 0 -51 33l-305 311l-39 -317q-2 -27 -31 -27h-131q-35 0 -30 35l110 901q6 27 31 27h131q35 0 31 -35l-39 -312l364 326q20 21 47 21zM621 1186h-127q-16 0 -24 12q-7 12 3 29
l201 379q16 33 43 32h151q18 0 26 -11t-1 -30l-227 -378q-20 -33 -45 -33z" />
    <glyph glyph-name="uni045D" unicode="&#x45d;" horiz-adv-x="1140" 
d="M229 963h123q35 0 31 -35l-82 -662l461 678q12 18 37 19h202q35 0 31 -35l-110 -901q-2 -27 -31 -27h-123q-35 0 -31 35l84 661l-471 -676q-14 -20 -39 -20h-192q-35 0 -31 35l111 901q5 27 30 27zM702 1186h-116q-25 0 -39 41l-133 379q-10 33 18 32h141q35 0 39 -41
l109 -378q12 -33 -19 -33z" />
    <glyph glyph-name="uni045E" unicode="&#x45e;" horiz-adv-x="1064" 
d="M879 963h135q18 -1 23 -13t-3 -28l-704 -1301q-18 -31 -47 -31h-136q-18 0 -24 12t2 29l248 457l-250 842q-10 33 16 33h137q29 0 39 -39l185 -602l331 610q19 31 48 31zM676 1292h-101q-135 0 -205 88t-57 238q2 20 29 20h102q37 0 31 -39q-8 -143 121 -143h82
q70 0 112 46t54 116q2 20 28 20h103q37 0 31 -39q-23 -143 -109 -225t-221 -82z" />
    <glyph glyph-name="uni0490" unicode="&#x490;" horiz-adv-x="1148" 
d="M993 1671h123q37 0 31 -35l-27 -211l-10 -96q-2 -27 -29 -26h-673l-156 -1276q-2 -27 -31 -27h-123q-35 0 -30 35l176 1425q2 27 28 27h674l19 158q1 26 28 26z" />
    <glyph glyph-name="uni0491" unicode="&#x491;" horiz-adv-x="956" 
d="M717 1147h123q35 0 30 -35l-22 -178v-6l-14 -123q-6 -27 -31 -27h-438l-93 -751q-2 -27 -30 -27h-123q-35 0 -31 35l111 901q6 27 30 27h439l18 157q6 27 31 27z" />
    <glyph glyph-name="uni04C0" unicode="&#x4c0;" horiz-adv-x="538" 
d="M279 1487h124q37 0 31 -35l-174 -1425q-2 -27 -31 -27h-125q-34 0 -30 35l176 1425q2 27 29 27z" />
    <glyph glyph-name="uni04E2" unicode="&#x4e2;" horiz-adv-x="1292" 
d="M272 1487h123q37 0 31 -35l-139 -1135l739 1151q12 18 37 19h174q37 0 31 -35l-174 -1425q-2 -27 -31 -27h-123q-35 0 -31 35l144 1134l-744 -1151q-12 -18 -37 -18h-174q-35 0 -30 35l176 1425q1 27 28 27zM1139 1827h-664q-35 0 -31 35l15 123q2 27 28 26h664
q14 0 23.5 -10t7.5 -25l-15 -123q-1 -26 -28 -26z" />
    <glyph glyph-name="uni04E3" unicode="&#x4e3;" horiz-adv-x="1140" 
d="M229 963h123q35 0 31 -35l-82 -662l461 678q12 18 37 19h202q35 0 31 -35l-110 -901q-2 -27 -31 -27h-123q-35 0 -31 35l84 661l-471 -676q-14 -20 -39 -20h-192q-35 0 -31 35l111 901q5 27 30 27zM999 1303h-663q-35 0 -31 34l14 123q2 27 29 27h664q14 0 23 -10t7 -25
l-14 -123q-2 -26 -29 -26z" />
    <glyph glyph-name="uni04E8" unicode="&#x4e8;" horiz-adv-x="1200" 
d="M496 170h100q110 0 190 87t97 214l22 180h-592l-22 -188q-16 -127 41 -210t164 -83zM748 1327h-101q-109 0 -189 -87t-98 -214l-22 -190h592l22 198q16 127 -40 210t-164 83zM662 1511h100q176 0 287 -145t86 -348l-66 -547q-27 -203 -169 -344t-318 -141h-101
q-179 0 -289 145t-83 348l67 547q27 203 168 344q142 141 318 141z" />
    <glyph glyph-name="uni04E9" unicode="&#x4e9;" horiz-adv-x="1062" 
d="M508 182q82 0 140 58t67 139l2 10h-445q-11 -99 29 -153q41 -53 123 -54h84zM590 784h-84q-82 0 -140 -60t-69 -140l-2 -11h444l2 19q10 80 -29 136q-40 56 -122 56zM492 -2h-80q-154 0 -249 113t-77 268l27 213q20 156 138 266t271 111h80q152 0 251 -120t71 -276h16
l-22 -184h-17q-19 -171 -139 -281q-119 -110 -270 -110z" />
    <glyph glyph-name="uni04EC" unicode="&#x4ec;" horiz-adv-x="1155" 
d="M639 1509h94q182 0 292 -137t85 -346l-63 -557q-25 -209 -169.5 -352.5t-326.5 -143.5h-94q-176 0 -281.5 136.5t-85.5 332.5q4 39 39 39h123q30 0 24 -20q-14 -135 45.5 -219t165.5 -84h95q113 0 188.5 80.5t89.5 222.5l23 190h-383q-29 0 -23 27l15 123q4 35 38 35h375
l21 182q14 139 -46.5 223t-172.5 84h-95q-106 0 -180 -77t-88 -201q-4 -41 -41 -41h-123q-14 0 -20 5t-4 17q29 201 169 341t314 140zM981 1767h-174q-37 0 -31 35l23 183q2 27 28 26h174q35 0 31 -35l-22 -182q-2 -27 -29 -27zM438 1767h-174q-35 0 -31 35l23 183
q2 27 29 26h174q37 0 30 -35l-22 -182q-2 -27 -29 -27z" />
    <glyph glyph-name="uni04ED" unicode="&#x4ed;" horiz-adv-x="985" 
d="M537 969h73q145 0 239.5 -109.5t76.5 -257.5l-29 -233q-18 -147 -143 -259t-271 -112h-73q-109 0 -177.5 45t-130.5 125q-14 18 21 47l100 78q31 31 45 6q76 -117 166 -117h82q72 0 129 50.5t68 127.5l4 29h-230q-14 0 -19 5t-3 22l14 123q6 35 39 34h221l2 21
q8 78 -40 134t-119 56h-76q-57 0 -105.5 -30.5t-58.5 -71.5t-41 -41h-125q-27 0 -22 27q16 113 137 207t246 94zM868 1243h-174q-37 0 -30 35l22 182q2 27 29 27h174q35 0 31 -35l-23 -182q-2 -27 -29 -27zM326 1243h-174q-35 0 -31 35l22 182q2 27 29 27h174q37 0 31 -35
l-23 -182q-1 -27 -28 -27z" />
    <glyph glyph-name="uni04EE" unicode="&#x4ee;" horiz-adv-x="1224" 
d="M1073 1487h135q37 0 23 -41l-811 -1415q-18 -31 -47 -31h-135q-37 0 -23 41l303 528l-301 885q-10 33 16 33h138q31 0 41 -39l231 -660l385 668q16 31 45 31zM1106 1827h-664q-35 0 -30 35l14 123q2 27 29 26h663q14 0 24 -10t7 -25l-14 -123q-2 -26 -29 -26z" />
    <glyph glyph-name="uni04EF" unicode="&#x4ef;" horiz-adv-x="1064" 
d="M809 963h135q18 -1 24 -13t-3 -28l-705 -1301q-18 -31 -47 -31h-135q-18 0 -24 12t1 29l248 457l-250 842q-10 33 17 33h137q29 0 39 -39l184 -602l332 610q18 31 47 31zM891 1303h-664q-35 0 -30 34l14 123q2 27 29 27h663q13 0 23 -10t8 -25l-14 -123q-2 -26 -29 -26z
" />
    <glyph glyph-name="Macute" unicode="&#x1e3e;" horiz-adv-x="1480" 
d="M1231 1487h184q35 0 31 -35l-174 -1425q-6 -27 -31 -27h-123q-35 0 -31 35l136 1093l-469 -1101q-10 -27 -39 -27h-84q-33 0 -37 35l-201 1093l-135 -1101q-6 -27 -31 -27h-123q-35 0 -30 35l176 1425q2 27 29 27h184q35 0 39 -35l203 -1122l485 1130q10 27 41 27z
M1026 2163h152q18 1 26 -11t-2 -30l-227 -379q-20 -33 -45 -33h-127q-16 0 -24 12q-7 13 3 29l201 379q16 33 43 33z" />
    <glyph glyph-name="macute" unicode="&#x1e3f;" horiz-adv-x="1701" 
d="M1169 963h76q150 0 241 -114t73 -257l-70 -565q-2 -27 -31 -27h-123q-35 0 -30 35l69 565q10 78 -31 128t-112 50h-90q-57 0 -115 -40t-74 -97q0 -33 -2 -49l-69 -565q-2 -27 -31 -27h-123q-35 0 -31 35l70 565q10 78 -30 128t-109 50h-90q-59 0 -119 -43t-72 -102
l-74 -606q-2 -27 -30 -27h-123q-35 0 -31 35l111 901q6 27 30 27h123q35 0 31 -35l-2 -23q98 57 184 58h76q150 0 242 -119q128 119 286 119zM1016 1186h-127q-16 0 -24 12q-7 12 3 29l201 379q16 33 43 32h152q18 0 26 -11t-2 -30l-227 -378q-20 -33 -45 -33z" />
    <glyph glyph-name="Wgrave" unicode="&#x1e80;" horiz-adv-x="1880" 
d="M1753 1487h125q16 0 24 -9t5 -24l-502 -1427q-10 -27 -41 -27h-102q-29 0 -35 35l-211 1124l-488 -1132q-12 -27 -41 -27h-102q-33 0 -37 35l-151 1423q-6 29 22 29h127q31 0 35 -35l106 -1100l465 1106q12 29 41 29h107q35 0 41 -33l194 -1102l381 1104q12 31 37 31z
M1135 1710h-117q-25 0 -39 41l-133 379q-10 33 18 33h142q34 0 38 -41l109 -379q12 -33 -18 -33z" />
    <glyph glyph-name="wgrave" unicode="&#x1e81;" horiz-adv-x="1402" 
d="M1223 963h127q16 1 23 -11t1 -28l-352 -895q-12 -29 -39 -29h-106q-29 0 -37 37l-123 625l-283 -633q-12 -29 -39 -29h-106q-29 0 -37 37l-133 895q-6 31 24 31h127q29 0 33 -39l80 -645l270 653q10 31 39 31h109q27 0 33 -39l110 -645l240 653q10 31 39 31zM831 1186
h-116q-25 0 -39 41l-133 379q-10 33 18 32h141q35 0 39 -41l109 -378q12 -33 -19 -33z" />
    <glyph glyph-name="Wacute" unicode="&#x1e82;" horiz-adv-x="1880" 
d="M1753 1487h125q16 0 24 -9t5 -24l-502 -1427q-10 -27 -41 -27h-102q-29 0 -35 35l-211 1124l-488 -1132q-12 -27 -41 -27h-102q-33 0 -37 35l-151 1423q-6 29 22 29h127q31 0 35 -35l106 -1100l465 1106q12 29 41 29h107q35 0 41 -33l194 -1102l381 1104q12 31 37 31z
M1243 2163h152q18 1 26 -11t-2 -30l-227 -379q-20 -33 -45 -33h-127q-16 0 -24 12q-7 13 3 29l201 379q16 33 43 33z" />
    <glyph glyph-name="wacute" unicode="&#x1e83;" horiz-adv-x="1402" 
d="M1223 963h127q16 1 23 -11t1 -28l-352 -895q-12 -29 -39 -29h-106q-29 0 -37 37l-123 625l-283 -633q-12 -29 -39 -29h-106q-29 0 -37 37l-133 895q-6 31 24 31h127q29 0 33 -39l80 -645l270 653q10 31 39 31h109q27 0 33 -39l110 -645l240 653q10 31 39 31zM1092 1638
q18 0 26 -11t-2 -30l-227 -378q-20 -33 -45 -33h-127q-16 0 -24 12q-7 13 3 29l201 379q16 33 43 32h152z" />
    <glyph glyph-name="Wdieresis" unicode="&#x1e84;" horiz-adv-x="1880" 
d="M1753 1487h125q16 0 24 -9t5 -24l-502 -1427q-10 -27 -41 -27h-102q-29 0 -35 35l-211 1124l-488 -1132q-12 -27 -41 -27h-102q-33 0 -37 35l-151 1423q-6 29 22 29h127q31 0 35 -35l106 -1100l465 1106q12 29 41 29h107q35 0 41 -33l194 -1102l381 1104q12 31 37 31z
M1470 2011q35 0 31 -35l-22 -182q-2 -27 -29 -27h-174q-37 0 -31 35l23 183q2 27 28 26h174zM928 2011q37 0 30 -35l-22 -182q-2 -27 -29 -27h-174q-35 0 -31 35l23 183q2 27 29 26h174z" />
    <glyph glyph-name="wdieresis" unicode="&#x1e85;" horiz-adv-x="1402" 
d="M1223 963h127q16 1 23 -11t1 -28l-352 -895q-12 -29 -39 -29h-106q-29 0 -37 37l-123 625l-283 -633q-12 -29 -39 -29h-106q-29 0 -37 37l-133 895q-6 31 24 31h127q29 0 33 -39l80 -645l270 653q10 31 39 31h109q27 0 33 -39l110 -645l240 653q10 31 39 31zM993 1487
h174q35 0 31 -35l-22 -182q-2 -27 -29 -27h-174q-37 0 -31 35l23 182q2 27 28 27zM451 1487h174q37 0 30 -35l-22 -182q-2 -27 -29 -27h-174q-35 0 -31 35l23 182q2 27 29 27z" />
    <glyph glyph-name="Ygrave" unicode="&#x1ef2;" horiz-adv-x="1128" 
d="M1004 1487h141q16 0 24 -10t0 -25l-518 -799l-78 -626q-2 -27 -30 -27h-123q-35 0 -31 35l78 618l-313 807q-10 27 16 27h141q29 0 39 -35l230 -600l383 608q16 27 41 27zM739 1710h-116q-25 0 -39 41l-133 379q-10 33 18 33h141q35 0 39 -41l109 -379q12 -33 -19 -33z
" />
    <glyph glyph-name="ygrave" unicode="&#x1ef3;" horiz-adv-x="1064" 
d="M879 963h135q18 -1 23 -13t-3 -28l-704 -1301q-18 -31 -47 -31h-136q-18 0 -24 12t2 29l248 457l-250 842q-10 33 16 33h137q29 0 39 -39l185 -602l331 610q19 31 48 31zM535 1638q35 0 38 -41l109 -378q12 -33 -18 -33h-117q-25 0 -39 41l-133 379q-10 33 18 32h142z
" />
    <glyph glyph-name="endash" unicode="&#x2013;" horiz-adv-x="1271" 
d="M1102 389h-965q-35 0 -31 35l15 123q2 27 31 26h964q14 0 24 -10t7 -24l-17 -123q-1 -27 -28 -27z" />
    <glyph glyph-name="emdash" unicode="&#x2014;" horiz-adv-x="1423" 
d="M1253 389h-1116q-35 0 -31 35l15 123q2 27 31 26h1116q14 0 23 -10t7 -24l-16 -123q-2 -27 -29 -27z" />
    <glyph glyph-name="quoteleft" unicode="&#x2018;" horiz-adv-x="464" 
d="M371 932h-189q-35 0 -30 35l30 245q31 221 156 351q20 16 41 -9l57 -59q27 -29 13 -47q-57 -45 -77 -97t-30 -134l-16 -17h71q35 0 29 -35l-25 -207q-1 -26 -30 -26z" />
    <glyph glyph-name="quoteright" unicode="&#x2019;" horiz-adv-x="487" 
d="M197 1487h188q35 0 29 -35l-29 -246q-31 -217 -156 -350q-20 -14 -41 10l-59 60q-25 29 -10 47q57 45 77 97q19 52 27 132l19 17h-72q-35 0 -31 34l27 207q2 27 31 27z" />
    <glyph glyph-name="quotesinglbase" unicode="&#x201a;" horiz-adv-x="464" 
d="M35 268h188q35 0 29 -35l-29 -245q-31 -221 -155 -350q-20 -16 -41 8l-60 59q-27 29 -12 47q59 45 79 97q19 52 27 135l19 16h-72q-35 0 -31 35l27 207q2 26 31 26z" />
    <glyph glyph-name="quotedblleft" unicode="&#x201c;" horiz-adv-x="868" 
d="M705 932h-189q-35 0 -31 35l31 245q31 221 156 351q20 16 41 -9l57 -59q27 -29 12 -47q-57 -45 -76 -97t-30 -134l-17 -17h72q35 0 29 -35l-25 -207q-1 -26 -30 -26zM301 932h-188q-35 0 -31 35l31 245q31 221 155 351q20 16 41 -9l58 -59q27 -29 12 -47q-57 -45 -77 -97
t-30 -134l-16 -17h72q35 0 28 -35l-24 -207q-2 -26 -31 -26z" />
    <glyph glyph-name="quotedblright" unicode="&#x201d;" horiz-adv-x="888" 
d="M528 1487h189q35 0 31 -35l-31 -246q-25 -213 -154 -350q-16 -8 -22 -6t-19 16l-59 60q-27 27 -12 47q57 45 77 97t29 132l18 17h-71q-35 0 -31 34l25 207q1 27 30 27zM125 1487h188q35 0 31 -35l-31 -246q-25 -213 -153 -350q-16 -8 -22 -6t-19 16l-60 60q-27 27 -12 47
q57 45 78 97q20 52 29 132l18 17h-72q-35 0 -30 34l24 207q2 27 31 27z" />
    <glyph glyph-name="quotedblbase" unicode="&#x201e;" horiz-adv-x="868" 
d="M438 268h189q35 0 28 -35l-28 -245q-31 -221 -156 -350q-20 -16 -41 8l-59 59q-25 31 -11 47q57 45 77 97q19 52 28 135l18 16h-71q-35 0 -31 35l27 207q1 26 30 26zM35 268h188q35 0 29 -35l-29 -245q-31 -221 -155 -350q-20 -16 -41 8l-60 59q-27 29 -12 47
q59 45 79 97q19 52 27 135l19 16h-72q-35 0 -31 35l27 207q2 26 31 26z" />
    <glyph glyph-name="dagger" unicode="&#x2020;" horiz-adv-x="886" 
d="M819 963q35 0 31 -35l-14 -123q-6 -27 -31 -27h-242l-125 -1018q-2 -27 -30 -26h-123q-35 0 -31 35l125 1009h-236q-35 0 -30 35l14 123q6 27 31 27h243l62 505q6 27 31 27h122q35 0 31 -35l-61 -497h233z" />
    <glyph glyph-name="daggerdbl" unicode="&#x2021;" horiz-adv-x="886" 
d="M819 963q35 0 31 -35l-14 -123q-6 -27 -31 -27h-242l-41 -327h234q37 0 30 -35l-14 -123q-2 -27 -31 -27h-241l-62 -506q-2 -27 -30 -26h-123q-35 0 -31 35l61 497h-235q-35 0 -31 35l17 123q2 27 28 27h244l41 327h-236q-35 0 -30 35l14 123q6 27 31 27h243l62 505
q6 27 31 27h122q35 0 31 -35l-61 -497h233z" />
    <glyph glyph-name="bullet" unicode="&#x2022;" horiz-adv-x="659" 
d="M264 872h197q72 0 63 -71l-22 -187q-8 -63 -74 -63h-197q-69 0 -59 72l23 186q6 63 69 63z" />
    <glyph glyph-name="ellipsis" unicode="&#x2026;" horiz-adv-x="1368" 
d="M1190 223q35 0 29 -35l-19 -161q-2 -27 -31 -27h-163q-35 0 -31 35l20 162q2 27 31 26h164zM721 223q35 0 29 -35l-19 -161q-2 -27 -31 -27h-163q-35 0 -31 35l20 162q2 27 31 26h164zM252 223q35 0 29 -35l-19 -161q-2 -27 -31 -27h-163q-35 0 -31 35l20 162q2 27 31 26
h164z" />
    <glyph glyph-name="perthousand" unicode="&#x2030;" horiz-adv-x="1884" 
d="M1610 264h-13q-61 0 -71 -63v-11q-8 -53 47 -53h12q66 1 72 62q13 65 -47 65zM979 264h-12q-61 0 -72 -63v-11q-8 -53 47 -53h12q66 1 72 62q13 65 -47 65zM1599 401h27q82 0 131 -56t39 -138l-4 -23q-8 -82 -66 -133t-141 -51h-26q-84 0 -132 55q-47 55 -36 138l2 22
q10 82 67 134t139 52zM969 401h26q82 0 131 -56t39 -138l-4 -23q-8 -82 -65 -133t-142 -51h-26q-84 0 -131 55t-37 138l2 22q10 82 67 134q58 52 140 52zM377 1350q-61 0 -72 -64v-10q-6 -53 47 -53h13q65 0 71 61q13 65 -47 66h-12zM379 1487h27q82 0 131 -56t38 -139
l-4 -22q-8 -82 -65 -133t-141 -52h-27q-84 -1 -131 55t-37 138l2 22q10 82 68 134t139 53zM1108 1487h147q15 0 25 -10t0 -25l-1001 -1425q-20 -27 -46 -27h-147q-16 0 -25 10q-8 11 2 25l1004 1425q18 27 41 27z" />
    <glyph glyph-name="guilsinglleft" unicode="&#x2039;" horiz-adv-x="677" 
d="M145 627l422 266q15 8 27 0t8 -25l-20 -166q-2 -23 -37 -43l-223 -133l182 -137q37 -27 35 -47l-21 -166q0 -20 -18 -16q-8 2 -15 8l-354 266q-31 23 -29 47l13 99q1 22 30 47z" />
    <glyph glyph-name="guilsinglright" unicode="&#x203a;" horiz-adv-x="677" 
d="M184 887l355 -266q31 -27 28 -50l-12 -98q-4 -25 -31 -45l-420 -266q-14 -10 -27 -2t-11 24l20 166q4 23 39 45l223 131l-182 138q-37 29 -35 47l21 166q2 14 12 17t20 -7z" />
    <glyph glyph-name="fraction" unicode="&#x2044;" horiz-adv-x="204" 
d="M571 1487h86q15 0 25 -10t0 -25l-1004 -1425q-18 -27 -43 -27h-86q-16 0 -24 10t0 25l1005 1425q18 27 41 27z" />
    <glyph glyph-name="Euro" unicode="&#x20ac;" horiz-adv-x="1349" 
d="M840 1509h94q174 0 283 -140t88 -341q-2 -23 -31 -22h-123q-37 0 -31 41q16 125 -40 201t-162 77h-95q-113 0 -193 -84t-98 -223l-6 -55h410q37 0 31 -35l-13 -113q-2 -27 -30 -27h-420l-10 -94h409q35 0 31 -35l-12 -112q-6 -27 -31 -27h-418l-8 -59q-18 -141 38 -222
t169 -81h94q106 0 187 85t96 218q2 20 30 20h123q35 0 29 -39q-25 -196 -163 -332t-314 -137h-95q-181 -1 -293 143t-85 353l6 51h-170q-35 0 -31 35l14 113q2 27 29 26h180l13 94h-172q-35 0 -31 35l14 113q2 27 29 27h180l8 63q25 209 166 346q142 137 324 137z" />
    <glyph glyph-name="hryvnia" unicode="&#x20b4;" horiz-adv-x="1185" 
d="M655 1511h107q170 -1 274 -117t82 -296q-12 -98 -59 -176h10q35 0 31 -35l-8 -72q-2 -27 -31 -27h-121q-78 -59 -188 -94h288q35 0 31 -35l-8 -71q-2 -27 -29 -27h-686q-66 -66 -79 -174q-13 -107 48 -169t166 -62h95q98 0 178 66t96 167l8 60q2 27 31 26h125
q35 0 31 -35l-9 -59q-20 -176 -164 -293t-313 -117h-94q-176 0 -290 122t-91 308q12 88 47 162q-25 4 -20 33l8 72q2 27 29 26h86q66 57 153 94h-219q-35 0 -31 35l11 72q2 27 28 27h656q86 62 99 174t-37 172t-148 59h-107q-96 0 -175 -72t-93 -180l-6 -39q-2 -27 -29 -26
h-125q-35 0 -31 34l4 39q20 184 160 306t309 122z" />
    <glyph glyph-name="uni2116" unicode="&#x2116;" horiz-adv-x="2400" 
d="M2157 432q35 0 30 -35l-14 -123q-2 -27 -31 -26h-692q-35 0 -29 35l15 123q2 27 28 26h693zM1950 1313h-49q-85 1 -139 -57t-64 -140l-17 -131q-10 -82 27 -135t121 -53h49q84 0 140 57t65 139l16 131q10 82 -27 136q-38 53 -122 53zM1114 1487h123q37 0 31 -35
l-174 -1425q-2 -27 -31 -27h-174q-27 0 -33 27l-461 1142l-143 -1142q-2 -27 -31 -27h-123q-35 0 -30 35l176 1425q2 27 28 27h174q27 0 37 -27l461 -1143l141 1143q2 27 29 27zM1911 1491h59q146 0 234 -114t69 -257l-16 -141q-18 -143 -129 -253t-258 -110h-60
q-150 0 -236 114t-69 257l19 141q18 145 128 254t259 109z" />
    <glyph glyph-name="uni2120" unicode="&#x2120;" horiz-adv-x="1607" 
d="M1481 1487h123q37 0 30 -35l-55 -463q-6 -27 -31 -26h-61q-35 0 -31 34l43 336l-242 -342q-20 -29 -40 -28h-43q-23 0 -35 34l-162 336l-43 -344q-6 -27 -31 -26h-61q-35 0 -31 34l57 463q2 27 29 27h123q23 0 39 -35l147 -334l234 342q18 27 41 27zM420 952
q-120 0 -180 46q-61 46 -56 120q4 6 17 6h82q23 0 18 -24q0 -18 24 -24q23 -6 103 -7q80 0 111 9t33 41t-15 38q-18 6 -133 11q-115 6 -168 52t-43 131q9 85 71 117t188 31q126 0 185 -46t52 -126q-2 -10 -13 -10h-82q-20 -1 -18 25t-22 33t-106 7t-110 -11t-30 -33t1 -30
q9 -20 134 -26t179 -49t44 -122t-78 -119t-188 -40z" />
    <glyph glyph-name="trademark" unicode="&#x2122;" horiz-adv-x="1595" 
d="M1468 1487h123q37 0 31 -35l-55 -463q-6 -27 -31 -26h-61q-35 0 -31 34l43 336l-242 -342q-20 -29 -41 -28h-43q-23 0 -35 34l-161 336l-43 -344q-6 -27 -31 -26h-62q-35 0 -30 34l57 463q2 27 29 27h123q23 0 39 -35l147 -334l233 342q18 27 41 27zM221 1487h490
q37 0 30 -35l-6 -61q-6 -27 -30 -27h-187l-45 -375q-6 -27 -31 -26h-61q-35 0 -31 34l45 367h-180q-35 0 -31 35l9 61q1 27 28 27z" />
    <glyph glyph-name="oneeighth" unicode="&#x215b;" horiz-adv-x="1480" 
d="M1122 264h-6q-36 0 -62 -24t-30 -60q-4 -63 66 -63q36 1 65 23t33 55t-14 51t-52 18zM1120 371h6q35 1 63 25t31 57q6 65 -67 65q-39 0 -67 -22t-30 -54q-2 -33 14 -52q17 -19 50 -19zM1112 0h-51q-80 0 -125 59t-37 130t88 135q-61 66 -53 136t62 122q54 53 134 53h52
q80 0 126 -58q46 -59 36 -131t-87 -135q63 -59 55 -132t-64 -126t-136 -53zM385 1487h66q37 0 30 -35l-69 -571q-2 -27 -31 -27h-66q-34 0 -28 35l69 571q2 27 29 27zM1190 1487h86q16 0 26 -10t-2 -25l-1001 -1425q-20 -27 -45 -27h-86q-16 0 -25 10q-8 11 2 25l1004 1425
q18 27 41 27z" />
    <glyph glyph-name="threeeighths" unicode="&#x215c;" horiz-adv-x="1515" 
d="M1157 264h-6q-35 0 -61 -24t-31 -60q-4 -63 66 -63q36 1 65 23t33 55q3 33 -15 51t-51 18zM1155 371h6q35 1 63 25t30 57q5 65 -66 65q-39 0 -67 -22q-29 -22 -31 -54q-2 -33 15 -52t50 -19zM1147 0h-51q-80 0 -125 59t-37 130t88 135q-61 66 -53 136t62 122
q54 53 134 53h52q79 0 125 -58q46 -59 36 -131t-86 -135q62 -59 54 -132t-64 -126t-135 -53zM1225 1487h86q16 0 25 -10t-1 -25l-1001 -1425q-20 -27 -45 -27h-86q-16 0 -25 10q-8 11 2 25l1004 1425q18 27 41 27zM389 854h-51q-72 0 -119 52t-39 122l4 27q2 27 29 26h61
q35 0 31 -34q-10 -76 57 -76q41 1 70 23t33 55t-14 51t-52 18h-47q-35 0 -30 35l6 45q2 27 30 27h48q36 1 62 25t29 57q6 65 -67 65q-37 0 -64 -22t-30 -55q-4 -34 -31 -33h-61q-35 0 -31 34l4 27q9 68 63 117t128 49h51q80 0 126 -58q46 -59 36 -131t-86 -135
q63 -59 54 -132t-65 -126t-135 -53z" />
    <glyph glyph-name="fiveeighths" unicode="&#x215d;" horiz-adv-x="1515" 
d="M1157 264h-6q-35 0 -61 -24t-31 -60q-4 -63 66 -63q36 1 65 23t33 55q3 33 -15 51t-51 18zM1155 371h6q35 1 63 25t30 57q5 65 -66 65q-39 0 -67 -22q-29 -22 -31 -54q-2 -33 15 -52t50 -19zM1147 0h-51q-80 0 -125 59t-37 130t88 135q-61 66 -53 136t62 122
q54 53 134 53h52q79 0 125 -58q46 -59 36 -131t-86 -135q62 -59 54 -132t-64 -126t-135 -53zM389 852h-51q-74 0 -121 53t-37 121l2 27q6 27 31 26h61q35 0 31 -35q-11 -75 57 -75q88 0 105 88q12 88 -27 106q-72 18 -127 -26l-86 2q-35 0 -28 35l34 286q2 27 29 27h326
q37 0 30 -35l-6 -57q-2 -27 -30 -27h-242l-18 -115q48 23 116 14t103 -50q63 -55 47 -181q-8 -74 -64 -129t-135 -55zM1225 1487h86q16 0 25 -10t-1 -25l-1001 -1425q-20 -27 -45 -27h-86q-16 0 -25 10q-8 11 2 25l1004 1425q18 27 41 27z" />
    <glyph glyph-name="seveneighths" unicode="&#x215e;" horiz-adv-x="1495" 
d="M1137 264h-7q-36 0 -62 -24t-30 -60q-4 -63 67 -63q37 1 65 23t32 55t-14 51t-51 18zM1135 371h6q35 1 63 25t30 57q6 65 -67 65q-39 0 -67 -22t-30 -54q-4 -33 14 -52t51 -19zM1126 0h-51q-80 0 -125 59t-37 130t88 135q-61 66 -53 136t62 122q54 53 135 53h51
q80 0 126 -58q46 -59 36 -131t-86 -135q63 -59 54 -132t-64 -126t-136 -53zM287 852h-86q-15 0 -21 11t0 22l279 479h-203q-35 0 -31 35l8 61q2 27 29 27h326q36 0 30 -35l-6 -59q-8 -31 -10 -35l-280 -481q-18 -25 -35 -25zM1204 1487h86q16 0 26 -10t-1 -25l-1002 -1425
q-20 -27 -45 -27h-86q-16 0 -24 10t2 25l1003 1425q18 27 41 27z" />
    <glyph glyph-name="partialdiff" unicode="&#x2202;" horiz-adv-x="1165" 
d="M496 166h84q92 0 166 62t100 196q39 174 -11 247q-49 73 -227 75t-248 -78q-70 -78 -88 -258q-12 -128 53 -186t171 -58zM643 1509h90q180 0 278 -118q97 -119 93 -304q0 -340 -72 -681q-45 -203 -168 -315t-299 -111h-84q-184 0 -298 118t-95 334q43 496 520 496
q211 0 295 -68q23 127 21 264q-4 92 -56 148t-151 57h-88q-104 0 -182 -67q-77 -68 -91 -185l-4 -35q-6 -27 -30 -26h-125q-35 0 -31 35l4 34q23 186 158 305t315 119z" />
    <glyph glyph-name="emptyset" unicode="&#x2205;" horiz-adv-x="1200" 
d="M496 170h100q109 0 190 87t97 214l69 563q14 113 -30 195l-564 -1008q55 -51 138 -51zM647 1327q-109 0 -189 -87t-98 -214l-69 -559l481 858l-24 2h-101zM582 -14h-101q-117 0 -215 71l-16 -30q-16 -27 -43 -27h-135q-16 0 -24 10q-7 10 1 25l98 174q-57 121 -38 270
l67 547q27 203 168 344t318 141h100q70 0 131 -24h131q16 0 25 -10q8 -11 0 -25l-29 -51q143 -152 115 -383l-66 -547q-27 -203 -169 -344t-318 -141z" />
    <glyph glyph-name="product" unicode="&#x220f;" horiz-adv-x="1052" 
d="M199 963h747q33 0 29 -35l-111 -901q-2 -27 -30 -27h-123q-35 0 -31 35l92 743h-438l-92 -751q-2 -27 -31 -27h-123q-35 0 -31 35l111 901q6 27 31 27z" />
    <glyph glyph-name="summation" unicode="&#x2211;" horiz-adv-x="1120" 
d="M262 1487h813q37 0 31 -37l-14 -121q-2 -27 -29 -26h-582l350 -492q27 -39 25 -51l-6 -43q-2 -18 -31 -47l-471 -484l570 -2q31 0 30 -34l-18 -123q-2 -27 -29 -27h-813q-14 0 -23 10t-8 25l15 106q2 18 32 58l531 542l-387 555q-31 44 -29 58l14 106q2 27 29 27z" />
    <glyph glyph-name="minus" unicode="&#x2212;" horiz-adv-x="1052" 
d="M168 723h747q35 0 31 -35l-16 -123q-2 -27 -29 -26h-745q-35 0 -31 34l14 123q2 27 29 27z" />
    <glyph glyph-name="radical" unicode="&#x221a;" horiz-adv-x="1230" 
d="M141 688h133q23 0 33 -37l135 -403l586 1210q16 29 39 29h143q16 0 26 -10t1 -27l-702 -1421q-14 -29 -41 -29h-136q-26 0 -36 37l-201 622q-10 29 20 29z" />
    <glyph glyph-name="infinity" unicode="&#x221e;" horiz-adv-x="1734" 
d="M1284 778h-70q-86 0 -152 -57t-77 -146l-6 -49q-10 -88 39 -141t133 -53h70q89 0 153 54t76 149l4 49q12 96 -33 145t-137 49zM582 778h-70q-86 0 -150 -54t-75 -149l-6 -49q-11 -94 35 -144t133 -50h69q90 0 155 58t77 145l4 49q12 90 -35 142t-137 52zM1229 963h76
q156 -1 254 -105t75 -276l-8 -62q-20 -172 -139 -271t-275 -99h-75q-90 0 -169 57t-122 145q-62 -88 -154 -145t-188 -57h-76q-152 0 -251 104t-79 274l8 62q20 172 142 272t272 101h76q94 1 173 -57t120 -146q61 88 155 146t185 57z" />
    <glyph glyph-name="integral" unicode="&#x222b;" horiz-adv-x="909" 
d="M805 1487h80q37 0 30 -35l-14 -123q-2 -27 -29 -26h-18q-217 0 -246 -236l-133 -1096q-23 -174 -124 -277t-253 -104h-80q-37 0 -30 35l14 123q2 27 31 27h18q215 0 244 235l135 1096q20 174 122 278t253 103z" />
    <glyph glyph-name="approxequal" unicode="&#x2248;" horiz-adv-x="1110" 
d="M938 463l37 -96q12 -23 -17 -48q-114 -73 -236 -75t-216 63q-92 53 -170 47t-172 -69q-23 -10 -37 26l-37 97q-10 20 16 47q117 73 240 75t215 -65q92 -53 169 -46t173 68q25 11 35 -24zM981 807l37 -94q10 -23 -17 -49q-115 -72 -237 -74t-215 63q-94 51 -171 45
t-171 -67q-23 -10 -37 24l-39 97q-8 25 19 47q114 73 238 75t216 -63q160 -100 340 23q27 12 37 -27z" />
    <glyph glyph-name="notequal" unicode="&#x2260;" horiz-adv-x="909" 
d="M737 1395h135q16 1 22 -9t1 -26l-264 -473h100q37 0 31 -35l-12 -113q-6 -27 -31 -26h-187l-81 -150h241q35 0 31 -35l-14 -112q-2 -27 -29 -27h-328l-254 -455q-18 -27 -43 -26h-137q-16 0 -23 9t1 26l249 446h-88q-35 0 -30 35l14 113q2 27 29 26h174l84 150h-232
q-35 0 -30 35l14 112q2 27 29 27h317l270 481q12 27 41 27z" />
    <glyph glyph-name="lessequal" unicode="&#x2264;" horiz-adv-x="983" 
d="M106 184h674q35 0 31 -34l-16 -123q-2 -27 -31 -27h-672q-35 0 -31 35l17 123q1 26 28 26zM932 1149l-14 -131q-8 -39 -23 -47l-483 -242l413 -246q23 -10 19 -51l-17 -131q-2 -25 -28 -8l-633 369q-29 20 -23 73t31 66l725 370q11 8 23 -1t10 -21z" />
    <glyph glyph-name="greaterequal" unicode="&#x2265;" horiz-adv-x="983" 
d="M104 184h674q33 0 29 -34l-16 -123q-2 -27 -31 -27h-672q-35 0 -31 35l17 123q1 26 30 26zM180 1026l17 131q4 29 28 10l633 -370q31 -14 21 -76q-4 -49 -29 -64l-723 -370q-14 -8 -26 1q-11 9 -9 21l17 131q4 39 20 47l483 242l-413 246q-23 14 -19 51z" />
    <glyph glyph-name="lozenge" unicode="&#x25ca;" horiz-adv-x="931" 
d="M430 299l277 514q10 18 8 23l-150 505l-274 -514q-12 -12 -10 -20zM432 0h-63q-27 0 -35 37l-217 774q-2 6 -2 25l409 774q12 29 37 28h64q29 0 37 -36l219 -775q0 -16 -2 -24l-406 -774q-12 -29 -41 -29z" />
    <glyph glyph-name="i.loclTRK" horiz-adv-x="512" 
d="M240 965h122q35 0 31 -35l-110 -903q-2 -27 -31 -27h-123q-35 0 -31 35l113 903q2 27 29 27zM274 1487h183q35 0 30 -37l-22 -186q-2 -29 -31 -29h-182q-37 0 -31 37l23 186q2 29 30 29z" />
    <glyph glyph-name="zero.lf" horiz-adv-x="1200" 
d="M496 170h100q110 0 190 87t97 214l69 563q16 127 -40 210t-164 83h-101q-109 0 -189 -87t-98 -214l-69 -563q-17 -127 41 -210t164 -83zM662 1511h100q176 0 287 -145t86 -348l-66 -547q-27 -203 -169 -344t-318 -141h-101q-179 0 -289 145t-83 348l67 547
q27 203 168 344q142 141 318 141z" />
    <glyph glyph-name="one.lf" horiz-adv-x="841" 
d="M504 1487h129q35 0 31 -35l-175 -1425q-6 -27 -30 -27h-123q-35 0 -31 35l146 1175l-95 -84q-25 -20 -43 7l-75 88q-20 20 -2 41l247 219q6 6 21 6z" />
    <glyph glyph-name="two.lf" horiz-adv-x="1159" 
d="M739 1503q174 0 289 -122q115 -123 91 -317q-25 -194 -115 -296t-289 -178l-244 -92q-184 -70 -215 -318l707 4q35 0 30 -34l-16 -123q-2 -27 -31 -27h-876q-35 0 -29 41q29 235 74 348t103 169t144 91l316 129q135 56 188 116t72 200q12 102 -46 163t-165 62h-86
q-102 0 -180 -67t-92 -179l-4 -35q-6 -27 -31 -26h-125q-35 0 -31 35l4 34q25 186 163 302t308 120h86z" />
    <glyph glyph-name="three.lf" horiz-adv-x="1148" 
d="M459 -18q-168 0 -284 116t-93 297l4 39q6 27 31 27h125q35 0 30 -35l-6 -39q-12 -97 48 -159t159 -62h86q113 0 192 64t91 169q31 244 -215 256h-150q-35 0 -31 35l17 135q2 27 29 27h149q246 12 274 266q10 88 -46 148t-160 61h-86q-97 0 -177 -71t-94 -177l-4 -39
q-6 -27 -31 -26h-124q-35 0 -31 35l4 38q25 185 166 305t305 119h88q170 -1 283 -119t92 -284q-16 -139 -85 -222t-198 -132q242 -104 205 -383q-20 -172 -160 -281t-317 -108h-86z" />
    <glyph glyph-name="four.lf" horiz-adv-x="1128" 
d="M764 963h123q35 0 31 -35l-31 -250h129q35 0 31 -35l-15 -123q-6 -27 -31 -26h-137l-57 -467q-2 -27 -31 -27h-123q-35 0 -30 35l57 459h-586q-25 0 -31 24l-12 55q-6 31 4 50l672 868q14 18 43 18h152q20 0 26 -13t-6 -30l-600 -788h360l31 258q6 27 31 27z" />
    <glyph glyph-name="five.lf" horiz-adv-x="1163" 
d="M461 -18q-178 0 -290 116t-89 299l4 33q2 27 31 27h125q35 0 30 -35l-4 -33q-27 -223 207 -223h86q117 0 196 63t103 213t-32 223q-54 73 -193 72h-49q-97 0 -153 -23q-55 -23 -111 -61l-152 2q-35 0 -31 35l115 770q2 27 29 27h786q37 0 31 -35l-15 -123q-2 -27 -28 -26
h-639l-72 -441q109 70 270 70h46q201 0 310 -132t70 -386q-33 -209 -173 -321t-322 -111h-86z" />
    <glyph glyph-name="six.lf" horiz-adv-x="1163" 
d="M475 166h90q106 0 189 63q82 63 106 215t-20 226q-43 74 -193 73h-55q-168 0 -236 -79q-67 -80 -73 -258q-8 -240 192 -240zM748 1511q178 1 288 -123t86 -311l-4 -35q-2 -27 -31 -26h-124q-35 0 -31 35l4 34q14 117 -42 179t-161 63h-88q-100 0 -171 -61t-95 -160
q-33 -115 -51 -250q36 32 114 54t164 22h53q227 0 325 -133t58 -385q-33 -209 -171 -321t-320 -111h-90q-176 0 -274 116q-97 117 -89 326q8 319 90 682q41 176 165 288t304 117h91z" />
    <glyph glyph-name="seven.lf" horiz-adv-x="1165" 
d="M231 1487h920q37 0 31 -35l-13 -102l-8 -35q-612 -627 -885 -1342q-8 -12 -38 2l-125 33q-20 8 -11 51q264 686 820 1248l-703 -4q-35 0 -31 34l15 123q2 27 28 27z" />
    <glyph glyph-name="eight.lf" horiz-adv-x="1173" 
d="M526 672q-94 0 -169 -66t-85 -155l-8 -78q-10 -87 43 -147t148 -60h157q96 0 169 64t83 151l10 78q10 90 -43 151t-147 62h-158zM688 866q94 0 160 60t76 147l6 60q10 82 -38 138t-142 56h-129q-94 -1 -161 -61t-77 -142l-8 -59q-10 -88 36 -143t140 -56h137zM436 -18
q-168 0 -272 114t-86 269l10 79q12 102 72 192t155 136q-72 41 -103 128q-32 87 -19 196l6 47q18 153 138 261t284 107h157q164 -1 260 -113t80 -263l-8 -48q-27 -237 -201 -323q78 -43 118 -135t28 -193l-8 -80q-21 -156 -149 -266t-296 -108h-166z" />
    <glyph glyph-name="nine.lf" horiz-adv-x="1165" 
d="M735 1327h-90q-106 0 -188 -63t-105 -214q-24 -151 20 -226t193 -74h56q167 0 235 81t74 259q2 125 -51 181t-144 56zM463 -18q-178 0 -288 124t-87 310l4 35q6 27 31 26h125q35 0 31 -35l-5 -34q-14 -118 42 -180t161 -62h88q100 0 171 61t95 160q37 119 52 250
q-37 -31 -114 -53t-163 -21h-55q-225 0 -324 132q-98 132 -59 386q33 209 172 320t322 110h90q176 1 272 -115t88 -325q-8 -324 -90 -682q-41 -175 -165 -289t-304 -118h-90z" />
    <glyph glyph-name="zero.osf" horiz-adv-x="1079" 
d="M633 782h-125q-82 0 -140 -59t-69 -141l-25 -209q-10 -82 30 -136t122 -55h125q83 0 141 60t68 139l26 209q10 82 -30 137q-41 55 -123 55zM524 967h121q152 0 248 -114t78 -269l-27 -213q-20 -156 -139 -265t-270 -108h-121q-152 0 -247 113t-77 268l27 213
q19 156 137 266t270 109z" />
    <glyph glyph-name="one.osf" horiz-adv-x="763" 
d="M551 195q35 0 31 -35l-17 -133q-2 -27 -30 -27h-390q-35 0 -30 35l18 133q2 27 29 27h133l59 491l-94 -84q-20 -20 -41 6l-78 88q-20 20 0 41l246 219q6 6 21 7h131q35 0 30 -35l-90 -733h72z" />
    <glyph glyph-name="two.osf" horiz-adv-x="1095" 
d="M877 0h-799q-35 0 -29 41q27 199 88 300t225 132l236 43q127 25 163 44q36 20 43 76t-40 99t-135 43h-90q-90 0 -152 -49t-70 -133q-2 -27 -28 -27h-125q-35 0 -31 35l2 21q16 135 138 237t278 105h88q152 -3 257 -109t89 -244t-86 -183q-70 -46 -283 -85l-192 -37
q-137 -29 -150 -129l619 4q35 0 31 -34l-17 -123q-2 -27 -30 -27z" />
    <glyph glyph-name="three.osf" horiz-adv-x="1134" 
d="M477 -422h-86q-165 0 -283 113t-96 280l4 39q2 27 31 27h125q35 0 31 -35l-6 -39q-10 -88 52 -144t163 -57h80q112 0 190 58t89 154q11 94 -42 150t-180 62h-109q-35 0 -30 35l18 135q2 27 31 27h108q242 12 267 209q10 80 -48 134t-161 54h-82q-96 0 -179 -64t-94 -153
l-4 -39q-2 -27 -30 -26h-125q-35 0 -31 34l6 39q20 174 160 284t305 110h88q172 0 285 -110t92 -275q-16 -120 -81 -192t-190 -103q113 -33 168 -123t37 -237t-157 -247t-316 -100z" />
    <glyph glyph-name="four.osf" horiz-adv-x="1128" 
d="M705 469h122q35 0 31 -35l-31 -250h129q35 0 31 -34l-16 -123q-2 -27 -31 -27h-137l-47 -383q-2 -27 -29 -27h-123q-35 0 -31 35l45 375h-585q-25 0 -31 25l-12 55q-10 29 4 49l674 868q14 18 41 19h151q20 0 26 -14t-3 -29l-600 -789h360l31 258q2 27 31 27z" />
    <glyph glyph-name="five.osf" horiz-adv-x="1179" 
d="M504 -426h-86q-178 0 -291 116t-90 300l4 33q6 27 31 26h125q35 0 30 -35l-4 -32q-27 -223 207 -224h86q254 0 298 276q24 150 -28 221q-69 93 -289 73q-96 -9 -185 -61q-34 -19 -36 -21l-151 2q-35 0 -31 35l101 653q2 27 30 27h787q35 0 30 -35l-16 -123
q-2 -27 -31 -27h-637l-59 -323q117 71 317 69t312 -133q110 -131 69 -385q-33 -208 -172 -320t-321 -112z" />
    <glyph glyph-name="six.osf" horiz-adv-x="1163" 
d="M406 166h90q106 0 188 63t106 215t-20 226q-43 74 -192 73h-56q-168 1 -236 -79t-73 -258q-8 -240 193 -240zM678 1511q178 1 288 -123t87 -311l-4 -35q-2 -27 -31 -26h-125q-35 0 -31 35l4 34q14 117 -42 179t-160 63h-89q-100 0 -171 -61t-95 -160q-33 -115 -51 -250
q37 32 115 54t164 22h53q227 0 325 -133t58 -385q-33 -209 -171 -321t-321 -111h-90q-176 0 -273 116t-89 326q8 319 90 682q41 176 165 288t304 117h90z" />
    <glyph glyph-name="seven.osf" horiz-adv-x="1165" 
d="M240 -410h-136q-39 0 -28 43q268 614 782 1149l-704 -4q-35 0 -31 35l14 123q6 27 31 27h919q35 0 31 -35l-12 -103l-8 -34q-547 -580 -824 -1184q-9 -17 -34 -17z" />
    <glyph glyph-name="eight.osf" horiz-adv-x="1173" 
d="M457 672q-94 0 -169 -66t-85 -155l-8 -78q-10 -87 43 -147t147 -60h158q96 0 169 64t83 151l10 78q10 90 -43 151t-148 62h-157zM618 866q94 0 160 60t76 147l6 60q10 82 -38 138t-142 56h-129q-94 -1 -161 -61t-77 -142l-8 -59q-10 -88 36 -143t140 -56h137zM367 -18
q-168 0 -274 113q-105 114 -85 270l10 79q12 102 72 192t156 136q-72 41 -104 128t-19 196l6 47q18 153 138 261t284 107h158q164 -1 260 -113t80 -263l-9 -48q-26 -237 -200 -323q78 -43 118 -135t27 -193l-8 -80q-21 -156 -149 -266t-296 -108h-165z" />
    <glyph glyph-name="nine.osf" horiz-adv-x="1183" 
d="M668 780h-84q-106 0 -188 -60t-100 -192q-19 -132 31 -200q50 -66 219 -64q168 2 240 72t82 202t-46 187t-154 55zM422 -424q-178 0 -289 113t-90 291l4 18q2 27 29 27h125q35 0 30 -35l-2 -19q-12 -94 47 -152t160 -59h90q98 0 169 52t93 139q31 100 43 209
q-75 -78 -311 -78t-340 120t-70 333t172 321t320 109h84q176 0 276 -115t93 -315q-6 -262 -78 -582q-39 -167 -163 -271t-302 -106h-90z" />
    <glyph glyph-name="zero.tf" 
d="M543 170h100q109 0 190 87t97 214l69 563q16 127 -40 210t-164 83h-101q-110 0 -190 -87t-96 -214l-70 -563q-16 -127 42 -210t163 -83zM709 1511h100q176 0 287 -145t86 -348l-66 -547q-27 -203 -169 -344t-318 -141h-101q-178 0 -288 145t-84 348l67 547
q27 203 168 344q142 141 318 141z" />
    <glyph glyph-name="one.tf" 
d="M627 1487h129q37 0 30 -35l-174 -1425q-2 -27 -30 -27h-123q-35 0 -31 35l145 1175l-94 -84q-20 -20 -43 7l-76 88q-20 20 -2 41l250 219q6 6 19 6z" />
    <glyph glyph-name="two.tf" 
d="M737 1503q174 0 289 -122q115 -123 91 -317t-115 -296t-289 -178l-244 -92q-184 -70 -215 -318l707 4q35 0 30 -34l-16 -123q-2 -27 -31 -27h-876q-35 0 -29 41q29 235 74 348t103 169t144 91l316 129q135 56 188 116t72 200q12 102 -46 163t-165 62h-86q-102 0 -180 -67
t-92 -179l-5 -35q-6 -27 -30 -26h-125q-35 0 -31 35l4 34q25 186 163 302t308 120h86z" />
    <glyph glyph-name="three.tf" 
d="M463 -18q-168 0 -284 116t-93 297l4 39q6 27 31 27h125q35 0 30 -35l-6 -39q-12 -97 48 -159t159 -62h86q113 0 192 64t91 169q31 244 -215 256h-150q-35 0 -30 35l16 135q2 27 29 27h149q246 12 275 266q10 88 -46 148t-161 61h-86q-96 0 -176 -71t-95 -177l-4 -39
q-6 -27 -30 -26h-125q-35 0 -31 35l4 38q25 185 166 305t305 119h88q170 -1 283 -119t92 -284q-16 -139 -85 -222t-198 -132q242 -104 205 -383q-20 -172 -160 -281t-317 -108h-86z" />
    <glyph glyph-name="four.tf" 
d="M793 963h122q35 0 31 -35l-31 -250h129q35 0 31 -35l-14 -123q-6 -27 -31 -26h-137l-57 -467q-2 -27 -31 -27h-123q-35 0 -31 35l58 459h-586q-25 0 -31 24l-12 55q-6 31 4 50l672 868q14 18 43 18h151q20 0 26 -13t-5 -30l-600 -788h360l31 258q6 27 31 27z" />
    <glyph glyph-name="five.tf" 
d="M457 -18q-178 0 -290 116t-89 299l4 33q2 27 31 27h125q35 0 28 -35l-4 -33q-27 -223 209 -223h86q252 0 295 262q28 164 -28 237t-195 72h-47q-133 0 -267 -84l-151 2q-35 0 -31 35l117 770q2 27 29 27h786q35 0 31 -35l-15 -123q-6 -27 -30 -26h-637l-74 -441
q109 70 272 70h45q201 0 311 -132t70 -386q-33 -209 -173 -321t-322 -111h-86z" />
    <glyph glyph-name="six.tf" 
d="M471 168h90q106 0 189 63q82 63 106 214t-20 226q-43 75 -193 74h-55q-168 0 -236 -79q-67 -80 -73 -260q-4 -126 49 -182t143 -56zM743 1513q178 1 288 -123t87 -311l-4 -35q-2 -27 -31 -26h-125q-35 0 -30 35l4 34q14 117 -42 179t-161 63h-88q-100 0 -171 -61
t-95 -160q-33 -111 -51 -250q90 74 278 74h53q227 0 325 -132t58 -386q-33 -209 -171 -321t-320 -111h-90q-176 0 -274 117q-97 118 -89 325q8 324 90 682q41 178 165 290t304 117h90z" />
    <glyph glyph-name="seven.tf" 
d="M225 1487h920q37 0 31 -35l-13 -102l-8 -35q-612 -627 -885 -1342q-8 -12 -39 2l-125 33q-20 8 -10 51q264 686 819 1248l-702 -4q-35 0 -31 34l15 123q2 27 28 27z" />
    <glyph glyph-name="eight.tf" 
d="M516 672q-94 0 -169 -66t-85 -155l-8 -78q-10 -87 43 -147t147 -60h158q94 0 168 64t84 151l10 78q10 90 -43 151t-147 62h-158zM678 866q94 0 160 60t75 147l7 60q10 82 -38 138t-143 56h-129q-94 -1 -160 -61t-77 -142l-8 -59q-11 -88 35 -143t141 -56h137zM426 -18
q-168 0 -272 114t-86 269l10 79q12 102 72 192t155 136q-72 41 -103 128q-32 87 -20 196l6 47q18 153 138 261t284 107h158q164 -1 260 -113t80 -263l-8 -48q-27 -237 -201 -323q78 -43 118 -135t27 -193l-8 -80q-20 -156 -148 -266t-296 -108h-166z" />
    <glyph glyph-name="nine.tf" 
d="M729 1327h-90q-106 0 -188 -63t-105 -214q-24 -151 20 -226t193 -74h55q166 0 235 81t75 259q2 125 -52 181t-143 56zM457 -18q-178 0 -288 124t-87 310l4 35q6 27 31 26h125q35 0 30 -35l-4 -34q-14 -118 42 -180t161 -62h88q100 0 171 61t95 160q37 119 52 250
q-37 -31 -114 -53t-163 -21h-55q-225 0 -324 132q-98 132 -59 386q33 209 172 320t321 110h90q176 0 273 -115q96 -116 88 -325q-8 -324 -90 -682q-41 -175 -165 -289t-304 -118h-90z" />
    <glyph glyph-name="zero.tosf" 
d="M739 782h-125q-82 0 -140 -59t-68 -141l-25 -209q-10 -82 30 -136t121 -55h125q83 0 141 60t68 139l27 209q10 82 -31 137t-123 55zM631 967h121q152 0 248 -114t77 -269l-26 -213q-19 -156 -139 -265t-271 -108h-121q-152 0 -247 113t-76 268l26 213q18 156 137 266
t271 109z" />
    <glyph glyph-name="one.tosf" 
d="M793 195q35 0 30 -35l-16 -133q-2 -27 -31 -27h-389q-35 0 -31 35l19 133q2 27 28 27h134l59 491l-94 -84q-20 -20 -41 6l-78 88q-20 20 0 41l246 219q6 6 20 7h131q35 0 31 -35l-90 -733h72z" />
    <glyph glyph-name="two.tosf" 
d="M981 0h-799q-35 0 -30 41q27 199 89 300t226 132l235 43q125 25 161 44q36 18 43 76t-39 100t-134 42h-90q-90 0 -151 -49t-70 -133q-2 -27 -31 -27h-125q-35 0 -30 35l2 21q16 135 138 237t279 105h88q152 -3 257 -109q104 -106 88 -244t-86 -183q-70 -46 -281 -85
l-195 -37q-135 -29 -147 -129l616 4q35 0 31 -34l-14 -123q-4 -15 -8 -21t-23 -6z" />
    <glyph glyph-name="three.tosf" 
d="M551 -422h-86q-166 0 -284 113t-95 280l4 39q2 27 31 27h125q35 0 30 -35l-6 -39q-10 -88 52 -144t163 -57h80q111 0 190 58t90 154q11 94 -42 150t-180 62h-109q-35 0 -31 35l19 135q2 27 30 27h109q242 12 266 209q10 80 -48 134t-161 54h-82q-96 0 -179 -64t-93 -153
l-4 -39q-2 -27 -31 -26h-125q-35 0 -30 34l6 39q20 174 159 284t306 110h88q173 0 285 -110t92 -275q-16 -120 -81 -192t-190 -103q113 -33 168 -123t37 -237t-158 -247t-315 -100z" />
    <glyph glyph-name="four.tosf" 
d="M801 469h123q35 0 30 -35l-30 -250h129q35 0 30 -34l-14 -123q-6 -27 -31 -27h-137l-47 -383q-2 -27 -29 -27h-123q-37 0 -30 35l45 375h-586q-25 0 -33 25l-10 55q-10 29 4 49l672 868q14 18 43 19h149q20 0 28 -14t-5 -29l-600 -789h360l31 258q6 27 31 27z" />
    <glyph glyph-name="five.tosf" 
d="M563 -426h-86q-178 0 -291 116t-90 300l4 33q6 27 31 26h125q35 0 31 -35l-4 -32q-27 -223 206 -224h86q255 0 299 276q24 150 -29 221q-68 93 -289 73q-95 -9 -184 -61q-34 -19 -36 -21l-152 2q-35 0 -30 35l100 653q2 27 31 27h786q35 0 31 -35l-17 -123
q-2 -27 -30 -27h-637l-60 -323q117 71 318 69q202 -2 312 -133t69 -385q-33 -208 -172 -320t-322 -112z" />
    <glyph glyph-name="six.tosf" 
d="M471 166h90q106 0 190 63q83 63 105 215t-20 226q-43 74 -193 73h-55q-166 0 -235 -79q-68 -80 -74 -258q-8 -240 192 -240zM745 1511q178 1 288 -123t87 -311l-4 -35q-6 -27 -31 -26h-124q-35 0 -31 35l4 34q14 117 -43 179t-162 63h-88q-98 0 -168 -61t-96 -160
q-37 -121 -51 -250q34 32 112 54t164 22h55q225 0 323 -133t60 -385q-33 -209 -172 -321t-321 -111h-90q-176 0 -273 116q-96 117 -88 326q6 305 90 682q41 176 165 288t304 117h90z" />
    <glyph glyph-name="seven.tosf" 
d="M303 -410h-135q-39 0 -29 43q268 614 783 1149l-705 -4q-35 0 -31 35l15 123q6 27 30 27h920q35 0 31 -35l-13 -103l-8 -34q-547 -580 -823 -1184q-10 -17 -35 -17z" />
    <glyph glyph-name="eight.tosf" 
d="M588 672q-94 0 -169 -66t-85 -155l-8 -78q-10 -87 43 -147t147 -60h158q96 0 169 64t83 151l10 78q10 90 -43 151t-148 62h-157zM750 866q94 0 160 60t75 147l6 60q10 82 -38 138t-142 56h-129q-94 -1 -161 -61t-77 -142l-8 -59q-10 -88 36 -143t140 -56h138zM498 -18
q-168 0 -273 113q-104 114 -86 270l11 79q12 102 72 192t155 136q-72 41 -104 128t-19 196l6 47q18 153 138 261t284 107h158q164 -1 260 -113t80 -263l-9 -48q-26 -237 -200 -323q78 -43 118 -135t27 -193l-8 -80q-20 -156 -148 -266t-296 -108h-166z" />
    <glyph glyph-name="nine.tosf" 
d="M725 780h-84q-106 0 -187 -60q-80 -60 -100 -192t30 -200q50 -66 219 -64t241 72t82 202t-46 187t-155 55zM479 -424q-178 0 -289 113t-90 291l4 18q2 27 29 27h125q35 0 31 -35l-2 -19q-12 -94 47 -152t160 -59h90q98 0 169 52t93 139q31 100 43 209q-75 -78 -311 -78
t-340 120t-70 347q33 199 171 307t320 109h84q175 0 275 -115t94 -315q-6 -262 -78 -582q-39 -167 -163 -271t-302 -106h-90z" />
    <glyph glyph-name="zero.dnom" horiz-adv-x="653" 
d="M324 518q-35 0 -62 -22t-31 -52l-32 -262q-4 -65 64 -65q34 0 64 21q29 21 33 52l31 263q4 31 -14 48t-53 17zM303 635h51q80 0 126 -55t36 -127l-33 -279q-10 -72 -64 -123t-134 -51h-52q-73 0 -119 56t-38 126l35 279q8 70 64 122t128 52z" />
    <glyph glyph-name="one.dnom" horiz-adv-x="618" 
d="M281 633h65q35 0 31 -35l-70 -571q-2 -27 -31 -27h-65q-35 0 -31 35l72 571q2 27 29 27z" />
    <glyph glyph-name="two.dnom" horiz-adv-x="655" 
d="M436 0h-344q-35 0 -31 35l7 49q6 41 18 53q12 11 24 23t21 20l164 154q7 8 27 24q105 86 54 140q-19 20 -52 20t-61 -22t-32 -55q-4 -34 -30 -33h-62q-35 0 -30 34l2 27q10 70 65 118t127 48h51q80 1 125 -63t35 -144t-152 -209l-120 -102l200 4q37 0 31 -35l-6 -59
q-2 -27 -31 -27z" />
    <glyph glyph-name="three.dnom" horiz-adv-x="653" 
d="M285 0h-52q-75 0 -121 53t-36 121l2 27q6 27 31 26h61q35 0 31 -34q-10 -76 57 -76q41 1 70 23q28 22 32 55t-14 51t-51 18h-47q-35 0 -31 35l6 45q2 27 29 27h47q35 1 63 25t30 57q6 65 -66 65q-35 0 -63 -22t-32 -55q-4 -34 -30 -33h-62q-35 0 -30 34l2 27
q10 70 65 118t127 48h51q80 0 126 -58q46 -59 36 -131t-86 -135q63 -59 54 -132t-64 -126t-135 -53z" />
    <glyph glyph-name="four.dnom" horiz-adv-x="688" 
d="M371 451l-129 -205h102zM492 242q35 0 30 -35l-8 -62q-2 -27 -31 -26h-32l-11 -92q-2 -27 -30 -27h-62q-35 0 -31 35l11 84h-219q-33 0 -29 35v59q2 4 4 12t4 13l266 387q6 10 27 10h98q35 0 31 -35l-43 -358h25z" />
    <glyph glyph-name="five.dnom" horiz-adv-x="653" 
d="M285 0h-52q-75 0 -121 53t-36 121l2 27q6 27 31 26h61q35 0 31 -34q-10 -76 57 -76q88 0 104 88q12 88 -26 106q-72 18 -127 -26l-86 2q-35 0 -29 35l35 286q2 27 29 27h325q35 0 31 -35l-6 -57q-2 -27 -31 -27h-241l-19 -115q49 23 117 14t102 -50q63 -55 47 -181
q-8 -74 -63 -129t-135 -55z" />
    </font>
</defs>
</svg>
