<?xml version="1.0" standalone="no"?>
<!DOCTYPE svg PUBLIC "-//W3C//DTD SVG 1.1//EN" "http://www.w3.org/Graphics/SVG/1.1/DTD/svg11.dtd" >
<svg xmlns="http://www.w3.org/2000/svg">
<metadata>
Created by FontPrep 20130207 at Wed Nov  5 19:40:54 2014
 By Connary
Copyright (c) 2014 by Connary Fagen. All rights reserved.
</metadata>
<defs>
<font id="6e35ea34f83b4c7e2a4038c0bc62ca8a" horiz-adv-x='1024' >
  <font-face 
    font-family="ManifoldCFExtended-Light"
    font-weight="300"
    font-stretch="normal"
    units-per-em="2048"
    panose-1="0 0 4 0 0 0 0 0 0 0"
    ascent="1638"
    descent="-410"
    x-height="963"
    cap-height="1487"
    bbox="-411.684 -956 3611.88 2165"
    underline-thickness="102"
    underline-position="-102"
    unicode-range="U+0020-FB02"
  />
<missing-glyph horiz-adv-x="1024" 
d="M102 1239v-1044l349 522zM164 102h696l-348 523zM573 717l349 -522v1044zM512 809l348 522h-696zM0 0v1434h1024v-1434h-1024z" />
    <glyph glyph-name="fi" unicode="fi" horiz-adv-x="2088" 
d="M1849 1487h64q31 0 31 -31v-82q0 -31 -31 -31h-64q-31 0 -30 31v82q-1 31 30 31zM313 965h1583q31 0 31 -31v-903q0 -31 -31 -31h-30q-31 0 -31 31v841h-1522v-841q0 -31 -30 -31h-31q-31 0 -31 31v841h-119q-31 0 -30 31v31q0 31 30 31h119v137q0 174 91 279t243 106
h930q31 0 31 -31v-31q0 -31 -31 -30h-930q-119 0 -180 -78t-62 -219v-133z" />
    <glyph glyph-name="fl" unicode="fl" horiz-adv-x="1988" 
d="M555 1487h1239q31 0 31 -31v-1425q0 -31 -31 -31h-31q-31 0 -30 31v1364h-1178q-119 0 -180 -78t-62 -219v-135h1176q31 0 31 -31v-31q0 -31 -31 -31h-1176v-839q0 -31 -30 -31h-31q-31 0 -31 31v839h-119q-31 0 -30 31v31q0 31 30 31h119v139q0 174 91 280t243 105z" />
    <glyph glyph-name="f_t.liga" unicode="ft" horiz-adv-x="3028" 
d="M2910 -4h-842q-106 2 -188 74t-82 204v596h-1485v-839q0 -31 -30 -31h-31q-31 0 -31 31v839h-119q-31 0 -30 31v31q0 31 30 31h119v139q0 174 91 279t243 106h954q31 0 31 -31v-31q0 -31 -31 -30h-954q-119 0 -180 -78t-62 -219v-135h1485v213q0 31 31 30h31q31 0 30 -30
v-213h1002q29 0 30 -27v-35q0 -31 -30 -31h-1002v-612q0 -80 49 -121t101 -41h862q33 1 33 -26l2 -41q0 -33 -27 -33z" />
    <glyph glyph-name=".notdef" horiz-adv-x="1024" 
d="M102 1239v-1044l349 522zM164 102h696l-348 523zM573 717l349 -522v1044zM512 809l348 522h-696zM0 0v1434h1024v-1434h-1024z" />
    <glyph glyph-name=".null" horiz-adv-x="0" 
 />
    <glyph glyph-name="nonmarkingreturn" horiz-adv-x="681" 
 />
    <glyph glyph-name="space" unicode=" " horiz-adv-x="645" 
 />
    <glyph glyph-name="exclam" unicode="!" horiz-adv-x="403" 
d="M154 31v32q0 31 30 31h45q31 0 31 -31v-32q0 -31 -31 -31h-45q-30 0 -30 31zM160 342v1114q0 31 30 31h31q31 0 31 -31v-1114q0 -31 -31 -31h-31q-30 0 -30 31z" />
    <glyph glyph-name="quotedbl" unicode="&#x22;" horiz-adv-x="729" 
d="M467 856v600q0 31 31 31h47q31 0 30 -31v-600q0 -31 -30 -31h-47q-31 0 -31 31zM154 856v600q0 31 30 31h47q31 0 31 -31v-600q0 -31 -31 -31h-47q-30 0 -30 31z" />
    <glyph glyph-name="numbersign" unicode="#" horiz-adv-x="1220" 
d="M807 993h-391v-499h391v499zM899 993v-499h148q31 0 30 -31v-31q0 -31 -30 -31h-148v-370q0 -31 -31 -31h-30q-31 0 -31 31v370h-391v-370q0 -31 -31 -31h-31q-31 0 -30 31v370h-150q-31 0 -31 31v31q0 31 31 31h150v499h-150q-31 0 -31 31v31q0 31 31 30h150v371
q0 31 30 31h31q31 0 31 -31v-371h391v371q0 31 31 31h30q31 0 31 -31v-371h148q31 0 30 -30v-31q0 -31 -30 -31h-148z" />
    <glyph glyph-name="dollar" unicode="$" horiz-adv-x="970" 
d="M543 956v-317q94 8 156 52q63 44 63 121q0 78 -53 106t-166 38zM215 1223q0 -68 52 -96t163 -44v320q-215 -14 -215 -180zM868 816q0 -118 -97 -196t-228 -90v-133q0 -31 -31 -30h-51q-31 0 -31 30v131q-115 10 -215 88t-113 181q-4 31 31 30h51q29 0 33 -28
q8 -63 73 -109t140 -51v330q-158 23 -241 81t-83 179t94 197t230 83v131q0 31 31 31h51q31 0 31 -31v-133q117 -14 212 -98t99 -195q0 -33 -29 -32h-47q-35 0 -35 26q-2 74 -62 126t-138 65v-332q161 -23 243 -78t82 -173z" />
    <glyph glyph-name="percent" unicode="%" horiz-adv-x="1306" 
d="M1112 193v16q0 92 -96 92h-19q-94 0 -94 -92v-16q0 -94 94 -95h19q96 1 96 95zM993 401h27q82 0 135 -54t53 -136v-23q0 -82 -53 -135t-135 -53h-27q-84 0 -136 53t-52 135v23q0 82 53 136t135 54zM389 1278v16q0 92 -96 92h-19q-94 0 -94 -92v-16q0 -94 94 -94h19
q96 0 96 94zM1047 1487h55q39 0 20 -31l-827 -1425q-18 -31 -41 -31h-55q-39 0 -21 31l828 1425q18 31 41 31zM270 1487h27q82 0 135 -54t53 -137v-22q0 -82 -52 -135t-136 -54h-27q-82 -1 -135 53t-53 136v22q0 82 53 136t135 55z" />
    <glyph glyph-name="ampersand" unicode="&#x26;" horiz-adv-x="2277" 
d="M508 61h1046q115 0 193 48l-1284 596l-101 -48q-168 -80 -167 -221v-84q0 -141 85 -216t228 -75zM2146 0h-149q-18 0 -47 14l-113 54q-115 -98 -289 -99h-1036q-178 1 -294 107t-116 276v74q0 180 193 291l63 37q-130 65 -165 169q-29 84 -29 193v29q0 147 109 257
q110 110 280 109h790q170 1 280 -109t110 -257v-39q0 -195 -113 -287l-66 -55q-20 -16 -49 -16h-51q-20 0 -28 14q-7 14 8 24l51 33q63 41 109 120t46 173v33q0 111 -78 193t-212 81h-801q-135 0 -214 -82t-79 -192v-33q0 -209 195 -299l1376 -625q39 66 39 154v160
q0 125 43 160l100 79q27 18 37 19h68q20 0 27 -12t-7 -25l-137 -109q-39 -31 -39 -100v-168q0 -108 -51 -194l258 -117q20 -11 7 -23t-26 -12z" />
    <glyph glyph-name="quotesingle" unicode="'" horiz-adv-x="415" 
d="M154 856v600q0 31 30 31h47q31 0 31 -31v-600q0 -31 -31 -31h-47q-30 0 -30 31z" />
    <glyph glyph-name="parenleft" unicode="(" horiz-adv-x="669" 
d="M225 1266v-1045q-1 -125 59 -199t162 -73h60q31 0 31 -31v-31q0 -31 -31 -30h-39q-152 0 -243 105t-91 280v1003q0 173 91 279t243 106h39q31 0 31 -31v-30q0 -31 -31 -31h-60q-102 0 -162 -74t-59 -198z" />
    <glyph glyph-name="parenright" unicode=")" horiz-adv-x="669" 
d="M444 221v1045q0 124 -59 198t-162 74h-59q-31 0 -31 31v30q0 31 31 31h39q153 0 243 -105t91 -280v-1003q1 -174 -91 -280t-243 -105h-39q-31 0 -31 30v31q0 31 31 31h59q101 -1 161 73t60 199z" />
    <glyph glyph-name="asterisk" unicode="*" horiz-adv-x="753" 
d="M426 954q0 -23 -27 -22h-47q-23 0 -22 22v185l-142 -105q-23 -12 -36 8l-23 39q-14 23 8 37l166 92l-166 93q-25 8 -8 34l23 41q16 18 36 6l142 -102v182q0 23 22 23h47q27 0 27 -23v-182l139 102q23 12 35 -6l27 -41q10 -27 -11 -34l-163 -93l163 -92q18 -14 11 -37
l-27 -39q-12 -20 -35 -8l-139 105v-185z" />
    <glyph glyph-name="plus" unicode="+" horiz-adv-x="1052" 
d="M575 709h326q29 0 29 -31v-31q0 -31 -31 -31h-324v-350q0 -31 -30 -30h-31q-31 0 -31 30v350h-329q-31 0 -31 31v31q0 31 31 31h329v346q0 31 31 30h31q31 0 30 -30v-346z" />
    <glyph glyph-name="comma" unicode="," horiz-adv-x="389" 
d="M160 207h96q31 0 31 -31v-184q0 -68 -4 -108t-28 -100t-71 -114q-18 -20 -41 0l-34 33q-27 27 -9 43q55 53 70 102q14 49 14 132l17 20h-41q-31 0 -31 31v145q0 31 31 31z" />
    <glyph glyph-name="hyphen" unicode="-" horiz-adv-x="1298" 
d="M1124 473h-950q-31 0 -31 31v31q0 31 31 30h950q31 0 31 -30v-31q0 -31 -31 -31z" />
    <glyph glyph-name="period" unicode="." horiz-adv-x="327" 
d="M102 31v84q0 31 31 30h62q31 0 30 -30v-84q0 -31 -30 -31h-62q-31 0 -31 31z" />
    <glyph glyph-name="slash" unicode="/" horiz-adv-x="774" 
d="M709 1487h43q33 0 20 -31l-622 -1425q-14 -31 -41 -31h-43q-37 0 -21 31l623 1425q12 31 41 31z" />
    <glyph glyph-name="zero" unicode="0" horiz-adv-x="2060" 
d="M553 66h954q141 0 240 115q98 116 98 286v549q0 172 -98 287t-240 114h-954q-143 0 -241 -114q-97 -115 -97 -287v-549q0 -172 98 -287q99 -114 240 -114zM553 1509h954q176 0 303 -143t127 -346v-557q0 -203 -127 -346t-303 -144h-954q-176 -1 -303 143t-127 347v557
q0 203 127 346t303 143z" />
    <glyph glyph-name="one" unicode="1" horiz-adv-x="710" 
d="M362 1487h31q31 0 31 -31v-1425q0 -31 -31 -31h-31q-31 0 -30 31v1315l-113 -113q-23 -20 -43 0l-22 20q-20 20 0 43l188 187q12 4 20 4z" />
    <glyph glyph-name="two" unicode="2" horiz-adv-x="1978" 
d="M543 1503h905q170 0 299 -123t129 -297q0 -422 -453 -471l-860 -102q-96 -10 -164 -43q-67 -33 -103 -72q-84 -93 -85 -303h1620q31 0 31 -31v-30q0 -31 -31 -31h-1696q-31 0 -31 31q0 319 109 437t324 146l913 111q334 39 334 358q0 137 -102 233t-234 95h-905
q-131 0 -231 -92t-99 -242v-35q0 -31 -31 -30h-32q-31 0 -31 30v35q0 180 129 303t295 123z" />
    <glyph glyph-name="three" unicode="3" horiz-adv-x="1968" 
d="M1866 379q0 -176 -129 -287t-305 -110h-906q-168 0 -297 114t-127 295v39q0 31 31 31h33q31 0 31 -31v-39q0 -153 98 -235t231 -82h906q141 0 241 79t101 222q0 143 -96 232t-251 95h-1007q-31 0 -31 31v43q0 31 31 31h1007q154 6 243 89t89 218t-98 220t-231 85h-906
q-129 0 -228 -90t-99 -246v-39q0 -31 -31 -30h-33q-31 0 -31 30v39q0 185 129 307t293 121h906q170 -1 296 -117t125 -278q0 -118 -58 -202t-179 -158q252 -152 252 -377z" />
    <glyph glyph-name="four" unicode="4" horiz-adv-x="1945" 
d="M1550 602v330q0 31 31 31h31q31 0 30 -31v-330h181q31 0 30 -31v-30q0 -31 -30 -31h-181v-479q0 -31 -30 -31h-31q-31 0 -31 31v479h-1450q-20 0 -32 20l-19 39q-12 29 4 43l1006 875q27 23 41 22h76q20 0 27 -11t-7 -23l-1016 -873h1370z" />
    <glyph glyph-name="five" unicode="5" horiz-adv-x="1982" 
d="M528 -18q-178 0 -302 114t-124 297v33q0 31 31 31h33q31 0 31 -31v-33q0 -151 94 -235t237 -84h906q145 0 245 86t105 258q10 412 -357 411h-884q-121 0 -239 -84q-48 -35 -73 -43h-77q-31 0 -31 31v39l20 684q0 31 31 31h1606q31 0 30 -31v-31q0 -31 -30 -30h-1538
l-23 -582q12 6 83 47q127 72 265 72h873q200 0 324 -130t116 -380q-8 -211 -136 -326t-310 -114h-906z" />
    <glyph glyph-name="six" unicode="6" horiz-adv-x="1982" 
d="M520 74h918q152 0 248 86t99 272t-79 282q-82 95 -279 95h-901q-358 0 -317 -395q16 -174 89 -257t222 -83zM545 1511h909q178 1 301 -121t123 -309v-34q0 -31 -31 -31h-32q-31 0 -31 31v34q0 154 -91 246t-239 92h-909q-145 0 -225 -83t-101 -203q-37 -205 -22 -351
q117 131 325 131h908q469 0 450 -491q-8 -213 -134 -327t-308 -113h-918q-174 0 -280 112t-125 320q-31 330 8 682q18 182 130 298t292 117z" />
    <glyph glyph-name="seven" unicode="7" horiz-adv-x="1984" 
d="M1892 1456v-49q2 -16 -6 -33q-448 -291 -878 -653t-719 -737q-20 -27 -43 -11l-31 23q-29 20 -12 41q295 375 716 743t822 615h-1618q-31 0 -31 30v31q0 31 31 31h1739q30 0 30 -31z" />
    <glyph glyph-name="eight" unicode="8" horiz-adv-x="1992" 
d="M1798 369v65q0 119 -93 206t-228 87h-959q-135 0 -229 -87t-94 -206v-65q0 -121 93 -208t230 -87h959q135 0 228 87t93 208zM221 1128v-24q0 -123 79 -206t212 -83h969q133 0 212 83t79 206v24q0 119 -81 205t-214 86h-961q-133 0 -214 -86t-81 -205zM1890 440v-63
q0 -156 -124 -276t-291 -119h-955q-168 0 -293 120t-125 275v63q0 96 56 186t147 148q-82 57 -130 141t-48 177v32q0 152 116 270t281 117h946q164 1 280 -117t116 -270v-32q0 -92 -47 -178t-129 -140q90 -59 145 -148t55 -186z" />
    <glyph glyph-name="nine" unicode="9" horiz-adv-x="1982" 
d="M1462 1419h-917q-152 0 -248 -86q-96 -85 -98 -271t80 -281t276 -95h903q357 0 316 393q-16 176 -90 258t-222 82zM1438 -18h-910q-178 0 -301 122t-123 308v34q0 31 31 31h33q31 0 31 -31v-34q0 -154 91 -246t238 -92h912q145 0 224 83t99 203q37 205 23 353
q-113 -133 -326 -133h-905q-471 0 -453 491q8 213 134 327t309 113h917q174 0 281 -112q106 -113 125 -320q31 -330 -8 -682q-18 -183 -130 -299t-292 -116z" />
    <glyph glyph-name="colon" unicode=":" horiz-adv-x="430" 
d="M154 31v84q0 31 30 30h62q31 0 30 -30v-84q0 -31 -30 -31h-62q-30 0 -30 31zM154 848v84q0 31 30 31h62q31 0 30 -31v-84q0 -31 -30 -31h-62q-30 0 -30 31z" />
    <glyph glyph-name="semicolon" unicode=";" horiz-adv-x="434" 
d="M184 0q-31 0 -30 31v135q0 31 30 31h62q20 0 30 -33q2 -8 4 -70q5 -200 -36 -256q-6 -12 -29 -24l-12 -19q-10 -4 -19 8q-8 12 8 36t22 77q7 53 1 78l6 6h-37zM154 848v84q0 31 30 31h62q31 0 30 -31v-84q0 -31 -30 -31h-62q-30 0 -30 31z" />
    <glyph glyph-name="less" unicode="&#x3c;" horiz-adv-x="983" 
d="M860 907v-39q0 -37 -20 -49l-572 -336l572 -336q20 -12 20 -49v-39q0 -12 -9 -17t-24 1l-690 408q-14 11 -14 33t14 32l690 408q14 6 24 1q9 -6 9 -18z" />
    <glyph glyph-name="equal" unicode="=" horiz-adv-x="929" 
d="M776 461h-622q-31 0 -31 31v34q0 31 31 31h622q31 0 31 -31v-34q0 -31 -31 -31zM776 791h-622q-31 0 -31 30v35q0 31 31 31h622q31 0 31 -31v-35q0 -30 -31 -30z" />
    <glyph glyph-name="greater" unicode="&#x3e;" horiz-adv-x="983" 
d="M123 868v39q0 11 9 17t24 0l690 -408q14 -10 14 -33t-14 -32l-690 -408q-14 -6 -24 -1q-9 5 -9 17v39q0 37 20 49l572 336l-572 336q-20 12 -20 49z" />
    <glyph glyph-name="question" unicode="?" horiz-adv-x="1839" 
d="M764 31v32q0 31 31 31h45q31 0 30 -31v-32q0 -31 -30 -31h-45q-31 0 -31 31zM485 1513h865q168 -1 288 -123t119 -298q0 -176 -77 -275q-77 -101 -178 -115t-310 -48t-262 -42q-66 -10 -66 -90v-180q0 -31 -30 -31h-31q-31 0 -31 31v160q0 4 -1 26t0 31q1 11 3 31
q5 53 59 82q19 10 86 22t478 74q268 39 268 315q0 147 -91 243t-218 95h-875q-125 0 -215 -93t-90 -247v-39q0 -31 -31 -30h-32q-31 0 -31 30v39q-2 184 118 308t285 124z" />
    <glyph glyph-name="at" unicode="@" horiz-adv-x="1251" 
d="M573 401h21q99 0 170 71q8 7 34 35t31 36v145h-221q-186 0 -186 -147q0 -63 38 -101t113 -39zM864 106v-55q0 -27 -22 -37q-88 -41 -170 -41h-88q-184 1 -322 141t-139 347v569q0 207 138 344t323 137h94q176 0 313 -135t137 -332v-585q0 -72 -43 -114t-108 -42h-4
q-37 0 -79 31t-56 78q-117 -111 -242 -111h-21q-111 0 -185 70t-75 173q0 103 83 175t206 72h225v8q0 127 -42 181t-138 54h-35q-57 0 -102 -17t-56 -25t-50 -44q-25 -20 -46 0l-28 29q-18 23 -2 41q109 119 282 119h31q131 0 211 -91t80 -245v-357q0 -45 46 -45t46 45v609
q0 154 -102 255t-236 101h-115q-145 0 -246 -103t-102 -272v-579q1 -167 103 -273t245 -106h99q78 0 155 47q37 22 37 -17z" />
    <glyph glyph-name="A" unicode="A" horiz-adv-x="2125" 
d="M1589 530l-522 844l-528 -844h1050zM2003 0h-66q-18 0 -39 33l-251 405h-1166l-254 -405q-2 -4 -6 -10q-4 -7 -5 -9q-6 -15 -26 -14h-67q-39 0 -23 33l904 1427q20 33 38 33h45q19 0 39 -33l902 -1427q8 -17 0 -25t-25 -8z" />
    <glyph glyph-name="B" unicode="B" horiz-adv-x="2015" 
d="M225 92h1284q158 0 230 70q71 70 71 220t-74 242q-75 91 -218 91h-1293v-623zM225 807h1299q120 0 186 88t66 225q0 274 -287 275h-1264v-588zM1903 387q0 -387 -404 -387h-1329q-37 0 -37 37v1413q0 37 37 37h1313q176 0 280 -99t105 -278q0 -262 -172 -346
q207 -82 207 -377z" />
    <glyph glyph-name="C" unicode="C" horiz-adv-x="2019" 
d="M1855 481h31q31 0 31 -30q-2 -186 -132 -332t-294 -146h-954q-170 0 -302.5 147.5t-132.5 344.5v557q0 197 132.5 342t302.5 145h954q164 0 294 -143t132 -330q0 -31 -31 -30h-31q-33 0 -32 30q0 152 -101.5 266.5t-230.5 114.5h-954q-137 0 -239.5 -116.5t-102.5 -278.5
v-557q0 -164 102 -281.5t240 -117.5h954q131 0 232.5 116.5t99.5 268.5q-1 30 32 30z" />
    <glyph glyph-name="D" unicode="D" horiz-adv-x="1996" 
d="M1794 481v525q0 154 -100 272t-230 117h-1251v-1303h1251q130 0 230 118t100 271zM152 1487h1308q168 1 297 -143t129 -338v-525q0 -195 -129 -338t-297 -143h-1308q-31 0 -31 31v1425q0 31 31 31z" />
    <glyph glyph-name="E" unicode="E" 
d="M238 797h1445q31 0 31 -31v-31q0 -31 -31 -30h-1445v-613h1579q31 0 30 -31v-30q0 -31 -30 -31h-1641q-31 0 -31 31v1425q0 31 31 31h1641q31 0 30 -31v-31q0 -31 -30 -30h-1579v-598z" />
    <glyph glyph-name="F" unicode="F" horiz-adv-x="1978" 
d="M246 776h1446q31 0 30 -31v-30q0 -31 -30 -31h-1446v-653q0 -31 -31 -31h-31q-31 0 -30 31v1425q0 31 30 31h1641q31 0 30 -31v-31q0 -31 -30 -30h-1579v-619z" />
    <glyph glyph-name="G" unicode="G" horiz-adv-x="2029" 
d="M1413 770h475q31 0 31 -31v-278q0 -199 -129 -343.5t-299 -144.5h-954q-174 0 -304.5 143.5t-130.5 340.5v565q0 197 132.5 342t302.5 145h954q164 0 294 -143t132 -330q0 -31 -31 -30h-31q-33 0 -32 30q0 152 -100.5 266.5t-231.5 114.5h-954q-137 0 -239.5 -116.5
t-102.5 -278.5v-565q0 -160 101 -275.5t241 -115.5h954q135 0 234.5 115.5t99.5 279.5v217h-412q-31 0 -31 31v30q0 31 31 31z" />
    <glyph glyph-name="H" unicode="H" horiz-adv-x="2050" 
d="M1845 1487h31q31 0 31 -31v-1425q0 -31 -31 -31h-31q-31 0 -30 31v633h-1579v-633q0 -31 -31 -31h-31q-31 0 -31 31v1425q0 31 31 31h31q31 0 31 -31v-700h1579v700q-1 31 30 31z" />
    <glyph glyph-name="I" unicode="I" horiz-adv-x="436" 
d="M172 31v1425q0 31 31 31h33q31 0 30 -31v-1425q0 -31 -30 -31h-33q-31 0 -31 31z" />
    <glyph glyph-name="J" unicode="J" horiz-adv-x="1900" 
d="M1362 78q129 0 226 112t98 273v993q0 31 30 31h31q31 0 31 -31v-989q0 -197 -126 -339t-294 -142h-887q-123 0 -229 82t-156 211q-13 26 16 40l39 9q31 10 37 -19q33 -98 117 -165t176 -66h891z" />
    <glyph glyph-name="K" unicode="K" horiz-adv-x="2052" 
d="M1915 0h-74q-25 0 -86 29l-1294 612l-225 -113v-497q0 -31 -31 -31h-31q-31 0 -31 31v1425q0 31 31 31h31q31 0 31 -31v-835l1490 837q47 29 66 29h63q20 0 25.5 -18.5t-16.5 -32.5l-1309 -740l1372 -647q14 -6 11 -27.5t-23 -21.5z" />
    <glyph glyph-name="L" unicode="L" horiz-adv-x="1744" 
d="M236 92h1374q31 0 30 -31v-30q0 -31 -30 -31h-1436q-31 0 -31 31v1425q0 31 31 31h31q31 0 31 -31v-1364z" />
    <glyph glyph-name="M" unicode="M" horiz-adv-x="2289" 
d="M2030 1487h81q31 0 31 -31v-1425q0 -31 -31 -31h-30q-31 0 -31 31v1329l-850 -1329q-18 -31 -39 -31h-35q-20 0 -39 31l-849 1329v-1329q0 -31 -31 -31h-31q-31 0 -31 31v1425q0 31 31 31h82q23 0 41 -31l844 -1341l846 1341q18 31 41 31z" />
    <glyph glyph-name="N" unicode="N" horiz-adv-x="2152" 
d="M1937 1487h31q31 0 31 -31v-1425q0 -31 -31 -31h-96q-10 0 -37 23l-1589 1374v-1366q0 -31 -31 -31h-31q-31 0 -30 31v1425q0 31 30 31h99q10 0 36 -23l1588 -1374v1366q-1 31 30 31z" />
    <glyph glyph-name="O" unicode="O" horiz-adv-x="2060" 
d="M553 66h954q141 0 240 115q98 116 98 286v549q0 172 -98 287t-240 114h-954q-143 0 -241 -114q-97 -115 -97 -287v-549q0 -172 98 -287q99 -114 240 -114zM553 1509h954q176 0 303 -143t127 -346v-557q0 -203 -127 -346t-303 -144h-954q-176 -1 -303 143t-127 347v557
q0 203 127 346t303 143z" />
    <glyph glyph-name="P" unicode="P" horiz-adv-x="1988" 
d="M231 745h1252q301 0 301 325t-301 325h-1252v-650zM170 1487h1307q183 0 291 -112q108 -113 108 -307t-108 -304t-291 -111h-1246v-622q0 -31 -30 -31h-31q-31 0 -31 31v1425q0 31 31 31z" />
    <glyph glyph-name="Q" unicode="Q" horiz-adv-x="2060" 
d="M1845 467v549q0 172 -98 287t-240 114h-954q-143 0 -241 -114q-97 -115 -97 -287v-549q0 -172 98 -287t240 -114h954q90 0 170 51l-180 180q-20 20 0 45l23 20q20 23 43 0l182 -182q100 117 100 287zM1937 1020v-557q0 -201 -127 -348l43 -43q18 -18 0 -45l-22 -21
q-20 -25 -43 0l-47 47q-104 -80 -234 -80h-954q-176 -1 -303 143t-127 347v557q0 203 127 346t303 143h954q176 0 303 -143t127 -346z" />
    <glyph glyph-name="R" unicode="R" horiz-adv-x="2000" 
d="M225 745h1252q301 0 301 325t-301 325h-1252v-650zM1878 31q0 -31 -31 -31h-30q-31 0 -31 31v350q0 272 -283 272h-1278v-622q0 -31 -30 -31h-31q-31 0 -31 31v1425q0 31 31 31h1306q184 0 292 -111.5t108 -306.5q0 -260 -184 -364q193 -90 192 -332v-342z" />
    <glyph glyph-name="S" unicode="S" horiz-adv-x="1998" 
d="M524 1509h926q168 0 294 -121.5t126 -308.5v-32q0 -31 -31 -31h-33q-31 0 -30 31v32q0 156 -95.5 247t-230.5 91h-926q-139 0 -225 -78.5t-86 -229.5t91 -222.5t235 -75.5l925 -20q180 -4 301 -105.5t121 -289.5t-127 -304.5t-303 -116.5h-913q-172 0 -301 116t-129 296
v55q0 31 30 31h33q31 0 31 -31l2 -55q4 -150 100.5 -233.5t233.5 -83.5h913q143 0 240.5 87t97.5 239t-93 225t-235 77l-925 21q-186 4 -303 105.5t-117 282.5t115.5 291.5t287.5 110.5z" />
    <glyph glyph-name="T" unicode="T" horiz-adv-x="1984" 
d="M133 1487h1718q31 0 31 -31v-31q0 -31 -31 -30h-811v-1364q0 -31 -30 -31h-31q-31 0 -31 31v1364h-815q-31 0 -31 30v31q0 31 31 31z" />
    <glyph glyph-name="U" unicode="U" horiz-adv-x="2011" 
d="M1827 1487h31q31 0 30 -31v-1010q0 -200 -125 -330t-321 -130h-873q-197 0 -321 131t-125 329v1010q0 31 31 31h30q31 0 31 -31v-1020q0 -166 97 -262t257 -96h873q160 0 257 96t97 262v1020q0 31 31 31z" />
    <glyph glyph-name="V" unicode="V" horiz-adv-x="2060" 
d="M115 1487h53q23 0 45 -35l815 -1327l819 1327q23 35 45 35h54q39 0 16 -35l-877 -1417q-23 -35 -38 -35h-35q-16 0 -20 7t-10 15q-7 8 -9 13l-875 1417q-23 35 17 35z" />
    <glyph glyph-name="W" unicode="W" horiz-adv-x="3307" 
d="M3142 1487h61q37 0 16 -37l-727 -1415q-23 -35 -38 -35h-52q-14 0 -18 7t-11 15t-10 13l-710 1323l-709 -1323q-23 -35 -39 -35h-51q-14 0 -18 7t-12 15t-9 13l-727 1415q-20 37 16 37h62q25 0 45 -37l666 -1317l696 1297q20 37 45 36h72q25 0 45 -36l694 -1297l668 1317
q20 37 45 37z" />
    <glyph glyph-name="X" unicode="X" horiz-adv-x="2013" 
d="M1884 0h-76q-23 0 -39 14l-761 662l-762 -662q-16 -14 -39 -14h-78q-20 0 -26 11q-5 11 12 26l815 706l-815 707q-16 14 -12 26q5 11 26 11h78q23 0 39 -14l762 -662l761 662q16 14 37 14h78q20 0 26 -11t-12 -26l-813 -707l813 -706q16 -14 12 -26q-5 -11 -26 -11z" />
    <glyph glyph-name="Y" unicode="Y" 
d="M1806 1487h66q20 0 25 -11t-11 -26l-860 -817v-602q0 -31 -31 -31h-30q-31 0 -31 31v602l-858 817q-16 14 -13 26q4 11 27 11h64q23 0 39 -14l786 -742l788 742q16 14 39 14z" />
    <glyph glyph-name="Z" unicode="Z" horiz-adv-x="1927" 
d="M1825 1456v-70q0 -10 -8 -20l-1584 -1274h1561q31 0 31 -31v-30q0 -31 -31 -31h-1661q-31 0 -31 31v69q0 14 9 21l1583 1274h-1561q-31 0 -31 30v31q0 31 31 31h1661q31 0 31 -31z" />
    <glyph glyph-name="bracketleft" unicode="[" horiz-adv-x="565" 
d="M225 1538v-1589h176q31 0 31 -31v-31q0 -31 -31 -30h-237q-31 0 -31 30v1712q0 31 31 31h237q31 0 31 -31v-30q0 -31 -31 -31h-176z" />
    <glyph glyph-name="backslash" unicode="\" horiz-adv-x="774" 
d="M709 0h-43q-27 0 -41 31l-623 1425q-12 31 21 31h43q28 0 40 -31l623 -1425q16 -31 -20 -31z" />
    <glyph glyph-name="bracketright" unicode="]" horiz-adv-x="565" 
d="M164 1630h237q31 0 31 -31v-1712q0 -31 -31 -30h-237q-31 0 -31 30v31q0 31 31 31h176v1589h-176q-31 0 -31 31v30q0 31 31 31z" />
    <glyph glyph-name="asciicircum" unicode="^" horiz-adv-x="768" 
d="M643 932h-43q-29 0 -41 31l-176 403l-174 -403q-12 -31 -41 -31h-43q-33 0 -21 31l207 493q6 31 41 31h64q27 0 41 -31l207 -493q12 -31 -21 -31z" />
    <glyph glyph-name="underscore" unicode="_" horiz-adv-x="1187" 
d="M1063 0h-930q-31 0 -31 31v30q0 31 31 31h930q31 0 31 -31v-30q0 -31 -31 -31z" />
    <glyph glyph-name="grave" unicode="`" horiz-adv-x="495" 
d="M367 1186h-39q-23 0 -43 37l-179 379q-18 37 21 36h63q31 1 43 -36l154 -379q16 -37 -20 -37z" />
    <glyph glyph-name="a" unicode="a" horiz-adv-x="1800" 
d="M1673 0h-57q-33 0 -33 49v82q-129 -133 -256 -133h-934q-115 0 -203 82t-88 200t80 196t207 77h1188v-98h-1186q-197 0 -196 -181q0 -80 58 -132t138 -52h930q84 0 143 44t119 120v352q0 127 -60 198t-153 70h-924q-92 0 -137 -19t-86 -67q-23 -25 -45 -2l-28 21
q-20 18 -3 41q53 68 117 94t174 25h924q131 1 222 -99t91 -258v-561q0 -15 4 -32t-6 -17z" />
    <glyph glyph-name="b" unicode="b" horiz-adv-x="1830" 
d="M1636 346v250q0 110 -70 192t-180 82h-897q-83 0 -167 -59t-86 -123v-481q57 -45 131 -80t122 -35h897q96 0 174 77q76 77 76 177zM489 963h895q140 0 242 -113t103 -254v-250q1 -138 -105 -242t-240 -104h-895q-129 0 -253 102v-71q0 -31 -31 -31h-31q-31 0 -31 31v1425
q0 31 31 31h31q31 0 31 -31v-604q114 111 253 111z" />
    <glyph glyph-name="c" unicode="c" horiz-adv-x="1804" 
d="M1683 645h-32q-35 0 -35 25q0 72 -82 139.5t-164 67.5h-891q-106 0 -190 -84t-84 -195v-233q0 -111 84 -193t190 -82h889q133 0 256 141q23 25 41 9l27 -23q23 -20 6 -43q-143 -176 -328 -176h-893q-137 0 -250.5 110.5t-113.5 256.5v233q0 145 113.5 258t250.5 113h893
q115 0 227.5 -93.5t114.5 -199.5q0 -31 -29 -31z" />
    <glyph glyph-name="d" unicode="d" horiz-adv-x="1849" 
d="M1360 870h-903q-111 0 -182 -83t-70 -191v-250q0 -100 78 -177t174 -77h903q49 0 123 35t131 80v481q-2 62 -86 122t-168 60zM1645 1487h30q31 0 31 -31v-1425q0 -31 -31 -31h-30q-31 0 -31 31v71q-125 -102 -254 -102h-903q-133 0 -239 104q-105 104 -105 242v250
q0 141 101 254t243 113h903q139 0 254 -111v604q0 31 31 31z" />
    <glyph glyph-name="e" unicode="e" horiz-adv-x="1841" 
d="M1632 565v27q0 123 -83 204t-171 81h-897q-109 0 -191.5 -85t-82.5 -200v-27h1425zM479 969h897q121 0 234.5 -106.5t113.5 -258.5v-82q0 -61 -61 -61h-1456v-96q0 -111 84 -193t190 -82h893q133 0 256 146q18 25 41 6l29 -25q23 -20 6 -43q-143 -176 -330 -176h-897
q-137 0 -250.5 110.5t-113.5 256.5v233q0 145 113.5 258t250.5 113z" />
    <glyph glyph-name="f" unicode="f" horiz-adv-x="1587" 
d="M555 1487h954q31 0 31 -31v-31q0 -31 -31 -30h-954q-119 0 -180 -78t-62 -219v-135h1176q31 0 31 -31v-31q0 -31 -31 -31h-1176v-839q0 -31 -30 -31h-31q-31 0 -31 31v839h-119q-31 0 -30 31v31q0 31 30 31h119v139q0 174 91 280t243 105z" />
    <glyph glyph-name="g" unicode="g" horiz-adv-x="1820" 
d="M481 90h860q63 0 135 37t126 94v447q2 72 -82 140t-170 66h-895q-101 0 -181 -86t-79 -190v-233q0 -103 90 -189t196 -86zM1632 963h35q31 0 31 -31v-1034q0 -115 -102 -211t-234 -97h-870q-96 0 -194 60t-148 151q-23 29 18 37l41 -4q25 2 39 -16q38 -60 108 -98
t142 -37h864q72 0 156 59t84 147v197q-127 -88 -256 -88h-867q-135 0 -256 117t-121 250v233q0 137 109 253t244 116h895q129 0 252 -99v62q-1 33 30 33z" />
    <glyph glyph-name="h" unicode="h" horiz-adv-x="1861" 
d="M489 963h906q141 0 242 -113t102 -254v-565q0 -31 -31 -31h-31q-31 0 -30 31v565q0 106 -71 190t-181 84h-906q-85 0 -163 -59t-80 -125v-655q0 -31 -31 -31h-31q-31 0 -30 31v1425q0 31 30 31h31q31 0 31 -31v-588q118 95 243 95z" />
    <glyph glyph-name="i" unicode="i" horiz-adv-x="415" 
d="M162 31v903q0 31 31 31h30q31 0 31 -31v-903q0 -31 -31 -31h-30q-31 0 -31 31zM145 1374v82q0 31 31 31h64q31 0 30 -31v-82q0 -31 -30 -31h-64q-31 0 -31 31z" />
    <glyph glyph-name="j" unicode="j" horiz-adv-x="411" 
d="M156 -106v1040q0 31 30 31h31q31 0 31 -31v-1032q0 -78 -60 -156t-147 -113q-29 -10 -39 21l-6 37q-8 27 18 37q57 20 100 64q42 44 42 102zM135 1374v82q0 31 31 31h63q31 0 31 -31v-82q0 -31 -31 -31h-63q-31 0 -31 31z" />
    <glyph glyph-name="k" unicode="k" horiz-adv-x="1906" 
d="M1739 0h-76q-41 0 -98 27l-1037 450l-292 -100v-346q0 -31 -31 -31h-31q-31 0 -31 31v1425q0 31 31 31h31q31 0 31 -31v-981l1269 467q53 20 82 21h78q20 0 25.5 -22.5t-17.5 -31.5l-1018 -393l1096 -465q14 -6 11 -28.5t-23 -22.5z" />
    <glyph glyph-name="l" unicode="l" horiz-adv-x="419" 
d="M164 31v1425q0 31 31 31h30q31 0 31 -31v-1425q0 -31 -31 -31h-30q-31 0 -31 31z" />
    <glyph glyph-name="m" unicode="m" horiz-adv-x="3346" 
d="M1954 963h895q141 0 242 -113t102 -254v-565q0 -31 -31 -31h-31q-31 0 -30 31v565q0 106 -70 190t-182 84h-889q-86 0 -167 -60t-85 -124q12 -43 12 -90v-565q0 -31 -30 -31h-31q-31 0 -31 31v565q0 110 -66 192t-178 82h-888q-84 0 -166 -60t-84 -124v-655
q0 -31 -31 -31h-31q-31 0 -30 31v901q0 31 30 31h31q31 0 31 -31v-66q111 96 243 97h895q168 0 275 -162q47 68 130 115t165 47z" />
    <glyph glyph-name="n" unicode="n" horiz-adv-x="1867" 
d="M477 963h905q139 0 246 -115t107 -252v-565q0 -31 -31 -31h-31q-31 0 -31 31v565q0 109 -69.5 191.5t-179.5 82.5h-904q-86 0 -168.5 -59t-84.5 -125v-655q0 -31 -31 -31h-31q-31 0 -31 31v901q0 31 31 31h31q31 0 31 -31v-55q120 86 241 86z" />
    <glyph glyph-name="o" unicode="o" horiz-adv-x="1857" 
d="M1653 391v182q0 125 -79 214t-196 90h-897q-121 1 -199 -89t-77 -215v-182q0 -125 78 -213t198 -88h897q117 0 196 88t79 213zM479 969h899q150 0 258 -120t109 -276v-182q0 -157 -109 -275t-258 -118h-899q-151 0 -259 119t-107 274v182q0 158 107 277t259 119z" />
    <glyph glyph-name="p" unicode="p" horiz-adv-x="1857" 
d="M1642 346v250q0 110 -70 192t-179 82h-904q-83 0 -167 -59t-86 -123v-481q57 -45 131 -80t122 -35h904q96 0 173 77q76 77 76 177zM489 963h902q141 0 242 -113t102 -254v-250q1 -138 -105 -242t-239 -104h-902q-129 0 -253 102v-481q0 -31 -31 -31h-31q-31 0 -31 31
v1311q0 31 31 31h31q31 0 31 -31v-68q112 99 253 99z" />
    <glyph glyph-name="q" unicode="q" horiz-adv-x="1857" 
d="M1368 870h-901q-111 0 -181 -83t-71 -191v-250q0 -100 78 -177t174 -77h901q49 0 124 34t130 79v483q-2 62 -86 122t-168 60zM1653 963h30q31 0 31 -31v-1311q0 -31 -31 -31h-30q-31 0 -31 31v481q-125 -102 -254 -102h-901q-133 0 -239 104q-105 104 -105 242v250
q0 141 101 254t243 113h901q141 0 254 -99v68q0 31 31 31z" />
    <glyph glyph-name="r" unicode="r" horiz-adv-x="1685" 
d="M1401 877h-932q-80 0 -161 -61.5t-83 -125.5v-659q0 -31 -30 -31h-31q-31 0 -31 31v901q0 31 31 31h31q31 0 30 -31v-49q135 86 221 86h924q115 0 223 -105q20 -25 0 -45l-20 -16q-20 -20 -39 2q-72 72 -133 72z" />
    <glyph glyph-name="s" unicode="s" horiz-adv-x="1789" 
d="M1606 643q-31 0 -27 25q2 90 -69.5 150.5t-155.5 60.5h-901q-254 0 -254 -193q0 -78 69 -117q35 -23 627 -42t627 -42q166 -70 166 -215q0 -119 -111 -199.5t-252 -80.5h-872q-119 0 -228.5 77.5t-122.5 190.5q-4 31 31 31h41q25 0 21 -29q8 -78 83.5 -128t153.5 -50h903
q100 0 180 51t80 139t-63 123q-44 19 -203.5 24t-263.5 8q-751 22 -784 46q-174 68 -174.5 207t103 215t251.5 76h862q127 0 236.5 -86t113.5 -209q0 -33 -28 -33h-39z" />
    <glyph glyph-name="t" unicode="t" horiz-adv-x="1441" 
d="M1323 -4h-842q-106 2 -188 73.5t-82 204.5v596h-109q-31 0 -30 31v29q0 33 30 33h109v213q0 31 31 30h30q31 0 31 -30v-213h1000q33 0 32 -31v-31q0 -31 -30 -31h-1002v-612q0 -80 50 -121t102 -41h860q33 1 33 -26l2 -41q0 -33 -27 -33z" />
    <glyph glyph-name="u" unicode="u" horiz-adv-x="1863" 
d="M1720 932v-901q0 -31 -30 -31h-31q-31 0 -31 31v53q-119 -86 -242 -86h-897q-143 0 -249 110t-107 250v574q0 31 31 31h31q31 0 30 -31v-574q0 -112 70 -190t184 -78h897q86 0 168 60t84 124v658q0 31 31 31h31q30 0 30 -31z" />
    <glyph glyph-name="v" unicode="v" horiz-adv-x="1761" 
d="M166 963q20 0 49 -35l666 -826l665 826q29 35 49 35h74q17 -1 21 -11t-9 -24l-727 -893q-27 -35 -45 -35h-53q-18 0 -45 35l-729 893q-12 14 -9 24t21 11h72z" />
    <glyph glyph-name="w" unicode="w" horiz-adv-x="2938" 
d="M2781 963h66q37 0 12 -35l-643 -893q-27 -35 -45 -35h-35q-23 0 -45 35l-621 839l-618 -839q-27 -35 -45 -35h-37q-18 0 -45 35l-643 893q-25 35 12 35h64q25 0 49 -35l579 -809l592 809q20 35 49 35h86q20 0 50 -35l589 -809l580 809q24 35 49 35z" />
    <glyph glyph-name="x" unicode="x" horiz-adv-x="1740" 
d="M1593 0h-84q-18 0 -36 12l-603 412l-602 -412q-18 -12 -37 -12h-84q-23 0 -27 12t15 25l651 444l-651 445q-18 12 -14 24t26 13h84q18 0 37 -13l602 -411l603 411q18 12 36 13h84q23 -1 27 -13t-14 -24l-652 -445l652 -444q18 -13 14 -25t-27 -12z" />
    <glyph glyph-name="y" unicode="y" horiz-adv-x="2115" 
d="M1942 963h75q23 -1 27 -11t-14 -26l-1473 -1323q-14 -12 -37 -13h-69q-23 0 -26 10t13 27l516 467l-868 832q-18 16 -14 26t26 11h78q23 0 37 -13l817 -788l875 788q14 13 37 13z" />
    <glyph glyph-name="z" unicode="z" horiz-adv-x="1720" 
d="M1640 932v-49q0 -18 -10 -25l-1351 -766h1329q33 0 32 -31v-30q0 -31 -30 -31h-1499q-31 0 -31 31v41q0 25 8 28l1356 770h-1333q-31 0 -31 31v29q0 33 31 33h1497q32 0 32 -31z" />
    <glyph glyph-name="braceleft" unicode="{" horiz-adv-x="768" 
d="M340 592v-381q0 -123 58 -193t163 -69h43q31 0 31 -31v-31q0 -31 -31 -30h-22q-152 0 -243 105t-91 280v329q0 20 -15 37l-92 113q-14 23 0 45l92 113q14 16 15 36v330q0 173 91 279t243 106h22q31 0 31 -31v-30q0 -31 -31 -31h-43q-105 0 -163 -70t-58 -192v-381
q0 -20 -14 -37l-88 -115l90 -114q12 -19 12 -37z" />
    <glyph glyph-name="bar" unicode="|" horiz-adv-x="419" 
d="M164 -379v1987q0 31 31 30h30q31 0 31 -30v-1987q0 -31 -31 -31h-30q-31 0 -31 31z" />
    <glyph glyph-name="braceright" unicode="}" horiz-adv-x="768" 
d="M428 211v381q0 18 12 37l90 114l-88 115q-14 16 -14 37v381q0 122 -58 192t-163 70h-43q-31 0 -31 31v30q0 31 31 31h22q152 0 243 -105t91 -280v-330q0 -20 15 -36l92 -113q14 -23 0 -45l-92 -113q-14 -16 -15 -37v-329q0 -174 -91 -280t-243 -105h-22q-31 0 -31 30v31
q0 31 31 31h43q104 0 163 69q58 70 58 193z" />
    <glyph glyph-name="asciitilde" unicode="~" horiz-adv-x="1058" 
d="M934 793l18 -35q12 -23 -20 -45q-197 -147 -414 -6q-100 63 -175 61t-183 -74q-20 -14 -35 17l-19 34q-12 23 21 46q195 143 412 6q102 -63 177 -61t183 73q21 15 35 -16z" />
    <glyph glyph-name="exclamdown" unicode="&#xa1;" horiz-adv-x="415" 
d="M162 -379v1114q0 31 31 31h30q31 0 31 -31v-1114q0 -31 -31 -31h-30q-31 0 -31 31zM154 1014v33q0 31 30 30h47q31 0 31 -30v-33q0 -31 -31 -31h-47q-30 0 -30 31z" />
    <glyph glyph-name="cent" unicode="&#xa2;" horiz-adv-x="1804" 
d="M852 90v787h-373q-106 0 -190 -84t-84 -195v-233q0 -111 84 -193t190 -82h373zM1370 -2h-395v-229q0 -31 -31 -31h-61q-31 0 -31 31v229h-375q-137 0 -251 111t-113 256v233q0 145 113 258q114 113 251 113h375v225q0 31 31 31h61q31 0 31 -31v-225h395q116 0 228 -93
t114 -200q0 -31 -29 -31h-32q-35 0 -35 25q0 72 -82 140t-164 67h-395v-787h393q133 0 256 141q23 25 41 9l27 -23q23 -20 6 -43q-143 -176 -328 -176z" />
    <glyph glyph-name="sterling" unicode="&#xa3;" horiz-adv-x="2160" 
d="M739 1511h893q168 0 295 -142t131 -331q0 -31 -30 -30h-31q-33 0 -33 30q0 150 -99 266t-233 115h-893q-145 1 -242 -117t-73 -278q12 -68 72 -248h290q31 0 31 -31v-30q0 -31 -31 -31h-262q16 -68 15 -123q-14 -240 -99 -424q504 72 889 0q459 -88 643 -8q14 6 22 -4
t9 -27v-37q0 -14 -6 -18t-25 -12q-184 -80 -665 20q-317 66 -920 -53q-14 -4 -48 30t-28 48q66 158 92 258q55 205 21 350h-289q-31 0 -31 31v30q0 31 31 31h260q-55 154 -69 248q-25 193 105 340t308 147z" />
    <glyph glyph-name="currency" unicode="&#xa4;" horiz-adv-x="1925" 
d="M514 90h897q100 0 178 68l-10 10l66 65l2 -2q41 72 41 160v182q0 88 -41 158l-2 -2l-66 66l12 10q-78 72 -180 72h-897q-104 0 -180 -70l12 -12l-65 -66l-2 2q-39 -72 -39 -158v-182q0 -86 39 -160l2 2l65 -65l-10 -10q78 -68 178 -68zM1413 -2h-899q-137 0 -242 98
l-86 -84q-23 -20 -43 0l-20 23q-20 23 0 43l92 90q-68 102 -68 223v182q0 119 66 224l-90 90q-20 23 0 43l20 20q20 20 43 0l84 -82q106 100 244 101h899q137 0 240 -103l86 84q23 20 43 0l20 -20q20 -20 0 -43l-90 -90q68 -102 68 -224v-182q0 -123 -70 -223l92 -90
q20 -20 0 -43l-20 -23q-20 -20 -43 0l-88 84q-104 -98 -238 -98z" />
    <glyph glyph-name="yen" unicode="&#xa5;" horiz-adv-x="1957" 
d="M1806 1487h66q20 0 25 -11t-11 -26l-860 -817v-70h342q31 0 31 -31v-36q0 -31 -31 -31h-342v-125h342q31 0 31 -31v-35q0 -31 -31 -30h-342v-213q0 -31 -31 -31h-30q-31 0 -31 31v213h-340q-31 0 -31 30v35q0 31 31 31h340v125h-340q-31 0 -31 31v36q0 31 31 31h340v70
l-858 817q-16 14 -13 26q4 11 27 11h64q23 0 39 -14l786 -742l788 742q16 14 39 14z" />
    <glyph glyph-name="brokenbar" unicode="&#xa6;" horiz-adv-x="419" 
d="M164 -236v662q0 31 31 31h30q31 0 31 -31v-662q0 -31 -31 -30h-30q-31 -1 -31 30zM164 803v661q0 31 31 31h30q31 0 31 -31v-661q0 -31 -31 -31h-30q-31 0 -31 31z" />
    <glyph glyph-name="section" unicode="&#xa7;" horiz-adv-x="1241" 
d="M244 752q0 -96 24 -149q58 -122 301 -167l107 -20q172 -35 274 -107q56 83 56 177q1 171 -104 237q-85 54 -224 82l-107 20q-174 35 -270 103q-57 -80 -57 -176zM1098 502q0 -141 -80 -252q80 -96 80 -238q0 -182 -127 -302t-303 -120h-95q-170 0 -300 119t-130 297v60
q0 31 31 30h33q31 0 31 -30l2 -60q4 -147 101 -235t232 -88h95q143 0 240 89t98 238q0 102 -50 172l-6 -6l-51 64q-72 53 -221 84l-107 20q-199 37 -309 126t-110 249t84 266q-84 94 -84 234q0 177 116 291t287 114h107q166 0 294 -124t125 -308v-39q0 -31 -30 -31h-33
q-31 0 -31 31v39q0 152 -96 246t-229 94h-107q-137 0 -224 -82t-87 -225t86 -211t239 -96l107 -21q194 -39 308 -128t114 -267z" />
    <glyph glyph-name="dieresis" unicode="&#xa8;" horiz-adv-x="1005" 
d="M762 1372v84q0 31 31 31h59q31 0 31 -31v-84q0 -31 -31 -31h-59q-31 0 -31 31zM123 1372v84q0 31 31 31h61q31 0 31 -31v-84q0 -31 -31 -31h-61q-31 0 -31 31z" />
    <glyph glyph-name="copyright" unicode="&#xa9;" horiz-adv-x="1267" 
d="M825 524h68q20 0 20 -14q-1 -119 -71 -201t-174 -82h-64q-112 0 -182 84t-70 213v439q0 129 71 213t181 84h64q102 0 173 -82t72 -201q0 -12 -20 -12h-68q-23 0 -22 18q0 164 -133 164h-68q-76 0 -108 -42t-33 -138v-449q0 -94 34 -138t107 -44h68q135 0 133 170
q-1 18 22 18zM569 72h129q137 0 241 112q103 113 103 279v561q0 166 -103 279t-241 112h-129q-137 -1 -240 -113t-104 -278v-561q-1 -167 103 -279t241 -112zM573 1511h121q176 0 314 -142t137 -341v-569q0 -199 -137 -342t-314 -144h-121q-176 -1 -313 143t-137 343v569
q0 199 137 341t313 142z" />
    <glyph glyph-name="ordfeminine" unicode="&#xaa;" horiz-adv-x="1062" 
d="M293 1042h440q90 0 152 66v96h-592q-115 0 -115 -81t115 -81zM907 963q-23 0 -22 30v23q-63 -53 -152 -53h-440q-78 0 -134 43q-57 42 -57 116t52 118t139 44h592q-4 123 -105 123h-461q-94 0 -149 -51q-23 -18 -31 0l-20 26q-12 14 0 27q74 78 196 78h459q78 1 130 -61
t52 -146v-287q0 -12 4 -21t-6 -9h-47z" />
    <glyph glyph-name="guillemotleft" unicode="&#xab;" horiz-adv-x="1189" 
d="M1077 872v-88q0 -18 -37 -45l-278 -213l278 -211q4 -4 10 -8t10 -7q3 -3 7 -6q10 -8 10 -24v-90q0 -16 -11 -21t-26 5l-385 295q-4 4 -12 8q-18 9 -18 29v61q0 19 13 27t17 12l385 293q14 10 26 5t11 -22zM565 872v-88q0 -18 -37 -45l-278 -213l278 -211q4 -4 10 -8
t10 -7q3 -3 7 -6q10 -8 10 -24v-90q0 -16 -11 -21t-26 5l-385 295q-4 4 -12 8q-18 9 -18 29v61q0 19 13 27t17 12l385 293q14 10 26 5t11 -22z" />
    <glyph glyph-name="logicalnot" unicode="&#xac;" horiz-adv-x="1052" 
d="M154 723h745q31 0 31 -31v-403q0 -31 -31 -31h-31q-31 0 -30 31v342h-684q-31 0 -31 31v30q0 31 31 31z" />
    <glyph glyph-name="softhyphen" unicode="&#xad;" horiz-adv-x="888" 
d="M1124 473h-950q-31 0 -31 31v31q0 31 31 30h950q31 0 31 -30v-31q0 -31 -31 -31z" />
    <glyph glyph-name="registered" unicode="&#xae;" horiz-adv-x="1267" 
d="M487 778h185q86 0 110 38t23 131q0 93 -24 125t-109 32h-185v-326zM903 518v-205q0 -35 -29 -34h-47q-29 0 -28 34v203q0 86 -25 120t-104 34h-183v-357q0 -35 -28 -34h-51q-29 0 -29 34v842q0 23 17 40t40 17h232q112 0 176 -72t64 -204q0 -133 -89 -211q84 -72 84 -207
zM569 72h129q137 0 241 112q103 113 103 279v561q0 166 -103 279t-241 112h-129q-137 -1 -240 -113t-104 -278v-561q-1 -167 103 -279t241 -112zM573 1511h121q176 0 314 -142t137 -341v-569q0 -199 -137 -342t-314 -144h-121q-176 -1 -313 143t-137 343v569q0 199 137 341
t313 142z" />
    <glyph glyph-name="macron" unicode="&#xaf;" horiz-adv-x="1011" 
d="M838 1395h-664q-31 0 -31 30v31q0 31 31 31h664q31 0 30 -31v-31q1 -30 -30 -30z" />
    <glyph glyph-name="degree" unicode="&#xb0;" horiz-adv-x="923" 
d="M659 1167v19q0 199 -180 198h-28q-182 0 -183 -198v-19q0 -197 183 -196h28q180 -1 180 196zM446 1487h31q127 0 205 -84t78 -215v-23q0 -131 -78 -215t-205 -84h-31q-130 0 -206 83t-76 216v23q0 133 76 216t206 83z" />
    <glyph glyph-name="plusminus" unicode="&#xb1;" horiz-adv-x="1052" 
d="M154 92h747q29 0 29 -31v-30q0 -31 -31 -31h-745q-31 0 -31 31v30q0 31 31 31zM575 698h326q29 0 29 -30v-31q0 -31 -31 -31h-324v-360q0 -31 -30 -31h-31q-31 0 -31 31v360h-329q-31 0 -31 31v31q0 31 31 30h329v357q0 31 31 30h31q31 0 30 -30v-357z" />
    <glyph glyph-name="twosuperior" unicode="&#xb2;" horiz-adv-x="655" 
d="M532 883q0 -31 -30 -31h-344q-31 0 -31 31v49q0 30 11 46t44 50l144 154q4 4 41 37t38 69q1 35 -23 59q-24 23 -58 23t-57 -19q-22 -19 -21 -46v-15q0 -31 -31 -30h-61q-31 0 -31 30v27q0 68 51 119t125 51h51q80 -1 130 -61t50 -126t-34 -114q-34 -49 -97 -113
l-104 -104l207 4q31 0 30 -31v-59z" />
    <glyph glyph-name="threesuperior" unicode="&#xb3;" horiz-adv-x="653" 
d="M537 1037q-1 -71 -51 -127t-130 -56h-51q-74 0 -125 51t-51 119v27q0 31 31 30h61q31 0 31 -30v-15q0 -27 22 -46t56 -19t58 19t24 52t-23 55t-55 21h-47q-31 0 -31 31v45q0 31 31 31h47q34 -1 56 21t22 54t-24 52t-58 20t-57 -19q-22 -19 -21 -46v-15q0 -31 -31 -30h-61
q-31 0 -31 30v27q0 68 51 119t125 51h51q80 0 130 -56q50 -55 50 -127t-69 -135q70 -63 70 -134z" />
    <glyph glyph-name="acute" unicode="&#xb4;" horiz-adv-x="491" 
d="M362 1638q39 0 21 -36l-178 -379q-20 -37 -43 -37h-35q-37 0 -21 37l154 379q12 37 43 36h59z" />
    <glyph glyph-name="paragraph" unicode="&#xb6;" horiz-adv-x="1153" 
d="M926 1395h-150v-650h150v650zM684 745v650h-186q-303 0 -303 -325t303 -325h186zM502 1487h485q31 0 31 -31v-1425q0 -31 -31 -31h-31q-31 0 -30 31v622h-150v-622q0 -31 -31 -31h-30q-31 0 -31 31v622h-182q-184 0 -292 111q-108 112 -108 306t108 306t292 111z" />
    <glyph glyph-name="periodcentered" unicode="&#xb7;" horiz-adv-x="327" 
d="M102 580v84q0 31 31 30h62q31 0 30 -30v-84q0 -31 -30 -31h-62q-31 0 -31 31z" />
    <glyph glyph-name="cedilla" unicode="&#xb8;" horiz-adv-x="679" 
d="M324 -414q-84 0 -131 47t-50 125q0 20 19 21h65q20 0 21 -17q2 -68 100 -67h48q52 0 63 11q12 11 12 40q-1 30 -41 42t-194 28q-20 2 -40 18t-20 60t45 104q12 16 23 16h69q23 0 13 -15q-52 -74 -22 -91q7 -4 10 -9t27 -5l30 -5q8 -2 44 -5t46 -6t36 -9q27 -6 35 -15
t26 -27t19 -90q2 -151 -178 -151h-75z" />
    <glyph glyph-name="onesuperior" unicode="&#xb9;" horiz-adv-x="618" 
d="M246 885v571q0 31 30 31h66q31 0 31 -31v-571q0 -31 -31 -31h-66q-30 0 -30 31z" />
    <glyph glyph-name="ordmasculine" unicode="&#xba;" horiz-adv-x="1073" 
d="M895 215v96q0 55 -38 97t-93 41h-455q-57 0 -93 -40t-36 -98v-96q0 -57 36 -98t93 -41h455q55 0 93 42t38 97zM309 524h455q86 0 146 -66t61 -151v-88q-1 -91 -61 -155t-146 -64h-455q-86 0 -146 65t-61 154v88q0 89 60 153t147 64z" />
    <glyph glyph-name="guillemotright" unicode="&#xbb;" horiz-adv-x="1189" 
d="M1077 557v-61q0 -20 -13 -26t-17 -11l-385 -295q-14 -10 -26 -5q-11 5 -11 21v90q0 16 11 25q11 8 26 20l280 211l-280 213q-37 29 -37 45v88q0 16 11 22q12 5 26 -5l385 -293q4 -4 17 -12t13 -27zM565 557v-61q0 -20 -13 -26t-17 -11l-385 -295q-14 -10 -26 -5
q-11 5 -11 21v90q0 18 11 26q11 7 26 19l280 211l-280 213q-37 27 -37 45v88q0 16 11 22q12 5 26 -5l385 -293q4 -4 17 -12t13 -27z" />
    <glyph glyph-name="onequarter" unicode="&#xbc;" horiz-adv-x="1511" 
d="M1206 246v205l-104 -205h104zM1329 242h29q31 0 31 -31v-61q0 -31 -31 -31h-29v-88q0 -31 -31 -31h-61q-31 0 -31 31v88h-223q-29 0 -31 31l-6 59q0 8 8 24l217 388q8 14 29 14h98q31 0 31 -31v-362zM246 885v571q0 31 30 31h66q31 0 31 -31v-571q0 -31 -31 -31h-66
q-30 0 -30 31zM1081 1487h86q39 0 21 -31l-828 -1425q-18 -31 -41 -31h-86q-38 0 -20 31l827 1425q18 31 41 31z" />
    <glyph glyph-name="onehalf" unicode="&#xbd;" horiz-adv-x="1478" 
d="M1356 90v-59q0 -31 -31 -31h-344q-31 0 -31 31v49q0 46 56 96l143 154q4 4 42 37t38 69q0 35 -24 59q-25 23 -59 23t-56 -19t-21 -46v-15q0 -31 -31 -30h-61q-31 0 -31 30v27q0 68 51 119t125 51h52q80 -1 130 -61t50 -126t-34 -114q-34 -49 -97 -113l-105 -104l207 4
q31 0 31 -31zM246 885v571q0 31 30 31h66q31 0 31 -31v-571q0 -31 -31 -31h-66q-30 0 -30 31zM1081 1487h86q39 0 21 -31l-828 -1425q-18 -31 -41 -31h-86q-38 0 -20 31l827 1425q18 31 41 31z" />
    <glyph glyph-name="threequarters" unicode="&#xbe;" horiz-adv-x="1546" 
d="M1241 246v205l-104 -205h104zM1364 242h29q31 0 30 -31v-61q0 -31 -30 -31h-29v-88q0 -31 -31 -31h-61q-31 0 -31 31v88h-223q-27 0 -31 31l-6 59q0 8 8 24l217 388q6 14 29 14h98q31 0 31 -31v-362zM1116 1487h86q39 0 21 -31l-828 -1425q-18 -31 -41 -31h-86
q-38 0 -20 31l827 1425q18 31 41 31zM350 854h-51q-74 0 -125 51t-51 119v27q0 31 31 30h61q31 0 31 -30v-15q0 -27 22 -46t56 -19t58 19t24 52t-23 55t-55 21h-47q-31 0 -31 31v45q0 31 31 31h47q34 -1 56 21t22 54t-24 52t-58 20t-57 -19q-22 -19 -21 -46v-15
q0 -31 -31 -30h-61q-31 0 -31 30v27q0 68 51 119t125 51h51q80 0 130 -56q50 -55 50 -127t-69 -135q69 -63 69 -134t-50 -127t-130 -56z" />
    <glyph glyph-name="questiondown" unicode="&#xbf;" horiz-adv-x="1839" 
d="M1354 -434h-865q-167 0 -287 123t-120 298t77 275t187 116t565 89q66 10 66 90v180q0 31 31 31h30q31 0 31 -31v-157q0 -2 2 -49t-10 -65q-12 -17 -28 -39t-70 -32q-264 -47 -521 -82q-268 -41 -268 -317q0 -150 91 -244t220 -94h875q123 0 213 94t90 246v39q0 31 31 31
h32q31 0 31 -31v-39q3 -184 -117 -308t-286 -124zM1075 1049v-33q0 -31 -31 -31h-45q-31 0 -30 31v33q0 31 30 30h45q31 1 31 -30z" />
    <glyph glyph-name="Agrave" unicode="&#xc0;" horiz-adv-x="2125" 
d="M1589 530l-522 844l-528 -844h1050zM2003 0h-66q-18 0 -39 33l-251 405h-1166l-254 -405q-2 -4 -6 -10q-4 -7 -5 -9q-6 -15 -26 -14h-67q-39 0 -23 33l904 1427q20 33 38 33h45q19 0 39 -33l902 -1427q8 -17 0 -25t-25 -8zM840 2163h63q31 0 43 -37l154 -379
q16 -37 -21 -37h-39q-23 0 -43 37l-178 379q-18 37 21 37z" />
    <glyph glyph-name="Aacute" unicode="&#xc1;" horiz-adv-x="2125" 
d="M1589 530l-522 844l-528 -844h1050zM2003 0h-66q-18 0 -39 33l-251 405h-1166l-254 -405q-2 -4 -6 -10q-4 -7 -5 -9q-6 -15 -26 -14h-67q-39 0 -23 33l904 1427q20 33 38 33h45q19 0 39 -33l902 -1427q8 -17 0 -25t-25 -8zM1073 1710h-35q-37 0 -20 37l153 379
q12 37 43 37h60q39 0 20 -37l-178 -379q-20 -37 -43 -37z" />
    <glyph glyph-name="Acircumflex" unicode="&#xc2;" horiz-adv-x="2125" 
d="M1589 530l-522 844l-528 -844h1050zM2003 0h-66q-18 0 -39 33l-251 405h-1166l-254 -405q-2 -4 -6 -10q-4 -7 -5 -9q-6 -15 -26 -14h-67q-39 0 -23 33l904 1427q20 33 38 33h45q19 0 39 -33l902 -1427q8 -17 0 -25t-25 -8zM784 1724h-57q-16 0 -21 12t5 27l290 367
q23 33 48 33h28q27 0 49 -33l291 -367q10 -14 5 -26t-21 -13h-58q-16 0 -47 39l-231 299l-234 -299q-31 -39 -47 -39z" />
    <glyph glyph-name="Atilde" unicode="&#xc3;" horiz-adv-x="2125" 
d="M1589 530l-522 844l-528 -844h1050zM2003 0h-66q-18 0 -39 33l-251 405h-1166l-254 -405q-2 -4 -6 -10q-4 -7 -5 -9q-6 -15 -26 -14h-67q-39 0 -23 33l904 1427q20 33 38 33h45q19 0 39 -33l902 -1427q8 -17 0 -25t-25 -8zM1233 1841q-74 1 -177 67q-104 66 -150 64
t-154 -74q-21 -14 -35 17l-19 35q-12 23 21 45q100 73 174 73t178 -65q103 -65 149 -63t154 73q20 14 35 -16l18 -35q12 -23 -20 -45q-100 -76 -174 -76z" />
    <glyph glyph-name="Adieresis" unicode="&#xc4;" horiz-adv-x="2125" 
d="M1589 530l-522 844l-528 -844h1050zM2003 0h-66q-18 0 -39 33l-251 405h-1166l-254 -405q-2 -4 -6 -10q-4 -7 -5 -9q-6 -15 -26 -14h-67q-39 0 -23 33l904 1427q20 33 38 33h45q19 0 39 -33l902 -1427q8 -17 0 -25t-25 -8zM1415 1866h-59q-31 0 -31 30v84q0 31 31 31h59
q31 0 31 -31v-84q0 -30 -31 -30zM778 1866h-61q-31 0 -31 30v84q0 31 31 31h61q31 0 31 -31v-84q0 -30 -31 -30z" />
    <glyph glyph-name="Aring" unicode="&#xc5;" horiz-adv-x="2125" 
d="M1589 530l-522 844l-528 -844h1050zM2003 0h-66q-18 0 -39 33l-251 405h-1166l-254 -405q-2 -4 -6 -10q-4 -7 -5 -9q-6 -15 -26 -14h-67q-39 0 -23 33l904 1427q20 33 38 33h45q19 0 39 -33l902 -1427q8 -17 0 -25t-25 -8zM954 1974v-20q0 -98 99 -99h22q100 0 101 99v20
q0 98 -101 99h-22q-99 -1 -99 -99zM1077 1763h-26q-85 1 -137 53t-52 136v22q0 82 53 136t136 55h26q82 -1 135 -55t54 -136v-22q0 -84 -54 -136t-135 -53z" />
    <glyph glyph-name="AE" unicode="&#xc6;" horiz-adv-x="3239" 
d="M1561 1395v-598h1445q31 0 31 -31v-31q0 -31 -31 -30h-1445v-613h1579q31 0 30 -31v-30q0 -31 -30 -31h-1641q-31 0 -31 31v1337l-774 -838h768v-92h-852l-377 -407q-6 -6 -14 -18t-24 -13h-70q-18 0 -26.5 8t3.5 23l1319 1427q4 4 10.5 12.5t10.5 12.5t18 4h1680
q31 0 30 -31v-31q0 -31 -30 -30h-1579z" />
    <glyph glyph-name="Ccedilla" unicode="&#xc7;" horiz-adv-x="2019" 
d="M1855 481h31q31 0 31 -30q-2 -186 -132 -332t-294 -146h-473q-25 -44 -15.5 -54.5t12.5 -13.5t15 -6t24 -6.5t22.5 -4.5t46.5 -4t46.5 -6t36 -9t34.5 -15.5t27.5 -27.5t18.5 -90q0 -150 -178 -150h-76q-84 0 -131 47.5t-49 124.5q0 20 18 21h66q20 0 20 -17
q2 -68 101 -67h48q28 0 42 2q33 5 33 41.5t-41 48.5t-195 29q-48 5 -60 66q-7 36 29 91h-376q-170 0 -302.5 147.5t-132.5 344.5v557q0 197 132.5 342t302.5 145h954q164 0 294 -143t132 -330q0 -31 -31 -30h-31q-33 0 -32 30q0 152 -101.5 266.5t-230.5 114.5h-954
q-137 0 -239.5 -116.5t-102.5 -278.5v-557q0 -164 102 -281.5t240 -117.5h954q131 0 232.5 116.5t99.5 268.5q-1 30 32 30z" />
    <glyph glyph-name="Egrave" unicode="&#xc8;" 
d="M238 797h1445q31 0 31 -31v-31q0 -31 -31 -30h-1445v-613h1579q31 0 30 -31v-30q0 -31 -30 -31h-1641q-31 0 -31 31v1425q0 31 31 31h1641q31 0 30 -31v-31q0 -31 -30 -30h-1579v-598zM985 1710h-39q-23 0 -43 37l-178 379q-18 37 20 37h64q31 0 43 -37l154 -379
q16 -37 -21 -37z" />
    <glyph glyph-name="Eacute" unicode="&#xc9;" 
d="M238 797h1445q31 0 31 -31v-31q0 -31 -31 -30h-1445v-613h1579q31 0 30 -31v-30q0 -31 -30 -31h-1641q-31 0 -31 31v1425q0 31 31 31h1641q31 0 30 -31v-31q0 -31 -30 -30h-1579v-598zM1120 2163h60q39 0 20 -37l-178 -379q-20 -37 -43 -37h-35q-36 0 -20 37l153 379
q12 37 43 37z" />
    <glyph glyph-name="Ecircumflex" unicode="&#xca;" 
d="M238 797h1445q31 0 31 -31v-31q0 -31 -31 -30h-1445v-613h1579q31 0 30 -31v-30q0 -31 -30 -31h-1641q-31 0 -31 31v1425q0 31 31 31h1641q31 0 30 -31v-31q0 -31 -30 -30h-1579v-598zM956 2163h29q27 0 49 -33l291 -367q10 -14 5 -26.5t-21 -12.5h-58q-16 0 -47 39
l-231 299l-234 -299q-31 -39 -47 -39h-57q-16 0 -21.5 12.5t4.5 26.5l291 367q23 33 47 33z" />
    <glyph glyph-name="Edieresis" unicode="&#xcb;" 
d="M238 797h1445q31 0 31 -31v-31q0 -31 -31 -30h-1445v-613h1579q31 0 30 -31v-30q0 -31 -30 -31h-1641q-31 0 -31 31v1425q0 31 31 31h1641q31 0 30 -31v-31q0 -31 -30 -30h-1579v-598zM1231 1896v84q0 31 31 31h59q31 0 31 -31v-84q0 -31 -31 -30h-59q-31 -1 -31 30z
M592 1896v84q0 31 31 31h61q31 0 31 -31v-84q0 -31 -31 -30h-61q-31 -1 -31 30z" />
    <glyph glyph-name="Igrave" unicode="&#xcc;" horiz-adv-x="436" 
d="M172 31v1425q0 31 31 31h33q31 0 30 -31v-1425q0 -31 -30 -31h-33q-31 0 -31 31zM231 1710h-38q-23 0 -43 37l-179 379q-18 37 21 37h63q31 0 43 -37l154 -379q16 -37 -21 -37z" />
    <glyph glyph-name="Iacute" unicode="&#xcd;" horiz-adv-x="436" 
d="M172 31v1425q0 31 31 31h33q31 0 30 -31v-1425q0 -31 -30 -31h-33q-31 0 -31 31zM367 2163h59q39 0 20 -37l-178 -379q-20 -37 -43 -37h-35q-36 0 -20 37l154 379q12 37 43 37z" />
    <glyph glyph-name="Icircumflex" unicode="&#xce;" horiz-adv-x="436" 
d="M172 31v1425q0 31 31 31h33q31 0 30 -31v-1425q0 -31 -30 -31h-33q-31 0 -31 31zM201 2163h28q27 0 50 -33l290 -367q10 -14 5 -26t-21 -13h-57q-16 0 -47 39l-232 299l-233 -299q-31 -39 -47 -39h-58q-16 0 -21 12t5 27l291 367q23 33 47 33z" />
    <glyph glyph-name="Idieresis" unicode="&#xcf;" horiz-adv-x="436" 
d="M172 31v1425q0 31 31 31h33q31 0 30 -31v-1425q0 -31 -30 -31h-33q-31 0 -31 31zM475 1896v84q0 31 31 31h59q31 0 31 -31v-84q0 -31 -31 -30h-59q-31 -1 -31 30zM-164 1896v84q0 31 31 31h59q31 0 31 -31v-84q0 -31 -31 -30h-59q-31 -1 -31 30z" />
    <glyph glyph-name="Eth" unicode="&#xd0;" horiz-adv-x="2117" 
d="M1915 481v525q0 154 -100 272t-230 117h-1251v-559h768q31 0 31 -31v-31q0 -31 -31 -31h-768v-651h1251q129 0 229 118t101 271zM272 1487h1309q168 1 297 -143t129 -338v-525q0 -195 -129 -338t-297 -143h-1309q-31 0 -30 31v712h-90q-31 0 -31 31v31q0 31 31 31h90v620
q0 31 30 31z" />
    <glyph glyph-name="Ntilde" unicode="&#xd1;" horiz-adv-x="2152" 
d="M1937 1487h31q31 0 31 -31v-1425q0 -31 -31 -31h-96q-10 0 -37 23l-1589 1374v-1366q0 -31 -31 -31h-31q-31 0 -30 31v1425q0 31 30 31h99q10 0 36 -23l1588 -1374v1366q-1 31 30 31zM1245 1841q-74 0 -177 66.5t-149.5 64.5t-154.5 -74q-20 -14 -35 17l-18 35
q-12 23 20 45q100 74 174 73.5t178 -65.5t149.5 -63t153.5 73q21 15 35 -16l19 -35q12 -23 -21 -45q-100 -76 -174 -76z" />
    <glyph glyph-name="Ograve" unicode="&#xd2;" horiz-adv-x="2060" 
d="M553 66h954q141 0 240 115q98 116 98 286v549q0 172 -98 287t-240 114h-954q-143 0 -241 -114q-97 -115 -97 -287v-549q0 -172 98 -287q99 -114 240 -114zM553 1509h954q176 0 303 -143t127 -346v-557q0 -203 -127 -346t-303 -144h-954q-176 -1 -303 143t-127 347v557
q0 203 127 346t303 143zM1018 1710h-39q-23 0 -43 37l-178 379q-18 37 20 37h64q31 0 43 -37l153 -379q16 -37 -20 -37z" />
    <glyph glyph-name="Oacute" unicode="&#xd3;" horiz-adv-x="2060" 
d="M553 66h954q141 0 240 115q98 116 98 286v549q0 172 -98 287t-240 114h-954q-143 0 -241 -114q-97 -115 -97 -287v-549q0 -172 98 -287q99 -114 240 -114zM553 1509h954q176 0 303 -143t127 -346v-557q0 -203 -127 -346t-303 -144h-954q-176 -1 -303 143t-127 347v557
q0 203 127 346t303 143zM1153 2163h59q39 0 21 -37l-178 -379q-20 -37 -43 -37h-35q-37 0 -21 37l154 379q12 37 43 37z" />
    <glyph glyph-name="Ocircumflex" unicode="&#xd4;" horiz-adv-x="2060" 
d="M553 66h954q141 0 240 115q98 116 98 286v549q0 172 -98 287t-240 114h-954q-143 0 -241 -114q-97 -115 -97 -287v-549q0 -172 98 -287q99 -114 240 -114zM553 1509h954q176 0 303 -143t127 -346v-557q0 -203 -127 -346t-303 -144h-954q-176 -1 -303 143t-127 347v557
q0 203 127 346t303 143zM989 2163h29q27 0 49 -33l291 -367q10 -14 5 -26t-22 -13h-57q-16 0 -47 39l-231 299l-234 -299q-31 -39 -47 -39h-57q-16 0 -22 12t5 27l291 367q23 33 47 33z" />
    <glyph glyph-name="Otilde" unicode="&#xd5;" horiz-adv-x="2060" 
d="M553 66h954q141 0 240 115q98 116 98 286v549q0 172 -98 287t-240 114h-954q-143 0 -241 -114q-97 -115 -97 -287v-549q0 -172 98 -287q99 -114 240 -114zM553 1509h954q176 0 303 -143t127 -346v-557q0 -203 -127 -346t-303 -144h-954q-176 -1 -303 143t-127 347v557
q0 203 127 346t303 143zM1174 1841q-74 1 -178 67t-149 64q-46 -2 -155 -74q-20 -14 -35 17l-18 35q-12 23 20 45q101 73 175 73t178 -65t149 -63t154 73q21 15 35 -16l18 -35q12 -23 -20 -45q-100 -76 -174 -76z" />
    <glyph glyph-name="Odieresis" unicode="&#xd6;" horiz-adv-x="2060" 
d="M553 66h954q141 0 240 115q98 116 98 286v549q0 172 -98 287t-240 114h-954q-143 0 -241 -114q-97 -115 -97 -287v-549q0 -172 98 -287q99 -114 240 -114zM553 1509h954q176 0 303 -143t127 -346v-557q0 -203 -127 -346t-303 -144h-954q-176 -1 -303 143t-127 347v557
q0 203 127 346t303 143zM1264 1896v84q0 31 30 31h60q31 0 30 -31v-84q0 -31 -30 -30h-60q-30 -1 -30 30zM625 1896v84q0 31 30 31h62q31 0 31 -31v-84q0 -31 -31 -30h-62q-30 -1 -30 30z" />
    <glyph glyph-name="multiply" unicode="&#xd7;" horiz-adv-x="813" 
d="M473 662l227 -230q23 -18 0 -41l-20 -22q-20 -20 -43 0l-227 229l-234 -233q-25 -20 -45 0l-22 22q-18 23 0 43l233 234l-227 227q-20 23 0 43l22 20q23 20 43 0l226 -227l231 231q23 23 45 -2l23 -18q18 -27 -3 -47z" />
    <glyph glyph-name="Oslash" unicode="&#xd8;" horiz-adv-x="2060" 
d="M1845 467v549q0 172 -98 287t-240 114h-157l-590 -1351h747q141 0 240 115q98 116 98 286zM215 1016v-549q0 -172 98 -287t240 -114h102l592 1351h-694q-143 0 -241 -114q-97 -115 -97 -287zM553 1509h954q176 0 303 -143t127 -346v-557q0 -203 -127 -346t-303 -144h-954
q-176 -1 -303 143t-127 347v557q0 203 127 346t303 143z" />
    <glyph glyph-name="Ugrave" unicode="&#xd9;" horiz-adv-x="2011" 
d="M1827 1487h31q31 0 30 -31v-1010q0 -200 -125 -330t-321 -130h-873q-197 0 -321 131t-125 329v1010q0 31 31 31h30q31 0 31 -31v-1020q0 -166 97 -262t257 -96h873q160 0 257 96t97 262v1020q0 31 31 31zM1028 1710h-39q-23 0 -43 37l-178 379q-18 37 20 37h64
q31 0 43 -37l154 -379q16 -37 -21 -37z" />
    <glyph glyph-name="Uacute" unicode="&#xda;" horiz-adv-x="2011" 
d="M1827 1487h31q31 0 30 -31v-1010q0 -200 -125 -330t-321 -130h-873q-197 0 -321 131t-125 329v1010q0 31 31 31h30q31 0 31 -31v-1020q0 -166 97 -262t257 -96h873q160 0 257 96t97 262v1020q0 31 31 31zM1163 2163h60q39 0 20 -37l-178 -379q-20 -37 -43 -37h-35
q-36 0 -20 37l153 379q12 37 43 37z" />
    <glyph glyph-name="Ucircumflex" unicode="&#xdb;" horiz-adv-x="2011" 
d="M1827 1487h31q31 0 30 -31v-1010q0 -200 -125 -330t-321 -130h-873q-197 0 -321 131t-125 329v1010q0 31 31 31h30q31 0 31 -31v-1020q0 -166 97 -262t257 -96h873q160 0 257 96t97 262v1020q0 31 31 31zM997 2163h29q27 0 49 -33l291 -367q10 -14 5 -26t-21 -13h-58
q-16 0 -47 39l-231 299l-234 -299q-31 -39 -47 -39h-57q-16 0 -22 12t5 27l291 367q23 33 47 33z" />
    <glyph glyph-name="Udieresis" unicode="&#xdc;" horiz-adv-x="2011" 
d="M1827 1487h31q31 0 30 -31v-1010q0 -200 -125 -330t-321 -130h-873q-197 0 -321 131t-125 329v1010q0 31 31 31h30q31 0 31 -31v-1020q0 -166 97 -262t257 -96h873q160 0 257 96t97 262v1020q0 31 31 31zM1272 1896v84q0 31 31 31h59q31 0 31 -31v-84q0 -31 -31 -30h-59
q-31 -1 -31 30zM633 1896v84q0 31 31 31h61q31 0 31 -31v-84q0 -31 -31 -30h-61q-31 -1 -31 30z" />
    <glyph glyph-name="Yacute" unicode="&#xdd;" 
d="M1806 1487h66q20 0 25 -11t-11 -26l-860 -817v-602q0 -31 -31 -31h-30q-31 0 -31 31v602l-858 817q-16 14 -13 26q4 11 27 11h64q23 0 39 -14l786 -742l788 742q16 14 39 14zM1130 2163h60q39 0 20 -37l-178 -379q-20 -37 -43 -37h-35q-36 0 -20 37l153 379q12 37 43 37z
" />
    <glyph glyph-name="Thorn" unicode="&#xde;" horiz-adv-x="1972" 
d="M225 418h1252q301 0 301 326t-301 325h-1252v-651zM225 1161h1245q184 1 292 -111t108 -307t-108 -307t-292 -110h-1245v-295q0 -31 -30 -31h-31q-31 0 -31 31v1425q0 31 31 31h31q31 0 30 -31v-295z" />
    <glyph glyph-name="germandbls" unicode="&#xdf;" horiz-adv-x="1886" 
d="M1784 428v-35q0 -161 -142 -277t-294 -116h-863q-31 0 -30 31v30q0 31 30 31h863q124 0 234 86t110 209v25q0 139 -114 240t-220 102h-873q-31 0 -30 30v31q0 31 30 31h873q96 0 184 88t88 186v49q0 100 -75 169t-191 69h-889q-127 0 -191 -59t-65 -168l-2 -1149
q0 -31 -31 -31h-30q-31 0 -31 31l-2 1138q0 145 98 237t254 93h889q150 0 254 -100t104 -240v-45q0 -161 -180 -311q110 -68 176 -153t66 -222z" />
    <glyph glyph-name="agrave" unicode="&#xe0;" horiz-adv-x="1800" 
d="M1673 0h-57q-33 0 -33 49v82q-129 -133 -256 -133h-934q-115 0 -203 82t-88 200t80 196t207 77h1188v-98h-1186q-197 0 -196 -181q0 -80 58 -132t138 -52h930q84 0 143 44t119 120v352q0 127 -60 198t-153 70h-924q-92 0 -137 -19t-86 -67q-23 -25 -45 -2l-28 21
q-20 18 -3 41q53 68 117 94t174 25h924q131 1 222 -99t91 -258v-561q0 -15 4 -32t-6 -17zM737 1638q31 0 43 -36l154 -379q16 -37 -21 -37h-39q-23 0 -43 37l-178 379q-18 37 21 36h63z" />
    <glyph glyph-name="aacute" unicode="&#xe1;" horiz-adv-x="1800" 
d="M1673 0h-57q-33 0 -33 49v82q-129 -133 -256 -133h-934q-115 0 -203 82t-88 200t80 196t207 77h1188v-98h-1186q-197 0 -196 -181q0 -80 58 -132t138 -52h930q84 0 143 44t119 120v352q0 127 -60 198t-153 70h-924q-92 0 -137 -19t-86 -67q-23 -25 -45 -2l-28 21
q-20 18 -3 41q53 68 117 94t174 25h924q131 1 222 -99t91 -258v-561q0 -15 4 -32t-6 -17zM907 1186h-35q-37 0 -20 37l154 379q12 37 43 36h59q39 0 20 -36l-178 -379q-20 -37 -43 -37z" />
    <glyph glyph-name="acircumflex" unicode="&#xe2;" horiz-adv-x="1800" 
d="M1673 0h-57q-33 0 -33 49v82q-129 -133 -256 -133h-934q-115 0 -203 82t-88 200t80 196t207 77h1188v-98h-1186q-197 0 -196 -181q0 -80 58 -132t138 -52h930q84 0 143 44t119 120v352q0 127 -60 198t-153 70h-924q-92 0 -137 -19t-86 -67q-23 -25 -45 -2l-28 21
q-20 18 -3 41q53 68 117 94t174 25h924q131 1 222 -99t91 -258v-561q0 -15 4 -32t-6 -17zM618 1200h-57q-16 0 -21 12t5 27l291 367q23 33 47 32h28q27 0 50 -32l290 -367q10 -15 5 -27t-21 -12h-57q-16 0 -48 39l-231 299l-233 -299q-32 -39 -48 -39z" />
    <glyph glyph-name="atilde" unicode="&#xe3;" horiz-adv-x="1800" 
d="M1673 0h-57q-33 0 -33 49v82q-129 -133 -256 -133h-934q-115 0 -203 82t-88 200t80 196t207 77h1188v-98h-1186q-197 0 -196 -181q0 -80 58 -132t138 -52h930q84 0 143 44t119 120v352q0 127 -60 198t-153 70h-924q-92 0 -137 -19t-86 -67q-23 -25 -45 -2l-28 21
q-20 18 -3 41q53 68 117 94t174 25h924q131 1 222 -99t91 -258v-561q0 -15 4 -32t-6 -17zM727 1544q74 0 178 -65q103 -65 149 -63t154 73q20 14 35 -16l19 -35q12 -23 -21 -45q-100 -76 -174 -76t-177 66q-104 67 -150 65t-154 -74q-21 -14 -35 17l-19 34q-12 23 21 45
q100 74 174 74z" />
    <glyph glyph-name="adieresis" unicode="&#xe4;" horiz-adv-x="1800" 
d="M1673 0h-57q-33 0 -33 49v82q-129 -133 -256 -133h-934q-115 0 -203 82t-88 200t80 196t207 77h1188v-98h-1186q-197 0 -196 -181q0 -80 58 -132t138 -52h930q84 0 143 44t119 120v352q0 127 -60 198t-153 70h-924q-92 0 -137 -19t-86 -67q-23 -25 -45 -2l-28 21
q-20 18 -3 41q53 68 117 94t174 25h924q131 1 222 -99t91 -258v-561q0 -15 4 -32t-6 -17zM1249 1341h-59q-31 0 -31 31v84q0 31 31 31h59q31 0 31 -31v-84q0 -31 -31 -31zM612 1341h-61q-31 0 -31 31v84q0 31 31 31h61q31 0 31 -31v-84q0 -31 -31 -31z" />
    <glyph glyph-name="aring" unicode="&#xe5;" horiz-adv-x="1800" 
d="M1673 0h-57q-33 0 -33 49v82q-129 -133 -256 -133h-934q-115 0 -203 82t-88 200t80 196t207 77h1188v-98h-1186q-197 0 -196 -181q0 -80 58 -132t138 -52h930q84 0 143 44t119 120v352q0 127 -60 198t-153 70h-924q-92 0 -137 -19t-86 -67q-23 -25 -45 -2l-28 21
q-20 18 -3 41q53 68 117 94t174 25h924q131 1 222 -99t91 -258v-561q0 -15 4 -32t-6 -17zM788 1450v-20q0 -98 99 -99h22q100 0 101 99v20q0 98 -101 98h-22q-99 0 -99 -98zM911 1239h-26q-82 0 -135 52t-54 136v23q0 82 54 136t135 54h26q81 0 135 -54t54 -136v-23
q0 -84 -52 -136t-137 -52z" />
    <glyph glyph-name="ae" unicode="&#xe6;" horiz-adv-x="3291" 
d="M1587 461h-1196q-197 0 -196 -185q0 -80 58 -133t138 -53h940q57 0 109.5 28.5t79 57.5t67.5 80v205zM2855 877h-897q-96 0 -176 -71t-94 -171v-70h1421v27q0 123 -83 204t-171 81zM1688 461v-142q16 -96 95 -162.5t175 -66.5h893q133 0 256 146q18 25 41 6l28 -25
q23 -20 7 -43q-143 -176 -330 -176h-897q-86 0 -170 50t-137 130q-84 -90 -156 -135t-172 -45h-928q-115 0 -203 83t-88 202t80 196.5t207 77.5h1198v53q0 123 -63.5 193.5t-153.5 70.5h-891q-147 0 -262 -88q-27 -27 -47 -2l-20 23q-18 23 -3 41q115 119 322 119h893
q86 0 163 -49.5t122 -135.5q53 82 137 134.5t172 52.5h897q121 0 234.5 -106.5t113.5 -258.5v-82q0 -61 -61 -61h-1452z" />
    <glyph glyph-name="ccedilla" unicode="&#xe7;" horiz-adv-x="1804" 
d="M1204 -264q0 -150 -178 -150h-76q-84 0 -131 47.5t-49 124.5q0 20 18 21h66q20 0 20 -17q2 -68 101 -67h48q28 0 42 2q33 5 33 41.5t-41 48.5t-195 29q-20 2 -39.5 18t-19.5 60.5t45 103.5h-371q-137 0 -250.5 110.5t-113.5 256.5v233q0 145 113.5 258t250.5 113h893
q115 0 227.5 -93.5t114.5 -199.5q0 -31 -29 -31h-32q-35 0 -35 25q0 72 -82 139.5t-164 67.5h-891q-106 0 -190 -84t-84 -195v-233q0 -111 84 -193t190 -82h889q133 0 256 141q23 25 41 9l27 -23q23 -20 6 -43q-143 -176 -328 -176h-418q-33 -47 -31.5 -61.5t2.5 -19.5t8 -9
t10.5 -9t26.5 -5l29 -5q8 -2 44 -5t46.5 -6t36 -9t34.5 -15.5t27.5 -27.5t18.5 -90z" />
    <glyph glyph-name="egrave" unicode="&#xe8;" horiz-adv-x="1841" 
d="M1632 565v27q0 123 -83 204t-171 81h-897q-109 0 -191.5 -85t-82.5 -200v-27h1425zM479 969h897q121 0 234.5 -106.5t113.5 -258.5v-82q0 -61 -61 -61h-1456v-96q0 -111 84 -193t190 -82h893q133 0 256 146q18 25 41 6l29 -25q23 -20 6 -43q-143 -176 -330 -176h-897
q-137 0 -250.5 110.5t-113.5 256.5v233q0 145 113.5 258t250.5 113zM924 1186h-39q-23 0 -43 37l-178 379q-18 37 20 36h64q31 1 43 -36l153 -379q16 -37 -20 -37z" />
    <glyph glyph-name="eacute" unicode="&#xe9;" horiz-adv-x="1841" 
d="M1632 565v27q0 123 -83 204t-171 81h-897q-109 0 -191.5 -85t-82.5 -200v-27h1425zM479 969h897q121 0 234.5 -106.5t113.5 -258.5v-82q0 -61 -61 -61h-1456v-96q0 -111 84 -193t190 -82h893q133 0 256 146q18 25 41 6l29 -25q23 -20 6 -43q-143 -176 -330 -176h-897
q-137 0 -250.5 110.5t-113.5 256.5v233q0 145 113.5 258t250.5 113zM1118 1638q39 0 21 -36l-178 -379q-20 -37 -43 -37h-35q-37 0 -21 37l154 379q12 37 43 36h59z" />
    <glyph glyph-name="ecircumflex" unicode="&#xea;" horiz-adv-x="1841" 
d="M1632 565v27q0 123 -83 204t-171 81h-897q-109 0 -191.5 -85t-82.5 -200v-27h1425zM479 969h897q121 0 234.5 -106.5t113.5 -258.5v-82q0 -61 -61 -61h-1456v-96q0 -111 84 -193t190 -82h893q133 0 256 146q18 25 41 6l29 -25q23 -20 6 -43q-143 -176 -330 -176h-897
q-137 0 -250.5 110.5t-113.5 256.5v233q0 145 113.5 258t250.5 113zM924 1638q27 0 49 -32l291 -367q10 -14 5 -26.5t-22 -12.5h-57q-16 0 -47 39l-232 299l-233 -299q-31 -39 -47 -39h-58q-16 0 -21 12.5t5 26.5l291 367q23 33 47 32h29z" />
    <glyph glyph-name="edieresis" unicode="&#xeb;" horiz-adv-x="1841" 
d="M1632 565v27q0 123 -83 204t-171 81h-897q-109 0 -191.5 -85t-82.5 -200v-27h1425zM479 969h897q121 0 234.5 -106.5t113.5 -258.5v-82q0 -61 -61 -61h-1456v-96q0 -111 84 -193t190 -82h893q133 0 256 146q18 25 41 6l29 -25q23 -20 6 -43q-143 -176 -330 -176h-897
q-137 0 -250.5 110.5t-113.5 256.5v233q0 145 113.5 258t250.5 113zM1169 1372v84q0 31 31 31h60q31 0 30 -31v-84q0 -31 -30 -31h-60q-31 0 -31 31zM530 1372v84q0 31 31 31h62q31 0 30 -31v-84q0 -31 -30 -31h-62q-31 0 -31 31z" />
    <glyph glyph-name="igrave" unicode="&#xec;" horiz-adv-x="419" 
d="M164 31v903q0 31 31 31h30q31 0 31 -31v-903q0 -31 -31 -31h-30q-31 0 -31 31zM223 1186h-39q-23 0 -43 37l-178 379q-18 37 21 36h63q31 1 43 -36l154 -379q16 -37 -21 -37z" />
    <glyph glyph-name="iacute" unicode="&#xed;" horiz-adv-x="419" 
d="M164 31v903q0 31 31 31h30q31 0 31 -31v-903q0 -31 -31 -31h-30q-31 0 -31 31zM420 1638q39 0 20 -36l-178 -379q-20 -37 -43 -37h-35q-36 0 -20 37l153 379q12 37 43 36h60z" />
    <glyph glyph-name="icircumflex" unicode="&#xee;" horiz-adv-x="419" 
d="M164 31v903q0 31 31 31h30q31 0 31 -31v-903q0 -31 -31 -31h-30q-31 0 -31 31zM223 1638q27 0 49 -32l291 -367q10 -15 5 -27t-21 -12h-58q-16 0 -47 39l-231 299l-234 -299q-31 -39 -47 -39h-57q-16 0 -21 12t5 27l290 367q23 33 48 32h28z" />
    <glyph glyph-name="idieresis" unicode="&#xef;" horiz-adv-x="419" 
d="M164 31v903q0 31 31 31h30q31 0 31 -31v-903q0 -31 -31 -31h-30q-31 0 -31 31zM469 1372v84q0 31 31 31h59q31 0 31 -31v-84q0 -31 -31 -31h-59q-31 0 -31 31zM-170 1372v84q0 31 31 31h59q31 0 31 -31v-84q0 -31 -31 -31h-59q-31 0 -31 31z" />
    <glyph glyph-name="eth" unicode="&#xf0;" horiz-adv-x="1912" 
d="M514 815q-104 -1 -168 -23q-114 -40 -136 -198q-9 -63 -11 -178q-2 -178 82 -261t227 -83h930q240 0 276 352q18 174 -48 283q-67 109 -234 108h-918zM506 -20q-178 0 -289 114t-115 348q-8 477 408 476h942q154 0 270 -111q10 143 -12 271t-51 182l-111 -144
q-25 -35 -47 -35h-55q-18 1 -24 11t3 26l174 223q-80 80 -192 80h-899q-31 0 -31 31v31q0 31 31 30h868q164 0 277 -102l28 37q31 35 48 35h55q18 0 24 -10t-6 -27l-86 -113q66 -98 82 -237q39 -352 8 -682q-18 -205 -119 -320t-266 -114h-915z" />
    <glyph glyph-name="ntilde" unicode="&#xf1;" horiz-adv-x="1867" 
d="M477 963h905q139 0 246 -115t107 -252v-565q0 -31 -31 -31h-31q-31 0 -31 31v565q0 109 -69.5 191.5t-179.5 82.5h-904q-86 0 -168.5 -59t-84.5 -125v-655q0 -31 -31 -31h-31q-31 0 -31 31v901q0 31 31 31h31q31 0 31 -31v-55q120 86 241 86zM1100 1317q-74 0 -177 66
t-149.5 64.5t-155.5 -73.5q-20 -14 -34 17l-19 34q-12 23 21 45q100 74 174 74t178 -65t149.5 -63.5t153.5 73.5q21 15 35 -16l18 -35q12 -23 -20 -45q-100 -76 -174 -76z" />
    <glyph glyph-name="ograve" unicode="&#xf2;" horiz-adv-x="1857" 
d="M1653 391v182q0 125 -79 214t-196 90h-897q-121 1 -199 -89t-77 -215v-182q0 -125 78 -213t198 -88h897q117 0 196 88t79 213zM479 969h899q150 0 258 -120t109 -276v-182q0 -157 -109 -275t-258 -118h-899q-151 0 -259 119t-107 274v182q0 158 107 277t259 119z
M944 1186h-39q-23 0 -43 37l-178 379q-18 37 21 36h63q31 1 43 -36l154 -379q16 -37 -21 -37z" />
    <glyph glyph-name="oacute" unicode="&#xf3;" horiz-adv-x="1857" 
d="M1653 391v182q0 125 -79 214t-196 90h-897q-121 1 -199 -89t-77 -215v-182q0 -125 78 -213t198 -88h897q117 0 196 88t79 213zM479 969h899q150 0 258 -120t109 -276v-182q0 -157 -109 -275t-258 -118h-899q-151 0 -259 119t-107 274v182q0 158 107 277t259 119z
M1139 1638q39 0 20 -36l-178 -379q-20 -37 -43 -37h-35q-36 0 -20 37l153 379q12 37 43 36h60z" />
    <glyph glyph-name="ocircumflex" unicode="&#xf4;" horiz-adv-x="1857" 
d="M1653 391v182q0 125 -79 214t-196 90h-897q-121 1 -199 -89t-77 -215v-182q0 -125 78 -213t198 -88h897q117 0 196 88t79 213zM479 969h899q150 0 258 -120t109 -276v-182q0 -157 -109 -275t-258 -118h-899q-151 0 -259 119t-107 274v182q0 158 107 277t259 119z
M942 1638q27 0 49 -32l291 -367q10 -15 5 -27t-21 -12h-58q-16 0 -47 39l-231 299l-234 -299q-31 -39 -47 -39h-57q-16 0 -22 12q-5 13 5 27l291 367q23 33 47 32h29z" />
    <glyph glyph-name="otilde" unicode="&#xf5;" horiz-adv-x="1857" 
d="M1653 391v182q0 125 -79 214t-196 90h-897q-121 1 -199 -89t-77 -215v-182q0 -125 78 -213t198 -88h897q117 0 196 88t79 213zM479 969h899q150 0 258 -120t109 -276v-182q0 -157 -109 -275t-258 -118h-899q-151 0 -259 119t-107 274v182q0 158 107 277t259 119z
M1098 1317q-74 0 -177 66q-103 67 -149 65t-156 -74q-20 -14 -34 17l-19 34q-12 23 21 45q100 74 174 74t178 -65t149 -63t154 73q21 15 35 -16l18 -35q12 -23 -20 -45q-100 -76 -174 -76z" />
    <glyph glyph-name="odieresis" unicode="&#xf6;" horiz-adv-x="1857" 
d="M1653 391v182q0 125 -79 214t-196 90h-897q-121 1 -199 -89t-77 -215v-182q0 -125 78 -213t198 -88h897q117 0 196 88t79 213zM479 969h899q150 0 258 -120t109 -276v-182q0 -157 -109 -275t-258 -118h-899q-151 0 -259 119t-107 274v182q0 158 107 277t259 119z
M1190 1372v84q0 31 31 31h59q31 0 31 -31v-84q0 -31 -31 -31h-59q-31 0 -31 31zM551 1372v84q0 31 31 31h61q31 0 31 -31v-84q0 -31 -31 -31h-61q-31 0 -31 31z" />
    <glyph glyph-name="divide" unicode="&#xf7;" horiz-adv-x="1052" 
d="M463 322v94q0 31 31 30h71q31 0 31 -30v-94q0 -31 -31 -31h-71q-31 0 -31 31zM154 709h747q29 0 29 -31v-31q0 -31 -31 -31h-745q-31 0 -31 31v31q0 31 31 31zM463 909v95q0 31 31 30h71q31 0 31 -30v-95q0 -31 -31 -30h-71q-31 -1 -31 30z" />
    <glyph glyph-name="oslash" unicode="&#xf8;" horiz-adv-x="1857" 
d="M1653 391v182q0 125 -79 214t-196 90h-223l-344 -787h567q117 0 196 88t79 213zM205 573v-182q0 -125 78 -213t198 -88h226l344 787h-570q-121 1 -199 -89t-77 -215zM479 969h899q150 0 258 -120t109 -276v-182q0 -157 -109 -275t-258 -118h-899q-151 0 -259 119
t-107 274v182q0 158 107 277t259 119z" />
    <glyph glyph-name="ugrave" unicode="&#xf9;" horiz-adv-x="1863" 
d="M1720 932v-901q0 -31 -30 -31h-31q-31 0 -31 31v53q-119 -86 -242 -86h-897q-143 0 -249 110t-107 250v574q0 31 31 31h31q31 0 30 -31v-574q0 -112 70 -190t184 -78h897q86 0 168 60t84 124v658q0 31 31 31h31q30 0 30 -31zM948 1186h-39q-23 0 -43 37l-178 379
q-18 37 21 36h63q31 1 43 -36l154 -379q16 -37 -21 -37z" />
    <glyph glyph-name="uacute" unicode="&#xfa;" horiz-adv-x="1863" 
d="M1720 932v-901q0 -31 -30 -31h-31q-31 0 -31 31v53q-119 -86 -242 -86h-897q-143 0 -249 110t-107 250v574q0 31 31 31h31q31 0 30 -31v-574q0 -112 70 -190t184 -78h897q86 0 168 60t84 124v658q0 31 31 31h31q30 0 30 -31zM1143 1638q39 0 20 -36l-178 -379
q-20 -37 -43 -37h-35q-36 0 -20 37l153 379q12 37 43 36h60z" />
    <glyph glyph-name="ucircumflex" unicode="&#xfb;" horiz-adv-x="1863" 
d="M1720 932v-901q0 -31 -30 -31h-31q-31 0 -31 31v53q-119 -86 -242 -86h-897q-143 0 -249 110t-107 250v574q0 31 31 31h31q31 0 30 -31v-574q0 -112 70 -190t184 -78h897q86 0 168 60t84 124v658q0 31 31 31h31q30 0 30 -31zM946 1638q27 0 49 -32l291 -367q10 -15 5 -27
t-21 -12h-58q-16 0 -47 39l-231 299l-234 -299q-31 -39 -47 -39h-57q-16 0 -22 12q-4 13 6 27l290 367q23 33 48 32h28z" />
    <glyph glyph-name="udieresis" unicode="&#xfc;" horiz-adv-x="1863" 
d="M1720 932v-901q0 -31 -30 -31h-31q-31 0 -31 31v53q-119 -86 -242 -86h-897q-143 0 -249 110t-107 250v574q0 31 31 31h31q31 0 30 -31v-574q0 -112 70 -190t184 -78h897q86 0 168 60t84 124v658q0 31 31 31h31q30 0 30 -31zM1192 1372v84q0 31 31 31h59q31 0 31 -31v-84
q0 -31 -31 -31h-59q-31 0 -31 31zM553 1372v84q0 31 31 31h61q31 0 31 -31v-84q0 -31 -31 -31h-61q-31 0 -31 31z" />
    <glyph glyph-name="yacute" unicode="&#xfd;" horiz-adv-x="2115" 
d="M1942 963h75q23 -1 27 -11t-14 -26l-1473 -1323q-14 -12 -37 -13h-69q-23 0 -26 10t13 27l516 467l-868 832q-18 16 -14 26t26 11h78q23 0 37 -13l817 -788l875 788q14 13 37 13zM1067 1186h-35q-37 0 -20 37l153 379q12 37 43 36h60q39 0 20 -36l-178 -379
q-20 -37 -43 -37z" />
    <glyph glyph-name="thorn" unicode="&#xfe;" horiz-adv-x="1857" 
d="M1642 346v250q0 110 -70 192t-179 82h-904q-83 0 -167 -59t-86 -123v-481q57 -45 131 -80t122 -35h904q96 0 173 77q76 77 76 177zM489 963h902q141 0 242 -113t102 -254v-250q1 -138 -105 -242t-239 -104h-902q-129 0 -253 102v-481q0 -31 -31 -31h-31q-31 0 -31 31
v1835q0 31 31 31h31q31 0 31 -31v-592q112 99 253 99z" />
    <glyph glyph-name="ydieresis" unicode="&#xff;" horiz-adv-x="2115" 
d="M1942 963h75q23 -1 27 -11t-14 -26l-1473 -1323q-14 -12 -37 -13h-69q-23 0 -26 10t13 27l516 467l-868 832q-18 16 -14 26t26 11h78q23 0 37 -13l817 -788l875 788q14 13 37 13zM1409 1341h-59q-31 0 -31 31v84q0 31 31 31h59q31 0 31 -31v-84q0 -31 -31 -31zM772 1341
h-61q-31 0 -31 31v84q0 31 31 31h61q31 0 31 -31v-84q0 -31 -31 -31z" />
    <glyph glyph-name="Amacron" unicode="&#x100;" horiz-adv-x="2125" 
d="M1589 530l-522 844l-528 -844h1050zM2003 0h-66q-18 0 -39 33l-251 405h-1166l-254 -405q-2 -4 -6 -10q-4 -7 -5 -9q-6 -15 -26 -14h-67q-39 0 -23 33l904 1427q20 33 38 33h45q19 0 39 -33l902 -1427q8 -17 0 -25t-25 -8zM1397 1919h-664q-31 0 -31 31v30q0 31 31 31
h664q31 0 30 -31v-30q1 -31 -30 -31z" />
    <glyph glyph-name="amacron" unicode="&#x101;" horiz-adv-x="1800" 
d="M1673 0h-57q-33 0 -33 49v82q-129 -133 -256 -133h-934q-115 0 -203 82t-88 200t80 196t207 77h1188v-98h-1186q-197 0 -196 -181q0 -80 58 -132t138 -52h930q84 0 143 44t119 120v352q0 127 -60 198t-153 70h-924q-92 0 -137 -19t-86 -67q-23 -25 -45 -2l-28 21
q-20 18 -3 41q53 68 117 94t174 25h924q131 1 222 -99t91 -258v-561q0 -15 4 -32t-6 -17zM1231 1395h-664q-31 0 -30 30v31q0 31 30 31h664q31 0 31 -31v-31q0 -30 -31 -30z" />
    <glyph glyph-name="Abreve" unicode="&#x102;" horiz-adv-x="2125" 
d="M1589 530l-522 844l-528 -844h1050zM2003 0h-66q-18 0 -39 33l-251 405h-1166l-254 -405q-2 -4 -6 -10q-4 -7 -5 -9q-6 -15 -26 -14h-67q-39 0 -23 33l904 1427q20 33 38 33h45q19 0 39 -33l902 -1427q8 -17 0 -25t-25 -8zM1100 1845h-70q-131 0 -207 74t-84 213
q0 31 31 31h41q31 0 31 -31q8 -94 51 -139t133 -45h78q92 0 134 45t50 139q0 31 31 31h41q31 0 31 -31q-8 -141 -84 -214t-207 -73z" />
    <glyph glyph-name="abreve" unicode="&#x103;" horiz-adv-x="1800" 
d="M1673 0h-57q-33 0 -33 49v82q-129 -133 -256 -133h-934q-115 0 -203 82t-88 200t80 196t207 77h1188v-98h-1186q-197 0 -196 -181q0 -80 58 -132t138 -52h930q84 0 143 44t119 120v352q0 127 -60 198t-153 70h-924q-92 0 -137 -19t-86 -67q-23 -25 -45 -2l-28 21
q-20 18 -3 41q53 68 117 94t174 25h924q131 1 222 -99t91 -258v-561q0 -15 4 -32t-6 -17zM934 1321h-70q-131 0 -207 74t-84 213q0 31 31 30h41q31 0 31 -30q8 -94 51 -140t133 -45h78q92 0 134 45t50 140q0 31 31 30h41q31 0 31 -30q-8 -141 -84 -214t-207 -73z" />
    <glyph glyph-name="Aogonek" unicode="&#x104;" horiz-adv-x="2125" 
d="M1589 530l-522 844l-528 -844h1050zM1726 -233q0 -43 33 -43h275q20 0 20 -19v-70q0 -20 -20 -20h-246q-178 0 -178 154q0 94 36 121t141 38q104 11 120 24t16 27v23q-8 2 -25 31l-251 405h-1166l-254 -405q-2 -4 -6 -10q-4 -7 -5 -9q-6 -15 -26 -14h-67q-39 0 -23 33
l904 1427q20 33 38 33h45q18 0 39 -33l902 -1427q8 -14 2 -25q12 -78 -22 -122t-101 -50q-29 -4 -64 -8t-57 -7t-35 -3q-25 -2 -25 -43v-8z" />
    <glyph glyph-name="aogonek" unicode="&#x105;" horiz-adv-x="1800" 
d="M1382 -233q0 -43 33 -43h275q20 0 20 -19v-70q0 -20 -20 -20h-246q-178 0 -178 154q0 94 36 122t131 36q94 8 105 14l22 11t17 24q6 19 1 39t5 24v92q-129 -133 -256 -133h-934q-115 0 -203 82t-88 200t80 196t207 77h1188v-98h-1186q-197 0 -196 -181q0 -80 58 -132
t138 -52h930q84 0 143 44t119 120v352q0 127 -60 198t-153 70h-924q-92 0 -137 -19t-86 -67q-23 -25 -45 -2l-28 21q-20 18 -3 41q53 68 117 94t174 25h924q131 1 222 -99t91 -258v-575q6 -2 6 -8q18 -86 -14 -136q-33 -49 -104 -55q-29 -4 -64 -8t-57 -7t-35 -3
q-25 -2 -25 -43v-8z" />
    <glyph glyph-name="Cacute" unicode="&#x106;" horiz-adv-x="2019" 
d="M1855 481h31q31 0 31 -30q-2 -186 -132 -332t-294 -146h-954q-170 0 -302.5 147.5t-132.5 344.5v557q0 197 132.5 342t302.5 145h954q164 0 294 -143t132 -330q0 -31 -31 -30h-31q-33 0 -32 30q0 152 -101.5 266.5t-230.5 114.5h-954q-137 0 -239.5 -116.5t-102.5 -278.5
v-557q0 -164 102 -281.5t240 -117.5h954q131 0 232.5 116.5t99.5 268.5q-1 30 32 30zM1135 2163h59q39 0 20 -37l-178 -379q-20 -37 -43 -37h-35q-36 0 -20 37l154 379q12 37 43 37z" />
    <glyph glyph-name="cacute" unicode="&#x107;" horiz-adv-x="1804" 
d="M1683 645h-32q-35 0 -35 25q0 72 -82 139.5t-164 67.5h-891q-106 0 -190 -84t-84 -195v-233q0 -111 84 -193t190 -82h889q133 0 256 141q23 25 41 9l27 -23q23 -20 6 -43q-143 -176 -328 -176h-893q-137 0 -250.5 110.5t-113.5 256.5v233q0 145 113.5 258t250.5 113h893
q115 0 227.5 -93.5t114.5 -199.5q0 -31 -29 -31zM1112 1638q39 0 21 -36l-179 -379q-20 -37 -43 -37h-34q-37 0 -21 37l154 379q12 37 43 36h59z" />
    <glyph glyph-name="Cdotaccent" unicode="&#x10a;" horiz-adv-x="2019" 
d="M1855 481h31q31 0 31 -30q-2 -186 -132 -332t-294 -146h-954q-170 0 -302.5 147.5t-132.5 344.5v557q0 197 132.5 342t302.5 145h954q164 0 294 -143t132 -330q0 -31 -31 -30h-31q-33 0 -32 30q0 152 -101.5 266.5t-230.5 114.5h-954q-137 0 -239.5 -116.5t-102.5 -278.5
v-557q0 -164 102 -281.5t240 -117.5h954q131 0 232.5 116.5t99.5 268.5q-1 30 32 30zM911 1878v98q0 35 37 35h78q33 0 33 -35v-98q0 -35 -33 -35h-78q-37 0 -37 35z" />
    <glyph glyph-name="cdotaccent" unicode="&#x10b;" horiz-adv-x="1804" 
d="M1683 645h-32q-35 0 -35 25q0 72 -82 139.5t-164 67.5h-891q-106 0 -190 -84t-84 -195v-233q0 -111 84 -193t190 -82h889q133 0 256 141q23 25 41 9l27 -23q23 -20 6 -43q-143 -176 -328 -176h-893q-137 0 -250.5 110.5t-113.5 256.5v233q0 145 113.5 258t250.5 113h893
q115 0 227.5 -93.5t114.5 -199.5q0 -31 -29 -31zM829 1354v98q0 35 37 35h78q33 0 33 -35v-98q0 -35 -33 -35h-78q-37 0 -37 35z" />
    <glyph glyph-name="Ccaron" unicode="&#x10c;" horiz-adv-x="2019" 
d="M1855 481h31q31 0 31 -30q-2 -186 -132 -332t-294 -146h-954q-170 0 -302.5 147.5t-132.5 344.5v557q0 197 132.5 342t302.5 145h954q164 0 294 -143t132 -330q0 -31 -31 -30h-31q-33 0 -32 30q0 152 -101.5 266.5t-230.5 114.5h-954q-137 0 -239.5 -116.5t-102.5 -278.5
v-557q0 -164 102 -281.5t240 -117.5h954q131 0 232.5 116.5t99.5 268.5q-1 30 32 30zM647 2163h58q18 0 47 -39l233 -299l232 299q29 39 47 39h57q16 0 21.5 -12.5t-5.5 -26.5l-290 -367q-23 -33 -50 -33h-28q-24 0 -47 33l-291 367q-10 14 -5 26.5t21 12.5z" />
    <glyph glyph-name="ccaron" unicode="&#x10d;" horiz-adv-x="1804" 
d="M1683 645h-32q-35 0 -35 25q0 72 -82 139.5t-164 67.5h-891q-106 0 -190 -84t-84 -195v-233q0 -111 84 -193t190 -82h889q133 0 256 141q23 25 41 9l27 -23q23 -20 6 -43q-143 -176 -328 -176h-893q-137 0 -250.5 110.5t-113.5 256.5v233q0 145 113.5 258t250.5 113h893
q115 0 227.5 -93.5t114.5 -199.5q0 -31 -29 -31zM567 1638h58q18 0 47 -39l233 -299l232 299q29 39 47 39h57q16 0 21.5 -12t-5.5 -27l-290 -366q-23 -33 -49 -33h-29q-24 0 -47 33l-291 366q-10 14 -5 26.5t21 12.5z" />
    <glyph glyph-name="Dcaron" unicode="&#x10e;" horiz-adv-x="1996" 
d="M1794 481v525q0 154 -100 272t-230 117h-1251v-1303h1251q130 0 230 118t100 271zM152 1487h1308q168 1 297 -143t129 -338v-525q0 -195 -129 -338t-297 -143h-1308q-31 0 -31 31v1425q0 31 31 31zM719 2163q18 0 47 -39l233 -299l232 299q29 39 47 39h57q15 -1 21 -13
t-4 -26l-291 -367q-23 -33 -49 -33h-29q-24 0 -47 33l-291 367q-10 14 -5 26t22 13h57z" />
    <glyph glyph-name="dcaron" unicode="&#x10f;" horiz-adv-x="2152" 
d="M1360 870h-903q-111 0 -182 -83t-70 -191v-250q0 -100 78 -177t174 -77h903q49 0 123 35t131 80v481q-2 62 -86 122t-168 60zM1882 1487h96q31 0 31 -31v-184q0 -68 -4 -107t-28 -99t-70 -114q-18 -20 -41 0l-35 31q-25 25 -8 43q55 53 69 102t15 132l16 20h-41
q-31 0 -31 31v145q0 31 31 31zM1645 1487h30q31 0 31 -31v-1425q0 -31 -31 -31h-30q-31 0 -31 31v71q-125 -102 -254 -102h-903q-133 0 -239 104q-105 104 -105 242v250q0 141 101 254t243 113h903q139 0 254 -111v604q0 31 31 31z" />
    <glyph glyph-name="Dcroat" unicode="&#x110;" horiz-adv-x="2117" 
d="M1915 481v525q0 154 -100 272t-230 117h-1251v-559h768q31 0 31 -31v-31q0 -31 -31 -31h-768v-651h1251q129 0 229 118t101 271zM272 1487h1309q168 1 297 -143t129 -338v-525q0 -195 -129 -338t-297 -143h-1309q-31 0 -30 31v712h-90q-31 0 -31 31v31q0 31 31 31h90v620
q0 31 30 31z" />
    <glyph glyph-name="dcroat" unicode="&#x111;" horiz-adv-x="1849" 
d="M1360 870h-903q-111 0 -182 -83t-70 -191v-250q0 -100 78 -177t174 -77h903q49 0 123 35t131 80v481q-2 62 -86 122t-168 60zM1706 1217h113q31 0 30 -31v-31q0 -31 -30 -31h-113v-1093q0 -31 -31 -31h-30q-31 0 -31 31v71q-125 -102 -254 -102h-903q-133 0 -239 104
q-105 104 -105 242v250q0 141 101 254t243 113h903q139 0 254 -111v272h-459q-31 0 -31 31v31q0 31 31 31h459v239q0 31 31 31h30q31 0 31 -31v-239z" />
    <glyph glyph-name="Emacron" unicode="&#x112;" 
d="M238 797h1445q31 0 31 -31v-31q0 -31 -31 -30h-1445v-613h1579q31 0 30 -31v-30q0 -31 -30 -31h-1641q-31 0 -31 31v1425q0 31 31 31h1641q31 0 30 -31v-31q0 -31 -30 -30h-1579v-598zM1303 1919h-664q-31 0 -31 31v30q0 31 31 31h664q31 0 30 -31v-30q1 -31 -30 -31z
" />
    <glyph glyph-name="emacron" unicode="&#x113;" horiz-adv-x="1841" 
d="M1632 565v27q0 123 -83 204t-171 81h-897q-109 0 -191.5 -85t-82.5 -200v-27h1425zM479 969h897q121 0 234.5 -106.5t113.5 -258.5v-82q0 -61 -61 -61h-1456v-96q0 -111 84 -193t190 -82h893q133 0 256 146q18 25 41 6l29 -25q23 -20 6 -43q-143 -176 -330 -176h-897
q-137 0 -250.5 110.5t-113.5 256.5v233q0 145 113.5 258t250.5 113zM1241 1395h-663q-31 0 -31 30v31q0 31 31 31h663q31 0 31 -31v-31q0 -30 -31 -30z" />
    <glyph glyph-name="Edotaccent" unicode="&#x116;" 
d="M238 797h1445q31 0 31 -31v-31q0 -31 -31 -30h-1445v-613h1579q31 0 30 -31v-30q0 -31 -30 -31h-1641q-31 0 -31 31v1425q0 31 31 31h1641q31 0 30 -31v-31q0 -31 -30 -30h-1579v-598zM897 1878v98q0 35 37 35h78q33 0 32 -35v-98q0 -35 -32 -35h-78q-37 0 -37 35z" />
    <glyph glyph-name="edotaccent" unicode="&#x117;" horiz-adv-x="1841" 
d="M1632 565v27q0 123 -83 204t-171 81h-897q-109 0 -191.5 -85t-82.5 -200v-27h1425zM479 969h897q121 0 234.5 -106.5t113.5 -258.5v-82q0 -61 -61 -61h-1456v-96q0 -111 84 -193t190 -82h893q133 0 256 146q18 25 41 6l29 -25q23 -20 6 -43q-143 -176 -330 -176h-897
q-137 0 -250.5 110.5t-113.5 256.5v233q0 145 113.5 258t250.5 113zM836 1354v98q0 35 36 35h78q33 0 33 -35v-98q0 -35 -33 -35h-78q-36 0 -36 35z" />
    <glyph glyph-name="Eogonek" unicode="&#x118;" 
d="M1489 -233q1 -43 33 -43h274q20 0 21 -19v-70q0 -20 -21 -20h-246q-178 0 -178 154q0 94 34 119.5t139.5 38.5t123.5 26.5t17 46.5h-1510q-31 0 -31 31v1425q0 31 31 31h1641q31 0 30 -31v-31q0 -31 -30 -30h-1579v-598h1445q31 0 31 -31v-31q0 -31 -31 -30h-1445v-613
h1579q31 0 30 -31v-30q0 -31 -30 -31h-25q10 -74 -23.5 -116t-99.5 -48q-29 -4 -63.5 -8t-56 -7t-41.5 -4t-19 -42v-8z" />
    <glyph glyph-name="eogonek" unicode="&#x119;" horiz-adv-x="1841" 
d="M207 565h1425v27q0 123 -83 204t-171 81h-897q-109 0 -191.5 -85t-82.5 -200v-27zM1237 -233q0 -43 33 -43h274q20 0 21 -19v-70q0 -20 -21 -20h-246q-178 0 -178 154q0 94 36 121t143 38q106 11 120 25q15 15 15 27v22q-37 -4 -58 -4h-897q-137 0 -250.5 110.5
t-113.5 256.5v233q0 145 113.5 258t250.5 113h897q121 0 234.5 -106.5t113.5 -258.5v-82q0 -61 -61 -61h-1456v-96q0 -111 84 -193t190 -82h893q133 0 256 146q18 25 41 6l29 -25q23 -20 6 -43q-82 -100 -172 -141l2 -6q18 -86 -14.5 -135.5t-104.5 -55.5q-29 -4 -63.5 -8
t-56 -7t-35.5 -3q-25 -2 -25 -43v-8z" />
    <glyph glyph-name="Ecaron" unicode="&#x11a;" 
d="M238 797h1445q31 0 31 -31v-31q0 -31 -31 -30h-1445v-613h1579q31 0 30 -31v-30q0 -31 -30 -31h-1641q-31 0 -31 31v1425q0 31 31 31h1641q31 0 30 -31v-31q0 -31 -30 -30h-1579v-598zM635 2163h57q18 0 47 -39l234 -299l231 299q29 39 47 39h58q16 0 21 -12.5t-5 -26.5
l-291 -367q-23 -33 -49 -33h-29q-24 0 -47 33l-291 367q-10 14 -5 26.5t22 12.5z" />
    <glyph glyph-name="ecaron" unicode="&#x11b;" horiz-adv-x="1841" 
d="M1632 565v27q0 123 -83 204t-171 81h-897q-109 0 -191.5 -85t-82.5 -200v-27h1425zM479 969h897q121 0 234.5 -106.5t113.5 -258.5v-82q0 -61 -61 -61h-1456v-96q0 -111 84 -193t190 -82h893q133 0 256 146q18 25 41 6l29 -25q23 -20 6 -43q-143 -176 -330 -176h-897
q-137 0 -250.5 110.5t-113.5 256.5v233q0 145 113.5 258t250.5 113zM573 1638h58q18 0 47 -39l233 -299l232 299q29 39 47 39h57q16 0 21.5 -12t-4.5 -27l-291 -366q-23 -33 -49 -33h-29q-24 0 -47 33l-291 366q-10 14 -5 26.5t21 12.5z" />
    <glyph glyph-name="Gbreve" unicode="&#x11e;" horiz-adv-x="2029" 
d="M1413 770h475q31 0 31 -31v-278q0 -199 -129 -343.5t-299 -144.5h-954q-174 0 -304.5 143.5t-130.5 340.5v565q0 197 132.5 342t302.5 145h954q164 0 294 -143t132 -330q0 -31 -31 -30h-31q-33 0 -32 30q0 152 -100.5 266.5t-231.5 114.5h-954q-137 0 -239.5 -116.5
t-102.5 -278.5v-565q0 -160 101 -275.5t241 -115.5h954q135 0 234.5 115.5t99.5 279.5v217h-412q-31 0 -31 31v30q0 31 31 31zM1270 2163h41q31 0 30 -31q-8 -141 -83.5 -214t-206.5 -73h-70q-131 0 -207 74t-84 213q0 31 31 31h41q31 0 31 -31q8 -94 51 -139t133 -45h78
q92 0 134 45t50 139q0 31 31 31z" />
    <glyph glyph-name="gbreve" unicode="&#x11f;" horiz-adv-x="1820" 
d="M481 90h860q63 0 135 37t126 94v447q2 72 -82 140t-170 66h-895q-101 0 -181 -86t-79 -190v-233q0 -103 90 -189t196 -86zM1632 963h35q31 0 31 -31v-1034q0 -115 -102 -211t-234 -97h-870q-96 0 -194 60t-148 151q-23 29 18 37l41 -4q25 2 39 -16q38 -60 108 -98
t142 -37h864q72 0 156 59t84 147v197q-127 -88 -256 -88h-867q-135 0 -256 117t-121 250v233q0 137 109 253t244 116h895q129 0 252 -99v62q-1 33 30 33zM1165 1638h41q31 0 31 -30q-8 -141 -84 -214t-207 -73h-69q-131 0 -207 74t-84 213q0 31 30 30h41q31 0 31 -30
q8 -94 51 -140t133 -45h78q92 0 134 45t51 140q-1 30 30 30z" />
    <glyph glyph-name="Gdotaccent" unicode="&#x120;" horiz-adv-x="2029" 
d="M1413 770h475q31 0 31 -31v-278q0 -199 -129 -343.5t-299 -144.5h-954q-174 0 -304.5 143.5t-130.5 340.5v565q0 197 132.5 342t302.5 145h954q164 0 294 -143t132 -330q0 -31 -31 -30h-31q-33 0 -32 30q0 152 -100.5 266.5t-231.5 114.5h-954q-137 0 -239.5 -116.5
t-102.5 -278.5v-565q0 -160 101 -275.5t241 -115.5h954q135 0 234.5 115.5t99.5 279.5v217h-412q-31 0 -31 31v30q0 31 31 31zM942 1878v98q0 35 37 35h78q33 0 33 -35v-98q0 -35 -33 -35h-78q-37 0 -37 35z" />
    <glyph glyph-name="gdotaccent" unicode="&#x121;" horiz-adv-x="1820" 
d="M481 90h860q63 0 135 37t126 94v447q2 72 -82 140t-170 66h-895q-101 0 -181 -86t-79 -190v-233q0 -103 90 -189t196 -86zM1632 963h35q31 0 31 -31v-1034q0 -115 -102 -211t-234 -97h-870q-96 0 -194 60t-148 151q-23 29 18 37l41 -4q25 2 39 -16q38 -60 108 -98
t142 -37h864q72 0 156 59t84 147v197q-127 -88 -256 -88h-867q-135 0 -256 117t-121 250v233q0 137 109 253t244 116h895q129 0 252 -99v62q-1 33 30 33zM838 1354v98q0 35 36 35h78q33 0 33 -35v-98q0 -35 -33 -35h-78q-36 0 -36 35z" />
    <glyph glyph-name="Gcommaaccent" unicode="&#x122;" horiz-adv-x="2029" 
d="M983 -307h96q31 0 31 -31v-184q0 -68 -4 -108t-27.5 -100.5t-70.5 -113.5q-18 -20 -41 0l-35 33q-27 25 -8 43q55 53 69.5 102.5t14.5 130.5l16 21h-41q-31 0 -31 31v145q0 31 31 31zM1413 770h475q31 0 31 -31v-278q0 -199 -129 -343.5t-299 -144.5h-954
q-174 0 -304.5 143.5t-130.5 340.5v565q0 197 132.5 342t302.5 145h954q164 0 294 -143t132 -330q0 -31 -31 -30h-31q-33 0 -32 30q0 152 -100.5 266.5t-231.5 114.5h-954q-137 0 -239.5 -116.5t-102.5 -278.5v-565q0 -160 101 -275.5t241 -115.5h954q135 0 234.5 115.5
t99.5 279.5v217h-412q-31 0 -31 31v30q0 31 31 31z" />
    <glyph glyph-name="gcommaaccent" unicode="&#x123;" horiz-adv-x="1820" 
d="M481 90h860q63 0 135 37t126 94v447q2 72 -82 140t-170 66h-895q-101 0 -181 -86t-79 -190v-233q0 -103 90 -189t196 -86zM1632 963h35q31 0 31 -31v-1034q0 -115 -102 -211t-234 -97h-870q-96 0 -194 60t-148 151q-23 29 18 37l41 -4q25 2 39 -16q38 -60 108 -98
t142 -37h864q72 0 156 59t84 147v197q-127 -88 -256 -88h-867q-135 0 -256 117t-121 250v233q0 137 109 253t244 116h895q129 0 252 -99v62q-1 33 30 33zM961 1280h-97q-31 0 -30 31v184q0 70 3 108t26 99q24 61 71 115q20 23 41 0l37 -33q25 -27 8 -43q-56 -53 -70 -101
t-14 -133l-16 -20h41q31 0 30 -31v-145q1 -31 -30 -31z" />
    <glyph glyph-name="Hbar" unicode="&#x126;" horiz-adv-x="2050" 
d="M236 756h1579v413h-1579v-413zM1845 1487h31q31 0 31 -31v-1425q0 -31 -31 -31h-31q-31 0 -30 31v633h-1579v-633q0 -31 -31 -31h-31q-31 0 -31 31v1425q0 31 31 31h31q31 0 31 -31v-196h1579v196q-1 31 30 31z" />
    <glyph glyph-name="hbar" unicode="&#x127;" horiz-adv-x="2015" 
d="M643 963h905q140 0 242 -113t102 -254v-565q0 -31 -30 -31h-31q-31 0 -31 31v565q0 106 -70 190q-71 84 -182 84h-905q-84 0 -163 -59t-81 -125v-655q0 -31 -30 -31h-31q-31 0 -31 31v1128h-123q-31 0 -30 31v29q0 31 30 30h123v207q0 31 31 31h31q31 0 30 -31v-207h293
q31 0 31 -30v-29q0 -31 -31 -31h-293v-291q117 95 244 95z" />
    <glyph glyph-name="Imacron" unicode="&#x12a;" horiz-adv-x="436" 
d="M172 31v1425q0 31 31 31h33q31 0 30 -31v-1425q0 -31 -30 -31h-33q-31 0 -31 31zM549 1919h-664q-31 0 -30 31v30q0 31 30 31h664q31 0 31 -31v-30q0 -31 -31 -31z" />
    <glyph glyph-name="imacron" unicode="&#x12b;" horiz-adv-x="419" 
d="M164 31v903q0 31 31 31h30q31 0 31 -31v-903q0 -31 -31 -31h-30q-31 0 -31 31zM541 1395h-664q-31 0 -31 30v31q0 31 31 31h664q31 0 30 -31v-31q1 -30 -30 -30z" />
    <glyph glyph-name="Iogonek" unicode="&#x12e;" horiz-adv-x="436" 
d="M-29 -233q0 -43 33 -43h275q20 0 20 -19v-70q0 -20 -20 -20h-246q-178 0 -178 154q0 94 37 122t130 36t105 14q13 6 23 11t16 24t1 39t5 24v1417q0 31 31 31h33q31 0 30 -31v-1421q4 -4 4 -8q18 -86 -14 -136q-33 -49 -104 -55q-27 -4 -63 -8q-37 -4 -59 -7t-40 -4
t-19 -40v-10z" />
    <glyph glyph-name="iogonek" unicode="&#x12f;" horiz-adv-x="419" 
d="M-35 -233q0 -43 33 -43h274q20 0 21 -19v-70q0 -20 -21 -20h-245q-178 0 -179 154q0 94 37 122t148 38q110 10 123 34q11 32 2 64q0 10 6 12v895q0 31 31 31h30q31 0 31 -31v-897q8 -4 8 -10q18 -86 -14 -136q-33 -49 -105 -55q-27 -4 -63 -8t-58 -7t-40 -4t-19 -40v-10z
M252 1319h-78q-37 0 -37 35v98q0 35 37 35h78q33 0 33 -35v-98q0 -35 -33 -35z" />
    <glyph glyph-name="Idotaccent" unicode="&#x130;" horiz-adv-x="436" 
d="M172 31v1425q0 31 31 31h33q31 0 30 -31v-1425q0 -31 -30 -31h-33q-31 0 -31 31zM143 1878v98q0 35 37 35h78q33 0 33 -35v-98q0 -35 -33 -35h-78q-37 0 -37 35z" />
    <glyph glyph-name="dotlessi" unicode="&#x131;" horiz-adv-x="419" 
d="M164 31v903q0 31 31 31h30q31 0 31 -31v-903q0 -31 -31 -31h-30q-31 0 -31 31z" />
    <glyph glyph-name="IJ" unicode="&#x132;" horiz-adv-x="2338" 
d="M1798 78q129 0 226 112t98 273v993q0 31 30 31h31q31 0 31 -31v-989q0 -197 -126 -339t-294 -142h-887q-123 0 -229 82t-156 211q-12 26 17 40l39 9q31 10 36 -19q33 -98 117 -165t176 -66h891zM172 31v1425q0 31 31 31h33q31 0 30 -31v-1425q0 -31 -30 -31h-33
q-31 0 -31 31z" />
    <glyph glyph-name="ij" unicode="&#x133;" horiz-adv-x="825" 
d="M571 -106v1040q0 31 31 31h31q31 0 31 -31v-1032q0 -78 -60 -156t-147 -113q-29 -10 -39 21l-6 37q-10 27 18 37q57 20 99 64t42 102zM162 31v903q0 31 31 31h30q31 0 31 -31v-903q0 -31 -31 -31h-30q-31 0 -31 31zM551 1374v82q0 31 31 31h63q31 0 31 -31v-82
q0 -31 -31 -31h-63q-31 0 -31 31zM145 1374v82q0 31 31 31h64q31 0 30 -31v-82q0 -31 -30 -31h-64q-31 0 -31 31z" />
    <glyph glyph-name="Kcommaaccent" unicode="&#x136;" horiz-adv-x="2052" 
d="M985 -307h96q31 0 31 -31v-184q0 -68 -4 -108t-27.5 -100.5t-70.5 -113.5q-18 -20 -41 0l-35 33q-25 25 -8 43q55 53 69.5 102.5t14.5 130.5l16 21h-41q-31 0 -31 31v145q0 31 31 31zM1915 0h-74q-25 0 -86 29l-1294 612l-225 -113v-497q0 -31 -31 -31h-31q-31 0 -31 31
v1425q0 31 31 31h31q31 0 31 -31v-835l1490 837q47 29 66 29h63q20 0 25.5 -18.5t-16.5 -32.5l-1309 -740l1372 -647q14 -6 11 -27.5t-23 -21.5z" />
    <glyph glyph-name="kcommaaccent" unicode="&#x137;" horiz-adv-x="1906" 
d="M860 -307h96q31 0 31 -31v-184q0 -68 -4 -108t-27.5 -100.5t-70.5 -113.5q-18 -20 -41 0l-35 33q-27 25 -8 43q55 53 69.5 102.5t14.5 130.5l16 21h-41q-31 0 -31 31v145q0 31 31 31zM1739 0h-76q-41 0 -98 27l-1037 450l-292 -100v-346q0 -31 -31 -31h-31q-31 0 -31 31
v1425q0 31 31 31h31q31 0 31 -31v-981l1269 467q53 20 82 21h78q20 0 25.5 -22.5t-17.5 -31.5l-1018 -393l1096 -465q14 -6 11 -28.5t-23 -22.5z" />
    <glyph glyph-name="Lacute" unicode="&#x139;" horiz-adv-x="1744" 
d="M236 92h1374q31 0 30 -31v-30q0 -31 -30 -31h-1436q-31 0 -31 31v1425q0 31 31 31h31q31 0 31 -31v-1364zM342 2163h59q39 0 21 -37l-178 -379q-20 -37 -43 -37h-35q-37 0 -21 37l154 379q12 37 43 37z" />
    <glyph glyph-name="lacute" unicode="&#x13a;" horiz-adv-x="419" 
d="M164 31v1425q0 31 31 31h30q31 0 31 -31v-1425q0 -31 -31 -31h-30q-31 0 -31 31zM360 2163h60q39 0 20 -37l-178 -379q-20 -37 -43 -37h-35q-36 0 -20 37l153 379q12 37 43 37z" />
    <glyph glyph-name="Lcommaaccent" unicode="&#x13b;" horiz-adv-x="1744" 
d="M846 -307h96q31 0 31 -31v-184q0 -68 -4 -108t-27.5 -100.5t-71.5 -113.5q-18 -20 -41 0l-34 33q-25 25 -9 43q55 53 69.5 102.5t14.5 130.5l17 21h-41q-31 0 -31 31v145q0 31 31 31zM236 92h1374q31 0 30 -31v-30q0 -31 -30 -31h-1436q-31 0 -31 31v1425q0 31 31 31h31
q31 0 31 -31v-1364z" />
    <glyph glyph-name="lcommaaccent" unicode="&#x13c;" horiz-adv-x="419" 
d="M176 -307h96q31 0 31 -31v-184q0 -68 -4 -108t-27.5 -100.5t-70.5 -113.5q-18 -20 -41 0l-35 33q-27 25 -8 43q55 53 69.5 102.5t14.5 130.5l16 21h-41q-31 0 -31 31v145q0 31 31 31zM164 31v1425q0 31 31 31h30q31 0 31 -31v-1425q0 -31 -31 -31h-30q-31 0 -31 31z" />
    <glyph glyph-name="Lcaron" unicode="&#x13d;" horiz-adv-x="1744" 
d="M475 1487h96q31 0 31 -31v-184q0 -68 -4 -107t-27.5 -99t-70.5 -114q-18 -20 -41 0l-35 31q-27 25 -8 43q55 53 69.5 102.5t14.5 131.5l16 20h-41q-31 0 -31 31v145q0 31 31 31zM236 92h1374q31 0 30 -31v-30q0 -31 -30 -31h-1436q-31 0 -31 31v1425q0 31 31 31h31
q31 0 31 -31v-1364z" />
    <glyph glyph-name="lcaron" unicode="&#x13e;" horiz-adv-x="708" 
d="M420 1487h96q31 0 31 -31v-184q0 -68 -4 -107t-27.5 -99t-71.5 -114q-18 -20 -41 0l-34 31q-25 25 -9 43q55 53 69.5 102.5t14.5 131.5l17 20h-41q-31 0 -31 31v145q0 31 31 31zM164 31v1425q0 31 31 31h30q31 0 31 -31v-1425q0 -31 -31 -31h-30q-31 0 -31 31z" />
    <glyph glyph-name="Ldot" unicode="&#x13f;" horiz-adv-x="1744" 
d="M559 848v84q0 31 31 31h61q31 0 31 -31v-84q0 -31 -31 -31h-61q-31 0 -31 31zM236 92h1374q31 0 30 -31v-30q0 -31 -30 -31h-1436q-31 0 -31 31v1425q0 31 31 31h31q31 0 31 -31v-1364z" />
    <glyph glyph-name="ldot" unicode="&#x140;" horiz-adv-x="649" 
d="M426 850v84q0 31 31 31h59q31 0 31 -31v-84q0 -31 -31 -31h-59q-31 0 -31 31zM164 31v1425q0 31 31 31h30q31 0 31 -31v-1425q0 -31 -31 -31h-30q-31 0 -31 31z" />
    <glyph glyph-name="Lslash" unicode="&#x141;" horiz-adv-x="1236" 
d="M367 92h1374q31 0 31 -31v-30q0 -31 -31 -31h-1436q-31 0 -31 31v391l-96 -125q-27 -35 -47 -35h-55q-18 0 -25.5 10.5t4.5 26.5l219 285v872q0 31 31 31h31q31 0 31 -31v-751l172 223q27 35 47 35h55q18 0 24.5 -10.5t-6.5 -26.5l-292 -383v-451z" />
    <glyph glyph-name="lslash" unicode="&#x142;" horiz-adv-x="720" 
d="M475 963h55q18 -1 24 -11t-5 -26l-143 -187v-708q0 -31 -31 -31h-31q-31 0 -31 31v587l-20 -26q-25 -35 -47 -35h-56q-18 0 -24 10t4 27l143 186v676q0 31 31 31h31q31 0 31 -31v-557l22 29q29 35 47 35z" />
    <glyph glyph-name="Nacute" unicode="&#x143;" horiz-adv-x="2152" 
d="M1937 1487h31q31 0 31 -31v-1425q0 -31 -31 -31h-96q-10 0 -37 23l-1589 1374v-1366q0 -31 -31 -31h-31q-31 0 -30 31v1425q0 31 30 31h99q10 0 36 -23l1588 -1374v1366q-1 31 30 31zM1227 2163h59q39 0 21 -37l-179 -379q-20 -37 -43 -37h-34q-37 0 -21 37l154 379
q12 37 43 37z" />
    <glyph glyph-name="nacute" unicode="&#x144;" horiz-adv-x="1867" 
d="M477 963h905q139 0 246 -115t107 -252v-565q0 -31 -31 -31h-31q-31 0 -31 31v565q0 109 -69.5 191.5t-179.5 82.5h-904q-86 0 -168.5 -59t-84.5 -125v-655q0 -31 -31 -31h-31q-31 0 -31 31v901q0 31 31 31h31q31 0 31 -31v-55q120 86 241 86zM1141 1638q39 0 20 -36
l-178 -379q-20 -37 -43 -37h-35q-36 0 -20 37l153 379q12 37 43 36h60z" />
    <glyph glyph-name="Ncommaaccent" unicode="&#x145;" horiz-adv-x="2152" 
d="M1042 -307h97q31 0 30 -31v-184q0 -68 -4 -108t-27.5 -100.5t-70.5 -113.5q-18 -20 -41 0l-35 33q-25 25 -8 43q55 53 69.5 102.5t14.5 130.5l16 21h-41q-31 0 -30 31v145q-1 31 30 31zM1937 1487h31q31 0 31 -31v-1425q0 -31 -31 -31h-96q-10 0 -37 23l-1589 1374v-1366
q0 -31 -31 -31h-31q-31 0 -30 31v1425q0 31 30 31h99q10 0 36 -23l1588 -1374v1366q-1 31 30 31z" />
    <glyph glyph-name="ncommaaccent" unicode="&#x146;" horiz-adv-x="1867" 
d="M897 -307h96q31 0 31 -31v-184q0 -68 -4 -108t-27.5 -100.5t-70.5 -113.5q-18 -20 -41 0l-35 33q-27 25 -8 43q55 53 69.5 102.5t14.5 130.5l16 21h-41q-31 0 -31 31v145q0 31 31 31zM477 963h905q139 0 246 -115t107 -252v-565q0 -31 -31 -31h-31q-31 0 -31 31v565
q0 109 -69.5 191.5t-179.5 82.5h-904q-86 0 -168.5 -59t-84.5 -125v-655q0 -31 -31 -31h-31q-31 0 -31 31v901q0 31 31 31h31q31 0 31 -31v-55q120 86 241 86z" />
    <glyph glyph-name="Ncaron" unicode="&#x147;" horiz-adv-x="2152" 
d="M1937 1487h31q31 0 31 -31v-1425q0 -31 -31 -31h-96q-10 0 -37 23l-1589 1374v-1366q0 -31 -31 -31h-31q-31 0 -30 31v1425q0 31 30 31h99q10 0 36 -23l1588 -1374v1366q-1 31 30 31zM741 2163h58q18 0 47 -39l233 -299l232 299q29 39 47 39h57q16 0 21.5 -12.5
t-4.5 -26.5l-291 -367q-23 -33 -49 -33h-29q-24 0 -47 33l-291 367q-10 14 -5 26.5t21 12.5z" />
    <glyph glyph-name="ncaron" unicode="&#x148;" horiz-adv-x="1867" 
d="M477 963h905q139 0 246 -115t107 -252v-565q0 -31 -31 -31h-31q-31 0 -31 31v565q0 109 -69.5 191.5t-179.5 82.5h-904q-86 0 -168.5 -59t-84.5 -125v-655q0 -31 -31 -31h-31q-31 0 -31 31v901q0 31 31 31h31q31 0 31 -31v-55q120 86 241 86zM594 1638h57q18 0 47 -39
l234 -299l231 299q29 39 47 39h58q16 0 21 -12t-5 -27l-291 -366q-23 -33 -49 -33h-29q-24 0 -47 33l-290 366q-10 14 -5 26.5t21 12.5z" />
    <glyph glyph-name="Eng" unicode="&#x14a;" horiz-adv-x="2131" 
d="M1567 -422h-471q-115 0 -250 84q-23 23 0 45l18 31q23 23 45 4q86 -72 187 -72h477q113 0 205 89t112 227l-20 -2l-1634 1413v-1366q0 -31 -31 -31h-31q-31 0 -31 31v1425q0 31 31 31h98q10 0 37 -23l1587 -1370v1362q0 31 31 31h31q31 0 31 -31v-1397l-2 -43l26 -22
l-28 -2q-23 -174 -144 -294t-274 -120z" />
    <glyph glyph-name="eng" unicode="&#x14b;" horiz-adv-x="1878" 
d="M477 963h905q139 0 246 -115t107 -252v-565q0 -23 -19 -29q-35 -174 -154.5 -289.5t-256.5 -101.5q-31 2 -25 35l29 37q10 27 37 24q123 -2 206.5 118t83.5 292v438h6v41q0 109 -69.5 191.5t-179.5 82.5h-904q-86 0 -168.5 -59t-84.5 -125v-655q0 -31 -31 -31h-31
q-31 0 -31 31v901q0 31 31 31h31q31 0 31 -31v-55q120 86 241 86z" />
    <glyph glyph-name="Omacron" unicode="&#x14c;" horiz-adv-x="2060" 
d="M553 66h954q141 0 240 115q98 116 98 286v549q0 172 -98 287t-240 114h-954q-143 0 -241 -114q-97 -115 -97 -287v-549q0 -172 98 -287q99 -114 240 -114zM553 1509h954q176 0 303 -143t127 -346v-557q0 -203 -127 -346t-303 -144h-954q-176 -1 -303 143t-127 347v557
q0 203 127 346t303 143zM1335 1919h-663q-31 0 -31 31v30q0 31 31 31h663q31 0 31 -31v-30q0 -31 -31 -31z" />
    <glyph glyph-name="omacron" unicode="&#x14d;" horiz-adv-x="1857" 
d="M1653 391v182q0 125 -79 214t-196 90h-897q-121 1 -199 -89t-77 -215v-182q0 -125 78 -213t198 -88h897q117 0 196 88t79 213zM479 969h899q150 0 258 -120t109 -276v-182q0 -157 -109 -275t-258 -118h-899q-151 0 -259 119t-107 274v182q0 158 107 277t259 119z
M1262 1395h-664q-31 0 -31 30v31q0 31 31 31h664q31 0 30 -31v-31q1 -30 -30 -30z" />
    <glyph glyph-name="Ohungarumlaut" unicode="&#x150;" horiz-adv-x="2060" 
d="M553 66h954q141 0 240 115q98 116 98 286v549q0 172 -98 287t-240 114h-954q-143 0 -241 -114q-97 -115 -97 -287v-549q0 -172 98 -287q99 -114 240 -114zM553 1509h954q176 0 303 -143t127 -346v-557q0 -203 -127 -346t-303 -144h-954q-176 -1 -303 143t-127 347v557
q0 203 127 346t303 143zM1307 2163h59q39 0 20 -37l-178 -379q-20 -37 -43 -37h-35q-36 0 -20 37l154 379q12 37 43 37zM973 2163h59q39 0 21 -37l-179 -379q-20 -37 -43 -37h-34q-37 0 -21 37l154 379q12 37 43 37z" />
    <glyph glyph-name="ohungarumlaut" unicode="&#x151;" horiz-adv-x="1857" 
d="M1653 391v182q0 125 -79 214t-196 90h-897q-121 1 -199 -89t-77 -215v-182q0 -125 78 -213t198 -88h897q117 0 196 88t79 213zM479 969h899q150 0 258 -120t109 -276v-182q0 -157 -109 -275t-258 -118h-899q-151 0 -259 119t-107 274v182q0 158 107 277t259 119z
M1292 1638q39 0 21 -36l-178 -379q-20 -37 -43 -37h-35q-37 0 -21 37l154 379q12 37 43 36h59zM958 1638q39 0 21 -36l-178 -379q-20 -37 -43 -37h-35q-37 0 -21 37l154 379q12 37 43 36h59z" />
    <glyph glyph-name="OE" unicode="&#x152;" horiz-adv-x="3639" 
d="M1845 467v549q0 172 -98 286.5t-240 114.5h-954q-143 0 -240.5 -114.5t-97.5 -286.5v-549q0 -172 98.5 -286.5t239.5 -114.5h954q141 0 239.5 115.5t98.5 285.5zM1960 1395v-598h1446q31 0 31 -31v-31q0 -31 -31 -30h-1446v-613h1579q31 0 31 -31v-30q0 -31 -31 -31
h-1641q-31 0 -30 31v166q-59 -102 -154.5 -163t-206.5 -61h-954q-176 0 -303 143.5t-127 346.5v557q0 203 127 346t303 143h954q111 0 206 -60t155 -163v170q0 31 30 31h1641q31 0 31 -31v-31q0 -31 -31 -30h-1579z" />
    <glyph glyph-name="oe" unicode="&#x153;" horiz-adv-x="3356" 
d="M1749 565h1425v27q0 123 -82.5 204t-173.5 81h-897q-106 0 -189 -85t-83 -200v-27zM1653 391v182q0 125 -79 214.5t-196 89.5h-897q-121 0 -198.5 -89.5t-77.5 -214.5v-182q0 -125 77.5 -213t198.5 -88h897q117 0 196 88t79 213zM1749 461v-96q0 -111 83 -193t189 -82
h895q131 0 254 146q20 25 41 6l29 -25q23 -20 6 -43q-143 -176 -328 -176h-897q-96 0 -185 57.5t-138 149.5q-47 -92 -133 -149.5t-187 -57.5h-899q-152 0 -259 119t-107 274v182q0 158 107.5 277t258.5 119h899q100 0 186.5 -58.5t133.5 -150.5q49 92 139 150.5t184 58.5
h897q121 0 235 -106.5t114 -258.5v-82q0 -61 -62 -61h-1456z" />
    <glyph glyph-name="Racute" unicode="&#x154;" horiz-adv-x="2000" 
d="M225 745h1252q301 0 301 325t-301 325h-1252v-650zM1878 31q0 -31 -31 -31h-30q-31 0 -31 31v350q0 272 -283 272h-1278v-622q0 -31 -30 -31h-31q-31 0 -31 31v1425q0 31 31 31h1306q184 0 292 -111.5t108 -306.5q0 -260 -184 -364q193 -90 192 -332v-342zM999 1710h-34
q-37 0 -21 37l154 379q12 37 43 37h59q39 0 21 -37l-179 -379q-20 -37 -43 -37z" />
    <glyph glyph-name="racute" unicode="&#x155;" horiz-adv-x="1685" 
d="M1401 877h-932q-80 0 -161 -61.5t-83 -125.5v-659q0 -31 -30 -31h-31q-31 0 -31 31v901q0 31 31 31h31q31 0 30 -31v-49q135 86 221 86h924q115 0 223 -105q20 -25 0 -45l-20 -16q-20 -20 -39 2q-72 72 -133 72zM1038 1638q39 0 21 -36l-178 -379q-20 -37 -43 -37h-35
q-37 0 -21 37l154 379q12 37 43 36h59z" />
    <glyph glyph-name="Rcommaaccent" unicode="&#x156;" horiz-adv-x="2000" 
d="M956 -307h97q31 0 30 -31v-184q0 -68 -4 -108t-27.5 -100.5t-70.5 -113.5q-18 -20 -41 0l-35 33q-25 25 -8 43q55 53 69.5 102.5t14.5 130.5l16 21h-41q-31 0 -30 31v145q-1 31 30 31zM225 745h1252q301 0 301 325t-301 325h-1252v-650zM1878 31q0 -31 -31 -31h-30
q-31 0 -31 31v350q0 272 -283 272h-1278v-622q0 -31 -30 -31h-31q-31 0 -31 31v1425q0 31 31 31h1306q184 0 292 -111.5t108 -306.5q0 -260 -184 -364q193 -90 192 -332v-342z" />
    <glyph glyph-name="rcommaaccent" unicode="&#x157;" horiz-adv-x="1685" 
d="M145 -307h97q31 0 30 -31v-184q0 -68 -4 -108t-27.5 -100.5t-70.5 -113.5q-18 -20 -41 0l-35 33q-25 25 -8 43q55 53 69.5 102.5t14.5 130.5l16 21h-41q-31 0 -30 31v145q-1 31 30 31zM1401 877h-932q-80 0 -161 -61.5t-83 -125.5v-659q0 -31 -30 -31h-31q-31 0 -31 31
v901q0 31 31 31h31q31 0 30 -31v-49q135 86 221 86h924q115 0 223 -105q20 -25 0 -45l-20 -16q-20 -20 -39 2q-72 72 -133 72z" />
    <glyph glyph-name="Rcaron" unicode="&#x158;" horiz-adv-x="2000" 
d="M225 745h1252q301 0 301 325t-301 325h-1252v-650zM1878 31q0 -31 -31 -31h-30q-31 0 -31 31v350q0 272 -283 272h-1278v-622q0 -31 -30 -31h-31q-31 0 -31 31v1425q0 31 31 31h1306q184 0 292 -111.5t108 -306.5q0 -260 -184 -364q193 -90 192 -332v-342zM655 2163h58
q18 0 47 -39l233 -299l232 299q29 39 47 39h57q16 0 21.5 -12.5t-4.5 -26.5l-291 -367q-23 -33 -49 -33h-29q-24 0 -47 33l-291 367q-10 14 -5 26.5t21 12.5z" />
    <glyph glyph-name="rcaron" unicode="&#x159;" horiz-adv-x="1685" 
d="M1401 877h-932q-80 0 -161 -61.5t-83 -125.5v-659q0 -31 -30 -31h-31q-31 0 -31 31v901q0 31 31 31h31q31 0 30 -31v-49q135 86 221 86h924q115 0 223 -105q20 -25 0 -45l-20 -16q-20 -20 -39 2q-72 72 -133 72zM494 1638h57q18 0 47 -39l233 -299l232 299q29 39 47 39
h57q16 0 21.5 -12t-4.5 -27l-291 -366q-23 -33 -49 -33h-29q-24 0 -47 33l-291 366q-10 14 -5 26.5t22 12.5z" />
    <glyph glyph-name="Sacute" unicode="&#x15a;" horiz-adv-x="1998" 
d="M524 1509h926q168 0 294 -121.5t126 -308.5v-32q0 -31 -31 -31h-33q-31 0 -30 31v32q0 156 -95.5 247t-230.5 91h-926q-139 0 -225 -78.5t-86 -229.5t91 -222.5t235 -75.5l925 -20q180 -4 301 -105.5t121 -289t-127 -304.5t-303 -117h-913q-172 0 -301 116t-129 296v55
q0 31 30 31h33q31 0 31 -31l2 -55q4 -150 100.5 -233.5t233.5 -83.5h913q143 0 240.5 87t97.5 239.5t-93 225t-235 76.5l-925 21q-186 4 -303 105.5t-117 282.5t115.5 291.5t287.5 110.5zM1149 2163h59q39 0 21 -37l-178 -379q-20 -37 -43 -37h-35q-37 0 -21 37l154 379
q12 37 43 37z" />
    <glyph glyph-name="sacute" unicode="&#x15b;" horiz-adv-x="1789" 
d="M1606 643q-31 0 -27 25q2 90 -69.5 150.5t-155.5 60.5h-901q-254 0 -254 -193q0 -78 69 -117q35 -23 627 -42t627 -42q166 -70 166 -215q0 -119 -111 -199.5t-252 -80.5h-872q-119 0 -228.5 77.5t-122.5 190.5q-4 31 31 31h41q25 0 21 -29q8 -78 83.5 -128t153.5 -50h903
q100 0 180 51t80 139t-63 123q-44 19 -203.5 24t-263.5 8q-751 22 -784 46q-174 68 -174.5 207t103 215t251.5 76h862q127 0 236.5 -86t113.5 -209q0 -33 -28 -33h-39zM1104 1638q39 0 20 -36l-178 -379q-20 -37 -43 -37h-35q-36 0 -20 37l153 379q12 37 43 36h60z" />
    <glyph glyph-name="Scedilla" unicode="&#x15e;" horiz-adv-x="1998" 
d="M1886 396.5q0 -187.5 -127 -304.5t-303 -117h-422q-25 -43 -16.5 -55t11.5 -15t28.5 -9.5t35 -7.5t45.5 -4t46 -6t36 -9q24 -5 34 -15l24 -24q22 -22 22 -94t-40.5 -111t-137.5 -39h-75q-84 0 -131.5 47.5t-49.5 124.5q0 20 19 21h65q20 0 21 -17q2 -68 100 -67h48
q29 0 43 2q32 4 32 41t-41 49t-195 29q-48 5 -60 66q-7 36 30 93h-385q-172 0 -301 116t-129 296v55q0 31 30 31h33q31 0 31 -31l2 -55q4 -150 100.5 -233.5t233.5 -83.5h913q143 0 240.5 87t97.5 239.5t-93 225t-235 76.5l-925 21q-186 4 -303 105.5t-117 282.5
t115.5 291.5t287.5 110.5h926q168 0 294 -121.5t126 -308.5v-32q0 -31 -31 -31h-33q-31 0 -30 31v32q0 156 -95.5 247t-230.5 91h-926q-139 0 -225 -78.5t-86 -229.5t91.5 -222.5t234.5 -75.5l925 -20q180 -4 301 -105.5t121 -289z" />
    <glyph glyph-name="scedilla" unicode="&#x15f;" horiz-adv-x="1789" 
d="M1606 643q-31 0 -27 25q2 90 -69.5 150.5t-155.5 60.5h-901q-254 0 -254 -193q0 -78 69 -117q35 -23 626.5 -42.5t627.5 -41.5q166 -70 166 -215q0 -119 -111 -199.5t-252 -80.5h-387q-22 -31 -23.5 -45.5t-2.5 -21.5t6.5 -12t9.5 -8q6 -9 28 -9l33 -5q8 -2 44 -5
t46.5 -6t36 -9t34.5 -15.5t27.5 -27.5t18.5 -90q0 -150 -178 -150h-76q-84 0 -131 47.5t-49 124.5q0 20 18 21h66q20 0 20 -17q2 -68 101 -67h48q28 0 42 2q33 5 33 41.5t-41 48.5t-195 29q-56 6 -59 74q-2 42 39 100h-381q-119 0 -228.5 77.5t-122.5 190.5q-4 31 31 31h41
q25 0 21 -29q8 -78 83.5 -128t153.5 -50h903q100 0 180 51t80 139t-63 123q-44 19 -203.5 24t-263.5 8q-751 22 -784 46q-174 68 -174.5 207t103 215t251.5 76h862q127 0 236.5 -86t113.5 -209q0 -33 -28 -33h-39z" />
    <glyph glyph-name="Scaron" unicode="&#x160;" horiz-adv-x="1998" 
d="M524 1509h926q168 0 294 -121.5t126 -308.5v-32q0 -31 -31 -31h-33q-31 0 -30 31v32q0 156 -95.5 247t-230.5 91h-926q-139 0 -225 -78.5t-86 -229.5t91 -222.5t235 -75.5l925 -20q180 -4 301 -105.5t121 -289t-127 -304.5t-303 -117h-913q-172 0 -301 116t-129 296v55
q0 31 30 31h33q31 0 31 -31l2 -55q4 -150 100.5 -233.5t233.5 -83.5h913q143 0 240.5 87t97.5 239.5t-93 225t-235 76.5l-925 21q-186 4 -303 105.5t-117 282.5t115.5 291.5t287.5 110.5zM664 2163h57q18 0 47 -39l233 -299l232 299q29 39 47 39h57q16 0 21.5 -12.5
t-4.5 -26.5l-291 -367q-23 -33 -49 -33h-29q-24 0 -47 33l-291 367q-10 14 -5 26.5t22 12.5z" />
    <glyph glyph-name="scaron" unicode="&#x161;" horiz-adv-x="1789" 
d="M1606 643q-31 0 -27 25q2 90 -69.5 150.5t-155.5 60.5h-901q-254 0 -254 -193q0 -78 69 -117q35 -23 627 -42t627 -42q166 -70 166 -215q0 -119 -111 -199.5t-252 -80.5h-872q-119 0 -228.5 77.5t-122.5 190.5q-4 31 31 31h41q25 0 21 -29q8 -78 83.5 -128t153.5 -50h903
q100 0 180 51t80 139t-63 123q-44 19 -203.5 24t-263.5 8q-751 22 -784 46q-174 68 -174.5 207t103 215t251.5 76h862q127 0 236.5 -86t113.5 -209q0 -33 -28 -33h-39zM559 1638h57q18 0 48 -39l233 -299l231 299q29 39 48 39h57q16 0 21.5 -12t-5.5 -27l-291 -366
q-23 -33 -49 -33h-28q-24 0 -47 33l-291 366q-10 14 -5 26.5t21 12.5z" />
    <glyph glyph-name="Tcedilla" unicode="&#x162;" horiz-adv-x="1984" 
d="M893 -98q0 52 59 110q-4 8 -4 19v1364h-815q-31 0 -31 30v31q0 31 31 31h1718q31 0 31 -31v-31q0 -31 -31 -30h-811v-1364q0 -8 -4 -17q12 -6 4 -18t-15 -25.5t-11 -22.5t-3 -17.5t2 -13.5t8 -9t10.5 -9t26.5 -5l29 -5q8 -2 44 -5t46.5 -6t36 -9t34.5 -15.5t27.5 -27.5
t18.5 -90q0 -150 -178 -150h-76q-84 0 -131 47.5t-49 124.5q0 20 19 21h65q20 0 21 -17q2 -68 100 -67h48q28 0 42 2q33 5 33 41.5t-41 48.5t-195 29q-59 6 -59 86z" />
    <glyph glyph-name="tcedilla" unicode="&#x163;" horiz-adv-x="1441" 
d="M1022 -264q0 -150 -178 -150h-76q-84 0 -131 47.5t-49 124.5q0 20 18 21h66q20 0 20 -17q2 -68 101 -67h47q28 0 42 2q32 4 32.5 41t-40 49t-194.5 29q-50 10 -61 57t45 123h-183q-106 2 -188 73.5t-82 204.5v596h-109q-31 0 -30 31v29q0 33 30 33h109v213q0 31 31 30h30
q31 0 31 -30v-213h1000q33 0 32 -31v-31q0 -31 -30 -31h-1002v-612q0 -80 50 -121t102 -41h860q33 1 33 -26l2 -41q0 -33 -27 -33h-555q-32 -45 -30.5 -59.5t1.5 -19.5t7.5 -9t12.5 -9t26 -5l30 -5q8 -2 44 -5t46 -6t36 -9t35 -15.5t27.5 -27.5t18.5 -90z" />
    <glyph glyph-name="Tcaron" unicode="&#x164;" horiz-adv-x="1984" 
d="M133 1487h1718q31 0 31 -31v-31q0 -31 -31 -30h-811v-1364q0 -31 -30 -31h-31q-31 0 -31 31v1364h-815q-31 0 -31 30v31q0 31 31 31zM655 2163h58q18 0 47 -39l233 -299l232 299q29 39 47 39h57q16 0 21.5 -12.5t-4.5 -26.5l-291 -367q-23 -33 -49 -33h-29q-24 0 -47 33
l-291 367q-10 14 -5 26.5t21 12.5z" />
    <glyph glyph-name="tcaron" unicode="&#x165;" horiz-adv-x="1441" 
d="M1323 -4h-842q-106 2 -188 73.5t-82 204.5v596h-109q-31 0 -30 31v29q0 33 30 33h109v213q0 31 31 30h30q31 0 31 -30v-213h1000q33 0 32 -31v-31q0 -31 -30 -31h-1002v-612q0 -80 50 -121t102 -41h860q33 1 33 -26l2 -41q0 -33 -27 -33zM446 1397q-31 0 -30 30v146
q0 31 30 31h97q31 0 30 -31v-184q0 -68 -4 -107t-27.5 -99.5t-70.5 -113.5q-18 -20 -41 0l-35 31q-27 27 -8 43q55 53 69.5 102t14.5 131l16 21h-41z" />
    <glyph glyph-name="Tbar" unicode="&#x166;" horiz-adv-x="1984" 
d="M133 1487h1718q31 0 31 -31v-31q0 -31 -31 -30h-811v-432h285q31 0 31 -31v-31q0 -31 -31 -31h-285v-839q0 -31 -30 -31h-31q-31 0 -31 31v839h-286q-31 0 -31 31v31q0 31 31 31h286v432h-815q-31 0 -31 30v31q0 31 31 31z" />
    <glyph glyph-name="tbar" unicode="&#x167;" horiz-adv-x="1441" 
d="M1323 -4h-842q-106 2 -188 73.5t-82 204.5v324h-109q-31 0 -30 31v30q0 31 30 31h109v180h-109q-31 0 -30 31v29q0 33 30 33h109v213q0 31 31 30h30q31 0 31 -30v-213h1000q33 0 32 -31v-31q0 -31 -30 -31h-1002v-180h154q31 0 30 -31v-30q0 -31 -30 -31h-154v-340
q0 -80 50 -121t102 -41h860q33 1 33 -26l2 -41q0 -33 -27 -33z" />
    <glyph glyph-name="Utilde" unicode="&#x168;" horiz-adv-x="2011" 
d="M1827 1487h31q31 0 30 -31v-1010q0 -200 -125 -330t-321 -130h-873q-197 0 -321 131t-125 329v1010q0 31 31 31h30q31 0 31 -31v-1020q0 -166 97 -262t257 -96h873q160 0 257 96t97 262v1020q0 31 31 31zM1182 1841q-74 1 -178 67t-149 64q-46 -2 -155 -74
q-20 -14 -34 17l-19 35q-12 23 21 45q100 73 174 73t178 -65t149 -63t154 73q21 15 35 -16l18 -35q12 -23 -20 -45q-100 -76 -174 -76z" />
    <glyph glyph-name="utilde" unicode="&#x169;" horiz-adv-x="1863" 
d="M1720 932v-901q0 -31 -30 -31h-31q-31 0 -31 31v53q-119 -86 -242 -86h-897q-143 0 -249 110t-107 250v574q0 31 31 31h31q31 0 30 -31v-574q0 -112 70 -190t184 -78h897q86 0 168 60t84 124v658q0 31 31 31h31q30 0 30 -31zM1102 1317q-74 0 -177 66q-103 67 -149 65
t-155 -74q-20 -14 -35 17l-19 34q-12 23 21 45q100 74 174 74t178 -65t150 -63t153 73q21 15 35 -16l18 -35q12 -23 -20 -45q-100 -76 -174 -76z" />
    <glyph glyph-name="Umacron" unicode="&#x16a;" horiz-adv-x="2011" 
d="M1827 1487h31q31 0 30 -31v-1010q0 -200 -125 -330t-321 -130h-873q-197 0 -321 131t-125 329v1010q0 31 31 31h30q31 0 31 -31v-1020q0 -166 97 -262t257 -96h873q160 0 257 96t97 262v1020q0 31 31 31zM1346 1919h-664q-31 0 -31 31v30q0 31 31 31h664q31 0 30 -31v-30
q1 -31 -30 -31z" />
    <glyph glyph-name="umacron" unicode="&#x16b;" horiz-adv-x="1863" 
d="M1720 932v-901q0 -31 -30 -31h-31q-31 0 -31 31v53q-119 -86 -242 -86h-897q-143 0 -249 110t-107 250v574q0 31 31 31h31q31 0 30 -31v-574q0 -112 70 -190t184 -78h897q86 0 168 60t84 124v658q0 31 31 31h31q30 0 30 -31zM1266 1395h-664q-31 0 -31 30v31q0 31 31 31
h664q31 0 30 -31v-31q1 -30 -30 -30z" />
    <glyph glyph-name="Ubreve" unicode="&#x16c;" horiz-adv-x="2011" 
d="M1827 1487h31q31 0 30 -31v-1010q0 -200 -125 -330t-321 -130h-873q-197 0 -321 131t-125 329v1010q0 31 31 31h30q31 0 31 -31v-1020q0 -166 97 -262t257 -96h873q160 0 257 96t97 262v1020q0 31 31 31zM1266 2163h41q31 0 30 -31q-8 -141 -84 -214t-206 -73h-70
q-131 0 -207 74t-84 213q0 31 31 31h41q31 0 30 -31q8 -94 52 -139t133 -45h78q92 0 134 45t50 139q0 31 31 31z" />
    <glyph glyph-name="ubreve" unicode="&#x16d;" horiz-adv-x="1863" 
d="M1720 932v-901q0 -31 -30 -31h-31q-31 0 -31 31v53q-119 -86 -242 -86h-897q-143 0 -249 110t-107 250v574q0 31 31 31h31q31 0 30 -31v-574q0 -112 70 -190t184 -78h897q86 0 168 60t84 124v658q0 31 31 31h31q30 0 30 -31zM1186 1638h41q31 0 30 -30q-7 -141 -83 -214
t-207 -73h-70q-131 0 -207 74t-84 213q0 31 31 30h41q31 0 31 -30q8 -94 51 -140t133 -45h78q92 0 134 45t50 140q0 30 31 30z" />
    <glyph glyph-name="Uring" unicode="&#x16e;" horiz-adv-x="2011" 
d="M1827 1487h31q31 0 30 -31v-1010q0 -200 -125 -330t-321 -130h-873q-197 0 -321 131t-125 329v1010q0 31 31 31h30q31 0 31 -31v-1020q0 -166 97 -262t257 -96h873q160 0 257 96t97 262v1020q0 31 31 31zM1124 1954v20q0 98 -100 99h-23q-98 0 -98 -99v-20q0 -98 98 -99
h23q100 1 100 99zM999 2165h27q82 -1 135 -55t53 -136v-22q0 -84 -52 -136t-136 -53h-27q-82 1 -135 53t-53 136v22q0 82 53 136t135 55z" />
    <glyph glyph-name="uring" unicode="&#x16f;" horiz-adv-x="1863" 
d="M1720 932v-901q0 -31 -30 -31h-31q-31 0 -31 31v53q-119 -86 -242 -86h-897q-143 0 -249 110t-107 250v574q0 31 31 31h31q31 0 30 -31v-574q0 -112 70 -190t184 -78h897q86 0 168 60t84 124v658q0 31 31 31h31q30 0 30 -31zM1044 1430v20q0 98 -100 98h-22
q-98 0 -99 -98v-20q0 -98 99 -99h22q100 1 100 99zM920 1640h26q82 0 135 -54t54 -136v-23q1 -84 -53 -136t-136 -52h-26q-84 0 -137 52q-52 52 -52 136v23q0 82 53 136q54 54 136 54z" />
    <glyph glyph-name="Uhungarumlaut" unicode="&#x170;" horiz-adv-x="2011" 
d="M1827 1487h31q31 0 30 -31v-1010q0 -200 -125 -330t-321 -130h-873q-197 0 -321 131t-125 329v1010q0 31 31 31h30q31 0 31 -31v-1020q0 -166 97 -262t257 -96h873q160 0 257 96t97 262v1020q0 31 31 31zM1315 2163h59q39 0 21 -37l-178 -379q-20 -37 -43 -37h-35
q-37 0 -21 37l154 379q12 37 43 37zM981 2163h59q39 0 21 -37l-178 -379q-20 -37 -43 -37h-35q-37 0 -21 37l154 379q12 37 43 37z" />
    <glyph glyph-name="uhungarumlaut" unicode="&#x171;" horiz-adv-x="1863" 
d="M1720 932v-901q0 -31 -30 -31h-31q-31 0 -31 31v53q-119 -86 -242 -86h-897q-143 0 -249 110t-107 250v574q0 31 31 31h31q31 0 30 -31v-574q0 -112 70 -190t184 -78h897q86 0 168 60t84 124v658q0 31 31 31h31q30 0 30 -31zM1294 1638q39 0 21 -36l-178 -379
q-20 -37 -43 -37h-35q-37 0 -21 37l154 379q12 37 43 36h59zM961 1638q39 0 20 -36l-178 -379q-20 -37 -43 -37h-35q-36 0 -20 37l153 379q12 37 43 36h60z" />
    <glyph glyph-name="Uogonek" unicode="&#x172;" horiz-adv-x="2011" 
d="M1368 -233q0 -43 33 -43h274q20 0 21 -19v-70q0 -20 -21 -20h-245q-178 0 -179 154q0 93 34 119q35 26 139 39t124 27t17 48q-61 -16 -123 -16h-873q-197 0 -321 131t-125 329v1010q0 31 31 31h30q31 0 31 -31v-1020q0 -166 97 -262t257 -96h873q160 0 257 96t97 262
v1020q0 31 31 31h31q31 0 30 -31v-1010q0 -136 -61 -244t-168 -165q8 -4 8 -10q18 -86 -14 -136q-33 -49 -105 -55q-30 -4 -64 -8t-56 -7t-35 -3q-25 -2 -25 -43v-8z" />
    <glyph glyph-name="uogonek" unicode="&#x173;" horiz-adv-x="1863" 
d="M1425 -233q0 -43 33 -43h275q20 0 20 -19v-70q0 -20 -20 -20h-246q-178 0 -178 154q0 94 36 122t131 36q94 8 105 14q13 6 23 11t16 24t0 40t8 25v43q-119 -86 -242 -86h-897q-143 0 -249 110t-107 250v574q0 31 31 31h31q31 0 30 -31v-574q0 -112 70 -190t184 -78h897
q86 0 168 60t84 124v658q0 31 31 31h31q31 0 30 -31v-897q4 -4 4 -8q18 -86 -14 -136q-33 -49 -104 -55q-29 -4 -64 -8q-34 -4 -56 -7t-36 -3q-25 -2 -25 -43v-8z" />
    <glyph glyph-name="Wcircumflex" unicode="&#x174;" horiz-adv-x="3307" 
d="M3142 1487h61q37 0 16 -37l-727 -1415q-23 -35 -38 -35h-52q-14 0 -18 7t-11 15t-10 13l-710 1323l-709 -1323q-23 -35 -39 -35h-51q-14 0 -18 7t-12 15t-9 13l-727 1415q-20 37 16 37h62q25 0 45 -37l666 -1317l696 1297q20 37 45 36h72q25 0 45 -36l694 -1297l668 1317
q20 37 45 37zM1636 2163h29q27 0 49 -33l291 -367q10 -14 5 -26t-21 -13h-58q-16 0 -47 39l-231 299l-234 -299q-31 -39 -47 -39h-57q-15 0 -21 12t4 27l291 367q23 33 47 33z" />
    <glyph glyph-name="wcircumflex" unicode="&#x175;" horiz-adv-x="2938" 
d="M2781 963h66q37 0 12 -35l-643 -893q-27 -35 -45 -35h-35q-23 0 -45 35l-621 839l-618 -839q-27 -35 -45 -35h-37q-18 0 -45 35l-643 893q-25 35 12 35h64q25 0 49 -35l579 -809l592 809q20 35 49 35h86q20 0 50 -35l589 -809l580 809q24 35 49 35zM1475 1638
q27 0 49 -32l291 -367q10 -15 5 -27t-22 -12h-57q-16 0 -47 39l-232 299l-233 -299q-31 -39 -47 -39h-58q-16 0 -21 12t5 27l291 367q23 33 47 32h29z" />
    <glyph glyph-name="Ycircumflex" unicode="&#x176;" 
d="M1806 1487h66q20 0 25 -11t-11 -26l-860 -817v-602q0 -31 -31 -31h-30q-31 0 -31 31v602l-858 817q-16 14 -13 26q4 11 27 11h64q23 0 39 -14l786 -742l788 742q16 14 39 14zM967 2163h28q27 0 49 -33l291 -367q10 -14 5 -26t-21 -13h-57q-16 0 -48 39l-231 299
l-233 -299q-31 -39 -48 -39h-57q-16 0 -21 12t5 27l291 367q23 33 47 33z" />
    <glyph glyph-name="ycircumflex" unicode="&#x177;" horiz-adv-x="2115" 
d="M1942 963h75q23 -1 27 -11t-14 -26l-1473 -1323q-14 -12 -37 -13h-69q-23 0 -26 10t13 27l516 467l-868 832q-18 16 -14 26t26 11h78q23 0 37 -13l817 -788l875 788q14 13 37 13zM778 1200h-57q-16 0 -22 12q-5 12 6 27l290 367q23 33 47 32h29q27 0 49 -32l291 -367
q10 -15 5 -27t-21 -12h-58q-16 0 -47 39l-231 299l-234 -299q-31 -39 -47 -39z" />
    <glyph glyph-name="Ydieresis" unicode="&#x178;" 
d="M1806 1487h66q20 0 25 -11t-11 -26l-860 -817v-602q0 -31 -31 -31h-30q-31 0 -31 31v602l-858 817q-16 14 -13 26q4 11 27 11h64q23 0 39 -14l786 -742l788 742q16 14 39 14zM1241 1896v84q0 31 31 31h59q31 0 31 -31v-84q0 -31 -31 -30h-59q-31 -1 -31 30zM602 1896v84
q0 31 31 31h61q31 0 31 -31v-84q0 -31 -31 -30h-61q-31 -1 -31 30z" />
    <glyph glyph-name="Zacute" unicode="&#x179;" horiz-adv-x="1927" 
d="M1825 1456v-70q0 -10 -8 -20l-1584 -1274h1561q31 0 31 -31v-30q0 -31 -31 -31h-1661q-31 0 -31 31v69q0 14 9 21l1583 1274h-1561q-31 0 -31 30v31q0 31 31 31h1661q31 0 31 -31zM1114 2163h60q39 0 20 -37l-178 -379q-20 -37 -43 -37h-35q-36 0 -20 37l153 379
q12 37 43 37z" />
    <glyph glyph-name="zacute" unicode="&#x17a;" horiz-adv-x="1720" 
d="M1640 932v-49q0 -18 -10 -25l-1351 -766h1329q33 0 32 -31v-30q0 -31 -30 -31h-1499q-31 0 -31 31v41q0 25 8 28l1356 770h-1333q-31 0 -31 31v29q0 33 31 33h1497q32 0 32 -31zM1069 1638q39 0 21 -36l-179 -379q-20 -37 -43 -37h-34q-37 0 -21 37l154 379q12 37 43 36
h59z" />
    <glyph glyph-name="Zdotaccent" unicode="&#x17b;" horiz-adv-x="1927" 
d="M1825 1456v-70q0 -10 -8 -20l-1584 -1274h1561q31 0 31 -31v-30q0 -31 -31 -31h-1661q-31 0 -31 31v69q0 14 9 21l1583 1274h-1561q-31 0 -31 30v31q0 31 31 31h1661q31 0 31 -31zM891 1878v98q0 35 37 35h78q33 0 32 -35v-98q0 -35 -32 -35h-78q-37 0 -37 35z" />
    <glyph glyph-name="zdotaccent" unicode="&#x17c;" horiz-adv-x="1720" 
d="M1640 932v-49q0 -18 -10 -25l-1351 -766h1329q33 0 32 -31v-30q0 -31 -30 -31h-1499q-31 0 -31 31v41q0 25 8 28l1356 770h-1333q-31 0 -31 31v29q0 33 31 33h1497q32 0 32 -31zM786 1354v98q0 35 37 35h78q33 0 33 -35v-98q0 -35 -33 -35h-78q-37 0 -37 35z" />
    <glyph glyph-name="Zcaron" unicode="&#x17d;" horiz-adv-x="1927" 
d="M1825 1456v-70q0 -10 -8 -20l-1584 -1274h1561q31 0 31 -31v-30q0 -31 -31 -31h-1661q-31 0 -31 31v69q0 14 9 21l1583 1274h-1561q-31 0 -31 30v31q0 31 31 31h1661q31 0 31 -31zM686 2163q18 0 47 -39l234 -299l231 299q29 39 47 39h58q16 -1 21 -13t-5 -26l-291 -367
q-23 -33 -49 -33h-29q-24 0 -47 33l-291 367q-10 14 -5 26t22 13h57z" />
    <glyph glyph-name="zcaron" unicode="&#x17e;" horiz-adv-x="1720" 
d="M1640 932v-49q0 -18 -10 -25l-1351 -766h1329q33 0 32 -31v-30q0 -31 -30 -31h-1499q-31 0 -31 31v41q0 25 8 28l1356 770h-1333q-31 0 -31 31v29q0 33 31 33h1497q32 0 32 -31zM522 1638h58q18 0 47 -39l233 -299l232 299q29 39 47 39h57q16 0 22 -12t-6 -27l-290 -366
q-23 -33 -50 -33h-28q-24 0 -47 33l-291 366q-10 15 -5 27t21 12z" />
    <glyph glyph-name="florin" unicode="&#x192;" horiz-adv-x="714" 
d="M684 1456v-31q0 -31 -31 -30h-18q-103 0 -157 -75t-54 -202v-1143q0 -170 -88 -276t-238 -109q-27 2 -26 31v31q0 31 30 31h19q102 0 157 74q54 75 54 202v911h-105q-31 0 -30 31v31q0 31 30 31h105v139q0 170 88 276t237 109q27 -2 27 -31z" />
    <glyph glyph-name="Acaron" unicode="&#x1cd;" horiz-adv-x="2125" 
d="M1589 530l-522 844l-528 -844h1050zM2003 0h-66q-18 0 -39 33l-251 405h-1166l-254 -405q-2 -4 -6 -10q-4 -7 -5 -9q-6 -15 -26 -14h-67q-39 0 -23 33l904 1427q20 33 38 33h45q19 0 39 -33l902 -1427q8 -17 0 -25t-25 -8zM786 2163q18 0 48 -39l233 -299l231 299
q29 39 48 39h57q16 -1 21 -13t-5 -26l-291 -367q-23 -33 -49 -33h-28q-24 0 -47 33l-291 367q-10 14 -5 26t21 13h57z" />
    <glyph glyph-name="acaron" unicode="&#x1ce;" horiz-adv-x="1800" 
d="M1673 0h-57q-33 0 -33 49v82q-129 -133 -256 -133h-934q-115 0 -203 82t-88 200t80 196t207 77h1188v-98h-1186q-197 0 -196 -181q0 -80 58 -132t138 -52h930q84 0 143 44t119 120v352q0 127 -60 198t-153 70h-924q-92 0 -137 -19t-86 -67q-23 -25 -45 -2l-28 21
q-20 18 -3 41q53 68 117 94t174 25h924q131 1 222 -99t91 -258v-561q0 -15 4 -32t-6 -17zM563 1638h58q18 0 47 -39l233 -299l232 299q29 39 47 39h57q16 0 21 -12t-5 -27l-290 -366q-23 -33 -50 -33h-28q-24 0 -47 33l-291 366q-10 15 -5 27t21 12z" />
    <glyph glyph-name="Icaron" unicode="&#x1cf;" horiz-adv-x="436" 
d="M172 31v1425q0 31 31 31h33q31 0 30 -31v-1425q0 -31 -30 -31h-33q-31 0 -31 31zM-63 2163q18 0 47 -39l233 -299l232 299q29 39 47 39h57q16 -1 21 -13t-5 -26l-290 -367q-23 -33 -50 -33h-28q-24 0 -47 33l-291 367q-10 14 -5 26t21 13h58z" />
    <glyph glyph-name="icaron" unicode="&#x1d0;" horiz-adv-x="419" 
d="M164 31v903q0 31 31 31h30q31 0 31 -31v-903q0 -31 -31 -31h-30q-31 0 -31 31zM-127 1638h57q18 0 47 -39l234 -299l231 299q29 39 47 39h58q16 0 21 -12t-5 -27l-291 -366q-23 -33 -49 -33h-28q-25 0 -48 33l-290 366q-10 15 -5 27t21 12z" />
    <glyph glyph-name="Ocaron" unicode="&#x1d1;" horiz-adv-x="2060" 
d="M553 66h954q141 0 240 115q98 116 98 286v549q0 172 -98 287t-240 114h-954q-143 0 -241 -114q-97 -115 -97 -287v-549q0 -172 98 -287q99 -114 240 -114zM553 1509h954q176 0 303 -143t127 -346v-557q0 -203 -127 -346t-303 -144h-954q-176 -1 -303 143t-127 347v557
q0 203 127 346t303 143zM725 2163q18 0 47 -39l234 -299l231 299q29 39 47 39h57q15 -1 21 -13t-4 -26l-291 -367q-23 -33 -49 -33h-29q-24 0 -47 33l-291 367q-10 14 -5 26t22 13h57z" />
    <glyph glyph-name="ocaron" unicode="&#x1d2;" horiz-adv-x="1857" 
d="M1653 391v182q0 125 -79 214t-196 90h-897q-121 1 -199 -89t-77 -215v-182q0 -125 78 -213t198 -88h897q117 0 196 88t79 213zM479 969h899q150 0 258 -120t109 -276v-182q0 -157 -109 -275t-258 -118h-899q-151 0 -259 119t-107 274v182q0 158 107 277t259 119z
M594 1638h57q18 0 47 -39l234 -299l231 299q29 39 47 39h58q16 0 21 -12t-5 -27l-291 -366q-23 -33 -49 -33h-29q-24 0 -47 33l-290 366q-10 14 -6 27q5 12 22 12z" />
    <glyph glyph-name="Ucaron" unicode="&#x1d3;" horiz-adv-x="2011" 
d="M1827 1487h31q31 0 30 -31v-1010q0 -200 -125 -330t-321 -130h-873q-197 0 -321 131t-125 329v1010q0 31 31 31h30q31 0 31 -31v-1020q0 -166 97 -262t257 -96h873q160 0 257 96t97 262v1020q0 31 31 31zM733 2163q18 0 47 -39l234 -299l231 299q29 39 47 39h58
q16 -1 21 -13t-5 -26l-291 -367q-23 -33 -49 -33h-29q-24 0 -47 33l-291 367q-10 14 -5 26t22 13h57z" />
    <glyph glyph-name="ucaron" unicode="&#x1d4;" horiz-adv-x="1863" 
d="M1720 932v-901q0 -31 -30 -31h-31q-31 0 -31 31v53q-119 -86 -242 -86h-897q-143 0 -249 110t-107 250v574q0 31 31 31h31q31 0 30 -31v-574q0 -112 70 -190t184 -78h897q86 0 168 60t84 124v658q0 31 31 31h31q30 0 30 -31zM596 1638h57q18 0 47 -39l234 -299l231 299
q29 39 47 39h58q16 0 21 -12t-5 -27l-291 -366q-23 -33 -49 -33h-28q-25 0 -48 33l-290 366q-10 14 -6 27q5 12 22 12z" />
    <glyph glyph-name="Gcaron" unicode="&#x1e6;" horiz-adv-x="2029" 
d="M1413 770h475q31 0 31 -31v-278q0 -199 -129 -343.5t-299 -144.5h-954q-174 0 -304.5 143.5t-130.5 340.5v565q0 197 132.5 342t302.5 145h954q164 0 294 -143t132 -330q0 -31 -31 -30h-31q-33 0 -32 30q0 152 -100.5 266.5t-231.5 114.5h-954q-137 0 -239.5 -116.5
t-102.5 -278.5v-565q0 -160 101 -275.5t241 -115.5h954q135 0 234.5 115.5t99.5 279.5v217h-412q-31 0 -31 31v30q0 31 31 31zM680 2163h57q18 0 47 -39l234 -299l231 299q29 39 47 39h58q16 0 21 -12.5t-5 -26.5l-291 -367q-23 -33 -49 -33h-29q-24 0 -47 33l-290 367
q-10 14 -5 26.5t21 12.5z" />
    <glyph glyph-name="gcaron" unicode="&#x1e7;" horiz-adv-x="1820" 
d="M481 90h860q63 0 135 37t126 94v447q2 72 -82 140t-170 66h-895q-101 0 -181 -86t-79 -190v-233q0 -103 90 -189t196 -86zM1632 963h35q31 0 31 -31v-1034q0 -115 -102 -211t-234 -97h-870q-96 0 -194 60t-148 151q-23 29 18 37l41 -4q25 2 39 -16q38 -60 108 -98
t142 -37h864q72 0 156 59t84 147v197q-127 -88 -256 -88h-867q-135 0 -256 117t-121 250v233q0 137 109 253t244 116h895q129 0 252 -99v62q-1 33 30 33zM575 1638h58q18 0 47 -39l233 -299l232 299q29 39 47 39h57q15 0 21 -12t-4 -27l-291 -366q-23 -33 -49 -33h-29
q-24 0 -47 33l-291 366q-10 15 -5 27t21 12z" />
    <glyph glyph-name="Scommaaccent" unicode="&#x218;" horiz-adv-x="1998" 
d="M965 -307h96q31 0 31 -31v-184q0 -68 -4.5 -108t-28 -100.5t-70.5 -113.5q-18 -20 -41 0l-35 33q-25 25 -8 43q55 53 69.5 102.5t14.5 130.5l17 21h-41q-31 0 -31 31v145q0 31 31 31zM524 1509h926q168 0 294 -121.5t126 -308.5v-32q0 -31 -31 -31h-33q-31 0 -30 31v32
q0 156 -95.5 247t-230.5 91h-926q-139 0 -225 -78.5t-86 -229.5t91 -222.5t235 -75.5l925 -20q180 -4 301 -105.5t121 -289.5t-127 -304.5t-303 -116.5h-913q-172 0 -301 116t-129 296v55q0 31 30 31h33q31 0 31 -31l2 -55q4 -150 100.5 -233.5t233.5 -83.5h913
q143 0 240.5 87t97.5 239t-93 225t-235 77l-925 21q-186 4 -303 105.5t-117 282.5t115.5 291.5t287.5 110.5z" />
    <glyph glyph-name="scommaaccent" unicode="&#x219;" horiz-adv-x="1789" 
d="M860 -307h96q31 0 31 -31v-184q0 -68 -4 -108t-27.5 -100.5t-70.5 -113.5q-18 -20 -41 0l-35 33q-27 25 -8 43q55 53 69.5 102.5t14.5 130.5l16 21h-41q-31 0 -31 31v145q0 31 31 31zM1606 643q-31 0 -27 25q2 90 -69.5 150.5t-155.5 60.5h-901q-254 0 -254 -193
q0 -78 69 -117q35 -23 627 -42t627 -42q166 -70 166 -215q0 -119 -111 -199.5t-252 -80.5h-872q-119 0 -228.5 77.5t-122.5 190.5q-4 31 31 31h41q25 0 21 -29q8 -78 83.5 -128t153.5 -50h903q100 0 180 51t80 139t-63 123q-44 19 -203.5 24t-263.5 8q-751 22 -784 46
q-174 68 -174.5 207t103 215t251.5 76h862q127 0 236.5 -86t113.5 -209q0 -33 -28 -33h-39z" />
    <glyph glyph-name="uni021A" unicode="&#x21a;" horiz-adv-x="1984" 
d="M958 -307h97q31 0 30 -31v-184q0 -68 -4 -108t-27.5 -100.5t-70.5 -113.5q-18 -20 -41 0l-35 33q-27 25 -8 43q55 53 69.5 102.5t14.5 130.5l16 21h-41q-31 0 -30 31v145q-1 31 30 31zM133 1487h1718q31 0 31 -31v-31q0 -31 -31 -30h-811v-1364q0 -31 -30 -31h-31
q-31 0 -31 31v1364h-815q-31 0 -31 30v31q0 31 31 31z" />
    <glyph glyph-name="uni021B" unicode="&#x21b;" horiz-adv-x="1441" 
d="M686 -307h96q31 0 31 -31v-184q0 -68 -4 -108t-27.5 -100.5t-70.5 -113.5q-18 -20 -41 0l-35 33q-25 25 -8 43q55 53 69.5 102.5t14.5 130.5l16 21h-41q-31 0 -31 31v145q0 31 31 31zM1323 -4h-842q-106 2 -188 73.5t-82 204.5v596h-109q-31 0 -30 31v29q0 33 30 33h109
v213q0 31 31 30h30q31 0 31 -30v-213h1000q33 0 32 -31v-31q0 -31 -30 -31h-1002v-612q0 -80 50 -121t102 -41h860q33 1 33 -26l2 -41q0 -33 -27 -33z" />
    <glyph glyph-name="uni0228" unicode="&#x228;" 
d="M1272 -264q0 -150 -178 -150h-76q-84 0 -131 47.5t-49 124.5q0 20 18 21h66q20 0 20 -17q2 -68 100 -67h48q28 0 42 2q32 4 32.5 41t-40.5 49t-194 29q-20 2 -40 18t-20 60.5t45 103.5l3 2h-742q-31 0 -31 31v1425q0 31 31 31h1641q31 0 30 -31v-31q0 -31 -30 -30h-1579
v-598h1445q31 0 31 -31v-31q0 -31 -31 -30h-1445v-613h1579q31 0 30 -31v-30q0 -31 -30 -31h-795q-14 -14 -24.5 -37.5t-9.5 -32t2 -13.5t8.5 -9t11 -9t25.5 -5l30 -5q8 -2 44 -5t46 -6t36 -9t35 -15.5t27.5 -27.5t18.5 -90z" />
    <glyph glyph-name="uni0229" unicode="&#x229;" horiz-adv-x="1841" 
d="M207 565h1425v27q0 123 -83 204t-171 81h-897q-109 0 -191.5 -85t-82.5 -200v-27zM1210 -264q0 -150 -178 -150h-76q-84 0 -131 47.5t-49 124.5q0 20 19 21h65q20 0 21 -17q2 -68 100 -67h48q28 0 42 2q33 5 33 41.5t-41 48.5t-195 29q-20 2 -39.5 18t-19.5 60.5
t45 103.5h-375q-137 0 -250.5 110.5t-113.5 256.5v233q0 145 113.5 258t250.5 113h897q121 0 234.5 -106.5t113.5 -258.5v-82q0 -61 -61 -61h-1456v-96q0 -111 84 -193t190 -82h893q133 0 256 146q18 25 41 6l29 -25q23 -20 6 -43q-143 -176 -330 -176h-418
q-33 -47 -31.5 -61.5t2.5 -19.5t8 -9t10.5 -9t26.5 -5l30 -5q8 -2 43.5 -5t46 -6t36.5 -9q24 -5 34 -15l24 -24q22 -22 22 -94z" />
    <glyph glyph-name="dotlessj" unicode="&#x237;" horiz-adv-x="411" 
d="M156 -106v1040q0 31 30 31h31q31 0 31 -31v-1032q0 -78 -60 -156t-147 -113q-29 -10 -39 21l-6 37q-8 27 18 37q57 20 100 64q42 44 42 102z" />
    <glyph glyph-name="circumflex" unicode="&#x2c6;" horiz-adv-x="927" 
d="M477 1638q27 0 49 -32l291 -367q10 -15 5 -27t-21 -12h-58q-16 0 -47 39l-231 299l-234 -299q-31 -39 -47 -39h-57q-16 0 -22 12q-4 13 6 27l290 367q23 33 48 32h28z" />
    <glyph glyph-name="caron" unicode="&#x2c7;" horiz-adv-x="923" 
d="M125 1638h57q18 0 47 -39l234 -299l231 299q29 39 47 39h58q16 0 21 -12t-5 -27l-291 -366q-23 -33 -49 -33h-29q-24 0 -47 33l-290 366q-10 14 -6 27q5 12 22 12z" />
    <glyph glyph-name="breve" unicode="&#x2d8;" horiz-adv-x="856" 
d="M682 1638h41q31 0 31 -30q-8 -141 -84 -214t-207 -73h-70q-131 0 -207 74t-84 213q0 31 31 30h41q31 0 31 -30q8 -94 51 -140t133 -45h78q92 0 134 45t50 140q0 30 31 30z" />
    <glyph glyph-name="dotaccent" unicode="&#x2d9;" horiz-adv-x="352" 
d="M102 1354v98q0 35 37 35h78q33 0 33 -35v-98q0 -35 -33 -35h-78q-37 0 -37 35z" />
    <glyph glyph-name="ring" unicode="&#x2da;" horiz-adv-x="608" 
d="M416 1430v20q0 98 -101 98h-22q-98 0 -98 -98v-20q0 -98 98 -99h22q101 1 101 99zM291 1640h26q81 0 135 -54t54 -136v-23q0 -84 -52 -136t-137 -52h-26q-82 0 -135 52t-54 136v23q0 82 54 136t135 54z" />
    <glyph glyph-name="ogonek" unicode="&#x2db;" horiz-adv-x="659" 
d="M193 -262q0 -43 32 -43h275q20 -1 20 -19v-69q0 -20 -20 -21h-246q-178 0 -178 154q0 94 37 122t131 37q95 8 105 14q11 5 21 10q31 15 15 75q-4 16 27 16h53q23 0 27 -16q18 -86 -15 -135t-104 -56q-29 -4 -64 -8t-57 -7t-35 -3q-25 -2 -24 -43v-8z" />
    <glyph glyph-name="tilde" unicode="&#x2dc;" horiz-adv-x="942" 
d="M641 1317q-74 0 -177 66q-104 67 -150 65t-154 -74q-20 -14 -35 17l-19 34q-12 23 21 45q100 74 174 74t178 -65q103 -65 149 -63t154 73q21 15 35 -16l19 -35q12 -23 -21 -45q-100 -76 -174 -76z" />
    <glyph glyph-name="hungarumlaut" unicode="&#x2dd;" horiz-adv-x="823" 
d="M696 1638q39 0 21 -36l-178 -379q-20 -37 -43 -37h-35q-37 0 -21 37l154 379q12 37 43 36h59zM362 1638q39 0 21 -36l-178 -379q-20 -37 -43 -37h-35q-37 0 -21 37l154 379q12 37 43 36h59z" />
    <glyph glyph-name="uni0326" unicode="&#x326;" horiz-adv-x="0" 
d="M160 -410h96q31 0 31 -30v-185q0 -68 -4 -107.5t-28 -100t-71 -113.5q-18 -20 -41 0l-34 33q-27 25 -9 43q55 53 69.5 102t14.5 131l17 21h-41q-31 0 -31 30v146q0 30 31 30z" />
    <glyph glyph-name="Delta" unicode="&#x394;" horiz-adv-x="1224" 
d="M1012 92l-396 1247l-403 -1247h799zM1106 0h-985q-37 0 -23 33l455 1427q10 33 39 33h45q29 0 39 -33l454 -1427q12 -33 -24 -33z" />
    <glyph glyph-name="Omega" unicode="&#x3a9;" horiz-adv-x="2019" 
d="M1896 1022v-563q0 -207 -149 -367h117q31 0 30 -31v-30q0 -31 -30 -31h-365q-31 0 -31 31t31 30h6q103 1 201 133t98 271v557q0 164 -98 281t-240 116h-913q-141 0 -240 -117q-98 -118 -98 -280v-557q0 -139 98 -271t201 -133h6q31 -1 31 -31t-31 -30h-364q-31 0 -31 31
v30q0 31 31 31h116q-150 160 -149 367v563q0 203 127 346t303 143h913q176 0 303 -143t127 -346z" />
    <glyph glyph-name="mu" unicode="&#x3bc;" horiz-adv-x="1853" 
d="M1659 963h31q31 0 30 -31v-901q0 -31 -30 -31h-31q-31 0 -31 31v53q-119 -86 -242 -86h-897q-156 0 -264 125v-502q0 -31 -30 -31h-31q-31 0 -31 31v1311q0 31 31 31h31q31 0 30 -31v-574q0 -112 70 -190t184 -78h897q86 0 168 60t84 124v658q0 31 31 31z" />
    <glyph glyph-name="pi" unicode="&#x3c0;" horiz-adv-x="1939" 
d="M131 963h1675q31 0 31 -31v-33q0 -29 -31 -29h-49v-839q0 -31 -31 -31h-30q-31 0 -31 31v839h-1393v-839q0 -31 -30 -31h-31q-31 0 -31 31v839h-47q-31 0 -31 31v31q0 31 29 31z" />
    <glyph glyph-name="uni0401" unicode="&#x401;" 
d="M238 797h1445q31 0 31 -31v-31q0 -31 -31 -30h-1445v-613h1579q31 0 30 -31v-30q0 -31 -30 -31h-1641q-31 0 -31 31v1425q0 31 31 31h1641q31 0 30 -31v-31q0 -31 -30 -30h-1579v-598zM1231 1896v84q0 31 31 31h59q31 0 31 -31v-84q0 -31 -31 -30h-59q-31 -1 -31 30z
M592 1896v84q0 31 31 31h61q31 0 31 -31v-84q0 -31 -31 -30h-61q-31 -1 -31 30z" />
    <glyph glyph-name="uni0403" unicode="&#x403;" horiz-adv-x="1968" 
d="M164 1487h1640q31 0 31 -31v-31q0 -31 -31 -30h-1579v-1364q0 -31 -30 -31h-31q-31 0 -31 31v1425q0 31 31 31zM993 1710h-35q-37 0 -20 37l154 379q12 37 43 37h59q39 0 20 -37l-178 -379q-20 -37 -43 -37z" />
    <glyph glyph-name="uni0404" unicode="&#x404;" horiz-adv-x="2019" 
d="M1855 481h31q31 0 31 -30q-2 -186 -132 -332t-294 -146h-954q-170 0 -302.5 147.5t-132.5 344.5v557q0 197 132.5 342t302.5 145h954q164 0 294 -143t132 -330q0 -31 -31 -30h-31q-33 0 -32 30q0 152 -101.5 266.5t-230.5 114.5h-954q-137 0 -239.5 -116.5t-102.5 -278.5
v-231h606q31 0 30 -31v-31q0 -31 -30 -31h-606v-233q0 -164 102 -281.5t240 -117.5h954q131 0 232.5 116.5t99.5 268.5q-1 30 32 30z" />
    <glyph glyph-name="uni0406" unicode="&#x406;" horiz-adv-x="436" 
d="M172 31v1425q0 31 31 31h33q31 0 30 -31v-1425q0 -31 -30 -31h-33q-31 0 -31 31z" />
    <glyph glyph-name="uni0407" unicode="&#x407;" horiz-adv-x="436" 
d="M172 31v1425q0 31 31 31h33q31 0 30 -31v-1425q0 -31 -30 -31h-33q-31 0 -31 31zM475 1896v84q0 31 31 31h59q31 0 31 -31v-84q0 -31 -31 -30h-59q-31 -1 -31 30zM-164 1896v84q0 31 31 31h59q31 0 31 -31v-84q0 -31 -31 -30h-59q-31 -1 -31 30z" />
    <glyph glyph-name="uni0408" unicode="&#x408;" horiz-adv-x="1900" 
d="M1362 78q129 0 226 112t98 273v993q0 31 30 31h31q31 0 31 -31v-989q0 -197 -126 -339t-294 -142h-887q-123 0 -229 82t-156 211q-13 26 16 40l39 9q31 10 37 -19q33 -98 117 -165t176 -66h891z" />
    <glyph glyph-name="uni040C" unicode="&#x40c;" horiz-adv-x="2052" 
d="M1915 0h-74q-25 0 -86 29l-1294 612l-225 -113v-497q0 -31 -31 -31h-31q-31 0 -31 31v1425q0 31 31 31h31q31 0 31 -31v-835l1490 837q47 29 66 29h63q20 0 25.5 -18.5t-16.5 -32.5l-1309 -740l1372 -647q14 -6 11 -27.5t-23 -21.5zM1169 2163h60q39 0 20 -37l-178 -379
q-20 -37 -43 -37h-35q-36 0 -20 37l153 379q12 37 43 37z" />
    <glyph glyph-name="uni040D" unicode="&#x40d;" horiz-adv-x="2152" 
d="M184 1487h31q31 0 31 -31v-1366l1589 1374q27 23 37 23h96q31 0 31 -31v-1425q0 -31 -31 -31h-31q-31 0 -30 31v1366l-1588 -1374q-27 -23 -36 -23h-99q-31 0 -30 31v1425q-1 31 30 31zM1069 1710h-39q-23 0 -43 37l-178 379q-18 37 20 37h64q31 0 43 -37l154 -379
q16 -37 -21 -37z" />
    <glyph glyph-name="uni040E" unicode="&#x40e;" horiz-adv-x="2166" 
d="M1962 1487h76q22 0 26 -10t-14 -27l-1472 -1438q-14 -12 -37 -12h-70q-49 0 -12 37l534 524l-887 889q-33 37 13 37h78q25 0 36 -12l838 -838l854 838q14 12 37 12zM1118 1845h-69q-131 0 -207 74t-84 213q0 31 30 31h41q31 0 31 -31q8 -94 51 -139t133 -45h78
q92 0 134 45t51 139q0 31 30 31h41q31 0 31 -31q-8 -141 -84 -214t-207 -73z" />
    <glyph glyph-name="uni0410" unicode="&#x410;" horiz-adv-x="2125" 
d="M1589 530l-522 844l-528 -844h1050zM2003 0h-66q-18 0 -39 33l-251 405h-1166l-254 -405q-2 -4 -6 -10q-4 -7 -5 -9q-6 -15 -26 -14h-67q-39 0 -23 33l904 1427q20 33 38 33h45q19 0 39 -33l902 -1427q8 -17 0 -25t-25 -8z" />
    <glyph glyph-name="uni0411" unicode="&#x411;" horiz-adv-x="2002" 
d="M225 92h1252q301 0 301 326t-301 325h-1252v-651zM225 836h1245q184 0 292 -112t108 -306t-108 -306t-292 -112h-1306q-31 0 -31 31v1425q0 31 31 31h1562q31 0 31 -31v-31q0 -31 -31 -30h-1501v-559z" />
    <glyph glyph-name="uni0412" unicode="&#x412;" horiz-adv-x="2015" 
d="M225 92h1284q158 0 230 70q71 70 71 220t-74 242q-75 91 -218 91h-1293v-623zM225 807h1299q120 0 186 88t66 225q0 274 -287 275h-1264v-588zM1903 387q0 -387 -404 -387h-1329q-37 0 -37 37v1413q0 37 37 37h1313q176 0 280 -99t105 -278q0 -262 -172 -346
q207 -82 207 -377z" />
    <glyph glyph-name="uni0413" unicode="&#x413;" horiz-adv-x="1968" 
d="M164 1487h1640q31 0 31 -31v-31q0 -31 -31 -30h-1579v-1364q0 -31 -30 -31h-31q-31 0 -31 31v1425q0 31 31 31z" />
    <glyph glyph-name="uni0414" unicode="&#x414;" horiz-adv-x="2359" 
d="M2017 92v1303h-1487v-703q0 -446 -112 -600h1599zM2109 92h117q31 0 31 -31v-229q0 -31 -31 -31h-31q-31 0 -30 31v168h-1970v-168q0 -31 -31 -31h-31q-31 0 -31 31v229q0 31 31 31h143q42 0 85 90t60 254t17 305v715q0 31 31 31h1610q31 0 30 -31v-1364z" />
    <glyph glyph-name="uni0415" unicode="&#x415;" 
d="M238 797h1445q31 0 31 -31v-31q0 -31 -31 -30h-1445v-613h1579q31 0 30 -31v-30q0 -31 -30 -31h-1641q-31 0 -31 31v1425q0 31 31 31h1641q31 0 30 -31v-31q0 -31 -30 -30h-1579v-598z" />
    <glyph glyph-name="uni0416" unicode="&#x416;" horiz-adv-x="3684" 
d="M3588 0h-74q-25 0 -86 29l-1294 612l-225 -113v-497q0 -31 -31 -31h-72q-31 0 -30 31v497l-226 113l-1294 -612q-61 -29 -86 -29h-74q-20 0 -23 21.5t11 27.5l1372 647l-1309 740q-23 14 -17.5 32.5t26.5 18.5h63q18 0 66 -29l1491 -837v835q0 31 30 31h72q31 0 31 -31
v-835l1491 837q47 29 65 29h64q20 0 25 -18.5t-17 -32.5l-1309 -740l1372 -647q14 -6 11.5 -27.5t-23.5 -21.5z" />
    <glyph glyph-name="uni0417" unicode="&#x417;" horiz-adv-x="1968" 
d="M1866 379q0 -176 -129 -287t-305 -110h-906q-168 0 -297 114t-127 295v39q0 31 31 31h33q31 0 31 -31v-39q0 -153 98 -235t231 -82h906q141 0 241 79t101 222q0 143 -96 232t-251 95h-1007q-31 0 -31 31v43q0 31 31 31h1007q154 6 243 89t89 218t-98 220t-231 85h-906
q-129 0 -228 -90t-99 -246v-39q0 -31 -31 -30h-33q-31 0 -31 30v39q0 185 129 307t293 121h906q170 -1 296 -117t125 -278q0 -118 -58 -202t-179 -158q252 -152 252 -377z" />
    <glyph glyph-name="uni0418" unicode="&#x418;" horiz-adv-x="2152" 
d="M184 1487h31q31 0 31 -31v-1366l1589 1374q27 23 37 23h96q31 0 31 -31v-1425q0 -31 -31 -31h-31q-31 0 -30 31v1366l-1588 -1374q-27 -23 -36 -23h-99q-31 0 -30 31v1425q-1 31 30 31z" />
    <glyph glyph-name="uni0419" unicode="&#x419;" horiz-adv-x="2152" 
d="M184 1487h31q31 0 31 -31v-1366l1589 1374q27 23 37 23h96q31 0 31 -31v-1425q0 -31 -31 -31h-31q-31 0 -30 31v1366l-1588 -1374q-27 -23 -36 -23h-99q-31 0 -30 31v1425q-1 31 30 31zM1307 2163h41q31 0 30 -31q-8 -141 -83.5 -214t-207.5 -73h-69q-131 0 -207 74
t-84 213q0 31 31 31h41q31 0 30 -31q8 -94 51.5 -139t133.5 -45h78q92 0 134 45t50 139q0 31 31 31z" />
    <glyph glyph-name="uni041A" unicode="&#x41a;" horiz-adv-x="2052" 
d="M1915 0h-74q-25 0 -86 29l-1294 612l-225 -113v-497q0 -31 -31 -31h-31q-31 0 -31 31v1425q0 31 31 31h31q31 0 31 -31v-835l1490 837q47 29 66 29h63q20 0 25.5 -18.5t-16.5 -32.5l-1309 -740l1372 -647q14 -6 11 -27.5t-23 -21.5z" />
    <glyph glyph-name="uni041B" unicode="&#x41b;" horiz-adv-x="2082" 
d="M279 1487h1640q31 0 31 -31v-1425q0 -31 -31 -31h-31q-31 0 -30 31v1364h-1518v-1131q0 -135 -81 -205t-181 -63q-27 0 -27 33l2 41q0 27 33 26q162 6 162 146v1214q0 31 31 31z" />
    <glyph glyph-name="uni041C" unicode="&#x41c;" horiz-adv-x="2289" 
d="M2030 1487h81q31 0 31 -31v-1425q0 -31 -31 -31h-30q-31 0 -31 31v1329l-850 -1329q-18 -31 -39 -31h-35q-20 0 -39 31l-849 1329v-1329q0 -31 -31 -31h-31q-31 0 -31 31v1425q0 31 31 31h82q23 0 41 -31l844 -1341l846 1341q18 31 41 31z" />
    <glyph glyph-name="uni041D" unicode="&#x41d;" horiz-adv-x="2050" 
d="M1845 1487h31q31 0 31 -31v-1425q0 -31 -31 -31h-31q-31 0 -30 31v633h-1579v-633q0 -31 -31 -31h-31q-31 0 -31 31v1425q0 31 31 31h31q31 0 31 -31v-700h1579v700q-1 31 30 31z" />
    <glyph glyph-name="uni041E" unicode="&#x41e;" horiz-adv-x="2060" 
d="M553 66h954q141 0 240 115q98 116 98 286v549q0 172 -98 287t-240 114h-954q-143 0 -241 -114q-97 -115 -97 -287v-549q0 -172 98 -287q99 -114 240 -114zM553 1509h954q176 0 303 -143t127 -346v-557q0 -203 -127 -346t-303 -144h-954q-176 -1 -303 143t-127 347v557
q0 203 127 346t303 143z" />
    <glyph glyph-name="uni041F" unicode="&#x41f;" horiz-adv-x="1968" 
d="M164 1487h1640q31 0 31 -31v-1425q0 -31 -31 -31h-30q-31 0 -31 31v1364h-1518v-1364q0 -31 -30 -31h-31q-31 0 -31 31v1425q0 31 31 31z" />
    <glyph glyph-name="uni0420" unicode="&#x420;" horiz-adv-x="1988" 
d="M231 745h1252q301 0 301 325t-301 325h-1252v-650zM170 1487h1307q183 0 291 -112q108 -113 108 -307t-108 -304t-291 -111h-1246v-622q0 -31 -30 -31h-31q-31 0 -31 31v1425q0 31 31 31z" />
    <glyph glyph-name="uni0421" unicode="&#x421;" horiz-adv-x="2019" 
d="M1855 481h31q31 0 31 -30q-2 -186 -132 -332t-294 -146h-954q-170 0 -302.5 147.5t-132.5 344.5v557q0 197 132.5 342t302.5 145h954q164 0 294 -143t132 -330q0 -31 -31 -30h-31q-33 0 -32 30q0 152 -101.5 266.5t-230.5 114.5h-954q-137 0 -239.5 -116.5t-102.5 -278.5
v-557q0 -164 102 -281.5t240 -117.5h954q131 0 232.5 116.5t99.5 268.5q-1 30 32 30z" />
    <glyph glyph-name="uni0422" unicode="&#x422;" horiz-adv-x="1984" 
d="M133 1487h1718q31 0 31 -31v-31q0 -31 -31 -30h-811v-1364q0 -31 -30 -31h-31q-31 0 -31 31v1364h-815q-31 0 -31 30v31q0 31 31 31z" />
    <glyph glyph-name="uni0423" unicode="&#x423;" horiz-adv-x="2166" 
d="M1962 1487h76q22 0 26 -10t-14 -27l-1472 -1438q-14 -12 -37 -12h-70q-49 0 -12 37l534 524l-887 889q-33 37 13 37h78q25 0 36 -12l838 -838l854 838q14 12 37 12z" />
    <glyph glyph-name="uni0424" unicode="&#x424;" horiz-adv-x="2603" 
d="M2400 645v197q0 156 -99 272t-228 117h-725v-975h725q129 0 228 118t99 271zM1255 256v975h-720q-129 0 -229 -118t-101 -271v-197q0 -153 100 -271t230 -118h720zM1348 1323h718q168 0 297 -143t129 -338v-197q0 -195 -129 -338t-297 -143h-718v-133q0 -31 -31 -31h-31
q-31 0 -31 31v133h-716q-168 0 -297 143t-129 338v197q0 195 129 338t297 143h716v133q0 31 31 31h31q31 0 31 -31v-133z" />
    <glyph glyph-name="uni0425" unicode="&#x425;" horiz-adv-x="2013" 
d="M1884 0h-76q-23 0 -39 14l-761 662l-762 -662q-16 -14 -39 -14h-78q-20 0 -26 11q-5 11 12 26l815 706l-815 707q-16 14 -12 26q5 11 26 11h78q23 0 39 -14l762 -662l761 662q16 14 37 14h78q20 0 26 -11t-12 -26l-813 -707l813 -706q16 -14 12 -26q-5 -11 -26 -11z" />
    <glyph glyph-name="uni0426" unicode="&#x426;" horiz-adv-x="2091" 
d="M1845 92h123q31 0 31 -31v-272q0 -31 -31 -31h-31q-31 0 -30 31v211h-1743q-31 0 -31 31v1425q0 31 31 31h31q31 0 30 -31v-1364h1528v1364q0 31 31 31h31q31 0 30 -31v-1364z" />
    <glyph glyph-name="uni0427" unicode="&#x427;" horiz-adv-x="1861" 
d="M1372 524h-905q-141 0 -242.5 113t-101.5 254v565q0 31 31 31h30q31 0 31 -31v-563q0 -106 70.5 -191.5t181.5 -85.5h905q84 0 163 59.5t81 125.5v655q0 31 31 31h30q31 0 31 -31v-1425q0 -31 -31 -31h-30q-31 0 -31 31v587q-117 -94 -244 -94z" />
    <glyph glyph-name="uni0428" unicode="&#x428;" 
d="M1765 1487h31q31 0 31 -31v-1425q0 -31 -31 -31h-1632q-31 0 -31 31v1425q0 31 31 31h31q31 0 30 -31v-1364h709v1364q0 31 31 31h30q31 0 31 -31v-1364h709v1364q-1 31 30 31z" />
    <glyph glyph-name="uni0429" unicode="&#x429;" horiz-adv-x="2072" 
d="M1827 92h123q31 0 30 -31v-272q0 -31 -30 -31h-31q-31 0 -31 31v211h-1724q-31 0 -31 31v1425q0 31 31 31h31q31 0 30 -31v-1364h709v1364q0 31 31 31h30q31 0 31 -31v-1364h709v1364q0 31 30 31h31q31 0 31 -31v-1364z" />
    <glyph glyph-name="uni042A" unicode="&#x42a;" horiz-adv-x="2435" 
d="M590 92h1251q301 0 301 326t-301 325h-1251v-651zM590 836h1245q184 0 292 -112q107 -112 107 -306t-108 -306t-291 -112h-1307q-31 0 -30 31v1364h-375q-31 0 -31 30v31q0 31 31 31h436q31 0 31 -31v-620z" />
    <glyph glyph-name="uni042B" unicode="&#x42b;" horiz-adv-x="2439" 
d="M225 92h1252q301 0 301 326t-301 325h-1252v-651zM2206 1487h32q31 0 31 -31v-1425q0 -31 -31 -31h-32q-31 0 -31 31v1425q0 31 31 31zM225 836h1245q184 0 292 -112t108 -306t-108 -306t-292 -112h-1306q-31 0 -31 31v1425q0 31 31 31h31q31 0 30 -31v-620z" />
    <glyph glyph-name="uni042C" unicode="&#x42c;" horiz-adv-x="2002" 
d="M225 92h1252q301 0 301 326t-301 325h-1252v-651zM225 836h1245q184 0 292 -112t108 -306t-108 -306t-292 -112h-1306q-31 0 -31 31v1425q0 31 31 31h31q31 0 30 -31v-620z" />
    <glyph glyph-name="uni042D" unicode="&#x42d;" horiz-adv-x="2019" 
d="M528 1509h955q172 0 303 -144t131 -343v-557q0 -197 -131 -344.5t-303 -147.5h-955q-164 0 -294 145.5t-132 332.5q0 31 31 30h31q33 0 33 -30q-2 -152 99 -268.5t232 -116.5h955q137 0 239.5 117.5t102.5 281.5v233h-606q-31 0 -31 31v31q0 31 31 31h606v231
q0 162 -102.5 278.5t-239.5 116.5h-955q-129 0 -230 -114.5t-101 -266.5q0 -31 -33 -30h-31q-31 0 -31 30q2 186 132 329.5t294 143.5z" />
    <glyph glyph-name="uni042E" unicode="&#x42e;" horiz-adv-x="2439" 
d="M2224 467v549q0 172 -98 287t-240 114h-954q-143 0 -241 -114q-97 -115 -97 -287v-549q0 -172 98 -287t240 -114h954q141 0 240 115q98 116 98 286zM932 1509h954q176 0 303 -143t127 -346v-557q0 -203 -127 -346t-303 -144h-954q-176 -1 -303 143t-127 347v237h-236
v-669q0 -31 -30 -31h-33q-31 0 -31 31v669h-4v93h4v663q0 31 31 31h33q31 0 30 -31v-663h236v227q0 203 127 346t303 143z" />
    <glyph glyph-name="uni042F" unicode="&#x42f;" horiz-adv-x="2000" 
d="M1776 1395h-1250q-303 0 -303 -325t303 -325h1250v650zM530 1487h1307q31 0 31 -31v-1425q0 -31 -31 -31h-31q-31 0 -30 31v622h-1278q-283 0 -283 -272v-350q0 -31 -31 -31h-30q-31 0 -31 31v342q0 242 192 332q-184 104 -184 364q0 195 107.5 306.5t291.5 111.5z" />
    <glyph glyph-name="uni0430" unicode="&#x430;" horiz-adv-x="1800" 
d="M1673 0h-57q-33 0 -33 49v82q-129 -133 -256 -133h-934q-115 0 -203 82t-88 200t80 196t207 77h1188v-98h-1186q-197 0 -196 -181q0 -80 58 -132t138 -52h930q84 0 143 44t119 120v352q0 127 -60 198t-153 70h-924q-92 0 -137 -19t-86 -67q-23 -25 -45 -2l-28 21
q-20 18 -3 41q53 68 117 94t174 25h924q131 1 222 -99t91 -258v-561q0 -15 4 -32t-6 -17z" />
    <glyph glyph-name="uni0431" unicode="&#x431;" horiz-adv-x="1871" 
d="M1636 342v254q0 106 -68 189q-69 83 -179 83h-897q-86 0 -171 -66t-85 -134v-455q48 -47 126 -84t132 -37h895q98 0 173 75q74 75 74 175zM492 961h899q139 0 238 -113t100 -252v-254q1 -134 -105 -238t-233 -104h-899q-133 0 -256 94v-63q0 -31 -31 -31h-31
q-31 0 -31 31v159l-4 7l4 4v620q1 147 9 305t85 242t218 76q296 -19 632 -14q335 4 367 24q45 33 74 33h57q45 0 7 -55q-22 -31 -65 -58q-44 -27 -73 -32t-79 -10q-51 -5 -457 -2t-496 9t-131 -48t-45 -137t-10 -304q117 111 256 111z" />
    <glyph glyph-name="uni0432" unicode="&#x432;" horiz-adv-x="1857" 
d="M246 94h1184q94 0 139 29t45 119t-34 142q-34 50 -118 50h-1216v-340zM246 532h1214q84 0 114 46t30 135q0 156 -177 155h-1181v-336zM1704 248q0 -248 -287 -248h-1233q-31 0 -30 31v901q0 31 30 31h1233q131 0 204 -65t73 -192t-45 -175q-25 -26 -66 -44
q121 -51 121 -239z" />
    <glyph glyph-name="uni0433" unicode="&#x433;" horiz-adv-x="1775" 
d="M184 963h1407q31 0 31 -31v-31q0 -31 -31 -31h-1345v-839q0 -31 -31 -31h-31q-31 0 -30 31v901q-1 31 30 31z" />
    <glyph glyph-name="uni0434" unicode="&#x434;" horiz-adv-x="2220" 
d="M1858 92v778h-1395v-147q0 -481 -92 -631h1487zM1950 92h116q31 0 31 -31v-229q0 -31 -31 -31h-30q-31 0 -31 31v168h-1790v-168q0 -31 -31 -31h-30q-31 0 -31 31v229q0 31 31 31h57q45 0 84 75q73 140 76 574v191q0 31 30 31h1518q31 0 31 -31v-840z" />
    <glyph glyph-name="uni0435" unicode="&#x435;" horiz-adv-x="1841" 
d="M1632 565v27q0 123 -83 204t-171 81h-897q-109 0 -191.5 -85t-82.5 -200v-27h1425zM479 969h897q121 0 234.5 -106.5t113.5 -258.5v-82q0 -61 -61 -61h-1456v-96q0 -111 84 -193t190 -82h893q133 0 256 146q18 25 41 6l29 -25q23 -20 6 -43q-143 -176 -330 -176h-897
q-137 0 -250.5 110.5t-113.5 256.5v233q0 145 113.5 258t250.5 113z" />
    <glyph glyph-name="uni0436" unicode="&#x436;" horiz-adv-x="3131" 
d="M2976 0h-137q-5 0 -23 6l-42 14t-32 11l-1126 377v-377q0 -31 -31 -31h-39q-31 0 -30 31v377l-1127 -377q-8 -3 -49 -17t-47 -14h-137q-12 0 -19 10q-6 10 -4 22t10 13l1250 434l-1221 439q-20 8 -14 26t22 19h135q6 1 41 -11t39 -14l1121 -393v387q0 31 30 31h39
q31 0 31 -31v-387l1118 393q74 25 82 25h135q17 -1 23 -19t-15 -26l-1220 -439l1249 -434q8 -2 10 -13q2 -12 -4 -22t-18 -10z" />
    <glyph glyph-name="uni0437" unicode="&#x437;" horiz-adv-x="1875" 
d="M455 -16q-115 0 -208 78t-93 190q0 23 22 22h47q23 0 23 -22q0 -78 57 -127t141 -49h967q96 0 162 39q65 39 65 127t-39 142q-39 52 -141 56h-1005q-23 0 -23 23v47q0 23 23 22h1005q102 4 133 48t31 129q0 86 -61 131t-150 45h-967q-84 -1 -141 -55t-57 -136
q0 -23 -23 -22h-47q-23 0 -22 22q0 115 93 199t208 84h946q119 0 215 -77t96 -189q0 -61 -6 -95q-15 -86 -117 -129q78 -33 106 -94t27 -149q0 -119 -99 -190t-222 -70h-946z" />
    <glyph glyph-name="uni0438" unicode="&#x438;" horiz-adv-x="1867" 
d="M184 963h31q31 0 31 -31v-844l1290 854q37 20 49 21h98q31 0 31 -31v-901q0 -31 -31 -31h-30q-31 0 -31 31v846l-1286 -857q-31 -20 -43 -20h-109q-31 0 -30 31v901q-1 31 30 31z" />
    <glyph glyph-name="uni0439" unicode="&#x439;" horiz-adv-x="1867" 
d="M184 963h31q31 0 31 -31v-844l1290 854q37 20 49 21h98q31 0 31 -31v-901q0 -31 -31 -31h-30q-31 0 -31 31v846l-1286 -857q-31 -20 -43 -20h-109q-31 0 -30 31v901q-1 31 30 31zM1188 1638h41q31 0 31 -30q-8 -141 -84 -214t-207 -73h-70q-131 0 -207 74t-84 213
q0 31 31 30h41q31 0 31 -30q8 -94 51 -140t133 -45h78q92 0 134 45t50 140q0 30 31 30z" />
    <glyph glyph-name="uni043A" unicode="&#x43a;" horiz-adv-x="1896" 
d="M1739 0h-88q-20 0 -101 27l-1030 446l-284 -98v-344q0 -31 -31 -31h-31q-31 0 -31 31v901q0 31 31 31h31q31 0 31 -31v-455l1257 465q53 20 80 21h96q19 0 25 -23t-17 -31l-1011 -395l1085 -463q14 -7 11 -29t-23 -22z" />
    <glyph glyph-name="uni043B" unicode="&#x43b;" horiz-adv-x="1925" 
d="M195 932q0 31 32 33h31q10 0 14 -2h1469q31 0 31 -31v-901q0 -31 -31 -31h-31q-31 0 -31 31v839h-1390v-516q0 -244 -107 -360q-16 -23 -43 0l-37 35q-23 16 0 45q94 109 95 276v537q-2 4 -2 14v31z" />
    <glyph glyph-name="uni043C" unicode="&#x43c;" horiz-adv-x="2304" 
d="M2038 963h82q31 0 30 -31v-901q0 -31 -30 -31h-31q-31 0 -31 31v835l-850 -835q-6 -6 -16 -18t-23 -13h-34q-12 0 -39 31l-850 835v-835q0 -31 -31 -31h-31q-31 0 -30 31v901q0 31 30 31h82q35 0 62 -31l823 -828l825 828q27 31 62 31z" />
    <glyph glyph-name="uni043D" unicode="&#x43d;" horiz-adv-x="1898" 
d="M1683 963h31q31 0 31 -31v-901q0 -31 -31 -31h-31q-31 0 -30 31v405h-1407v-405q0 -31 -31 -31h-31q-31 0 -30 31v901q0 31 30 31h31q31 0 31 -31v-404h1407v404q-1 31 30 31z" />
    <glyph glyph-name="uni043E" unicode="&#x43e;" horiz-adv-x="1857" 
d="M1653 391v182q0 125 -79 214t-196 90h-897q-121 1 -199 -89t-77 -215v-182q0 -125 78 -213t198 -88h897q117 0 196 88t79 213zM479 969h899q150 0 258 -120t109 -276v-182q0 -157 -109 -275t-258 -118h-899q-151 0 -259 119t-107 274v182q0 158 107 277t259 119z" />
    <glyph glyph-name="uni043F" unicode="&#x43f;" horiz-adv-x="1884" 
d="M184 963h1516q31 0 31 -31v-901q0 -31 -31 -31h-31q-31 0 -31 31v839h-1392v-839q0 -31 -31 -31h-31q-31 0 -30 31v901q-1 31 30 31z" />
    <glyph glyph-name="uni0440" unicode="&#x440;" horiz-adv-x="1857" 
d="M1642 346v250q0 110 -70 192t-179 82h-904q-83 0 -167 -59t-86 -123v-481q57 -45 131 -80t122 -35h904q96 0 173 77q76 77 76 177zM489 963h902q141 0 242 -113t102 -254v-250q1 -138 -105 -242t-239 -104h-902q-129 0 -253 102v-481q0 -31 -31 -31h-31q-31 0 -31 31
v1311q0 31 31 31h31q31 0 31 -31v-68q112 99 253 99z" />
    <glyph glyph-name="uni0441" unicode="&#x441;" horiz-adv-x="1804" 
d="M1683 645h-32q-35 0 -35 25q0 72 -82 139.5t-164 67.5h-891q-106 0 -190 -84t-84 -195v-233q0 -111 84 -193t190 -82h889q133 0 256 141q23 25 41 9l27 -23q23 -20 6 -43q-143 -176 -328 -176h-893q-137 0 -250.5 110.5t-113.5 256.5v233q0 145 113.5 258t250.5 113h893
q115 0 227.5 -93.5t114.5 -199.5q0 -31 -29 -31z" />
    <glyph glyph-name="uni0442" unicode="&#x442;" horiz-adv-x="1898" 
d="M184 963h1530q31 0 31 -31v-31q0 -31 -31 -31h-717v-839q0 -31 -30 -31h-31q-31 0 -31 31v839h-721q-31 0 -30 31v31q-1 31 30 31z" />
    <glyph glyph-name="uni0443" unicode="&#x443;" horiz-adv-x="2115" 
d="M1942 963h75q23 -1 27 -11t-14 -26l-1473 -1323q-14 -12 -37 -13h-69q-23 0 -26 10t13 27l516 467l-868 832q-18 16 -14 26t26 11h78q23 0 37 -13l817 -788l875 788q14 13 37 13z" />
    <glyph glyph-name="uni0444" unicode="&#x444;" horiz-adv-x="3334" 
d="M3119 346v250q0 110 -71 192t-179 82h-901q-84 0 -168 -59t-86 -123v-483q55 -45 130 -79t124 -34h901q96 0 173 77t77 177zM467 92h901q49 0 123 35t131 80v481h-2q-2 62 -85 122t-167 60h-901q-111 0 -181 -83t-71 -191v-250q0 -100 78 -177t174 -77zM1968 963h899
q141 0 243 -113t101 -254v-250q0 -138 -105 -242t-239 -104h-899q-129 0 -254 102v-481q0 -31 -31 -31h-30q-31 0 -31 31v481q-125 -102 -254 -102h-901q-133 0 -239 104q-105 104 -105 242v250q0 141 101 254t243 113h901q141 0 254 -99v592q0 31 31 31h30q31 0 31 -31
v-592q113 99 254 99z" />
    <glyph glyph-name="uni0445" unicode="&#x445;" horiz-adv-x="1740" 
d="M1593 0h-84q-18 0 -36 12l-603 412l-602 -412q-18 -12 -37 -12h-84q-23 0 -27 12t15 25l651 444l-651 445q-18 12 -14 24t26 13h84q18 0 37 -13l602 -411l603 411q18 12 36 13h84q23 -1 27 -13t-14 -24l-652 -445l652 -444q18 -13 14 -25t-27 -12z" />
    <glyph glyph-name="uni0446" unicode="&#x446;" horiz-adv-x="1972" 
d="M1731 92h88q31 0 30 -31v-272q0 -31 -30 -31h-31q-31 0 -31 31v211h-1573q-31 0 -30 31v901q0 31 30 31h31q31 0 31 -31v-840h1392v840q0 31 31 31h31q31 0 31 -31v-840z" />
    <glyph glyph-name="uni0447" unicode="&#x447;" horiz-adv-x="1861" 
d="M1647 963h30q31 0 31 -31v-901q0 -31 -31 -31h-30q-31 0 -31 31v307q-129 -100 -254 -100h-889q-143 0 -247 112q-103 113 -103 254v328q0 31 31 31h30q31 0 31 -31v-334q0 -100 73 -184t179 -84h895q82 0 167 59t87 119v424q0 31 31 31z" />
    <glyph glyph-name="uni0448" unicode="&#x448;" horiz-adv-x="2547" 
d="M2333 963h30q31 0 31 -31v-901q0 -31 -31 -31h-2179q-31 0 -30 31v901q0 31 30 31h31q31 0 31 -31v-840h983v840q0 31 31 31h30q31 0 31 -31v-840h981v840q0 31 31 31z" />
    <glyph glyph-name="uni0449" unicode="&#x449;" horiz-adv-x="2658" 
d="M2394 92h90q31 0 31 -31v-272q0 -31 -31 -31h-30q-31 0 -31 31v211h-2239q-31 0 -30 31v901q0 31 30 31h31q31 0 31 -31v-840h983v840q0 31 31 31h30q31 0 31 -31v-840h981v840q0 31 31 31h30q31 0 31 -31v-840z" />
    <glyph glyph-name="uni044A" unicode="&#x44a;" horiz-adv-x="2021" 
d="M367 92h1136q158 0 226 53t67 172q0 225 -293 226h-1136v-451zM367 635h1134q179 0 283 -89t104 -234q0 -144 -102 -228t-285 -84h-1196q-31 0 -31 31v839h-151q-31 0 -31 31v31q0 31 31 31h213q31 0 31 -31v-297z" />
    <glyph glyph-name="uni044B" unicode="&#x44b;" horiz-adv-x="2299" 
d="M225 92h1139q158 0 224 53t67 172q0 225 -291 226h-1139v-451zM225 635h1135q178 0 282 -89t104 -234q0 -144 -101 -228q-102 -84 -285 -84h-1196q-31 0 -31 31v901q0 31 31 31h31q31 0 30 -31v-297zM2075 965h30q31 0 31 -31v-903q0 -31 -31 -31h-30q-31 0 -31 31v903
q0 31 31 31z" />
    <glyph glyph-name="uni044C" unicode="&#x44c;" horiz-adv-x="1880" 
d="M225 92h1139q158 0 224 53t67 172q0 225 -291 226h-1139v-451zM225 635h1135q178 0 282 -89t104 -234q0 -144 -101 -228q-102 -84 -285 -84h-1196q-31 0 -31 31v901q0 31 31 31h31q31 0 30 -31v-297z" />
    <glyph glyph-name="uni044D" unicode="&#x44d;" horiz-adv-x="1804" 
d="M434 969h893q137 0 251 -113t114 -258v-233q0 -145 -114 -256t-251 -111h-893q-184 0 -328 176q-16 23 7 43l26 23q18 16 41 -9q123 -141 258 -141h889q106 0 189 82t83 193v71h-512q-31 0 -30 31v31q0 31 30 30h512v70q0 111 -82.5 195t-189.5 84h-893q-82 0 -164 -68
t-82 -139q4 -25 -34 -25h-33q-29 0 -29 31q2 106 115.5 199.5t226.5 93.5z" />
    <glyph glyph-name="uni044E" unicode="&#x44e;" horiz-adv-x="2258" 
d="M2054 391v182q0 125 -79 214t-197 90h-897q-121 1 -198 -89t-77 -215v-182q0 -125 77 -213t198 -88h897q120 0 198 88t78 213zM881 969h899q150 0 258 -120t108 -276v-182q0 -157 -108 -275t-258 -118h-899q-154 0 -260 118t-107 275v45h-276v-407q0 -31 -31 -31h-31
q-31 0 -31 31v407h-10v92h10v404q0 31 31 31h31q31 0 31 -31v-404h276v45q0 158 106 277t261 119z" />
    <glyph glyph-name="uni044F" unicode="&#x44f;" horiz-adv-x="1837" 
d="M1591 870h-1188q-170 0 -170 -151q0 -86 29 -129t109 -43h1220v323zM193 0h-29q-31 0 -31 31v227q0 193 127 240q-87 32 -103 101q-14 56 -14 110q0 254 277 254h1233q31 0 30 -31v-901q0 -31 -30 -31h-31q-31 0 -31 31v424h-1220q-80 0 -114 -42t-34 -134v-248
q1 -31 -30 -31z" />
    <glyph glyph-name="uni0451" unicode="&#x451;" horiz-adv-x="1841" 
d="M1632 565v27q0 123 -83 204t-171 81h-897q-109 0 -191.5 -85t-82.5 -200v-27h1425zM479 969h897q121 0 234.5 -106.5t113.5 -258.5v-82q0 -61 -61 -61h-1456v-96q0 -111 84 -193t190 -82h893q133 0 256 146q18 25 41 6l29 -25q23 -20 6 -43q-143 -176 -330 -176h-897
q-137 0 -250.5 110.5t-113.5 256.5v233q0 145 113.5 258t250.5 113zM1169 1372v84q0 31 31 31h60q31 0 30 -31v-84q0 -31 -30 -31h-60q-31 0 -31 31zM530 1372v84q0 31 31 31h62q31 0 30 -31v-84q0 -31 -30 -31h-62q-31 0 -31 31z" />
    <glyph glyph-name="uni0453" unicode="&#x453;" horiz-adv-x="1775" 
d="M184 963h1407q31 0 31 -31v-31q0 -31 -31 -31h-1345v-839q0 -31 -31 -31h-31q-31 0 -30 31v901q-1 31 30 31zM897 1186h-35q-37 0 -20 37l153 379q12 37 43 36h60q39 0 20 -36l-178 -379q-20 -37 -43 -37z" />
    <glyph glyph-name="uni0454" unicode="&#x454;" horiz-adv-x="1804" 
d="M1370 -2h-893q-137 0 -250.5 110.5t-113.5 256.5v233q0 145 113.5 258t250.5 113h893q115 0 227.5 -93.5t114.5 -199.5q0 -31 -29 -31h-32q-35 0 -35 25q0 72 -82 139.5t-164 67.5h-891q-106 0 -190 -84t-84 -195v-70h512q31 0 31 -30v-31q0 -31 -31 -31h-512v-71
q0 -111 84 -193t190 -82h889q133 0 256 141q23 25 41 9l27 -23q23 -20 6 -43q-143 -176 -328 -176z" />
    <glyph glyph-name="uni0456" unicode="&#x456;" horiz-adv-x="415" 
d="M162 31v903q0 31 31 31h30q31 0 31 -31v-903q0 -31 -31 -31h-30q-31 0 -31 31zM145 1374v82q0 31 31 31h64q31 0 30 -31v-82q0 -31 -30 -31h-64q-31 0 -31 31z" />
    <glyph glyph-name="uni0457" unicode="&#x457;" horiz-adv-x="419" 
d="M164 31v903q0 31 31 31h30q31 0 31 -31v-903q0 -31 -31 -31h-30q-31 0 -31 31zM469 1372v84q0 31 31 31h59q31 0 31 -31v-84q0 -31 -31 -31h-59q-31 0 -31 31zM-170 1372v84q0 31 31 31h59q31 0 31 -31v-84q0 -31 -31 -31h-59q-31 0 -31 31z" />
    <glyph glyph-name="uni0458" unicode="&#x458;" horiz-adv-x="411" 
d="M156 -106v1040q0 31 30 31h31q31 0 31 -31v-1032q0 -78 -60 -156t-147 -113q-29 -10 -39 21l-6 37q-8 27 18 37q57 20 100 64q42 44 42 102zM135 1374v82q0 31 31 31h63q31 0 31 -31v-82q0 -31 -31 -31h-63q-31 0 -31 31z" />
    <glyph glyph-name="uni045C" unicode="&#x45c;" horiz-adv-x="1896" 
d="M1739 0h-88q-20 0 -101 27l-1030 446l-284 -98v-344q0 -31 -31 -31h-31q-31 0 -31 31v901q0 31 31 31h31q31 0 31 -31v-455l1257 465q53 20 80 21h96q19 0 25 -23t-17 -31l-1011 -395l1085 -463q14 -7 11 -29t-23 -22zM1157 1638q39 0 21 -36l-179 -379q-20 -37 -43 -37
h-34q-37 0 -21 37l154 379q12 37 43 36h59z" />
    <glyph glyph-name="uni045D" unicode="&#x45d;" horiz-adv-x="1867" 
d="M184 963h31q31 0 31 -31v-844l1290 854q37 20 49 21h98q31 0 31 -31v-901q0 -31 -31 -31h-30q-31 0 -31 31v846l-1286 -857q-31 -20 -43 -20h-109q-31 0 -30 31v901q-1 31 30 31zM950 1186h-39q-23 0 -43 37l-178 379q-18 37 21 36h63q31 1 43 -36l154 -379
q16 -37 -21 -37z" />
    <glyph glyph-name="uni045E" unicode="&#x45e;" horiz-adv-x="2115" 
d="M1942 963h75q23 -1 27 -11t-14 -26l-1473 -1323q-14 -12 -37 -13h-69q-23 0 -26 10t13 27l516 467l-868 832q-18 16 -14 26t26 11h78q23 0 37 -13l817 -788l875 788q14 13 37 13zM1094 1321h-70q-131 0 -207 74t-84 213q0 31 31 30h41q31 0 31 -30q8 -94 51 -140t133 -45
h78q92 0 134 45t50 140q0 31 31 30h41q31 0 30 -30q-8 -141 -84 -214t-206 -73z" />
    <glyph glyph-name="uni0490" unicode="&#x490;" horiz-adv-x="1968" 
d="M1774 1671h30q31 0 31 -31v-215q0 -31 -31 -30h-1579v-1364q0 -31 -30 -31h-31q-31 0 -31 31v1425q0 31 31 31h1579v153q0 31 31 31z" />
    <glyph glyph-name="uni0491" unicode="&#x491;" horiz-adv-x="1775" 
d="M1561 1147h30q31 0 31 -31v-215q0 -31 -31 -31h-1345v-839q0 -31 -31 -31h-31q-31 0 -30 31v901q0 31 30 31h1346v153q0 31 31 31z" />
    <glyph glyph-name="uni04C0" unicode="&#x4c0;" horiz-adv-x="436" 
d="M172 31v1425q0 31 31 31h33q31 0 30 -31v-1425q0 -31 -30 -31h-33q-31 0 -31 31z" />
    <glyph glyph-name="uni04E2" unicode="&#x4e2;" horiz-adv-x="2152" 
d="M184 1487h31q31 0 31 -31v-1366l1589 1374q27 23 37 23h96q31 0 31 -31v-1425q0 -31 -31 -31h-31q-31 0 -30 31v1366l-1588 -1374q-27 -23 -36 -23h-99q-31 0 -30 31v1425q-1 31 30 31zM1386 1919h-663q-31 0 -31 31v30q0 31 31 31h663q31 0 31 -31v-30q0 -31 -31 -31z
" />
    <glyph glyph-name="uni04E3" unicode="&#x4e3;" horiz-adv-x="1867" 
d="M184 963h31q31 0 31 -31v-844l1290 854q37 20 49 21h98q31 0 31 -31v-901q0 -31 -31 -31h-30q-31 0 -31 31v846l-1286 -857q-31 -20 -43 -20h-109q-31 0 -30 31v901q-1 31 30 31zM1268 1395h-664q-31 0 -31 30v31q0 31 31 31h664q31 0 30 -31v-31q1 -30 -30 -30z" />
    <glyph glyph-name="uni04E8" unicode="&#x4e8;" horiz-adv-x="2060" 
d="M1845 467v549q0 172 -98 287t-240 114h-954q-143 0 -241 -114q-97 -115 -97 -287v-225h813v-93h-813v-231q0 -172 98 -287t240 -114h954q141 0 240 115q98 116 98 286zM553 1509h954q176 0 303 -143t127 -346v-557q0 -203 -127 -346t-303 -144h-954q-176 -1 -303 143
t-127 347v557q0 203 127 346t303 143z" />
    <glyph glyph-name="uni04E9" unicode="&#x4e9;" horiz-adv-x="1857" 
d="M481 90h897q117 0 196 88t79 213v45h-1448v-45q-1 -125 77 -213t199 -88zM1378 877h-897q-121 1 -199 -89t-77 -215v-45h1448v45q0 125 -79 215t-196 89zM479 969h899q150 0 258 -120t109 -276v-182q0 -157 -109 -275t-258 -118h-899q-151 0 -259 119t-107 274v182
q0 158 107 277t259 119z" />
    <glyph glyph-name="uni04EC" unicode="&#x4ec;" horiz-adv-x="2019" 
d="M528 1509h955q172 0 303 -144t131 -343v-557q0 -197 -131 -344.5t-303 -147.5h-955q-164 0 -294 145.5t-132 332.5q0 31 31 30h31q33 0 33 -30q-2 -152 99 -268.5t232 -116.5h955q137 0 239.5 117.5t102.5 281.5v233h-606q-31 0 -31 31v31q0 31 31 31h606v231
q0 162 -102.5 278.5t-239.5 116.5h-955q-129 0 -230 -114.5t-101 -266.5q0 -31 -33 -30h-31q-31 0 -31 30q2 186 132 329.5t294 143.5zM1384 1866h-59q-31 0 -31 30v84q0 31 31 31h59q31 0 31 -31v-84q0 -30 -31 -30zM748 1866h-62q-31 0 -31 30v84q0 31 31 31h62
q31 0 30 -31v-84q1 -30 -30 -30z" />
    <glyph glyph-name="uni04ED" unicode="&#x4ed;" horiz-adv-x="1804" 
d="M434 969h893q137 0 251 -113t114 -258v-233q0 -145 -114 -256t-251 -111h-893q-184 0 -328 176q-16 23 7 43l26 23q18 16 41 -9q123 -141 258 -141h889q106 0 189 82t83 193v71h-512q-31 0 -30 31v31q0 31 30 30h512v70q0 111 -82.5 195t-189.5 84h-893q-82 0 -164 -68
t-82 -139q4 -25 -34 -25h-33q-29 0 -29 31q2 106 115.5 199.5t226.5 93.5zM1251 1341h-59q-31 0 -31 31v84q0 31 31 31h59q31 0 31 -31v-84q0 -31 -31 -31zM614 1341h-61q-31 0 -31 31v84q0 31 31 31h61q31 0 31 -31v-84q0 -31 -31 -31z" />
    <glyph glyph-name="uni04EE" unicode="&#x4ee;" horiz-adv-x="2166" 
d="M1962 1487h76q22 0 26 -10t-14 -27l-1472 -1438q-14 -12 -37 -12h-70q-49 0 -12 37l534 524l-887 889q-33 37 13 37h78q25 0 36 -12l838 -838l854 838q14 12 37 12zM1415 1919h-663q-31 0 -31 31v30q0 31 31 31h663q31 0 31 -31v-30q0 -31 -31 -31z" />
    <glyph glyph-name="uni04EF" unicode="&#x4ef;" horiz-adv-x="2115" 
d="M1942 963h75q23 -1 27 -11t-14 -26l-1473 -1323q-14 -12 -37 -13h-69q-23 0 -26 10t13 27l516 467l-868 832q-18 16 -14 26t26 11h78q23 0 37 -13l817 -788l875 788q14 13 37 13zM1391 1395h-664q-31 0 -31 30v31q0 31 31 31h664q31 0 30 -31v-31q1 -30 -30 -30z" />
    <glyph glyph-name="Macute" unicode="&#x1e3e;" horiz-adv-x="2289" 
d="M2030 1487h81q31 0 31 -31v-1425q0 -31 -31 -31h-30q-31 0 -31 31v1329l-850 -1329q-18 -31 -39 -31h-35q-20 0 -39 31l-849 1329v-1329q0 -31 -31 -31h-31q-31 0 -31 31v1425q0 31 31 31h82q23 0 41 -31l844 -1341l846 1341q18 31 41 31zM1309 2163h59q39 0 21 -37
l-179 -379q-20 -37 -43 -37h-34q-37 0 -21 37l154 379q12 37 43 37z" />
    <glyph glyph-name="macute" unicode="&#x1e3f;" horiz-adv-x="3346" 
d="M1954 963h895q141 0 242 -113t102 -254v-565q0 -31 -31 -31h-31q-31 0 -30 31v565q0 106 -70 190t-182 84h-889q-86 0 -167 -60t-85 -124q12 -43 12 -90v-565q0 -31 -30 -31h-31q-31 0 -31 31v565q0 110 -66 192t-178 82h-888q-84 0 -166 -60t-84 -124v-655
q0 -31 -31 -31h-31q-31 0 -30 31v901q0 31 30 31h31q31 0 31 -31v-66q111 96 243 97h895q168 0 275 -162q47 68 130 115t165 47zM1671 1186h-35q-37 0 -20 37l153 379q12 37 43 36h60q39 0 20 -36l-178 -379q-20 -37 -43 -37z" />
    <glyph glyph-name="Wgrave" unicode="&#x1e80;" horiz-adv-x="3307" 
d="M3142 1487h61q37 0 16 -37l-727 -1415q-23 -35 -38 -35h-52q-14 0 -18 7t-11 15t-10 13l-710 1323l-709 -1323q-23 -35 -39 -35h-51q-14 0 -18 7t-12 15t-9 13l-727 1415q-20 37 16 37h62q25 0 45 -37l666 -1317l696 1297q20 37 45 36h72q25 0 45 -36l694 -1297l668 1317
q20 37 45 37zM1667 1710h-39q-23 0 -43 37l-178 379q-18 37 20 37h64q31 0 43 -37l154 -379q16 -37 -21 -37z" />
    <glyph glyph-name="wgrave" unicode="&#x1e81;" horiz-adv-x="2938" 
d="M2781 963h66q37 0 12 -35l-643 -893q-27 -35 -45 -35h-35q-23 0 -45 35l-621 839l-618 -839q-27 -35 -45 -35h-37q-18 0 -45 35l-643 893q-25 35 12 35h64q25 0 49 -35l579 -809l592 809q20 35 49 35h86q20 0 50 -35l589 -809l580 809q24 35 49 35zM1475 1186h-39
q-23 0 -43 37l-179 379q-18 37 21 36h63q31 1 43 -36l154 -379q16 -37 -20 -37z" />
    <glyph glyph-name="Wacute" unicode="&#x1e82;" horiz-adv-x="3307" 
d="M3142 1487h61q37 0 16 -37l-727 -1415q-23 -35 -38 -35h-52q-14 0 -18 7t-11 15t-10 13l-710 1323l-709 -1323q-23 -35 -39 -35h-51q-14 0 -18 7t-12 15t-9 13l-727 1415q-20 37 16 37h62q25 0 45 -37l666 -1317l696 1297q20 37 45 36h72q25 0 45 -36l694 -1297l668 1317
q20 37 45 37zM1802 2163h60q39 0 20 -37l-178 -379q-20 -37 -43 -37h-35q-36 0 -20 37l153 379q12 37 43 37z" />
    <glyph glyph-name="wacute" unicode="&#x1e83;" horiz-adv-x="2938" 
d="M2781 963h66q37 0 12 -35l-643 -893q-27 -35 -45 -35h-35q-23 0 -45 35l-621 839l-618 -839q-27 -35 -45 -35h-37q-18 0 -45 35l-643 893q-25 35 12 35h64q25 0 49 -35l579 -809l592 809q20 35 49 35h86q20 0 50 -35l589 -809l580 809q24 35 49 35zM1669 1638
q39 0 21 -36l-179 -379q-20 -37 -43 -37h-34q-37 0 -21 37l154 379q12 37 43 36h59z" />
    <glyph glyph-name="Wdieresis" unicode="&#x1e84;" horiz-adv-x="3307" 
d="M3142 1487h61q37 0 16 -37l-727 -1415q-23 -35 -38 -35h-52q-14 0 -18 7t-11 15t-10 13l-710 1323l-709 -1323q-23 -35 -39 -35h-51q-14 0 -18 7t-12 15t-9 13l-727 1415q-20 37 16 37h62q25 0 45 -37l666 -1317l696 1297q20 37 45 36h72q25 0 45 -36l694 -1297l668 1317
q20 37 45 37zM1911 1896v84q0 31 31 31h59q31 0 31 -31v-84q0 -31 -31 -30h-59q-31 -1 -31 30zM1272 1896v84q0 31 31 31h61q31 0 31 -31v-84q0 -31 -31 -30h-61q-31 -1 -31 30z" />
    <glyph glyph-name="wdieresis" unicode="&#x1e85;" horiz-adv-x="2938" 
d="M2781 963h66q37 0 12 -35l-643 -893q-27 -35 -45 -35h-35q-23 0 -45 35l-621 839l-618 -839q-27 -35 -45 -35h-37q-18 0 -45 35l-643 893q-25 35 12 35h64q25 0 49 -35l579 -809l592 809q20 35 49 35h86q20 0 50 -35l589 -809l580 809q24 35 49 35zM1720 1372v84
q0 31 31 31h59q31 0 31 -31v-84q0 -31 -31 -31h-59q-31 0 -31 31zM1081 1372v84q0 31 31 31h62q31 0 30 -31v-84q0 -31 -30 -31h-62q-31 0 -31 31z" />
    <glyph glyph-name="Ygrave" unicode="&#x1ef2;" 
d="M1806 1487h66q20 0 25 -11t-11 -26l-860 -817v-602q0 -31 -31 -31h-30q-31 0 -31 31v602l-858 817q-16 14 -13 26q4 11 27 11h64q23 0 39 -14l786 -742l788 742q16 14 39 14zM995 1710h-39q-23 0 -43 37l-178 379q-18 37 21 37h63q31 0 43 -37l154 -379q16 -37 -21 -37z
" />
    <glyph glyph-name="ygrave" unicode="&#x1ef3;" horiz-adv-x="2115" 
d="M1942 963h75q23 -1 27 -11t-14 -26l-1473 -1323q-14 -12 -37 -13h-69q-23 0 -26 10t13 27l516 467l-868 832q-18 16 -14 26t26 11h78q23 0 37 -13l817 -788l875 788q14 13 37 13zM897 1638q31 0 43 -36l154 -379q16 -37 -21 -37h-39q-23 0 -43 37l-178 379q-18 37 21 36
h63z" />
    <glyph glyph-name="endash" unicode="&#x2013;" horiz-adv-x="1271" 
d="M1118 436h-964q-31 0 -31 31v31q0 31 31 30h964q31 0 31 -30v-31q0 -31 -31 -31z" />
    <glyph glyph-name="emdash" unicode="&#x2014;" horiz-adv-x="1423" 
d="M1270 436h-1116q-31 0 -31 31v31q0 31 31 30h1116q31 0 30 -30v-31q1 -31 -30 -31z" />
    <glyph glyph-name="quoteleft" unicode="&#x2018;" horiz-adv-x="389" 
d="M229 932h-96q-31 0 -31 31v184q0 69 3 107t27 100t71 114q20 23 41 0l37 -32q27 -27 8 -43q-55 -53 -69 -101t-15 -133l-17 -20h41q31 0 31 -31v-145q0 -31 -31 -31z" />
    <glyph glyph-name="quoteright" unicode="&#x2019;" horiz-adv-x="411" 
d="M172 1487h96q31 0 31 -31v-184q0 -70 -3 -108t-27 -98t-70 -114q-18 -20 -41 0l-37 31q-27 25 -8 43q55 53 69 101t15 133l16 20h-41q-31 0 -31 31v145q0 31 31 31z" />
    <glyph glyph-name="quotesinglbase" unicode="&#x201a;" horiz-adv-x="389" 
d="M160 207h96q31 0 31 -31v-184q0 -68 -4 -108t-28 -100t-71 -114q-18 -20 -41 0l-34 33q-27 27 -9 43q55 53 70 102q14 49 14 132l17 20h-41q-31 0 -31 31v145q0 31 31 31z" />
    <glyph glyph-name="quotedblleft" unicode="&#x201c;" horiz-adv-x="702" 
d="M545 932h-96q-31 0 -31 31v184q0 69 3 107t27 100t70 114q18 23 41 0l35 -32q25 -27 8 -43q-55 -53 -68 -101t-14 -133l-16 -20h41q31 0 30 -31v-145q1 -31 -30 -31zM229 932h-96q-31 0 -31 31v184q0 69 3 107t27 100t71 114q20 23 41 0l37 -32q27 -27 8 -43
q-55 -53 -69 -101t-15 -133l-17 -20h41q31 0 31 -31v-145q0 -31 -31 -31z" />
    <glyph glyph-name="quotedblright" unicode="&#x201d;" horiz-adv-x="720" 
d="M483 1487h97q31 0 30 -31v-184q0 -70 -3 -108t-27 -98t-70 -114q-18 -20 -41 0l-35 31q-25 25 -8 43q55 53 69 101q13 48 13 133l16 20h-41q-31 0 -30 31v145q-1 31 30 31zM170 1487h96q31 0 31 -31v-184q0 -68 -4 -107t-28 -99t-70 -114q-18 -20 -41 0l-35 31
q-25 25 -8 43q55 53 69 102t15 132l16 20h-41q-31 0 -31 31v145q0 31 31 31z" />
    <glyph glyph-name="quotedblbase" unicode="&#x201e;" horiz-adv-x="702" 
d="M473 207h96q31 0 31 -31v-184q0 -70 -3 -108t-27 -99t-70 -115q-18 -20 -41 0l-35 33q-27 27 -8 43q55 53 68 101t14 133l16 20h-41q-31 0 -31 31v145q0 31 31 31zM160 207h96q31 0 31 -31v-184q0 -68 -4 -108t-28 -100t-71 -114q-18 -20 -41 0l-34 33q-27 27 -9 43
q55 53 70 102q14 49 14 132l17 20h-41q-31 0 -31 31v145q0 31 31 31z" />
    <glyph glyph-name="dagger" unicode="&#x2020;" horiz-adv-x="886" 
d="M492 963h282q31 0 31 -31v-31q0 -31 -31 -31h-282v-1106q0 -31 -31 -30h-31q-31 0 -31 30v1106h-286q-31 0 -31 31v31q0 31 31 31h286v501q0 31 31 31h31q31 0 31 -31v-501z" />
    <glyph glyph-name="daggerdbl" unicode="&#x2021;" horiz-adv-x="886" 
d="M492 870v-512h282q31 0 31 -32v-29q0 -31 -31 -31h-282v-502q0 -31 -31 -30h-31q-31 0 -31 30v502h-286q-31 0 -31 31v31q0 31 31 30h286v512h-286q-31 0 -31 31v31q0 31 31 31h286v501q0 31 31 31h31q31 0 31 -31v-501h282q31 0 31 -31v-31q0 -31 -31 -31h-282z" />
    <glyph glyph-name="bullet" unicode="&#x2022;" horiz-adv-x="567" 
d="M164 666v94q0 68 65 67h105q70 0 69 -67v-94q0 -68 -69 -68h-105q-65 0 -65 68z" />
    <glyph glyph-name="ellipsis" unicode="&#x2026;" horiz-adv-x="790" 
d="M592 31v32q0 31 31 31h34q31 0 31 -31v-32q0 -31 -31 -31h-34q-31 0 -31 31zM348 31v32q0 31 31 31h35q31 0 30 -31v-32q0 -31 -30 -31h-35q-31 0 -31 31zM102 31v32q0 31 31 31h35q31 0 31 -31v-32q0 -31 -31 -31h-35q-31 0 -31 31z" />
    <glyph glyph-name="perthousand" unicode="&#x2030;" horiz-adv-x="1939" 
d="M1743 193v16q0 92 -96 92h-19q-94 0 -94 -92v-16q0 -94 94 -95h19q96 1 96 95zM1112 193v16q0 92 -96 92h-19q-94 0 -94 -92v-16q0 -94 94 -95h19q96 1 96 95zM1624 401h27q82 0 135 -54t53 -136v-23q0 -82 -53 -135t-135 -53h-27q-84 0 -136 53t-52 135v23q0 82 53 136
t135 54zM993 401h27q82 0 135 -54t53 -136v-23q0 -82 -53 -135t-135 -53h-27q-84 0 -136 53t-52 135v23q0 82 53 136t135 54zM389 1278v16q0 92 -96 92h-19q-94 0 -94 -92v-16q0 -94 94 -94h19q96 0 96 94zM1047 1487h55q39 0 20 -31l-827 -1425q-18 -31 -41 -31h-55
q-39 0 -21 31l828 1425q18 31 41 31zM270 1487h27q82 0 135 -54t53 -137v-22q0 -82 -52 -135t-136 -54h-27q-82 -1 -135 53t-53 136v22q0 82 53 136t135 55z" />
    <glyph glyph-name="guilsinglleft" unicode="&#x2039;" horiz-adv-x="677" 
d="M565 872v-88q0 -18 -37 -45l-278 -213l278 -211q4 -4 10 -8t10 -7q3 -3 7 -6q10 -8 10 -24v-90q0 -16 -11 -21t-26 5l-385 295q-4 4 -12 8q-18 9 -18 29v61q0 19 13 27t17 12l385 293q14 10 26 5t11 -22z" />
    <glyph glyph-name="guilsinglright" unicode="&#x203a;" horiz-adv-x="677" 
d="M565 557v-61q0 -20 -13 -26t-17 -11l-385 -295q-14 -10 -26 -5q-11 5 -11 21v90q0 18 11 26q11 7 26 19l280 211l-280 213q-37 27 -37 45v88q0 16 11 22q12 5 26 -5l385 -293q4 -4 17 -12t13 -27z" />
    <glyph glyph-name="fraction" unicode="&#x2044;" horiz-adv-x="204" 
d="M463 1487h86q39 0 20 -31l-827 -1425q-18 -31 -41 -31h-86q-39 0 -21 31l828 1425q18 31 41 31z" />
    <glyph glyph-name="Euro" unicode="&#x20ac;" horiz-adv-x="2306" 
d="M2142 481h31q31 0 31 -30q-2 -185 -132 -331t-294 -147h-955q-170 -1 -302 147t-132 345v117h-256q-31 0 -31 30v37q0 31 31 31h256v125h-256q-31 0 -31 31v34q0 31 31 31h256v121q0 197 132 342t302 145h955q164 0 294 -143t132 -330q0 -31 -31 -30h-31q-33 0 -33 30
q0 152 -101 267t-230 114h-955q-137 0 -239 -117t-103 -278v-121h426q31 0 31 -31v-34q0 -31 -31 -31h-426v-125h426q31 0 31 -31v-37q0 -31 -31 -30h-426v-117q1 -164 103 -282t239 -117h955q131 0 232 116t99 269q0 30 33 30z" />
    <glyph glyph-name="hryvnia" unicode="&#x20b4;" horiz-adv-x="1998" 
d="M1823 473h32q31 0 31 -31v-55q0 -180 -129 -296t-301 -116h-913q-176 0 -303 117t-127 301q0 92 32 170q-18 6 -18 29v57q0 31 31 31h69q117 106 308 111l647 14h-1024q-31 0 -31 31v55q0 31 31 31h1571q57 70 57 204t-86 212t-225 79h-926q-133 0 -229 -91t-97 -247v-32
q0 -31 -30 -31h-33q-31 0 -31 31v32q0 187 126 309t294 121h926q171 -1 287 -111t116 -292q0 -106 -41 -184h14q31 0 31 -31v-55q0 -31 -31 -31h-114q-113 -82 -279 -86l-926 -21q-76 -4 -122 -18h1441q31 0 31 -31v-57q0 -31 -31 -31h-1605q-41 -72 -41 -168
q0 -151 98 -237t240 -86h913q137 0 234 84q96 84 100 233l2 55q0 31 31 31z" />
    <glyph glyph-name="uni2116" unicode="&#x2116;" horiz-adv-x="3143" 
d="M2277 371v30q0 31 31 31h692q31 0 31 -31v-30q0 -31 -31 -31h-692q-31 0 -31 31zM2933 981v145q0 106 -68 188t-178 83h-66q-115 0 -181 -81t-64 -190v-145q0 -109 66 -189t179 -81h66q111 0 179 82t67 188zM1937 1487h31q31 0 31 -31v-1425q0 -31 -31 -31h-96
q-10 0 -37 23l-1589 1374v-1366q0 -31 -31 -31h-31q-31 0 -30 31v1425q0 31 30 31h99q10 0 36 -23l1588 -1374v1366q-1 31 30 31zM2623 1491h60q147 0 247 -112t99 -255v-141q0 -143 -99 -255t-247 -112h-60q-149 0 -247 111t-99 256v141q0 145 98 256t248 111z" />
    <glyph glyph-name="uni2120" unicode="&#x2120;" horiz-adv-x="1572" 
d="M1337 1487h123q31 0 31 -31v-463q0 -31 -31 -30h-61q-31 0 -31 30v340l-201 -340q-18 -31 -39 -30h-43q-20 0 -38 30l-201 340v-340q0 -31 -31 -30h-61q-31 0 -31 30v463q0 31 31 31h123q25 0 41 -31l188 -338l190 338q18 31 41 31zM332 952q-120 0 -184 44
q-65 44 -66 112q0 16 18 16h82q18 0 19 -16q1 -39 109 -39t134 7t25 38q0 31 -23 40t-137 14q-227 10 -227 171q0 90 59 125t187 35q248 0 252 -164q0 -18 -15 -18h-82q-18 1 -19 23t-28 32q-28 10 -110 10t-105 -8t-23 -30t6 -32q13 -24 141 -30t183 -47q56 -41 56 -120
t-66 -121t-186 -42z" />
    <glyph glyph-name="trademark" unicode="&#x2122;" horiz-adv-x="1595" 
d="M1360 1487h123q31 0 30 -31v-463q0 -31 -30 -30h-62q-31 0 -30 30v340l-201 -340q-18 -31 -39 -30h-43q-20 0 -39 30l-201 340v-340q0 -31 -30 -30h-62q-31 0 -31 30v463q0 31 31 31h123q25 0 41 -31l188 -338l191 338q18 31 41 31zM113 1487h489q31 0 31 -31v-61
q0 -31 -31 -31h-182v-371q0 -31 -31 -30h-61q-31 0 -31 30v371h-184q-31 0 -31 31v61q0 31 31 31z" />
    <glyph glyph-name="oneeighth" unicode="&#x215b;" horiz-adv-x="1480" 
d="M1071 188q1 -33 23 -52t57 -19t59 19t23 52q0 33 -23 55t-55 21h-6q-33 0 -55 -22t-23 -54zM1149 371h6q33 -1 55 21t23 54q0 32 -24 52q-25 20 -59 20t-56 -19t-23 -53q1 -34 23 -54q22 -21 55 -21zM1358 183q0 -71 -50 -127t-130 -56h-52q-80 0 -130 56t-50 127t70 134
q-70 63 -70 135t50 127q50 56 130 56h52q80 0 130 -56q50 -55 50 -127t-70 -135q70 -63 70 -134zM246 885v571q0 31 30 31h66q31 0 31 -31v-571q0 -31 -31 -31h-66q-30 0 -30 31zM1081 1487h86q39 0 21 -31l-828 -1425q-18 -31 -41 -31h-86q-38 0 -20 31l827 1425
q18 31 41 31z" />
    <glyph glyph-name="threeeighths" unicode="&#x215c;" horiz-adv-x="1515" 
d="M1184 264q-33 0 -56 -22q-22 -22 -22 -54q0 -33 22 -52t58 -19q34 0 58 19t24 52t-23 55t-55 21h-6zM1184 371h6q34 -1 56 21t22 54t-24 52t-58 20t-58 -19q-22 -19 -22 -53t22 -54q22 -21 56 -21zM1393 183q-1 -71 -51 -127t-130 -56h-51q-80 0 -130 56t-50 127t70 134
q-70 63 -70 135t50 127q50 56 130 56h51q80 0 130 -56q50 -55 50 -127t-69 -135q70 -63 70 -134zM1116 1487h86q39 0 21 -31l-828 -1425q-18 -31 -41 -31h-86q-38 0 -20 31l827 1425q18 31 41 31zM350 854h-51q-74 0 -125 51t-51 119v27q0 31 31 30h61q31 0 31 -30v-15
q0 -27 22 -46t56 -19t58 19t24 52t-23 55t-55 21h-47q-31 0 -31 31v45q0 31 31 31h47q34 -1 56 21t22 54t-24 52t-58 20t-57 -19q-22 -19 -21 -46v-15q0 -31 -31 -30h-61q-31 0 -31 30v27q0 68 51 119t125 51h51q80 0 130 -56q50 -55 50 -127t-69 -135q69 -63 69 -134
t-50 -127t-130 -56z" />
    <glyph glyph-name="fiveeighths" unicode="&#x215d;" horiz-adv-x="1515" 
d="M1184 264q-33 0 -56 -22q-22 -22 -22 -54q0 -33 22 -52t58 -19q34 0 58 19t24 52t-23 55t-55 21h-6zM1184 371h6q34 -1 56 21t22 54t-24 52t-58 20t-58 -19q-22 -19 -22 -53t22 -54q22 -21 56 -21zM1393 183q-1 -71 -51 -127t-130 -56h-51q-80 0 -130 56t-50 127t70 134
q-70 63 -70 135t50 127q50 56 130 56h51q80 0 130 -56q50 -55 50 -127t-69 -135q70 -63 70 -134zM1116 1487h86q39 0 21 -31l-828 -1425q-18 -31 -41 -31h-86q-38 0 -20 31l827 1425q18 31 41 31zM530 1044q0 -78 -50 -135t-130 -57h-51q-74 0 -125 51t-51 119v27
q0 31 31 30h61q31 0 31 -30v-15q0 -27 22 -46t54 -19q80 0 84 86q6 128 -110 108q-36 -6 -56 -24h-86q-31 0 -31 30v287q0 31 31 31h325q31 0 31 -31v-57q0 -31 -31 -31h-237v-117q44 23 114 16q174 -17 174 -223z" />
    <glyph glyph-name="seveneighths" unicode="&#x215e;" horiz-adv-x="1495" 
d="M1085 188q1 -33 23 -52t57 -19t59 19t23 52q0 33 -22 55q-23 22 -56 21h-6q-33 0 -55 -22t-23 -54zM1163 371h6q33 -1 56 21t23 54t-24 53q-24 19 -59 19t-57 -19t-23 -53q1 -34 23 -54q22 -21 55 -21zM1192 0h-51q-80 0 -130 56t-50 127t69 134q-70 63 -70 135t51 127
q50 56 130 56h51q80 0 130 -56q50 -55 50 -127t-69 -135q69 -63 69 -134t-50 -127t-130 -56zM1096 1487h86q39 0 20 -31l-827 -1425q-18 -31 -41 -31h-86q-39 0 -21 31l828 1425q18 31 41 31zM510 1456v-59q0 -18 -8 -35l-221 -481q-16 -29 -33 -29h-86q-31 0 -19 29
l219 483h-208q-31 0 -31 31v61q0 31 31 31h325q31 0 31 -31z" />
    <glyph glyph-name="partialdiff" unicode="&#x2202;" horiz-adv-x="1163" 
d="M547 72h84q151 0 229 85t96 273t-68 281q-88 94 -306 96t-302 -94q-84 -95 -82 -281q3 -186 100 -273t249 -87zM528 1509h90q180 -1 292 -117t130 -296q39 -352 9 -682q-18 -205 -130 -320t-288 -114h-84q-182 0 -309 114t-136 328q-8 248 116 370t353 121
q279 0 396 -131q14 145 -23 351q-20 121 -100 205t-226 83h-90q-147 0 -238 -93t-91 -247v-34q0 -31 -31 -31h-33q-31 0 -31 31v34q0 186 123 307t301 121z" />
    <glyph glyph-name="emptyset" unicode="&#x2205;" horiz-adv-x="2060" 
d="M1845 467v549q0 172 -98 287t-240 114h-157l-590 -1351h747q141 0 240 115q98 116 98 286zM215 1016v-549q0 -172 98 -287t240 -114h102l592 1351h-694q-143 0 -241 -114q-97 -115 -97 -287zM553 1509h954q176 0 303 -143t127 -346v-557q0 -203 -127 -346t-303 -144h-954
q-176 -1 -303 143t-127 347v557q0 203 127 346t303 143z" />
    <glyph glyph-name="product" unicode="&#x220f;" horiz-adv-x="1052" 
d="M154 963h747q29 0 29 -31v-901q0 -31 -31 -31h-31q-31 0 -30 31v839h-623v-839q0 -31 -31 -31h-30q-31 0 -31 31v901q0 31 31 31z" />
    <glyph glyph-name="summation" unicode="&#x2211;" horiz-adv-x="1120" 
d="M123 1350v106q0 31 31 31h813q31 0 30 -33v-29q0 -31 -30 -30h-774l518 -582q29 -33 28 -49v-43q0 -16 -28 -49l-518 -578l774 -2q29 0 30 -31l-2 -30q0 -31 -28 -31h-813q-31 0 -31 31v106q0 18 31 58l489 546l-489 551q-31 40 -31 58z" />
    <glyph glyph-name="minus" unicode="&#x2212;" horiz-adv-x="1052" 
d="M154 723h747q29 0 29 -31v-30q0 -31 -31 -31h-745q-31 0 -31 31v30q0 31 31 31z" />
    <glyph glyph-name="radical" unicode="&#x221a;" horiz-adv-x="1247" 
d="M131 688h57q19 0 23 -8t8 -14t6 -11l277 -499l528 1298q12 33 37 33h51q37 0 25 -33l-590 -1421q-12 -33 -39 -33h-29q-19 0 -39 33l-340 622q-14 33 25 33z" />
    <glyph glyph-name="infinity" unicode="&#x221e;" horiz-adv-x="1734" 
d="M1544 522v68q0 145 -79 213t-201 67h-80q-94 0 -170 -54t-99 -150q6 -37 7 -76v-68q0 -39 -7 -73q23 -97 99 -153t170 -56h80q124 0 202 68t78 214zM473 240h78q96 0 171 53t99 149q-8 33 -8 80v68q0 47 8 80q-25 96 -99 148q-75 52 -171 52h-78q-119 0 -200 -68
t-80 -212v-68q0 -143 80 -213q81 -69 200 -69zM1184 963h76q156 1 264 -101t108 -276v-62q0 -172 -108 -273t-264 -101h-76q-96 0 -182 44t-134 123q-49 -79 -133 -123t-184 -44h-76q-153 0 -263 102t-110 272v62q0 172 111 274t262 103h76q217 0 317 -168q50 82 134 125
t182 43z" />
    <glyph glyph-name="integral" unicode="&#x222b;" horiz-adv-x="817" 
d="M715 1456v-31q0 -31 -31 -30h-18q-102 0 -156 -75t-55 -202v-1143q0 -170 -88 -276t-238 -109q-27 2 -27 31v31q0 31 31 31h19q102 1 156 75t54 201v1143q0 170 88 276t238 109q27 -2 27 -31z" />
    <glyph glyph-name="approxequal" unicode="&#x2248;" horiz-adv-x="1058" 
d="M934 504l18 -35q12 -23 -20 -45q-199 -145 -414 -6q-100 63 -175 61t-183 -73q-20 -12 -35 16l-19 35q-12 23 21 45q195 145 412 6q102 -64 177 -62t183 74q21 15 35 -16zM934 793l18 -35q12 -23 -20 -45q-197 -147 -414 -6q-100 63 -175 61t-183 -74q-20 -14 -35 17
l-19 34q-12 23 21 46q195 143 412 6q102 -63 177 -61t183 73q21 15 35 -16z" />
    <glyph glyph-name="notequal" unicode="&#x2260;" horiz-adv-x="817" 
d="M709 1411h43q33 0 20 -31l-215 -493h164q31 0 31 -31v-35q0 -31 -31 -30h-207l-100 -234h307q31 0 31 -31v-34q0 -31 -31 -31h-350l-221 -508q-14 -31 -41 -31h-43q-37 0 -21 31l221 508h-168q-31 0 -30 31v34q0 31 30 31h211l101 234h-312q-31 0 -30 30v35q0 31 30 31
h355l215 493q12 31 41 31z" />
    <glyph glyph-name="lessequal" unicode="&#x2264;" horiz-adv-x="983" 
d="M156 92h673q31 0 31 -31v-30q0 -31 -31 -31h-671q-31 0 -31 31v30q0 31 29 31zM860 1122v-39q0 -37 -20 -49l-572 -336l572 -336q20 -12 20 -49v-39q0 -12 -9 -17t-24 1l-690 408q-14 10 -14 32t14 33l690 408q14 6 24 1q9 -6 9 -18z" />
    <glyph glyph-name="greaterequal" unicode="&#x2265;" horiz-adv-x="983" 
d="M154 92h673q29 0 29 -31v-30q0 -31 -31 -31h-671q-31 0 -31 31v30q0 31 31 31zM123 1083v39q0 12 9 18t24 -1l690 -408q14 -10 14 -33t-14 -32l-690 -408q-14 -6 -24 -1q-9 5 -9 17v39q0 37 20 49l572 336l-572 336q-20 12 -20 49z" />
    <glyph glyph-name="lozenge" unicode="&#x25ca;" horiz-adv-x="931" 
d="M465 139l278 666q6 16 0 26l-276 668l-277 -668q-6 -12 0 -26zM498 0h-64q-27 0 -39 33l-311 774q-4 12 0 24l311 775q10 33 39 32h64q27 0 39 -32l311 -775q4 -12 0 -24l-311 -774q-10 -33 -39 -33z" />
    <glyph glyph-name="i.loclTRK" horiz-adv-x="419" 
d="M164 31v903q0 31 31 31h30q31 0 31 -31v-903q0 -31 -31 -31h-30q-31 0 -31 31zM137 1354v98q0 35 37 35h78q33 0 33 -35v-98q0 -35 -33 -35h-78q-37 0 -37 35z" />
    <glyph glyph-name="zero.lf" horiz-adv-x="2060" 
d="M553 66h954q141 0 240 115q98 116 98 286v549q0 172 -98 287t-240 114h-954q-143 0 -241 -114q-97 -115 -97 -287v-549q0 -172 98 -287q99 -114 240 -114zM553 1509h954q176 0 303 -143t127 -346v-557q0 -203 -127 -346t-303 -144h-954q-176 -1 -303 143t-127 347v557
q0 203 127 346t303 143z" />
    <glyph glyph-name="one.lf" horiz-adv-x="710" 
d="M362 1487h31q31 0 31 -31v-1425q0 -31 -31 -31h-31q-31 0 -30 31v1315l-113 -113q-23 -20 -43 0l-22 20q-20 20 0 43l188 187q12 4 20 4z" />
    <glyph glyph-name="two.lf" horiz-adv-x="1978" 
d="M543 1503h905q170 0 299 -123t129 -297q0 -422 -453 -471l-860 -102q-96 -10 -164 -43q-67 -33 -103 -72q-84 -93 -85 -303h1620q31 0 31 -31v-30q0 -31 -31 -31h-1696q-31 0 -31 31q0 319 109 437t324 146l913 111q334 39 334 358q0 137 -102 233t-234 95h-905
q-131 0 -231 -92t-99 -242v-35q0 -31 -31 -30h-32q-31 0 -31 30v35q0 180 129 303t295 123z" />
    <glyph glyph-name="three.lf" horiz-adv-x="1968" 
d="M1866 379q0 -176 -129 -287t-305 -110h-906q-168 0 -297 114t-127 295v39q0 31 31 31h33q31 0 31 -31v-39q0 -153 98 -235t231 -82h906q141 0 241 79t101 222q0 143 -96 232t-251 95h-1007q-31 0 -31 31v43q0 31 31 31h1007q154 6 243 89t89 218t-98 220t-231 85h-906
q-129 0 -228 -90t-99 -246v-39q0 -31 -31 -30h-33q-31 0 -31 30v39q0 185 129 307t293 121h906q170 -1 296 -117t125 -278q0 -118 -58 -202t-179 -158q252 -152 252 -377z" />
    <glyph glyph-name="four.lf" horiz-adv-x="1945" 
d="M1550 602v330q0 31 31 31h31q31 0 30 -31v-330h181q31 0 30 -31v-30q0 -31 -30 -31h-181v-479q0 -31 -30 -31h-31q-31 0 -31 31v479h-1450q-20 0 -32 20l-19 39q-12 29 4 43l1006 875q27 23 41 22h76q20 0 27 -11t-7 -23l-1016 -873h1370z" />
    <glyph glyph-name="five.lf" horiz-adv-x="1982" 
d="M528 -18q-178 0 -302 114t-124 297v33q0 31 31 31h33q31 0 31 -31v-33q0 -151 94 -235t237 -84h906q145 0 245 86t105 258q10 412 -357 411h-884q-121 0 -239 -84q-48 -35 -73 -43h-77q-31 0 -31 31v39l20 684q0 31 31 31h1606q31 0 30 -31v-31q0 -31 -30 -30h-1538
l-23 -582q12 6 83 47q127 72 265 72h873q200 0 324 -130t116 -380q-8 -211 -136 -326t-310 -114h-906z" />
    <glyph glyph-name="six.lf" horiz-adv-x="1982" 
d="M520 74h918q152 0 248 86t99 272t-79 282q-82 95 -279 95h-901q-358 0 -317 -395q16 -174 89 -257t222 -83zM545 1511h909q178 1 301 -121t123 -309v-34q0 -31 -31 -31h-32q-31 0 -31 31v34q0 154 -91 246t-239 92h-909q-145 0 -225 -83t-101 -203q-37 -205 -22 -351
q117 131 325 131h908q469 0 450 -491q-8 -213 -134 -327t-308 -113h-918q-174 0 -280 112t-125 320q-31 330 8 682q18 182 130 298t292 117z" />
    <glyph glyph-name="seven.lf" horiz-adv-x="1984" 
d="M1892 1456v-49q2 -16 -6 -33q-448 -291 -878 -653t-719 -737q-20 -27 -43 -11l-31 23q-29 20 -12 41q295 375 716 743t822 615h-1618q-31 0 -31 30v31q0 31 31 31h1739q30 0 30 -31z" />
    <glyph glyph-name="eight.lf" horiz-adv-x="1992" 
d="M1798 369v65q0 119 -93 206t-228 87h-959q-135 0 -229 -87t-94 -206v-65q0 -121 93 -208t230 -87h959q135 0 228 87t93 208zM221 1128v-24q0 -123 79 -206t212 -83h969q133 0 212 83t79 206v24q0 119 -81 205t-214 86h-961q-133 0 -214 -86t-81 -205zM1890 440v-63
q0 -156 -124 -276t-291 -119h-955q-168 0 -293 120t-125 275v63q0 96 56 186t147 148q-82 57 -130 141t-48 177v32q0 152 116 270t281 117h946q164 1 280 -117t116 -270v-32q0 -92 -47 -178t-129 -140q90 -59 145 -148t55 -186z" />
    <glyph glyph-name="nine.lf" horiz-adv-x="1982" 
d="M1462 1419h-917q-152 0 -248 -86q-96 -85 -98 -271t80 -281t276 -95h903q357 0 316 393q-16 176 -90 258t-222 82zM1438 -18h-910q-178 0 -301 122t-123 308v34q0 31 31 31h33q31 0 31 -31v-34q0 -154 91 -246t238 -92h912q145 0 224 83t99 203q37 205 23 353
q-113 -133 -326 -133h-905q-471 0 -453 491q8 213 134 327t309 113h917q174 0 281 -112q106 -113 125 -320q31 -330 -8 -682q-18 -183 -130 -299t-292 -116z" />
    <glyph glyph-name="zero.tf" horiz-adv-x="2293" 
d="M670 66h954q141 0 240 115q98 116 98 286v549q0 172 -98 287t-240 114h-954q-143 0 -241 -114q-97 -115 -97 -287v-549q0 -172 98 -287q99 -114 240 -114zM670 1509h954q176 0 303 -143t127 -346v-557q0 -203 -127 -346t-303 -144h-954q-176 -1 -303 143t-127 347v557
q0 203 127 346t303 143z" />
    <glyph glyph-name="one.tf" horiz-adv-x="2293" 
d="M1151 1487h31q31 0 30 -31v-1425q0 -31 -30 -31h-31q-31 0 -31 31v1315l-114 -113q-18 -23 -41 0l-23 20q-20 20 0 43l188 187q13 4 21 4z" />
    <glyph glyph-name="two.tf" horiz-adv-x="2293" 
d="M680 1503h905q170 0 299 -123t129 -297q0 -422 -452 -471l-861 -102q-259 -27 -323 -212q-29 -84 -29 -206h1620q31 0 31 -31v-30q0 -31 -31 -31h-1696q-31 0 -30 31q0 317 115 445q102 111 317 138l913 111q334 39 334 358q0 137 -101 233t-235 95h-905q-131 0 -230 -92
t-100 -242v-35q0 -31 -31 -30h-32q-31 0 -31 30v35q0 180 129 303t295 123z" />
    <glyph glyph-name="three.tf" horiz-adv-x="2293" 
d="M2009 379q0 -176 -129 -287t-305 -110h-905q-168 0 -297 114t-127 295v39q0 31 30 31h33q31 0 31 -31v-39q0 -153 98 -235t232 -82h905q141 0 242 79q100 79 100 222t-95 232t-251 95h-1008q-31 0 -31 31v43q0 31 31 31h1008q154 6 243 89t89 218q-1 135 -99 220t-231 85
h-905q-128 0 -228 -90t-100 -246v-39q0 -31 -31 -30h-33q-31 0 -30 30v39q0 185 129 307t293 121h905q170 -1 296 -117t126 -278q-1 -118 -59 -202t-179 -158q252 -152 252 -377z" />
    <glyph glyph-name="four.tf" horiz-adv-x="2293" 
d="M1712 602v330q0 31 31 31h31q31 0 30 -31v-330h181q31 0 30 -31v-30q0 -31 -30 -31h-181v-479q0 -31 -30 -31h-31q-31 0 -31 31v479h-1450q-20 0 -33 20l-18 39q-12 29 4 43l1006 875q27 23 41 22h75q19 0 27 -11t-6 -23l-1016 -873h1370z" />
    <glyph glyph-name="five.tf" horiz-adv-x="2293" 
d="M662 -18q-178 0 -303 113q-124 114 -123 298v33q0 31 30 31h33q31 0 31 -31v-33q0 -151 94 -235t238 -84h905q145 0 245 86t105 258q6 412 -356 411h-885q-121 0 -239 -84q-48 -35 -75 -43h-75q-31 0 -31 31v39l20 684q0 31 31 31h1606q31 0 31 -31v-31q0 -31 -31 -30
h-1538l-23 -582q14 8 81 47q126 72 265 72h875q201 0 325 -130t115 -380q-8 -211 -136 -326t-310 -114h-905z" />
    <glyph glyph-name="six.tf" horiz-adv-x="2293" 
d="M655 74h918q152 0 248 86t99 272t-79 280q-82 95 -278 95h-901q-359 0 -318 -393q16 -176 89 -258t222 -82zM680 1511h909q178 1 301 -121t123 -309v-34q0 -31 -31 -31h-32q-31 0 -31 31v34q0 154 -91 246t-239 92h-909q-145 0 -225 -83t-101 -203q-37 -205 -22 -353
q119 133 325 133h908q469 0 450 -491q-8 -213 -134 -327t-308 -113h-918q-174 0 -280 112t-125 320q-31 330 8 682q18 182 130 298t292 117z" />
    <glyph glyph-name="seven.tf" horiz-adv-x="2293" 
d="M2025 1456v-49q2 -16 -6 -33q-449 -291 -879 -653t-718 -737q-20 -27 -43 -11l-31 23q-29 20 -12 41q295 375 716 743t822 615h-1618q-31 0 -31 30v31q0 31 31 31h1739q30 0 30 -31z" />
    <glyph glyph-name="eight.tf" horiz-adv-x="2293" 
d="M1927 369v65q0 119 -93 206t-228 87h-959q-135 0 -229 -87t-94 -206v-65q0 -121 93 -208t230 -87h959q135 0 228 87t93 208zM350 1128v-24q0 -123 79 -206t212 -83h969q133 0 212 83t79 206v24q0 119 -81 205t-214 86h-961q-133 0 -214 -86t-81 -205zM2019 440v-63
q0 -156 -124 -276t-291 -119h-955q-168 0 -293 120t-125 275v63q1 96 57 186t146 148q-82 57 -130 141t-48 177v32q0 152 116 270t281 117h946q164 1 280 -117t116 -270v-32q0 -92 -47 -178t-129 -140q90 -59 145 -148t55 -186z" />
    <glyph glyph-name="nine.tf" horiz-adv-x="2293" 
d="M1595 1419h-917q-152 0 -248 -86q-96 -85 -98 -271t80 -281t276 -95h903q357 0 316 393q-16 176 -89 258t-223 82zM1571 -18h-909q-178 0 -302 121q-123 122 -122 309v34q0 31 30 31h33q31 0 31 -31v-34q0 -154 91 -246t239 -92h911q145 0 224 83t99 203q37 205 23 353
q-113 -133 -326 -133h-905q-471 0 -452 491q8 213 134 327t308 113h917q174 0 281 -112q106 -113 125 -320q31 -330 -8 -682q-18 -183 -130 -299t-292 -116z" />
    <glyph glyph-name="zero.dnom" horiz-adv-x="653" 
d="M406 186v263q0 31 -24 50t-58 19t-57 -19q-22 -19 -21 -50v-263q0 -31 22 -50t56 -19t58 19t24 50zM299 635h51q80 0 130 -53t50 -125v-279q0 -72 -50 -125t-130 -53h-51q-72 0 -124 54t-52 124v279q0 70 52 124t124 54z" />
    <glyph glyph-name="one.dnom" horiz-adv-x="618" 
d="M246 31v571q0 31 30 31h66q31 0 31 -31v-571q0 -31 -31 -31h-66q-30 0 -30 31z" />
    <glyph glyph-name="two.dnom" horiz-adv-x="655" 
d="M532 31q0 -31 -30 -31h-344q-31 0 -31 31v49q0 30 11 46t44 50l144 154q4 4 41 37t38 69q1 35 -23 59q-24 23 -58 23t-57 -19q-22 -19 -21 -46v-15q0 -31 -31 -30h-61q-31 0 -31 30v27q0 68 51 119t125 51h51q80 -1 130 -61t50 -126t-34 -114q-34 -49 -97 -113l-104 -104
l207 4q31 0 30 -31v-59z" />
    <glyph glyph-name="three.dnom" horiz-adv-x="653" 
d="M350 0h-51q-74 0 -125 51t-51 119v27q0 31 31 30h61q31 0 31 -30v-15q0 -27 22 -46t56 -19t58 19t24 52t-23 55t-55 21h-47q-31 0 -31 31v45q0 31 31 31h47q34 -1 56 21t22 54t-24 52t-58 20t-57 -19q-22 -19 -21 -46v-15q0 -31 -31 -30h-61q-31 0 -31 30v27q0 68 51 119
t125 51h51q80 0 130 -56q50 -55 50 -127t-69 -135q69 -63 69 -134t-50 -127t-130 -56z" />
    <glyph glyph-name="four.dnom" horiz-adv-x="688" 
d="M383 246v205l-104 -205h104zM506 242h29q31 0 30 -31v-61q0 -31 -30 -31h-29v-88q0 -31 -31 -31h-61q-31 0 -31 31v88h-223q-29 0 -31 31l-6 59q0 8 8 24l217 388q8 14 29 14h98q31 0 31 -31v-362z" />
    <glyph glyph-name="five.dnom" horiz-adv-x="653" 
d="M530 193q0 -77 -50 -135t-130 -58h-51q-74 0 -125 51t-51 119v27q0 31 31 30h61q31 0 31 -30v-15q0 -27 22 -46t54 -19q80 0 84 86q6 128 -110 108q-36 -6 -56 -24h-86q-31 0 -31 30v287q0 31 31 31h325q31 0 31 -31v-57q0 -31 -31 -31h-237v-117q44 23 114 16
q174 -17 174 -222z" />
    <glyph glyph-name="six.dnom" horiz-adv-x="653" 
d="M325 117q81 0 81 95t-81 95t-81 -95t81 -95zM530 193q0 -77 -50 -135t-130 -58h-51q-70 0 -113 48t-53 110t-10 194q0 209 113 260q133 61 264 -24q22 -16 12 -41l-12 -41q-8 -33 -41 -14q-68 45 -158 28q-55 -12 -59 -67l-2 -54q46 23 116 16q174 -17 174 -222z" />
    <glyph glyph-name="seven.dnom" horiz-adv-x="632" 
d="M510 604v-59q0 -18 -8 -35l-221 -481q-16 -29 -33 -29h-86q-31 0 -19 29l219 483h-208q-31 0 -31 31v61q0 31 31 31h325q31 0 31 -31z" />
    <glyph glyph-name="eight.dnom" horiz-adv-x="657" 
d="M326 264q-33 0 -56 -22q-22 -22 -22 -54q0 -33 22 -52t58 -19q34 0 58 19t24 52t-23 55t-55 21h-6zM326 371h6q34 -1 56 21t22 54t-24 52t-58 20t-58 -19q-22 -19 -22 -53t22 -54q22 -21 56 -21zM535 183q-1 -71 -51 -127t-130 -56h-51q-80 0 -130 56t-50 127t70 134
q-70 63 -70 135t50 127q50 56 130 56h51q80 0 130 -56q50 -55 50 -127t-69 -135q70 -63 70 -134z" />
    <glyph glyph-name="nine.dnom" horiz-adv-x="653" 
d="M329 518q-81 0 -81 -95t81 -95t81 95t-81 95zM123 442q0 78 50 136t130 57h51q70 0 113 -48q43 -47 53 -109t10 -195q0 -209 -112 -260q-133 -61 -264 24q-23 16 -13 41l13 41q8 33 41 14q68 -45 157 -28q55 12 60 67l2 54q-45 -23 -116 -16q-175 17 -175 222z" />
    <glyph glyph-name="zero.numr" horiz-adv-x="653" 
d="M406 1038v262q0 30 -24 50t-58 20t-57 -19q-22 -19 -21 -51v-262q0 -31 22 -50t56 -19t58 19t24 50zM299 1487h51q80 0 130 -53t50 -125v-279q0 -72 -50 -125t-130 -53h-51q-72 0 -124 54t-52 124v279q0 70 52 124t124 54z" />
    <glyph glyph-name="one.numr" horiz-adv-x="618" 
d="M246 885v571q0 31 30 31h66q31 0 31 -31v-571q0 -31 -31 -31h-66q-30 0 -30 31z" />
    <glyph glyph-name="two.numr" horiz-adv-x="655" 
d="M532 883q0 -31 -30 -31h-344q-31 0 -31 31v49q0 30 11 46t44 50l144 154q4 4 41 37t38 69q1 35 -23 59q-24 23 -58 23t-57 -19q-22 -19 -21 -46v-15q0 -31 -31 -30h-61q-31 0 -31 30v27q0 68 51 119t125 51h51q80 -1 130 -61t50 -126t-34 -114q-34 -49 -97 -113
l-104 -104l207 4q31 0 30 -31v-59z" />
    <glyph glyph-name="three.numr" horiz-adv-x="653" 
d="M350 854h-51q-74 0 -125 51t-51 119v27q0 31 31 30h61q31 0 31 -30v-15q0 -27 22 -46t56 -19t58 19t24 52t-23 55t-55 21h-47q-31 0 -31 31v45q0 31 31 31h47q34 -1 56 21t22 54t-24 52t-58 20t-57 -19q-22 -19 -21 -46v-15q0 -31 -31 -30h-61q-31 0 -31 30v27
q0 68 51 119t125 51h51q80 0 130 -56q50 -55 50 -127t-69 -135q69 -63 69 -134t-50 -127t-130 -56z" />
    <glyph glyph-name="four.numr" horiz-adv-x="688" 
d="M383 1098v205l-104 -205h104zM506 1094h29q31 0 30 -31v-62q0 -31 -30 -30h-29v-88q0 -31 -31 -31h-61q-31 0 -31 31v88h-223q-29 0 -31 30l-6 60q0 8 8 24l217 388q8 14 29 14h98q31 0 31 -31v-362z" />
    <glyph glyph-name="five.numr" horiz-adv-x="653" 
d="M530 1044q0 -78 -50 -135t-130 -57h-51q-74 0 -125 51t-51 119v27q0 31 31 30h61q31 0 31 -30v-15q0 -27 22 -46t54 -19q80 0 84 86q6 128 -110 108q-36 -6 -56 -24h-86q-31 0 -31 30v287q0 31 31 31h325q31 0 31 -31v-57q0 -31 -31 -31h-237v-117q44 23 114 16
q174 -17 174 -223z" />
    <glyph glyph-name="six.numr" horiz-adv-x="653" 
d="M325 969q81 0 81 95t-81 95t-81 -95t81 -95zM530 1044q0 -78 -50 -135t-130 -57h-51q-70 0 -113 48t-53 110t-10 194q0 209 113 260q133 61 264 -24q22 -16 12 -41l-12 -41q-8 -33 -41 -15q-68 45 -158 29q-55 -12 -59 -67l-2 -54q46 23 116 16q174 -17 174 -223z" />
    <glyph glyph-name="seven.numr" horiz-adv-x="632" 
d="M510 1456v-59q0 -18 -8 -35l-221 -481q-16 -29 -33 -29h-86q-31 0 -19 29l219 483h-208q-31 0 -31 31v61q0 31 31 31h325q31 0 31 -31z" />
    <glyph glyph-name="eight.numr" horiz-adv-x="657" 
d="M326 1116q-33 0 -56 -22q-22 -22 -22 -54q0 -33 22 -52t58 -19q34 0 58 19t24 52t-23 55t-55 21h-6zM326 1223h6q34 -1 56 21t22 54t-24 52t-58 20t-58 -19q-22 -19 -22 -53t22 -54q22 -21 56 -21zM535 1035q-1 -71 -51 -127t-130 -56h-51q-80 0 -130 56t-50 127t70 134
q-70 63 -70 134t50 127t130 57h51q80 0 130 -56q50 -55 50 -127t-69 -135q70 -63 70 -134z" />
    <glyph glyph-name="nine.numr" horiz-adv-x="653" 
d="M329 1372q-81 0 -81 -95t81 -95t81 95t-81 95zM123 1296q0 78 50 136t130 57h51q70 0 113 -48q43 -47 53 -109t10 -195q0 -209 -112 -260q-133 -61 -264 24q-23 16 -13 41l13 41q8 33 41 14q68 -45 157 -28q55 12 60 67l2 54q-45 -23 -116 -16q-175 17 -175 222z" />
    </font>
</defs>
</svg>
