<?xml version="1.0" standalone="no"?>
<!DOCTYPE svg PUBLIC "-//W3C//DTD SVG 1.1//EN" "http://www.w3.org/Graphics/SVG/1.1/DTD/svg11.dtd" >
<svg xmlns="http://www.w3.org/2000/svg">
<metadata>
Created by FontPrep 20130207 at Wed Nov  5 19:40:48 2014
 By Connary
Copyright (c) 2014 by Connary Fagen. All rights reserved.
</metadata>
<defs>
<font id="7961c55476f36afb3b2ba5d3dc375565" horiz-adv-x='1024' >
  <font-face 
    font-family="ManifoldCF-Regular"
    font-weight="400"
    font-stretch="normal"
    units-per-em="2048"
    panose-1="0 0 5 0 0 0 0 0 0 0"
    ascent="1638"
    descent="-410"
    x-height="963"
    cap-height="1487"
    bbox="-411.684 -985 2138 2165"
    underline-thickness="102"
    underline-position="-102"
    unicode-range="U+0020-FB02"
  />
<missing-glyph horiz-adv-x="1024" 
d="M102 1239v-1044l349 522zM164 102h696l-348 523zM573 717l349 -522v1044zM512 809l348 522h-696zM0 0v1434h1024v-1434h-1024z" />
    <glyph glyph-name="fi" unicode="fi" horiz-adv-x="1198" 
d="M930 1487h90q31 0 31 -31v-113q0 -31 -31 -30h-90q-31 0 -31 30v113q0 31 31 31zM344 965h662q31 0 30 -31v-903q0 -31 -30 -31h-62q-31 0 -31 31v811h-569v-811q0 -31 -31 -31h-61q-31 0 -31 31v811h-119q-31 0 -30 30v62q0 31 30 31h119v137q0 174 91 279t243 106h135
q31 0 31 -31v-61q0 -31 -31 -31h-135q-103 0 -157 -69t-54 -193v-137z" />
    <glyph glyph-name="fl" unicode="fl" horiz-adv-x="1202" 
d="M555 1487h453q31 0 30 -31v-1425q0 -31 -30 -31h-62q-31 0 -31 31v1333h-360q-103 0 -157 -69t-54 -193v-139h326q31 0 30 -31v-62q0 -31 -30 -30h-326v-809q0 -31 -31 -31h-61q-31 0 -31 31v809h-119q-31 0 -30 30v62q0 31 30 31h119v139q0 174 91 280t243 105z" />
    <glyph glyph-name="f_t.liga" unicode="ft" horiz-adv-x="1374" 
d="M963 274v566h-619v-809q0 -31 -31 -31h-61q-31 0 -31 31v809h-119q-31 0 -30 30v62q0 31 30 31h119v139q0 174 91 279t243 106h135q31 0 31 -31v-61q0 -31 -31 -31h-135q-103 0 -157 -69t-54 -193v-139h619v213q0 31 30 30h62q31 0 30 -30v-213h152q29 0 31 -27v-66
q0 -31 -31 -30h-152v-557q0 -150 162 -156q33 0 33 -27l2 -71q0 -33 -27 -33q-113 -6 -203 66t-89 212z" />
    <glyph glyph-name=".notdef" horiz-adv-x="1024" 
d="M102 1239v-1044l349 522zM164 102h696l-348 523zM573 717l349 -522v1044zM512 809l348 522h-696zM0 0v1434h1024v-1434h-1024z" />
    <glyph glyph-name=".null" horiz-adv-x="0" 
 />
    <glyph glyph-name="nonmarkingreturn" horiz-adv-x="681" 
 />
    <glyph glyph-name="space" unicode=" " horiz-adv-x="645" 
 />
    <glyph glyph-name="exclam" unicode="!" horiz-adv-x="446" 
d="M154 31v75q0 31 30 31h78q31 0 31 -31v-75q0 -31 -31 -31h-78q-30 0 -30 31zM162 383v1073q0 31 31 31h61q31 0 31 -31v-1073q0 -31 -31 -31h-61q-31 0 -31 31z" />
    <glyph glyph-name="quotedbl" unicode="&#x22;" horiz-adv-x="790" 
d="M498 856v600q0 31 30 31h78q31 0 31 -31v-600q0 -31 -31 -31h-78q-30 0 -30 31zM154 856v600q0 31 30 31h78q31 0 31 -31v-600q0 -31 -31 -31h-78q-30 0 -30 31z" />
    <glyph glyph-name="numbersign" unicode="#" horiz-adv-x="1220" 
d="M780 963h-340v-439h340v439zM903 963v-439h144q31 0 30 -30v-62q0 -31 -30 -31h-144v-370q0 -31 -31 -31h-61q-31 0 -31 31v370h-340v-370q0 -31 -30 -31h-62q-31 0 -31 31v370h-143q-31 0 -31 31v62q0 31 31 30h143v439h-143q-31 0 -31 30v62q0 31 31 30h143v371
q0 31 31 31h62q31 0 30 -31v-371h340v371q0 31 31 31h61q31 0 31 -31v-371h144q31 0 30 -30v-62q0 -31 -30 -30h-144z" />
    <glyph glyph-name="dollar" unicode="$" horiz-adv-x="970" 
d="M745 814q0 72 -47 98t-151 38v-297q86 8 142 49t56 112zM229 1223q0 -63 47 -93t148 -43v297q-195 -9 -195 -161zM868 815q0 -117 -95 -195t-226 -90v-133q0 -31 -31 -30h-61q-31 0 -31 30v133q-115 10 -213 86t-109 181q-4 31 31 30h66q29 0 32 -28q9 -59 65 -99
t128 -47v312q-154 25 -236 84t-82 180t92 195t226 83v133q0 31 31 31h61q31 0 31 -31v-133q117 -16 210 -98t97 -195q0 -33 -29 -32h-63q-35 0 -35 26q-2 68 -54 114t-126 60v-311q157 -25 239 -82t82 -174z" />
    <glyph glyph-name="percent" unicode="%" horiz-adv-x="1290" 
d="M1098 193v14q0 82 -84 82h-17q-82 0 -82 -82v-14q0 -82 82 -82h17q84 0 84 82zM993 401h27q82 0 135 -54t53 -136v-23q0 -82 -53 -135t-135 -53h-27q-84 0 -136 53t-52 135v23q0 82 53 136t135 54zM375 1278v14q0 82 -84 82h-17q-82 0 -81 -82v-14q0 -82 81 -82h17
q84 0 84 82zM1030 1487h86q39 0 21 -31l-828 -1425q-18 -31 -41 -31h-86q-38 0 -20 31l827 1425q18 31 41 31zM270 1487h27q82 0 135 -54t53 -137v-22q0 -82 -52 -135t-136 -54h-27q-82 -1 -135 53t-53 136v22q0 82 53 136t135 55z" />
    <glyph glyph-name="ampersand" unicode="&#x26;" horiz-adv-x="1478" 
d="M512 92h217q176 0 250 119l-539 461l-69 -33q-145 -72 -146 -203v-80q0 -124 78 -194t209 -70zM1348 0h-105q-16 0 -37 16l-135 117q-115 -164 -342 -164h-217q-178 0 -294 109t-116 278v80q0 180 193 291l49 29l-27 22q-92 78 -122 152q-31 74 -31 176v39q0 147 109 257
q110 110 280 109h135q170 1 280 -109t109 -257v-39q0 -184 -112 -277l-66 -55q-20 -16 -49 -16h-78q-20 0 -28 14q-7 14 8 25l51 32q61 41 106 116t45 161v39q0 100 -70 172q-71 72 -196 72h-135q-125 0 -196 -72t-70 -172v-39q0 -88 37 -150t116 -129l576 -491v176
q0 121 47 160l100 80q27 18 37 18h94q20 0 28 -12t-7 -25l-137 -108q-39 -31 -39 -101v-168q-1 -51 -15 -112l242 -207q14 -9 8 -23t-26 -14z" />
    <glyph glyph-name="quotesingle" unicode="'" horiz-adv-x="446" 
d="M154 856v600q0 31 30 31h78q31 0 31 -31v-600q0 -31 -31 -31h-78q-30 0 -30 31z" />
    <glyph glyph-name="parenleft" unicode="(" horiz-adv-x="684" 
d="M256 1245v-1003q0 -125 54 -194t157 -68h53q31 0 31 -31v-62q0 -31 -31 -30h-53q-152 0 -243 105t-91 280v1003q0 173 91 279t243 106h53q31 0 31 -31v-61q0 -31 -31 -31h-53q-102 0 -157 -68q-54 -69 -54 -194z" />
    <glyph glyph-name="parenright" unicode=")" horiz-adv-x="684" 
d="M428 242v1003q0 125 -54 194t-157 68h-53q-31 0 -31 31v61q0 31 31 31h53q152 0 243 -105t91 -280v-1003q0 -174 -91 -280t-243 -105h-53q-31 0 -31 30v62q0 31 31 31h53q102 0 157 68q54 69 54 194z" />
    <glyph glyph-name="asterisk" unicode="*" horiz-adv-x="761" 
d="M440 956q0 -25 -26 -24h-66q-25 0 -24 24v164l-125 -94q-23 -12 -37 8l-33 56q-14 23 8 36l152 84l-152 82q-25 12 -8 37l33 55q14 20 37 9l125 -95v164q0 25 24 25h66q27 0 26 -25v-164l123 95q25 12 37 -9l35 -55q12 -25 -10 -37l-150 -82l150 -84q23 -14 10 -36
l-35 -56q-12 -20 -37 -8l-123 94v-164z" />
    <glyph glyph-name="plus" unicode="+" horiz-adv-x="1052" 
d="M590 723h311q29 0 29 -31v-61q0 -31 -31 -31h-309v-334q0 -31 -31 -30h-61q-31 0 -31 30v334h-313q-31 0 -31 31v61q0 31 31 31h313v332q0 31 31 30h61q31 0 31 -30v-332z" />
    <glyph glyph-name="comma" unicode="," horiz-adv-x="413" 
d="M154 227h127q31 0 30 -30v-205q0 -100 -19 -176t-87 -154q-18 -20 -41 0l-45 41q-25 27 -8 43q68 68 76 146q3 30 3 88l17 20h-53q-31 0 -31 31v166q0 30 31 30z" />
    <glyph glyph-name="hyphen" unicode="-" horiz-adv-x="888" 
d="M715 457h-541q-31 0 -31 30v62q0 31 31 31h541q31 0 30 -31v-62q1 -30 -30 -30z" />
    <glyph glyph-name="period" unicode="." horiz-adv-x="364" 
d="M102 31v116q0 31 31 31h98q31 0 31 -31v-116q0 -31 -31 -31h-98q-31 0 -31 31z" />
    <glyph glyph-name="slash" unicode="/" horiz-adv-x="804" 
d="M709 1487h73q33 0 21 -31l-623 -1425q-16 -31 -41 -31h-73q-37 0 -21 31l623 1425q12 31 41 31z" />
    <glyph glyph-name="zero" unicode="0" horiz-adv-x="1200" 
d="M553 109h94q131 0 219 105t88 261v545q0 156 -88 261t-219 105h-94q-131 0 -219 -105t-88 -261v-545q0 -156 88 -261t219 -105zM553 1509h94q176 0 303 -143t127 -346v-545q0 -203 -127 -346t-303 -143h-94q-176 0 -303 143t-127 346v545q0 203 127 346t303 143z" />
    <glyph glyph-name="one" unicode="1" horiz-adv-x="753" 
d="M375 1487h61q31 0 31 -31v-1425q0 -31 -31 -31h-61q-31 0 -31 31v1269l-104 -102q-20 -23 -43 0l-43 43q-20 20 0 43l200 199q13 4 21 4z" />
    <glyph glyph-name="two" unicode="2" horiz-adv-x="1159" 
d="M629 1503q172 0 300 -122q128 -123 128 -307t-95 -284t-307 -184l-231 -92q-111 -46 -146 -166q-36 -120 -36 -225h770q31 0 30 -31v-61q0 -31 -30 -31h-877q-31 0 -31 31q2 244 52 382q49 138 200 203l299 129q63 27 95 41t74 44t61 61q49 84 49 204q0 119 -90 202
t-215 83h-86q-121 0 -210 -83t-89 -220v-35q0 -31 -31 -30h-63q-31 0 -31 30v35q0 180 128 301t296 125h86z" />
    <glyph glyph-name="three" unicode="3" horiz-adv-x="1148" 
d="M1047 379q0 -176 -129 -287t-306 -110h-86q-168 0 -297 114t-127 295v39q0 31 31 31h64q31 0 30 -31v-39q0 -135 89 -211t210 -76h86q131 0 222 73q90 73 90 206t-84 215t-232 88h-147q-31 0 -31 31v74q0 31 31 30h147q145 6 223 83t78 203t-88 204t-211 78h-86
q-119 0 -208 -83t-89 -223v-39q0 -31 -30 -30h-64q-31 0 -31 30v39q0 185 129 307t293 121h86q170 -1 296 -117t126 -278q0 -126 -58 -210t-179 -150q252 -135 252 -377z" />
    <glyph glyph-name="four" unicode="4" horiz-adv-x="1128" 
d="M719 627v305q0 31 31 31h61q31 0 31 -31v-305h164q31 0 30 -31v-61q0 -31 -30 -31h-164v-473q0 -31 -31 -31h-61q-31 0 -31 31v473h-621q-25 0 -32 20l-19 45q-10 23 4 45l576 873q14 23 41 22h80q20 0 25 -11t-5 -25l-555 -846h506z" />
    <glyph glyph-name="five" unicode="5" horiz-adv-x="1161" 
d="M528 -18q-178 0 -302 114t-124 297v33q0 31 31 31h64q31 0 30 -31v-33q0 -137 84 -213t217 -76h86q135 0 226 78q90 78 94 236q10 381 -326 381h-59q-120 0 -227 -73q-47 -32 -66 -40h-102q-31 0 -31 31v39l20 700q0 31 31 31h787q31 0 30 -31v-61q0 -31 -30 -31h-691
l-20 -537q26 13 42 24t36 21t39 20t40 16q21 4 41 10q50 14 121 14h52q201 0 325 -130t115 -380q-8 -211 -136 -326t-311 -114h-86z" />
    <glyph glyph-name="six" unicode="6" horiz-adv-x="1163" 
d="M522 104h96q135 0 225 78q89 78 92 252t-70 263t-253 89h-73q-181 0 -249 -94t-52 -266t86 -247t198 -75zM635 1511q178 1 301 -121t123 -309v-34q0 -31 -31 -31h-63q-31 0 -31 31v34q0 141 -83 225t-216 83h-90q-129 0 -203 -75t-92 -188q-31 -176 -21 -319
q109 113 308 113h75q467 0 449 -498q-8 -213 -134 -327t-309 -113h-96q-176 0 -282 114t-125 318q-31 330 8 682q18 180 130 296t292 119h90z" />
    <glyph glyph-name="seven" unicode="7" horiz-adv-x="1165" 
d="M1073 1456v-59q2 -16 -6 -33q-535 -600 -762 -1380q-8 -23 -43 -11l-65 23q-23 8 -11 43q213 752 740 1325h-803q-31 0 -31 31v61q0 31 31 31h919q31 0 31 -31z" />
    <glyph glyph-name="eight" unicode="8" horiz-adv-x="1173" 
d="M948 371v69q0 109 -83 189t-206 80h-145q-123 0 -206 -80t-83 -189v-69q0 -109 83 -188t206 -79h145q123 0 206 79t83 188zM252 1128v-36q0 -111 71 -186t191 -75h145q121 0 192 75t71 186v36q0 106 -74 184t-193 77h-137q-118 1 -192 -77t-74 -184zM1071 440v-69
q0 -156 -122 -273t-290 -116h-145q-168 0 -290 116t-122 273v69q0 98 54 188t143 144q-80 51 -126 136t-46 184v36q0 152 114 268t277 115h137q164 1 278 -115t114 -268v-36q-1 -98 -47 -184t-126 -136q88 -55 142 -144t55 -188z" />
    <glyph glyph-name="nine" unicode="9" horiz-adv-x="1165" 
d="M643 1389h-96q-135 0 -224 -78t-93 -252t70 -263q73 -89 253 -89h74q180 0 249 94q68 94 52 266t-86 247t-199 75zM530 -18q-178 0 -301 122t-123 308v34q0 31 31 31h64q31 0 30 -31v-34q0 -140 83 -224t216 -84h91q129 0 203 75t91 188q31 176 21 319
q-109 -113 -307 -113h-76q-467 0 -449 498q8 213 134 327t309 113h96q176 0 283 -113q106 -114 125 -319q31 -330 -9 -682q-18 -179 -130 -295t-291 -120h-91z" />
    <glyph glyph-name="colon" unicode=":" horiz-adv-x="466" 
d="M154 31v116q0 31 30 31h99q31 0 30 -31v-116q0 -31 -30 -31h-99q-30 0 -30 31zM154 815v117q0 31 30 31h99q31 0 30 -31v-117q0 -31 -30 -31h-99q-30 0 -30 31z" />
    <glyph glyph-name="semicolon" unicode=";" horiz-adv-x="471" 
d="M231 -223h-26q-12 0 -19 11q-6 11 2 24q53 78 37 180l8 8h-49q-31 0 -30 31v157q0 31 30 31h99q26 0 30 -33q21 -293 -51 -391q-14 -18 -31 -18zM154 815v117q0 31 30 31h99q31 0 30 -31v-117q0 -31 -30 -31h-99q-30 0 -30 31z" />
    <glyph glyph-name="less" unicode="&#x3c;" horiz-adv-x="983" 
d="M860 907v-69q0 -37 -20 -50l-531 -305l531 -305q20 -12 20 -49v-70q0 -12 -9 -17t-24 1l-686 395q-18 12 -18 45t18 45l686 396q14 6 24 1q9 -6 9 -18z" />
    <glyph glyph-name="equal" unicode="=" horiz-adv-x="929" 
d="M776 436h-622q-31 0 -31 31v61q0 31 31 31h622q31 0 31 -31v-61q0 -31 -31 -31zM776 764h-622q-31 0 -31 31v61q0 31 31 31h622q31 0 31 -31v-61q0 -31 -31 -31z" />
    <glyph glyph-name="greater" unicode="&#x3e;" horiz-adv-x="983" 
d="M123 838v69q0 11 9 17t24 0l686 -396q18 -12 18 -45t-18 -45l-686 -395q-14 -6 -24 -1q-9 5 -9 17v70q0 37 20 49l531 305l-531 305q-20 13 -20 50z" />
    <glyph glyph-name="question" unicode="?" horiz-adv-x="1040" 
d="M389 31v75q0 31 31 31h78q31 0 30 -31v-75q0 -31 -30 -31h-78q-31 0 -31 31zM475 1513h86q168 -1 288 -123t120 -294t-74 -258q-74 -88 -193 -132q-118 -44 -150 -71t-32 -98v-154q0 -31 -31 -31h-61q-31 0 -31 31v154q0 109 48 165t167 102t176 103q58 57 58 185
t-81 214t-204 85h-86q-119 0 -199 -85t-79 -225v-39q0 -31 -31 -30h-64q-31 0 -30 30v39q-2 184 117 309q120 123 286 123z" />
    <glyph glyph-name="at" unicode="@" horiz-adv-x="1282" 
d="M590 418h20q52 0 96 22t63 41q19 20 56 68v129h-207q-166 0 -165 -133q-1 -57 35 -92t102 -35zM885 127v-76q0 -27 -23 -37q-88 -41 -170 -41h-94q-195 -1 -335 139t-140 353v559q0 213 140 350t335 137h94q188 0 328 -136t139 -337v-575q0 -76 -42 -121t-109 -45h-25
q-41 0 -80 30t-53 72q-104 -104 -240 -104h-20q-111 0 -186 73q-74 72 -74 180t80 180t208 73h207v10q0 111 -40 162t-123 51h-35q-53 0 -95 -14t-56 -26q-15 -12 -45 -37q-30 -26 -48 -3l-37 43q-18 23 -2 41q109 119 283 119h35q130 0 208 -90t78 -246v-348q0 -45 44 -45
t44 45v575q0 156 -101 253t-243 98h-94q-150 1 -251 -99t-101 -266v-559q0 -166 102 -267t250 -102h94q78 0 156 47q37 23 37 -16z" />
    <glyph glyph-name="A" unicode="A" horiz-adv-x="1234" 
d="M854 545l-233 753l-240 -753h473zM1114 0h-61q-31 0 -39 33l-121 389h-551l-123 -389q-8 -33 -37 -33h-63q-35 0 -23 33l451 1427q10 33 39 33h65q29 0 39 -33l449 -1427q12 -33 -25 -33z" />
    <glyph glyph-name="B" unicode="B" horiz-adv-x="1193" 
d="M256 123h424q147 0 214 63q67 62 67 204t-71 225t-204 83h-430v-575zM256 821h434q117 0 176 79t60 210q0 254 -262 254h-408v-543zM680 0h-510q-37 0 -37 37v1413q0 37 37 37h494q176 0 280 -99t105 -278q0 -262 -168 -346q203 -84 202 -377q0 -387 -403 -387z" />
    <glyph glyph-name="C" unicode="C" horiz-adv-x="1159" 
d="M965 481h61q31 0 31 -30q-2 -190 -130 -334t-296 -144h-94q-174 0 -304.5 145.5t-130.5 346.5v557q0 201 129 344t306 143h94q168 0 296 -141t130 -332q0 -31 -31 -30h-61q-33 0 -33 30q0 143 -89 246.5t-212 103.5h-94q-129 0 -220.5 -104t-91.5 -260v-557
q0 -156 91.5 -262.5t220.5 -106.5h94q123 0 213 104.5t88 250.5q0 30 33 30z" />
    <glyph glyph-name="D" unicode="D" horiz-adv-x="1181" 
d="M946 481v525q0 150 -90 254t-213 104h-397v-1241h397q123 0 213 104t90 254zM154 1487h489q168 1 297 -143t129 -338v-525q0 -195 -129 -338t-297 -143h-489q-31 0 -31 31v1425q0 31 31 31z" />
    <glyph glyph-name="E" unicode="E" horiz-adv-x="1128" 
d="M256 811h596q31 0 31 -31v-61q0 -31 -31 -31h-596v-565h729q31 0 31 -31v-61q0 -31 -31 -31h-821q-31 0 -31 31v1425q0 31 31 31h821q31 0 31 -31v-61q0 -31 -31 -31h-729v-553z" />
    <glyph glyph-name="F" unicode="F" horiz-adv-x="1118" 
d="M276 791h596q31 0 31 -31v-62q0 -31 -31 -30h-596v-637q0 -31 -30 -31h-62q-31 0 -30 31v1425q0 31 30 31h822q31 0 30 -31v-61q0 -31 -30 -31h-730v-573z" />
    <glyph glyph-name="G" unicode="G" horiz-adv-x="1181" 
d="M625 770h413q31 0 31 -31v-280q0 -199 -128 -342.5t-300 -143.5h-94q-178 0 -306 142.5t-128 343.5v563q0 201 129 344t305 143h94q168 0 296 -141t130 -332q0 -31 -31 -30h-61q-33 0 -33 30q0 145 -89 247.5t-212 102.5h-94q-129 0 -220 -104t-91 -260v-563
q0 -154 90 -258.5t221 -104.5h94q125 0 214 104.5t89 258.5v188h-319q-31 0 -31 31v61q0 31 31 31z" />
    <glyph glyph-name="H" unicode="H" horiz-adv-x="1230" 
d="M995 1487h62q31 0 30 -31v-1425q0 -31 -30 -31h-62q-31 0 -30 31v616h-699v-616q0 -31 -30 -31h-62q-31 0 -31 31v1425q0 31 31 31h62q31 0 30 -31v-686h699v686q-1 31 30 31z" />
    <glyph glyph-name="I" unicode="I" horiz-adv-x="471" 
d="M174 31v1425q0 31 31 31h61q31 0 31 -31v-1425q0 -31 -31 -31h-61q-31 0 -31 31z" />
    <glyph glyph-name="J" unicode="J" horiz-adv-x="1081" 
d="M479 109h53q125 0 214 102t90 256v989q0 31 30 31h62q31 0 30 -31v-989q0 -203 -128 -342t-298 -139h-53q-125 0 -235 81t-158 207q-13 27 16 41l60 25q27 12 37 -18q35 -94 112 -154q78 -59 168 -59z" />
    <glyph glyph-name="K" unicode="K" horiz-adv-x="1179" 
d="M1075 0h-80q-27 0 -55 29l-614 608l-80 -88v-518q0 -31 -31 -31h-61q-31 0 -31 31v1425q0 31 31 31h61q31 0 31 -31v-725l641 727q25 29 39 29h90q16 0 20 -15.5t-12 -35.5l-612 -703l675 -684q12 -12 9.5 -30.5t-21.5 -18.5z" />
    <glyph glyph-name="L" unicode="L" horiz-adv-x="1159" 
d="M276 123h730q31 0 30 -31v-61q0 -31 -30 -31h-822q-31 0 -30 31v1425q0 31 30 31h62q31 0 30 -31v-1333z" />
    <glyph glyph-name="M" unicode="M" horiz-adv-x="1454" 
d="M1157 1487h123q31 0 31 -31v-1425q0 -31 -31 -31h-61q-31 0 -31 31v1261l-395 -1261q-10 -31 -39 -31h-64q-31 0 -39 31l-395 1261v-1261q0 -31 -31 -31h-61q-31 0 -31 31v1425q0 31 31 31h123q33 0 41 -31l393 -1259l395 1259q10 31 41 31z" />
    <glyph glyph-name="N" unicode="N" horiz-adv-x="1292" 
d="M1067 1487h61q31 0 31 -31v-1425q0 -31 -31 -31h-143q-27 0 -37 23l-692 1341v-1333q0 -31 -31 -31h-61q-31 0 -31 31v1425q0 31 31 31h143q25 0 37 -23l692 -1341v1333q0 31 31 31z" />
    <glyph glyph-name="O" unicode="O" horiz-adv-x="1200" 
d="M553 109h94q131 0 219 105t88 261v545q0 156 -88 261t-219 105h-94q-131 0 -219 -105t-88 -261v-545q0 -156 88 -261t219 -105zM553 1509h94q176 0 303 -143t127 -346v-545q0 -203 -127 -346t-303 -143h-94q-176 0 -303 143t-127 346v545q0 203 127 346t303 143z" />
    <glyph glyph-name="P" unicode="P" horiz-adv-x="1165" 
d="M262 770h395q276 0 277 297q0 297 -277 297h-395v-594zM170 1487h487q184 0 292 -113q108 -114 108 -308t-108 -306t-292 -113h-395v-616q0 -31 -31 -31h-61q-31 0 -31 31v1425q0 31 31 31z" />
    <glyph glyph-name="Q" unicode="Q" horiz-adv-x="1202" 
d="M553 109h94q94 0 170 57l-125 125q-20 20 0 45l43 43q23 23 43 0l121 -121q55 98 55 217v545q0 156 -88 261t-219 105h-94q-131 0 -219 -105t-88 -261v-545q0 -156 88 -261t219 -105zM647 -14h-94q-176 0 -303 143t-127 346v545q0 203 127 346t303 143h94q176 0 303 -143
t127 -346v-545q0 -168 -92 -303l84 -84q20 -20 0 -45l-43 -43q-23 -20 -43 0l-82 82q-113 -96 -254 -96z" />
    <glyph glyph-name="R" unicode="R" horiz-adv-x="1161" 
d="M246 770h395q276 0 276.5 297t-276.5 297h-395v-594zM1049 377v-346q0 -31 -31 -31h-62q-31 0 -30 31v340q0 143 -71 209.5t-191 66.5h-418v-616q0 -31 -31 -31h-61q-31 0 -31 31v1425q0 31 31 31h487q184 0 291.5 -112.5t107.5 -307.5q1 -243 -161 -354
q170 -102 170 -336z" />
    <glyph glyph-name="S" unicode="S" horiz-adv-x="1179" 
d="M524 1509h107q168 0 294 -121.5t126 -308.5v-35q0 -31 -31 -30h-64q-31 0 -30 30v35q0 139 -87 223t-208 84h-107q-125 0 -202.5 -72.5t-77.5 -204.5t74.5 -194.5t220.5 -89.5l108 -20q420 -80 420 -412q0 -184 -127 -301t-303 -117h-94q-172 0 -301 116t-129 296v55
q0 31 30 31h64q31 0 31 -31l2 -55q4 -135 91 -212t212 -77h94q129 0 218 80t89 217t-76.5 198.5t-220.5 88.5l-108 20q-418 78 -418 404q0 180 115.5 291.5t287.5 111.5z" />
    <glyph glyph-name="T" unicode="T" horiz-adv-x="1103" 
d="M102 1487h899q31 0 31 -31v-61q0 -31 -31 -31h-387v-1333q0 -31 -30 -31h-62q-31 0 -30 31v1333h-390q-31 0 -30 31v61q-1 31 30 31z" />
    <glyph glyph-name="U" unicode="U" horiz-adv-x="1171" 
d="M967 1487h61q31 0 31 -31v-1010q0 -200 -125 -330t-322 -130h-53q-197 0 -321 131t-125 329v1010q0 31 30 31h62q31 0 31 -31v-1010q0 -152 87 -244t236 -93h53q150 0 237 93t87 244v1010q0 31 31 31z" />
    <glyph glyph-name="V" unicode="V" horiz-adv-x="1210" 
d="M113 1487h69q29 0 37 -33l385 -1249l387 1249q8 33 37 33h70q33 0 24 -33l-446 -1421q-10 -33 -39 -33h-64q-28 0 -38 33l-447 1421q-8 33 25 33z" />
    <glyph glyph-name="W" unicode="W" horiz-adv-x="1880" 
d="M1702 1487h67q33 0 27 -31l-348 -1425q-8 -31 -39 -31h-61q-31 0 -39 31l-369 1257l-369 -1257q-8 -31 -39 -31h-61q-33 0 -39 31l-348 1425q-8 31 25 31h67q31 0 37 -31l293 -1245l360 1245q10 31 39 31h70q29 0 39 -31l362 -1245l291 1245q6 31 35 31z" />
    <glyph glyph-name="X" unicode="X" horiz-adv-x="1134" 
d="M1008 0h-74q-25 0 -41 31l-326 590l-325 -590q-16 -31 -41 -31h-74q-37 0 -21 31l394 712l-394 713q-16 31 21 31h74q25 0 41 -31l325 -590l326 590q16 31 41 31h74q37 0 20 -31l-393 -713l393 -712q16 -31 -20 -31z" />
    <glyph glyph-name="Y" unicode="Y" horiz-adv-x="1171" 
d="M993 1487h80q39 0 21 -31l-449 -803v-622q0 -31 -31 -31h-61q-31 0 -31 31v622l-444 803q-18 31 20 31h80q23 0 41 -31l365 -665l368 665q18 31 41 31z" />
    <glyph glyph-name="Z" unicode="Z" horiz-adv-x="1107" 
d="M1006 1456v-65q0 -10 -7 -19l-743 -1249h719q31 0 31 -31v-61q0 -31 -31 -31h-842q-31 0 -31 31v65q0 10 7 19l743 1249h-719q-31 0 -31 31v61q0 31 31 31h842q31 0 31 -31z" />
    <glyph glyph-name="bracketleft" unicode="[" horiz-adv-x="595" 
d="M256 1507v-1527h176q31 0 31 -31v-62q0 -31 -31 -30h-268q-31 0 -31 30v1712q0 31 31 31h268q31 0 31 -31v-61q0 -31 -31 -31h-176z" />
    <glyph glyph-name="backslash" unicode="\" horiz-adv-x="804" 
d="M739 0h-73q-27 0 -41 31l-623 1425q-12 31 21 31h73q29 0 41 -31l623 -1425q14 -31 -21 -31z" />
    <glyph glyph-name="bracketright" unicode="]" horiz-adv-x="595" 
d="M164 1630h268q31 0 31 -31v-1712q0 -31 -31 -30h-268q-31 0 -31 30v62q0 31 31 31h176v1527h-176q-31 0 -31 31v61q0 31 31 31z" />
    <glyph glyph-name="asciicircum" unicode="^" horiz-adv-x="800" 
d="M674 932h-74q-29 0 -41 31l-160 362l-159 -362q-12 -31 -41 -31h-74q-33 0 -21 31l218 493q10 31 40 31h74q27 0 41 -31l217 -493q12 -31 -20 -31z" />
    <glyph glyph-name="underscore" unicode="_" horiz-adv-x="1196" 
d="M1063 0h-930q-31 0 -31 31v61q0 31 31 31h930q31 0 31 -31v-61q0 -31 -31 -31z" />
    <glyph glyph-name="grave" unicode="`" horiz-adv-x="522" 
d="M393 1186h-65q-23 0 -43 37l-179 379q-18 37 21 36h90q31 1 43 -36l154 -379q16 -37 -21 -37z" />
    <glyph glyph-name="a" unicode="a" horiz-adv-x="978" 
d="M383 121h109q78 2 131 39t104 102v178h-344q-168 0 -168 -157q0 -70 50 -116t118 -46zM848 0h-88q-33 0 -33 49v64q-119 -115 -235 -115h-109q-113 -4 -202 82t-89 207t82 199t209 77h344v47q0 111 -54 172t-138 62h-103q-84 0 -127 -18t-80 -60q-23 -23 -47 0l-41 41
q-20 20 -2 41q53 66 121 92t176 27h103q129 -1 222 -101t93 -256v-561q0 -15 4 -32t-6 -17z" />
    <glyph glyph-name="b" unicode="b" horiz-adv-x="1011" 
d="M786 346v250q0 96 -61 170t-160 74h-76q-77 0 -149 -56t-74 -116v-441q45 -43 111 -73t112 -31h76q88 0 155 66q66 67 66 157zM489 963h76q141 0 243 -113t101 -254v-250q0 -138 -105 -242t-239 -104h-76q-113 0 -223 80v-49q0 -31 -30 -31h-62q-31 0 -31 31v1425
q0 31 31 31h62q31 0 30 -31v-577q106 84 223 84z" />
    <glyph glyph-name="c" unicode="c" horiz-adv-x="985" 
d="M864 643h-63q-35 0 -35 27q-2 61 -71.5 118.5t-143.5 57.5h-74q-94 0 -167.5 -74t-73.5 -174v-233q0 -100 72.5 -172t168.5 -72h74q119 0 231 131q23 25 43 6l47 -41q23 -20 7 -43q-143 -176 -328 -176h-74q-139 0 -251.5 110.5t-112.5 256.5v233q0 145 112.5 258
t251.5 113h74q117 0 228.5 -93.5t113.5 -199.5q0 -33 -29 -33z" />
    <glyph glyph-name="d" unicode="d" horiz-adv-x="1028" 
d="M457 840q-97 0 -159 -74t-62 -170v-250q0 -90 66 -157t155 -66h82q47 1 113 31t110 73v441q-2 61 -74 116t-149 56h-82zM793 1487h61q31 0 31 -31v-1425q0 -31 -31 -31h-61q-31 0 -31 31v49q-111 -80 -223 -80h-82q-133 0 -239 104q-105 104 -105 242v250q0 141 101 254
t243 113h82q117 0 223 -84v577q0 31 31 31z" />
    <glyph glyph-name="e" unicode="e" horiz-adv-x="1005" 
d="M780 569v29q0 106 -73.5 177t-151.5 71h-78q-94 0 -167.5 -74t-73.5 -174v-29h544zM477 969h78q123 0 235.5 -108.5t112.5 -260.5v-92q0 -61 -61 -62h-606v-81q0 -100 72.5 -172t168.5 -72h78q119 0 231 131q23 25 43 6l48 -41q23 -20 6 -43q-143 -176 -328 -176h-78
q-139 0 -251.5 110.5t-112.5 256.5v233q0 145 112.5 258t251.5 113z" />
    <glyph glyph-name="f" unicode="f" horiz-adv-x="751" 
d="M555 1487h135q31 0 31 -31v-61q0 -31 -31 -31h-135q-103 0 -157 -69t-54 -193v-139h326q31 0 30 -31v-62q0 -31 -30 -30h-326v-809q0 -31 -31 -31h-61q-31 0 -31 31v809h-119q-31 0 -30 30v62q0 31 30 31h119v139q0 174 91 280t243 105z" />
    <glyph glyph-name="g" unicode="g" horiz-adv-x="1001" 
d="M477 121h51q113 0 224 110v431q0 61 -72 121t-143 61h-80q-92 0 -162 -76t-70 -170v-233q0 -92 79 -168t173 -76zM782 963h66q31 0 31 -31v-1034q1 -115 -101 -211t-235 -97h-51q-100 0 -196 58t-149 151q-18 29 19 39l59 15q25 6 41 -17q34 -53 98 -88t128 -35h51
q65 0 137 51t72 130v176q-111 -72 -224 -72h-51q-139 0 -257 115t-118 252v233q0 139 109 254t246 115h80q111 0 215 -84v49q-1 31 30 31z" />
    <glyph glyph-name="h" unicode="h" horiz-adv-x="1042" 
d="M500 963h75q141 0 243 -113t102 -254v-565q0 -31 -31 -31h-62q-31 0 -30 31v565q1 96 -61 170t-161 74h-75q-78 0 -150 -56t-74 -116v-637q0 -31 -30 -31h-62q-31 0 -30 31v1425q0 31 30 31h62q31 0 30 -31v-577q107 84 224 84z" />
    <glyph glyph-name="i" unicode="i" horiz-adv-x="446" 
d="M162 31v903q0 31 31 31h61q31 0 31 -31v-903q0 -31 -31 -31h-61q-31 0 -31 31zM147 1343v113q0 31 31 31h90q31 0 31 -31v-113q0 -31 -31 -30h-90q-31 -1 -31 30z" />
    <glyph glyph-name="j" unicode="j" horiz-adv-x="442" 
d="M156 -106v1040q0 31 30 31h62q31 0 31 -31v-1036q1 -90 -63 -173t-161 -118q-29 -11 -39 20l-20 64q-8 27 18 37q57 20 100 64q42 44 42 102zM139 1343v113q0 31 31 31h90q31 0 31 -31v-113q0 -31 -31 -30h-90q-31 -1 -31 30z" />
    <glyph glyph-name="k" unicode="k" horiz-adv-x="1056" 
d="M174 1487h62q31 0 30 -31v-932l459 414q29 25 45 25h84q10 0 18.5 -10.5t5 -27t-17.5 -28.5l-381 -350l443 -500q14 -14 11 -30.5t-24 -16.5h-75q-29 0 -56 29l-395 438l-117 -100v-336q0 -31 -30 -31h-62q-31 0 -31 31v1425q0 31 31 31z" />
    <glyph glyph-name="l" unicode="l" horiz-adv-x="450" 
d="M164 31v1425q0 31 31 31h61q31 0 31 -31v-1425q0 -31 -31 -31h-61q-31 0 -31 31z" />
    <glyph glyph-name="m" unicode="m" horiz-adv-x="1701" 
d="M1130 963h76q144 0 246 -112t102 -255v-565q0 -31 -30 -31h-62q-31 0 -30 31v565q0 96 -62 170t-164 74h-76q-76 0 -148 -54t-75 -114q8 -33 8 -76v-565q0 -31 -30 -31h-62q-31 0 -30 31v565q-1 98 -61 171t-157 73h-75q-78 0 -150 -56t-74 -116v-637q0 -31 -30 -31h-62
q-31 0 -30 31v901q0 31 30 31h62q31 0 30 -31v-53q106 84 224 84h75q164 0 269 -148q52 66 130 107t156 41z" />
    <glyph glyph-name="n" unicode="n" horiz-adv-x="1036" 
d="M483 963h86q141 0 242.5 -113t101.5 -254v-565q0 -31 -30 -31h-62q-31 0 -30 31v565q0 96 -61.5 170t-160.5 74h-86q-78 0 -149.5 -55.5t-73.5 -116.5v-637q0 -31 -31 -31h-61q-31 0 -31 31v901q0 31 31 31h61q31 0 31 -31v-53q106 84 223 84z" />
    <glyph glyph-name="o" unicode="o" horiz-adv-x="1038" 
d="M803 385v193q0 112 -70 190t-174 78h-80q-109 0 -177 -79t-66 -189v-193q0 -111 68 -187t175 -77h80q106 1 175 77t69 187zM479 969h80q151 0 259 -118t108 -273v-193q0 -155 -108 -271t-259 -116h-80q-154 0 -260 116t-106 271v193q0 156 106 274t260 117z" />
    <glyph glyph-name="p" unicode="p" horiz-adv-x="1038" 
d="M793 346v250q1 96 -61 170t-161 74h-82q-77 0 -149 -56t-74 -116v-441q45 -43 111 -73t112 -31h82q88 1 155 67t67 156zM489 963h82q141 0 243 -113t101 -254v-250q0 -138 -105 -242t-239 -104h-82q-113 0 -223 80v-459q0 -31 -30 -31h-62q-31 0 -31 31v1311q0 31 31 31
h62q31 0 30 -31v-53q106 84 223 84z" />
    <glyph glyph-name="q" unicode="q" horiz-adv-x="1038" 
d="M467 840q-97 0 -159 -74t-62 -170v-250q0 -90 66 -157t155 -66h82q47 1 113 31t110 73v441q-2 61 -74 116t-149 56h-82zM803 963h61q31 0 31 -31v-1311q0 -31 -31 -31h-61q-31 0 -31 31v459q-111 -80 -223 -80h-82q-133 0 -239 104q-105 104 -105 242v250q0 141 101 254
t243 113h82q117 0 223 -84v53q0 31 31 31z" />
    <glyph glyph-name="r" unicode="r" horiz-adv-x="843" 
d="M479 844q-78 0 -149.5 -56.5t-73.5 -119.5v-637q0 -31 -31 -31h-61q-31 0 -31 31v901q0 31 31 31h61q31 0 31 -31v-53q113 88 223 88h76q125 0 225 -97q23 -22 0 -45l-41 -41q-23 -23 -43 0q-63 59 -141 60h-76z" />
    <glyph glyph-name="s" unicode="s" horiz-adv-x="970" 
d="M868 278.5q0 -127.5 -109.5 -208t-252.5 -80.5h-53q-121 0 -230.5 77.5t-120.5 190.5q-4 31 31 31h66q29 0 32 -29q8 -66 77 -106.5t145 -40.5h53q98 0 168.5 42t70.5 107q-1 65 -33 96q-63 60 -223 60q-184 20 -283.5 79.5t-99.5 190.5t103.5 207t251.5 76h43
q127 0 236.5 -86t113.5 -209q0 -33 -29 -33h-63q-35 0 -35 27q-2 78 -70.5 128t-152.5 50h-43q-231 0 -232 -164q0 -72 59.5 -98.5t223 -47t260 -76.5t96.5 -183.5z" />
    <glyph glyph-name="t" unicode="t" horiz-adv-x="622" 
d="M211 274v566h-109q-31 0 -30 30v60q0 33 30 33h109v213q0 31 31 30h61q31 0 31 -30v-213h149q33 0 33 -31v-62q0 -31 -31 -30h-151v-557q0 -150 162 -156q32 0 32 -27l2 -71q0 -33 -26 -33q-113 -6 -203 65.5t-90 212.5z" />
    <glyph glyph-name="u" unicode="u" horiz-adv-x="1054" 
d="M907 932v-901q0 -31 -30 -31h-62q-31 0 -31 31v51q-106 -84 -223 -84h-80q-145 0 -247 108q-101 109 -101 254v572q0 31 31 31h61q31 0 31 -31v-572q0 -100 62 -170t163 -69h80q78 0 150 55t73 117v639q0 31 31 31h62q30 0 30 -31z" />
    <glyph glyph-name="v" unicode="v" horiz-adv-x="911" 
d="M98 963h66q25 0 37 -35l254 -735l256 735q12 35 37 35h65q37 0 25 -35l-312 -895q-10 -33 -39 -33h-63q-27 0 -39 33l-311 895q-12 35 24 35z" />
    <glyph glyph-name="w" unicode="w" horiz-adv-x="1404" 
d="M1241 963h66q35 0 24 -35l-241 -895q-10 -33 -39 -33h-64q-27 0 -39 33l-246 725l-245 -725q-10 -33 -39 -33h-64q-27 0 -39 33l-241 895q-10 35 24 35h66q27 0 37 -35l188 -735l244 735q10 35 37 35h65q23 0 37 -35l242 -735l190 735q10 35 37 35z" />
    <glyph glyph-name="x" unicode="x" horiz-adv-x="915" 
d="M805 0h-76q-25 0 -47 35l-225 342l-224 -342q-23 -35 -47 -35h-77q-18 0 -25 10q-6 10 4 27l297 450l-289 439q-10 16 -4 26t25 11h78q25 0 47 -35l217 -328l215 328q23 35 47 35h78q18 -1 23 -11t-5 -26l-287 -439l297 -450q10 -17 4 -27t-26 -10z" />
    <glyph glyph-name="y" unicode="y" horiz-adv-x="1013" 
d="M844 963h74q33 0 18 -37l-545 -1301q-14 -35 -45 -35h-74q-35 0 -20 37l184 439l-360 860q-14 37 18 37h76q29 0 43 -35l293 -697l293 697q14 35 45 35z" />
    <glyph glyph-name="z" unicode="z" horiz-adv-x="905" 
d="M823 932v-68q0 -12 -10 -26l-563 -715h541q33 0 32 -31v-61q0 -31 -30 -31h-680q-31 0 -31 31v59q0 18 10 31l565 719h-544q-31 0 -31 30v60q0 33 31 33h678q32 0 32 -31z" />
    <glyph glyph-name="braceleft" unicode="{" horiz-adv-x="798" 
d="M371 592v-350q0 -125 54 -194t157 -68h53q31 0 31 -31v-62q0 -31 -31 -30h-53q-152 0 -243 105t-91 280v329q0 20 -15 37l-92 113q-14 23 0 45l92 113q14 16 15 36v330q0 173 91 279t243 106h53q31 0 31 -31v-61q0 -31 -31 -31h-53q-102 0 -157 -68q-54 -69 -54 -194
v-350q0 -20 -15 -37l-88 -115l90 -114q13 -19 13 -37z" />
    <glyph glyph-name="bar" unicode="|" horiz-adv-x="450" 
d="M164 -379v1987q0 31 31 30h61q31 0 31 -30v-1987q0 -31 -31 -31h-61q-31 0 -31 31z" />
    <glyph glyph-name="braceright" unicode="}" horiz-adv-x="798" 
d="M428 242v350q0 18 12 37l90 114l-88 115q-14 16 -14 37v350q0 125 -54 194t-157 68h-53q-31 0 -31 31v61q0 31 31 31h53q152 0 243 -105t91 -280v-330q0 -20 14 -36l92 -113q14 -23 0 -45l-92 -113q-14 -16 -14 -37v-329q0 -174 -91 -280t-243 -105h-53q-31 0 -31 30v62
q0 31 31 31h53q102 0 157 68q54 69 54 194z" />
    <glyph glyph-name="asciitilde" unicode="~" horiz-adv-x="1075" 
d="M940 799l29 -56q12 -23 -21 -45q-207 -152 -426 -12q-98 61 -174 58t-178 -70q-20 -14 -35 16l-29 55q-12 23 21 46q207 152 426 12q98 -61 174 -59t178 71q21 13 35 -16z" />
    <glyph glyph-name="exclamdown" unicode="&#xa1;" horiz-adv-x="446" 
d="M162 -379v1073q0 31 31 31h61q31 0 31 -31v-1073q0 -31 -31 -31h-61q-31 0 -31 31zM154 971v76q0 31 30 30h78q31 0 31 -30v-76q0 -31 -31 -31h-78q-30 0 -30 31z" />
    <glyph glyph-name="cent" unicode="&#xa2;" horiz-adv-x="985" 
d="M236 598v-233q0 -90 60 -159t146 -83v721q-84 -14 -145 -85t-61 -161zM565 -231q0 -31 -30 -31h-62q-31 0 -31 31v231q-131 16 -230 122t-99 243v233q0 135 99 244t230 125v227q0 31 31 31h62q31 0 30 -31v-225q115 -5 220 -97t108 -196q0 -33 -29 -33h-63q-35 0 -35 27
q-2 59 -67 114t-134 62v-725q113 8 217 131q23 24 43 6l47 -41q23 -20 7 -43q-137 -168 -314 -176v-229z" />
    <glyph glyph-name="sterling" unicode="&#xa3;" horiz-adv-x="1253" 
d="M651 1511h74q168 0 296 -141t130 -332q0 -31 -31 -30h-61q-33 0 -33 30q0 142 -89 246t-212 105h-74q-131 -1 -220 -107t-64 -258q12 -76 67 -233h352q31 0 31 -31v-62q0 -31 -31 -30h-315q12 -55 10 -107q-12 -229 -96 -397q92 35 161 30q69 -6 166 -46t172 -38t181 50
q14 6 22 -4t9 -27v-68q0 -14 -6 -18t-25 -12q-109 -45 -196 -44t-193 44t-186 36q-79 -7 -191 -69q-14 -8 -49 30t-29 54q68 164 94 259q54 191 25 327h-205q-31 0 -31 30v62q0 31 31 31h168q-55 156 -65 233q-27 197 103 342t310 145z" />
    <glyph glyph-name="currency" unicode="&#xa4;" horiz-adv-x="1128" 
d="M524 121h80q106 0 175 77t69 187v193q0 112 -70 190t-174 78h-80q-108 0 -176 -79t-67 -189v-193q0 -111 67 -187t176 -77zM604 -2h-80q-131 0 -231 88l-84 -84q-20 -23 -43 0l-43 43q-20 20 0 43l92 90q-57 96 -57 207v193q0 111 57 206l-92 90q-20 23 0 44l43 43
q23 23 43 0l84 -82q100 90 231 90h80q129 0 232 -92l84 84q23 23 43 0l43 -43q23 -20 0 -44l-93 -92q57 -92 58 -204v-193q-1 -113 -58 -205l93 -92q23 -23 0 -43l-43 -43q-20 -23 -43 0l-86 84q-98 -88 -230 -88z" />
    <glyph glyph-name="yen" unicode="&#xa5;" horiz-adv-x="1171" 
d="M645 575h338q31 0 31 -30v-62q0 -31 -31 -30h-338v-115h338q31 0 31 -31v-61q0 -31 -31 -31h-338v-184q0 -31 -31 -31h-61q-31 0 -31 31v184h-313q-31 0 -31 31v61q0 31 31 31h313v115h-313q-31 0 -31 30v62q0 31 31 30h313v78l-444 803q-18 31 20 31h80q23 0 41 -31
l365 -665l368 665q18 31 41 31h80q39 0 21 -31l-449 -803v-78z" />
    <glyph glyph-name="brokenbar" unicode="&#xa6;" horiz-adv-x="450" 
d="M164 -236v662q0 31 31 31h61q31 0 31 -31v-662q0 -31 -31 -30h-61q-31 -1 -31 30zM164 803v661q0 31 31 31h61q31 0 31 -31v-661q0 -31 -31 -31h-61q-31 0 -31 31z" />
    <glyph glyph-name="section" unicode="&#xa7;" horiz-adv-x="1241" 
d="M975 481q0 135 -79 200t-218 91l-109 21q-152 29 -254 94q-41 -65 -41 -177t76 -176t219 -90l109 -20q158 -31 256 -98q41 66 41 155zM1098 481q0 -131 -74 -237q74 -96 74 -234q0 -182 -127 -301t-303 -119h-95q-170 0 -300 119t-130 295v59q0 31 31 31h64q31 0 30 -31
l2 -59q4 -131 92 -211t211 -80h95q129 0 218 81t89 216t-79 200t-218 91l-109 21q-418 78 -417 403q0 143 75 242q-76 94 -75 229q0 178 116 292q117 114 287 114h107q166 0 294 -124t125 -309v-39q0 -31 -30 -30h-64q-31 0 -31 30v39q0 137 -87 223t-207 87h-107
q-125 0 -203 -75t-78 -205t76 -193t219 -91l109 -20q420 -80 420 -414z" />
    <glyph glyph-name="dieresis" unicode="&#xa8;" horiz-adv-x="1011" 
d="M729 1339v117q0 31 31 31h98q31 0 31 -31v-117q0 -31 -31 -30h-98q-31 -1 -31 30zM123 1339v117q0 31 31 31h98q31 0 31 -31v-117q0 -31 -31 -30h-98q-31 -1 -31 30z" />
    <glyph glyph-name="copyright" unicode="&#xa9;" horiz-adv-x="1282" 
d="M817 539h82q20 0 21 -19q-2 -125 -71 -202t-175 -76h-60q-112 0 -182 79t-70 207v428q0 129 71 208t181 79h60q106 0 175 -77t71 -199q0 -18 -21 -19h-82q-23 0 -22 19q0 150 -121 149h-60q-68 0 -98 -38t-31 -122v-428q0 -162 129 -161h60q125 0 121 153q-1 19 22 19z
M573 96h136q133 0 230 106t97 261v559q0 154 -97 260t-230 107h-136q-133 -1 -230 -107t-97 -260v-559q0 -155 97 -261t230 -106zM573 1511h136q178 0 314 -144t136 -345v-559q0 -201 -136 -345t-314 -145h-136q-178 1 -314 145t-136 345v559q0 201 136 345t314 144z" />
    <glyph glyph-name="ordfeminine" unicode="&#xaa;" horiz-adv-x="653" 
d="M293 1051h31q84 0 141 53v92h-172q-104 0 -105 -74q1 -71 105 -71zM487 963q-23 0 -22 32v13q-63 -45 -141 -45h-31q-78 0 -134 43q-57 42 -57 116t52 118t139 44h172q-4 115 -100 115h-50q-84 0 -141 -49q-20 -16 -31 0l-24 32q-12 14 0 27q74 78 196 78h50
q78 -1 130 -61t52 -146v-285q0 -14 4 -23t-6 -9h-58z" />
    <glyph glyph-name="guillemotleft" unicode="&#xab;" horiz-adv-x="1193" 
d="M1081 872v-114q0 -18 -37 -45l-253 -187l253 -186q37 -27 37 -45v-115q0 -16 -11 -21t-26 5l-385 285q-2 2 -9 7q-21 15 -21 33v74q0 19 14 29t16 12l385 285q14 10 26 5t11 -22zM565 872v-114q0 -18 -37 -45l-254 -187l254 -186q37 -27 37 -45v-115q0 -16 -11 -21t-26 5
l-385 285q-2 2 -9 7q-21 15 -21 33v74q0 19 14 29t16 12l385 285q14 10 26 5t11 -22z" />
    <glyph glyph-name="logicalnot" unicode="&#xac;" horiz-adv-x="1052" 
d="M154 723h745q31 0 31 -31v-403q0 -31 -31 -31h-61q-31 0 -31 31v311h-653q-31 0 -31 31v61q0 31 31 31z" />
    <glyph glyph-name="softhyphen" unicode="&#xad;" horiz-adv-x="888" 
d="M715 457h-541q-31 0 -31 30v62q0 31 31 31h541q31 0 30 -31v-62q1 -30 -30 -30z" />
    <glyph glyph-name="registered" unicode="&#xae;" horiz-adv-x="1282" 
d="M510 784h160q76 0 100 36t23 121q0 85 -23 116t-100 30h-160v-303zM905 516v-197q0 -37 -31 -36h-55q-31 0 -31 36v193q0 82 -24 117q-25 35 -94 35h-160v-345q0 -37 -31 -36h-59q-31 0 -31 36v830q-1 25 17 42t43 17h221q112 0 176 -72t64 -203q0 -132 -89 -210
q84 -72 84 -207zM573 96h136q133 0 230 106t97 261v559q0 154 -97 260t-230 107h-136q-133 -1 -230 -107t-97 -260v-559q0 -155 97 -261t230 -106zM573 1511h136q178 0 314 -144t136 -345v-559q0 -201 -136 -345t-314 -145h-136q-178 1 -314 145t-136 345v559q0 201 136 345
t314 144z" />
    <glyph glyph-name="macron" unicode="&#xaf;" horiz-adv-x="1011" 
d="M838 1364h-664q-31 0 -31 31v61q0 31 31 31h664q31 0 30 -31v-61q1 -31 -30 -31z" />
    <glyph glyph-name="degree" unicode="&#xb0;" horiz-adv-x="923" 
d="M641 1167v19q0 180 -164 180h-26q-166 0 -166 -180v-19q0 -178 166 -178h26q164 0 164 178zM446 1487h31q127 0 205 -84t78 -215v-23q0 -131 -78 -215t-205 -84h-31q-130 0 -206 83t-76 216v23q0 133 76 216t206 83z" />
    <glyph glyph-name="plusminus" unicode="&#xb1;" horiz-adv-x="1052" 
d="M154 123h747q29 0 29 -31v-61q0 -31 -31 -31h-745q-31 0 -31 31v61q0 31 31 31zM590 723h311q29 0 29 -31v-61q0 -31 -31 -31h-309v-334q0 -31 -31 -30h-61q-31 0 -31 30v334h-313q-31 0 -31 31v61q0 31 31 31h313v332q0 31 31 30h61q31 0 31 -30v-332z" />
    <glyph glyph-name="twosuperior" unicode="&#xb2;" horiz-adv-x="655" 
d="M532 883q0 -31 -30 -31h-344q-31 0 -31 31v49q0 30 11 46t44 50l144 154q4 4 41 37t38 69q1 35 -23 59q-24 23 -58 23t-57 -19q-22 -19 -21 -46v-15q0 -31 -31 -30h-61q-31 0 -31 30v27q0 68 51 119t125 51h51q80 -1 130 -61t50 -126t-34 -114q-34 -49 -97 -113
l-104 -104l207 4q31 0 30 -31v-59z" />
    <glyph glyph-name="threesuperior" unicode="&#xb3;" horiz-adv-x="653" 
d="M350 854h-51q-74 0 -125 51t-51 119v27q0 31 31 30h61q31 0 31 -30v-15q0 -27 22 -46t56 -19t58 19t24 52t-23 55t-55 21h-47q-31 0 -31 31v45q0 31 31 31h47q34 -1 56 21t22 54t-24 52t-58 20t-57 -19q-22 -19 -21 -46v-15q0 -31 -31 -30h-61q-31 0 -31 30v27
q0 68 51 119t125 51h51q80 0 130 -56q50 -55 50 -127t-69 -135q69 -63 69 -134t-50 -127t-130 -56z" />
    <glyph glyph-name="acute" unicode="&#xb4;" horiz-adv-x="522" 
d="M393 1638q39 0 21 -36l-178 -379q-20 -37 -43 -37h-66q-37 0 -21 37l154 379q12 37 43 36h90z" />
    <glyph glyph-name="paragraph" unicode="&#xb6;" horiz-adv-x="1153" 
d="M897 1364h-135v-594h135v594zM639 770v594h-137q-276 0 -276 -297t276 -297h137zM502 1487h487q31 0 31 -31v-1425q0 -31 -31 -31h-61q-31 0 -31 31v616h-135v-616q0 -31 -31 -31h-61q-31 0 -31 31v616h-137q-184 0 -292 113q-108 114 -108 308t108 306t292 113z" />
    <glyph glyph-name="periodcentered" unicode="&#xb7;" horiz-adv-x="364" 
d="M102 563v117q0 31 31 31h98q31 0 31 -31v-117q0 -31 -31 -31h-98q-31 0 -31 31z" />
    <glyph glyph-name="cedilla" unicode="&#xb8;" horiz-adv-x="700" 
d="M598 -258q0 -156 -182 -156h-92q-84 0 -131 47t-50 125q0 20 19 21h82q20 0 20 -17q2 -61 92 -61h45q50 0 62 10t12 37q1 28 -37 38t-123 20t-97 16q-58 28 -33 106q11 34 31 60t32 26h90q22 0 12 -15t-16 -27t-10 -19q-4 -8 -2 -15q2 -6 2 -12t12 -14t30 -8l29 -4
q143 -16 167 -47q36 -46 36 -111z" />
    <glyph glyph-name="onesuperior" unicode="&#xb9;" horiz-adv-x="618" 
d="M246 885v571q0 31 30 31h66q31 0 31 -31v-571q0 -31 -31 -31h-66q-30 0 -30 31z" />
    <glyph glyph-name="ordmasculine" unicode="&#xba;" horiz-adv-x="663" 
d="M475 219v88q0 53 -36 91t-87 38h-41q-53 0 -87 -38t-34 -91v-88q0 -53 34 -92t87 -39h41q51 0 87 39t36 92zM309 524h45q86 0 147 -65q60 -66 60 -152v-88q0 -91 -60 -155t-147 -64h-45q-86 0 -146 65t-61 154v88q0 89 60 153t147 64z" />
    <glyph glyph-name="guillemotright" unicode="&#xbb;" horiz-adv-x="1193" 
d="M1081 563v-74q0 -18 -14 -28t-16 -12l-385 -285q-14 -10 -26 -5q-11 5 -11 21v115q0 18 37 45l254 186l-254 187q-37 27 -37 45v114q0 16 11 22q12 5 26 -5l385 -285q2 -2 9 -7q21 -15 21 -34zM565 563v-74q0 -18 -14 -28t-16 -12l-385 -285q-14 -10 -26 -5q-11 5 -11 21
v115q0 18 37 45l253 186l-253 187q-37 27 -37 45v114q0 16 11 22q12 5 26 -5l385 -285q2 -2 9 -7q21 -15 21 -34z" />
    <glyph glyph-name="onequarter" unicode="&#xbc;" horiz-adv-x="1511" 
d="M1206 246v205l-104 -205h104zM1329 242h29q31 0 31 -31v-61q0 -31 -31 -31h-29v-88q0 -31 -31 -31h-61q-31 0 -31 31v88h-223q-29 0 -31 31l-6 59q0 8 8 24l217 388q8 14 29 14h98q31 0 31 -31v-362zM246 885v571q0 31 30 31h66q31 0 31 -31v-571q0 -31 -31 -31h-66
q-30 0 -30 31zM1081 1487h86q39 0 21 -31l-828 -1425q-18 -31 -41 -31h-86q-38 0 -20 31l827 1425q18 31 41 31z" />
    <glyph glyph-name="onehalf" unicode="&#xbd;" horiz-adv-x="1478" 
d="M1356 90v-59q0 -31 -31 -31h-344q-31 0 -31 31v49q0 46 56 96l143 154q4 4 42 37t38 69q0 35 -24 59q-25 23 -59 23t-56 -19t-21 -46v-15q0 -31 -31 -30h-61q-31 0 -31 30v27q0 68 51 119t125 51h52q80 -1 130 -61t50 -126t-34 -114q-34 -49 -97 -113l-105 -104l207 4
q31 0 31 -31zM246 885v571q0 31 30 31h66q31 0 31 -31v-571q0 -31 -31 -31h-66q-30 0 -30 31zM1081 1487h86q39 0 21 -31l-828 -1425q-18 -31 -41 -31h-86q-38 0 -20 31l827 1425q18 31 41 31z" />
    <glyph glyph-name="threequarters" unicode="&#xbe;" horiz-adv-x="1546" 
d="M1241 246v205l-104 -205h104zM1364 242h29q31 0 30 -31v-61q0 -31 -30 -31h-29v-88q0 -31 -31 -31h-61q-31 0 -31 31v88h-223q-27 0 -31 31l-6 59q0 8 8 24l217 388q6 14 29 14h98q31 0 31 -31v-362zM1116 1487h86q39 0 21 -31l-828 -1425q-18 -31 -41 -31h-86
q-38 0 -20 31l827 1425q18 31 41 31zM350 854h-51q-74 0 -125 51t-51 119v27q0 31 31 30h61q31 0 31 -30v-15q0 -27 22 -46t56 -19t58 19t24 52t-23 55t-55 21h-47q-31 0 -31 31v45q0 31 31 31h47q34 -1 56 21t22 54t-24 52t-58 20t-57 -19q-22 -19 -21 -46v-15
q0 -31 -31 -30h-61q-31 0 -31 30v27q0 68 51 119t125 51h51q80 0 130 -56q50 -55 50 -127t-69 -135q69 -63 69 -134t-50 -127t-130 -56z" />
    <glyph glyph-name="questiondown" unicode="&#xbf;" horiz-adv-x="1040" 
d="M565 -436h-86q-168 0 -288 123q-119 123 -119 294t73 259q74 88 193 132q118 44 150 70t32 99v153q0 31 31 31h61q31 0 31 -31v-153q0 -109 -48 -165t-167 -102t-176 -104q-57 -57 -57 -185q1 -128 81 -213t203 -85h86q119 0 199 85t80 224v39q0 31 30 31h64q31 0 31 -31
v-39q2 -184 -118 -308t-286 -124zM651 1047v-76q0 -31 -30 -31h-78q-31 0 -31 31v76q0 31 31 30h78q30 1 30 -30z" />
    <glyph glyph-name="Agrave" unicode="&#xc0;" horiz-adv-x="1234" 
d="M854 545l-233 753l-240 -753h473zM1114 0h-61q-31 0 -39 33l-121 389h-551l-123 -389q-8 -33 -37 -33h-63q-35 0 -23 33l451 1427q10 33 39 33h65q29 0 39 -33l449 -1427q12 -33 -25 -33zM379 2163h90q31 0 43 -37l154 -379q16 -37 -21 -37h-65q-23 0 -43 37l-179 379
q-18 37 21 37z" />
    <glyph glyph-name="Aacute" unicode="&#xc1;" horiz-adv-x="1234" 
d="M854 545l-233 753l-240 -753h473zM1114 0h-61q-31 0 -39 33l-121 389h-551l-123 -389q-8 -33 -37 -33h-63q-35 0 -23 33l451 1427q10 33 39 33h65q29 0 39 -33l449 -1427q12 -33 -25 -33zM645 1710h-65q-37 0 -21 37l154 379q12 37 43 37h90q39 0 20 -37l-178 -379
q-20 -37 -43 -37z" />
    <glyph glyph-name="Acircumflex" unicode="&#xc2;" horiz-adv-x="1234" 
d="M854 545l-233 753l-240 -753h473zM1114 0h-61q-31 0 -39 33l-121 389h-551l-123 -389q-8 -33 -37 -33h-63q-35 0 -23 33l451 1427q10 33 39 33h65q29 0 39 -33l449 -1427q12 -33 -25 -33zM360 1724h-84q-16 0 -21 12t5 27l281 367q23 33 47 33h59q27 0 49 -33l281 -367
q10 -14 5 -26t-21 -13h-84q-18 0 -48 39l-211 279l-210 -279q-30 -39 -48 -39z" />
    <glyph glyph-name="Atilde" unicode="&#xc3;" horiz-adv-x="1234" 
d="M854 545l-233 753l-240 -753h473zM1114 0h-61q-31 0 -39 33l-121 389h-551l-123 -389q-8 -33 -37 -33h-63q-35 0 -23 33l451 1427q10 33 39 33h65q29 0 39 -33l449 -1427q12 -33 -25 -33zM276 1898l-28 56q-12 23 20 45q102 74 182 77t183 -65q100 -59 144 -58t147 70
q20 12 34 -16l29 -55q12 -23 -20 -45q-101 -74 -181 -77t-184 64q-100 58 -144 58t-147 -70q-21 -15 -35 16z" />
    <glyph glyph-name="Adieresis" unicode="&#xc4;" horiz-adv-x="1234" 
d="M854 545l-233 753l-240 -753h473zM1114 0h-61q-31 0 -39 33l-121 389h-551l-123 -389q-8 -33 -37 -33h-63q-35 0 -23 33l451 1427q10 33 39 33h65q29 0 39 -33l449 -1427q12 -33 -25 -33zM971 1833h-99q-31 0 -30 31v116q0 31 30 31h99q31 0 30 -31v-116q1 -31 -30 -31z
M365 1833h-99q-31 0 -30 31v116q0 31 30 31h99q31 0 30 -31v-116q1 -31 -30 -31z" />
    <glyph glyph-name="Aring" unicode="&#xc5;" horiz-adv-x="1234" 
d="M854 545l-233 753l-240 -753h473zM1114 0h-61q-31 0 -39 33l-121 389h-551l-123 -389q-8 -33 -37 -33h-63q-35 0 -23 33l451 1427q10 33 39 33h65q29 0 39 -33l449 -1427q12 -33 -25 -33zM518 1972v-16q0 -90 90 -90h19q92 0 92 90v16q0 90 -92 90h-19q-90 0 -90 -90z
M631 1763h-27q-84 1 -136 53t-52 136v22q0 82 53 136t135 55h27q82 -1 135 -55t53 -136v-22q0 -84 -53 -136t-135 -53z" />
    <glyph glyph-name="AE" unicode="&#xc6;" horiz-adv-x="1826" 
d="M831 545v684l-378 -684h378zM954 1364v-553h596q31 0 31 -31v-61q0 -31 -31 -31h-596v-565h729q31 0 31 -31v-61q0 -31 -31 -31h-821q-31 0 -31 31v391h-446l-215 -391q-14 -31 -41 -31h-74q-35 0 -20 31l786 1425q14 31 41 31h821q31 0 31 -31v-61q0 -31 -31 -31h-729z
" />
    <glyph glyph-name="Ccedilla" unicode="&#xc7;" horiz-adv-x="1159" 
d="M965 481h61q31 0 31 -30q-2 -190 -130 -334t-296 -144h-49q-20 -40 -12 -48.5t11 -11.5t14 -5t20 -5t45 -6t50 -5q83 -16 100 -40q36 -47 36 -110q0 -156 -182 -156h-93q-84 0 -131 47.5t-49 124.5q0 20 19 21h82q20 0 20 -17q2 -61 92 -61h45q27 0 41 2q32 4 32.5 38
t-37.5 44t-196 29q-52 5 -64 71q-7 37 36 97q-152 31 -255.5 168t-103.5 315v557q0 201 129 344t306 143h94q168 0 296 -141t130 -332q0 -31 -31 -30h-61q-33 0 -33 30q0 143 -89 246.5t-212 103.5h-94q-129 0 -220.5 -104t-91.5 -260v-557q0 -156 91.5 -262.5t220.5 -106.5
h94q123 0 213 104.5t88 250.5q0 30 33 30z" />
    <glyph glyph-name="Egrave" unicode="&#xc8;" horiz-adv-x="1128" 
d="M256 811h596q31 0 31 -31v-61q0 -31 -31 -31h-596v-565h729q31 0 31 -31v-61q0 -31 -31 -31h-821q-31 0 -31 31v1425q0 31 31 31h821q31 0 31 -31v-61q0 -31 -31 -31h-729v-553zM596 1710h-66q-23 0 -43 37l-178 379q-18 37 21 37h90q31 0 43 -37l153 -379
q16 -37 -20 -37z" />
    <glyph glyph-name="Eacute" unicode="&#xc9;" horiz-adv-x="1128" 
d="M256 811h596q31 0 31 -31v-61q0 -31 -31 -31h-596v-565h729q31 0 31 -31v-61q0 -31 -31 -31h-821q-31 0 -31 31v1425q0 31 31 31h821q31 0 31 -31v-61q0 -31 -31 -31h-729v-553zM707 2163h90q39 0 20 -37l-178 -379q-20 -37 -43 -37h-66q-36 0 -20 37l154 379
q12 37 43 37z" />
    <glyph glyph-name="Ecircumflex" unicode="&#xca;" horiz-adv-x="1128" 
d="M256 811h596q31 0 31 -31v-61q0 -31 -31 -31h-596v-565h729q31 0 31 -31v-61q0 -31 -31 -31h-821q-31 0 -31 31v1425q0 31 31 31h821q31 0 31 -31v-61q0 -31 -31 -31h-729v-553zM539 2163h59q27 0 49 -33l281 -367q10 -14 5 -26.5t-22 -12.5h-84q-18 0 -47 39l-211 279
l-211 -279q-29 -39 -47 -39h-84q-16 0 -21 12.5t5 26.5l281 367q23 33 47 33z" />
    <glyph glyph-name="Edieresis" unicode="&#xcb;" horiz-adv-x="1128" 
d="M256 811h596q31 0 31 -31v-61q0 -31 -31 -31h-596v-565h729q31 0 31 -31v-61q0 -31 -31 -31h-821q-31 0 -31 31v1425q0 31 31 31h821q31 0 31 -31v-61q0 -31 -31 -31h-729v-553zM793 1864v116q0 31 30 31h99q31 0 30 -31v-116q0 -31 -30 -31h-99q-30 0 -30 31zM186 1864
v116q0 31 31 31h98q31 0 31 -31v-116q0 -31 -31 -31h-98q-31 0 -31 31z" />
    <glyph glyph-name="Igrave" unicode="&#xcc;" horiz-adv-x="471" 
d="M174 31v1425q0 31 31 31h61q31 0 31 -31v-1425q0 -31 -31 -31h-61q-31 0 -31 31zM262 1710h-65q-23 0 -43 37l-179 379q-18 37 21 37h90q31 0 43 -37l154 -379q16 -37 -21 -37z" />
    <glyph glyph-name="Iacute" unicode="&#xcd;" horiz-adv-x="471" 
d="M174 31v1425q0 31 31 31h61q31 0 31 -31v-1425q0 -31 -31 -31h-61q-31 0 -31 31zM373 2163h90q39 0 20 -37l-178 -379q-20 -37 -43 -37h-65q-37 0 -21 37l154 379q12 37 43 37z" />
    <glyph glyph-name="Icircumflex" unicode="&#xce;" horiz-adv-x="471" 
d="M174 31v1425q0 31 31 31h61q31 0 31 -31v-1425q0 -31 -31 -31h-61q-31 0 -31 31zM205 2163h59q27 0 49 -33l281 -367q10 -14 5 -26t-21 -13h-84q-18 0 -48 39l-210 279l-211 -279q-29 -39 -48 -39h-83q-16 0 -22 12t5 27l281 367q23 33 47 33z" />
    <glyph glyph-name="Idieresis" unicode="&#xcf;" horiz-adv-x="471" 
d="M174 31v1425q0 31 31 31h61q31 0 31 -31v-1425q0 -31 -31 -31h-61q-31 0 -31 31zM459 1864v116q0 31 30 31h99q31 0 30 -31v-116q0 -31 -30 -31h-99q-30 0 -30 31zM-147 1864v116q0 31 30 31h99q31 0 30 -31v-116q0 -31 -30 -31h-99q-30 0 -30 31z" />
    <glyph glyph-name="Eth" unicode="&#xd0;" horiz-adv-x="1304" 
d="M1069 481v525q0 150 -90 254t-213 104h-397v-522h325q31 0 31 -31v-61q0 -31 -31 -31h-325v-596h397q123 0 213 104t90 254zM276 1487h490q168 1 297 -143t129 -338v-525q0 -195 -129 -338t-297 -143h-490q-31 0 -30 31v688h-92q-31 0 -31 31v61q0 31 31 31h92v614
q-1 31 30 31z" />
    <glyph glyph-name="Ntilde" unicode="&#xd1;" horiz-adv-x="1292" 
d="M1067 1487h61q31 0 31 -31v-1425q0 -31 -31 -31h-143q-27 0 -37 23l-692 1341v-1333q0 -31 -31 -31h-61q-31 0 -31 31v1425q0 31 31 31h143q25 0 37 -23l692 -1341v1333q0 31 31 31zM987 2007l29 -55q12 -23 -21 -45q-102 -74 -181 -77t-183 64q-100 59 -144.5 58.5
t-146.5 -70.5q-20 -14 -35 16l-29 56q-12 23 21 45q102 74 181 77t184 -65q100 -59 144 -58t146 70q21 13 35 -16z" />
    <glyph glyph-name="Ograve" unicode="&#xd2;" horiz-adv-x="1200" 
d="M553 109h94q131 0 219 105t88 261v545q0 156 -88 261t-219 105h-94q-131 0 -219 -105t-88 -261v-545q0 -156 88 -261t219 -105zM553 1509h94q176 0 303 -143t127 -346v-545q0 -203 -127 -346t-303 -143h-94q-176 0 -303 143t-127 346v545q0 203 127 346t303 143z
M627 1710h-66q-23 0 -43 37l-178 379q-18 37 20 37h91q31 0 43 -37l153 -379q16 -37 -20 -37z" />
    <glyph glyph-name="Oacute" unicode="&#xd3;" horiz-adv-x="1200" 
d="M553 109h94q131 0 219 105t88 261v545q0 156 -88 261t-219 105h-94q-131 0 -219 -105t-88 -261v-545q0 -156 88 -261t219 -105zM553 1509h94q176 0 303 -143t127 -346v-545q0 -203 -127 -346t-303 -143h-94q-176 0 -303 143t-127 346v545q0 203 127 346t303 143z
M737 2163h90q39 0 21 -37l-178 -379q-20 -37 -43 -37h-66q-36 0 -20 37l153 379q12 37 43 37z" />
    <glyph glyph-name="Ocircumflex" unicode="&#xd4;" horiz-adv-x="1200" 
d="M553 109h94q131 0 219 105t88 261v545q0 156 -88 261t-219 105h-94q-131 0 -219 -105t-88 -261v-545q0 -156 88 -261t219 -105zM553 1509h94q176 0 303 -143t127 -346v-545q0 -203 -127 -346t-303 -143h-94q-176 0 -303 143t-127 346v545q0 203 127 346t303 143z
M569 2163h60q27 0 49 -33l280 -367q10 -14 6 -26t-22 -13h-84q-18 0 -47 39l-211 279l-211 -279q-29 -39 -47 -39h-84q-16 0 -21 12t5 27l280 367q23 33 47 33z" />
    <glyph glyph-name="Otilde" unicode="&#xd5;" horiz-adv-x="1200" 
d="M553 109h94q131 0 219 105t88 261v545q0 156 -88 261t-219 105h-94q-131 0 -219 -105t-88 -261v-545q0 -156 88 -261t219 -105zM553 1509h94q176 0 303 -143t127 -346v-545q0 -203 -127 -346t-303 -143h-94q-176 0 -303 143t-127 346v545q0 203 127 346t303 143z
M940 2007l29 -55q12 -23 -21 -45q-102 -74 -181 -77t-183 64q-100 58 -144 58t-147 -70q-20 -14 -35 16l-29 56q-12 23 21 45q102 74 181 77t183 -65q100 -59 144 -58t147 70q21 13 35 -16z" />
    <glyph glyph-name="Odieresis" unicode="&#xd6;" horiz-adv-x="1200" 
d="M553 109h94q131 0 219 105t88 261v545q0 156 -88 261t-219 105h-94q-131 0 -219 -105t-88 -261v-545q0 -156 88 -261t219 -105zM553 1509h94q176 0 303 -143t127 -346v-545q0 -203 -127 -346t-303 -143h-94q-176 0 -303 143t-127 346v545q0 203 127 346t303 143z
M823 1864v116q0 31 31 31h98q31 0 31 -31v-116q0 -31 -31 -31h-98q-31 0 -31 31zM217 1864v116q0 31 31 31h98q31 0 31 -31v-116q0 -31 -31 -31h-98q-31 0 -31 31z" />
    <glyph glyph-name="multiply" unicode="&#xd7;" horiz-adv-x="841" 
d="M508 662l221 -222q20 -23 0 -43l-43 -43q-23 -23 -43 0l-221 221l-221 -221q-25 -20 -45 0l-43 43q-23 20 0 43l223 224l-221 219q-20 23 0 43l43 43q23 23 43 0l221 -219l219 219q23 23 43 -2l45 -41q18 -25 -2 -45z" />
    <glyph glyph-name="Oslash" unicode="&#xd8;" horiz-adv-x="1200" 
d="M954 475v545q0 129 -65 231l-481 -1101q66 -41 145 -41h94q131 0 219 105t88 261zM246 1020v-545q0 -137 67 -233l482 1101q-66 43 -148 43h-94q-131 0 -219 -105t-88 -261zM315 0h-73q-37 0 -21 31l39 88q-137 143 -137 356v545q0 203 127 346t303 143h94q100 0 197 -53
q12 31 41 31h73q33 0 21 -31l-35 -82q133 -145 133 -354v-545q0 -203 -127 -346t-303 -143h-94q-104 0 -193 53q-19 -39 -45 -39z" />
    <glyph glyph-name="Ugrave" unicode="&#xd9;" horiz-adv-x="1171" 
d="M967 1487h61q31 0 31 -31v-1010q0 -200 -125 -330t-322 -130h-53q-197 0 -321 131t-125 329v1010q0 31 30 31h62q31 0 31 -31v-1010q0 -152 87 -244t236 -93h53q150 0 237 93t87 244v1010q0 31 31 31zM612 1710h-65q-23 0 -43 37l-178 379q-18 37 20 37h90q31 0 43 -37
l154 -379q16 -37 -21 -37z" />
    <glyph glyph-name="Uacute" unicode="&#xda;" horiz-adv-x="1171" 
d="M967 1487h61q31 0 31 -31v-1010q0 -200 -125 -330t-322 -130h-53q-197 0 -321 131t-125 329v1010q0 31 30 31h62q31 0 31 -31v-1010q0 -152 87 -244t236 -93h53q150 0 237 93t87 244v1010q0 31 31 31zM723 2163h90q39 0 21 -37l-179 -379q-20 -37 -43 -37h-65
q-37 0 -21 37l154 379q12 37 43 37z" />
    <glyph glyph-name="Ucircumflex" unicode="&#xdb;" horiz-adv-x="1171" 
d="M967 1487h61q31 0 31 -31v-1010q0 -200 -125 -330t-322 -130h-53q-197 0 -321 131t-125 329v1010q0 31 30 31h62q31 0 31 -31v-1010q0 -152 87 -244t236 -93h53q150 0 237 93t87 244v1010q0 31 31 31zM555 2163h59q27 0 50 -33l280 -367q10 -14 5 -26t-21 -13h-84
q-18 0 -47 39l-211 279l-211 -279q-29 -39 -47 -39h-84q-16 0 -22 12t5 27l281 367q23 33 47 33z" />
    <glyph glyph-name="Udieresis" unicode="&#xdc;" horiz-adv-x="1171" 
d="M967 1487h61q31 0 31 -31v-1010q0 -200 -125 -330t-322 -130h-53q-197 0 -321 131t-125 329v1010q0 31 30 31h62q31 0 31 -31v-1010q0 -152 87 -244t236 -93h53q150 0 237 93t87 244v1010q0 31 31 31zM809 1864v116q0 31 31 31h98q31 0 31 -31v-116q0 -31 -31 -31h-98
q-31 0 -31 31zM203 1864v116q0 31 30 31h99q31 0 30 -31v-116q0 -31 -30 -31h-99q-30 0 -30 31z" />
    <glyph glyph-name="Yacute" unicode="&#xdd;" horiz-adv-x="1171" 
d="M993 1487h80q39 0 21 -31l-449 -803v-622q0 -31 -31 -31h-61q-31 0 -31 31v622l-444 803q-18 31 20 31h80q23 0 41 -31l365 -665l368 665q18 31 41 31zM723 2163h90q39 0 21 -37l-179 -379q-20 -37 -43 -37h-65q-37 0 -21 37l154 379q12 37 43 37z" />
    <glyph glyph-name="Thorn" unicode="&#xde;" horiz-adv-x="1153" 
d="M256 446h395q276 0 277 297q0 297 -277 297h-395v-594zM256 1163h395q184 -1 292 -113t108 -307t-108 -307t-292 -112h-395v-293q0 -31 -31 -31h-61q-31 0 -31 31v1425q0 31 31 31h61q31 0 31 -31v-293z" />
    <glyph glyph-name="germandbls" unicode="&#xdf;" horiz-adv-x="1067" 
d="M965 432v-45q1 -163 -137 -275t-300 -112h-43q-31 0 -30 31v61q0 31 30 31h43q119 0 216 74t98 190v45q0 129 -100 217t-203 88h-54q-31 0 -30 31v61q0 31 30 31h54q92 0 167 76t74 168v57q0 94 -64 155q-65 60 -171 60h-70q-225 0 -225 -207l-2 -1138q0 -31 -31 -31h-61
q-31 0 -31 31l-2 1138q0 145 98 237t254 93h70q152 0 255 -99t103 -239v-57q0 -86 -49 -167t-127 -134q109 -59 173 -145t65 -226z" />
    <glyph glyph-name="agrave" unicode="&#xe0;" horiz-adv-x="978" 
d="M383 121h109q78 2 131 39t104 102v178h-344q-168 0 -168 -157q0 -70 50 -116t118 -46zM848 0h-88q-33 0 -33 49v64q-119 -115 -235 -115h-109q-113 -4 -202 82t-89 207t82 199t209 77h344v47q0 111 -54 172t-138 62h-103q-84 0 -127 -18t-80 -60q-23 -23 -47 0l-41 41
q-20 20 -2 41q53 66 121 92t176 27h103q129 -1 222 -101t93 -256v-561q0 -15 4 -32t-6 -17zM328 1638q31 0 43 -36l153 -379q16 -37 -20 -37h-66q-23 0 -43 37l-178 379q-18 37 21 36h90z" />
    <glyph glyph-name="aacute" unicode="&#xe1;" horiz-adv-x="978" 
d="M383 121h109q78 2 131 39t104 102v178h-344q-168 0 -168 -157q0 -70 50 -116t118 -46zM848 0h-88q-33 0 -33 49v64q-119 -115 -235 -115h-109q-113 -4 -202 82t-89 207t82 199t209 77h344v47q0 111 -54 172t-138 62h-103q-84 0 -127 -18t-80 -60q-23 -23 -47 0l-41 41
q-20 20 -2 41q53 66 121 92t176 27h103q129 -1 222 -101t93 -256v-561q0 -15 4 -32t-6 -17zM504 1186h-66q-37 0 -20 37l153 379q12 37 43 36h91q39 0 20 -36l-178 -379q-20 -37 -43 -37z" />
    <glyph glyph-name="acircumflex" unicode="&#xe2;" horiz-adv-x="978" 
d="M383 121h109q78 2 131 39t104 102v178h-344q-168 0 -168 -157q0 -70 50 -116t118 -46zM848 0h-88q-33 0 -33 49v64q-119 -115 -235 -115h-109q-113 -4 -202 82t-89 207t82 199t209 77h344v47q0 111 -54 172t-138 62h-103q-84 0 -127 -18t-80 -60q-23 -23 -47 0l-41 41
q-20 20 -2 41q53 66 121 92t176 27h103q129 -1 222 -101t93 -256v-561q0 -15 4 -32t-6 -17zM219 1200h-84q-16 0 -21 12t5 27l280 367q23 33 47 32h60q27 0 49 -32l281 -367q10 -15 5 -27t-22 -12h-84q-18 0 -47 39l-211 279l-211 -279q-29 -39 -47 -39z" />
    <glyph glyph-name="atilde" unicode="&#xe3;" horiz-adv-x="978" 
d="M383 121h109q78 2 131 39t104 102v178h-344q-168 0 -168 -157q0 -70 50 -116t118 -46zM848 0h-88q-33 0 -33 49v64q-119 -115 -235 -115h-109q-113 -4 -202 82t-89 207t82 199t209 77h344v47q0 111 -54 172t-138 62h-103q-84 0 -127 -18t-80 -60q-23 -23 -47 0l-41 41
q-20 20 -2 41q53 66 121 92t176 27h103q129 -1 222 -101t93 -256v-561q0 -15 4 -32t-6 -17zM135 1374l-29 56q-12 23 21 45q102 75 181 77t184 -65q100 -59 144 -59t146 71q20 12 35 -16l29 -56q12 -23 -21 -45q-102 -74 -181 -76t-183 64q-101 59 -145 58t-146 -70
q-21 -15 -35 16z" />
    <glyph glyph-name="adieresis" unicode="&#xe4;" horiz-adv-x="978" 
d="M383 121h109q78 2 131 39t104 102v178h-344q-168 0 -168 -157q0 -70 50 -116t118 -46zM850 610v-561q0 -13 4 -31t-6 -18h-88q-33 0 -33 49v64q-119 -115 -235 -115h-109q-113 -4 -202 82t-89 207t82 199t209 77h344v47q0 111 -54 172t-138 62h-103q-84 0 -127 -18
t-80 -60q-23 -23 -47 0l-41 41q-20 20 -2 41q53 66 121 92t176 27h103q129 -1 222 -101t93 -256zM731 1487h98q31 0 31 -31v-117q0 -31 -31 -30h-98q-31 0 -31 30v117q0 31 31 31zM223 1309h-98q-31 0 -31 30v117q0 31 31 31h98q31 0 31 -31v-117q0 -30 -31 -30z" />
    <glyph glyph-name="aring" unicode="&#xe5;" horiz-adv-x="978" 
d="M383 121h109q78 2 131 39t104 102v178h-344q-168 0 -168 -157q0 -70 50 -116t118 -46zM848 0h-88q-33 0 -33 49v64q-119 -115 -235 -115h-109q-113 -4 -202 82t-89 207t82 199t209 77h344v47q0 111 -54 172t-138 62h-103q-84 0 -127 -18t-80 -60q-23 -23 -47 0l-41 41
q-20 20 -2 41q53 66 121 92t176 27h103q129 -1 222 -101t93 -256v-561q0 -15 4 -32t-6 -17zM377 1448v-16q0 -90 90 -91h18q92 0 93 91v16q0 90 -93 90h-18q-90 0 -90 -90zM489 1239h-26q-82 0 -135 52t-54 136v23q0 82 54 136t135 54h26q81 0 135 -54t54 -136v-23
q0 -84 -52 -136t-137 -52z" />
    <glyph glyph-name="ae" unicode="&#xe6;" horiz-adv-x="1617" 
d="M721 440h-344q-168 0 -168 -157q0 -70 50 -116t118 -46h108q78 2 131.5 39t104.5 102v178zM1167 846h-77q-88 0 -159 -63.5t-81 -155.5v-58h543v29q0 106 -74 177t-152 71zM850 446v-112q12 -90 83 -151.5t157 -61.5h77q119 0 232 131q23 25 43 6l47 -41q23 -20 6 -43
q-143 -176 -328 -176h-77q-84 0 -163 44t-132 118q-74 -78 -143.5 -120t-166.5 -42h-108q-113 -4 -202 82t-89 207t82 198.5t209 77.5h344v47q0 109 -56.5 171.5t-138.5 62.5h-73q-137 0 -238 -80q-27 -23 -45 0l-37 43q-18 23 -2 41q115 119 322 119h73q80 0 152 -43
t117 -117q53 74 132 118t163 44h77q123 0 236 -108.5t113 -260.5v-92q0 -61 -62 -62h-604z" />
    <glyph glyph-name="ccedilla" unicode="&#xe7;" horiz-adv-x="985" 
d="M780 -258q0 -156 -182 -156h-92q-84 0 -131 47.5t-49 124.5q0 20 18 21h82q20 0 20 -17q2 -61 93 -61h44q27 0 41 2q32 4 32.5 38t-37 44t-122.5 20.5t-97 16.5q-30 14 -40 58t48 118l6 6q-123 25 -212 129.5t-89 231.5v233q0 145 112.5 258t251.5 113h74
q117 0 228.5 -93.5t113.5 -199.5q0 -33 -29 -33h-63q-35 0 -35 27q-2 61 -71.5 118.5t-143.5 57.5h-74q-94 0 -167.5 -74t-73.5 -174v-233q0 -100 72.5 -172t168.5 -72h74q119 0 231 131q23 24 43 6l47 -41q23 -20 7 -43q-143 -176 -328 -176h-19q-32 -45 -29 -56.5t3 -16.5
t12 -13t30 -8l30 -4q142 -16 166 -48q36 -44 36 -110z" />
    <glyph glyph-name="egrave" unicode="&#xe8;" horiz-adv-x="1005" 
d="M780 569v29q0 106 -73.5 177t-151.5 71h-78q-94 0 -167.5 -74t-73.5 -174v-29h544zM477 969h78q123 0 235.5 -108.5t112.5 -260.5v-92q0 -61 -61 -62h-606v-81q0 -100 72.5 -172t168.5 -72h78q119 0 231 131q23 25 43 6l48 -41q23 -20 6 -43q-143 -176 -328 -176h-78
q-139 0 -251.5 110.5t-112.5 256.5v233q0 145 112.5 258t251.5 113zM528 1186h-65q-23 0 -43 37l-178 379q-18 37 20 36h90q31 1 43 -36l154 -379q16 -37 -21 -37z" />
    <glyph glyph-name="eacute" unicode="&#xe9;" horiz-adv-x="1005" 
d="M780 569v29q0 106 -73.5 177t-151.5 71h-78q-94 0 -167.5 -74t-73.5 -174v-29h544zM477 969h78q123 0 235.5 -108.5t112.5 -260.5v-92q0 -61 -61 -62h-606v-81q0 -100 72.5 -172t168.5 -72h78q119 0 231 131q23 25 43 6l48 -41q23 -20 6 -43q-143 -176 -328 -176h-78
q-139 0 -251.5 110.5t-112.5 256.5v233q0 145 112.5 258t251.5 113zM729 1638q39 0 21 -36l-179 -379q-20 -37 -43 -37h-65q-37 0 -21 37l154 379q12 37 43 36h90z" />
    <glyph glyph-name="ecircumflex" unicode="&#xea;" horiz-adv-x="1005" 
d="M780 569v29q0 106 -73.5 177t-151.5 71h-78q-94 0 -167.5 -74t-73.5 -174v-29h544zM477 969h78q123 0 235.5 -108.5t112.5 -260.5v-92q0 -61 -61 -62h-606v-81q0 -100 72.5 -172t168.5 -72h78q119 0 231 131q23 25 43 6l48 -41q23 -20 6 -43q-143 -176 -328 -176h-78
q-139 0 -251.5 110.5t-112.5 256.5v233q0 145 112.5 258t251.5 113zM530 1638q27 0 50 -32l280 -367q10 -14 5 -26.5t-21 -12.5h-84q-18 0 -47 39l-211 279l-211 -279q-29 -39 -47 -39h-84q-16 0 -21.5 12.5t4.5 26.5l281 367q23 33 47 32h59z" />
    <glyph glyph-name="edieresis" unicode="&#xeb;" horiz-adv-x="1005" 
d="M780 569v29q0 106 -73.5 177t-151.5 71h-78q-94 0 -167.5 -74t-73.5 -174v-29h544zM477 969h78q123 0 235.5 -108.5t112.5 -260.5v-92q0 -61 -61 -62h-606v-81q0 -100 72.5 -172t168.5 -72h78q119 0 231 131q23 25 43 6l48 -41q23 -20 6 -43q-143 -176 -328 -176h-78
q-139 0 -251.5 110.5t-112.5 256.5v233q0 145 112.5 258t251.5 113zM725 1339v117q0 31 31 31h98q31 0 31 -31v-117q0 -31 -31 -30h-98q-31 -1 -31 30zM119 1339v117q0 31 31 31h98q31 0 31 -31v-117q0 -31 -31 -30h-98q-31 -1 -31 30z" />
    <glyph glyph-name="igrave" unicode="&#xec;" horiz-adv-x="450" 
d="M164 31v903q0 31 31 31h61q31 0 31 -31v-903q0 -31 -31 -31h-61q-31 0 -31 31zM252 1186h-66q-23 0 -43 37l-178 379q-18 37 21 36h90q31 1 43 -36l153 -379q16 -37 -20 -37z" />
    <glyph glyph-name="iacute" unicode="&#xed;" horiz-adv-x="450" 
d="M164 31v903q0 31 31 31h61q31 0 31 -31v-903q0 -31 -31 -31h-61q-31 0 -31 31zM453 1638q39 0 20 -36l-178 -379q-20 -37 -43 -37h-66q-36 0 -20 37l153 379q12 37 43 36h91z" />
    <glyph glyph-name="icircumflex" unicode="&#xee;" horiz-adv-x="450" 
d="M164 31v903q0 31 31 31h61q31 0 31 -31v-903q0 -31 -31 -31h-61q-31 0 -31 31zM254 1638q27 0 49 -32l281 -367q10 -15 5 -27t-22 -12h-84q-18 0 -47 39l-211 279l-211 -279q-29 -39 -47 -39h-84q-16 0 -21 12t5 27l280 367q23 33 48 32h59z" />
    <glyph glyph-name="idieresis" unicode="&#xef;" horiz-adv-x="450" 
d="M164 31v903q0 31 31 31h61q31 0 31 -31v-903q0 -31 -31 -31h-61q-31 0 -31 31zM449 1339v117q0 31 30 31h99q31 0 30 -31v-117q0 -31 -30 -30h-99q-30 -1 -30 30zM-158 1339v117q0 31 31 31h98q31 0 31 -31v-117q0 -31 -31 -30h-98q-31 -1 -31 30z" />
    <glyph glyph-name="eth" unicode="&#xf0;" horiz-adv-x="1112" 
d="M590 102q244 0 274 330q16 174 -58 264q-74 88 -276 90q-100 0 -160 -20t-90 -72t-40 -113q-10 -60 -11 -163q-2 -315 277 -316h84zM897 1487h86q19 0 25 -10t-7 -27l-98 -127q63 -102 76 -227q39 -352 8 -682q-18 -203 -126 -319t-271 -115h-84q-178 0 -289 114
t-115 348q-4 236 100 356t334 120t336 -111q10 143 -20 319q-12 57 -27 93l-80 -103q-25 -35 -47 -35h-86q-18 1 -24 11t4 26l158 205q-74 68 -193 68h-49q-31 0 -31 30v62q0 31 31 30h49q160 0 266 -96l27 35q29 35 47 35z" />
    <glyph glyph-name="ntilde" unicode="&#xf1;" horiz-adv-x="1036" 
d="M483 963h86q141 0 242.5 -113t101.5 -254v-565q0 -31 -30 -31h-62q-31 0 -30 31v565q0 96 -61.5 170t-160.5 74h-86q-78 0 -149.5 -55.5t-73.5 -116.5v-637q0 -31 -31 -31h-61q-31 0 -31 31v901q0 31 31 31h61q31 0 31 -31v-53q106 84 223 84zM866 1483l29 -56
q12 -23 -21 -45q-102 -74 -181 -76.5t-183 64.5q-100 59 -144 58t-147 -70q-20 -14 -35 16l-28 56q-12 23 20 45q102 74 181 76.5t184 -64.5q100 -59 144 -58t146 70q21 13 35 -16z" />
    <glyph glyph-name="ograve" unicode="&#xf2;" horiz-adv-x="1038" 
d="M803 385v193q0 112 -70 190t-174 78h-80q-109 0 -177 -79t-66 -189v-193q0 -111 68 -187t175 -77h80q106 1 175 77t69 187zM479 969h80q151 0 259 -118t108 -273v-193q0 -155 -108 -271t-259 -116h-80q-154 0 -260 116t-106 271v193q0 156 106 274t260 117zM547 1186h-66
q-23 0 -43 37l-178 379q-18 37 21 36h90q31 1 43 -36l153 -379q16 -37 -20 -37z" />
    <glyph glyph-name="oacute" unicode="&#xf3;" horiz-adv-x="1038" 
d="M803 385v193q0 112 -70 190t-174 78h-80q-109 0 -177 -79t-66 -189v-193q0 -111 68 -187t175 -77h80q106 1 175 77t69 187zM479 969h80q151 0 259 -118t108 -273v-193q0 -155 -108 -271t-259 -116h-80q-154 0 -260 116t-106 271v193q0 156 106 274t260 117zM748 1638
q39 0 20 -36l-178 -379q-20 -37 -43 -37h-66q-36 0 -20 37l153 379q12 37 43 36h91z" />
    <glyph glyph-name="ocircumflex" unicode="&#xf4;" horiz-adv-x="1038" 
d="M803 385v193q0 112 -70 190t-174 78h-80q-109 0 -177 -79t-66 -189v-193q0 -111 68 -187t175 -77h80q106 1 175 77t69 187zM479 969h80q151 0 259 -118t108 -273v-193q0 -155 -108 -271t-259 -116h-80q-154 0 -260 116t-106 271v193q0 156 106 274t260 117zM549 1638
q27 0 49 -32l281 -367q10 -15 5 -27t-22 -12h-84q-18 0 -47 39l-211 279l-211 -279q-29 -39 -47 -39h-84q-16 0 -21 12t5 27l280 367q23 33 47 32h60z" />
    <glyph glyph-name="otilde" unicode="&#xf5;" horiz-adv-x="1038" 
d="M803 385v193q0 112 -70 190t-174 78h-80q-109 0 -177 -79t-66 -189v-193q0 -111 68 -187t175 -77h80q106 1 175 77t69 187zM479 969h80q151 0 259 -118t108 -273v-193q0 -155 -108 -271t-259 -116h-80q-154 0 -260 116t-106 271v193q0 156 106 274t260 117zM860 1483
l29 -56q12 -23 -21 -45q-102 -74 -181 -76t-183 64q-100 59 -144 58t-147 -70q-20 -14 -35 16l-28 56q-12 23 20 45q102 75 181 77t184 -65q100 -59 144 -59t146 71q21 13 35 -16z" />
    <glyph glyph-name="odieresis" unicode="&#xf6;" horiz-adv-x="1038" 
d="M803 385v193q0 112 -70 190t-174 78h-80q-109 0 -177 -79t-66 -189v-193q0 -111 68 -187t175 -77h80q106 1 175 77t69 187zM479 969h80q151 0 259 -118t108 -273v-193q0 -155 -108 -271t-259 -116h-80q-154 0 -260 116t-106 271v193q0 156 106 274t260 117zM743 1339v117
q0 31 31 31h98q31 0 31 -31v-117q0 -31 -31 -30h-98q-31 -1 -31 30zM137 1339v117q0 31 31 31h98q31 0 31 -31v-117q0 -31 -31 -30h-98q-31 -1 -31 30z" />
    <glyph glyph-name="divide" unicode="&#xf7;" horiz-adv-x="1052" 
d="M449 293v117q0 31 30 30h99q31 0 30 -30v-117q0 -31 -30 -31h-99q-30 0 -30 31zM154 723h747q29 0 29 -31v-61q0 -31 -31 -31h-745q-31 0 -31 31v61q0 31 31 31zM449 913v117q0 31 30 31h99q31 0 30 -31v-117q0 -31 -30 -30h-99q-30 -1 -30 30z" />
    <glyph glyph-name="oslash" unicode="&#xf8;" horiz-adv-x="1038" 
d="M803 385v193q0 125 -86 204l-287 -657q33 -4 49 -4h80q106 1 175 77t69 187zM236 578v-193q0 -127 83 -205l289 660q-25 6 -49 6h-80q-109 0 -176 -78t-67 -190zM926 578v-193q0 -155 -108 -271t-259 -116h-80q-47 0 -100 14q-12 -12 -31 -12h-74q-33 0 -20 31l16 37
q-74 55 -115 139q-42 84 -42 178v193q0 156 106 274t260 117h80q49 0 103 -17q10 12 28 13h74q32 0 20 -31l-16 -37q74 -55 116 -140t42 -179z" />
    <glyph glyph-name="ugrave" unicode="&#xf9;" horiz-adv-x="1054" 
d="M907 932v-901q0 -31 -30 -31h-62q-31 0 -31 31v51q-106 -84 -223 -84h-80q-145 0 -247 108q-101 109 -101 254v572q0 31 31 31h61q31 0 31 -31v-572q0 -100 62 -170t163 -69h80q78 0 150 55t73 117v639q0 31 31 31h62q30 0 30 -31zM551 1186h-66q-23 0 -43 37l-178 379
q-18 37 21 36h90q31 1 43 -36l153 -379q16 -37 -20 -37z" />
    <glyph glyph-name="uacute" unicode="&#xfa;" horiz-adv-x="1054" 
d="M907 932v-901q0 -31 -30 -31h-62q-31 0 -31 31v51q-106 -84 -223 -84h-80q-145 0 -247 108q-101 109 -101 254v572q0 31 31 31h61q31 0 31 -31v-572q0 -100 62 -170t163 -69h80q78 0 150 55t73 117v639q0 31 31 31h62q30 0 30 -31zM752 1638q39 0 20 -36l-178 -379
q-20 -37 -43 -37h-66q-36 0 -20 37l153 379q12 37 44 36h90z" />
    <glyph glyph-name="ucircumflex" unicode="&#xfb;" horiz-adv-x="1054" 
d="M907 932v-901q0 -31 -30 -31h-62q-31 0 -31 31v51q-106 -84 -223 -84h-80q-145 0 -247 108q-101 109 -101 254v572q0 31 31 31h61q31 0 31 -31v-572q0 -100 62 -170t163 -69h80q78 0 150 55t73 117v639q0 31 31 31h62q30 0 30 -31zM553 1638q27 0 49 -32l281 -367
q10 -15 5 -27t-22 -12h-84q-18 0 -47 39l-211 279l-211 -279q-29 -39 -47 -39h-84q-16 0 -21 12t5 27l280 367q23 33 48 32h59z" />
    <glyph glyph-name="udieresis" unicode="&#xfc;" horiz-adv-x="1054" 
d="M907 932v-901q0 -31 -30 -31h-62q-31 0 -31 31v51q-106 -84 -223 -84h-80q-145 0 -247 108q-101 109 -101 254v572q0 31 31 31h61q31 0 31 -31v-572q0 -100 62 -170t163 -69h80q78 0 150 55t73 117v639q0 31 31 31h62q30 0 30 -31zM748 1339v117q0 31 30 31h99
q31 0 30 -31v-117q0 -31 -30 -30h-99q-30 -1 -30 30zM141 1339v117q0 31 31 31h98q31 0 31 -31v-117q0 -31 -31 -30h-98q-31 -1 -31 30z" />
    <glyph glyph-name="yacute" unicode="&#xfd;" horiz-adv-x="1013" 
d="M844 963h74q33 0 18 -37l-545 -1301q-14 -35 -45 -35h-74q-35 0 -20 37l184 439l-360 860q-14 37 18 37h76q29 0 43 -35l293 -697l293 697q14 35 45 35zM535 1186h-66q-37 0 -20 37l153 379q12 37 43 36h90q39 0 21 -36l-178 -379q-20 -37 -43 -37z" />
    <glyph glyph-name="thorn" unicode="&#xfe;" horiz-adv-x="1038" 
d="M793 346v250q1 96 -61 170t-161 74h-82q-77 0 -149 -56t-74 -116v-441q45 -43 111 -73t112 -31h82q88 1 155 67t67 156zM489 963h82q141 0 243 -113t101 -254v-250q0 -138 -105 -242t-239 -104h-82q-113 0 -223 80v-459q0 -31 -30 -31h-62q-31 0 -31 31v1835q0 31 31 31
h62q31 0 30 -31v-577q106 84 223 84z" />
    <glyph glyph-name="ydieresis" unicode="&#xff;" horiz-adv-x="1013" 
d="M844 963h74q33 0 18 -37l-545 -1301q-14 -35 -45 -35h-74q-35 0 -20 37l184 439l-360 860q-14 37 18 37h76q29 0 43 -35l293 -697l293 697q14 35 45 35zM860 1309h-98q-31 0 -31 30v117q0 31 31 31h98q31 0 31 -31v-117q0 -30 -31 -30zM254 1309h-98q-31 0 -31 30v117
q0 31 31 31h98q31 0 31 -31v-117q0 -30 -31 -30z" />
    <glyph glyph-name="Amacron" unicode="&#x100;" horiz-adv-x="1234" 
d="M854 545l-233 753l-240 -753h473zM1114 0h-61q-31 0 -39 33l-121 389h-551l-123 -389q-8 -33 -37 -33h-63q-35 0 -23 33l451 1427q10 33 39 33h65q29 0 39 -33l449 -1427q12 -33 -25 -33zM950 1888h-663q-31 0 -31 31v61q0 31 31 31h663q31 0 31 -31v-61q0 -31 -31 -31z
" />
    <glyph glyph-name="amacron" unicode="&#x101;" horiz-adv-x="978" 
d="M383 121h109q78 2 131 39t104 102v178h-344q-168 0 -168 -157q0 -70 50 -116t118 -46zM848 0h-88q-33 0 -33 49v64q-119 -115 -235 -115h-109q-113 -4 -202 82t-89 207t82 199t209 77h344v47q0 111 -54 172t-138 62h-103q-84 0 -127 -18t-80 -60q-23 -23 -47 0l-41 41
q-20 20 -2 41q53 66 121 92t176 27h103q129 -1 222 -101t93 -256v-561q0 -15 4 -32t-6 -17zM809 1364h-664q-31 0 -30 31v61q0 31 30 31h664q31 0 31 -31v-61q0 -31 -31 -31z" />
    <glyph glyph-name="Abreve" unicode="&#x102;" horiz-adv-x="1234" 
d="M854 545l-233 753l-240 -753h473zM1114 0h-61q-31 0 -39 33l-121 389h-551l-123 -389q-8 -33 -37 -33h-63q-35 0 -23 33l451 1427q10 33 39 33h65q29 0 39 -33l449 -1427q12 -33 -25 -33zM657 1835h-79q-133 0 -209 77t-84 220q0 31 30 31h62q31 0 31 -31
q14 -174 170 -174h79q156 0 170 174q0 31 31 31h62q31 0 30 -31q-8 -143 -84 -220t-209 -77z" />
    <glyph glyph-name="abreve" unicode="&#x103;" horiz-adv-x="978" 
d="M383 121h109q78 2 131 39t104 102v178h-344q-168 0 -168 -157q0 -70 50 -116t118 -46zM848 0h-88q-33 0 -33 49v64q-119 -115 -235 -115h-109q-113 -4 -202 82t-89 207t82 199t209 77h344v47q0 111 -54 172t-138 62h-103q-84 0 -127 -18t-80 -60q-23 -23 -47 0l-41 41
q-20 20 -2 41q53 66 121 92t176 27h103q129 -1 222 -101t93 -256v-561q0 -15 4 -32t-6 -17zM516 1311h-80q-133 0 -209 77t-84 220q0 31 31 30h62q31 0 30 -30q14 -174 170 -174h80q156 0 170 174q0 31 31 30h61q31 0 31 -30q-8 -143 -84 -220t-209 -77z" />
    <glyph glyph-name="Aogonek" unicode="&#x104;" horiz-adv-x="1234" 
d="M854 545l-233 753l-240 -753h473zM944 -266h197q20 0 20 -21v-78q0 -20 -20 -20h-252q-182 0 -182 156q0 96 39 124t163 39q23 2 31 4t24 5q39 5 48 24q12 36 2 66l-121 389h-551l-123 -389q-8 -33 -37 -33h-63q-35 0 -23 33l451 1427q10 33 39 33h65q29 0 39 -33
l449 -1427q2 -6 2 -17q31 -168 -123 -182q-28 -2 -87 -10t-75 -9t-19 -11t-3 -30q0 -22 7 -30t17 -9t86 -1z" />
    <glyph glyph-name="aogonek" unicode="&#x105;" horiz-adv-x="978" 
d="M383 121h109q78 2 131 39t104 102v178h-344q-168 0 -168 -157q0 -70 50 -116t118 -46zM547 -224q0 -22 7 -30q9 -10 50 -10h250q20 0 20 -21v-77q0 -20 -20 -21h-252q-182 0 -182 156q0 96 35 121t113 35t86 12t22 4q16 2 32 10t20 24q5 16 2 36t-3 34v64
q-119 -115 -235 -115h-109q-113 -4 -202 82t-89 207t82 199t209 77h344v47q0 111 -54 172t-138 62h-103q-84 0 -127 -18t-80 -60q-23 -23 -47 0l-41 41q-20 20 -2 41q53 66 121 92t176 27h103q129 -1 222 -101t93 -256v-561l2 -18v-2l4 -15v-4q27 -160 -125 -174
q-27 -2 -85 -10t-76 -9q-17 -1 -20 -11t-3 -30z" />
    <glyph glyph-name="Cacute" unicode="&#x106;" horiz-adv-x="1159" 
d="M965 481h61q31 0 31 -30q-2 -190 -130 -334t-296 -144h-94q-174 0 -304.5 145.5t-130.5 346.5v557q0 201 129 344t306 143h94q168 0 296 -141t130 -332q0 -31 -31 -30h-61q-33 0 -33 30q0 143 -89 246.5t-212 103.5h-94q-129 0 -220.5 -104t-91.5 -260v-557
q0 -156 91.5 -262.5t220.5 -106.5h94q123 0 213 104.5t88 250.5q0 30 33 30zM717 2163h90q39 0 20 -37l-178 -379q-20 -37 -43 -37h-65q-37 0 -21 37l154 379q12 37 43 37z" />
    <glyph glyph-name="cacute" unicode="&#x107;" horiz-adv-x="985" 
d="M864 643h-63q-35 0 -35 27q-2 61 -71.5 118.5t-143.5 57.5h-74q-94 0 -167.5 -74t-73.5 -174v-233q0 -100 72.5 -172t168.5 -72h74q119 0 231 131q23 25 43 6l47 -41q23 -20 7 -43q-143 -176 -328 -176h-74q-139 0 -251.5 110.5t-112.5 256.5v233q0 145 112.5 258
t251.5 113h74q117 0 228.5 -93.5t113.5 -199.5q0 -33 -29 -33zM719 1638q39 0 20 -36l-178 -379q-20 -37 -43 -37h-65q-37 0 -21 37l154 379q12 37 43 36h90z" />
    <glyph glyph-name="Cdotaccent" unicode="&#x10a;" horiz-adv-x="1159" 
d="M965 481h61q31 0 31 -30q-2 -190 -130 -334t-296 -144h-94q-174 0 -304.5 145.5t-130.5 346.5v557q0 201 129 344t306 143h94q168 0 296 -141t130 -332q0 -31 -31 -30h-61q-33 0 -33 30q0 143 -89 246.5t-212 103.5h-94q-129 0 -220.5 -104t-91.5 -260v-557
q0 -156 91.5 -262.5t220.5 -106.5h94q123 0 213 104.5t88 250.5q0 30 33 30zM489 1849v127q0 35 35 35h113q33 0 33 -35v-127q0 -35 -33 -34h-113q-35 -1 -35 34z" />
    <glyph glyph-name="cdotaccent" unicode="&#x10b;" horiz-adv-x="985" 
d="M864 643h-63q-35 0 -35 27q-2 61 -71.5 118.5t-143.5 57.5h-74q-94 0 -167.5 -74t-73.5 -174v-233q0 -100 72.5 -172t168.5 -72h74q119 0 231 131q23 25 43 6l47 -41q23 -20 7 -43q-143 -176 -328 -176h-74q-139 0 -251.5 110.5t-112.5 256.5v233q0 145 112.5 258
t251.5 113h74q117 0 228.5 -93.5t113.5 -199.5q0 -33 -29 -33zM401 1325v127q0 35 35 35h113q33 0 33 -35v-127q0 -35 -33 -35h-113q-35 0 -35 35z" />
    <glyph glyph-name="Ccaron" unicode="&#x10c;" horiz-adv-x="1159" 
d="M965 481h61q31 0 31 -30q-2 -190 -130 -334t-296 -144h-94q-174 0 -304.5 145.5t-130.5 346.5v557q0 201 129 344t306 143h94q168 0 296 -141t130 -332q0 -31 -31 -30h-61q-33 0 -33 30q0 143 -89 246.5t-212 103.5h-94q-129 0 -220.5 -104t-91.5 -260v-557
q0 -156 91.5 -262.5t220.5 -106.5h94q123 0 213 104.5t88 250.5q0 30 33 30zM238 2163h84q18 0 47 -39l211 -279l211 279q29 39 47 39h84q16 0 21 -12.5t-5 -26.5l-281 -367q-23 -33 -49 -33h-59q-24 0 -47 33l-281 367q-10 14 -5 26.5t22 12.5z" />
    <glyph glyph-name="ccaron" unicode="&#x10d;" horiz-adv-x="985" 
d="M864 643h-63q-35 0 -35 27q-2 61 -71.5 118.5t-143.5 57.5h-74q-94 0 -167.5 -74t-73.5 -174v-233q0 -100 72.5 -172t168.5 -72h74q119 0 231 131q23 25 43 6l47 -41q23 -20 7 -43q-143 -176 -328 -176h-74q-139 0 -251.5 110.5t-112.5 256.5v233q0 145 112.5 258
t251.5 113h74q117 0 228.5 -93.5t113.5 -199.5q0 -33 -29 -33zM150 1638h83q18 0 48 -39l211 -278l210 278q29 39 48 39h84q16 0 21 -12t-5 -27l-281 -366q-23 -33 -49 -33h-59q-24 0 -47 33l-281 366q-10 14 -5 26.5t22 12.5z" />
    <glyph glyph-name="Dcaron" unicode="&#x10e;" horiz-adv-x="1181" 
d="M946 481v525q0 150 -90 254t-213 104h-397v-1241h397q123 0 213 104t90 254zM154 1487h489q168 1 297 -143t129 -338v-525q0 -195 -129 -338t-297 -143h-489q-31 0 -31 31v1425q0 31 31 31zM313 2163q18 0 47 -39l211 -279l211 279q29 39 47 39h84q15 -1 21 -13t-4 -26
l-281 -367q-23 -33 -49 -33h-59q-24 0 -47 33l-281 367q-10 14 -5 26t21 13h84z" />
    <glyph glyph-name="dcaron" unicode="&#x10f;" horiz-adv-x="1329" 
d="M457 840q-97 0 -159 -74t-62 -170v-250q0 -90 66 -157t155 -66h82q47 1 113 31t110 73v441q-2 61 -74 116t-149 56h-82zM1028 1487h127q31 0 31 -31v-205q0 -100 -20 -176t-87 -153q-18 -20 -41 0l-45 41q-27 25 -8 43q66 66 77 146q3 30 3 87l16 21h-53q-31 0 -31 30
v166q0 31 31 31zM793 1487h61q31 0 31 -31v-1425q0 -31 -31 -31h-61q-31 0 -31 31v49q-111 -80 -223 -80h-82q-133 0 -239 104q-105 104 -105 242v250q0 141 101 254t243 113h82q117 0 223 -84v577q0 31 31 31z" />
    <glyph glyph-name="Dcroat" unicode="&#x110;" horiz-adv-x="1304" 
d="M1069 481v525q0 150 -90 254t-213 104h-397v-522h325q31 0 31 -31v-61q0 -31 -31 -31h-325v-596h397q123 0 213 104t90 254zM276 1487h490q168 1 297 -143t129 -338v-525q0 -195 -129 -338t-297 -143h-490q-31 0 -30 31v688h-92q-31 0 -31 31v61q0 31 31 31h92v614
q-1 31 30 31z" />
    <glyph glyph-name="dcroat" unicode="&#x111;" horiz-adv-x="1028" 
d="M457 840q-97 0 -159 -74t-62 -170v-250q0 -90 66 -157t155 -66h82q47 1 113 31t110 73v441q-2 61 -74 116t-149 56h-82zM885 1237h100q31 0 31 -31v-61q0 -31 -31 -31h-100v-1083q0 -31 -31 -31h-61q-31 0 -31 31v49q-111 -80 -223 -80h-82q-133 0 -239 104
q-105 104 -105 242v250q0 141 101 254t243 113h82q117 0 223 -84v235h-440q-31 0 -31 31v61q0 31 31 31h440v219q0 31 31 31h61q31 0 31 -31v-219z" />
    <glyph glyph-name="Emacron" unicode="&#x112;" horiz-adv-x="1128" 
d="M256 811h596q31 0 31 -31v-61q0 -31 -31 -31h-596v-565h729q31 0 31 -31v-61q0 -31 -31 -31h-821q-31 0 -31 31v1425q0 31 31 31h821q31 0 31 -31v-61q0 -31 -31 -31h-729v-553zM901 1888h-663q-31 0 -31 31v61q0 31 31 31h663q31 0 31 -31v-61q0 -31 -31 -31z" />
    <glyph glyph-name="emacron" unicode="&#x113;" horiz-adv-x="1005" 
d="M780 569v29q0 106 -73.5 177t-151.5 71h-78q-94 0 -167.5 -74t-73.5 -174v-29h544zM477 969h78q123 0 235.5 -108.5t112.5 -260.5v-92q0 -61 -61 -62h-606v-81q0 -100 72.5 -172t168.5 -72h78q119 0 231 131q23 25 43 6l48 -41q23 -20 6 -43q-143 -176 -328 -176h-78
q-139 0 -251.5 110.5t-112.5 256.5v233q0 145 112.5 258t251.5 113zM834 1364h-664q-31 0 -31 31v61q0 31 31 31h664q31 0 30 -31v-61q1 -31 -30 -31z" />
    <glyph glyph-name="Edotaccent" unicode="&#x116;" horiz-adv-x="1128" 
d="M256 811h596q31 0 31 -31v-61q0 -31 -31 -31h-596v-565h729q31 0 31 -31v-61q0 -31 -31 -31h-821q-31 0 -31 31v1425q0 31 31 31h821q31 0 31 -31v-61q0 -31 -31 -31h-729v-553zM479 1849v127q0 35 35 35h113q33 0 32 -35v-127q0 -35 -32 -34h-113q-35 -1 -35 34z" />
    <glyph glyph-name="edotaccent" unicode="&#x117;" horiz-adv-x="1005" 
d="M780 569v29q0 106 -73.5 177t-151.5 71h-78q-94 0 -167.5 -74t-73.5 -174v-29h544zM477 969h78q123 0 235.5 -108.5t112.5 -260.5v-92q0 -61 -61 -62h-606v-81q0 -100 72.5 -172t168.5 -72h78q119 0 231 131q23 25 43 6l48 -41q23 -20 6 -43q-143 -176 -328 -176h-78
q-139 0 -251.5 110.5t-112.5 256.5v233q0 145 112.5 258t251.5 113zM412 1325v127q0 35 34 35h113q33 0 33 -35v-127q0 -35 -33 -35h-113q-34 0 -34 35z" />
    <glyph glyph-name="Eogonek" unicode="&#x118;" horiz-adv-x="1128" 
d="M824 -266h196q20 0 20 -21v-78q0 -20 -20 -20h-252q-182 0 -182 156q0 96 38 123t142.5 39t113.5 21q19 19 19 46h-735q-31 0 -31 31v1425q0 31 31 31h821q31 0 31 -31v-61q0 -31 -31 -31h-729v-553h596q31 0 31 -31v-61q0 -31 -31 -31h-596v-565h729q31 0 31 -31v-61
l2 -4q20 -90 -14.5 -138.5t-106.5 -54.5q-27 -2 -85.5 -10t-75.5 -9t-20 -10.5t-3 -30.5t7 -29.5t17.5 -9.5t86.5 -1z" />
    <glyph glyph-name="eogonek" unicode="&#x119;" horiz-adv-x="1005" 
d="M236 569h544v29q0 106 -73.5 177t-151.5 71h-78q-94 0 -167.5 -74t-73.5 -174v-29zM236 446v-81q0 -100 72.5 -172t168.5 -72h78q119 0 231 131q23 25 43 6l48 -41q23 -20 6 -43q-86 -104 -178 -145v-2q20 -90 -15 -138.5t-106 -54.5q-27 -2 -86 -10t-75.5 -9t-20 -10.5
t-3.5 -30.5q-1 -22 7 -30q8 -10 50 -10h251q20 0 20 -21v-78q0 -20 -20 -20h-252q-182 0 -183 156q0 96 39 123.5t142 38.5t112.5 20.5t15 17t5.5 29.5l-31 -2h-78q-139 0 -251.5 110.5t-112.5 256.5v233q0 145 112.5 258t251.5 113h78q123 0 235.5 -108.5t112.5 -260.5v-92
q0 -61 -61 -62h-606z" />
    <glyph glyph-name="Ecaron" unicode="&#x11a;" horiz-adv-x="1128" 
d="M256 811h596q31 0 31 -31v-61q0 -31 -31 -31h-596v-565h729q31 0 31 -31v-61q0 -31 -31 -31h-821q-31 0 -31 31v1425q0 31 31 31h821q31 0 31 -31v-61q0 -31 -31 -31h-729v-553zM227 2163h84q18 0 47 -39l211 -279l211 279q29 39 47 39h84q16 0 21.5 -12.5t-4.5 -26.5
l-281 -367q-23 -33 -49 -33h-59q-24 0 -47 33l-281 367q-10 14 -5 26.5t21 12.5z" />
    <glyph glyph-name="ecaron" unicode="&#x11b;" horiz-adv-x="1005" 
d="M780 569v29q0 106 -73.5 177t-151.5 71h-78q-94 0 -167.5 -74t-73.5 -174v-29h544zM477 969h78q123 0 235.5 -108.5t112.5 -260.5v-92q0 -61 -61 -62h-606v-81q0 -100 72.5 -172t168.5 -72h78q119 0 231 131q23 25 43 6l48 -41q23 -20 6 -43q-143 -176 -328 -176h-78
q-139 0 -251.5 110.5t-112.5 256.5v233q0 145 112.5 258t251.5 113zM160 1638h84q18 0 47 -39l211 -278l211 278q29 39 47 39h84q16 0 21 -12t-5 -27l-280 -366q-23 -33 -50 -33h-59q-24 0 -47 33l-281 366q-10 14 -5 26.5t22 12.5z" />
    <glyph glyph-name="Gbreve" unicode="&#x11e;" horiz-adv-x="1181" 
d="M625 770h413q31 0 31 -31v-280q0 -199 -128 -342.5t-300 -143.5h-94q-178 0 -306 142.5t-128 343.5v563q0 201 129 344t305 143h94q168 0 296 -141t130 -332q0 -31 -31 -30h-61q-33 0 -33 30q0 145 -89 247.5t-212 102.5h-94q-129 0 -220 -104t-91 -260v-563
q0 -154 90 -258.5t221 -104.5h94q125 0 214 104.5t89 258.5v188h-319q-31 0 -31 31v61q0 31 31 31zM829 2163h62q31 0 31 -31q-8 -143 -84 -220t-209 -77h-80q-133 0 -209 77t-84 220q0 31 31 31h61q31 0 31 -31q14 -174 170 -174h80q156 0 170 174q-1 31 30 31z" />
    <glyph glyph-name="gbreve" unicode="&#x11f;" horiz-adv-x="1001" 
d="M477 121h51q113 0 224 110v431q0 61 -72 121t-143 61h-80q-92 0 -162 -76t-70 -170v-233q0 -92 79 -168t173 -76zM782 963h66q31 0 31 -31v-1034q1 -115 -101 -211t-235 -97h-51q-100 0 -196 58t-149 151q-18 29 19 39l59 15q25 6 41 -17q34 -53 98 -88t128 -35h51
q65 0 137 51t72 130v176q-111 -72 -224 -72h-51q-139 0 -257 115t-118 252v233q0 139 109 254t246 115h80q111 0 215 -84v49q-1 31 30 31zM741 1638h62q31 0 31 -30q-8 -143 -84 -220t-209 -77h-80q-133 0 -209 77t-84 220q0 31 31 30h61q31 0 31 -30q14 -174 170 -174h80
q156 0 170 174q-1 30 30 30z" />
    <glyph glyph-name="Gdotaccent" unicode="&#x120;" horiz-adv-x="1181" 
d="M625 770h413q31 0 31 -31v-280q0 -199 -128 -342.5t-300 -143.5h-94q-178 0 -306 142.5t-128 343.5v563q0 201 129 344t305 143h94q168 0 296 -141t130 -332q0 -31 -31 -30h-61q-33 0 -33 30q0 145 -89 247.5t-212 102.5h-94q-129 0 -220 -104t-91 -260v-563
q0 -154 90 -258.5t221 -104.5h94q125 0 214 104.5t89 258.5v188h-319q-31 0 -31 31v61q0 31 31 31zM500 1849v127q0 35 35 35h112q33 0 33 -35v-127q0 -35 -33 -34h-112q-35 -1 -35 34z" />
    <glyph glyph-name="gdotaccent" unicode="&#x121;" horiz-adv-x="1001" 
d="M477 121h51q113 0 224 110v431q0 61 -72 121t-143 61h-80q-92 0 -162 -76t-70 -170v-233q0 -92 79 -168t173 -76zM782 963h66q31 0 31 -31v-1034q1 -115 -101 -211t-235 -97h-51q-100 0 -196 58t-149 151q-18 29 19 39l59 15q25 6 41 -17q34 -53 98 -88t128 -35h51
q65 0 137 51t72 130v176q-111 -72 -224 -72h-51q-139 0 -257 115t-118 252v233q0 139 109 254t246 115h80q111 0 215 -84v49q-1 31 30 31zM412 1325v127q0 35 34 35h113q33 0 33 -35v-127q0 -35 -33 -35h-113q-34 0 -34 35z" />
    <glyph glyph-name="Gcommaaccent" unicode="&#x122;" horiz-adv-x="1181" 
d="M537 -328h127q31 0 30 -30v-205q0 -100 -19.5 -176t-86.5 -154q-18 -20 -41 0l-45 41q-27 25 -8 43q68 69 76 147q3 30 3 87l17 20h-53q-31 0 -31 31v166q0 30 31 30zM625 770h413q31 0 31 -31v-280q0 -199 -128 -342.5t-300 -143.5h-94q-178 0 -306 142.5t-128 343.5
v563q0 201 129 344t305 143h94q168 0 296 -141t130 -332q0 -31 -31 -30h-61q-33 0 -33 30q0 145 -89 247.5t-212 102.5h-94q-129 0 -220 -104t-91 -260v-563q0 -154 90 -258.5t221 -104.5h94q125 0 214 104.5t89 258.5v188h-319q-31 0 -31 31v61q0 31 31 31z" />
    <glyph glyph-name="gcommaaccent" unicode="&#x123;" horiz-adv-x="1001" 
d="M477 121h51q113 0 224 110v431q0 61 -72 121t-143 61h-80q-92 0 -162 -76t-70 -170v-233q0 -92 79 -168t173 -76zM782 963h66q31 0 31 -31v-1034q1 -115 -101 -211t-235 -97h-51q-100 0 -196 58t-149 151q-18 29 19 39l59 15q25 6 41 -17q34 -53 98 -88t128 -35h51
q65 0 137 51t72 130v176q-111 -72 -224 -72h-51q-139 0 -257 115t-118 252v233q0 139 109 254t246 115h80q111 0 215 -84v49q-1 31 30 31zM543 1260h-127q-31 0 -31 30v205q0 100 19 176t88 154q18 23 40 0l46 -41q25 -27 8 -43q-69 -69 -77 -147q-3 -30 -3 -87l-17 -20h54
q31 0 30 -31v-166q1 -30 -30 -30z" />
    <glyph glyph-name="Hbar" unicode="&#x126;" horiz-adv-x="1230" 
d="M266 770h699v373h-699v-373zM995 1487h62q31 0 30 -31v-1425q0 -31 -30 -31h-62q-31 0 -30 31v616h-699v-616q0 -31 -30 -31h-62q-31 0 -31 31v1425q0 31 31 31h62q31 0 30 -31v-192h699v192q-1 31 30 31z" />
    <glyph glyph-name="hbar" unicode="&#x127;" horiz-adv-x="1196" 
d="M653 963h76q141 0 243 -113t101 -254v-565q0 -31 -31 -31h-61q-31 0 -31 31v565q0 96 -61 170t-160 74h-76q-77 0 -149 -56t-74 -116v-637q0 -31 -31 -31h-61q-31 0 -31 31v1112h-123q-31 0 -30 31v59q0 31 30 31h123v192q0 31 31 31h61q31 0 31 -31v-192h262
q31 0 31 -31v-59q0 -31 -31 -31h-262v-264q106 84 223 84z" />
    <glyph glyph-name="Imacron" unicode="&#x12a;" horiz-adv-x="471" 
d="M174 31v1425q0 31 31 31h61q31 0 31 -31v-1425q0 -31 -31 -31h-61q-31 0 -31 31zM567 1888h-663q-31 0 -31 31v61q0 31 31 31h663q31 0 31 -31v-61q0 -31 -31 -31z" />
    <glyph glyph-name="imacron" unicode="&#x12b;" horiz-adv-x="450" 
d="M164 31v903q0 31 31 31h61q31 0 31 -31v-903q0 -31 -31 -31h-61q-31 0 -31 31zM557 1364h-663q-31 0 -31 31v61q0 31 31 31h663q31 0 31 -31v-61q0 -31 -31 -31z" />
    <glyph glyph-name="Iogonek" unicode="&#x12e;" horiz-adv-x="471" 
d="M102 -266h197q20 0 20 -21v-78q0 -20 -20 -20h-252q-182 0 -182 156q0 96 39 124t164 39q20 2 28 4l24 4q15 3 19 5q5 2 17 7t12 10t7 13q7 7 3 17t-2 24l-2 7v1431q0 31 31 31h61q31 0 31 -31v-1429q20 -90 -14 -139q-35 -48 -107 -54q-27 -2 -85 -10t-76 -9
q-17 -1 -20 -11t-3 -30q0 -22 7 -30t17 -9t86 -1z" />
    <glyph glyph-name="iogonek" unicode="&#x12f;" horiz-adv-x="450" 
d="M92 -266h197q20 0 20 -21v-78q0 -20 -20 -20h-252q-182 0 -182 156q0 96 38 123t130 37q92 9 101 13q9 5 21 10t13 10q0 5 7 13q7 7 3 17t-2 24l-2 7v909q0 31 31 31h61q31 0 31 -31v-907q20 -91 -15 -139t-106 -54q-28 -2 -87 -10t-75 -9t-19 -11t-3 -30q0 -22 7 -30
t17 -9t86 -1zM170 1487h113q33 0 32 -35v-127q0 -35 -32 -35h-113q-35 0 -35 35v127q0 35 35 35z" />
    <glyph glyph-name="Idotaccent" unicode="&#x130;" horiz-adv-x="471" 
d="M174 31v1425q0 31 31 31h61q31 0 31 -31v-1425q0 -31 -31 -31h-61q-31 0 -31 31zM145 1849v127q0 35 35 35h113q33 0 33 -35v-127q0 -35 -33 -34h-113q-35 -1 -35 34z" />
    <glyph glyph-name="dotlessi" unicode="&#x131;" horiz-adv-x="450" 
d="M164 31v903q0 31 31 31h61q31 0 31 -31v-903q0 -31 -31 -31h-61q-31 0 -31 31z" />
    <glyph glyph-name="IJ" unicode="&#x132;" horiz-adv-x="1552" 
d="M950 109h54q125 0 214 102t89 256v989q0 31 30 31h62q31 0 31 -31v-989q0 -203 -128 -342t-298 -139h-54q-124 0 -234 81t-159 207q-13 27 16 41l60 25q27 12 37 -18q35 -94 112 -154q78 -59 168 -59zM174 31v1425q0 31 31 31h61q31 0 31 -31v-1425q0 -31 -31 -31h-61
q-31 0 -31 31z" />
    <glyph glyph-name="ij" unicode="&#x133;" horiz-adv-x="888" 
d="M602 -106v1040q0 31 31 31h61q31 0 31 -31v-1036q0 -90 -63 -173t-160 -118q-29 -11 -39 20l-21 64q-8 27 19 37q57 20 99 64t42 102zM162 31v903q0 31 31 31h61q31 0 31 -31v-903q0 -31 -31 -31h-61q-31 0 -31 31zM586 1343v113q0 31 30 31h91q31 0 30 -31v-113
q0 -31 -30 -30h-91q-30 -1 -30 30zM147 1343v113q0 31 31 31h90q31 0 31 -31v-113q0 -31 -31 -30h-90q-31 -1 -31 30z" />
    <glyph glyph-name="Kcommaaccent" unicode="&#x136;" horiz-adv-x="1179" 
d="M537 -328h127q31 0 30 -30v-205q0 -100 -19.5 -176t-86.5 -154q-18 -20 -41 0l-45 41q-27 25 -8 43q68 69 76 147q3 30 3 87l17 20h-53q-31 0 -31 31v166q0 30 31 30zM1075 0h-80q-27 0 -55 29l-614 608l-80 -88v-518q0 -31 -31 -31h-61q-31 0 -31 31v1425q0 31 31 31h61
q31 0 31 -31v-725l641 727q25 29 39 29h90q16 0 20 -15.5t-12 -35.5l-612 -703l675 -684q12 -12 9.5 -30.5t-21.5 -18.5z" />
    <glyph glyph-name="kcommaaccent" unicode="&#x137;" horiz-adv-x="1056" 
d="M430 -328h127q31 0 31 -30v-205q0 -100 -19.5 -176t-87.5 -154q-18 -20 -41 0l-45 41q-27 25 -8 43q69 69 77 147q3 30 3 87l16 20h-53q-31 0 -31 31v166q0 30 31 30zM174 1487h62q31 0 30 -31v-932l459 414q29 25 45 25h84q10 0 18.5 -10.5t5 -27t-17.5 -28.5l-381 -350
l443 -500q14 -14 11 -30.5t-24 -16.5h-75q-29 0 -56 29l-395 438l-117 -100v-336q0 -31 -30 -31h-62q-31 0 -31 31v1425q0 31 31 31z" />
    <glyph glyph-name="Lacute" unicode="&#x139;" horiz-adv-x="1159" 
d="M276 123h730q31 0 30 -31v-61q0 -31 -30 -31h-822q-31 0 -30 31v1425q0 31 30 31h62q31 0 30 -31v-1333zM354 2163h90q39 0 21 -37l-178 -379q-20 -37 -43 -37h-66q-36 0 -20 37l153 379q12 37 43 37z" />
    <glyph glyph-name="lacute" unicode="&#x13a;" horiz-adv-x="450" 
d="M164 31v1425q0 31 31 31h61q31 0 31 -31v-1425q0 -31 -31 -31h-61q-31 0 -31 31zM362 2163h91q39 0 20 -37l-178 -379q-20 -37 -43 -37h-66q-36 0 -20 37l153 379q12 37 43 37z" />
    <glyph glyph-name="Lcommaaccent" unicode="&#x13b;" horiz-adv-x="1159" 
d="M532 -328h127q31 0 31 -30v-205q0 -100 -19.5 -176t-86.5 -154q-18 -20 -41 0l-45 41q-27 25 -9 43q69 69 77 147q3 30 3 87l17 20h-54q-31 0 -30 31v166q-1 30 30 30zM276 123h730q31 0 30 -31v-61q0 -31 -30 -31h-822q-31 0 -30 31v1425q0 31 30 31h62q31 0 30 -31
v-1333z" />
    <glyph glyph-name="lcommaaccent" unicode="&#x13c;" horiz-adv-x="450" 
d="M172 -328h127q31 0 31 -30v-205q0 -100 -19.5 -176t-87.5 -154q-18 -20 -41 0l-45 41q-27 25 -8 43q69 69 77 147q3 30 3 87l16 20h-53q-31 0 -31 31v166q0 30 31 30zM164 31v1425q0 31 31 31h61q31 0 31 -31v-1425q0 -31 -31 -31h-61q-31 0 -31 31z" />
    <glyph glyph-name="Lcaron" unicode="&#x13d;" horiz-adv-x="1159" 
d="M510 1487h127q31 0 31 -31v-205q0 -100 -19.5 -176t-87.5 -153q-18 -20 -41 0l-45 41q-25 25 -8 43q69 69 77 146q3 30 3 87l16 21h-53q-31 0 -31 30v166q0 31 31 31zM276 123h730q31 0 30 -31v-61q0 -31 -30 -31h-822q-31 0 -30 31v1425q0 31 30 31h62q31 0 30 -31
v-1333z" />
    <glyph glyph-name="lcaron" unicode="&#x13e;" horiz-adv-x="778" 
d="M457 1487h127q31 0 30 -31v-205q0 -100 -19.5 -176t-86.5 -153q-18 -20 -41 0l-45 41q-25 25 -8 43q66 67 76 146q4 30 4 87l16 21h-53q-31 0 -31 30v166q0 31 31 31zM164 31v1425q0 31 31 31h61q31 0 31 -31v-1425q0 -31 -31 -31h-61q-31 0 -31 31z" />
    <glyph glyph-name="Ldot" unicode="&#x13f;" horiz-adv-x="1159" 
d="M561 815v117q0 31 31 31h98q31 0 31 -31v-117q0 -31 -31 -31h-98q-31 0 -31 31zM276 123h730q31 0 30 -31v-61q0 -31 -30 -31h-822q-31 0 -30 31v1425q0 31 30 31h62q31 0 30 -31v-1333z" />
    <glyph glyph-name="ldot" unicode="&#x140;" horiz-adv-x="737" 
d="M475 817v117q0 31 31 31h98q31 0 31 -31v-117q0 -31 -31 -31h-98q-31 0 -31 31zM164 31v1425q0 31 31 31h61q31 0 31 -31v-1425q0 -31 -31 -31h-61q-31 0 -31 31z" />
    <glyph glyph-name="Lslash" unicode="&#x141;" horiz-adv-x="1239" 
d="M410 123h729q31 0 30 -31v-61q0 -31 -30 -31h-822q-31 0 -30 31v362l-74 -96q-27 -35 -47 -35h-86q-18 0 -25.5 10.5t4.5 26.5l228 295v862q0 31 30 31h62q31 0 31 -31v-702l133 174q27 35 47 35h86q18 0 24.5 -10.5t-6.5 -26.5l-284 -373v-430z" />
    <glyph glyph-name="lslash" unicode="&#x142;" horiz-adv-x="751" 
d="M475 963h86q19 -1 25 -11t-6 -26l-144 -187v-708q0 -31 -30 -31h-62q-31 0 -31 31v547q-18 -20 -37 -21h-86q-18 0 -24 10t4 27l143 186v676q0 31 31 31h62q31 0 30 -31v-518q23 25 39 25z" />
    <glyph glyph-name="Nacute" unicode="&#x143;" horiz-adv-x="1292" 
d="M1067 1487h61q31 0 31 -31v-1425q0 -31 -31 -31h-143q-27 0 -37 23l-692 1341v-1333q0 -31 -31 -31h-61q-31 0 -31 31v1425q0 31 31 31h143q25 0 37 -23l692 -1341v1333q0 31 31 31zM784 2163h90q39 0 21 -37l-178 -379q-20 -37 -43 -37h-66q-36 0 -20 37l153 379
q12 37 43 37z" />
    <glyph glyph-name="nacute" unicode="&#x144;" horiz-adv-x="1036" 
d="M483 963h86q141 0 242.5 -113t101.5 -254v-565q0 -31 -30 -31h-62q-31 0 -30 31v565q0 96 -61.5 170t-160.5 74h-86q-78 0 -149.5 -55.5t-73.5 -116.5v-637q0 -31 -31 -31h-61q-31 0 -31 31v901q0 31 31 31h61q31 0 31 -31v-53q106 84 223 84zM754 1638q39 0 20 -36
l-178 -379q-20 -37 -43 -37h-66q-36 0 -20 37l154 379q12 37 43 36h90z" />
    <glyph glyph-name="Ncommaaccent" unicode="&#x145;" horiz-adv-x="1292" 
d="M594 -328h127q31 0 31 -30v-205q0 -100 -19.5 -176t-87.5 -154q-18 -20 -41 0l-45 41q-27 25 -8 43q69 69 77 147q3 30 3 87l16 20h-53q-31 0 -31 31v166q0 30 31 30zM1067 1487h61q31 0 31 -31v-1425q0 -31 -31 -31h-143q-27 0 -37 23l-692 1341v-1333q0 -31 -31 -31
h-61q-31 0 -31 31v1425q0 31 31 31h143q25 0 37 -23l692 -1341v1333q0 31 31 31z" />
    <glyph glyph-name="ncommaaccent" unicode="&#x146;" horiz-adv-x="1036" 
d="M473 -328h127q31 0 31 -30v-205q0 -100 -19.5 -176t-87.5 -154q-18 -20 -41 0l-45 41q-25 25 -8 43q69 69 77 147q3 30 3 87l16 20h-53q-31 0 -31 31v166q0 30 31 30zM483 963h86q141 0 242.5 -113t101.5 -254v-565q0 -31 -30 -31h-62q-31 0 -30 31v565q0 96 -61.5 170
t-160.5 74h-86q-78 0 -149.5 -55.5t-73.5 -116.5v-637q0 -31 -31 -31h-61q-31 0 -31 31v901q0 31 31 31h61q31 0 31 -31v-53q106 84 223 84z" />
    <glyph glyph-name="Ncaron" unicode="&#x147;" horiz-adv-x="1292" 
d="M1067 1487h61q31 0 31 -31v-1425q0 -31 -31 -31h-143q-27 0 -37 23l-692 1341v-1333q0 -31 -31 -31h-61q-31 0 -31 31v1425q0 31 31 31h143q25 0 37 -23l692 -1341v1333q0 31 31 31zM305 2163h84q18 0 47 -39l211 -279l211 279q29 39 47 39h84q16 0 21.5 -12.5
t-4.5 -26.5l-281 -367q-23 -33 -49 -33h-60q-24 0 -47 33l-280 367q-10 14 -5 26.5t21 12.5z" />
    <glyph glyph-name="ncaron" unicode="&#x148;" horiz-adv-x="1036" 
d="M483 963h86q141 0 242.5 -113t101.5 -254v-565q0 -31 -30 -31h-62q-31 0 -30 31v565q0 96 -61.5 170t-160.5 74h-86q-78 0 -149.5 -55.5t-73.5 -116.5v-637q0 -31 -31 -31h-61q-31 0 -31 31v901q0 31 31 31h61q31 0 31 -31v-53q106 84 223 84zM184 1638h84q18 0 47 -39
l211 -278l211 278q29 39 47 39h84q16 0 21.5 -12t-4.5 -27l-281 -366q-23 -33 -49 -33h-59q-24 0 -47 33l-281 366q-10 14 -5 26.5t21 12.5z" />
    <glyph glyph-name="Eng" unicode="&#x14a;" horiz-adv-x="1187" 
d="M963 1487h61q31 0 31 -31v-1397q0 -203 -128 -342t-298 -139h-54q-158 0 -284 123q-23 23 2 43l43 43q20 20 43 0q86 -86 196 -86h54q123 0 212 101t91 253l-676 1309v-1333q0 -31 -31 -31h-61q-31 0 -31 31v1425q0 31 31 31h143q25 0 37 -23l588 -1138v1130q0 31 31 31z
" />
    <glyph glyph-name="eng" unicode="&#x14b;" horiz-adv-x="1064" 
d="M483 963h86q141 0 242.5 -113t101.5 -254v-565q0 -12 -2 -17q-20 -180 -134.5 -305t-260.5 -121q-31 0 -27 33l9 64q2 27 32 26q109 2 185 107.5t76 253.5v524q0 96 -61.5 170t-160.5 74h-86q-78 0 -149.5 -55.5t-73.5 -116.5v-637q0 -31 -31 -31h-61q-31 0 -31 31v901
q0 31 31 31h61q31 0 31 -31v-53q106 84 223 84z" />
    <glyph glyph-name="Omacron" unicode="&#x14c;" horiz-adv-x="1200" 
d="M553 109h94q131 0 219 105t88 261v545q0 156 -88 261t-219 105h-94q-131 0 -219 -105t-88 -261v-545q0 -156 88 -261t219 -105zM553 1509h94q176 0 303 -143t127 -346v-545q0 -203 -127 -346t-303 -143h-94q-176 0 -303 143t-127 346v545q0 203 127 346t303 143z
M932 1888h-664q-31 0 -30 31v61q0 31 30 31h664q31 0 31 -31v-61q0 -31 -31 -31z" />
    <glyph glyph-name="omacron" unicode="&#x14d;" horiz-adv-x="1038" 
d="M803 385v193q0 112 -70 190t-174 78h-80q-109 0 -177 -79t-66 -189v-193q0 -111 68 -187t175 -77h80q106 1 175 77t69 187zM479 969h80q151 0 259 -118t108 -273v-193q0 -155 -108 -271t-259 -116h-80q-154 0 -260 116t-106 271v193q0 156 106 274t260 117zM852 1364
h-664q-31 0 -30 31v61q0 31 30 31h664q31 0 31 -31v-61q0 -31 -31 -31z" />
    <glyph glyph-name="Ohungarumlaut" unicode="&#x150;" horiz-adv-x="1200" 
d="M553 109h94q131 0 219 105t88 261v545q0 156 -88 261t-219 105h-94q-131 0 -219 -105t-88 -261v-545q0 -156 88 -261t219 -105zM553 1509h94q176 0 303 -143t127 -346v-545q0 -203 -127 -346t-303 -143h-94q-176 0 -303 143t-127 346v545q0 203 127 346t303 143z
M895 2163h90q39 0 21 -37l-179 -379q-20 -37 -43 -37h-65q-37 0 -21 37l154 379q12 37 43 37zM555 2163h90q39 0 21 -37l-179 -379q-20 -37 -43 -37h-65q-37 0 -21 37l154 379q12 37 43 37z" />
    <glyph glyph-name="ohungarumlaut" unicode="&#x151;" horiz-adv-x="1038" 
d="M803 385v193q0 112 -70 190t-174 78h-80q-109 0 -177 -79t-66 -189v-193q0 -111 68 -187t175 -77h80q106 1 175 77t69 187zM479 969h80q151 0 259 -118t108 -273v-193q0 -155 -108 -271t-259 -116h-80q-154 0 -260 116t-106 271v193q0 156 106 274t260 117zM905 1638
q39 0 21 -36l-178 -379q-20 -37 -43 -37h-66q-37 0 -21 37l154 379q12 37 43 36h90zM565 1638q39 0 21 -36l-178 -379q-20 -37 -43 -37h-66q-36 0 -20 37l153 379q12 37 43 36h90z" />
    <glyph glyph-name="OE" unicode="&#x152;" horiz-adv-x="1961" 
d="M954 475v545q0 156 -88 261t-219 105h-94q-131 0 -219 -105t-88 -261v-545q0 -156 88 -261t219 -105h94q131 0 219 105t88 261zM1090 1364v-553h596q31 0 30 -31v-61q0 -31 -30 -31h-596v-565h729q31 0 30 -31v-61q0 -31 -30 -31h-822q-31 0 -30 31v116
q-131 -162 -320 -161h-94q-176 0 -303 143t-127 346v545q0 203 127 346t303 143h94q188 0 320 -161v108q0 31 30 31h822q31 0 30 -31v-61q0 -31 -30 -31h-729z" />
    <glyph glyph-name="oe" unicode="&#x153;" horiz-adv-x="1697" 
d="M928 569h545v29q0 106 -74 177t-152 71h-78q-94 0 -167.5 -74t-73.5 -174v-29zM803 385v193q0 111 -69.5 189.5t-174.5 78.5h-80q-109 0 -176 -79t-67 -189v-193q0 -111 67.5 -187.5t175.5 -76.5h80q106 0 175 76.5t69 187.5zM928 446v-81q0 -100 72.5 -172t168.5 -72h78
q119 0 232 131q23 25 43 6l47 -41q23 -20 6 -43q-143 -176 -328 -176h-78q-88 0 -171 48t-134 128q-51 -80 -132 -128t-173 -48h-80q-154 0 -260 115.5t-106 271.5v193q0 156 106.5 273.5t259.5 117.5h80q92 0 173 -49.5t132 -128.5q51 80 134 129t171 49h78
q123 0 235.5 -108.5t112.5 -260.5v-92q0 -61 -61 -62h-606z" />
    <glyph glyph-name="Racute" unicode="&#x154;" horiz-adv-x="1161" 
d="M246 770h395q276 0 276.5 297t-276.5 297h-395v-594zM1049 377v-346q0 -31 -31 -31h-62q-31 0 -30 31v340q0 143 -71 209.5t-191 66.5h-418v-616q0 -31 -31 -31h-61q-31 0 -31 31v1425q0 31 31 31h487q184 0 291.5 -112.5t107.5 -307.5q1 -243 -161 -354
q170 -102 170 -336zM598 1710h-66q-37 0 -20 37l154 379q12 37 43 37h90q39 0 20 -37l-178 -379q-20 -37 -43 -37z" />
    <glyph glyph-name="racute" unicode="&#x155;" horiz-adv-x="843" 
d="M479 844q-78 0 -149.5 -56.5t-73.5 -119.5v-637q0 -31 -31 -31h-61q-31 0 -31 31v901q0 31 31 31h61q31 0 31 -31v-53q113 88 223 88h76q125 0 225 -97q23 -22 0 -45l-41 -41q-23 -23 -43 0q-63 59 -141 60h-76zM678 1638q39 0 20 -36l-178 -379q-20 -37 -43 -37h-65
q-37 0 -21 37l154 379q12 37 43 36h90z" />
    <glyph glyph-name="Rcommaaccent" unicode="&#x156;" horiz-adv-x="1161" 
d="M518 -328h127q31 0 31 -30v-205q0 -100 -19.5 -176t-87.5 -154q-18 -20 -41 0l-45 41q-25 25 -8 43q69 69 77 147q3 30 3 87l16 20h-53q-31 0 -31 31v166q0 30 31 30zM246 770h395q276 0 276.5 297t-276.5 297h-395v-594zM1049 377v-346q0 -31 -31 -31h-62q-31 0 -30 31
v340q0 143 -71 209.5t-191 66.5h-418v-616q0 -31 -31 -31h-61q-31 0 -31 31v1425q0 31 31 31h487q184 0 291.5 -112.5t107.5 -307.5q1 -243 -161 -354q170 -102 170 -336z" />
    <glyph glyph-name="rcommaaccent" unicode="&#x157;" horiz-adv-x="843" 
d="M141 -328h127q31 0 31 -30v-205q0 -100 -19.5 -176t-86.5 -154q-18 -20 -41 0l-46 41q-25 25 -8 43q69 69 77 147q3 30 3 87l17 20h-54q-31 0 -30 31v166q-1 30 30 30zM479 844q-78 0 -149.5 -56.5t-73.5 -119.5v-637q0 -31 -31 -31h-61q-31 0 -31 31v901q0 31 31 31h61
q31 0 31 -31v-53q113 88 223 88h76q125 0 225 -97q23 -22 0 -45l-41 -41q-23 -23 -43 0q-63 59 -141 60h-76z" />
    <glyph glyph-name="Rcaron" unicode="&#x158;" horiz-adv-x="1161" 
d="M246 770h395q276 0 276.5 297t-276.5 297h-395v-594zM1049 377v-346q0 -31 -31 -31h-62q-31 0 -30 31v340q0 143 -71 209.5t-191 66.5h-418v-616q0 -31 -31 -31h-61q-31 0 -31 31v1425q0 31 31 31h487q184 0 291.5 -112.5t107.5 -307.5q1 -243 -161 -354
q170 -102 170 -336zM229 2163h84q18 0 47 -39l211 -279l211 279q29 39 47 39h84q16 0 21.5 -12.5t-4.5 -26.5l-281 -367q-23 -33 -49 -33h-59q-24 0 -47 33l-281 367q-10 14 -5 26.5t21 12.5z" />
    <glyph glyph-name="rcaron" unicode="&#x159;" horiz-adv-x="843" 
d="M479 844q-78 0 -149.5 -56.5t-73.5 -119.5v-637q0 -31 -31 -31h-61q-31 0 -31 31v901q0 31 31 31h61q31 0 31 -31v-53q113 88 223 88h76q125 0 225 -97q23 -22 0 -45l-41 -41q-23 -23 -43 0q-63 59 -141 60h-76zM109 1638h84q18 0 47 -39l211 -278l211 278q29 39 47 39
h84q16 0 21 -12t-5 -27l-281 -366q-23 -33 -49 -33h-59q-24 0 -47 33l-281 366q-10 14 -5 26.5t22 12.5z" />
    <glyph glyph-name="Sacute" unicode="&#x15a;" horiz-adv-x="1179" 
d="M524 1509h107q168 0 294 -121.5t126 -308.5v-35q0 -31 -31 -30h-64q-31 0 -30 30v35q0 139 -87 223t-208 84h-107q-125 0 -202.5 -72.5t-77.5 -204.5t74.5 -194.5t220.5 -89.5l108 -20q420 -80 420 -412q0 -184 -127 -301t-303 -117h-94q-172 0 -301 116t-129 296v55
q0 31 30 31h64q31 0 31 -31l2 -55q4 -135 91 -212t212 -77h94q129 0 218 80t89 217t-76.5 198.5t-220.5 88.5l-108 20q-418 78 -418 404q0 180 115.5 291.5t287.5 111.5zM727 2163h90q39 0 21 -37l-179 -379q-20 -37 -43 -37h-65q-37 0 -21 37l154 379q12 37 43 37z" />
    <glyph glyph-name="sacute" unicode="&#x15b;" horiz-adv-x="970" 
d="M868 278.5q0 -127.5 -109.5 -208t-252.5 -80.5h-53q-121 0 -230.5 77.5t-120.5 190.5q-4 31 31 31h66q29 0 32 -29q8 -66 77 -106.5t145 -40.5h53q98 0 168.5 42t70.5 107q-1 65 -33 96q-63 60 -223 60q-184 20 -283.5 79.5t-99.5 190.5t103.5 207t251.5 76h43
q127 0 236.5 -86t113.5 -209q0 -33 -29 -33h-63q-35 0 -35 27q-2 78 -70.5 128t-152.5 50h-43q-231 0 -232 -164q0 -72 59.5 -98.5t223 -47t260 -76.5t96.5 -183.5zM713 1638q39 0 20 -36l-178 -379q-20 -37 -43 -37h-66q-36 0 -20 37l154 379q12 37 43 36h90z" />
    <glyph glyph-name="Scedilla" unicode="&#x15e;" horiz-adv-x="1179" 
d="M899 -258q0 -156 -182 -156h-92q-84 0 -131.5 47.5t-49.5 124.5q0 20 19 21h82q20 0 20 -17q2 -61 92 -61h45q28 0 42 2q32 4 32 38t-38 44t-195 29q-20 2 -39 18t-26 52t34 93q-164 10 -281.5 125t-117.5 285v55q0 31 30 31h64q31 0 31 -31l2 -55q4 -135 91 -212
t212 -77h94q129 0 218 80t89 217t-76.5 198.5t-220.5 88.5l-108 20q-418 78 -418 404q0 180 115.5 291.5t287.5 111.5h107q168 0 294 -121.5t126 -308.5v-35q0 -31 -31 -30h-64q-31 0 -30 30v35q0 139 -87 223t-208 84h-107q-125 0 -202.5 -72.5t-77.5 -204.5t74.5 -194.5
t220.5 -89.5l108 -20q420 -80 420 -412q0 -184 -127 -301t-303 -117q-25 -38 -10 -53q6 -6 8 -9t13 -5t21.5 -5t44.5 -6t48 -5q83 -16 101 -40q36 -48 36 -110z" />
    <glyph glyph-name="scedilla" unicode="&#x15f;" horiz-adv-x="970" 
d="M795 -258q0 -156 -183 -156h-92q-84 0 -131 47.5t-49 124.5q0 20 18 21h82q20 0 21 -17q2 -61 92 -61h45q27 0 41 2q33 5 33 38.5t-38 43.5t-123 20.5t-97 16.5q-31 15 -39.5 56.5t43.5 113.5q-115 12 -211 88t-105 178q-4 31 31 31h66q29 0 32 -29q8 -66 77 -106.5
t145 -40.5h53q98 0 168.5 42t70.5 107q-1 65 -33 96q-63 60 -223 60q-184 20 -283.5 79.5t-99.5 190.5t103.5 207t251.5 76h43q127 0 236.5 -86t113.5 -209q0 -33 -29 -33h-63q-35 0 -35 27q-2 78 -70.5 128t-152.5 50h-43q-231 0 -232 -164q0 -72 59.5 -98.5t223 -47
t260 -76.5t96.5 -180.5t-96 -201t-229 -88.5q-23 -32 -23 -43.5t-1 -18t5 -10.5t8 -7q8 -9 48 -9t104 -18q64 -20 75 -34q36 -48 36 -110z" />
    <glyph glyph-name="Scaron" unicode="&#x160;" horiz-adv-x="1179" 
d="M524 1509h107q168 0 294 -121.5t126 -308.5v-35q0 -31 -31 -30h-64q-31 0 -30 30v35q0 139 -87 223t-208 84h-107q-125 0 -202.5 -72.5t-77.5 -204.5t74.5 -194.5t220.5 -89.5l108 -20q420 -80 420 -412q0 -184 -127 -301t-303 -117h-94q-172 0 -301 116t-129 296v55
q0 31 30 31h64q31 0 31 -31l2 -55q4 -135 91 -212t212 -77h94q129 0 218 80t89 217t-76.5 198.5t-220.5 88.5l-108 20q-418 78 -418 404q0 180 115.5 291.5t287.5 111.5zM248 2163h84q18 0 47 -39l211 -279l211 279q29 39 47 39h84q16 0 21 -12.5t-5 -26.5l-280 -367
q-23 -33 -50 -33h-59q-24 0 -47 33l-281 367q-10 14 -5 26.5t22 12.5z" />
    <glyph glyph-name="scaron" unicode="&#x161;" horiz-adv-x="970" 
d="M868 278.5q0 -127.5 -109.5 -208t-252.5 -80.5h-53q-121 0 -230.5 77.5t-120.5 190.5q-4 31 31 31h66q29 0 32 -29q8 -66 77 -106.5t145 -40.5h53q98 0 168.5 42t70.5 107q-1 65 -33 96q-63 60 -223 60q-184 20 -283.5 79.5t-99.5 190.5t103.5 207t251.5 76h43
q127 0 236.5 -86t113.5 -209q0 -33 -29 -33h-63q-35 0 -35 27q-2 78 -70.5 128t-152.5 50h-43q-231 0 -232 -164q0 -72 59.5 -98.5t223 -47t260 -76.5t96.5 -183.5zM143 1638h84q18 0 47 -39l211 -278l211 278q29 39 47 39h84q16 0 21.5 -12t-4.5 -27l-281 -366
q-23 -33 -49 -33h-59q-24 0 -47 33l-281 366q-10 14 -5 26.5t21 12.5z" />
    <glyph glyph-name="Tcedilla" unicode="&#x162;" horiz-adv-x="1103" 
d="M862 -258q0 -156 -182 -156h-92q-84 0 -131 47.5t-49 124.5q0 20 18 21h82q20 0 20 -17q2 -61 93 -61h44q27 0 41 2q32 4 32.5 38t-37 44t-122.5 20.5t-97 16.5q-31 15 -40.5 58t47.5 118l11 10q-8 6 -8 23v1333h-390q-31 0 -30 31v61q-1 31 30 31h899q31 0 31 -31v-61
q0 -31 -31 -31h-387v-1333q0 -6 -4 -19q10 -4 2 -16t-14 -23.5t-10 -19.5t-2 -15.5t2 -12.5t12 -13t30 -8l29 -4q143 -16 167 -48q36 -44 36 -110z" />
    <glyph glyph-name="tcedilla" unicode="&#x163;" horiz-adv-x="622" 
d="M768 -258q0 -156 -182 -156h-92q-84 0 -131.5 47.5t-49.5 124.5q0 20 19 21h82q20 0 20 -17q2 -61 92 -61h45q27 0 41 2q32 4 32.5 38t-37.5 44t-122.5 20.5t-96.5 16.5q-31 15 -40.5 59.5t55.5 126.5q-84 25 -138 91.5t-54 174.5v566h-109q-31 0 -30 30v60q0 33 30 33
h109v213q0 31 31 30h61q31 0 31 -30v-213h149q33 0 33 -31v-62q0 -31 -31 -30h-151v-557q0 -150 162 -156q33 0 32 -27l2 -71q0 -11 -10 -28t-16 -28.5t-10.5 -19.5t-2 -15.5t2.5 -12.5t12 -13t30 -8l29 -4q143 -16 167 -48q36 -48 36 -110z" />
    <glyph glyph-name="Tcaron" unicode="&#x164;" horiz-adv-x="1103" 
d="M102 1487h899q31 0 31 -31v-61q0 -31 -31 -31h-387v-1333q0 -31 -30 -31h-62q-31 0 -30 31v1333h-390q-31 0 -30 31v61q-1 31 30 31zM211 2163h84q18 0 47 -39l211 -279l211 279q29 39 47 39h84q16 0 21.5 -12.5t-5.5 -26.5l-280 -367q-23 -33 -49 -33h-60q-24 0 -47 33
l-280 367q-10 14 -5 26.5t21 12.5z" />
    <glyph glyph-name="tcaron" unicode="&#x165;" horiz-adv-x="716" 
d="M211 274v566h-109q-31 0 -30 30v60q0 33 30 33h109v213q0 31 31 30h61q31 0 31 -30v-213h149q33 0 33 -31v-62q0 -31 -31 -30h-151v-557q0 -150 162 -156q33 0 32 -27l2 -71q0 -33 -26 -33q-113 -6 -203 65.5t-90 212.5zM467 1638h127q31 0 31 -30v-205
q0 -100 -19.5 -176t-87.5 -154q-18 -20 -41 0l-45 41q-27 25 -8 43q69 69 77 147q3 30 3 87l16 20h-53q-31 0 -31 31v166q0 30 31 30z" />
    <glyph glyph-name="Tbar" unicode="&#x166;" horiz-adv-x="1103" 
d="M102 1487h899q31 0 31 -31v-61q0 -31 -31 -31h-387v-401h281q31 0 31 -31v-62q0 -31 -31 -30h-281v-809q0 -31 -30 -31h-62q-31 0 -30 31v809h-261q-31 0 -30 30v62q0 31 30 31h261v401h-390q-31 0 -30 31v61q-1 31 30 31z" />
    <glyph glyph-name="tbar" unicode="&#x167;" horiz-adv-x="622" 
d="M211 274v279h-109q-31 0 -30 31v61q0 31 30 31h109v164h-109q-31 0 -30 30v60q0 33 30 33h109v213q0 31 31 30h61q31 0 31 -30v-213h149q33 0 33 -31v-62q0 -31 -31 -30h-151v-164h149q31 0 31 -31v-61q0 -31 -31 -31h-149v-270q0 -150 162 -156q32 0 32 -27l2 -71
q0 -33 -26 -33q-113 -6 -203 65.5t-90 212.5z" />
    <glyph glyph-name="Utilde" unicode="&#x168;" horiz-adv-x="1171" 
d="M967 1487h61q31 0 31 -31v-1010q0 -200 -125 -330t-322 -130h-53q-197 0 -321 131t-125 329v1010q0 31 30 31h62q31 0 31 -31v-1010q0 -152 87 -244t236 -93h53q150 0 237 93t87 244v1010q0 31 31 31zM926 2007l28 -55q12 -23 -20 -45q-102 -74 -181 -77t-184 64
q-100 58 -144 58t-146 -70q-20 -14 -35 16l-29 56q-12 23 21 45q102 74 181 77t183 -65q100 -59 144 -58t147 70q21 13 35 -16z" />
    <glyph glyph-name="utilde" unicode="&#x169;" horiz-adv-x="1054" 
d="M907 932v-901q0 -31 -30 -31h-62q-31 0 -31 31v51q-106 -84 -223 -84h-80q-145 0 -247 108q-101 109 -101 254v572q0 31 31 31h61q31 0 31 -31v-572q0 -100 62 -170t163 -69h80q78 0 150 55t73 117v639q0 31 31 31h62q30 0 30 -31zM864 1483l29 -56q12 -23 -21 -45
q-102 -74 -181 -76t-183 64q-100 59 -144 58t-147 -70q-20 -14 -35 16l-28 56q-12 23 20 45q102 75 181 77t184 -65q100 -59 144 -59t146 71q21 13 35 -16z" />
    <glyph glyph-name="Umacron" unicode="&#x16a;" horiz-adv-x="1171" 
d="M967 1487h61q31 0 31 -31v-1010q0 -200 -125 -330t-322 -130h-53q-197 0 -321 131t-125 329v1010q0 31 30 31h62q31 0 31 -31v-1010q0 -152 87 -244t236 -93h53q150 0 237 93t87 244v1010q0 31 31 31zM918 1888h-664q-31 0 -31 31v61q0 31 31 31h664q31 0 30 -31v-61
q1 -31 -30 -31z" />
    <glyph glyph-name="umacron" unicode="&#x16b;" horiz-adv-x="1054" 
d="M907 932v-901q0 -31 -30 -31h-62q-31 0 -31 31v51q-106 -84 -223 -84h-80q-145 0 -247 108q-101 109 -101 254v572q0 31 31 31h61q31 0 31 -31v-572q0 -100 62 -170t163 -69h80q78 0 150 55t73 117v639q0 31 31 31h62q30 0 30 -31zM856 1364h-663q-31 0 -31 31v61
q0 31 31 31h663q31 0 31 -31v-61q0 -31 -31 -31z" />
    <glyph glyph-name="Ubreve" unicode="&#x16c;" horiz-adv-x="1171" 
d="M967 1487h61q31 0 31 -31v-1010q0 -200 -125 -330t-322 -130h-53q-197 0 -321 131t-125 329v1010q0 31 30 31h62q31 0 31 -31v-1010q0 -152 87 -244t236 -93h53q150 0 237 93t87 244v1010q0 31 31 31zM825 2163h62q31 0 31 -31q-8 -143 -84 -220t-209 -77h-80
q-133 0 -209 77t-84 220q0 31 31 31h61q31 0 31 -31q14 -174 170 -174h80q156 0 170 174q-1 31 30 31z" />
    <glyph glyph-name="ubreve" unicode="&#x16d;" horiz-adv-x="1054" 
d="M907 932v-901q0 -31 -30 -31h-62q-31 0 -31 31v51q-106 -84 -223 -84h-80q-145 0 -247 108q-101 109 -101 254v572q0 31 31 31h61q31 0 31 -31v-572q0 -100 62 -170t163 -69h80q78 0 150 55t73 117v639q0 31 31 31h62q30 0 30 -31zM764 1638h61q31 0 31 -30
q-8 -143 -84 -220t-209 -77h-80q-133 0 -209 77t-84 220q0 31 31 30h62q31 0 30 -30q14 -174 170 -174h80q156 0 170 174q0 30 31 30z" />
    <glyph glyph-name="Uring" unicode="&#x16e;" horiz-adv-x="1171" 
d="M967 1487h61q31 0 31 -31v-1010q0 -200 -125 -330t-322 -130h-53q-197 0 -321 131t-125 329v1010q0 31 30 31h62q31 0 31 -31v-1010q0 -152 87 -244t236 -93h53q150 0 237 93t87 244v1010q0 31 31 31zM686 1956v16q0 90 -92 90h-19q-90 0 -90 -90v-16q0 -90 90 -90h19
q92 0 92 90zM571 2165h27q82 -1 135 -55t53 -136v-22q0 -84 -53 -136t-135 -53h-27q-84 1 -136 53t-52 136v22q0 82 53 136t135 55z" />
    <glyph glyph-name="uring" unicode="&#x16f;" horiz-adv-x="1054" 
d="M907 932v-901q0 -31 -30 -31h-62q-31 0 -31 31v51q-106 -84 -223 -84h-80q-145 0 -247 108q-101 109 -101 254v572q0 31 31 31h61q31 0 31 -31v-572q0 -100 62 -170t163 -69h80q78 0 150 55t73 117v639q0 31 31 31h62q30 0 30 -31zM625 1432v16q0 90 -93 90h-18
q-90 0 -90 -90v-16q0 -90 90 -91h18q93 1 93 91zM510 1640h27q82 0 135 -54t53 -136v-23q0 -84 -53 -136t-135 -52h-27q-84 0 -136 52t-52 136v23q0 82 53 136t135 54z" />
    <glyph glyph-name="Uhungarumlaut" unicode="&#x170;" horiz-adv-x="1171" 
d="M967 1487h61q31 0 31 -31v-1010q0 -200 -125 -330t-322 -130h-53q-197 0 -321 131t-125 329v1010q0 31 30 31h62q31 0 31 -31v-1010q0 -152 87 -244t236 -93h53q150 0 237 93t87 244v1010q0 31 31 31zM881 2163h90q39 0 20 -37l-178 -379q-20 -37 -43 -37h-65
q-37 0 -21 37l154 379q12 37 43 37zM541 2163h90q39 0 20 -37l-178 -379q-20 -37 -43 -37h-65q-37 0 -21 37l154 379q12 37 43 37z" />
    <glyph glyph-name="uhungarumlaut" unicode="&#x171;" horiz-adv-x="1054" 
d="M907 932v-901q0 -31 -30 -31h-62q-31 0 -31 31v51q-106 -84 -223 -84h-80q-145 0 -247 108q-101 109 -101 254v572q0 31 31 31h61q31 0 31 -31v-572q0 -100 62 -170t163 -69h80q78 0 150 55t73 117v639q0 31 31 31h62q30 0 30 -31zM909 1638q39 0 21 -36l-178 -379
q-20 -37 -43 -37h-66q-36 0 -20 37l153 379q12 37 43 36h90zM569 1638q39 0 21 -36l-178 -379q-20 -37 -43 -37h-66q-36 0 -20 37l153 379q12 37 43 36h90z" />
    <glyph glyph-name="Uogonek" unicode="&#x172;" horiz-adv-x="1171" 
d="M967 1487h61q31 0 31 -31v-1010q0 -142 -66 -252t-180 -165v-2q20 -90 -14 -139q-35 -48 -107 -54q-27 -2 -85 -10t-76 -9q-17 -1 -20 -11t-3 -30q0 -22 7 -30q9 -10 49 -10h251q20 0 21 -21v-78q0 -20 -21 -20h-252q-182 0 -182 156q0 96 37 122t162 41q16 2 25 4t21 3
q58 9 66 35q2 7 2 16q-39 -6 -82 -6h-53q-197 0 -321 131t-125 329v1010q0 31 30 31h62q31 0 31 -31v-1010q0 -152 87 -244t236 -93h53q150 0 237 93t87 244v1010q0 31 31 31z" />
    <glyph glyph-name="uogonek" unicode="&#x173;" horiz-adv-x="1054" 
d="M602 -234q0 -29 24 -31q10 -1 87 -1h196q20 0 21 -21v-78q0 -20 -21 -20h-252q-182 0 -182 156q0 96 39 124t128 36q89 9 100 13l24 10t12 10t7 13q7 7 3 17t-2 24l-2 7v57q-106 -84 -223 -84h-80q-145 0 -247 108q-101 109 -101 254v572q0 31 31 31h61q31 0 31 -31v-572
q0 -100 62 -170t163 -69h80q78 0 150 55t73 117v639q0 31 31 31h62q31 0 30 -31v-905q20 -90 -14 -139q-35 -48 -107 -54q-27 -2 -85 -10t-75 -9q-16 -1 -20 -11t-4 -38z" />
    <glyph glyph-name="Wcircumflex" unicode="&#x174;" horiz-adv-x="1880" 
d="M1702 1487h67q33 0 27 -31l-348 -1425q-8 -31 -39 -31h-61q-31 0 -39 31l-369 1257l-369 -1257q-8 -31 -39 -31h-61q-33 0 -39 31l-348 1425q-8 31 25 31h67q31 0 37 -31l293 -1245l360 1245q10 31 39 31h70q29 0 39 -31l362 -1245l291 1245q6 31 35 31zM909 2163h60
q27 0 49 -33l280 -367q10 -14 6 -26t-22 -13h-84q-18 0 -47 39l-211 279l-211 -279q-29 -39 -47 -39h-84q-16 0 -21 12t5 27l280 367q23 33 47 33z" />
    <glyph glyph-name="wcircumflex" unicode="&#x175;" horiz-adv-x="1404" 
d="M1241 963h66q35 0 24 -35l-241 -895q-10 -33 -39 -33h-64q-27 0 -39 33l-246 725l-245 -725q-10 -33 -39 -33h-64q-27 0 -39 33l-241 895q-10 35 24 35h66q27 0 37 -35l188 -735l244 735q10 35 37 35h65q23 0 37 -35l242 -735l190 735q10 35 37 35zM731 1638q27 0 49 -32
l281 -367q10 -15 5 -27t-22 -12h-83q-18 0 -48 39l-211 279l-210 -279q-29 -39 -48 -39h-84q-16 0 -21 12t5 27l281 367q23 33 47 32h59z" />
    <glyph glyph-name="Ycircumflex" unicode="&#x176;" horiz-adv-x="1171" 
d="M993 1487h80q39 0 21 -31l-449 -803v-622q0 -31 -31 -31h-61q-31 0 -31 31v622l-444 803q-18 31 20 31h80q23 0 41 -31l365 -665l368 665q18 31 41 31zM555 2163h59q27 0 50 -33l280 -367q10 -14 5 -26t-21 -13h-84q-18 0 -47 39l-211 279l-211 -279q-29 -39 -47 -39h-84
q-16 0 -22 12t5 27l281 367q23 33 47 33z" />
    <glyph glyph-name="ycircumflex" unicode="&#x177;" horiz-adv-x="1013" 
d="M844 963h74q33 0 18 -37l-545 -1301q-14 -35 -45 -35h-74q-35 0 -20 37l184 439l-360 860q-14 37 18 37h76q29 0 43 -35l293 -697l293 697q14 35 45 35zM250 1200h-84q-16 0 -22 12q-5 12 6 27l280 367q23 33 47 32h60q27 0 49 -32l280 -367q10 -15 5 -27t-21 -12h-84
q-18 0 -47 39l-211 279l-211 -279q-29 -39 -47 -39z" />
    <glyph glyph-name="Ydieresis" unicode="&#x178;" horiz-adv-x="1171" 
d="M993 1487h80q39 0 21 -31l-449 -803v-622q0 -31 -31 -31h-61q-31 0 -31 31v622l-444 803q-18 31 20 31h80q23 0 41 -31l365 -665l368 665q18 31 41 31zM809 1864v116q0 31 31 31h98q31 0 31 -31v-116q0 -31 -31 -31h-98q-31 0 -31 31zM203 1864v116q0 31 30 31h99
q31 0 30 -31v-116q0 -31 -30 -31h-99q-30 0 -30 31z" />
    <glyph glyph-name="Zacute" unicode="&#x179;" horiz-adv-x="1107" 
d="M1006 1456v-65q0 -10 -7 -19l-743 -1249h719q31 0 31 -31v-61q0 -31 -31 -31h-842q-31 0 -31 31v65q0 10 7 19l743 1249h-719q-31 0 -31 31v61q0 31 31 31h842q31 0 31 -31zM692 2163h90q39 0 21 -37l-178 -379q-20 -37 -43 -37h-66q-36 0 -20 37l153 379q12 37 43 37z
" />
    <glyph glyph-name="zacute" unicode="&#x17a;" horiz-adv-x="905" 
d="M823 932v-68q0 -12 -10 -26l-563 -715h541q33 0 32 -31v-61q0 -31 -30 -31h-680q-31 0 -31 31v59q0 18 10 31l565 719h-544q-31 0 -31 30v60q0 33 31 33h678q32 0 32 -31zM680 1638q39 0 20 -36l-178 -379q-20 -37 -43 -37h-65q-37 0 -21 37l154 379q12 37 43 36h90z" />
    <glyph glyph-name="Zdotaccent" unicode="&#x17b;" horiz-adv-x="1107" 
d="M1006 1456v-65q0 -10 -7 -19l-743 -1249h719q31 0 31 -31v-61q0 -31 -31 -31h-842q-31 0 -31 31v65q0 10 7 19l743 1249h-719q-31 0 -31 31v61q0 31 31 31h842q31 0 31 -31zM465 1849v127q0 35 35 35h112q33 0 33 -35v-127q0 -35 -33 -34h-112q-35 -1 -35 34z" />
    <glyph glyph-name="zdotaccent" unicode="&#x17c;" horiz-adv-x="905" 
d="M823 932v-68q0 -12 -10 -26l-563 -715h541q33 0 32 -31v-61q0 -31 -30 -31h-680q-31 0 -31 31v59q0 18 10 31l565 719h-544q-31 0 -31 30v60q0 33 31 33h678q32 0 32 -31zM362 1325v127q0 35 35 35h113q33 0 33 -35v-127q0 -35 -33 -35h-113q-35 0 -35 35z" />
    <glyph glyph-name="Zcaron" unicode="&#x17d;" horiz-adv-x="1107" 
d="M1006 1456v-65q0 -10 -7 -19l-743 -1249h719q31 0 31 -31v-61q0 -31 -31 -31h-842q-31 0 -31 31v65q0 10 7 19l743 1249h-719q-31 0 -31 31v61q0 31 31 31h842q31 0 31 -31zM297 2163q18 0 47 -39l211 -279l211 279q29 39 47 39h84q15 -1 21 -13t-5 -26l-280 -367
q-23 -33 -49 -33h-60q-24 0 -47 33l-280 367q-10 14 -6 26q5 12 22 13h84z" />
    <glyph glyph-name="zcaron" unicode="&#x17e;" horiz-adv-x="905" 
d="M823 932v-68q0 -12 -10 -26l-563 -715h541q33 0 32 -31v-61q0 -31 -30 -31h-680q-31 0 -31 31v59q0 18 10 31l565 719h-544q-31 0 -31 30v60q0 33 31 33h678q32 0 32 -31zM111 1638h84q18 0 47 -39l211 -278l211 278q29 39 47 39h84q16 0 21 -12t-5 -27l-281 -366
q-23 -33 -49 -33h-59q-24 0 -47 33l-281 366q-10 15 -5 27t22 12z" />
    <glyph glyph-name="florin" unicode="&#x192;" horiz-adv-x="745" 
d="M666 1487h18q31 0 31 -31v-61q0 -31 -31 -31h-18q-102 0 -156 -69t-55 -193v-1127q0 -174 -91 -279t-243 -106h-19q-31 0 -30 31v62q0 31 30 30h19q102 0 157 69q54 69 54 193v865h-105q-31 0 -30 30v62q0 31 30 31h105v139q0 174 91 280t243 105z" />
    <glyph glyph-name="Acaron" unicode="&#x1cd;" horiz-adv-x="1234" 
d="M854 545l-233 753l-240 -753h473zM1114 0h-61q-31 0 -39 33l-121 389h-551l-123 -389q-8 -33 -37 -33h-63q-35 0 -23 33l451 1427q10 33 39 33h65q29 0 39 -33l449 -1427q12 -33 -25 -33zM360 2163q18 0 48 -39l210 -279l211 279q29 39 48 39h84q16 -1 21 -13t-5 -26
l-281 -367q-23 -33 -49 -33h-59q-24 0 -47 33l-281 367q-10 14 -5 26t21 13h84z" />
    <glyph glyph-name="acaron" unicode="&#x1ce;" horiz-adv-x="978" 
d="M383 121h109q78 2 131 39t104 102v178h-344q-168 0 -168 -157q0 -70 50 -116t118 -46zM848 0h-88q-33 0 -33 49v64q-119 -115 -235 -115h-109q-113 -4 -202 82t-89 207t82 199t209 77h344v47q0 111 -54 172t-138 62h-103q-84 0 -127 -18t-80 -60q-23 -23 -47 0l-41 41
q-20 20 -2 41q53 66 121 92t176 27h103q129 -1 222 -101t93 -256v-561q0 -15 4 -32t-6 -17zM135 1638h84q18 0 47 -39l211 -278l211 278q29 39 47 39h84q15 0 21 -12t-4 -27l-281 -366q-23 -33 -49 -33h-60q-24 0 -47 33l-280 366q-10 15 -5 27t21 12z" />
    <glyph glyph-name="Icaron" unicode="&#x1cf;" horiz-adv-x="471" 
d="M174 31v1425q0 31 31 31h61q31 0 31 -31v-1425q0 -31 -31 -31h-61q-31 0 -31 31zM-23 2163q18 0 48 -39l211 -279l210 279q29 39 48 39h84q16 -1 21 -13t-5 -26l-281 -367q-23 -33 -49 -33h-59q-24 0 -47 33l-281 367q-10 14 -5 26t22 13h83z" />
    <glyph glyph-name="icaron" unicode="&#x1d0;" horiz-adv-x="450" 
d="M164 31v903q0 31 31 31h61q31 0 31 -31v-903q0 -31 -31 -31h-61q-31 0 -31 31zM-117 1638h84q18 0 47 -39l211 -278l211 278q29 39 47 39h84q15 0 21 -12t-4 -27l-281 -366q-23 -33 -49 -33h-59q-25 0 -48 33l-280 366q-10 15 -5 27t21 12z" />
    <glyph glyph-name="Ocaron" unicode="&#x1d1;" horiz-adv-x="1200" 
d="M553 109h94q131 0 219 105t88 261v545q0 156 -88 261t-219 105h-94q-131 0 -219 -105t-88 -261v-545q0 -156 88 -261t219 -105zM553 1509h94q176 0 303 -143t127 -346v-545q0 -203 -127 -346t-303 -143h-94q-176 0 -303 143t-127 346v545q0 203 127 346t303 143z
M342 2163q18 0 47 -39l211 -279l211 279q29 39 47 39h84q16 -1 22 -13t-6 -26l-280 -367q-23 -33 -49 -33h-60q-24 0 -47 33l-280 367q-10 14 -5 26t21 13h84z" />
    <glyph glyph-name="ocaron" unicode="&#x1d2;" horiz-adv-x="1038" 
d="M803 385v193q0 112 -70 190t-174 78h-80q-109 0 -177 -79t-66 -189v-193q0 -111 68 -187t175 -77h80q106 1 175 77t69 187zM479 969h80q151 0 259 -118t108 -273v-193q0 -155 -108 -271t-259 -116h-80q-154 0 -260 116t-106 271v193q0 156 106 274t260 117zM178 1638h84
q18 0 47 -39l211 -278l211 278q29 39 47 39h84q16 0 22 -12t-5 -27l-281 -366q-23 -33 -49 -33h-60q-24 0 -47 33l-280 366q-10 15 -5 27t21 12z" />
    <glyph glyph-name="ucaron" unicode="&#x1d4;" horiz-adv-x="1054" 
d="M907 932v-901q0 -31 -30 -31h-62q-31 0 -31 31v51q-106 -84 -223 -84h-80q-145 0 -247 108q-101 109 -101 254v572q0 31 31 31h61q31 0 31 -31v-572q0 -100 62 -170t163 -69h80q78 0 150 55t73 117v639q0 31 31 31h62q30 0 30 -31zM182 1638h84q18 0 47 -39l211 -278
l211 278q29 39 47 39h84q16 0 22 -12t-5 -27l-281 -366q-23 -33 -49 -33h-59q-25 0 -48 33l-280 366q-10 15 -5 27t21 12z" />
    <glyph glyph-name="Gcaron" unicode="&#x1e6;" horiz-adv-x="1181" 
d="M625 770h413q31 0 31 -31v-280q0 -199 -128 -342.5t-300 -143.5h-94q-178 0 -306 142.5t-128 343.5v563q0 201 129 344t305 143h94q168 0 296 -141t130 -332q0 -31 -31 -30h-61q-33 0 -33 30q0 145 -89 247.5t-212 102.5h-94q-129 0 -220 -104t-91 -260v-563
q0 -154 90 -258.5t221 -104.5h94q125 0 214 104.5t89 258.5v188h-319q-31 0 -31 31v61q0 31 31 31zM248 2163h84q18 0 47 -39l211 -279l211 279q29 39 47 39h84q16 0 21 -12.5t-5 -26.5l-280 -367q-23 -33 -50 -33h-59q-24 0 -47 33l-281 367q-10 14 -5 26.5t22 12.5z" />
    <glyph glyph-name="gcaron" unicode="&#x1e7;" horiz-adv-x="1001" 
d="M477 121h51q113 0 224 110v431q0 61 -72 121t-143 61h-80q-92 0 -162 -76t-70 -170v-233q0 -92 79 -168t173 -76zM782 963h66q31 0 31 -31v-1034q1 -115 -101 -211t-235 -97h-51q-100 0 -196 58t-149 151q-18 29 19 39l59 15q25 6 41 -17q34 -53 98 -88t128 -35h51
q65 0 137 51t72 130v176q-111 -72 -224 -72h-51q-139 0 -257 115t-118 252v233q0 139 109 254t246 115h80q111 0 215 -84v49q-1 31 30 31zM160 1638h84q18 0 47 -39l211 -278l211 278q29 39 47 39h84q16 0 21 -12t-5 -27l-280 -366q-23 -33 -50 -33h-59q-24 0 -47 33
l-281 366q-10 15 -5 27t22 12z" />
    <glyph glyph-name="Scommaaccent" unicode="&#x218;" horiz-adv-x="1179" 
d="M537 -328h127q31 0 30 -30v-205q0 -100 -19.5 -176t-86.5 -154q-18 -20 -41 0l-45 41q-27 25 -8 43q68 69 76 147q3 30 3 87l17 20h-53q-31 0 -31 31v166q0 30 31 30zM524 1509h107q168 0 294 -121.5t126 -308.5v-35q0 -31 -31 -30h-64q-31 0 -30 30v35q0 139 -87 223
t-208 84h-107q-125 0 -202.5 -72.5t-77.5 -204.5t74.5 -194.5t220.5 -89.5l108 -20q420 -80 420 -412q0 -184 -127 -301t-303 -117h-94q-172 0 -301 116t-129 296v55q0 31 30 31h64q31 0 31 -31l2 -55q4 -135 91 -212t212 -77h94q129 0 218 80t89 217t-76.5 198.5
t-220.5 88.5l-108 20q-418 78 -418 404q0 180 115.5 291.5t287.5 111.5z" />
    <glyph glyph-name="scommaaccent" unicode="&#x219;" horiz-adv-x="970" 
d="M432 -328h127q31 0 31 -30v-205q0 -100 -19.5 -176t-87.5 -154q-18 -20 -41 0l-45 41q-25 25 -8 43q69 69 77 147q3 30 3 87l16 20h-53q-31 0 -31 31v166q0 30 31 30zM868 278.5q0 -127.5 -109.5 -208t-252.5 -80.5h-53q-121 0 -230.5 77.5t-120.5 190.5q-4 31 31 31h66
q29 0 32 -29q8 -66 77 -106.5t145 -40.5h53q98 0 168.5 42t70.5 107q-1 65 -33 96q-63 60 -223 60q-184 20 -283.5 79.5t-99.5 190.5t103.5 207t251.5 76h43q127 0 236.5 -86t113.5 -209q0 -33 -29 -33h-63q-35 0 -35 27q-2 78 -70.5 128t-152.5 50h-43q-231 0 -232 -164
q0 -72 59.5 -98.5t223 -47t260 -76.5t96.5 -183.5z" />
    <glyph glyph-name="uni021A" unicode="&#x21a;" horiz-adv-x="1103" 
d="M500 -328h127q31 0 30 -30v-205q0 -100 -19.5 -176t-86.5 -154q-18 -20 -41 0l-45 41q-27 25 -8 43q67 67 77 147q4 30 3 87l16 20h-53q-31 0 -31 31v166q0 30 31 30zM102 1487h899q31 0 31 -31v-61q0 -31 -31 -31h-387v-1333q0 -31 -30 -31h-62q-31 0 -30 31v1333h-390
q-31 0 -30 31v61q-1 31 30 31z" />
    <glyph glyph-name="uni021B" unicode="&#x21b;" horiz-adv-x="622" 
d="M406 -328h126q31 0 31 -30v-205q0 -100 -19.5 -176t-86.5 -154q-18 -20 -41 0l-45 41q-27 25 -9 43q69 69 77 147q3 30 3 87l17 20h-53q-31 0 -31 31v166q0 30 31 30zM211 274v566h-109q-31 0 -30 30v60q0 33 30 33h109v213q0 31 31 30h61q31 0 31 -30v-213h149
q33 0 33 -31v-62q0 -31 -31 -30h-151v-557q0 -150 162 -156q33 0 32 -27l2 -71q1 -33 -26 -33q-113 -6 -203 65.5t-90 212.5z" />
    <glyph glyph-name="uni0228" unicode="&#x228;" horiz-adv-x="1128" 
d="M879 -258q0 -156 -183 -156h-92q-84 0 -131 47.5t-49 124.5q0 20 18 21h82q20 0 21 -17q2 -61 92 -61h45q27 0 41 2q33 5 33 38.5t-38 43.5t-123 20.5t-97 16.5q-30 15 -39.5 59t47.5 117l2 2h-344q-31 0 -31 31v1425q0 31 31 31h821q31 0 31 -31v-61q0 -31 -31 -31h-729
v-553h596q31 0 31 -31v-61q0 -31 -31 -31h-596v-565h729q31 0 31 -31v-61q0 -31 -31 -31h-352q-11 -11 -22 -33t-9 -29.5t2 -12.5q0 -6 13 -13.5t29 -7.5l30 -4q142 -16 166 -48q36 -46 37 -110z" />
    <glyph glyph-name="uni0229" unicode="&#x229;" horiz-adv-x="1005" 
d="M236 569h544v29q0 106 -73.5 177t-151.5 71h-78q-94 0 -167.5 -74t-73.5 -174v-29zM811 -258q0 -156 -182 -156h-92q-84 0 -131.5 47.5t-49.5 124.5q0 20 19 21h82q20 0 20 -17q2 -61 92 -61h45q28 0 42 2q32 4 32 38t-38 44q-38 11 -122 21q-86 10 -98 16q-31 15 -40 58
t48 118l2 2q-131 16 -229 122.5t-98 242.5v233q0 145 112.5 258t251.5 113h78q123 0 235.5 -108.5t112.5 -260.5v-92q0 -61 -61 -62h-606v-81q0 -100 72.5 -172t168.5 -72h78q119 0 231 131q23 25 43 6l48 -41q23 -20 6 -43q-139 -172 -320 -176q-10 -14 -16 -25.5
t-10.5 -19.5t-2 -15.5t2.5 -12.5t12 -13q11 -8 29 -8l30 -4q143 -16 167 -48q36 -48 36 -110z" />
    <glyph glyph-name="dotlessj" unicode="&#x237;" horiz-adv-x="442" 
d="M156 -106v1040q0 31 30 31h62q31 0 31 -31v-1036q1 -90 -63 -173t-161 -118q-29 -11 -39 20l-20 64q-8 27 18 37q57 20 100 64q42 44 42 102z" />
    <glyph glyph-name="circumflex" unicode="&#x2c6;" horiz-adv-x="937" 
d="M498 1638q27 0 49 -32l280 -367q10 -14 6 -27q-5 -12 -22 -12h-84q-18 0 -47 39l-211 279l-211 -279q-29 -39 -47 -39h-84q-16 0 -22 12q-4 13 6 27l280 367q23 33 47 32h60z" />
    <glyph glyph-name="caron" unicode="&#x2c7;" horiz-adv-x="933" 
d="M125 1638h84q18 0 47 -39l211 -278l211 278q29 39 47 39h84q16 0 21 -12t-5 -27l-280 -366q-23 -33 -49 -33h-60q-24 0 -47 33l-280 366q-10 14 -6 27q5 12 22 12z" />
    <glyph glyph-name="breve" unicode="&#x2d8;" horiz-adv-x="870" 
d="M676 1638h61q31 0 31 -30q-8 -143 -84 -220t-209 -77h-80q-133 0 -209 77t-84 220q0 31 31 30h62q31 0 30 -30q14 -174 170 -174h80q156 0 170 174q0 30 31 30z" />
    <glyph glyph-name="dotaccent" unicode="&#x2d9;" horiz-adv-x="385" 
d="M102 1325v127q0 35 35 35h113q33 0 33 -35v-127q0 -35 -33 -35h-113q-35 0 -35 35z" />
    <glyph glyph-name="ring" unicode="&#x2da;" horiz-adv-x="608" 
d="M406 1432v16q0 90 -93 90h-18q-90 0 -90 -90v-16q0 -90 90 -91h18q93 1 93 91zM291 1640h26q81 0 135 -54t54 -136v-23q0 -84 -52 -136t-137 -52h-26q-82 0 -135 52t-54 136v23q0 82 54 136t135 54z" />
    <glyph glyph-name="ogonek" unicode="&#x2db;" horiz-adv-x="659" 
d="M520 -315v-78q0 -20 -20 -21h-252q-182 0 -182 156q0 96 39 124t163 40q23 2 31 4q7 2 23 4q40 5 49 25l5 15t0 30q-3 22 5 26t18 4h72q23 0 27 -16q20 -90 -15 -138t-106 -55q-28 -2 -87 -10t-75 -9t-19 -10q-3 -8 -3 -30t7 -30q10 -10 50 -11h250q20 0 20 -20z" />
    <glyph glyph-name="tilde" unicode="&#x2dc;" horiz-adv-x="952" 
d="M817 1483l29 -56q12 -23 -21 -45q-102 -74 -181 -76t-183 64q-101 59 -145 58t-146 -70q-20 -14 -35 16l-29 56q-12 23 21 45q102 75 181 77t184 -65q100 -59 144 -59t146 71q21 13 35 -16z" />
    <glyph glyph-name="hungarumlaut" unicode="&#x2dd;" horiz-adv-x="862" 
d="M733 1638q39 0 21 -36l-179 -379q-20 -37 -43 -37h-65q-37 0 -21 37l154 379q12 37 43 36h90zM393 1638q39 0 21 -36l-178 -379q-20 -37 -43 -37h-66q-37 0 -21 37l154 379q12 37 43 36h90z" />
    <glyph glyph-name="uni0326" unicode="&#x326;" horiz-adv-x="0" 
d="M154 -410h127q31 0 30 -30v-205q0 -100 -19.5 -176t-86.5 -154q-18 -20 -41 0l-45 41q-25 25 -8 43q68 69 76 147q3 30 3 87l17 20h-53q-31 0 -31 31v166q0 30 31 30z" />
    <glyph glyph-name="Delta" unicode="&#x394;" horiz-adv-x="1234" 
d="M985 123l-364 1175l-373 -1175h737zM1114 0h-995q-35 0 -23 33l451 1427q10 33 39 33h65q29 0 39 -33l449 -1427q12 -33 -25 -33z" />
    <glyph glyph-name="Omega" unicode="&#x3a9;" horiz-adv-x="1200" 
d="M1077 1022v-533q0 -207 -149 -366h116q31 0 31 -31v-61q0 -31 -31 -31h-364q-31 0 -31 31v61q0 31 31 31h6q98 0 183 117t85 249v533q0 156 -88 261t-219 106h-94q-131 1 -219 -105t-88 -262v-533q0 -133 85 -249t183 -117h6q31 0 31 -31v-61q0 -31 -31 -31h-364
q-31 0 -31 31v61q0 31 31 31h116q-150 160 -149 366v533q0 203 127 346t303 143h94q176 0 303 -143t127 -346z" />
    <glyph glyph-name="mu" unicode="&#x3bc;" horiz-adv-x="1052" 
d="M815 963h62q31 0 30 -31v-901q0 -31 -30 -31h-62q-31 0 -31 31v51q-106 -84 -223 -84h-80q-129 0 -225 86v-463q0 -31 -31 -31h-61q-31 0 -31 31v1311q0 31 31 31h61q31 0 31 -31v-572q0 -100 62 -170t163 -69h80q78 0 150 55t73 117v639q0 31 31 31z" />
    <glyph glyph-name="pi" unicode="&#x3c0;" horiz-adv-x="1134" 
d="M131 963h870q31 0 31 -31v-64q0 -29 -31 -28h-49v-809q0 -31 -30 -31h-62q-31 0 -31 31v809h-526v-809q0 -31 -31 -31h-61q-31 0 -31 31v809h-47q-31 0 -31 30v62q0 31 29 31z" />
    <glyph glyph-name="uni0401" unicode="&#x401;" horiz-adv-x="1128" 
d="M256 811h596q31 0 31 -31v-61q0 -31 -31 -31h-596v-565h729q31 0 31 -31v-61q0 -31 -31 -31h-821q-31 0 -31 31v1425q0 31 31 31h821q31 0 31 -31v-61q0 -31 -31 -31h-729v-553zM793 1864v116q0 31 30 31h99q31 0 30 -31v-116q0 -31 -30 -31h-99q-30 0 -30 31zM186 1864
v116q0 31 31 31h98q31 0 31 -31v-116q0 -31 -31 -31h-98q-31 0 -31 31z" />
    <glyph glyph-name="uni0403" unicode="&#x403;" horiz-adv-x="1148" 
d="M164 1487h821q31 0 31 -31v-61q0 -31 -31 -31h-729v-1333q0 -31 -31 -31h-61q-31 0 -31 31v1425q0 31 31 31zM602 1710h-65q-37 0 -21 37l154 379q12 37 43 37h90q39 0 20 -37l-178 -379q-20 -37 -43 -37z" />
    <glyph glyph-name="uni0404" unicode="&#x404;" horiz-adv-x="1159" 
d="M965 481h61q31 0 31 -30q-2 -190 -130 -334t-296 -144h-94q-174 0 -304.5 145.5t-130.5 346.5v557q0 201 129 344t306 143h94q168 0 296 -141t130 -332q0 -31 -31 -30h-61q-33 0 -33 30q0 143 -89 246.5t-212 103.5h-94q-129 0 -220.5 -104t-91.5 -260v-217h371
q31 0 31 -31v-61q0 -31 -31 -31h-371v-217q0 -156 91.5 -262.5t220.5 -106.5h94q123 0 213 104.5t88 250.5q0 30 33 30z" />
    <glyph glyph-name="uni0406" unicode="&#x406;" horiz-adv-x="471" 
d="M174 31v1425q0 31 31 31h61q31 0 31 -31v-1425q0 -31 -31 -31h-61q-31 0 -31 31z" />
    <glyph glyph-name="uni0407" unicode="&#x407;" horiz-adv-x="471" 
d="M174 31v1425q0 31 31 31h61q31 0 31 -31v-1425q0 -31 -31 -31h-61q-31 0 -31 31zM459 1864v116q0 31 30 31h99q31 0 30 -31v-116q0 -31 -30 -31h-99q-30 0 -30 31zM-147 1864v116q0 31 30 31h99q31 0 30 -31v-116q0 -31 -30 -31h-99q-30 0 -30 31z" />
    <glyph glyph-name="uni0408" unicode="&#x408;" horiz-adv-x="1081" 
d="M479 109h53q125 0 214 102t90 256v989q0 31 30 31h62q31 0 30 -31v-989q0 -203 -128 -342t-298 -139h-53q-125 0 -235 81t-158 207q-13 27 16 41l60 25q27 12 37 -18q35 -94 112 -154q78 -59 168 -59z" />
    <glyph glyph-name="uni040C" unicode="&#x40c;" horiz-adv-x="1179" 
d="M1075 0h-80q-27 0 -55 29l-614 608l-80 -88v-518q0 -31 -31 -31h-61q-31 0 -31 31v1425q0 31 31 31h61q31 0 31 -31v-725l641 727q25 29 39 29h90q16 0 20 -15.5t-12 -35.5l-612 -703l675 -684q12 -12 9.5 -30.5t-21.5 -18.5zM727 2163h90q39 0 21 -37l-179 -379
q-20 -37 -43 -37h-65q-37 0 -21 37l154 379q12 37 43 37z" />
    <glyph glyph-name="uni040D" unicode="&#x40d;" horiz-adv-x="1292" 
d="M164 1487h61q31 0 31 -31v-1333l692 1341q10 23 37 23h143q31 0 31 -31v-1425q0 -31 -31 -31h-61q-31 0 -31 31v1333l-692 -1341q-12 -23 -37 -23h-143q-31 0 -31 31v1425q0 31 31 31zM674 1710h-66q-23 0 -43 37l-178 379q-18 37 21 37h90q31 0 43 -37l153 -379
q16 -37 -20 -37z" />
    <glyph glyph-name="uni040E" unicode="&#x40e;" horiz-adv-x="1193" 
d="M995 1487h74q33 0 18 -37l-634 -1415q-14 -35 -45 -35h-74q-35 0 -21 37l222 491l-429 922q-18 37 19 37h76q29 0 43 -35l360 -768l346 768q14 35 45 35zM637 1835h-80q-133 0 -209 77t-84 220q0 31 31 31h61q31 0 31 -31q14 -174 170 -174h80q156 0 170 174q0 31 31 31
h61q31 0 31 -31q-8 -143 -84 -220t-209 -77z" />
    <glyph glyph-name="uni0410" unicode="&#x410;" horiz-adv-x="1234" 
d="M854 545l-233 753l-240 -753h473zM1114 0h-61q-31 0 -39 33l-121 389h-551l-123 -389q-8 -33 -37 -33h-63q-35 0 -23 33l451 1427q10 33 39 33h65q29 0 39 -33l449 -1427q12 -33 -25 -33z" />
    <glyph glyph-name="uni0411" unicode="&#x411;" horiz-adv-x="1183" 
d="M256 123h395q276 0 277 297q0 297 -277 297h-395v-594zM256 840h395q184 0 292 -113t108 -307t-108 -308q-108 -112 -292 -112h-487q-31 0 -31 31v1425q0 31 31 31h743q31 0 31 -31v-61q0 -31 -31 -31h-651v-524z" />
    <glyph glyph-name="uni0412" unicode="&#x412;" horiz-adv-x="1193" 
d="M256 123h424q147 0 214 63q67 62 67 204t-71 225t-204 83h-430v-575zM256 821h434q117 0 176 79t60 210q0 254 -262 254h-408v-543zM680 0h-510q-37 0 -37 37v1413q0 37 37 37h494q176 0 280 -99t105 -278q0 -262 -168 -346q203 -84 202 -377q0 -387 -403 -387z" />
    <glyph glyph-name="uni0413" unicode="&#x413;" horiz-adv-x="1148" 
d="M164 1487h821q31 0 31 -31v-61q0 -31 -31 -31h-729v-1333q0 -31 -31 -31h-61q-31 0 -31 31v1425q0 31 31 31z" />
    <glyph glyph-name="uni0414" unicode="&#x414;" horiz-adv-x="1513" 
d="M1161 123v1241h-637v-672q0 -395 -98 -569h735zM1284 123h117q31 0 31 -31v-260q0 -31 -31 -31h-62q-31 0 -30 31v168h-1104v-168q0 -31 -31 -31h-61q-31 0 -31 31v260q0 31 31 31h127q42 0 85 86q42 86 59 243t17 289v715q0 31 31 31h821q31 0 31 -31v-1333z" />
    <glyph glyph-name="uni0415" unicode="&#x415;" horiz-adv-x="1128" 
d="M256 811h596q31 0 31 -31v-61q0 -31 -31 -31h-596v-565h729q31 0 31 -31v-61q0 -31 -31 -31h-821q-31 0 -31 31v1425q0 31 31 31h821q31 0 31 -31v-61q0 -31 -31 -31h-729v-553z" />
    <glyph glyph-name="uni0416" unicode="&#x416;" horiz-adv-x="1970" 
d="M1876 0h-80q-27 0 -55 29l-615 608l-79 -88v-518q0 -31 -31 -31h-62q-31 0 -30 31v518l-80 88l-615 -608q-29 -29 -55 -29h-80q-18 0 -21 18t9 31l676 684l-613 703q-16 20 -12 35t21 16h90q14 0 39 -29l641 -727v725q0 31 30 31h62q31 0 31 -31v-725l641 727
q25 29 38 29h91q16 1 20 -15t-12 -36l-613 -703l676 -684q12 -13 9 -31t-21 -18z" />
    <glyph glyph-name="uni0417" unicode="&#x417;" horiz-adv-x="1148" 
d="M1047 379q0 -176 -129 -287t-306 -110h-86q-168 0 -297 114t-127 295v39q0 31 31 31h64q31 0 30 -31v-39q0 -135 89 -211t210 -76h86q131 0 222 73q90 73 90 206t-84 215t-232 88h-147q-31 0 -31 31v74q0 31 31 30h147q145 6 223 83t78 203t-88 204t-211 78h-86
q-119 0 -208 -83t-89 -223v-39q0 -31 -30 -30h-64q-31 0 -31 30v39q0 185 129 307t293 121h86q170 -1 296 -117t126 -278q0 -126 -58 -210t-179 -150q252 -135 252 -377z" />
    <glyph glyph-name="uni0418" unicode="&#x418;" horiz-adv-x="1292" 
d="M164 1487h61q31 0 31 -31v-1333l692 1341q10 23 37 23h143q31 0 31 -31v-1425q0 -31 -31 -31h-61q-31 0 -31 31v1333l-692 -1341q-12 -23 -37 -23h-143q-31 0 -31 31v1425q0 31 31 31z" />
    <glyph glyph-name="uni0419" unicode="&#x419;" horiz-adv-x="1292" 
d="M164 1487h61q31 0 31 -31v-1333l692 1341q10 23 37 23h143q31 0 31 -31v-1425q0 -31 -31 -31h-61q-31 0 -31 31v1333l-692 -1341q-12 -23 -37 -23h-143q-31 0 -31 31v1425q0 31 31 31zM887 2163h61q31 0 31 -31q-8 -143 -84 -220t-209 -77h-80q-133 0 -208.5 77
t-84.5 220q0 31 31 31h62q31 0 30 -31q14 -174 170 -174h80q156 0 170 174q0 31 31 31z" />
    <glyph glyph-name="uni041A" unicode="&#x41a;" horiz-adv-x="1179" 
d="M1075 0h-80q-27 0 -55 29l-614 608l-80 -88v-518q0 -31 -31 -31h-61q-31 0 -31 31v1425q0 31 31 31h61q31 0 31 -31v-725l641 727q25 29 39 29h90q16 0 20 -15.5t-12 -35.5l-612 -703l675 -684q12 -12 9.5 -30.5t-21.5 -18.5z" />
    <glyph glyph-name="uni041B" unicode="&#x41b;" horiz-adv-x="1263" 
d="M279 1487h821q31 0 30 -31v-1425q0 -31 -30 -31h-62q-31 0 -30 31v1333h-637v-1090q0 -141 -90 -213t-203 -65q-27 0 -27 33l2 71q0 27 33 27q162 6 162 156v1173q0 31 31 31z" />
    <glyph glyph-name="uni041C" unicode="&#x41c;" horiz-adv-x="1454" 
d="M1157 1487h123q31 0 31 -31v-1425q0 -31 -31 -31h-61q-31 0 -31 31v1261l-395 -1261q-10 -31 -39 -31h-64q-31 0 -39 31l-395 1261v-1261q0 -31 -31 -31h-61q-31 0 -31 31v1425q0 31 31 31h123q33 0 41 -31l393 -1259l395 1259q10 31 41 31z" />
    <glyph glyph-name="uni041D" unicode="&#x41d;" horiz-adv-x="1230" 
d="M995 1487h62q31 0 30 -31v-1425q0 -31 -30 -31h-62q-31 0 -30 31v616h-699v-616q0 -31 -30 -31h-62q-31 0 -31 31v1425q0 31 31 31h62q31 0 30 -31v-686h699v686q-1 31 30 31z" />
    <glyph glyph-name="uni041E" unicode="&#x41e;" horiz-adv-x="1200" 
d="M553 109h94q131 0 219 105t88 261v545q0 156 -88 261t-219 105h-94q-131 0 -219 -105t-88 -261v-545q0 -156 88 -261t219 -105zM553 1509h94q176 0 303 -143t127 -346v-545q0 -203 -127 -346t-303 -143h-94q-176 0 -303 143t-127 346v545q0 203 127 346t303 143z" />
    <glyph glyph-name="uni041F" unicode="&#x41f;" horiz-adv-x="1189" 
d="M164 1487h862q31 0 31 -31v-1425q0 -31 -31 -31h-61q-31 0 -31 31v1333h-678v-1333q0 -31 -31 -31h-61q-31 0 -31 31v1425q0 31 31 31z" />
    <glyph glyph-name="uni0420" unicode="&#x420;" horiz-adv-x="1165" 
d="M262 770h395q276 0 277 297q0 297 -277 297h-395v-594zM170 1487h487q184 0 292 -113q108 -114 108 -308t-108 -306t-292 -113h-395v-616q0 -31 -31 -31h-61q-31 0 -31 31v1425q0 31 31 31z" />
    <glyph glyph-name="uni0421" unicode="&#x421;" horiz-adv-x="1159" 
d="M965 481h61q31 0 31 -30q-2 -190 -130 -334t-296 -144h-94q-174 0 -304.5 145.5t-130.5 346.5v557q0 201 129 344t306 143h94q168 0 296 -141t130 -332q0 -31 -31 -30h-61q-33 0 -33 30q0 143 -89 246.5t-212 103.5h-94q-129 0 -220.5 -104t-91.5 -260v-557
q0 -156 91.5 -262.5t220.5 -106.5h94q123 0 213 104.5t88 250.5q0 30 33 30z" />
    <glyph glyph-name="uni0422" unicode="&#x422;" horiz-adv-x="1103" 
d="M102 1487h899q31 0 31 -31v-61q0 -31 -31 -31h-387v-1333q0 -31 -30 -31h-62q-31 0 -30 31v1333h-390q-31 0 -30 31v61q-1 31 30 31z" />
    <glyph glyph-name="uni0423" unicode="&#x423;" horiz-adv-x="1193" 
d="M995 1487h74q33 0 18 -37l-634 -1415q-14 -35 -45 -35h-74q-35 0 -21 37l222 491l-429 922q-18 37 19 37h76q29 0 43 -35l360 -768l346 768q14 35 45 35z" />
    <glyph glyph-name="uni0424" unicode="&#x424;" horiz-adv-x="1785" 
d="M1550 645v197q0 150 -90 254t-213 104h-295v-913h295q123 0 213 104t90 254zM829 287v913h-290q-123 0 -213 -104t-90 -254v-197q0 -150 90 -254t213 -104h290zM952 1323h295q168 0 297 -143t129 -338v-197q0 -195 -129 -338t-297 -143h-295v-133q0 -31 -30 -31h-62
q-31 0 -31 31v133h-290q-168 0 -297 143t-129 338v197q0 195 129 338t297 143h290v133q0 31 31 31h62q31 0 30 -31v-133z" />
    <glyph glyph-name="uni0425" unicode="&#x425;" horiz-adv-x="1134" 
d="M1008 0h-74q-25 0 -41 31l-326 590l-325 -590q-16 -31 -41 -31h-74q-37 0 -21 31l394 712l-394 713q-16 31 21 31h74q25 0 41 -31l325 -590l326 590q16 31 41 31h74q37 0 20 -31l-393 -713l393 -712q16 -31 -20 -31z" />
    <glyph glyph-name="uni0426" unicode="&#x426;" horiz-adv-x="1320" 
d="M1057 123h141q31 0 31 -31v-303q0 -31 -31 -31h-61q-31 0 -31 31v211h-942q-31 0 -31 31v1425q0 31 31 31h61q31 0 31 -31v-1333h678v1333q0 31 31 31h61q31 0 31 -31v-1333z" />
    <glyph glyph-name="uni0427" unicode="&#x427;" horiz-adv-x="1144" 
d="M899 1487h62q31 0 30 -31v-1425q0 -31 -30 -31h-62q-31 0 -31 31v585q-119 -92 -243 -92h-158q-143 0 -254 114t-111 253v565q0 31 31 31h62q31 0 30 -31v-565q0 -94 72 -169t170 -75h158q81 0 161 55t82 117v637q0 31 31 31z" />
    <glyph glyph-name="uni0428" unicode="&#x428;" horiz-adv-x="1990" 
d="M1765 1487h62q31 0 31 -31v-1425q0 -31 -31 -31h-1663q-31 0 -31 31v1425q0 31 31 31h61q31 0 31 -31v-1333h678v1333q0 31 31 31h61q31 0 31 -31v-1333h678v1333q-1 31 30 31z" />
    <glyph glyph-name="uni0429" unicode="&#x429;" horiz-adv-x="2121" 
d="M1858 123h141q31 0 31 -31v-303q0 -31 -31 -31h-62q-31 0 -30 31v211h-1743q-31 0 -31 31v1425q0 31 31 31h61q31 0 31 -31v-1333h678v1333q0 31 31 31h61q31 0 31 -31v-1333h678v1333q0 31 30 31h62q31 0 31 -31v-1333z" />
    <glyph glyph-name="uni042A" unicode="&#x42a;" horiz-adv-x="1517" 
d="M590 123h395q276 0 277 297q0 297 -277 297h-395v-594zM590 840h395q184 0 292 -113q107 -113 107 -307t-108 -308q-108 -112 -291 -112h-487q-31 0 -31 31v1333h-344q-31 0 -31 31v61q0 31 31 31h436q31 0 31 -31v-616z" />
    <glyph glyph-name="uni042B" unicode="&#x42b;" horiz-adv-x="1654" 
d="M256 123h395q276 0 277 297q0 297 -277 297h-395v-594zM1389 1487h61q31 0 31 -31v-1425q0 -31 -31 -31h-61q-31 0 -31 31v1425q0 31 31 31zM256 840h395q184 0 292 -113t108 -307t-108 -308q-108 -112 -292 -112h-487q-31 0 -31 31v1425q0 31 31 31h61q31 0 31 -31v-616
z" />
    <glyph glyph-name="uni042C" unicode="&#x42c;" horiz-adv-x="1183" 
d="M256 123h395q276 0 277 297q0 297 -277 297h-395v-594zM256 840h395q184 0 292 -113t108 -307t-108 -308q-108 -112 -292 -112h-487q-31 0 -31 31v1425q0 31 31 31h61q31 0 31 -31v-616z" />
    <glyph glyph-name="uni042D" unicode="&#x42d;" horiz-adv-x="1159" 
d="M528 1509h95q176 0 305 -143t129 -344v-557q0 -201 -130 -346.5t-304 -145.5h-95q-168 0 -296 143.5t-130 334.5q0 31 31 30h62q33 0 32 -30q-2 -145 88.5 -250t212.5 -105h95q129 0 220 106.5t91 262.5v217h-371q-31 0 -31 31v61q0 31 31 31h371v217q0 156 -91 260
t-220 104h-95q-123 0 -212 -103t-89 -247q0 -31 -32 -30h-62q-31 0 -31 30q2 190 130 331.5t296 141.5z" />
    <glyph glyph-name="uni042E" unicode="&#x42e;" horiz-adv-x="1609" 
d="M1364 475v545q0 156 -88 261t-219 105h-94q-131 0 -219 -105t-89 -261v-545q0 -156 88 -261t220 -105h94q131 0 219 105t88 261zM963 1509h94q176 0 303 -143t127 -346v-545q0 -203 -127 -346t-303 -143h-94q-176 0 -304 143q-127 143 -127 346v195h-235v-639
q0 -31 -31 -31h-61q-31 0 -31 31v1425q0 31 31 31h61q31 0 31 -31v-663h235v227q0 203 127 346q128 143 304 143z" />
    <glyph glyph-name="uni042F" unicode="&#x42f;" horiz-adv-x="1191" 
d="M936 1364h-395q-277 0 -277 -297t277 -297h395v594zM541 1487h487q31 0 31 -31v-1425q0 -31 -31 -31h-61q-31 0 -31 31v616h-418q-122 -1 -192 -67t-70 -209v-340q0 -31 -31 -31h-61q-31 0 -31 31v346q0 233 170 336q-162 111 -162 354q0 195 108 307t292 113z" />
    <glyph glyph-name="uni0430" unicode="&#x430;" horiz-adv-x="978" 
d="M383 121h109q78 2 131 39t104 102v178h-344q-168 0 -168 -157q0 -70 50 -116t118 -46zM848 0h-88q-33 0 -33 49v64q-119 -115 -235 -115h-109q-113 -4 -202 82t-89 207t82 199t209 77h344v47q0 111 -54 172t-138 62h-103q-84 0 -127 -18t-80 -60q-23 -23 -47 0l-41 41
q-20 20 -2 41q53 66 121 92t176 27h103q129 -1 222 -101t93 -256v-561q0 -15 4 -32t-6 -17z" />
    <glyph glyph-name="uni0431" unicode="&#x431;" horiz-adv-x="1054" 
d="M786 346v250q0 96 -61 170t-160 74h-76q-79 0 -151 -56t-72 -116v-441q45 -43 111 -73t112 -31h76q88 0 155 66q66 67 66 157zM489 963h76q141 0 243 -113t101 -254v-250q0 -138 -105 -242t-239 -104h-76q-113 0 -223 80v-49q0 -31 -30 -31h-62q-31 0 -31 31v790
q1 147 9 304t86 242t217 77q27 -2 77 -7t74 -6q73 -3 137 44q18 12 37 12h88q41 0 19 -39q-76 -129 -230 -141q-51 -4 -211 8q-92 6 -129 -47t-41 -144q-8 -176 -10 -243q108 82 223 82z" />
    <glyph glyph-name="uni0432" unicode="&#x432;" horiz-adv-x="1038" 
d="M276 123h322q86 1 126 25t40 107t-31 126t-108 43h-349v-301zM276 547h349q77 0 103 39t26 116q0 137 -156 138h-322v-293zM885 248q0 -248 -287 -248h-414q-31 0 -30 31v901q0 31 30 31h414q131 0 204 -65q72 -65 72 -195t-45 -175q-24 -25 -65 -41q121 -47 121 -239z
" />
    <glyph glyph-name="uni0433" unicode="&#x433;" horiz-adv-x="956" 
d="M184 963h588q31 0 31 -31v-62q0 -31 -31 -30h-496v-809q0 -31 -30 -31h-62q-31 0 -30 31v901q-1 31 30 31z" />
    <glyph glyph-name="uni0434" unicode="&#x434;" horiz-adv-x="1370" 
d="M997 123v717h-524v-148q0 -406 -92 -569h616zM1120 123h117q31 0 31 -31v-260q0 -31 -31 -31h-61q-31 0 -31 31v168h-920v-168q0 -31 -30 -31h-62q-31 0 -31 31v260q0 31 31 31h55q45 0 87 79q75 141 75 539v191q0 31 31 31h709q31 0 30 -31v-809z" />
    <glyph glyph-name="uni0435" unicode="&#x435;" horiz-adv-x="1005" 
d="M780 569v29q0 106 -73.5 177t-151.5 71h-78q-94 0 -167.5 -74t-73.5 -174v-29h544zM477 969h78q123 0 235.5 -108.5t112.5 -260.5v-92q0 -61 -61 -62h-606v-81q0 -100 72.5 -172t168.5 -72h78q119 0 231 131q23 25 43 6l48 -41q23 -20 6 -43q-143 -176 -328 -176h-78
q-139 0 -251.5 110.5t-112.5 256.5v233q0 145 112.5 258t251.5 113z" />
    <glyph glyph-name="uni0436" unicode="&#x436;" horiz-adv-x="1536" 
d="M1380 0h-98q-25 0 -55 29l-393 360v-358q0 -31 -31 -31h-70q-31 0 -31 31v358l-393 -360q-31 -29 -55 -29h-98q-28 0 -23 31q2 12 10 18l467 430l-438 432q-18 19 -13 35t21 17h96q20 0 46 -25l380 -375v369q0 31 31 31h70q31 0 31 -31v-369l380 375q25 25 46 25h96
q16 -1 21 -17t-13 -35l-438 -432l467 -430q21 -16 10 -32q-10 -17 -23 -17z" />
    <glyph glyph-name="uni0437" unicode="&#x437;" horiz-adv-x="1056" 
d="M582 106q200 0 200 145q0 79 -31 124q-32 45 -122 49h-176q-23 0 -23 22v78q0 23 23 23h176q91 4 117 40t26 114q0 77 -54 115t-136 38h-127q-76 0 -127 -45t-52 -115q0 -23 -22 -22h-78q-23 0 -22 22q0 115 93 199t208 84h127q119 0 215 -77t96 -189q0 -61 -6 -95
q-15 -86 -117 -129q78 -33 106 -94t27 -149q0 -119 -99 -190t-222 -70h-127q-115 0 -208 78t-93 190q0 23 22 22h78q23 0 22 -22q0 -66 52 -106t127 -40h127z" />
    <glyph glyph-name="uni0438" unicode="&#x438;" horiz-adv-x="1079" 
d="M184 963h62q31 0 30 -31v-809l439 817q10 23 37 23h143q31 0 31 -31v-901q0 -31 -31 -31h-61q-31 0 -31 31v809l-438 -817q-12 -23 -37 -23h-144q-31 0 -30 31v901q-1 31 30 31z" />
    <glyph glyph-name="uni0439" unicode="&#x439;" horiz-adv-x="1079" 
d="M184 963h62q31 0 30 -31v-809l439 817q10 23 37 23h143q31 0 31 -31v-901q0 -31 -31 -31h-61q-31 0 -31 31v809l-438 -817q-12 -23 -37 -23h-144q-31 0 -30 31v901q-1 31 30 31zM780 1638h62q31 0 30 -30q-8 -143 -84 -220t-208 -77h-80q-133 0 -209 77t-84 220
q0 31 31 30h61q31 0 31 -30q14 -174 170 -174h80q156 0 170 174q-1 30 30 30z" />
    <glyph glyph-name="uni043A" unicode="&#x43a;" horiz-adv-x="987" 
d="M831 0h-98q-25 0 -55 29l-414 362v-360q0 -31 -31 -31h-69q-31 0 -31 31v901q0 31 31 31h69q31 0 31 -31v-371l402 377q25 25 45 25h96q16 -1 21 -17t-13 -35l-459 -432l488 -430q21 -16 10 -32q-10 -17 -23 -17z" />
    <glyph glyph-name="uni043B" unicode="&#x43b;" horiz-adv-x="1120" 
d="M195 932q0 31 32 33h62q10 0 14 -2h633q31 0 31 -31v-901q0 -31 -31 -31h-62q-31 0 -30 31v809h-525v-475q0 -240 -120 -373q-16 -23 -43 0l-54 51q-20 18 0 45q94 109 95 277v491q-2 4 -2 14v62z" />
    <glyph glyph-name="uni043C" unicode="&#x43c;" horiz-adv-x="1366" 
d="M1038 963h144q31 0 30 -31v-901q0 -31 -30 -31h-62q-31 0 -30 31v809l-336 -750q-12 -23 -35 -22h-72q-25 0 -35 22l-336 750v-809q0 -31 -30 -31h-62q-31 0 -30 31v901q0 31 30 31h144q25 0 37 -23l319 -723l317 723q10 23 37 23z" />
    <glyph glyph-name="uni043D" unicode="&#x43d;" horiz-adv-x="1079" 
d="M834 963h61q31 0 31 -31v-901q0 -31 -31 -31h-61q-31 0 -31 31v389h-527v-389q0 -31 -30 -31h-62q-31 0 -30 31v901q0 31 30 31h62q31 0 30 -31v-389h527v389q0 31 31 31z" />
    <glyph glyph-name="uni043E" unicode="&#x43e;" horiz-adv-x="1038" 
d="M803 385v193q0 112 -70 190t-174 78h-80q-109 0 -177 -79t-66 -189v-193q0 -111 68 -187t175 -77h80q106 1 175 77t69 187zM479 969h80q151 0 259 -118t108 -273v-193q0 -155 -108 -271t-259 -116h-80q-154 0 -260 116t-106 271v193q0 156 106 274t260 117z" />
    <glyph glyph-name="uni043F" unicode="&#x43f;" horiz-adv-x="1079" 
d="M184 963h711q31 0 31 -31v-901q0 -31 -31 -31h-61q-31 0 -31 31v809h-527v-809q0 -31 -30 -31h-62q-31 0 -30 31v901q-1 31 30 31z" />
    <glyph glyph-name="uni0440" unicode="&#x440;" horiz-adv-x="1038" 
d="M793 346v250q1 96 -61 170t-161 74h-82q-77 0 -149 -56t-74 -116v-441q45 -43 111 -73t112 -31h82q88 1 155 67t67 156zM489 963h82q141 0 243 -113t101 -254v-250q0 -138 -105 -242t-239 -104h-82q-113 0 -223 80v-459q0 -31 -30 -31h-62q-31 0 -31 31v1311q0 31 31 31
h62q31 0 30 -31v-53q106 84 223 84z" />
    <glyph glyph-name="uni0441" unicode="&#x441;" horiz-adv-x="985" 
d="M864 643h-63q-35 0 -35 27q-2 61 -71.5 118.5t-143.5 57.5h-74q-94 0 -167.5 -74t-73.5 -174v-233q0 -100 72.5 -172t168.5 -72h74q119 0 231 131q23 25 43 6l47 -41q23 -20 7 -43q-143 -176 -328 -176h-74q-139 0 -251.5 110.5t-112.5 256.5v233q0 145 112.5 258
t251.5 113h74q117 0 228.5 -93.5t113.5 -199.5q0 -33 -29 -33z" />
    <glyph glyph-name="uni0442" unicode="&#x442;" horiz-adv-x="1079" 
d="M184 963h711q31 0 31 -31v-62q0 -31 -31 -30h-293v-809q0 -31 -31 -31h-61q-31 0 -31 31v809h-295q-31 0 -30 30v62q-1 31 30 31z" />
    <glyph glyph-name="uni0443" unicode="&#x443;" horiz-adv-x="1013" 
d="M844 963h74q33 0 18 -37l-545 -1301q-14 -35 -45 -35h-74q-35 0 -20 37l184 439l-360 860q-14 37 18 37h76q29 0 43 -35l293 -697l293 697q14 35 45 35z" />
    <glyph glyph-name="uni0444" unicode="&#x444;" horiz-adv-x="1654" 
d="M1409 346v250q0 96 -61 170t-160 74h-76q-78 0 -150 -56t-73 -116v-441q45 -43 111 -73t112 -31h76q88 1 154 67t67 156zM467 123h76q47 0 113 31t110 73v441q-2 61 -74 116t-149 56h-76q-97 0 -159 -74t-62 -170v-250q0 -90 66 -157q67 -66 155 -66zM1112 963h76
q140 0 242 -113t102 -254v-250q0 -138 -106 -242t-238 -104h-76q-113 0 -223 80v-459q0 -31 -31 -31h-61q-31 0 -31 31v459q-111 -80 -223 -80h-76q-133 0 -239 104q-105 104 -105 242v250q0 141 101 254t243 113h76q117 0 223 -84v577q0 31 31 31h61q31 0 31 -31v-577
q106 84 223 84z" />
    <glyph glyph-name="uni0445" unicode="&#x445;" horiz-adv-x="915" 
d="M805 0h-76q-25 0 -47 35l-225 342l-224 -342q-23 -35 -47 -35h-77q-18 0 -25 10q-6 10 4 27l297 450l-289 439q-10 16 -4 26t25 11h78q25 0 47 -35l217 -328l215 328q23 35 47 35h78q18 -1 23 -11t-5 -26l-287 -439l297 -450q10 -17 4 -27t-26 -10z" />
    <glyph glyph-name="uni0446" unicode="&#x446;" horiz-adv-x="1187" 
d="M926 123h108q31 0 31 -31v-303q0 -31 -31 -31h-61q-31 0 -31 31v211h-758q-31 0 -30 31v901q0 31 30 31h62q31 0 30 -31v-809h527v809q0 31 31 31h61q31 0 31 -31v-809z" />
    <glyph glyph-name="uni0447" unicode="&#x447;" horiz-adv-x="1042" 
d="M797 963h61q31 0 31 -31v-901q0 -31 -31 -31h-61q-31 0 -31 31v291q-106 -84 -223 -84h-76q-141 0 -243 112q-101 113 -101 254v328q0 31 31 31h61q31 0 31 -31v-328q0 -96 61 -170t160 -74h76q77 0 149 56t74 116v400q0 31 31 31z" />
    <glyph glyph-name="uni0448" unicode="&#x448;" horiz-adv-x="1728" 
d="M1483 963h61q31 0 31 -31v-901q0 -31 -31 -31h-1360q-31 0 -30 31v901q0 31 30 31h62q31 0 30 -31v-809h527v809q0 31 31 31h61q31 0 31 -31v-809h526v809q0 31 31 31z" />
    <glyph glyph-name="uni0449" unicode="&#x449;" horiz-adv-x="1857" 
d="M1575 123h108q31 0 31 -31v-303q0 -31 -31 -31h-61q-31 0 -31 31v211h-1407q-31 0 -30 31v901q0 31 30 31h62q31 0 30 -31v-809h527v809q0 31 31 31h61q31 0 31 -31v-809h526v809q0 31 31 31h61q31 0 31 -31v-809z" />
    <glyph glyph-name="uni044A" unicode="&#x44a;" horiz-adv-x="1206" 
d="M401 123h293q137 0 197 45q59 45 59 149q0 195 -256 195h-293v-389zM401 635h293q178 0 278 -89t101 -235q0 -147 -98 -229t-281 -82h-385q-31 0 -30 31v809h-156q-31 0 -31 30v62q0 31 31 31h248q31 0 30 -31v-297z" />
    <glyph glyph-name="uni044B" unicode="&#x44b;" horiz-adv-x="1511" 
d="M256 123h293q137 0 196 45t60 149q0 195 -256 195h-293v-389zM256 635h293q178 0 278 -89q101 -89 101 -235q0 -147 -98 -229t-281 -82h-385q-31 0 -31 31v901q0 31 31 31h61q31 0 31 -31v-297zM1255 965h62q31 0 31 -31v-903q0 -31 -31 -31h-62q-31 0 -30 31v903
q-1 31 30 31z" />
    <glyph glyph-name="uni044C" unicode="&#x44c;" horiz-adv-x="1060" 
d="M256 123h293q137 0 196 45t60 149q0 195 -256 195h-293v-389zM256 635h293q178 0 278 -89q101 -89 101 -235q0 -147 -98 -229t-281 -82h-385q-31 0 -31 31v901q0 31 31 31h61q31 0 31 -31v-297z" />
    <glyph glyph-name="uni044D" unicode="&#x44d;" horiz-adv-x="985" 
d="M434 969h74q139 0 251.5 -113t112.5 -258v-233q0 -145 -112.5 -256t-251.5 -111h-74q-184 0 -328 176q-16 23 7 43l47 41q20 18 43 -6q113 -131 231 -131h74q96 0 169 71.5t73 172.5v55h-277q-31 0 -31 31v61q0 31 31 31h277v55q0 100 -74 174t-168 74h-74
q-74 0 -143.5 -57.5t-71.5 -118.5q0 -27 -35 -27h-63q-29 0 -29 33q2 106 113.5 199.5t228.5 93.5z" />
    <glyph glyph-name="uni044E" unicode="&#x44e;" horiz-adv-x="1472" 
d="M1237 385v193q0 112 -70 190t-174 78h-80q-109 0 -177 -79t-66 -189v-193q0 -111 68 -187t175 -77h80q106 1 175 77t69 187zM913 969h80q151 0 259 -118t108 -273v-193q0 -155 -108 -271t-259 -116h-80q-154 0 -260 116t-106 271v35h-277v-391q0 -31 -30 -31h-62
q-31 0 -31 31v903q0 31 31 31h62q31 0 30 -31v-389h277v35q0 156 106 274t260 117z" />
    <glyph glyph-name="uni044F" unicode="&#x44f;" horiz-adv-x="1017" 
d="M741 840h-321q-156 0 -156 -138q0 -78 27 -116t102 -39h348v293zM223 0h-59q-31 0 -31 31v217q0 193 121 239q-85 33 -98 102q-13 58 -13 113q0 131 73 196t204 65h414q31 0 30 -31v-901q0 -31 -30 -31h-62q-31 0 -31 31v393h-348q-79 0 -109 -43t-30 -133v-217
q0 -31 -31 -31z" />
    <glyph glyph-name="uni0451" unicode="&#x451;" horiz-adv-x="1005" 
d="M780 569v29q0 106 -73.5 177t-151.5 71h-78q-94 0 -167.5 -74t-73.5 -174v-29h544zM477 969h78q123 0 235.5 -108.5t112.5 -260.5v-92q0 -61 -61 -62h-606v-81q0 -100 72.5 -172t168.5 -72h78q119 0 231 131q23 25 43 6l48 -41q23 -20 6 -43q-143 -176 -328 -176h-78
q-139 0 -251.5 110.5t-112.5 256.5v233q0 145 112.5 258t251.5 113zM725 1339v117q0 31 31 31h98q31 0 31 -31v-117q0 -31 -31 -30h-98q-31 -1 -31 30zM119 1339v117q0 31 31 31h98q31 0 31 -31v-117q0 -31 -31 -30h-98q-31 -1 -31 30z" />
    <glyph glyph-name="uni0453" unicode="&#x453;" horiz-adv-x="956" 
d="M184 963h588q31 0 31 -31v-62q0 -31 -31 -30h-496v-809q0 -31 -30 -31h-62q-31 0 -30 31v901q-1 31 30 31zM506 1186h-66q-37 0 -20 37l153 379q12 37 43 36h91q39 0 20 -36l-178 -379q-20 -37 -43 -37z" />
    <glyph glyph-name="uni0454" unicode="&#x454;" horiz-adv-x="985" 
d="M551 -2h-74q-139 0 -251.5 110.5t-112.5 256.5v233q0 145 112.5 258t251.5 113h74q117 0 228.5 -93.5t113.5 -199.5q0 -33 -29 -33h-63q-35 0 -35 27q-2 61 -71.5 118.5t-143.5 57.5h-74q-94 0 -167.5 -74t-73.5 -174v-55h276q31 0 31 -31v-61q0 -31 -31 -31h-276v-55
q0 -100 72.5 -172t168.5 -72h74q119 0 231 131q23 24 43 6l47 -41q23 -20 7 -43q-143 -176 -328 -176z" />
    <glyph glyph-name="uni0456" unicode="&#x456;" horiz-adv-x="446" 
d="M162 31v903q0 31 31 31h61q31 0 31 -31v-903q0 -31 -31 -31h-61q-31 0 -31 31zM147 1343v113q0 31 31 31h90q31 0 31 -31v-113q0 -31 -31 -30h-90q-31 -1 -31 30z" />
    <glyph glyph-name="uni0457" unicode="&#x457;" horiz-adv-x="450" 
d="M164 31v903q0 31 31 31h61q31 0 31 -31v-903q0 -31 -31 -31h-61q-31 0 -31 31zM449 1339v117q0 31 30 31h99q31 0 30 -31v-117q0 -31 -30 -30h-99q-30 -1 -30 30zM-158 1339v117q0 31 31 31h98q31 0 31 -31v-117q0 -31 -31 -30h-98q-31 -1 -31 30z" />
    <glyph glyph-name="uni0458" unicode="&#x458;" horiz-adv-x="442" 
d="M156 -106v1040q0 31 30 31h62q31 0 31 -31v-1036q1 -90 -63 -173t-161 -118q-29 -11 -39 20l-20 64q-8 27 18 37q57 20 100 64q42 44 42 102zM139 1343v113q0 31 31 31h90q31 0 31 -31v-113q0 -31 -31 -30h-90q-31 -1 -31 30z" />
    <glyph glyph-name="uni045C" unicode="&#x45c;" horiz-adv-x="987" 
d="M831 0h-98q-25 0 -55 29l-414 362v-360q0 -31 -31 -31h-69q-31 0 -31 31v901q0 31 31 31h69q31 0 31 -31v-371l402 377q25 25 45 25h96q16 -1 21 -17t-13 -35l-459 -432l488 -430q21 -16 10 -32q-10 -17 -23 -17zM520 1186h-65q-37 0 -21 37l154 379q12 37 43 36h90
q39 0 20 -36l-178 -379q-20 -37 -43 -37z" />
    <glyph glyph-name="uni045D" unicode="&#x45d;" horiz-adv-x="1079" 
d="M184 963h62q31 0 30 -31v-809l439 817q10 23 37 23h143q31 0 31 -31v-901q0 -31 -31 -31h-61q-31 0 -31 31v809l-438 -817q-12 -23 -37 -23h-144q-31 0 -30 31v901q-1 31 30 31zM567 1186h-65q-23 0 -43 37l-178 379q-18 37 20 36h90q31 1 43 -36l154 -379
q16 -37 -21 -37z" />
    <glyph glyph-name="uni045E" unicode="&#x45e;" horiz-adv-x="1013" 
d="M844 963h74q33 0 18 -37l-545 -1301q-14 -35 -45 -35h-74q-35 0 -20 37l184 439l-360 860q-14 37 18 37h76q29 0 43 -35l293 -697l293 697q14 35 45 35zM547 1311h-80q-133 0 -209 77t-84 220q0 31 31 30h61q31 0 31 -30q14 -174 170 -174h80q156 0 170 174q0 31 31 30
h61q31 0 31 -30q-8 -143 -84 -220t-209 -77z" />
    <glyph glyph-name="uni0490" unicode="&#x490;" horiz-adv-x="1148" 
d="M924 1671h61q31 0 31 -31v-245q0 -31 -31 -31h-729v-1333q0 -31 -31 -31h-61q-31 0 -31 31v1425q0 31 31 31h729v153q0 31 31 31z" />
    <glyph glyph-name="uni0491" unicode="&#x491;" horiz-adv-x="956" 
d="M711 1147h61q31 0 31 -31v-246q0 -31 -31 -30h-496v-809q0 -31 -30 -31h-62q-31 0 -30 31v901q0 31 30 31h496v153q0 31 31 31z" />
    <glyph glyph-name="uni04C0" unicode="&#x4c0;" horiz-adv-x="471" 
d="M174 31v1425q0 31 31 31h61q31 0 31 -31v-1425q0 -31 -31 -31h-61q-31 0 -31 31z" />
    <glyph glyph-name="uni04E2" unicode="&#x4e2;" horiz-adv-x="1292" 
d="M164 1487h61q31 0 31 -31v-1333l692 1341q10 23 37 23h143q31 0 31 -31v-1425q0 -31 -31 -31h-61q-31 0 -31 31v1333l-692 -1341q-12 -23 -37 -23h-143q-31 0 -31 31v1425q0 31 31 31zM979 1888h-664q-31 0 -30 31v61q0 31 30 31h664q31 0 31 -31v-61q0 -31 -31 -31z" />
    <glyph glyph-name="uni04E3" unicode="&#x4e3;" horiz-adv-x="1079" 
d="M184 963h62q31 0 30 -31v-809l439 817q10 23 37 23h143q31 0 31 -31v-901q0 -31 -31 -31h-61q-31 0 -31 31v809l-438 -817q-12 -23 -37 -23h-144q-31 0 -30 31v901q-1 31 30 31zM872 1364h-663q-31 0 -31 31v61q0 31 31 31h663q31 0 31 -31v-61q0 -31 -31 -31z" />
    <glyph glyph-name="uni04E8" unicode="&#x4e8;" horiz-adv-x="1200" 
d="M553 109h94q131 0 219 105t88 261v207h-708v-207q0 -156 88 -261t219 -105zM647 1386h-94q-131 0 -219 -105t-88 -261v-215h708v215q0 156 -88 261t-219 105zM553 1509h94q176 0 303 -143t127 -346v-545q0 -203 -127 -346t-303 -143h-94q-176 0 -303 143t-127 346v545
q0 203 127 346t303 143z" />
    <glyph glyph-name="uni04E9" unicode="&#x4e9;" horiz-adv-x="1038" 
d="M479 121h80q106 0 175 77t69 187v35h-567v-35q0 -111 67 -187t176 -77zM559 846h-80q-109 0 -177 -79t-66 -189v-35h567v35q0 112 -70 190t-174 78zM479 969h80q151 0 259 -118t108 -273v-193q0 -155 -108 -271t-259 -116h-80q-154 0 -260 116t-106 271v193
q0 156 106 274t260 117z" />
    <glyph glyph-name="uni04EC" unicode="&#x4ec;" horiz-adv-x="1159" 
d="M528 1509h95q176 0 305 -143t129 -344v-557q0 -201 -130 -346.5t-304 -145.5h-95q-168 0 -296 143.5t-130 334.5q0 31 31 30h62q33 0 32 -30q-2 -145 88.5 -250t212.5 -105h95q129 0 220 106.5t91 262.5v217h-371q-31 0 -31 31v61q0 31 31 31h371v217q0 156 -91 260
t-220 104h-95q-123 0 -212 -103t-89 -247q0 -31 -32 -30h-62q-31 0 -31 30q2 190 130 331.5t296 141.5zM932 1833h-98q-31 0 -31 31v116q0 31 31 31h98q31 0 31 -31v-116q0 -31 -31 -31zM326 1833h-99q-31 0 -30 31v116q0 31 30 31h99q31 0 30 -31v-116q1 -31 -30 -31z" />
    <glyph glyph-name="uni04ED" unicode="&#x4ed;" horiz-adv-x="985" 
d="M434 969h74q139 0 251.5 -113t112.5 -258v-233q0 -145 -112.5 -256t-251.5 -111h-74q-184 0 -328 176q-16 23 7 43l47 41q20 18 43 -6q113 -131 231 -131h74q96 0 169 71.5t73 172.5v55h-277q-31 0 -31 31v61q0 31 31 31h277v55q0 100 -74 174t-168 74h-74
q-74 0 -143.5 -57.5t-71.5 -118.5q0 -27 -35 -27h-63q-29 0 -29 33q2 106 113.5 199.5t228.5 93.5zM748 1487h98q31 0 31 -31v-117q0 -31 -31 -30h-98q-31 0 -31 30v117q0 31 31 31zM240 1309h-99q-31 0 -30 30v117q0 31 30 31h99q31 0 30 -31v-117q1 -30 -30 -30z" />
    <glyph glyph-name="uni04EE" unicode="&#x4ee;" horiz-adv-x="1193" 
d="M995 1487h74q33 0 18 -37l-634 -1415q-14 -35 -45 -35h-74q-35 0 -21 37l222 491l-429 922q-18 37 19 37h76q29 0 43 -35l360 -768l346 768q14 35 45 35zM930 1888h-664q-31 0 -30 31v61q0 31 30 31h664q31 0 31 -31v-61q0 -31 -31 -31z" />
    <glyph glyph-name="uni04EF" unicode="&#x4ef;" horiz-adv-x="1013" 
d="M844 963h74q33 0 18 -37l-545 -1301q-14 -35 -45 -35h-74q-35 0 -20 37l184 439l-360 860q-14 37 18 37h76q29 0 43 -35l293 -697l293 697q14 35 45 35zM840 1364h-664q-31 0 -31 31v61q0 31 31 31h664q31 0 30 -31v-61q1 -31 -30 -31z" />
    <glyph glyph-name="Macute" unicode="&#x1e3e;" horiz-adv-x="1454" 
d="M1157 1487h123q31 0 31 -31v-1425q0 -31 -31 -31h-61q-31 0 -31 31v1261l-395 -1261q-10 -31 -39 -31h-64q-31 0 -39 31l-395 1261v-1261q0 -31 -31 -31h-61q-31 0 -31 31v1425q0 31 31 31h123q33 0 41 -31l393 -1259l395 1259q10 31 41 31zM858 2163h90q39 0 21 -37
l-178 -379q-20 -37 -43 -37h-66q-36 0 -20 37l153 379q12 37 43 37z" />
    <glyph glyph-name="macute" unicode="&#x1e3f;" horiz-adv-x="1701" 
d="M1130 963h76q144 0 246 -112t102 -255v-565q0 -31 -30 -31h-62q-31 0 -30 31v565q0 96 -62 170t-164 74h-76q-76 0 -148 -54t-75 -114q8 -33 8 -76v-565q0 -31 -30 -31h-62q-31 0 -30 31v565q-1 98 -61 171t-157 73h-75q-78 0 -150 -56t-74 -116v-637q0 -31 -30 -31h-62
q-31 0 -30 31v901q0 31 30 31h62q31 0 30 -31v-53q106 84 224 84h75q164 0 269 -148q52 66 130 107t156 41zM881 1186h-66q-37 0 -20 37l153 379q12 37 43 36h90q39 0 21 -36l-178 -379q-20 -37 -43 -37z" />
    <glyph glyph-name="Wgrave" unicode="&#x1e80;" horiz-adv-x="1880" 
d="M1702 1487h67q33 0 27 -31l-348 -1425q-8 -31 -39 -31h-61q-31 0 -39 31l-369 1257l-369 -1257q-8 -31 -39 -31h-61q-33 0 -39 31l-348 1425q-8 31 25 31h67q31 0 37 -31l293 -1245l360 1245q10 31 39 31h70q29 0 39 -31l362 -1245l291 1245q6 31 35 31zM967 1710h-66
q-23 0 -43 37l-178 379q-18 37 20 37h91q31 0 43 -37l153 -379q16 -37 -20 -37z" />
    <glyph glyph-name="wgrave" unicode="&#x1e81;" horiz-adv-x="1404" 
d="M1241 963h66q35 0 24 -35l-241 -895q-10 -33 -39 -33h-64q-27 0 -39 33l-246 725l-245 -725q-10 -33 -39 -33h-64q-27 0 -39 33l-241 895q-10 35 24 35h66q27 0 37 -35l188 -735l244 735q10 35 37 35h65q23 0 37 -35l242 -735l190 735q10 35 37 35zM729 1186h-65
q-23 0 -43 37l-179 379q-18 37 21 36h90q31 1 43 -36l154 -379q16 -37 -21 -37z" />
    <glyph glyph-name="Wacute" unicode="&#x1e82;" horiz-adv-x="1880" 
d="M1702 1487h67q33 0 27 -31l-348 -1425q-8 -31 -39 -31h-61q-31 0 -39 31l-369 1257l-369 -1257q-8 -31 -39 -31h-61q-33 0 -39 31l-348 1425q-8 31 25 31h67q31 0 37 -31l293 -1245l360 1245q10 31 39 31h70q29 0 39 -31l362 -1245l291 1245q6 31 35 31zM1077 2163h90
q39 0 21 -37l-178 -379q-20 -37 -43 -37h-66q-36 0 -20 37l153 379q12 37 43 37z" />
    <glyph glyph-name="wacute" unicode="&#x1e83;" horiz-adv-x="1404" 
d="M1241 963h66q35 0 24 -35l-241 -895q-10 -33 -39 -33h-64q-27 0 -39 33l-246 725l-245 -725q-10 -33 -39 -33h-64q-27 0 -39 33l-241 895q-10 35 24 35h66q27 0 37 -35l188 -735l244 735q10 35 37 35h65q23 0 37 -35l242 -735l190 735q10 35 37 35zM930 1638q39 0 20 -36
l-178 -379q-20 -37 -43 -37h-65q-37 0 -21 37l154 379q12 37 43 36h90z" />
    <glyph glyph-name="Wdieresis" unicode="&#x1e84;" horiz-adv-x="1880" 
d="M1702 1487h67q33 0 27 -31l-348 -1425q-8 -31 -39 -31h-61q-31 0 -39 31l-369 1257l-369 -1257q-8 -31 -39 -31h-61q-33 0 -39 31l-348 1425q-8 31 25 31h67q31 0 37 -31l293 -1245l360 1245q10 31 39 31h70q29 0 39 -31l362 -1245l291 1245q6 31 35 31zM1163 1864v116
q0 31 31 31h98q31 0 31 -31v-116q0 -31 -31 -31h-98q-31 0 -31 31zM557 1864v116q0 31 31 31h98q31 0 31 -31v-116q0 -31 -31 -31h-98q-31 0 -31 31z" />
    <glyph glyph-name="wdieresis" unicode="&#x1e85;" horiz-adv-x="1404" 
d="M1241 963h66q35 0 24 -35l-241 -895q-10 -33 -39 -33h-64q-27 0 -39 33l-246 725l-245 -725q-10 -33 -39 -33h-64q-27 0 -39 33l-241 895q-10 35 24 35h66q27 0 37 -35l188 -735l244 735q10 35 37 35h65q23 0 37 -35l242 -735l190 735q10 35 37 35zM926 1339v117
q0 31 30 31h99q31 0 30 -31v-117q0 -31 -30 -30h-99q-30 -1 -30 30zM319 1339v117q0 31 31 31h99q31 0 30 -31v-117q0 -31 -30 -30h-99q-31 -1 -31 30z" />
    <glyph glyph-name="Ygrave" unicode="&#x1ef2;" horiz-adv-x="1171" 
d="M993 1487h80q39 0 21 -31l-449 -803v-622q0 -31 -31 -31h-61q-31 0 -31 31v622l-444 803q-18 31 20 31h80q23 0 41 -31l365 -665l368 665q18 31 41 31zM612 1710h-65q-23 0 -43 37l-178 379q-18 37 20 37h90q31 0 43 -37l154 -379q16 -37 -21 -37z" />
    <glyph glyph-name="ygrave" unicode="&#x1ef3;" horiz-adv-x="1013" 
d="M844 963h74q33 0 18 -37l-545 -1301q-14 -35 -45 -35h-74q-35 0 -20 37l184 439l-360 860q-14 37 18 37h76q29 0 43 -35l293 -697l293 697q14 35 45 35zM358 1638q31 0 43 -36l154 -379q16 -37 -20 -37h-66q-23 0 -43 37l-178 379q-18 37 20 36h90z" />
    <glyph glyph-name="endash" unicode="&#x2013;" horiz-adv-x="1271" 
d="M1118 420h-964q-31 0 -31 31v61q0 31 31 31h964q31 0 31 -31v-61q0 -31 -31 -31z" />
    <glyph glyph-name="emdash" unicode="&#x2014;" horiz-adv-x="1423" 
d="M1270 420h-1116q-31 0 -31 31v61q0 31 31 31h1116q31 0 30 -31v-61q1 -31 -30 -31z" />
    <glyph glyph-name="quoteleft" unicode="&#x2018;" horiz-adv-x="413" 
d="M260 932h-127q-31 0 -31 31v204q0 100 20 176q19 76 87 154q18 23 41 0l45 -41q25 -27 8 -43q-66 -66 -77 -146q-3 -30 -3 -87l-16 -21h53q31 0 31 -31v-165q0 -31 -31 -31z" />
    <glyph glyph-name="quoteright" unicode="&#x2019;" horiz-adv-x="436" 
d="M166 1487h127q31 0 31 -31v-205q0 -100 -20 -176t-87 -153q-18 -20 -41 0l-45 41q-25 25 -8 43q66 66 77 146q3 30 3 87l16 21h-53q-31 0 -31 30v166q0 31 31 31z" />
    <glyph glyph-name="quotesinglbase" unicode="&#x201a;" horiz-adv-x="413" 
d="M154 227h127q31 0 30 -30v-205q0 -100 -19 -176t-87 -154q-18 -20 -41 0l-45 41q-25 27 -8 43q68 68 76 146q3 30 3 88l17 20h-53q-31 0 -31 31v166q0 30 31 30z" />
    <glyph glyph-name="quotedblleft" unicode="&#x201c;" horiz-adv-x="757" 
d="M604 932h-127q-31 0 -31 31v204q0 100 20 176q19 76 87 154q18 23 41 0l45 -41q25 -27 8 -43q-66 -66 -77 -146q-3 -30 -3 -87l-16 -21h53q31 0 31 -31v-165q0 -31 -31 -31zM260 932h-127q-31 0 -31 31v204q0 100 20 176q19 76 87 154q18 23 41 0l45 -41q25 -27 8 -43
q-66 -66 -77 -146q-3 -30 -3 -87l-16 -21h53q31 0 31 -31v-165q0 -31 -31 -31z" />
    <glyph glyph-name="quotedblright" unicode="&#x201d;" horiz-adv-x="776" 
d="M508 1487h127q31 0 31 -31v-205q0 -100 -20 -176t-87 -153q-18 -20 -41 0l-45 41q-27 25 -8 43q66 66 77 146q3 30 3 87l16 21h-53q-31 0 -31 30v166q0 31 31 31zM164 1487h127q31 0 31 -31v-205q0 -100 -20 -176t-87 -153q-18 -20 -41 0l-45 41q-27 25 -8 43
q66 66 77 146q3 30 3 87l16 21h-53q-31 0 -31 30v166q0 31 31 31z" />
    <glyph glyph-name="quotedblbase" unicode="&#x201e;" horiz-adv-x="757" 
d="M498 227h127q31 0 30 -30v-205q0 -100 -19 -176t-87 -154q-18 -20 -41 0l-45 41q-25 27 -8 43q68 68 76 146q3 30 4 88l16 20h-53q-31 0 -31 31v166q0 30 31 30zM154 227h127q31 0 30 -30v-205q0 -100 -19 -176t-87 -154q-18 -20 -41 0l-45 41q-25 27 -8 43q68 68 76 146
q3 30 3 88l17 20h-53q-31 0 -31 31v166q0 30 31 30z" />
    <glyph glyph-name="dagger" unicode="&#x2020;" horiz-adv-x="886" 
d="M506 963h268q31 0 31 -31v-62q0 -31 -31 -30h-268v-1076q0 -31 -31 -30h-61q-31 0 -31 30v1076h-270q-31 0 -31 30v62q0 31 31 31h270v501q0 31 31 31h61q31 0 31 -31v-501z" />
    <glyph glyph-name="daggerdbl" unicode="&#x2021;" horiz-adv-x="886" 
d="M506 840v-451h268q31 0 31 -33v-59q0 -31 -31 -31h-268v-502q0 -31 -31 -30h-61q-31 0 -31 30v502h-270q-31 0 -31 31v61q0 31 31 31h270v451h-270q-31 0 -31 30v62q0 31 31 31h270v501q0 31 31 31h61q31 0 31 -31v-501h268q31 0 31 -31v-62q0 -31 -31 -30h-268z" />
    <glyph glyph-name="bullet" unicode="&#x2022;" horiz-adv-x="598" 
d="M164 649v125q0 68 65 68h136q70 0 69 -68v-125q0 -68 -69 -67h-136q-65 -1 -65 67z" />
    <glyph glyph-name="ellipsis" unicode="&#x2026;" horiz-adv-x="983" 
d="M741 31v75q0 31 31 31h78q31 0 31 -31v-75q0 -31 -31 -31h-78q-31 0 -31 31zM422 31v75q0 31 31 31h77q31 0 31 -31v-75q0 -31 -31 -31h-77q-31 0 -31 31zM102 31v75q0 31 31 31h78q31 0 31 -31v-75q0 -31 -31 -31h-78q-31 0 -31 31z" />
    <glyph glyph-name="perthousand" unicode="&#x2030;" horiz-adv-x="1921" 
d="M1729 193v14q0 82 -84 82h-17q-82 0 -82 -82v-14q0 -82 82 -82h17q84 0 84 82zM1098 193v14q0 82 -84 82h-17q-82 0 -82 -82v-14q0 -82 82 -82h17q84 0 84 82zM1624 401h27q82 0 135 -54t53 -136v-23q0 -82 -53 -135t-135 -53h-27q-84 0 -136 53t-52 135v23q0 82 53 136
t135 54zM993 401h27q82 0 135 -54t53 -136v-23q0 -82 -53 -135t-135 -53h-27q-84 0 -136 53t-52 135v23q0 82 53 136t135 54zM375 1278v14q0 82 -84 82h-17q-82 0 -81 -82v-14q0 -82 81 -82h17q84 0 84 82zM1030 1487h86q39 0 21 -31l-828 -1425q-18 -31 -41 -31h-86
q-38 0 -20 31l827 1425q18 31 41 31zM270 1487h27q82 0 135 -54t53 -137v-22q0 -82 -52 -135t-136 -54h-27q-82 -1 -135 53t-53 136v22q0 82 53 136t135 55z" />
    <glyph glyph-name="guilsinglleft" unicode="&#x2039;" horiz-adv-x="677" 
d="M565 872v-114q0 -18 -37 -45l-254 -187l254 -186q37 -27 37 -45v-115q0 -16 -11 -21t-26 5l-385 285q-2 2 -9 7q-21 15 -21 33v74q0 19 14 29t16 12l385 285q14 10 26 5t11 -22z" />
    <glyph glyph-name="guilsinglright" unicode="&#x203a;" horiz-adv-x="677" 
d="M565 563v-74q0 -18 -14 -28t-16 -12l-385 -285q-14 -10 -26 -5q-11 5 -11 21v115q0 18 37 45l253 186l-253 187q-37 27 -37 45v114q0 16 11 22q12 5 26 -5l385 -285q2 -2 9 -7q21 -15 21 -34z" />
    <glyph glyph-name="fraction" unicode="&#x2044;" horiz-adv-x="204" 
d="M463 1487h86q39 0 20 -31l-827 -1425q-18 -31 -41 -31h-86q-39 0 -21 31l828 1425q18 31 41 31z" />
    <glyph glyph-name="Euro" unicode="&#x20ac;" horiz-adv-x="1441" 
d="M1247 481h62q31 0 30 -30q-2 -189 -130 -333t-296 -145h-94q-174 -1 -304 145t-130 347v96h-252q-31 0 -31 31v61q0 31 31 31h252v115h-252q-31 0 -31 30v62q0 31 31 31h252v100q0 201 129 344t305 143h94q168 0 296 -141t130 -332q0 -31 -30 -30h-62q-33 0 -33 30
q0 142 -89 246t-212 104h-94q-129 0 -220 -104t-91 -260v-100h399q31 0 31 -31v-62q0 -31 -31 -30h-399v-115h399q31 0 31 -31v-61q0 -31 -31 -31h-399v-96q0 -156 91 -262t220 -107h94q123 0 213 104t88 251q0 30 33 30z" />
    <glyph glyph-name="hryvnia" unicode="&#x20b4;" horiz-adv-x="1179" 
d="M973 475h63q31 0 31 -31v-59q0 -176 -130 -295t-300 -119h-94q-176 0 -303 119t-127 301q0 96 34 170h-4q-31 0 -30 31v61q0 31 30 31h103q94 78 258 115h-361q-31 0 -30 30v62q0 31 30 31h723q70 70 70 194t-78 198q-78 75 -203 75h-106q-121 0 -208 -86t-87 -224v-39
q0 -31 -31 -30h-63q-31 0 -31 30v39q-2 185 126 309t294 123h106q170 1 287 -113t117 -292q0 -104 -45 -184h20q31 0 31 -31v-62q0 -31 -31 -30h-137q-98 -68 -256 -97l-98 -18h491q31 0 31 -31v-61q0 -31 -31 -31h-747q-51 -63 -51 -184t89 -202t218 -81h94q123 0 211 80
t92 211l2 59q0 31 31 31z" />
    <glyph glyph-name="uni2116" unicode="&#x2116;" horiz-adv-x="2250" 
d="M1384 340v61q0 31 31 31h692q31 0 31 -31v-61q0 -31 -31 -31h-692q-31 0 -31 31zM2013 983v141q0 98 -60 171t-163 73h-59q-103 0 -163 -73t-61 -171v-141q-1 -98 59 -171t165 -73h59q102 0 163 73q60 73 60 171zM1067 1487h61q31 0 31 -31v-1425q0 -31 -31 -31h-143
q-27 0 -37 23l-692 1341v-1333q0 -31 -31 -31h-61q-31 0 -31 31v1425q0 31 31 31h143q25 0 37 -23l692 -1341v1333q0 31 31 31zM1731 1491h59q146 0 246 -112t100 -255v-141q0 -143 -99 -255t-247 -112h-59q-150 0 -248 111t-99 256v141q0 145 98 256t249 111z" />
    <glyph glyph-name="uni2120" unicode="&#x2120;" horiz-adv-x="1572" 
d="M1337 1487h123q31 0 31 -31v-463q0 -31 -31 -30h-61q-31 0 -31 30v340l-201 -340q-18 -31 -39 -30h-43q-20 0 -38 30l-201 340v-340q0 -31 -31 -30h-61q-31 0 -31 30v463q0 31 31 31h123q25 0 41 -31l188 -338l190 338q18 31 41 31zM332 952q-120 0 -184 44
q-65 44 -66 112q0 16 18 16h82q18 0 19 -16q1 -39 109 -39t134 7t25 38q0 31 -23 40t-137 14q-227 10 -227 171q0 90 59 125t187 35q248 0 252 -164q0 -18 -15 -18h-82q-18 1 -19 23t-28 32q-28 10 -110 10t-105 -8t-23 -30t6 -32q13 -24 141 -30t183 -47q56 -41 56 -120
t-66 -121t-186 -42z" />
    <glyph glyph-name="trademark" unicode="&#x2122;" horiz-adv-x="1595" 
d="M1360 1487h123q31 0 30 -31v-463q0 -31 -30 -30h-62q-31 0 -30 30v340l-201 -340q-18 -31 -39 -30h-43q-20 0 -39 30l-201 340v-340q0 -31 -30 -30h-62q-31 0 -31 30v463q0 31 31 31h123q25 0 41 -31l188 -338l191 338q18 31 41 31zM113 1487h489q31 0 31 -31v-61
q0 -31 -31 -31h-182v-371q0 -31 -31 -30h-61q-31 0 -31 30v371h-184q-31 0 -31 31v61q0 31 31 31z" />
    <glyph glyph-name="oneeighth" unicode="&#x215b;" horiz-adv-x="1480" 
d="M1071 188q1 -33 23 -52t57 -19t59 19t23 52q0 33 -23 55t-55 21h-6q-33 0 -55 -22t-23 -54zM1149 371h6q33 -1 55 21t23 54q0 32 -24 52q-25 20 -59 20t-56 -19t-23 -53q1 -34 23 -54q22 -21 55 -21zM1358 183q0 -71 -50 -127t-130 -56h-52q-80 0 -130 56t-50 127t70 134
q-70 63 -70 135t50 127q50 56 130 56h52q80 0 130 -56q50 -55 50 -127t-70 -135q70 -63 70 -134zM246 885v571q0 31 30 31h66q31 0 31 -31v-571q0 -31 -31 -31h-66q-30 0 -30 31zM1081 1487h86q39 0 21 -31l-828 -1425q-18 -31 -41 -31h-86q-38 0 -20 31l827 1425
q18 31 41 31z" />
    <glyph glyph-name="threeeighths" unicode="&#x215c;" horiz-adv-x="1515" 
d="M1184 264q-33 0 -56 -22q-22 -22 -22 -54q0 -33 22 -52t58 -19q34 0 58 19t24 52t-23 55t-55 21h-6zM1184 371h6q34 -1 56 21t22 54t-24 52t-58 20t-58 -19q-22 -19 -22 -53t22 -54q22 -21 56 -21zM1393 183q-1 -71 -51 -127t-130 -56h-51q-80 0 -130 56t-50 127t70 134
q-70 63 -70 135t50 127q50 56 130 56h51q80 0 130 -56q50 -55 50 -127t-69 -135q70 -63 70 -134zM1116 1487h86q39 0 21 -31l-828 -1425q-18 -31 -41 -31h-86q-38 0 -20 31l827 1425q18 31 41 31zM350 854h-51q-74 0 -125 51t-51 119v27q0 31 31 30h61q31 0 31 -30v-15
q0 -27 22 -46t56 -19t58 19t24 52t-23 55t-55 21h-47q-31 0 -31 31v45q0 31 31 31h47q34 -1 56 21t22 54t-24 52t-58 20t-57 -19q-22 -19 -21 -46v-15q0 -31 -31 -30h-61q-31 0 -31 30v27q0 68 51 119t125 51h51q80 0 130 -56q50 -55 50 -127t-69 -135q69 -63 69 -134
t-50 -127t-130 -56z" />
    <glyph glyph-name="fiveeighths" unicode="&#x215d;" horiz-adv-x="1515" 
d="M1184 264q-33 0 -56 -22q-22 -22 -22 -54q0 -33 22 -52t58 -19q34 0 58 19t24 52t-23 55t-55 21h-6zM1184 371h6q34 -1 56 21t22 54t-24 52t-58 20t-58 -19q-22 -19 -22 -53t22 -54q22 -21 56 -21zM1393 183q-1 -71 -51 -127t-130 -56h-51q-80 0 -130 56t-50 127t70 134
q-70 63 -70 135t50 127q50 56 130 56h51q80 0 130 -56q50 -55 50 -127t-69 -135q70 -63 70 -134zM1116 1487h86q39 0 21 -31l-828 -1425q-18 -31 -41 -31h-86q-38 0 -20 31l827 1425q18 31 41 31zM530 1044q0 -78 -50 -135t-130 -57h-51q-74 0 -125 51t-51 119v27
q0 31 31 30h61q31 0 31 -30v-15q0 -27 22 -46t54 -19q80 0 84 86q6 128 -110 108q-36 -6 -56 -24h-86q-31 0 -31 30v287q0 31 31 31h325q31 0 31 -31v-57q0 -31 -31 -31h-237v-117q44 23 114 16q174 -17 174 -223z" />
    <glyph glyph-name="seveneighths" unicode="&#x215e;" horiz-adv-x="1495" 
d="M1085 188q1 -33 23 -52t57 -19t59 19t23 52q0 33 -22 55q-23 22 -56 21h-6q-33 0 -55 -22t-23 -54zM1163 371h6q33 -1 56 21t23 54t-24 53q-24 19 -59 19t-57 -19t-23 -53q1 -34 23 -54q22 -21 55 -21zM1192 0h-51q-80 0 -130 56t-50 127t69 134q-70 63 -70 135t51 127
q50 56 130 56h51q80 0 130 -56q50 -55 50 -127t-69 -135q69 -63 69 -134t-50 -127t-130 -56zM1096 1487h86q39 0 20 -31l-827 -1425q-18 -31 -41 -31h-86q-39 0 -21 31l828 1425q18 31 41 31zM510 1456v-59q0 -18 -8 -35l-221 -481q-16 -29 -33 -29h-86q-31 0 -19 29
l219 483h-208q-31 0 -31 31v61q0 31 31 31h325q31 0 31 -31z" />
    <glyph glyph-name="partialdiff" unicode="&#x2202;" horiz-adv-x="1163" 
d="M547 102h84q262 1 293 312q18 194 -60 282t-283 90t-281 -87t-72 -264t94 -254t225 -79zM528 1509h90q180 -1 292 -117t130 -296q39 -352 9 -682q-18 -205 -130 -320t-288 -114h-84q-182 0 -309 114t-136 328q-8 250 115 373t367 123t350 -111q10 143 -21 319
q-18 113 -92 189t-203 76h-90q-133 0 -216 -84t-83 -226v-34q0 -31 -30 -31h-64q-31 0 -31 31v34q0 186 123 307t301 121z" />
    <glyph glyph-name="emptyset" unicode="&#x2205;" horiz-adv-x="1200" 
d="M954 475v545q0 129 -65 231l-481 -1101q66 -41 145 -41h94q131 0 219 105t88 261zM246 1020v-545q0 -137 67 -233l482 1101q-66 43 -148 43h-94q-131 0 -219 -105t-88 -261zM315 0h-73q-37 0 -21 31l39 88q-137 143 -137 356v545q0 203 127 346t303 143h94q100 0 197 -53
q12 31 41 31h73q33 0 21 -31l-35 -82q133 -145 133 -354v-545q0 -203 -127 -346t-303 -143h-94q-104 0 -193 53q-19 -39 -45 -39z" />
    <glyph glyph-name="product" unicode="&#x220f;" horiz-adv-x="1052" 
d="M154 963h747q29 0 29 -31v-901q0 -31 -31 -31h-61q-31 0 -31 31v809h-561v-809q0 -31 -31 -31h-61q-31 0 -31 31v901q0 31 31 31z" />
    <glyph glyph-name="summation" unicode="&#x2211;" horiz-adv-x="1120" 
d="M123 1350v106q0 31 31 31h813q31 0 30 -33v-59q0 -31 -30 -31h-709l483 -551q29 -33 29 -49v-43q0 -16 -29 -49l-483 -547l709 -2q29 0 30 -31l-2 -61q0 -31 -28 -31h-813q-31 0 -31 31v106q0 18 31 58l479 546l-479 551q-31 40 -31 58z" />
    <glyph glyph-name="minus" unicode="&#x2212;" horiz-adv-x="1052" 
d="M154 723h747q29 0 29 -31v-61q0 -31 -31 -31h-745q-31 0 -31 31v61q0 31 31 31z" />
    <glyph glyph-name="radical" unicode="&#x221a;" horiz-adv-x="1241" 
d="M131 688h82q14 0 20 -6t17 -27l246 -469l497 1268q12 33 37 33h82q37 0 25 -33l-570 -1421q-12 -33 -39 -33h-63q-23 0 -39 33l-320 622q-14 33 25 33z" />
    <glyph glyph-name="infinity" unicode="&#x221e;" horiz-adv-x="1734" 
d="M1513 524v62q0 129 -70 191q-71 62 -183 63h-76q-104 0 -178 -69t-74 -185v-62q0 -114 75 -184t177 -70h76q113 0 183 62t70 192zM803 524v62q0 118 -72 186t-180 68h-76q-109 0 -181 -62t-71 -192v-62q0 -127 72 -190t180 -64h76q109 0 181 68t71 186zM1184 963h76
q156 1 264 -101t108 -276v-62q0 -172 -108 -273t-264 -101h-76q-94 0 -179 48t-137 130q-49 -82 -134 -130t-183 -48h-76q-153 0 -263 102t-110 272v62q0 172 111 274t262 103h76q98 -1 183 -49t134 -132q50 84 136 132t180 49z" />
    <glyph glyph-name="integral" unicode="&#x222b;" horiz-adv-x="847" 
d="M696 1487h19q31 0 30 -31v-61q0 -31 -30 -31h-19q-102 0 -156 -69t-55 -193v-1127q0 -174 -91 -279t-242 -106h-19q-31 0 -31 31v62q0 31 31 30h19q102 0 156 69t54 193v1127q0 174 91 280t243 105z" />
    <glyph glyph-name="approxequal" unicode="&#x2248;" horiz-adv-x="1075" 
d="M940 492l29 -56q12 -23 -21 -45q-207 -152 -426 -12q-98 61 -174 58t-178 -70q-20 -14 -35 16l-29 55q-12 23 21 45q207 152 426 13q98 -60 174 -58t178 70q21 13 35 -16zM940 799l29 -56q12 -23 -21 -45q-207 -152 -426 -12q-98 61 -174 58t-178 -70q-20 -14 -35 16
l-29 55q-12 23 21 46q207 152 426 12q98 -61 174 -59t178 71q21 13 35 -16z" />
    <glyph glyph-name="notequal" unicode="&#x2260;" horiz-adv-x="847" 
d="M709 1405h73q33 0 21 -31l-213 -487h145q31 0 31 -31v-61q0 -31 -31 -31h-198l-91 -205h289q31 0 31 -31v-61q0 -31 -31 -31h-342l-213 -487q-16 -31 -41 -31h-73q-37 0 -21 31l213 487h-145q-31 0 -31 31v61q0 31 31 31h198l90 205h-288q-31 0 -31 31v61q0 31 31 31h342
l213 487q12 31 41 31z" />
    <glyph glyph-name="lessequal" unicode="&#x2264;" horiz-adv-x="983" 
d="M156 123h673q31 0 31 -31v-61q0 -31 -31 -31h-671q-31 0 -31 31v61q0 31 29 31zM860 1133v-70q0 -37 -20 -49l-531 -305l531 -306q20 -12 20 -49v-69q0 -11 -9 -17t-24 0l-686 396q-18 12 -18 45t18 45l686 395q13 6 23 1t10 -17z" />
    <glyph glyph-name="greaterequal" unicode="&#x2265;" horiz-adv-x="983" 
d="M154 123h673q29 0 29 -31v-61q0 -31 -31 -31h-671q-31 0 -31 31v61q0 31 31 31zM123 1063v70q0 12 9 17t24 -1l686 -395q18 -12 18 -45t-18 -45l-686 -396q-14 -6 -24 -1q-9 5 -9 18v69q0 37 20 49l531 306l-531 305q-20 12 -20 49z" />
    <glyph glyph-name="lozenge" unicode="&#x25ca;" horiz-adv-x="931" 
d="M465 193l256 614q6 14 0 24l-254 615l-256 -615q-6 -12 0 -24zM498 0h-64q-27 0 -39 33l-311 774q-4 12 0 24l311 775q10 33 39 32h64q27 0 39 -32l311 -775q4 -12 0 -24l-311 -774q-10 -33 -39 -33z" />
    <glyph glyph-name="i.loclTRK" horiz-adv-x="450" 
d="M164 31v903q0 31 31 31h61q31 0 31 -31v-903q0 -31 -31 -31h-61q-31 0 -31 31zM135 1325v127q0 35 35 35h113q33 0 32 -35v-127q0 -35 -32 -35h-113q-35 0 -35 35z" />
    <glyph glyph-name="zero.lf" horiz-adv-x="1200" 
d="M553 109h94q131 0 219 105t88 261v545q0 156 -88 261t-219 105h-94q-131 0 -219 -105t-88 -261v-545q0 -156 88 -261t219 -105zM553 1509h94q176 0 303 -143t127 -346v-545q0 -203 -127 -346t-303 -143h-94q-176 0 -303 143t-127 346v545q0 203 127 346t303 143z" />
    <glyph glyph-name="one.lf" horiz-adv-x="753" 
d="M375 1487h61q31 0 31 -31v-1425q0 -31 -31 -31h-61q-31 0 -31 31v1269l-104 -102q-20 -23 -43 0l-43 43q-20 20 0 43l200 199q13 4 21 4z" />
    <glyph glyph-name="two.lf" horiz-adv-x="1159" 
d="M629 1503q172 0 300 -122q128 -123 128 -307t-95 -284t-307 -184l-231 -92q-111 -46 -146 -166q-36 -120 -36 -225h770q31 0 30 -31v-61q0 -31 -30 -31h-877q-31 0 -31 31q2 244 52 382q49 138 200 203l299 129q63 27 95 41t74 44t61 61q49 84 49 204q0 119 -90 202
t-215 83h-86q-121 0 -210 -83t-89 -220v-35q0 -31 -31 -30h-63q-31 0 -31 30v35q0 180 128 301t296 125h86z" />
    <glyph glyph-name="three.lf" horiz-adv-x="1148" 
d="M1047 379q0 -176 -129 -287t-306 -110h-86q-168 0 -297 114t-127 295v39q0 31 31 31h64q31 0 30 -31v-39q0 -135 89 -211t210 -76h86q131 0 222 73q90 73 90 206t-84 215t-232 88h-147q-31 0 -31 31v74q0 31 31 30h147q145 6 223 83t78 203t-88 204t-211 78h-86
q-119 0 -208 -83t-89 -223v-39q0 -31 -30 -30h-64q-31 0 -31 30v39q0 185 129 307t293 121h86q170 -1 296 -117t126 -278q0 -126 -58 -210t-179 -150q252 -135 252 -377z" />
    <glyph glyph-name="four.lf" horiz-adv-x="1128" 
d="M719 627v305q0 31 31 31h61q31 0 31 -31v-305h164q31 0 30 -31v-61q0 -31 -30 -31h-164v-473q0 -31 -31 -31h-61q-31 0 -31 31v473h-621q-25 0 -32 20l-19 45q-10 23 4 45l576 873q14 23 41 22h80q20 0 25 -11t-5 -25l-555 -846h506z" />
    <glyph glyph-name="five.lf" horiz-adv-x="1161" 
d="M528 -18q-178 0 -302 114t-124 297v33q0 31 31 31h64q31 0 30 -31v-33q0 -137 84 -213t217 -76h86q135 0 226 78q90 78 94 236q10 381 -326 381h-59q-120 0 -227 -73q-47 -32 -66 -40h-102q-31 0 -31 31v39l20 700q0 31 31 31h787q31 0 30 -31v-61q0 -31 -30 -31h-691
l-20 -537q26 13 42 24t36 21t39 20t40 16q21 4 41 10q50 14 121 14h52q201 0 325 -130t115 -380q-8 -211 -136 -326t-311 -114h-86z" />
    <glyph glyph-name="six.lf" horiz-adv-x="1163" 
d="M522 104h96q135 0 225 78q89 78 92 252t-70 263t-253 89h-73q-181 0 -249 -94t-52 -266t86 -247t198 -75zM635 1511q178 1 301 -121t123 -309v-34q0 -31 -31 -31h-63q-31 0 -31 31v34q0 141 -83 225t-216 83h-90q-129 0 -203 -75t-92 -188q-31 -176 -21 -319
q109 113 308 113h75q467 0 449 -498q-8 -213 -134 -327t-309 -113h-96q-176 0 -282 114t-125 318q-31 330 8 682q18 180 130 296t292 119h90z" />
    <glyph glyph-name="seven.lf" horiz-adv-x="1165" 
d="M1073 1456v-59q2 -16 -6 -33q-535 -600 -762 -1380q-8 -23 -43 -11l-65 23q-23 8 -11 43q213 752 740 1325h-803q-31 0 -31 31v61q0 31 31 31h919q31 0 31 -31z" />
    <glyph glyph-name="eight.lf" horiz-adv-x="1173" 
d="M948 371v69q0 109 -83 189t-206 80h-145q-123 0 -206 -80t-83 -189v-69q0 -109 83 -188t206 -79h145q123 0 206 79t83 188zM252 1128v-36q0 -111 71 -186t191 -75h145q121 0 192 75t71 186v36q0 106 -74 184t-193 77h-137q-118 1 -192 -77t-74 -184zM1071 440v-69
q0 -156 -122 -273t-290 -116h-145q-168 0 -290 116t-122 273v69q0 98 54 188t143 144q-80 51 -126 136t-46 184v36q0 152 114 268t277 115h137q164 1 278 -115t114 -268v-36q-1 -98 -47 -184t-126 -136q88 -55 142 -144t55 -188z" />
    <glyph glyph-name="nine.lf" horiz-adv-x="1165" 
d="M643 1389h-96q-135 0 -224 -78t-93 -252t70 -263q73 -89 253 -89h74q180 0 249 94q68 94 52 266t-86 247t-199 75zM530 -18q-178 0 -301 122t-123 308v34q0 31 31 31h64q31 0 30 -31v-34q0 -140 83 -224t216 -84h91q129 0 203 75t91 188q31 176 21 319
q-109 -113 -307 -113h-76q-467 0 -449 498q8 213 134 327t309 113h96q176 0 283 -113q106 -114 125 -319q31 -330 -9 -682q-18 -179 -130 -295t-291 -120h-91z" />
    <glyph glyph-name="zero.osf" horiz-adv-x="1079" 
d="M844 385v193q0 112 -69 188t-175 76h-121q-109 0 -177 -77t-66 -187v-193q0 -111 68 -187t175 -77h121q106 1 175 77t69 187zM479 965h121q152 0 260 -116t107 -271v-193q0 -155 -108 -271t-259 -116h-121q-154 0 -260 116t-106 271v193q0 156 106 272t260 115z" />
    <glyph glyph-name="one.osf" horiz-adv-x="671" 
d="M436 123h92q31 0 31 -31v-61q0 -31 -31 -31h-327q-31 0 -31 31v61q0 31 31 31h112v653l-104 -102q-20 -23 -43 0l-43 43q-20 20 0 43l194 192l7 6q12 4 20 5h62q31 0 30 -31v-809z" />
    <glyph glyph-name="two.osf" horiz-adv-x="1095" 
d="M979 627q0 -68 -15 -111q-16 -43 -62 -73t-100 -47t-163 -42l-207 -47q-182 -41 -182 -184h692q31 0 31 -31v-61q0 -31 -31 -31h-799q-31 0 -30 31q2 176 56 267t210 128l229 53q25 5 68 15t84 20t52 21q12 10 28 25t16 67q0 85 -78 149t-184 64h-86q-112 0 -184 -65
t-72 -154v-25q0 -31 -31 -31h-63q-31 0 -31 31v25q-1 135 111 239t268 107h88q152 -3 268 -107t117 -233z" />
    <glyph glyph-name="three.osf" horiz-adv-x="1148" 
d="M1047 -45q0 -161 -129 -269t-306 -108h-86q-168 0 -297 115t-127 295v39q0 31 31 30h64q31 0 30 -30v-39q0 -135 89 -211t210 -76h86q129 0 221 70q91 71 91 187t-85 186t-231 77h-65q-31 0 -31 31v74q0 31 31 30h65q301 12 301 234q0 102 -89 177t-210 75h-86
q-117 0 -207 -81t-90 -204v-39q0 -31 -30 -31h-64q-31 0 -31 31v39q0 168 130 288t292 120h86q168 0 295 -113t127 -250q0 -138 -58 -208t-179 -103q119 -35 185 -123t67 -213z" />
    <glyph glyph-name="four.osf" horiz-adv-x="1128" 
d="M719 123v305q0 31 31 31h61q31 0 31 -31v-305h164q31 0 30 -31v-61q0 -31 -30 -31h-164v-379q0 -31 -31 -31h-61q-31 0 -31 31v379h-621q-25 0 -32 20l-19 46q-10 23 4 45l576 872q14 23 41 23h80q20 0 25 -12t-5 -25l-555 -846h506z" />
    <glyph glyph-name="five.osf" horiz-adv-x="1183" 
d="M625 -426h-86q-178 0 -302 114t-124 298v32q0 31 30 31h64q31 0 31 -31v-32q0 -137 84 -213t217 -76h86q135 0 225 78q90 77 94 251t-73 268t-245 98q-168 3 -287 -71q-58 -36 -73 -42h-102q-31 0 -31 30v39l21 584q0 31 30 31h787q31 0 30 -31v-62q0 -31 -30 -30h-690
l-21 -420q66 37 105 56q106 52 266 48q203 -4 325 -132t115 -378q-8 -212 -136 -326t-310 -114z" />
    <glyph glyph-name="six.osf" horiz-adv-x="1163" 
d="M522 104h96q135 0 225 78q89 78 92 252t-70 263t-253 89h-73q-181 0 -249 -94t-52 -266t86 -247t198 -75zM635 1511q178 1 301 -121t123 -309v-34q0 -31 -31 -31h-63q-31 0 -31 31v34q0 141 -83 225t-216 83h-90q-129 0 -203 -75t-92 -188q-31 -176 -21 -319
q109 113 308 113h75q467 0 449 -498q-8 -213 -134 -327t-309 -113h-96q-176 0 -282 114t-125 318q-31 330 8 682q18 180 130 296t292 119h90z" />
    <glyph glyph-name="seven.osf" horiz-adv-x="1165" 
d="M315 -410h-71q-37 0 -27 35q213 672 709 1215h-803q-31 0 -31 30v62q0 31 31 31h919q31 0 31 -31v-60q2 -16 -6 -32q-492 -553 -717 -1225q-10 -25 -35 -25z" />
    <glyph glyph-name="eight.osf" horiz-adv-x="1173" 
d="M948 371v69q0 109 -83 189t-206 80h-145q-123 0 -206 -80t-83 -189v-69q0 -109 83 -188t206 -79h145q123 0 206 79t83 188zM252 1128v-36q0 -111 71 -186t191 -75h145q121 0 192 75t71 186v36q0 106 -74 184t-193 77h-137q-118 1 -192 -77t-74 -184zM1071 440v-69
q0 -156 -122 -273t-290 -116h-145q-168 0 -290 116t-122 273v69q0 98 54 188t143 144q-80 51 -126 136t-46 184v36q0 152 114 268t277 115h137q164 1 278 -115t114 -268v-36q-1 -98 -47 -184t-126 -136q88 -55 142 -144t55 -188z" />
    <glyph glyph-name="nine.osf" horiz-adv-x="1183" 
d="M557 842q-135 0 -225 -74t-93 -228t73 -234q76 -81 279 -79q205 2 279 81q74 78 63 234q-21 299 -292 300h-84zM629 -424h-90q-174 0 -299 111t-125 280v21q0 31 30 30h64q31 0 31 -30v-21q0 -123 85 -195t214 -73h90q125 1 201 65t94 158q31 154 20 277
q-98 -103 -346 -103t-372 115t-114 325t138 320q127 110 307 109h84q176 0 290 -110t128 -296q27 -311 -8 -606q-18 -165 -133 -271t-289 -106z" />
    <glyph glyph-name="zero.tf" 
d="M670 109h94q131 0 219 105t88 261v545q0 156 -88 261t-219 105h-94q-131 0 -219 -105t-89 -261v-545q0 -156 88 -261t220 -105zM670 1509h94q176 0 303 -143t127 -346v-545q0 -203 -127 -346t-303 -143h-94q-176 0 -303 143t-127 346v545q0 203 127 346t303 143z" />
    <glyph glyph-name="one.tf" 
d="M688 1487h62q31 0 30 -31v-1425q0 -31 -30 -31h-62q-31 0 -31 31v1269l-104 -102q-20 -23 -43 0l-43 43q-20 20 0 43l201 199q12 4 20 4z" />
    <glyph glyph-name="two.tf" 
d="M766 1503q172 0 300 -122q128 -123 128 -307t-95 -284t-306 -184l-232 -92q-55 -23 -104 -83t-71 -206q-7 -51 -7 -102h770q31 0 31 -31v-61q0 -31 -31 -31h-877q-31 0 -30 31q2 244 51 382t201 203l299 129q63 27 94 41t74 44t61 61q49 84 49 204q0 119 -90 202t-215 83
h-86q-121 0 -210 -83t-89 -220v-35q0 -31 -31 -30h-63q-31 0 -31 30v35q0 180 128 301t296 125h86z" />
    <glyph glyph-name="three.tf" 
d="M1190 379q0 -176 -129 -287t-305 -110h-86q-168 0 -297 114t-127 295v39q0 31 30 31h64q31 0 31 -31v-39q0 -135 89 -211t210 -76h86q131 0 221 73t90 206t-84 215t-231 88h-148q-31 0 -31 31v74q0 31 31 30h148q145 6 223 83t78 203t-88 204t-211 78h-86
q-119 0 -208 -83t-89 -223v-39q0 -31 -31 -30h-64q-31 0 -30 30v39q0 185 129 307t293 121h86q170 -1 296 -117t126 -278q0 -126 -58 -210t-180 -150q252 -135 252 -377z" />
    <glyph glyph-name="four.tf" 
d="M883 627v305q0 31 30 31h62q31 0 31 -31v-305h163q31 0 31 -31v-61q0 -31 -31 -31h-163v-473q0 -31 -31 -31h-62q-31 0 -30 31v473h-621q-25 0 -33 20l-18 45q-10 23 4 45l576 873q14 23 40 22h80q19 0 25 -11t-4 -25l-555 -846h506z" />
    <glyph glyph-name="five.tf" 
d="M662 -18q-178 0 -303 113q-124 114 -123 298v33q0 31 30 31h64q31 0 30 -31v-33q0 -137 84 -213t218 -76h86q135 0 225 78t94 236q10 381 -326 381h-59q-120 0 -227 -73q-47 -32 -66 -40h-102q-31 0 -31 31v39l20 700q0 31 31 31h787q31 0 30 -31v-61q0 -31 -30 -31h-691
l-20 -537q38 19 48 27q11 8 31 18t38 20q19 10 40 16q21 4 56 14t106 10h52q200 0 324 -130t116 -380q-8 -211 -136 -326t-310 -114h-86z" />
    <glyph glyph-name="six.tf" 
d="M657 104h97q135 0 224 78t92 252t-70 263t-252 89h-74q-180 0 -248 -94t-53 -266q16 -172 86 -247t198 -75zM770 1511q178 1 301 -121t123 -309v-34q0 -31 -31 -31h-63q-31 0 -31 31v34q0 141 -83 225t-216 83h-90q-129 0 -203 -75t-92 -188q-31 -176 -20 -319
q109 113 307 113h76q467 0 448 -498q-8 -213 -134 -327t-308 -113h-97q-176 0 -282 114t-125 318q-31 330 8 682q18 180 130 296t292 119h90z" />
    <glyph glyph-name="seven.tf" 
d="M1206 1456v-59q2 -16 -6 -33q-535 -600 -762 -1380q-8 -23 -43 -11l-65 23q-23 8 -11 43q213 752 740 1325h-803q-31 0 -31 31v61q0 31 31 31h920q30 0 30 -31z" />
    <glyph glyph-name="eight.tf" 
d="M1077 371v69q0 109 -83 189t-206 80h-145q-123 0 -206 -80t-83 -189v-69q0 -109 83 -188t206 -79h145q123 0 206 79t83 188zM381 1128v-36q0 -111 71 -186t191 -75h145q121 0 192 75t71 186v36q0 106 -74 184t-193 77h-137q-119 1 -193 -77t-73 -184zM1200 440v-69
q0 -156 -122 -273t-290 -116h-145q-168 0 -290 116t-122 273v69q1 98 55 188t142 144q-80 51 -126 136t-46 184v36q0 152 114 268t277 115h137q164 1 278 -115t114 -268v-36q0 -98 -46 -184t-126 -136q88 -55 142 -144t54 -188z" />
    <glyph glyph-name="nine.tf" 
d="M776 1389h-96q-135 0 -224 -78t-92 -252q-2 -174 70 -263t252 -89h74q180 0 249 94q68 94 52 266t-86 247t-199 75zM664 -18q-178 0 -302 121q-123 122 -122 309v34q0 31 30 31h64q31 0 31 -31v-34q0 -141 82 -225q83 -83 217 -83h90q128 0 202 75t93 188q31 176 20 319
q-109 -113 -307 -113h-76q-467 0 -448 498q8 213 134 327t308 113h96q176 0 283 -113q106 -114 125 -319q31 -330 -8 -682q-18 -179 -130 -295t-292 -120h-90z" />
    <glyph glyph-name="zero.tosf" 
d="M1018 385v193q0 112 -69 188t-175 76h-121q-109 0 -177 -77t-66 -187v-193q0 -111 68 -187t175 -77h121q106 1 175 77t69 187zM653 965h121q152 0 260 -116t107 -271v-193q0 -155 -108 -271t-259 -116h-121q-154 0 -260 116t-106 271v193q0 156 106 272t260 115z" />
    <glyph glyph-name="one.tosf" 
d="M791 123h92q31 0 30 -31v-61q0 -31 -30 -31h-328q-31 0 -31 31v61q0 31 31 31h113v653l-105 -102q-20 -23 -43 0l-43 43q-20 20 0 43l201 198q12 4 20 5h62q31 0 31 -31v-809z" />
    <glyph glyph-name="two.tosf" 
d="M1151 627q0 -68 -15 -111q-16 -43 -62 -73t-100 -47t-163 -42l-207 -47q-182 -41 -182 -184h692q31 0 31 -31v-61q0 -31 -31 -31h-799q-31 0 -30 31q2 176 56 267t210 128l229 53q25 5 68 15t84 20t52 21q12 10 28 25t16 67q0 85 -78 149t-184 64h-86q-112 0 -184 -65
t-72 -154v-25q0 -31 -31 -31h-63q-31 0 -31 31v25q-1 135 111 239t268 107h88q152 -3 268 -107t117 -233z" />
    <glyph glyph-name="three.tosf" 
d="M1190 -45q0 -161 -129 -269t-305 -108h-86q-168 0 -297 115t-127 295v39q0 31 30 30h64q31 0 31 -30v-39q0 -135 89 -211t210 -76h86q129 0 220 70q91 71 91 187t-85 186t-230 77h-66q-31 0 -31 31v74q0 31 31 30h66q301 12 301 234q0 102 -89 177t-210 75h-86
q-117 0 -207 -81t-90 -204v-39q0 -31 -31 -31h-64q-31 0 -30 31v39q0 168 130 288t292 120h86q168 0 295 -113t127 -250q0 -138 -58 -208t-180 -103q120 -35 186 -123t66 -213z" />
    <glyph glyph-name="four.tosf" 
d="M881 123v305q0 31 30 31h62q31 0 31 -31v-305h163q31 0 31 -31v-61q0 -31 -31 -31h-163v-379q0 -31 -31 -31h-62q-31 0 -30 31v379h-621q-25 0 -33 20l-18 46q-10 23 4 45l575 872q14 23 41 23h80q19 0 25 -12t-4 -25l-555 -846h506z" />
    <glyph glyph-name="five.tosf" 
d="M748 -426h-86q-178 0 -303 114q-124 114 -123 298v32q0 31 30 31h64q31 0 30 -31v-32q0 -137 84 -213t218 -76h86q135 0 225 78q90 77 94 251t-73 268t-245 98q-168 3 -287 -71q-58 -36 -73 -42h-102q-31 0 -31 30v39l20 584q0 31 31 31h787q31 0 30 -31v-62
q0 -31 -30 -30h-691l-20 -420q67 37 105 56q105 52 266 48q204 -4 326 -132t114 -378q-8 -212 -136 -326t-310 -114z" />
    <glyph glyph-name="six.tosf" 
d="M657 104h97q135 0 224 78t92 252t-70 263t-252 89h-74q-180 0 -248 -94t-53 -266q16 -172 86 -247t198 -75zM770 1511q178 1 301 -121t123 -309v-34q0 -31 -31 -31h-63q-31 0 -31 31v34q0 141 -83 225t-216 83h-90q-129 0 -203 -75t-92 -188q-31 -176 -20 -319
q109 113 307 113h76q467 0 448 -498q-8 -213 -134 -327t-308 -113h-97q-176 0 -282 114t-125 318q-31 330 8 682q18 180 130 296t292 119h90z" />
    <glyph glyph-name="seven.tosf" 
d="M449 -410h-72q-37 0 -27 35q213 672 709 1215h-803q-31 0 -31 30v62q0 31 31 31h920q31 0 30 -31v-60q2 -16 -6 -32q-492 -553 -717 -1225q-9 -25 -34 -25z" />
    <glyph glyph-name="eight.tosf" 
d="M1079 371v69q0 109 -83 189t-205 80h-146q-123 0 -206 -80t-83 -189v-69q0 -109 83 -188t206 -79h146q123 0 205 79t83 188zM383 1128v-36q0 -111 71 -186t191 -75h146q121 0 191 75t71 186v36q0 106 -74 184t-193 77h-137q-119 1 -193 -77t-73 -184zM1202 440v-69
q0 -156 -122 -273t-289 -116h-146q-168 0 -290 116t-122 273v69q1 98 55 188t142 144q-80 51 -126 136t-46 184v36q0 152 114 268t277 115h137q164 1 278 -115t114 -268v-36q0 -98 -46 -184t-126 -136q88 -55 142 -144t54 -188z" />
    <glyph glyph-name="nine.tosf" 
d="M684 842q-135 0 -225 -74t-93 -228q-4 -154 72 -234q76 -81 280 -79t278 81q74 78 64 234q-21 300 -292 300h-84zM756 -424h-90q-174 0 -299 111t-125 280v21q0 31 30 30h64q31 0 31 -30v-21q0 -123 85 -195t214 -73h90q124 1 200 65t95 158q31 154 20 277
q-97 -103 -345 -103t-373 115q-123 115 -113 325t137 320t307 109h84q176 0 290 -110t128 -296q27 -311 -8 -606q-18 -165 -133 -271t-289 -106z" />
    <glyph glyph-name="zero.dnom" horiz-adv-x="653" 
d="M406 186v263q0 31 -24 50t-58 19t-57 -19q-22 -19 -21 -50v-263q0 -31 22 -50t56 -19t58 19t24 50zM299 635h51q80 0 130 -53t50 -125v-279q0 -72 -50 -125t-130 -53h-51q-72 0 -124 54t-52 124v279q0 70 52 124t124 54z" />
    <glyph glyph-name="one.dnom" horiz-adv-x="618" 
d="M246 31v571q0 31 30 31h66q31 0 31 -31v-571q0 -31 -31 -31h-66q-30 0 -30 31z" />
    <glyph glyph-name="two.dnom" horiz-adv-x="655" 
d="M532 31q0 -31 -30 -31h-344q-31 0 -31 31v49q0 30 11 46t44 50l144 154q4 4 41 37t38 69q1 35 -23 59q-24 23 -58 23t-57 -19q-22 -19 -21 -46v-15q0 -31 -31 -30h-61q-31 0 -31 30v27q0 68 51 119t125 51h51q80 -1 130 -61t50 -126t-34 -114q-34 -49 -97 -113l-104 -104
l207 4q31 0 30 -31v-59z" />
    <glyph glyph-name="three.dnom" horiz-adv-x="653" 
d="M350 0h-51q-74 0 -125 51t-51 119v27q0 31 31 30h61q31 0 31 -30v-15q0 -27 22 -46t56 -19t58 19t24 52t-23 55t-55 21h-47q-31 0 -31 31v45q0 31 31 31h47q34 -1 56 21t22 54t-24 52t-58 20t-57 -19q-22 -19 -21 -46v-15q0 -31 -31 -30h-61q-31 0 -31 30v27q0 68 51 119
t125 51h51q80 0 130 -56q50 -55 50 -127t-69 -135q69 -63 69 -134t-50 -127t-130 -56z" />
    <glyph glyph-name="four.dnom" horiz-adv-x="688" 
d="M383 246v205l-104 -205h104zM506 242h29q31 0 30 -31v-61q0 -31 -30 -31h-29v-88q0 -31 -31 -31h-61q-31 0 -31 31v88h-223q-29 0 -31 31l-6 59q0 8 8 24l217 388q8 14 29 14h98q31 0 31 -31v-362z" />
    <glyph glyph-name="five.dnom" horiz-adv-x="653" 
d="M530 193q0 -77 -50 -135t-130 -58h-51q-74 0 -125 51t-51 119v27q0 31 31 30h61q31 0 31 -30v-15q0 -27 22 -46t54 -19q80 0 84 86q6 128 -110 108q-36 -6 -56 -24h-86q-31 0 -31 30v287q0 31 31 31h325q31 0 31 -31v-57q0 -31 -31 -31h-237v-117q44 23 114 16
q174 -17 174 -222z" />
    <glyph glyph-name="six.dnom" horiz-adv-x="653" 
d="M325 117q81 0 81 95t-81 95t-81 -95t81 -95zM530 193q0 -77 -50 -135t-130 -58h-51q-70 0 -113 48t-53 110t-10 194q0 209 113 260q133 61 264 -24q22 -16 12 -41l-12 -41q-8 -33 -41 -14q-68 45 -158 28q-55 -12 -59 -67l-2 -54q46 23 116 16q174 -17 174 -222z" />
    <glyph glyph-name="seven.dnom" horiz-adv-x="632" 
d="M510 604v-59q0 -18 -8 -35l-221 -481q-16 -29 -33 -29h-86q-31 0 -19 29l219 483h-208q-31 0 -31 31v61q0 31 31 31h325q31 0 31 -31z" />
    <glyph glyph-name="eight.dnom" horiz-adv-x="657" 
d="M326 264q-33 0 -56 -22q-22 -22 -22 -54q0 -33 22 -52t58 -19q34 0 58 19t24 52t-23 55t-55 21h-6zM326 371h6q34 -1 56 21t22 54t-24 52t-58 20t-58 -19q-22 -19 -22 -53t22 -54q22 -21 56 -21zM535 183q-1 -71 -51 -127t-130 -56h-51q-80 0 -130 56t-50 127t70 134
q-70 63 -70 135t50 127q50 56 130 56h51q80 0 130 -56q50 -55 50 -127t-69 -135q70 -63 70 -134z" />
    <glyph glyph-name="nine.dnom" horiz-adv-x="653" 
d="M329 518q-81 0 -81 -95t81 -95t81 95t-81 95zM123 442q0 78 50 136t130 57h51q70 0 113 -48q43 -47 53 -109t10 -195q0 -209 -112 -260q-133 -61 -264 24q-23 16 -13 41l13 41q8 33 41 14q68 -45 157 -28q55 12 60 67l2 54q-45 -23 -116 -16q-175 17 -175 222z" />
    <glyph glyph-name="zero.numr" horiz-adv-x="653" 
d="M406 1038v262q0 30 -24 50t-58 20t-57 -19q-22 -19 -21 -51v-262q0 -31 22 -50t56 -19t58 19t24 50zM299 1487h51q80 0 130 -53t50 -125v-279q0 -72 -50 -125t-130 -53h-51q-72 0 -124 54t-52 124v279q0 70 52 124t124 54z" />
    <glyph glyph-name="one.numr" horiz-adv-x="618" 
d="M246 885v571q0 31 30 31h66q31 0 31 -31v-571q0 -31 -31 -31h-66q-30 0 -30 31z" />
    <glyph glyph-name="two.numr" horiz-adv-x="655" 
d="M532 883q0 -31 -30 -31h-344q-31 0 -31 31v49q0 30 11 46t44 50l144 154q4 4 41 37t38 69q1 35 -23 59q-24 23 -58 23t-57 -19q-22 -19 -21 -46v-15q0 -31 -31 -30h-61q-31 0 -31 30v27q0 68 51 119t125 51h51q80 -1 130 -61t50 -126t-34 -114q-34 -49 -97 -113
l-104 -104l207 4q31 0 30 -31v-59z" />
    <glyph glyph-name="three.numr" horiz-adv-x="653" 
d="M350 854h-51q-74 0 -125 51t-51 119v27q0 31 31 30h61q31 0 31 -30v-15q0 -27 22 -46t56 -19t58 19t24 52t-23 55t-55 21h-47q-31 0 -31 31v45q0 31 31 31h47q34 -1 56 21t22 54t-24 52t-58 20t-57 -19q-22 -19 -21 -46v-15q0 -31 -31 -30h-61q-31 0 -31 30v27
q0 68 51 119t125 51h51q80 0 130 -56q50 -55 50 -127t-69 -135q69 -63 69 -134t-50 -127t-130 -56z" />
    <glyph glyph-name="four.numr" horiz-adv-x="688" 
d="M383 1098v205l-104 -205h104zM506 1094h29q31 0 30 -31v-62q0 -31 -30 -30h-29v-88q0 -31 -31 -31h-61q-31 0 -31 31v88h-223q-29 0 -31 30l-6 60q0 8 8 24l217 388q8 14 29 14h98q31 0 31 -31v-362z" />
    <glyph glyph-name="five.numr" horiz-adv-x="653" 
d="M530 1044q0 -78 -50 -135t-130 -57h-51q-74 0 -125 51t-51 119v27q0 31 31 30h61q31 0 31 -30v-15q0 -27 22 -46t54 -19q80 0 84 86q6 128 -110 108q-36 -6 -56 -24h-86q-31 0 -31 30v287q0 31 31 31h325q31 0 31 -31v-57q0 -31 -31 -31h-237v-117q44 23 114 16
q174 -17 174 -223z" />
    <glyph glyph-name="six.numr" horiz-adv-x="653" 
d="M325 969q81 0 81 95t-81 95t-81 -95t81 -95zM530 1044q0 -78 -50 -135t-130 -57h-51q-70 0 -113 48t-53 110t-10 194q0 209 113 260q133 61 264 -24q22 -16 12 -41l-12 -41q-8 -33 -41 -15q-68 45 -158 29q-55 -12 -59 -67l-2 -54q46 23 116 16q174 -17 174 -223z" />
    <glyph glyph-name="seven.numr" horiz-adv-x="632" 
d="M510 1456v-59q0 -18 -8 -35l-221 -481q-16 -29 -33 -29h-86q-31 0 -19 29l219 483h-208q-31 0 -31 31v61q0 31 31 31h325q31 0 31 -31z" />
    <glyph glyph-name="eight.numr" horiz-adv-x="657" 
d="M326 1116q-33 0 -56 -22q-22 -22 -22 -54q0 -33 22 -52t58 -19q34 0 58 19t24 52t-23 55t-55 21h-6zM326 1223h6q34 -1 56 21t22 54t-24 52t-58 20t-58 -19q-22 -19 -22 -53t22 -54q22 -21 56 -21zM535 1035q-1 -71 -51 -127t-130 -56h-51q-80 0 -130 56t-50 127t70 134
q-70 63 -70 134t50 127t130 57h51q80 0 130 -56q50 -55 50 -127t-69 -135q70 -63 70 -134z" />
    <glyph glyph-name="nine.numr" horiz-adv-x="653" 
d="M329 1372q-81 0 -81 -95t81 -95t81 95t-81 95zM123 1296q0 78 50 136t130 57h51q70 0 113 -48q43 -47 53 -109t10 -195q0 -209 -112 -260q-133 -61 -264 24q-23 16 -13 41l13 41q8 33 41 14q68 -45 157 -28q55 12 60 67l2 54q-45 -23 -116 -16q-175 17 -175 222z" />
    </font>
</defs>
</svg>
