<?xml version="1.0" standalone="no"?>
<!DOCTYPE svg PUBLIC "-//W3C//DTD SVG 1.1//EN" "http://www.w3.org/Graphics/SVG/1.1/DTD/svg11.dtd" >
<svg xmlns="http://www.w3.org/2000/svg">
<metadata>
Created by FontPrep 20130207 at Wed Nov  5 19:40:45 2014
 By Connary
Copyright (c) 2014 by Connary Fagen. All rights reserved.
</metadata>
<defs>
<font id="59c5b624ac120c8b20763cc7cb25585a" horiz-adv-x='1024' >
  <font-face 
    font-family="ManifoldCF-Light"
    font-weight="300"
    font-stretch="normal"
    units-per-em="2048"
    panose-1="0 0 4 0 0 0 0 0 0 0"
    ascent="1638"
    descent="-410"
    x-height="963"
    cap-height="1487"
    bbox="-411.684 -956 2138 2165"
    underline-thickness="102"
    underline-position="-102"
    unicode-range="U+0020-FB02"
  />
<missing-glyph horiz-adv-x="1024" 
d="M102 1239v-1044l349 522zM164 102h696l-348 523zM573 717l349 -522v1044zM512 809l348 522h-696zM0 0v1434h1024v-1434h-1024z" />
    <glyph glyph-name="fi" unicode="fi" horiz-adv-x="1167" 
d="M928 1487h63q31 0 31 -31v-82q0 -31 -31 -31h-63q-31 0 -31 31v82q0 31 31 31zM313 965h662q31 0 31 -31v-903q0 -31 -31 -31h-31q-31 0 -31 31v841h-600v-841q0 -31 -30 -31h-31q-31 0 -31 31v841h-119q-31 0 -30 31v31q0 31 30 31h119v137q0 174 91 279t243 106h135
q31 0 31 -31v-31q0 -31 -31 -30h-135q-119 0 -180 -78t-62 -219v-133z" />
    <glyph glyph-name="fl" unicode="fl" horiz-adv-x="1171" 
d="M555 1487h422q31 0 31 -31v-1425q0 -31 -31 -31h-31q-31 0 -31 31v1364h-360q-119 0 -180 -78t-62 -219v-135h357q31 0 30 -31v-31q0 -31 -30 -31h-357v-839q0 -31 -30 -31h-31q-31 0 -31 31v839h-119q-31 0 -30 31v31q0 31 30 31h119v139q0 174 91 280t243 105z" />
    <glyph glyph-name="f_t.liga" unicode="ft" horiz-adv-x="1351" 
d="M967 270v600h-654v-839q0 -31 -30 -31h-31q-31 0 -31 31v839h-119q-31 0 -30 31v31q0 31 30 31h119v139q0 174 91 279t243 106h135q31 0 31 -31v-31q0 -31 -31 -30h-135q-119 0 -180 -78t-62 -219v-135h654v213q0 31 30 30h31q31 0 31 -30v-213h153q29 0 31 -27v-35
q0 -31 -31 -31h-153v-618q0 -150 172 -156q33 1 33 -26l2 -41q0 -33 -27 -33q-98 -6 -185 66t-87 208z" />
    <glyph glyph-name=".notdef" horiz-adv-x="1024" 
d="M102 1239v-1044l349 522zM164 102h696l-348 523zM573 717l349 -522v1044zM512 809l348 522h-696zM0 0v1434h1024v-1434h-1024z" />
    <glyph glyph-name=".null" horiz-adv-x="0" 
 />
    <glyph glyph-name="nonmarkingreturn" horiz-adv-x="681" 
 />
    <glyph glyph-name="space" unicode=" " horiz-adv-x="645" 
 />
    <glyph glyph-name="exclam" unicode="!" horiz-adv-x="403" 
d="M154 31v32q0 31 30 31h45q31 0 31 -31v-32q0 -31 -31 -31h-45q-30 0 -30 31zM160 342v1114q0 31 30 31h31q31 0 31 -31v-1114q0 -31 -31 -31h-31q-30 0 -30 31z" />
    <glyph glyph-name="quotedbl" unicode="&#x22;" horiz-adv-x="729" 
d="M467 856v600q0 31 31 31h47q31 0 30 -31v-600q0 -31 -30 -31h-47q-31 0 -31 31zM154 856v600q0 31 30 31h47q31 0 31 -31v-600q0 -31 -31 -31h-47q-30 0 -30 31z" />
    <glyph glyph-name="numbersign" unicode="#" horiz-adv-x="1220" 
d="M807 993h-391v-499h391v499zM899 993v-499h148q31 0 30 -31v-31q0 -31 -30 -31h-148v-370q0 -31 -31 -31h-30q-31 0 -31 31v370h-391v-370q0 -31 -31 -31h-31q-31 0 -30 31v370h-150q-31 0 -31 31v31q0 31 31 31h150v499h-150q-31 0 -31 31v31q0 31 31 30h150v371
q0 31 30 31h31q31 0 31 -31v-371h391v371q0 31 31 31h30q31 0 31 -31v-371h148q31 0 30 -30v-31q0 -31 -30 -31h-148z" />
    <glyph glyph-name="dollar" unicode="$" horiz-adv-x="970" 
d="M543 956v-317q94 8 156 52q63 44 63 121q0 78 -53 106t-166 38zM215 1223q0 -68 52 -96t163 -44v320q-215 -14 -215 -180zM868 816q0 -118 -97 -196t-228 -90v-133q0 -31 -31 -30h-51q-31 0 -31 30v131q-115 10 -215 88t-113 181q-4 31 31 30h51q29 0 33 -28
q8 -63 73 -109t140 -51v330q-158 23 -241 81t-83 179t94 197t230 83v131q0 31 31 31h51q31 0 31 -31v-133q117 -14 212 -98t99 -195q0 -33 -29 -32h-47q-35 0 -35 26q-2 74 -62 126t-138 65v-332q161 -23 243 -78t82 -173z" />
    <glyph glyph-name="percent" unicode="%" horiz-adv-x="1306" 
d="M1112 193v16q0 92 -96 92h-19q-94 0 -94 -92v-16q0 -94 94 -95h19q96 1 96 95zM993 401h27q82 0 135 -54t53 -136v-23q0 -82 -53 -135t-135 -53h-27q-84 0 -136 53t-52 135v23q0 82 53 136t135 54zM389 1278v16q0 92 -96 92h-19q-94 0 -94 -92v-16q0 -94 94 -94h19
q96 0 96 94zM1047 1487h55q39 0 20 -31l-827 -1425q-18 -31 -41 -31h-55q-39 0 -21 31l828 1425q18 31 41 31zM270 1487h27q82 0 135 -54t53 -137v-22q0 -82 -52 -135t-136 -54h-27q-82 -1 -135 53t-53 136v22q0 82 53 136t135 55z" />
    <glyph glyph-name="ampersand" unicode="&#x26;" horiz-adv-x="1478" 
d="M508 61h227q207 0 279 140l-586 487l-66 -31q-168 -80 -167 -221v-84q0 -141 85 -216t228 -75zM1348 0h-74q-16 0 -37 16l-154 127q-113 -174 -354 -174h-217q-178 1 -294 107t-116 276v74q0 180 193 291l59 35l-20 16q-100 82 -135 157t-35 181v39q0 147 109 257
q110 110 280 109h135q170 1 280 -109t109 -257v-39q0 -195 -112 -287l-66 -55q-20 -16 -49 -16h-51q-20 0 -28 14q-7 14 7 24l51 33q63 41 110 120q46 79 46 173v33q0 111 -79 193t-212 81h-145q-135 0 -214 -82t-79 -192v-33q0 -92 42 -160t128 -135l618 -514q2 12 3 39
v160q0 125 43 160l100 79q27 18 37 19h67q20 0 28 -12t-7 -25l-137 -109q-39 -31 -39 -100v-168q-1 -63 -15 -108l242 -201q14 -9 8 -23t-26 -14z" />
    <glyph glyph-name="quotesingle" unicode="'" horiz-adv-x="415" 
d="M154 856v600q0 31 30 31h47q31 0 31 -31v-600q0 -31 -31 -31h-47q-30 0 -30 31z" />
    <glyph glyph-name="parenleft" unicode="(" horiz-adv-x="669" 
d="M225 1266v-1045q-1 -125 59 -199t162 -73h60q31 0 31 -31v-31q0 -31 -31 -30h-39q-152 0 -243 105t-91 280v1003q0 173 91 279t243 106h39q31 0 31 -31v-30q0 -31 -31 -31h-60q-102 0 -162 -74t-59 -198z" />
    <glyph glyph-name="parenright" unicode=")" horiz-adv-x="669" 
d="M444 221v1045q0 124 -59 198t-162 74h-59q-31 0 -31 31v30q0 31 31 31h39q153 0 243 -105t91 -280v-1003q1 -174 -91 -280t-243 -105h-39q-31 0 -31 30v31q0 31 31 31h59q101 -1 161 73t60 199z" />
    <glyph glyph-name="asterisk" unicode="*" horiz-adv-x="753" 
d="M426 954q0 -23 -27 -22h-47q-23 0 -22 22v185l-142 -105q-23 -12 -36 8l-23 39q-14 23 8 37l166 92l-166 93q-25 8 -8 34l23 41q16 18 36 6l142 -102v182q0 23 22 23h47q27 0 27 -23v-182l139 102q23 12 35 -6l27 -41q10 -27 -11 -34l-163 -93l163 -92q18 -14 11 -37
l-27 -39q-12 -20 -35 -8l-139 105v-185z" />
    <glyph glyph-name="plus" unicode="+" horiz-adv-x="1052" 
d="M575 709h326q29 0 29 -31v-31q0 -31 -31 -31h-324v-350q0 -31 -30 -30h-31q-31 0 -31 30v350h-329q-31 0 -31 31v31q0 31 31 31h329v346q0 31 31 30h31q31 0 30 -30v-346z" />
    <glyph glyph-name="comma" unicode="," horiz-adv-x="389" 
d="M160 207h96q31 0 31 -31v-184q0 -68 -4 -108t-28 -100t-71 -114q-18 -20 -41 0l-34 33q-27 27 -9 43q55 53 70 102q14 49 14 132l17 20h-41q-31 0 -31 31v145q0 31 31 31z" />
    <glyph glyph-name="hyphen" unicode="-" horiz-adv-x="888" 
d="M715 473h-541q-31 0 -31 31v31q0 31 31 30h541q31 0 30 -30v-31q1 -31 -30 -31z" />
    <glyph glyph-name="period" unicode="." horiz-adv-x="327" 
d="M102 31v84q0 31 31 30h62q31 0 30 -30v-84q0 -31 -30 -31h-62q-31 0 -31 31z" />
    <glyph glyph-name="slash" unicode="/" horiz-adv-x="774" 
d="M709 1487h43q33 0 20 -31l-622 -1425q-14 -31 -41 -31h-43q-37 0 -21 31l623 1425q12 31 41 31z" />
    <glyph glyph-name="zero" unicode="0" horiz-adv-x="1198" 
d="M553 82h92q141 0 240 115q98 115 98 286v533q0 172 -98 287t-240 114h-92q-143 0 -241 -114q-97 -115 -97 -287v-533q-1 -173 97 -287t241 -114zM553 1509h92q176 0 303 -143t127 -346v-541q0 -203 -127 -347t-303 -144h-92q-176 0 -303 144t-127 347v541q0 203 127 346
t303 143z" />
    <glyph glyph-name="one" unicode="1" horiz-adv-x="710" 
d="M362 1487h31q31 0 31 -31v-1425q0 -31 -31 -31h-31q-31 0 -30 31v1315l-113 -113q-23 -20 -43 0l-22 20q-20 20 0 43l188 187q12 4 20 4z" />
    <glyph glyph-name="two" unicode="2" horiz-adv-x="1159" 
d="M629 1503q170 0 299 -123t129 -303q-1 -180 -103 -277t-323 -186l-232 -92q-104 -43 -146 -173t-42 -257h801q31 0 30 -31v-30q0 -31 -30 -31h-877q-31 0 -31 31q2 233 53 370q50 137 199 201l299 129q160 68 209 109q100 82 100 234t-100 244t-235 93h-86
q-131 0 -231 -92t-99 -242v-35q0 -31 -31 -30h-32q-31 0 -31 30v35q0 178 128 300t296 126h86z" />
    <glyph glyph-name="three" unicode="3" horiz-adv-x="1148" 
d="M1047 379q0 -176 -129 -287t-306 -110h-86q-168 0 -297 114t-127 295v39q0 31 31 31h33q31 0 31 -31v-39q0 -153 98 -235t231 -82h86q141 0 242 79q100 79 100 222t-95 232t-251 95h-147q-31 0 -31 31v43q0 31 31 31h147q154 6 243 89t89 218t-98 220t-232 85h-86
q-129 0 -228 -90t-99 -246v-39q0 -31 -31 -30h-33q-31 0 -31 30v39q0 185 129 307t293 121h86q170 -1 296 -117t126 -278q0 -118 -58 -202t-179 -158q252 -152 252 -377z" />
    <glyph glyph-name="four" unicode="4" horiz-adv-x="1128" 
d="M735 602v330q0 31 31 31h31q31 0 30 -31v-330h179q31 0 30 -31v-30q0 -31 -30 -31h-179v-479q0 -31 -30 -31h-31q-31 0 -31 31v479h-637q-25 0 -32 20l-19 39q-10 20 4 43l582 875q14 23 41 22h43q20 0 25 -10t-5 -24l-579 -873h577z" />
    <glyph glyph-name="five" unicode="5" horiz-adv-x="1161" 
d="M528 -18q-178 0 -302 114t-124 297v33q0 31 31 31h33q31 0 31 -31v-33q0 -151 94 -235t237 -84h86q145 0 246 86q100 86 105 258q10 412 -357 411h-65q-121 0 -239 -84q-48 -35 -73 -43h-77q-31 0 -31 31v39l20 684q0 31 31 31h787q31 0 30 -31v-31q0 -31 -30 -30h-719
l-23 -582q12 6 83 47q127 72 265 72h54q201 0 325 -130t115 -380q-8 -211 -136 -326t-311 -114h-86z" />
    <glyph glyph-name="six" unicode="6" horiz-adv-x="1163" 
d="M520 74h98q152 0 248 86t100 272t-79 282q-82 95 -279 95h-82q-358 0 -317 -395q16 -174 89 -257t222 -83zM635 1511q178 1 301 -121t123 -309v-34q0 -31 -31 -31h-33q-31 0 -30 31v34q1 154 -91 246t-239 92h-90q-145 0 -225 -83t-101 -203q-37 -205 -22 -351
q117 131 325 131h88q469 0 451 -491q-8 -213 -134 -327t-309 -113h-98q-174 0 -280 112t-125 320q-31 330 8 682q18 180 130 296t292 119h90z" />
    <glyph glyph-name="seven" unicode="7" horiz-adv-x="1165" 
d="M1073 1456v-33q0 -25 -6 -37q-539 -590 -782 -1402q-8 -23 -43 -11l-35 17q-23 10 -10 45q231 786 776 1360h-850q-31 0 -31 30v31q0 31 31 31h919q31 0 31 -31z" />
    <glyph glyph-name="eight" unicode="8" horiz-adv-x="1173" 
d="M979 369v65q0 119 -93 206t-229 87h-139q-135 0 -229 -87t-94 -206v-65q0 -121 93 -208t230 -87h139q135 0 229 87q93 87 93 208zM221 1128v-24q0 -123 79 -206t212 -83h150q134 0 212 83t78 206v24q0 119 -81 205t-214 86h-141q-133 0 -214 -86t-81 -205zM1071 440v-63
q0 -156 -124 -276t-292 -119h-135q-168 0 -293 120t-125 275v63q0 96 56 186t147 148q-82 57 -130 141t-48 177v32q0 152 116 270t281 117h127q164 1 280 -117t116 -270v-32q1 -92 -47 -178t-130 -140q90 -59 146 -148t55 -186z" />
    <glyph glyph-name="nine" unicode="9" horiz-adv-x="1165" 
d="M645 1419h-98q-152 0 -248 -86q-96 -85 -98 -271t80 -281t276 -95h84q356 0 315 393q-16 176 -89 258t-222 82zM530 -18q-178 0 -301 122t-123 308v34q0 31 31 31h33q31 0 31 -31v-34q0 -154 91 -246t238 -92h93q145 0 224 83t99 203q37 205 23 353q-113 -133 -326 -133
h-86q-471 0 -453 491q8 213 134 327t309 113h98q174 0 281 -112q106 -113 125 -320q31 -330 -9 -682q-18 -179 -130 -295t-291 -120h-91z" />
    <glyph glyph-name="colon" unicode=":" horiz-adv-x="430" 
d="M154 31v84q0 31 30 30h62q31 0 30 -30v-84q0 -31 -30 -31h-62q-30 0 -30 31zM154 848v84q0 31 30 31h62q31 0 30 -31v-84q0 -31 -30 -31h-62q-30 0 -30 31z" />
    <glyph glyph-name="semicolon" unicode=";" horiz-adv-x="434" 
d="M184 0q-31 0 -30 31v135q0 31 30 31h62q20 0 30 -33q2 -8 4 -70q5 -200 -36 -256q-6 -12 -29 -24l-12 -19q-10 -4 -19 8q-8 12 8 36t22 77q7 53 1 78l6 6h-37zM154 848v84q0 31 30 31h62q31 0 30 -31v-84q0 -31 -30 -31h-62q-30 0 -30 31z" />
    <glyph glyph-name="less" unicode="&#x3c;" horiz-adv-x="983" 
d="M860 907v-39q0 -37 -20 -49l-572 -336l572 -336q20 -12 20 -49v-39q0 -12 -9 -17t-24 1l-690 408q-14 11 -14 33t14 32l690 408q14 6 24 1q9 -6 9 -18z" />
    <glyph glyph-name="equal" unicode="=" horiz-adv-x="929" 
d="M776 461h-622q-31 0 -31 31v34q0 31 31 31h622q31 0 31 -31v-34q0 -31 -31 -31zM776 791h-622q-31 0 -31 30v35q0 31 31 31h622q31 0 31 -31v-35q0 -30 -31 -30z" />
    <glyph glyph-name="greater" unicode="&#x3e;" horiz-adv-x="983" 
d="M123 868v39q0 11 9 17t24 0l690 -408q14 -10 14 -33t-14 -32l-690 -408q-14 -6 -24 -1q-9 5 -9 17v39q0 37 20 49l572 336l-572 336q-20 12 -20 49z" />
    <glyph glyph-name="question" unicode="?" horiz-adv-x="1046" 
d="M406 31v32q0 31 30 31h45q31 0 31 -31v-32q0 -31 -31 -31h-45q-30 0 -30 31zM475 1513h86q168 1 288 -123t120 -294t-77 -262q-77 -94 -198 -138q-120 -44 -154 -72t-34 -108v-174q0 -31 -31 -31h-31q-31 0 -30 31v164q0 109 45 167t165 102t186 109q67 66 67 208
q1 142 -91 236t-225 93h-86q-129 0 -219 -92t-90 -248v-39q0 -31 -31 -30h-33q-31 0 -30 30v39q-2 182 118 308q121 124 285 124z" />
    <glyph glyph-name="at" unicode="@" horiz-adv-x="1251" 
d="M573 401h21q99 0 170 71q8 7 34 35t31 36v145h-221q-186 0 -186 -147q0 -63 38 -101t113 -39zM864 106v-55q0 -27 -22 -37q-88 -41 -170 -41h-88q-184 1 -322 141t-139 347v569q0 207 138 344t323 137h94q176 0 313 -135t137 -332v-585q0 -72 -43 -114t-108 -42h-4
q-37 0 -79 31t-56 78q-117 -111 -242 -111h-21q-111 0 -185 70t-75 173q0 103 83 175t206 72h225v8q0 127 -42 181t-138 54h-35q-57 0 -102 -17t-56 -25t-50 -44q-25 -20 -46 0l-28 29q-18 23 -2 41q109 119 282 119h31q131 0 211 -91t80 -245v-357q0 -45 46 -45t46 45v609
q0 154 -102 255t-236 101h-115q-145 0 -246 -103t-102 -272v-579q1 -167 103 -273t245 -106h99q78 0 155 47q37 22 37 -17z" />
    <glyph glyph-name="A" unicode="A" horiz-adv-x="1234" 
d="M887 530l-266 846l-273 -846h539zM1114 0h-31q-31 0 -39 33l-126 405h-599l-131 -405q-8 -33 -36 -33h-33q-35 0 -23 33l461 1427q10 33 39 33h45q29 0 39 -33l459 -1427q14 -33 -25 -33z" />
    <glyph glyph-name="B" unicode="B" horiz-adv-x="1193" 
d="M225 92h465q158 0 230 70t72 220t-76 242q-75 91 -218 91h-473v-623zM225 807h480q121 0 187 88t64 225q0 274 -286 275h-445v-588zM680 0h-510q-37 0 -37 37v1413q0 37 37 37h494q176 0 280 -99t105 -278q0 -262 -172 -346q207 -82 206 -377q0 -387 -403 -387z" />
    <glyph glyph-name="C" unicode="C" horiz-adv-x="1159" 
d="M995 481h31q31 0 31 -30q-2 -186 -132 -332t-294 -146h-94q-170 0 -302.5 147.5t-132.5 344.5v557q0 197 132.5 342t302.5 145h94q164 0 294 -143t132 -330q0 -31 -31 -30h-31q-33 0 -32 30q0 152 -101.5 266.5t-230.5 114.5h-94q-137 0 -239.5 -116.5t-102.5 -278.5
v-557q0 -164 102 -281.5t240 -117.5h94q131 0 232.5 116.5t99.5 268.5q-1 30 32 30z" />
    <glyph glyph-name="D" unicode="D" horiz-adv-x="1179" 
d="M975 481v525q-1 154 -101 272t-229 117h-432v-1303h432q129 0 229 118t101 271zM152 1487h489q168 1 297 -143t129 -338v-525q0 -195 -129 -338t-297 -143h-489q-31 0 -31 31v1425q0 31 31 31z" />
    <glyph glyph-name="E" unicode="E" horiz-adv-x="1126" 
d="M225 797h627q31 0 31 -31v-31q0 -31 -31 -30h-627v-613h760q31 0 31 -31v-30q0 -31 -31 -31h-821q-31 0 -31 31v1425q0 31 31 31h821q31 0 31 -31v-31q0 -31 -31 -30h-760v-598z" />
    <glyph glyph-name="F" unicode="F" horiz-adv-x="1120" 
d="M248 776h626q31 0 31 -31v-30q0 -31 -31 -31h-626v-653q0 -31 -31 -31h-31q-31 0 -30 31v1425q0 31 30 31h822q31 0 30 -31v-31q0 -31 -30 -30h-760v-619z" />
    <glyph glyph-name="G" unicode="G" horiz-adv-x="1185" 
d="M627 770h415q31 0 31 -31v-278q0 -197 -130 -342.5t-300 -145.5h-94q-174 0 -304 143.5t-130 340.5v565q0 197 132 342t302 145h94q164 0 294 -143t132 -330q0 -31 -31 -30h-30q-33 0 -33 30q0 152 -100.5 266.5t-231.5 114.5h-94q-137 0 -239.5 -116.5t-102.5 -278.5
v-565q0 -160 101.5 -275.5t240.5 -115.5h94q135 0 235.5 116.5t100.5 278.5v217h-352q-31 0 -31 31v30q0 31 31 31z" />
    <glyph glyph-name="H" unicode="H" horiz-adv-x="1236" 
d="M1028 1487h31q31 0 31 -31v-1425q0 -31 -31 -31h-31q-31 0 -31 31v633h-759v-633q0 -31 -31 -31h-31q-31 0 -31 31v1425q0 31 31 31h31q31 0 31 -31v-700h759v700q0 31 31 31z" />
    <glyph glyph-name="I" unicode="I" horiz-adv-x="444" 
d="M176 31v1425q0 31 31 31h31q31 0 30 -31v-1425q0 -31 -30 -31h-31q-31 0 -31 31z" />
    <glyph glyph-name="J" unicode="J" horiz-adv-x="1062" 
d="M524 78q129 0 227 111q97 112 97 274v993q0 31 31 31h30q31 0 31 -31v-989q0 -197 -126 -339t-294 -142h-49q-123 0 -229 82t-156 211q-13 26 16 40l39 9q31 10 37 -19q33 -98 117 -165t176 -66h53z" />
    <glyph glyph-name="K" unicode="K" horiz-adv-x="1165" 
d="M1061 0h-45q-25 0 -55 29l-662 606l-84 -90v-514q0 -31 -31 -31h-30q-31 0 -31 31v1425q0 31 31 31h30q31 0 31 -31v-758l696 760q29 29 39 29h56q16 0 20 -15.5t-12 -35.5l-656 -719l715 -668q12 -12 9 -30.5t-21 -18.5z" />
    <glyph glyph-name="L" unicode="L" horiz-adv-x="1169" 
d="M254 92h760q31 0 30 -31v-30q0 -31 -30 -31h-821q-31 0 -31 31v1425q0 31 31 31h30q31 0 31 -31v-1364z" />
    <glyph glyph-name="M" unicode="M" horiz-adv-x="1441" 
d="M1176 1487h92q31 0 30 -31v-1425q0 -31 -30 -31h-31q-31 0 -31 31v1343l-426 -1343q-10 -31 -39 -31h-53q-29 0 -39 31l-426 1343v-1343q0 -31 -30 -31h-31q-31 0 -31 31v1425q0 31 31 31h92q33 0 41 -31l418 -1325l422 1325q8 31 41 31z" />
    <glyph glyph-name="N" unicode="N" horiz-adv-x="1290" 
d="M1098 1487h30q31 0 31 -31v-1425q0 -31 -31 -31h-127q-27 0 -36 23l-740 1437v-1429q0 -31 -30 -31h-31q-31 0 -31 31v1425q0 31 31 31h129q27 0 37 -23l737 -1437v1429q0 31 31 31z" />
    <glyph glyph-name="O" unicode="O" horiz-adv-x="1198" 
d="M553 82h92q141 0 240 115q98 115 98 286v533q0 172 -98 287t-240 114h-92q-143 0 -241 -114q-97 -115 -97 -287v-533q-1 -173 97 -287t241 -114zM553 1509h92q176 0 303 -143t127 -346v-541q0 -203 -127 -347t-303 -144h-92q-176 0 -303 144t-127 347v541q0 203 127 346
t303 143z" />
    <glyph glyph-name="P" unicode="P" horiz-adv-x="1165" 
d="M233 745h431q303 0 303 325t-303 325h-431v-650zM172 1487h487q184 0 292 -112q108 -113 108 -307t-108 -304t-292 -111h-426v-622q0 -31 -30 -31h-31q-31 0 -31 31v1425q0 31 31 31z" />
    <glyph glyph-name="Q" unicode="Q" horiz-adv-x="1204" 
d="M553 82h92q115 0 205 80l-135 135q-20 20 0 45l22 20q20 23 43 0l131 -131q72 106 72 252v533q0 172 -98 287t-240 114h-92q-143 0 -241 -114q-97 -115 -97 -287v-533q-1 -173 97 -287t241 -114zM553 -12q-176 0 -303 144t-127 347v541q0 203 127 346t303 143h92
q176 0 303 -143t127 -346v-541q0 -176 -98 -313l94 -94q18 -18 0 -45l-22 -21q-20 -25 -43 0l-91 90q-121 -109 -270 -108h-92z" />
    <glyph glyph-name="R" unicode="R" horiz-adv-x="1161" 
d="M213 745h430q303 0 303 325t-303 325h-430v-650zM1047 373v-342q0 -31 -31 -31h-31q-31 0 -31 31v350q0 272 -282 272h-459v-622q0 -31 -31 -31h-30q-31 0 -31 31v1425q0 31 31 31h487q184 0 291.5 -111.5t107.5 -306.5q0 -260 -184 -364q193 -90 193 -332z" />
    <glyph glyph-name="S" unicode="S" horiz-adv-x="1179" 
d="M524 1509h107q168 0 294 -121.5t126 -308.5v-32q0 -31 -31 -31h-33q-31 0 -31 31v32q0 156 -95 247t-230 91h-107q-139 0 -225 -78.5t-86 -226t84 -210t242 -91.5l106 -20q197 -39 309.5 -127.5t112.5 -271.5t-127 -300t-303 -117h-94q-172 0 -301 116t-129 296v55
q0 31 30 31h33q31 0 31 -31l2 -55q4 -150 100.5 -233.5t233.5 -83.5h94q143 0 240.5 87t97.5 242t-96 215q-96 59 -232 84l-106 21q-199 37 -309.5 126t-110.5 266t115.5 287.5t287.5 110.5z" />
    <glyph glyph-name="T" unicode="T" horiz-adv-x="1089" 
d="M94 1487h899q31 0 31 -31v-31q0 -31 -31 -30h-401v-1364q0 -31 -31 -31h-31q-31 0 -30 31v1364h-406q-31 0 -31 30v31q0 31 31 31z" />
    <glyph glyph-name="U" unicode="U" horiz-adv-x="1167" 
d="M995 1487h31q31 0 31 -31v-1010q0 -200 -125 -330t-322 -130h-53q-197 0 -321 131t-125 329v1010q0 31 30 31h31q31 0 31 -31v-1020q0 -166 97 -262t257 -96h53q160 0 257 96t98 262v1020q-1 31 30 31z" />
    <glyph glyph-name="V" unicode="V" horiz-adv-x="1208" 
d="M111 1487h39q29 0 36 -33l416 -1307l418 1307q8 33 37 33h39q33 0 24 -33l-456 -1421q-10 -33 -39 -33h-41q-29 0 -39 33l-459 1421q-8 33 25 33z" />
    <glyph glyph-name="W" unicode="W" horiz-adv-x="1880" 
d="M1735 1487h34q33 0 27 -31l-358 -1425q-8 -31 -39 -31h-41q-31 0 -39 31l-379 1323l-379 -1323q-8 -31 -39 -31h-41q-33 0 -39 31l-358 1425q-8 31 25 31h34q31 0 37 -31l320 -1315l379 1315q10 31 39 31h47q31 0 39 -31l378 -1315l318 1315q6 31 35 31z" />
    <glyph glyph-name="X" unicode="X" horiz-adv-x="1134" 
d="M1008 0h-43q-27 0 -41 31l-357 622l-356 -622q-14 -31 -41 -31h-43q-37 0 -21 31l410 712l-410 713q-16 31 21 31h43q27 0 41 -31l356 -622l357 622q14 31 41 31h43q37 0 20 -31l-407 -713l407 -712q16 -31 -20 -31z" />
    <glyph glyph-name="Y" unicode="Y" horiz-adv-x="1177" 
d="M1028 1487h49q39 0 21 -31l-465 -803v-622q0 -31 -31 -31h-31q-31 0 -30 31v622l-459 803q-10 14 -3 22t23 9h50q18 0 41 -31l395 -696l399 696q18 31 41 31z" />
    <glyph glyph-name="Z" unicode="Z" horiz-adv-x="1107" 
d="M1006 1456v-59q0 -4 -7 -15l-788 -1290h764q31 0 31 -31v-30q0 -31 -31 -31h-842q-31 0 -31 31v61q0 2 7 12l790 1291h-766q-31 0 -31 30v31q0 31 31 31h842q31 0 31 -31z" />
    <glyph glyph-name="bracketleft" unicode="[" horiz-adv-x="565" 
d="M225 1538v-1589h176q31 0 31 -31v-31q0 -31 -31 -30h-237q-31 0 -31 30v1712q0 31 31 31h237q31 0 31 -31v-30q0 -31 -31 -31h-176z" />
    <glyph glyph-name="backslash" unicode="\" horiz-adv-x="774" 
d="M709 0h-43q-27 0 -41 31l-623 1425q-12 31 21 31h43q28 0 40 -31l623 -1425q16 -31 -20 -31z" />
    <glyph glyph-name="bracketright" unicode="]" horiz-adv-x="565" 
d="M164 1630h237q31 0 31 -31v-1712q0 -31 -31 -30h-237q-31 0 -31 30v31q0 31 31 31h176v1589h-176q-31 0 -31 31v30q0 31 31 31z" />
    <glyph glyph-name="asciicircum" unicode="^" horiz-adv-x="768" 
d="M643 932h-43q-29 0 -41 31l-176 403l-174 -403q-12 -31 -41 -31h-43q-33 0 -21 31l207 493q6 31 41 31h64q27 0 41 -31l207 -493q12 -31 -21 -31z" />
    <glyph glyph-name="underscore" unicode="_" horiz-adv-x="1187" 
d="M1063 0h-930q-31 0 -31 31v30q0 31 31 31h930q31 0 31 -31v-30q0 -31 -31 -31z" />
    <glyph glyph-name="grave" unicode="`" horiz-adv-x="495" 
d="M367 1186h-39q-23 0 -43 37l-179 379q-18 37 21 36h63q31 1 43 -36l154 -379q16 -37 -20 -37z" />
    <glyph glyph-name="a" unicode="a" horiz-adv-x="978" 
d="M381 90h111q59 2 112 31t83 59t69 78v197h-375q-195 0 -195 -181q0 -80 58 -132t137 -52zM846 0h-58q-33 0 -32 49v82q-129 -133 -256 -133h-115q-113 -4 -202 80t-89 202t79 196t206 77h377v53q0 127 -60 198t-155 70h-103q-92 0 -138 -19t-85 -67q-23 -23 -47 -2
l-29 21q-20 20 -2 41q53 68 118 94t175 25h105q131 1 222 -99t91 -258v-561q0 -15 4 -32t-6 -17z" />
    <glyph glyph-name="b" unicode="b" horiz-adv-x="1011" 
d="M817 346v250q0 110 -71 192t-179 82h-78q-83 0 -167 -59t-86 -123v-481q57 -45 131 -80t122 -35h78q96 0 173 77t77 177zM489 963h76q141 0 243 -113t101 -254v-250q0 -138 -105 -242t-239 -104h-76q-129 0 -253 102v-71q0 -31 -31 -31h-31q-31 0 -31 31v1425q0 31 31 31
h31q31 0 31 -31v-604q114 111 253 111z" />
    <glyph glyph-name="c" unicode="c" horiz-adv-x="985" 
d="M864 645h-33q-35 0 -34 25q0 72 -82 139.5t-164 67.5h-72q-106 0 -190 -84t-84 -195v-233q0 -111 84 -193t190 -82h70q133 0 256 141q23 25 41 9l26 -23q23 -20 7 -43q-143 -176 -328 -176h-74q-137 0 -250.5 110.5t-113.5 256.5v233q0 145 113.5 258t250.5 113h74
q115 0 227.5 -93.5t114.5 -199.5q0 -31 -29 -31z" />
    <glyph glyph-name="d" unicode="d" horiz-adv-x="1030" 
d="M541 870h-84q-111 0 -182 -83t-70 -191v-250q0 -100 78 -177t174 -77h84q49 0 123 35t131 80v481q-2 62 -86 122t-168 60zM825 1487h31q31 0 31 -31v-1425q0 -31 -31 -31h-31q-31 0 -30 31v71q-125 -102 -254 -102h-84q-133 0 -239 104q-105 104 -105 242v250
q0 141 101 254t243 113h84q139 0 254 -111v604q-1 31 30 31z" />
    <glyph glyph-name="e" unicode="e" horiz-adv-x="1003" 
d="M809 561v31q0 123 -83 204t-173 81h-78q-106 0 -189 -85t-83 -200v-31h606zM475 969h78q121 0 234.5 -108.5t113.5 -260.5v-82q0 -61 -61 -61h-637v-92q0 -111 83 -193t189 -82h76q137 0 256 141q23 27 43 9l24 -23q23 -20 7 -43q-143 -176 -328 -176h-78
q-137 0 -250.5 110.5t-113.5 256.5v233q0 145 113.5 258t250.5 113z" />
    <glyph glyph-name="f" unicode="f" horiz-adv-x="751" 
d="M555 1487h135q31 0 31 -31v-31q0 -31 -31 -30h-135q-119 0 -180 -78t-62 -219v-135h357q31 0 30 -31v-31q0 -31 -30 -31h-357v-839q0 -31 -30 -31h-31q-31 0 -31 31v839h-119q-31 0 -30 31v31q0 31 30 31h119v139q0 174 91 280t243 105z" />
    <glyph glyph-name="g" unicode="g" horiz-adv-x="1001" 
d="M481 90h41q61 0 133 37t127 94v438q0 72 -83 144t-160 71h-84q-101 0 -181 -86t-79 -190v-233q0 -103 90 -189t196 -86zM797 963h51q31 0 31 -31v-1034q1 -115 -101 -211t-235 -97h-51q-96 0 -194 60t-148 151q-18 29 16 35h45q23 0 37 -20q38 -58 108 -96t142 -37h45
q71 0 155 59t84 145v199q-127 -88 -256 -88h-45q-135 0 -257 116t-122 251v233q0 137 110 253t243 116h84q113 0 235 -95l-6 62q-6 29 29 29z" />
    <glyph glyph-name="h" unicode="h" horiz-adv-x="1042" 
d="M500 963h75q141 0 243 -113t102 -254v-565q0 -31 -31 -31h-31q-31 0 -31 31v565q0 106 -70 190q-71 84 -182 84h-73q-86 0 -170 -60t-86 -126v-653q0 -31 -31 -31h-31q-31 0 -30 31v1425q0 31 30 31h31q31 0 31 -31v-604q115 111 254 111z" />
    <glyph glyph-name="i" unicode="i" horiz-adv-x="415" 
d="M162 31v903q0 31 31 31h30q31 0 31 -31v-903q0 -31 -31 -31h-30q-31 0 -31 31zM145 1374v82q0 31 31 31h64q31 0 30 -31v-82q0 -31 -30 -31h-64q-31 0 -31 31z" />
    <glyph glyph-name="j" unicode="j" horiz-adv-x="411" 
d="M156 -106v1040q0 31 30 31h31q31 0 31 -31v-1032q0 -78 -60 -156t-147 -113q-29 -10 -39 21l-6 37q-8 27 18 37q57 20 100 64q42 44 42 102zM135 1374v82q0 31 31 31h63q31 0 31 -31v-82q0 -31 -31 -31h-63q-31 0 -31 31z" />
    <glyph glyph-name="k" unicode="k" horiz-adv-x="1050" 
d="M174 1487h31q31 0 31 -31v-979l522 461q29 25 45 25h51q10 0 17.5 -10.5t5 -27t-18.5 -28.5l-395 -348l452 -502q14 -14 11.5 -30.5t-23.5 -16.5h-47q-29 0 -55 29l-420 460l-145 -122v-336q0 -31 -31 -31h-31q-31 0 -31 31v1425q0 31 31 31z" />
    <glyph glyph-name="l" unicode="l" horiz-adv-x="419" 
d="M164 31v1425q0 31 31 31h30q31 0 31 -31v-1425q0 -31 -31 -31h-30q-31 0 -31 31z" />
    <glyph glyph-name="m" unicode="m" horiz-adv-x="1701" 
d="M1135 963h75q140 0 242 -113t102 -254v-565q0 -31 -30 -31h-31q-31 0 -31 31v565q0 106 -69 190q-70 84 -183 84h-69q-86 0 -167 -60t-85 -124q12 -43 12 -90v-565q0 -31 -31 -31h-30q-31 0 -31 31v565q0 110 -67 192t-177 82h-69q-84 0 -166 -60t-84 -124v-655
q0 -31 -31 -31h-31q-31 0 -30 31v901q0 31 30 31h31q31 0 31 -31v-66q111 96 243 97h76q168 0 275 -162q47 68 130 115t165 47z" />
    <glyph glyph-name="n" unicode="n" horiz-adv-x="1032" 
d="M471 963h86q139 0 245.5 -115t106.5 -252v-565q0 -31 -30 -31h-31q-31 0 -31 31v565q0 109 -69.5 191.5t-180.5 82.5h-84q-86 0 -169 -59t-85 -125v-655q0 -31 -30 -31h-31q-31 0 -31 31v901q0 31 31 31h31q31 0 30 -31v-55q121 86 242 86z" />
    <glyph glyph-name="o" unicode="o" horiz-adv-x="1038" 
d="M834 391v182q0 125 -79 214t-196 90h-78q-121 1 -199 -89t-77 -215v-182q0 -125 78 -213t198 -88h78q117 0 196 88t79 213zM479 969h80q151 0 259 -120t108 -276v-182q0 -157 -109 -275t-258 -118h-80q-151 0 -259 119t-107 274v182q0 158 107 277t259 119z" />
    <glyph glyph-name="p" unicode="p" horiz-adv-x="1040" 
d="M825 346v250q-1 110 -71 192t-181 82h-84q-83 0 -167 -59t-86 -123v-481q57 -45 131 -80t122 -35h84q96 0 175 77q77 77 77 177zM489 963h84q141 0 243 -113t102 -254v-250q0 -138 -106 -242t-239 -104h-84q-129 0 -253 102v-481q0 -31 -31 -31h-31q-31 0 -31 31v1311
q0 31 31 31h31q31 0 31 -31v-68q112 99 253 99z" />
    <glyph glyph-name="q" unicode="q" horiz-adv-x="1038" 
d="M549 870h-82q-111 0 -181 -83t-71 -191v-250q0 -100 78 -177t174 -77h82q49 0 124 34t130 79v483q-2 62 -86 122t-168 60zM834 963h30q31 0 31 -31v-1311q0 -31 -31 -31h-30q-31 0 -31 31v481q-125 -102 -254 -102h-82q-133 0 -239 104q-105 104 -105 242v250
q0 141 101 254t243 113h82q141 0 254 -99v68q0 31 31 31z" />
    <glyph glyph-name="r" unicode="r" horiz-adv-x="835" 
d="M561 877h-82q-84 0 -168 -62.5t-86 -128.5v-655q0 -31 -30 -31h-31q-31 0 -31 31v901q0 31 31 31h31q31 0 30 -31v-55q129 92 242 92h74q129 0 233 -105q23 -22 0 -45l-18 -16q-23 -23 -43 2q-68 72 -152 72z" />
    <glyph glyph-name="s" unicode="s" horiz-adv-x="970" 
d="M795 643q-39 0 -35 25q-2 92 -80 151.5t-172 59.5h-39q-270 0 -270 -193q-1 -68 41 -94q26 -16 42.5 -25.5t63.5 -18.5t142 -22q170 -24 266 -66q116 -52 116 -180.5t-111.5 -209t-250.5 -80.5h-55q-117 0 -228.5 78.5t-122.5 189.5q-4 31 31 31h35q31 0 31 -29
q8 -78 88 -128t168 -50h47q115 0 195.5 50t80.5 128t-25.5 99.5t-38 31.5t-49 18.5t-50 10.5t-62.5 7t-99 11q-136 16 -242 68t-106 181.5t105.5 206.5t249.5 77h45q123 0 233.5 -86t116.5 -209q0 -33 -29 -33h-32z" />
    <glyph glyph-name="t" unicode="t" horiz-adv-x="600" 
d="M215 270v600h-113q-31 0 -30 31v29q0 33 30 33h113v213q0 31 31 30h30q31 0 31 -30v-213h152q33 0 33 -31v-31q0 -31 -31 -31h-154v-618q0 -150 172 -156q33 1 33 -26l2 -41q0 -33 -27 -33q-98 -6 -185 65.5t-87 208.5z" />
    <glyph glyph-name="u" unicode="u" horiz-adv-x="1050" 
d="M901 932v-901q0 -31 -31 -31h-30q-31 0 -31 31v53q-119 -86 -242 -86h-78q-143 0 -249 110t-107 250v574q0 31 31 31h31q31 0 30 -31v-574q0 -112 70 -190t184 -78h78q86 0 168 60t84 124v658q0 31 31 31h30q31 0 31 -31z" />
    <glyph glyph-name="v" unicode="v" horiz-adv-x="911" 
d="M98 963h35q25 0 37 -35l285 -776l286 776q12 35 37 35h35q37 0 25 -35l-322 -895q-10 -33 -39 -33h-43q-27 0 -39 33l-321 895q-12 35 24 35z" />
    <glyph glyph-name="w" unicode="w" horiz-adv-x="1406" 
d="M1274 963h35q35 0 24 -35l-241 -895q-10 -33 -39 -33h-43q-23 0 -39 33l-266 774l-269 -774q-10 -33 -39 -33h-43q-23 0 -39 33l-241 895q-10 35 24 35h35q27 0 37 -35l205 -778l270 778q10 35 37 35h43q23 0 37 -35l268 -778l207 778q10 35 37 35z" />
    <glyph glyph-name="x" unicode="x" horiz-adv-x="907" 
d="M797 0h-45q-23 0 -47 35l-252 368l-250 -368q-23 -35 -47 -35h-47q-18 0 -25 10q-6 10 4 27l307 452l-297 437q-10 16 -4 26t25 11h47q25 0 47 -35l242 -355l239 355q23 35 47 35h47q18 -1 24 -11t-5 -26l-295 -437l307 -452q10 -17 4 -27t-26 -10z" />
    <glyph glyph-name="y" unicode="y" horiz-adv-x="989" 
d="M850 963h43q33 0 18 -37l-544 -1301q-14 -35 -45 -35h-43q-35 0 -21 37l182 432l-364 867q-14 37 18 37h45q29 0 43 -35l312 -742l311 742q14 35 45 35z" />
    <glyph glyph-name="z" unicode="z" horiz-adv-x="905" 
d="M823 932v-53q0 -10 -10 -25l-608 -762h586q33 0 32 -31v-30q0 -31 -30 -31h-680q-31 0 -31 31v45q0 16 10 28l613 766h-592q-31 0 -31 31v29q0 33 31 33h678q32 0 32 -31z" />
    <glyph glyph-name="braceleft" unicode="{" horiz-adv-x="768" 
d="M340 592v-381q0 -123 58 -193t163 -69h43q31 0 31 -31v-31q0 -31 -31 -30h-22q-152 0 -243 105t-91 280v329q0 20 -15 37l-92 113q-14 23 0 45l92 113q14 16 15 36v330q0 173 91 279t243 106h22q31 0 31 -31v-30q0 -31 -31 -31h-43q-105 0 -163 -70t-58 -192v-381
q0 -20 -14 -37l-88 -115l90 -114q12 -19 12 -37z" />
    <glyph glyph-name="bar" unicode="|" horiz-adv-x="419" 
d="M164 -379v1987q0 31 31 30h30q31 0 31 -30v-1987q0 -31 -31 -31h-30q-31 0 -31 31z" />
    <glyph glyph-name="braceright" unicode="}" horiz-adv-x="768" 
d="M428 211v381q0 18 12 37l90 114l-88 115q-14 16 -14 37v381q0 122 -58 192t-163 70h-43q-31 0 -31 31v30q0 31 31 31h22q152 0 243 -105t91 -280v-330q0 -20 15 -36l92 -113q14 -23 0 -45l-92 -113q-14 -16 -15 -37v-329q0 -174 -91 -280t-243 -105h-22q-31 0 -31 30v31
q0 31 31 31h43q104 0 163 69q58 70 58 193z" />
    <glyph glyph-name="asciitilde" unicode="~" horiz-adv-x="1058" 
d="M934 793l18 -35q12 -23 -20 -45q-197 -147 -414 -6q-100 63 -175 61t-183 -74q-20 -14 -35 17l-19 34q-12 23 21 46q195 143 412 6q102 -63 177 -61t183 73q21 15 35 -16z" />
    <glyph glyph-name="exclamdown" unicode="&#xa1;" horiz-adv-x="415" 
d="M162 -379v1114q0 31 31 31h30q31 0 31 -31v-1114q0 -31 -31 -31h-30q-31 0 -31 31zM154 1014v33q0 31 30 30h47q31 0 31 -30v-33q0 -31 -31 -31h-47q-30 0 -30 31z" />
    <glyph glyph-name="cent" unicode="&#xa2;" horiz-adv-x="985" 
d="M205 598v-233q0 -100 67 -178q68 -77 164 -93v778q-96 -16 -164 -95t-67 -179zM559 -231q0 -31 -31 -31h-61q-31 0 -31 31v231q-127 18 -225 124t-98 241v233q0 133 98 242t225 127v227q0 31 31 31h61q31 0 31 -31v-225q115 -5 223 -97t111 -196q0 -31 -29 -31h-33
q-35 0 -34 25q0 70 -79 136t-159 71v-787q129 6 246 141q23 25 41 9l26 -23q23 -20 7 -43q-139 -170 -320 -176v-229z" />
    <glyph glyph-name="sterling" unicode="&#xa3;" horiz-adv-x="1253" 
d="M651 1511h74q168 0 295 -142t131 -331q0 -31 -31 -30h-30q-33 0 -33 30q1 150 -99 266t-233 115h-74q-145 1 -242 -117t-73 -278q12 -68 72 -248h378q31 0 31 -31v-30q0 -31 -31 -31h-350q16 -68 15 -123q-14 -240 -99 -424q160 68 353 -18q100 -41 177 -39t183 49
q14 6 22 -4t9 -27v-37q0 -14 -6 -18t-25 -12q-109 -45 -196 -44t-193 44t-186 36q-79 -7 -191 -69q-14 -8 -48 27t-28 51q66 158 92 258q55 205 21 350h-201q-31 0 -31 31v30q0 31 31 31h172q-55 154 -69 248q-25 193 105 340t308 147z" />
    <glyph glyph-name="currency" unicode="&#xa4;" horiz-adv-x="1105" 
d="M514 90h78q100 0 178 68l-10 10l65 65l2 -2q41 72 41 160v182q0 88 -41 158l-2 -2l-65 66l12 10q-78 72 -180 72h-78q-104 0 -180 -70l12 -12l-65 -66l-2 2q-39 -72 -39 -158v-182q0 -86 39 -160l2 2l65 -65l-10 -10q78 -68 178 -68zM594 -2h-80q-137 0 -242 98l-86 -84
q-23 -20 -43 0l-20 23q-20 23 0 43l92 90q-68 102 -68 223v182q0 119 66 224l-90 90q-20 23 0 43l20 20q20 20 43 0l84 -82q106 100 244 101h80q137 0 240 -103l86 84q23 20 43 0l20 -20q20 -20 0 -43l-90 -90q68 -102 68 -224v-182q0 -123 -70 -223l92 -90q20 -20 0 -43
l-20 -23q-20 -20 -43 0l-89 84q-104 -98 -237 -98z" />
    <glyph glyph-name="yen" unicode="&#xa5;" horiz-adv-x="1177" 
d="M633 563h350q31 0 31 -31v-36q0 -31 -31 -31h-350v-125h350q31 0 31 -31v-35q0 -31 -31 -30h-350v-213q0 -31 -31 -31h-31q-31 0 -30 31v213h-332q-31 0 -31 30v35q0 31 31 31h332v125h-332q-31 0 -31 31v36q0 31 31 31h332v90l-459 803q-10 14 -3 22t23 9h50
q18 0 41 -31l395 -696l399 696q18 31 41 31h49q39 0 21 -31l-465 -803v-90z" />
    <glyph glyph-name="brokenbar" unicode="&#xa6;" horiz-adv-x="419" 
d="M164 -236v662q0 31 31 31h30q31 0 31 -31v-662q0 -31 -31 -30h-30q-31 -1 -31 30zM164 803v661q0 31 31 31h30q31 0 31 -31v-661q0 -31 -31 -31h-30q-31 0 -31 31z" />
    <glyph glyph-name="section" unicode="&#xa7;" horiz-adv-x="1241" 
d="M244 752q0 -96 24 -149q58 -122 301 -167l107 -20q172 -35 274 -107q56 83 56 177q1 171 -104 237q-85 54 -224 82l-107 20q-174 35 -270 103q-57 -80 -57 -176zM1098 502q0 -141 -80 -252q80 -96 80 -238q0 -182 -127 -302t-303 -120h-95q-170 0 -300 119t-130 297v60
q0 31 31 30h33q31 0 31 -30l2 -60q4 -147 101 -235t232 -88h95q143 0 240 89t98 238q0 102 -50 172l-6 -6l-51 64q-72 53 -221 84l-107 20q-199 37 -309 126t-110 249t84 266q-84 94 -84 234q0 177 116 291t287 114h107q166 0 294 -124t125 -308v-39q0 -31 -30 -31h-33
q-31 0 -31 31v39q0 152 -96 246t-229 94h-107q-137 0 -224 -82t-87 -225t86 -211t239 -96l107 -21q194 -39 308 -128t114 -267z" />
    <glyph glyph-name="dieresis" unicode="&#xa8;" horiz-adv-x="1005" 
d="M762 1372v84q0 31 31 31h59q31 0 31 -31v-84q0 -31 -31 -31h-59q-31 0 -31 31zM123 1372v84q0 31 31 31h61q31 0 31 -31v-84q0 -31 -31 -31h-61q-31 0 -31 31z" />
    <glyph glyph-name="copyright" unicode="&#xa9;" horiz-adv-x="1267" 
d="M825 524h68q20 0 20 -14q-1 -119 -71 -201t-174 -82h-64q-112 0 -182 84t-70 213v439q0 129 71 213t181 84h64q102 0 173 -82t72 -201q0 -12 -20 -12h-68q-23 0 -22 18q0 164 -133 164h-68q-76 0 -108 -42t-33 -138v-449q0 -94 34 -138t107 -44h68q135 0 133 170
q-1 18 22 18zM569 72h129q137 0 241 112q103 113 103 279v561q0 166 -103 279t-241 112h-129q-137 -1 -240 -113t-104 -278v-561q-1 -167 103 -279t241 -112zM573 1511h121q176 0 314 -142t137 -341v-569q0 -199 -137 -342t-314 -144h-121q-176 -1 -313 143t-137 343v569
q0 199 137 341t313 142z" />
    <glyph glyph-name="ordfeminine" unicode="&#xaa;" horiz-adv-x="653" 
d="M293 1042h31q90 0 151 66v96h-182q-115 0 -115 -81t115 -81zM498 963q-23 0 -23 30v23q-63 -53 -151 -53h-31q-78 0 -134 43q-57 42 -57 116t52 118t139 44h182q-4 123 -104 123h-52q-94 0 -149 -51q-23 -18 -31 0l-20 26q-12 14 0 27q74 78 196 78h50q78 1 130 -61
t52 -146v-287q0 -12 4 -21t-6 -9h-47z" />
    <glyph glyph-name="guillemotleft" unicode="&#xab;" horiz-adv-x="1189" 
d="M1077 872v-88q0 -18 -37 -45l-278 -213l278 -211q4 -4 10 -8t10 -7q3 -3 7 -6q10 -8 10 -24v-90q0 -16 -11 -21t-26 5l-385 295q-4 4 -12 8q-18 9 -18 29v61q0 19 13 27t17 12l385 293q14 10 26 5t11 -22zM565 872v-88q0 -18 -37 -45l-278 -213l278 -211q4 -4 10 -8
t10 -7q3 -3 7 -6q10 -8 10 -24v-90q0 -16 -11 -21t-26 5l-385 295q-4 4 -12 8q-18 9 -18 29v61q0 19 13 27t17 12l385 293q14 10 26 5t11 -22z" />
    <glyph glyph-name="logicalnot" unicode="&#xac;" horiz-adv-x="1052" 
d="M154 723h745q31 0 31 -31v-403q0 -31 -31 -31h-31q-31 0 -30 31v342h-684q-31 0 -31 31v30q0 31 31 31z" />
    <glyph glyph-name="softhyphen" unicode="&#xad;" horiz-adv-x="888" 
d="M715 473h-541q-31 0 -31 31v31q0 31 31 30h541q31 0 30 -30v-31q1 -31 -30 -31z" />
    <glyph glyph-name="registered" unicode="&#xae;" horiz-adv-x="1267" 
d="M487 778h185q86 0 110 38t23 131q0 93 -24 125t-109 32h-185v-326zM903 518v-205q0 -35 -29 -34h-47q-29 0 -28 34v203q0 86 -25 120t-104 34h-183v-357q0 -35 -28 -34h-51q-29 0 -29 34v842q0 23 17 40t40 17h232q112 0 176 -72t64 -204q0 -133 -89 -211q84 -72 84 -207
zM569 72h129q137 0 241 112q103 113 103 279v561q0 166 -103 279t-241 112h-129q-137 -1 -240 -113t-104 -278v-561q-1 -167 103 -279t241 -112zM573 1511h121q176 0 314 -142t137 -341v-569q0 -199 -137 -342t-314 -144h-121q-176 -1 -313 143t-137 343v569q0 199 137 341
t313 142z" />
    <glyph glyph-name="macron" unicode="&#xaf;" horiz-adv-x="1011" 
d="M838 1395h-664q-31 0 -31 30v31q0 31 31 31h664q31 0 30 -31v-31q1 -30 -30 -30z" />
    <glyph glyph-name="degree" unicode="&#xb0;" horiz-adv-x="923" 
d="M659 1167v19q0 199 -180 198h-28q-182 0 -183 -198v-19q0 -197 183 -196h28q180 -1 180 196zM446 1487h31q127 0 205 -84t78 -215v-23q0 -131 -78 -215t-205 -84h-31q-130 0 -206 83t-76 216v23q0 133 76 216t206 83z" />
    <glyph glyph-name="plusminus" unicode="&#xb1;" horiz-adv-x="1052" 
d="M154 92h747q29 0 29 -31v-30q0 -31 -31 -31h-745q-31 0 -31 31v30q0 31 31 31zM575 698h326q29 0 29 -30v-31q0 -31 -31 -31h-324v-360q0 -31 -30 -31h-31q-31 0 -31 31v360h-329q-31 0 -31 31v31q0 31 31 30h329v357q0 31 31 30h31q31 0 30 -30v-357z" />
    <glyph glyph-name="twosuperior" unicode="&#xb2;" horiz-adv-x="655" 
d="M532 883q0 -31 -30 -31h-344q-31 0 -31 31v49q0 30 11 46t44 50l144 154q4 4 41 37t38 69q1 35 -23 59q-24 23 -58 23t-57 -19q-22 -19 -21 -46v-15q0 -31 -31 -30h-61q-31 0 -31 30v27q0 68 51 119t125 51h51q80 -1 130 -61t50 -126t-34 -114q-34 -49 -97 -113
l-104 -104l207 4q31 0 30 -31v-59z" />
    <glyph glyph-name="threesuperior" unicode="&#xb3;" horiz-adv-x="653" 
d="M537 1037q-1 -71 -51 -127t-130 -56h-51q-74 0 -125 51t-51 119v27q0 31 31 30h61q31 0 31 -30v-15q0 -27 22 -46t56 -19t58 19t24 52t-23 55t-55 21h-47q-31 0 -31 31v45q0 31 31 31h47q34 -1 56 21t22 54t-24 52t-58 20t-57 -19q-22 -19 -21 -46v-15q0 -31 -31 -30h-61
q-31 0 -31 30v27q0 68 51 119t125 51h51q80 0 130 -56q50 -55 50 -127t-69 -135q70 -63 70 -134z" />
    <glyph glyph-name="acute" unicode="&#xb4;" horiz-adv-x="491" 
d="M362 1638q39 0 21 -36l-178 -379q-20 -37 -43 -37h-35q-37 0 -21 37l154 379q12 37 43 36h59z" />
    <glyph glyph-name="paragraph" unicode="&#xb6;" horiz-adv-x="1153" 
d="M926 1395h-150v-650h150v650zM684 745v650h-186q-303 0 -303 -325t303 -325h186zM502 1487h485q31 0 31 -31v-1425q0 -31 -31 -31h-31q-31 0 -30 31v622h-150v-622q0 -31 -31 -31h-30q-31 0 -31 31v622h-182q-184 0 -292 111q-108 112 -108 306t108 306t292 111z" />
    <glyph glyph-name="periodcentered" unicode="&#xb7;" horiz-adv-x="327" 
d="M102 580v84q0 31 31 30h62q31 0 30 -30v-84q0 -31 -30 -31h-62q-31 0 -31 31z" />
    <glyph glyph-name="cedilla" unicode="&#xb8;" horiz-adv-x="679" 
d="M324 -414q-84 0 -131 47t-50 125q0 20 19 21h65q20 0 21 -17q2 -68 100 -67h48q52 0 63 11q12 11 12 40q-1 30 -41 42t-194 28q-20 2 -40 18t-20 60t45 104q12 16 23 16h69q23 0 13 -15q-52 -74 -22 -91q7 -4 10 -9t27 -5l30 -5q8 -2 44 -5t46 -6t36 -9q27 -6 35 -15
t26 -27t19 -90q2 -151 -178 -151h-75z" />
    <glyph glyph-name="onesuperior" unicode="&#xb9;" horiz-adv-x="618" 
d="M246 885v571q0 31 30 31h66q31 0 31 -31v-571q0 -31 -31 -31h-66q-30 0 -30 31z" />
    <glyph glyph-name="ordmasculine" unicode="&#xba;" horiz-adv-x="663" 
d="M485 215v96q0 55 -38 97t-93 41h-45q-57 0 -93 -40t-36 -98v-96q0 -57 36 -98t93 -41h45q55 0 93 42t38 97zM309 524h45q86 0 147 -65q60 -66 60 -152v-88q0 -91 -60 -155t-147 -64h-45q-86 0 -146 65t-61 154v88q0 89 60 153t147 64z" />
    <glyph glyph-name="guillemotright" unicode="&#xbb;" horiz-adv-x="1189" 
d="M1077 557v-61q0 -20 -13 -26t-17 -11l-385 -295q-14 -10 -26 -5q-11 5 -11 21v90q0 16 11 25q11 8 26 20l280 211l-280 213q-37 29 -37 45v88q0 16 11 22q12 5 26 -5l385 -293q4 -4 17 -12t13 -27zM565 557v-61q0 -20 -13 -26t-17 -11l-385 -295q-14 -10 -26 -5
q-11 5 -11 21v90q0 18 11 26q11 7 26 19l280 211l-280 213q-37 27 -37 45v88q0 16 11 22q12 5 26 -5l385 -293q4 -4 17 -12t13 -27z" />
    <glyph glyph-name="onequarter" unicode="&#xbc;" horiz-adv-x="1511" 
d="M1206 246v205l-104 -205h104zM1329 242h29q31 0 31 -31v-61q0 -31 -31 -31h-29v-88q0 -31 -31 -31h-61q-31 0 -31 31v88h-223q-29 0 -31 31l-6 59q0 8 8 24l217 388q8 14 29 14h98q31 0 31 -31v-362zM246 885v571q0 31 30 31h66q31 0 31 -31v-571q0 -31 -31 -31h-66
q-30 0 -30 31zM1081 1487h86q39 0 21 -31l-828 -1425q-18 -31 -41 -31h-86q-38 0 -20 31l827 1425q18 31 41 31z" />
    <glyph glyph-name="onehalf" unicode="&#xbd;" horiz-adv-x="1478" 
d="M1356 90v-59q0 -31 -31 -31h-344q-31 0 -31 31v49q0 46 56 96l143 154q4 4 42 37t38 69q0 35 -24 59q-25 23 -59 23t-56 -19t-21 -46v-15q0 -31 -31 -30h-61q-31 0 -31 30v27q0 68 51 119t125 51h52q80 -1 130 -61t50 -126t-34 -114q-34 -49 -97 -113l-105 -104l207 4
q31 0 31 -31zM246 885v571q0 31 30 31h66q31 0 31 -31v-571q0 -31 -31 -31h-66q-30 0 -30 31zM1081 1487h86q39 0 21 -31l-828 -1425q-18 -31 -41 -31h-86q-38 0 -20 31l827 1425q18 31 41 31z" />
    <glyph glyph-name="threequarters" unicode="&#xbe;" horiz-adv-x="1546" 
d="M1241 246v205l-104 -205h104zM1364 242h29q31 0 30 -31v-61q0 -31 -30 -31h-29v-88q0 -31 -31 -31h-61q-31 0 -31 31v88h-223q-27 0 -31 31l-6 59q0 8 8 24l217 388q6 14 29 14h98q31 0 31 -31v-362zM1116 1487h86q39 0 21 -31l-828 -1425q-18 -31 -41 -31h-86
q-38 0 -20 31l827 1425q18 31 41 31zM350 854h-51q-74 0 -125 51t-51 119v27q0 31 31 30h61q31 0 31 -30v-15q0 -27 22 -46t56 -19t58 19t24 52t-23 55t-55 21h-47q-31 0 -31 31v45q0 31 31 31h47q34 -1 56 21t22 54t-24 52t-58 20t-57 -19q-22 -19 -21 -46v-15
q0 -31 -31 -30h-61q-31 0 -31 30v27q0 68 51 119t125 51h51q80 0 130 -56q50 -55 50 -127t-69 -135q69 -63 69 -134t-50 -127t-130 -56z" />
    <glyph glyph-name="questiondown" unicode="&#xbf;" horiz-adv-x="1040" 
d="M565 -436h-86q-168 0 -288 124t-119 302q0 293 270 389q127 45 161 74t34 108v174q0 31 30 31h31q31 0 31 -31v-164q0 -109 -45 -165q-46 -56 -132 -90t-126 -54q-110 -56 -143 -145q-19 -53 -19 -127q0 -146 91 -240t224 -94h86q129 0 219 92t90 248v39q0 31 31 31h33
q31 0 31 -31v-39q2 -182 -119 -307t-285 -125zM635 1047v-33q0 -31 -31 -31h-45q-31 0 -31 31v33q0 31 31 30h45q31 1 31 -30z" />
    <glyph glyph-name="Agrave" unicode="&#xc0;" horiz-adv-x="1234" 
d="M887 530l-266 846l-273 -846h539zM1114 0h-31q-31 0 -39 33l-126 405h-599l-131 -405q-8 -33 -36 -33h-33q-35 0 -23 33l461 1427q10 33 39 33h45q29 0 39 -33l459 -1427q14 -33 -25 -33zM395 2163h64q31 0 43 -37l153 -379q16 -37 -20 -37h-39q-23 0 -43 37l-178 379
q-18 37 20 37z" />
    <glyph glyph-name="Aacute" unicode="&#xc1;" horiz-adv-x="1234" 
d="M887 530l-266 846l-273 -846h539zM1114 0h-31q-31 0 -39 33l-126 405h-599l-131 -405q-8 -33 -36 -33h-33q-35 0 -23 33l461 1427q10 33 39 33h45q29 0 39 -33l459 -1427q14 -33 -25 -33zM629 1710h-35q-37 0 -21 37l154 379q12 37 43 37h59q39 0 21 -37l-178 -379
q-20 -37 -43 -37z" />
    <glyph glyph-name="Acircumflex" unicode="&#xc2;" horiz-adv-x="1234" 
d="M887 530l-266 846l-273 -846h539zM1114 0h-31q-31 0 -39 33l-126 405h-599l-131 -405q-8 -33 -36 -33h-33q-35 0 -23 33l461 1427q10 33 39 33h45q29 0 39 -33l459 -1427q14 -33 -25 -33zM340 1724h-57q-15 0 -21 12t4 27l291 367q23 33 47 33h29q27 0 49 -33l291 -367
q10 -14 5 -26t-22 -13h-57q-16 0 -47 39l-231 299l-234 -299q-31 -39 -47 -39z" />
    <glyph glyph-name="Atilde" unicode="&#xc3;" horiz-adv-x="1234" 
d="M887 530l-266 846l-273 -846h539zM1114 0h-31q-31 0 -39 33l-126 405h-599l-131 -405q-8 -33 -36 -33h-33q-35 0 -23 33l461 1427q10 33 39 33h45q29 0 39 -33l459 -1427q14 -33 -25 -33zM788 1841q-74 1 -177 67t-149 64t-155 -74q-21 -14 -35 17l-18 35q-12 23 20 45
q100 73 174 73t179 -65q104 -65 149 -63t154 73q20 14 35 -16l18 -35q12 -23 -20 -45q-101 -76 -175 -76z" />
    <glyph glyph-name="Adieresis" unicode="&#xc4;" horiz-adv-x="1234" 
d="M887 530l-266 846l-273 -846h539zM1114 0h-31q-31 0 -39 33l-126 405h-599l-131 -405q-8 -33 -36 -33h-33q-35 0 -23 33l461 1427q10 33 39 33h45q29 0 39 -33l459 -1427q14 -33 -25 -33zM969 1866h-60q-31 0 -30 30v84q0 31 30 31h60q31 0 30 -31v-84q1 -30 -30 -30z
M332 1866h-62q-31 0 -30 30v84q0 31 30 31h62q31 0 30 -31v-84q1 -30 -30 -30z" />
    <glyph glyph-name="Aring" unicode="&#xc5;" horiz-adv-x="1234" 
d="M887 530l-266 846l-273 -846h539zM1114 0h-31q-31 0 -39 33l-126 405h-599l-131 -405q-8 -33 -36 -33h-33q-35 0 -23 33l461 1427q10 33 39 33h45q29 0 39 -33l459 -1427q14 -33 -25 -33zM510 1974v-20q0 -98 98 -99h23q100 0 100 99v20q0 98 -100 99h-23q-98 -1 -98 -99
zM633 1763h-27q-82 1 -135 53t-53 136v22q0 82 53 136t135 55h27q82 -1 135 -55t53 -136v-22q0 -84 -52 -136t-136 -53z" />
    <glyph glyph-name="AE" unicode="&#xc6;" horiz-adv-x="1822" 
d="M829 530v752l-413 -752h413zM922 1395v-598h626q31 0 31 -31v-31q0 -31 -31 -30h-626v-613h759q31 0 31 -31v-30q0 -31 -31 -31h-821q-31 0 -31 31v407h-464l-226 -407q-16 -31 -41 -31h-43q-35 0 -20 31l786 1425q5 12 13 22t26 9h821q31 0 31 -31v-31q0 -31 -31 -30
h-759z" />
    <glyph glyph-name="Ccedilla" unicode="&#xc7;" horiz-adv-x="1159" 
d="M995 481h31q31 0 31 -30q-2 -186 -132 -332t-294 -146h-80q-36 -62 11 -74q13 -3 25.5 -6.5t22.5 -4.5t46 -4t46.5 -6t36 -9t34.5 -15.5t27.5 -27.5t18.5 -90q0 -150 -178 -150h-76q-84 0 -131 47.5t-49 124.5q0 20 18 21h66q20 0 20 -17q2 -68 101 -67h48q28 0 42 2
q33 5 33 41.5t-41 48.5t-195 29q-48 5 -60 70q-7 38 36 98q-145 37 -248 174t-103 307v557q0 197 132.5 342t302.5 145h94q164 0 294 -143t132 -330q0 -31 -31 -30h-31q-33 0 -32 30q0 152 -101.5 266.5t-230.5 114.5h-94q-137 0 -239.5 -116.5t-102.5 -278.5v-557
q0 -164 102 -281.5t240 -117.5h94q131 0 232.5 116.5t99.5 268.5q-1 30 32 30z" />
    <glyph glyph-name="Egrave" unicode="&#xc8;" horiz-adv-x="1126" 
d="M225 797h627q31 0 31 -31v-31q0 -31 -31 -30h-627v-613h760q31 0 31 -31v-30q0 -31 -31 -31h-821q-31 0 -31 31v1425q0 31 31 31h821q31 0 31 -31v-31q0 -31 -31 -30h-760v-598zM573 1710h-38q-23 0 -43 37l-179 379q-18 37 21 37h63q31 0 43 -37l154 -379
q16 -37 -21 -37z" />
    <glyph glyph-name="Eacute" unicode="&#xc9;" horiz-adv-x="1126" 
d="M225 797h627q31 0 31 -31v-31q0 -31 -31 -30h-627v-613h760q31 0 31 -31v-30q0 -31 -31 -31h-821q-31 0 -31 31v1425q0 31 31 31h821q31 0 31 -31v-31q0 -31 -31 -30h-760v-598zM709 2163h59q39 0 20 -37l-178 -379q-20 -37 -43 -37h-35q-36 0 -20 37l154 379
q12 37 43 37z" />
    <glyph glyph-name="Ecircumflex" unicode="&#xca;" horiz-adv-x="1126" 
d="M225 797h627q31 0 31 -31v-31q0 -31 -31 -30h-627v-613h760q31 0 31 -31v-30q0 -31 -31 -31h-821q-31 0 -31 31v1425q0 31 31 31h821q31 0 31 -31v-31q0 -31 -31 -30h-760v-598zM543 2163h28q27 0 50 -33l290 -367q10 -14 5 -26.5t-21 -12.5h-57q-16 0 -47 39l-232 299
l-233 -299q-31 -39 -47 -39h-58q-16 0 -21 12.5t5 26.5l291 367q23 33 47 33z" />
    <glyph glyph-name="Edieresis" unicode="&#xcb;" horiz-adv-x="1126" 
d="M225 797h627q31 0 31 -31v-31q0 -31 -31 -30h-627v-613h760q31 0 31 -31v-30q0 -31 -31 -31h-821q-31 0 -31 31v1425q0 31 31 31h821q31 0 31 -31v-31q0 -31 -31 -30h-760v-598zM817 1896v84q0 31 31 31h59q31 0 31 -31v-84q0 -31 -31 -30h-59q-31 -1 -31 30zM178 1896
v84q0 31 31 31h61q31 0 31 -31v-84q0 -31 -31 -30h-61q-31 -1 -31 30z" />
    <glyph glyph-name="Igrave" unicode="&#xcc;" horiz-adv-x="444" 
d="M176 31v1425q0 31 31 31h31q31 0 30 -31v-1425q0 -31 -30 -31h-31q-31 0 -31 31zM236 1710h-39q-23 0 -43 37l-179 379q-18 37 21 37h63q31 0 43 -37l154 -379q16 -37 -20 -37z" />
    <glyph glyph-name="Iacute" unicode="&#xcd;" horiz-adv-x="444" 
d="M176 31v1425q0 31 31 31h31q31 0 30 -31v-1425q0 -31 -30 -31h-31q-31 0 -31 31zM373 2163h59q39 0 21 -37l-179 -379q-20 -37 -43 -37h-34q-37 0 -21 37l154 379q12 37 43 37z" />
    <glyph glyph-name="Icircumflex" unicode="&#xce;" horiz-adv-x="444" 
d="M176 31v1425q0 31 31 31h31q31 0 30 -31v-1425q0 -31 -30 -31h-31q-31 0 -31 31zM207 2163h29q27 0 49 -33l290 -367q9 -14 5 -26t-21 -13h-57q-16 0 -47 39l-232 299l-233 -299q-31 -39 -47 -39h-58q-16 0 -21 12t5 27l291 367q23 33 47 33z" />
    <glyph glyph-name="Idieresis" unicode="&#xcf;" horiz-adv-x="444" 
d="M176 31v1425q0 31 31 31h31q31 0 30 -31v-1425q0 -31 -30 -31h-31q-31 0 -31 31zM481 1896v84q0 31 31 31h59q31 0 31 -31v-84q0 -31 -31 -30h-59q-31 -1 -31 30zM-158 1896v84q0 31 31 31h59q31 0 31 -31v-84q0 -31 -31 -30h-59q-31 -1 -31 30z" />
    <glyph glyph-name="Eth" unicode="&#xd0;" horiz-adv-x="1300" 
d="M1096 481v525q0 154 -100 272t-230 117h-432v-559h358q31 0 31 -31v-31q0 -31 -31 -31h-358v-651h432q130 0 230 118t100 271zM272 1487h490q168 1 297 -143t129 -338v-525q0 -195 -129 -338t-297 -143h-490q-31 0 -30 31v712h-90q-31 0 -31 31v31q0 31 31 31h90v620
q0 31 30 31z" />
    <glyph glyph-name="Ntilde" unicode="&#xd1;" horiz-adv-x="1290" 
d="M1098 1487h30q31 0 31 -31v-1425q0 -31 -31 -31h-127q-27 0 -36 23l-740 1437v-1429q0 -31 -30 -31h-31q-31 0 -31 31v1425q0 31 31 31h129q27 0 37 -23l737 -1437v1429q0 31 31 31zM815 1841q-74 0 -177 66.5t-149.5 64.5t-154.5 -74q-20 -14 -35 17l-18 35
q-12 23 20 45q100 74 174 73.5t178 -65.5t149.5 -63t153.5 73q21 15 35 -16l19 -35q12 -23 -21 -45q-100 -76 -174 -76z" />
    <glyph glyph-name="Ograve" unicode="&#xd2;" horiz-adv-x="1198" 
d="M553 82h92q141 0 240 115q98 115 98 286v533q0 172 -98 287t-240 114h-92q-143 0 -241 -114q-97 -115 -97 -287v-533q-1 -173 97 -287t241 -114zM553 1509h92q176 0 303 -143t127 -346v-541q0 -203 -127 -347t-303 -144h-92q-176 0 -303 144t-127 347v541q0 203 127 346
t303 143zM612 1710h-39q-23 0 -43 37l-178 379q-18 37 21 37h63q31 0 43 -37l154 -379q16 -37 -21 -37z" />
    <glyph glyph-name="Oacute" unicode="&#xd3;" horiz-adv-x="1198" 
d="M553 82h92q141 0 240 115q98 115 98 286v533q0 172 -98 287t-240 114h-92q-143 0 -241 -114q-97 -115 -97 -287v-533q-1 -173 97 -287t241 -114zM553 1509h92q176 0 303 -143t127 -346v-541q0 -203 -127 -347t-303 -144h-92q-176 0 -303 144t-127 347v541q0 203 127 346
t303 143zM748 2163h59q39 0 20 -37l-178 -379q-20 -37 -43 -37h-35q-36 0 -20 37l154 379q12 37 43 37z" />
    <glyph glyph-name="Ocircumflex" unicode="&#xd4;" horiz-adv-x="1198" 
d="M553 82h92q141 0 240 115q98 115 98 286v533q0 172 -98 287t-240 114h-92q-143 0 -241 -114q-97 -115 -97 -287v-533q-1 -173 97 -287t241 -114zM553 1509h92q176 0 303 -143t127 -346v-541q0 -203 -127 -347t-303 -144h-92q-176 0 -303 144t-127 347v541q0 203 127 346
t303 143zM584 2163h28q27 0 50 -33l290 -367q10 -14 5 -26t-21 -13h-57q-16 0 -48 39l-231 299l-233 -299q-31 -39 -48 -39h-57q-16 0 -21 12t5 27l291 367q23 33 47 33z" />
    <glyph glyph-name="Otilde" unicode="&#xd5;" horiz-adv-x="1198" 
d="M553 82h92q141 0 240 115q98 115 98 286v533q0 172 -98 287t-240 114h-92q-143 0 -241 -114q-97 -115 -97 -287v-533q-1 -173 97 -287t241 -114zM553 1509h92q176 0 303 -143t127 -346v-541q0 -203 -127 -347t-303 -144h-92q-176 0 -303 144t-127 347v541q0 203 127 346
t303 143zM768 1841q-74 1 -177 67t-149 64t-155 -74q-20 -14 -35 17l-19 35q-12 23 21 45q100 73 174 73t178 -65t150 -63t153 73q21 15 35 -16l19 -35q12 -23 -21 -45q-100 -76 -174 -76z" />
    <glyph glyph-name="Odieresis" unicode="&#xd6;" horiz-adv-x="1198" 
d="M553 82h92q141 0 240 115q98 115 98 286v533q0 172 -98 287t-240 114h-92q-143 0 -241 -114q-97 -115 -97 -287v-533q-1 -173 97 -287t241 -114zM553 1509h92q176 0 303 -143t127 -346v-541q0 -203 -127 -347t-303 -144h-92q-176 0 -303 144t-127 347v541q0 203 127 346
t303 143zM858 1896v84q0 31 31 31h59q31 0 31 -31v-84q0 -31 -31 -30h-59q-31 -1 -31 30zM219 1896v84q0 31 31 31h61q31 0 31 -31v-84q0 -31 -31 -30h-61q-31 -1 -31 30z" />
    <glyph glyph-name="multiply" unicode="&#xd7;" horiz-adv-x="813" 
d="M473 662l227 -230q23 -18 0 -41l-20 -22q-20 -20 -43 0l-227 229l-234 -233q-25 -20 -45 0l-22 22q-18 23 0 43l233 234l-227 227q-20 23 0 43l22 20q23 20 43 0l226 -227l231 231q23 23 45 -2l23 -18q18 -27 -3 -47z" />
    <glyph glyph-name="Oslash" unicode="&#xd8;" horiz-adv-x="1198" 
d="M983 483v533q0 162 -90 274l-506 -1159q74 -49 166 -49h92q141 0 239 114t99 287zM215 1016v-533q0 -170 96 -286l510 1165q-82 55 -176 55h-92q-143 0 -241 -114q-97 -115 -97 -287zM260 0q-35 0 -20 31l32 75q-150 150 -149 373v541q0 203 127 346t303 143h92
q115 0 213 -63l4 10q12 31 41 31h43q33 0 21 -31l-33 -74q141 -147 141 -362v-541q0 -203 -127 -347t-303 -144h-92q-106 0 -203 57q-19 -45 -47 -45h-43z" />
    <glyph glyph-name="Ugrave" unicode="&#xd9;" horiz-adv-x="1167" 
d="M995 1487h31q31 0 31 -31v-1010q0 -200 -125 -330t-322 -130h-53q-197 0 -321 131t-125 329v1010q0 31 30 31h31q31 0 31 -31v-1020q0 -166 97 -262t257 -96h53q160 0 257 96t98 262v1020q-1 31 30 31zM598 1710h-39q-23 0 -43 37l-178 379q-18 37 20 37h64q31 0 43 -37
l153 -379q16 -37 -20 -37z" />
    <glyph glyph-name="Uacute" unicode="&#xda;" horiz-adv-x="1167" 
d="M995 1487h31q31 0 31 -31v-1010q0 -200 -125 -330t-322 -130h-53q-197 0 -321 131t-125 329v1010q0 31 30 31h31q31 0 31 -31v-1020q0 -166 97 -262t257 -96h53q160 0 257 96t98 262v1020q-1 31 30 31zM733 2163h60q39 0 20 -37l-178 -379q-20 -37 -43 -37h-35
q-36 0 -20 37l153 379q12 37 43 37z" />
    <glyph glyph-name="Ucircumflex" unicode="&#xdb;" horiz-adv-x="1167" 
d="M995 1487h31q31 0 31 -31v-1010q0 -200 -125 -330t-322 -130h-53q-197 0 -321 131t-125 329v1010q0 31 30 31h31q31 0 31 -31v-1020q0 -166 97 -262t257 -96h53q160 0 257 96t98 262v1020q-1 31 30 31zM567 2163h29q27 0 49 -33l291 -367q10 -14 5 -26t-21 -13h-58
q-16 0 -47 39l-231 299l-234 -299q-31 -39 -47 -39h-57q-16 0 -22 12t5 27l291 367q23 33 47 33z" />
    <glyph glyph-name="Udieresis" unicode="&#xdc;" horiz-adv-x="1167" 
d="M995 1487h31q31 0 31 -31v-1010q0 -200 -125 -330t-322 -130h-53q-197 0 -321 131t-125 329v1010q0 31 30 31h31q31 0 31 -31v-1020q0 -166 97 -262t257 -96h53q160 0 257 96t98 262v1020q-1 31 30 31zM842 1896v84q0 31 30 31h60q31 0 31 -31v-84q0 -31 -31 -30h-60
q-30 -1 -30 30zM203 1896v84q0 31 30 31h62q31 0 31 -31v-84q0 -31 -31 -30h-62q-30 -1 -30 30z" />
    <glyph glyph-name="Yacute" unicode="&#xdd;" horiz-adv-x="1177" 
d="M1028 1487h49q39 0 21 -31l-465 -803v-622q0 -31 -31 -31h-31q-31 0 -30 31v622l-459 803q-10 14 -3 22t23 9h50q18 0 41 -31l395 -696l399 696q18 31 41 31zM741 2163h60q39 0 20 -37l-178 -379q-20 -37 -43 -37h-35q-36 0 -20 37l153 379q12 37 43 37z" />
    <glyph glyph-name="Thorn" unicode="&#xde;" horiz-adv-x="1153" 
d="M225 418h432q301 0 301 326t-301 325h-432v-651zM225 1161h426q184 1 292 -111t108 -307t-108 -307t-292 -110h-426v-295q0 -31 -30 -31h-31q-31 0 -31 31v1425q0 31 31 31h31q31 0 30 -31v-295z" />
    <glyph glyph-name="germandbls" unicode="&#xdf;" horiz-adv-x="1067" 
d="M965 428v-35q1 -161 -141 -277t-296 -116h-43q-31 0 -30 31v30q0 31 30 31h43q123 0 234 86t110 209v25q0 139 -113 240q-114 101 -220 102h-54q-31 0 -30 30v31q0 31 30 31h54q96 0 184 88t88 186v49q0 100 -75 169t-191 69h-70q-127 0 -191 -59t-65 -168l-2 -1149
q0 -31 -31 -31h-30q-31 0 -31 31l-2 1138q0 145 98 237t254 93h70q150 0 254 -100t104 -240v-45q0 -161 -180 -311q111 -68 177 -153t65 -222z" />
    <glyph glyph-name="agrave" unicode="&#xe0;" horiz-adv-x="978" 
d="M381 90h111q59 2 112 31t83 59t69 78v197h-375q-195 0 -195 -181q0 -80 58 -132t137 -52zM846 0h-58q-33 0 -32 49v82q-129 -133 -256 -133h-115q-113 -4 -202 80t-89 202t79 196t206 77h377v53q0 127 -60 198t-155 70h-103q-92 0 -138 -19t-85 -67q-23 -23 -47 -2
l-29 21q-20 20 -2 41q53 68 118 94t175 25h105q131 1 222 -99t91 -258v-561q0 -15 4 -32t-6 -17zM311 1638q31 0 43 -36l154 -379q16 -37 -21 -37h-38q-23 0 -43 37l-179 379q-18 37 21 36h63z" />
    <glyph glyph-name="aacute" unicode="&#xe1;" horiz-adv-x="978" 
d="M381 90h111q59 2 112 31t83 59t69 78v197h-375q-195 0 -195 -181q0 -80 58 -132t137 -52zM846 0h-58q-33 0 -32 49v82q-129 -133 -256 -133h-115q-113 -4 -202 80t-89 202t79 196t206 77h377v53q0 127 -60 198t-155 70h-103q-92 0 -138 -19t-85 -67q-23 -23 -47 -2
l-29 21q-20 20 -2 41q53 68 118 94t175 25h105q131 1 222 -99t91 -258v-561q0 -15 4 -32t-6 -17zM481 1186h-35q-37 0 -20 37l154 379q12 37 43 36h59q39 0 20 -36l-178 -379q-20 -37 -43 -37z" />
    <glyph glyph-name="acircumflex" unicode="&#xe2;" horiz-adv-x="978" 
d="M381 90h111q59 2 112 31t83 59t69 78v197h-375q-195 0 -195 -181q0 -80 58 -132t137 -52zM846 0h-58q-33 0 -32 49v82q-129 -133 -256 -133h-115q-113 -4 -202 80t-89 202t79 196t206 77h377v53q0 127 -60 198t-155 70h-103q-92 0 -138 -19t-85 -67q-23 -23 -47 -2
l-29 21q-20 20 -2 41q53 68 118 94t175 25h105q131 1 222 -99t91 -258v-561q0 -15 4 -32t-6 -17zM193 1200h-58q-16 0 -21 12t5 27l291 367q23 33 47 32h28q27 0 50 -32l290 -367q10 -15 5 -27t-21 -12h-57q-16 0 -47 39l-232 299l-233 -299q-31 -39 -47 -39z" />
    <glyph glyph-name="atilde" unicode="&#xe3;" horiz-adv-x="978" 
d="M381 90h111q59 2 112 31t83 59t69 78v197h-375q-195 0 -195 -181q0 -80 58 -132t137 -52zM846 0h-58q-33 0 -32 49v82q-129 -133 -256 -133h-115q-113 -4 -202 80t-89 202t79 196t206 77h377v53q0 127 -60 198t-155 70h-103q-92 0 -138 -19t-85 -67q-23 -23 -47 -2
l-29 21q-20 20 -2 41q53 68 118 94t175 25h105q131 1 222 -99t91 -258v-561q0 -15 4 -32t-6 -17zM301 1544q74 0 178 -65q103 -65 149 -63t154 73q20 14 35 -16l19 -35q12 -23 -21 -45q-100 -76 -174 -76t-177 66q-104 67 -150 65t-154 -74q-21 -14 -35 17l-19 34
q-12 23 21 45q100 74 174 74z" />
    <glyph glyph-name="adieresis" unicode="&#xe4;" horiz-adv-x="978" 
d="M381 90h111q59 2 112 31t83 59t69 78v197h-375q-195 0 -195 -181q0 -80 58 -132t137 -52zM846 0h-58q-33 0 -32 49v82q-129 -133 -256 -133h-115q-113 -4 -202 80t-89 202t79 196t206 77h377v53q0 127 -60 198t-155 70h-103q-92 0 -138 -19t-85 -67q-23 -23 -47 -2
l-29 21q-20 20 -2 41q53 68 118 94t175 25h105q131 1 222 -99t91 -258v-561q0 -15 4 -32t-6 -17zM821 1341h-59q-31 0 -31 31v84q0 31 31 31h59q31 0 31 -31v-84q0 -31 -31 -31zM184 1341h-61q-31 0 -31 31v84q0 31 31 31h61q31 0 31 -31v-84q0 -31 -31 -31z" />
    <glyph glyph-name="aring" unicode="&#xe5;" horiz-adv-x="978" 
d="M381 90h111q59 2 112 31t83 59t69 78v197h-375q-195 0 -195 -181q0 -80 58 -132t137 -52zM846 0h-58q-33 0 -32 49v82q-129 -133 -256 -133h-115q-113 -4 -202 80t-89 202t79 196t206 77h377v53q0 127 -60 198t-155 70h-103q-92 0 -138 -19t-85 -67q-23 -23 -47 -2
l-29 21q-20 20 -2 41q53 68 118 94t175 25h105q131 1 222 -99t91 -258v-561q0 -15 4 -32t-6 -17zM362 1450v-20q0 -98 99 -99h22q100 0 101 99v20q0 98 -101 98h-22q-99 0 -99 -98zM485 1239h-26q-82 0 -135 52t-54 136v23q0 82 54 136t135 54h26q81 0 135 -54t54 -136v-23
q0 -84 -52 -136t-137 -52z" />
    <glyph glyph-name="ae" unicode="&#xe6;" horiz-adv-x="1648" 
d="M752 461h-377q-197 0 -197 -185q0 -80 58.5 -133t138.5 -53h121q57 0 108 28.5t79 57.5t69 80v205zM1198 877h-78q-96 0 -175 -71t-93 -171v-74h602v31q0 123 -84 204t-172 81zM852 457v-138q16 -96 94 -162.5t174 -66.5h76q133 0 256 141q23 25 41 9l27 -23
q23 -20 6 -43q-143 -176 -328 -176h-78q-88 0 -171 49t-136 131q-84 -92 -155.5 -136t-172.5 -44h-108q-113 -4 -202 81t-89 204t80 196.5t207 77.5h379v53q0 123 -63.5 193.5t-153.5 70.5h-72q-147 0 -262 -88q-27 -27 -47 -2l-21 23q-18 23 -2 41q115 119 322 119h73
q86 0 163 -49.5t122 -135.5q51 84 136 135.5t173 51.5h78q121 0 234.5 -108.5t113.5 -260.5v-82q0 -61 -61 -61h-633z" />
    <glyph glyph-name="ccedilla" unicode="&#xe7;" horiz-adv-x="985" 
d="M766 -264q0 -150 -178 -150h-76q-84 0 -131 47.5t-49 124.5q0 20 18 21h66q20 0 20 -17q2 -68 101 -67h47q28 0 42 2q32 4 32.5 41t-40 49t-194.5 29q-20 2 -39.5 18t-19.5 60.5t45 103.5l6 6q-121 25 -212 129.5t-91 231.5v233q0 145 113.5 258t250.5 113h74
q115 0 227.5 -93.5t114.5 -199.5q0 -31 -29 -31h-33q-35 0 -34 25q0 72 -82 139.5t-164 67.5h-72q-106 0 -190 -84t-84 -195v-233q0 -111 84 -193t190 -82h70q133 0 256 141q23 25 41 9l26 -23q23 -20 7 -43q-143 -176 -328 -176h-37q-34 -48 -32.5 -62t2.5 -19t8.5 -9
t11 -9t25.5 -5l30 -5q8 -2 44 -5t46 -6t36 -9t35 -15.5t27.5 -27.5t18.5 -90z" />
    <glyph glyph-name="egrave" unicode="&#xe8;" horiz-adv-x="1003" 
d="M809 561v31q0 123 -83 204t-173 81h-78q-106 0 -189 -85t-83 -200v-31h606zM475 969h78q121 0 234.5 -108.5t113.5 -260.5v-82q0 -61 -61 -61h-637v-92q0 -111 83 -193t189 -82h76q137 0 256 141q23 27 43 9l24 -23q23 -20 7 -43q-143 -176 -328 -176h-78
q-137 0 -250.5 110.5t-113.5 256.5v233q0 145 113.5 258t250.5 113zM514 1186h-39q-23 0 -43 37l-178 379q-18 37 20 36h64q31 1 43 -36l154 -379q16 -37 -21 -37z" />
    <glyph glyph-name="eacute" unicode="&#xe9;" horiz-adv-x="1003" 
d="M809 561v31q0 123 -83 204t-173 81h-78q-106 0 -189 -85t-83 -200v-31h606zM475 969h78q121 0 234.5 -108.5t113.5 -260.5v-82q0 -61 -61 -61h-637v-92q0 -111 83 -193t189 -82h76q137 0 256 141q23 27 43 9l24 -23q23 -20 7 -43q-143 -176 -328 -176h-78
q-137 0 -250.5 110.5t-113.5 256.5v233q0 145 113.5 258t250.5 113zM709 1638q39 0 20 -36l-178 -379q-20 -37 -43 -37h-35q-36 0 -20 37l153 379q12 37 43 36h60z" />
    <glyph glyph-name="ecircumflex" unicode="&#xea;" horiz-adv-x="1003" 
d="M809 561v31q0 123 -83 204t-173 81h-78q-106 0 -189 -85t-83 -200v-31h606zM475 969h78q121 0 234.5 -108.5t113.5 -260.5v-82q0 -61 -61 -61h-637v-92q0 -111 83 -193t189 -82h76q137 0 256 141q23 27 43 9l24 -23q23 -20 7 -43q-143 -176 -328 -176h-78
q-137 0 -250.5 110.5t-113.5 256.5v233q0 145 113.5 258t250.5 113zM514 1638q27 0 49 -32l291 -367q10 -14 5 -26.5t-21 -12.5h-58q-16 0 -47 39l-231 299l-234 -299q-31 -39 -47 -39h-57q-16 0 -21.5 12.5t4.5 26.5l291 367q23 33 47 32h29z" />
    <glyph glyph-name="edieresis" unicode="&#xeb;" horiz-adv-x="1003" 
d="M809 561v31q0 123 -83 204t-173 81h-78q-106 0 -189 -85t-83 -200v-31h606zM475 969h78q121 0 234.5 -108.5t113.5 -260.5v-82q0 -61 -61 -61h-637v-92q0 -111 83 -193t189 -82h76q137 0 256 141q23 27 43 9l24 -23q23 -20 7 -43q-143 -176 -328 -176h-78
q-137 0 -250.5 110.5t-113.5 256.5v233q0 145 113.5 258t250.5 113zM760 1372v84q0 31 31 31h59q31 0 31 -31v-84q0 -31 -31 -31h-59q-31 0 -31 31zM121 1372v84q0 31 31 31h61q31 0 31 -31v-84q0 -31 -31 -31h-61q-31 0 -31 31z" />
    <glyph glyph-name="igrave" unicode="&#xec;" horiz-adv-x="419" 
d="M164 31v903q0 31 31 31h30q31 0 31 -31v-903q0 -31 -31 -31h-30q-31 0 -31 31zM223 1186h-39q-23 0 -43 37l-178 379q-18 37 21 36h63q31 1 43 -36l154 -379q16 -37 -21 -37z" />
    <glyph glyph-name="iacute" unicode="&#xed;" horiz-adv-x="419" 
d="M164 31v903q0 31 31 31h30q31 0 31 -31v-903q0 -31 -31 -31h-30q-31 0 -31 31zM420 1638q39 0 20 -36l-178 -379q-20 -37 -43 -37h-35q-36 0 -20 37l153 379q12 37 43 36h60z" />
    <glyph glyph-name="icircumflex" unicode="&#xee;" horiz-adv-x="419" 
d="M164 31v903q0 31 31 31h30q31 0 31 -31v-903q0 -31 -31 -31h-30q-31 0 -31 31zM223 1638q27 0 49 -32l291 -367q10 -15 5 -27t-21 -12h-58q-16 0 -47 39l-231 299l-234 -299q-31 -39 -47 -39h-57q-16 0 -21 12t5 27l290 367q23 33 48 32h28z" />
    <glyph glyph-name="idieresis" unicode="&#xef;" horiz-adv-x="419" 
d="M164 31v903q0 31 31 31h30q31 0 31 -31v-903q0 -31 -31 -31h-30q-31 0 -31 31zM469 1372v84q0 31 31 31h59q31 0 31 -31v-84q0 -31 -31 -31h-59q-31 0 -31 31zM-170 1372v84q0 31 31 31h59q31 0 31 -31v-84q0 -31 -31 -31h-59q-31 0 -31 31z" />
    <glyph glyph-name="eth" unicode="&#xf0;" horiz-adv-x="1112" 
d="M506 72h90q125 0 201 90t93 270t-64 282q-81 101 -296 103q-110 -1 -178 -23q-115 -38 -141 -200q-10 -63 -12 -176q-2 -176 81 -261t226 -85zM928 1487h55q19 0 25 -10t-7 -27l-98 -127q63 -102 76 -227q39 -352 8 -682q-18 -205 -126 -320t-275 -114h-74
q-182 0 -294 112t-116 350q-4 236 100 356t335 120q119 0 219 -39t143 -88q12 170 -16 335q-10 59 -41 115l-97 -125q-25 -35 -47 -35h-55q-19 1 -25 11t5 26l159 205q-94 98 -225 98h-49q-31 0 -31 31v31q0 31 31 30h49q172 0 285 -112l39 51q29 35 47 35z" />
    <glyph glyph-name="ntilde" unicode="&#xf1;" horiz-adv-x="1032" 
d="M471 963h86q139 0 245.5 -115t106.5 -252v-565q0 -31 -30 -31h-31q-31 0 -31 31v565q0 109 -69.5 191.5t-180.5 82.5h-84q-86 0 -169 -59t-85 -125v-655q0 -31 -30 -31h-31q-31 0 -31 31v901q0 31 31 31h31q31 0 30 -31v-55q121 86 242 86zM694.5 1317q-73.5 0 -177 66
t-149.5 64.5t-155 -73.5q-20 -14 -35 17l-18 34q-12 23 20 45q100 74 174 74t178.5 -65t149.5 -63.5t154 73.5q20 15 34 -16l19 -35q12 -23 -21 -45q-100 -76 -173.5 -76z" />
    <glyph glyph-name="ograve" unicode="&#xf2;" horiz-adv-x="1038" 
d="M834 391v182q0 125 -79 214t-196 90h-78q-121 1 -199 -89t-77 -215v-182q0 -125 78 -213t198 -88h78q117 0 196 88t79 213zM479 969h80q151 0 259 -120t108 -276v-182q0 -157 -109 -275t-258 -118h-80q-151 0 -259 119t-107 274v182q0 158 107 277t259 119zM535 1186h-39
q-23 0 -43 37l-179 379q-18 37 21 36h63q31 1 43 -36l154 -379q16 -37 -20 -37z" />
    <glyph glyph-name="oacute" unicode="&#xf3;" horiz-adv-x="1038" 
d="M834 391v182q0 125 -79 214t-196 90h-78q-121 1 -199 -89t-77 -215v-182q0 -125 78 -213t198 -88h78q117 0 196 88t79 213zM479 969h80q151 0 259 -120t108 -276v-182q0 -157 -109 -275t-258 -118h-80q-151 0 -259 119t-107 274v182q0 158 107 277t259 119zM729 1638
q39 0 21 -36l-179 -379q-20 -37 -43 -37h-34q-37 0 -21 37l154 379q12 37 43 36h59z" />
    <glyph glyph-name="ocircumflex" unicode="&#xf4;" horiz-adv-x="1038" 
d="M834 391v182q0 125 -79 214t-196 90h-78q-121 1 -199 -89t-77 -215v-182q0 -125 78 -213t198 -88h78q117 0 196 88t79 213zM479 969h80q151 0 259 -120t108 -276v-182q0 -157 -109 -275t-258 -118h-80q-151 0 -259 119t-107 274v182q0 158 107 277t259 119zM532 1638
q27 0 50 -32l290 -367q10 -14 6 -27q-5 -12 -22 -12h-57q-16 0 -47 39l-232 299l-233 -299q-31 -39 -47 -39h-58q-16 0 -21 12t5 27l291 367q23 33 47 32h28z" />
    <glyph glyph-name="otilde" unicode="&#xf5;" horiz-adv-x="1038" 
d="M834 391v182q0 125 -79 214t-196 90h-78q-121 1 -199 -89t-77 -215v-182q0 -125 78 -213t198 -88h78q117 0 196 88t79 213zM479 969h80q151 0 259 -120t108 -276v-182q0 -157 -109 -275t-258 -118h-80q-151 0 -259 119t-107 274v182q0 158 107 277t259 119zM688 1317
q-74 0 -177 66q-103 67 -149 65t-155 -74q-20 -14 -35 17l-18 34q-12 23 20 45q100 74 174 74t178 -65t150 -63t153 73q21 15 35 -16l19 -35q12 -23 -21 -45q-100 -76 -174 -76z" />
    <glyph glyph-name="odieresis" unicode="&#xf6;" horiz-adv-x="1038" 
d="M834 391v182q0 125 -79 214t-196 90h-78q-121 1 -199 -89t-77 -215v-182q0 -125 78 -213t198 -88h78q117 0 196 88t79 213zM479 969h80q151 0 259 -120t108 -276v-182q0 -157 -109 -275t-258 -118h-80q-151 0 -259 119t-107 274v182q0 158 107 277t259 119zM780 1372v84
q0 31 31 31h59q31 0 31 -31v-84q0 -31 -31 -31h-59q-31 0 -31 31zM141 1372v84q0 31 31 31h61q31 0 31 -31v-84q0 -31 -31 -31h-61q-31 0 -31 31z" />
    <glyph glyph-name="divide" unicode="&#xf7;" horiz-adv-x="1052" 
d="M463 322v94q0 31 31 30h71q31 0 31 -30v-94q0 -31 -31 -31h-71q-31 0 -31 31zM154 709h747q29 0 29 -31v-31q0 -31 -31 -31h-745q-31 0 -31 31v31q0 31 31 31zM463 909v95q0 31 31 30h71q31 0 31 -30v-95q0 -31 -31 -30h-71q-31 -1 -31 30z" />
    <glyph glyph-name="oslash" unicode="&#xf8;" horiz-adv-x="1038" 
d="M834 391v182q0 156 -113 246l-315 -719q41 -10 75 -10h78q117 0 196 88t79 213zM205 573v-182q0 -160 114 -248l316 721q-33 12 -76 13h-78q-121 1 -199 -89t-77 -215zM926 573v-182q0 -157 -109 -275t-258 -118h-80q-57 0 -110 18q-12 -16 -35 -16h-43q-33 0 -21 31
l13 28q-78 55 -124 145t-46 187v182q0 158 107 277q108 119 259 119h80q53 0 115 -21q10 16 33 17h43q32 0 20 -31l-14 -31q78 -55 124 -144t46 -186z" />
    <glyph glyph-name="ugrave" unicode="&#xf9;" horiz-adv-x="1050" 
d="M901 932v-901q0 -31 -31 -31h-30q-31 0 -31 31v53q-119 -86 -242 -86h-78q-143 0 -249 110t-107 250v574q0 31 31 31h31q31 0 30 -31v-574q0 -112 70 -190t184 -78h78q86 0 168 60t84 124v658q0 31 31 31h30q31 0 31 -31zM537 1186h-39q-23 0 -43 37l-179 379
q-18 37 21 36h63q31 1 43 -36l154 -379q16 -37 -20 -37z" />
    <glyph glyph-name="uacute" unicode="&#xfa;" horiz-adv-x="1050" 
d="M901 932v-901q0 -31 -31 -31h-30q-31 0 -31 31v53q-119 -86 -242 -86h-78q-143 0 -249 110t-107 250v574q0 31 31 31h31q31 0 30 -31v-574q0 -112 70 -190t184 -78h78q86 0 168 60t84 124v658q0 31 31 31h30q31 0 31 -31zM731 1638q39 0 21 -36l-179 -379
q-20 -37 -43 -37h-34q-37 0 -21 37l154 379q12 37 43 36h59z" />
    <glyph glyph-name="ucircumflex" unicode="&#xfb;" horiz-adv-x="1050" 
d="M901 932v-901q0 -31 -31 -31h-30q-31 0 -31 31v53q-119 -86 -242 -86h-78q-143 0 -249 110t-107 250v574q0 31 31 31h31q31 0 30 -31v-574q0 -112 70 -190t184 -78h78q86 0 168 60t84 124v658q0 31 31 31h30q31 0 31 -31zM535 1638q27 0 49 -32l290 -367q10 -14 6 -27
q-5 -12 -22 -12h-57q-16 0 -47 39l-232 299l-233 -299q-31 -39 -47 -39h-58q-16 0 -21 12t5 27l291 367q23 33 47 32h29z" />
    <glyph glyph-name="udieresis" unicode="&#xfc;" horiz-adv-x="1050" 
d="M901 932v-901q0 -31 -31 -31h-30q-31 0 -31 31v53q-119 -86 -242 -86h-78q-143 0 -249 110t-107 250v574q0 31 31 31h31q31 0 30 -31v-574q0 -112 70 -190t184 -78h78q86 0 168 60t84 124v658q0 31 31 31h30q31 0 31 -31zM780 1372v84q0 31 31 31h59q31 0 31 -31v-84
q0 -31 -31 -31h-59q-31 0 -31 31zM141 1372v84q0 31 31 31h61q31 0 31 -31v-84q0 -31 -31 -31h-61q-31 0 -31 31z" />
    <glyph glyph-name="yacute" unicode="&#xfd;" horiz-adv-x="989" 
d="M850 963h43q33 0 18 -37l-544 -1301q-14 -35 -45 -35h-43q-35 0 -21 37l182 432l-364 867q-14 37 18 37h45q29 0 43 -35l312 -742l311 742q14 35 45 35zM504 1186h-35q-37 0 -20 37l153 379q12 37 43 36h60q39 0 20 -36l-178 -379q-20 -37 -43 -37z" />
    <glyph glyph-name="thorn" unicode="&#xfe;" horiz-adv-x="1038" 
d="M823 346v250q0 104 -72 189q-73 85 -180 85h-82q-83 0 -167 -60t-86 -124v-477q55 -45 131 -81t122 -36h82q94 0 173 77t79 177zM489 963h82q139 0 241 -114t103 -253v-250q0 -133 -107 -240q-108 -106 -237 -106h-82q-129 0 -253 102v-481q0 -31 -31 -31h-31
q-31 0 -31 31v1835q0 31 31 31h31q31 0 31 -31v-604q114 111 253 111z" />
    <glyph glyph-name="ydieresis" unicode="&#xff;" horiz-adv-x="989" 
d="M850 963h43q33 0 18 -37l-544 -1301q-14 -35 -45 -35h-43q-35 0 -21 37l182 432l-364 867q-14 37 18 37h45q29 0 43 -35l312 -742l311 742q14 35 45 35zM844 1341h-60q-31 0 -30 31v84q0 31 30 31h60q31 0 30 -31v-84q1 -31 -30 -31zM207 1341h-62q-31 0 -30 31v84
q0 31 30 31h62q31 0 31 -31v-84q0 -31 -31 -31z" />
    <glyph glyph-name="Amacron" unicode="&#x100;" horiz-adv-x="1234" 
d="M887 530l-266 846l-273 -846h539zM1114 0h-31q-31 0 -39 33l-126 405h-599l-131 -405q-8 -33 -36 -33h-33q-35 0 -23 33l461 1427q10 33 39 33h45q29 0 39 -33l459 -1427q14 -33 -25 -33zM952 1919h-663q-31 0 -31 31v30q0 31 31 31h663q31 0 31 -31v-30q0 -31 -31 -31z
" />
    <glyph glyph-name="amacron" unicode="&#x101;" horiz-adv-x="978" 
d="M381 90h111q59 2 112 31t83 59t69 78v197h-375q-195 0 -195 -181q0 -80 58 -132t137 -52zM846 0h-58q-33 0 -32 49v82q-129 -133 -256 -133h-115q-113 -4 -202 80t-89 202t79 196t206 77h377v53q0 127 -60 198t-155 70h-103q-92 0 -138 -19t-85 -67q-23 -23 -47 -2
l-29 21q-20 20 -2 41q53 68 118 94t175 25h105q131 1 222 -99t91 -258v-561q0 -15 4 -32t-6 -17zM805 1395h-664q-31 0 -30 30v31q0 31 30 31h664q31 0 31 -31v-31q0 -30 -31 -30z" />
    <glyph glyph-name="Abreve" unicode="&#x102;" horiz-adv-x="1234" 
d="M887 530l-266 846l-273 -846h539zM1114 0h-31q-31 0 -39 33l-126 405h-599l-131 -405q-8 -33 -36 -33h-33q-35 0 -23 33l461 1427q10 33 39 33h45q29 0 39 -33l459 -1427q14 -33 -25 -33zM653 1845h-69q-131 0 -207 74t-84 213q0 31 31 31h41q31 0 30 -31q8 -94 51 -139
t134 -45h77q92 0 135 45q42 45 50 139q0 31 30 31h41q31 0 31 -31q-8 -141 -84 -214t-207 -73z" />
    <glyph glyph-name="abreve" unicode="&#x103;" horiz-adv-x="978" 
d="M381 90h111q59 2 112 31t83 59t69 78v197h-375q-195 0 -195 -181q0 -80 58 -132t137 -52zM846 0h-58q-33 0 -32 49v82q-129 -133 -256 -133h-115q-113 -4 -202 80t-89 202t79 196t206 77h377v53q0 127 -60 198t-155 70h-103q-92 0 -138 -19t-85 -67q-23 -23 -47 -2
l-29 21q-20 20 -2 41q53 68 118 94t175 25h105q131 1 222 -99t91 -258v-561q0 -15 4 -32t-6 -17zM508 1321h-70q-131 0 -207 74t-84 213q0 31 31 30h41q31 0 31 -30q8 -94 51 -140t133 -45h78q92 0 134 45t50 140q0 31 31 30h41q31 0 31 -30q-8 -141 -84 -214t-207 -73z" />
    <glyph glyph-name="Aogonek" unicode="&#x104;" horiz-adv-x="1234" 
d="M887 530l-266 846l-273 -846h539zM840 -233q0 -43 32 -43h275q20 0 20 -19v-70q0 -20 -20 -20h-246q-178 0 -178 154q0 94 37 122t131 36q93 8 104 14q13 6 23 11t16 24t-2 51q-2 6 10 14l-124 397h-599l-131 -405q-8 -33 -36 -33h-33q-35 0 -23 33l461 1427q10 33 39 33
h45q29 0 39 -33l459 -1427q6 -12 2 -19q14 -80 -20 -126t-101 -52q-29 -4 -64 -8q-34 -4 -56 -7t-36 -3q-25 -2 -24 -43v-8z" />
    <glyph glyph-name="aogonek" unicode="&#x105;" horiz-adv-x="978" 
d="M381 90h111q59 2 112 31t83 59t69 78v197h-375q-195 0 -195 -181q0 -80 58 -132t137 -52zM649 -274h211q20 0 21 -19v-69q0 -20 -21 -21h-246q-178 0 -178 154q0 94 37 122t131 36q93 8 115 19t24 17t7 20t-5 44q-4 10 11 14v88q-129 -133 -256 -133h-115
q-113 -4 -202 80t-89 202t79 196t206 77h377v53q0 127 -60 198t-155 70h-103q-92 0 -138 -19t-85 -67q-23 -23 -47 -2l-29 21q-20 20 -2 41q53 68 118 94t175 25h105q131 1 222 -99t91 -258v-575q4 -4 4 -6q18 -86 -14 -135t-105 -56q-29 -4 -63 -8t-57 -7q-22 -3 -35 -3
q-25 -2 -25 -43v-8q0 -29 8 -34t11 -7t77 -2z" />
    <glyph glyph-name="Cacute" unicode="&#x106;" horiz-adv-x="1159" 
d="M995 481h31q31 0 31 -30q-2 -186 -132 -332t-294 -146h-94q-170 0 -302.5 147.5t-132.5 344.5v557q0 197 132.5 342t302.5 145h94q164 0 294 -143t132 -330q0 -31 -31 -30h-31q-33 0 -32 30q0 152 -101.5 266.5t-230.5 114.5h-94q-137 0 -239.5 -116.5t-102.5 -278.5
v-557q0 -164 102 -281.5t240 -117.5h94q131 0 232.5 116.5t99.5 268.5q-1 30 32 30zM721 2163h59q39 0 21 -37l-178 -379q-20 -37 -43 -37h-35q-37 0 -21 37l154 379q12 37 43 37z" />
    <glyph glyph-name="cacute" unicode="&#x107;" horiz-adv-x="985" 
d="M864 645h-33q-35 0 -34 25q0 72 -82 139.5t-164 67.5h-72q-106 0 -190 -84t-84 -195v-233q0 -111 84 -193t190 -82h70q133 0 256 141q23 25 41 9l26 -23q23 -20 7 -43q-143 -176 -328 -176h-74q-137 0 -250.5 110.5t-113.5 256.5v233q0 145 113.5 258t250.5 113h74
q115 0 227.5 -93.5t114.5 -199.5q0 -31 -29 -31zM700 1638q39 0 21 -36l-178 -379q-20 -37 -43 -37h-35q-37 0 -21 37l154 379q12 37 43 36h59z" />
    <glyph glyph-name="Cdotaccent" unicode="&#x10a;" horiz-adv-x="1159" 
d="M995 481h31q31 0 31 -30q-2 -186 -132 -332t-294 -146h-94q-170 0 -302.5 147.5t-132.5 344.5v557q0 197 132.5 342t302.5 145h94q164 0 294 -143t132 -330q0 -31 -31 -30h-31q-33 0 -32 30q0 152 -101.5 266.5t-230.5 114.5h-94q-137 0 -239.5 -116.5t-102.5 -278.5
v-557q0 -164 102 -281.5t240 -117.5h94q131 0 232.5 116.5t99.5 268.5q-1 30 32 30zM498 1878v98q0 35 37 35h77q33 0 33 -35v-98q0 -35 -33 -35h-77q-37 0 -37 35z" />
    <glyph glyph-name="cdotaccent" unicode="&#x10b;" horiz-adv-x="985" 
d="M864 645h-33q-35 0 -34 25q0 72 -82 139.5t-164 67.5h-72q-106 0 -190 -84t-84 -195v-233q0 -111 84 -193t190 -82h70q133 0 256 141q23 25 41 9l26 -23q23 -20 7 -43q-143 -176 -328 -176h-74q-137 0 -250.5 110.5t-113.5 256.5v233q0 145 113.5 258t250.5 113h74
q115 0 227.5 -93.5t114.5 -199.5q0 -31 -29 -31zM418 1354v98q0 35 37 35h77q33 0 33 -35v-98q0 -35 -33 -35h-77q-37 0 -37 35z" />
    <glyph glyph-name="Ccaron" unicode="&#x10c;" horiz-adv-x="1159" 
d="M995 481h31q31 0 31 -30q-2 -186 -132 -332t-294 -146h-94q-170 0 -302.5 147.5t-132.5 344.5v557q0 197 132.5 342t302.5 145h94q164 0 294 -143t132 -330q0 -31 -31 -30h-31q-33 0 -32 30q0 152 -101.5 266.5t-230.5 114.5h-94q-137 0 -239.5 -116.5t-102.5 -278.5
v-557q0 -164 102 -281.5t240 -117.5h94q131 0 232.5 116.5t99.5 268.5q-1 30 32 30zM233 2163h58q18 0 47 -39l233 -299l232 299q29 39 47 39h57q16 0 21.5 -12.5t-4.5 -26.5l-291 -367q-23 -33 -49 -33h-29q-24 0 -47 33l-291 367q-10 14 -5 26.5t21 12.5z" />
    <glyph glyph-name="ccaron" unicode="&#x10d;" horiz-adv-x="985" 
d="M864 645h-33q-35 0 -34 25q0 72 -82 139.5t-164 67.5h-72q-106 0 -190 -84t-84 -195v-233q0 -111 84 -193t190 -82h70q133 0 256 141q23 25 41 9l26 -23q23 -20 7 -43q-143 -176 -328 -176h-74q-137 0 -250.5 110.5t-113.5 256.5v233q0 145 113.5 258t250.5 113h74
q115 0 227.5 -93.5t114.5 -199.5q0 -31 -29 -31zM154 1638h57q18 0 47 -39l234 -299l231 299q29 39 47 39h57q16 0 21.5 -12t-4.5 -27l-291 -366q-23 -33 -49 -33h-29q-24 0 -47 33l-291 366q-10 14 -5 26.5t22 12.5z" />
    <glyph glyph-name="Dcaron" unicode="&#x10e;" horiz-adv-x="1179" 
d="M975 481v525q-1 154 -101 272t-229 117h-432v-1303h432q129 0 229 118t101 271zM152 1487h489q168 1 297 -143t129 -338v-525q0 -195 -129 -338t-297 -143h-489q-31 0 -31 31v1425q0 31 31 31zM289 2163q18 0 47 -39l233 -299l232 299q29 39 47 39h57q15 -1 21 -13
t-4 -26l-291 -367q-23 -33 -49 -33h-29q-24 0 -47 33l-291 367q-10 14 -5 26t21 13h58z" />
    <glyph glyph-name="dcaron" unicode="&#x10f;" horiz-adv-x="1294" 
d="M541 870h-84q-111 0 -182 -83t-70 -191v-250q0 -100 78 -177t174 -77h84q49 0 123 35t131 80v481q-2 62 -86 122t-168 60zM1026 1487h96q31 0 31 -31v-184q0 -68 -4 -107t-28 -99t-70 -114q-18 -20 -41 0l-35 31q-25 25 -8 43q55 53 69 102t15 132l16 20h-41
q-31 0 -31 31v145q0 31 31 31zM825 1487h31q31 0 31 -31v-1425q0 -31 -31 -31h-31q-31 0 -30 31v71q-125 -102 -254 -102h-84q-133 0 -239 104q-105 104 -105 242v250q0 141 101 254t243 113h84q139 0 254 -111v604q-1 31 30 31z" />
    <glyph glyph-name="Dcroat" unicode="&#x110;" horiz-adv-x="1300" 
d="M1096 481v525q0 154 -100 272t-230 117h-432v-559h358q31 0 31 -31v-31q0 -31 -31 -31h-358v-651h432q130 0 230 118t100 271zM272 1487h490q168 1 297 -143t129 -338v-525q0 -195 -129 -338t-297 -143h-490q-31 0 -30 31v712h-90q-31 0 -31 31v31q0 31 31 31h90v620
q0 31 30 31z" />
    <glyph glyph-name="dcroat" unicode="&#x111;" horiz-adv-x="1030" 
d="M541 870h-84q-111 0 -182 -83t-70 -191v-250q0 -100 78 -177t174 -77h84q49 0 123 35t131 80v481q-2 62 -86 122t-168 60zM887 1217h100q31 0 31 -31v-31q0 -31 -31 -31h-100v-1093q0 -31 -31 -31h-31q-31 0 -30 31v71q-125 -102 -254 -102h-84q-133 0 -239 104
q-105 104 -105 242v250q0 141 101 254t243 113h84q139 0 254 -111v272h-471q-31 0 -31 31v31q0 31 31 31h471v239q0 31 30 31h31q31 0 31 -31v-239z" />
    <glyph glyph-name="Emacron" unicode="&#x112;" horiz-adv-x="1126" 
d="M225 797h627q31 0 31 -31v-31q0 -31 -31 -30h-627v-613h760q31 0 31 -31v-30q0 -31 -31 -31h-821q-31 0 -31 31v1425q0 31 31 31h821q31 0 31 -31v-31q0 -31 -31 -30h-760v-598zM891 1919h-664q-31 0 -30 31v30q0 31 30 31h664q31 0 31 -31v-30q0 -31 -31 -31z" />
    <glyph glyph-name="emacron" unicode="&#x113;" horiz-adv-x="1003" 
d="M809 561v31q0 123 -83 204t-173 81h-78q-106 0 -189 -85t-83 -200v-31h606zM475 969h78q121 0 234.5 -108.5t113.5 -260.5v-82q0 -61 -61 -61h-637v-92q0 -111 83 -193t189 -82h76q137 0 256 141q23 27 43 9l24 -23q23 -20 7 -43q-143 -176 -328 -176h-78
q-137 0 -250.5 110.5t-113.5 256.5v233q0 145 113.5 258t250.5 113zM831 1395h-663q-31 0 -31 30v31q0 31 31 31h663q31 0 31 -31v-31q0 -30 -31 -30z" />
    <glyph glyph-name="Edotaccent" unicode="&#x116;" horiz-adv-x="1126" 
d="M225 797h627q31 0 31 -31v-31q0 -31 -31 -30h-627v-613h760q31 0 31 -31v-30q0 -31 -31 -31h-821q-31 0 -31 31v1425q0 31 31 31h821q31 0 31 -31v-31q0 -31 -31 -30h-760v-598zM485 1878v98q0 35 37 35h78q33 0 33 -35v-98q0 -35 -33 -35h-78q-37 0 -37 35z" />
    <glyph glyph-name="edotaccent" unicode="&#x117;" horiz-adv-x="1003" 
d="M809 561v31q0 123 -83 204t-173 81h-78q-106 0 -189 -85t-83 -200v-31h606zM475 969h78q121 0 234.5 -108.5t113.5 -260.5v-82q0 -61 -61 -61h-637v-92q0 -111 83 -193t189 -82h76q137 0 256 141q23 27 43 9l24 -23q23 -20 7 -43q-143 -176 -328 -176h-78
q-137 0 -250.5 110.5t-113.5 256.5v233q0 145 113.5 258t250.5 113zM426 1354v98q0 35 37 35h78q33 0 32 -35v-98q0 -35 -32 -35h-78q-37 0 -37 35z" />
    <glyph glyph-name="Eogonek" unicode="&#x118;" horiz-adv-x="1126" 
d="M719 -233q1 -43 33 -43h274q20 0 21 -19v-70q0 -20 -21 -20h-246q-178 0 -178 154q0 94 34 119.5t139.5 38.5t123.5 26.5t16 46.5h-751q-31 0 -31 31v1425q0 31 31 31h821q31 0 31 -31v-31q0 -31 -31 -30h-760v-598h627q31 0 31 -31v-31q0 -31 -31 -30h-627v-613h760
q31 0 31 -31v-30l2 -4q18 -86 -14.5 -135.5t-104.5 -55.5q-29 -4 -63.5 -8t-56 -7t-41.5 -4t-19 -42v-8z" />
    <glyph glyph-name="eogonek" unicode="&#x119;" horiz-adv-x="1003" 
d="M203 561h606v31q0 123 -83 204t-173 81h-78q-106 0 -189 -85t-83 -200v-31zM401 -233q0 -43 33 -43h275q20 0 20 -19v-70q0 -20 -20 -20h-246q-178 0 -178 154q0 94 33.5 119.5t139.5 38.5t124 26.5t16 46.5q-14 -2 -45 -2h-78q-137 0 -250.5 110.5t-113.5 256.5v233
q0 145 113.5 258t250.5 113h78q121 0 234.5 -108.5t113.5 -260.5v-82q0 -61 -61 -61h-637v-92q0 -111 83 -193t189 -82h76q137 0 256 141q23 27 43 9l24 -23q23 -20 7 -43q-84 -102 -181 -147q18 -86 -14.5 -135.5t-103.5 -55.5q-29 -4 -64 -8t-56.5 -7t-35.5 -3
q-25 -2 -25 -43v-8z" />
    <glyph glyph-name="Ecaron" unicode="&#x11a;" horiz-adv-x="1126" 
d="M225 797h627q31 0 31 -31v-31q0 -31 -31 -30h-627v-613h760q31 0 31 -31v-30q0 -31 -31 -31h-821q-31 0 -31 31v1425q0 31 31 31h821q31 0 31 -31v-31q0 -31 -31 -30h-760v-598zM221 2163h58q18 0 47 -39l233 -299l232 299q29 39 47 39h57q16 0 21.5 -12.5t-5.5 -26.5
l-290 -367q-23 -33 -50 -33h-28q-24 0 -47 33l-291 367q-10 14 -5 26.5t21 12.5z" />
    <glyph glyph-name="ecaron" unicode="&#x11b;" horiz-adv-x="1003" 
d="M809 561v31q0 123 -83 204t-173 81h-78q-106 0 -189 -85t-83 -200v-31h606zM475 969h78q121 0 234.5 -108.5t113.5 -260.5v-82q0 -61 -61 -61h-637v-92q0 -111 83 -193t189 -82h76q137 0 256 141q23 27 43 9l24 -23q23 -20 7 -43q-143 -176 -328 -176h-78
q-137 0 -250.5 110.5t-113.5 256.5v233q0 145 113.5 258t250.5 113zM164 1638h57q18 0 47 -39l234 -299l231 299q29 39 47 39h58q16 0 21 -12t-5 -27l-291 -366q-23 -33 -49 -33h-29q-24 0 -47 33l-291 366q-10 14 -5 26.5t22 12.5z" />
    <glyph glyph-name="Gbreve" unicode="&#x11e;" horiz-adv-x="1185" 
d="M627 770h415q31 0 31 -31v-278q0 -197 -130 -342.5t-300 -145.5h-94q-174 0 -304 143.5t-130 340.5v565q0 197 132 342t302 145h94q164 0 294 -143t132 -330q0 -31 -31 -30h-30q-33 0 -33 30q0 152 -100.5 266.5t-231.5 114.5h-94q-137 0 -239.5 -116.5t-102.5 -278.5
v-565q0 -160 101.5 -275.5t240.5 -115.5h94q135 0 235.5 116.5t100.5 278.5v217h-352q-31 0 -31 31v30q0 31 31 31zM838 2163h41q31 0 30 -31q-8 -141 -83.5 -214t-207.5 -73h-69q-131 0 -207 74t-84 213q0 31 31 31h41q31 0 30 -31q8 -94 51.5 -139t133.5 -45h78
q92 0 134 45t50 139q0 31 31 31z" />
    <glyph glyph-name="gbreve" unicode="&#x11f;" horiz-adv-x="1001" 
d="M481 90h41q61 0 133 37t127 94v438q0 72 -83 144t-160 71h-84q-101 0 -181 -86t-79 -190v-233q0 -103 90 -189t196 -86zM797 963h51q31 0 31 -31v-1034q1 -115 -101 -211t-235 -97h-51q-96 0 -194 60t-148 151q-18 29 16 35h45q23 0 37 -20q38 -58 108 -96t142 -37h45
q71 0 155 59t84 145v199q-127 -88 -256 -88h-45q-135 0 -257 116t-122 251v233q0 137 110 253t243 116h84q113 0 235 -95l-6 62q-6 29 29 29zM756 1638h41q31 0 30 -30q-8 -141 -84 -214t-206 -73h-70q-131 0 -207 74t-84 213q0 31 31 30h41q31 0 31 -30q8 -94 51 -140
t133 -45h78q92 0 134 45t50 140q0 30 31 30z" />
    <glyph glyph-name="Gdotaccent" unicode="&#x120;" horiz-adv-x="1185" 
d="M627 770h415q31 0 31 -31v-278q0 -197 -130 -342.5t-300 -145.5h-94q-174 0 -304 143.5t-130 340.5v565q0 197 132 342t302 145h94q164 0 294 -143t132 -330q0 -31 -31 -30h-30q-33 0 -33 30q0 152 -100.5 266.5t-231.5 114.5h-94q-137 0 -239.5 -116.5t-102.5 -278.5
v-565q0 -160 101.5 -275.5t240.5 -115.5h94q135 0 235.5 116.5t100.5 278.5v217h-352q-31 0 -31 31v30q0 31 31 31zM510 1878v98q0 35 37 35h78q33 0 32 -35v-98q0 -35 -32 -35h-78q-37 0 -37 35z" />
    <glyph glyph-name="gdotaccent" unicode="&#x121;" horiz-adv-x="1001" 
d="M481 90h41q61 0 133 37t127 94v438q0 72 -83 144t-160 71h-84q-101 0 -181 -86t-79 -190v-233q0 -103 90 -189t196 -86zM797 963h51q31 0 31 -31v-1034q1 -115 -101 -211t-235 -97h-51q-96 0 -194 60t-148 151q-18 29 16 35h45q23 0 37 -20q38 -58 108 -96t142 -37h45
q71 0 155 59t84 145v199q-127 -88 -256 -88h-45q-135 0 -257 116t-122 251v233q0 137 110 253t243 116h84q113 0 235 -95l-6 62q-6 29 29 29zM428 1354v98q0 35 37 35h78q33 0 32 -35v-98q0 -35 -32 -35h-78q-37 0 -37 35z" />
    <glyph glyph-name="Gcommaaccent" unicode="&#x122;" horiz-adv-x="1185" 
d="M549 -307h96q31 0 31 -31v-184q0 -68 -4 -108t-27.5 -100.5t-71.5 -113.5q-18 -20 -41 0l-34 33q-27 25 -9 43q55 53 69.5 102.5t14.5 130.5l17 21h-41q-31 0 -31 31v145q0 31 31 31zM627 770h415q31 0 31 -31v-278q0 -197 -130 -342.5t-300 -145.5h-94
q-174 0 -304 143.5t-130 340.5v565q0 197 132 342t302 145h94q164 0 294 -143t132 -330q0 -31 -31 -30h-30q-33 0 -33 30q0 152 -100.5 266.5t-231.5 114.5h-94q-137 0 -239.5 -116.5t-102.5 -278.5v-565q0 -160 101.5 -275.5t240.5 -115.5h94q135 0 235.5 116.5
t100.5 278.5v217h-352q-31 0 -31 31v30q0 31 31 31z" />
    <glyph glyph-name="gcommaaccent" unicode="&#x123;" horiz-adv-x="1001" 
d="M481 90h41q61 0 133 37t127 94v438q0 72 -83 144t-160 71h-84q-101 0 -181 -86t-79 -190v-233q0 -103 90 -189t196 -86zM797 963h51q31 0 31 -31v-1034q1 -115 -101 -211t-235 -97h-51q-96 0 -194 60t-148 151q-18 29 16 35h45q23 0 37 -20q38 -58 108 -96t142 -37h45
q71 0 155 59t84 145v199q-127 -88 -256 -88h-45q-135 0 -257 116t-122 251v233q0 137 110 253t243 116h84q113 0 235 -95l-6 62q-6 29 29 29zM524 1280h-96q-31 0 -31 31v184q0 70 3 108t27 99t71 115q20 23 41 0l36 -33q27 -27 9 -43q-56 -53 -70 -101t-14 -133l-17 -20h41
q31 0 31 -31v-145q0 -31 -31 -31z" />
    <glyph glyph-name="Hbar" unicode="&#x126;" horiz-adv-x="1236" 
d="M238 756h759v413h-759v-413zM1028 1487h31q31 0 31 -31v-1425q0 -31 -31 -31h-31q-31 0 -31 31v633h-759v-633q0 -31 -31 -31h-31q-31 0 -31 31v1425q0 31 31 31h31q31 0 31 -31v-196h759v196q0 31 31 31z" />
    <glyph glyph-name="hbar" unicode="&#x127;" horiz-adv-x="1196" 
d="M653 963h76q141 0 243 -113t101 -254v-565q0 -31 -31 -31h-30q-31 0 -31 31v565q0 106 -71 190t-181 84h-74q-86 0 -170 -60t-86 -126v-653q0 -31 -30 -31h-31q-31 0 -31 31v1128h-123q-31 0 -30 31v29q0 31 30 30h123v207q0 31 31 31h31q31 0 30 -31v-207h293
q31 0 31 -30v-29q0 -31 -31 -31h-293v-307q115 111 254 111z" />
    <glyph glyph-name="Imacron" unicode="&#x12a;" horiz-adv-x="444" 
d="M176 31v1425q0 31 31 31h31q31 0 30 -31v-1425q0 -31 -30 -31h-31q-31 0 -31 31zM553 1919h-664q-31 0 -30 31v30q0 31 30 31h664q31 0 31 -31v-30q0 -31 -31 -31z" />
    <glyph glyph-name="imacron" unicode="&#x12b;" horiz-adv-x="419" 
d="M164 31v903q0 31 31 31h30q31 0 31 -31v-903q0 -31 -31 -31h-30q-31 0 -31 31zM541 1395h-664q-31 0 -31 30v31q0 31 31 31h664q31 0 30 -31v-31q1 -30 -30 -30z" />
    <glyph glyph-name="Iogonek" unicode="&#x12e;" horiz-adv-x="444" 
d="M-25 -233q0 -43 33 -43h275q20 0 20 -19v-70q0 -20 -20 -20h-246q-178 0 -178 154q0 94 36 122t131 36q94 8 105 14q13 6 23 11t16 24t1 39t5 24v1417q0 31 31 31h31q31 0 30 -31v-1419q6 -6 6 -10q18 -86 -14 -136q-33 -49 -104 -55q-27 -4 -63 -8q-37 -4 -59 -7t-40 -4
t-19 -40v-10z" />
    <glyph glyph-name="iogonek" unicode="&#x12f;" horiz-adv-x="419" 
d="M-35 -233q0 -43 33 -43h274q20 0 21 -19v-70q0 -20 -21 -20h-245q-178 0 -179 154q0 94 37 122t148 38q110 10 123 34q11 32 2 64q0 10 6 12v895q0 31 31 31h30q31 0 31 -31v-897q8 -4 8 -10q18 -86 -14 -136q-33 -49 -105 -55q-27 -4 -63 -8t-58 -7t-40 -4t-19 -40v-10z
M252 1319h-78q-37 0 -37 35v98q0 35 37 35h78q33 0 33 -35v-98q0 -35 -33 -35z" />
    <glyph glyph-name="Idotaccent" unicode="&#x130;" horiz-adv-x="444" 
d="M176 31v1425q0 31 31 31h31q31 0 30 -31v-1425q0 -31 -30 -31h-31q-31 0 -31 31zM150 1878v98q0 35 36 35h78q33 0 33 -35v-98q0 -35 -33 -35h-78q-36 0 -36 35z" />
    <glyph glyph-name="dotlessi" unicode="&#x131;" horiz-adv-x="419" 
d="M164 31v903q0 31 31 31h30q31 0 31 -31v-903q0 -31 -31 -31h-30q-31 0 -31 31z" />
    <glyph glyph-name="IJ" unicode="&#x132;" horiz-adv-x="1507" 
d="M969 78q129 0 226 112t97 273v993q0 31 31 31h31q31 0 30 -31v-989q0 -197 -126 -339t-293 -142h-50q-123 0 -229 82t-156 211q-12 26 17 40l39 9q31 10 37 -19q33 -98 117 -165t175 -66h54zM176 31v1425q0 31 31 31h31q31 0 30 -31v-1425q0 -31 -30 -31h-31
q-31 0 -31 31z" />
    <glyph glyph-name="ij" unicode="&#x133;" horiz-adv-x="825" 
d="M571 -106v1040q0 31 31 31h31q31 0 31 -31v-1032q0 -78 -60 -156t-147 -113q-29 -10 -39 21l-6 37q-10 27 18 37q57 20 99 64t42 102zM162 31v903q0 31 31 31h30q31 0 31 -31v-903q0 -31 -31 -31h-30q-31 0 -31 31zM551 1374v82q0 31 31 31h63q31 0 31 -31v-82
q0 -31 -31 -31h-63q-31 0 -31 31zM145 1374v82q0 31 31 31h64q31 0 30 -31v-82q0 -31 -30 -31h-64q-31 0 -31 31z" />
    <glyph glyph-name="Kcommaaccent" unicode="&#x136;" horiz-adv-x="1165" 
d="M555 -307h96q31 0 31 -31v-184q0 -68 -4 -108t-27.5 -100.5t-70.5 -113.5q-18 -20 -41 0l-35 33q-25 25 -8 43q55 53 69.5 102.5t14.5 130.5l16 21h-41q-31 0 -31 31v145q0 31 31 31zM1061 0h-45q-25 0 -55 29l-662 606l-84 -90v-514q0 -31 -31 -31h-30q-31 0 -31 31
v1425q0 31 31 31h30q31 0 31 -31v-758l696 760q29 29 39 29h56q16 0 20 -15.5t-12 -35.5l-656 -719l715 -668q12 -12 9 -30.5t-21 -18.5z" />
    <glyph glyph-name="kcommaaccent" unicode="&#x137;" horiz-adv-x="1050" 
d="M446 -307h97q31 0 30 -31v-184q0 -68 -4 -108t-27.5 -100.5t-70.5 -113.5q-18 -20 -41 0l-35 33q-27 25 -8 43q55 53 69.5 102.5t14.5 130.5l16 21h-41q-31 0 -30 31v145q-1 31 30 31zM174 1487h31q31 0 31 -31v-979l522 461q29 25 45 25h51q10 0 17.5 -10.5t5 -27
t-18.5 -28.5l-395 -348l452 -502q14 -14 11.5 -30.5t-23.5 -16.5h-47q-29 0 -55 29l-420 460l-145 -122v-336q0 -31 -31 -31h-31q-31 0 -31 31v1425q0 31 31 31z" />
    <glyph glyph-name="Lacute" unicode="&#x139;" horiz-adv-x="1169" 
d="M254 92h760q31 0 30 -31v-30q0 -31 -30 -31h-821q-31 0 -31 31v1425q0 31 31 31h30q31 0 31 -31v-1364zM360 2163h60q39 0 20 -37l-178 -379q-20 -37 -43 -37h-35q-36 0 -20 37l153 379q12 37 43 37z" />
    <glyph glyph-name="lacute" unicode="&#x13a;" horiz-adv-x="419" 
d="M164 31v1425q0 31 31 31h30q31 0 31 -31v-1425q0 -31 -31 -31h-30q-31 0 -31 31zM360 2163h60q39 0 20 -37l-178 -379q-20 -37 -43 -37h-35q-36 0 -20 37l153 379q12 37 43 37z" />
    <glyph glyph-name="Lcommaaccent" unicode="&#x13b;" horiz-adv-x="1169" 
d="M555 -307h96q31 0 31 -31v-184q0 -68 -4 -108t-27.5 -100.5t-70.5 -113.5q-18 -20 -41 0l-35 33q-25 25 -8 43q55 53 69.5 102.5t14.5 130.5l16 21h-41q-31 0 -31 31v145q0 31 31 31zM254 92h760q31 0 30 -31v-30q0 -31 -30 -31h-821q-31 0 -31 31v1425q0 31 31 31h30
q31 0 31 -31v-1364z" />
    <glyph glyph-name="lcommaaccent" unicode="&#x13c;" horiz-adv-x="419" 
d="M176 -307h96q31 0 31 -31v-184q0 -68 -4 -108t-27.5 -100.5t-70.5 -113.5q-18 -20 -41 0l-35 33q-27 25 -8 43q55 53 69.5 102.5t14.5 130.5l16 21h-41q-31 0 -31 31v145q0 31 31 31zM164 31v1425q0 31 31 31h30q31 0 31 -31v-1425q0 -31 -31 -31h-30q-31 0 -31 31z" />
    <glyph glyph-name="Lcaron" unicode="&#x13d;" horiz-adv-x="1169" 
d="M475 1487h96q31 0 31 -31v-184q0 -68 -4 -107t-27.5 -99t-70.5 -114q-18 -20 -41 0l-35 31q-27 25 -8 43q55 53 69.5 102.5t14.5 131.5l16 20h-41q-31 0 -31 31v145q0 31 31 31zM254 92h760q31 0 30 -31v-30q0 -31 -30 -31h-821q-31 0 -31 31v1425q0 31 31 31h30
q31 0 31 -31v-1364z" />
    <glyph glyph-name="lcaron" unicode="&#x13e;" horiz-adv-x="708" 
d="M420 1487h96q31 0 31 -31v-184q0 -68 -4 -107t-27.5 -99t-71.5 -114q-18 -20 -41 0l-34 31q-25 25 -9 43q55 53 69.5 102.5t14.5 131.5l17 20h-41q-31 0 -31 31v145q0 31 31 31zM164 31v1425q0 31 31 31h30q31 0 31 -31v-1425q0 -31 -31 -31h-30q-31 0 -31 31z" />
    <glyph glyph-name="Ldot" unicode="&#x13f;" horiz-adv-x="1169" 
d="M559 848v84q0 31 31 31h61q31 0 31 -31v-84q0 -31 -31 -31h-61q-31 0 -31 31zM254 92h760q31 0 30 -31v-30q0 -31 -30 -31h-821q-31 0 -31 31v1425q0 31 31 31h30q31 0 31 -31v-1364z" />
    <glyph glyph-name="ldot" unicode="&#x140;" horiz-adv-x="649" 
d="M426 850v84q0 31 31 31h59q31 0 31 -31v-84q0 -31 -31 -31h-59q-31 0 -31 31zM164 31v1425q0 31 31 31h30q31 0 31 -31v-1425q0 -31 -31 -31h-30q-31 0 -31 31z" />
    <glyph glyph-name="Lslash" unicode="&#x141;" horiz-adv-x="1236" 
d="M385 92h760q31 0 31 -31v-30q0 -31 -31 -31h-821q-31 0 -31 31v415l-115 -149q-27 -35 -47 -35h-55q-18 0 -25.5 10.5t4.5 26.5l238 309v848q0 31 31 31h30q31 0 31 -31v-729l154 201q27 35 47 35h55q18 0 24.5 -10.5t-6.5 -26.5l-274 -359v-475z" />
    <glyph glyph-name="lslash" unicode="&#x142;" horiz-adv-x="720" 
d="M475 963h55q18 -1 24 -11t-5 -26l-143 -187v-708q0 -31 -31 -31h-31q-31 0 -31 31v587l-20 -26q-25 -35 -47 -35h-56q-18 0 -24 10t4 27l143 186v676q0 31 31 31h31q31 0 31 -31v-557l22 29q29 35 47 35z" />
    <glyph glyph-name="Nacute" unicode="&#x143;" horiz-adv-x="1290" 
d="M1098 1487h30q31 0 31 -31v-1425q0 -31 -31 -31h-127q-27 0 -36 23l-740 1437v-1429q0 -31 -30 -31h-31q-31 0 -31 31v1425q0 31 31 31h129q27 0 37 -23l737 -1437v1429q0 31 31 31zM797 2163h59q39 0 21 -37l-179 -379q-20 -37 -43 -37h-34q-37 0 -21 37l154 379
q12 37 43 37z" />
    <glyph glyph-name="nacute" unicode="&#x144;" horiz-adv-x="1032" 
d="M471 963h86q139 0 245.5 -115t106.5 -252v-565q0 -31 -30 -31h-31q-31 0 -31 31v565q0 109 -69.5 191.5t-180.5 82.5h-84q-86 0 -169 -59t-85 -125v-655q0 -31 -30 -31h-31q-31 0 -31 31v901q0 31 31 31h31q31 0 30 -31v-55q121 86 242 86zM735 1638q39 0 21 -36
l-178 -379q-20 -37 -43 -37h-35q-37 0 -21 37l154 379q12 37 43 36h59z" />
    <glyph glyph-name="Ncommaaccent" unicode="&#x145;" horiz-adv-x="1290" 
d="M612 -307h97q31 0 30 -31v-184q0 -68 -4 -108t-27.5 -100.5t-70.5 -113.5q-18 -20 -41 0l-35 33q-25 25 -8 43q55 53 69.5 102.5t14.5 130.5l16 21h-41q-31 0 -30 31v145q-1 31 30 31zM1098 1487h30q31 0 31 -31v-1425q0 -31 -31 -31h-127q-27 0 -36 23l-740 1437v-1429
q0 -31 -30 -31h-31q-31 0 -31 31v1425q0 31 31 31h129q27 0 37 -23l737 -1437v1429q0 31 31 31z" />
    <glyph glyph-name="ncommaaccent" unicode="&#x146;" horiz-adv-x="1032" 
d="M492 -307h96q31 0 30 -31v-184q0 -68 -4 -108t-27.5 -100.5t-70.5 -113.5q-18 -20 -41 0l-35 33q-27 25 -8 43q55 53 69.5 102.5t14.5 130.5l16 21h-40q-31 0 -31 31v145q0 31 31 31zM471 963h86q139 0 245.5 -115t106.5 -252v-565q0 -31 -30 -31h-31q-31 0 -31 31v565
q0 109 -69.5 191.5t-180.5 82.5h-84q-86 0 -169 -59t-85 -125v-655q0 -31 -30 -31h-31q-31 0 -31 31v901q0 31 31 31h31q31 0 30 -31v-55q121 86 242 86z" />
    <glyph glyph-name="Ncaron" unicode="&#x147;" horiz-adv-x="1290" 
d="M1098 1487h30q31 0 31 -31v-1425q0 -31 -31 -31h-127q-27 0 -36 23l-740 1437v-1429q0 -31 -30 -31h-31q-31 0 -31 31v1425q0 31 31 31h129q27 0 37 -23l737 -1437v1429q0 31 31 31zM311 2163h58q18 0 47 -39l233 -299l232 299q29 39 47 39h57q16 0 21.5 -12.5
t-5.5 -26.5l-290 -367q-23 -33 -49 -33h-29q-24 0 -47 33l-291 367q-10 14 -5 26.5t21 12.5z" />
    <glyph glyph-name="ncaron" unicode="&#x148;" horiz-adv-x="1032" 
d="M471 963h86q139 0 245.5 -115t106.5 -252v-565q0 -31 -30 -31h-31q-31 0 -31 31v565q0 109 -69.5 191.5t-180.5 82.5h-84q-86 0 -169 -59t-85 -125v-655q0 -31 -30 -31h-31q-31 0 -31 31v901q0 31 31 31h31q31 0 30 -31v-55q121 86 242 86zM188 1638h58q18 0 47 -39
l233 -299l232 299q29 39 47 39h57q16 0 21.5 -12t-4.5 -27l-291 -366q-23 -33 -49 -33h-29q-24 0 -47 33l-291 366q-10 14 -5 26.5t21 12.5z" />
    <glyph glyph-name="Eng" unicode="&#x14a;" horiz-adv-x="1155" 
d="M965 1487h30q31 0 31 -31v-1366q0 -197 -127 -339t-295 -142h-47q-121 0 -250 86q-29 20 -2 43l19 31q25 25 45 4q86 -72 188 -72h53q125 0 221 106t103 263l-709 1392v-1431q0 -31 -30 -31h-31q-31 0 -31 31v1425q0 31 31 31h129q27 0 37 -23l604 -1188v1180q0 31 31 31
z" />
    <glyph glyph-name="eng" unicode="&#x14b;" horiz-adv-x="1058" 
d="M471 963h86q139 0 245.5 -115t106.5 -252v-565q0 -18 -12 -27q-35 -174 -154.5 -290.5t-257.5 -102.5q-31 2 -24 35l28 37q10 27 37 24q123 -2 207 118t84 292v479q0 109 -69.5 191.5t-180.5 82.5h-84q-86 0 -169 -59t-85 -125v-655q0 -31 -30 -31h-31q-31 0 -31 31v901
q0 31 31 31h31q31 0 30 -31v-55q121 86 242 86z" />
    <glyph glyph-name="Omacron" unicode="&#x14c;" horiz-adv-x="1198" 
d="M553 82h92q141 0 240 115q98 115 98 286v533q0 172 -98 287t-240 114h-92q-143 0 -241 -114q-97 -115 -97 -287v-533q-1 -173 97 -287t241 -114zM553 1509h92q176 0 303 -143t127 -346v-541q0 -203 -127 -347t-303 -144h-92q-176 0 -303 144t-127 347v541q0 203 127 346
t303 143zM930 1919h-664q-31 0 -30 31v30q0 31 30 31h664q31 0 31 -31v-30q0 -31 -31 -31z" />
    <glyph glyph-name="omacron" unicode="&#x14d;" horiz-adv-x="1038" 
d="M834 391v182q0 125 -79 214t-196 90h-78q-121 1 -199 -89t-77 -215v-182q0 -125 78 -213t198 -88h78q117 0 196 88t79 213zM479 969h80q151 0 259 -120t108 -276v-182q0 -157 -109 -275t-258 -118h-80q-151 0 -259 119t-107 274v182q0 158 107 277t259 119zM852 1395
h-664q-31 0 -30 30v31q0 31 30 31h664q31 0 31 -31v-31q0 -30 -31 -30z" />
    <glyph glyph-name="Ohungarumlaut" unicode="&#x150;" horiz-adv-x="1198" 
d="M553 82h92q141 0 240 115q98 115 98 286v533q0 172 -98 287t-240 114h-92q-143 0 -241 -114q-97 -115 -97 -287v-533q-1 -173 97 -287t241 -114zM553 1509h92q176 0 303 -143t127 -346v-541q0 -203 -127 -347t-303 -144h-92q-176 0 -303 144t-127 347v541q0 203 127 346
t303 143zM901 2163h60q39 0 20 -37l-178 -379q-20 -37 -43 -37h-35q-36 0 -20 37l153 379q12 37 43 37zM567 2163h60q39 0 20 -37l-178 -379q-20 -37 -43 -37h-35q-36 0 -20 37l153 379q12 37 43 37z" />
    <glyph glyph-name="ohungarumlaut" unicode="&#x151;" horiz-adv-x="1038" 
d="M834 391v182q0 125 -79 214t-196 90h-78q-121 1 -199 -89t-77 -215v-182q0 -125 78 -213t198 -88h78q117 0 196 88t79 213zM479 969h80q151 0 259 -120t108 -276v-182q0 -157 -109 -275t-258 -118h-80q-151 0 -259 119t-107 274v182q0 158 107 277t259 119zM883 1638
q39 0 20 -36l-178 -379q-20 -37 -43 -37h-35q-36 0 -20 37l153 379q12 37 43 36h60zM549 1638q39 0 20 -36l-178 -379q-20 -37 -43 -37h-35q-36 0 -20 37l153 379q12 37 43 36h60z" />
    <glyph glyph-name="OE" unicode="&#x152;" horiz-adv-x="1988" 
d="M983 483v533q0 172 -98.5 286.5t-239.5 114.5h-92q-143 0 -240.5 -114.5t-97.5 -286.5v-533q0 -172 97.5 -286.5t240.5 -114.5h92q141 0 239.5 114.5t98.5 286.5zM1087 1395v-598h627q31 0 31 -31v-31q0 -31 -31 -30h-627v-613h760q31 0 31 -31v-30q0 -31 -31 -31h-821
q-31 0 -31 31v164q-59 -96 -151 -151.5t-199 -55.5h-92q-176 0 -303 144t-127 347v541q0 203 127 346t303 143h92q106 0 198.5 -55t151.5 -151v153q0 31 31 31h821q31 0 31 -31v-31q0 -31 -31 -30h-760z" />
    <glyph glyph-name="oe" unicode="&#x153;" horiz-adv-x="1726" 
d="M926 561h606v31q0 123 -83 204t-171 81h-78q-109 0 -191.5 -85t-82.5 -200v-31zM481 90h78q117 0 196 88t79 213v182q0 125 -79 214.5t-196 89.5h-78q-121 0 -198.5 -89.5t-77.5 -214.5v-182q0 -125 77.5 -213t198.5 -88zM926 457v-92q0 -111 84 -193t190 -82h74
q135 0 258 141q23 25 41 9l26 -23q23 -20 7 -43q-143 -176 -330 -176h-78q-94 0 -183 56.5t-138 146.5q-49 -90 -133.5 -146.5t-184.5 -56.5h-80q-152 0 -259 119t-107 274v182q0 158 107.5 277t258.5 119h80q100 0 185 -56.5t135 -148.5q49 90 138 147.5t181 57.5h78
q121 0 234.5 -108.5t113.5 -260.5v-82q0 -61 -61 -61h-637z" />
    <glyph glyph-name="Racute" unicode="&#x154;" horiz-adv-x="1161" 
d="M213 745h430q303 0 303 325t-303 325h-430v-650zM1047 373v-342q0 -31 -31 -31h-31q-31 0 -31 31v350q0 272 -282 272h-459v-622q0 -31 -31 -31h-30q-31 0 -31 31v1425q0 31 31 31h487q184 0 291.5 -111.5t107.5 -306.5q0 -260 -184 -364q193 -90 193 -332zM578 1710h-35
q-37 0 -21 37l154 379q12 37 43 37h59q39 0 21 -37l-178 -379q-20 -37 -43 -37z" />
    <glyph glyph-name="racute" unicode="&#x155;" horiz-adv-x="835" 
d="M561 877h-82q-84 0 -168 -62.5t-86 -128.5v-655q0 -31 -30 -31h-31q-31 0 -31 31v901q0 31 31 31h31q31 0 30 -31v-55q129 92 242 92h74q129 0 233 -105q23 -22 0 -45l-18 -16q-23 -23 -43 2q-68 72 -152 72zM649 1638q39 0 21 -36l-178 -379q-20 -37 -43 -37h-35
q-37 0 -21 37l154 379q12 37 43 36h59z" />
    <glyph glyph-name="Rcommaaccent" unicode="&#x156;" horiz-adv-x="1161" 
d="M535 -307h96q31 0 31 -31v-184q0 -68 -4.5 -108t-28 -100.5t-70.5 -113.5q-18 -20 -41 0l-35 33q-25 25 -8 43q55 53 69.5 102.5t14.5 130.5l16 21h-40q-31 0 -31 31v145q0 31 31 31zM213 745h430q303 0 303 325t-303 325h-430v-650zM1047 373v-342q0 -31 -31 -31h-31
q-31 0 -31 31v350q0 272 -282 272h-459v-622q0 -31 -31 -31h-30q-31 0 -31 31v1425q0 31 31 31h487q184 0 291.5 -111.5t107.5 -306.5q0 -260 -184 -364q193 -90 193 -332z" />
    <glyph glyph-name="rcommaaccent" unicode="&#x157;" horiz-adv-x="835" 
d="M147 -307h97q31 0 30 -31v-184q0 -68 -4 -108t-27.5 -100.5t-70.5 -113.5q-18 -20 -41 0l-35 33q-27 25 -8 43q55 53 69.5 102.5t14.5 130.5l16 21h-41q-31 0 -30 31v145q-1 31 30 31zM561 877h-82q-84 0 -168 -62.5t-86 -128.5v-655q0 -31 -30 -31h-31q-31 0 -31 31v901
q0 31 31 31h31q31 0 30 -31v-55q129 92 242 92h74q129 0 233 -105q23 -22 0 -45l-18 -16q-23 -23 -43 2q-68 72 -152 72z" />
    <glyph glyph-name="Rcaron" unicode="&#x158;" horiz-adv-x="1161" 
d="M213 745h430q303 0 303 325t-303 325h-430v-650zM1047 373v-342q0 -31 -31 -31h-31q-31 0 -31 31v350q0 272 -282 272h-459v-622q0 -31 -31 -31h-30q-31 0 -31 31v1425q0 31 31 31h487q184 0 291.5 -111.5t107.5 -306.5q0 -260 -184 -364q193 -90 193 -332zM231 2163h58
q18 0 47 -39l233 -299l232 299q29 39 47 39h57q16 0 21.5 -12.5t-4.5 -26.5l-291 -367q-23 -33 -49 -33h-29q-24 0 -47 33l-291 367q-10 14 -5 26.5t21 12.5z" />
    <glyph glyph-name="rcaron" unicode="&#x159;" horiz-adv-x="835" 
d="M561 877h-82q-84 0 -168 -62.5t-86 -128.5v-655q0 -31 -30 -31h-31q-31 0 -31 31v901q0 31 31 31h31q31 0 30 -31v-55q129 92 242 92h74q129 0 233 -105q23 -22 0 -45l-18 -16q-23 -23 -43 2q-68 72 -152 72zM102 1638h58q18 0 47 -39l233 -299l232 299q29 39 47 39h57
q16 0 21.5 -12t-4.5 -27l-291 -366q-23 -33 -49 -33h-29q-24 0 -47 33l-291 366q-10 14 -5 26.5t21 12.5z" />
    <glyph glyph-name="Sacute" unicode="&#x15a;" horiz-adv-x="1179" 
d="M524 1509h107q168 0 294 -121.5t126 -308.5v-32q0 -31 -31 -31h-33q-31 0 -31 31v32q0 156 -95 247t-230 91h-107q-139 0 -225 -78.5t-86 -226t84 -210t242 -91.5l106 -20q197 -39 309.5 -127.5t112.5 -271.5t-127 -300t-303 -117h-94q-172 0 -301 116t-129 296v55
q0 31 30 31h33q31 0 31 -31l2 -55q4 -150 100.5 -233.5t233.5 -83.5h94q143 0 240.5 87t97.5 242t-96 215q-96 59 -232 84l-106 21q-199 37 -309.5 126t-110.5 266t115.5 287.5t287.5 110.5zM739 2163h60q39 0 20 -37l-178 -379q-20 -37 -43 -37h-35q-36 0 -20 37l153 379
q12 37 43 37z" />
    <glyph glyph-name="sacute" unicode="&#x15b;" horiz-adv-x="970" 
d="M795 643q-39 0 -35 25q-2 92 -80 151.5t-172 59.5h-39q-270 0 -270 -193q-1 -68 41 -94q26 -16 42.5 -25.5t63.5 -18.5t142 -22q170 -24 266 -66q116 -52 116 -180.5t-111.5 -209t-250.5 -80.5h-55q-117 0 -228.5 78.5t-122.5 189.5q-4 31 31 31h35q31 0 31 -29
q8 -78 88 -128t168 -50h47q115 0 195.5 50t80.5 128t-25.5 99.5t-38 31.5t-49 18.5t-50 10.5t-62.5 7t-99 11q-136 16 -242 68t-106 181.5t105.5 206.5t249.5 77h45q123 0 233.5 -86t116.5 -209q0 -33 -29 -33h-32zM694 1638q39 0 21 -36l-178 -379q-20 -37 -43 -37h-35
q-37 0 -21 37l154 379q12 37 43 36h59z" />
    <glyph glyph-name="Scedilla" unicode="&#x15e;" horiz-adv-x="1179" 
d="M637 -25h-12q-25 -44 -17 -55.5t12 -14.5q15 -13 79.5 -18.5t74.5 -8.5t36 -9t35 -15.5t27.5 -27.5t18.5 -90q0 -150 -178 -150h-76q-84 0 -131 47.5t-49 124.5q0 20 18 21h66q20 0 20 -17q2 -68 101 -67h47q29 0 43 2q32 4 32 41t-41 49t-194 29q-47 5 -61 68
q-8 36 32 91q-166 10 -286.5 124t-120.5 288v55q0 31 30 31h33q31 0 31 -31l2 -55q4 -150 100.5 -233.5t233.5 -83.5h94q143 0 240.5 87t97.5 242t-95.5 214.5t-232.5 84.5l-106 21q-199 37 -309.5 126t-110.5 266t115.5 287.5t287.5 110.5h107q168 0 294 -121.5t126 -308.5
v-32q0 -31 -31 -31h-33q-31 0 -31 31v32q0 156 -95 247t-230 91h-107q-139 0 -225 -78.5t-86 -226t84 -210t242 -91.5l106 -20q197 -39 309.5 -127.5t112.5 -271.5t-127 -300t-303 -117z" />
    <glyph glyph-name="scedilla" unicode="&#x15f;" horiz-adv-x="970" 
d="M795 643q-39 0 -35 25q-2 92 -80 151.5t-172 59.5h-39q-270 0 -270 -193q-1 -68 41 -94q26 -16 42.5 -25.5t63.5 -18.5q48 -9 66 -11q18 -3 94 -13q154 -22 248 -64q116 -52 116 -178.5t-103 -205t-239 -86.5q-21 -29 -22.5 -44.5t-2.5 -22.5t6 -12t9 -8q6 -9 29 -9
l33 -5q8 -2 43.5 -5t46 -6t36.5 -9q24 -5 34 -15l24 -24q22 -22 22 -94t-40.5 -111t-137.5 -39h-76q-84 0 -131 47.5t-49 124.5q0 20 19 21h65q20 0 21 -17q2 -68 100 -67h48q29 0 43 2q32 4 32 41t-41 49t-195 29q-81 16 -54 108q9 30 36 68q-113 10 -213 86t-111 180
q-4 31 31 31h35q31 0 31 -29q8 -78 88 -128t168 -50h47q115 0 195.5 50t80.5 128t-25.5 99.5t-38 31.5t-49 18.5t-50 10.5t-62.5 7t-99 11q-136 16 -242 68t-106 181.5t105.5 206.5t249.5 77h45q123 0 233.5 -86t116.5 -209q0 -33 -29 -33h-32z" />
    <glyph glyph-name="Scaron" unicode="&#x160;" horiz-adv-x="1179" 
d="M524 1509h107q168 0 294 -121.5t126 -308.5v-32q0 -31 -31 -31h-33q-31 0 -31 31v32q0 156 -95 247t-230 91h-107q-139 0 -225 -78.5t-86 -226t84 -210t242 -91.5l106 -20q197 -39 309.5 -127.5t112.5 -271.5t-127 -300t-303 -117h-94q-172 0 -301 116t-129 296v55
q0 31 30 31h33q31 0 31 -31l2 -55q4 -150 100.5 -233.5t233.5 -83.5h94q143 0 240.5 87t97.5 242t-96 215q-96 59 -232 84l-106 21q-199 37 -309.5 126t-110.5 266t115.5 287.5t287.5 110.5zM254 2163h57q18 0 47 -39l234 -299l231 299q29 39 47 39h58q16 0 21 -12.5
t-5 -26.5l-291 -367q-23 -33 -49 -33h-29q-24 0 -47 33l-290 367q-10 14 -5 26.5t21 12.5z" />
    <glyph glyph-name="scaron" unicode="&#x161;" horiz-adv-x="970" 
d="M795 643q-39 0 -35 25q-2 92 -80 151.5t-172 59.5h-39q-270 0 -270 -193q-1 -68 41 -94q26 -16 42.5 -25.5t63.5 -18.5t142 -22q170 -24 266 -66q116 -52 116 -180.5t-111.5 -209t-250.5 -80.5h-55q-117 0 -228.5 78.5t-122.5 189.5q-4 31 31 31h35q31 0 31 -29
q8 -78 88 -128t168 -50h47q115 0 195.5 50t80.5 128t-25.5 99.5t-38 31.5t-49 18.5t-50 10.5t-62.5 7t-99 11q-136 16 -242 68t-106 181.5t105.5 206.5t249.5 77h45q123 0 233.5 -86t116.5 -209q0 -33 -29 -33h-32zM150 1638h57q18 0 47 -39l233 -299l232 299q29 39 47 39
h57q16 0 21.5 -12t-4.5 -27l-291 -366q-23 -33 -49 -33h-29q-24 0 -47 33l-291 366q-10 14 -5 26.5t22 12.5z" />
    <glyph glyph-name="Tcedilla" unicode="&#x162;" horiz-adv-x="1089" 
d="M444 -99q0 51 60 111q-4 8 -4 19v1364h-406q-31 0 -31 30v31q0 31 31 31h899q31 0 31 -31v-31q0 -31 -31 -30h-401v-1364q0 -8 -4 -17q12 -6 4 -18t-15.5 -25.5t-11.5 -22.5t-3 -17.5t2 -13.5t8.5 -9t11 -9t25.5 -5l30 -5q8 -2 44 -5t46 -6t36 -9t35 -15.5t27.5 -27.5
t18.5 -90q0 -150 -178 -150h-76q-84 0 -131 47.5t-49 124.5q0 20 18 21h66q20 0 20 -17q2 -68 100 -67h48q28 0 42 2q32 4 32.5 41t-40.5 49t-194 29q-60 6 -60 85z" />
    <glyph glyph-name="tcedilla" unicode="&#x163;" horiz-adv-x="600" 
d="M756 -264q0 -150 -178 -150h-76q-84 0 -131 47.5t-49 124.5q0 20 18 21h66q20 0 20 -17q2 -68 100 -67h48q28 0 42 2q32 4 32.5 41t-40.5 49t-194 29q-20 2 -40 18t-20 64.5t52 107.5q-80 23 -135.5 89.5t-55.5 174.5v600h-113q-31 0 -30 31v29q0 33 30 33h113v213
q0 31 31 30h30q31 0 31 -30v-213h152q33 0 33 -31v-31q0 -31 -31 -31h-154v-618q0 -150 172 -156q33 0 33 -26l2 -41q0 -11 -10 -28t-17.5 -30.5t-11.5 -22.5t-3 -17.5t2 -13.5t8 -9t11 -9t26 -5l30 -5q8 -2 44 -5t46 -6t35.5 -9t35 -15.5t28 -27.5t18.5 -90z" />
    <glyph glyph-name="Tcaron" unicode="&#x164;" horiz-adv-x="1089" 
d="M94 1487h899q31 0 31 -31v-31q0 -31 -31 -30h-401v-1364q0 -31 -31 -31h-31q-31 0 -30 31v1364h-406q-31 0 -31 30v31q0 31 31 31zM207 2163h57q18 0 47 -39l234 -299l231 299q29 39 47 39h58q16 0 21 -12.5t-5 -26.5l-291 -367q-23 -33 -49 -33h-29q-24 0 -47 33
l-291 367q-10 14 -5 26.5t22 12.5z" />
    <glyph glyph-name="tcaron" unicode="&#x165;" horiz-adv-x="638" 
d="M215 270v600h-113q-31 0 -30 31v29q0 33 30 33h113v213q0 31 31 30h30q31 0 31 -30v-213h152q33 0 33 -31v-31q0 -31 -31 -31h-154v-618q0 -150 172 -156q33 0 33 -26l2 -41q0 -33 -27 -33q-98 -6 -185 65.5t-87 208.5zM422 1640h96q31 0 31 -30v-185q0 -68 -4 -106.5
t-27.5 -99t-71.5 -113.5q-18 -20 -40 0l-35 31q-27 27 -9 43q55 53 69.5 102t14.5 131l17 21h-41q-31 0 -31 30v146q0 30 31 30z" />
    <glyph glyph-name="Tbar" unicode="&#x166;" horiz-adv-x="1089" 
d="M94 1487h899q31 0 31 -31v-31q0 -31 -31 -30h-401v-432h303q31 0 31 -31v-31q0 -31 -31 -31h-303v-839q0 -31 -31 -31h-31q-31 0 -30 31v839h-269q-31 0 -30 31v31q0 31 30 31h269v432h-406q-31 0 -31 30v31q0 31 31 31z" />
    <glyph glyph-name="tbar" unicode="&#x167;" horiz-adv-x="600" 
d="M215 270v328h-113q-31 0 -30 31v30q0 31 30 31h113v180h-113q-31 0 -30 31v29q0 33 30 33h113v213q0 31 31 30h30q31 0 31 -30v-213h152q33 0 33 -31v-31q0 -31 -31 -31h-154v-180h150q31 0 30 -31v-30q0 -31 -30 -31h-150v-346q0 -150 172 -156q33 1 33 -26l2 -41
q0 -33 -27 -33q-98 -6 -185 65.5t-87 208.5z" />
    <glyph glyph-name="Utilde" unicode="&#x168;" horiz-adv-x="1167" 
d="M995 1487h31q31 0 31 -31v-1010q0 -200 -125 -330t-322 -130h-53q-197 0 -321 131t-125 329v1010q0 31 30 31h31q31 0 31 -31v-1020q0 -166 97 -262t257 -96h53q160 0 257 96t98 262v1020q-1 31 30 31zM752 1841q-74 1 -178 67t-149 64q-46 -2 -155 -74q-20 -14 -34 17
l-19 35q-12 23 21 45q100 73 174 73t178 -65t149 -63t154 73q21 15 35 -16l18 -35q12 -23 -20 -45q-100 -76 -174 -76z" />
    <glyph glyph-name="utilde" unicode="&#x169;" horiz-adv-x="1050" 
d="M901 932v-901q0 -31 -31 -31h-30q-31 0 -31 31v53q-119 -86 -242 -86h-78q-143 0 -249 110t-107 250v574q0 31 31 31h31q31 0 30 -31v-574q0 -112 70 -190t184 -78h78q86 0 168 60t84 124v658q0 31 31 31h30q31 0 31 -31zM690 1317q-74 0 -177 66q-103 67 -149 65
t-155 -74q-20 -14 -35 17l-18 34q-12 23 20 45q100 74 174 74t178 -65t150 -63t153 73q21 15 35 -16l19 -35q12 -23 -21 -45q-100 -76 -174 -76z" />
    <glyph glyph-name="Umacron" unicode="&#x16a;" horiz-adv-x="1167" 
d="M995 1487h31q31 0 31 -31v-1010q0 -200 -125 -330t-322 -130h-53q-197 0 -321 131t-125 329v1010q0 31 30 31h31q31 0 31 -31v-1020q0 -166 97 -262t257 -96h53q160 0 257 96t98 262v1020q-1 31 30 31zM915 1919h-663q-31 0 -31 31v30q0 31 31 31h663q31 0 31 -31v-30
q0 -31 -31 -31z" />
    <glyph glyph-name="umacron" unicode="&#x16b;" horiz-adv-x="1050" 
d="M901 932v-901q0 -31 -31 -31h-30q-31 0 -31 31v53q-119 -86 -242 -86h-78q-143 0 -249 110t-107 250v574q0 31 31 31h31q31 0 30 -31v-574q0 -112 70 -190t184 -78h78q86 0 168 60t84 124v658q0 31 31 31h30q31 0 31 -31zM854 1395h-664q-31 0 -30 30v31q0 31 30 31h664
q31 0 31 -31v-31q0 -30 -31 -30z" />
    <glyph glyph-name="Ubreve" unicode="&#x16c;" horiz-adv-x="1167" 
d="M995 1487h31q31 0 31 -31v-1010q0 -200 -125 -330t-322 -130h-53q-197 0 -321 131t-125 329v1010q0 31 30 31h31q31 0 31 -31v-1020q0 -166 97 -262t257 -96h53q160 0 257 96t98 262v1020q-1 31 30 31zM836 2163h41q31 0 30 -31q-8 -141 -84 -214t-207 -73h-69
q-131 0 -207 74t-84 213q0 31 31 31h41q31 0 30 -31q8 -94 52 -139t133 -45h78q92 0 134 45t50 139q0 31 31 31z" />
    <glyph glyph-name="ubreve" unicode="&#x16d;" horiz-adv-x="1050" 
d="M901 932v-901q0 -31 -31 -31h-30q-31 0 -31 31v53q-119 -86 -242 -86h-78q-143 0 -249 110t-107 250v574q0 31 31 31h31q31 0 30 -31v-574q0 -112 70 -190t184 -78h78q86 0 168 60t84 124v658q0 31 31 31h30q31 0 31 -31zM774 1638h41q31 0 31 -30q-8 -141 -84 -214
t-207 -73h-70q-131 0 -207 74t-83 213q0 31 30 30h41q31 0 31 -30q8 -94 51 -140t133 -45h78q92 0 134 45t50 140q0 30 31 30z" />
    <glyph glyph-name="Uring" unicode="&#x16e;" horiz-adv-x="1167" 
d="M995 1487h31q31 0 31 -31v-1010q0 -200 -125 -330t-322 -130h-53q-197 0 -321 131t-125 329v1010q0 31 30 31h31q31 0 31 -31v-1020q0 -166 97 -262t257 -96h53q160 0 257 96t98 262v1020q-1 31 30 31zM694 1954v20q0 98 -100 99h-23q-98 0 -98 -99v-20q0 -98 98 -99h23
q100 1 100 99zM569 2165h27q82 -1 135 -55t53 -136v-22q0 -84 -52 -136t-136 -53h-27q-82 1 -135 53t-53 136v22q0 82 53 136t135 55z" />
    <glyph glyph-name="uring" unicode="&#x16f;" horiz-adv-x="1050" 
d="M901 932v-901q0 -31 -31 -31h-30q-31 0 -31 31v53q-119 -86 -242 -86h-78q-143 0 -249 110t-107 250v574q0 31 31 31h31q31 0 30 -31v-574q0 -112 70 -190t184 -78h78q86 0 168 60t84 124v658q0 31 31 31h30q31 0 31 -31zM633 1430v20q0 98 -101 98h-22q-98 0 -98 -98
v-20q0 -98 98 -99h22q101 1 101 99zM508 1640h27q82 0 135 -54t53 -136v-23q0 -84 -52 -136t-136 -52h-27q-82 0 -135 52t-54 136v23q-1 82 53 136t136 54z" />
    <glyph glyph-name="Uhungarumlaut" unicode="&#x170;" horiz-adv-x="1167" 
d="M995 1487h31q31 0 31 -31v-1010q0 -200 -125 -330t-322 -130h-53q-197 0 -321 131t-125 329v1010q0 31 30 31h31q31 0 31 -31v-1020q0 -166 97 -262t257 -96h53q160 0 257 96t98 262v1020q-1 31 30 31zM885 2163h59q39 0 21 -37l-179 -379q-20 -37 -43 -37h-34
q-37 0 -21 37l154 379q12 37 43 37zM551 2163h59q39 0 21 -37l-178 -379q-20 -37 -43 -37h-35q-37 0 -21 37l154 379q12 37 43 37z" />
    <glyph glyph-name="uhungarumlaut" unicode="&#x171;" horiz-adv-x="1050" 
d="M901 932v-901q0 -31 -31 -31h-30q-31 0 -31 31v53q-119 -86 -242 -86h-78q-143 0 -249 110t-107 250v574q0 31 31 31h31q31 0 30 -31v-574q0 -112 70 -190t184 -78h78q86 0 168 60t84 124v658q0 31 31 31h30q31 0 31 -31zM883 1638q39 0 20 -36l-178 -379
q-20 -37 -43 -37h-35q-36 0 -20 37l153 379q12 37 43 36h60zM549 1638q39 0 20 -36l-178 -379q-20 -37 -43 -37h-35q-36 0 -20 37l153 379q12 37 43 36h60z" />
    <glyph glyph-name="Uogonek" unicode="&#x172;" horiz-adv-x="1167" 
d="M995 1487h31q31 0 31 -31v-1010q0 -143 -69 -256t-187 -165q18 -83 -16 -133t-103 -56q-29 -4 -64 -8q-34 -4 -56 -7t-36 -3q-25 -2 -24 -43v-8q0 -29 8 -34t11 -7t77 -2h211q20 0 20 -19v-70q0 -20 -20 -20h-246q-178 0 -178 154q0 94 36 121t161 40l27 3q60 7 68 15
q21 21 21 46q-39 -8 -88 -8h-53q-197 0 -321 131t-125 329v1010q0 31 30 31h31q31 0 31 -31v-1020q0 -166 97 -262t257 -96h53q160 0 257 96t98 262v1020q-1 31 30 31z" />
    <glyph glyph-name="uogonek" unicode="&#x173;" horiz-adv-x="1050" 
d="M602 -233q0 -43 33 -43h274q20 0 21 -19v-70q0 -20 -21 -20h-245q-178 0 -179 154q0 94 37 122t148 38q110 10 123 34q11 32 2 64q-2 10 14 14v43q-119 -86 -242 -86h-78q-143 0 -249 110t-107 250v574q0 31 31 31h31q31 0 30 -31v-574q0 -112 70 -190t184 -78h78
q86 0 168 60t84 124v658q0 31 31 31h30q31 0 31 -31v-905q18 -86 -14 -136q-33 -49 -105 -55q-30 -4 -64 -8t-56 -7t-35 -3q-25 -2 -25 -43v-8z" />
    <glyph glyph-name="Wcircumflex" unicode="&#x174;" horiz-adv-x="1880" 
d="M1735 1487h34q33 0 27 -31l-358 -1425q-8 -31 -39 -31h-41q-31 0 -39 31l-379 1323l-379 -1323q-8 -31 -39 -31h-41q-33 0 -39 31l-358 1425q-8 31 25 31h34q31 0 37 -31l320 -1315l379 1315q10 31 39 31h47q31 0 39 -31l378 -1315l318 1315q6 31 35 31zM924 2163h28
q27 0 49 -33l291 -367q10 -14 5 -26t-21 -13h-57q-16 0 -48 39l-231 299l-233 -299q-31 -39 -48 -39h-57q-16 0 -21 12t5 27l291 367q23 33 47 33z" />
    <glyph glyph-name="wcircumflex" unicode="&#x175;" horiz-adv-x="1406" 
d="M1274 963h35q35 0 24 -35l-241 -895q-10 -33 -39 -33h-43q-23 0 -39 33l-266 774l-269 -774q-10 -33 -39 -33h-43q-23 0 -39 33l-241 895q-10 35 24 35h35q27 0 37 -35l205 -778l270 778q10 35 37 35h43q23 0 37 -35l268 -778l207 778q10 35 37 35zM717 1638q27 0 49 -32
l291 -367q10 -15 5 -27t-22 -12h-57q-16 0 -47 39l-231 299l-234 -299q-31 -39 -47 -39h-57q-16 0 -22 12q-5 13 5 27l291 367q23 33 47 32h29z" />
    <glyph glyph-name="Ycircumflex" unicode="&#x176;" horiz-adv-x="1177" 
d="M1028 1487h49q39 0 21 -31l-465 -803v-622q0 -31 -31 -31h-31q-31 0 -30 31v622l-459 803q-10 14 -3 22t23 9h50q18 0 41 -31l395 -696l399 696q18 31 41 31zM575 2163h29q27 0 49 -33l291 -367q10 -14 5 -26t-21 -13h-58q-16 0 -47 39l-231 299l-234 -299
q-31 -39 -47 -39h-57q-16 0 -21 12t5 27l290 367q23 33 47 33z" />
    <glyph glyph-name="ycircumflex" unicode="&#x177;" horiz-adv-x="989" 
d="M850 963h43q33 0 18 -37l-544 -1301q-14 -35 -45 -35h-43q-35 0 -21 37l182 432l-364 867q-14 37 18 37h45q29 0 43 -35l312 -742l311 742q14 35 45 35zM215 1200h-57q-16 0 -22 12q-5 12 5 27l291 367q23 33 47 32h29q27 0 49 -32l291 -367q10 -15 5 -27t-22 -12h-57
q-16 0 -47 39l-231 299l-234 -299q-31 -39 -47 -39z" />
    <glyph glyph-name="Ydieresis" unicode="&#x178;" horiz-adv-x="1177" 
d="M1028 1487h49q39 0 21 -31l-465 -803v-622q0 -31 -31 -31h-31q-31 0 -30 31v622l-459 803q-10 14 -3 22t23 9h50q18 0 41 -31l395 -696l399 696q18 31 41 31zM850 1896v84q0 31 31 31h59q31 0 31 -31v-84q0 -31 -31 -30h-59q-31 -1 -31 30zM211 1896v84q0 31 31 31h61
q31 0 31 -31v-84q0 -31 -31 -30h-61q-31 -1 -31 30z" />
    <glyph glyph-name="Zacute" unicode="&#x179;" horiz-adv-x="1107" 
d="M1006 1456v-59q0 -4 -7 -15l-788 -1290h764q31 0 31 -31v-30q0 -31 -31 -31h-842q-31 0 -31 31v61q0 2 7 12l790 1291h-766q-31 0 -31 30v31q0 31 31 31h842q31 0 31 -31zM705 2163h59q39 0 20 -37l-178 -379q-20 -37 -43 -37h-35q-36 0 -20 37l154 379q12 37 43 37z" />
    <glyph glyph-name="zacute" unicode="&#x17a;" horiz-adv-x="905" 
d="M823 932v-53q0 -10 -10 -25l-608 -762h586q33 0 32 -31v-30q0 -31 -30 -31h-680q-31 0 -31 31v45q0 16 10 28l613 766h-592q-31 0 -31 31v29q0 33 31 33h678q32 0 32 -31zM662 1638q39 0 20 -36l-178 -379q-20 -37 -43 -37h-35q-36 0 -20 37l153 379q12 37 43 36h60z" />
    <glyph glyph-name="Zdotaccent" unicode="&#x17b;" horiz-adv-x="1107" 
d="M1006 1456v-59q0 -4 -7 -15l-788 -1290h764q31 0 31 -31v-30q0 -31 -31 -31h-842q-31 0 -31 31v61q0 2 7 12l790 1291h-766q-31 0 -31 30v31q0 31 31 31h842q31 0 31 -31zM481 1878v98q0 35 37 35h78q33 0 33 -35v-98q0 -35 -33 -35h-78q-37 0 -37 35z" />
    <glyph glyph-name="zdotaccent" unicode="&#x17c;" horiz-adv-x="905" 
d="M823 932v-53q0 -10 -10 -25l-608 -762h586q33 0 32 -31v-30q0 -31 -30 -31h-680q-31 0 -31 31v45q0 16 10 28l613 766h-592q-31 0 -31 31v29q0 33 31 33h678q32 0 32 -31zM379 1354v98q0 35 37 35h78q33 0 32 -35v-98q0 -35 -32 -35h-78q-37 0 -37 35z" />
    <glyph glyph-name="Zcaron" unicode="&#x17d;" horiz-adv-x="1107" 
d="M1006 1456v-59q0 -4 -7 -15l-788 -1290h764q31 0 31 -31v-30q0 -31 -31 -31h-842q-31 0 -31 31v61q0 2 7 12l790 1291h-766q-31 0 -31 30v31q0 31 31 31h842q31 0 31 -31zM276 2163q18 0 48 -39l233 -299l231 299q29 39 48 39h57q16 -1 21 -13t-5 -26l-291 -367
q-23 -33 -49 -33h-28q-24 0 -47 33l-291 367q-10 14 -5 26t21 13h57z" />
    <glyph glyph-name="zcaron" unicode="&#x17e;" horiz-adv-x="905" 
d="M823 932v-53q0 -10 -10 -25l-608 -762h586q33 0 32 -31v-30q0 -31 -30 -31h-680q-31 0 -31 31v45q0 16 10 28l613 766h-592q-31 0 -31 31v29q0 33 31 33h678q32 0 32 -31zM115 1638h57q18 0 47 -39l234 -299l231 299q29 39 47 39h57q16 0 22 -12t-5 -27l-291 -366
q-23 -33 -49 -33h-29q-24 0 -47 33l-291 366q-10 15 -5 27t22 12z" />
    <glyph glyph-name="florin" unicode="&#x192;" horiz-adv-x="714" 
d="M684 1456v-31q0 -31 -31 -30h-18q-103 0 -157 -75t-54 -202v-1143q0 -170 -88 -276t-238 -109q-27 2 -26 31v31q0 31 30 31h19q102 0 157 74q54 75 54 202v911h-105q-31 0 -30 31v31q0 31 30 31h105v139q0 170 88 276t237 109q27 -2 27 -31z" />
    <glyph glyph-name="Acaron" unicode="&#x1cd;" horiz-adv-x="1234" 
d="M887 530l-266 846l-273 -846h539zM1114 0h-31q-31 0 -39 33l-126 405h-599l-131 -405q-8 -33 -36 -33h-33q-35 0 -23 33l461 1427q10 33 39 33h45q29 0 39 -33l459 -1427q14 -33 -25 -33zM340 2163q18 0 47 -39l234 -299l231 299q29 39 47 39h57q16 -1 22 -13t-5 -26
l-291 -367q-23 -33 -49 -33h-29q-24 0 -47 33l-291 367q-10 14 -5 26t22 13h57z" />
    <glyph glyph-name="acaron" unicode="&#x1ce;" horiz-adv-x="978" 
d="M381 90h111q59 2 112 31t83 59t69 78v197h-375q-195 0 -195 -181q0 -80 58 -132t137 -52zM846 0h-58q-33 0 -32 49v82q-129 -133 -256 -133h-115q-113 -4 -202 80t-89 202t79 196t206 77h377v53q0 127 -60 198t-155 70h-103q-92 0 -138 -19t-85 -67q-23 -23 -47 -2
l-29 21q-20 20 -2 41q53 68 118 94t175 25h105q131 1 222 -99t91 -258v-561q0 -15 4 -32t-6 -17zM137 1638h58q18 0 47 -39l233 -299l232 299q29 39 47 39h57q15 0 21 -12t-5 -27l-290 -366q-23 -33 -50 -33h-28q-24 0 -47 33l-291 366q-10 15 -5 27t21 12z" />
    <glyph glyph-name="Icaron" unicode="&#x1cf;" horiz-adv-x="444" 
d="M176 31v1425q0 31 31 31h31q31 0 30 -31v-1425q0 -31 -30 -31h-31q-31 0 -31 31zM-57 2163q18 0 47 -39l233 -299l232 299q29 39 47 39h57q15 -1 21 -13t-5 -26l-290 -367q-23 -33 -49 -33h-29q-24 0 -47 33l-291 367q-10 14 -5 26t21 13h58z" />
    <glyph glyph-name="icaron" unicode="&#x1d0;" horiz-adv-x="419" 
d="M164 31v903q0 31 31 31h30q31 0 31 -31v-903q0 -31 -31 -31h-30q-31 0 -31 31zM-127 1638h57q18 0 47 -39l234 -299l231 299q29 39 47 39h58q16 0 21 -12t-5 -27l-291 -366q-23 -33 -49 -33h-28q-25 0 -48 33l-290 366q-10 15 -5 27t21 12z" />
    <glyph glyph-name="Ocaron" unicode="&#x1d1;" horiz-adv-x="1198" 
d="M553 82h92q141 0 240 115q98 115 98 286v533q0 172 -98 287t-240 114h-92q-143 0 -241 -114q-97 -115 -97 -287v-533q-1 -173 97 -287t241 -114zM553 1509h92q176 0 303 -143t127 -346v-541q0 -203 -127 -347t-303 -144h-92q-176 0 -303 144t-127 347v541q0 203 127 346
t303 143zM319 2163q18 0 48 -39l233 -299l231 299q29 39 48 39h57q16 -1 21 -13t-5 -26l-290 -367q-23 -33 -50 -33h-28q-24 0 -47 33l-291 367q-10 14 -5 26t21 13h57z" />
    <glyph glyph-name="ocaron" unicode="&#x1d2;" horiz-adv-x="1038" 
d="M834 391v182q0 125 -79 214t-196 90h-78q-121 1 -199 -89t-77 -215v-182q0 -125 78 -213t198 -88h78q117 0 196 88t79 213zM479 969h80q151 0 259 -120t108 -276v-182q0 -157 -109 -275t-258 -118h-80q-151 0 -259 119t-107 274v182q0 158 107 277t259 119zM184 1638h58
q18 0 47 -39l233 -299l232 299q29 39 47 39h57q16 0 22 -12t-6 -27l-290 -366q-23 -33 -49 -33h-29q-24 0 -47 33l-291 366q-10 15 -5 27t21 12z" />
    <glyph glyph-name="ucaron" unicode="&#x1d4;" horiz-adv-x="1050" 
d="M901 932v-901q0 -31 -31 -31h-30q-31 0 -31 31v53q-119 -86 -242 -86h-78q-143 0 -249 110t-107 250v574q0 31 31 31h31q31 0 30 -31v-574q0 -112 70 -190t184 -78h78q86 0 168 60t84 124v658q0 31 31 31h30q31 0 31 -31zM184 1638h58q18 0 47 -39l233 -299l232 299
q29 39 47 39h57q16 0 22 -12t-6 -27l-290 -366q-23 -33 -49 -33h-29q-24 0 -47 33l-291 366q-10 15 -5 27t21 12z" />
    <glyph glyph-name="Gcaron" unicode="&#x1e6;" horiz-adv-x="1185" 
d="M627 770h415q31 0 31 -31v-278q0 -197 -130 -342.5t-300 -145.5h-94q-174 0 -304 143.5t-130 340.5v565q0 197 132 342t302 145h94q164 0 294 -143t132 -330q0 -31 -31 -30h-30q-33 0 -33 30q0 152 -100.5 266.5t-231.5 114.5h-94q-137 0 -239.5 -116.5t-102.5 -278.5
v-565q0 -160 101.5 -275.5t240.5 -115.5h94q135 0 235.5 116.5t100.5 278.5v217h-352q-31 0 -31 31v30q0 31 31 31zM248 2163h57q18 0 47 -39l234 -299l231 299q29 39 47 39h58q16 0 21 -12.5t-5 -26.5l-291 -367q-23 -33 -49 -33h-29q-24 0 -47 33l-291 367q-10 14 -5 26.5
t22 12.5z" />
    <glyph glyph-name="gcaron" unicode="&#x1e7;" horiz-adv-x="1001" 
d="M481 90h41q61 0 133 37t127 94v438q0 72 -83 144t-160 71h-84q-101 0 -181 -86t-79 -190v-233q0 -103 90 -189t196 -86zM797 963h51q31 0 31 -31v-1034q1 -115 -101 -211t-235 -97h-51q-96 0 -194 60t-148 151q-18 29 16 35h45q23 0 37 -20q38 -58 108 -96t142 -37h45
q71 0 155 59t84 145v199q-127 -88 -256 -88h-45q-135 0 -257 116t-122 251v233q0 137 110 253t243 116h84q113 0 235 -95l-6 62q-6 29 29 29zM166 1638h57q18 0 47 -39l234 -299l231 299q29 39 47 39h58q16 0 21 -12t-5 -27l-291 -366q-23 -33 -49 -33h-29q-24 0 -47 33
l-290 366q-10 14 -6 27q5 12 22 12z" />
    <glyph glyph-name="Scommaaccent" unicode="&#x218;" horiz-adv-x="1179" 
d="M555 -307h96q31 0 31 -31v-184q0 -68 -4 -108t-27.5 -100.5t-70.5 -113.5q-18 -20 -41 0l-35 33q-25 25 -8 43q55 53 69.5 102.5t14.5 130.5l16 21h-41q-31 0 -31 31v145q0 31 31 31zM524 1509h107q168 0 294 -121.5t126 -308.5v-32q0 -31 -31 -31h-33q-31 0 -31 31v32
q0 156 -95 247t-230 91h-107q-139 0 -225 -78.5t-86 -226t84 -210t242 -91.5l106 -20q197 -39 309.5 -127.5t112.5 -271.5t-127 -300t-303 -117h-94q-172 0 -301 116t-129 296v55q0 31 30 31h33q31 0 31 -31l2 -55q4 -150 100.5 -233.5t233.5 -83.5h94q143 0 240.5 87
t97.5 242t-96 215q-96 59 -232 84l-106 21q-199 37 -309.5 126t-110.5 266t115.5 287.5t287.5 110.5z" />
    <glyph glyph-name="scommaaccent" unicode="&#x219;" horiz-adv-x="970" 
d="M451 -307h96q31 0 31 -31v-184q0 -68 -4.5 -108t-28 -100.5t-70.5 -113.5q-18 -20 -41 0l-35 33q-27 25 -8 43q55 53 69.5 102.5t14.5 130.5l17 21h-41q-31 0 -31 31v145q0 31 31 31zM795 643q-39 0 -35 25q-2 92 -80 151.5t-172 59.5h-39q-270 0 -270 -193
q-1 -68 41 -94q26 -16 42.5 -25.5t63.5 -18.5t142 -22q170 -24 266 -66q116 -52 116 -180.5t-111.5 -209t-250.5 -80.5h-55q-117 0 -228.5 78.5t-122.5 189.5q-4 31 31 31h35q31 0 31 -29q8 -78 88 -128t168 -50h47q115 0 195.5 50t80.5 128t-25.5 99.5t-38 31.5t-49 18.5
t-50 10.5t-62.5 7t-99 11q-136 16 -242 68t-106 181.5t105.5 206.5t249.5 77h45q123 0 233.5 -86t116.5 -209q0 -33 -29 -33h-32z" />
    <glyph glyph-name="uni021A" unicode="&#x21a;" horiz-adv-x="1089" 
d="M510 -307h96q31 0 31 -31v-184q0 -68 -4 -108t-27.5 -100.5t-70.5 -113.5q-18 -20 -41 0l-35 33q-25 25 -8 43q55 53 69.5 102.5t14.5 130.5l16 21h-41q-31 0 -31 31v145q0 31 31 31zM94 1487h899q31 0 31 -31v-31q0 -31 -31 -30h-401v-1364q0 -31 -31 -31h-31
q-31 0 -30 31v1364h-406q-31 0 -31 30v31q0 31 31 31z" />
    <glyph glyph-name="uni021B" unicode="&#x21b;" horiz-adv-x="600" 
d="M420 -307h96q31 0 31 -31v-184q0 -68 -4 -108t-27.5 -100.5t-71.5 -113.5q-18 -20 -41 0l-34 33q-25 25 -9 43q55 53 69.5 102.5t14.5 130.5l17 21h-41q-31 0 -31 31v145q0 31 31 31zM215 270v600h-113q-31 0 -30 31v29q0 33 30 33h113v213q0 31 31 30h30q31 0 31 -30
v-213h152q33 0 33 -31v-31q0 -31 -31 -31h-154v-618q0 -150 172 -156q33 0 33 -26l2 -41q0 -33 -27 -33q-98 -6 -185 65.5t-87 208.5z" />
    <glyph glyph-name="uni0228" unicode="&#x228;" horiz-adv-x="1126" 
d="M860 -264q0 -150 -178 -150h-76q-84 0 -131 47.5t-49 124.5q0 20 18 21h66q20 0 20 -17q2 -68 101 -67h48q28 0 42 2q33 5 33 41.5t-41 48.5t-195 29q-20 2 -39.5 18t-19.5 60.5t45 103.5l2 2h-342q-31 0 -31 31v1425q0 31 31 31h821q31 0 31 -31v-31q0 -31 -31 -30h-760
v-598h627q31 0 31 -31v-31q0 -31 -31 -30h-627v-613h760q31 0 31 -31v-30q0 -31 -31 -31h-375q-9 -9 -22 -35t-11.5 -34.5t2.5 -13.5t8 -9t10.5 -9t26.5 -5l29 -5q8 -2 44 -5t46.5 -6t36 -9t34.5 -15.5t27.5 -27.5t18.5 -90z" />
    <glyph glyph-name="uni0229" unicode="&#x229;" horiz-adv-x="1003" 
d="M203 561h606v31q0 123 -83 204t-173 81h-78q-106 0 -189 -85t-83 -200v-31zM801 -264q0 -150 -178 -150h-76q-84 0 -131 47.5t-49 124.5q0 20 18 21h66q20 0 20 -17q2 -68 100 -67h48q29 0 43 2q32 4 32 41t-41 49t-194 29q-20 2 -40 18t-19 60.5t46 105.5
q-131 12 -233 119.5t-102 245.5v233q0 145 113.5 258t250.5 113h78q121 0 234.5 -108.5t113.5 -260.5v-82q0 -61 -61 -61h-637v-92q0 -111 83 -193t189 -82h76q137 0 256 141q23 27 43 9l24 -23q23 -20 7 -43q-143 -176 -328 -176h-4q-34 -48 -32.5 -62t2.5 -19t8.5 -9
t11 -9t25.5 -5l30 -5q8 -2 44 -5t46 -6t35.5 -9t35 -15.5t28 -27.5t18.5 -90z" />
    <glyph glyph-name="dotlessj" unicode="&#x237;" horiz-adv-x="411" 
d="M156 -106v1040q0 31 30 31h31q31 0 31 -31v-1032q0 -78 -60 -156t-147 -113q-29 -10 -39 21l-6 37q-8 27 18 37q57 20 100 64q42 44 42 102z" />
    <glyph glyph-name="circumflex" unicode="&#x2c6;" horiz-adv-x="927" 
d="M477 1638q27 0 49 -32l291 -367q10 -15 5 -27t-21 -12h-58q-16 0 -47 39l-231 299l-234 -299q-31 -39 -47 -39h-57q-16 0 -22 12q-4 13 6 27l290 367q23 33 48 32h28z" />
    <glyph glyph-name="caron" unicode="&#x2c7;" horiz-adv-x="923" 
d="M125 1638h57q18 0 47 -39l234 -299l231 299q29 39 47 39h58q16 0 21 -12t-5 -27l-291 -366q-23 -33 -49 -33h-29q-24 0 -47 33l-290 366q-10 14 -6 27q5 12 22 12z" />
    <glyph glyph-name="breve" unicode="&#x2d8;" horiz-adv-x="856" 
d="M682 1638h41q31 0 31 -30q-8 -141 -84 -214t-207 -73h-70q-131 0 -207 74t-84 213q0 31 31 30h41q31 0 31 -30q8 -94 51 -140t133 -45h78q92 0 134 45t50 140q0 30 31 30z" />
    <glyph glyph-name="dotaccent" unicode="&#x2d9;" horiz-adv-x="352" 
d="M102 1354v98q0 35 37 35h78q33 0 33 -35v-98q0 -35 -33 -35h-78q-37 0 -37 35z" />
    <glyph glyph-name="ring" unicode="&#x2da;" horiz-adv-x="608" 
d="M416 1430v20q0 98 -101 98h-22q-98 0 -98 -98v-20q0 -98 98 -99h22q101 1 101 99zM291 1640h26q81 0 135 -54t54 -136v-23q0 -84 -52 -136t-137 -52h-26q-82 0 -135 52t-54 136v23q0 82 54 136t135 54z" />
    <glyph glyph-name="ogonek" unicode="&#x2db;" horiz-adv-x="659" 
d="M193 -262q0 -43 32 -43h275q20 -1 20 -19v-69q0 -20 -20 -21h-246q-178 0 -178 154q0 94 37 122t131 37q95 8 105 14q11 5 21 10q31 15 15 75q-4 16 27 16h53q23 0 27 -16q18 -86 -15 -135t-104 -56q-29 -4 -64 -8t-57 -7t-35 -3q-25 -2 -24 -43v-8z" />
    <glyph glyph-name="tilde" unicode="&#x2dc;" horiz-adv-x="942" 
d="M641 1317q-74 0 -177 66q-104 67 -150 65t-154 -74q-20 -14 -35 17l-19 34q-12 23 21 45q100 74 174 74t178 -65q103 -65 149 -63t154 73q21 15 35 -16l19 -35q12 -23 -21 -45q-100 -76 -174 -76z" />
    <glyph glyph-name="hungarumlaut" unicode="&#x2dd;" horiz-adv-x="823" 
d="M696 1638q39 0 21 -36l-178 -379q-20 -37 -43 -37h-35q-37 0 -21 37l154 379q12 37 43 36h59zM362 1638q39 0 21 -36l-178 -379q-20 -37 -43 -37h-35q-37 0 -21 37l154 379q12 37 43 36h59z" />
    <glyph glyph-name="uni0326" unicode="&#x326;" horiz-adv-x="0" 
d="M160 -410h96q31 0 31 -30v-185q0 -68 -4 -107.5t-28 -100t-71 -113.5q-18 -20 -41 0l-34 33q-27 25 -9 43q55 53 69.5 102t14.5 131l17 21h-41q-31 0 -31 30v146q0 30 31 30z" />
    <glyph glyph-name="Delta" unicode="&#x394;" horiz-adv-x="1224" 
d="M1012 92l-396 1247l-403 -1247h799zM1104 0h-985q-35 0 -23 33l457 1427q10 33 39 33h45q29 0 39 -33l452 -1427q14 -33 -24 -33z" />
    <glyph glyph-name="Omega" unicode="&#x3a9;" horiz-adv-x="1200" 
d="M1077 1022v-563q0 -207 -149 -367h116q31 0 31 -31v-30q0 -31 -31 -31h-364q-31 0 -31 31t31 30h6q104 1 202 133t97 271v557q0 164 -98 281t-240 116h-94q-141 0 -240 -117q-98 -118 -98 -280v-557q0 -139 98 -271t201 -133h6q31 -1 31 -31t-31 -30h-364q-31 0 -31 31
v30q0 31 31 31h116q-150 160 -149 367v563q0 203 127 346t303 143h94q176 0 303 -143t127 -346z" />
    <glyph glyph-name="mu" unicode="&#x3bc;" horiz-adv-x="1046" 
d="M840 963h30q31 0 31 -31v-901q0 -31 -31 -31h-30q-31 0 -31 31v53q-119 -86 -242 -86h-78q-156 0 -264 125v-502q0 -31 -30 -31h-31q-31 0 -31 31v1311q0 31 31 31h31q31 0 30 -31v-574q0 -112 70 -190t184 -78h78q86 0 168 60t84 124v658q0 31 31 31z" />
    <glyph glyph-name="pi" unicode="&#x3c0;" horiz-adv-x="1120" 
d="M131 963h856q31 0 31 -31v-33q0 -29 -31 -29h-49v-839q0 -31 -31 -31h-30q-31 0 -31 31v839h-574v-839q0 -31 -30 -31h-31q-31 0 -31 31v839h-47q-31 0 -31 31v31q0 31 29 31z" />
    <glyph glyph-name="uni0401" unicode="&#x401;" horiz-adv-x="1126" 
d="M225 797h627q31 0 31 -31v-31q0 -31 -31 -30h-627v-613h760q31 0 31 -31v-30q0 -31 -31 -31h-821q-31 0 -31 31v1425q0 31 31 31h821q31 0 31 -31v-31q0 -31 -31 -30h-760v-598zM817 1896v84q0 31 31 31h59q31 0 31 -31v-84q0 -31 -31 -30h-59q-31 -1 -31 30zM178 1896
v84q0 31 31 31h61q31 0 31 -31v-84q0 -31 -31 -30h-61q-31 -1 -31 30z" />
    <glyph glyph-name="uni0403" unicode="&#x403;" horiz-adv-x="1148" 
d="M164 1487h821q31 0 31 -31v-31q0 -31 -31 -30h-760v-1364q0 -31 -30 -31h-31q-31 0 -31 31v1425q0 31 31 31zM584 1710h-35q-37 0 -21 37l154 379q12 37 43 37h59q39 0 21 -37l-178 -379q-20 -37 -43 -37z" />
    <glyph glyph-name="uni0404" unicode="&#x404;" horiz-adv-x="1159" 
d="M995 481h31q31 0 31 -30q-2 -186 -132 -332t-294 -146h-94q-170 0 -302.5 147.5t-132.5 344.5v557q0 197 132.5 342t302.5 145h94q164 0 294 -143t132 -330q0 -31 -31 -30h-31q-33 0 -32 30q0 152 -101.5 266.5t-230.5 114.5h-94q-137 0 -239.5 -116.5t-102.5 -278.5
v-231h401q31 0 31 -31v-31q0 -31 -31 -31h-401v-233q0 -164 102 -281.5t240 -117.5h94q131 0 232.5 116.5t99.5 268.5q-1 30 32 30z" />
    <glyph glyph-name="uni0406" unicode="&#x406;" horiz-adv-x="444" 
d="M176 31v1425q0 31 31 31h31q31 0 30 -31v-1425q0 -31 -30 -31h-31q-31 0 -31 31z" />
    <glyph glyph-name="uni0407" unicode="&#x407;" horiz-adv-x="444" 
d="M176 31v1425q0 31 31 31h31q31 0 30 -31v-1425q0 -31 -30 -31h-31q-31 0 -31 31zM481 1896v84q0 31 31 31h59q31 0 31 -31v-84q0 -31 -31 -30h-59q-31 -1 -31 30zM-158 1896v84q0 31 31 31h59q31 0 31 -31v-84q0 -31 -31 -30h-59q-31 -1 -31 30z" />
    <glyph glyph-name="uni0408" unicode="&#x408;" horiz-adv-x="1062" 
d="M524 78q129 0 227 111q97 112 97 274v993q0 31 31 31h30q31 0 31 -31v-989q0 -197 -126 -339t-294 -142h-49q-123 0 -229 82t-156 211q-13 26 16 40l39 9q31 10 37 -19q33 -98 117 -165t176 -66h53z" />
    <glyph glyph-name="uni040C" unicode="&#x40c;" horiz-adv-x="1165" 
d="M1061 0h-45q-25 0 -55 29l-662 606l-84 -90v-514q0 -31 -31 -31h-30q-31 0 -31 31v1425q0 31 31 31h30q31 0 31 -31v-758l696 760q29 29 39 29h56q16 0 20 -15.5t-12 -35.5l-656 -719l715 -668q12 -12 9 -30.5t-21 -18.5zM739 2163h60q39 0 20 -37l-178 -379
q-20 -37 -43 -37h-35q-36 0 -20 37l153 379q12 37 43 37z" />
    <glyph glyph-name="uni040D" unicode="&#x40d;" horiz-adv-x="1292" 
d="M164 1487h31q31 0 30 -31v-1429l740 1437q10 23 36 23h127q31 0 31 -31v-1425q0 -31 -31 -31h-30q-31 0 -31 31v1431l-737 -1439q-10 -23 -37 -23h-129q-31 0 -31 31v1425q0 31 31 31zM662 1710h-39q-23 0 -43 37l-179 379q-18 37 21 37h63q31 0 43 -37l154 -379
q16 -37 -20 -37z" />
    <glyph glyph-name="uni040E" unicode="&#x40e;" horiz-adv-x="1179" 
d="M1012 1487h43q33 0 18 -37l-635 -1415q-14 -35 -45 -35h-43q-35 0 -20 37l229 512l-22 -27l-431 928q-18 37 19 37h45q29 0 43 -35l385 -817l369 817q14 35 45 35zM625 1845h-70q-131 0 -207 74t-84 213q0 31 31 31h41q31 0 31 -31q8 -94 51 -139t133 -45h78q92 0 134 45
t50 139q0 31 31 31h41q31 0 30 -31q-7 -141 -83 -214t-207 -73z" />
    <glyph glyph-name="uni0410" unicode="&#x410;" horiz-adv-x="1234" 
d="M887 530l-266 846l-273 -846h539zM1114 0h-31q-31 0 -39 33l-126 405h-599l-131 -405q-8 -33 -36 -33h-33q-35 0 -23 33l461 1427q10 33 39 33h45q29 0 39 -33l459 -1427q14 -33 -25 -33z" />
    <glyph glyph-name="uni0411" unicode="&#x411;" horiz-adv-x="1183" 
d="M225 92h432q301 0 301 326t-301 325h-432v-651zM225 836h426q184 0 292 -112t108 -306t-108 -306t-292 -112h-487q-31 0 -31 31v1425q0 31 31 31h743q31 0 31 -31v-31q0 -31 -31 -30h-682v-559z" />
    <glyph glyph-name="uni0412" unicode="&#x412;" horiz-adv-x="1193" 
d="M225 92h465q158 0 230 70t72 220t-76 242q-75 91 -218 91h-473v-623zM225 807h480q121 0 187 88t64 225q0 274 -286 275h-445v-588zM680 0h-510q-37 0 -37 37v1413q0 37 37 37h494q176 0 280 -99t105 -278q0 -262 -172 -346q207 -82 206 -377q0 -387 -403 -387z" />
    <glyph glyph-name="uni0413" unicode="&#x413;" horiz-adv-x="1148" 
d="M164 1487h821q31 0 31 -31v-31q0 -31 -31 -30h-760v-1364q0 -31 -30 -31h-31q-31 0 -31 31v1425q0 31 31 31z" />
    <glyph glyph-name="uni0414" unicode="&#x414;" horiz-adv-x="1492" 
d="M1178 92v1303h-668v-703q0 -446 -113 -600h781zM1270 92h116q31 0 31 -31v-229q0 -31 -31 -31h-30q-31 0 -31 31v168h-1151v-168q0 -31 -31 -31h-30q-31 0 -31 31v229q0 31 31 31h143q42 0 85 90t60 254t17 305v715q0 31 31 31h790q31 0 31 -31v-1364z" />
    <glyph glyph-name="uni0415" unicode="&#x415;" horiz-adv-x="1126" 
d="M225 797h627q31 0 31 -31v-31q0 -31 -31 -30h-627v-613h760q31 0 31 -31v-30q0 -31 -31 -31h-821q-31 0 -31 31v1425q0 31 31 31h821q31 0 31 -31v-31q0 -31 -31 -30h-760v-598z" />
    <glyph glyph-name="uni0416" unicode="&#x416;" horiz-adv-x="1961" 
d="M1874 0h-45q-25 0 -55 29l-662 606l-84 -90v-514q0 -31 -31 -31h-30q-31 0 -31 31v514l-84 90l-662 -606q-31 -29 -55 -29h-45q-18 0 -21 18t9 31l715 668l-656 719q-16 20 -12 35t20 16h56q10 0 39 -29l696 -760v758q0 31 31 31h30q31 0 31 -31v-758l696 760
q25 29 39 29h54q16 1 21 -15t-13 -36l-654 -719l715 -668q12 -13 9 -31t-21 -18z" />
    <glyph glyph-name="uni0417" unicode="&#x417;" horiz-adv-x="1148" 
d="M1047 379q0 -176 -129 -287t-306 -110h-86q-168 0 -297 114t-127 295v39q0 31 31 31h33q31 0 31 -31v-39q0 -153 98 -235t231 -82h86q141 0 242 79q100 79 100 222t-95 232t-251 95h-147q-31 0 -31 31v43q0 31 31 31h147q154 6 243 89t89 218t-98 220t-232 85h-86
q-129 0 -228 -90t-99 -246v-39q0 -31 -31 -30h-33q-31 0 -31 30v39q0 185 129 307t293 121h86q170 -1 296 -117t126 -278q0 -118 -58 -202t-179 -158q252 -152 252 -377z" />
    <glyph glyph-name="uni0418" unicode="&#x418;" horiz-adv-x="1292" 
d="M164 1487h31q31 0 30 -31v-1429l740 1437q10 23 36 23h127q31 0 31 -31v-1425q0 -31 -31 -31h-30q-31 0 -31 31v1431l-737 -1439q-10 -23 -37 -23h-129q-31 0 -31 31v1425q0 31 31 31z" />
    <glyph glyph-name="uni0419" unicode="&#x419;" horiz-adv-x="1292" 
d="M164 1487h31q31 0 30 -31v-1429l740 1437q10 23 36 23h127q31 0 31 -31v-1425q0 -31 -31 -31h-30q-31 0 -31 31v1431l-737 -1439q-10 -23 -37 -23h-129q-31 0 -31 31v1425q0 31 31 31zM901 2163h41q31 0 31 -31q-8 -141 -84 -214t-207 -73h-70q-131 0 -206.5 74
t-83.5 213q0 31 30 31h41q31 0 31 -31q8 -94 51 -139t133 -45h78q92 0 134 45t50 139q0 31 31 31z" />
    <glyph glyph-name="uni041A" unicode="&#x41a;" horiz-adv-x="1165" 
d="M1061 0h-45q-25 0 -55 29l-662 606l-84 -90v-514q0 -31 -31 -31h-30q-31 0 -31 31v1425q0 31 31 31h30q31 0 31 -31v-758l696 760q29 29 39 29h56q16 0 20 -15.5t-12 -35.5l-656 -719l715 -668q12 -12 9 -30.5t-21 -18.5z" />
    <glyph glyph-name="uni041B" unicode="&#x41b;" horiz-adv-x="1222" 
d="M279 1487h780q31 0 31 -31v-1425q0 -31 -31 -31h-31q-31 0 -31 31v1364h-657v-1131q0 -135 -81 -205t-181 -63q-27 0 -27 33l2 41q0 27 33 26q162 6 162 146v1214q0 31 31 31z" />
    <glyph glyph-name="uni041C" unicode="&#x41c;" horiz-adv-x="1441" 
d="M1176 1487h92q31 0 30 -31v-1425q0 -31 -30 -31h-31q-31 0 -31 31v1343l-426 -1343q-10 -31 -39 -31h-53q-29 0 -39 31l-426 1343v-1343q0 -31 -30 -31h-31q-31 0 -31 31v1425q0 31 31 31h92q33 0 41 -31l418 -1325l422 1325q8 31 41 31z" />
    <glyph glyph-name="uni041D" unicode="&#x41d;" horiz-adv-x="1236" 
d="M1028 1487h31q31 0 31 -31v-1425q0 -31 -31 -31h-31q-31 0 -31 31v633h-759v-633q0 -31 -31 -31h-31q-31 0 -31 31v1425q0 31 31 31h31q31 0 31 -31v-700h759v700q0 31 31 31z" />
    <glyph glyph-name="uni041E" unicode="&#x41e;" horiz-adv-x="1198" 
d="M553 82h92q141 0 240 115q98 115 98 286v533q0 172 -98 287t-240 114h-92q-143 0 -241 -114q-97 -115 -97 -287v-533q-1 -173 97 -287t241 -114zM553 1509h92q176 0 303 -143t127 -346v-541q0 -203 -127 -347t-303 -144h-92q-176 0 -303 144t-127 347v541q0 203 127 346
t303 143z" />
    <glyph glyph-name="uni041F" unicode="&#x41f;" horiz-adv-x="1159" 
d="M164 1487h831q31 0 31 -31v-1425q0 -31 -31 -31h-30q-31 0 -31 31v1364h-709v-1364q0 -31 -30 -31h-31q-31 0 -31 31v1425q0 31 31 31z" />
    <glyph glyph-name="uni0420" unicode="&#x420;" horiz-adv-x="1165" 
d="M233 745h431q303 0 303 325t-303 325h-431v-650zM172 1487h487q184 0 292 -112q108 -113 108 -307t-108 -304t-292 -111h-426v-622q0 -31 -30 -31h-31q-31 0 -31 31v1425q0 31 31 31z" />
    <glyph glyph-name="uni0421" unicode="&#x421;" horiz-adv-x="1159" 
d="M995 481h31q31 0 31 -30q-2 -186 -132 -332t-294 -146h-94q-170 0 -302.5 147.5t-132.5 344.5v557q0 197 132.5 342t302.5 145h94q164 0 294 -143t132 -330q0 -31 -31 -30h-31q-33 0 -32 30q0 152 -101.5 266.5t-230.5 114.5h-94q-137 0 -239.5 -116.5t-102.5 -278.5
v-557q0 -164 102 -281.5t240 -117.5h94q131 0 232.5 116.5t99.5 268.5q-1 30 32 30z" />
    <glyph glyph-name="uni0422" unicode="&#x422;" horiz-adv-x="1089" 
d="M94 1487h899q31 0 31 -31v-31q0 -31 -31 -30h-401v-1364q0 -31 -31 -31h-31q-31 0 -30 31v1364h-406q-31 0 -31 30v31q0 31 31 31z" />
    <glyph glyph-name="uni0423" unicode="&#x423;" horiz-adv-x="1179" 
d="M1012 1487h43q33 0 18 -37l-635 -1415q-14 -35 -45 -35h-43q-35 0 -20 37l229 512l-22 -27l-431 928q-18 37 19 37h45q29 0 43 -35l385 -817l369 817q14 35 45 35z" />
    <glyph glyph-name="uni0424" unicode="&#x424;" horiz-adv-x="1785" 
d="M1581 645v197q0 156 -99 272t-229 117h-315v-975h315q129 0 229 118t99 271zM846 256v975h-311q-129 0 -229 -118t-101 -271v-197q0 -153 100 -271t230 -118h311zM938 1323h309q168 0 297 -143t129 -338v-197q0 -195 -129 -338t-297 -143h-309v-133q0 -31 -31 -31h-30
q-31 0 -31 31v133h-307q-168 0 -297 143t-129 338v197q0 195 129 338t297 143h307v133q0 31 31 31h30q31 0 31 -31v-133z" />
    <glyph glyph-name="uni0425" unicode="&#x425;" horiz-adv-x="1134" 
d="M1008 0h-43q-27 0 -41 31l-357 622l-356 -622q-14 -31 -41 -31h-43q-37 0 -21 31l410 712l-410 713q-16 31 21 31h43q27 0 41 -31l356 -622l357 622q14 31 41 31h43q37 0 20 -31l-407 -713l407 -712q16 -31 -20 -31z" />
    <glyph glyph-name="uni0426" unicode="&#x426;" horiz-adv-x="1271" 
d="M1026 92h123q31 0 31 -31v-272q0 -31 -31 -31h-31q-31 0 -31 31v211h-923q-31 0 -31 31v1425q0 31 31 31h31q31 0 30 -31v-1364h709v1364q0 31 31 31h30q31 0 31 -31v-1364z" />
    <glyph glyph-name="uni0427" unicode="&#x427;" horiz-adv-x="1144" 
d="M930 1487h31q31 0 30 -31v-1425q0 -31 -30 -31h-31q-31 0 -31 31v614q-127 -121 -278 -121h-148q-145 0 -258 114t-113 253v565q0 31 31 31h31q31 0 31 -31v-563q0 -105 83 -191t195 -86h145q88 0 184 62t97 125v653q0 31 31 31z" />
    <glyph glyph-name="uni0428" unicode="&#x428;" horiz-adv-x="1959" 
d="M1765 1487h31q31 0 31 -31v-1425q0 -31 -31 -31h-1632q-31 0 -31 31v1425q0 31 31 31h31q31 0 30 -31v-1364h709v1364q0 31 31 31h30q31 0 31 -31v-1364h709v1364q-1 31 30 31z" />
    <glyph glyph-name="uni0429" unicode="&#x429;" horiz-adv-x="2072" 
d="M1827 92h123q31 0 30 -31v-272q0 -31 -30 -31h-31q-31 0 -31 31v211h-1724q-31 0 -31 31v1425q0 31 31 31h31q31 0 30 -31v-1364h709v1364q0 31 31 31h30q31 0 31 -31v-1364h709v1364q0 31 30 31h31q31 0 31 -31v-1364z" />
    <glyph glyph-name="uni042A" unicode="&#x42a;" horiz-adv-x="1548" 
d="M590 92h432q301 0 301 326t-301 325h-432v-651zM590 836h426q184 0 292 -112t108 -306t-108 -306t-292 -112h-488q-31 0 -30 31v1364h-375q-31 0 -31 30v31q0 31 31 31h436q31 0 31 -31v-620z" />
    <glyph glyph-name="uni042B" unicode="&#x42b;" horiz-adv-x="1628" 
d="M225 92h432q301 0 301 326t-301 325h-432v-651zM1391 1487h30q31 0 31 -31v-1425q0 -31 -31 -31h-30q-31 0 -31 31v1425q0 31 31 31zM225 836h426q184 0 292 -112t108 -306t-108 -306t-292 -112h-487q-31 0 -31 31v1425q0 31 31 31h31q31 0 30 -31v-620z" />
    <glyph glyph-name="uni042C" unicode="&#x42c;" horiz-adv-x="1183" 
d="M225 92h432q301 0 301 326t-301 325h-432v-651zM225 836h426q184 0 292 -112t108 -306t-108 -306t-292 -112h-487q-31 0 -31 31v1425q0 31 31 31h31q31 0 30 -31v-620z" />
    <glyph glyph-name="uni042D" unicode="&#x42d;" horiz-adv-x="1159" 
d="M528 1509h95q172 0 303 -144t131 -343v-557q0 -197 -131 -344.5t-303 -147.5h-95q-164 0 -294 145.5t-132 332.5q0 31 31 30h31q33 0 33 -30q-2 -152 99 -268.5t232 -116.5h95q137 0 239.5 117.5t102.5 281.5v233h-402q-31 0 -31 31v31q0 31 31 31h402v231
q0 162 -102.5 278.5t-239.5 116.5h-95q-129 0 -230 -114.5t-101 -266.5q0 -31 -33 -30h-31q-31 0 -31 30q2 186 132 329.5t294 143.5z" />
    <glyph glyph-name="uni042E" unicode="&#x42e;" horiz-adv-x="1576" 
d="M1362 483v533q0 172 -98 287t-240 114h-92q-143 0 -241 -114q-97 -115 -97 -287v-533q0 -173 97 -287t241 -114h92q142 0 240 114t98 287zM932 1509h92q176 0 303 -143t127 -346v-541q0 -203 -127 -347t-303 -144h-92q-176 0 -303 144t-127 347v221h-234v-669
q0 -31 -30 -31h-31q-31 0 -31 31v669h-8v93h8v663q0 31 31 31h31q31 0 30 -31v-663h234v227q0 203 127 346t303 143z" />
    <glyph glyph-name="uni042F" unicode="&#x42f;" horiz-adv-x="1191" 
d="M967 1395h-430q-303 0 -303 -325t303 -325h430v650zM541 1487h487q31 0 31 -31v-1425q0 -31 -31 -31h-31q-31 0 -30 31v622h-459q-283 0 -283 -272v-350q0 -31 -30 -31h-31q-31 0 -31 31v342q0 242 193 332q-184 104 -185 364q0 195 108 307t292 111z" />
    <glyph glyph-name="uni0430" unicode="&#x430;" horiz-adv-x="978" 
d="M381 90h111q59 2 112 31t83 59t69 78v197h-375q-195 0 -195 -181q0 -80 58 -132t137 -52zM846 0h-58q-33 0 -32 49v82q-129 -133 -256 -133h-115q-113 -4 -202 80t-89 202t79 196t206 77h377v53q0 127 -60 198t-155 70h-103q-92 0 -138 -19t-85 -67q-23 -23 -47 -2
l-29 21q-20 20 -2 41q53 68 118 94t175 25h105q131 1 222 -99t91 -258v-561q0 -15 4 -32t-6 -17z" />
    <glyph glyph-name="uni0431" unicode="&#x431;" horiz-adv-x="1040" 
d="M809 342v254q0 106 -69 189t-179 83h-69q-86 0 -171 -66t-85 -134v-455q48 -47 126 -84t132 -37h67q96 0 172 75t76 175zM492 961h69q141 0 241 -113t99 -252v-254q0 -134 -105 -238t-235 -104h-69q-133 0 -256 94v-63q0 -31 -31 -31h-31q-31 0 -31 31v159l-4 7l4 4v620
q1 147 9 305t85 242t218 76q25 -2 75 -7t77 -6q74 -3 147 44q18 12 37 12h57q44 0 6 -55q-22 -31 -64 -58q-44 -27 -73 -32t-77 -10t-214 7q-94 6 -135 -48t-45 -137t-10 -304q117 111 256 111z" />
    <glyph glyph-name="uni0432" unicode="&#x432;" horiz-adv-x="1038" 
d="M246 94h364q94 0 140 29q45 29 45 119t-34 142q-34 50 -118 50h-397v-340zM246 532h395q84 0 114 46t29 135q0 156 -176 155h-362v-336zM885 248q0 -248 -287 -248h-414q-31 0 -30 31v901q0 31 30 31h414q131 0 204 -65q72 -65 72 -193t-45 -174q-24 -26 -65 -44
q121 -51 121 -239z" />
    <glyph glyph-name="uni0433" unicode="&#x433;" horiz-adv-x="956" 
d="M184 963h588q31 0 31 -31v-31q0 -31 -31 -31h-526v-839q0 -31 -31 -31h-31q-31 0 -30 31v901q-1 31 30 31z" />
    <glyph glyph-name="uni0434" unicode="&#x434;" horiz-adv-x="1349" 
d="M1014 92v778h-576v-147q0 -481 -92 -631h668zM1106 92h117q31 0 30 -31v-229q0 -31 -30 -31h-31q-31 0 -31 31v168h-971v-168q0 -31 -30 -31h-31q-31 0 -31 31v229q0 31 31 31h55q45 0 87 81t59 248q16 167 16 320v191q0 31 31 31h698q31 0 31 -31v-840z" />
    <glyph glyph-name="uni0435" unicode="&#x435;" horiz-adv-x="1003" 
d="M809 561v31q0 123 -83 204t-173 81h-78q-106 0 -189 -85t-83 -200v-31h606zM475 969h78q121 0 234.5 -108.5t113.5 -260.5v-82q0 -61 -61 -61h-637v-92q0 -111 83 -193t189 -82h76q137 0 256 141q23 27 43 9l24 -23q23 -20 7 -43q-143 -176 -328 -176h-78
q-137 0 -250.5 110.5t-113.5 256.5v233q0 145 113.5 258t250.5 113z" />
    <glyph glyph-name="uni0436" unicode="&#x436;" horiz-adv-x="1492" 
d="M1337 0h-59q-25 0 -55 29l-426 387v-385q0 -31 -31 -31h-39q-31 0 -31 31v385l-426 -387q-31 -29 -55 -29h-59q-28 0 -23 31q2 12 10 18l471 430l-442 432q-18 19 -13 35t21 17h58q20 0 45 -25l413 -401v395q0 31 31 31h39q31 0 31 -31v-395l413 401q25 25 45 25h58
q16 -1 21 -17t-13 -35l-442 -432l471 -430q21 -16 10 -32q-10 -17 -23 -17z" />
    <glyph glyph-name="uni0437" unicode="&#x437;" horiz-adv-x="1056" 
d="M455 -16q-115 0 -208 78t-93 190q0 23 22 22h47q23 0 23 -22q0 -78 57 -127t141 -49h148q96 0 162 39t66 127t-40 142q-39 52 -141 56h-186q-23 0 -23 23v47q0 23 23 22h186q102 4 133 48t31 129q1 86 -61 131t-150 45h-148q-84 -1 -141 -55t-57 -136q0 -23 -23 -22h-47
q-23 0 -22 22q0 115 93 199t208 84h127q119 0 215 -77t96 -189q0 -61 -6 -95q-15 -86 -117 -129q78 -33 106 -94t27 -149q0 -119 -99 -190t-222 -70h-127z" />
    <glyph glyph-name="uni0438" unicode="&#x438;" horiz-adv-x="1048" 
d="M184 963h31q31 0 31 -31v-881l469 889q8 23 37 23h112q31 0 31 -31v-901q0 -31 -31 -31h-30q-31 0 -31 31v880l-463 -888q-12 -23 -37 -23h-119q-31 0 -30 31v901q-1 31 30 31z" />
    <glyph glyph-name="uni0439" unicode="&#x439;" horiz-adv-x="1048" 
d="M184 963h31q31 0 31 -31v-881l469 889q8 23 37 23h112q31 0 31 -31v-901q0 -31 -31 -31h-30q-31 0 -31 31v880l-463 -888q-12 -23 -37 -23h-119q-31 0 -30 31v901q-1 31 30 31zM778 1638h41q31 0 31 -30q-8 -141 -84 -214t-207 -73h-70q-131 0 -207 74t-83 213
q0 31 30 30h41q31 0 31 -30q8 -94 51 -140t133 -45h78q92 0 134 45t51 140q-1 30 30 30z" />
    <glyph glyph-name="uni043A" unicode="&#x43a;" horiz-adv-x="954" 
d="M799 0h-60q-25 0 -55 29l-448 383v127l436 399q25 25 45 25h57q16 -1 22 -17t-14 -35l-467 -432l496 -430q21 -16 10 -32q-10 -17 -22 -17zM233 932v-901q0 -31 -30 -31h-39q-31 0 -31 31v901q0 31 31 31h39q30 0 30 -31z" />
    <glyph glyph-name="uni043B" unicode="&#x43b;" horiz-adv-x="1105" 
d="M195 932q0 31 32 33h31q10 0 14 -2h650q31 0 30 -31v-901q0 -31 -30 -31h-31q-31 0 -31 31v839h-571v-516q0 -244 -107 -360q-16 -23 -43 0l-37 35q-23 16 0 45q94 109 95 276v537q-2 4 -2 14v31z" />
    <glyph glyph-name="uni043C" unicode="&#x43c;" horiz-adv-x="1355" 
d="M1049 963h122q31 0 31 -31v-901q0 -31 -31 -31h-30q-31 0 -31 31v880l-367 -821q-10 -23 -34 -22h-62q-25 0 -35 22l-366 821v-880q0 -31 -31 -31h-31q-31 0 -30 31v901q0 31 30 31h123q25 0 37 -23l336 -764l332 764q12 23 37 23z" />
    <glyph glyph-name="uni043D" unicode="&#x43d;" horiz-adv-x="1064" 
d="M850 963h31q31 0 30 -31v-901q0 -31 -30 -31h-31q-31 0 -31 31v405h-573v-405q0 -31 -31 -31h-31q-31 0 -30 31v901q0 31 30 31h31q31 0 31 -31v-404h573v404q0 31 31 31z" />
    <glyph glyph-name="uni043E" unicode="&#x43e;" horiz-adv-x="1038" 
d="M834 391v182q0 125 -79 214t-196 90h-78q-121 1 -199 -89t-77 -215v-182q0 -125 78 -213t198 -88h78q117 0 196 88t79 213zM479 969h80q151 0 259 -120t108 -276v-182q0 -157 -109 -275t-258 -118h-80q-151 0 -259 119t-107 274v182q0 158 107 277t259 119z" />
    <glyph glyph-name="uni043F" unicode="&#x43f;" horiz-adv-x="1064" 
d="M184 963h697q31 0 30 -31v-901q0 -31 -30 -31h-31q-31 0 -31 31v839h-573v-839q0 -31 -31 -31h-31q-31 0 -30 31v901q-1 31 30 31z" />
    <glyph glyph-name="uni0440" unicode="&#x440;" horiz-adv-x="1040" 
d="M825 346v250q-1 110 -71 192t-181 82h-84q-83 0 -167 -59t-86 -123v-481q57 -45 131 -80t122 -35h84q96 0 175 77q77 77 77 177zM489 963h84q141 0 243 -113t102 -254v-250q0 -138 -106 -242t-239 -104h-84q-129 0 -253 102v-481q0 -31 -31 -31h-31q-31 0 -31 31v1311
q0 31 31 31h31q31 0 31 -31v-68q112 99 253 99z" />
    <glyph glyph-name="uni0441" unicode="&#x441;" horiz-adv-x="985" 
d="M864 645h-33q-35 0 -34 25q0 72 -82 139.5t-164 67.5h-72q-106 0 -190 -84t-84 -195v-233q0 -111 84 -193t190 -82h70q133 0 256 141q23 25 41 9l26 -23q23 -20 7 -43q-143 -176 -328 -176h-74q-137 0 -250.5 110.5t-113.5 256.5v233q0 145 113.5 258t250.5 113h74
q115 0 227.5 -93.5t114.5 -199.5q0 -31 -29 -31z" />
    <glyph glyph-name="uni0442" unicode="&#x442;" horiz-adv-x="1079" 
d="M184 963h711q31 0 31 -31v-31q0 -31 -31 -31h-307v-839q0 -31 -31 -31h-31q-31 0 -30 31v839h-312q-31 0 -30 31v31q-1 31 30 31z" />
    <glyph glyph-name="uni0443" unicode="&#x443;" horiz-adv-x="989" 
d="M850 963h43q33 0 18 -37l-544 -1301q-14 -35 -45 -35h-43q-35 0 -21 37l182 432l-364 867q-14 37 18 37h45q29 0 43 -35l312 -742l311 742q14 35 45 35z" />
    <glyph glyph-name="uni0444" unicode="&#x444;" horiz-adv-x="1685" 
d="M1470 346v250q0 110 -70 192t-181 82h-76q-84 0 -168 -59t-86 -123v-483q55 -45 130 -79t124 -34h76q96 0 174 77q77 77 77 177zM467 92h76q49 0 124 34t130 79v483q-2 62 -86 122t-168 60h-76q-111 0 -181 -83t-71 -191v-250q0 -100 78 -177t174 -77zM1143 963h76
q141 0 242 -113t102 -254v-250q1 -138 -105 -242t-239 -104h-76q-129 0 -254 102v-481q0 -31 -31 -31h-31q-31 0 -30 31v481q-125 -102 -254 -102h-76q-133 0 -239 104q-105 104 -105 242v250q0 141 101 254t243 113h76q141 0 254 -99v592q0 31 30 31h31q31 0 31 -31v-592
q113 99 254 99z" />
    <glyph glyph-name="uni0445" unicode="&#x445;" horiz-adv-x="907" 
d="M797 0h-45q-23 0 -47 35l-252 368l-250 -368q-23 -35 -47 -35h-47q-18 0 -25 10q-6 10 4 27l307 452l-297 437q-10 16 -4 26t25 11h47q25 0 47 -35l242 -355l239 355q23 35 47 35h47q18 -1 24 -11t-5 -26l-295 -437l307 -452q10 -17 4 -27t-26 -10z" />
    <glyph glyph-name="uni0446" unicode="&#x446;" horiz-adv-x="1153" 
d="M911 92h88q31 0 31 -31v-272q0 -31 -31 -31h-30q-31 0 -31 31v211h-754q-31 0 -30 31v901q0 31 30 31h31q31 0 31 -31v-840h573v840q0 31 31 31h31q31 0 30 -31v-840z" />
    <glyph glyph-name="uni0447" unicode="&#x447;" horiz-adv-x="1042" 
d="M827 963h31q31 0 31 -31v-901q0 -31 -31 -31h-31q-31 0 -30 31v307q-125 -100 -254 -100h-70q-143 0 -247 112q-103 113 -103 254v328q0 31 31 31h30q31 0 31 -31v-334q0 -100 73 -184t179 -84h76q82 0 167 59t87 119v424q-1 31 30 31z" />
    <glyph glyph-name="uni0448" unicode="&#x448;" horiz-adv-x="1728" 
d="M1513 963h31q31 0 31 -31v-901q0 -31 -31 -31h-1360q-31 0 -30 31v901q0 31 30 31h31q31 0 31 -31v-840h573v840q0 31 31 31h31q31 0 30 -31v-840h572v840q-1 31 30 31z" />
    <glyph glyph-name="uni0449" unicode="&#x449;" horiz-adv-x="1839" 
d="M1575 92h90q31 0 31 -31v-272q0 -31 -31 -31h-31q-31 0 -30 31v211h-1420q-31 0 -30 31v901q0 31 30 31h31q31 0 31 -31v-840h573v840q0 31 31 31h31q31 0 30 -31v-840h572v840q0 31 30 31h31q31 0 31 -31v-840z" />
    <glyph glyph-name="uni044A" unicode="&#x44a;" horiz-adv-x="1222" 
d="M387 92h318q157 0 225 53t67 172q0 225 -292 226h-318v-451zM387 635h315q178 0 282 -89t106 -234q0 -144 -102 -228t-286 -84h-376q-31 0 -31 31v839h-172q-31 0 -31 31v31q0 31 31 31h233q31 0 31 -31v-297z" />
    <glyph glyph-name="uni044B" unicode="&#x44b;" horiz-adv-x="1480" 
d="M225 92h320q159 0 225 53t66 172q0 225 -291 226h-320v-451zM225 635h316q178 0 282 -89q105 -89 105 -234q0 -144 -102 -228t-285 -84h-377q-31 0 -31 31v901q0 31 31 31h31q31 0 30 -31v-297zM1255 965h31q31 0 31 -31v-903q0 -31 -31 -31h-31q-31 0 -30 31v903
q-1 31 30 31z" />
    <glyph glyph-name="uni044C" unicode="&#x44c;" horiz-adv-x="1060" 
d="M225 92h320q159 0 225 53t66 172q0 225 -291 226h-320v-451zM225 635h316q178 0 282 -89q105 -89 105 -234q0 -144 -102 -228t-285 -84h-377q-31 0 -31 31v901q0 31 31 31h31q31 0 30 -31v-297z" />
    <glyph glyph-name="uni044D" unicode="&#x44d;" horiz-adv-x="985" 
d="M434 969h74q137 0 250.5 -113t113.5 -258v-233q0 -145 -113.5 -256t-250.5 -111h-74q-184 0 -328 176q-16 23 7 43l26 23q18 16 41 -9q123 -141 258 -141h70q106 0 189 82t83 193v71h-307q-31 0 -31 31v31q0 31 31 30h307v70q0 111 -83 195t-189 84h-74q-82 0 -164 -68
t-82 -139q4 -25 -34 -25h-33q-29 0 -29 31q2 106 115.5 199.5t226.5 93.5z" />
    <glyph glyph-name="uni044E" unicode="&#x44e;" horiz-adv-x="1439" 
d="M1235 391v182q0 125 -79 214t-198 90h-77q-121 1 -198 -89t-77 -215v-182q0 -125 77 -213t198 -88h77q119 0 198 88t79 213zM881 969h80q151 0 259 -120t107 -276v-182q-1 -157 -109 -275t-257 -118h-80q-154 0 -260 118t-107 275v45h-276v-407q0 -31 -31 -31h-31
q-31 0 -31 31v407h-10v92h10v404q0 31 31 31h31q31 0 31 -31v-404h276v45q0 158 106 277t261 119z" />
    <glyph glyph-name="uni044F" unicode="&#x44f;" horiz-adv-x="1017" 
d="M772 870h-369q-170 0 -170 -151q0 -86 29 -129t109 -43h401v323zM193 0h-29q-31 0 -31 31v227q0 193 127 240q-87 32 -103 101q-14 56 -14 110q0 254 277 254h414q31 0 30 -31v-901q0 -31 -30 -31h-31q-31 0 -31 31v424h-401q-80 0 -114 -42t-34 -134v-248q1 -31 -30 -31
z" />
    <glyph glyph-name="uni0451" unicode="&#x451;" horiz-adv-x="1003" 
d="M809 561v31q0 123 -83 204t-173 81h-78q-106 0 -189 -85t-83 -200v-31h606zM475 969h78q121 0 234.5 -108.5t113.5 -260.5v-82q0 -61 -61 -61h-637v-92q0 -111 83 -193t189 -82h76q137 0 256 141q23 27 43 9l24 -23q23 -20 7 -43q-143 -176 -328 -176h-78
q-137 0 -250.5 110.5t-113.5 256.5v233q0 145 113.5 258t250.5 113zM760 1372v84q0 31 31 31h59q31 0 31 -31v-84q0 -31 -31 -31h-59q-31 0 -31 31zM121 1372v84q0 31 31 31h61q31 0 31 -31v-84q0 -31 -31 -31h-61q-31 0 -31 31z" />
    <glyph glyph-name="uni0453" unicode="&#x453;" horiz-adv-x="956" 
d="M184 963h588q31 0 31 -31v-31q0 -31 -31 -31h-526v-839q0 -31 -31 -31h-31q-31 0 -30 31v901q-1 31 30 31zM487 1186h-34q-37 0 -21 37l154 379q12 37 43 36h59q39 0 21 -36l-179 -379q-20 -37 -43 -37z" />
    <glyph glyph-name="uni0454" unicode="&#x454;" horiz-adv-x="985" 
d="M551 -2h-74q-137 0 -250.5 110.5t-113.5 256.5v233q0 145 113.5 258t250.5 113h74q115 0 227.5 -93.5t114.5 -199.5q0 -31 -29 -31h-33q-35 0 -34 25q0 72 -82 139.5t-164 67.5h-72q-106 0 -190 -84t-84 -195v-70h307q31 0 31 -30v-31q0 -31 -31 -31h-307v-71
q0 -111 84 -193t190 -82h70q133 0 256 141q23 25 41 9l26 -23q23 -20 7 -43q-143 -176 -328 -176z" />
    <glyph glyph-name="uni0456" unicode="&#x456;" horiz-adv-x="415" 
d="M162 31v903q0 31 31 31h30q31 0 31 -31v-903q0 -31 -31 -31h-30q-31 0 -31 31zM145 1374v82q0 31 31 31h64q31 0 30 -31v-82q0 -31 -30 -31h-64q-31 0 -31 31z" />
    <glyph glyph-name="uni0457" unicode="&#x457;" horiz-adv-x="419" 
d="M164 31v903q0 31 31 31h30q31 0 31 -31v-903q0 -31 -31 -31h-30q-31 0 -31 31zM469 1372v84q0 31 31 31h59q31 0 31 -31v-84q0 -31 -31 -31h-59q-31 0 -31 31zM-170 1372v84q0 31 31 31h59q31 0 31 -31v-84q0 -31 -31 -31h-59q-31 0 -31 31z" />
    <glyph glyph-name="uni0458" unicode="&#x458;" horiz-adv-x="411" 
d="M156 -106v1040q0 31 30 31h31q31 0 31 -31v-1032q0 -78 -60 -156t-147 -113q-29 -10 -39 21l-6 37q-8 27 18 37q57 20 100 64q42 44 42 102zM135 1374v82q0 31 31 31h63q31 0 31 -31v-82q0 -31 -31 -31h-63q-31 0 -31 31z" />
    <glyph glyph-name="uni045C" unicode="&#x45c;" horiz-adv-x="954" 
d="M799 0h-60q-25 0 -55 29l-448 383v127l436 399q25 25 45 25h57q16 -1 22 -17t-14 -35l-467 -432l496 -430q21 -16 10 -32q-10 -17 -22 -17zM233 932v-901q0 -31 -30 -31h-39q-31 0 -31 31v901q0 31 31 31h39q30 0 30 -31zM686 1638q39 0 21 -36l-179 -379
q-20 -37 -43 -37h-34q-37 0 -21 37l154 379q12 37 43 36h59z" />
    <glyph glyph-name="uni045D" unicode="&#x45d;" horiz-adv-x="1048" 
d="M184 963h31q31 0 31 -31v-881l469 889q8 23 37 23h112q31 0 31 -31v-901q0 -31 -31 -31h-30q-31 0 -31 31v880l-463 -888q-12 -23 -37 -23h-119q-31 0 -30 31v901q-1 31 30 31zM541 1186h-39q-23 0 -43 37l-178 379q-18 37 20 36h64q31 1 43 -36l153 -379q16 -37 -20 -37
z" />
    <glyph glyph-name="uni045E" unicode="&#x45e;" horiz-adv-x="989" 
d="M850 963h43q33 0 18 -37l-544 -1301q-14 -35 -45 -35h-43q-35 0 -21 37l182 432l-364 867q-14 37 18 37h45q29 0 43 -35l312 -742l311 742q14 35 45 35zM530 1321h-69q-131 0 -207 74t-84 213q0 31 31 30h41q31 0 30 -30q8 -94 52 -140t133 -45h78q92 0 134 45t50 140
q0 31 31 30h41q31 0 30 -30q-8 -141 -84 -214t-207 -73z" />
    <glyph glyph-name="uni0490" unicode="&#x490;" horiz-adv-x="1148" 
d="M954 1671h31q31 0 31 -31v-215q0 -31 -31 -30h-760v-1364q0 -31 -30 -31h-31q-31 0 -31 31v1425q0 31 31 31h760v153q-1 31 30 31z" />
    <glyph glyph-name="uni0491" unicode="&#x491;" horiz-adv-x="956" 
d="M741 1147h31q31 0 31 -31v-215q0 -31 -31 -31h-526v-839q0 -31 -31 -31h-31q-31 0 -30 31v901q0 31 30 31h527v153q-1 31 30 31z" />
    <glyph glyph-name="uni04C0" unicode="&#x4c0;" horiz-adv-x="444" 
d="M176 31v1425q0 31 31 31h31q31 0 30 -31v-1425q0 -31 -30 -31h-31q-31 0 -31 31z" />
    <glyph glyph-name="uni04E2" unicode="&#x4e2;" horiz-adv-x="1292" 
d="M164 1487h31q31 0 30 -31v-1429l740 1437q10 23 36 23h127q31 0 31 -31v-1425q0 -31 -31 -31h-30q-31 0 -31 31v1431l-737 -1439q-10 -23 -37 -23h-129q-31 0 -31 31v1425q0 31 31 31zM979 1919h-664q-31 0 -30 31v30q0 31 30 31h664q31 0 31 -31v-30q0 -31 -31 -31z" />
    <glyph glyph-name="uni04E3" unicode="&#x4e3;" horiz-adv-x="1048" 
d="M184 963h31q31 0 31 -31v-881l469 889q8 23 37 23h112q31 0 31 -31v-901q0 -31 -31 -31h-30q-31 0 -31 31v880l-463 -888q-12 -23 -37 -23h-119q-31 0 -30 31v901q-1 31 30 31zM858 1395h-663q-31 0 -31 30v31q0 31 31 31h663q31 0 31 -31v-31q0 -30 -31 -30z" />
    <glyph glyph-name="uni04E8" unicode="&#x4e8;" horiz-adv-x="1198" 
d="M553 82h92q141 0 240 115q98 115 98 286v215h-768v-215q-1 -173 97 -287t241 -114zM645 1417h-92q-143 0 -241 -114q-97 -115 -97 -287v-225h768v225q0 172 -98 287q-99 114 -240 114zM553 1509h92q176 0 303 -143t127 -346v-541q0 -203 -127 -347t-303 -144h-92
q-176 0 -303 144t-127 347v541q0 203 127 346t303 143z" />
    <glyph glyph-name="uni04E9" unicode="&#x4e9;" horiz-adv-x="1038" 
d="M481 90h78q117 0 196 88t79 213v45h-629v-45q-1 -125 77 -213t199 -88zM559 877h-78q-121 1 -199 -89t-77 -215v-45h629v45q0 125 -79 215t-196 89zM479 969h80q151 0 259 -120t108 -276v-182q0 -157 -109 -275t-258 -118h-80q-151 0 -259 119t-107 274v182
q0 158 107 277t259 119z" />
    <glyph glyph-name="uni04EC" unicode="&#x4ec;" horiz-adv-x="1159" 
d="M528 1509h95q172 0 303 -144t131 -343v-557q0 -197 -131 -344.5t-303 -147.5h-95q-164 0 -294 145.5t-132 332.5q0 31 31 30h31q33 0 33 -30q-2 -152 99 -268.5t232 -116.5h95q137 0 239.5 117.5t102.5 281.5v233h-402q-31 0 -31 31v31q0 31 31 31h402v231
q0 162 -102.5 278.5t-239.5 116.5h-95q-129 0 -230 -114.5t-101 -266.5q0 -31 -33 -30h-31q-31 0 -31 30q2 186 132 329.5t294 143.5zM938 1866h-59q-31 0 -31 30v84q0 31 31 31h59q31 0 31 -31v-84q0 -30 -31 -30zM301 1866h-61q-31 0 -31 30v84q0 31 31 31h61q31 0 31 -31
v-84q0 -30 -31 -30z" />
    <glyph glyph-name="uni04ED" unicode="&#x4ed;" horiz-adv-x="985" 
d="M434 969h74q137 0 250.5 -113t113.5 -258v-233q0 -145 -113.5 -256t-250.5 -111h-74q-184 0 -328 176q-16 23 7 43l26 23q18 16 41 -9q123 -141 258 -141h70q106 0 189 82t83 193v71h-307q-31 0 -31 31v31q0 31 31 30h307v70q0 111 -83 195t-189 84h-74q-82 0 -164 -68
t-82 -139q4 -25 -34 -25h-33q-29 0 -29 31q2 106 115.5 199.5t226.5 93.5zM784 1487h60q31 0 30 -31v-84q0 -31 -30 -31h-60q-31 0 -30 31v84q-1 31 30 31zM207 1341h-62q-31 0 -30 31v84q0 31 30 31h62q31 0 31 -31v-84q0 -31 -31 -31z" />
    <glyph glyph-name="uni04EE" unicode="&#x4ee;" horiz-adv-x="1179" 
d="M1012 1487h43q33 0 18 -37l-635 -1415q-14 -35 -45 -35h-43q-35 0 -20 37l229 512l-22 -27l-431 928q-18 37 19 37h45q29 0 43 -35l385 -817l369 817q14 35 45 35zM922 1919h-664q-31 0 -31 31v30q0 31 31 31h664q31 0 30 -31v-30q1 -31 -30 -31z" />
    <glyph glyph-name="uni04EF" unicode="&#x4ef;" horiz-adv-x="989" 
d="M850 963h43q33 0 18 -37l-544 -1301q-14 -35 -45 -35h-43q-35 0 -21 37l182 432l-364 867q-14 37 18 37h45q29 0 43 -35l312 -742l311 742q14 35 45 35zM827 1395h-663q-31 0 -31 30v31q0 31 31 31h663q31 0 31 -31v-31q0 -30 -31 -30z" />
    <glyph glyph-name="Macute" unicode="&#x1e3e;" horiz-adv-x="1441" 
d="M1176 1487h92q31 0 30 -31v-1425q0 -31 -30 -31h-31q-31 0 -31 31v1343l-426 -1343q-10 -31 -39 -31h-53q-29 0 -39 31l-426 1343v-1343q0 -31 -30 -31h-31q-31 0 -31 31v1425q0 31 31 31h92q33 0 41 -31l418 -1325l422 1325q8 31 41 31zM862 2163h60q39 0 20 -37
l-178 -379q-20 -37 -43 -37h-35q-36 0 -20 37l153 379q12 37 43 37z" />
    <glyph glyph-name="macute" unicode="&#x1e3f;" horiz-adv-x="1701" 
d="M1135 963h75q140 0 242 -113t102 -254v-565q0 -31 -30 -31h-31q-31 0 -31 31v565q0 106 -69 190q-70 84 -183 84h-69q-86 0 -167 -60t-85 -124q12 -43 12 -90v-565q0 -31 -31 -31h-30q-31 0 -31 31v565q0 110 -67 192t-177 82h-69q-84 0 -166 -60t-84 -124v-655
q0 -31 -31 -31h-31q-31 0 -30 31v901q0 31 30 31h31q31 0 31 -31v-66q111 96 243 97h76q168 0 275 -162q47 68 130 115t165 47zM858 1186h-35q-37 0 -20 37l153 379q12 37 43 36h60q39 0 20 -36l-178 -379q-20 -37 -43 -37z" />
    <glyph glyph-name="Wgrave" unicode="&#x1e80;" horiz-adv-x="1880" 
d="M1735 1487h34q33 0 27 -31l-358 -1425q-8 -31 -39 -31h-41q-31 0 -39 31l-379 1323l-379 -1323q-8 -31 -39 -31h-41q-33 0 -39 31l-358 1425q-8 31 25 31h34q31 0 37 -31l320 -1315l379 1315q10 31 39 31h47q31 0 39 -31l378 -1315l318 1315q6 31 35 31zM954 1710h-39
q-23 0 -43 37l-178 379q-18 37 21 37h63q31 0 43 -37l154 -379q16 -37 -21 -37z" />
    <glyph glyph-name="wgrave" unicode="&#x1e81;" horiz-adv-x="1406" 
d="M1274 963h35q35 0 24 -35l-241 -895q-10 -33 -39 -33h-43q-23 0 -39 33l-266 774l-269 -774q-10 -33 -39 -33h-43q-23 0 -39 33l-241 895q-10 35 24 35h35q27 0 37 -35l205 -778l270 778q10 35 37 35h43q23 0 37 -35l268 -778l207 778q10 35 37 35zM719 1186h-39
q-23 0 -43 37l-178 379q-18 37 20 36h64q31 1 43 -36l153 -379q16 -37 -20 -37z" />
    <glyph glyph-name="Wacute" unicode="&#x1e82;" horiz-adv-x="1880" 
d="M1735 1487h34q33 0 27 -31l-358 -1425q-8 -31 -39 -31h-41q-31 0 -39 31l-379 1323l-379 -1323q-8 -31 -39 -31h-41q-33 0 -39 31l-358 1425q-8 31 25 31h34q31 0 37 -31l320 -1315l379 1315q10 31 39 31h47q31 0 39 -31l378 -1315l318 1315q6 31 35 31zM1090 2163h59
q39 0 20 -37l-178 -379q-20 -37 -43 -37h-35q-36 0 -20 37l154 379q12 37 43 37z" />
    <glyph glyph-name="wacute" unicode="&#x1e83;" horiz-adv-x="1406" 
d="M1274 963h35q35 0 24 -35l-241 -895q-10 -33 -39 -33h-43q-23 0 -39 33l-266 774l-269 -774q-10 -33 -39 -33h-43q-23 0 -39 33l-241 895q-10 35 24 35h35q27 0 37 -35l205 -778l270 778q10 35 37 35h43q23 0 37 -35l268 -778l207 778q10 35 37 35zM913 1638q39 0 21 -36
l-178 -379q-20 -37 -43 -37h-35q-37 0 -21 37l154 379q12 37 43 36h59z" />
    <glyph glyph-name="Wdieresis" unicode="&#x1e84;" horiz-adv-x="1880" 
d="M1735 1487h34q33 0 27 -31l-358 -1425q-8 -31 -39 -31h-41q-31 0 -39 31l-379 1323l-379 -1323q-8 -31 -39 -31h-41q-33 0 -39 31l-358 1425q-8 31 25 31h34q31 0 37 -31l320 -1315l379 1315q10 31 39 31h47q31 0 39 -31l378 -1315l318 1315q6 31 35 31zM1200 1896v84
q0 31 31 31h59q31 0 31 -31v-84q0 -31 -31 -30h-59q-31 -1 -31 30zM561 1896v84q0 31 31 31h61q31 0 31 -31v-84q0 -31 -31 -30h-61q-31 -1 -31 30z" />
    <glyph glyph-name="wdieresis" unicode="&#x1e85;" horiz-adv-x="1406" 
d="M1274 963h35q35 0 24 -35l-241 -895q-10 -33 -39 -33h-43q-23 0 -39 33l-266 774l-269 -774q-10 -33 -39 -33h-43q-23 0 -39 33l-241 895q-10 35 24 35h35q27 0 37 -35l205 -778l270 778q10 35 37 35h43q23 0 37 -35l268 -778l207 778q10 35 37 35zM963 1372v84
q0 31 30 31h60q31 0 30 -31v-84q0 -31 -30 -31h-60q-30 0 -30 31zM324 1372v84q0 31 30 31h62q31 0 30 -31v-84q0 -31 -30 -31h-62q-30 0 -30 31z" />
    <glyph glyph-name="Ygrave" unicode="&#x1ef2;" horiz-adv-x="1177" 
d="M1028 1487h49q39 0 21 -31l-465 -803v-622q0 -31 -31 -31h-31q-31 0 -30 31v622l-459 803q-10 14 -3 22t23 9h50q18 0 41 -31l395 -696l399 696q18 31 41 31zM606 1710h-39q-23 0 -43 37l-178 379q-18 37 21 37h63q31 0 43 -37l154 -379q16 -37 -21 -37z" />
    <glyph glyph-name="ygrave" unicode="&#x1ef3;" horiz-adv-x="989" 
d="M850 963h43q33 0 18 -37l-544 -1301q-14 -35 -45 -35h-43q-35 0 -21 37l182 432l-364 867q-14 37 18 37h45q29 0 43 -35l312 -742l311 742q14 35 45 35zM334 1638q31 0 43 -36l153 -379q16 -37 -20 -37h-39q-23 0 -43 37l-178 379q-18 37 20 36h64z" />
    <glyph glyph-name="endash" unicode="&#x2013;" horiz-adv-x="1271" 
d="M1118 436h-964q-31 0 -31 31v31q0 31 31 30h964q31 0 31 -30v-31q0 -31 -31 -31z" />
    <glyph glyph-name="emdash" unicode="&#x2014;" horiz-adv-x="1423" 
d="M1270 436h-1116q-31 0 -31 31v31q0 31 31 30h1116q31 0 30 -30v-31q1 -31 -30 -31z" />
    <glyph glyph-name="quoteleft" unicode="&#x2018;" horiz-adv-x="389" 
d="M229 932h-96q-31 0 -31 31v184q0 69 3 107t27 100t71 114q20 23 41 0l37 -32q27 -27 8 -43q-55 -53 -69 -101t-15 -133l-17 -20h41q31 0 31 -31v-145q0 -31 -31 -31z" />
    <glyph glyph-name="quoteright" unicode="&#x2019;" horiz-adv-x="411" 
d="M172 1487h96q31 0 31 -31v-184q0 -70 -3 -108t-27 -98t-70 -114q-18 -20 -41 0l-37 31q-27 25 -8 43q55 53 69 101t15 133l16 20h-41q-31 0 -31 31v145q0 31 31 31z" />
    <glyph glyph-name="quotesinglbase" unicode="&#x201a;" horiz-adv-x="389" 
d="M160 207h96q31 0 31 -31v-184q0 -68 -4 -108t-28 -100t-71 -114q-18 -20 -41 0l-34 33q-27 27 -9 43q55 53 70 102q14 49 14 132l17 20h-41q-31 0 -31 31v145q0 31 31 31z" />
    <glyph glyph-name="quotedblleft" unicode="&#x201c;" horiz-adv-x="702" 
d="M545 932h-96q-31 0 -31 31v184q0 69 3 107t27 100t70 114q18 23 41 0l35 -32q25 -27 8 -43q-55 -53 -68 -101t-14 -133l-16 -20h41q31 0 30 -31v-145q1 -31 -30 -31zM229 932h-96q-31 0 -31 31v184q0 69 3 107t27 100t71 114q20 23 41 0l37 -32q27 -27 8 -43
q-55 -53 -69 -101t-15 -133l-17 -20h41q31 0 31 -31v-145q0 -31 -31 -31z" />
    <glyph glyph-name="quotedblright" unicode="&#x201d;" horiz-adv-x="720" 
d="M483 1487h97q31 0 30 -31v-184q0 -70 -3 -108t-27 -98t-70 -114q-18 -20 -41 0l-35 31q-25 25 -8 43q55 53 69 101q13 48 13 133l16 20h-41q-31 0 -30 31v145q-1 31 30 31zM170 1487h96q31 0 31 -31v-184q0 -68 -4 -107t-28 -99t-70 -114q-18 -20 -41 0l-35 31
q-25 25 -8 43q55 53 69 102t15 132l16 20h-41q-31 0 -31 31v145q0 31 31 31z" />
    <glyph glyph-name="quotedblbase" unicode="&#x201e;" horiz-adv-x="702" 
d="M473 207h96q31 0 31 -31v-184q0 -70 -3 -108t-27 -99t-70 -115q-18 -20 -41 0l-35 33q-27 27 -8 43q55 53 68 101t14 133l16 20h-41q-31 0 -31 31v145q0 31 31 31zM160 207h96q31 0 31 -31v-184q0 -68 -4 -108t-28 -100t-71 -114q-18 -20 -41 0l-34 33q-27 27 -9 43
q55 53 70 102q14 49 14 132l17 20h-41q-31 0 -31 31v145q0 31 31 31z" />
    <glyph glyph-name="dagger" unicode="&#x2020;" horiz-adv-x="886" 
d="M492 963h282q31 0 31 -31v-31q0 -31 -31 -31h-282v-1106q0 -31 -31 -30h-31q-31 0 -31 30v1106h-286q-31 0 -31 31v31q0 31 31 31h286v501q0 31 31 31h31q31 0 31 -31v-501z" />
    <glyph glyph-name="daggerdbl" unicode="&#x2021;" horiz-adv-x="886" 
d="M492 870v-512h282q31 0 31 -32v-29q0 -31 -31 -31h-282v-502q0 -31 -31 -30h-31q-31 0 -31 30v502h-286q-31 0 -31 31v31q0 31 31 30h286v512h-286q-31 0 -31 31v31q0 31 31 31h286v501q0 31 31 31h31q31 0 31 -31v-501h282q31 0 31 -31v-31q0 -31 -31 -31h-282z" />
    <glyph glyph-name="bullet" unicode="&#x2022;" horiz-adv-x="567" 
d="M164 666v94q0 68 65 67h105q70 0 69 -67v-94q0 -68 -69 -68h-105q-65 0 -65 68z" />
    <glyph glyph-name="ellipsis" unicode="&#x2026;" horiz-adv-x="790" 
d="M592 31v32q0 31 31 31h34q31 0 31 -31v-32q0 -31 -31 -31h-34q-31 0 -31 31zM348 31v32q0 31 31 31h35q31 0 30 -31v-32q0 -31 -30 -31h-35q-31 0 -31 31zM102 31v32q0 31 31 31h35q31 0 31 -31v-32q0 -31 -31 -31h-35q-31 0 -31 31z" />
    <glyph glyph-name="perthousand" unicode="&#x2030;" horiz-adv-x="1939" 
d="M1743 193v16q0 92 -96 92h-19q-94 0 -94 -92v-16q0 -94 94 -95h19q96 1 96 95zM1112 193v16q0 92 -96 92h-19q-94 0 -94 -92v-16q0 -94 94 -95h19q96 1 96 95zM1624 401h27q82 0 135 -54t53 -136v-23q0 -82 -53 -135t-135 -53h-27q-84 0 -136 53t-52 135v23q0 82 53 136
t135 54zM993 401h27q82 0 135 -54t53 -136v-23q0 -82 -53 -135t-135 -53h-27q-84 0 -136 53t-52 135v23q0 82 53 136t135 54zM389 1278v16q0 92 -96 92h-19q-94 0 -94 -92v-16q0 -94 94 -94h19q96 0 96 94zM1047 1487h55q39 0 20 -31l-827 -1425q-18 -31 -41 -31h-55
q-39 0 -21 31l828 1425q18 31 41 31zM270 1487h27q82 0 135 -54t53 -137v-22q0 -82 -52 -135t-136 -54h-27q-82 -1 -135 53t-53 136v22q0 82 53 136t135 55z" />
    <glyph glyph-name="guilsinglleft" unicode="&#x2039;" horiz-adv-x="677" 
d="M565 872v-88q0 -18 -37 -45l-278 -213l278 -211q4 -4 10 -8t10 -7q3 -3 7 -6q10 -8 10 -24v-90q0 -16 -11 -21t-26 5l-385 295q-4 4 -12 8q-18 9 -18 29v61q0 19 13 27t17 12l385 293q14 10 26 5t11 -22z" />
    <glyph glyph-name="guilsinglright" unicode="&#x203a;" horiz-adv-x="677" 
d="M565 557v-61q0 -20 -13 -26t-17 -11l-385 -295q-14 -10 -26 -5q-11 5 -11 21v90q0 18 11 26q11 7 26 19l280 211l-280 213q-37 27 -37 45v88q0 16 11 22q12 5 26 -5l385 -293q4 -4 17 -12t13 -27z" />
    <glyph glyph-name="fraction" unicode="&#x2044;" horiz-adv-x="204" 
d="M463 1487h86q39 0 20 -31l-827 -1425q-18 -31 -41 -31h-86q-39 0 -21 31l828 1425q18 31 41 31z" />
    <glyph glyph-name="Euro" unicode="&#x20ac;" horiz-adv-x="1445" 
d="M1282 481h31q31 0 30 -30q-2 -185 -132 -331t-293 -147h-95q-170 -1 -302 147t-132 345v117h-256q-31 0 -31 30v37q0 31 31 31h256v125h-256q-31 0 -31 31v34q0 31 31 31h256v121q0 197 132 342t302 145h95q164 0 294 -143t131 -330q0 -31 -30 -30h-31q-33 0 -33 30
q0 152 -101 267t-230 114h-95q-137 0 -239 -117t-103 -278v-121h426q31 0 31 -31v-34q0 -31 -31 -31h-426v-125h426q31 0 31 -31v-37q0 -31 -31 -30h-426v-117q1 -164 103 -282t239 -117h95q131 0 232 116t99 269q0 30 33 30z" />
    <glyph glyph-name="hryvnia" unicode="&#x20b4;" horiz-adv-x="1179" 
d="M1004 475h32q31 0 31 -31v-59q0 -176 -130 -295t-300 -119h-94q-176 0 -303 119t-127 301q0 96 39 170h-9q-31 0 -30 31v57q0 31 30 31h111q109 76 281 111l73 14h-465q-31 0 -30 31v55q0 31 30 31h756q68 68 68 202t-86 214t-226 81h-106q-133 0 -229 -94t-97 -246v-39
q0 -31 -30 -30h-33q-31 0 -31 30v39q-2 185 126 309t294 123h106q170 1 287 -113t117 -292q0 -109 -47 -184h22q31 0 31 -31v-55q0 -31 -31 -31h-145q-92 -55 -250 -86l-107 -21q-8 -2 -34 -7t-45 -11h581q31 0 31 -31v-57q0 -31 -31 -31h-780q-49 -70 -49 -170
q0 -151 98 -239t240 -89h94q135 1 232 89t102 233l2 59q0 31 31 31z" />
    <glyph glyph-name="uni2116" unicode="&#x2116;" horiz-adv-x="2250" 
d="M1384 371v30q0 31 31 31h692q31 0 31 -31v-30q0 -31 -31 -31h-692q-31 0 -31 31zM2040 981v145q0 106 -68 188t-180 83h-63q-115 0 -182 -81t-66 -190v-145q1 -109 67 -189t181 -81h63q112 0 180 82t68 188zM1098 1487h30q31 0 31 -31v-1425q0 -31 -31 -31h-127
q-27 0 -36 23l-740 1437v-1429q0 -31 -30 -31h-31q-31 0 -31 31v1425q0 31 31 31h129q27 0 37 -23l737 -1437v1429q0 31 31 31zM1731 1491h59q146 0 246 -112t100 -255v-141q0 -143 -99 -255t-247 -112h-59q-150 0 -248 111t-99 256v141q0 145 98 256t249 111z" />
    <glyph glyph-name="uni2120" unicode="&#x2120;" horiz-adv-x="1572" 
d="M1337 1487h123q31 0 31 -31v-463q0 -31 -31 -30h-61q-31 0 -31 30v340l-201 -340q-18 -31 -39 -30h-43q-20 0 -38 30l-201 340v-340q0 -31 -31 -30h-61q-31 0 -31 30v463q0 31 31 31h123q25 0 41 -31l188 -338l190 338q18 31 41 31zM332 952q-120 0 -184 44
q-65 44 -66 112q0 16 18 16h82q18 0 19 -16q1 -39 109 -39t134 7t25 38q0 31 -23 40t-137 14q-227 10 -227 171q0 90 59 125t187 35q248 0 252 -164q0 -18 -15 -18h-82q-18 1 -19 23t-28 32q-28 10 -110 10t-105 -8t-23 -30t6 -32q13 -24 141 -30t183 -47q56 -41 56 -120
t-66 -121t-186 -42z" />
    <glyph glyph-name="trademark" unicode="&#x2122;" horiz-adv-x="1595" 
d="M1360 1487h123q31 0 30 -31v-463q0 -31 -30 -30h-62q-31 0 -30 30v340l-201 -340q-18 -31 -39 -30h-43q-20 0 -39 30l-201 340v-340q0 -31 -30 -30h-62q-31 0 -31 30v463q0 31 31 31h123q25 0 41 -31l188 -338l191 338q18 31 41 31zM113 1487h489q31 0 31 -31v-61
q0 -31 -31 -31h-182v-371q0 -31 -31 -30h-61q-31 0 -31 30v371h-184q-31 0 -31 31v61q0 31 31 31z" />
    <glyph glyph-name="oneeighth" unicode="&#x215b;" horiz-adv-x="1480" 
d="M1071 188q1 -33 23 -52t57 -19t59 19t23 52q0 33 -23 55t-55 21h-6q-33 0 -55 -22t-23 -54zM1149 371h6q33 -1 55 21t23 54q0 32 -24 52q-25 20 -59 20t-56 -19t-23 -53q1 -34 23 -54q22 -21 55 -21zM1358 183q0 -71 -50 -127t-130 -56h-52q-80 0 -130 56t-50 127t70 134
q-70 63 -70 135t50 127q50 56 130 56h52q80 0 130 -56q50 -55 50 -127t-70 -135q70 -63 70 -134zM246 885v571q0 31 30 31h66q31 0 31 -31v-571q0 -31 -31 -31h-66q-30 0 -30 31zM1081 1487h86q39 0 21 -31l-828 -1425q-18 -31 -41 -31h-86q-38 0 -20 31l827 1425
q18 31 41 31z" />
    <glyph glyph-name="threeeighths" unicode="&#x215c;" horiz-adv-x="1515" 
d="M1184 264q-33 0 -56 -22q-22 -22 -22 -54q0 -33 22 -52t58 -19q34 0 58 19t24 52t-23 55t-55 21h-6zM1184 371h6q34 -1 56 21t22 54t-24 52t-58 20t-58 -19q-22 -19 -22 -53t22 -54q22 -21 56 -21zM1393 183q-1 -71 -51 -127t-130 -56h-51q-80 0 -130 56t-50 127t70 134
q-70 63 -70 135t50 127q50 56 130 56h51q80 0 130 -56q50 -55 50 -127t-69 -135q70 -63 70 -134zM1116 1487h86q39 0 21 -31l-828 -1425q-18 -31 -41 -31h-86q-38 0 -20 31l827 1425q18 31 41 31zM350 854h-51q-74 0 -125 51t-51 119v27q0 31 31 30h61q31 0 31 -30v-15
q0 -27 22 -46t56 -19t58 19t24 52t-23 55t-55 21h-47q-31 0 -31 31v45q0 31 31 31h47q34 -1 56 21t22 54t-24 52t-58 20t-57 -19q-22 -19 -21 -46v-15q0 -31 -31 -30h-61q-31 0 -31 30v27q0 68 51 119t125 51h51q80 0 130 -56q50 -55 50 -127t-69 -135q69 -63 69 -134
t-50 -127t-130 -56z" />
    <glyph glyph-name="fiveeighths" unicode="&#x215d;" horiz-adv-x="1515" 
d="M1184 264q-33 0 -56 -22q-22 -22 -22 -54q0 -33 22 -52t58 -19q34 0 58 19t24 52t-23 55t-55 21h-6zM1184 371h6q34 -1 56 21t22 54t-24 52t-58 20t-58 -19q-22 -19 -22 -53t22 -54q22 -21 56 -21zM1393 183q-1 -71 -51 -127t-130 -56h-51q-80 0 -130 56t-50 127t70 134
q-70 63 -70 135t50 127q50 56 130 56h51q80 0 130 -56q50 -55 50 -127t-69 -135q70 -63 70 -134zM1116 1487h86q39 0 21 -31l-828 -1425q-18 -31 -41 -31h-86q-38 0 -20 31l827 1425q18 31 41 31zM530 1044q0 -78 -50 -135t-130 -57h-51q-74 0 -125 51t-51 119v27
q0 31 31 30h61q31 0 31 -30v-15q0 -27 22 -46t54 -19q80 0 84 86q6 128 -110 108q-36 -6 -56 -24h-86q-31 0 -31 30v287q0 31 31 31h325q31 0 31 -31v-57q0 -31 -31 -31h-237v-117q44 23 114 16q174 -17 174 -223z" />
    <glyph glyph-name="seveneighths" unicode="&#x215e;" horiz-adv-x="1495" 
d="M1085 188q1 -33 23 -52t57 -19t59 19t23 52q0 33 -22 55q-23 22 -56 21h-6q-33 0 -55 -22t-23 -54zM1163 371h6q33 -1 56 21t23 54t-24 53q-24 19 -59 19t-57 -19t-23 -53q1 -34 23 -54q22 -21 55 -21zM1192 0h-51q-80 0 -130 56t-50 127t69 134q-70 63 -70 135t51 127
q50 56 130 56h51q80 0 130 -56q50 -55 50 -127t-69 -135q69 -63 69 -134t-50 -127t-130 -56zM1096 1487h86q39 0 20 -31l-827 -1425q-18 -31 -41 -31h-86q-39 0 -21 31l828 1425q18 31 41 31zM510 1456v-59q0 -18 -8 -35l-221 -481q-16 -29 -33 -29h-86q-31 0 -19 29
l219 483h-208q-31 0 -31 31v61q0 31 31 31h325q31 0 31 -31z" />
    <glyph glyph-name="partialdiff" unicode="&#x2202;" horiz-adv-x="1163" 
d="M547 72h84q151 0 229 85t96 273t-68 281q-88 94 -306 96t-302 -94q-84 -95 -82 -281q3 -186 100 -273t249 -87zM528 1509h90q180 -1 292 -117t130 -296q39 -352 9 -682q-18 -205 -130 -320t-288 -114h-84q-182 0 -309 114t-136 328q-8 248 116 370t353 121
q279 0 396 -131q14 145 -23 351q-20 121 -100 205t-226 83h-90q-147 0 -238 -93t-91 -247v-34q0 -31 -31 -31h-33q-31 0 -31 31v34q0 186 123 307t301 121z" />
    <glyph glyph-name="emptyset" unicode="&#x2205;" horiz-adv-x="1198" 
d="M983 483v533q0 162 -90 274l-506 -1159q74 -49 166 -49h92q141 0 239 114t99 287zM215 1016v-533q0 -170 96 -286l510 1165q-82 55 -176 55h-92q-143 0 -241 -114q-97 -115 -97 -287zM260 0q-35 0 -20 31l32 75q-150 150 -149 373v541q0 203 127 346t303 143h92
q115 0 213 -63l4 10q12 31 41 31h43q33 0 21 -31l-33 -74q141 -147 141 -362v-541q0 -203 -127 -347t-303 -144h-92q-106 0 -203 57q-19 -45 -47 -45h-43z" />
    <glyph glyph-name="product" unicode="&#x220f;" horiz-adv-x="1052" 
d="M154 963h747q29 0 29 -31v-901q0 -31 -31 -31h-31q-31 0 -30 31v839h-623v-839q0 -31 -31 -31h-30q-31 0 -31 31v901q0 31 31 31z" />
    <glyph glyph-name="summation" unicode="&#x2211;" horiz-adv-x="1120" 
d="M123 1350v106q0 31 31 31h813q31 0 30 -33v-29q0 -31 -30 -30h-774l518 -582q29 -33 28 -49v-43q0 -16 -28 -49l-518 -578l774 -2q29 0 30 -31l-2 -30q0 -31 -28 -31h-813q-31 0 -31 31v106q0 18 31 58l489 546l-489 551q-31 40 -31 58z" />
    <glyph glyph-name="minus" unicode="&#x2212;" horiz-adv-x="1052" 
d="M154 723h747q29 0 29 -31v-30q0 -31 -31 -31h-745q-31 0 -31 31v30q0 31 31 31z" />
    <glyph glyph-name="radical" unicode="&#x221a;" horiz-adv-x="1247" 
d="M131 688h57q19 0 23 -8t8 -14t6 -11l277 -499l528 1298q12 33 37 33h51q37 0 25 -33l-590 -1421q-12 -33 -39 -33h-29q-19 0 -39 33l-340 622q-14 33 25 33z" />
    <glyph glyph-name="infinity" unicode="&#x221e;" horiz-adv-x="1734" 
d="M1544 522v68q0 145 -79 213t-201 67h-80q-94 0 -170 -54t-99 -150q6 -37 7 -76v-68q0 -39 -7 -73q23 -97 99 -153t170 -56h80q124 0 202 68t78 214zM473 240h78q96 0 171 53t99 149q-8 33 -8 80v68q0 47 8 80q-25 96 -99 148q-75 52 -171 52h-78q-119 0 -200 -68
t-80 -212v-68q0 -143 80 -213q81 -69 200 -69zM1184 963h76q156 1 264 -101t108 -276v-62q0 -172 -108 -273t-264 -101h-76q-96 0 -182 44t-134 123q-49 -79 -133 -123t-184 -44h-76q-153 0 -263 102t-110 272v62q0 172 111 274t262 103h76q217 0 317 -168q50 82 134 125
t182 43z" />
    <glyph glyph-name="integral" unicode="&#x222b;" horiz-adv-x="817" 
d="M715 1456v-31q0 -31 -31 -30h-18q-102 0 -156 -75t-55 -202v-1143q0 -170 -88 -276t-238 -109q-27 2 -27 31v31q0 31 31 31h19q102 1 156 75t54 201v1143q0 170 88 276t238 109q27 -2 27 -31z" />
    <glyph glyph-name="approxequal" unicode="&#x2248;" horiz-adv-x="1058" 
d="M934 504l18 -35q12 -23 -20 -45q-199 -145 -414 -6q-100 63 -175 61t-183 -73q-20 -12 -35 16l-19 35q-12 23 21 45q195 145 412 6q102 -64 177 -62t183 74q21 15 35 -16zM934 793l18 -35q12 -23 -20 -45q-197 -147 -414 -6q-100 63 -175 61t-183 -74q-20 -14 -35 17
l-19 34q-12 23 21 46q195 143 412 6q102 -63 177 -61t183 73q21 15 35 -16z" />
    <glyph glyph-name="notequal" unicode="&#x2260;" horiz-adv-x="817" 
d="M709 1411h43q33 0 20 -31l-215 -493h164q31 0 31 -31v-35q0 -31 -31 -30h-207l-100 -234h307q31 0 31 -31v-34q0 -31 -31 -31h-350l-221 -508q-14 -31 -41 -31h-43q-37 0 -21 31l221 508h-168q-31 0 -30 31v34q0 31 30 31h211l101 234h-312q-31 0 -30 30v35q0 31 30 31
h355l215 493q12 31 41 31z" />
    <glyph glyph-name="lessequal" unicode="&#x2264;" horiz-adv-x="983" 
d="M156 92h673q31 0 31 -31v-30q0 -31 -31 -31h-671q-31 0 -31 31v30q0 31 29 31zM860 1122v-39q0 -37 -20 -49l-572 -336l572 -336q20 -12 20 -49v-39q0 -12 -9 -17t-24 1l-690 408q-14 10 -14 32t14 33l690 408q14 6 24 1q9 -6 9 -18z" />
    <glyph glyph-name="greaterequal" unicode="&#x2265;" horiz-adv-x="983" 
d="M154 92h673q29 0 29 -31v-30q0 -31 -31 -31h-671q-31 0 -31 31v30q0 31 31 31zM123 1083v39q0 12 9 18t24 -1l690 -408q14 -10 14 -33t-14 -32l-690 -408q-14 -6 -24 -1q-9 5 -9 17v39q0 37 20 49l572 336l-572 336q-20 12 -20 49z" />
    <glyph glyph-name="lozenge" unicode="&#x25ca;" horiz-adv-x="931" 
d="M465 139l278 666q6 16 0 26l-276 668l-277 -668q-6 -12 0 -26zM498 0h-64q-27 0 -39 33l-311 774q-4 12 0 24l311 775q10 33 39 32h64q27 0 39 -32l311 -775q4 -12 0 -24l-311 -774q-10 -33 -39 -33z" />
    <glyph glyph-name="i.loclTRK" horiz-adv-x="419" 
d="M164 31v903q0 31 31 31h30q31 0 31 -31v-903q0 -31 -31 -31h-30q-31 0 -31 31zM137 1354v98q0 35 37 35h78q33 0 33 -35v-98q0 -35 -33 -35h-78q-37 0 -37 35z" />
    <glyph glyph-name="zero.lf" horiz-adv-x="1198" 
d="M553 82h92q141 0 240 115q98 115 98 286v533q0 172 -98 287t-240 114h-92q-143 0 -241 -114q-97 -115 -97 -287v-533q-1 -173 97 -287t241 -114zM553 1509h92q176 0 303 -143t127 -346v-541q0 -203 -127 -347t-303 -144h-92q-176 0 -303 144t-127 347v541q0 203 127 346
t303 143z" />
    <glyph glyph-name="one.lf" horiz-adv-x="710" 
d="M362 1487h31q31 0 31 -31v-1425q0 -31 -31 -31h-31q-31 0 -30 31v1315l-113 -113q-23 -20 -43 0l-22 20q-20 20 0 43l188 187q12 4 20 4z" />
    <glyph glyph-name="two.lf" horiz-adv-x="1159" 
d="M629 1503q170 0 299 -123t129 -303q-1 -180 -103 -277t-323 -186l-232 -92q-104 -43 -146 -173t-42 -257h801q31 0 30 -31v-30q0 -31 -30 -31h-877q-31 0 -31 31q2 233 53 370q50 137 199 201l299 129q160 68 209 109q100 82 100 234t-100 244t-235 93h-86
q-131 0 -231 -92t-99 -242v-35q0 -31 -31 -30h-32q-31 0 -31 30v35q0 178 128 300t296 126h86z" />
    <glyph glyph-name="three.lf" horiz-adv-x="1148" 
d="M1047 379q0 -176 -129 -287t-306 -110h-86q-168 0 -297 114t-127 295v39q0 31 31 31h33q31 0 31 -31v-39q0 -153 98 -235t231 -82h86q141 0 242 79q100 79 100 222t-95 232t-251 95h-147q-31 0 -31 31v43q0 31 31 31h147q154 6 243 89t89 218t-98 220t-232 85h-86
q-129 0 -228 -90t-99 -246v-39q0 -31 -31 -30h-33q-31 0 -31 30v39q0 185 129 307t293 121h86q170 -1 296 -117t126 -278q0 -118 -58 -202t-179 -158q252 -152 252 -377z" />
    <glyph glyph-name="four.lf" horiz-adv-x="1128" 
d="M735 602v330q0 31 31 31h31q31 0 30 -31v-330h179q31 0 30 -31v-30q0 -31 -30 -31h-179v-479q0 -31 -30 -31h-31q-31 0 -31 31v479h-637q-25 0 -32 20l-19 39q-10 20 4 43l582 875q14 23 41 22h43q20 0 25 -10t-5 -24l-579 -873h577z" />
    <glyph glyph-name="five.lf" horiz-adv-x="1161" 
d="M528 -18q-178 0 -302 114t-124 297v33q0 31 31 31h33q31 0 31 -31v-33q0 -151 94 -235t237 -84h86q145 0 246 86q100 86 105 258q10 412 -357 411h-65q-121 0 -239 -84q-48 -35 -73 -43h-77q-31 0 -31 31v39l20 684q0 31 31 31h787q31 0 30 -31v-31q0 -31 -30 -30h-719
l-23 -582q12 6 83 47q127 72 265 72h54q201 0 325 -130t115 -380q-8 -211 -136 -326t-311 -114h-86z" />
    <glyph glyph-name="six.lf" horiz-adv-x="1163" 
d="M520 74h98q152 0 248 86t100 272t-79 282q-82 95 -279 95h-82q-358 0 -317 -395q16 -174 89 -257t222 -83zM635 1511q178 1 301 -121t123 -309v-34q0 -31 -31 -31h-33q-31 0 -30 31v34q1 154 -91 246t-239 92h-90q-145 0 -225 -83t-101 -203q-37 -205 -22 -351
q117 131 325 131h88q469 0 451 -491q-8 -213 -134 -327t-309 -113h-98q-174 0 -280 112t-125 320q-31 330 8 682q18 180 130 296t292 119h90z" />
    <glyph glyph-name="seven.lf" horiz-adv-x="1165" 
d="M1073 1456v-33q0 -25 -6 -37q-539 -590 -782 -1402q-8 -23 -43 -11l-35 17q-23 10 -10 45q231 786 776 1360h-850q-31 0 -31 30v31q0 31 31 31h919q31 0 31 -31z" />
    <glyph glyph-name="eight.lf" horiz-adv-x="1173" 
d="M979 369v65q0 119 -93 206t-229 87h-139q-135 0 -229 -87t-94 -206v-65q0 -121 93 -208t230 -87h139q135 0 229 87q93 87 93 208zM221 1128v-24q0 -123 79 -206t212 -83h150q134 0 212 83t78 206v24q0 119 -81 205t-214 86h-141q-133 0 -214 -86t-81 -205zM1071 440v-63
q0 -156 -124 -276t-292 -119h-135q-168 0 -293 120t-125 275v63q0 96 56 186t147 148q-82 57 -130 141t-48 177v32q0 152 116 270t281 117h127q164 1 280 -117t116 -270v-32q1 -92 -47 -178t-130 -140q90 -59 146 -148t55 -186z" />
    <glyph glyph-name="nine.lf" horiz-adv-x="1165" 
d="M645 1419h-98q-152 0 -248 -86q-96 -85 -98 -271t80 -281t276 -95h84q356 0 315 393q-16 176 -89 258t-222 82zM530 -18q-178 0 -301 122t-123 308v34q0 31 31 31h33q31 0 31 -31v-34q0 -154 91 -246t238 -92h93q145 0 224 83t99 203q37 205 23 353q-113 -133 -326 -133
h-86q-471 0 -453 491q8 213 134 327t309 113h98q174 0 281 -112q106 -113 125 -320q31 -330 -9 -682q-18 -179 -130 -295t-291 -120h-91z" />
    <glyph glyph-name="zero.osf" horiz-adv-x="1079" 
d="M874 389v184q0 125 -78 212q-79 87 -196 87h-119q-121 0 -199 -87t-77 -212v-184q0 -125 78 -212t198 -87h119q117 0 196 87q78 87 78 212zM479 965h121q150 0 258 -118t109 -274v-182q0 -157 -109 -275t-258 -118h-121q-151 0 -259 119t-107 274v182q0 156 106 274
t260 118z" />
    <glyph glyph-name="one.osf" horiz-adv-x="626" 
d="M393 88h101q31 0 30 -31v-26q0 -31 -30 -31h-297q-31 0 -31 31v26q0 31 31 31h104v733l-113 -112q-20 -20 -43 0l-22 20q-20 20 0 43l188 186q12 4 21 5h30q31 0 31 -31v-844z" />
    <glyph glyph-name="two.osf" horiz-adv-x="1095" 
d="M979 630q0 -126 -69 -174t-271 -98l-215 -51q-209 -49 -209 -215h727q31 0 31 -31v-30q0 -31 -31 -31h-799q-31 0 -30 31q2 164 57 249t209 123l229 58q33 8 129 29t123 53t27 84q0 96 -90 170t-205 73h-84q-121 0 -204 -72t-83 -177v-27q0 -31 -31 -31h-32q-31 0 -31 31
v27q-1 135 111 239t268 107h88q152 -3 268 -107t117 -230z" />
    <glyph glyph-name="three.osf" horiz-adv-x="1148" 
d="M1047 -41q-1 -161 -131 -271t-304 -110h-86q-168 0 -297 116t-127 304v39q0 31 31 31h33q31 0 31 -31v-39q0 -158 97 -243t230 -85h88q139 0 241 76q101 76 101 204t-95 206t-251 84h-45q-31 0 -31 30v43q0 31 31 31h45q332 12 332 250q0 113 -99 196t-231 82h-88
q-125 0 -225 -90t-100 -229v-39q0 -31 -31 -31h-33q-31 0 -31 31v39q0 166 131 289t291 123h86q166 0 294 -116t128 -250q0 -135 -58 -203t-181 -103q119 -37 187 -125t67 -209z" />
    <glyph glyph-name="four.osf" horiz-adv-x="1128" 
d="M735 92v332q0 31 31 31h31q31 0 30 -31v-332h179q31 0 30 -31v-30q0 -31 -30 -31h-179v-379q0 -31 -30 -31h-31q-31 0 -31 31v379h-637q-25 0 -32 20l-19 41q-10 20 4 43l582 875q14 23 41 22h43q20 0 25 -11t-5 -25l-579 -873h577z" />
    <glyph glyph-name="five.osf" horiz-adv-x="1187" 
d="M627 -426h-86q-178 0 -302 114t-124 298v32q0 31 30 31h33q31 0 31 -31v-32q0 -152 94 -236t238 -84h86q145 0 245 86t104 272t-79 291q-84 104 -259 107t-313 -82q-58 -37 -81 -45h-78q-31 0 -31 31v39l21 567q0 31 30 31h787q31 0 31 -31v-31q0 -31 -31 -31h-717
l-25 -464q18 12 84 45t86 39q21 6 52 16t55 12t58 5q32 3 67 1q203 -6 325 -133t115 -377q-8 -212 -136 -326t-310 -114z" />
    <glyph glyph-name="six.osf" horiz-adv-x="1163" 
d="M520 74h98q152 0 248 86t100 272t-79 282q-82 95 -279 95h-82q-358 0 -317 -395q16 -174 89 -257t222 -83zM635 1511q178 1 301 -121t123 -309v-34q0 -31 -31 -31h-33q-31 0 -30 31v34q1 154 -91 246t-239 92h-90q-145 0 -225 -83t-101 -203q-37 -205 -22 -351
q117 131 325 131h88q469 0 451 -491q-8 -213 -134 -327t-309 -113h-98q-174 0 -280 112t-125 320q-31 330 8 682q18 180 130 296t292 119h90z" />
    <glyph glyph-name="seven.osf" horiz-adv-x="1165" 
d="M297 -410h-41q-37 0 -27 35q225 705 744 1245h-850q-31 0 -31 31v31q0 31 31 31h919q31 0 31 -31v-33q0 -25 -6 -37q-504 -547 -735 -1247q-8 -25 -35 -25z" />
    <glyph glyph-name="eight.osf" horiz-adv-x="1173" 
d="M979 369v65q0 119 -93 206t-229 87h-139q-135 0 -229 -87t-94 -206v-65q0 -121 93 -208t230 -87h139q135 0 229 87q93 87 93 208zM221 1128v-24q0 -123 79 -206t212 -83h150q134 0 212 83t78 206v24q0 119 -81 205t-214 86h-141q-133 0 -214 -86t-81 -205zM1071 440v-63
q0 -156 -124 -276t-292 -119h-135q-168 0 -293 120t-125 275v63q0 96 56 186t147 148q-82 57 -130 141t-48 177v32q0 152 116 270t281 117h127q164 1 280 -117t116 -270v-32q1 -92 -47 -178t-130 -140q90 -59 146 -148t55 -186z" />
    <glyph glyph-name="nine.osf" horiz-adv-x="1183" 
d="M643 872h-84q-150 0 -249 -80t-102 -244q-3 -165 81 -253t304 -86t303 87t67 271q-29 305 -320 305zM539 -424q-174 0 -299 111t-125 276v21q0 33 30 32h33q31 0 31 -32v-21q0 -137 93 -216t237 -79h90q139 0 221 72t104 172q35 174 23 307q-111 -115 -365 -115t-384 113
q-128 113 -115 340q12 190 138 299t306 109h84q176 0 290 -109t128 -289q27 -326 -8 -618q-18 -159 -134 -267t-288 -106h-90z" />
    <glyph glyph-name="zero.tf" 
d="M670 82h92q141 0 239 115t99 286v533q0 172 -98 287t-240 114h-92q-143 0 -241 -114q-97 -115 -97 -287v-533q0 -173 98 -287t240 -114zM670 1509h92q176 0 303 -143t127 -346v-541q0 -203 -127 -347t-303 -144h-92q-176 0 -303 144t-127 347v541q0 203 127 346t303 143z
" />
    <glyph glyph-name="one.tf" 
d="M700 1487h31q31 0 31 -31v-1425q0 -31 -31 -31h-31q-31 0 -30 31v1312l-113 -110q-20 -23 -43 0l-20 20q-20 20 -2 43l188 187q12 4 20 4z" />
    <glyph glyph-name="two.tf" 
d="M766 1503q170 0 299 -123t129 -303t-102 -277t-324 -186l-231 -92q-105 -43 -147 -173t-42 -257h801q31 0 31 -31v-30q0 -31 -31 -31h-877q-31 0 -30 31q2 233 52 370t200 201l299 129q160 68 208 109q101 82 101 234t-100 244t-236 93h-86q-131 0 -230 -92t-100 -242
v-35q0 -31 -31 -30h-32q-31 0 -31 30v35q0 178 128 300t296 126h86z" />
    <glyph glyph-name="three.tf" 
d="M1190 379q0 -176 -129 -287t-305 -110h-86q-168 0 -297 114t-127 295v39q0 31 30 31h33q31 0 31 -31v-39q0 -153 98 -235t232 -82h86q141 0 241 79t101 222q0 143 -96 232t-250 95h-148q-31 0 -31 31v43q0 31 31 31h148q154 6 242 89t89 218q0 135 -98 220t-231 85h-86
q-128 0 -228 -90t-100 -246v-39q0 -31 -31 -30h-33q-31 0 -30 30v39q0 185 129 307t293 121h86q170 -1 296 -117t126 -278q0 -118 -58 -202t-180 -158q252 -152 252 -377z" />
    <glyph glyph-name="four.tf" 
d="M897 602v330q0 31 31 31h30q31 0 31 -31v-330h178q31 0 31 -31v-30q0 -31 -31 -31h-178v-479q0 -31 -31 -31h-30q-31 0 -31 31v479h-637q-25 0 -33 20l-18 39q-10 20 4 43l582 875q14 23 41 22h43q20 0 25 -10t-5 -24l-580 -873h578z" />
    <glyph glyph-name="five.tf" 
d="M662 -18q-178 0 -303 113q-124 114 -123 298v33q0 31 30 31h33q31 0 31 -31v-33q0 -151 94 -235t238 -84h86q145 0 245 86t105 258q6 412 -357 411h-65q-121 0 -239 -84q-48 -35 -75 -43h-75q-31 0 -31 31v39l20 684q0 31 31 31h787q31 0 30 -31v-31q0 -31 -30 -30h-719
l-23 -582q14 8 81 47q126 72 265 72h56q200 0 324 -130t116 -380q-8 -211 -136 -326t-310 -114h-86z" />
    <glyph glyph-name="six.tf" 
d="M655 74h99q152 0 248 86t98 272q4 186 -78 280q-82 95 -279 95h-81q-359 0 -318 -393q16 -176 89 -258t222 -82zM770 1511q178 1 301 -121t123 -309v-34q0 -31 -31 -31h-33q-31 0 -30 31v34q0 154 -91 246t-239 92h-90q-145 0 -225 -83t-101 -203q-37 -205 -22 -353
q119 133 325 133h88q469 0 451 -491q-8 -213 -134 -327t-308 -113h-99q-174 0 -280 112t-125 320q-31 330 8 682q18 180 130 296t292 119h90z" />
    <glyph glyph-name="seven.tf" 
d="M1206 1456v-33q0 -25 -6 -37q-539 -590 -782 -1402q-8 -23 -43 -11l-35 17q-23 10 -10 45q231 786 776 1360h-850q-31 0 -31 30v31q0 31 31 31h920q30 0 30 -31z" />
    <glyph glyph-name="eight.tf" 
d="M1108 369v65q0 119 -93 206t-229 87h-139q-135 0 -229 -87t-94 -206v-65q0 -121 93 -208t230 -87h139q135 0 229 87q93 87 93 208zM350 1128v-24q0 -123 79 -206t212 -83h150q133 0 211 83t79 206v24q0 119 -81 205t-214 86h-141q-133 0 -214 -86t-81 -205zM1200 440v-63
q0 -156 -124 -276t-292 -119h-135q-168 0 -293 120t-125 275v63q1 96 57 186t146 148q-82 57 -130 141t-48 177v32q0 152 116 270t281 117h127q164 1 280 -117t116 -270v-32q0 -92 -48 -178t-129 -140q89 -59 145 -148t56 -186z" />
    <glyph glyph-name="nine.tf" 
d="M778 1419h-98q-152 0 -248 -86q-96 -85 -98 -271t80 -281t276 -95h84q357 0 316 393q-16 176 -90 258t-222 82zM664 -18q-178 0 -302 121q-123 122 -122 309v34q0 31 30 31h33q31 0 31 -31v-34q0 -154 91 -246t239 -92h92q145 0 224 83t99 203q37 205 23 353
q-113 -133 -326 -133h-86q-471 0 -452 491q8 213 134 327t308 113h98q174 0 281 -112q106 -113 125 -320q31 -330 -8 -682q-18 -179 -130 -295t-292 -120h-90z" />
    <glyph glyph-name="zero.tosf" 
d="M1049 389v184q0 125 -79 212t-198 87h-119q-121 0 -197 -87t-77 -212v-184q0 -125 77 -212t197 -87h119q119 0 198 87t79 212zM653 965h121q150 0 258 -118t109 -274v-182q0 -157 -109 -275t-258 -118h-121q-154 0 -260 118t-106 275v182q0 158 106 275t260 117z" />
    <glyph glyph-name="one.tosf" 
d="M768 88h100q31 0 31 -31v-26q0 -31 -31 -31h-297q-31 0 -30 31v26q0 31 30 31h105v731l-113 -110q-20 -23 -43 0l-20 20q-20 20 0 43l180 180q15 10 27 11h30q31 0 31 -31v-844z" />
    <glyph glyph-name="two.tosf" 
d="M1151 630q0 -126 -69 -174t-271 -98l-215 -51q-211 -49 -211 -215h729q31 0 31 -31v-30q0 -31 -31 -31h-799q-31 0 -30 31q2 164 57 249t209 123l229 58q33 8 129 29t123 53t27 84q0 96 -90 170t-205 73h-84q-121 0 -204 -72t-83 -177v-27q0 -31 -31 -31h-32
q-31 0 -31 31v27q-1 135 111 239t268 107h88q152 -3 268 -107t117 -230z" />
    <glyph glyph-name="three.tosf" 
d="M1190 -41q0 -161 -130 -271t-304 -110h-86q-168 0 -297 116t-127 304v39q0 31 30 31h33q31 0 31 -31v-39q0 -158 97 -243t231 -85h88q139 0 240 76q102 76 102 204t-96 206t-250 84h-45q-31 0 -31 30v43q0 31 31 31h45q332 12 331 250q0 113 -99 196t-230 82h-88
q-126 0 -226 -90t-100 -229v-39q0 -31 -31 -31h-33q-31 0 -30 31v39q0 166 131 289t291 123h86q166 0 294 -116t128 -250q0 -135 -58 -203t-182 -103q118 -37 186 -125t68 -209z" />
    <glyph glyph-name="four.tosf" 
d="M893 92v332q0 31 31 31h30q31 0 31 -31v-332h180q31 0 31 -31v-30q0 -31 -31 -31h-180v-379q0 -31 -31 -31h-30q-31 0 -31 31v379h-635q-25 0 -33 20l-18 41q-10 20 4 43l580 875q14 23 40 22h46q20 0 25 -11t-5 -25l-582 -873h578z" />
    <glyph glyph-name="five.tosf" 
d="M748 -426h-86q-178 0 -303 114q-124 114 -123 298v32q0 31 30 31h33q31 0 31 -31v-32q0 -152 94 -236t238 -84h86q145 0 245 86q101 86 105 272t-80 291q-84 104 -259 107t-315 -82q-59 -37 -82 -45h-75q-31 0 -31 31v39l20 567q0 31 31 31h787q31 0 30 -31v-31
q0 -31 -30 -31h-719l-23 -464q4 2 37 20t40 21t36 19t41 18q12 4 40 14t46 13t46 8t56 5h60q204 -6 326 -133t114 -377q-8 -212 -136 -326t-310 -114z" />
    <glyph glyph-name="six.tosf" 
d="M655 74h99q152 0 248 86t98 272t-80 282q-82 95 -277 95h-84q-356 0 -315 -395q16 -174 89 -257t222 -83zM770 1511q178 1 301 -121t123 -309v-34q0 -31 -31 -31h-33q-31 0 -30 31v34q0 154 -91 246t-239 92h-92q-145 0 -224 -83t-100 -203q-37 -205 -22 -351
q111 131 325 131h86q471 0 453 -491q-8 -213 -134 -327t-308 -113h-99q-174 0 -280 112t-125 320q-31 330 8 682q18 180 130 296t292 119h90z" />
    <glyph glyph-name="seven.tosf" 
d="M430 -410h-41q-37 0 -27 35q225 705 744 1245h-850q-31 0 -31 31v31q0 31 31 31h920q31 0 30 -31v-33q0 -25 -6 -37q-504 -547 -735 -1247q-10 -25 -35 -25z" />
    <glyph glyph-name="eight.tosf" 
d="M1110 369v65q0 119 -93 206t-229 87h-139q-135 0 -229 -87t-94 -206v-65q0 -121 93 -208t230 -87h139q135 0 229 87q93 87 93 208zM352 1128v-24q0 -123 79 -206t212 -83h150q133 0 212 83t78 206v24q0 119 -81 205t-214 86h-141q-133 0 -214 -86t-81 -205zM1202 440v-63
q0 -156 -124 -276t-292 -119h-135q-168 0 -293 120t-125 275v63q1 96 57 186t146 148q-82 57 -130 141t-48 177v32q0 152 116 270t281 117h127q164 1 280 -117t116 -270v-32q0 -92 -48 -178t-129 -140q89 -59 145 -148t56 -186z" />
    <glyph glyph-name="nine.tosf" 
d="M770 872h-84q-150 0 -249 -80t-102 -244q-3 -165 81 -253t304 -86t303 87t67 271q-29 305 -320 305zM666 -424q-174 0 -299 111t-125 276v21q0 33 30 32h33q31 0 31 -32v-21q0 -137 93 -216t237 -79h90q139 0 221 72t104 172q35 174 23 307q-112 -115 -366 -115t-383 113
q-128 113 -115 340q12 190 138 299t306 109h84q176 0 290 -109t128 -289q27 -326 -8 -618q-18 -159 -134 -267t-288 -106h-90z" />
    <glyph glyph-name="zero.dnom" horiz-adv-x="653" 
d="M406 186v263q0 31 -24 50t-58 19t-57 -19q-22 -19 -21 -50v-263q0 -31 22 -50t56 -19t58 19t24 50zM299 635h51q80 0 130 -53t50 -125v-279q0 -72 -50 -125t-130 -53h-51q-72 0 -124 54t-52 124v279q0 70 52 124t124 54z" />
    <glyph glyph-name="one.dnom" horiz-adv-x="618" 
d="M246 31v571q0 31 30 31h66q31 0 31 -31v-571q0 -31 -31 -31h-66q-30 0 -30 31z" />
    <glyph glyph-name="two.dnom" horiz-adv-x="655" 
d="M532 31q0 -31 -30 -31h-344q-31 0 -31 31v49q0 30 11 46t44 50l144 154q4 4 41 37t38 69q1 35 -23 59q-24 23 -58 23t-57 -19q-22 -19 -21 -46v-15q0 -31 -31 -30h-61q-31 0 -31 30v27q0 68 51 119t125 51h51q80 -1 130 -61t50 -126t-34 -114q-34 -49 -97 -113l-104 -104
l207 4q31 0 30 -31v-59z" />
    <glyph glyph-name="three.dnom" horiz-adv-x="653" 
d="M350 0h-51q-74 0 -125 51t-51 119v27q0 31 31 30h61q31 0 31 -30v-15q0 -27 22 -46t56 -19t58 19t24 52t-23 55t-55 21h-47q-31 0 -31 31v45q0 31 31 31h47q34 -1 56 21t22 54t-24 52t-58 20t-57 -19q-22 -19 -21 -46v-15q0 -31 -31 -30h-61q-31 0 -31 30v27q0 68 51 119
t125 51h51q80 0 130 -56q50 -55 50 -127t-69 -135q69 -63 69 -134t-50 -127t-130 -56z" />
    <glyph glyph-name="four.dnom" horiz-adv-x="688" 
d="M383 246v205l-104 -205h104zM506 242h29q31 0 30 -31v-61q0 -31 -30 -31h-29v-88q0 -31 -31 -31h-61q-31 0 -31 31v88h-223q-29 0 -31 31l-6 59q0 8 8 24l217 388q8 14 29 14h98q31 0 31 -31v-362z" />
    <glyph glyph-name="five.dnom" horiz-adv-x="653" 
d="M530 193q0 -77 -50 -135t-130 -58h-51q-74 0 -125 51t-51 119v27q0 31 31 30h61q31 0 31 -30v-15q0 -27 22 -46t54 -19q80 0 84 86q6 128 -110 108q-36 -6 -56 -24h-86q-31 0 -31 30v287q0 31 31 31h325q31 0 31 -31v-57q0 -31 -31 -31h-237v-117q44 23 114 16
q174 -17 174 -222z" />
    <glyph glyph-name="six.dnom" horiz-adv-x="653" 
d="M325 117q81 0 81 95t-81 95t-81 -95t81 -95zM530 193q0 -77 -50 -135t-130 -58h-51q-70 0 -113 48t-53 110t-10 194q0 209 113 260q133 61 264 -24q22 -16 12 -41l-12 -41q-8 -33 -41 -14q-68 45 -158 28q-55 -12 -59 -67l-2 -54q46 23 116 16q174 -17 174 -222z" />
    <glyph glyph-name="seven.dnom" horiz-adv-x="632" 
d="M510 604v-59q0 -18 -8 -35l-221 -481q-16 -29 -33 -29h-86q-31 0 -19 29l219 483h-208q-31 0 -31 31v61q0 31 31 31h325q31 0 31 -31z" />
    <glyph glyph-name="eight.dnom" horiz-adv-x="657" 
d="M326 264q-33 0 -56 -22q-22 -22 -22 -54q0 -33 22 -52t58 -19q34 0 58 19t24 52t-23 55t-55 21h-6zM326 371h6q34 -1 56 21t22 54t-24 52t-58 20t-58 -19q-22 -19 -22 -53t22 -54q22 -21 56 -21zM535 183q-1 -71 -51 -127t-130 -56h-51q-80 0 -130 56t-50 127t70 134
q-70 63 -70 135t50 127q50 56 130 56h51q80 0 130 -56q50 -55 50 -127t-69 -135q70 -63 70 -134z" />
    <glyph glyph-name="nine.dnom" horiz-adv-x="653" 
d="M329 518q-81 0 -81 -95t81 -95t81 95t-81 95zM123 442q0 78 50 136t130 57h51q70 0 113 -48q43 -47 53 -109t10 -195q0 -209 -112 -260q-133 -61 -264 24q-23 16 -13 41l13 41q8 33 41 14q68 -45 157 -28q55 12 60 67l2 54q-45 -23 -116 -16q-175 17 -175 222z" />
    <glyph glyph-name="zero.numr" horiz-adv-x="653" 
d="M406 1038v262q0 30 -24 50t-58 20t-57 -19q-22 -19 -21 -51v-262q0 -31 22 -50t56 -19t58 19t24 50zM299 1487h51q80 0 130 -53t50 -125v-279q0 -72 -50 -125t-130 -53h-51q-72 0 -124 54t-52 124v279q0 70 52 124t124 54z" />
    <glyph glyph-name="one.numr" horiz-adv-x="618" 
d="M246 885v571q0 31 30 31h66q31 0 31 -31v-571q0 -31 -31 -31h-66q-30 0 -30 31z" />
    <glyph glyph-name="two.numr" horiz-adv-x="655" 
d="M532 883q0 -31 -30 -31h-344q-31 0 -31 31v49q0 30 11 46t44 50l144 154q4 4 41 37t38 69q1 35 -23 59q-24 23 -58 23t-57 -19q-22 -19 -21 -46v-15q0 -31 -31 -30h-61q-31 0 -31 30v27q0 68 51 119t125 51h51q80 -1 130 -61t50 -126t-34 -114q-34 -49 -97 -113
l-104 -104l207 4q31 0 30 -31v-59z" />
    <glyph glyph-name="three.numr" horiz-adv-x="653" 
d="M350 854h-51q-74 0 -125 51t-51 119v27q0 31 31 30h61q31 0 31 -30v-15q0 -27 22 -46t56 -19t58 19t24 52t-23 55t-55 21h-47q-31 0 -31 31v45q0 31 31 31h47q34 -1 56 21t22 54t-24 52t-58 20t-57 -19q-22 -19 -21 -46v-15q0 -31 -31 -30h-61q-31 0 -31 30v27
q0 68 51 119t125 51h51q80 0 130 -56q50 -55 50 -127t-69 -135q69 -63 69 -134t-50 -127t-130 -56z" />
    <glyph glyph-name="four.numr" horiz-adv-x="688" 
d="M383 1098v205l-104 -205h104zM506 1094h29q31 0 30 -31v-62q0 -31 -30 -30h-29v-88q0 -31 -31 -31h-61q-31 0 -31 31v88h-223q-29 0 -31 30l-6 60q0 8 8 24l217 388q8 14 29 14h98q31 0 31 -31v-362z" />
    <glyph glyph-name="five.numr" horiz-adv-x="653" 
d="M530 1044q0 -78 -50 -135t-130 -57h-51q-74 0 -125 51t-51 119v27q0 31 31 30h61q31 0 31 -30v-15q0 -27 22 -46t54 -19q80 0 84 86q6 128 -110 108q-36 -6 -56 -24h-86q-31 0 -31 30v287q0 31 31 31h325q31 0 31 -31v-57q0 -31 -31 -31h-237v-117q44 23 114 16
q174 -17 174 -223z" />
    <glyph glyph-name="six.numr" horiz-adv-x="653" 
d="M325 969q81 0 81 95t-81 95t-81 -95t81 -95zM530 1044q0 -78 -50 -135t-130 -57h-51q-70 0 -113 48t-53 110t-10 194q0 209 113 260q133 61 264 -24q22 -16 12 -41l-12 -41q-8 -33 -41 -15q-68 45 -158 29q-55 -12 -59 -67l-2 -54q46 23 116 16q174 -17 174 -223z" />
    <glyph glyph-name="seven.numr" horiz-adv-x="632" 
d="M510 1456v-59q0 -18 -8 -35l-221 -481q-16 -29 -33 -29h-86q-31 0 -19 29l219 483h-208q-31 0 -31 31v61q0 31 31 31h325q31 0 31 -31z" />
    <glyph glyph-name="eight.numr" horiz-adv-x="657" 
d="M326 1116q-33 0 -56 -22q-22 -22 -22 -54q0 -33 22 -52t58 -19q34 0 58 19t24 52t-23 55t-55 21h-6zM326 1223h6q34 -1 56 21t22 54t-24 52t-58 20t-58 -19q-22 -19 -22 -53t22 -54q22 -21 56 -21zM535 1035q-1 -71 -51 -127t-130 -56h-51q-80 0 -130 56t-50 127t70 134
q-70 63 -70 134t50 127t130 57h51q80 0 130 -56q50 -55 50 -127t-69 -135q70 -63 70 -134z" />
    <glyph glyph-name="nine.numr" horiz-adv-x="653" 
d="M329 1372q-81 0 -81 -95t81 -95t81 95t-81 95zM123 1296q0 78 50 136t130 57h51q70 0 113 -48q43 -47 53 -109t10 -195q0 -209 -112 -260q-133 -61 -264 24q-23 16 -13 41l13 41q8 33 41 14q68 -45 157 -28q55 12 60 67l2 54q-45 -23 -116 -16q-175 17 -175 222z" />
    </font>
</defs>
</svg>
